<svg width="112" height="33" viewBox="0 0 112 33" fill="none" xmlns="http://www.w3.org/2000/svg">
<path d="M111 22.9965V19.139H110.587V22.225L108.534 19.139H108.142V22.9965H108.555V19.9009L110.609 22.9989L111 22.9965ZM106.874 22.9965V22.6276H104.885V21.2329H106.576V20.8652H104.885V19.5031H106.875V19.1342H104.472V22.9916L106.874 22.9965ZM103.2 21.9333C103.206 21.7895 103.18 21.6461 103.124 21.5136C103.068 21.3812 102.982 21.263 102.874 21.1678C102.711 21.0268 102.532 20.9508 102.167 20.8966L101.744 20.8315C101.554 20.8066 101.375 20.734 101.222 20.6205C101.162 20.5638 101.115 20.4945 101.085 20.4176C101.055 20.3407 101.042 20.2581 101.048 20.1757C101.048 19.7466 101.347 19.4597 101.863 19.4597C102.028 19.4508 102.193 19.4755 102.348 19.5322C102.503 19.589 102.645 19.6767 102.765 19.79L103.032 19.5248C102.879 19.3798 102.698 19.2675 102.5 19.1948C102.302 19.122 102.091 19.0904 101.88 19.1017C101.113 19.1017 100.641 19.5356 100.641 20.1866C100.633 20.3213 100.656 20.456 100.707 20.581C100.757 20.7061 100.835 20.8184 100.935 20.9098C101.14 21.0713 101.386 21.1727 101.646 21.2028L102.097 21.2727C102.38 21.3161 102.478 21.3486 102.602 21.4571C102.666 21.5195 102.715 21.5949 102.747 21.6781C102.779 21.7613 102.793 21.8504 102.787 21.9393C102.787 22.3889 102.439 22.6553 101.874 22.6553C101.678 22.667 101.481 22.6351 101.299 22.562C101.117 22.4888 100.953 22.3762 100.82 22.2322L100.537 22.5143C100.9 22.8759 101.282 23.0242 101.866 23.0242C102.67 23.0242 103.203 22.6059 103.203 21.9284M99.9586 22.9916V22.6228H97.9779V19.127H97.5648V22.9844L99.9586 22.9916ZM96.3002 22.9916V22.6228H94.3146V21.2329H96.0055V20.8652H94.3146V19.5031H96.3039V19.1342H93.8955V22.9916H96.3002ZM92.1406 20.2131C92.1406 20.6856 91.8193 20.9183 91.3688 20.9183H90.3362V19.5031H91.3688C91.8193 19.5031 92.1406 19.7442 92.1406 20.2131ZM92.6237 22.9965L91.7046 21.2437C91.9485 21.2052 92.1695 21.0782 92.3255 20.8872C92.4815 20.6961 92.5614 20.4544 92.55 20.2083C92.55 19.5405 92.0766 19.1342 91.4026 19.1342H89.9231V22.9916H90.3362V21.2823H91.265L92.1406 22.9965H92.6237ZM88.9061 19.139H88.4605L87.5643 20.9858L86.6512 19.1366H86.2055L87.3578 21.4041V22.9989H87.7708V21.4017L88.9061 19.139ZM85.5098 19.5031V19.1342H82.8527V19.5031H83.9723V22.9989H84.3854V19.5031H85.5098ZM82.2488 21.9333C82.2551 21.7895 82.2291 21.6461 82.1727 21.5136C82.1163 21.3812 82.0309 21.263 81.9227 21.1678C81.7597 21.0268 81.5797 20.9508 81.2161 20.8966L80.7922 20.8315C80.6031 20.8068 80.4234 20.7342 80.2704 20.6205C80.2104 20.5638 80.1636 20.4945 80.1335 20.4176C80.1035 20.3407 80.0908 20.2581 80.0965 20.1757C80.0965 19.7466 80.3949 19.4597 80.9118 19.4597C81.0767 19.4509 81.2418 19.4757 81.3969 19.5324C81.5519 19.5892 81.6939 19.6768 81.814 19.79L82.0797 19.5248C81.9267 19.3796 81.7455 19.2672 81.5474 19.1945C81.3492 19.1217 81.1383 19.0901 80.9275 19.1017C80.1617 19.1017 79.6883 19.5356 79.6883 20.1866C79.6807 20.3213 79.703 20.456 79.7538 20.581C79.8045 20.7061 79.8824 20.8184 79.9818 20.9098C80.1878 21.0711 80.4344 21.1725 80.6944 21.2028L81.1449 21.2727C81.4275 21.3161 81.5253 21.3486 81.651 21.4571C81.7144 21.5197 81.7637 21.5951 81.7956 21.6782C81.8275 21.7614 81.8412 21.8504 81.8357 21.9393C81.8357 22.3889 81.4879 22.6553 80.9227 22.6553C80.7265 22.667 80.5302 22.6351 80.3478 22.562C80.1655 22.4888 80.0017 22.3762 79.8683 22.2322L79.5856 22.5143C79.948 22.8759 80.3296 23.0242 80.9142 23.0242C81.7186 23.0242 82.2512 22.6059 82.2512 21.9284M78.7353 21.9284C78.7417 21.7846 78.7157 21.6413 78.6592 21.5088C78.6028 21.3764 78.5174 21.2582 78.4092 21.163C78.2462 21.0219 78.0662 20.946 77.7027 20.8918L77.2788 20.8267C77.0896 20.802 76.91 20.7294 76.757 20.6157C76.6969 20.559 76.6501 20.4897 76.6201 20.4128C76.59 20.3359 76.5774 20.2533 76.5831 20.1709C76.5831 19.7418 76.8814 19.4549 77.3983 19.4549C77.5633 19.4461 77.7283 19.4708 77.8834 19.5276C78.0385 19.5844 78.1804 19.672 78.3005 19.7852L78.5663 19.52C78.4132 19.3748 78.2321 19.2624 78.0339 19.1897C77.8358 19.1169 77.6248 19.0853 77.414 19.0969C76.6483 19.0969 76.1748 19.5308 76.1748 20.1817C76.1672 20.3165 76.1896 20.4512 76.2403 20.5762C76.2911 20.7013 76.3689 20.8136 76.4683 20.905C76.6743 21.0663 76.9209 21.1676 77.1809 21.1979L77.6314 21.2679C77.914 21.3112 78.0119 21.3438 78.1375 21.4523C78.201 21.5149 78.2503 21.5903 78.2822 21.6734C78.314 21.7566 78.3277 21.8456 78.3223 21.9345C78.3223 22.3841 77.9744 22.6505 77.4092 22.6505C77.213 22.6622 77.0167 22.6303 76.8344 22.5571C76.652 22.484 76.4883 22.3713 76.3548 22.2274L76.077 22.5191C76.4393 22.8807 76.821 23.029 77.4056 23.029C78.21 23.029 78.7426 22.6107 78.7426 21.9333M75.0371 21.5885V20.9749H73.6735V21.3366H74.6277V21.6295C74.6456 21.8815 74.568 22.131 74.4103 22.3286C74.3241 22.4277 74.2187 22.5081 74.1004 22.5651C73.9821 22.622 73.8534 22.6543 73.7221 22.66C73.5909 22.6656 73.4599 22.6445 73.3371 22.5979C73.2143 22.5513 73.1023 22.4802 73.008 22.3889C72.7665 22.1394 72.7363 21.873 72.7363 21.0629C72.7363 20.2529 72.764 19.9937 73.008 19.7442C73.0956 19.6562 73.1999 19.5865 73.3148 19.5391C73.4297 19.4917 73.5528 19.4676 73.6771 19.4681C74.1602 19.4681 74.5081 19.7659 74.6168 20.2541H75.0299C74.9163 19.5766 74.4163 19.0993 73.6771 19.0993C73.4937 19.0967 73.3116 19.1308 73.1417 19.1998C72.9718 19.2688 72.8175 19.3711 72.6879 19.5007C72.3256 19.8623 72.3256 20.2432 72.3256 21.0677C72.3256 21.8923 72.3256 22.266 72.6879 22.6348C72.8228 22.7659 72.9824 22.8689 73.1575 22.9378C73.3327 23.0067 73.5198 23.0401 73.708 23.0361C73.8962 23.0321 74.0817 22.9907 74.2537 22.9143C74.4257 22.838 74.5807 22.7282 74.7098 22.5914C74.9513 22.3359 75.0407 22.0381 75.0407 21.5933M70.9427 23.0037V19.1463H70.5212V22.2322L68.4679 19.1463H68.0766V23.0037H68.4897V19.9009L70.5429 22.9989L70.9427 23.0037ZM66.5572 19.1463H66.1441V23.0037H66.5572V19.1463ZM64.6163 23.0037V19.1463H64.2032V22.2322L62.15 19.1463H61.7587V23.0037H62.1717V19.9009L64.225 22.9989L64.6163 23.0037ZM59.9603 21.0219C59.9603 21.4933 59.9711 22.0683 59.7054 22.3479C59.6051 22.445 59.4856 22.5202 59.3547 22.5687C59.2237 22.6173 59.084 22.6382 58.9445 22.63H58.0991V19.5031H58.9445C59.084 19.4949 59.2237 19.5158 59.3547 19.5643C59.4856 19.6129 59.6051 19.6881 59.7054 19.7852C59.9711 20.0612 59.9603 20.5494 59.9603 21.0219ZM60.3733 21.0219C60.3733 20.4843 60.3951 19.8936 59.9929 19.4922C59.862 19.3702 59.7081 19.2753 59.5402 19.2132C59.3722 19.1511 59.1935 19.123 59.0146 19.1306H57.686V22.988H59.0146C59.1935 22.9953 59.3721 22.9671 59.54 22.905C59.7079 22.8429 59.8619 22.7482 59.9929 22.6264C60.3951 22.225 60.3733 21.5415 60.3733 21.0099M56.5579 22.9844V22.6155H54.5783V19.1198H54.1653V22.9772L56.5579 22.9844ZM52.6398 19.127H52.2268V22.9844H52.6459L52.6398 19.127ZM50.4332 21.9091C50.4332 22.3431 50.1337 22.6204 49.6554 22.6204H48.601V21.2112H49.6554C50.1385 21.2112 50.4332 21.4824 50.4332 21.9164M50.3728 20.1697C50.3728 20.6314 50.0419 20.8423 49.6119 20.8423H48.601V19.5031H49.6119C50.0419 19.5031 50.3728 19.7092 50.3728 20.1697ZM50.8463 21.9272C50.8533 21.7273 50.7959 21.5303 50.6824 21.3654C50.5689 21.2005 50.4053 21.0763 50.2158 21.0111C50.3863 20.9461 50.5325 20.8302 50.6346 20.6792C50.7366 20.5282 50.7894 20.3494 50.7859 20.1673C50.7859 19.5212 50.3185 19.1366 49.6445 19.1366H48.1879V22.994H49.694C50.3789 22.994 50.8463 22.6252 50.8463 21.9248M47.0574 19.5031V19.1342H44.4003V19.5031H45.5199V22.9989H45.933V19.5031H47.0574ZM43.329 21.7211V19.1342H42.9159V21.6885C42.9159 22.2744 42.5415 22.6601 41.9763 22.6601C41.411 22.6601 41.0414 22.2744 41.0414 21.6885V19.1342H40.6284V21.7211C40.6284 22.4914 41.1936 23.029 41.9763 23.029C42.7589 23.029 43.329 22.4914 43.329 21.7211Z" fill="black"/>
<path d="M89.9724 13.9773C89.9788 13.8336 89.9527 13.6902 89.8963 13.5577C89.8399 13.4253 89.7545 13.3071 89.6463 13.2119C89.4833 13.0709 89.3033 12.9949 88.9398 12.9407L88.5158 12.8756C88.3267 12.8509 88.1471 12.7783 87.9941 12.6646C87.934 12.6079 87.8872 12.5386 87.8572 12.4617C87.8271 12.3848 87.8145 12.3022 87.8202 12.2198C87.8202 11.7907 88.1185 11.5038 88.6354 11.5038C88.8004 11.495 88.9654 11.5197 89.1205 11.5765C89.2756 11.6333 89.4175 11.7209 89.5376 11.8341L89.8033 11.5689C89.6503 11.4237 89.4691 11.3113 89.271 11.2386C89.0729 11.1658 88.8619 11.1342 88.6511 11.1458C87.8854 11.1458 87.4119 11.5797 87.4119 12.2307C87.4043 12.3654 87.4267 12.5001 87.4774 12.6251C87.5282 12.7502 87.606 12.8625 87.7054 12.9539C87.9114 13.1152 88.158 13.2166 88.418 13.2469L88.8685 13.3168C89.1511 13.3602 89.249 13.3927 89.3746 13.5012C89.438 13.5638 89.4874 13.6392 89.5192 13.7223C89.5511 13.8055 89.5648 13.8945 89.5594 13.9834C89.5594 14.433 89.2115 14.6994 88.6463 14.6994C88.4501 14.7111 88.2538 14.6792 88.0715 14.606C87.8891 14.5329 87.7253 14.4203 87.5919 14.2763L87.3093 14.5632C87.6716 14.9248 88.0533 15.0731 88.6378 15.0731C89.4422 15.0731 89.9749 14.6548 89.9749 13.9773M86.1703 13.7652V11.1783H85.7573V13.7326C85.7573 14.3185 85.3816 14.7042 84.8164 14.7042C84.2511 14.7042 83.8816 14.3185 83.8816 13.7326V11.1783H83.4685V13.7652C83.4685 14.5355 84.0337 15.0731 84.8164 15.0731C85.599 15.0731 86.1703 14.5355 86.1703 13.7652ZM82.3936 11.5472V11.1783H79.7364V11.5472H80.856V15.043H81.2703V11.5472H82.3936ZM78.6132 11.1783H78.2001V15.0357H78.6132V11.1783ZM77.0696 15.0357V14.6669H75.0864V11.1711H74.6734V15.0285L77.0696 15.0357ZM73.5477 15.0357V14.6669H71.5645V11.1711H71.1514V15.0285L73.5477 15.0357ZM69.254 13.8038H67.8047L68.5293 11.7642L69.254 13.8038ZM70.1236 15.0357L68.7045 11.1783H68.347L66.923 15.0357H67.3638L67.673 14.1618H69.3639L69.6731 15.0357H70.1236ZM65.8964 15.0357V11.1783H65.4833V12.9093H63.645V11.1783H63.232V15.0357H63.645V13.277H65.4821V15.0405L65.8964 15.0357ZM61.9614 13.9725C61.9677 13.8287 61.9417 13.6854 61.8853 13.5529C61.8288 13.4205 61.7434 13.3023 61.6353 13.2071C61.4722 13.066 61.2935 12.9901 60.9287 12.9358L60.5048 12.8708C60.3157 12.8458 60.1362 12.7732 59.983 12.6598C59.9229 12.6031 59.8762 12.5338 59.8461 12.4569C59.816 12.3799 59.8034 12.2974 59.8091 12.215C59.8091 11.7859 60.1086 11.499 60.6244 11.499C60.7893 11.49 60.9544 11.5147 61.1095 11.5715C61.2646 11.6283 61.4065 11.716 61.5266 11.8293L61.7935 11.5641C61.6403 11.4191 61.4592 11.3068 61.261 11.2341C61.0629 11.1613 60.8521 11.1296 60.6413 11.1409C59.8743 11.1409 59.4021 11.5749 59.4021 12.2258C59.3945 12.3605 59.4168 12.4953 59.4676 12.6203C59.5183 12.7454 59.5962 12.8577 59.6956 12.9491C59.901 13.1106 60.1472 13.212 60.407 13.242L60.8587 13.3119C61.1413 13.3553 61.2391 13.3879 61.3635 13.4964C61.4272 13.5588 61.4767 13.6341 61.5086 13.7173C61.5405 13.8006 61.5541 13.8896 61.5483 13.9786C61.5483 14.4282 61.2005 14.6946 60.6352 14.6946C60.4391 14.7063 60.2427 14.6744 60.0604 14.6012C59.8781 14.5281 59.7143 14.4154 59.5808 14.2715L59.2982 14.5535C59.6605 14.9152 60.0434 15.0634 60.6268 15.0634C61.4312 15.0634 61.9638 14.6452 61.9638 13.9677M58.1593 13.7555V11.1783H57.7426V13.7326C57.7426 14.3185 57.3682 14.7042 56.8029 14.7042C56.2377 14.7042 55.8681 14.3185 55.8681 13.7326V11.1783H55.455V13.7652C55.455 14.5355 56.0203 15.0731 56.8029 15.0731C57.5856 15.0731 58.1556 14.5355 58.1556 13.7652M54.3789 11.5472V11.1783H51.7217V11.5472H52.8414V15.043H53.2544V11.5472H54.3789ZM50.857 15.043V14.6741H48.8677V13.277H50.5586V12.9093H48.8677V11.5472H50.857V11.1783H48.4547V15.0357L50.857 15.043ZM46.8483 12.3066C46.8483 12.8165 46.5113 13.0769 46.027 13.0769H45.0366V11.5472H46.0258C46.5089 11.5472 46.8471 11.8015 46.8471 12.3114M47.2602 12.3114C47.2602 11.6171 46.777 11.1783 46.0644 11.1783H44.6223V15.0357H45.0366V13.4506H46.0644C46.771 13.4506 47.2602 13.0058 47.2602 12.3114ZM42.83 13.1094C42.83 13.9171 42.8034 14.1774 42.5582 14.427C42.4706 14.5148 42.3664 14.5846 42.2517 14.6322C42.137 14.6797 42.014 14.7042 41.8897 14.7042C41.7655 14.7042 41.6425 14.6797 41.5278 14.6322C41.413 14.5846 41.3089 14.5148 41.2212 14.427C40.9797 14.1774 40.9495 13.9171 40.9495 13.1094C40.9495 12.3018 40.9772 12.0402 41.2212 11.7907C41.3985 11.6138 41.639 11.5144 41.8897 11.5144C42.1404 11.5144 42.3809 11.6138 42.5582 11.7907C42.7998 12.0402 42.83 12.3006 42.83 13.1094ZM43.2431 13.1094C43.2431 12.2897 43.2431 11.91 42.8807 11.5424C42.616 11.2851 42.261 11.1411 41.8915 11.1411C41.522 11.1411 41.1671 11.2851 40.9024 11.5424C40.54 11.904 40.54 12.2849 40.54 13.1094C40.54 13.934 40.54 14.3076 40.9024 14.6765C41.1671 14.9338 41.522 15.0777 41.8915 15.0777C42.261 15.0777 42.616 14.9338 42.8807 14.6765C43.2431 14.3149 43.2431 13.9327 43.2431 13.1094Z" fill="black"/>
<path d="M10.0189 9.92105C12.4575 5.01974 16.1304 0.7344 13.693 1.01286C12.3074 1.18852 10.9626 1.60205 9.71819 2.23517C10.2801 1.96145 10.8595 1.72507 11.4526 1.52758C11.4526 1.52758 6.39436 3.60455 4.50537 9.5341C5.27027 8.79997 6.10887 8.14639 7.00791 7.5837C11.2038 4.93174 6.93424 10.2357 5.99699 16.9451C6.84245 15.8602 7.9053 14.1726 9.11792 12.3283C9.33982 11.4976 9.64155 10.6902 10.0189 9.91743M23.2515 9.23756C22.2732 8.9579 21.2562 9.52687 20.232 10.6178C19.8697 11.4978 19.4977 12.4898 19.11 13.6157C17.4771 18.3483 15.4419 27.1166 12.4671 26.0317C12.2078 25.9395 11.9599 25.8182 11.728 25.6701C11.2823 26.4066 10.8692 26.9864 10.4948 27.342C10.168 27.6592 9.7888 27.9177 9.37397 28.1063C15.012 33.6453 25.3953 33.4102 24.8047 26.5284C24.08 18.1012 24.1537 14.7018 24.2189 9.63054C23.9169 9.45619 23.5916 9.32551 23.2527 9.24239M32.7665 16.3484C32.7564 15.1614 32.6183 13.9789 32.3546 12.8213C31.3739 8.52877 27.5947 3.46833 25.4702 3.79863C25.0221 3.86854 24.2395 4.0156 23.1754 5.26926C23.5583 5.7442 23.9496 6.26977 24.3445 6.82548C25.1236 -0.91826 29.8617 8.7349 31.1154 16.9512C31.3095 17.1141 31.5432 17.223 31.793 17.267C32.6227 17.4394 32.7592 16.5088 32.7713 16.3509" fill="#5BCA13"/>
<path d="M21.0438 3.18024C13.8575 -1.18707 4.71208 23.3593 4.02726 17.1874C2.26027 5.29338 11.4528 1.52759 11.4528 1.52759C5.54183 3.47798 0.89667 9.47746 1.00175 16.4051C1.10803 23.3665 5.00074 27.3589 6.40419 28.0508C8.18085 28.9284 9.73286 28.0954 10.4986 27.3444C13.4444 24.549 18.7659 7.9598 23.2516 9.2448C28.2712 10.4502 27.6057 21.0111 27.8485 23.0362C28.3316 27.072 29.4633 26.5898 31.0395 23.6245C32.0963 21.6367 32.7835 19.3464 32.7678 16.3255C32.7678 16.3255 32.6929 17.4562 31.7871 17.267C30.9743 17.0982 30.6699 16.6341 28.6239 13.4397C26.4813 10.0958 23.2058 4.49778 21.0438 3.18386" fill="#0041DC"/>
</svg>
