<svg width="116" height="34" viewBox="0 0 116 34" fill="none" xmlns="http://www.w3.org/2000/svg">
<path d="M45.4795 23.9337L43.9906 19.909H43.6255L42.1309 23.9337H42.5929L42.9182 23.0237H44.6922L45.0174 23.9337H45.4795ZM44.5667 22.6506H43.0493L43.8138 20.5252L44.5667 22.6506ZM49.2044 22.464V21.8253H47.7726V22.204H48.7709V22.5093C48.7709 22.8202 48.7081 23.0406 48.5427 23.2385C48.3544 23.4646 48.0692 23.5833 47.7726 23.5833C47.5045 23.5833 47.2478 23.4815 47.071 23.3006C46.8142 23.0406 46.7858 22.7636 46.7858 21.9214C46.7858 21.0791 46.8142 20.8078 47.071 20.5478C47.2478 20.3669 47.5045 20.2595 47.7726 20.2595C48.2803 20.2595 48.6454 20.5704 48.7595 21.0791H49.193C49.0732 20.3726 48.5485 19.8751 47.7726 19.8751C47.3676 19.8751 47.0082 20.0221 46.7343 20.2934C46.3521 20.6721 46.3521 21.0678 46.3521 21.9214C46.3521 22.7749 46.3521 23.1706 46.7343 23.5494C47.0082 23.8207 47.3733 23.9677 47.7726 23.9677C48.189 23.9677 48.5712 23.8094 48.8565 23.5041C49.1075 23.2385 49.2044 22.9276 49.2044 22.464ZM53.1634 23.9337V23.5494H51.0755V22.0966H52.8554V21.7122H51.0755V20.2934H53.1634V19.909H50.6421V23.9337H53.1634ZM57.4932 23.9337V19.909H57.0597V23.1254L54.9035 19.909H54.4927V23.9337H54.9261V20.7061L57.0826 23.9337H57.4932ZM61.7146 22.7693H61.2809C61.1726 23.2611 60.8132 23.5833 60.3055 23.5833C60.0373 23.5833 59.7808 23.4815 59.6038 23.3006C59.3471 23.0406 59.3186 22.7636 59.3186 21.9214C59.3186 21.0791 59.3471 20.8022 59.6038 20.5421C59.7808 20.3612 60.0373 20.2595 60.3055 20.2595C60.8132 20.2595 61.1611 20.5817 61.2697 21.0735H61.7146C61.5776 20.316 61.0356 19.8751 60.3055 19.8751C59.9061 19.8751 59.541 20.0221 59.2672 20.2934C58.8851 20.6721 58.8851 21.0678 58.8851 21.9214C58.8851 22.7749 58.8851 23.1706 59.2672 23.5494C59.541 23.8207 59.9061 23.9677 60.3055 23.9677C61.0299 23.9677 61.5833 23.5267 61.7146 22.7693ZM65.3427 19.909H64.875L63.9279 21.8366L62.9695 19.909H62.5017L63.7112 22.2719V23.9337H64.1446V22.2719L65.3427 19.909ZM70.9731 20.2934V19.909H68.4515V23.9337H68.885V22.1588H70.6649V21.7744H68.885V20.2934H70.9731ZM74.7605 21.9214C74.7605 21.0678 74.7605 20.6721 74.3783 20.2934C74.1046 20.0221 73.7451 19.8751 73.3401 19.8751C72.9351 19.8751 72.5758 20.0221 72.3018 20.2934C71.9196 20.6721 71.9196 21.0678 71.9196 21.9214C71.9196 22.7749 71.9196 23.1706 72.3018 23.5494C72.5758 23.8207 72.9351 23.9677 73.3401 23.9677C73.7451 23.9677 74.1046 23.8207 74.3783 23.5494C74.7605 23.1706 74.7605 22.7749 74.7605 21.9214ZM74.327 21.9214C74.327 22.7636 74.2985 23.035 74.0417 23.295C73.8649 23.4759 73.6082 23.5833 73.3401 23.5833C73.072 23.5833 72.8153 23.4759 72.6385 23.295C72.3817 23.035 72.3533 22.7636 72.3533 21.9214C72.3533 21.0791 72.3817 20.8078 72.6385 20.5478C72.8153 20.3669 73.072 20.2595 73.3401 20.2595C73.6082 20.2595 73.8649 20.3669 74.0417 20.5478C74.2985 20.8078 74.327 21.0791 74.327 21.9214ZM78.9933 23.9337L78.0293 22.1079C78.5541 22.0005 78.9136 21.6161 78.9136 21.0283C78.9136 20.333 78.4172 19.909 77.7098 19.909H76.1525V23.9337H76.586V22.1475H77.5615L78.4858 23.9337H78.9933ZM78.4799 21.0339C78.4799 21.5257 78.1434 21.7688 77.67 21.7688H76.586V20.2934H77.67C78.1434 20.2934 78.4799 20.5421 78.4799 21.0339ZM84.8347 23.9337V23.5494H82.7468V22.0966H84.5267V21.7122H82.7468V20.2934H84.8347V19.909H82.3133V23.9337H84.8347ZM88.982 21.8762C88.982 21.3165 89.0048 20.7004 88.5826 20.2821C88.3373 20.039 87.978 19.909 87.5558 19.909H86.1639V23.9337H87.5558C87.978 23.9337 88.3373 23.8037 88.5826 23.5607C89.0048 23.1424 88.982 22.4358 88.982 21.8762ZM88.5484 21.8762C88.5484 22.3679 88.56 22.9671 88.2803 23.2554C88.0694 23.4702 87.7954 23.5494 87.4817 23.5494H86.5974V20.2934H87.4817C87.7954 20.2934 88.0694 20.3726 88.2803 20.5874C88.56 20.8756 88.5484 21.3844 88.5484 21.8762ZM93.152 22.6054V19.909H92.7183V22.5714C92.7183 23.1819 92.3247 23.5833 91.7315 23.5833C91.1382 23.5833 90.7503 23.1819 90.7503 22.5714V19.909H90.3167V22.6054C90.3167 23.408 90.9101 23.9677 91.7315 23.9677C92.5529 23.9677 93.152 23.408 93.152 22.6054ZM97.3163 22.7693H96.8827C96.7743 23.2611 96.4149 23.5833 95.9072 23.5833C95.6391 23.5833 95.3824 23.4815 95.2056 23.3006C94.9488 23.0406 94.9203 22.7636 94.9203 21.9214C94.9203 21.0791 94.9488 20.8022 95.2056 20.5421C95.3824 20.3612 95.6391 20.2595 95.9072 20.2595C96.4149 20.2595 96.7629 20.5817 96.8713 21.0735H97.3163C97.1793 20.316 96.6374 19.8751 95.9072 19.8751C95.5079 19.8751 95.1428 20.0221 94.869 20.2934C94.4868 20.6721 94.4868 21.0678 94.4868 21.9214C94.4868 22.7749 94.4868 23.1706 94.869 23.5494C95.1428 23.8207 95.5079 23.9677 95.9072 23.9677C96.6317 23.9677 97.1852 23.5267 97.3163 22.7693ZM101.532 23.9337L100.043 19.909H99.678L98.1835 23.9337H98.6454L98.9706 23.0237H100.745L101.07 23.9337H101.532ZM100.619 22.6506H99.1018L99.8662 20.5252L100.619 22.6506ZM104.641 20.2934V19.909H101.857V20.2934H103.032V23.9337H103.465V20.2934H104.641ZM106.261 19.909H105.827V23.9337H106.261V19.909ZM110.551 21.9214C110.551 21.0678 110.551 20.6721 110.168 20.2934C109.895 20.0221 109.535 19.8751 109.13 19.8751C108.725 19.8751 108.366 20.0221 108.092 20.2934C107.71 20.6721 107.71 21.0678 107.71 21.9214C107.71 22.7749 107.71 23.1706 108.092 23.5494C108.366 23.8207 108.725 23.9677 109.13 23.9677C109.535 23.9677 109.895 23.8207 110.168 23.5494C110.551 23.1706 110.551 22.7749 110.551 21.9214ZM110.117 21.9214C110.117 22.7636 110.088 23.035 109.832 23.295C109.655 23.4759 109.398 23.5833 109.13 23.5833C108.862 23.5833 108.605 23.4759 108.428 23.295C108.172 23.035 108.143 22.7636 108.143 21.9214C108.143 21.0791 108.172 20.8078 108.428 20.5478C108.605 20.3669 108.862 20.2595 109.13 20.2595C109.398 20.2595 109.655 20.3669 109.832 20.5478C110.088 20.8078 110.117 21.0791 110.117 21.9214ZM115 23.9337V19.909H114.566V23.1254L112.41 19.909H111.999V23.9337H112.433V20.7061L114.589 23.9337H115Z" fill="black"/>
<path d="M45.1718 12.0028V11.6184H42.6504V15.6431H43.0839V13.8681H44.8639V13.4838H43.0839V12.0028H45.1718ZM46.8203 11.6184H46.3868V15.6431H46.8203V11.6184ZM51.4239 15.6431V11.6184H50.9905V14.8348L48.8342 11.6184H48.4233V15.6431H48.8569V12.4154L51.0133 15.6431H51.4239ZM56.0275 15.6431V11.6184H55.5941V14.8348L53.4378 11.6184H53.0271V15.6431H53.4605V12.4154L55.6169 15.6431H56.0275ZM58.0641 11.6184H57.6305V15.6431H58.0641V11.6184ZM62.1145 14.5352C62.1145 14.2017 61.9947 13.9247 61.7721 13.7381C61.6009 13.5912 61.4127 13.512 61.0305 13.4555L60.5856 13.3877C60.3744 13.3538 60.1634 13.2746 60.038 13.1672C59.9124 13.0598 59.8555 12.9015 59.8555 12.7037C59.8555 12.2571 60.1691 11.9575 60.7111 11.9575C61.139 11.9575 61.407 12.0763 61.658 12.3024L61.9375 12.0254C61.5895 11.7145 61.2473 11.5845 60.7283 11.5845C59.9238 11.5845 59.4276 12.0367 59.4276 12.7207C59.4276 13.0429 59.5303 13.2916 59.7355 13.4725C59.9124 13.6251 60.1634 13.7268 60.4828 13.7777L60.9564 13.8512C61.253 13.8964 61.3556 13.9303 61.4868 14.0434C61.618 14.1564 61.6808 14.3373 61.6808 14.5465C61.6808 15.0156 61.3157 15.2926 60.7224 15.2926C60.2661 15.2926 59.9523 15.1852 59.6157 14.8517L59.3191 15.1457C59.7013 15.5244 60.1008 15.677 60.7111 15.677C61.5553 15.677 62.1145 15.2417 62.1145 14.5352ZM66.2445 15.6431V11.6184H65.8109V13.4216H63.8828V11.6184H63.4492V15.6431H63.8828V13.806H65.8109V15.6431H66.2445ZM72.839 15.6431V11.6184H72.4053V14.8348L70.249 11.6184H69.8382V15.6431H70.2719V12.4154L72.4281 15.6431H72.839ZM77.2713 15.6431L75.7824 11.6184H75.4173L73.9227 15.6431H74.3848L74.71 14.733H76.4841L76.8093 15.6431H77.2713ZM76.3586 14.3599H74.8412L75.6056 12.2345L76.3586 14.3599ZM80.3801 12.0028V11.6184H77.5961V12.0028H78.7714V15.6431H79.2048V12.0028H80.3801ZM82.0001 11.6184H81.5664V15.6431H82.0001V11.6184ZM86.2898 13.6307C86.2898 12.7772 86.2898 12.3815 85.9076 12.0028C85.6338 11.7314 85.2744 11.5845 84.8694 11.5845C84.4645 11.5845 84.1049 11.7314 83.8312 12.0028C83.4489 12.3815 83.4489 12.7772 83.4489 13.6307C83.4489 14.4843 83.4489 14.88 83.8312 15.2587C84.1049 15.53 84.4645 15.677 84.8694 15.677C85.2744 15.677 85.6338 15.53 85.9076 15.2587C86.2898 14.88 86.2898 14.4843 86.2898 13.6307ZM85.8563 13.6307C85.8563 14.473 85.8279 14.7443 85.571 15.0043C85.3942 15.1852 85.1376 15.2926 84.8694 15.2926C84.6012 15.2926 84.3445 15.1852 84.1677 15.0043C83.911 14.7443 83.8825 14.473 83.8825 13.6307C83.8825 12.7885 83.911 12.5172 84.1677 12.2571C84.3445 12.0763 84.6012 11.9689 84.8694 11.9689C85.1376 11.9689 85.3942 12.0763 85.571 12.2571C85.8279 12.5172 85.8563 12.7885 85.8563 13.6307ZM90.6823 15.6431V11.6184H90.2489V14.8348L88.0925 11.6184H87.6819V15.6431H88.1153V12.4154L90.2717 15.6431H90.6823ZM95.1148 15.6431L93.6259 11.6184H93.2608L91.7662 15.6431H92.2283L92.5536 14.733H94.3276L94.6527 15.6431H95.1148ZM94.2022 14.3599H92.6847L93.4492 12.2345L94.2022 14.3599ZM98.7087 15.6431V15.2587H96.6322V11.6184H96.1988V15.6431H98.7087Z" fill="black"/>
<path d="M34.3406 16.9932C34.3288 15.7814 34.1901 14.5452 33.9076 13.3182C32.8781 8.84526 28.9104 3.57169 26.677 3.91688C26.2074 3.98949 25.3854 4.14223 24.2687 5.44888C24.67 5.94443 25.0813 6.49111 25.4957 7.07057C26.3131 -0.999059 31.2872 9.06056 32.6023 17.6187C32.8351 17.8087 33.0486 17.8933 33.3136 17.9482C34.184 18.1277 34.3232 17.158 34.3406 16.9932ZM24.355 9.58814C23.3287 9.29609 22.2607 9.88949 21.186 11.026C20.808 11.9428 20.4149 12.9774 20.0075 14.1503C18.2937 19.0818 16.1586 28.2144 13.0397 27.0904C12.7682 26.9926 12.5095 26.8637 12.2637 26.7067C11.7965 27.4746 11.3627 28.0787 10.9694 28.4493C10.6772 28.7336 10.2749 29.0283 9.79307 29.2455C15.7104 35.0169 26.6088 34.7762 25.9892 27.601C25.2307 18.8195 25.3063 15.2769 25.3739 9.99262C25.0609 9.81551 24.724 9.6757 24.355 9.58814ZM10.4658 10.297C13.0257 5.18835 16.8806 0.722999 14.3223 1.01342C12.9594 1.1683 11.5372 1.60431 10.1503 2.28741C10.7418 2.00201 11.3494 1.75405 11.9711 1.55017C11.9711 1.55017 6.66239 3.71464 4.67871 9.89301C5.41321 9.18668 6.28044 8.50522 7.30587 7.86119C11.7099 5.09515 7.22803 10.6208 6.24456 17.616C7.12877 16.4834 8.24827 14.7241 9.52077 12.8047C9.76506 11.9178 10.0779 11.0709 10.4658 10.297Z" fill="#5BCA13"/>
<path d="M22.0379 3.27228C14.4956 -1.27925 4.89554 24.3002 4.17676 17.8686C2.32328 5.47406 11.9713 1.55035 11.9713 1.55035C5.77075 3.58281 0.891422 9.83403 1.00184 17.0499C1.11301 24.3042 5.19954 28.4639 6.67259 29.1859C8.53685 30.0995 10.166 29.2319 10.9695 28.4495C14.0618 25.5363 19.6474 8.24877 24.3552 9.58807C29.6235 10.8384 28.9256 21.8495 29.1799 23.9594C29.6867 28.1656 30.8747 27.6634 32.529 24.5733C33.6382 22.5014 34.3593 20.1142 34.3434 16.9673C34.3434 16.9673 34.2642 18.1446 33.3139 17.9483C32.4602 17.7721 32.1415 17.2883 29.9935 13.9592C27.7454 10.475 24.3073 4.64174 22.0379 3.27228Z" fill="#0041DC"/>
</svg>
