<svg width="114" height="33" viewBox="0 0 114 33" fill="none" xmlns="http://www.w3.org/2000/svg">
<path d="M44.4795 22.9337L42.9906 18.909H42.6255L41.1309 22.9337H41.5929L41.9182 22.0237H43.6922L44.0174 22.9337H44.4795ZM43.5667 21.6506H42.0493L42.8138 19.5252L43.5667 21.6506ZM48.2044 21.464V20.8253H46.7726V21.204H47.7709V21.5093C47.7709 21.8202 47.7081 22.0406 47.5427 22.2385C47.3544 22.4646 47.0692 22.5833 46.7726 22.5833C46.5045 22.5833 46.2478 22.4815 46.071 22.3006C45.8142 22.0406 45.7858 21.7636 45.7858 20.9214C45.7858 20.0791 45.8142 19.8078 46.071 19.5478C46.2478 19.3669 46.5045 19.2595 46.7726 19.2595C47.2803 19.2595 47.6454 19.5704 47.7595 20.0791H48.193C48.0732 19.3726 47.5485 18.8751 46.7726 18.8751C46.3676 18.8751 46.0082 19.0221 45.7343 19.2934C45.3521 19.6721 45.3521 20.0678 45.3521 20.9214C45.3521 21.7749 45.3521 22.1706 45.7343 22.5494C46.0082 22.8207 46.3733 22.9677 46.7726 22.9677C47.189 22.9677 47.5712 22.8094 47.8565 22.5041C48.1075 22.2385 48.2044 21.9276 48.2044 21.464ZM52.1634 22.9337V22.5494H50.0755V21.0966H51.8554V20.7122H50.0755V19.2934H52.1634V18.909H49.6421V22.9337H52.1634ZM56.4932 22.9337V18.909H56.0597V22.1254L53.9035 18.909H53.4927V22.9337H53.9261V19.7061L56.0826 22.9337H56.4932ZM60.7146 21.7693H60.2809C60.1726 22.2611 59.8132 22.5833 59.3055 22.5833C59.0373 22.5833 58.7808 22.4815 58.6038 22.3006C58.3471 22.0406 58.3186 21.7636 58.3186 20.9214C58.3186 20.0791 58.3471 19.8022 58.6038 19.5421C58.7808 19.3612 59.0373 19.2595 59.3055 19.2595C59.8132 19.2595 60.1611 19.5817 60.2697 20.0735H60.7146C60.5776 19.316 60.0356 18.8751 59.3055 18.8751C58.9061 18.8751 58.541 19.0221 58.2672 19.2934C57.8851 19.6721 57.8851 20.0678 57.8851 20.9214C57.8851 21.7749 57.8851 22.1706 58.2672 22.5494C58.541 22.8207 58.9061 22.9677 59.3055 22.9677C60.0299 22.9677 60.5833 22.5267 60.7146 21.7693ZM64.3427 18.909H63.875L62.9279 20.8366L61.9695 18.909H61.5017L62.7112 21.2719V22.9337H63.1446V21.2719L64.3427 18.909ZM69.9731 19.2934V18.909H67.4515V22.9337H67.885V21.1588H69.6649V20.7744H67.885V19.2934H69.9731ZM73.7605 20.9214C73.7605 20.0678 73.7605 19.6721 73.3783 19.2934C73.1046 19.0221 72.7451 18.8751 72.3401 18.8751C71.9351 18.8751 71.5758 19.0221 71.3018 19.2934C70.9196 19.6721 70.9196 20.0678 70.9196 20.9214C70.9196 21.7749 70.9196 22.1706 71.3018 22.5494C71.5758 22.8207 71.9351 22.9677 72.3401 22.9677C72.7451 22.9677 73.1046 22.8207 73.3783 22.5494C73.7605 22.1706 73.7605 21.7749 73.7605 20.9214ZM73.327 20.9214C73.327 21.7636 73.2985 22.035 73.0417 22.295C72.8649 22.4759 72.6082 22.5833 72.3401 22.5833C72.072 22.5833 71.8153 22.4759 71.6385 22.295C71.3817 22.035 71.3533 21.7636 71.3533 20.9214C71.3533 20.0791 71.3817 19.8078 71.6385 19.5478C71.8153 19.3669 72.072 19.2595 72.3401 19.2595C72.6082 19.2595 72.8649 19.3669 73.0417 19.5478C73.2985 19.8078 73.327 20.0791 73.327 20.9214ZM77.9933 22.9337L77.0293 21.1079C77.5541 21.0005 77.9136 20.6161 77.9136 20.0283C77.9136 19.333 77.4172 18.909 76.7098 18.909H75.1525V22.9337H75.586V21.1475H76.5615L77.4858 22.9337H77.9933ZM77.4799 20.0339C77.4799 20.5257 77.1434 20.7688 76.67 20.7688H75.586V19.2934H76.67C77.1434 19.2934 77.4799 19.5421 77.4799 20.0339ZM83.8347 22.9337V22.5494H81.7468V21.0966H83.5267V20.7122H81.7468V19.2934H83.8347V18.909H81.3133V22.9337H83.8347ZM87.982 20.8762C87.982 20.3165 88.0048 19.7004 87.5826 19.2821C87.3373 19.039 86.978 18.909 86.5558 18.909H85.1639V22.9337H86.5558C86.978 22.9337 87.3373 22.8037 87.5826 22.5607C88.0048 22.1424 87.982 21.4358 87.982 20.8762ZM87.5484 20.8762C87.5484 21.3679 87.56 21.9671 87.2803 22.2554C87.0694 22.4702 86.7954 22.5494 86.4817 22.5494H85.5974V19.2934H86.4817C86.7954 19.2934 87.0694 19.3726 87.2803 19.5874C87.56 19.8756 87.5484 20.3844 87.5484 20.8762ZM92.152 21.6054V18.909H91.7183V21.5714C91.7183 22.1819 91.3247 22.5833 90.7315 22.5833C90.1382 22.5833 89.7503 22.1819 89.7503 21.5714V18.909H89.3167V21.6054C89.3167 22.408 89.9101 22.9677 90.7315 22.9677C91.5529 22.9677 92.152 22.408 92.152 21.6054ZM96.3163 21.7693H95.8827C95.7743 22.2611 95.4149 22.5833 94.9072 22.5833C94.6391 22.5833 94.3824 22.4815 94.2056 22.3006C93.9488 22.0406 93.9203 21.7636 93.9203 20.9214C93.9203 20.0791 93.9488 19.8022 94.2056 19.5421C94.3824 19.3612 94.6391 19.2595 94.9072 19.2595C95.4149 19.2595 95.7629 19.5817 95.8713 20.0735H96.3163C96.1793 19.316 95.6374 18.8751 94.9072 18.8751C94.5079 18.8751 94.1428 19.0221 93.869 19.2934C93.4868 19.6721 93.4868 20.0678 93.4868 20.9214C93.4868 21.7749 93.4868 22.1706 93.869 22.5494C94.1428 22.8207 94.5079 22.9677 94.9072 22.9677C95.6317 22.9677 96.1852 22.5267 96.3163 21.7693ZM100.532 22.9337L99.043 18.909H98.678L97.1835 22.9337H97.6454L97.9706 22.0237H99.7447L100.07 22.9337H100.532ZM99.6192 21.6506H98.1018L98.8662 19.5252L99.6192 21.6506ZM103.641 19.2934V18.909H100.857V19.2934H102.032V22.9337H102.465V19.2934H103.641ZM105.261 18.909H104.827V22.9337H105.261V18.909ZM109.551 20.9214C109.551 20.0678 109.551 19.6721 109.168 19.2934C108.895 19.0221 108.535 18.8751 108.13 18.8751C107.725 18.8751 107.366 19.0221 107.092 19.2934C106.71 19.6721 106.71 20.0678 106.71 20.9214C106.71 21.7749 106.71 22.1706 107.092 22.5494C107.366 22.8207 107.725 22.9677 108.13 22.9677C108.535 22.9677 108.895 22.8207 109.168 22.5494C109.551 22.1706 109.551 21.7749 109.551 20.9214ZM109.117 20.9214C109.117 21.7636 109.088 22.035 108.832 22.295C108.655 22.4759 108.398 22.5833 108.13 22.5833C107.862 22.5833 107.605 22.4759 107.428 22.295C107.172 22.035 107.143 21.7636 107.143 20.9214C107.143 20.0791 107.172 19.8078 107.428 19.5478C107.605 19.3669 107.862 19.2595 108.13 19.2595C108.398 19.2595 108.655 19.3669 108.832 19.5478C109.088 19.8078 109.117 20.0791 109.117 20.9214ZM114 22.9337V18.909H113.566V22.1254L111.41 18.909H110.999V22.9337H111.433V19.7061L113.589 22.9337H114Z" fill="black"/>
<path d="M44.1718 11.0028V10.6184H41.6504V14.6431H42.0839V12.8681H43.8639V12.4838H42.0839V11.0028H44.1718ZM45.8203 10.6184H45.3868V14.6431H45.8203V10.6184ZM50.4239 14.6431V10.6184H49.9905V13.8348L47.8342 10.6184H47.4233V14.6431H47.8569V11.4154L50.0133 14.6431H50.4239ZM55.0275 14.6431V10.6184H54.5941V13.8348L52.4378 10.6184H52.0271V14.6431H52.4605V11.4154L54.6169 14.6431H55.0275ZM57.0641 10.6184H56.6305V14.6431H57.0641V10.6184ZM61.1145 13.5352C61.1145 13.2017 60.9947 12.9247 60.7721 12.7381C60.6009 12.5912 60.4127 12.512 60.0305 12.4555L59.5856 12.3877C59.3744 12.3538 59.1634 12.2746 59.038 12.1672C58.9124 12.0598 58.8555 11.9015 58.8555 11.7037C58.8555 11.2571 59.1691 10.9575 59.7111 10.9575C60.139 10.9575 60.407 11.0763 60.658 11.3024L60.9375 11.0254C60.5895 10.7145 60.2473 10.5845 59.7283 10.5845C58.9238 10.5845 58.4276 11.0367 58.4276 11.7207C58.4276 12.0429 58.5303 12.2916 58.7355 12.4725C58.9124 12.6251 59.1634 12.7268 59.4828 12.7777L59.9564 12.8512C60.253 12.8964 60.3556 12.9303 60.4868 13.0434C60.618 13.1564 60.6808 13.3373 60.6808 13.5465C60.6808 14.0156 60.3157 14.2926 59.7224 14.2926C59.2661 14.2926 58.9523 14.1852 58.6157 13.8517L58.3191 14.1457C58.7013 14.5244 59.1008 14.677 59.7111 14.677C60.5553 14.677 61.1145 14.2417 61.1145 13.5352ZM65.2445 14.6431V10.6184H64.8109V12.4216H62.8828V10.6184H62.4492V14.6431H62.8828V12.806H64.8109V14.6431H65.2445ZM71.839 14.6431V10.6184H71.4053V13.8348L69.249 10.6184H68.8382V14.6431H69.2719V11.4154L71.4281 14.6431H71.839ZM76.2713 14.6431L74.7824 10.6184H74.4173L72.9227 14.6431H73.3848L73.71 13.733H75.4841L75.8093 14.6431H76.2713ZM75.3586 13.3599H73.8412L74.6056 11.2345L75.3586 13.3599ZM79.3801 11.0028V10.6184H76.5961V11.0028H77.7714V14.6431H78.2048V11.0028H79.3801ZM81.0001 10.6184H80.5664V14.6431H81.0001V10.6184ZM85.2898 12.6307C85.2898 11.7772 85.2898 11.3815 84.9076 11.0028C84.6338 10.7314 84.2744 10.5845 83.8694 10.5845C83.4645 10.5845 83.1049 10.7314 82.8312 11.0028C82.4489 11.3815 82.4489 11.7772 82.4489 12.6307C82.4489 13.4843 82.4489 13.88 82.8312 14.2587C83.1049 14.53 83.4645 14.677 83.8694 14.677C84.2744 14.677 84.6338 14.53 84.9076 14.2587C85.2898 13.88 85.2898 13.4843 85.2898 12.6307ZM84.8563 12.6307C84.8563 13.473 84.8279 13.7443 84.571 14.0043C84.3942 14.1852 84.1376 14.2926 83.8694 14.2926C83.6012 14.2926 83.3445 14.1852 83.1677 14.0043C82.911 13.7443 82.8825 13.473 82.8825 12.6307C82.8825 11.7885 82.911 11.5172 83.1677 11.2571C83.3445 11.0763 83.6012 10.9689 83.8694 10.9689C84.1376 10.9689 84.3942 11.0763 84.571 11.2571C84.8279 11.5172 84.8563 11.7885 84.8563 12.6307ZM89.6823 14.6431V10.6184H89.2489V13.8348L87.0925 10.6184H86.6819V14.6431H87.1153V11.4154L89.2717 14.6431H89.6823ZM94.1148 14.6431L92.6259 10.6184H92.2608L90.7662 14.6431H91.2283L91.5536 13.733H93.3276L93.6527 14.6431H94.1148ZM93.2022 13.3599H91.6847L92.4492 11.2345L93.2022 13.3599ZM97.7087 14.6431V14.2587H95.6322V10.6184H95.1988V14.6431H97.7087Z" fill="black"/>
<path d="M33.3406 15.9932C33.3288 14.7814 33.1901 13.5452 32.9076 12.3182C31.8781 7.84529 27.9104 2.57172 25.677 2.91691C25.2074 2.98952 24.3854 3.14226 23.2687 4.44891C23.67 4.94446 24.0813 5.49114 24.4957 6.0706C25.3131 -1.99903 30.2872 8.06059 31.6023 16.6187C31.8351 16.8087 32.0486 16.8933 32.3136 16.9482C33.184 17.1277 33.3232 16.158 33.3406 15.9932ZM23.355 8.58817C22.3287 8.29612 21.2607 8.88952 20.186 10.026C19.808 10.9428 19.4149 11.9774 19.0075 13.1503C17.2937 18.0818 15.1586 27.2144 12.0397 26.0904C11.7682 25.9926 11.5095 25.8637 11.2637 25.7067C10.7965 26.4746 10.3627 27.0787 9.96936 27.4493C9.67716 27.7336 9.27492 28.0283 8.79307 28.2455C14.7104 34.0169 25.6088 33.7762 24.9892 26.601C24.2307 17.8195 24.3063 14.2769 24.3739 8.99265C24.0609 8.81554 23.724 8.67573 23.355 8.58817ZM9.46583 9.29702C12.0257 4.18838 15.8806 -0.276972 13.3223 0.0134498C11.9594 0.168333 10.5372 0.604341 9.15031 1.28744C9.74181 1.00204 10.3494 0.754075 10.9711 0.550202C10.9711 0.550202 5.66239 2.71467 3.67871 8.89304C4.41321 8.18671 5.28044 7.50525 6.30587 6.86122C10.7099 4.09518 6.22803 9.62085 5.24456 16.616C6.12877 15.4834 7.24827 13.7241 8.52077 11.8047C8.76506 10.9178 9.07792 10.0709 9.46583 9.29702Z" fill="#5BCA13"/>
<path d="M21.0379 2.27229C13.4956 -2.27924 3.89554 23.3002 3.17676 16.8686C1.32328 4.47407 10.9713 0.550366 10.9713 0.550366C4.77075 2.58282 -0.108578 8.83404 0.0018375 16.0499C0.113014 23.3042 4.19954 27.4639 5.67259 28.1859C7.53685 29.0995 9.16596 28.2319 9.96954 27.4495C13.0618 24.5363 18.6474 7.24878 23.3552 8.58808C28.6235 9.83846 27.9256 20.8495 28.1799 22.9594C28.6867 27.1656 29.8747 26.6634 31.529 23.5733C32.6382 21.5014 33.3593 19.1142 33.3434 15.9673C33.3434 15.9673 33.2642 17.1446 32.3139 16.9483C31.4602 16.7721 31.1415 16.2883 28.9935 12.9592C26.7454 9.47505 23.3073 3.64175 21.0379 2.27229Z" fill="#0041DC"/>
</svg>
