<svg width="114" height="33" viewBox="0 0 110 31" fill="none" xmlns="http://www.w3.org/2000/svg">
<path d="M110 21.9965V18.139H109.587V21.225L107.534 18.139H107.142V21.9965H107.555V18.9009L109.609 21.9989L110 21.9965ZM105.874 21.9965V21.6276H103.885V20.2329H105.576V19.8652H103.885V18.5031H105.875V18.1342H103.472V21.9916L105.874 21.9965ZM102.2 20.9333C102.206 20.7895 102.18 20.6461 102.124 20.5136C102.068 20.3812 101.982 20.263 101.874 20.1678C101.711 20.0268 101.532 19.9508 101.167 19.8966L100.744 19.8315C100.554 19.8066 100.375 19.734 100.222 19.6205C100.162 19.5638 100.115 19.4945 100.085 19.4176C100.055 19.3407 100.042 19.2581 100.048 19.1757C100.048 18.7466 100.347 18.4597 100.863 18.4597C101.028 18.4508 101.193 18.4755 101.348 18.5322C101.503 18.589 101.645 18.6767 101.765 18.79L102.032 18.5248C101.879 18.3798 101.698 18.2675 101.5 18.1948C101.302 18.122 101.091 18.0904 100.88 18.1017C100.113 18.1017 99.6408 18.5356 99.6408 19.1866C99.6332 19.3213 99.6556 19.456 99.7063 19.581C99.7571 19.7061 99.8349 19.8184 99.9343 19.9098C100.14 20.0713 100.386 20.1727 100.646 20.2028L101.097 20.2727C101.38 20.3161 101.478 20.3486 101.602 20.4571C101.666 20.5195 101.715 20.5949 101.747 20.6781C101.779 20.7613 101.793 20.8504 101.787 20.9393C101.787 21.3889 101.439 21.6553 100.874 21.6553C100.678 21.667 100.481 21.6351 100.299 21.562C100.117 21.4888 99.953 21.3762 99.8196 21.2322L99.537 21.5143C99.8993 21.8759 100.282 22.0242 100.866 22.0242C101.67 22.0242 102.203 21.6059 102.203 20.9284M98.9584 21.9916V21.6228H96.9777V18.127H96.5646V21.9844L98.9584 21.9916ZM95.3 21.9916V21.6228H93.3144V20.2329H95.0053V19.8652H93.3144V18.5031H95.3037V18.1342H92.8953V21.9916H95.3ZM91.1404 19.2131C91.1404 19.6856 90.8191 19.9183 90.3686 19.9183H89.336V18.5031H90.3686C90.8191 18.5031 91.1404 18.7442 91.1404 19.2131ZM91.6235 21.9965L90.7044 20.2437C90.9483 20.2052 91.1693 20.0782 91.3253 19.8872C91.4813 19.6961 91.5612 19.4544 91.5498 19.2083C91.5498 18.5405 91.0764 18.1342 90.4024 18.1342H88.9229V21.9916H89.336V20.2823H90.2648L91.1404 21.9965H91.6235ZM87.9059 18.139H87.4603L86.5641 19.9858L85.651 18.1366H85.2053L86.3576 20.4041V21.9989H86.7706V20.4017L87.9059 18.139ZM84.5096 18.5031V18.1342H81.8525V18.5031H82.9721V21.9989H83.3852V18.5031H84.5096ZM81.2486 20.9333C81.2549 20.7895 81.2289 20.6461 81.1725 20.5136C81.1161 20.3812 81.0307 20.263 80.9225 20.1678C80.7595 20.0268 80.5795 19.9508 80.2159 19.8966L79.792 19.8315C79.6029 19.8068 79.4232 19.7342 79.2702 19.6205C79.2102 19.5638 79.1634 19.4945 79.1333 19.4176C79.1033 19.3407 79.0906 19.2581 79.0963 19.1757C79.0963 18.7466 79.3947 18.4597 79.9116 18.4597C80.0765 18.4509 80.2416 18.4757 80.3967 18.5324C80.5517 18.5892 80.6937 18.6768 80.8138 18.79L81.0795 18.5248C80.9265 18.3796 80.7453 18.2672 80.5472 18.1945C80.349 18.1217 80.1381 18.0901 79.9273 18.1017C79.1615 18.1017 78.6881 18.5356 78.6881 19.1866C78.6805 19.3213 78.7028 19.456 78.7536 19.581C78.8043 19.7061 78.8822 19.8184 78.9816 19.9098C79.1876 20.0711 79.4342 20.1725 79.6942 20.2028L80.1447 20.2727C80.4273 20.3161 80.5251 20.3486 80.6508 20.4571C80.7142 20.5197 80.7635 20.5951 80.7954 20.6782C80.8273 20.7614 80.841 20.8504 80.8355 20.9393C80.8355 21.3889 80.4877 21.6553 79.9225 21.6553C79.7263 21.667 79.53 21.6351 79.3476 21.562C79.1653 21.4888 79.0015 21.3762 78.8681 21.2322L78.5854 21.5143C78.9478 21.8759 79.3294 22.0242 79.914 22.0242C80.7184 22.0242 81.251 21.6059 81.251 20.9284M77.7351 20.9284C77.7415 20.7846 77.7155 20.6413 77.659 20.5088C77.6026 20.3764 77.5172 20.2582 77.409 20.163C77.246 20.0219 77.066 19.946 76.7025 19.8918L76.2786 19.8267C76.0894 19.802 75.9098 19.7294 75.7568 19.6157C75.6967 19.559 75.6499 19.4897 75.6199 19.4128C75.5898 19.3359 75.5772 19.2533 75.5829 19.1709C75.5829 18.7418 75.8812 18.4549 76.3981 18.4549C76.5631 18.4461 76.7281 18.4708 76.8832 18.5276C77.0383 18.5844 77.1802 18.672 77.3003 18.7852L77.5661 18.52C77.413 18.3748 77.2319 18.2624 77.0337 18.1897C76.8356 18.1169 76.6246 18.0853 76.4138 18.0969C75.6481 18.0969 75.1746 18.5308 75.1746 19.1817C75.167 19.3165 75.1894 19.4512 75.2401 19.5762C75.2909 19.7013 75.3687 19.8136 75.4681 19.905C75.6741 20.0663 75.9207 20.1676 76.1807 20.1979L76.6312 20.2679C76.9138 20.3112 77.0117 20.3438 77.1373 20.4523C77.2008 20.5149 77.2501 20.5903 77.282 20.6734C77.3138 20.7566 77.3275 20.8456 77.3221 20.9345C77.3221 21.3841 76.9742 21.6505 76.409 21.6505C76.2128 21.6622 76.0165 21.6303 75.8342 21.5571C75.6518 21.484 75.4881 21.3713 75.3546 21.2274L75.0768 21.5191C75.4391 21.8807 75.8208 22.029 76.4054 22.029C77.2098 22.029 77.7424 21.6107 77.7424 20.9333M74.0369 20.5885V19.9749H72.6733V20.3366H73.6275V20.6295C73.6454 20.8815 73.5678 21.131 73.4101 21.3286C73.3239 21.4277 73.2185 21.5081 73.1002 21.5651C72.9819 21.622 72.8532 21.6543 72.7219 21.66C72.5907 21.6656 72.4597 21.6445 72.3369 21.5979C72.2141 21.5513 72.1021 21.4802 72.0078 21.3889C71.7663 21.1394 71.7361 20.873 71.7361 20.0629C71.7361 19.2529 71.7638 18.9937 72.0078 18.7442C72.0954 18.6562 72.1997 18.5865 72.3146 18.5391C72.4295 18.4917 72.5526 18.4676 72.6769 18.4681C73.16 18.4681 73.5079 18.7659 73.6166 19.2541H74.0297C73.9161 18.5766 73.4161 18.0993 72.6769 18.0993C72.4935 18.0967 72.3114 18.1308 72.1415 18.1998C71.9716 18.2688 71.8173 18.3711 71.6877 18.5007C71.3254 18.8623 71.3254 19.2432 71.3254 20.0677C71.3254 20.8923 71.3254 21.266 71.6877 21.6348C71.8226 21.7659 71.9822 21.8689 72.1573 21.9378C72.3325 22.0067 72.5196 22.0401 72.7078 22.0361C72.896 22.0321 73.0815 21.9907 73.2535 21.9143C73.4255 21.838 73.5805 21.7282 73.7096 21.5914C73.9511 21.3359 74.0405 21.0381 74.0405 20.5933M69.9425 22.0037V18.1463H69.521V21.2322L67.4677 18.1463H67.0764V22.0037H67.4895V18.9009L69.5427 21.9989L69.9425 22.0037ZM65.557 18.1463H65.1439V22.0037H65.557V18.1463ZM63.6161 22.0037V18.1463H63.203V21.2322L61.1498 18.1463H60.7585V22.0037H61.1715V18.9009L63.2248 21.9989L63.6161 22.0037ZM58.9601 20.0219C58.9601 20.4933 58.9709 21.0683 58.7052 21.3479C58.6049 21.445 58.4854 21.5202 58.3545 21.5687C58.2235 21.6173 58.0838 21.6382 57.9443 21.63H57.0989V18.5031H57.9443C58.0838 18.4949 58.2235 18.5158 58.3545 18.5643C58.4854 18.6129 58.6049 18.6881 58.7052 18.7852C58.9709 19.0612 58.9601 19.5494 58.9601 20.0219ZM59.3731 20.0219C59.3731 19.4843 59.3949 18.8936 58.9927 18.4922C58.8618 18.3702 58.7079 18.2753 58.54 18.2132C58.372 18.1511 58.1933 18.123 58.0144 18.1306H56.6858V21.988H58.0144C58.1933 21.9953 58.3719 21.9671 58.5398 21.905C58.7077 21.8429 58.8617 21.7482 58.9927 21.6264C59.3949 21.225 59.3731 20.5415 59.3731 20.0099M55.5577 21.9844V21.6155H53.5781V18.1198H53.1651V21.9772L55.5577 21.9844ZM51.6396 18.127H51.2266V21.9844H51.6457L51.6396 18.127ZM49.433 20.9091C49.433 21.3431 49.1335 21.6204 48.6552 21.6204H47.6008V20.2112H48.6552C49.1383 20.2112 49.433 20.4824 49.433 20.9164M49.3726 19.1697C49.3726 19.6314 49.0417 19.8423 48.6117 19.8423H47.6008V18.5031H48.6117C49.0417 18.5031 49.3726 18.7092 49.3726 19.1697ZM49.8461 20.9272C49.8531 20.7273 49.7957 20.5303 49.6822 20.3654C49.5687 20.2005 49.4051 20.0763 49.2156 20.0111C49.3861 19.9461 49.5323 19.8302 49.6344 19.6792C49.7364 19.5282 49.7892 19.3494 49.7857 19.1673C49.7857 18.5212 49.3183 18.1366 48.6443 18.1366H47.1877V21.994H48.6938C49.3787 21.994 49.8461 21.6252 49.8461 20.9248M46.0572 18.5031V18.1342H43.4001V18.5031H44.5197V21.9989H44.9328V18.5031H46.0572ZM42.3288 20.7211V18.1342H41.9157V20.6885C41.9157 21.2744 41.5413 21.6601 40.9761 21.6601C40.4108 21.6601 40.0412 21.2744 40.0412 20.6885V18.1342H39.6282V20.7211C39.6282 21.4914 40.1934 22.029 40.9761 22.029C41.7587 22.029 42.3288 21.4914 42.3288 20.7211Z" fill="black"/>
<path d="M88.9723 12.9773C88.9787 12.8336 88.9526 12.6902 88.8962 12.5577C88.8398 12.4253 88.7544 12.3071 88.6462 12.2119C88.4832 12.0709 88.3032 11.9949 87.9397 11.9407L87.5157 11.8756C87.3266 11.8509 87.147 11.7783 86.994 11.6646C86.9339 11.6079 86.8871 11.5386 86.8571 11.4617C86.827 11.3848 86.8144 11.3022 86.8201 11.2198C86.8201 10.7907 87.1184 10.5038 87.6353 10.5038C87.8003 10.495 87.9653 10.5197 88.1204 10.5765C88.2755 10.6333 88.4174 10.7209 88.5375 10.8341L88.8032 10.5689C88.6502 10.4237 88.469 10.3113 88.2709 10.2386C88.0728 10.1658 87.8618 10.1342 87.651 10.1458C86.8853 10.1458 86.4118 10.5797 86.4118 11.2307C86.4042 11.3654 86.4266 11.5001 86.4773 11.6251C86.5281 11.7502 86.6059 11.8625 86.7053 11.9539C86.9113 12.1152 87.1579 12.2166 87.4179 12.2469L87.8684 12.3168C88.151 12.3602 88.2489 12.3927 88.3745 12.5012C88.4379 12.5638 88.4873 12.6392 88.5191 12.7223C88.551 12.8055 88.5647 12.8945 88.5593 12.9834C88.5593 13.433 88.2114 13.6994 87.6462 13.6994C87.45 13.7111 87.2537 13.6792 87.0714 13.606C86.889 13.5329 86.7252 13.4203 86.5918 13.2763L86.3092 13.5632C86.6715 13.9248 87.0532 14.0731 87.6377 14.0731C88.4421 14.0731 88.9748 13.6548 88.9748 12.9773M85.1702 12.7652V10.1783H84.7572V12.7326C84.7572 13.3185 84.3815 13.7042 83.8163 13.7042C83.251 13.7042 82.8815 13.3185 82.8815 12.7326V10.1783H82.4684V12.7652C82.4684 13.5355 83.0336 14.0731 83.8163 14.0731C84.5989 14.0731 85.1702 13.5355 85.1702 12.7652ZM81.3935 10.5472V10.1783H78.7363V10.5472H79.8559V14.043H80.2702V10.5472H81.3935ZM77.6131 10.1783H77.2V14.0357H77.6131V10.1783ZM76.0695 14.0357V13.6669H74.0863V10.1711H73.6733V14.0285L76.0695 14.0357ZM72.5476 14.0357V13.6669H70.5644V10.1711H70.1513V14.0285L72.5476 14.0357ZM68.2539 12.8038H66.8046L67.5292 10.7642L68.2539 12.8038ZM69.1235 14.0357L67.7044 10.1783H67.3469L65.9229 14.0357H66.3637L66.6729 13.1618H68.3638L68.673 14.0357H69.1235ZM64.8963 14.0357V10.1783H64.4832V11.9093H62.6449V10.1783H62.2319V14.0357H62.6449V12.277H64.482V14.0405L64.8963 14.0357ZM60.9613 12.9725C60.9676 12.8287 60.9416 12.6854 60.8852 12.5529C60.8287 12.4205 60.7433 12.3023 60.6352 12.2071C60.4721 12.066 60.2934 11.9901 59.9286 11.9358L59.5047 11.8708C59.3156 11.8458 59.1361 11.7732 58.9829 11.6598C58.9228 11.6031 58.8761 11.5338 58.846 11.4569C58.8159 11.3799 58.8033 11.2974 58.809 11.215C58.809 10.7859 59.1085 10.499 59.6243 10.499C59.7892 10.49 59.9543 10.5147 60.1094 10.5715C60.2645 10.6283 60.4064 10.716 60.5265 10.8293L60.7934 10.5641C60.6402 10.4191 60.4591 10.3068 60.2609 10.2341C60.0628 10.1613 59.852 10.1296 59.6412 10.1409C58.8742 10.1409 58.402 10.5749 58.402 11.2258C58.3944 11.3605 58.4167 11.4953 58.4675 11.6203C58.5182 11.7454 58.5961 11.8577 58.6955 11.9491C58.9009 12.1106 59.1471 12.212 59.4069 12.242L59.8586 12.3119C60.1412 12.3553 60.239 12.3879 60.3634 12.4964C60.4271 12.5588 60.4766 12.6341 60.5085 12.7173C60.5404 12.8006 60.554 12.8896 60.5482 12.9786C60.5482 13.4282 60.2004 13.6946 59.6351 13.6946C59.439 13.7063 59.2426 13.6744 59.0603 13.6012C58.878 13.5281 58.7142 13.4154 58.5807 13.2715L58.2981 13.5535C58.6604 13.9152 59.0433 14.0634 59.6267 14.0634C60.4311 14.0634 60.9637 13.6452 60.9637 12.9677M57.1592 12.7555V10.1783H56.7425V12.7326C56.7425 13.3185 56.3681 13.7042 55.8028 13.7042C55.2376 13.7042 54.868 13.3185 54.868 12.7326V10.1783H54.4549V12.7652C54.4549 13.5355 55.0202 14.0731 55.8028 14.0731C56.5855 14.0731 57.1555 13.5355 57.1555 12.7652M53.3788 10.5472V10.1783H50.7216V10.5472H51.8413V14.043H52.2543V10.5472H53.3788ZM49.8569 14.043V13.6741H47.8676V12.277H49.5585V11.9093H47.8676V10.5472H49.8569V10.1783H47.4546V14.0357L49.8569 14.043ZM45.8482 11.3066C45.8482 11.8165 45.5112 12.0769 45.0269 12.0769H44.0365V10.5472H45.0257C45.5088 10.5472 45.847 10.8015 45.847 11.3114M46.2601 11.3114C46.2601 10.6171 45.7769 10.1783 45.0643 10.1783H43.6222V14.0357H44.0365V12.4506H45.0643C45.7709 12.4506 46.2601 12.0058 46.2601 11.3114ZM41.8299 12.1094C41.8299 12.9171 41.8033 13.1774 41.5581 13.427C41.4705 13.5148 41.3663 13.5846 41.2516 13.6322C41.1369 13.6797 41.0139 13.7042 40.8896 13.7042C40.7654 13.7042 40.6424 13.6797 40.5277 13.6322C40.4129 13.5846 40.3088 13.5148 40.2211 13.427C39.9796 13.1774 39.9494 12.9171 39.9494 12.1094C39.9494 11.3018 39.9771 11.0402 40.2211 10.7907C40.3984 10.6138 40.6389 10.5144 40.8896 10.5144C41.1403 10.5144 41.3808 10.6138 41.5581 10.7907C41.7997 11.0402 41.8299 11.3006 41.8299 12.1094ZM42.243 12.1094C42.243 11.2897 42.243 10.91 41.8806 10.5424C41.6159 10.2851 41.2609 10.1411 40.8914 10.1411C40.5219 10.1411 40.167 10.2851 39.9023 10.5424C39.5399 10.904 39.5399 11.2849 39.5399 12.1094C39.5399 12.934 39.5399 13.3076 39.9023 13.6765C40.167 13.9338 40.5219 14.0777 40.8914 14.0777C41.2609 14.0777 41.6159 13.9338 41.8806 13.6765C42.243 13.3149 42.243 12.9327 42.243 12.1094Z" fill="black"/>
<path d="M9.01905 8.92105C11.4576 4.01974 15.1305 -0.2656 12.6931 0.0128567C11.3075 0.188518 9.96274 0.602051 8.71831 1.23517C9.2802 0.961445 9.85959 0.725067 10.4527 0.527579C10.4527 0.527579 5.39448 2.60455 3.50549 8.5341C4.27039 7.79997 5.10899 7.14639 6.00803 6.5837C10.2039 3.93174 5.93436 9.23567 4.99711 15.9451C5.84257 14.8602 6.90542 13.1726 8.11804 11.3283C8.33994 10.4976 8.64167 9.69024 9.01905 8.91743M22.2516 8.23756C21.2733 7.9579 20.2563 8.52687 19.2321 9.61779C18.8698 10.4978 18.4978 11.4898 18.1101 12.6157C16.4772 17.3483 14.442 26.1166 11.4672 25.0317C11.2079 24.9395 10.96 24.8182 10.7281 24.6701C10.2824 25.4066 9.86934 25.9864 9.49492 26.342C9.16807 26.6592 8.78892 26.9177 8.37409 27.1063C14.0121 32.6453 24.3954 32.4102 23.8048 25.5284C23.0801 17.1012 23.1538 13.7018 23.219 8.63054C22.917 8.45619 22.5917 8.32551 22.2528 8.24239M31.7666 15.3484C31.7565 14.1614 31.6184 12.9789 31.3547 11.8213C30.374 7.52877 26.5948 2.46833 24.4703 2.79863C24.0222 2.86854 23.2396 3.0156 22.1755 4.26926C22.5584 4.7442 22.9497 5.26977 23.3446 5.82548C24.1237 -1.91826 28.8618 7.7349 30.1155 15.9512C30.3096 16.1141 30.5433 16.223 30.7931 16.267C31.6228 16.4394 31.7593 15.5088 31.7714 15.3509" fill="#5BCA13"/>
<path d="M20.0438 2.18023C12.8575 -2.18708 3.71208 22.3593 3.02726 16.1874C1.26027 4.29336 10.4528 0.527573 10.4528 0.527573C4.54183 2.47797 -0.10333 8.47744 0.00174802 15.4051C0.108034 22.3665 4.00074 26.3589 5.40419 27.0508C7.18085 27.9284 8.73286 27.0954 9.4986 26.3444C12.4444 23.549 17.7659 6.95979 22.2516 8.24479C27.2712 9.45023 26.6057 20.0111 26.8485 22.0362C27.3316 26.072 28.4633 25.5898 30.0395 22.6245C31.0963 20.6367 31.7835 18.3464 31.7678 15.3255C31.7678 15.3255 31.6929 16.4562 30.7871 16.267C29.9743 16.0982 29.6699 15.6341 27.6239 12.4397C25.4813 9.09583 22.2058 3.49777 20.0438 2.18385" fill="#0041DC"/>
</svg>
