<svg width="197" height="87" viewBox="0 0 197 87" fill="none" xmlns="http://www.w3.org/2000/svg">
<path d="M18.3333 15.0312H11C11 16.1563 15.0741 19.9062 16.2963 19.9062H18.3333V26H0V0H18.3333V15.0312Z" fill="#0064B0"/>
<path d="M41.6668 26H23.3335V19.9062H25.3705C26.5928 19.9062 30.6668 16.1563 30.6668 15.0312H23.3335V0H41.6668V26Z" fill="#FDC300"/>
<path d="M64.9998 26H46.6665V19.9062H48.7035C49.9258 19.9062 53.9998 16.1563 53.9998 15.0312H46.6665V0H64.9998V26Z" fill="#009640"/>
<path d="M18.3333 45.5312H11C11 46.6563 15.0741 50.4062 16.2963 50.4062H18.3333V56.5H0V30.5H18.3333V45.5312Z" fill="#F18800"/>
<path d="M41.6668 56.5H23.3335V30.5H41.6668V56.5ZM25.7779 45.5312C25.7779 46.6563 29.852 50.4062 31.0742 50.4062H33.5187C34.7409 50.4062 38.815 46.6563 38.815 45.5312H25.7779Z" fill="#E30613"/>
<path d="M64.9998 45.5312H57.6665C57.6665 46.6563 61.7406 50.4062 62.9628 50.4062H64.9998V56.5H46.6665V30.5H64.9998V45.5312Z" fill="#009DC7"/>
<path d="M18.3333 87H0V79.1995C1.21158 80.1415 2.48575 80.9062 3.10648 80.9062H5.85648C7.23148 80.9062 11.8148 77.1563 11.8148 76.0312H0V61H18.3333V87Z" fill="#9D9D9C"/>
<path d="M41.6668 76.0312H34.3335C34.3335 77.1563 38.4076 80.9062 39.6298 80.9062H41.6668V87H23.3335V61H41.6668V76.0312Z" fill="#312783"/>
<path d="M64.9998 87H46.6665V80.9062H48.7035C49.9258 80.9062 53.9998 77.1563 53.9998 76.0312H46.6665V61H64.9998V87Z" fill="#C8057F"/>
<path d="M83.38 35.18H79.12L77.96 39H75.42L79.74 25.52H82.88L87.26 39H84.6L83.38 35.18ZM79.52 33.32H82.98L81.92 30C81.66 29.18 81.44 28.26 81.24 27.48H81.2C81 28.26 80.78 29.2 80.56 30L79.52 33.32ZM88.9372 39V24.8H91.3972V39H88.9372ZM94.0739 39V24.8H96.5339V39H94.0739ZM99.2106 39V32.16C99.2106 31.04 99.1706 30.1 99.1306 29.26H101.231L101.351 30.7H101.411C101.871 29.94 102.751 29.04 104.411 29.04C105.691 29.04 106.691 29.76 107.111 30.84H107.151C107.491 30.3 107.891 29.9 108.331 29.62C108.891 29.24 109.511 29.04 110.331 29.04C111.931 29.04 113.571 30.14 113.571 33.26V39H111.171V33.62C111.171 32 110.611 31.04 109.431 31.04C108.591 31.04 107.971 31.64 107.711 32.34C107.631 32.56 107.591 32.88 107.591 33.16V39H105.191V33.36C105.191 32 104.651 31.04 103.511 31.04C102.591 31.04 101.971 31.76 101.731 32.42C101.651 32.68 101.611 32.96 101.611 33.24V39H99.2106ZM123.724 33.16V36.66C123.724 37.54 123.764 38.4 123.884 39H121.664L121.484 37.92H121.424C120.844 38.68 119.824 39.22 118.544 39.22C116.584 39.22 115.484 37.8 115.484 36.32C115.484 33.88 117.664 32.62 121.264 32.64V32.48C121.264 31.84 121.004 30.78 119.284 30.78C118.324 30.78 117.324 31.08 116.664 31.5L116.184 29.9C116.904 29.46 118.164 29.04 119.704 29.04C122.824 29.04 123.724 31.02 123.724 33.16ZM121.324 35.58V34.24C119.584 34.22 117.924 34.58 117.924 36.06C117.924 37.02 118.544 37.46 119.324 37.46C120.324 37.46 121.024 36.82 121.264 36.12C121.324 35.94 121.324 35.76 121.324 35.58ZM117.924 27.74C117.224 27.74 116.704 27.18 116.704 26.52C116.704 25.82 117.244 25.28 117.964 25.28C118.624 25.28 119.144 25.8 119.144 26.52C119.144 27.18 118.644 27.74 117.924 27.74ZM121.924 27.74H121.884C121.204 27.74 120.684 27.18 120.684 26.52C120.684 25.82 121.224 25.28 121.924 25.28C122.604 25.28 123.124 25.8 123.124 26.52C123.124 27.18 122.624 27.74 121.924 27.74ZM126.32 39V32.16C126.32 31.04 126.28 30.1 126.24 29.26H128.38L128.5 30.72H128.56C129 29.96 130.06 29.04 131.68 29.04C133.38 29.04 135.14 30.14 135.14 33.22V39H132.68V33.5C132.68 32.1 132.16 31.04 130.82 31.04C129.84 31.04 129.16 31.74 128.9 32.48C128.82 32.68 128.78 32.98 128.78 33.26V39H126.32ZM137.765 39V32.16C137.765 31.04 137.725 30.1 137.685 29.26H139.825L139.945 30.72H140.005C140.445 29.96 141.505 29.04 143.125 29.04C144.825 29.04 146.585 30.14 146.585 33.22V39H144.125V33.5C144.125 32.1 143.605 31.04 142.265 31.04C141.285 31.04 140.605 31.74 140.345 32.48C140.265 32.68 140.225 32.98 140.225 33.26V39H137.765ZM156.771 33.16V36.66C156.771 37.54 156.811 38.4 156.931 39H154.711L154.531 37.92H154.471C153.891 38.68 152.871 39.22 151.591 39.22C149.631 39.22 148.531 37.8 148.531 36.32C148.531 33.88 150.711 32.62 154.311 32.64V32.48C154.311 31.84 154.051 30.78 152.331 30.78C151.371 30.78 150.371 31.08 149.711 31.5L149.231 29.9C149.951 29.46 151.211 29.04 152.751 29.04C155.871 29.04 156.771 31.02 156.771 33.16ZM154.371 35.58V34.24C152.631 34.22 150.971 34.58 150.971 36.06C150.971 37.02 151.591 37.46 152.371 37.46C153.371 37.46 154.071 36.82 154.311 36.12C154.371 35.94 154.371 35.76 154.371 35.58ZM75.72 60.52L76.22 58.72C76.76 59.06 77.82 59.44 78.7 59.44C79.78 59.44 80.26 58.98 80.26 58.34C80.26 57.68 79.86 57.36 78.66 56.92C76.76 56.28 75.98 55.24 75.98 54.08C75.98 52.36 77.4 51.04 79.66 51.04C80.74 51.04 81.68 51.3 82.26 51.62L81.76 53.34C81.36 53.1 80.56 52.78 79.7 52.78C78.82 52.78 78.34 53.22 78.34 53.82C78.34 54.44 78.8 54.72 80.04 55.18C81.82 55.8 82.62 56.7 82.64 58.14C82.64 59.92 81.26 61.2 78.68 61.2C77.5 61.2 76.44 60.92 75.72 60.52ZM84.6598 64.96V54.5C84.6598 53.22 84.6198 52.18 84.5798 51.26H86.7398L86.8598 52.76H86.8998C87.6198 51.66 88.7598 51.04 90.2398 51.04C92.4798 51.04 94.3398 52.96 94.3398 56C94.3398 59.52 92.1198 61.22 89.8998 61.22C88.6798 61.22 87.6598 60.7 87.1598 59.92H87.1198V64.96H84.6598ZM87.1198 55.42V56.92C87.1198 57.16 87.1398 57.38 87.1798 57.6C87.4398 58.6 88.2998 59.32 89.3598 59.32C90.9198 59.32 91.8398 58.02 91.8398 56.1C91.8398 54.38 90.9998 52.98 89.4198 52.98C88.3998 52.98 87.4598 53.72 87.1998 54.8C87.1598 55 87.1198 55.22 87.1198 55.42ZM96.3591 61V54.4C96.3591 53.08 96.3391 52.12 96.2791 51.26H98.3991L98.4991 53.1H98.5591C99.0391 51.74 100.179 51.04 101.239 51.04C101.479 51.04 101.619 51.06 101.819 51.1V53.4C101.599 53.36 101.379 53.34 101.079 53.34C99.9191 53.34 99.0991 54.08 98.8791 55.2C98.8391 55.42 98.8191 55.68 98.8191 55.94V61H96.3591ZM110.872 55.16V58.66C110.872 59.54 110.912 60.4 111.032 61H108.812L108.632 59.92H108.572C107.992 60.68 106.972 61.22 105.692 61.22C103.732 61.22 102.632 59.8 102.632 58.32C102.632 55.88 104.812 54.62 108.412 54.64V54.48C108.412 53.84 108.152 52.78 106.432 52.78C105.472 52.78 104.472 53.08 103.812 53.5L103.332 51.9C104.052 51.46 105.312 51.04 106.852 51.04C109.972 51.04 110.872 53.02 110.872 55.16ZM108.472 57.58V56.24C106.732 56.22 105.072 56.58 105.072 58.06C105.072 59.02 105.692 59.46 106.472 59.46C107.452 59.46 108.172 58.82 108.412 58.12C108.472 57.94 108.472 57.76 108.472 57.58ZM107.072 50.24C105.752 50.24 104.892 49.42 104.892 48.36C104.892 47.26 105.692 46.4 107.092 46.4C108.432 46.4 109.232 47.22 109.232 48.34C109.232 49.44 108.352 50.24 107.072 50.24ZM107.052 49.36C107.672 49.36 108.032 48.88 108.032 48.32C108.032 47.76 107.672 47.28 107.052 47.28C106.452 47.28 106.112 47.8 106.112 48.34C106.112 48.84 106.472 49.36 107.052 49.36ZM115.928 46.8V55.54H115.968C116.208 55.16 116.488 54.74 116.728 54.4L119.108 51.26H122.068L118.448 55.24L122.568 61H119.548L116.748 56.7L115.928 57.68V61H113.468V46.8H115.928ZM131.768 56.82H125.248C125.308 58.58 126.668 59.34 128.248 59.34C129.388 59.34 130.188 59.16 130.948 58.9L131.308 60.58C130.468 60.94 129.308 61.2 127.908 61.2C124.748 61.2 122.888 59.26 122.888 56.28C122.888 53.58 124.528 51.04 127.648 51.04C130.808 51.04 131.848 53.64 131.848 55.78C131.848 56.24 131.808 56.6 131.768 56.82ZM125.248 55.1H129.528C129.548 54.2 129.148 52.72 127.508 52.72C125.988 52.72 125.348 54.1 125.248 55.1ZM132.564 51.26H135.304L136.464 53.1C136.784 53.62 137.064 54.1 137.344 54.6H137.384C137.664 54.06 137.944 53.56 138.244 53.06L139.324 51.26H142.004L138.744 55.94L142.064 61H139.264L138.084 59.06C137.764 58.54 137.484 58.02 137.204 57.48H137.164C136.884 58.04 136.584 58.52 136.284 59.06L135.164 61H132.444L135.824 56.04L132.564 51.26ZM151.107 55.16V58.66C151.107 59.54 151.147 60.4 151.267 61H149.047L148.867 59.92H148.807C148.227 60.68 147.207 61.22 145.927 61.22C143.967 61.22 142.867 59.8 142.867 58.32C142.867 55.88 145.047 54.62 148.647 54.64V54.48C148.647 53.84 148.387 52.78 146.667 52.78C145.707 52.78 144.707 53.08 144.047 53.5L143.567 51.9C144.287 51.46 145.547 51.04 147.087 51.04C150.207 51.04 151.107 53.02 151.107 55.16ZM148.707 57.58V56.24C146.967 56.22 145.307 56.58 145.307 58.06C145.307 59.02 145.927 59.46 146.707 59.46C147.707 59.46 148.407 58.82 148.647 58.12C148.707 57.94 148.707 57.76 148.707 57.58ZM153.703 61V54.16C153.703 53.04 153.663 52.1 153.623 51.26H155.723L155.843 52.7H155.903C156.363 51.94 157.243 51.04 158.903 51.04C160.183 51.04 161.183 51.76 161.603 52.84H161.643C161.983 52.3 162.383 51.9 162.823 51.62C163.383 51.24 164.003 51.04 164.823 51.04C166.423 51.04 168.063 52.14 168.063 55.26V61H165.663V55.62C165.663 54 165.103 53.04 163.923 53.04C163.083 53.04 162.463 53.64 162.203 54.34C162.123 54.56 162.083 54.88 162.083 55.16V61H159.683V55.36C159.683 54 159.143 53.04 158.003 53.04C157.083 53.04 156.463 53.76 156.223 54.42C156.143 54.68 156.103 54.96 156.103 55.24V61H153.703ZM173.116 61H170.656V51.26H173.116V61ZM171.896 47.2C172.736 47.2 173.256 47.78 173.276 48.54C173.276 49.26 172.736 49.86 171.876 49.86C171.056 49.86 170.516 49.26 170.516 48.54C170.516 47.78 171.076 47.2 171.896 47.2ZM175.773 61V54.16C175.773 53.04 175.733 52.1 175.693 51.26H177.833L177.953 52.72H178.013C178.453 51.96 179.513 51.04 181.133 51.04C182.833 51.04 184.593 52.14 184.593 55.22V61H182.133V55.5C182.133 54.1 181.613 53.04 180.273 53.04C179.293 53.04 178.613 53.74 178.353 54.48C178.273 54.68 178.233 54.98 178.233 55.26V61H175.773ZM194.778 55.16V58.66C194.778 59.54 194.818 60.4 194.938 61H192.718L192.538 59.92H192.478C191.898 60.68 190.878 61.22 189.598 61.22C187.638 61.22 186.538 59.8 186.538 58.32C186.538 55.88 188.718 54.62 192.318 54.64V54.48C192.318 53.84 192.058 52.78 190.338 52.78C189.378 52.78 188.378 53.08 187.718 53.5L187.238 51.9C187.958 51.46 189.218 51.04 190.758 51.04C193.878 51.04 194.778 53.02 194.778 55.16ZM192.378 57.58V56.24C190.638 56.22 188.978 56.58 188.978 58.06C188.978 59.02 189.598 59.46 190.378 59.46C191.378 59.46 192.078 58.82 192.318 58.12C192.378 57.94 192.378 57.76 192.378 57.58Z" fill="black"/>
</svg>
