<svg width="194" height="87" viewBox="0 0 194 87" fill="none" xmlns="http://www.w3.org/2000/svg">
<path d="M18.3333 15.0312H11C11 16.1563 15.0741 19.9062 16.2963 19.9062H18.3333V26H0V0H18.3333V15.0312Z" fill="#0064B0"/>
<path d="M41.6666 26H23.3333V19.9062H25.3703C26.5925 19.9062 30.6666 16.1563 30.6666 15.0312H23.3333V0H41.6666V26Z" fill="#FDC300"/>
<path d="M65.0001 26H46.6667V19.9062H48.7038C49.926 19.9062 54.0001 16.1563 54.0001 15.0312H46.6667V0H65.0001V26Z" fill="#009640"/>
<path d="M18.3333 45.5312H11C11 46.6563 15.0741 50.4062 16.2963 50.4062H18.3333V56.5H0V30.5H18.3333V45.5312Z" fill="#F18800"/>
<path d="M41.6666 56.5H23.3333V30.5H41.6666V56.5ZM25.7777 45.5312C25.7777 46.6563 29.8518 50.4062 31.074 50.4062H33.5184C34.7407 50.4062 38.8147 46.6563 38.8147 45.5312H25.7777Z" fill="#E30613"/>
<path d="M65.0001 45.5312H57.6667C57.6667 46.6563 61.7408 50.4062 62.963 50.4062H65.0001V56.5H46.6667V30.5H65.0001V45.5312Z" fill="#009DC7"/>
<path d="M18.3333 87H0V79.1995C1.21158 80.1415 2.48575 80.9062 3.10648 80.9062H5.85648C7.23148 80.9062 11.8148 77.1563 11.8148 76.0312H0V61H18.3333V87Z" fill="#9D9D9C"/>
<path d="M41.6666 76.0312H34.3333C34.3333 77.1563 38.4073 80.9062 39.6295 80.9062H41.6666V87H23.3333V61H41.6666V76.0312Z" fill="#312783"/>
<path d="M65.0001 87H46.6667V80.9062H48.7038C49.926 80.9062 54.0001 77.1563 54.0001 76.0312H46.6667V61H65.0001V87Z" fill="#C8057F"/>
<path d="M81.94 39H79.48V33.38L75.22 25.52H78.04L79.64 28.98C80.1 29.98 80.44 30.74 80.82 31.66H80.86C81.18 30.8 81.56 29.96 82.02 28.98L83.64 25.52H86.42L81.94 33.32V39ZM87.57 39V24.8H90.03V39H87.57ZM100.967 34.82H94.4467C94.5067 36.58 95.8667 37.34 97.4467 37.34C98.5867 37.34 99.3867 37.16 100.147 36.9L100.507 38.58C99.6667 38.94 98.5067 39.2 97.1067 39.2C93.9467 39.2 92.0867 37.26 92.0867 34.28C92.0867 31.58 93.7267 29.04 96.8467 29.04C100.007 29.04 101.047 31.64 101.047 33.78C101.047 34.24 101.007 34.6 100.967 34.82ZM94.4467 33.1H98.7267C98.7467 32.2 98.3467 30.72 96.7067 30.72C95.1867 30.72 94.5467 32.1 94.4467 33.1ZM105.479 39H103.019V29.26H105.479V39ZM104.259 25.2C105.099 25.2 105.619 25.78 105.639 26.54C105.639 27.26 105.099 27.86 104.239 27.86C103.419 27.86 102.879 27.26 102.879 26.54C102.879 25.78 103.439 25.2 104.259 25.2ZM107.536 38.52L108.036 36.72C108.576 37.06 109.636 37.44 110.516 37.44C111.596 37.44 112.076 36.98 112.076 36.34C112.076 35.68 111.676 35.36 110.476 34.92C108.576 34.28 107.796 33.24 107.796 32.08C107.796 30.36 109.216 29.04 111.476 29.04C112.556 29.04 113.496 29.3 114.076 29.62L113.576 31.34C113.176 31.1 112.376 30.78 111.516 30.78C110.636 30.78 110.156 31.22 110.156 31.82C110.156 32.44 110.616 32.72 111.856 33.18C113.636 33.8 114.436 34.7 114.456 36.14C114.456 37.92 113.076 39.2 110.496 39.2C109.316 39.2 108.256 38.92 107.536 38.52ZM124.736 34.82H118.216C118.276 36.58 119.636 37.34 121.216 37.34C122.356 37.34 123.156 37.16 123.916 36.9L124.276 38.58C123.436 38.94 122.276 39.2 120.876 39.2C117.716 39.2 115.856 37.26 115.856 34.28C115.856 31.58 117.496 29.04 120.616 29.04C123.776 29.04 124.816 31.64 124.816 33.78C124.816 34.24 124.776 34.6 124.736 34.82ZM118.216 33.1H122.496C122.516 32.2 122.116 30.72 120.476 30.72C118.956 30.72 118.316 32.1 118.216 33.1ZM127.189 27.44L129.609 26.76V29.26H131.949V31.1H129.609V35.4C129.609 36.6 129.929 37.2 130.869 37.2C131.309 37.2 131.549 37.18 131.829 37.1L131.869 38.96C131.509 39.1 130.849 39.22 130.089 39.22C129.169 39.22 128.429 38.92 127.969 38.42C127.429 37.86 127.189 36.96 127.189 35.68V31.1H125.809V29.26H127.189V27.44ZM78.78 46.8V55.54H78.82C79.06 55.16 79.34 54.74 79.58 54.4L81.96 51.26H84.92L81.3 55.24L85.42 61H82.4L79.6 56.7L78.78 57.68V61H76.32V46.8H78.78ZM89.2097 61H86.7497V51.26H89.2097V61ZM87.9897 47.2C88.8297 47.2 89.3497 47.78 89.3697 48.54C89.3697 49.26 88.8297 49.86 87.9697 49.86C87.1497 49.86 86.6097 49.26 86.6097 48.54C86.6097 47.78 87.1697 47.2 87.9897 47.2ZM100.127 56.82H93.6069C93.6669 58.58 95.0269 59.34 96.6069 59.34C97.7469 59.34 98.5469 59.16 99.3069 58.9L99.6669 60.58C98.8269 60.94 97.6669 61.2 96.2669 61.2C93.1069 61.2 91.2469 59.26 91.2469 56.28C91.2469 53.58 92.8869 51.04 96.0069 51.04C99.1669 51.04 100.207 53.64 100.207 55.78C100.207 56.24 100.167 56.6 100.127 56.82ZM93.6069 55.1H97.8869C97.9069 54.2 97.5069 52.72 95.8669 52.72C94.3469 52.72 93.7069 54.1 93.6069 55.1ZM102.179 61V46.8H104.639V61H102.179ZM109.776 61H107.316V51.26H109.776V61ZM108.556 47.2C109.396 47.2 109.916 47.78 109.936 48.54C109.936 49.26 109.396 49.86 108.536 49.86C107.716 49.86 107.176 49.26 107.176 48.54C107.176 47.78 107.736 47.2 108.556 47.2ZM112.833 49.44L115.253 48.76V51.26H117.593V53.1H115.253V57.4C115.253 58.6 115.573 59.2 116.513 59.2C116.953 59.2 117.193 59.18 117.473 59.1L117.513 60.96C117.153 61.1 116.493 61.22 115.733 61.22C114.813 61.22 114.073 60.92 113.613 60.42C113.073 59.86 112.833 58.96 112.833 57.68V53.1H111.453V51.26H112.833V49.44ZM128.165 51.26V58.08C128.165 59.24 128.205 60.2 128.245 61H126.105L125.985 59.54H125.925C125.505 60.22 124.545 61.22 122.785 61.22C121.025 61.22 119.405 60.16 119.405 56.98V51.26H121.865V56.56C121.865 58.18 122.385 59.22 123.685 59.22C124.685 59.22 125.325 58.54 125.565 57.9C125.665 57.7 125.705 57.42 125.705 57.14V51.26H128.165ZM131.232 49.44L133.652 48.76V51.26H135.992V53.1H133.652V57.4C133.652 58.6 133.972 59.2 134.912 59.2C135.352 59.2 135.592 59.18 135.872 59.1L135.912 60.96C135.552 61.1 134.892 61.22 134.132 61.22C133.212 61.22 132.472 60.92 132.012 60.42C131.472 59.86 131.232 58.96 131.232 57.68V53.1H129.852V51.26H131.232V49.44ZM140.303 46.8V55.54H140.343C140.583 55.16 140.863 54.74 141.103 54.4L143.483 51.26H146.443L142.823 55.24L146.943 61H143.923L141.123 56.7L140.303 57.68V61H137.843V46.8H140.303ZM150.733 61H148.273V51.26H150.733V61ZM149.513 47.2C150.353 47.2 150.873 47.78 150.893 48.54C150.893 49.26 150.353 49.86 149.493 49.86C148.673 49.86 148.133 49.26 148.133 48.54C148.133 47.78 148.693 47.2 149.513 47.2ZM153.39 61V54.16C153.39 53.04 153.35 52.1 153.31 51.26H155.45L155.57 52.72H155.63C156.07 51.96 157.13 51.04 158.75 51.04C160.45 51.04 162.21 52.14 162.21 55.22V61H159.75V55.5C159.75 54.1 159.23 53.04 157.89 53.04C156.91 53.04 156.23 53.74 155.97 54.48C155.89 54.68 155.85 54.98 155.85 55.26V61H153.39ZM164.836 61V54.16C164.836 53.04 164.796 52.1 164.756 51.26H166.896L167.016 52.72H167.076C167.516 51.96 168.576 51.04 170.196 51.04C171.896 51.04 173.656 52.14 173.656 55.22V61H171.196V55.5C171.196 54.1 170.676 53.04 169.336 53.04C168.356 53.04 167.676 53.74 167.416 54.48C167.336 54.68 167.296 54.98 167.296 55.26V61H164.836ZM180.701 51.04C183.601 51.04 185.541 53.08 185.541 56.04C185.541 59.62 183.021 61.22 180.541 61.22C177.801 61.22 175.661 59.34 175.661 56.2C175.661 53 177.761 51.04 180.701 51.04ZM180.641 52.82C178.901 52.82 178.201 54.52 178.201 56.14C178.201 58.02 179.141 59.44 180.621 59.44C182.021 59.44 183.001 58.08 183.001 56.1C183.001 54.58 182.321 52.82 180.641 52.82ZM187.97 49.44L190.39 48.76V51.26H192.73V53.1H190.39V57.4C190.39 58.6 190.71 59.2 191.65 59.2C192.09 59.2 192.33 59.18 192.61 59.1L192.65 60.96C192.29 61.1 191.63 61.22 190.87 61.22C189.95 61.22 189.21 60.92 188.75 60.42C188.21 59.86 187.97 58.96 187.97 57.68V53.1H186.59V51.26H187.97V49.44Z" fill="black"/>
</svg>
