<svg width="318" height="87" viewBox="0 0 318 87" fill="none" xmlns="http://www.w3.org/2000/svg">
<path d="M18.3333 15.0312H11C11 16.1563 15.0741 19.9062 16.2963 19.9062H18.3333V26H0V0H18.3333V15.0312Z" fill="#0064B0"/>
<path d="M41.6666 26H23.3333V19.9062H25.3703C26.5925 19.9062 30.6666 16.1563 30.6666 15.0312H23.3333V0H41.6666V26Z" fill="#FDC300"/>
<path d="M65.0001 26H46.6667V19.9062H48.7038C49.926 19.9062 54.0001 16.1563 54.0001 15.0312H46.6667V0H65.0001V26Z" fill="#009640"/>
<path d="M18.3333 45.5312H11C11 46.6563 15.0741 50.4062 16.2963 50.4062H18.3333V56.5H0V30.5H18.3333V45.5312Z" fill="#F18800"/>
<path d="M41.6666 56.5H23.3333V30.5H41.6666V56.5ZM25.7777 45.5312C25.7777 46.6563 29.8518 50.4062 31.074 50.4062H33.5184C34.7407 50.4062 38.8147 46.6563 38.8147 45.5312H25.7777Z" fill="#E30613"/>
<path d="M65.0001 45.5312H57.6667C57.6667 46.6563 61.7408 50.4062 62.963 50.4062H65.0001V56.5H46.6667V30.5H65.0001V45.5312Z" fill="#009DC7"/>
<path d="M18.3333 87H0V79.1995C1.21158 80.1415 2.48575 80.9062 3.10648 80.9062H5.85648C7.23148 80.9062 11.8148 77.1563 11.8148 76.0312H0V61H18.3333V87Z" fill="#9D9D9C"/>
<path d="M41.6666 76.0312H34.3333C34.3333 77.1563 38.4073 80.9062 39.6295 80.9062H41.6666V87H23.3333V61H41.6666V76.0312Z" fill="#312783"/>
<path d="M65.0001 87H46.6667V80.9062H48.7038C49.926 80.9062 54.0001 77.1563 54.0001 76.0312H46.6667V61H65.0001V87Z" fill="#C8057F"/>
<path d="M76.42 39V25.52H84.22V27.54H78.88V31.26H83.84V33.26H78.88V39H76.42ZM88.5066 39H86.0466V29.26H88.5066V39ZM87.2866 25.2C88.1266 25.2 88.6466 25.78 88.6666 26.54C88.6666 27.26 88.1266 27.86 87.2666 27.86C86.4466 27.86 85.9066 27.26 85.9066 26.54C85.9066 25.78 86.4666 25.2 87.2866 25.2ZM91.1637 39V32.16C91.1637 31.04 91.1238 30.1 91.0838 29.26H93.2238L93.3438 30.72H93.4038C93.8438 29.96 94.9038 29.04 96.5238 29.04C98.2238 29.04 99.9838 30.14 99.9838 33.22V39H97.5238V33.5C97.5238 32.1 97.0038 31.04 95.6638 31.04C94.6838 31.04 94.0038 31.74 93.7438 32.48C93.6638 32.68 93.6238 32.98 93.6238 33.26V39H91.1637ZM102.609 39V32.16C102.609 31.04 102.569 30.1 102.529 29.26H104.669L104.789 30.72H104.849C105.289 29.96 106.349 29.04 107.969 29.04C109.669 29.04 111.429 30.14 111.429 33.22V39H108.969V33.5C108.969 32.1 108.449 31.04 107.109 31.04C106.129 31.04 105.449 31.74 105.189 32.48C105.109 32.68 105.069 32.98 105.069 33.26V39H102.609ZM116.514 39H114.054V29.26H116.514V39ZM115.294 25.2C116.134 25.2 116.654 25.78 116.674 26.54C116.674 27.26 116.134 27.86 115.274 27.86C114.454 27.86 113.914 27.26 113.914 26.54C113.914 25.78 114.474 25.2 115.294 25.2ZM118.572 38.52L119.072 36.72C119.612 37.06 120.672 37.44 121.552 37.44C122.632 37.44 123.112 36.98 123.112 36.34C123.112 35.68 122.712 35.36 121.512 34.92C119.612 34.28 118.832 33.24 118.832 32.08C118.832 30.36 120.252 29.04 122.512 29.04C123.592 29.04 124.532 29.3 125.112 29.62L124.612 31.34C124.212 31.1 123.412 30.78 122.552 30.78C121.672 30.78 121.192 31.22 121.192 31.82C121.192 32.44 121.652 32.72 122.892 33.18C124.672 33.8 125.472 34.7 125.492 36.14C125.492 37.92 124.112 39.2 121.532 39.2C120.352 39.2 119.292 38.92 118.572 38.52ZM127.511 39V24.8H129.971V30.58H130.011C130.311 30.12 130.731 29.74 131.231 29.48C131.731 29.2 132.311 29.04 132.931 29.04C134.591 29.04 136.331 30.14 136.331 33.26V39H133.871V33.52C133.871 32.12 133.351 31.04 131.991 31.04C131.031 31.04 130.351 31.68 130.071 32.42C129.991 32.64 129.971 32.9 129.971 33.16V39H127.511ZM145.457 39H143.177V25.52H145.997L149.477 31.3C150.357 32.8 151.157 34.36 151.777 35.82H151.817C151.637 34.02 151.597 32.28 151.597 30.22V25.52H153.877V39H151.317L147.797 33.06C146.937 31.58 146.057 29.94 145.397 28.42L145.317 28.44C145.417 30.18 145.457 31.96 145.457 34.18V39ZM164.173 33.16V36.66C164.173 37.54 164.213 38.4 164.333 39H162.113L161.933 37.92H161.873C161.293 38.68 160.273 39.22 158.993 39.22C157.033 39.22 155.933 37.8 155.933 36.32C155.933 33.88 158.113 32.62 161.713 32.64V32.48C161.713 31.84 161.453 30.78 159.733 30.78C158.773 30.78 157.773 31.08 157.113 31.5L156.633 29.9C157.353 29.46 158.613 29.04 160.153 29.04C163.273 29.04 164.173 31.02 164.173 33.16ZM161.773 35.58V34.24C160.033 34.22 158.373 34.58 158.373 36.06C158.373 37.02 158.993 37.46 159.773 37.46C160.773 37.46 161.473 36.82 161.713 36.12C161.773 35.94 161.773 35.76 161.773 35.58ZM167.052 27.44L169.472 26.76V29.26H171.812V31.1H169.472V35.4C169.472 36.6 169.792 37.2 170.732 37.2C171.172 37.2 171.412 37.18 171.692 37.1L171.732 38.96C171.372 39.1 170.712 39.22 169.952 39.22C169.032 39.22 168.292 38.92 167.832 38.42C167.292 37.86 167.052 36.96 167.052 35.68V31.1H165.672V29.26H167.052V27.44ZM176.124 39H173.664V29.26H176.124V39ZM174.904 25.2C175.744 25.2 176.264 25.78 176.284 26.54C176.284 27.26 175.744 27.86 174.884 27.86C174.064 27.86 173.524 27.26 173.524 26.54C173.524 25.78 174.084 25.2 174.904 25.2ZM183.201 29.04C186.101 29.04 188.041 31.08 188.041 34.04C188.041 37.62 185.521 39.22 183.041 39.22C180.301 39.22 178.161 37.34 178.161 34.2C178.161 31 180.261 29.04 183.201 29.04ZM183.141 30.82C181.401 30.82 180.701 32.52 180.701 34.14C180.701 36.02 181.641 37.44 183.121 37.44C184.521 37.44 185.501 36.08 185.501 34.1C185.501 32.58 184.821 30.82 183.141 30.82ZM190.07 39V32.16C190.07 31.04 190.03 30.1 189.99 29.26H192.13L192.25 30.72H192.31C192.75 29.96 193.81 29.04 195.43 29.04C197.13 29.04 198.89 30.14 198.89 33.22V39H196.43V33.5C196.43 32.1 195.91 31.04 194.57 31.04C193.59 31.04 192.91 31.74 192.65 32.48C192.57 32.68 192.53 32.98 192.53 33.26V39H190.07ZM209.075 33.16V36.66C209.075 37.54 209.115 38.4 209.235 39H207.015L206.835 37.92H206.775C206.195 38.68 205.175 39.22 203.895 39.22C201.935 39.22 200.835 37.8 200.835 36.32C200.835 33.88 203.015 32.62 206.615 32.64V32.48C206.615 31.84 206.355 30.78 204.635 30.78C203.675 30.78 202.675 31.08 202.015 31.5L201.535 29.9C202.255 29.46 203.515 29.04 205.055 29.04C208.175 29.04 209.075 31.02 209.075 33.16ZM206.675 35.58V34.24C204.935 34.22 203.275 34.58 203.275 36.06C203.275 37.02 203.895 37.46 204.675 37.46C205.675 37.46 206.375 36.82 206.615 36.12C206.675 35.94 206.675 35.76 206.675 35.58ZM211.672 39V24.8H214.132V39H211.672ZM230.309 36.68L230.709 38.62C230.129 38.9 228.849 39.22 227.209 39.22C222.929 39.22 220.329 36.54 220.329 32.42C220.329 27.98 223.429 25.3 227.549 25.3C229.169 25.3 230.309 25.64 230.809 25.9L230.289 27.86C229.649 27.58 228.749 27.34 227.649 27.34C224.909 27.34 222.929 29.06 222.929 32.3C222.929 35.28 224.649 37.16 227.629 37.16C228.609 37.16 229.649 36.96 230.309 36.68ZM240.654 34.82H234.134C234.194 36.58 235.554 37.34 237.134 37.34C238.274 37.34 239.074 37.16 239.834 36.9L240.194 38.58C239.354 38.94 238.194 39.2 236.794 39.2C233.634 39.2 231.774 37.26 231.774 34.28C231.774 31.58 233.414 29.04 236.534 29.04C239.694 29.04 240.734 31.64 240.734 33.78C240.734 34.24 240.694 34.6 240.654 34.82ZM234.134 33.1H238.414C238.434 32.2 238.034 30.72 236.394 30.72C234.874 30.72 234.234 32.1 234.134 33.1ZM242.707 39V32.4C242.707 31.08 242.687 30.12 242.627 29.26H244.747L244.847 31.1H244.907C245.387 29.74 246.527 29.04 247.587 29.04C247.827 29.04 247.967 29.06 248.167 29.1V31.4C247.947 31.36 247.727 31.34 247.427 31.34C246.267 31.34 245.447 32.08 245.227 33.2C245.187 33.42 245.167 33.68 245.167 33.94V39H242.707ZM250.704 27.44L253.124 26.76V29.26H255.464V31.1H253.124V35.4C253.124 36.6 253.444 37.2 254.384 37.2C254.824 37.2 255.064 37.18 255.344 37.1L255.384 38.96C255.024 39.1 254.364 39.22 253.604 39.22C252.684 39.22 251.944 38.92 251.484 38.42C250.944 37.86 250.704 36.96 250.704 35.68V31.1H249.324V29.26H250.704V27.44ZM259.776 39H257.316V29.26H259.776V39ZM258.556 25.2C259.396 25.2 259.916 25.78 259.936 26.54C259.936 27.26 259.396 27.86 258.536 27.86C257.716 27.86 257.176 27.26 257.176 26.54C257.176 25.78 257.736 25.2 258.556 25.2ZM265.173 39H262.713V31.1H261.393V29.26H262.713V28.84C262.713 27.58 263.053 26.32 263.893 25.52C264.613 24.84 265.573 24.58 266.433 24.58C267.093 24.58 267.613 24.7 267.993 24.82L267.833 26.72C267.553 26.62 267.233 26.54 266.773 26.54C265.553 26.54 265.153 27.56 265.153 28.76V29.26H267.273V31.1H265.173V39ZM271.28 39H268.82V29.26H271.28V39ZM270.06 25.2C270.9 25.2 271.42 25.78 271.44 26.54C271.44 27.26 270.9 27.86 270.04 27.86C269.22 27.86 268.68 27.26 268.68 26.54C268.68 25.78 269.24 25.2 270.06 25.2ZM280.757 36.88L281.097 38.7C280.577 38.94 279.557 39.2 278.337 39.2C275.297 39.2 273.317 37.24 273.317 34.22C273.317 31.3 275.317 29.04 278.737 29.04C279.637 29.04 280.557 29.24 281.117 29.48L280.677 31.34C280.277 31.14 279.697 30.96 278.817 30.96C276.937 30.96 275.817 32.34 275.837 34.12C275.837 36.12 277.137 37.26 278.817 37.26C279.657 37.26 280.277 37.08 280.757 36.88ZM290.482 33.16V36.66C290.482 37.54 290.522 38.4 290.642 39H288.422L288.242 37.92H288.182C287.602 38.68 286.582 39.22 285.302 39.22C283.342 39.22 282.242 37.8 282.242 36.32C282.242 33.88 284.422 32.62 288.022 32.64V32.48C288.022 31.84 287.762 30.78 286.042 30.78C285.082 30.78 284.082 31.08 283.422 31.5L282.942 29.9C283.662 29.46 284.922 29.04 286.462 29.04C289.582 29.04 290.482 31.02 290.482 33.16ZM288.082 35.58V34.24C286.342 34.22 284.682 34.58 284.682 36.06C284.682 37.02 285.302 37.46 286.082 37.46C287.082 37.46 287.782 36.82 288.022 36.12C288.082 35.94 288.082 35.76 288.082 35.58ZM293.361 27.44L295.781 26.76V29.26H298.121V31.1H295.781V35.4C295.781 36.6 296.101 37.2 297.041 37.2C297.481 37.2 297.721 37.18 298.001 37.1L298.041 38.96C297.681 39.1 297.021 39.22 296.261 39.22C295.341 39.22 294.601 38.92 294.141 38.42C293.601 37.86 293.361 36.96 293.361 35.68V31.1H291.981V29.26H293.361V27.44ZM308.115 34.82H301.595C301.655 36.58 303.015 37.34 304.595 37.34C305.735 37.34 306.535 37.16 307.295 36.9L307.655 38.58C306.815 38.94 305.655 39.2 304.255 39.2C301.095 39.2 299.235 37.26 299.235 34.28C299.235 31.58 300.875 29.04 303.995 29.04C307.155 29.04 308.195 31.64 308.195 33.78C308.195 34.24 308.155 34.6 308.115 34.82ZM301.595 33.1H305.875C305.895 32.2 305.495 30.72 303.855 30.72C302.335 30.72 301.695 32.1 301.595 33.1ZM309.568 38.52L310.068 36.72C310.608 37.06 311.668 37.44 312.548 37.44C313.628 37.44 314.108 36.98 314.108 36.34C314.108 35.68 313.708 35.36 312.508 34.92C310.608 34.28 309.828 33.24 309.828 32.08C309.828 30.36 311.248 29.04 313.508 29.04C314.588 29.04 315.528 29.3 316.108 29.62L315.608 31.34C315.208 31.1 314.408 30.78 313.548 30.78C312.668 30.78 312.188 31.22 312.188 31.82C312.188 32.44 312.648 32.72 313.888 33.18C315.668 33.8 316.468 34.7 316.488 36.14C316.488 37.92 315.108 39.2 312.528 39.2C311.348 39.2 310.288 38.92 309.568 38.52ZM80.74 51.04C83.64 51.04 85.58 53.08 85.58 56.04C85.58 59.62 83.06 61.22 80.58 61.22C77.84 61.22 75.7 59.34 75.7 56.2C75.7 53 77.8 51.04 80.74 51.04ZM80.68 52.82C78.94 52.82 78.24 54.52 78.24 56.14C78.24 58.02 79.18 59.44 80.66 59.44C82.06 59.44 83.04 58.08 83.04 56.1C83.04 54.58 82.36 52.82 80.68 52.82ZM90.3491 61H87.8891V53.1H86.5691V51.26H87.8891V50.84C87.8891 49.58 88.2291 48.32 89.0691 47.52C89.7891 46.84 90.7491 46.58 91.6091 46.58C92.2691 46.58 92.7891 46.7 93.1691 46.82L93.0091 48.72C92.7291 48.62 92.4091 48.54 91.9491 48.54C90.7291 48.54 90.3291 49.56 90.3291 50.76V51.26H92.4491V53.1H90.3491V61ZM98.2364 61V47.52H100.696V58.94H106.236V61H98.2364ZM115.56 55.16V58.66C115.56 59.54 115.6 60.4 115.72 61H113.5L113.32 59.92H113.26C112.68 60.68 111.66 61.22 110.38 61.22C108.42 61.22 107.32 59.8 107.32 58.32C107.32 55.88 109.5 54.62 113.1 54.64V54.48C113.1 53.84 112.84 52.78 111.12 52.78C110.16 52.78 109.16 53.08 108.5 53.5L108.02 51.9C108.74 51.46 110 51.04 111.54 51.04C114.66 51.04 115.56 53.02 115.56 55.16ZM113.16 57.58V56.24C111.42 56.22 109.76 56.58 109.76 58.06C109.76 59.02 110.38 59.46 111.16 59.46C112.16 59.46 112.86 58.82 113.1 58.12C113.16 57.94 113.16 57.76 113.16 57.58ZM118.156 61V54.16C118.156 53.04 118.116 52.1 118.076 51.26H120.216L120.336 52.72H120.396C120.836 51.96 121.896 51.04 123.516 51.04C125.216 51.04 126.976 52.14 126.976 55.22V61H124.516V55.5C124.516 54.1 123.996 53.04 122.656 53.04C121.676 53.04 120.996 53.74 120.736 54.48C120.656 54.68 120.616 54.98 120.616 55.26V61H118.156ZM138.421 54.06V59.58C138.421 61.62 138.001 63.08 136.981 64C135.981 64.9 134.561 65.18 133.221 65.18C131.981 65.18 130.661 64.9 129.821 64.4L130.361 62.54C130.981 62.9 132.021 63.28 133.201 63.28C134.801 63.28 136.001 62.44 136.001 60.34V59.5H135.961C135.401 60.36 134.421 60.94 133.121 60.94C130.701 60.94 128.981 58.94 128.981 56.18C128.981 52.98 131.061 51.04 133.401 51.04C134.901 51.04 135.761 51.76 136.221 52.56H136.261L136.361 51.26H138.501C138.461 51.92 138.421 52.72 138.421 54.06ZM135.961 56.74V55.16C135.961 54.92 135.941 54.7 135.881 54.5C135.621 53.6 134.921 52.92 133.881 52.92C132.501 52.92 131.481 54.12 131.481 56.1C131.481 57.76 132.321 59.1 133.861 59.1C134.781 59.1 135.581 58.5 135.861 57.6C135.941 57.36 135.961 57.02 135.961 56.74ZM149.786 51.26V58.08C149.786 59.24 149.826 60.2 149.866 61H147.726L147.606 59.54H147.546C147.126 60.22 146.166 61.22 144.406 61.22C142.646 61.22 141.026 60.16 141.026 56.98V51.26H143.486V56.56C143.486 58.18 144.006 59.22 145.306 59.22C146.306 59.22 146.946 58.54 147.186 57.9C147.286 57.7 147.326 57.42 147.326 57.14V51.26H149.786ZM160.013 55.16V58.66C160.013 59.54 160.053 60.4 160.173 61H157.953L157.773 59.92H157.713C157.133 60.68 156.113 61.22 154.833 61.22C152.873 61.22 151.773 59.8 151.773 58.32C151.773 55.88 153.953 54.62 157.553 54.64V54.48C157.553 53.84 157.293 52.78 155.573 52.78C154.613 52.78 153.613 53.08 152.953 53.5L152.473 51.9C153.193 51.46 154.453 51.04 155.993 51.04C159.113 51.04 160.013 53.02 160.013 55.16ZM157.613 57.58V56.24C155.873 56.22 154.213 56.58 154.213 58.06C154.213 59.02 154.833 59.46 155.613 59.46C156.613 59.46 157.313 58.82 157.553 58.12C157.613 57.94 157.613 57.76 157.613 57.58ZM171.429 54.06V59.58C171.429 61.62 171.009 63.08 169.989 64C168.989 64.9 167.569 65.18 166.229 65.18C164.989 65.18 163.669 64.9 162.829 64.4L163.369 62.54C163.989 62.9 165.029 63.28 166.209 63.28C167.809 63.28 169.009 62.44 169.009 60.34V59.5H168.969C168.409 60.36 167.429 60.94 166.129 60.94C163.709 60.94 161.989 58.94 161.989 56.18C161.989 52.98 164.069 51.04 166.409 51.04C167.909 51.04 168.769 51.76 169.229 52.56H169.269L169.369 51.26H171.509C171.469 51.92 171.429 52.72 171.429 54.06ZM168.969 56.74V55.16C168.969 54.92 168.949 54.7 168.889 54.5C168.629 53.6 167.929 52.92 166.889 52.92C165.509 52.92 164.489 54.12 164.489 56.1C164.489 57.76 165.329 59.1 166.869 59.1C167.789 59.1 168.589 58.5 168.869 57.6C168.949 57.36 168.969 57.02 168.969 56.74ZM182.334 56.82H175.814C175.874 58.58 177.234 59.34 178.814 59.34C179.954 59.34 180.754 59.16 181.514 58.9L181.874 60.58C181.034 60.94 179.874 61.2 178.474 61.2C175.314 61.2 173.454 59.26 173.454 56.28C173.454 53.58 175.094 51.04 178.214 51.04C181.374 51.04 182.414 53.64 182.414 55.78C182.414 56.24 182.374 56.6 182.334 56.82ZM175.814 55.1H180.094C180.114 54.2 179.714 52.72 178.074 52.72C176.554 52.72 175.914 54.1 175.814 55.1ZM188.627 61V47.7C189.527 47.54 190.747 47.42 192.387 47.42C194.187 47.42 195.487 47.8 196.347 48.52C197.147 49.18 197.667 50.24 197.667 51.5C197.667 52.78 197.267 53.82 196.527 54.54C195.527 55.52 194.007 56 192.267 56C191.807 56 191.407 55.98 191.067 55.9V61H188.627ZM191.067 49.44V53.96C191.387 54.06 191.767 54.08 192.267 54.08C194.107 54.08 195.227 53.16 195.227 51.6C195.227 50.1 194.187 49.32 192.487 49.32C191.807 49.32 191.327 49.38 191.067 49.44ZM199.465 61V54.4C199.465 53.08 199.445 52.12 199.385 51.26H201.505L201.605 53.1H201.665C202.145 51.74 203.285 51.04 204.345 51.04C204.585 51.04 204.725 51.06 204.925 51.1V53.4C204.705 53.36 204.485 53.34 204.185 53.34C203.025 53.34 202.205 54.08 201.985 55.2C201.945 55.42 201.925 55.68 201.925 55.94V61H199.465ZM210.838 51.04C213.738 51.04 215.678 53.08 215.678 56.04C215.678 59.62 213.158 61.22 210.678 61.22C207.938 61.22 205.798 59.34 205.798 56.2C205.798 53 207.898 51.04 210.838 51.04ZM210.778 52.82C209.038 52.82 208.338 54.52 208.338 56.14C208.338 58.02 209.278 59.44 210.758 59.44C212.158 59.44 213.138 58.08 213.138 56.1C213.138 54.58 212.458 52.82 210.778 52.82ZM220.447 61H217.987V53.1H216.667V51.26H217.987V50.84C217.987 49.58 218.327 48.32 219.167 47.52C219.887 46.84 220.847 46.58 221.707 46.58C222.367 46.58 222.887 46.7 223.267 46.82L223.107 48.72C222.827 48.62 222.507 48.54 222.047 48.54C220.827 48.54 220.427 49.56 220.427 50.76V51.26H222.547V53.1H220.447V61ZM226.553 61H224.093V51.26H226.553V61ZM225.333 47.2C226.173 47.2 226.693 47.78 226.713 48.54C226.713 49.26 226.173 49.86 225.313 49.86C224.493 49.86 223.953 49.26 223.953 48.54C223.953 47.78 224.513 47.2 225.333 47.2ZM236.031 58.88L236.371 60.7C235.851 60.94 234.831 61.2 233.611 61.2C230.571 61.2 228.591 59.24 228.591 56.22C228.591 53.3 230.591 51.04 234.011 51.04C234.911 51.04 235.831 51.24 236.391 51.48L235.951 53.34C235.551 53.14 234.971 52.96 234.091 52.96C232.211 52.96 231.091 54.34 231.111 56.12C231.111 58.12 232.411 59.26 234.091 59.26C234.931 59.26 235.551 59.08 236.031 58.88ZM240.655 61H238.195V51.26H240.655V61ZM239.435 47.2C240.275 47.2 240.795 47.78 240.815 48.54C240.815 49.26 240.275 49.86 239.415 49.86C238.595 49.86 238.055 49.26 238.055 48.54C238.055 47.78 238.615 47.2 239.435 47.2ZM251.572 56.82H245.052C245.112 58.58 246.472 59.34 248.052 59.34C249.192 59.34 249.992 59.16 250.752 58.9L251.112 60.58C250.272 60.94 249.112 61.2 247.712 61.2C244.552 61.2 242.692 59.26 242.692 56.28C242.692 53.58 244.332 51.04 247.452 51.04C250.612 51.04 251.652 53.64 251.652 55.78C251.652 56.24 251.612 56.6 251.572 56.82ZM245.052 55.1H249.332C249.352 54.2 248.952 52.72 247.312 52.72C245.792 52.72 245.152 54.1 245.052 55.1ZM253.625 61V54.16C253.625 53.04 253.585 52.1 253.545 51.26H255.685L255.805 52.72H255.865C256.305 51.96 257.365 51.04 258.985 51.04C260.685 51.04 262.445 52.14 262.445 55.22V61H259.985V55.5C259.985 54.1 259.465 53.04 258.125 53.04C257.145 53.04 256.465 53.74 256.205 54.48C256.125 54.68 256.085 54.98 256.085 55.26V61H253.625ZM271.89 58.88L272.23 60.7C271.71 60.94 270.69 61.2 269.47 61.2C266.43 61.2 264.45 59.24 264.45 56.22C264.45 53.3 266.45 51.04 269.87 51.04C270.77 51.04 271.69 51.24 272.25 51.48L271.81 53.34C271.41 53.14 270.83 52.96 269.95 52.96C268.07 52.96 266.95 54.34 266.97 56.12C266.97 58.12 268.27 59.26 269.95 59.26C270.79 59.26 271.41 59.08 271.89 58.88ZM273.207 51.26H275.927L277.667 56.48C277.867 57.08 278.087 57.82 278.227 58.36H278.287C278.427 57.82 278.607 57.08 278.807 56.46L280.327 51.26H282.947L280.507 57.9C279.167 61.54 278.267 63.16 277.127 64.16C276.147 65 275.147 65.32 274.547 65.4L273.987 63.34C274.407 63.24 274.907 63.02 275.407 62.66C275.887 62.36 276.427 61.78 276.767 61.12C276.867 60.94 276.907 60.8 276.907 60.68C276.907 60.58 276.887 60.44 276.787 60.2L273.207 51.26Z" fill="black"/>
</svg>
