<?xml version="1.0" encoding="UTF-8" standalone="no"?>
<!DOCTYPE svg PUBLIC "-//W3C//DTD SVG 1.1//EN"
 "http://www.w3.org/Graphics/SVG/1.1/DTD/svg11.dtd">
<!-- Generated by graphviz version 2.40.1 (20161225.0304)
 -->
<!-- Title: oneDegreeRelationshipsDiagramImplied Pages: 1 -->
<svg width="548pt" height="253pt"
 viewBox="0.00 0.00 548.00 252.70" xmlns="http://www.w3.org/2000/svg" xmlns:xlink="http://www.w3.org/1999/xlink">
<g id="graph0" class="graph" transform="scale(1 1) rotate(0) translate(4 248.7)">
<title>oneDegreeRelationshipsDiagramImplied</title>
<polygon fill="#ffffff" stroke="transparent" points="-4,4 -4,-248.7 544,-248.7 544,4 -4,4"/>
<text text-anchor="middle" x="72.4936" y="-7.3" font-family="Helvetica,sans-Serif" font-size="11.00" fill="#000000">Generated by SchemaSpy</text>
<!-- casserviceticket -->
<g id="node1" class="node">
<title>casserviceticket</title>
<g id="a_node1"><a xlink:href="../../tables/casserviceticket.html" xlink:title="casserviceticket" target="_top">
<polygon fill="#ffffff" stroke="transparent" points="229,-40.7 229,-240.7 532,-240.7 532,-40.7 229,-40.7"/>
<polygon fill="#f5f5f5" stroke="transparent" points="231.5,-215.7 231.5,-238.7 530.5,-238.7 530.5,-215.7 231.5,-215.7"/>
<polygon fill="none" stroke="#000000" points="231.5,-215.7 231.5,-238.7 530.5,-238.7 530.5,-215.7 231.5,-215.7"/>
<text text-anchor="start" x="236.5" y="-224.3" font-family="Helvetica,sans-Serif" font-weight="bold" font-size="11.00" fill="#000000">casserviceticket</text>
<text text-anchor="start" x="495.5437" y="-223.8" font-family="Helvetica,sans-Serif" font-size="11.00" fill="#000000">[table]</text>
<polygon fill="none" stroke="#000000" points="231.5,-193.7 231.5,-215.7 431.5,-215.7 431.5,-193.7 231.5,-193.7"/>
<image xlink:href="../../images/primaryKeys.png" width="11px" height="12px" preserveAspectRatio="xMinYMin meet" x="236.5" y="-210.7"/>
<text text-anchor="start" x="251.5" y="-200.8" font-family="Helvetica,sans-Serif" font-size="11.00" fill="#000000">serviceticket</text>
<polygon fill="none" stroke="#000000" points="431.5,-193.7 431.5,-215.7 530.5,-215.7 530.5,-193.7 431.5,-193.7"/>
<text text-anchor="start" x="434.5" y="-201.4" font-family="Helvetica,sans-Serif" font-size="11.00" fill="#000000">text[2147483647]</text>
<polygon fill="none" stroke="#000000" points="231.5,-171.7 231.5,-193.7 431.5,-193.7 431.5,-171.7 231.5,-171.7"/>
<image xlink:href="../../images/foreignKeys.png" width="11px" height="12px" preserveAspectRatio="xMinYMin meet" x="236.5" y="-188.7"/>
<text text-anchor="start" x="251.5" y="-178.8" font-family="Helvetica,sans-Serif" font-size="11.00" fill="#000000">username</text>
<polygon fill="none" stroke="#000000" points="431.5,-171.7 431.5,-193.7 530.5,-193.7 530.5,-171.7 431.5,-171.7"/>
<text text-anchor="start" x="434.5" y="-179.4" font-family="Helvetica,sans-Serif" font-size="11.00" fill="#000000">text[2147483647]</text>
<polygon fill="none" stroke="#000000" points="231.5,-149.7 231.5,-171.7 431.5,-171.7 431.5,-149.7 231.5,-149.7"/>
<text text-anchor="start" x="251.5" y="-156.8" font-family="Helvetica,sans-Serif" font-size="11.00" fill="#000000">useroid</text>
<polygon fill="none" stroke="#000000" points="431.5,-149.7 431.5,-171.7 530.5,-171.7 530.5,-149.7 431.5,-149.7"/>
<text text-anchor="start" x="434.5" y="-157.4" font-family="Helvetica,sans-Serif" font-size="11.00" fill="#000000">text[2147483647]</text>
<polygon fill="none" stroke="#000000" points="231.5,-127.7 231.5,-149.7 431.5,-149.7 431.5,-127.7 231.5,-127.7"/>
<text text-anchor="start" x="251.5" y="-134.8" font-family="Helvetica,sans-Serif" font-size="11.00" fill="#000000">started</text>
<polygon fill="none" stroke="#000000" points="431.5,-127.7 431.5,-149.7 530.5,-149.7 530.5,-127.7 431.5,-127.7"/>
<text text-anchor="start" x="434.5" y="-135.4" font-family="Helvetica,sans-Serif" font-size="11.00" fill="#000000">timestamp[29,6]</text>
<polygon fill="none" stroke="#000000" points="231.5,-105.7 231.5,-127.7 431.5,-127.7 431.5,-105.7 231.5,-105.7"/>
<text text-anchor="start" x="251.5" y="-112.8" font-family="Helvetica,sans-Serif" font-size="11.00" fill="#000000">updated</text>
<polygon fill="none" stroke="#000000" points="431.5,-105.7 431.5,-127.7 530.5,-127.7 530.5,-105.7 431.5,-105.7"/>
<text text-anchor="start" x="434.5" y="-113.4" font-family="Helvetica,sans-Serif" font-size="11.00" fill="#000000">timestamp[29,6]</text>
<polygon fill="none" stroke="#000000" points="231.5,-83.7 231.5,-105.7 431.5,-105.7 431.5,-83.7 231.5,-83.7"/>
<image xlink:href="../../images/foreignKeys.png" width="11px" height="12px" preserveAspectRatio="xMinYMin meet" x="236.5" y="-100.7"/>
<text text-anchor="start" x="251.5" y="-90.8" font-family="Helvetica,sans-Serif" font-size="11.00" fill="#000000">name</text>
<polygon fill="none" stroke="#000000" points="431.5,-83.7 431.5,-105.7 530.5,-105.7 530.5,-83.7 431.5,-83.7"/>
<text text-anchor="start" x="434.5" y="-91.4" font-family="Helvetica,sans-Serif" font-size="11.00" fill="#000000">text[2147483647]</text>
<polygon fill="none" stroke="#000000" points="231.5,-61.7 231.5,-83.7 431.5,-83.7 431.5,-61.7 231.5,-61.7"/>
<text text-anchor="start" x="251.5" y="-68.8" font-family="Helvetica,sans-Serif" font-size="11.00" fill="#000000">huollettavat_search_result</text>
<polygon fill="none" stroke="#000000" points="431.5,-61.7 431.5,-83.7 530.5,-83.7 530.5,-61.7 431.5,-61.7"/>
<text text-anchor="start" x="434.2258" y="-69.4" font-family="Helvetica,sans-Serif" font-size="11.00" fill="#000000">jsonb[2147483647]</text>
<polygon fill="#ffffff" stroke="transparent" points="231.5,-42.7 231.5,-61.7 319.5,-61.7 319.5,-42.7 231.5,-42.7"/>
<polygon fill="none" stroke="#000000" points="231.5,-42.7 231.5,-61.7 319.5,-61.7 319.5,-42.7 231.5,-42.7"/>
<text text-anchor="start" x="234.5" y="-48.8" font-family="Helvetica,sans-Serif" font-size="11.00" fill="#000000">&lt; 2</text>
<polygon fill="#ffffff" stroke="transparent" points="319.5,-42.7 319.5,-61.7 431.5,-61.7 431.5,-42.7 319.5,-42.7"/>
<polygon fill="none" stroke="#000000" points="319.5,-42.7 319.5,-61.7 431.5,-61.7 431.5,-42.7 319.5,-42.7"/>
<text text-anchor="start" x="389.9956" y="-48.8" font-family="Helvetica,sans-Serif" font-size="11.00" fill="#000000">64 rows</text>
<polygon fill="#ffffff" stroke="transparent" points="431.5,-42.7 431.5,-61.7 530.5,-61.7 530.5,-42.7 431.5,-42.7"/>
<polygon fill="none" stroke="#000000" points="431.5,-42.7 431.5,-61.7 530.5,-61.7 530.5,-42.7 431.5,-42.7"/>
<text text-anchor="start" x="511.9053" y="-48.8" font-family="Helvetica,sans-Serif" font-size="11.00" fill="#000000">0 &gt;</text>
<polygon fill="none" stroke="#000000" stroke-width="2" points="230,-41.7 230,-239.7 531,-239.7 531,-41.7 230,-41.7"/>
</a>
</g>
</g>
<!-- scheduler -->
<g id="node2" class="node">
<title>scheduler</title>
<g id="a_node2"><a xlink:href="../../tables/scheduler.html" xlink:title="scheduler" target="_top">
<polygon fill="#ffffff" stroke="transparent" points="41.5,-38.2 41.5,-121.2 146.5,-121.2 146.5,-38.2 41.5,-38.2"/>
<polygon fill="#f5f5f5" stroke="transparent" points="42,-97.7 42,-120.7 147,-120.7 147,-97.7 42,-97.7"/>
<polygon fill="none" stroke="#000000" points="42,-97.7 42,-120.7 147,-120.7 147,-97.7 42,-97.7"/>
<text text-anchor="start" x="47" y="-106.3" font-family="Helvetica,sans-Serif" font-weight="bold" font-size="11.00" fill="#000000">scheduler</text>
<text text-anchor="start" x="112.5219" y="-105.8" font-family="Helvetica,sans-Serif" font-size="11.00" fill="#000000">[table]</text>
<polygon fill="none" stroke="#000000" points="42,-75.7 42,-97.7 147,-97.7 147,-75.7 42,-75.7"/>
<image xlink:href="../../images/primaryKeys.png" width="11px" height="12px" preserveAspectRatio="xMinYMin meet" x="47" y="-92.7"/>
<text text-anchor="start" x="62" y="-82.8" font-family="Helvetica,sans-Serif" font-size="11.00" fill="#000000">name</text>
<polygon fill="none" stroke="#000000" points="42,-56.7 42,-75.7 147,-75.7 147,-56.7 42,-56.7"/>
<text text-anchor="start" x="45" y="-62.8" font-family="Helvetica,sans-Serif" font-size="11.00" fill="#000000">...</text>
<polygon fill="#ffffff" stroke="transparent" points="42,-37.7 42,-56.7 71,-56.7 71,-37.7 42,-37.7"/>
<polygon fill="none" stroke="#000000" points="42,-37.7 42,-56.7 71,-56.7 71,-37.7 42,-37.7"/>
<text text-anchor="start" x="45" y="-43.8" font-family="Helvetica,sans-Serif" font-size="11.00" fill="#000000"> &#160;</text>
<polygon fill="#ffffff" stroke="transparent" points="71,-37.7 71,-56.7 117,-56.7 117,-37.7 71,-37.7"/>
<polygon fill="none" stroke="#000000" points="71,-37.7 71,-56.7 117,-56.7 117,-37.7 71,-37.7"/>
<text text-anchor="start" x="81.6105" y="-43.8" font-family="Helvetica,sans-Serif" font-size="11.00" fill="#000000">6 rows</text>
<polygon fill="#ffffff" stroke="transparent" points="117,-37.7 117,-56.7 147,-56.7 147,-37.7 117,-37.7"/>
<polygon fill="none" stroke="#000000" points="117,-37.7 117,-56.7 147,-56.7 147,-37.7 117,-37.7"/>
<text text-anchor="start" x="128.4053" y="-43.8" font-family="Helvetica,sans-Serif" font-size="11.00" fill="#000000">1 &gt;</text>
</a>
</g>
</g>
<!-- casserviceticket&#45;&gt;scheduler -->
<g id="edge1" class="edge">
<title>casserviceticket:w&#45;&gt;scheduler:e</title>
<path fill="none" stroke="#000000" stroke-dasharray="5,2" d="M216.7669,-94.247C190.5607,-92.5546 179.2713,-86.7 147,-86.7"/>
<polygon fill="#000000" stroke="#000000" points="223.5038,-94.4541 231.3893,-98.2983 227.5019,-94.577 231.5,-94.7 231.5,-94.7 231.5,-94.7 227.5019,-94.577 231.6107,-91.1017 223.5038,-94.4541 223.5038,-94.4541"/>
<ellipse fill="none" stroke="#000000" cx="220.3053" cy="-94.3557" rx="3.2" ry="3.2"/>
</g>
<!-- oppilaitos_ip_osoite -->
<g id="node3" class="node">
<title>oppilaitos_ip_osoite</title>
<g id="a_node3"><a xlink:href="../../tables/oppilaitos_ip_osoite.html" xlink:title="oppilaitos_ip_osoite" target="_top">
<polygon fill="#ffffff" stroke="transparent" points="8,-142.2 8,-225.2 180,-225.2 180,-142.2 8,-142.2"/>
<polygon fill="#f5f5f5" stroke="transparent" points="8,-201.7 8,-224.7 180,-224.7 180,-201.7 8,-201.7"/>
<polygon fill="none" stroke="#000000" points="8,-201.7 8,-224.7 180,-224.7 180,-201.7 8,-201.7"/>
<text text-anchor="start" x="13" y="-210.3" font-family="Helvetica,sans-Serif" font-weight="bold" font-size="11.00" fill="#000000">oppilaitos_ip_osoite</text>
<text text-anchor="start" x="145.5219" y="-209.8" font-family="Helvetica,sans-Serif" font-size="11.00" fill="#000000">[table]</text>
<polygon fill="none" stroke="#000000" points="8,-179.7 8,-201.7 180,-201.7 180,-179.7 8,-179.7"/>
<image xlink:href="../../images/primaryKeys.png" width="11px" height="12px" preserveAspectRatio="xMinYMin meet" x="13" y="-196.7"/>
<text text-anchor="start" x="37" y="-186.8" font-family="Helvetica,sans-Serif" font-size="11.00" fill="#000000">username</text>
<polygon fill="none" stroke="#000000" points="8,-160.7 8,-179.7 180,-179.7 180,-160.7 8,-160.7"/>
<text text-anchor="start" x="11" y="-166.8" font-family="Helvetica,sans-Serif" font-size="11.00" fill="#000000">...</text>
<polygon fill="#ffffff" stroke="transparent" points="8,-141.7 8,-160.7 83,-160.7 83,-141.7 8,-141.7"/>
<polygon fill="none" stroke="#000000" points="8,-141.7 8,-160.7 83,-160.7 83,-141.7 8,-141.7"/>
<text text-anchor="start" x="11" y="-147.8" font-family="Helvetica,sans-Serif" font-size="11.00" fill="#000000"> &#160;</text>
<polygon fill="#ffffff" stroke="transparent" points="83,-141.7 83,-160.7 127,-160.7 127,-141.7 83,-141.7"/>
<polygon fill="none" stroke="#000000" points="83,-141.7 83,-160.7 127,-160.7 127,-141.7 83,-141.7"/>
<text text-anchor="start" x="117.8862" y="-147.8" font-family="Helvetica,sans-Serif" font-size="11.00" fill="#000000"> &#160;</text>
<polygon fill="#ffffff" stroke="transparent" points="127,-141.7 127,-160.7 180,-160.7 180,-141.7 127,-141.7"/>
<polygon fill="none" stroke="#000000" points="127,-141.7 127,-160.7 180,-160.7 180,-141.7 127,-141.7"/>
<text text-anchor="start" x="161.4053" y="-147.8" font-family="Helvetica,sans-Serif" font-size="11.00" fill="#000000">1 &gt;</text>
</a>
</g>
</g>
<!-- casserviceticket&#45;&gt;oppilaitos_ip_osoite -->
<g id="edge2" class="edge">
<title>casserviceticket:w&#45;&gt;oppilaitos_ip_osoite:e</title>
<path fill="none" stroke="#000000" stroke-dasharray="5,2" d="M216.9384,-183.95C204.6256,-186.2 197.3726,-190.7 180,-190.7"/>
<polygon fill="#000000" stroke="#000000" points="223.5293,-183.3843 231.8079,-186.2868 227.5147,-183.0421 231.5,-182.7 231.5,-182.7 231.5,-182.7 227.5147,-183.0421 231.1921,-179.1132 223.5293,-183.3843 223.5293,-183.3843"/>
<ellipse fill="none" stroke="#000000" cx="220.341" cy="-183.658" rx="3.2" ry="3.2"/>
</g>
</g>
</svg>
