<?xml version="1.0" encoding="UTF-8" standalone="no"?>
<!DOCTYPE svg PUBLIC "-//W3C//DTD SVG 1.1//EN"
 "http://www.w3.org/Graphics/SVG/1.1/DTD/svg11.dtd">
<!-- Generated by graphviz version 2.40.1 (20161225.0304)
 -->
<!-- Title: oneDegreeRelationshipsDiagramImplied Pages: 1 -->
<svg width="504pt" height="253pt"
 viewBox="0.00 0.00 504.00 252.70" xmlns="http://www.w3.org/2000/svg" xmlns:xlink="http://www.w3.org/1999/xlink">
<g id="graph0" class="graph" transform="scale(1 1) rotate(0) translate(4 248.7)">
<title>oneDegreeRelationshipsDiagramImplied</title>
<polygon fill="#ffffff" stroke="transparent" points="-4,4 -4,-248.7 500,-248.7 500,4 -4,4"/>
<text text-anchor="middle" x="72.4936" y="-7.3" font-family="Helvetica,sans-Serif" font-size="11.00" fill="#000000">Generated by SchemaSpy</text>
<!-- casserviceticket -->
<g id="node1" class="node">
<title>casserviceticket</title>
<g id="a_node1"><a xlink:href="../../tables/casserviceticket.html" xlink:title="casserviceticket" target="_top">
<polygon fill="#ffffff" stroke="transparent" points="212,-40.7 212,-240.7 488,-240.7 488,-40.7 212,-40.7"/>
<polygon fill="#f5f5f5" stroke="transparent" points="214,-215.7 214,-238.7 486,-238.7 486,-215.7 214,-215.7"/>
<polygon fill="none" stroke="#000000" points="214,-215.7 214,-238.7 486,-238.7 486,-215.7 214,-215.7"/>
<text text-anchor="start" x="219" y="-224.3" font-family="Helvetica,sans-Serif" font-weight="bold" font-size="11.00" fill="#000000">casserviceticket</text>
<text text-anchor="start" x="451.0437" y="-223.8" font-family="Helvetica,sans-Serif" font-size="11.00" fill="#000000">[table]</text>
<polygon fill="none" stroke="#000000" points="214,-193.7 214,-215.7 387,-215.7 387,-193.7 214,-193.7"/>
<image xlink:href="../../images/primaryKeys.png" width="11px" height="12px" preserveAspectRatio="xMinYMin meet" x="219" y="-210.7"/>
<text text-anchor="start" x="234" y="-200.8" font-family="Helvetica,sans-Serif" font-size="11.00" fill="#000000">serviceticket</text>
<polygon fill="none" stroke="#000000" points="387,-193.7 387,-215.7 486,-215.7 486,-193.7 387,-193.7"/>
<text text-anchor="start" x="390" y="-201.4" font-family="Helvetica,sans-Serif" font-size="11.00" fill="#000000">text[2147483647]</text>
<polygon fill="none" stroke="#000000" points="214,-171.7 214,-193.7 387,-193.7 387,-171.7 214,-171.7"/>
<image xlink:href="../../images/foreignKeys.png" width="11px" height="12px" preserveAspectRatio="xMinYMin meet" x="219" y="-188.7"/>
<text text-anchor="start" x="234" y="-178.8" font-family="Helvetica,sans-Serif" font-size="11.00" fill="#000000">username</text>
<polygon fill="none" stroke="#000000" points="387,-171.7 387,-193.7 486,-193.7 486,-171.7 387,-171.7"/>
<text text-anchor="start" x="390" y="-179.4" font-family="Helvetica,sans-Serif" font-size="11.00" fill="#000000">text[2147483647]</text>
<polygon fill="none" stroke="#000000" points="214,-149.7 214,-171.7 387,-171.7 387,-149.7 214,-149.7"/>
<text text-anchor="start" x="234" y="-156.8" font-family="Helvetica,sans-Serif" font-size="11.00" fill="#000000">useroid</text>
<polygon fill="none" stroke="#000000" points="387,-149.7 387,-171.7 486,-171.7 486,-149.7 387,-149.7"/>
<text text-anchor="start" x="390" y="-157.4" font-family="Helvetica,sans-Serif" font-size="11.00" fill="#000000">text[2147483647]</text>
<polygon fill="none" stroke="#000000" points="214,-127.7 214,-149.7 387,-149.7 387,-127.7 214,-127.7"/>
<text text-anchor="start" x="234" y="-134.8" font-family="Helvetica,sans-Serif" font-size="11.00" fill="#000000">started</text>
<polygon fill="none" stroke="#000000" points="387,-127.7 387,-149.7 486,-149.7 486,-127.7 387,-127.7"/>
<text text-anchor="start" x="390" y="-135.4" font-family="Helvetica,sans-Serif" font-size="11.00" fill="#000000">timestamp[29,6]</text>
<polygon fill="none" stroke="#000000" points="214,-105.7 214,-127.7 387,-127.7 387,-105.7 214,-105.7"/>
<text text-anchor="start" x="234" y="-112.8" font-family="Helvetica,sans-Serif" font-size="11.00" fill="#000000">updated</text>
<polygon fill="none" stroke="#000000" points="387,-105.7 387,-127.7 486,-127.7 486,-105.7 387,-105.7"/>
<text text-anchor="start" x="390" y="-113.4" font-family="Helvetica,sans-Serif" font-size="11.00" fill="#000000">timestamp[29,6]</text>
<polygon fill="none" stroke="#000000" points="214,-83.7 214,-105.7 387,-105.7 387,-83.7 214,-83.7"/>
<image xlink:href="../../images/foreignKeys.png" width="11px" height="12px" preserveAspectRatio="xMinYMin meet" x="219" y="-100.7"/>
<text text-anchor="start" x="234" y="-90.8" font-family="Helvetica,sans-Serif" font-size="11.00" fill="#000000">name</text>
<polygon fill="none" stroke="#000000" points="387,-83.7 387,-105.7 486,-105.7 486,-83.7 387,-83.7"/>
<text text-anchor="start" x="390" y="-91.4" font-family="Helvetica,sans-Serif" font-size="11.00" fill="#000000">text[2147483647]</text>
<polygon fill="none" stroke="#000000" points="214,-61.7 214,-83.7 387,-83.7 387,-61.7 214,-61.7"/>
<text text-anchor="start" x="234" y="-68.8" font-family="Helvetica,sans-Serif" font-size="11.00" fill="#000000">huollettavat_search_result</text>
<polygon fill="none" stroke="#000000" points="387,-61.7 387,-83.7 486,-83.7 486,-61.7 387,-61.7"/>
<text text-anchor="start" x="389.7258" y="-69.4" font-family="Helvetica,sans-Serif" font-size="11.00" fill="#000000">jsonb[2147483647]</text>
<polygon fill="#ffffff" stroke="transparent" points="214,-42.7 214,-61.7 305,-61.7 305,-42.7 214,-42.7"/>
<polygon fill="none" stroke="#000000" points="214,-42.7 214,-61.7 305,-61.7 305,-42.7 214,-42.7"/>
<text text-anchor="start" x="217" y="-48.8" font-family="Helvetica,sans-Serif" font-size="11.00" fill="#000000">&lt; 2</text>
<polygon fill="#ffffff" stroke="transparent" points="305,-42.7 305,-61.7 387,-61.7 387,-42.7 305,-42.7"/>
<polygon fill="none" stroke="#000000" points="305,-42.7 305,-61.7 387,-61.7 387,-42.7 305,-42.7"/>
<text text-anchor="start" x="377.8862" y="-48.8" font-family="Helvetica,sans-Serif" font-size="11.00" fill="#000000"> &#160;</text>
<polygon fill="#ffffff" stroke="transparent" points="387,-42.7 387,-61.7 486,-61.7 486,-42.7 387,-42.7"/>
<polygon fill="none" stroke="#000000" points="387,-42.7 387,-61.7 486,-61.7 486,-42.7 387,-42.7"/>
<text text-anchor="start" x="467.4053" y="-48.8" font-family="Helvetica,sans-Serif" font-size="11.00" fill="#000000">0 &gt;</text>
<polygon fill="none" stroke="#000000" stroke-width="2" points="213,-41.7 213,-239.7 487,-239.7 487,-41.7 213,-41.7"/>
</a>
</g>
</g>
<!-- scheduler -->
<g id="node2" class="node">
<title>scheduler</title>
<g id="a_node2"><a xlink:href="../../tables/scheduler.html" xlink:title="scheduler" target="_top">
<polygon fill="#ffffff" stroke="transparent" points="38,-38.2 38,-121.2 133,-121.2 133,-38.2 38,-38.2"/>
<polygon fill="#f5f5f5" stroke="transparent" points="38.5,-97.7 38.5,-120.7 133.5,-120.7 133.5,-97.7 38.5,-97.7"/>
<polygon fill="none" stroke="#000000" points="38.5,-97.7 38.5,-120.7 133.5,-120.7 133.5,-97.7 38.5,-97.7"/>
<text text-anchor="start" x="43.5" y="-106.3" font-family="Helvetica,sans-Serif" font-weight="bold" font-size="11.00" fill="#000000">scheduler</text>
<text text-anchor="start" x="99.0219" y="-105.8" font-family="Helvetica,sans-Serif" font-size="11.00" fill="#000000">[table]</text>
<polygon fill="none" stroke="#000000" points="38.5,-75.7 38.5,-97.7 133.5,-97.7 133.5,-75.7 38.5,-75.7"/>
<image xlink:href="../../images/primaryKeys.png" width="11px" height="12px" preserveAspectRatio="xMinYMin meet" x="43.5" y="-92.7"/>
<text text-anchor="start" x="61.5" y="-82.8" font-family="Helvetica,sans-Serif" font-size="11.00" fill="#000000">name</text>
<polygon fill="none" stroke="#000000" points="38.5,-56.7 38.5,-75.7 133.5,-75.7 133.5,-56.7 38.5,-56.7"/>
<text text-anchor="start" x="41.5" y="-62.8" font-family="Helvetica,sans-Serif" font-size="11.00" fill="#000000">...</text>
<polygon fill="#ffffff" stroke="transparent" points="38.5,-37.7 38.5,-56.7 62.5,-56.7 62.5,-37.7 38.5,-37.7"/>
<polygon fill="none" stroke="#000000" points="38.5,-37.7 38.5,-56.7 62.5,-56.7 62.5,-37.7 38.5,-37.7"/>
<text text-anchor="start" x="41.5" y="-43.8" font-family="Helvetica,sans-Serif" font-size="11.00" fill="#000000"> &#160;</text>
<polygon fill="#ffffff" stroke="transparent" points="62.5,-37.7 62.5,-56.7 106.5,-56.7 106.5,-37.7 62.5,-37.7"/>
<polygon fill="none" stroke="#000000" points="62.5,-37.7 62.5,-56.7 106.5,-56.7 106.5,-37.7 62.5,-37.7"/>
<text text-anchor="start" x="71.1105" y="-43.8" font-family="Helvetica,sans-Serif" font-size="11.00" fill="#000000">7 rows</text>
<polygon fill="#ffffff" stroke="transparent" points="106.5,-37.7 106.5,-56.7 133.5,-56.7 133.5,-37.7 106.5,-37.7"/>
<polygon fill="none" stroke="#000000" points="106.5,-37.7 106.5,-56.7 133.5,-56.7 133.5,-37.7 106.5,-37.7"/>
<text text-anchor="start" x="114.9053" y="-43.8" font-family="Helvetica,sans-Serif" font-size="11.00" fill="#000000">1 &gt;</text>
</a>
</g>
</g>
<!-- casserviceticket&#45;&gt;scheduler -->
<g id="edge1" class="edge">
<title>casserviceticket:w&#45;&gt;scheduler:e</title>
<path fill="none" stroke="#000000" stroke-dasharray="5,2" d="M199.2795,-94.1996C174.7931,-92.4482 163.9766,-86.7 133.5,-86.7"/>
<polygon fill="#000000" stroke="#000000" points="206.0046,-94.4281 213.8777,-98.2979 210.0023,-94.5641 214,-94.7 214,-94.7 214,-94.7 210.0023,-94.5641 214.1223,-91.1021 206.0046,-94.4281 206.0046,-94.4281"/>
<ellipse fill="none" stroke="#000000" cx="202.8065" cy="-94.3194" rx="3.2" ry="3.2"/>
</g>
<!-- oppilaitos_ip_osoite -->
<g id="node3" class="node">
<title>oppilaitos_ip_osoite</title>
<g id="a_node3"><a xlink:href="../../tables/oppilaitos_ip_osoite.html" xlink:title="oppilaitos_ip_osoite" target="_top">
<polygon fill="#ffffff" stroke="transparent" points="8,-142.2 8,-225.2 163,-225.2 163,-142.2 8,-142.2"/>
<polygon fill="#f5f5f5" stroke="transparent" points="8.5,-201.7 8.5,-224.7 163.5,-224.7 163.5,-201.7 8.5,-201.7"/>
<polygon fill="none" stroke="#000000" points="8.5,-201.7 8.5,-224.7 163.5,-224.7 163.5,-201.7 8.5,-201.7"/>
<text text-anchor="start" x="13.5" y="-210.3" font-family="Helvetica,sans-Serif" font-weight="bold" font-size="11.00" fill="#000000">oppilaitos_ip_osoite</text>
<text text-anchor="start" x="129.0219" y="-209.8" font-family="Helvetica,sans-Serif" font-size="11.00" fill="#000000">[table]</text>
<polygon fill="none" stroke="#000000" points="8.5,-179.7 8.5,-201.7 163.5,-201.7 163.5,-179.7 8.5,-179.7"/>
<image xlink:href="../../images/primaryKeys.png" width="11px" height="12px" preserveAspectRatio="xMinYMin meet" x="13.5" y="-196.7"/>
<text text-anchor="start" x="37.5" y="-186.8" font-family="Helvetica,sans-Serif" font-size="11.00" fill="#000000">username</text>
<polygon fill="none" stroke="#000000" points="8.5,-160.7 8.5,-179.7 163.5,-179.7 163.5,-160.7 8.5,-160.7"/>
<text text-anchor="start" x="11.5" y="-166.8" font-family="Helvetica,sans-Serif" font-size="11.00" fill="#000000">...</text>
<polygon fill="#ffffff" stroke="transparent" points="8.5,-141.7 8.5,-160.7 75.5,-160.7 75.5,-141.7 8.5,-141.7"/>
<polygon fill="none" stroke="#000000" points="8.5,-141.7 8.5,-160.7 75.5,-160.7 75.5,-141.7 8.5,-141.7"/>
<text text-anchor="start" x="11.5" y="-147.8" font-family="Helvetica,sans-Serif" font-size="11.00" fill="#000000"> &#160;</text>
<polygon fill="#ffffff" stroke="transparent" points="75.5,-141.7 75.5,-160.7 114.5,-160.7 114.5,-141.7 75.5,-141.7"/>
<polygon fill="none" stroke="#000000" points="75.5,-141.7 75.5,-160.7 114.5,-160.7 114.5,-141.7 75.5,-141.7"/>
<text text-anchor="start" x="105.3862" y="-147.8" font-family="Helvetica,sans-Serif" font-size="11.00" fill="#000000"> &#160;</text>
<polygon fill="#ffffff" stroke="transparent" points="114.5,-141.7 114.5,-160.7 163.5,-160.7 163.5,-141.7 114.5,-141.7"/>
<polygon fill="none" stroke="#000000" points="114.5,-141.7 114.5,-160.7 163.5,-160.7 163.5,-141.7 114.5,-141.7"/>
<text text-anchor="start" x="144.9053" y="-147.8" font-family="Helvetica,sans-Serif" font-size="11.00" fill="#000000">1 &gt;</text>
</a>
</g>
</g>
<!-- casserviceticket&#45;&gt;oppilaitos_ip_osoite -->
<g id="edge2" class="edge">
<title>casserviceticket:w&#45;&gt;oppilaitos_ip_osoite:e</title>
<path fill="none" stroke="#000000" stroke-dasharray="5,2" d="M199.3425,-184.021C187.4964,-186.2933 180.3657,-190.7 163.5,-190.7"/>
<polygon fill="#000000" stroke="#000000" points="206.0323,-183.4182 214.3232,-186.2855 210.0161,-183.0591 214,-182.7 214,-182.7 214,-182.7 210.0161,-183.0591 213.6768,-179.1145 206.0323,-183.4182 206.0323,-183.4182"/>
<ellipse fill="none" stroke="#000000" cx="202.8452" cy="-183.7054" rx="3.2" ry="3.2"/>
</g>
</g>
</svg>
