<?xml version="1.0" encoding="UTF-8" standalone="no"?>
<!DOCTYPE svg PUBLIC "-//W3C//DTD SVG 1.1//EN"
 "http://www.w3.org/Graphics/SVG/1.1/DTD/svg11.dtd">
<!-- Generated by graphviz version 2.40.1 (20161225.0304)
 -->
<!-- Title: oneDegreeRelationshipsDiagramImplied Pages: 1 -->
<svg width="512pt" height="253pt"
 viewBox="0.00 0.00 512.00 252.70" xmlns="http://www.w3.org/2000/svg" xmlns:xlink="http://www.w3.org/1999/xlink">
<g id="graph0" class="graph" transform="scale(1 1) rotate(0) translate(4 248.7)">
<title>oneDegreeRelationshipsDiagramImplied</title>
<polygon fill="#ffffff" stroke="transparent" points="-4,4 -4,-248.7 508,-248.7 508,4 -4,4"/>
<text text-anchor="middle" x="72.4936" y="-7.3" font-family="Helvetica,sans-Serif" font-size="11.00" fill="#000000">Generated by SchemaSpy</text>
<!-- casserviceticket -->
<g id="node1" class="node">
<title>casserviceticket</title>
<g id="a_node1"><a xlink:href="../../tables/casserviceticket.html" xlink:title="casserviceticket" target="_top">
<polygon fill="#ffffff" stroke="transparent" points="213,-40.7 213,-240.7 496,-240.7 496,-40.7 213,-40.7"/>
<polygon fill="#f5f5f5" stroke="transparent" points="215.5,-215.7 215.5,-238.7 494.5,-238.7 494.5,-215.7 215.5,-215.7"/>
<polygon fill="none" stroke="#000000" points="215.5,-215.7 215.5,-238.7 494.5,-238.7 494.5,-215.7 215.5,-215.7"/>
<text text-anchor="start" x="220.5" y="-224.3" font-family="Helvetica,sans-Serif" font-weight="bold" font-size="11.00" fill="#000000">casserviceticket</text>
<text text-anchor="start" x="459.5437" y="-223.8" font-family="Helvetica,sans-Serif" font-size="11.00" fill="#000000">[table]</text>
<polygon fill="none" stroke="#000000" points="215.5,-193.7 215.5,-215.7 395.5,-215.7 395.5,-193.7 215.5,-193.7"/>
<image xlink:href="../../images/primaryKeys.png" width="11px" height="12px" preserveAspectRatio="xMinYMin meet" x="220.5" y="-210.7"/>
<text text-anchor="start" x="235.5" y="-200.8" font-family="Helvetica,sans-Serif" font-size="11.00" fill="#000000">serviceticket</text>
<polygon fill="none" stroke="#000000" points="395.5,-193.7 395.5,-215.7 494.5,-215.7 494.5,-193.7 395.5,-193.7"/>
<text text-anchor="start" x="398.5" y="-201.4" font-family="Helvetica,sans-Serif" font-size="11.00" fill="#000000">text[2147483647]</text>
<polygon fill="none" stroke="#000000" points="215.5,-171.7 215.5,-193.7 395.5,-193.7 395.5,-171.7 215.5,-171.7"/>
<image xlink:href="../../images/foreignKeys.png" width="11px" height="12px" preserveAspectRatio="xMinYMin meet" x="220.5" y="-188.7"/>
<text text-anchor="start" x="235.5" y="-178.8" font-family="Helvetica,sans-Serif" font-size="11.00" fill="#000000">username</text>
<polygon fill="none" stroke="#000000" points="395.5,-171.7 395.5,-193.7 494.5,-193.7 494.5,-171.7 395.5,-171.7"/>
<text text-anchor="start" x="398.5" y="-179.4" font-family="Helvetica,sans-Serif" font-size="11.00" fill="#000000">text[2147483647]</text>
<polygon fill="none" stroke="#000000" points="215.5,-149.7 215.5,-171.7 395.5,-171.7 395.5,-149.7 215.5,-149.7"/>
<text text-anchor="start" x="235.5" y="-156.8" font-family="Helvetica,sans-Serif" font-size="11.00" fill="#000000">useroid</text>
<polygon fill="none" stroke="#000000" points="395.5,-149.7 395.5,-171.7 494.5,-171.7 494.5,-149.7 395.5,-149.7"/>
<text text-anchor="start" x="398.5" y="-157.4" font-family="Helvetica,sans-Serif" font-size="11.00" fill="#000000">text[2147483647]</text>
<polygon fill="none" stroke="#000000" points="215.5,-127.7 215.5,-149.7 395.5,-149.7 395.5,-127.7 215.5,-127.7"/>
<text text-anchor="start" x="235.5" y="-134.8" font-family="Helvetica,sans-Serif" font-size="11.00" fill="#000000">started</text>
<polygon fill="none" stroke="#000000" points="395.5,-127.7 395.5,-149.7 494.5,-149.7 494.5,-127.7 395.5,-127.7"/>
<text text-anchor="start" x="398.5" y="-135.4" font-family="Helvetica,sans-Serif" font-size="11.00" fill="#000000">timestamp[29,6]</text>
<polygon fill="none" stroke="#000000" points="215.5,-105.7 215.5,-127.7 395.5,-127.7 395.5,-105.7 215.5,-105.7"/>
<text text-anchor="start" x="235.5" y="-112.8" font-family="Helvetica,sans-Serif" font-size="11.00" fill="#000000">updated</text>
<polygon fill="none" stroke="#000000" points="395.5,-105.7 395.5,-127.7 494.5,-127.7 494.5,-105.7 395.5,-105.7"/>
<text text-anchor="start" x="398.5" y="-113.4" font-family="Helvetica,sans-Serif" font-size="11.00" fill="#000000">timestamp[29,6]</text>
<polygon fill="none" stroke="#000000" points="215.5,-83.7 215.5,-105.7 395.5,-105.7 395.5,-83.7 215.5,-83.7"/>
<image xlink:href="../../images/foreignKeys.png" width="11px" height="12px" preserveAspectRatio="xMinYMin meet" x="220.5" y="-100.7"/>
<text text-anchor="start" x="235.5" y="-90.8" font-family="Helvetica,sans-Serif" font-size="11.00" fill="#000000">name</text>
<polygon fill="none" stroke="#000000" points="395.5,-83.7 395.5,-105.7 494.5,-105.7 494.5,-83.7 395.5,-83.7"/>
<text text-anchor="start" x="398.5" y="-91.4" font-family="Helvetica,sans-Serif" font-size="11.00" fill="#000000">text[2147483647]</text>
<polygon fill="none" stroke="#000000" points="215.5,-61.7 215.5,-83.7 395.5,-83.7 395.5,-61.7 215.5,-61.7"/>
<text text-anchor="start" x="235.5" y="-68.8" font-family="Helvetica,sans-Serif" font-size="11.00" fill="#000000">huollettavat_search_result</text>
<polygon fill="none" stroke="#000000" points="395.5,-61.7 395.5,-83.7 494.5,-83.7 494.5,-61.7 395.5,-61.7"/>
<text text-anchor="start" x="398.2258" y="-69.4" font-family="Helvetica,sans-Serif" font-size="11.00" fill="#000000">jsonb[2147483647]</text>
<polygon fill="#ffffff" stroke="transparent" points="215.5,-42.7 215.5,-61.7 290.5,-61.7 290.5,-42.7 215.5,-42.7"/>
<polygon fill="none" stroke="#000000" points="215.5,-42.7 215.5,-61.7 290.5,-61.7 290.5,-42.7 215.5,-42.7"/>
<text text-anchor="start" x="218.5" y="-48.8" font-family="Helvetica,sans-Serif" font-size="11.00" fill="#000000">&lt; 2</text>
<polygon fill="#ffffff" stroke="transparent" points="290.5,-42.7 290.5,-61.7 395.5,-61.7 395.5,-42.7 290.5,-42.7"/>
<polygon fill="none" stroke="#000000" points="290.5,-42.7 290.5,-61.7 395.5,-61.7 395.5,-42.7 290.5,-42.7"/>
<text text-anchor="start" x="347.8807" y="-48.8" font-family="Helvetica,sans-Serif" font-size="11.00" fill="#000000">232 rows</text>
<polygon fill="#ffffff" stroke="transparent" points="395.5,-42.7 395.5,-61.7 494.5,-61.7 494.5,-42.7 395.5,-42.7"/>
<polygon fill="none" stroke="#000000" points="395.5,-42.7 395.5,-61.7 494.5,-61.7 494.5,-42.7 395.5,-42.7"/>
<text text-anchor="start" x="475.9053" y="-48.8" font-family="Helvetica,sans-Serif" font-size="11.00" fill="#000000">0 &gt;</text>
<polygon fill="none" stroke="#000000" stroke-width="2" points="214,-41.7 214,-239.7 495,-239.7 495,-41.7 214,-41.7"/>
</a>
</g>
</g>
<!-- scheduler -->
<g id="node2" class="node">
<title>scheduler</title>
<g id="a_node2"><a xlink:href="../../tables/scheduler.html" xlink:title="scheduler" target="_top">
<polygon fill="#ffffff" stroke="transparent" points="37.5,-38.2 37.5,-121.2 134.5,-121.2 134.5,-38.2 37.5,-38.2"/>
<polygon fill="#f5f5f5" stroke="transparent" points="38,-97.7 38,-120.7 135,-120.7 135,-97.7 38,-97.7"/>
<polygon fill="none" stroke="#000000" points="38,-97.7 38,-120.7 135,-120.7 135,-97.7 38,-97.7"/>
<text text-anchor="start" x="43" y="-106.3" font-family="Helvetica,sans-Serif" font-weight="bold" font-size="11.00" fill="#000000">scheduler</text>
<text text-anchor="start" x="100.5219" y="-105.8" font-family="Helvetica,sans-Serif" font-size="11.00" fill="#000000">[table]</text>
<polygon fill="none" stroke="#000000" points="38,-75.7 38,-97.7 135,-97.7 135,-75.7 38,-75.7"/>
<image xlink:href="../../images/primaryKeys.png" width="11px" height="12px" preserveAspectRatio="xMinYMin meet" x="43" y="-92.7"/>
<text text-anchor="start" x="59" y="-82.8" font-family="Helvetica,sans-Serif" font-size="11.00" fill="#000000">name</text>
<polygon fill="none" stroke="#000000" points="38,-56.7 38,-75.7 135,-75.7 135,-56.7 38,-56.7"/>
<text text-anchor="start" x="41" y="-62.8" font-family="Helvetica,sans-Serif" font-size="11.00" fill="#000000">...</text>
<polygon fill="#ffffff" stroke="transparent" points="38,-37.7 38,-56.7 63,-56.7 63,-37.7 38,-37.7"/>
<polygon fill="none" stroke="#000000" points="38,-37.7 38,-56.7 63,-56.7 63,-37.7 38,-37.7"/>
<text text-anchor="start" x="41" y="-43.8" font-family="Helvetica,sans-Serif" font-size="11.00" fill="#000000"> &#160;</text>
<polygon fill="#ffffff" stroke="transparent" points="63,-37.7 63,-56.7 107,-56.7 107,-37.7 63,-37.7"/>
<polygon fill="none" stroke="#000000" points="63,-37.7 63,-56.7 107,-56.7 107,-37.7 63,-37.7"/>
<text text-anchor="start" x="71.6105" y="-43.8" font-family="Helvetica,sans-Serif" font-size="11.00" fill="#000000">7 rows</text>
<polygon fill="#ffffff" stroke="transparent" points="107,-37.7 107,-56.7 135,-56.7 135,-37.7 107,-37.7"/>
<polygon fill="none" stroke="#000000" points="107,-37.7 107,-56.7 135,-56.7 135,-37.7 107,-37.7"/>
<text text-anchor="start" x="116.4053" y="-43.8" font-family="Helvetica,sans-Serif" font-size="11.00" fill="#000000">1 &gt;</text>
</a>
</g>
</g>
<!-- casserviceticket&#45;&gt;scheduler -->
<g id="edge1" class="edge">
<title>casserviceticket:w&#45;&gt;scheduler:e</title>
<path fill="none" stroke="#000000" stroke-dasharray="5,2" d="M200.7795,-94.1996C176.2931,-92.4482 165.4766,-86.7 135,-86.7"/>
<polygon fill="#000000" stroke="#000000" points="207.5046,-94.4281 215.3777,-98.2979 211.5023,-94.5641 215.5,-94.7 215.5,-94.7 215.5,-94.7 211.5023,-94.5641 215.6223,-91.1021 207.5046,-94.4281 207.5046,-94.4281"/>
<ellipse fill="none" stroke="#000000" cx="204.3065" cy="-94.3194" rx="3.2" ry="3.2"/>
</g>
<!-- oppilaitos_ip_osoite -->
<g id="node3" class="node">
<title>oppilaitos_ip_osoite</title>
<g id="a_node3"><a xlink:href="../../tables/oppilaitos_ip_osoite.html" xlink:title="oppilaitos_ip_osoite" target="_top">
<polygon fill="#ffffff" stroke="transparent" points="8,-142.2 8,-225.2 164,-225.2 164,-142.2 8,-142.2"/>
<polygon fill="#f5f5f5" stroke="transparent" points="8,-201.7 8,-224.7 164,-224.7 164,-201.7 8,-201.7"/>
<polygon fill="none" stroke="#000000" points="8,-201.7 8,-224.7 164,-224.7 164,-201.7 8,-201.7"/>
<text text-anchor="start" x="13" y="-210.3" font-family="Helvetica,sans-Serif" font-weight="bold" font-size="11.00" fill="#000000">oppilaitos_ip_osoite</text>
<text text-anchor="start" x="129.5219" y="-209.8" font-family="Helvetica,sans-Serif" font-size="11.00" fill="#000000">[table]</text>
<polygon fill="none" stroke="#000000" points="8,-179.7 8,-201.7 164,-201.7 164,-179.7 8,-179.7"/>
<image xlink:href="../../images/primaryKeys.png" width="11px" height="12px" preserveAspectRatio="xMinYMin meet" x="13" y="-196.7"/>
<text text-anchor="start" x="37" y="-186.8" font-family="Helvetica,sans-Serif" font-size="11.00" fill="#000000">username</text>
<polygon fill="none" stroke="#000000" points="8,-160.7 8,-179.7 164,-179.7 164,-160.7 8,-160.7"/>
<text text-anchor="start" x="11" y="-166.8" font-family="Helvetica,sans-Serif" font-size="11.00" fill="#000000">...</text>
<polygon fill="#ffffff" stroke="transparent" points="8,-141.7 8,-160.7 75,-160.7 75,-141.7 8,-141.7"/>
<polygon fill="none" stroke="#000000" points="8,-141.7 8,-160.7 75,-160.7 75,-141.7 8,-141.7"/>
<text text-anchor="start" x="11" y="-147.8" font-family="Helvetica,sans-Serif" font-size="11.00" fill="#000000"> &#160;</text>
<polygon fill="#ffffff" stroke="transparent" points="75,-141.7 75,-160.7 115,-160.7 115,-141.7 75,-141.7"/>
<polygon fill="none" stroke="#000000" points="75,-141.7 75,-160.7 115,-160.7 115,-141.7 75,-141.7"/>
<text text-anchor="start" x="105.8862" y="-147.8" font-family="Helvetica,sans-Serif" font-size="11.00" fill="#000000"> &#160;</text>
<polygon fill="#ffffff" stroke="transparent" points="115,-141.7 115,-160.7 164,-160.7 164,-141.7 115,-141.7"/>
<polygon fill="none" stroke="#000000" points="115,-141.7 115,-160.7 164,-160.7 164,-141.7 115,-141.7"/>
<text text-anchor="start" x="145.4053" y="-147.8" font-family="Helvetica,sans-Serif" font-size="11.00" fill="#000000">1 &gt;</text>
</a>
</g>
</g>
<!-- casserviceticket&#45;&gt;oppilaitos_ip_osoite -->
<g id="edge2" class="edge">
<title>casserviceticket:w&#45;&gt;oppilaitos_ip_osoite:e</title>
<path fill="none" stroke="#000000" stroke-dasharray="5,2" d="M200.9384,-183.95C188.6256,-186.2 181.3726,-190.7 164,-190.7"/>
<polygon fill="#000000" stroke="#000000" points="207.5293,-183.3843 215.8079,-186.2868 211.5147,-183.0421 215.5,-182.7 215.5,-182.7 215.5,-182.7 211.5147,-183.0421 215.1921,-179.1132 207.5293,-183.3843 207.5293,-183.3843"/>
<ellipse fill="none" stroke="#000000" cx="204.341" cy="-183.658" rx="3.2" ry="3.2"/>
</g>
</g>
</svg>
