<?xml version="1.0" encoding="UTF-8" standalone="no"?>
<!DOCTYPE svg PUBLIC "-//W3C//DTD SVG 1.1//EN"
 "http://www.w3.org/Graphics/SVG/1.1/DTD/svg11.dtd">
<!-- Generated by graphviz version 2.40.1 (20161225.0304)
 -->
<!-- Title: oneDegreeRelationshipsDiagram Pages: 1 -->
<svg width="404pt" height="206pt"
 viewBox="0.00 0.00 404.00 206.20" xmlns="http://www.w3.org/2000/svg" xmlns:xlink="http://www.w3.org/1999/xlink">
<g id="graph0" class="graph" transform="scale(1 1) rotate(0) translate(4 202.2)">
<title>oneDegreeRelationshipsDiagram</title>
<polygon fill="#ffffff" stroke="transparent" points="-4,4 -4,-202.2 400,-202.2 400,4 -4,4"/>
<text text-anchor="middle" x="72.4936" y="-7.3" font-family="Helvetica,sans-Serif" font-size="11.00" fill="#000000">Generated by SchemaSpy</text>
<!-- fixture_koski_default_opiskeluoikeushistoria -->
<g id="node1" class="node">
<title>fixture_koski_default_opiskeluoikeushistoria</title>
<g id="a_node1"><a xlink:href="../../tables/fixture_koski_default_opiskeluo_6de61f63.html" xlink:title="fixture_koski_default_opiskeluoikeushistoria" target="_top">
<polygon fill="#ffffff" stroke="transparent" points="8,-38.2 8,-194.2 388,-194.2 388,-38.2 8,-38.2"/>
<polygon fill="#f5f5f5" stroke="transparent" points="10,-169.2 10,-192.2 386,-192.2 386,-169.2 10,-169.2"/>
<polygon fill="none" stroke="#000000" points="10,-169.2 10,-192.2 386,-192.2 386,-169.2 10,-169.2"/>
<text text-anchor="start" x="15" y="-177.8" font-family="Helvetica,sans-Serif" font-weight="bold" font-size="11.00" fill="#000000">fixture_koski_default_opiskeluoikeushistoria</text>
<text text-anchor="start" x="351.0437" y="-177.3" font-family="Helvetica,sans-Serif" font-size="11.00" fill="#000000">[table]</text>
<polygon fill="none" stroke="#000000" points="10,-147.2 10,-169.2 287,-169.2 287,-147.2 10,-147.2"/>
<text text-anchor="start" x="30" y="-154.3" font-family="Helvetica,sans-Serif" font-size="11.00" fill="#000000">opiskeluoikeus_id</text>
<polygon fill="none" stroke="#000000" points="287,-147.2 287,-169.2 386,-169.2 386,-147.2 287,-147.2"/>
<text text-anchor="start" x="290" y="-154.9" font-family="Helvetica,sans-Serif" font-size="11.00" fill="#000000">int4[10]</text>
<polygon fill="none" stroke="#000000" points="10,-125.2 10,-147.2 287,-147.2 287,-125.2 10,-125.2"/>
<text text-anchor="start" x="30" y="-132.3" font-family="Helvetica,sans-Serif" font-size="11.00" fill="#000000">aikaleima</text>
<polygon fill="none" stroke="#000000" points="287,-125.2 287,-147.2 386,-147.2 386,-125.2 287,-125.2"/>
<text text-anchor="start" x="290" y="-132.9" font-family="Helvetica,sans-Serif" font-size="11.00" fill="#000000">timestamptz[35,6]</text>
<polygon fill="none" stroke="#000000" points="10,-103.2 10,-125.2 287,-125.2 287,-103.2 10,-103.2"/>
<text text-anchor="start" x="30" y="-110.3" font-family="Helvetica,sans-Serif" font-size="11.00" fill="#000000">kayttaja_oid</text>
<polygon fill="none" stroke="#000000" points="287,-103.2 287,-125.2 386,-125.2 386,-103.2 287,-103.2"/>
<text text-anchor="start" x="290" y="-110.9" font-family="Helvetica,sans-Serif" font-size="11.00" fill="#000000">text[2147483647]</text>
<polygon fill="none" stroke="#000000" points="10,-81.2 10,-103.2 287,-103.2 287,-81.2 10,-81.2"/>
<text text-anchor="start" x="30" y="-88.3" font-family="Helvetica,sans-Serif" font-size="11.00" fill="#000000">muutos</text>
<polygon fill="none" stroke="#000000" points="287,-81.2 287,-103.2 386,-103.2 386,-81.2 287,-81.2"/>
<text text-anchor="start" x="289.7258" y="-88.9" font-family="Helvetica,sans-Serif" font-size="11.00" fill="#000000">jsonb[2147483647]</text>
<polygon fill="none" stroke="#000000" points="10,-59.2 10,-81.2 287,-81.2 287,-59.2 10,-59.2"/>
<text text-anchor="start" x="30" y="-66.3" font-family="Helvetica,sans-Serif" font-size="11.00" fill="#000000">versionumero</text>
<polygon fill="none" stroke="#000000" points="287,-59.2 287,-81.2 386,-81.2 386,-59.2 287,-59.2"/>
<text text-anchor="start" x="290" y="-66.9" font-family="Helvetica,sans-Serif" font-size="11.00" fill="#000000">int4[10]</text>
<polygon fill="#ffffff" stroke="transparent" points="10,-40.2 10,-59.2 134,-59.2 134,-40.2 10,-40.2"/>
<polygon fill="none" stroke="#000000" points="10,-40.2 10,-59.2 134,-59.2 134,-40.2 10,-40.2"/>
<text text-anchor="start" x="13" y="-46.3" font-family="Helvetica,sans-Serif" font-size="11.00" fill="#000000">&lt; 0</text>
<polygon fill="#ffffff" stroke="transparent" points="134,-40.2 134,-59.2 287,-59.2 287,-40.2 134,-40.2"/>
<polygon fill="none" stroke="#000000" points="134,-40.2 134,-59.2 287,-59.2 287,-40.2 134,-40.2"/>
<text text-anchor="start" x="239.3807" y="-46.3" font-family="Helvetica,sans-Serif" font-size="11.00" fill="#000000">150 rows</text>
<polygon fill="#ffffff" stroke="transparent" points="287,-40.2 287,-59.2 386,-59.2 386,-40.2 287,-40.2"/>
<polygon fill="none" stroke="#000000" points="287,-40.2 287,-59.2 386,-59.2 386,-40.2 287,-40.2"/>
<text text-anchor="start" x="367.4053" y="-46.3" font-family="Helvetica,sans-Serif" font-size="11.00" fill="#000000">0 &gt;</text>
<polygon fill="none" stroke="#000000" stroke-width="2" points="9,-39.2 9,-193.2 387,-193.2 387,-39.2 9,-39.2"/>
</a>
</g>
</g>
</g>
</svg>
