<?xml version="1.0" encoding="UTF-8" standalone="no"?>
<!DOCTYPE svg PUBLIC "-//W3C//DTD SVG 1.1//EN"
 "http://www.w3.org/Graphics/SVG/1.1/DTD/svg11.dtd">
<!-- Generated by graphviz version 2.40.1 (20161225.0304)
 -->
<!-- Title: twoDegreesRelationshipsDiagram Pages: 1 -->
<svg width="788pt" height="832pt"
 viewBox="0.00 0.00 787.59 832.20" xmlns="http://www.w3.org/2000/svg" xmlns:xlink="http://www.w3.org/1999/xlink">
<g id="graph0" class="graph" transform="scale(1 1) rotate(0) translate(4 828.2)">
<title>twoDegreesRelationshipsDiagram</title>
<polygon fill="#ffffff" stroke="transparent" points="-4,4 -4,-828.2 783.587,-828.2 783.587,4 -4,4"/>
<text text-anchor="middle" x="72.4936" y="-7.3" font-family="Helvetica,sans-Serif" font-size="11.00" fill="#000000">Generated by SchemaSpy</text>
<!-- henkilo -->
<g id="node1" class="node">
<title>henkilo</title>
<g id="a_node1"><a xlink:href="../../tables/henkilo.html" xlink:title="henkilo" target="_top">
<polygon fill="#ffffff" stroke="transparent" points="40.587,-392.7 40.587,-548.7 229.587,-548.7 229.587,-392.7 40.587,-392.7"/>
<polygon fill="#f5f5f5" stroke="transparent" points="43.087,-523.7 43.087,-546.7 228.087,-546.7 228.087,-523.7 43.087,-523.7"/>
<polygon fill="none" stroke="#000000" points="43.087,-523.7 43.087,-546.7 228.087,-546.7 228.087,-523.7 43.087,-523.7"/>
<text text-anchor="start" x="48.087" y="-532.3" font-family="Helvetica,sans-Serif" font-weight="bold" font-size="11.00" fill="#000000">henkilo</text>
<text text-anchor="start" x="193.1307" y="-531.8" font-family="Helvetica,sans-Serif" font-size="11.00" fill="#000000">[table]</text>
<polygon fill="none" stroke="#000000" points="43.087,-501.7 43.087,-523.7 138.087,-523.7 138.087,-501.7 43.087,-501.7"/>
<image xlink:href="../../images/primaryKeys.png" width="11px" height="12px" preserveAspectRatio="xMinYMin meet" x="48.087" y="-518.7"/>
<text text-anchor="start" x="63.087" y="-508.8" font-family="Helvetica,sans-Serif" font-size="11.00" fill="#000000">oid</text>
<polygon fill="none" stroke="#000000" points="138.087,-501.7 138.087,-523.7 228.087,-523.7 228.087,-501.7 138.087,-501.7"/>
<text text-anchor="start" x="140.5913" y="-509.4" font-family="Helvetica,sans-Serif" font-size="11.00" fill="#000000">text[2147483647]</text>
<polygon fill="none" stroke="#000000" points="43.087,-479.7 43.087,-501.7 138.087,-501.7 138.087,-479.7 43.087,-479.7"/>
<text text-anchor="start" x="63.087" y="-486.8" font-family="Helvetica,sans-Serif" font-size="11.00" fill="#000000">sukunimi</text>
<polygon fill="none" stroke="#000000" points="138.087,-479.7 138.087,-501.7 228.087,-501.7 228.087,-479.7 138.087,-479.7"/>
<text text-anchor="start" x="140.5913" y="-487.4" font-family="Helvetica,sans-Serif" font-size="11.00" fill="#000000">text[2147483647]</text>
<polygon fill="none" stroke="#000000" points="43.087,-457.7 43.087,-479.7 138.087,-479.7 138.087,-457.7 43.087,-457.7"/>
<text text-anchor="start" x="63.087" y="-464.8" font-family="Helvetica,sans-Serif" font-size="11.00" fill="#000000">etunimet</text>
<polygon fill="none" stroke="#000000" points="138.087,-457.7 138.087,-479.7 228.087,-479.7 228.087,-457.7 138.087,-457.7"/>
<text text-anchor="start" x="140.5913" y="-465.4" font-family="Helvetica,sans-Serif" font-size="11.00" fill="#000000">text[2147483647]</text>
<polygon fill="none" stroke="#000000" points="43.087,-435.7 43.087,-457.7 138.087,-457.7 138.087,-435.7 43.087,-435.7"/>
<text text-anchor="start" x="63.087" y="-442.8" font-family="Helvetica,sans-Serif" font-size="11.00" fill="#000000">kutsumanimi</text>
<polygon fill="none" stroke="#000000" points="138.087,-435.7 138.087,-457.7 228.087,-457.7 228.087,-435.7 138.087,-435.7"/>
<text text-anchor="start" x="140.5913" y="-443.4" font-family="Helvetica,sans-Serif" font-size="11.00" fill="#000000">text[2147483647]</text>
<polygon fill="#ffffff" stroke="transparent" points="43.087,-413.7 43.087,-435.7 138.087,-435.7 138.087,-413.7 43.087,-413.7"/>
<polygon fill="none" stroke="#000000" points="43.087,-413.7 43.087,-435.7 138.087,-435.7 138.087,-413.7 43.087,-413.7"/>
<image xlink:href="../../images/foreignKeys.png" width="11px" height="12px" preserveAspectRatio="xMinYMin meet" x="48.087" y="-430.7"/>
<text text-anchor="start" x="63.087" y="-420.8" font-family="Helvetica,sans-Serif" font-size="11.00" fill="#000000">master_oid</text>
<polygon fill="none" stroke="#000000" points="138.087,-413.7 138.087,-435.7 228.087,-435.7 228.087,-413.7 138.087,-413.7"/>
<text text-anchor="start" x="140.5913" y="-421.4" font-family="Helvetica,sans-Serif" font-size="11.00" fill="#000000">text[2147483647]</text>
<polygon fill="#ffffff" stroke="transparent" points="43.087,-394.7 43.087,-413.7 76.087,-413.7 76.087,-394.7 43.087,-394.7"/>
<polygon fill="none" stroke="#000000" points="43.087,-394.7 43.087,-413.7 76.087,-413.7 76.087,-394.7 43.087,-394.7"/>
<text text-anchor="start" x="46.087" y="-400.8" font-family="Helvetica,sans-Serif" font-size="11.00" fill="#000000">&lt; 1</text>
<polygon fill="#ffffff" stroke="transparent" points="76.087,-394.7 76.087,-413.7 138.087,-413.7 138.087,-394.7 76.087,-394.7"/>
<polygon fill="none" stroke="#000000" points="76.087,-394.7 76.087,-413.7 138.087,-413.7 138.087,-394.7 76.087,-394.7"/>
<text text-anchor="start" x="90.4677" y="-400.8" font-family="Helvetica,sans-Serif" font-size="11.00" fill="#000000">180 rows</text>
<polygon fill="#ffffff" stroke="transparent" points="138.087,-394.7 138.087,-413.7 228.087,-413.7 228.087,-394.7 138.087,-394.7"/>
<polygon fill="none" stroke="#000000" points="138.087,-394.7 138.087,-413.7 228.087,-413.7 228.087,-394.7 138.087,-394.7"/>
<text text-anchor="start" x="209.4923" y="-400.8" font-family="Helvetica,sans-Serif" font-size="11.00" fill="#000000">3 &gt;</text>
<polygon fill="none" stroke="#000000" stroke-width="2" points="41.587,-393.7 41.587,-547.7 228.587,-547.7 228.587,-393.7 41.587,-393.7"/>
</a>
</g>
</g>
<!-- henkilo&#45;&gt;henkilo -->
<g id="edge1" class="edge">
<title>henkilo:w&#45;&gt;henkilo:e</title>
<path fill="none" stroke="#000000" d="M30.5598,-431.9813C-23.7074,-470.4054 -13.788,-565.7 135.587,-565.7 295.587,-565.7 295.587,-544.3667 228.087,-512.7"/>
<polygon fill="#000000" stroke="#000000" points="36.1705,-428.7202 44.8961,-427.8124 39.6287,-426.7101 43.087,-424.7 43.087,-424.7 43.087,-424.7 39.6287,-426.7101 41.2779,-421.5876 36.1705,-428.7202 36.1705,-428.7202"/>
<ellipse fill="none" stroke="#000000" cx="33.4039" cy="-430.3283" rx="3.2" ry="3.2"/>
</g>
<!-- opiskeluoikeus -->
<g id="node2" class="node">
<title>opiskeluoikeus</title>
<g id="a_node2"><a xlink:href="../../tables/opiskeluoikeus.html" xlink:title="opiskeluoikeus" target="_top">
<polygon fill="#ffffff" stroke="transparent" points="278.587,-406.2 278.587,-753.2 531.587,-753.2 531.587,-406.2 278.587,-406.2"/>
<polygon fill="#f5f5f5" stroke="transparent" points="279.087,-729.7 279.087,-752.7 532.087,-752.7 532.087,-729.7 279.087,-729.7"/>
<polygon fill="none" stroke="#000000" points="279.087,-729.7 279.087,-752.7 532.087,-752.7 532.087,-729.7 279.087,-729.7"/>
<text text-anchor="start" x="284.087" y="-738.3" font-family="Helvetica,sans-Serif" font-weight="bold" font-size="11.00" fill="#000000">opiskeluoikeus</text>
<text text-anchor="start" x="497.1307" y="-737.8" font-family="Helvetica,sans-Serif" font-size="11.00" fill="#000000">[table]</text>
<polygon fill="none" stroke="#000000" points="279.087,-707.7 279.087,-729.7 532.087,-729.7 532.087,-707.7 279.087,-707.7"/>
<image xlink:href="../../images/primaryKeys.png" width="11px" height="12px" preserveAspectRatio="xMinYMin meet" x="284.087" y="-724.7"/>
<text text-anchor="start" x="299.087" y="-714.8" font-family="Helvetica,sans-Serif" font-size="11.00" fill="#000000">id</text>
<polygon fill="#ffffff" stroke="transparent" points="279.087,-685.7 279.087,-707.7 532.087,-707.7 532.087,-685.7 279.087,-685.7"/>
<polygon fill="none" stroke="#000000" points="279.087,-685.7 279.087,-707.7 532.087,-707.7 532.087,-685.7 279.087,-685.7"/>
<image xlink:href="../../images/foreignKeys.png" width="11px" height="12px" preserveAspectRatio="xMinYMin meet" x="284.087" y="-702.7"/>
<text text-anchor="start" x="299.087" y="-692.8" font-family="Helvetica,sans-Serif" font-size="11.00" fill="#000000">oppija_oid</text>
<polygon fill="#ffffff" stroke="transparent" points="279.087,-663.7 279.087,-685.7 532.087,-685.7 532.087,-663.7 279.087,-663.7"/>
<polygon fill="none" stroke="#000000" points="279.087,-663.7 279.087,-685.7 532.087,-685.7 532.087,-663.7 279.087,-663.7"/>
<text text-anchor="start" x="299.087" y="-670.8" font-family="Helvetica,sans-Serif" font-size="11.00" fill="#000000">aikaleima</text>
<polygon fill="#ffffff" stroke="transparent" points="279.087,-641.7 279.087,-663.7 532.087,-663.7 532.087,-641.7 279.087,-641.7"/>
<polygon fill="none" stroke="#000000" points="279.087,-641.7 279.087,-663.7 532.087,-663.7 532.087,-641.7 279.087,-641.7"/>
<text text-anchor="start" x="299.087" y="-648.8" font-family="Helvetica,sans-Serif" font-size="11.00" fill="#000000">oppilaitos_oid</text>
<polygon fill="#ffffff" stroke="transparent" points="279.087,-619.7 279.087,-641.7 532.087,-641.7 532.087,-619.7 279.087,-619.7"/>
<polygon fill="none" stroke="#000000" points="279.087,-619.7 279.087,-641.7 532.087,-641.7 532.087,-619.7 279.087,-619.7"/>
<text text-anchor="start" x="299.087" y="-626.8" font-family="Helvetica,sans-Serif" font-size="11.00" fill="#000000">sisaltava_opiskeluoikeus_oppilaitos_oid</text>
<polygon fill="#ffffff" stroke="transparent" points="279.087,-597.7 279.087,-619.7 532.087,-619.7 532.087,-597.7 279.087,-597.7"/>
<polygon fill="none" stroke="#000000" points="279.087,-597.7 279.087,-619.7 532.087,-619.7 532.087,-597.7 279.087,-597.7"/>
<text text-anchor="start" x="299.087" y="-604.8" font-family="Helvetica,sans-Serif" font-size="11.00" fill="#000000">oid</text>
<polygon fill="none" stroke="#000000" points="279.087,-575.7 279.087,-597.7 532.087,-597.7 532.087,-575.7 279.087,-575.7"/>
<image xlink:href="../../images/foreignKeys.png" width="11px" height="12px" preserveAspectRatio="xMinYMin meet" x="284.087" y="-592.7"/>
<text text-anchor="start" x="299.087" y="-582.8" font-family="Helvetica,sans-Serif" font-size="11.00" fill="#000000">sisaltava_opiskeluoikeus_oid</text>
<polygon fill="#ffffff" stroke="transparent" points="279.087,-553.7 279.087,-575.7 532.087,-575.7 532.087,-553.7 279.087,-553.7"/>
<polygon fill="none" stroke="#000000" points="279.087,-553.7 279.087,-575.7 532.087,-575.7 532.087,-553.7 279.087,-553.7"/>
<text text-anchor="start" x="299.087" y="-560.8" font-family="Helvetica,sans-Serif" font-size="11.00" fill="#000000">mitatoity</text>
<polygon fill="#ffffff" stroke="transparent" points="279.087,-531.7 279.087,-553.7 532.087,-553.7 532.087,-531.7 279.087,-531.7"/>
<polygon fill="none" stroke="#000000" points="279.087,-531.7 279.087,-553.7 532.087,-553.7 532.087,-531.7 279.087,-531.7"/>
<text text-anchor="start" x="299.087" y="-538.8" font-family="Helvetica,sans-Serif" font-size="11.00" fill="#000000">koulutusmuoto</text>
<polygon fill="#ffffff" stroke="transparent" points="279.087,-509.7 279.087,-531.7 532.087,-531.7 532.087,-509.7 279.087,-509.7"/>
<polygon fill="none" stroke="#000000" points="279.087,-509.7 279.087,-531.7 532.087,-531.7 532.087,-509.7 279.087,-509.7"/>
<text text-anchor="start" x="299.087" y="-516.8" font-family="Helvetica,sans-Serif" font-size="11.00" fill="#000000">alkamispaiva</text>
<polygon fill="#ffffff" stroke="transparent" points="279.087,-487.7 279.087,-509.7 532.087,-509.7 532.087,-487.7 279.087,-487.7"/>
<polygon fill="none" stroke="#000000" points="279.087,-487.7 279.087,-509.7 532.087,-509.7 532.087,-487.7 279.087,-487.7"/>
<text text-anchor="start" x="299.087" y="-494.8" font-family="Helvetica,sans-Serif" font-size="11.00" fill="#000000">paattymispaiva</text>
<polygon fill="#ffffff" stroke="transparent" points="279.087,-465.7 279.087,-487.7 532.087,-487.7 532.087,-465.7 279.087,-465.7"/>
<polygon fill="none" stroke="#000000" points="279.087,-465.7 279.087,-487.7 532.087,-487.7 532.087,-465.7 279.087,-465.7"/>
<text text-anchor="start" x="299.087" y="-472.8" font-family="Helvetica,sans-Serif" font-size="11.00" fill="#000000">suoritustyypit</text>
<polygon fill="#ffffff" stroke="transparent" points="279.087,-443.7 279.087,-465.7 532.087,-465.7 532.087,-443.7 279.087,-443.7"/>
<polygon fill="none" stroke="#000000" points="279.087,-443.7 279.087,-465.7 532.087,-465.7 532.087,-443.7 279.087,-443.7"/>
<text text-anchor="start" x="299.087" y="-450.8" font-family="Helvetica,sans-Serif" font-size="11.00" fill="#000000">poistettu</text>
<polygon fill="none" stroke="#000000" points="279.087,-424.7 279.087,-443.7 532.087,-443.7 532.087,-424.7 279.087,-424.7"/>
<text text-anchor="start" x="282.087" y="-430.8" font-family="Helvetica,sans-Serif" font-size="11.00" fill="#000000">...</text>
<polygon fill="#ffffff" stroke="transparent" points="279.087,-405.7 279.087,-424.7 380.087,-424.7 380.087,-405.7 279.087,-405.7"/>
<polygon fill="none" stroke="#000000" points="279.087,-405.7 279.087,-424.7 380.087,-424.7 380.087,-405.7 279.087,-405.7"/>
<text text-anchor="start" x="282.087" y="-411.8" font-family="Helvetica,sans-Serif" font-size="11.00" fill="#000000">&lt; 2</text>
<polygon fill="#ffffff" stroke="transparent" points="380.087,-405.7 380.087,-424.7 470.087,-424.7 470.087,-405.7 380.087,-405.7"/>
<polygon fill="none" stroke="#000000" points="380.087,-405.7 380.087,-424.7 470.087,-424.7 470.087,-405.7 380.087,-405.7"/>
<text text-anchor="start" x="422.4677" y="-411.8" font-family="Helvetica,sans-Serif" font-size="11.00" fill="#000000">150 rows</text>
<polygon fill="#ffffff" stroke="transparent" points="470.087,-405.7 470.087,-424.7 532.087,-424.7 532.087,-405.7 470.087,-405.7"/>
<polygon fill="none" stroke="#000000" points="470.087,-405.7 470.087,-424.7 532.087,-424.7 532.087,-405.7 470.087,-405.7"/>
<text text-anchor="start" x="513.4923" y="-411.8" font-family="Helvetica,sans-Serif" font-size="11.00" fill="#000000">4 &gt;</text>
</a>
</g>
</g>
<!-- opiskeluoikeus&#45;&gt;henkilo -->
<g id="edge2" class="edge">
<title>opiskeluoikeus:w&#45;&gt;henkilo:e</title>
<path fill="none" stroke="#000000" d="M268.4535,-695.525C204.9089,-679.8543 308.9701,-512.7 228.087,-512.7"/>
<polygon fill="#000000" stroke="#000000" points="278.7312,-692.6363 277.8525,-700.5879 276.2622,-700.4122 277.1409,-692.4606 278.7312,-692.6363"/>
<polyline fill="none" stroke="#000000" points="279.087,-696.7 275.1112,-696.2606 "/>
<ellipse fill="none" stroke="#000000" cx="271.9306" cy="-695.9092" rx="3.2" ry="3.2"/>
</g>
<!-- opiskeluoikeushistoria -->
<g id="node3" class="node">
<title>opiskeluoikeushistoria</title>
<g id="a_node3"><a xlink:href="../../tables/opiskeluoikeushistoria.html" xlink:title="opiskeluoikeushistoria" target="_top">
<polygon fill="#ffffff" stroke="transparent" points="591.587,-759.2 591.587,-820.2 760.587,-820.2 760.587,-759.2 591.587,-759.2"/>
<polygon fill="#f5f5f5" stroke="transparent" points="592.087,-796.7 592.087,-819.7 761.087,-819.7 761.087,-796.7 592.087,-796.7"/>
<polygon fill="none" stroke="#000000" points="592.087,-796.7 592.087,-819.7 761.087,-819.7 761.087,-796.7 592.087,-796.7"/>
<text text-anchor="start" x="597.087" y="-805.3" font-family="Helvetica,sans-Serif" font-weight="bold" font-size="11.00" fill="#000000">opiskeluoikeushistoria</text>
<text text-anchor="start" x="726.6089" y="-804.8" font-family="Helvetica,sans-Serif" font-size="11.00" fill="#000000">[table]</text>
<polygon fill="none" stroke="#000000" points="592.087,-777.7 592.087,-796.7 761.087,-796.7 761.087,-777.7 592.087,-777.7"/>
<text text-anchor="start" x="595.087" y="-783.8" font-family="Helvetica,sans-Serif" font-size="11.00" fill="#000000">...</text>
<polygon fill="#ffffff" stroke="transparent" points="592.087,-758.7 592.087,-777.7 656.087,-777.7 656.087,-758.7 592.087,-758.7"/>
<polygon fill="none" stroke="#000000" points="592.087,-758.7 592.087,-777.7 656.087,-777.7 656.087,-758.7 592.087,-758.7"/>
<text text-anchor="start" x="595.087" y="-764.8" font-family="Helvetica,sans-Serif" font-size="11.00" fill="#000000">&lt; 1</text>
<polygon fill="#ffffff" stroke="transparent" points="656.087,-758.7 656.087,-777.7 727.087,-777.7 727.087,-758.7 656.087,-758.7"/>
<polygon fill="none" stroke="#000000" points="656.087,-758.7 656.087,-777.7 727.087,-777.7 727.087,-758.7 656.087,-758.7"/>
<text text-anchor="start" x="679.4677" y="-764.8" font-family="Helvetica,sans-Serif" font-size="11.00" fill="#000000">149 rows</text>
<polygon fill="#ffffff" stroke="transparent" points="727.087,-758.7 727.087,-777.7 761.087,-777.7 761.087,-758.7 727.087,-758.7"/>
<polygon fill="none" stroke="#000000" points="727.087,-758.7 727.087,-777.7 761.087,-777.7 761.087,-758.7 727.087,-758.7"/>
<text text-anchor="start" x="751.9732" y="-764.8" font-family="Helvetica,sans-Serif" font-size="11.00" fill="#000000"> &#160;</text>
</a>
</g>
</g>
<!-- opiskeluoikeushistoria&#45;&gt;opiskeluoikeus -->
<g id="edge3" class="edge">
<title>opiskeluoikeushistoria:w&#45;&gt;opiskeluoikeus:e</title>
<path fill="none" stroke="#000000" d="M578.0606,-782.8492C556.4671,-768.4642 566.5667,-718.7 532.087,-718.7"/>
<polygon fill="#000000" stroke="#000000" points="584.3725,-784.582 591.1339,-790.1715 588.2297,-785.641 592.087,-786.7 592.087,-786.7 592.087,-786.7 588.2297,-785.641 593.0401,-783.2285 584.3725,-784.582 584.3725,-784.582"/>
<ellipse fill="none" stroke="#000000" cx="581.2866" cy="-783.7348" rx="3.2" ry="3.2"/>
</g>
<!-- perustiedot_manual_sync -->
<g id="node4" class="node">
<title>perustiedot_manual_sync</title>
<g id="a_node4"><a xlink:href="../../tables/perustiedot_manual_sync.html" xlink:title="perustiedot_manual_sync" target="_top">
<polygon fill="#ffffff" stroke="transparent" points="582.587,-581.2 582.587,-642.2 769.587,-642.2 769.587,-581.2 582.587,-581.2"/>
<polygon fill="#f5f5f5" stroke="transparent" points="583.087,-618.7 583.087,-641.7 770.087,-641.7 770.087,-618.7 583.087,-618.7"/>
<polygon fill="none" stroke="#000000" points="583.087,-618.7 583.087,-641.7 770.087,-641.7 770.087,-618.7 583.087,-618.7"/>
<text text-anchor="start" x="588.087" y="-627.3" font-family="Helvetica,sans-Serif" font-weight="bold" font-size="11.00" fill="#000000">perustiedot_manual_sync</text>
<text text-anchor="start" x="735.6089" y="-626.8" font-family="Helvetica,sans-Serif" font-size="11.00" fill="#000000">[table]</text>
<polygon fill="none" stroke="#000000" points="583.087,-599.7 583.087,-618.7 770.087,-618.7 770.087,-599.7 583.087,-599.7"/>
<text text-anchor="start" x="586.087" y="-605.8" font-family="Helvetica,sans-Serif" font-size="11.00" fill="#000000">...</text>
<polygon fill="#ffffff" stroke="transparent" points="583.087,-580.7 583.087,-599.7 675.087,-599.7 675.087,-580.7 583.087,-580.7"/>
<polygon fill="none" stroke="#000000" points="583.087,-580.7 583.087,-599.7 675.087,-599.7 675.087,-580.7 583.087,-580.7"/>
<text text-anchor="start" x="586.087" y="-586.8" font-family="Helvetica,sans-Serif" font-size="11.00" fill="#000000">&lt; 1</text>
<polygon fill="#ffffff" stroke="transparent" points="675.087,-580.7 675.087,-599.7 722.087,-599.7 722.087,-580.7 675.087,-580.7"/>
<polygon fill="none" stroke="#000000" points="675.087,-580.7 675.087,-599.7 722.087,-599.7 722.087,-580.7 675.087,-580.7"/>
<text text-anchor="start" x="712.9732" y="-586.8" font-family="Helvetica,sans-Serif" font-size="11.00" fill="#000000"> &#160;</text>
<polygon fill="#ffffff" stroke="transparent" points="722.087,-580.7 722.087,-599.7 770.087,-599.7 770.087,-580.7 722.087,-580.7"/>
<polygon fill="none" stroke="#000000" points="722.087,-580.7 722.087,-599.7 770.087,-599.7 770.087,-580.7 722.087,-580.7"/>
<text text-anchor="start" x="760.9732" y="-586.8" font-family="Helvetica,sans-Serif" font-size="11.00" fill="#000000"> &#160;</text>
</a>
</g>
</g>
<!-- perustiedot_manual_sync&#45;&gt;opiskeluoikeus -->
<g id="edge4" class="edge">
<title>perustiedot_manual_sync:w&#45;&gt;opiskeluoikeus:e</title>
<path fill="none" stroke="#000000" d="M568.363,-608.7C556.3685,-608.7 548.9099,-608.7 532.087,-608.7"/>
<polygon fill="#000000" stroke="#000000" points="575.087,-608.7001 583.087,-612.3 579.087,-608.7 583.087,-608.7 583.087,-608.7 583.087,-608.7 579.087,-608.7 583.087,-605.1 575.087,-608.7001 575.087,-608.7001"/>
<ellipse fill="none" stroke="#000000" cx="571.887" cy="-608.7001" rx="3.2" ry="3.2"/>
</g>
<!-- perustiedot_sync -->
<g id="node5" class="node">
<title>perustiedot_sync</title>
<g id="a_node5"><a xlink:href="../../tables/perustiedot_sync.html" xlink:title="perustiedot_sync" target="_top">
<polygon fill="#ffffff" stroke="transparent" points="607.087,-677.2 607.087,-738.2 745.087,-738.2 745.087,-677.2 607.087,-677.2"/>
<polygon fill="#f5f5f5" stroke="transparent" points="607.087,-714.7 607.087,-737.7 745.087,-737.7 745.087,-714.7 607.087,-714.7"/>
<polygon fill="none" stroke="#000000" points="607.087,-714.7 607.087,-737.7 745.087,-737.7 745.087,-714.7 607.087,-714.7"/>
<text text-anchor="start" x="612.087" y="-723.3" font-family="Helvetica,sans-Serif" font-weight="bold" font-size="11.00" fill="#000000">perustiedot_sync</text>
<text text-anchor="start" x="710.6089" y="-722.8" font-family="Helvetica,sans-Serif" font-size="11.00" fill="#000000">[table]</text>
<polygon fill="none" stroke="#000000" points="607.087,-695.7 607.087,-714.7 745.087,-714.7 745.087,-695.7 607.087,-695.7"/>
<text text-anchor="start" x="610.087" y="-701.8" font-family="Helvetica,sans-Serif" font-size="11.00" fill="#000000">...</text>
<polygon fill="#ffffff" stroke="transparent" points="607.087,-676.7 607.087,-695.7 661.087,-695.7 661.087,-676.7 607.087,-676.7"/>
<polygon fill="none" stroke="#000000" points="607.087,-676.7 607.087,-695.7 661.087,-695.7 661.087,-676.7 607.087,-676.7"/>
<text text-anchor="start" x="610.087" y="-682.8" font-family="Helvetica,sans-Serif" font-size="11.00" fill="#000000">&lt; 1</text>
<polygon fill="#ffffff" stroke="transparent" points="661.087,-676.7 661.087,-695.7 716.087,-695.7 716.087,-676.7 661.087,-676.7"/>
<polygon fill="none" stroke="#000000" points="661.087,-676.7 661.087,-695.7 716.087,-695.7 716.087,-676.7 661.087,-676.7"/>
<text text-anchor="start" x="680.6975" y="-682.8" font-family="Helvetica,sans-Serif" font-size="11.00" fill="#000000">0 rows</text>
<polygon fill="#ffffff" stroke="transparent" points="716.087,-676.7 716.087,-695.7 745.087,-695.7 745.087,-676.7 716.087,-676.7"/>
<polygon fill="none" stroke="#000000" points="716.087,-676.7 716.087,-695.7 745.087,-695.7 745.087,-676.7 716.087,-676.7"/>
<text text-anchor="start" x="735.9732" y="-682.8" font-family="Helvetica,sans-Serif" font-size="11.00" fill="#000000"> &#160;</text>
</a>
</g>
</g>
<!-- perustiedot_sync&#45;&gt;opiskeluoikeus -->
<g id="edge5" class="edge">
<title>perustiedot_sync:w&#45;&gt;opiskeluoikeus:e</title>
<path fill="none" stroke="#000000" d="M592.6318,-705.6623C570.1919,-708.8253 560.5654,-718.7 532.087,-718.7"/>
<polygon fill="#000000" stroke="#000000" points="599.1047,-705.2314 607.3262,-708.292 603.0958,-704.9657 607.087,-704.7 607.087,-704.7 607.087,-704.7 603.0958,-704.9657 606.8479,-701.108 599.1047,-705.2314 599.1047,-705.2314"/>
<ellipse fill="none" stroke="#000000" cx="595.9117" cy="-705.444" rx="3.2" ry="3.2"/>
</g>
<!-- ytr_opiskeluoikeus -->
<g id="node6" class="node">
<title>ytr_opiskeluoikeus</title>
<g id="a_node6"><a xlink:href="../../tables/ytr_opiskeluoikeus.html" xlink:title="ytr_opiskeluoikeus" target="_top">
<polygon fill="#ffffff" stroke="transparent" points="278.587,-38.2 278.587,-385.2 531.587,-385.2 531.587,-38.2 278.587,-38.2"/>
<polygon fill="#f5f5f5" stroke="transparent" points="279.087,-361.7 279.087,-384.7 532.087,-384.7 532.087,-361.7 279.087,-361.7"/>
<polygon fill="none" stroke="#000000" points="279.087,-361.7 279.087,-384.7 532.087,-384.7 532.087,-361.7 279.087,-361.7"/>
<text text-anchor="start" x="284.087" y="-370.3" font-family="Helvetica,sans-Serif" font-weight="bold" font-size="11.00" fill="#000000">ytr_opiskeluoikeus</text>
<text text-anchor="start" x="497.1307" y="-369.8" font-family="Helvetica,sans-Serif" font-size="11.00" fill="#000000">[table]</text>
<polygon fill="none" stroke="#000000" points="279.087,-339.7 279.087,-361.7 532.087,-361.7 532.087,-339.7 279.087,-339.7"/>
<image xlink:href="../../images/primaryKeys.png" width="11px" height="12px" preserveAspectRatio="xMinYMin meet" x="284.087" y="-356.7"/>
<text text-anchor="start" x="299.087" y="-346.8" font-family="Helvetica,sans-Serif" font-size="11.00" fill="#000000">id</text>
<polygon fill="#ffffff" stroke="transparent" points="279.087,-317.7 279.087,-339.7 532.087,-339.7 532.087,-317.7 279.087,-317.7"/>
<polygon fill="none" stroke="#000000" points="279.087,-317.7 279.087,-339.7 532.087,-339.7 532.087,-317.7 279.087,-317.7"/>
<image xlink:href="../../images/foreignKeys.png" width="11px" height="12px" preserveAspectRatio="xMinYMin meet" x="284.087" y="-334.7"/>
<text text-anchor="start" x="299.087" y="-324.8" font-family="Helvetica,sans-Serif" font-size="11.00" fill="#000000">oppija_oid</text>
<polygon fill="#ffffff" stroke="transparent" points="279.087,-295.7 279.087,-317.7 532.087,-317.7 532.087,-295.7 279.087,-295.7"/>
<polygon fill="none" stroke="#000000" points="279.087,-295.7 279.087,-317.7 532.087,-317.7 532.087,-295.7 279.087,-295.7"/>
<text text-anchor="start" x="299.087" y="-302.8" font-family="Helvetica,sans-Serif" font-size="11.00" fill="#000000">aikaleima</text>
<polygon fill="#ffffff" stroke="transparent" points="279.087,-273.7 279.087,-295.7 532.087,-295.7 532.087,-273.7 279.087,-273.7"/>
<polygon fill="none" stroke="#000000" points="279.087,-273.7 279.087,-295.7 532.087,-295.7 532.087,-273.7 279.087,-273.7"/>
<text text-anchor="start" x="299.087" y="-280.8" font-family="Helvetica,sans-Serif" font-size="11.00" fill="#000000">oppilaitos_oid</text>
<polygon fill="#ffffff" stroke="transparent" points="279.087,-251.7 279.087,-273.7 532.087,-273.7 532.087,-251.7 279.087,-251.7"/>
<polygon fill="none" stroke="#000000" points="279.087,-251.7 279.087,-273.7 532.087,-273.7 532.087,-251.7 279.087,-251.7"/>
<text text-anchor="start" x="299.087" y="-258.8" font-family="Helvetica,sans-Serif" font-size="11.00" fill="#000000">sisaltava_opiskeluoikeus_oppilaitos_oid</text>
<polygon fill="#ffffff" stroke="transparent" points="279.087,-229.7 279.087,-251.7 532.087,-251.7 532.087,-229.7 279.087,-229.7"/>
<polygon fill="none" stroke="#000000" points="279.087,-229.7 279.087,-251.7 532.087,-251.7 532.087,-229.7 279.087,-229.7"/>
<text text-anchor="start" x="299.087" y="-236.8" font-family="Helvetica,sans-Serif" font-size="11.00" fill="#000000">oid</text>
<polygon fill="none" stroke="#000000" points="279.087,-207.7 279.087,-229.7 532.087,-229.7 532.087,-207.7 279.087,-207.7"/>
<image xlink:href="../../images/foreignKeys.png" width="11px" height="12px" preserveAspectRatio="xMinYMin meet" x="284.087" y="-224.7"/>
<text text-anchor="start" x="299.087" y="-214.8" font-family="Helvetica,sans-Serif" font-size="11.00" fill="#000000">sisaltava_opiskeluoikeus_oid</text>
<polygon fill="#ffffff" stroke="transparent" points="279.087,-185.7 279.087,-207.7 532.087,-207.7 532.087,-185.7 279.087,-185.7"/>
<polygon fill="none" stroke="#000000" points="279.087,-185.7 279.087,-207.7 532.087,-207.7 532.087,-185.7 279.087,-185.7"/>
<text text-anchor="start" x="299.087" y="-192.8" font-family="Helvetica,sans-Serif" font-size="11.00" fill="#000000">mitatoity</text>
<polygon fill="#ffffff" stroke="transparent" points="279.087,-163.7 279.087,-185.7 532.087,-185.7 532.087,-163.7 279.087,-163.7"/>
<polygon fill="none" stroke="#000000" points="279.087,-163.7 279.087,-185.7 532.087,-185.7 532.087,-163.7 279.087,-163.7"/>
<text text-anchor="start" x="299.087" y="-170.8" font-family="Helvetica,sans-Serif" font-size="11.00" fill="#000000">koulutusmuoto</text>
<polygon fill="#ffffff" stroke="transparent" points="279.087,-141.7 279.087,-163.7 532.087,-163.7 532.087,-141.7 279.087,-141.7"/>
<polygon fill="none" stroke="#000000" points="279.087,-141.7 279.087,-163.7 532.087,-163.7 532.087,-141.7 279.087,-141.7"/>
<text text-anchor="start" x="299.087" y="-148.8" font-family="Helvetica,sans-Serif" font-size="11.00" fill="#000000">alkamispaiva</text>
<polygon fill="#ffffff" stroke="transparent" points="279.087,-119.7 279.087,-141.7 532.087,-141.7 532.087,-119.7 279.087,-119.7"/>
<polygon fill="none" stroke="#000000" points="279.087,-119.7 279.087,-141.7 532.087,-141.7 532.087,-119.7 279.087,-119.7"/>
<text text-anchor="start" x="299.087" y="-126.8" font-family="Helvetica,sans-Serif" font-size="11.00" fill="#000000">paattymispaiva</text>
<polygon fill="#ffffff" stroke="transparent" points="279.087,-97.7 279.087,-119.7 532.087,-119.7 532.087,-97.7 279.087,-97.7"/>
<polygon fill="none" stroke="#000000" points="279.087,-97.7 279.087,-119.7 532.087,-119.7 532.087,-97.7 279.087,-97.7"/>
<text text-anchor="start" x="299.087" y="-104.8" font-family="Helvetica,sans-Serif" font-size="11.00" fill="#000000">suoritustyypit</text>
<polygon fill="#ffffff" stroke="transparent" points="279.087,-75.7 279.087,-97.7 532.087,-97.7 532.087,-75.7 279.087,-75.7"/>
<polygon fill="none" stroke="#000000" points="279.087,-75.7 279.087,-97.7 532.087,-97.7 532.087,-75.7 279.087,-75.7"/>
<text text-anchor="start" x="299.087" y="-82.8" font-family="Helvetica,sans-Serif" font-size="11.00" fill="#000000">poistettu</text>
<polygon fill="none" stroke="#000000" points="279.087,-56.7 279.087,-75.7 532.087,-75.7 532.087,-56.7 279.087,-56.7"/>
<text text-anchor="start" x="282.087" y="-62.8" font-family="Helvetica,sans-Serif" font-size="11.00" fill="#000000">...</text>
<polygon fill="#ffffff" stroke="transparent" points="279.087,-37.7 279.087,-56.7 386.087,-56.7 386.087,-37.7 279.087,-37.7"/>
<polygon fill="none" stroke="#000000" points="279.087,-37.7 279.087,-56.7 386.087,-56.7 386.087,-37.7 279.087,-37.7"/>
<text text-anchor="start" x="282.087" y="-43.8" font-family="Helvetica,sans-Serif" font-size="11.00" fill="#000000">&lt; 2</text>
<polygon fill="#ffffff" stroke="transparent" points="386.087,-37.7 386.087,-56.7 467.087,-56.7 467.087,-37.7 386.087,-37.7"/>
<polygon fill="none" stroke="#000000" points="386.087,-37.7 386.087,-56.7 467.087,-56.7 467.087,-37.7 386.087,-37.7"/>
<text text-anchor="start" x="431.6975" y="-43.8" font-family="Helvetica,sans-Serif" font-size="11.00" fill="#000000">0 rows</text>
<polygon fill="#ffffff" stroke="transparent" points="467.087,-37.7 467.087,-56.7 532.087,-56.7 532.087,-37.7 467.087,-37.7"/>
<polygon fill="none" stroke="#000000" points="467.087,-37.7 467.087,-56.7 532.087,-56.7 532.087,-37.7 467.087,-37.7"/>
<text text-anchor="start" x="513.4923" y="-43.8" font-family="Helvetica,sans-Serif" font-size="11.00" fill="#000000">2 &gt;</text>
</a>
</g>
</g>
<!-- ytr_opiskeluoikeus&#45;&gt;henkilo -->
<g id="edge6" class="edge">
<title>ytr_opiskeluoikeus:w&#45;&gt;henkilo:e</title>
<path fill="none" stroke="#000000" d="M268.4535,-329.875C204.9089,-345.5457 308.9701,-512.7 228.087,-512.7"/>
<polygon fill="#000000" stroke="#000000" points="277.8525,-324.8121 278.7312,-332.7637 277.1409,-332.9394 276.2622,-324.9878 277.8525,-324.8121"/>
<polyline fill="none" stroke="#000000" points="279.087,-328.7 275.1112,-329.1394 "/>
<ellipse fill="none" stroke="#000000" cx="271.9306" cy="-329.4908" rx="3.2" ry="3.2"/>
</g>
<!-- ytr_opiskeluoikeushistoria -->
<g id="node7" class="node">
<title>ytr_opiskeluoikeushistoria</title>
<g id="a_node7"><a xlink:href="../../tables/ytr_opiskeluoikeushistoria.html" xlink:title="ytr_opiskeluoikeushistoria" target="_top">
<polygon fill="#ffffff" stroke="transparent" points="580.587,-323.2 580.587,-384.2 771.587,-384.2 771.587,-323.2 580.587,-323.2"/>
<polygon fill="#f5f5f5" stroke="transparent" points="581.087,-360.7 581.087,-383.7 772.087,-383.7 772.087,-360.7 581.087,-360.7"/>
<polygon fill="none" stroke="#000000" points="581.087,-360.7 581.087,-383.7 772.087,-383.7 772.087,-360.7 581.087,-360.7"/>
<text text-anchor="start" x="586.087" y="-369.3" font-family="Helvetica,sans-Serif" font-weight="bold" font-size="11.00" fill="#000000">ytr_opiskeluoikeushistoria</text>
<text text-anchor="start" x="737.6089" y="-368.8" font-family="Helvetica,sans-Serif" font-size="11.00" fill="#000000">[table]</text>
<polygon fill="none" stroke="#000000" points="581.087,-341.7 581.087,-360.7 772.087,-360.7 772.087,-341.7 581.087,-341.7"/>
<text text-anchor="start" x="584.087" y="-347.8" font-family="Helvetica,sans-Serif" font-size="11.00" fill="#000000">...</text>
<polygon fill="#ffffff" stroke="transparent" points="581.087,-322.7 581.087,-341.7 662.087,-341.7 662.087,-322.7 581.087,-322.7"/>
<polygon fill="none" stroke="#000000" points="581.087,-322.7 581.087,-341.7 662.087,-341.7 662.087,-322.7 581.087,-322.7"/>
<text text-anchor="start" x="584.087" y="-328.8" font-family="Helvetica,sans-Serif" font-size="11.00" fill="#000000">&lt; 1</text>
<polygon fill="#ffffff" stroke="transparent" points="662.087,-322.7 662.087,-341.7 730.087,-341.7 730.087,-322.7 662.087,-322.7"/>
<polygon fill="none" stroke="#000000" points="662.087,-322.7 662.087,-341.7 730.087,-341.7 730.087,-322.7 662.087,-322.7"/>
<text text-anchor="start" x="694.6975" y="-328.8" font-family="Helvetica,sans-Serif" font-size="11.00" fill="#000000">0 rows</text>
<polygon fill="#ffffff" stroke="transparent" points="730.087,-322.7 730.087,-341.7 772.087,-341.7 772.087,-322.7 730.087,-322.7"/>
<polygon fill="none" stroke="#000000" points="730.087,-322.7 730.087,-341.7 772.087,-341.7 772.087,-322.7 730.087,-322.7"/>
<text text-anchor="start" x="762.9732" y="-328.8" font-family="Helvetica,sans-Serif" font-size="11.00" fill="#000000"> &#160;</text>
</a>
</g>
</g>
<!-- ytr_opiskeluoikeushistoria&#45;&gt;ytr_opiskeluoikeus -->
<g id="edge7" class="edge">
<title>ytr_opiskeluoikeushistoria:w&#45;&gt;ytr_opiskeluoikeus:e</title>
<path fill="none" stroke="#000000" d="M566.5779,-350.7C555.2644,-350.7 548.0801,-350.7 532.087,-350.7"/>
<polygon fill="#000000" stroke="#000000" points="573.087,-350.7001 581.087,-354.3 577.087,-350.7 581.087,-350.7 581.087,-350.7 581.087,-350.7 577.087,-350.7 581.087,-347.1 573.087,-350.7001 573.087,-350.7001"/>
<ellipse fill="none" stroke="#000000" cx="569.887" cy="-350.7001" rx="3.2" ry="3.2"/>
</g>
</g>
</svg>
