<?xml version="1.0" encoding="UTF-8" standalone="no"?>
<!DOCTYPE svg PUBLIC "-//W3C//DTD SVG 1.1//EN"
 "http://www.w3.org/Graphics/SVG/1.1/DTD/svg11.dtd">
<!-- Generated by graphviz version 2.40.1 (20161225.0304)
 -->
<!-- Title: oneDegreeRelationshipsDiagram Pages: 1 -->
<svg width="548pt" height="765pt"
 viewBox="0.00 0.00 547.59 765.20" xmlns="http://www.w3.org/2000/svg" xmlns:xlink="http://www.w3.org/1999/xlink">
<g id="graph0" class="graph" transform="scale(1 1) rotate(0) translate(4 761.2)">
<title>oneDegreeRelationshipsDiagram</title>
<polygon fill="#ffffff" stroke="transparent" points="-4,4 -4,-761.2 543.587,-761.2 543.587,4 -4,4"/>
<text text-anchor="middle" x="72.4936" y="-7.3" font-family="Helvetica,sans-Serif" font-size="11.00" fill="#000000">Generated by SchemaSpy</text>
<!-- henkilo -->
<g id="node1" class="node">
<title>henkilo</title>
<g id="a_node1"><a xlink:href="../../tables/henkilo.html" xlink:title="henkilo" target="_top">
<polygon fill="#ffffff" stroke="transparent" points="40.587,-392.7 40.587,-548.7 229.587,-548.7 229.587,-392.7 40.587,-392.7"/>
<polygon fill="#f5f5f5" stroke="transparent" points="43.087,-523.7 43.087,-546.7 228.087,-546.7 228.087,-523.7 43.087,-523.7"/>
<polygon fill="none" stroke="#000000" points="43.087,-523.7 43.087,-546.7 228.087,-546.7 228.087,-523.7 43.087,-523.7"/>
<text text-anchor="start" x="48.087" y="-532.3" font-family="Helvetica,sans-Serif" font-weight="bold" font-size="11.00" fill="#000000">henkilo</text>
<text text-anchor="start" x="193.1307" y="-531.8" font-family="Helvetica,sans-Serif" font-size="11.00" fill="#000000">[table]</text>
<polygon fill="none" stroke="#000000" points="43.087,-501.7 43.087,-523.7 138.087,-523.7 138.087,-501.7 43.087,-501.7"/>
<image xlink:href="../../images/primaryKeys.png" width="11px" height="12px" preserveAspectRatio="xMinYMin meet" x="48.087" y="-518.7"/>
<text text-anchor="start" x="63.087" y="-508.8" font-family="Helvetica,sans-Serif" font-size="11.00" fill="#000000">oid</text>
<polygon fill="none" stroke="#000000" points="138.087,-501.7 138.087,-523.7 228.087,-523.7 228.087,-501.7 138.087,-501.7"/>
<text text-anchor="start" x="140.5913" y="-509.4" font-family="Helvetica,sans-Serif" font-size="11.00" fill="#000000">text[2147483647]</text>
<polygon fill="none" stroke="#000000" points="43.087,-479.7 43.087,-501.7 138.087,-501.7 138.087,-479.7 43.087,-479.7"/>
<text text-anchor="start" x="63.087" y="-486.8" font-family="Helvetica,sans-Serif" font-size="11.00" fill="#000000">sukunimi</text>
<polygon fill="none" stroke="#000000" points="138.087,-479.7 138.087,-501.7 228.087,-501.7 228.087,-479.7 138.087,-479.7"/>
<text text-anchor="start" x="140.5913" y="-487.4" font-family="Helvetica,sans-Serif" font-size="11.00" fill="#000000">text[2147483647]</text>
<polygon fill="none" stroke="#000000" points="43.087,-457.7 43.087,-479.7 138.087,-479.7 138.087,-457.7 43.087,-457.7"/>
<text text-anchor="start" x="63.087" y="-464.8" font-family="Helvetica,sans-Serif" font-size="11.00" fill="#000000">etunimet</text>
<polygon fill="none" stroke="#000000" points="138.087,-457.7 138.087,-479.7 228.087,-479.7 228.087,-457.7 138.087,-457.7"/>
<text text-anchor="start" x="140.5913" y="-465.4" font-family="Helvetica,sans-Serif" font-size="11.00" fill="#000000">text[2147483647]</text>
<polygon fill="none" stroke="#000000" points="43.087,-435.7 43.087,-457.7 138.087,-457.7 138.087,-435.7 43.087,-435.7"/>
<text text-anchor="start" x="63.087" y="-442.8" font-family="Helvetica,sans-Serif" font-size="11.00" fill="#000000">kutsumanimi</text>
<polygon fill="none" stroke="#000000" points="138.087,-435.7 138.087,-457.7 228.087,-457.7 228.087,-435.7 138.087,-435.7"/>
<text text-anchor="start" x="140.5913" y="-443.4" font-family="Helvetica,sans-Serif" font-size="11.00" fill="#000000">text[2147483647]</text>
<polygon fill="#ffffff" stroke="transparent" points="43.087,-413.7 43.087,-435.7 138.087,-435.7 138.087,-413.7 43.087,-413.7"/>
<polygon fill="none" stroke="#000000" points="43.087,-413.7 43.087,-435.7 138.087,-435.7 138.087,-413.7 43.087,-413.7"/>
<image xlink:href="../../images/foreignKeys.png" width="11px" height="12px" preserveAspectRatio="xMinYMin meet" x="48.087" y="-430.7"/>
<text text-anchor="start" x="63.087" y="-420.8" font-family="Helvetica,sans-Serif" font-size="11.00" fill="#000000">master_oid</text>
<polygon fill="none" stroke="#000000" points="138.087,-413.7 138.087,-435.7 228.087,-435.7 228.087,-413.7 138.087,-413.7"/>
<text text-anchor="start" x="140.5913" y="-421.4" font-family="Helvetica,sans-Serif" font-size="11.00" fill="#000000">text[2147483647]</text>
<polygon fill="#ffffff" stroke="transparent" points="43.087,-394.7 43.087,-413.7 76.087,-413.7 76.087,-394.7 43.087,-394.7"/>
<polygon fill="none" stroke="#000000" points="43.087,-394.7 43.087,-413.7 76.087,-413.7 76.087,-394.7 43.087,-394.7"/>
<text text-anchor="start" x="46.087" y="-400.8" font-family="Helvetica,sans-Serif" font-size="11.00" fill="#000000">&lt; 1</text>
<polygon fill="#ffffff" stroke="transparent" points="76.087,-394.7 76.087,-413.7 138.087,-413.7 138.087,-394.7 76.087,-394.7"/>
<polygon fill="none" stroke="#000000" points="76.087,-394.7 76.087,-413.7 138.087,-413.7 138.087,-394.7 76.087,-394.7"/>
<text text-anchor="start" x="90.4677" y="-400.8" font-family="Helvetica,sans-Serif" font-size="11.00" fill="#000000">184 rows</text>
<polygon fill="#ffffff" stroke="transparent" points="138.087,-394.7 138.087,-413.7 228.087,-413.7 228.087,-394.7 138.087,-394.7"/>
<polygon fill="none" stroke="#000000" points="138.087,-394.7 138.087,-413.7 228.087,-413.7 228.087,-394.7 138.087,-394.7"/>
<text text-anchor="start" x="209.4923" y="-400.8" font-family="Helvetica,sans-Serif" font-size="11.00" fill="#000000">3 &gt;</text>
<polygon fill="none" stroke="#000000" stroke-width="2" points="41.587,-393.7 41.587,-547.7 228.587,-547.7 228.587,-393.7 41.587,-393.7"/>
</a>
</g>
</g>
<!-- henkilo&#45;&gt;henkilo -->
<g id="edge1" class="edge">
<title>henkilo:w&#45;&gt;henkilo:e</title>
<path fill="none" stroke="#000000" d="M30.5598,-431.9813C-23.7074,-470.4054 -13.788,-565.7 135.587,-565.7 295.587,-565.7 295.587,-544.3667 228.087,-512.7"/>
<polygon fill="#000000" stroke="#000000" points="36.1705,-428.7202 44.8961,-427.8124 39.6287,-426.7101 43.087,-424.7 43.087,-424.7 43.087,-424.7 39.6287,-426.7101 41.2779,-421.5876 36.1705,-428.7202 36.1705,-428.7202"/>
<ellipse fill="none" stroke="#000000" cx="33.4039" cy="-430.3283" rx="3.2" ry="3.2"/>
</g>
<!-- opiskeluoikeus -->
<g id="node2" class="node">
<title>opiskeluoikeus</title>
<g id="a_node2"><a xlink:href="../../tables/opiskeluoikeus.html" xlink:title="opiskeluoikeus" target="_top">
<polygon fill="#ffffff" stroke="transparent" points="278.587,-406.2 278.587,-753.2 531.587,-753.2 531.587,-406.2 278.587,-406.2"/>
<polygon fill="#f5f5f5" stroke="transparent" points="279.087,-729.7 279.087,-752.7 532.087,-752.7 532.087,-729.7 279.087,-729.7"/>
<polygon fill="none" stroke="#000000" points="279.087,-729.7 279.087,-752.7 532.087,-752.7 532.087,-729.7 279.087,-729.7"/>
<text text-anchor="start" x="284.087" y="-738.3" font-family="Helvetica,sans-Serif" font-weight="bold" font-size="11.00" fill="#000000">opiskeluoikeus</text>
<text text-anchor="start" x="497.1307" y="-737.8" font-family="Helvetica,sans-Serif" font-size="11.00" fill="#000000">[table]</text>
<polygon fill="none" stroke="#000000" points="279.087,-707.7 279.087,-729.7 532.087,-729.7 532.087,-707.7 279.087,-707.7"/>
<image xlink:href="../../images/primaryKeys.png" width="11px" height="12px" preserveAspectRatio="xMinYMin meet" x="284.087" y="-724.7"/>
<text text-anchor="start" x="299.087" y="-714.8" font-family="Helvetica,sans-Serif" font-size="11.00" fill="#000000">id</text>
<polygon fill="#ffffff" stroke="transparent" points="279.087,-685.7 279.087,-707.7 532.087,-707.7 532.087,-685.7 279.087,-685.7"/>
<polygon fill="none" stroke="#000000" points="279.087,-685.7 279.087,-707.7 532.087,-707.7 532.087,-685.7 279.087,-685.7"/>
<image xlink:href="../../images/foreignKeys.png" width="11px" height="12px" preserveAspectRatio="xMinYMin meet" x="284.087" y="-702.7"/>
<text text-anchor="start" x="299.087" y="-692.8" font-family="Helvetica,sans-Serif" font-size="11.00" fill="#000000">oppija_oid</text>
<polygon fill="#ffffff" stroke="transparent" points="279.087,-663.7 279.087,-685.7 532.087,-685.7 532.087,-663.7 279.087,-663.7"/>
<polygon fill="none" stroke="#000000" points="279.087,-663.7 279.087,-685.7 532.087,-685.7 532.087,-663.7 279.087,-663.7"/>
<text text-anchor="start" x="299.087" y="-670.8" font-family="Helvetica,sans-Serif" font-size="11.00" fill="#000000">aikaleima</text>
<polygon fill="#ffffff" stroke="transparent" points="279.087,-641.7 279.087,-663.7 532.087,-663.7 532.087,-641.7 279.087,-641.7"/>
<polygon fill="none" stroke="#000000" points="279.087,-641.7 279.087,-663.7 532.087,-663.7 532.087,-641.7 279.087,-641.7"/>
<text text-anchor="start" x="299.087" y="-648.8" font-family="Helvetica,sans-Serif" font-size="11.00" fill="#000000">oppilaitos_oid</text>
<polygon fill="#ffffff" stroke="transparent" points="279.087,-619.7 279.087,-641.7 532.087,-641.7 532.087,-619.7 279.087,-619.7"/>
<polygon fill="none" stroke="#000000" points="279.087,-619.7 279.087,-641.7 532.087,-641.7 532.087,-619.7 279.087,-619.7"/>
<text text-anchor="start" x="299.087" y="-626.8" font-family="Helvetica,sans-Serif" font-size="11.00" fill="#000000">sisaltava_opiskeluoikeus_oppilaitos_oid</text>
<polygon fill="#ffffff" stroke="transparent" points="279.087,-597.7 279.087,-619.7 532.087,-619.7 532.087,-597.7 279.087,-597.7"/>
<polygon fill="none" stroke="#000000" points="279.087,-597.7 279.087,-619.7 532.087,-619.7 532.087,-597.7 279.087,-597.7"/>
<text text-anchor="start" x="299.087" y="-604.8" font-family="Helvetica,sans-Serif" font-size="11.00" fill="#000000">oid</text>
<polygon fill="none" stroke="#000000" points="279.087,-575.7 279.087,-597.7 532.087,-597.7 532.087,-575.7 279.087,-575.7"/>
<image xlink:href="../../images/foreignKeys.png" width="11px" height="12px" preserveAspectRatio="xMinYMin meet" x="284.087" y="-592.7"/>
<text text-anchor="start" x="299.087" y="-582.8" font-family="Helvetica,sans-Serif" font-size="11.00" fill="#000000">sisaltava_opiskeluoikeus_oid</text>
<polygon fill="#ffffff" stroke="transparent" points="279.087,-553.7 279.087,-575.7 532.087,-575.7 532.087,-553.7 279.087,-553.7"/>
<polygon fill="none" stroke="#000000" points="279.087,-553.7 279.087,-575.7 532.087,-575.7 532.087,-553.7 279.087,-553.7"/>
<text text-anchor="start" x="299.087" y="-560.8" font-family="Helvetica,sans-Serif" font-size="11.00" fill="#000000">mitatoity</text>
<polygon fill="#ffffff" stroke="transparent" points="279.087,-531.7 279.087,-553.7 532.087,-553.7 532.087,-531.7 279.087,-531.7"/>
<polygon fill="none" stroke="#000000" points="279.087,-531.7 279.087,-553.7 532.087,-553.7 532.087,-531.7 279.087,-531.7"/>
<text text-anchor="start" x="299.087" y="-538.8" font-family="Helvetica,sans-Serif" font-size="11.00" fill="#000000">koulutusmuoto</text>
<polygon fill="#ffffff" stroke="transparent" points="279.087,-509.7 279.087,-531.7 532.087,-531.7 532.087,-509.7 279.087,-509.7"/>
<polygon fill="none" stroke="#000000" points="279.087,-509.7 279.087,-531.7 532.087,-531.7 532.087,-509.7 279.087,-509.7"/>
<text text-anchor="start" x="299.087" y="-516.8" font-family="Helvetica,sans-Serif" font-size="11.00" fill="#000000">alkamispaiva</text>
<polygon fill="#ffffff" stroke="transparent" points="279.087,-487.7 279.087,-509.7 532.087,-509.7 532.087,-487.7 279.087,-487.7"/>
<polygon fill="none" stroke="#000000" points="279.087,-487.7 279.087,-509.7 532.087,-509.7 532.087,-487.7 279.087,-487.7"/>
<text text-anchor="start" x="299.087" y="-494.8" font-family="Helvetica,sans-Serif" font-size="11.00" fill="#000000">paattymispaiva</text>
<polygon fill="#ffffff" stroke="transparent" points="279.087,-465.7 279.087,-487.7 532.087,-487.7 532.087,-465.7 279.087,-465.7"/>
<polygon fill="none" stroke="#000000" points="279.087,-465.7 279.087,-487.7 532.087,-487.7 532.087,-465.7 279.087,-465.7"/>
<text text-anchor="start" x="299.087" y="-472.8" font-family="Helvetica,sans-Serif" font-size="11.00" fill="#000000">suoritustyypit</text>
<polygon fill="#ffffff" stroke="transparent" points="279.087,-443.7 279.087,-465.7 532.087,-465.7 532.087,-443.7 279.087,-443.7"/>
<polygon fill="none" stroke="#000000" points="279.087,-443.7 279.087,-465.7 532.087,-465.7 532.087,-443.7 279.087,-443.7"/>
<text text-anchor="start" x="299.087" y="-450.8" font-family="Helvetica,sans-Serif" font-size="11.00" fill="#000000">poistettu</text>
<polygon fill="none" stroke="#000000" points="279.087,-424.7 279.087,-443.7 532.087,-443.7 532.087,-424.7 279.087,-424.7"/>
<text text-anchor="start" x="282.087" y="-430.8" font-family="Helvetica,sans-Serif" font-size="11.00" fill="#000000">...</text>
<polygon fill="#ffffff" stroke="transparent" points="279.087,-405.7 279.087,-424.7 380.087,-424.7 380.087,-405.7 279.087,-405.7"/>
<polygon fill="none" stroke="#000000" points="279.087,-405.7 279.087,-424.7 380.087,-424.7 380.087,-405.7 279.087,-405.7"/>
<text text-anchor="start" x="282.087" y="-411.8" font-family="Helvetica,sans-Serif" font-size="11.00" fill="#000000">&lt; 2</text>
<polygon fill="#ffffff" stroke="transparent" points="380.087,-405.7 380.087,-424.7 470.087,-424.7 470.087,-405.7 380.087,-405.7"/>
<polygon fill="none" stroke="#000000" points="380.087,-405.7 380.087,-424.7 470.087,-424.7 470.087,-405.7 380.087,-405.7"/>
<text text-anchor="start" x="422.4677" y="-411.8" font-family="Helvetica,sans-Serif" font-size="11.00" fill="#000000">153 rows</text>
<polygon fill="#ffffff" stroke="transparent" points="470.087,-405.7 470.087,-424.7 532.087,-424.7 532.087,-405.7 470.087,-405.7"/>
<polygon fill="none" stroke="#000000" points="470.087,-405.7 470.087,-424.7 532.087,-424.7 532.087,-405.7 470.087,-405.7"/>
<text text-anchor="start" x="513.4923" y="-411.8" font-family="Helvetica,sans-Serif" font-size="11.00" fill="#000000">4 &gt;</text>
</a>
</g>
</g>
<!-- opiskeluoikeus&#45;&gt;henkilo -->
<g id="edge2" class="edge">
<title>opiskeluoikeus:w&#45;&gt;henkilo:e</title>
<path fill="none" stroke="#000000" d="M268.4535,-695.525C204.9089,-679.8543 308.9701,-512.7 228.087,-512.7"/>
<polygon fill="#000000" stroke="#000000" points="278.7312,-692.6363 277.8525,-700.5879 276.2622,-700.4122 277.1409,-692.4606 278.7312,-692.6363"/>
<polyline fill="none" stroke="#000000" points="279.087,-696.7 275.1112,-696.2606 "/>
<ellipse fill="none" stroke="#000000" cx="271.9306" cy="-695.9092" rx="3.2" ry="3.2"/>
</g>
<!-- ytr_opiskeluoikeus -->
<g id="node3" class="node">
<title>ytr_opiskeluoikeus</title>
<g id="a_node3"><a xlink:href="../../tables/ytr_opiskeluoikeus.html" xlink:title="ytr_opiskeluoikeus" target="_top">
<polygon fill="#ffffff" stroke="transparent" points="278.587,-38.2 278.587,-385.2 531.587,-385.2 531.587,-38.2 278.587,-38.2"/>
<polygon fill="#f5f5f5" stroke="transparent" points="279.087,-361.7 279.087,-384.7 532.087,-384.7 532.087,-361.7 279.087,-361.7"/>
<polygon fill="none" stroke="#000000" points="279.087,-361.7 279.087,-384.7 532.087,-384.7 532.087,-361.7 279.087,-361.7"/>
<text text-anchor="start" x="284.087" y="-370.3" font-family="Helvetica,sans-Serif" font-weight="bold" font-size="11.00" fill="#000000">ytr_opiskeluoikeus</text>
<text text-anchor="start" x="497.1307" y="-369.8" font-family="Helvetica,sans-Serif" font-size="11.00" fill="#000000">[table]</text>
<polygon fill="none" stroke="#000000" points="279.087,-339.7 279.087,-361.7 532.087,-361.7 532.087,-339.7 279.087,-339.7"/>
<image xlink:href="../../images/primaryKeys.png" width="11px" height="12px" preserveAspectRatio="xMinYMin meet" x="284.087" y="-356.7"/>
<text text-anchor="start" x="299.087" y="-346.8" font-family="Helvetica,sans-Serif" font-size="11.00" fill="#000000">id</text>
<polygon fill="#ffffff" stroke="transparent" points="279.087,-317.7 279.087,-339.7 532.087,-339.7 532.087,-317.7 279.087,-317.7"/>
<polygon fill="none" stroke="#000000" points="279.087,-317.7 279.087,-339.7 532.087,-339.7 532.087,-317.7 279.087,-317.7"/>
<image xlink:href="../../images/foreignKeys.png" width="11px" height="12px" preserveAspectRatio="xMinYMin meet" x="284.087" y="-334.7"/>
<text text-anchor="start" x="299.087" y="-324.8" font-family="Helvetica,sans-Serif" font-size="11.00" fill="#000000">oppija_oid</text>
<polygon fill="#ffffff" stroke="transparent" points="279.087,-295.7 279.087,-317.7 532.087,-317.7 532.087,-295.7 279.087,-295.7"/>
<polygon fill="none" stroke="#000000" points="279.087,-295.7 279.087,-317.7 532.087,-317.7 532.087,-295.7 279.087,-295.7"/>
<text text-anchor="start" x="299.087" y="-302.8" font-family="Helvetica,sans-Serif" font-size="11.00" fill="#000000">aikaleima</text>
<polygon fill="#ffffff" stroke="transparent" points="279.087,-273.7 279.087,-295.7 532.087,-295.7 532.087,-273.7 279.087,-273.7"/>
<polygon fill="none" stroke="#000000" points="279.087,-273.7 279.087,-295.7 532.087,-295.7 532.087,-273.7 279.087,-273.7"/>
<text text-anchor="start" x="299.087" y="-280.8" font-family="Helvetica,sans-Serif" font-size="11.00" fill="#000000">oppilaitos_oid</text>
<polygon fill="#ffffff" stroke="transparent" points="279.087,-251.7 279.087,-273.7 532.087,-273.7 532.087,-251.7 279.087,-251.7"/>
<polygon fill="none" stroke="#000000" points="279.087,-251.7 279.087,-273.7 532.087,-273.7 532.087,-251.7 279.087,-251.7"/>
<text text-anchor="start" x="299.087" y="-258.8" font-family="Helvetica,sans-Serif" font-size="11.00" fill="#000000">sisaltava_opiskeluoikeus_oppilaitos_oid</text>
<polygon fill="#ffffff" stroke="transparent" points="279.087,-229.7 279.087,-251.7 532.087,-251.7 532.087,-229.7 279.087,-229.7"/>
<polygon fill="none" stroke="#000000" points="279.087,-229.7 279.087,-251.7 532.087,-251.7 532.087,-229.7 279.087,-229.7"/>
<text text-anchor="start" x="299.087" y="-236.8" font-family="Helvetica,sans-Serif" font-size="11.00" fill="#000000">oid</text>
<polygon fill="none" stroke="#000000" points="279.087,-207.7 279.087,-229.7 532.087,-229.7 532.087,-207.7 279.087,-207.7"/>
<image xlink:href="../../images/foreignKeys.png" width="11px" height="12px" preserveAspectRatio="xMinYMin meet" x="284.087" y="-224.7"/>
<text text-anchor="start" x="299.087" y="-214.8" font-family="Helvetica,sans-Serif" font-size="11.00" fill="#000000">sisaltava_opiskeluoikeus_oid</text>
<polygon fill="#ffffff" stroke="transparent" points="279.087,-185.7 279.087,-207.7 532.087,-207.7 532.087,-185.7 279.087,-185.7"/>
<polygon fill="none" stroke="#000000" points="279.087,-185.7 279.087,-207.7 532.087,-207.7 532.087,-185.7 279.087,-185.7"/>
<text text-anchor="start" x="299.087" y="-192.8" font-family="Helvetica,sans-Serif" font-size="11.00" fill="#000000">mitatoity</text>
<polygon fill="#ffffff" stroke="transparent" points="279.087,-163.7 279.087,-185.7 532.087,-185.7 532.087,-163.7 279.087,-163.7"/>
<polygon fill="none" stroke="#000000" points="279.087,-163.7 279.087,-185.7 532.087,-185.7 532.087,-163.7 279.087,-163.7"/>
<text text-anchor="start" x="299.087" y="-170.8" font-family="Helvetica,sans-Serif" font-size="11.00" fill="#000000">koulutusmuoto</text>
<polygon fill="#ffffff" stroke="transparent" points="279.087,-141.7 279.087,-163.7 532.087,-163.7 532.087,-141.7 279.087,-141.7"/>
<polygon fill="none" stroke="#000000" points="279.087,-141.7 279.087,-163.7 532.087,-163.7 532.087,-141.7 279.087,-141.7"/>
<text text-anchor="start" x="299.087" y="-148.8" font-family="Helvetica,sans-Serif" font-size="11.00" fill="#000000">alkamispaiva</text>
<polygon fill="#ffffff" stroke="transparent" points="279.087,-119.7 279.087,-141.7 532.087,-141.7 532.087,-119.7 279.087,-119.7"/>
<polygon fill="none" stroke="#000000" points="279.087,-119.7 279.087,-141.7 532.087,-141.7 532.087,-119.7 279.087,-119.7"/>
<text text-anchor="start" x="299.087" y="-126.8" font-family="Helvetica,sans-Serif" font-size="11.00" fill="#000000">paattymispaiva</text>
<polygon fill="#ffffff" stroke="transparent" points="279.087,-97.7 279.087,-119.7 532.087,-119.7 532.087,-97.7 279.087,-97.7"/>
<polygon fill="none" stroke="#000000" points="279.087,-97.7 279.087,-119.7 532.087,-119.7 532.087,-97.7 279.087,-97.7"/>
<text text-anchor="start" x="299.087" y="-104.8" font-family="Helvetica,sans-Serif" font-size="11.00" fill="#000000">suoritustyypit</text>
<polygon fill="#ffffff" stroke="transparent" points="279.087,-75.7 279.087,-97.7 532.087,-97.7 532.087,-75.7 279.087,-75.7"/>
<polygon fill="none" stroke="#000000" points="279.087,-75.7 279.087,-97.7 532.087,-97.7 532.087,-75.7 279.087,-75.7"/>
<text text-anchor="start" x="299.087" y="-82.8" font-family="Helvetica,sans-Serif" font-size="11.00" fill="#000000">poistettu</text>
<polygon fill="none" stroke="#000000" points="279.087,-56.7 279.087,-75.7 532.087,-75.7 532.087,-56.7 279.087,-56.7"/>
<text text-anchor="start" x="282.087" y="-62.8" font-family="Helvetica,sans-Serif" font-size="11.00" fill="#000000">...</text>
<polygon fill="#ffffff" stroke="transparent" points="279.087,-37.7 279.087,-56.7 386.087,-56.7 386.087,-37.7 279.087,-37.7"/>
<polygon fill="none" stroke="#000000" points="279.087,-37.7 279.087,-56.7 386.087,-56.7 386.087,-37.7 279.087,-37.7"/>
<text text-anchor="start" x="282.087" y="-43.8" font-family="Helvetica,sans-Serif" font-size="11.00" fill="#000000">&lt; 2</text>
<polygon fill="#ffffff" stroke="transparent" points="386.087,-37.7 386.087,-56.7 467.087,-56.7 467.087,-37.7 386.087,-37.7"/>
<polygon fill="none" stroke="#000000" points="386.087,-37.7 386.087,-56.7 467.087,-56.7 467.087,-37.7 386.087,-37.7"/>
<text text-anchor="start" x="431.6975" y="-43.8" font-family="Helvetica,sans-Serif" font-size="11.00" fill="#000000">6 rows</text>
<polygon fill="#ffffff" stroke="transparent" points="467.087,-37.7 467.087,-56.7 532.087,-56.7 532.087,-37.7 467.087,-37.7"/>
<polygon fill="none" stroke="#000000" points="467.087,-37.7 467.087,-56.7 532.087,-56.7 532.087,-37.7 467.087,-37.7"/>
<text text-anchor="start" x="513.4923" y="-43.8" font-family="Helvetica,sans-Serif" font-size="11.00" fill="#000000">2 &gt;</text>
</a>
</g>
</g>
<!-- ytr_opiskeluoikeus&#45;&gt;henkilo -->
<g id="edge3" class="edge">
<title>ytr_opiskeluoikeus:w&#45;&gt;henkilo:e</title>
<path fill="none" stroke="#000000" d="M268.4535,-329.875C204.9089,-345.5457 308.9701,-512.7 228.087,-512.7"/>
<polygon fill="#000000" stroke="#000000" points="277.8525,-324.8121 278.7312,-332.7637 277.1409,-332.9394 276.2622,-324.9878 277.8525,-324.8121"/>
<polyline fill="none" stroke="#000000" points="279.087,-328.7 275.1112,-329.1394 "/>
<ellipse fill="none" stroke="#000000" cx="271.9306" cy="-329.4908" rx="3.2" ry="3.2"/>
</g>
</g>
</svg>
