<?xml version="1.0" encoding="UTF-8" standalone="no"?>
<!DOCTYPE svg PUBLIC "-//W3C//DTD SVG 1.1//EN"
 "http://www.w3.org/Graphics/SVG/1.1/DTD/svg11.dtd">
<!-- Generated by graphviz version 2.40.1 (20161225.0304)
 -->
<!-- Title: twoDegreesRelationshipsDiagram Pages: 1 -->
<svg width="803pt" height="832pt"
 viewBox="0.00 0.00 802.67 832.20" xmlns="http://www.w3.org/2000/svg" xmlns:xlink="http://www.w3.org/1999/xlink">
<g id="graph0" class="graph" transform="scale(1 1) rotate(0) translate(4 828.2)">
<title>twoDegreesRelationshipsDiagram</title>
<polygon fill="#ffffff" stroke="transparent" points="-4,4 -4,-828.2 798.6666,-828.2 798.6666,4 -4,4"/>
<text text-anchor="middle" x="72.4936" y="-7.3" font-family="Helvetica,sans-Serif" font-size="11.00" fill="#000000">Generated by SchemaSpy</text>
<!-- henkilo -->
<g id="node1" class="node">
<title>henkilo</title>
<g id="a_node1"><a xlink:href="../../tables/henkilo.html" xlink:title="henkilo" target="_top">
<polygon fill="#ffffff" stroke="transparent" points="41.6666,-392.7 41.6666,-548.7 235.6666,-548.7 235.6666,-392.7 41.6666,-392.7"/>
<polygon fill="#f5f5f5" stroke="transparent" points="43.6666,-523.7 43.6666,-546.7 233.6666,-546.7 233.6666,-523.7 43.6666,-523.7"/>
<polygon fill="none" stroke="#000000" points="43.6666,-523.7 43.6666,-546.7 233.6666,-546.7 233.6666,-523.7 43.6666,-523.7"/>
<text text-anchor="start" x="48.6666" y="-532.3" font-family="Helvetica,sans-Serif" font-weight="bold" font-size="11.00" fill="#000000">henkilo</text>
<text text-anchor="start" x="198.7103" y="-531.8" font-family="Helvetica,sans-Serif" font-size="11.00" fill="#000000">[table]</text>
<polygon fill="none" stroke="#000000" points="43.6666,-501.7 43.6666,-523.7 143.6666,-523.7 143.6666,-501.7 43.6666,-501.7"/>
<image xlink:href="../../images/primaryKeys.png" width="11px" height="12px" preserveAspectRatio="xMinYMin meet" x="48.6666" y="-518.7"/>
<text text-anchor="start" x="63.6666" y="-508.8" font-family="Helvetica,sans-Serif" font-size="11.00" fill="#000000">oid</text>
<polygon fill="none" stroke="#000000" points="143.6666,-501.7 143.6666,-523.7 233.6666,-523.7 233.6666,-501.7 143.6666,-501.7"/>
<text text-anchor="start" x="146.1708" y="-509.4" font-family="Helvetica,sans-Serif" font-size="11.00" fill="#000000">text[2147483647]</text>
<polygon fill="none" stroke="#000000" points="43.6666,-479.7 43.6666,-501.7 143.6666,-501.7 143.6666,-479.7 43.6666,-479.7"/>
<text text-anchor="start" x="63.6666" y="-486.8" font-family="Helvetica,sans-Serif" font-size="11.00" fill="#000000">sukunimi</text>
<polygon fill="none" stroke="#000000" points="143.6666,-479.7 143.6666,-501.7 233.6666,-501.7 233.6666,-479.7 143.6666,-479.7"/>
<text text-anchor="start" x="146.1708" y="-487.4" font-family="Helvetica,sans-Serif" font-size="11.00" fill="#000000">text[2147483647]</text>
<polygon fill="none" stroke="#000000" points="43.6666,-457.7 43.6666,-479.7 143.6666,-479.7 143.6666,-457.7 43.6666,-457.7"/>
<text text-anchor="start" x="63.6666" y="-464.8" font-family="Helvetica,sans-Serif" font-size="11.00" fill="#000000">etunimet</text>
<polygon fill="none" stroke="#000000" points="143.6666,-457.7 143.6666,-479.7 233.6666,-479.7 233.6666,-457.7 143.6666,-457.7"/>
<text text-anchor="start" x="146.1708" y="-465.4" font-family="Helvetica,sans-Serif" font-size="11.00" fill="#000000">text[2147483647]</text>
<polygon fill="none" stroke="#000000" points="43.6666,-435.7 43.6666,-457.7 143.6666,-457.7 143.6666,-435.7 43.6666,-435.7"/>
<text text-anchor="start" x="63.6666" y="-442.8" font-family="Helvetica,sans-Serif" font-size="11.00" fill="#000000">kutsumanimi</text>
<polygon fill="none" stroke="#000000" points="143.6666,-435.7 143.6666,-457.7 233.6666,-457.7 233.6666,-435.7 143.6666,-435.7"/>
<text text-anchor="start" x="146.1708" y="-443.4" font-family="Helvetica,sans-Serif" font-size="11.00" fill="#000000">text[2147483647]</text>
<polygon fill="#ffffff" stroke="transparent" points="43.6666,-413.7 43.6666,-435.7 143.6666,-435.7 143.6666,-413.7 43.6666,-413.7"/>
<polygon fill="none" stroke="#000000" points="43.6666,-413.7 43.6666,-435.7 143.6666,-435.7 143.6666,-413.7 43.6666,-413.7"/>
<image xlink:href="../../images/foreignKeys.png" width="11px" height="12px" preserveAspectRatio="xMinYMin meet" x="48.6666" y="-430.7"/>
<text text-anchor="start" x="63.6666" y="-420.8" font-family="Helvetica,sans-Serif" font-size="11.00" fill="#000000">master_oid</text>
<polygon fill="none" stroke="#000000" points="143.6666,-413.7 143.6666,-435.7 233.6666,-435.7 233.6666,-413.7 143.6666,-413.7"/>
<text text-anchor="start" x="146.1708" y="-421.4" font-family="Helvetica,sans-Serif" font-size="11.00" fill="#000000">text[2147483647]</text>
<polygon fill="#ffffff" stroke="transparent" points="43.6666,-394.7 43.6666,-413.7 78.6666,-413.7 78.6666,-394.7 43.6666,-394.7"/>
<polygon fill="none" stroke="#000000" points="43.6666,-394.7 43.6666,-413.7 78.6666,-413.7 78.6666,-394.7 43.6666,-394.7"/>
<text text-anchor="start" x="46.6666" y="-400.8" font-family="Helvetica,sans-Serif" font-size="11.00" fill="#000000">&lt; 1</text>
<polygon fill="#ffffff" stroke="transparent" points="78.6666,-394.7 78.6666,-413.7 143.6666,-413.7 143.6666,-394.7 78.6666,-394.7"/>
<polygon fill="none" stroke="#000000" points="78.6666,-394.7 78.6666,-413.7 143.6666,-413.7 143.6666,-394.7 78.6666,-394.7"/>
<text text-anchor="start" x="96.0473" y="-400.8" font-family="Helvetica,sans-Serif" font-size="11.00" fill="#000000">197 rows</text>
<polygon fill="#ffffff" stroke="transparent" points="143.6666,-394.7 143.6666,-413.7 233.6666,-413.7 233.6666,-394.7 143.6666,-394.7"/>
<polygon fill="none" stroke="#000000" points="143.6666,-394.7 143.6666,-413.7 233.6666,-413.7 233.6666,-394.7 143.6666,-394.7"/>
<text text-anchor="start" x="215.0719" y="-400.8" font-family="Helvetica,sans-Serif" font-size="11.00" fill="#000000">3 &gt;</text>
<polygon fill="none" stroke="#000000" stroke-width="2" points="42.6666,-393.7 42.6666,-547.7 234.6666,-547.7 234.6666,-393.7 42.6666,-393.7"/>
</a>
</g>
</g>
<!-- henkilo&#45;&gt;henkilo -->
<g id="edge1" class="edge">
<title>henkilo:w&#45;&gt;henkilo:e</title>
<path fill="none" stroke="#000000" d="M30.9541,-431.9813C-24.1124,-470.4054 -13.976,-565.7 138.6666,-565.7 302.1666,-565.7 302.1666,-544.3667 233.6666,-512.7"/>
<polygon fill="#000000" stroke="#000000" points="36.7246,-428.6762 45.4559,-427.8239 40.1956,-426.6881 43.6666,-424.7 43.6666,-424.7 43.6666,-424.7 40.1956,-426.6881 41.8773,-421.5761 36.7246,-428.6762 36.7246,-428.6762"/>
<ellipse fill="none" stroke="#000000" cx="33.9479" cy="-430.2666" rx="3.2" ry="3.2"/>
</g>
<!-- opiskeluoikeus -->
<g id="node2" class="node">
<title>opiskeluoikeus</title>
<g id="a_node2"><a xlink:href="../../tables/opiskeluoikeus.html" xlink:title="opiskeluoikeus" target="_top">
<polygon fill="#ffffff" stroke="transparent" points="284.6666,-406.2 284.6666,-753.2 540.6666,-753.2 540.6666,-406.2 284.6666,-406.2"/>
<polygon fill="#f5f5f5" stroke="transparent" points="284.6666,-729.7 284.6666,-752.7 540.6666,-752.7 540.6666,-729.7 284.6666,-729.7"/>
<polygon fill="none" stroke="#000000" points="284.6666,-729.7 284.6666,-752.7 540.6666,-752.7 540.6666,-729.7 284.6666,-729.7"/>
<text text-anchor="start" x="289.6666" y="-738.3" font-family="Helvetica,sans-Serif" font-weight="bold" font-size="11.00" fill="#000000">opiskeluoikeus</text>
<text text-anchor="start" x="505.7103" y="-737.8" font-family="Helvetica,sans-Serif" font-size="11.00" fill="#000000">[table]</text>
<polygon fill="none" stroke="#000000" points="284.6666,-707.7 284.6666,-729.7 540.6666,-729.7 540.6666,-707.7 284.6666,-707.7"/>
<image xlink:href="../../images/primaryKeys.png" width="11px" height="12px" preserveAspectRatio="xMinYMin meet" x="289.667" y="-724.7"/>
<text text-anchor="start" x="304.6666" y="-714.8" font-family="Helvetica,sans-Serif" font-size="11.00" fill="#000000">id</text>
<polygon fill="#ffffff" stroke="transparent" points="284.6666,-685.7 284.6666,-707.7 540.6666,-707.7 540.6666,-685.7 284.6666,-685.7"/>
<polygon fill="none" stroke="#000000" points="284.6666,-685.7 284.6666,-707.7 540.6666,-707.7 540.6666,-685.7 284.6666,-685.7"/>
<image xlink:href="../../images/foreignKeys.png" width="11px" height="12px" preserveAspectRatio="xMinYMin meet" x="289.667" y="-702.7"/>
<text text-anchor="start" x="304.6666" y="-692.8" font-family="Helvetica,sans-Serif" font-size="11.00" fill="#000000">oppija_oid</text>
<polygon fill="#ffffff" stroke="transparent" points="284.6666,-663.7 284.6666,-685.7 540.6666,-685.7 540.6666,-663.7 284.6666,-663.7"/>
<polygon fill="none" stroke="#000000" points="284.6666,-663.7 284.6666,-685.7 540.6666,-685.7 540.6666,-663.7 284.6666,-663.7"/>
<text text-anchor="start" x="304.6666" y="-670.8" font-family="Helvetica,sans-Serif" font-size="11.00" fill="#000000">aikaleima</text>
<polygon fill="#ffffff" stroke="transparent" points="284.6666,-641.7 284.6666,-663.7 540.6666,-663.7 540.6666,-641.7 284.6666,-641.7"/>
<polygon fill="none" stroke="#000000" points="284.6666,-641.7 284.6666,-663.7 540.6666,-663.7 540.6666,-641.7 284.6666,-641.7"/>
<text text-anchor="start" x="304.6666" y="-648.8" font-family="Helvetica,sans-Serif" font-size="11.00" fill="#000000">oppilaitos_oid</text>
<polygon fill="#ffffff" stroke="transparent" points="284.6666,-619.7 284.6666,-641.7 540.6666,-641.7 540.6666,-619.7 284.6666,-619.7"/>
<polygon fill="none" stroke="#000000" points="284.6666,-619.7 284.6666,-641.7 540.6666,-641.7 540.6666,-619.7 284.6666,-619.7"/>
<text text-anchor="start" x="304.6666" y="-626.8" font-family="Helvetica,sans-Serif" font-size="11.00" fill="#000000">sisaltava_opiskeluoikeus_oppilaitos_oid</text>
<polygon fill="#ffffff" stroke="transparent" points="284.6666,-597.7 284.6666,-619.7 540.6666,-619.7 540.6666,-597.7 284.6666,-597.7"/>
<polygon fill="none" stroke="#000000" points="284.6666,-597.7 284.6666,-619.7 540.6666,-619.7 540.6666,-597.7 284.6666,-597.7"/>
<text text-anchor="start" x="304.6666" y="-604.8" font-family="Helvetica,sans-Serif" font-size="11.00" fill="#000000">oid</text>
<polygon fill="none" stroke="#000000" points="284.6666,-575.7 284.6666,-597.7 540.6666,-597.7 540.6666,-575.7 284.6666,-575.7"/>
<image xlink:href="../../images/foreignKeys.png" width="11px" height="12px" preserveAspectRatio="xMinYMin meet" x="289.667" y="-592.7"/>
<text text-anchor="start" x="304.6666" y="-582.8" font-family="Helvetica,sans-Serif" font-size="11.00" fill="#000000">sisaltava_opiskeluoikeus_oid</text>
<polygon fill="#ffffff" stroke="transparent" points="284.6666,-553.7 284.6666,-575.7 540.6666,-575.7 540.6666,-553.7 284.6666,-553.7"/>
<polygon fill="none" stroke="#000000" points="284.6666,-553.7 284.6666,-575.7 540.6666,-575.7 540.6666,-553.7 284.6666,-553.7"/>
<text text-anchor="start" x="304.6666" y="-560.8" font-family="Helvetica,sans-Serif" font-size="11.00" fill="#000000">mitatoity</text>
<polygon fill="#ffffff" stroke="transparent" points="284.6666,-531.7 284.6666,-553.7 540.6666,-553.7 540.6666,-531.7 284.6666,-531.7"/>
<polygon fill="none" stroke="#000000" points="284.6666,-531.7 284.6666,-553.7 540.6666,-553.7 540.6666,-531.7 284.6666,-531.7"/>
<text text-anchor="start" x="304.6666" y="-538.8" font-family="Helvetica,sans-Serif" font-size="11.00" fill="#000000">koulutusmuoto</text>
<polygon fill="#ffffff" stroke="transparent" points="284.6666,-509.7 284.6666,-531.7 540.6666,-531.7 540.6666,-509.7 284.6666,-509.7"/>
<polygon fill="none" stroke="#000000" points="284.6666,-509.7 284.6666,-531.7 540.6666,-531.7 540.6666,-509.7 284.6666,-509.7"/>
<text text-anchor="start" x="304.6666" y="-516.8" font-family="Helvetica,sans-Serif" font-size="11.00" fill="#000000">alkamispaiva</text>
<polygon fill="#ffffff" stroke="transparent" points="284.6666,-487.7 284.6666,-509.7 540.6666,-509.7 540.6666,-487.7 284.6666,-487.7"/>
<polygon fill="none" stroke="#000000" points="284.6666,-487.7 284.6666,-509.7 540.6666,-509.7 540.6666,-487.7 284.6666,-487.7"/>
<text text-anchor="start" x="304.6666" y="-494.8" font-family="Helvetica,sans-Serif" font-size="11.00" fill="#000000">paattymispaiva</text>
<polygon fill="#ffffff" stroke="transparent" points="284.6666,-465.7 284.6666,-487.7 540.6666,-487.7 540.6666,-465.7 284.6666,-465.7"/>
<polygon fill="none" stroke="#000000" points="284.6666,-465.7 284.6666,-487.7 540.6666,-487.7 540.6666,-465.7 284.6666,-465.7"/>
<text text-anchor="start" x="304.6666" y="-472.8" font-family="Helvetica,sans-Serif" font-size="11.00" fill="#000000">suoritustyypit</text>
<polygon fill="#ffffff" stroke="transparent" points="284.6666,-443.7 284.6666,-465.7 540.6666,-465.7 540.6666,-443.7 284.6666,-443.7"/>
<polygon fill="none" stroke="#000000" points="284.6666,-443.7 284.6666,-465.7 540.6666,-465.7 540.6666,-443.7 284.6666,-443.7"/>
<text text-anchor="start" x="304.6666" y="-450.8" font-family="Helvetica,sans-Serif" font-size="11.00" fill="#000000">poistettu</text>
<polygon fill="none" stroke="#000000" points="284.6666,-424.7 284.6666,-443.7 540.6666,-443.7 540.6666,-424.7 284.6666,-424.7"/>
<text text-anchor="start" x="287.6666" y="-430.8" font-family="Helvetica,sans-Serif" font-size="11.00" fill="#000000">...</text>
<polygon fill="#ffffff" stroke="transparent" points="284.6666,-405.7 284.6666,-424.7 387.6666,-424.7 387.6666,-405.7 284.6666,-405.7"/>
<polygon fill="none" stroke="#000000" points="284.6666,-405.7 284.6666,-424.7 387.6666,-424.7 387.6666,-405.7 284.6666,-405.7"/>
<text text-anchor="start" x="287.6666" y="-411.8" font-family="Helvetica,sans-Serif" font-size="11.00" fill="#000000">&lt; 2</text>
<polygon fill="#ffffff" stroke="transparent" points="387.6666,-405.7 387.6666,-424.7 478.6666,-424.7 478.6666,-405.7 387.6666,-405.7"/>
<polygon fill="none" stroke="#000000" points="387.6666,-405.7 387.6666,-424.7 478.6666,-424.7 478.6666,-405.7 387.6666,-405.7"/>
<text text-anchor="start" x="431.0473" y="-411.8" font-family="Helvetica,sans-Serif" font-size="11.00" fill="#000000">161 rows</text>
<polygon fill="#ffffff" stroke="transparent" points="478.6666,-405.7 478.6666,-424.7 540.6666,-424.7 540.6666,-405.7 478.6666,-405.7"/>
<polygon fill="none" stroke="#000000" points="478.6666,-405.7 478.6666,-424.7 540.6666,-424.7 540.6666,-405.7 478.6666,-405.7"/>
<text text-anchor="start" x="522.0719" y="-411.8" font-family="Helvetica,sans-Serif" font-size="11.00" fill="#000000">4 &gt;</text>
</a>
</g>
</g>
<!-- opiskeluoikeus&#45;&gt;henkilo -->
<g id="edge2" class="edge">
<title>opiskeluoikeus:w&#45;&gt;henkilo:e</title>
<path fill="none" stroke="#000000" d="M274.0331,-695.525C210.4885,-679.8543 314.5497,-512.7 233.6666,-512.7"/>
<polygon fill="#000000" stroke="#000000" points="284.3108,-692.6363 283.4321,-700.5879 281.8418,-700.4122 282.7205,-692.4606 284.3108,-692.6363"/>
<polyline fill="none" stroke="#000000" points="284.6666,-696.7 280.6908,-696.2606 "/>
<ellipse fill="none" stroke="#000000" cx="277.5101" cy="-695.9092" rx="3.2" ry="3.2"/>
</g>
<!-- opiskeluoikeushistoria -->
<g id="node3" class="node">
<title>opiskeluoikeushistoria</title>
<g id="a_node3"><a xlink:href="../../tables/opiskeluoikeushistoria.html" xlink:title="opiskeluoikeushistoria" target="_top">
<polygon fill="#ffffff" stroke="transparent" points="600.6666,-759.2 600.6666,-820.2 775.6666,-820.2 775.6666,-759.2 600.6666,-759.2"/>
<polygon fill="#f5f5f5" stroke="transparent" points="601.1666,-796.7 601.1666,-819.7 776.1666,-819.7 776.1666,-796.7 601.1666,-796.7"/>
<polygon fill="none" stroke="#000000" points="601.1666,-796.7 601.1666,-819.7 776.1666,-819.7 776.1666,-796.7 601.1666,-796.7"/>
<text text-anchor="start" x="606.1666" y="-805.3" font-family="Helvetica,sans-Serif" font-weight="bold" font-size="11.00" fill="#000000">opiskeluoikeushistoria</text>
<text text-anchor="start" x="741.6884" y="-804.8" font-family="Helvetica,sans-Serif" font-size="11.00" fill="#000000">[table]</text>
<polygon fill="none" stroke="#000000" points="601.1666,-777.7 601.1666,-796.7 776.1666,-796.7 776.1666,-777.7 601.1666,-777.7"/>
<text text-anchor="start" x="604.1666" y="-783.8" font-family="Helvetica,sans-Serif" font-size="11.00" fill="#000000">...</text>
<polygon fill="#ffffff" stroke="transparent" points="601.1666,-758.7 601.1666,-777.7 668.1666,-777.7 668.1666,-758.7 601.1666,-758.7"/>
<polygon fill="none" stroke="#000000" points="601.1666,-758.7 601.1666,-777.7 668.1666,-777.7 668.1666,-758.7 601.1666,-758.7"/>
<text text-anchor="start" x="604.1666" y="-764.8" font-family="Helvetica,sans-Serif" font-size="11.00" fill="#000000">&lt; 1</text>
<polygon fill="#ffffff" stroke="transparent" points="668.1666,-758.7 668.1666,-777.7 741.1666,-777.7 741.1666,-758.7 668.1666,-758.7"/>
<polygon fill="none" stroke="#000000" points="668.1666,-758.7 668.1666,-777.7 741.1666,-777.7 741.1666,-758.7 668.1666,-758.7"/>
<text text-anchor="start" x="693.5473" y="-764.8" font-family="Helvetica,sans-Serif" font-size="11.00" fill="#000000">156 rows</text>
<polygon fill="#ffffff" stroke="transparent" points="741.1666,-758.7 741.1666,-777.7 776.1666,-777.7 776.1666,-758.7 741.1666,-758.7"/>
<polygon fill="none" stroke="#000000" points="741.1666,-758.7 741.1666,-777.7 776.1666,-777.7 776.1666,-758.7 741.1666,-758.7"/>
<text text-anchor="start" x="767.0528" y="-764.8" font-family="Helvetica,sans-Serif" font-size="11.00" fill="#000000"> &#160;</text>
</a>
</g>
</g>
<!-- opiskeluoikeushistoria&#45;&gt;opiskeluoikeus -->
<g id="edge3" class="edge">
<title>opiskeluoikeushistoria:w&#45;&gt;opiskeluoikeus:e</title>
<path fill="none" stroke="#000000" d="M587.073,-782.8492C565.3412,-768.4642 575.2723,-718.7 540.6666,-718.7"/>
<polygon fill="#000000" stroke="#000000" points="593.4495,-784.5914 600.2177,-790.1727 597.308,-785.6457 601.1666,-786.7 601.1666,-786.7 601.1666,-786.7 597.308,-785.6457 602.1155,-783.2273 593.4495,-784.5914 593.4495,-784.5914"/>
<ellipse fill="none" stroke="#000000" cx="590.3626" cy="-783.748" rx="3.2" ry="3.2"/>
</g>
<!-- perustiedot_manual_sync -->
<g id="node4" class="node">
<title>perustiedot_manual_sync</title>
<g id="a_node4"><a xlink:href="../../tables/perustiedot_manual_sync.html" xlink:title="perustiedot_manual_sync" target="_top">
<polygon fill="#ffffff" stroke="transparent" points="592.6666,-581.2 592.6666,-642.2 783.6666,-642.2 783.6666,-581.2 592.6666,-581.2"/>
<polygon fill="#f5f5f5" stroke="transparent" points="593.1666,-618.7 593.1666,-641.7 784.1666,-641.7 784.1666,-618.7 593.1666,-618.7"/>
<polygon fill="none" stroke="#000000" points="593.1666,-618.7 593.1666,-641.7 784.1666,-641.7 784.1666,-618.7 593.1666,-618.7"/>
<text text-anchor="start" x="598.1666" y="-627.3" font-family="Helvetica,sans-Serif" font-weight="bold" font-size="11.00" fill="#000000">perustiedot_manual_sync</text>
<text text-anchor="start" x="749.6884" y="-626.8" font-family="Helvetica,sans-Serif" font-size="11.00" fill="#000000">[table]</text>
<polygon fill="none" stroke="#000000" points="593.1666,-599.7 593.1666,-618.7 784.1666,-618.7 784.1666,-599.7 593.1666,-599.7"/>
<text text-anchor="start" x="596.1666" y="-605.8" font-family="Helvetica,sans-Serif" font-size="11.00" fill="#000000">...</text>
<polygon fill="#ffffff" stroke="transparent" points="593.1666,-580.7 593.1666,-599.7 687.1666,-599.7 687.1666,-580.7 593.1666,-580.7"/>
<polygon fill="none" stroke="#000000" points="593.1666,-580.7 593.1666,-599.7 687.1666,-599.7 687.1666,-580.7 593.1666,-580.7"/>
<text text-anchor="start" x="596.1666" y="-586.8" font-family="Helvetica,sans-Serif" font-size="11.00" fill="#000000">&lt; 1</text>
<polygon fill="#ffffff" stroke="transparent" points="687.1666,-580.7 687.1666,-599.7 735.1666,-599.7 735.1666,-580.7 687.1666,-580.7"/>
<polygon fill="none" stroke="#000000" points="687.1666,-580.7 687.1666,-599.7 735.1666,-599.7 735.1666,-580.7 687.1666,-580.7"/>
<text text-anchor="start" x="726.0528" y="-586.8" font-family="Helvetica,sans-Serif" font-size="11.00" fill="#000000"> &#160;</text>
<polygon fill="#ffffff" stroke="transparent" points="735.1666,-580.7 735.1666,-599.7 784.1666,-599.7 784.1666,-580.7 735.1666,-580.7"/>
<polygon fill="none" stroke="#000000" points="735.1666,-580.7 735.1666,-599.7 784.1666,-599.7 784.1666,-580.7 735.1666,-580.7"/>
<text text-anchor="start" x="775.0528" y="-586.8" font-family="Helvetica,sans-Serif" font-size="11.00" fill="#000000"> &#160;</text>
</a>
</g>
</g>
<!-- perustiedot_manual_sync&#45;&gt;opiskeluoikeus -->
<g id="edge4" class="edge">
<title>perustiedot_manual_sync:w&#45;&gt;opiskeluoikeus:e</title>
<path fill="none" stroke="#000000" d="M578.401,-608.7C565.8228,-608.7 558.1666,-608.7 540.6666,-608.7"/>
<polygon fill="#000000" stroke="#000000" points="585.1666,-608.7001 593.1666,-612.3 589.1666,-608.7 593.1666,-608.7 593.1666,-608.7 593.1666,-608.7 589.1666,-608.7 593.1666,-605.1 585.1666,-608.7001 585.1666,-608.7001"/>
<ellipse fill="none" stroke="#000000" cx="581.9666" cy="-608.7001" rx="3.2" ry="3.2"/>
</g>
<!-- perustiedot_sync -->
<g id="node5" class="node">
<title>perustiedot_sync</title>
<g id="a_node5"><a xlink:href="../../tables/perustiedot_sync.html" xlink:title="perustiedot_sync" target="_top">
<polygon fill="#ffffff" stroke="transparent" points="618.1666,-677.2 618.1666,-738.2 758.1666,-738.2 758.1666,-677.2 618.1666,-677.2"/>
<polygon fill="#f5f5f5" stroke="transparent" points="618.1666,-714.7 618.1666,-737.7 758.1666,-737.7 758.1666,-714.7 618.1666,-714.7"/>
<polygon fill="none" stroke="#000000" points="618.1666,-714.7 618.1666,-737.7 758.1666,-737.7 758.1666,-714.7 618.1666,-714.7"/>
<text text-anchor="start" x="623.1666" y="-723.3" font-family="Helvetica,sans-Serif" font-weight="bold" font-size="11.00" fill="#000000">perustiedot_sync</text>
<text text-anchor="start" x="723.6884" y="-722.8" font-family="Helvetica,sans-Serif" font-size="11.00" fill="#000000">[table]</text>
<polygon fill="none" stroke="#000000" points="618.1666,-695.7 618.1666,-714.7 758.1666,-714.7 758.1666,-695.7 618.1666,-695.7"/>
<text text-anchor="start" x="621.1666" y="-701.8" font-family="Helvetica,sans-Serif" font-size="11.00" fill="#000000">...</text>
<polygon fill="#ffffff" stroke="transparent" points="618.1666,-676.7 618.1666,-695.7 673.1666,-695.7 673.1666,-676.7 618.1666,-676.7"/>
<polygon fill="none" stroke="#000000" points="618.1666,-676.7 618.1666,-695.7 673.1666,-695.7 673.1666,-676.7 618.1666,-676.7"/>
<text text-anchor="start" x="621.1666" y="-682.8" font-family="Helvetica,sans-Serif" font-size="11.00" fill="#000000">&lt; 1</text>
<polygon fill="#ffffff" stroke="transparent" points="673.1666,-676.7 673.1666,-695.7 728.1666,-695.7 728.1666,-676.7 673.1666,-676.7"/>
<polygon fill="none" stroke="#000000" points="673.1666,-676.7 673.1666,-695.7 728.1666,-695.7 728.1666,-676.7 673.1666,-676.7"/>
<text text-anchor="start" x="692.7771" y="-682.8" font-family="Helvetica,sans-Serif" font-size="11.00" fill="#000000">0 rows</text>
<polygon fill="#ffffff" stroke="transparent" points="728.1666,-676.7 728.1666,-695.7 758.1666,-695.7 758.1666,-676.7 728.1666,-676.7"/>
<polygon fill="none" stroke="#000000" points="728.1666,-676.7 728.1666,-695.7 758.1666,-695.7 758.1666,-676.7 728.1666,-676.7"/>
<text text-anchor="start" x="749.0528" y="-682.8" font-family="Helvetica,sans-Serif" font-size="11.00" fill="#000000"> &#160;</text>
</a>
</g>
</g>
<!-- perustiedot_sync&#45;&gt;opiskeluoikeus -->
<g id="edge5" class="edge">
<title>perustiedot_sync:w&#45;&gt;opiskeluoikeus:e</title>
<path fill="none" stroke="#000000" d="M603.5642,-705.6186C580.1506,-708.7332 570.1995,-718.7 540.6666,-718.7"/>
<polygon fill="#000000" stroke="#000000" points="610.1824,-705.2023 618.3926,-708.2929 614.1745,-704.9512 618.1666,-704.7 618.1666,-704.7 618.1666,-704.7 614.1745,-704.9512 617.9405,-701.1071 610.1824,-705.2023 610.1824,-705.2023"/>
<ellipse fill="none" stroke="#000000" cx="606.9887" cy="-705.4032" rx="3.2" ry="3.2"/>
</g>
<!-- ytr_opiskeluoikeus -->
<g id="node6" class="node">
<title>ytr_opiskeluoikeus</title>
<g id="a_node6"><a xlink:href="../../tables/ytr_opiskeluoikeus.html" xlink:title="ytr_opiskeluoikeus" target="_top">
<polygon fill="#ffffff" stroke="transparent" points="284.6666,-38.2 284.6666,-385.2 540.6666,-385.2 540.6666,-38.2 284.6666,-38.2"/>
<polygon fill="#f5f5f5" stroke="transparent" points="284.6666,-361.7 284.6666,-384.7 540.6666,-384.7 540.6666,-361.7 284.6666,-361.7"/>
<polygon fill="none" stroke="#000000" points="284.6666,-361.7 284.6666,-384.7 540.6666,-384.7 540.6666,-361.7 284.6666,-361.7"/>
<text text-anchor="start" x="289.6666" y="-370.3" font-family="Helvetica,sans-Serif" font-weight="bold" font-size="11.00" fill="#000000">ytr_opiskeluoikeus</text>
<text text-anchor="start" x="505.7103" y="-369.8" font-family="Helvetica,sans-Serif" font-size="11.00" fill="#000000">[table]</text>
<polygon fill="none" stroke="#000000" points="284.6666,-339.7 284.6666,-361.7 540.6666,-361.7 540.6666,-339.7 284.6666,-339.7"/>
<image xlink:href="../../images/primaryKeys.png" width="11px" height="12px" preserveAspectRatio="xMinYMin meet" x="289.667" y="-356.7"/>
<text text-anchor="start" x="304.6666" y="-346.8" font-family="Helvetica,sans-Serif" font-size="11.00" fill="#000000">id</text>
<polygon fill="#ffffff" stroke="transparent" points="284.6666,-317.7 284.6666,-339.7 540.6666,-339.7 540.6666,-317.7 284.6666,-317.7"/>
<polygon fill="none" stroke="#000000" points="284.6666,-317.7 284.6666,-339.7 540.6666,-339.7 540.6666,-317.7 284.6666,-317.7"/>
<image xlink:href="../../images/foreignKeys.png" width="11px" height="12px" preserveAspectRatio="xMinYMin meet" x="289.667" y="-334.7"/>
<text text-anchor="start" x="304.6666" y="-324.8" font-family="Helvetica,sans-Serif" font-size="11.00" fill="#000000">oppija_oid</text>
<polygon fill="#ffffff" stroke="transparent" points="284.6666,-295.7 284.6666,-317.7 540.6666,-317.7 540.6666,-295.7 284.6666,-295.7"/>
<polygon fill="none" stroke="#000000" points="284.6666,-295.7 284.6666,-317.7 540.6666,-317.7 540.6666,-295.7 284.6666,-295.7"/>
<text text-anchor="start" x="304.6666" y="-302.8" font-family="Helvetica,sans-Serif" font-size="11.00" fill="#000000">aikaleima</text>
<polygon fill="#ffffff" stroke="transparent" points="284.6666,-273.7 284.6666,-295.7 540.6666,-295.7 540.6666,-273.7 284.6666,-273.7"/>
<polygon fill="none" stroke="#000000" points="284.6666,-273.7 284.6666,-295.7 540.6666,-295.7 540.6666,-273.7 284.6666,-273.7"/>
<text text-anchor="start" x="304.6666" y="-280.8" font-family="Helvetica,sans-Serif" font-size="11.00" fill="#000000">oppilaitos_oid</text>
<polygon fill="#ffffff" stroke="transparent" points="284.6666,-251.7 284.6666,-273.7 540.6666,-273.7 540.6666,-251.7 284.6666,-251.7"/>
<polygon fill="none" stroke="#000000" points="284.6666,-251.7 284.6666,-273.7 540.6666,-273.7 540.6666,-251.7 284.6666,-251.7"/>
<text text-anchor="start" x="304.6666" y="-258.8" font-family="Helvetica,sans-Serif" font-size="11.00" fill="#000000">sisaltava_opiskeluoikeus_oppilaitos_oid</text>
<polygon fill="#ffffff" stroke="transparent" points="284.6666,-229.7 284.6666,-251.7 540.6666,-251.7 540.6666,-229.7 284.6666,-229.7"/>
<polygon fill="none" stroke="#000000" points="284.6666,-229.7 284.6666,-251.7 540.6666,-251.7 540.6666,-229.7 284.6666,-229.7"/>
<text text-anchor="start" x="304.6666" y="-236.8" font-family="Helvetica,sans-Serif" font-size="11.00" fill="#000000">oid</text>
<polygon fill="none" stroke="#000000" points="284.6666,-207.7 284.6666,-229.7 540.6666,-229.7 540.6666,-207.7 284.6666,-207.7"/>
<image xlink:href="../../images/foreignKeys.png" width="11px" height="12px" preserveAspectRatio="xMinYMin meet" x="289.667" y="-224.7"/>
<text text-anchor="start" x="304.6666" y="-214.8" font-family="Helvetica,sans-Serif" font-size="11.00" fill="#000000">sisaltava_opiskeluoikeus_oid</text>
<polygon fill="#ffffff" stroke="transparent" points="284.6666,-185.7 284.6666,-207.7 540.6666,-207.7 540.6666,-185.7 284.6666,-185.7"/>
<polygon fill="none" stroke="#000000" points="284.6666,-185.7 284.6666,-207.7 540.6666,-207.7 540.6666,-185.7 284.6666,-185.7"/>
<text text-anchor="start" x="304.6666" y="-192.8" font-family="Helvetica,sans-Serif" font-size="11.00" fill="#000000">mitatoity</text>
<polygon fill="#ffffff" stroke="transparent" points="284.6666,-163.7 284.6666,-185.7 540.6666,-185.7 540.6666,-163.7 284.6666,-163.7"/>
<polygon fill="none" stroke="#000000" points="284.6666,-163.7 284.6666,-185.7 540.6666,-185.7 540.6666,-163.7 284.6666,-163.7"/>
<text text-anchor="start" x="304.6666" y="-170.8" font-family="Helvetica,sans-Serif" font-size="11.00" fill="#000000">koulutusmuoto</text>
<polygon fill="#ffffff" stroke="transparent" points="284.6666,-141.7 284.6666,-163.7 540.6666,-163.7 540.6666,-141.7 284.6666,-141.7"/>
<polygon fill="none" stroke="#000000" points="284.6666,-141.7 284.6666,-163.7 540.6666,-163.7 540.6666,-141.7 284.6666,-141.7"/>
<text text-anchor="start" x="304.6666" y="-148.8" font-family="Helvetica,sans-Serif" font-size="11.00" fill="#000000">alkamispaiva</text>
<polygon fill="#ffffff" stroke="transparent" points="284.6666,-119.7 284.6666,-141.7 540.6666,-141.7 540.6666,-119.7 284.6666,-119.7"/>
<polygon fill="none" stroke="#000000" points="284.6666,-119.7 284.6666,-141.7 540.6666,-141.7 540.6666,-119.7 284.6666,-119.7"/>
<text text-anchor="start" x="304.6666" y="-126.8" font-family="Helvetica,sans-Serif" font-size="11.00" fill="#000000">paattymispaiva</text>
<polygon fill="#ffffff" stroke="transparent" points="284.6666,-97.7 284.6666,-119.7 540.6666,-119.7 540.6666,-97.7 284.6666,-97.7"/>
<polygon fill="none" stroke="#000000" points="284.6666,-97.7 284.6666,-119.7 540.6666,-119.7 540.6666,-97.7 284.6666,-97.7"/>
<text text-anchor="start" x="304.6666" y="-104.8" font-family="Helvetica,sans-Serif" font-size="11.00" fill="#000000">suoritustyypit</text>
<polygon fill="#ffffff" stroke="transparent" points="284.6666,-75.7 284.6666,-97.7 540.6666,-97.7 540.6666,-75.7 284.6666,-75.7"/>
<polygon fill="none" stroke="#000000" points="284.6666,-75.7 284.6666,-97.7 540.6666,-97.7 540.6666,-75.7 284.6666,-75.7"/>
<text text-anchor="start" x="304.6666" y="-82.8" font-family="Helvetica,sans-Serif" font-size="11.00" fill="#000000">poistettu</text>
<polygon fill="none" stroke="#000000" points="284.6666,-56.7 284.6666,-75.7 540.6666,-75.7 540.6666,-56.7 284.6666,-56.7"/>
<text text-anchor="start" x="287.6666" y="-62.8" font-family="Helvetica,sans-Serif" font-size="11.00" fill="#000000">...</text>
<polygon fill="#ffffff" stroke="transparent" points="284.6666,-37.7 284.6666,-56.7 393.6666,-56.7 393.6666,-37.7 284.6666,-37.7"/>
<polygon fill="none" stroke="#000000" points="284.6666,-37.7 284.6666,-56.7 393.6666,-56.7 393.6666,-37.7 284.6666,-37.7"/>
<text text-anchor="start" x="287.6666" y="-43.8" font-family="Helvetica,sans-Serif" font-size="11.00" fill="#000000">&lt; 2</text>
<polygon fill="#ffffff" stroke="transparent" points="393.6666,-37.7 393.6666,-56.7 475.6666,-56.7 475.6666,-37.7 393.6666,-37.7"/>
<polygon fill="none" stroke="#000000" points="393.6666,-37.7 393.6666,-56.7 475.6666,-56.7 475.6666,-37.7 393.6666,-37.7"/>
<text text-anchor="start" x="440.2771" y="-43.8" font-family="Helvetica,sans-Serif" font-size="11.00" fill="#000000">9 rows</text>
<polygon fill="#ffffff" stroke="transparent" points="475.6666,-37.7 475.6666,-56.7 540.6666,-56.7 540.6666,-37.7 475.6666,-37.7"/>
<polygon fill="none" stroke="#000000" points="475.6666,-37.7 475.6666,-56.7 540.6666,-56.7 540.6666,-37.7 475.6666,-37.7"/>
<text text-anchor="start" x="522.0719" y="-43.8" font-family="Helvetica,sans-Serif" font-size="11.00" fill="#000000">2 &gt;</text>
</a>
</g>
</g>
<!-- ytr_opiskeluoikeus&#45;&gt;henkilo -->
<g id="edge6" class="edge">
<title>ytr_opiskeluoikeus:w&#45;&gt;henkilo:e</title>
<path fill="none" stroke="#000000" d="M274.0331,-329.875C210.4885,-345.5457 314.5497,-512.7 233.6666,-512.7"/>
<polygon fill="#000000" stroke="#000000" points="283.4321,-324.8121 284.3108,-332.7637 282.7205,-332.9394 281.8418,-324.9878 283.4321,-324.8121"/>
<polyline fill="none" stroke="#000000" points="284.6666,-328.7 280.6908,-329.1394 "/>
<ellipse fill="none" stroke="#000000" cx="277.5101" cy="-329.4908" rx="3.2" ry="3.2"/>
</g>
<!-- ytr_opiskeluoikeushistoria -->
<g id="node7" class="node">
<title>ytr_opiskeluoikeushistoria</title>
<g id="a_node7"><a xlink:href="../../tables/ytr_opiskeluoikeushistoria.html" xlink:title="ytr_opiskeluoikeushistoria" target="_top">
<polygon fill="#ffffff" stroke="transparent" points="589.6666,-323.2 589.6666,-384.2 786.6666,-384.2 786.6666,-323.2 589.6666,-323.2"/>
<polygon fill="#f5f5f5" stroke="transparent" points="590.1666,-360.7 590.1666,-383.7 787.1666,-383.7 787.1666,-360.7 590.1666,-360.7"/>
<polygon fill="none" stroke="#000000" points="590.1666,-360.7 590.1666,-383.7 787.1666,-383.7 787.1666,-360.7 590.1666,-360.7"/>
<text text-anchor="start" x="595.1666" y="-369.3" font-family="Helvetica,sans-Serif" font-weight="bold" font-size="11.00" fill="#000000">ytr_opiskeluoikeushistoria</text>
<text text-anchor="start" x="752.6884" y="-368.8" font-family="Helvetica,sans-Serif" font-size="11.00" fill="#000000">[table]</text>
<polygon fill="none" stroke="#000000" points="590.1666,-341.7 590.1666,-360.7 787.1666,-360.7 787.1666,-341.7 590.1666,-341.7"/>
<text text-anchor="start" x="593.1666" y="-347.8" font-family="Helvetica,sans-Serif" font-size="11.00" fill="#000000">...</text>
<polygon fill="#ffffff" stroke="transparent" points="590.1666,-322.7 590.1666,-341.7 674.1666,-341.7 674.1666,-322.7 590.1666,-322.7"/>
<polygon fill="none" stroke="#000000" points="590.1666,-322.7 590.1666,-341.7 674.1666,-341.7 674.1666,-322.7 590.1666,-322.7"/>
<text text-anchor="start" x="593.1666" y="-328.8" font-family="Helvetica,sans-Serif" font-size="11.00" fill="#000000">&lt; 1</text>
<polygon fill="#ffffff" stroke="transparent" points="674.1666,-322.7 674.1666,-341.7 743.1666,-341.7 743.1666,-322.7 674.1666,-322.7"/>
<polygon fill="none" stroke="#000000" points="674.1666,-322.7 674.1666,-341.7 743.1666,-341.7 743.1666,-322.7 674.1666,-322.7"/>
<text text-anchor="start" x="707.7771" y="-328.8" font-family="Helvetica,sans-Serif" font-size="11.00" fill="#000000">9 rows</text>
<polygon fill="#ffffff" stroke="transparent" points="743.1666,-322.7 743.1666,-341.7 787.1666,-341.7 787.1666,-322.7 743.1666,-322.7"/>
<polygon fill="none" stroke="#000000" points="743.1666,-322.7 743.1666,-341.7 787.1666,-341.7 787.1666,-322.7 743.1666,-322.7"/>
<text text-anchor="start" x="778.0528" y="-328.8" font-family="Helvetica,sans-Serif" font-size="11.00" fill="#000000"> &#160;</text>
</a>
</g>
</g>
<!-- ytr_opiskeluoikeushistoria&#45;&gt;ytr_opiskeluoikeus -->
<g id="edge7" class="edge">
<title>ytr_opiskeluoikeushistoria:w&#45;&gt;ytr_opiskeluoikeus:e</title>
<path fill="none" stroke="#000000" d="M575.5094,-350.7C564.0805,-350.7 556.8228,-350.7 540.6666,-350.7"/>
<polygon fill="#000000" stroke="#000000" points="582.1666,-350.7001 590.1666,-354.3 586.1666,-350.7 590.1666,-350.7 590.1666,-350.7 590.1666,-350.7 586.1666,-350.7 590.1666,-347.1 582.1666,-350.7001 582.1666,-350.7001"/>
<ellipse fill="none" stroke="#000000" cx="578.9666" cy="-350.7001" rx="3.2" ry="3.2"/>
</g>
</g>
</svg>
