<?xml version="1.0" encoding="UTF-8" standalone="no"?>
<!DOCTYPE svg PUBLIC "-//W3C//DTD SVG 1.1//EN"
 "http://www.w3.org/Graphics/SVG/1.1/DTD/svg11.dtd">
<!-- Generated by graphviz version 2.40.1 (20161225.0304)
 -->
<!-- Title: twoDegreesRelationshipsDiagram Pages: 1 -->
<svg width="805pt" height="832pt"
 viewBox="0.00 0.00 805.14 832.20" xmlns="http://www.w3.org/2000/svg" xmlns:xlink="http://www.w3.org/1999/xlink">
<g id="graph0" class="graph" transform="scale(1 1) rotate(0) translate(4 828.2)">
<title>twoDegreesRelationshipsDiagram</title>
<polygon fill="#ffffff" stroke="transparent" points="-4,4 -4,-828.2 801.1406,-828.2 801.1406,4 -4,4"/>
<text text-anchor="middle" x="72.4936" y="-7.3" font-family="Helvetica,sans-Serif" font-size="11.00" fill="#000000">Generated by SchemaSpy</text>
<!-- henkilo -->
<g id="node1" class="node">
<title>henkilo</title>
<g id="a_node1"><a xlink:href="../../tables/henkilo.html" xlink:title="henkilo" target="_top">
<polygon fill="#ffffff" stroke="transparent" points="41.1406,-392.7 41.1406,-548.7 236.1406,-548.7 236.1406,-392.7 41.1406,-392.7"/>
<polygon fill="#f5f5f5" stroke="transparent" points="43.6406,-523.7 43.6406,-546.7 234.6406,-546.7 234.6406,-523.7 43.6406,-523.7"/>
<polygon fill="none" stroke="#000000" points="43.6406,-523.7 43.6406,-546.7 234.6406,-546.7 234.6406,-523.7 43.6406,-523.7"/>
<text text-anchor="start" x="48.6406" y="-532.3" font-family="Helvetica,sans-Serif" font-weight="bold" font-size="11.00" fill="#000000">henkilo</text>
<text text-anchor="start" x="199.6843" y="-531.8" font-family="Helvetica,sans-Serif" font-size="11.00" fill="#000000">[table]</text>
<polygon fill="none" stroke="#000000" points="43.6406,-501.7 43.6406,-523.7 144.6406,-523.7 144.6406,-501.7 43.6406,-501.7"/>
<image xlink:href="../../images/primaryKeys.png" width="11px" height="12px" preserveAspectRatio="xMinYMin meet" x="48.6406" y="-518.7"/>
<text text-anchor="start" x="63.6406" y="-508.8" font-family="Helvetica,sans-Serif" font-size="11.00" fill="#000000">oid</text>
<polygon fill="none" stroke="#000000" points="144.6406,-501.7 144.6406,-523.7 234.6406,-523.7 234.6406,-501.7 144.6406,-501.7"/>
<text text-anchor="start" x="147.1448" y="-509.4" font-family="Helvetica,sans-Serif" font-size="11.00" fill="#000000">text[2147483647]</text>
<polygon fill="none" stroke="#000000" points="43.6406,-479.7 43.6406,-501.7 144.6406,-501.7 144.6406,-479.7 43.6406,-479.7"/>
<text text-anchor="start" x="63.6406" y="-486.8" font-family="Helvetica,sans-Serif" font-size="11.00" fill="#000000">sukunimi</text>
<polygon fill="none" stroke="#000000" points="144.6406,-479.7 144.6406,-501.7 234.6406,-501.7 234.6406,-479.7 144.6406,-479.7"/>
<text text-anchor="start" x="147.1448" y="-487.4" font-family="Helvetica,sans-Serif" font-size="11.00" fill="#000000">text[2147483647]</text>
<polygon fill="none" stroke="#000000" points="43.6406,-457.7 43.6406,-479.7 144.6406,-479.7 144.6406,-457.7 43.6406,-457.7"/>
<text text-anchor="start" x="63.6406" y="-464.8" font-family="Helvetica,sans-Serif" font-size="11.00" fill="#000000">etunimet</text>
<polygon fill="none" stroke="#000000" points="144.6406,-457.7 144.6406,-479.7 234.6406,-479.7 234.6406,-457.7 144.6406,-457.7"/>
<text text-anchor="start" x="147.1448" y="-465.4" font-family="Helvetica,sans-Serif" font-size="11.00" fill="#000000">text[2147483647]</text>
<polygon fill="none" stroke="#000000" points="43.6406,-435.7 43.6406,-457.7 144.6406,-457.7 144.6406,-435.7 43.6406,-435.7"/>
<text text-anchor="start" x="63.6406" y="-442.8" font-family="Helvetica,sans-Serif" font-size="11.00" fill="#000000">kutsumanimi</text>
<polygon fill="none" stroke="#000000" points="144.6406,-435.7 144.6406,-457.7 234.6406,-457.7 234.6406,-435.7 144.6406,-435.7"/>
<text text-anchor="start" x="147.1448" y="-443.4" font-family="Helvetica,sans-Serif" font-size="11.00" fill="#000000">text[2147483647]</text>
<polygon fill="#ffffff" stroke="transparent" points="43.6406,-413.7 43.6406,-435.7 144.6406,-435.7 144.6406,-413.7 43.6406,-413.7"/>
<polygon fill="none" stroke="#000000" points="43.6406,-413.7 43.6406,-435.7 144.6406,-435.7 144.6406,-413.7 43.6406,-413.7"/>
<image xlink:href="../../images/foreignKeys.png" width="11px" height="12px" preserveAspectRatio="xMinYMin meet" x="48.6406" y="-430.7"/>
<text text-anchor="start" x="63.6406" y="-420.8" font-family="Helvetica,sans-Serif" font-size="11.00" fill="#000000">master_oid</text>
<polygon fill="none" stroke="#000000" points="144.6406,-413.7 144.6406,-435.7 234.6406,-435.7 234.6406,-413.7 144.6406,-413.7"/>
<text text-anchor="start" x="147.1448" y="-421.4" font-family="Helvetica,sans-Serif" font-size="11.00" fill="#000000">text[2147483647]</text>
<polygon fill="#ffffff" stroke="transparent" points="43.6406,-394.7 43.6406,-413.7 79.6406,-413.7 79.6406,-394.7 43.6406,-394.7"/>
<polygon fill="none" stroke="#000000" points="43.6406,-394.7 43.6406,-413.7 79.6406,-413.7 79.6406,-394.7 43.6406,-394.7"/>
<text text-anchor="start" x="46.6406" y="-400.8" font-family="Helvetica,sans-Serif" font-size="11.00" fill="#000000">&lt; 1</text>
<polygon fill="#ffffff" stroke="transparent" points="79.6406,-394.7 79.6406,-413.7 144.6406,-413.7 144.6406,-394.7 79.6406,-394.7"/>
<polygon fill="none" stroke="#000000" points="79.6406,-394.7 79.6406,-413.7 144.6406,-413.7 144.6406,-394.7 79.6406,-394.7"/>
<text text-anchor="start" x="97.0213" y="-400.8" font-family="Helvetica,sans-Serif" font-size="11.00" fill="#000000">186 rows</text>
<polygon fill="#ffffff" stroke="transparent" points="144.6406,-394.7 144.6406,-413.7 234.6406,-413.7 234.6406,-394.7 144.6406,-394.7"/>
<polygon fill="none" stroke="#000000" points="144.6406,-394.7 144.6406,-413.7 234.6406,-413.7 234.6406,-394.7 144.6406,-394.7"/>
<text text-anchor="start" x="216.0459" y="-400.8" font-family="Helvetica,sans-Serif" font-size="11.00" fill="#000000">3 &gt;</text>
<polygon fill="none" stroke="#000000" stroke-width="2" points="42.1406,-393.7 42.1406,-547.7 235.1406,-547.7 235.1406,-393.7 42.1406,-393.7"/>
</a>
</g>
</g>
<!-- henkilo&#45;&gt;henkilo -->
<g id="edge1" class="edge">
<title>henkilo:w&#45;&gt;henkilo:e</title>
<path fill="none" stroke="#000000" d="M30.9283,-431.9813C-24.1362,-470.4054 -13.9688,-565.7 139.1406,-565.7 303.1406,-565.7 303.1406,-544.3667 234.6406,-512.7"/>
<polygon fill="#000000" stroke="#000000" points="36.6987,-428.6762 45.4299,-427.8239 40.1696,-426.6881 43.6406,-424.7 43.6406,-424.7 43.6406,-424.7 40.1696,-426.6881 41.8513,-421.5761 36.6987,-428.6762 36.6987,-428.6762"/>
<ellipse fill="none" stroke="#000000" cx="33.9219" cy="-430.2667" rx="3.2" ry="3.2"/>
</g>
<!-- opiskeluoikeus -->
<g id="node2" class="node">
<title>opiskeluoikeus</title>
<g id="a_node2"><a xlink:href="../../tables/opiskeluoikeus.html" xlink:title="opiskeluoikeus" target="_top">
<polygon fill="#ffffff" stroke="transparent" points="285.1406,-406.2 285.1406,-753.2 542.1406,-753.2 542.1406,-406.2 285.1406,-406.2"/>
<polygon fill="#f5f5f5" stroke="transparent" points="285.6406,-729.7 285.6406,-752.7 542.6406,-752.7 542.6406,-729.7 285.6406,-729.7"/>
<polygon fill="none" stroke="#000000" points="285.6406,-729.7 285.6406,-752.7 542.6406,-752.7 542.6406,-729.7 285.6406,-729.7"/>
<text text-anchor="start" x="290.6406" y="-738.3" font-family="Helvetica,sans-Serif" font-weight="bold" font-size="11.00" fill="#000000">opiskeluoikeus</text>
<text text-anchor="start" x="507.6843" y="-737.8" font-family="Helvetica,sans-Serif" font-size="11.00" fill="#000000">[table]</text>
<polygon fill="none" stroke="#000000" points="285.6406,-707.7 285.6406,-729.7 542.6406,-729.7 542.6406,-707.7 285.6406,-707.7"/>
<image xlink:href="../../images/primaryKeys.png" width="11px" height="12px" preserveAspectRatio="xMinYMin meet" x="290.641" y="-724.7"/>
<text text-anchor="start" x="305.6406" y="-714.8" font-family="Helvetica,sans-Serif" font-size="11.00" fill="#000000">id</text>
<polygon fill="#ffffff" stroke="transparent" points="285.6406,-685.7 285.6406,-707.7 542.6406,-707.7 542.6406,-685.7 285.6406,-685.7"/>
<polygon fill="none" stroke="#000000" points="285.6406,-685.7 285.6406,-707.7 542.6406,-707.7 542.6406,-685.7 285.6406,-685.7"/>
<image xlink:href="../../images/foreignKeys.png" width="11px" height="12px" preserveAspectRatio="xMinYMin meet" x="290.641" y="-702.7"/>
<text text-anchor="start" x="305.6406" y="-692.8" font-family="Helvetica,sans-Serif" font-size="11.00" fill="#000000">oppija_oid</text>
<polygon fill="#ffffff" stroke="transparent" points="285.6406,-663.7 285.6406,-685.7 542.6406,-685.7 542.6406,-663.7 285.6406,-663.7"/>
<polygon fill="none" stroke="#000000" points="285.6406,-663.7 285.6406,-685.7 542.6406,-685.7 542.6406,-663.7 285.6406,-663.7"/>
<text text-anchor="start" x="305.6406" y="-670.8" font-family="Helvetica,sans-Serif" font-size="11.00" fill="#000000">aikaleima</text>
<polygon fill="#ffffff" stroke="transparent" points="285.6406,-641.7 285.6406,-663.7 542.6406,-663.7 542.6406,-641.7 285.6406,-641.7"/>
<polygon fill="none" stroke="#000000" points="285.6406,-641.7 285.6406,-663.7 542.6406,-663.7 542.6406,-641.7 285.6406,-641.7"/>
<text text-anchor="start" x="305.6406" y="-648.8" font-family="Helvetica,sans-Serif" font-size="11.00" fill="#000000">oppilaitos_oid</text>
<polygon fill="#ffffff" stroke="transparent" points="285.6406,-619.7 285.6406,-641.7 542.6406,-641.7 542.6406,-619.7 285.6406,-619.7"/>
<polygon fill="none" stroke="#000000" points="285.6406,-619.7 285.6406,-641.7 542.6406,-641.7 542.6406,-619.7 285.6406,-619.7"/>
<text text-anchor="start" x="305.6406" y="-626.8" font-family="Helvetica,sans-Serif" font-size="11.00" fill="#000000">sisaltava_opiskeluoikeus_oppilaitos_oid</text>
<polygon fill="#ffffff" stroke="transparent" points="285.6406,-597.7 285.6406,-619.7 542.6406,-619.7 542.6406,-597.7 285.6406,-597.7"/>
<polygon fill="none" stroke="#000000" points="285.6406,-597.7 285.6406,-619.7 542.6406,-619.7 542.6406,-597.7 285.6406,-597.7"/>
<text text-anchor="start" x="305.6406" y="-604.8" font-family="Helvetica,sans-Serif" font-size="11.00" fill="#000000">oid</text>
<polygon fill="none" stroke="#000000" points="285.6406,-575.7 285.6406,-597.7 542.6406,-597.7 542.6406,-575.7 285.6406,-575.7"/>
<image xlink:href="../../images/foreignKeys.png" width="11px" height="12px" preserveAspectRatio="xMinYMin meet" x="290.641" y="-592.7"/>
<text text-anchor="start" x="305.6406" y="-582.8" font-family="Helvetica,sans-Serif" font-size="11.00" fill="#000000">sisaltava_opiskeluoikeus_oid</text>
<polygon fill="#ffffff" stroke="transparent" points="285.6406,-553.7 285.6406,-575.7 542.6406,-575.7 542.6406,-553.7 285.6406,-553.7"/>
<polygon fill="none" stroke="#000000" points="285.6406,-553.7 285.6406,-575.7 542.6406,-575.7 542.6406,-553.7 285.6406,-553.7"/>
<text text-anchor="start" x="305.6406" y="-560.8" font-family="Helvetica,sans-Serif" font-size="11.00" fill="#000000">mitatoity</text>
<polygon fill="#ffffff" stroke="transparent" points="285.6406,-531.7 285.6406,-553.7 542.6406,-553.7 542.6406,-531.7 285.6406,-531.7"/>
<polygon fill="none" stroke="#000000" points="285.6406,-531.7 285.6406,-553.7 542.6406,-553.7 542.6406,-531.7 285.6406,-531.7"/>
<text text-anchor="start" x="305.6406" y="-538.8" font-family="Helvetica,sans-Serif" font-size="11.00" fill="#000000">koulutusmuoto</text>
<polygon fill="#ffffff" stroke="transparent" points="285.6406,-509.7 285.6406,-531.7 542.6406,-531.7 542.6406,-509.7 285.6406,-509.7"/>
<polygon fill="none" stroke="#000000" points="285.6406,-509.7 285.6406,-531.7 542.6406,-531.7 542.6406,-509.7 285.6406,-509.7"/>
<text text-anchor="start" x="305.6406" y="-516.8" font-family="Helvetica,sans-Serif" font-size="11.00" fill="#000000">alkamispaiva</text>
<polygon fill="#ffffff" stroke="transparent" points="285.6406,-487.7 285.6406,-509.7 542.6406,-509.7 542.6406,-487.7 285.6406,-487.7"/>
<polygon fill="none" stroke="#000000" points="285.6406,-487.7 285.6406,-509.7 542.6406,-509.7 542.6406,-487.7 285.6406,-487.7"/>
<text text-anchor="start" x="305.6406" y="-494.8" font-family="Helvetica,sans-Serif" font-size="11.00" fill="#000000">paattymispaiva</text>
<polygon fill="#ffffff" stroke="transparent" points="285.6406,-465.7 285.6406,-487.7 542.6406,-487.7 542.6406,-465.7 285.6406,-465.7"/>
<polygon fill="none" stroke="#000000" points="285.6406,-465.7 285.6406,-487.7 542.6406,-487.7 542.6406,-465.7 285.6406,-465.7"/>
<text text-anchor="start" x="305.6406" y="-472.8" font-family="Helvetica,sans-Serif" font-size="11.00" fill="#000000">suoritustyypit</text>
<polygon fill="#ffffff" stroke="transparent" points="285.6406,-443.7 285.6406,-465.7 542.6406,-465.7 542.6406,-443.7 285.6406,-443.7"/>
<polygon fill="none" stroke="#000000" points="285.6406,-443.7 285.6406,-465.7 542.6406,-465.7 542.6406,-443.7 285.6406,-443.7"/>
<text text-anchor="start" x="305.6406" y="-450.8" font-family="Helvetica,sans-Serif" font-size="11.00" fill="#000000">poistettu</text>
<polygon fill="none" stroke="#000000" points="285.6406,-424.7 285.6406,-443.7 542.6406,-443.7 542.6406,-424.7 285.6406,-424.7"/>
<text text-anchor="start" x="288.6406" y="-430.8" font-family="Helvetica,sans-Serif" font-size="11.00" fill="#000000">...</text>
<polygon fill="#ffffff" stroke="transparent" points="285.6406,-405.7 285.6406,-424.7 388.6406,-424.7 388.6406,-405.7 285.6406,-405.7"/>
<polygon fill="none" stroke="#000000" points="285.6406,-405.7 285.6406,-424.7 388.6406,-424.7 388.6406,-405.7 285.6406,-405.7"/>
<text text-anchor="start" x="288.6406" y="-411.8" font-family="Helvetica,sans-Serif" font-size="11.00" fill="#000000">&lt; 2</text>
<polygon fill="#ffffff" stroke="transparent" points="388.6406,-405.7 388.6406,-424.7 479.6406,-424.7 479.6406,-405.7 388.6406,-405.7"/>
<polygon fill="none" stroke="#000000" points="388.6406,-405.7 388.6406,-424.7 479.6406,-424.7 479.6406,-405.7 388.6406,-405.7"/>
<text text-anchor="start" x="432.0213" y="-411.8" font-family="Helvetica,sans-Serif" font-size="11.00" fill="#000000">241 rows</text>
<polygon fill="#ffffff" stroke="transparent" points="479.6406,-405.7 479.6406,-424.7 542.6406,-424.7 542.6406,-405.7 479.6406,-405.7"/>
<polygon fill="none" stroke="#000000" points="479.6406,-405.7 479.6406,-424.7 542.6406,-424.7 542.6406,-405.7 479.6406,-405.7"/>
<text text-anchor="start" x="524.0459" y="-411.8" font-family="Helvetica,sans-Serif" font-size="11.00" fill="#000000">4 &gt;</text>
</a>
</g>
</g>
<!-- opiskeluoikeus&#45;&gt;henkilo -->
<g id="edge2" class="edge">
<title>opiskeluoikeus:w&#45;&gt;henkilo:e</title>
<path fill="none" stroke="#000000" d="M275.007,-695.525C211.4625,-679.8543 315.5237,-512.7 234.6406,-512.7"/>
<polygon fill="#000000" stroke="#000000" points="285.2848,-692.6363 284.4061,-700.5879 282.8157,-700.4122 283.6945,-692.4606 285.2848,-692.6363"/>
<polyline fill="none" stroke="#000000" points="285.6406,-696.7 281.6648,-696.2606 "/>
<ellipse fill="none" stroke="#000000" cx="278.4841" cy="-695.9092" rx="3.2" ry="3.2"/>
</g>
<!-- opiskeluoikeushistoria -->
<g id="node3" class="node">
<title>opiskeluoikeushistoria</title>
<g id="a_node3"><a xlink:href="../../tables/opiskeluoikeushistoria.html" xlink:title="opiskeluoikeushistoria" target="_top">
<polygon fill="#ffffff" stroke="transparent" points="602.6406,-759.2 602.6406,-820.2 777.6406,-820.2 777.6406,-759.2 602.6406,-759.2"/>
<polygon fill="#f5f5f5" stroke="transparent" points="603.1406,-796.7 603.1406,-819.7 778.1406,-819.7 778.1406,-796.7 603.1406,-796.7"/>
<polygon fill="none" stroke="#000000" points="603.1406,-796.7 603.1406,-819.7 778.1406,-819.7 778.1406,-796.7 603.1406,-796.7"/>
<text text-anchor="start" x="608.1406" y="-805.3" font-family="Helvetica,sans-Serif" font-weight="bold" font-size="11.00" fill="#000000">opiskeluoikeushistoria</text>
<text text-anchor="start" x="743.6624" y="-804.8" font-family="Helvetica,sans-Serif" font-size="11.00" fill="#000000">[table]</text>
<polygon fill="none" stroke="#000000" points="603.1406,-777.7 603.1406,-796.7 778.1406,-796.7 778.1406,-777.7 603.1406,-777.7"/>
<text text-anchor="start" x="606.1406" y="-783.8" font-family="Helvetica,sans-Serif" font-size="11.00" fill="#000000">...</text>
<polygon fill="#ffffff" stroke="transparent" points="603.1406,-758.7 603.1406,-777.7 670.1406,-777.7 670.1406,-758.7 603.1406,-758.7"/>
<polygon fill="none" stroke="#000000" points="603.1406,-758.7 603.1406,-777.7 670.1406,-777.7 670.1406,-758.7 603.1406,-758.7"/>
<text text-anchor="start" x="606.1406" y="-764.8" font-family="Helvetica,sans-Serif" font-size="11.00" fill="#000000">&lt; 1</text>
<polygon fill="#ffffff" stroke="transparent" points="670.1406,-758.7 670.1406,-777.7 743.1406,-777.7 743.1406,-758.7 670.1406,-758.7"/>
<polygon fill="none" stroke="#000000" points="670.1406,-758.7 670.1406,-777.7 743.1406,-777.7 743.1406,-758.7 670.1406,-758.7"/>
<text text-anchor="start" x="695.5213" y="-764.8" font-family="Helvetica,sans-Serif" font-size="11.00" fill="#000000">241 rows</text>
<polygon fill="#ffffff" stroke="transparent" points="743.1406,-758.7 743.1406,-777.7 778.1406,-777.7 778.1406,-758.7 743.1406,-758.7"/>
<polygon fill="none" stroke="#000000" points="743.1406,-758.7 743.1406,-777.7 778.1406,-777.7 778.1406,-758.7 743.1406,-758.7"/>
<text text-anchor="start" x="769.0268" y="-764.8" font-family="Helvetica,sans-Serif" font-size="11.00" fill="#000000"> &#160;</text>
</a>
</g>
</g>
<!-- opiskeluoikeushistoria&#45;&gt;opiskeluoikeus -->
<g id="edge3" class="edge">
<title>opiskeluoikeushistoria:w&#45;&gt;opiskeluoikeus:e</title>
<path fill="none" stroke="#000000" d="M589.047,-782.8492C567.3152,-768.4642 577.2463,-718.7 542.6406,-718.7"/>
<polygon fill="#000000" stroke="#000000" points="595.4235,-784.5914 602.1917,-790.1727 599.282,-785.6457 603.1406,-786.7 603.1406,-786.7 603.1406,-786.7 599.282,-785.6457 604.0895,-783.2273 595.4235,-784.5914 595.4235,-784.5914"/>
<ellipse fill="none" stroke="#000000" cx="592.3366" cy="-783.748" rx="3.2" ry="3.2"/>
</g>
<!-- perustiedot_manual_sync -->
<g id="node4" class="node">
<title>perustiedot_manual_sync</title>
<g id="a_node4"><a xlink:href="../../tables/perustiedot_manual_sync.html" xlink:title="perustiedot_manual_sync" target="_top">
<polygon fill="#ffffff" stroke="transparent" points="594.6406,-581.2 594.6406,-642.2 785.6406,-642.2 785.6406,-581.2 594.6406,-581.2"/>
<polygon fill="#f5f5f5" stroke="transparent" points="595.1406,-618.7 595.1406,-641.7 786.1406,-641.7 786.1406,-618.7 595.1406,-618.7"/>
<polygon fill="none" stroke="#000000" points="595.1406,-618.7 595.1406,-641.7 786.1406,-641.7 786.1406,-618.7 595.1406,-618.7"/>
<text text-anchor="start" x="600.1406" y="-627.3" font-family="Helvetica,sans-Serif" font-weight="bold" font-size="11.00" fill="#000000">perustiedot_manual_sync</text>
<text text-anchor="start" x="751.6624" y="-626.8" font-family="Helvetica,sans-Serif" font-size="11.00" fill="#000000">[table]</text>
<polygon fill="none" stroke="#000000" points="595.1406,-599.7 595.1406,-618.7 786.1406,-618.7 786.1406,-599.7 595.1406,-599.7"/>
<text text-anchor="start" x="598.1406" y="-605.8" font-family="Helvetica,sans-Serif" font-size="11.00" fill="#000000">...</text>
<polygon fill="#ffffff" stroke="transparent" points="595.1406,-580.7 595.1406,-599.7 689.1406,-599.7 689.1406,-580.7 595.1406,-580.7"/>
<polygon fill="none" stroke="#000000" points="595.1406,-580.7 595.1406,-599.7 689.1406,-599.7 689.1406,-580.7 595.1406,-580.7"/>
<text text-anchor="start" x="598.1406" y="-586.8" font-family="Helvetica,sans-Serif" font-size="11.00" fill="#000000">&lt; 1</text>
<polygon fill="#ffffff" stroke="transparent" points="689.1406,-580.7 689.1406,-599.7 737.1406,-599.7 737.1406,-580.7 689.1406,-580.7"/>
<polygon fill="none" stroke="#000000" points="689.1406,-580.7 689.1406,-599.7 737.1406,-599.7 737.1406,-580.7 689.1406,-580.7"/>
<text text-anchor="start" x="728.0268" y="-586.8" font-family="Helvetica,sans-Serif" font-size="11.00" fill="#000000"> &#160;</text>
<polygon fill="#ffffff" stroke="transparent" points="737.1406,-580.7 737.1406,-599.7 786.1406,-599.7 786.1406,-580.7 737.1406,-580.7"/>
<polygon fill="none" stroke="#000000" points="737.1406,-580.7 737.1406,-599.7 786.1406,-599.7 786.1406,-580.7 737.1406,-580.7"/>
<text text-anchor="start" x="777.0268" y="-586.8" font-family="Helvetica,sans-Serif" font-size="11.00" fill="#000000"> &#160;</text>
</a>
</g>
</g>
<!-- perustiedot_manual_sync&#45;&gt;opiskeluoikeus -->
<g id="edge4" class="edge">
<title>perustiedot_manual_sync:w&#45;&gt;opiskeluoikeus:e</title>
<path fill="none" stroke="#000000" d="M580.375,-608.7C567.7968,-608.7 560.1406,-608.7 542.6406,-608.7"/>
<polygon fill="#000000" stroke="#000000" points="587.1406,-608.7001 595.1406,-612.3 591.1406,-608.7 595.1406,-608.7 595.1406,-608.7 595.1406,-608.7 591.1406,-608.7 595.1406,-605.1 587.1406,-608.7001 587.1406,-608.7001"/>
<ellipse fill="none" stroke="#000000" cx="583.9406" cy="-608.7001" rx="3.2" ry="3.2"/>
</g>
<!-- perustiedot_sync -->
<g id="node5" class="node">
<title>perustiedot_sync</title>
<g id="a_node5"><a xlink:href="../../tables/perustiedot_sync.html" xlink:title="perustiedot_sync" target="_top">
<polygon fill="#ffffff" stroke="transparent" points="620.1406,-677.2 620.1406,-738.2 760.1406,-738.2 760.1406,-677.2 620.1406,-677.2"/>
<polygon fill="#f5f5f5" stroke="transparent" points="620.1406,-714.7 620.1406,-737.7 760.1406,-737.7 760.1406,-714.7 620.1406,-714.7"/>
<polygon fill="none" stroke="#000000" points="620.1406,-714.7 620.1406,-737.7 760.1406,-737.7 760.1406,-714.7 620.1406,-714.7"/>
<text text-anchor="start" x="625.1406" y="-723.3" font-family="Helvetica,sans-Serif" font-weight="bold" font-size="11.00" fill="#000000">perustiedot_sync</text>
<text text-anchor="start" x="725.6624" y="-722.8" font-family="Helvetica,sans-Serif" font-size="11.00" fill="#000000">[table]</text>
<polygon fill="none" stroke="#000000" points="620.1406,-695.7 620.1406,-714.7 760.1406,-714.7 760.1406,-695.7 620.1406,-695.7"/>
<text text-anchor="start" x="623.1406" y="-701.8" font-family="Helvetica,sans-Serif" font-size="11.00" fill="#000000">...</text>
<polygon fill="#ffffff" stroke="transparent" points="620.1406,-676.7 620.1406,-695.7 675.1406,-695.7 675.1406,-676.7 620.1406,-676.7"/>
<polygon fill="none" stroke="#000000" points="620.1406,-676.7 620.1406,-695.7 675.1406,-695.7 675.1406,-676.7 620.1406,-676.7"/>
<text text-anchor="start" x="623.1406" y="-682.8" font-family="Helvetica,sans-Serif" font-size="11.00" fill="#000000">&lt; 1</text>
<polygon fill="#ffffff" stroke="transparent" points="675.1406,-676.7 675.1406,-695.7 730.1406,-695.7 730.1406,-676.7 675.1406,-676.7"/>
<polygon fill="none" stroke="#000000" points="675.1406,-676.7 675.1406,-695.7 730.1406,-695.7 730.1406,-676.7 675.1406,-676.7"/>
<text text-anchor="start" x="694.7511" y="-682.8" font-family="Helvetica,sans-Serif" font-size="11.00" fill="#000000">0 rows</text>
<polygon fill="#ffffff" stroke="transparent" points="730.1406,-676.7 730.1406,-695.7 760.1406,-695.7 760.1406,-676.7 730.1406,-676.7"/>
<polygon fill="none" stroke="#000000" points="730.1406,-676.7 730.1406,-695.7 760.1406,-695.7 760.1406,-676.7 730.1406,-676.7"/>
<text text-anchor="start" x="751.0268" y="-682.8" font-family="Helvetica,sans-Serif" font-size="11.00" fill="#000000"> &#160;</text>
</a>
</g>
</g>
<!-- perustiedot_sync&#45;&gt;opiskeluoikeus -->
<g id="edge5" class="edge">
<title>perustiedot_sync:w&#45;&gt;opiskeluoikeus:e</title>
<path fill="none" stroke="#000000" d="M605.5382,-705.6186C582.1246,-708.7332 572.1735,-718.7 542.6406,-718.7"/>
<polygon fill="#000000" stroke="#000000" points="612.1564,-705.2023 620.3666,-708.2929 616.1485,-704.9512 620.1406,-704.7 620.1406,-704.7 620.1406,-704.7 616.1485,-704.9512 619.9145,-701.1071 612.1564,-705.2023 612.1564,-705.2023"/>
<ellipse fill="none" stroke="#000000" cx="608.9627" cy="-705.4032" rx="3.2" ry="3.2"/>
</g>
<!-- ytr_opiskeluoikeus -->
<g id="node6" class="node">
<title>ytr_opiskeluoikeus</title>
<g id="a_node6"><a xlink:href="../../tables/ytr_opiskeluoikeus.html" xlink:title="ytr_opiskeluoikeus" target="_top">
<polygon fill="#ffffff" stroke="transparent" points="285.1406,-38.2 285.1406,-385.2 542.1406,-385.2 542.1406,-38.2 285.1406,-38.2"/>
<polygon fill="#f5f5f5" stroke="transparent" points="285.6406,-361.7 285.6406,-384.7 542.6406,-384.7 542.6406,-361.7 285.6406,-361.7"/>
<polygon fill="none" stroke="#000000" points="285.6406,-361.7 285.6406,-384.7 542.6406,-384.7 542.6406,-361.7 285.6406,-361.7"/>
<text text-anchor="start" x="290.6406" y="-370.3" font-family="Helvetica,sans-Serif" font-weight="bold" font-size="11.00" fill="#000000">ytr_opiskeluoikeus</text>
<text text-anchor="start" x="507.6843" y="-369.8" font-family="Helvetica,sans-Serif" font-size="11.00" fill="#000000">[table]</text>
<polygon fill="none" stroke="#000000" points="285.6406,-339.7 285.6406,-361.7 542.6406,-361.7 542.6406,-339.7 285.6406,-339.7"/>
<image xlink:href="../../images/primaryKeys.png" width="11px" height="12px" preserveAspectRatio="xMinYMin meet" x="290.641" y="-356.7"/>
<text text-anchor="start" x="305.6406" y="-346.8" font-family="Helvetica,sans-Serif" font-size="11.00" fill="#000000">id</text>
<polygon fill="#ffffff" stroke="transparent" points="285.6406,-317.7 285.6406,-339.7 542.6406,-339.7 542.6406,-317.7 285.6406,-317.7"/>
<polygon fill="none" stroke="#000000" points="285.6406,-317.7 285.6406,-339.7 542.6406,-339.7 542.6406,-317.7 285.6406,-317.7"/>
<image xlink:href="../../images/foreignKeys.png" width="11px" height="12px" preserveAspectRatio="xMinYMin meet" x="290.641" y="-334.7"/>
<text text-anchor="start" x="305.6406" y="-324.8" font-family="Helvetica,sans-Serif" font-size="11.00" fill="#000000">oppija_oid</text>
<polygon fill="#ffffff" stroke="transparent" points="285.6406,-295.7 285.6406,-317.7 542.6406,-317.7 542.6406,-295.7 285.6406,-295.7"/>
<polygon fill="none" stroke="#000000" points="285.6406,-295.7 285.6406,-317.7 542.6406,-317.7 542.6406,-295.7 285.6406,-295.7"/>
<text text-anchor="start" x="305.6406" y="-302.8" font-family="Helvetica,sans-Serif" font-size="11.00" fill="#000000">aikaleima</text>
<polygon fill="#ffffff" stroke="transparent" points="285.6406,-273.7 285.6406,-295.7 542.6406,-295.7 542.6406,-273.7 285.6406,-273.7"/>
<polygon fill="none" stroke="#000000" points="285.6406,-273.7 285.6406,-295.7 542.6406,-295.7 542.6406,-273.7 285.6406,-273.7"/>
<text text-anchor="start" x="305.6406" y="-280.8" font-family="Helvetica,sans-Serif" font-size="11.00" fill="#000000">oppilaitos_oid</text>
<polygon fill="#ffffff" stroke="transparent" points="285.6406,-251.7 285.6406,-273.7 542.6406,-273.7 542.6406,-251.7 285.6406,-251.7"/>
<polygon fill="none" stroke="#000000" points="285.6406,-251.7 285.6406,-273.7 542.6406,-273.7 542.6406,-251.7 285.6406,-251.7"/>
<text text-anchor="start" x="305.6406" y="-258.8" font-family="Helvetica,sans-Serif" font-size="11.00" fill="#000000">sisaltava_opiskeluoikeus_oppilaitos_oid</text>
<polygon fill="#ffffff" stroke="transparent" points="285.6406,-229.7 285.6406,-251.7 542.6406,-251.7 542.6406,-229.7 285.6406,-229.7"/>
<polygon fill="none" stroke="#000000" points="285.6406,-229.7 285.6406,-251.7 542.6406,-251.7 542.6406,-229.7 285.6406,-229.7"/>
<text text-anchor="start" x="305.6406" y="-236.8" font-family="Helvetica,sans-Serif" font-size="11.00" fill="#000000">oid</text>
<polygon fill="none" stroke="#000000" points="285.6406,-207.7 285.6406,-229.7 542.6406,-229.7 542.6406,-207.7 285.6406,-207.7"/>
<image xlink:href="../../images/foreignKeys.png" width="11px" height="12px" preserveAspectRatio="xMinYMin meet" x="290.641" y="-224.7"/>
<text text-anchor="start" x="305.6406" y="-214.8" font-family="Helvetica,sans-Serif" font-size="11.00" fill="#000000">sisaltava_opiskeluoikeus_oid</text>
<polygon fill="#ffffff" stroke="transparent" points="285.6406,-185.7 285.6406,-207.7 542.6406,-207.7 542.6406,-185.7 285.6406,-185.7"/>
<polygon fill="none" stroke="#000000" points="285.6406,-185.7 285.6406,-207.7 542.6406,-207.7 542.6406,-185.7 285.6406,-185.7"/>
<text text-anchor="start" x="305.6406" y="-192.8" font-family="Helvetica,sans-Serif" font-size="11.00" fill="#000000">mitatoity</text>
<polygon fill="#ffffff" stroke="transparent" points="285.6406,-163.7 285.6406,-185.7 542.6406,-185.7 542.6406,-163.7 285.6406,-163.7"/>
<polygon fill="none" stroke="#000000" points="285.6406,-163.7 285.6406,-185.7 542.6406,-185.7 542.6406,-163.7 285.6406,-163.7"/>
<text text-anchor="start" x="305.6406" y="-170.8" font-family="Helvetica,sans-Serif" font-size="11.00" fill="#000000">koulutusmuoto</text>
<polygon fill="#ffffff" stroke="transparent" points="285.6406,-141.7 285.6406,-163.7 542.6406,-163.7 542.6406,-141.7 285.6406,-141.7"/>
<polygon fill="none" stroke="#000000" points="285.6406,-141.7 285.6406,-163.7 542.6406,-163.7 542.6406,-141.7 285.6406,-141.7"/>
<text text-anchor="start" x="305.6406" y="-148.8" font-family="Helvetica,sans-Serif" font-size="11.00" fill="#000000">alkamispaiva</text>
<polygon fill="#ffffff" stroke="transparent" points="285.6406,-119.7 285.6406,-141.7 542.6406,-141.7 542.6406,-119.7 285.6406,-119.7"/>
<polygon fill="none" stroke="#000000" points="285.6406,-119.7 285.6406,-141.7 542.6406,-141.7 542.6406,-119.7 285.6406,-119.7"/>
<text text-anchor="start" x="305.6406" y="-126.8" font-family="Helvetica,sans-Serif" font-size="11.00" fill="#000000">paattymispaiva</text>
<polygon fill="#ffffff" stroke="transparent" points="285.6406,-97.7 285.6406,-119.7 542.6406,-119.7 542.6406,-97.7 285.6406,-97.7"/>
<polygon fill="none" stroke="#000000" points="285.6406,-97.7 285.6406,-119.7 542.6406,-119.7 542.6406,-97.7 285.6406,-97.7"/>
<text text-anchor="start" x="305.6406" y="-104.8" font-family="Helvetica,sans-Serif" font-size="11.00" fill="#000000">suoritustyypit</text>
<polygon fill="#ffffff" stroke="transparent" points="285.6406,-75.7 285.6406,-97.7 542.6406,-97.7 542.6406,-75.7 285.6406,-75.7"/>
<polygon fill="none" stroke="#000000" points="285.6406,-75.7 285.6406,-97.7 542.6406,-97.7 542.6406,-75.7 285.6406,-75.7"/>
<text text-anchor="start" x="305.6406" y="-82.8" font-family="Helvetica,sans-Serif" font-size="11.00" fill="#000000">poistettu</text>
<polygon fill="none" stroke="#000000" points="285.6406,-56.7 285.6406,-75.7 542.6406,-75.7 542.6406,-56.7 285.6406,-56.7"/>
<text text-anchor="start" x="288.6406" y="-62.8" font-family="Helvetica,sans-Serif" font-size="11.00" fill="#000000">...</text>
<polygon fill="#ffffff" stroke="transparent" points="285.6406,-37.7 285.6406,-56.7 394.6406,-56.7 394.6406,-37.7 285.6406,-37.7"/>
<polygon fill="none" stroke="#000000" points="285.6406,-37.7 285.6406,-56.7 394.6406,-56.7 394.6406,-37.7 285.6406,-37.7"/>
<text text-anchor="start" x="288.6406" y="-43.8" font-family="Helvetica,sans-Serif" font-size="11.00" fill="#000000">&lt; 2</text>
<polygon fill="#ffffff" stroke="transparent" points="394.6406,-37.7 394.6406,-56.7 476.6406,-56.7 476.6406,-37.7 394.6406,-37.7"/>
<polygon fill="none" stroke="#000000" points="394.6406,-37.7 394.6406,-56.7 476.6406,-56.7 476.6406,-37.7 394.6406,-37.7"/>
<text text-anchor="start" x="441.2511" y="-43.8" font-family="Helvetica,sans-Serif" font-size="11.00" fill="#000000">6 rows</text>
<polygon fill="#ffffff" stroke="transparent" points="476.6406,-37.7 476.6406,-56.7 542.6406,-56.7 542.6406,-37.7 476.6406,-37.7"/>
<polygon fill="none" stroke="#000000" points="476.6406,-37.7 476.6406,-56.7 542.6406,-56.7 542.6406,-37.7 476.6406,-37.7"/>
<text text-anchor="start" x="524.0459" y="-43.8" font-family="Helvetica,sans-Serif" font-size="11.00" fill="#000000">2 &gt;</text>
</a>
</g>
</g>
<!-- ytr_opiskeluoikeus&#45;&gt;henkilo -->
<g id="edge6" class="edge">
<title>ytr_opiskeluoikeus:w&#45;&gt;henkilo:e</title>
<path fill="none" stroke="#000000" d="M275.007,-329.875C211.4625,-345.5457 315.5237,-512.7 234.6406,-512.7"/>
<polygon fill="#000000" stroke="#000000" points="284.4061,-324.8121 285.2848,-332.7637 283.6945,-332.9394 282.8157,-324.9878 284.4061,-324.8121"/>
<polyline fill="none" stroke="#000000" points="285.6406,-328.7 281.6648,-329.1394 "/>
<ellipse fill="none" stroke="#000000" cx="278.4841" cy="-329.4908" rx="3.2" ry="3.2"/>
</g>
<!-- ytr_opiskeluoikeushistoria -->
<g id="node7" class="node">
<title>ytr_opiskeluoikeushistoria</title>
<g id="a_node7"><a xlink:href="../../tables/ytr_opiskeluoikeushistoria.html" xlink:title="ytr_opiskeluoikeushistoria" target="_top">
<polygon fill="#ffffff" stroke="transparent" points="591.1406,-323.2 591.1406,-384.2 789.1406,-384.2 789.1406,-323.2 591.1406,-323.2"/>
<polygon fill="#f5f5f5" stroke="transparent" points="591.1406,-360.7 591.1406,-383.7 789.1406,-383.7 789.1406,-360.7 591.1406,-360.7"/>
<polygon fill="none" stroke="#000000" points="591.1406,-360.7 591.1406,-383.7 789.1406,-383.7 789.1406,-360.7 591.1406,-360.7"/>
<text text-anchor="start" x="596.1406" y="-369.3" font-family="Helvetica,sans-Serif" font-weight="bold" font-size="11.00" fill="#000000">ytr_opiskeluoikeushistoria</text>
<text text-anchor="start" x="754.6624" y="-368.8" font-family="Helvetica,sans-Serif" font-size="11.00" fill="#000000">[table]</text>
<polygon fill="none" stroke="#000000" points="591.1406,-341.7 591.1406,-360.7 789.1406,-360.7 789.1406,-341.7 591.1406,-341.7"/>
<text text-anchor="start" x="594.1406" y="-347.8" font-family="Helvetica,sans-Serif" font-size="11.00" fill="#000000">...</text>
<polygon fill="#ffffff" stroke="transparent" points="591.1406,-322.7 591.1406,-341.7 675.1406,-341.7 675.1406,-322.7 591.1406,-322.7"/>
<polygon fill="none" stroke="#000000" points="591.1406,-322.7 591.1406,-341.7 675.1406,-341.7 675.1406,-322.7 591.1406,-322.7"/>
<text text-anchor="start" x="594.1406" y="-328.8" font-family="Helvetica,sans-Serif" font-size="11.00" fill="#000000">&lt; 1</text>
<polygon fill="#ffffff" stroke="transparent" points="675.1406,-322.7 675.1406,-341.7 745.1406,-341.7 745.1406,-322.7 675.1406,-322.7"/>
<polygon fill="none" stroke="#000000" points="675.1406,-322.7 675.1406,-341.7 745.1406,-341.7 745.1406,-322.7 675.1406,-322.7"/>
<text text-anchor="start" x="709.7511" y="-328.8" font-family="Helvetica,sans-Serif" font-size="11.00" fill="#000000">6 rows</text>
<polygon fill="#ffffff" stroke="transparent" points="745.1406,-322.7 745.1406,-341.7 789.1406,-341.7 789.1406,-322.7 745.1406,-322.7"/>
<polygon fill="none" stroke="#000000" points="745.1406,-322.7 745.1406,-341.7 789.1406,-341.7 789.1406,-322.7 745.1406,-322.7"/>
<text text-anchor="start" x="780.0268" y="-328.8" font-family="Helvetica,sans-Serif" font-size="11.00" fill="#000000"> &#160;</text>
</a>
</g>
</g>
<!-- ytr_opiskeluoikeushistoria&#45;&gt;ytr_opiskeluoikeus -->
<g id="edge7" class="edge">
<title>ytr_opiskeluoikeushistoria:w&#45;&gt;ytr_opiskeluoikeus:e</title>
<path fill="none" stroke="#000000" d="M576.4235,-350.7C565.4292,-350.7 558.302,-350.7 542.6406,-350.7"/>
<polygon fill="#000000" stroke="#000000" points="583.1406,-350.7001 591.1406,-354.3 587.1406,-350.7 591.1406,-350.7 591.1406,-350.7 591.1406,-350.7 587.1406,-350.7 591.1406,-347.1 583.1406,-350.7001 583.1406,-350.7001"/>
<ellipse fill="none" stroke="#000000" cx="579.9406" cy="-350.7001" rx="3.2" ry="3.2"/>
</g>
</g>
</svg>
