<?xml version="1.0" encoding="UTF-8" standalone="no"?>
<!DOCTYPE svg PUBLIC "-//W3C//DTD SVG 1.1//EN"
 "http://www.w3.org/Graphics/SVG/1.1/DTD/svg11.dtd">
<!-- Generated by graphviz version 2.40.1 (20161225.0304)
 -->
<!-- Title: twoDegreesRelationshipsDiagram Pages: 1 -->
<svg width="866pt" height="832pt"
 viewBox="0.00 0.00 865.98 832.20" xmlns="http://www.w3.org/2000/svg" xmlns:xlink="http://www.w3.org/1999/xlink">
<g id="graph0" class="graph" transform="scale(1 1) rotate(0) translate(4 828.2)">
<title>twoDegreesRelationshipsDiagram</title>
<polygon fill="#ffffff" stroke="transparent" points="-4,4 -4,-828.2 861.9772,-828.2 861.9772,4 -4,4"/>
<text text-anchor="middle" x="72.4936" y="-7.3" font-family="Helvetica,sans-Serif" font-size="11.00" fill="#000000">Generated by SchemaSpy</text>
<!-- henkilo -->
<g id="node1" class="node">
<title>henkilo</title>
<g id="a_node1"><a xlink:href="../../tables/henkilo.html" xlink:title="henkilo" target="_top">
<polygon fill="#ffffff" stroke="transparent" points="44.9772,-392.7 44.9772,-548.7 246.9772,-548.7 246.9772,-392.7 44.9772,-392.7"/>
<polygon fill="#f5f5f5" stroke="transparent" points="46.9772,-523.7 46.9772,-546.7 244.9772,-546.7 244.9772,-523.7 46.9772,-523.7"/>
<polygon fill="none" stroke="#000000" points="46.9772,-523.7 46.9772,-546.7 244.9772,-546.7 244.9772,-523.7 46.9772,-523.7"/>
<text text-anchor="start" x="51.9772" y="-532.3" font-family="Helvetica,sans-Serif" font-weight="bold" font-size="11.00" fill="#000000">henkilo</text>
<text text-anchor="start" x="210.0209" y="-531.8" font-family="Helvetica,sans-Serif" font-size="11.00" fill="#000000">[table]</text>
<polygon fill="none" stroke="#000000" points="46.9772,-501.7 46.9772,-523.7 154.9772,-523.7 154.9772,-501.7 46.9772,-501.7"/>
<image xlink:href="../../images/primaryKeys.png" width="11px" height="12px" preserveAspectRatio="xMinYMin meet" x="51.9772" y="-518.7"/>
<text text-anchor="start" x="66.9772" y="-508.8" font-family="Helvetica,sans-Serif" font-size="11.00" fill="#000000">oid</text>
<polygon fill="none" stroke="#000000" points="154.9772,-501.7 154.9772,-523.7 244.9772,-523.7 244.9772,-501.7 154.9772,-501.7"/>
<text text-anchor="start" x="157.4814" y="-509.4" font-family="Helvetica,sans-Serif" font-size="11.00" fill="#000000">text[2147483647]</text>
<polygon fill="none" stroke="#000000" points="46.9772,-479.7 46.9772,-501.7 154.9772,-501.7 154.9772,-479.7 46.9772,-479.7"/>
<text text-anchor="start" x="66.9772" y="-486.8" font-family="Helvetica,sans-Serif" font-size="11.00" fill="#000000">sukunimi</text>
<polygon fill="none" stroke="#000000" points="154.9772,-479.7 154.9772,-501.7 244.9772,-501.7 244.9772,-479.7 154.9772,-479.7"/>
<text text-anchor="start" x="157.4814" y="-487.4" font-family="Helvetica,sans-Serif" font-size="11.00" fill="#000000">text[2147483647]</text>
<polygon fill="none" stroke="#000000" points="46.9772,-457.7 46.9772,-479.7 154.9772,-479.7 154.9772,-457.7 46.9772,-457.7"/>
<text text-anchor="start" x="66.9772" y="-464.8" font-family="Helvetica,sans-Serif" font-size="11.00" fill="#000000">etunimet</text>
<polygon fill="none" stroke="#000000" points="154.9772,-457.7 154.9772,-479.7 244.9772,-479.7 244.9772,-457.7 154.9772,-457.7"/>
<text text-anchor="start" x="157.4814" y="-465.4" font-family="Helvetica,sans-Serif" font-size="11.00" fill="#000000">text[2147483647]</text>
<polygon fill="none" stroke="#000000" points="46.9772,-435.7 46.9772,-457.7 154.9772,-457.7 154.9772,-435.7 46.9772,-435.7"/>
<text text-anchor="start" x="66.9772" y="-442.8" font-family="Helvetica,sans-Serif" font-size="11.00" fill="#000000">kutsumanimi</text>
<polygon fill="none" stroke="#000000" points="154.9772,-435.7 154.9772,-457.7 244.9772,-457.7 244.9772,-435.7 154.9772,-435.7"/>
<text text-anchor="start" x="157.4814" y="-443.4" font-family="Helvetica,sans-Serif" font-size="11.00" fill="#000000">text[2147483647]</text>
<polygon fill="#ffffff" stroke="transparent" points="46.9772,-413.7 46.9772,-435.7 154.9772,-435.7 154.9772,-413.7 46.9772,-413.7"/>
<polygon fill="none" stroke="#000000" points="46.9772,-413.7 46.9772,-435.7 154.9772,-435.7 154.9772,-413.7 46.9772,-413.7"/>
<image xlink:href="../../images/foreignKeys.png" width="11px" height="12px" preserveAspectRatio="xMinYMin meet" x="51.9772" y="-430.7"/>
<text text-anchor="start" x="66.9772" y="-420.8" font-family="Helvetica,sans-Serif" font-size="11.00" fill="#000000">master_oid</text>
<polygon fill="none" stroke="#000000" points="154.9772,-413.7 154.9772,-435.7 244.9772,-435.7 244.9772,-413.7 154.9772,-413.7"/>
<text text-anchor="start" x="157.4814" y="-421.4" font-family="Helvetica,sans-Serif" font-size="11.00" fill="#000000">text[2147483647]</text>
<polygon fill="#ffffff" stroke="transparent" points="46.9772,-394.7 46.9772,-413.7 85.9772,-413.7 85.9772,-394.7 46.9772,-394.7"/>
<polygon fill="none" stroke="#000000" points="46.9772,-394.7 46.9772,-413.7 85.9772,-413.7 85.9772,-394.7 46.9772,-394.7"/>
<text text-anchor="start" x="49.9772" y="-400.8" font-family="Helvetica,sans-Serif" font-size="11.00" fill="#000000">&lt; 1</text>
<polygon fill="#ffffff" stroke="transparent" points="85.9772,-394.7 85.9772,-413.7 154.9772,-413.7 154.9772,-394.7 85.9772,-394.7"/>
<polygon fill="none" stroke="#000000" points="85.9772,-394.7 85.9772,-413.7 154.9772,-413.7 154.9772,-394.7 85.9772,-394.7"/>
<text text-anchor="start" x="107.3579" y="-400.8" font-family="Helvetica,sans-Serif" font-size="11.00" fill="#000000">206 rows</text>
<polygon fill="#ffffff" stroke="transparent" points="154.9772,-394.7 154.9772,-413.7 244.9772,-413.7 244.9772,-394.7 154.9772,-394.7"/>
<polygon fill="none" stroke="#000000" points="154.9772,-394.7 154.9772,-413.7 244.9772,-413.7 244.9772,-394.7 154.9772,-394.7"/>
<text text-anchor="start" x="226.3825" y="-400.8" font-family="Helvetica,sans-Serif" font-size="11.00" fill="#000000">3 &gt;</text>
<polygon fill="none" stroke="#000000" stroke-width="2" points="45.9772,-393.7 45.9772,-547.7 245.9772,-547.7 245.9772,-393.7 45.9772,-393.7"/>
</a>
</g>
</g>
<!-- henkilo&#45;&gt;henkilo -->
<g id="edge1" class="edge">
<title>henkilo:w&#45;&gt;henkilo:e</title>
<path fill="none" stroke="#000000" d="M34.0814,-431.502C-25.849,-469.6063 -15.7416,-565.7 145.9772,-565.7 318.4772,-565.7 318.4772,-544.3667 244.9772,-512.7"/>
<polygon fill="#000000" stroke="#000000" points="39.9012,-428.4323 48.6567,-427.8842 43.4392,-426.5662 46.9772,-424.7 46.9772,-424.7 46.9772,-424.7 43.4392,-426.5662 45.2976,-421.5158 39.9012,-428.4323 39.9012,-428.4323"/>
<ellipse fill="none" stroke="#000000" cx="37.0708" cy="-429.9253" rx="3.2" ry="3.2"/>
</g>
<!-- opiskeluoikeus -->
<g id="node2" class="node">
<title>opiskeluoikeus</title>
<g id="a_node2"><a xlink:href="../../tables/opiskeluoikeus.html" xlink:title="opiskeluoikeus" target="_top">
<polygon fill="#ffffff" stroke="transparent" points="295.9772,-406.2 295.9772,-753.2 583.9772,-753.2 583.9772,-406.2 295.9772,-406.2"/>
<polygon fill="#f5f5f5" stroke="transparent" points="295.9772,-729.7 295.9772,-752.7 583.9772,-752.7 583.9772,-729.7 295.9772,-729.7"/>
<polygon fill="none" stroke="#000000" points="295.9772,-729.7 295.9772,-752.7 583.9772,-752.7 583.9772,-729.7 295.9772,-729.7"/>
<text text-anchor="start" x="300.9772" y="-738.3" font-family="Helvetica,sans-Serif" font-weight="bold" font-size="11.00" fill="#000000">opiskeluoikeus</text>
<text text-anchor="start" x="549.0209" y="-737.8" font-family="Helvetica,sans-Serif" font-size="11.00" fill="#000000">[table]</text>
<polygon fill="none" stroke="#000000" points="295.9772,-707.7 295.9772,-729.7 583.9772,-729.7 583.9772,-707.7 295.9772,-707.7"/>
<image xlink:href="../../images/primaryKeys.png" width="11px" height="12px" preserveAspectRatio="xMinYMin meet" x="300.977" y="-724.7"/>
<text text-anchor="start" x="315.9772" y="-714.8" font-family="Helvetica,sans-Serif" font-size="11.00" fill="#000000">id</text>
<polygon fill="#ffffff" stroke="transparent" points="295.9772,-685.7 295.9772,-707.7 583.9772,-707.7 583.9772,-685.7 295.9772,-685.7"/>
<polygon fill="none" stroke="#000000" points="295.9772,-685.7 295.9772,-707.7 583.9772,-707.7 583.9772,-685.7 295.9772,-685.7"/>
<image xlink:href="../../images/foreignKeys.png" width="11px" height="12px" preserveAspectRatio="xMinYMin meet" x="300.977" y="-702.7"/>
<text text-anchor="start" x="315.9772" y="-692.8" font-family="Helvetica,sans-Serif" font-size="11.00" fill="#000000">oppija_oid</text>
<polygon fill="#ffffff" stroke="transparent" points="295.9772,-663.7 295.9772,-685.7 583.9772,-685.7 583.9772,-663.7 295.9772,-663.7"/>
<polygon fill="none" stroke="#000000" points="295.9772,-663.7 295.9772,-685.7 583.9772,-685.7 583.9772,-663.7 295.9772,-663.7"/>
<text text-anchor="start" x="315.9772" y="-670.8" font-family="Helvetica,sans-Serif" font-size="11.00" fill="#000000">aikaleima</text>
<polygon fill="#ffffff" stroke="transparent" points="295.9772,-641.7 295.9772,-663.7 583.9772,-663.7 583.9772,-641.7 295.9772,-641.7"/>
<polygon fill="none" stroke="#000000" points="295.9772,-641.7 295.9772,-663.7 583.9772,-663.7 583.9772,-641.7 295.9772,-641.7"/>
<text text-anchor="start" x="315.9772" y="-648.8" font-family="Helvetica,sans-Serif" font-size="11.00" fill="#000000">oppilaitos_oid</text>
<polygon fill="#ffffff" stroke="transparent" points="295.9772,-619.7 295.9772,-641.7 583.9772,-641.7 583.9772,-619.7 295.9772,-619.7"/>
<polygon fill="none" stroke="#000000" points="295.9772,-619.7 295.9772,-641.7 583.9772,-641.7 583.9772,-619.7 295.9772,-619.7"/>
<text text-anchor="start" x="315.9772" y="-626.8" font-family="Helvetica,sans-Serif" font-size="11.00" fill="#000000">sisaltava_opiskeluoikeus_oppilaitos_oid</text>
<polygon fill="#ffffff" stroke="transparent" points="295.9772,-597.7 295.9772,-619.7 583.9772,-619.7 583.9772,-597.7 295.9772,-597.7"/>
<polygon fill="none" stroke="#000000" points="295.9772,-597.7 295.9772,-619.7 583.9772,-619.7 583.9772,-597.7 295.9772,-597.7"/>
<text text-anchor="start" x="315.9772" y="-604.8" font-family="Helvetica,sans-Serif" font-size="11.00" fill="#000000">oid</text>
<polygon fill="none" stroke="#000000" points="295.9772,-575.7 295.9772,-597.7 583.9772,-597.7 583.9772,-575.7 295.9772,-575.7"/>
<image xlink:href="../../images/foreignKeys.png" width="11px" height="12px" preserveAspectRatio="xMinYMin meet" x="300.977" y="-592.7"/>
<text text-anchor="start" x="315.9772" y="-582.8" font-family="Helvetica,sans-Serif" font-size="11.00" fill="#000000">sisaltava_opiskeluoikeus_oid</text>
<polygon fill="#ffffff" stroke="transparent" points="295.9772,-553.7 295.9772,-575.7 583.9772,-575.7 583.9772,-553.7 295.9772,-553.7"/>
<polygon fill="none" stroke="#000000" points="295.9772,-553.7 295.9772,-575.7 583.9772,-575.7 583.9772,-553.7 295.9772,-553.7"/>
<text text-anchor="start" x="315.9772" y="-560.8" font-family="Helvetica,sans-Serif" font-size="11.00" fill="#000000">mitatoity</text>
<polygon fill="#ffffff" stroke="transparent" points="295.9772,-531.7 295.9772,-553.7 583.9772,-553.7 583.9772,-531.7 295.9772,-531.7"/>
<polygon fill="none" stroke="#000000" points="295.9772,-531.7 295.9772,-553.7 583.9772,-553.7 583.9772,-531.7 295.9772,-531.7"/>
<text text-anchor="start" x="315.9772" y="-538.8" font-family="Helvetica,sans-Serif" font-size="11.00" fill="#000000">koulutusmuoto</text>
<polygon fill="#ffffff" stroke="transparent" points="295.9772,-509.7 295.9772,-531.7 583.9772,-531.7 583.9772,-509.7 295.9772,-509.7"/>
<polygon fill="none" stroke="#000000" points="295.9772,-509.7 295.9772,-531.7 583.9772,-531.7 583.9772,-509.7 295.9772,-509.7"/>
<text text-anchor="start" x="315.9772" y="-516.8" font-family="Helvetica,sans-Serif" font-size="11.00" fill="#000000">alkamispaiva</text>
<polygon fill="#ffffff" stroke="transparent" points="295.9772,-487.7 295.9772,-509.7 583.9772,-509.7 583.9772,-487.7 295.9772,-487.7"/>
<polygon fill="none" stroke="#000000" points="295.9772,-487.7 295.9772,-509.7 583.9772,-509.7 583.9772,-487.7 295.9772,-487.7"/>
<text text-anchor="start" x="315.9772" y="-494.8" font-family="Helvetica,sans-Serif" font-size="11.00" fill="#000000">paattymispaiva</text>
<polygon fill="#ffffff" stroke="transparent" points="295.9772,-465.7 295.9772,-487.7 583.9772,-487.7 583.9772,-465.7 295.9772,-465.7"/>
<polygon fill="none" stroke="#000000" points="295.9772,-465.7 295.9772,-487.7 583.9772,-487.7 583.9772,-465.7 295.9772,-465.7"/>
<text text-anchor="start" x="315.9772" y="-472.8" font-family="Helvetica,sans-Serif" font-size="11.00" fill="#000000">suoritustyypit</text>
<polygon fill="#ffffff" stroke="transparent" points="295.9772,-443.7 295.9772,-465.7 583.9772,-465.7 583.9772,-443.7 295.9772,-443.7"/>
<polygon fill="none" stroke="#000000" points="295.9772,-443.7 295.9772,-465.7 583.9772,-465.7 583.9772,-443.7 295.9772,-443.7"/>
<text text-anchor="start" x="315.9772" y="-450.8" font-family="Helvetica,sans-Serif" font-size="11.00" fill="#000000">poistettu</text>
<polygon fill="none" stroke="#000000" points="295.9772,-424.7 295.9772,-443.7 583.9772,-443.7 583.9772,-424.7 295.9772,-424.7"/>
<text text-anchor="start" x="298.9772" y="-430.8" font-family="Helvetica,sans-Serif" font-size="11.00" fill="#000000">...</text>
<polygon fill="#ffffff" stroke="transparent" points="295.9772,-405.7 295.9772,-424.7 414.9772,-424.7 414.9772,-405.7 295.9772,-405.7"/>
<polygon fill="none" stroke="#000000" points="295.9772,-405.7 295.9772,-424.7 414.9772,-424.7 414.9772,-405.7 295.9772,-405.7"/>
<text text-anchor="start" x="298.9772" y="-411.8" font-family="Helvetica,sans-Serif" font-size="11.00" fill="#000000">&lt; 2</text>
<polygon fill="#ffffff" stroke="transparent" points="414.9772,-405.7 414.9772,-424.7 513.9772,-424.7 513.9772,-405.7 414.9772,-405.7"/>
<polygon fill="none" stroke="#000000" points="414.9772,-405.7 414.9772,-424.7 513.9772,-424.7 513.9772,-405.7 414.9772,-405.7"/>
<text text-anchor="start" x="466.3579" y="-411.8" font-family="Helvetica,sans-Serif" font-size="11.00" fill="#000000">188 rows</text>
<polygon fill="#ffffff" stroke="transparent" points="513.9772,-405.7 513.9772,-424.7 583.9772,-424.7 583.9772,-405.7 513.9772,-405.7"/>
<polygon fill="none" stroke="#000000" points="513.9772,-405.7 513.9772,-424.7 583.9772,-424.7 583.9772,-405.7 513.9772,-405.7"/>
<text text-anchor="start" x="565.3825" y="-411.8" font-family="Helvetica,sans-Serif" font-size="11.00" fill="#000000">4 &gt;</text>
</a>
</g>
</g>
<!-- opiskeluoikeus&#45;&gt;henkilo -->
<g id="edge2" class="edge">
<title>opiskeluoikeus:w&#45;&gt;henkilo:e</title>
<path fill="none" stroke="#000000" d="M285.3437,-695.525C221.7991,-679.8543 325.8603,-512.7 244.9772,-512.7"/>
<polygon fill="#000000" stroke="#000000" points="295.6214,-692.6363 294.7427,-700.5879 293.1524,-700.4122 294.0311,-692.4606 295.6214,-692.6363"/>
<polyline fill="none" stroke="#000000" points="295.9772,-696.7 292.0014,-696.2606 "/>
<ellipse fill="none" stroke="#000000" cx="288.8207" cy="-695.9092" rx="3.2" ry="3.2"/>
</g>
<!-- opiskeluoikeushistoria -->
<g id="node3" class="node">
<title>opiskeluoikeushistoria</title>
<g id="a_node3"><a xlink:href="../../tables/opiskeluoikeushistoria.html" xlink:title="opiskeluoikeushistoria" target="_top">
<polygon fill="#ffffff" stroke="transparent" points="645.9772,-759.2 645.9772,-820.2 836.9772,-820.2 836.9772,-759.2 645.9772,-759.2"/>
<polygon fill="#f5f5f5" stroke="transparent" points="646.4772,-796.7 646.4772,-819.7 837.4772,-819.7 837.4772,-796.7 646.4772,-796.7"/>
<polygon fill="none" stroke="#000000" points="646.4772,-796.7 646.4772,-819.7 837.4772,-819.7 837.4772,-796.7 646.4772,-796.7"/>
<text text-anchor="start" x="651.4772" y="-805.3" font-family="Helvetica,sans-Serif" font-weight="bold" font-size="11.00" fill="#000000">opiskeluoikeushistoria</text>
<text text-anchor="start" x="802.999" y="-804.8" font-family="Helvetica,sans-Serif" font-size="11.00" fill="#000000">[table]</text>
<polygon fill="none" stroke="#000000" points="646.4772,-777.7 646.4772,-796.7 837.4772,-796.7 837.4772,-777.7 646.4772,-777.7"/>
<text text-anchor="start" x="649.4772" y="-783.8" font-family="Helvetica,sans-Serif" font-size="11.00" fill="#000000">...</text>
<polygon fill="#ffffff" stroke="transparent" points="646.4772,-758.7 646.4772,-777.7 721.4772,-777.7 721.4772,-758.7 646.4772,-758.7"/>
<polygon fill="none" stroke="#000000" points="646.4772,-758.7 646.4772,-777.7 721.4772,-777.7 721.4772,-758.7 646.4772,-758.7"/>
<text text-anchor="start" x="649.4772" y="-764.8" font-family="Helvetica,sans-Serif" font-size="11.00" fill="#000000">&lt; 1</text>
<polygon fill="#ffffff" stroke="transparent" points="721.4772,-758.7 721.4772,-777.7 798.4772,-777.7 798.4772,-758.7 721.4772,-758.7"/>
<polygon fill="none" stroke="#000000" points="721.4772,-758.7 721.4772,-777.7 798.4772,-777.7 798.4772,-758.7 721.4772,-758.7"/>
<text text-anchor="start" x="750.8579" y="-764.8" font-family="Helvetica,sans-Serif" font-size="11.00" fill="#000000">190 rows</text>
<polygon fill="#ffffff" stroke="transparent" points="798.4772,-758.7 798.4772,-777.7 837.4772,-777.7 837.4772,-758.7 798.4772,-758.7"/>
<polygon fill="none" stroke="#000000" points="798.4772,-758.7 798.4772,-777.7 837.4772,-777.7 837.4772,-758.7 798.4772,-758.7"/>
<text text-anchor="start" x="828.3634" y="-764.8" font-family="Helvetica,sans-Serif" font-size="11.00" fill="#000000"> &#160;</text>
</a>
</g>
</g>
<!-- opiskeluoikeushistoria&#45;&gt;opiskeluoikeus -->
<g id="edge3" class="edge">
<title>opiskeluoikeushistoria:w&#45;&gt;opiskeluoikeus:e</title>
<path fill="none" stroke="#000000" d="M632.4204,-783.044C609.741,-768.9197 619.2533,-718.7 583.9772,-718.7"/>
<polygon fill="#000000" stroke="#000000" points="638.7348,-784.6863 645.571,-790.1841 642.606,-785.6931 646.4772,-786.7 646.4772,-786.7 646.4772,-786.7 642.606,-785.6931 647.3834,-783.2159 638.7348,-784.6863 638.7348,-784.6863"/>
<ellipse fill="none" stroke="#000000" cx="635.6378" cy="-783.8808" rx="3.2" ry="3.2"/>
</g>
<!-- perustiedot_manual_sync -->
<g id="node4" class="node">
<title>perustiedot_manual_sync</title>
<g id="a_node4"><a xlink:href="../../tables/perustiedot_manual_sync.html" xlink:title="perustiedot_manual_sync" target="_top">
<polygon fill="#ffffff" stroke="transparent" points="636.4772,-581.2 636.4772,-642.2 846.4772,-642.2 846.4772,-581.2 636.4772,-581.2"/>
<polygon fill="#f5f5f5" stroke="transparent" points="636.4772,-618.7 636.4772,-641.7 846.4772,-641.7 846.4772,-618.7 636.4772,-618.7"/>
<polygon fill="none" stroke="#000000" points="636.4772,-618.7 636.4772,-641.7 846.4772,-641.7 846.4772,-618.7 636.4772,-618.7"/>
<text text-anchor="start" x="641.4772" y="-627.3" font-family="Helvetica,sans-Serif" font-weight="bold" font-size="11.00" fill="#000000">perustiedot_manual_sync</text>
<text text-anchor="start" x="811.999" y="-626.8" font-family="Helvetica,sans-Serif" font-size="11.00" fill="#000000">[table]</text>
<polygon fill="none" stroke="#000000" points="636.4772,-599.7 636.4772,-618.7 846.4772,-618.7 846.4772,-599.7 636.4772,-599.7"/>
<text text-anchor="start" x="639.4772" y="-605.8" font-family="Helvetica,sans-Serif" font-size="11.00" fill="#000000">...</text>
<polygon fill="#ffffff" stroke="transparent" points="636.4772,-580.7 636.4772,-599.7 739.4772,-599.7 739.4772,-580.7 636.4772,-580.7"/>
<polygon fill="none" stroke="#000000" points="636.4772,-580.7 636.4772,-599.7 739.4772,-599.7 739.4772,-580.7 636.4772,-580.7"/>
<text text-anchor="start" x="639.4772" y="-586.8" font-family="Helvetica,sans-Serif" font-size="11.00" fill="#000000">&lt; 1</text>
<polygon fill="#ffffff" stroke="transparent" points="739.4772,-580.7 739.4772,-599.7 792.4772,-599.7 792.4772,-580.7 739.4772,-580.7"/>
<polygon fill="none" stroke="#000000" points="739.4772,-580.7 739.4772,-599.7 792.4772,-599.7 792.4772,-580.7 739.4772,-580.7"/>
<text text-anchor="start" x="783.3634" y="-586.8" font-family="Helvetica,sans-Serif" font-size="11.00" fill="#000000"> &#160;</text>
<polygon fill="#ffffff" stroke="transparent" points="792.4772,-580.7 792.4772,-599.7 846.4772,-599.7 846.4772,-580.7 792.4772,-580.7"/>
<polygon fill="none" stroke="#000000" points="792.4772,-580.7 792.4772,-599.7 846.4772,-599.7 846.4772,-580.7 792.4772,-580.7"/>
<text text-anchor="start" x="837.3634" y="-586.8" font-family="Helvetica,sans-Serif" font-size="11.00" fill="#000000"> &#160;</text>
</a>
</g>
</g>
<!-- perustiedot_manual_sync&#45;&gt;opiskeluoikeus -->
<g id="edge4" class="edge">
<title>perustiedot_manual_sync:w&#45;&gt;opiskeluoikeus:e</title>
<path fill="none" stroke="#000000" d="M621.7116,-608.7C609.1334,-608.7 601.4772,-608.7 583.9772,-608.7"/>
<polygon fill="#000000" stroke="#000000" points="628.4772,-608.7001 636.4772,-612.3 632.4772,-608.7 636.4772,-608.7 636.4772,-608.7 636.4772,-608.7 632.4772,-608.7 636.4772,-605.1 628.4772,-608.7001 628.4772,-608.7001"/>
<ellipse fill="none" stroke="#000000" cx="625.2772" cy="-608.7001" rx="3.2" ry="3.2"/>
</g>
<!-- perustiedot_sync -->
<g id="node5" class="node">
<title>perustiedot_sync</title>
<g id="a_node5"><a xlink:href="../../tables/perustiedot_sync.html" xlink:title="perustiedot_sync" target="_top">
<polygon fill="#ffffff" stroke="transparent" points="664.4772,-677.2 664.4772,-738.2 818.4772,-738.2 818.4772,-677.2 664.4772,-677.2"/>
<polygon fill="#f5f5f5" stroke="transparent" points="664.4772,-714.7 664.4772,-737.7 818.4772,-737.7 818.4772,-714.7 664.4772,-714.7"/>
<polygon fill="none" stroke="#000000" points="664.4772,-714.7 664.4772,-737.7 818.4772,-737.7 818.4772,-714.7 664.4772,-714.7"/>
<text text-anchor="start" x="669.4772" y="-723.3" font-family="Helvetica,sans-Serif" font-weight="bold" font-size="11.00" fill="#000000">perustiedot_sync</text>
<text text-anchor="start" x="783.999" y="-722.8" font-family="Helvetica,sans-Serif" font-size="11.00" fill="#000000">[table]</text>
<polygon fill="none" stroke="#000000" points="664.4772,-695.7 664.4772,-714.7 818.4772,-714.7 818.4772,-695.7 664.4772,-695.7"/>
<text text-anchor="start" x="667.4772" y="-701.8" font-family="Helvetica,sans-Serif" font-size="11.00" fill="#000000">...</text>
<polygon fill="#ffffff" stroke="transparent" points="664.4772,-676.7 664.4772,-695.7 726.4772,-695.7 726.4772,-676.7 664.4772,-676.7"/>
<polygon fill="none" stroke="#000000" points="664.4772,-676.7 664.4772,-695.7 726.4772,-695.7 726.4772,-676.7 664.4772,-676.7"/>
<text text-anchor="start" x="667.4772" y="-682.8" font-family="Helvetica,sans-Serif" font-size="11.00" fill="#000000">&lt; 1</text>
<polygon fill="#ffffff" stroke="transparent" points="726.4772,-676.7 726.4772,-695.7 785.4772,-695.7 785.4772,-676.7 726.4772,-676.7"/>
<polygon fill="none" stroke="#000000" points="726.4772,-676.7 726.4772,-695.7 785.4772,-695.7 785.4772,-676.7 726.4772,-676.7"/>
<text text-anchor="start" x="750.0877" y="-682.8" font-family="Helvetica,sans-Serif" font-size="11.00" fill="#000000">0 rows</text>
<polygon fill="#ffffff" stroke="transparent" points="785.4772,-676.7 785.4772,-695.7 818.4772,-695.7 818.4772,-676.7 785.4772,-676.7"/>
<polygon fill="none" stroke="#000000" points="785.4772,-676.7 785.4772,-695.7 818.4772,-695.7 818.4772,-676.7 785.4772,-676.7"/>
<text text-anchor="start" x="809.3634" y="-682.8" font-family="Helvetica,sans-Serif" font-size="11.00" fill="#000000"> &#160;</text>
</a>
</g>
</g>
<!-- perustiedot_sync&#45;&gt;opiskeluoikeus -->
<g id="edge5" class="edge">
<title>perustiedot_sync:w&#45;&gt;opiskeluoikeus:e</title>
<path fill="none" stroke="#000000" d="M649.9999,-705.5338C625.1991,-708.5478 614.9015,-718.7 583.9772,-718.7"/>
<polygon fill="#000000" stroke="#000000" points="656.4904,-705.1601 664.6842,-708.294 660.4838,-704.93 664.4772,-704.7 664.4772,-704.7 664.4772,-704.7 660.4838,-704.93 664.2702,-701.106 656.4904,-705.1601 656.4904,-705.1601"/>
<ellipse fill="none" stroke="#000000" cx="653.2957" cy="-705.3441" rx="3.2" ry="3.2"/>
</g>
<!-- ytr_opiskeluoikeus -->
<g id="node6" class="node">
<title>ytr_opiskeluoikeus</title>
<g id="a_node6"><a xlink:href="../../tables/ytr_opiskeluoikeus.html" xlink:title="ytr_opiskeluoikeus" target="_top">
<polygon fill="#ffffff" stroke="transparent" points="295.9772,-38.2 295.9772,-385.2 583.9772,-385.2 583.9772,-38.2 295.9772,-38.2"/>
<polygon fill="#f5f5f5" stroke="transparent" points="295.9772,-361.7 295.9772,-384.7 583.9772,-384.7 583.9772,-361.7 295.9772,-361.7"/>
<polygon fill="none" stroke="#000000" points="295.9772,-361.7 295.9772,-384.7 583.9772,-384.7 583.9772,-361.7 295.9772,-361.7"/>
<text text-anchor="start" x="300.9772" y="-370.3" font-family="Helvetica,sans-Serif" font-weight="bold" font-size="11.00" fill="#000000">ytr_opiskeluoikeus</text>
<text text-anchor="start" x="549.0209" y="-369.8" font-family="Helvetica,sans-Serif" font-size="11.00" fill="#000000">[table]</text>
<polygon fill="none" stroke="#000000" points="295.9772,-339.7 295.9772,-361.7 583.9772,-361.7 583.9772,-339.7 295.9772,-339.7"/>
<image xlink:href="../../images/primaryKeys.png" width="11px" height="12px" preserveAspectRatio="xMinYMin meet" x="300.977" y="-356.7"/>
<text text-anchor="start" x="315.9772" y="-346.8" font-family="Helvetica,sans-Serif" font-size="11.00" fill="#000000">id</text>
<polygon fill="#ffffff" stroke="transparent" points="295.9772,-317.7 295.9772,-339.7 583.9772,-339.7 583.9772,-317.7 295.9772,-317.7"/>
<polygon fill="none" stroke="#000000" points="295.9772,-317.7 295.9772,-339.7 583.9772,-339.7 583.9772,-317.7 295.9772,-317.7"/>
<image xlink:href="../../images/foreignKeys.png" width="11px" height="12px" preserveAspectRatio="xMinYMin meet" x="300.977" y="-334.7"/>
<text text-anchor="start" x="315.9772" y="-324.8" font-family="Helvetica,sans-Serif" font-size="11.00" fill="#000000">oppija_oid</text>
<polygon fill="#ffffff" stroke="transparent" points="295.9772,-295.7 295.9772,-317.7 583.9772,-317.7 583.9772,-295.7 295.9772,-295.7"/>
<polygon fill="none" stroke="#000000" points="295.9772,-295.7 295.9772,-317.7 583.9772,-317.7 583.9772,-295.7 295.9772,-295.7"/>
<text text-anchor="start" x="315.9772" y="-302.8" font-family="Helvetica,sans-Serif" font-size="11.00" fill="#000000">aikaleima</text>
<polygon fill="#ffffff" stroke="transparent" points="295.9772,-273.7 295.9772,-295.7 583.9772,-295.7 583.9772,-273.7 295.9772,-273.7"/>
<polygon fill="none" stroke="#000000" points="295.9772,-273.7 295.9772,-295.7 583.9772,-295.7 583.9772,-273.7 295.9772,-273.7"/>
<text text-anchor="start" x="315.9772" y="-280.8" font-family="Helvetica,sans-Serif" font-size="11.00" fill="#000000">oppilaitos_oid</text>
<polygon fill="#ffffff" stroke="transparent" points="295.9772,-251.7 295.9772,-273.7 583.9772,-273.7 583.9772,-251.7 295.9772,-251.7"/>
<polygon fill="none" stroke="#000000" points="295.9772,-251.7 295.9772,-273.7 583.9772,-273.7 583.9772,-251.7 295.9772,-251.7"/>
<text text-anchor="start" x="315.9772" y="-258.8" font-family="Helvetica,sans-Serif" font-size="11.00" fill="#000000">sisaltava_opiskeluoikeus_oppilaitos_oid</text>
<polygon fill="#ffffff" stroke="transparent" points="295.9772,-229.7 295.9772,-251.7 583.9772,-251.7 583.9772,-229.7 295.9772,-229.7"/>
<polygon fill="none" stroke="#000000" points="295.9772,-229.7 295.9772,-251.7 583.9772,-251.7 583.9772,-229.7 295.9772,-229.7"/>
<text text-anchor="start" x="315.9772" y="-236.8" font-family="Helvetica,sans-Serif" font-size="11.00" fill="#000000">oid</text>
<polygon fill="none" stroke="#000000" points="295.9772,-207.7 295.9772,-229.7 583.9772,-229.7 583.9772,-207.7 295.9772,-207.7"/>
<image xlink:href="../../images/foreignKeys.png" width="11px" height="12px" preserveAspectRatio="xMinYMin meet" x="300.977" y="-224.7"/>
<text text-anchor="start" x="315.9772" y="-214.8" font-family="Helvetica,sans-Serif" font-size="11.00" fill="#000000">sisaltava_opiskeluoikeus_oid</text>
<polygon fill="#ffffff" stroke="transparent" points="295.9772,-185.7 295.9772,-207.7 583.9772,-207.7 583.9772,-185.7 295.9772,-185.7"/>
<polygon fill="none" stroke="#000000" points="295.9772,-185.7 295.9772,-207.7 583.9772,-207.7 583.9772,-185.7 295.9772,-185.7"/>
<text text-anchor="start" x="315.9772" y="-192.8" font-family="Helvetica,sans-Serif" font-size="11.00" fill="#000000">mitatoity</text>
<polygon fill="#ffffff" stroke="transparent" points="295.9772,-163.7 295.9772,-185.7 583.9772,-185.7 583.9772,-163.7 295.9772,-163.7"/>
<polygon fill="none" stroke="#000000" points="295.9772,-163.7 295.9772,-185.7 583.9772,-185.7 583.9772,-163.7 295.9772,-163.7"/>
<text text-anchor="start" x="315.9772" y="-170.8" font-family="Helvetica,sans-Serif" font-size="11.00" fill="#000000">koulutusmuoto</text>
<polygon fill="#ffffff" stroke="transparent" points="295.9772,-141.7 295.9772,-163.7 583.9772,-163.7 583.9772,-141.7 295.9772,-141.7"/>
<polygon fill="none" stroke="#000000" points="295.9772,-141.7 295.9772,-163.7 583.9772,-163.7 583.9772,-141.7 295.9772,-141.7"/>
<text text-anchor="start" x="315.9772" y="-148.8" font-family="Helvetica,sans-Serif" font-size="11.00" fill="#000000">alkamispaiva</text>
<polygon fill="#ffffff" stroke="transparent" points="295.9772,-119.7 295.9772,-141.7 583.9772,-141.7 583.9772,-119.7 295.9772,-119.7"/>
<polygon fill="none" stroke="#000000" points="295.9772,-119.7 295.9772,-141.7 583.9772,-141.7 583.9772,-119.7 295.9772,-119.7"/>
<text text-anchor="start" x="315.9772" y="-126.8" font-family="Helvetica,sans-Serif" font-size="11.00" fill="#000000">paattymispaiva</text>
<polygon fill="#ffffff" stroke="transparent" points="295.9772,-97.7 295.9772,-119.7 583.9772,-119.7 583.9772,-97.7 295.9772,-97.7"/>
<polygon fill="none" stroke="#000000" points="295.9772,-97.7 295.9772,-119.7 583.9772,-119.7 583.9772,-97.7 295.9772,-97.7"/>
<text text-anchor="start" x="315.9772" y="-104.8" font-family="Helvetica,sans-Serif" font-size="11.00" fill="#000000">suoritustyypit</text>
<polygon fill="#ffffff" stroke="transparent" points="295.9772,-75.7 295.9772,-97.7 583.9772,-97.7 583.9772,-75.7 295.9772,-75.7"/>
<polygon fill="none" stroke="#000000" points="295.9772,-75.7 295.9772,-97.7 583.9772,-97.7 583.9772,-75.7 295.9772,-75.7"/>
<text text-anchor="start" x="315.9772" y="-82.8" font-family="Helvetica,sans-Serif" font-size="11.00" fill="#000000">poistettu</text>
<polygon fill="none" stroke="#000000" points="295.9772,-56.7 295.9772,-75.7 583.9772,-75.7 583.9772,-56.7 295.9772,-56.7"/>
<text text-anchor="start" x="298.9772" y="-62.8" font-family="Helvetica,sans-Serif" font-size="11.00" fill="#000000">...</text>
<polygon fill="#ffffff" stroke="transparent" points="295.9772,-37.7 295.9772,-56.7 420.9772,-56.7 420.9772,-37.7 295.9772,-37.7"/>
<polygon fill="none" stroke="#000000" points="295.9772,-37.7 295.9772,-56.7 420.9772,-56.7 420.9772,-37.7 295.9772,-37.7"/>
<text text-anchor="start" x="298.9772" y="-43.8" font-family="Helvetica,sans-Serif" font-size="11.00" fill="#000000">&lt; 2</text>
<polygon fill="#ffffff" stroke="transparent" points="420.9772,-37.7 420.9772,-56.7 510.9772,-56.7 510.9772,-37.7 420.9772,-37.7"/>
<polygon fill="none" stroke="#000000" points="420.9772,-37.7 420.9772,-56.7 510.9772,-56.7 510.9772,-37.7 420.9772,-37.7"/>
<text text-anchor="start" x="475.5877" y="-43.8" font-family="Helvetica,sans-Serif" font-size="11.00" fill="#000000">0 rows</text>
<polygon fill="#ffffff" stroke="transparent" points="510.9772,-37.7 510.9772,-56.7 583.9772,-56.7 583.9772,-37.7 510.9772,-37.7"/>
<polygon fill="none" stroke="#000000" points="510.9772,-37.7 510.9772,-56.7 583.9772,-56.7 583.9772,-37.7 510.9772,-37.7"/>
<text text-anchor="start" x="565.3825" y="-43.8" font-family="Helvetica,sans-Serif" font-size="11.00" fill="#000000">2 &gt;</text>
</a>
</g>
</g>
<!-- ytr_opiskeluoikeus&#45;&gt;henkilo -->
<g id="edge6" class="edge">
<title>ytr_opiskeluoikeus:w&#45;&gt;henkilo:e</title>
<path fill="none" stroke="#000000" d="M285.3437,-329.875C221.7991,-345.5457 325.8603,-512.7 244.9772,-512.7"/>
<polygon fill="#000000" stroke="#000000" points="294.7427,-324.8121 295.6214,-332.7637 294.0311,-332.9394 293.1524,-324.9878 294.7427,-324.8121"/>
<polyline fill="none" stroke="#000000" points="295.9772,-328.7 292.0014,-329.1394 "/>
<ellipse fill="none" stroke="#000000" cx="288.8207" cy="-329.4908" rx="3.2" ry="3.2"/>
</g>
<!-- ytr_opiskeluoikeushistoria -->
<g id="node7" class="node">
<title>ytr_opiskeluoikeushistoria</title>
<g id="a_node7"><a xlink:href="../../tables/ytr_opiskeluoikeushistoria.html" xlink:title="ytr_opiskeluoikeushistoria" target="_top">
<polygon fill="#ffffff" stroke="transparent" points="632.9772,-323.2 632.9772,-384.2 849.9772,-384.2 849.9772,-323.2 632.9772,-323.2"/>
<polygon fill="#f5f5f5" stroke="transparent" points="633.4772,-360.7 633.4772,-383.7 850.4772,-383.7 850.4772,-360.7 633.4772,-360.7"/>
<polygon fill="none" stroke="#000000" points="633.4772,-360.7 633.4772,-383.7 850.4772,-383.7 850.4772,-360.7 633.4772,-360.7"/>
<text text-anchor="start" x="638.4772" y="-369.3" font-family="Helvetica,sans-Serif" font-weight="bold" font-size="11.00" fill="#000000">ytr_opiskeluoikeushistoria</text>
<text text-anchor="start" x="815.999" y="-368.8" font-family="Helvetica,sans-Serif" font-size="11.00" fill="#000000">[table]</text>
<polygon fill="none" stroke="#000000" points="633.4772,-341.7 633.4772,-360.7 850.4772,-360.7 850.4772,-341.7 633.4772,-341.7"/>
<text text-anchor="start" x="636.4772" y="-347.8" font-family="Helvetica,sans-Serif" font-size="11.00" fill="#000000">...</text>
<polygon fill="#ffffff" stroke="transparent" points="633.4772,-322.7 633.4772,-341.7 727.4772,-341.7 727.4772,-322.7 633.4772,-322.7"/>
<polygon fill="none" stroke="#000000" points="633.4772,-322.7 633.4772,-341.7 727.4772,-341.7 727.4772,-322.7 633.4772,-322.7"/>
<text text-anchor="start" x="636.4772" y="-328.8" font-family="Helvetica,sans-Serif" font-size="11.00" fill="#000000">&lt; 1</text>
<polygon fill="#ffffff" stroke="transparent" points="727.4772,-322.7 727.4772,-341.7 801.4772,-341.7 801.4772,-322.7 727.4772,-322.7"/>
<polygon fill="none" stroke="#000000" points="727.4772,-322.7 727.4772,-341.7 801.4772,-341.7 801.4772,-322.7 727.4772,-322.7"/>
<text text-anchor="start" x="766.0877" y="-328.8" font-family="Helvetica,sans-Serif" font-size="11.00" fill="#000000">0 rows</text>
<polygon fill="#ffffff" stroke="transparent" points="801.4772,-322.7 801.4772,-341.7 850.4772,-341.7 850.4772,-322.7 801.4772,-322.7"/>
<polygon fill="none" stroke="#000000" points="801.4772,-322.7 801.4772,-341.7 850.4772,-341.7 850.4772,-322.7 801.4772,-322.7"/>
<text text-anchor="start" x="841.3634" y="-328.8" font-family="Helvetica,sans-Serif" font-size="11.00" fill="#000000"> &#160;</text>
</a>
</g>
</g>
<!-- ytr_opiskeluoikeushistoria&#45;&gt;ytr_opiskeluoikeus -->
<g id="edge7" class="edge">
<title>ytr_opiskeluoikeushistoria:w&#45;&gt;ytr_opiskeluoikeus:e</title>
<path fill="none" stroke="#000000" d="M618.82,-350.7C607.3911,-350.7 600.1334,-350.7 583.9772,-350.7"/>
<polygon fill="#000000" stroke="#000000" points="625.4772,-350.7001 633.4772,-354.3 629.4772,-350.7 633.4772,-350.7 633.4772,-350.7 633.4772,-350.7 629.4772,-350.7 633.4772,-347.1 625.4772,-350.7001 625.4772,-350.7001"/>
<ellipse fill="none" stroke="#000000" cx="622.2772" cy="-350.7001" rx="3.2" ry="3.2"/>
</g>
</g>
</svg>
