<?xml version="1.0" encoding="UTF-8" standalone="no"?>
<!DOCTYPE svg PUBLIC "-//W3C//DTD SVG 1.1//EN"
 "http://www.w3.org/Graphics/SVG/1.1/DTD/svg11.dtd">
<!-- Generated by graphviz version 2.40.1 (20161225.0304)
 -->
<!-- Title: oneDegreeRelationshipsDiagram Pages: 1 -->
<svg width="327pt" height="316pt"
 viewBox="0.00 0.00 327.00 316.20" xmlns="http://www.w3.org/2000/svg" xmlns:xlink="http://www.w3.org/1999/xlink">
<g id="graph0" class="graph" transform="scale(1 1) rotate(0) translate(4 312.2)">
<title>oneDegreeRelationshipsDiagram</title>
<polygon fill="#ffffff" stroke="transparent" points="-4,4 -4,-312.2 323,-312.2 323,4 -4,4"/>
<text text-anchor="middle" x="72.4936" y="-7.3" font-family="Helvetica,sans-Serif" font-size="11.00" fill="#000000">Generated by SchemaSpy</text>
<!-- kielitutkintotodistus_tiedote_job -->
<g id="node1" class="node">
<title>kielitutkintotodistus_tiedote_job</title>
<g id="a_node1"><a xlink:href="../../tables/kielitutkintotodistus_tiedote_job.html" xlink:title="kielitutkintotodistus_tiedote_job" target="_top">
<polygon fill="#ffffff" stroke="transparent" points="8,-38.2 8,-304.2 311,-304.2 311,-38.2 8,-38.2"/>
<polygon fill="#f5f5f5" stroke="transparent" points="10.5,-279.2 10.5,-302.2 309.5,-302.2 309.5,-279.2 10.5,-279.2"/>
<polygon fill="none" stroke="#000000" points="10.5,-279.2 10.5,-302.2 309.5,-302.2 309.5,-279.2 10.5,-279.2"/>
<text text-anchor="start" x="15.5" y="-287.8" font-family="Helvetica,sans-Serif" font-weight="bold" font-size="11.00" fill="#000000">kielitutkintotodistus_tiedote_job</text>
<text text-anchor="start" x="274.5437" y="-287.3" font-family="Helvetica,sans-Serif" font-size="11.00" fill="#000000">[table]</text>
<polygon fill="none" stroke="#000000" points="10.5,-257.2 10.5,-279.2 215.5,-279.2 215.5,-257.2 10.5,-257.2"/>
<image xlink:href="../../images/primaryKeys.png" width="11px" height="12px" preserveAspectRatio="xMinYMin meet" x="15.5" y="-274.2"/>
<text text-anchor="start" x="30.5" y="-264.3" font-family="Helvetica,sans-Serif" font-size="11.00" fill="#000000">id</text>
<polygon fill="none" stroke="#000000" points="215.5,-257.2 215.5,-279.2 309.5,-279.2 309.5,-257.2 215.5,-257.2"/>
<text text-anchor="start" x="218.4758" y="-264.9" font-family="Helvetica,sans-Serif" font-size="11.00" fill="#000000">uuid[2147483647]</text>
<polygon fill="none" stroke="#000000" points="10.5,-235.2 10.5,-257.2 215.5,-257.2 215.5,-235.2 10.5,-235.2"/>
<text text-anchor="start" x="30.5" y="-242.3" font-family="Helvetica,sans-Serif" font-size="11.00" fill="#000000">oppija_oid</text>
<polygon fill="none" stroke="#000000" points="215.5,-235.2 215.5,-257.2 309.5,-257.2 309.5,-235.2 215.5,-235.2"/>
<text text-anchor="start" x="218.5" y="-242.9" font-family="Helvetica,sans-Serif" font-size="11.00" fill="#000000">text[2147483647]</text>
<polygon fill="#ffffff" stroke="transparent" points="10.5,-213.2 10.5,-235.2 215.5,-235.2 215.5,-213.2 10.5,-213.2"/>
<polygon fill="none" stroke="#000000" points="10.5,-213.2 10.5,-235.2 215.5,-235.2 215.5,-213.2 10.5,-213.2"/>
<text text-anchor="start" x="30.5" y="-220.3" font-family="Helvetica,sans-Serif" font-size="11.00" fill="#000000">opiskeluoikeus_oid</text>
<polygon fill="none" stroke="#000000" points="215.5,-213.2 215.5,-235.2 309.5,-235.2 309.5,-213.2 215.5,-213.2"/>
<text text-anchor="start" x="218.5" y="-220.9" font-family="Helvetica,sans-Serif" font-size="11.00" fill="#000000">text[2147483647]</text>
<polygon fill="#ffffff" stroke="transparent" points="10.5,-191.2 10.5,-213.2 215.5,-213.2 215.5,-191.2 10.5,-191.2"/>
<polygon fill="none" stroke="#000000" points="10.5,-191.2 10.5,-213.2 215.5,-213.2 215.5,-191.2 10.5,-191.2"/>
<text text-anchor="start" x="30.5" y="-198.3" font-family="Helvetica,sans-Serif" font-size="11.00" fill="#000000">state</text>
<polygon fill="none" stroke="#000000" points="215.5,-191.2 215.5,-213.2 309.5,-213.2 309.5,-191.2 215.5,-191.2"/>
<text text-anchor="start" x="218.5" y="-198.9" font-family="Helvetica,sans-Serif" font-size="11.00" fill="#000000">text[2147483647]</text>
<polygon fill="#ffffff" stroke="transparent" points="10.5,-169.2 10.5,-191.2 215.5,-191.2 215.5,-169.2 10.5,-169.2"/>
<polygon fill="none" stroke="#000000" points="10.5,-169.2 10.5,-191.2 215.5,-191.2 215.5,-169.2 10.5,-169.2"/>
<text text-anchor="start" x="30.5" y="-176.3" font-family="Helvetica,sans-Serif" font-size="11.00" fill="#000000">created_at</text>
<polygon fill="none" stroke="#000000" points="215.5,-169.2 215.5,-191.2 309.5,-191.2 309.5,-169.2 215.5,-169.2"/>
<text text-anchor="start" x="218.5" y="-176.9" font-family="Helvetica,sans-Serif" font-size="11.00" fill="#000000">timestamptz[35,6]</text>
<polygon fill="none" stroke="#000000" points="10.5,-147.2 10.5,-169.2 215.5,-169.2 215.5,-147.2 10.5,-147.2"/>
<text text-anchor="start" x="30.5" y="-154.3" font-family="Helvetica,sans-Serif" font-size="11.00" fill="#000000">completed_at</text>
<polygon fill="none" stroke="#000000" points="215.5,-147.2 215.5,-169.2 309.5,-169.2 309.5,-147.2 215.5,-147.2"/>
<text text-anchor="start" x="218.5" y="-154.9" font-family="Helvetica,sans-Serif" font-size="11.00" fill="#000000">timestamptz[35,6]</text>
<polygon fill="none" stroke="#000000" points="10.5,-125.2 10.5,-147.2 215.5,-147.2 215.5,-125.2 10.5,-125.2"/>
<text text-anchor="start" x="30.5" y="-132.3" font-family="Helvetica,sans-Serif" font-size="11.00" fill="#000000">worker</text>
<polygon fill="none" stroke="#000000" points="215.5,-125.2 215.5,-147.2 309.5,-147.2 309.5,-125.2 215.5,-125.2"/>
<text text-anchor="start" x="218.5" y="-132.9" font-family="Helvetica,sans-Serif" font-size="11.00" fill="#000000">text[2147483647]</text>
<polygon fill="none" stroke="#000000" points="10.5,-103.2 10.5,-125.2 215.5,-125.2 215.5,-103.2 10.5,-103.2"/>
<text text-anchor="start" x="30.5" y="-110.3" font-family="Helvetica,sans-Serif" font-size="11.00" fill="#000000">attempts</text>
<polygon fill="none" stroke="#000000" points="215.5,-103.2 215.5,-125.2 309.5,-125.2 309.5,-103.2 215.5,-103.2"/>
<text text-anchor="start" x="218.5" y="-110.9" font-family="Helvetica,sans-Serif" font-size="11.00" fill="#000000">int4[10]</text>
<polygon fill="none" stroke="#000000" points="10.5,-81.2 10.5,-103.2 215.5,-103.2 215.5,-81.2 10.5,-81.2"/>
<text text-anchor="start" x="30.5" y="-88.3" font-family="Helvetica,sans-Serif" font-size="11.00" fill="#000000">error</text>
<polygon fill="none" stroke="#000000" points="215.5,-81.2 215.5,-103.2 309.5,-103.2 309.5,-81.2 215.5,-81.2"/>
<text text-anchor="start" x="218.5" y="-88.9" font-family="Helvetica,sans-Serif" font-size="11.00" fill="#000000">text[2147483647]</text>
<polygon fill="none" stroke="#000000" points="10.5,-59.2 10.5,-81.2 215.5,-81.2 215.5,-59.2 10.5,-59.2"/>
<text text-anchor="start" x="30.5" y="-66.3" font-family="Helvetica,sans-Serif" font-size="11.00" fill="#000000">opiskeluoikeus_versio</text>
<polygon fill="none" stroke="#000000" points="215.5,-59.2 215.5,-81.2 309.5,-81.2 309.5,-59.2 215.5,-59.2"/>
<text text-anchor="start" x="218.5" y="-66.9" font-family="Helvetica,sans-Serif" font-size="11.00" fill="#000000">int4[10]</text>
<polygon fill="#ffffff" stroke="transparent" points="10.5,-40.2 10.5,-59.2 117.5,-59.2 117.5,-40.2 10.5,-40.2"/>
<polygon fill="none" stroke="#000000" points="10.5,-40.2 10.5,-59.2 117.5,-59.2 117.5,-40.2 10.5,-40.2"/>
<text text-anchor="start" x="13.5" y="-46.3" font-family="Helvetica,sans-Serif" font-size="11.00" fill="#000000">&lt; 0</text>
<polygon fill="#ffffff" stroke="transparent" points="117.5,-40.2 117.5,-59.2 215.5,-59.2 215.5,-40.2 117.5,-40.2"/>
<polygon fill="none" stroke="#000000" points="117.5,-40.2 117.5,-59.2 215.5,-59.2 215.5,-40.2 117.5,-40.2"/>
<text text-anchor="start" x="206.3862" y="-46.3" font-family="Helvetica,sans-Serif" font-size="11.00" fill="#000000"> &#160;</text>
<polygon fill="#ffffff" stroke="transparent" points="215.5,-40.2 215.5,-59.2 309.5,-59.2 309.5,-40.2 215.5,-40.2"/>
<polygon fill="none" stroke="#000000" points="215.5,-40.2 215.5,-59.2 309.5,-59.2 309.5,-40.2 215.5,-40.2"/>
<text text-anchor="start" x="290.9053" y="-46.3" font-family="Helvetica,sans-Serif" font-size="11.00" fill="#000000">0 &gt;</text>
<polygon fill="none" stroke="#000000" stroke-width="2" points="9,-39.2 9,-303.2 310,-303.2 310,-39.2 9,-39.2"/>
</a>
</g>
</g>
</g>
</svg>
