<?xml version="1.0" encoding="UTF-8" standalone="no"?>
<!DOCTYPE svg PUBLIC "-//W3C//DTD SVG 1.1//EN"
 "http://www.w3.org/Graphics/SVG/1.1/DTD/svg11.dtd">
<!-- Generated by graphviz version 2.40.1 (20161225.0304)
 -->
<!-- Title: oneDegreeRelationshipsDiagram Pages: 1 -->
<svg width="586pt" height="421pt"
 viewBox="0.00 0.00 586.00 420.70" xmlns="http://www.w3.org/2000/svg" xmlns:xlink="http://www.w3.org/1999/xlink">
<g id="graph0" class="graph" transform="scale(1 1) rotate(0) translate(4 416.7)">
<title>oneDegreeRelationshipsDiagram</title>
<polygon fill="#ffffff" stroke="transparent" points="-4,4 -4,-416.7 582,-416.7 582,4 -4,4"/>
<text text-anchor="middle" x="72.4936" y="-7.3" font-family="Helvetica,sans-Serif" font-size="11.00" fill="#000000">Generated by SchemaSpy</text>
<!-- kielitutkintotodistus_tiedote_job -->
<g id="node1" class="node">
<title>kielitutkintotodistus_tiedote_job</title>
<g id="a_node1"><a xlink:href="../../tables/kielitutkintotodistus_tiedote_job.html" xlink:title="kielitutkintotodistus_tiedote_job" target="_top">
<polygon fill="#ffffff" stroke="transparent" points="256,-120.7 256,-408.7 570,-408.7 570,-120.7 256,-120.7"/>
<polygon fill="#f5f5f5" stroke="transparent" points="258,-383.7 258,-406.7 568,-406.7 568,-383.7 258,-383.7"/>
<polygon fill="none" stroke="#000000" points="258,-383.7 258,-406.7 568,-406.7 568,-383.7 258,-383.7"/>
<text text-anchor="start" x="263" y="-392.3" font-family="Helvetica,sans-Serif" font-weight="bold" font-size="11.00" fill="#000000">kielitutkintotodistus_tiedote_job</text>
<text text-anchor="start" x="533.0437" y="-391.8" font-family="Helvetica,sans-Serif" font-size="11.00" fill="#000000">[table]</text>
<polygon fill="none" stroke="#000000" points="258,-361.7 258,-383.7 474,-383.7 474,-361.7 258,-361.7"/>
<image xlink:href="../../images/primaryKeys.png" width="11px" height="12px" preserveAspectRatio="xMinYMin meet" x="263" y="-378.7"/>
<text text-anchor="start" x="278" y="-368.8" font-family="Helvetica,sans-Serif" font-size="11.00" fill="#000000">id</text>
<polygon fill="none" stroke="#000000" points="474,-361.7 474,-383.7 568,-383.7 568,-361.7 474,-361.7"/>
<text text-anchor="start" x="476.9758" y="-369.4" font-family="Helvetica,sans-Serif" font-size="11.00" fill="#000000">uuid[2147483647]</text>
<polygon fill="none" stroke="#000000" points="258,-339.7 258,-361.7 474,-361.7 474,-339.7 258,-339.7"/>
<text text-anchor="start" x="278" y="-346.8" font-family="Helvetica,sans-Serif" font-size="11.00" fill="#000000">oppija_oid</text>
<polygon fill="none" stroke="#000000" points="474,-339.7 474,-361.7 568,-361.7 568,-339.7 474,-339.7"/>
<text text-anchor="start" x="477" y="-347.4" font-family="Helvetica,sans-Serif" font-size="11.00" fill="#000000">text[2147483647]</text>
<polygon fill="#ffffff" stroke="transparent" points="258,-317.7 258,-339.7 474,-339.7 474,-317.7 258,-317.7"/>
<polygon fill="none" stroke="#000000" points="258,-317.7 258,-339.7 474,-339.7 474,-317.7 258,-317.7"/>
<text text-anchor="start" x="278" y="-324.8" font-family="Helvetica,sans-Serif" font-size="11.00" fill="#000000">opiskeluoikeus_oid</text>
<polygon fill="none" stroke="#000000" points="474,-317.7 474,-339.7 568,-339.7 568,-317.7 474,-317.7"/>
<text text-anchor="start" x="477" y="-325.4" font-family="Helvetica,sans-Serif" font-size="11.00" fill="#000000">text[2147483647]</text>
<polygon fill="#ffffff" stroke="transparent" points="258,-295.7 258,-317.7 474,-317.7 474,-295.7 258,-295.7"/>
<polygon fill="none" stroke="#000000" points="258,-295.7 258,-317.7 474,-317.7 474,-295.7 258,-295.7"/>
<text text-anchor="start" x="278" y="-302.8" font-family="Helvetica,sans-Serif" font-size="11.00" fill="#000000">state</text>
<polygon fill="none" stroke="#000000" points="474,-295.7 474,-317.7 568,-317.7 568,-295.7 474,-295.7"/>
<text text-anchor="start" x="477" y="-303.4" font-family="Helvetica,sans-Serif" font-size="11.00" fill="#000000">text[2147483647]</text>
<polygon fill="#ffffff" stroke="transparent" points="258,-273.7 258,-295.7 474,-295.7 474,-273.7 258,-273.7"/>
<polygon fill="none" stroke="#000000" points="258,-273.7 258,-295.7 474,-295.7 474,-273.7 258,-273.7"/>
<text text-anchor="start" x="278" y="-280.8" font-family="Helvetica,sans-Serif" font-size="11.00" fill="#000000">created_at</text>
<polygon fill="none" stroke="#000000" points="474,-273.7 474,-295.7 568,-295.7 568,-273.7 474,-273.7"/>
<text text-anchor="start" x="477" y="-281.4" font-family="Helvetica,sans-Serif" font-size="11.00" fill="#000000">timestamptz[35,6]</text>
<polygon fill="none" stroke="#000000" points="258,-251.7 258,-273.7 474,-273.7 474,-251.7 258,-251.7"/>
<text text-anchor="start" x="278" y="-258.8" font-family="Helvetica,sans-Serif" font-size="11.00" fill="#000000">completed_at</text>
<polygon fill="none" stroke="#000000" points="474,-251.7 474,-273.7 568,-273.7 568,-251.7 474,-251.7"/>
<text text-anchor="start" x="477" y="-259.4" font-family="Helvetica,sans-Serif" font-size="11.00" fill="#000000">timestamptz[35,6]</text>
<polygon fill="none" stroke="#000000" points="258,-229.7 258,-251.7 474,-251.7 474,-229.7 258,-229.7"/>
<text text-anchor="start" x="278" y="-236.8" font-family="Helvetica,sans-Serif" font-size="11.00" fill="#000000">worker</text>
<polygon fill="none" stroke="#000000" points="474,-229.7 474,-251.7 568,-251.7 568,-229.7 474,-229.7"/>
<text text-anchor="start" x="477" y="-237.4" font-family="Helvetica,sans-Serif" font-size="11.00" fill="#000000">text[2147483647]</text>
<polygon fill="none" stroke="#000000" points="258,-207.7 258,-229.7 474,-229.7 474,-207.7 258,-207.7"/>
<text text-anchor="start" x="278" y="-214.8" font-family="Helvetica,sans-Serif" font-size="11.00" fill="#000000">attempts</text>
<polygon fill="none" stroke="#000000" points="474,-207.7 474,-229.7 568,-229.7 568,-207.7 474,-207.7"/>
<text text-anchor="start" x="477" y="-215.4" font-family="Helvetica,sans-Serif" font-size="11.00" fill="#000000">int4[10]</text>
<polygon fill="none" stroke="#000000" points="258,-185.7 258,-207.7 474,-207.7 474,-185.7 258,-185.7"/>
<text text-anchor="start" x="278" y="-192.8" font-family="Helvetica,sans-Serif" font-size="11.00" fill="#000000">error</text>
<polygon fill="none" stroke="#000000" points="474,-185.7 474,-207.7 568,-207.7 568,-185.7 474,-185.7"/>
<text text-anchor="start" x="477" y="-193.4" font-family="Helvetica,sans-Serif" font-size="11.00" fill="#000000">text[2147483647]</text>
<polygon fill="none" stroke="#000000" points="258,-163.7 258,-185.7 474,-185.7 474,-163.7 258,-163.7"/>
<text text-anchor="start" x="278" y="-170.8" font-family="Helvetica,sans-Serif" font-size="11.00" fill="#000000">opiskeluoikeus_versio</text>
<polygon fill="none" stroke="#000000" points="474,-163.7 474,-185.7 568,-185.7 568,-163.7 474,-163.7"/>
<text text-anchor="start" x="477" y="-171.4" font-family="Helvetica,sans-Serif" font-size="11.00" fill="#000000">int4[10]</text>
<polygon fill="none" stroke="#000000" points="258,-141.7 258,-163.7 474,-163.7 474,-141.7 258,-141.7"/>
<image xlink:href="../../images/foreignKeys.png" width="11px" height="12px" preserveAspectRatio="xMinYMin meet" x="263" y="-158.7"/>
<text text-anchor="start" x="278" y="-148.8" font-family="Helvetica,sans-Serif" font-size="11.00" fill="#000000">todistus_job_id</text>
<polygon fill="none" stroke="#000000" points="474,-141.7 474,-163.7 568,-163.7 568,-141.7 474,-141.7"/>
<text text-anchor="start" x="476.9758" y="-149.4" font-family="Helvetica,sans-Serif" font-size="11.00" fill="#000000">uuid[2147483647]</text>
<polygon fill="#ffffff" stroke="transparent" points="258,-122.7 258,-141.7 370,-141.7 370,-122.7 258,-122.7"/>
<polygon fill="none" stroke="#000000" points="258,-122.7 258,-141.7 370,-141.7 370,-122.7 258,-122.7"/>
<text text-anchor="start" x="261" y="-128.8" font-family="Helvetica,sans-Serif" font-size="11.00" fill="#000000">&lt; 1</text>
<polygon fill="#ffffff" stroke="transparent" points="370,-122.7 370,-141.7 474,-141.7 474,-122.7 370,-122.7"/>
<polygon fill="none" stroke="#000000" points="370,-122.7 370,-141.7 474,-141.7 474,-122.7 370,-122.7"/>
<text text-anchor="start" x="464.8862" y="-128.8" font-family="Helvetica,sans-Serif" font-size="11.00" fill="#000000"> &#160;</text>
<polygon fill="#ffffff" stroke="transparent" points="474,-122.7 474,-141.7 568,-141.7 568,-122.7 474,-122.7"/>
<polygon fill="none" stroke="#000000" points="474,-122.7 474,-141.7 568,-141.7 568,-122.7 474,-122.7"/>
<text text-anchor="start" x="549.4053" y="-128.8" font-family="Helvetica,sans-Serif" font-size="11.00" fill="#000000">0 &gt;</text>
<polygon fill="none" stroke="#000000" stroke-width="2" points="257,-121.7 257,-407.7 569,-407.7 569,-121.7 257,-121.7"/>
</a>
</g>
</g>
<!-- todistus_job -->
<g id="node2" class="node">
<title>todistus_job</title>
<g id="a_node2"><a xlink:href="../../tables/todistus_job.html" xlink:title="todistus_job" target="_top">
<polygon fill="#ffffff" stroke="transparent" points="8,-38.2 8,-187.2 207,-187.2 207,-38.2 8,-38.2"/>
<polygon fill="#f5f5f5" stroke="transparent" points="8.5,-163.7 8.5,-186.7 207.5,-186.7 207.5,-163.7 8.5,-163.7"/>
<polygon fill="none" stroke="#000000" points="8.5,-163.7 8.5,-186.7 207.5,-186.7 207.5,-163.7 8.5,-163.7"/>
<text text-anchor="start" x="13.5" y="-172.3" font-family="Helvetica,sans-Serif" font-weight="bold" font-size="11.00" fill="#000000">todistus_job</text>
<text text-anchor="start" x="172.5437" y="-171.8" font-family="Helvetica,sans-Serif" font-size="11.00" fill="#000000">[table]</text>
<polygon fill="none" stroke="#000000" points="8.5,-141.7 8.5,-163.7 207.5,-163.7 207.5,-141.7 8.5,-141.7"/>
<image xlink:href="../../images/primaryKeys.png" width="11px" height="12px" preserveAspectRatio="xMinYMin meet" x="13.5" y="-158.7"/>
<text text-anchor="start" x="28.5" y="-148.8" font-family="Helvetica,sans-Serif" font-size="11.00" fill="#000000">id</text>
<polygon fill="#ffffff" stroke="transparent" points="8.5,-119.7 8.5,-141.7 207.5,-141.7 207.5,-119.7 8.5,-119.7"/>
<polygon fill="none" stroke="#000000" points="8.5,-119.7 8.5,-141.7 207.5,-141.7 207.5,-119.7 8.5,-119.7"/>
<text text-anchor="start" x="28.5" y="-126.8" font-family="Helvetica,sans-Serif" font-size="11.00" fill="#000000">opiskeluoikeus_oid</text>
<polygon fill="#ffffff" stroke="transparent" points="8.5,-97.7 8.5,-119.7 207.5,-119.7 207.5,-97.7 8.5,-97.7"/>
<polygon fill="none" stroke="#000000" points="8.5,-97.7 8.5,-119.7 207.5,-119.7 207.5,-97.7 8.5,-97.7"/>
<text text-anchor="start" x="28.5" y="-104.8" font-family="Helvetica,sans-Serif" font-size="11.00" fill="#000000">template_variant</text>
<polygon fill="#ffffff" stroke="transparent" points="8.5,-75.7 8.5,-97.7 207.5,-97.7 207.5,-75.7 8.5,-75.7"/>
<polygon fill="none" stroke="#000000" points="8.5,-75.7 8.5,-97.7 207.5,-97.7 207.5,-75.7 8.5,-75.7"/>
<text text-anchor="start" x="28.5" y="-82.8" font-family="Helvetica,sans-Serif" font-size="11.00" fill="#000000">state</text>
<polygon fill="none" stroke="#000000" points="8.5,-56.7 8.5,-75.7 207.5,-75.7 207.5,-56.7 8.5,-56.7"/>
<text text-anchor="start" x="11.5" y="-62.8" font-family="Helvetica,sans-Serif" font-size="11.00" fill="#000000">...</text>
<polygon fill="#ffffff" stroke="transparent" points="8.5,-37.7 8.5,-56.7 97.5,-56.7 97.5,-37.7 8.5,-37.7"/>
<polygon fill="none" stroke="#000000" points="8.5,-37.7 8.5,-56.7 97.5,-56.7 97.5,-37.7 8.5,-37.7"/>
<text text-anchor="start" x="11.5" y="-43.8" font-family="Helvetica,sans-Serif" font-size="11.00" fill="#000000"> &#160;</text>
<polygon fill="#ffffff" stroke="transparent" points="97.5,-37.7 97.5,-56.7 147.5,-56.7 147.5,-37.7 97.5,-37.7"/>
<polygon fill="none" stroke="#000000" points="97.5,-37.7 97.5,-56.7 147.5,-56.7 147.5,-37.7 97.5,-37.7"/>
<text text-anchor="start" x="138.3862" y="-43.8" font-family="Helvetica,sans-Serif" font-size="11.00" fill="#000000"> &#160;</text>
<polygon fill="#ffffff" stroke="transparent" points="147.5,-37.7 147.5,-56.7 207.5,-56.7 207.5,-37.7 147.5,-37.7"/>
<polygon fill="none" stroke="#000000" points="147.5,-37.7 147.5,-56.7 207.5,-56.7 207.5,-37.7 147.5,-37.7"/>
<text text-anchor="start" x="188.9053" y="-43.8" font-family="Helvetica,sans-Serif" font-size="11.00" fill="#000000">1 &gt;</text>
</a>
</g>
</g>
<!-- kielitutkintotodistus_tiedote_job&#45;&gt;todistus_job -->
<g id="edge1" class="edge">
<title>kielitutkintotodistus_tiedote_job:w&#45;&gt;todistus_job:e</title>
<path fill="none" stroke="#000000" d="M243.4203,-152.7C231.5435,-152.7 224.158,-152.7 207.5,-152.7"/>
<polygon fill="#000000" stroke="#000000" points="250,-152.7001 258,-156.3 254,-152.7 258,-152.7 258,-152.7 258,-152.7 254,-152.7 258,-149.1 250,-152.7001 250,-152.7001"/>
<ellipse fill="none" stroke="#000000" cx="246.8" cy="-152.7001" rx="3.2" ry="3.2"/>
</g>
</g>
</svg>
