<?xml version="1.0" encoding="UTF-8" standalone="no"?>
<!DOCTYPE svg PUBLIC "-//W3C//DTD SVG 1.1//EN"
 "http://www.w3.org/Graphics/SVG/1.1/DTD/svg11.dtd">
<!-- Generated by graphviz version 2.40.1 (20161225.0304)
 -->
<!-- Title: oneDegreeRelationshipsDiagram Pages: 1 -->
<svg width="267pt" height="382pt"
 viewBox="0.00 0.00 267.00 382.20" xmlns="http://www.w3.org/2000/svg" xmlns:xlink="http://www.w3.org/1999/xlink">
<g id="graph0" class="graph" transform="scale(1 1) rotate(0) translate(4 378.2)">
<title>oneDegreeRelationshipsDiagram</title>
<polygon fill="#ffffff" stroke="transparent" points="-4,4 -4,-378.2 263,-378.2 263,4 -4,4"/>
<text text-anchor="middle" x="72.4936" y="-7.3" font-family="Helvetica,sans-Serif" font-size="11.00" fill="#000000">Generated by SchemaSpy</text>
<!-- oauth2_jako -->
<g id="node1" class="node">
<title>oauth2_jako</title>
<g id="a_node1"><a xlink:href="../../tables/oauth2_jako.html" xlink:title="oauth2_jako" target="_top">
<polygon fill="#ffffff" stroke="transparent" points="8,-38.2 8,-370.2 251,-370.2 251,-38.2 8,-38.2"/>
<polygon fill="#f5f5f5" stroke="transparent" points="10.5,-345.2 10.5,-368.2 249.5,-368.2 249.5,-345.2 10.5,-345.2"/>
<polygon fill="none" stroke="#000000" points="10.5,-345.2 10.5,-368.2 249.5,-368.2 249.5,-345.2 10.5,-345.2"/>
<text text-anchor="start" x="15.5" y="-353.8" font-family="Helvetica,sans-Serif" font-weight="bold" font-size="11.00" fill="#000000">oauth2_jako</text>
<text text-anchor="start" x="214.5437" y="-353.3" font-family="Helvetica,sans-Serif" font-size="11.00" fill="#000000">[table]</text>
<polygon fill="none" stroke="#000000" points="10.5,-323.2 10.5,-345.2 157.5,-345.2 157.5,-323.2 10.5,-323.2"/>
<image xlink:href="../../images/primaryKeys.png" width="11px" height="12px" preserveAspectRatio="xMinYMin meet" x="15.5" y="-340.2"/>
<text text-anchor="start" x="30.5" y="-330.3" font-family="Helvetica,sans-Serif" font-size="11.00" fill="#000000">code_sha256</text>
<polygon fill="none" stroke="#000000" points="157.5,-323.2 157.5,-345.2 249.5,-345.2 249.5,-323.2 157.5,-323.2"/>
<text text-anchor="start" x="160.5" y="-330.9" font-family="Helvetica,sans-Serif" font-size="11.00" fill="#000000">text[2147483647]</text>
<polygon fill="#ffffff" stroke="transparent" points="10.5,-301.2 10.5,-323.2 157.5,-323.2 157.5,-301.2 10.5,-301.2"/>
<polygon fill="none" stroke="#000000" points="10.5,-301.2 10.5,-323.2 157.5,-323.2 157.5,-301.2 10.5,-301.2"/>
<text text-anchor="start" x="30.5" y="-308.3" font-family="Helvetica,sans-Serif" font-size="11.00" fill="#000000">oppija_oid</text>
<polygon fill="none" stroke="#000000" points="157.5,-301.2 157.5,-323.2 249.5,-323.2 249.5,-301.2 157.5,-301.2"/>
<text text-anchor="start" x="160.5" y="-308.9" font-family="Helvetica,sans-Serif" font-size="11.00" fill="#000000">text[2147483647]</text>
<polygon fill="none" stroke="#000000" points="10.5,-279.2 10.5,-301.2 157.5,-301.2 157.5,-279.2 10.5,-279.2"/>
<text text-anchor="start" x="30.5" y="-286.3" font-family="Helvetica,sans-Serif" font-size="11.00" fill="#000000">client_id</text>
<polygon fill="none" stroke="#000000" points="157.5,-279.2 157.5,-301.2 249.5,-301.2 249.5,-279.2 157.5,-279.2"/>
<text text-anchor="start" x="160.5" y="-286.9" font-family="Helvetica,sans-Serif" font-size="11.00" fill="#000000">text[2147483647]</text>
<polygon fill="none" stroke="#000000" points="10.5,-257.2 10.5,-279.2 157.5,-279.2 157.5,-257.2 10.5,-257.2"/>
<text text-anchor="start" x="30.5" y="-264.3" font-family="Helvetica,sans-Serif" font-size="11.00" fill="#000000">scope</text>
<polygon fill="none" stroke="#000000" points="157.5,-257.2 157.5,-279.2 249.5,-279.2 249.5,-257.2 157.5,-257.2"/>
<text text-anchor="start" x="160.5" y="-264.9" font-family="Helvetica,sans-Serif" font-size="11.00" fill="#000000">text[2147483647]</text>
<polygon fill="none" stroke="#000000" points="10.5,-235.2 10.5,-257.2 157.5,-257.2 157.5,-235.2 10.5,-235.2"/>
<text text-anchor="start" x="30.5" y="-242.3" font-family="Helvetica,sans-Serif" font-size="11.00" fill="#000000">code_challenge</text>
<polygon fill="none" stroke="#000000" points="157.5,-235.2 157.5,-257.2 249.5,-257.2 249.5,-235.2 157.5,-235.2"/>
<text text-anchor="start" x="160.5" y="-242.9" font-family="Helvetica,sans-Serif" font-size="11.00" fill="#000000">text[2147483647]</text>
<polygon fill="none" stroke="#000000" points="10.5,-213.2 10.5,-235.2 157.5,-235.2 157.5,-213.2 10.5,-213.2"/>
<text text-anchor="start" x="30.5" y="-220.3" font-family="Helvetica,sans-Serif" font-size="11.00" fill="#000000">redirect_uri</text>
<polygon fill="none" stroke="#000000" points="157.5,-213.2 157.5,-235.2 249.5,-235.2 249.5,-213.2 157.5,-213.2"/>
<text text-anchor="start" x="160.5" y="-220.9" font-family="Helvetica,sans-Serif" font-size="11.00" fill="#000000">text[2147483647]</text>
<polygon fill="#ffffff" stroke="transparent" points="10.5,-191.2 10.5,-213.2 157.5,-213.2 157.5,-191.2 10.5,-191.2"/>
<polygon fill="none" stroke="#000000" points="10.5,-191.2 10.5,-213.2 157.5,-213.2 157.5,-191.2 10.5,-191.2"/>
<text text-anchor="start" x="30.5" y="-198.3" font-family="Helvetica,sans-Serif" font-size="11.00" fill="#000000">access_token_sha256</text>
<polygon fill="none" stroke="#000000" points="157.5,-191.2 157.5,-213.2 249.5,-213.2 249.5,-191.2 157.5,-191.2"/>
<text text-anchor="start" x="160.5" y="-198.9" font-family="Helvetica,sans-Serif" font-size="11.00" fill="#000000">text[2147483647]</text>
<polygon fill="none" stroke="#000000" points="10.5,-169.2 10.5,-191.2 157.5,-191.2 157.5,-169.2 10.5,-169.2"/>
<text text-anchor="start" x="30.5" y="-176.3" font-family="Helvetica,sans-Serif" font-size="11.00" fill="#000000">code_voimassa_asti</text>
<polygon fill="none" stroke="#000000" points="157.5,-169.2 157.5,-191.2 249.5,-191.2 249.5,-169.2 157.5,-169.2"/>
<text text-anchor="start" x="160.1023" y="-176.9" font-family="Helvetica,sans-Serif" font-size="11.00" fill="#000000">timestamptz[35,6]</text>
<polygon fill="none" stroke="#000000" points="10.5,-147.2 10.5,-169.2 157.5,-169.2 157.5,-147.2 10.5,-147.2"/>
<text text-anchor="start" x="30.5" y="-154.3" font-family="Helvetica,sans-Serif" font-size="11.00" fill="#000000">voimassa_asti</text>
<polygon fill="none" stroke="#000000" points="157.5,-147.2 157.5,-169.2 249.5,-169.2 249.5,-147.2 157.5,-147.2"/>
<text text-anchor="start" x="160.1023" y="-154.9" font-family="Helvetica,sans-Serif" font-size="11.00" fill="#000000">timestamptz[35,6]</text>
<polygon fill="none" stroke="#000000" points="10.5,-125.2 10.5,-147.2 157.5,-147.2 157.5,-125.2 10.5,-125.2"/>
<text text-anchor="start" x="30.5" y="-132.3" font-family="Helvetica,sans-Serif" font-size="11.00" fill="#000000">luotu</text>
<polygon fill="none" stroke="#000000" points="157.5,-125.2 157.5,-147.2 249.5,-147.2 249.5,-125.2 157.5,-125.2"/>
<text text-anchor="start" x="160.1023" y="-132.9" font-family="Helvetica,sans-Serif" font-size="11.00" fill="#000000">timestamptz[35,6]</text>
<polygon fill="none" stroke="#000000" points="10.5,-103.2 10.5,-125.2 157.5,-125.2 157.5,-103.2 10.5,-103.2"/>
<text text-anchor="start" x="30.5" y="-110.3" font-family="Helvetica,sans-Serif" font-size="11.00" fill="#000000">muokattu</text>
<polygon fill="none" stroke="#000000" points="157.5,-103.2 157.5,-125.2 249.5,-125.2 249.5,-103.2 157.5,-103.2"/>
<text text-anchor="start" x="160.1023" y="-110.9" font-family="Helvetica,sans-Serif" font-size="11.00" fill="#000000">timestamptz[35,6]</text>
<polygon fill="#ffffff" stroke="transparent" points="10.5,-81.2 10.5,-103.2 157.5,-103.2 157.5,-81.2 10.5,-81.2"/>
<polygon fill="none" stroke="#000000" points="10.5,-81.2 10.5,-103.2 157.5,-103.2 157.5,-81.2 10.5,-81.2"/>
<text text-anchor="start" x="30.5" y="-88.3" font-family="Helvetica,sans-Serif" font-size="11.00" fill="#000000">mitatoity</text>
<polygon fill="none" stroke="#000000" points="157.5,-81.2 157.5,-103.2 249.5,-103.2 249.5,-81.2 157.5,-81.2"/>
<text text-anchor="start" x="160.5" y="-88.9" font-family="Helvetica,sans-Serif" font-size="11.00" fill="#000000">bool[1]</text>
<polygon fill="none" stroke="#000000" points="10.5,-59.2 10.5,-81.2 157.5,-81.2 157.5,-59.2 10.5,-59.2"/>
<text text-anchor="start" x="30.5" y="-66.3" font-family="Helvetica,sans-Serif" font-size="11.00" fill="#000000">mitatoity_syy</text>
<polygon fill="none" stroke="#000000" points="157.5,-59.2 157.5,-81.2 249.5,-81.2 249.5,-59.2 157.5,-59.2"/>
<text text-anchor="start" x="160.5" y="-66.9" font-family="Helvetica,sans-Serif" font-size="11.00" fill="#000000">text[2147483647]</text>
<polygon fill="#ffffff" stroke="transparent" points="10.5,-40.2 10.5,-59.2 75.5,-59.2 75.5,-40.2 10.5,-40.2"/>
<polygon fill="none" stroke="#000000" points="10.5,-40.2 10.5,-59.2 75.5,-59.2 75.5,-40.2 10.5,-40.2"/>
<text text-anchor="start" x="13.5" y="-46.3" font-family="Helvetica,sans-Serif" font-size="11.00" fill="#000000">&lt; 0</text>
<polygon fill="#ffffff" stroke="transparent" points="75.5,-40.2 75.5,-59.2 157.5,-59.2 157.5,-40.2 75.5,-40.2"/>
<polygon fill="none" stroke="#000000" points="75.5,-40.2 75.5,-59.2 157.5,-59.2 157.5,-40.2 75.5,-40.2"/>
<text text-anchor="start" x="122.1105" y="-46.3" font-family="Helvetica,sans-Serif" font-size="11.00" fill="#000000">0 rows</text>
<polygon fill="#ffffff" stroke="transparent" points="157.5,-40.2 157.5,-59.2 249.5,-59.2 249.5,-40.2 157.5,-40.2"/>
<polygon fill="none" stroke="#000000" points="157.5,-40.2 157.5,-59.2 249.5,-59.2 249.5,-40.2 157.5,-40.2"/>
<text text-anchor="start" x="230.9053" y="-46.3" font-family="Helvetica,sans-Serif" font-size="11.00" fill="#000000">0 &gt;</text>
<polygon fill="none" stroke="#000000" stroke-width="2" points="9,-39.2 9,-369.2 250,-369.2 250,-39.2 9,-39.2"/>
</a>
</g>
</g>
</g>
</svg>
