<?xml version="1.0" encoding="UTF-8" standalone="no"?>
<!DOCTYPE svg PUBLIC "-//W3C//DTD SVG 1.1//EN"
 "http://www.w3.org/Graphics/SVG/1.1/DTD/svg11.dtd">
<!-- Generated by graphviz version 2.40.1 (20161225.0304)
 -->
<!-- Title: oneDegreeRelationshipsDiagram Pages: 1 -->
<svg width="580pt" height="399pt"
 viewBox="0.00 0.00 580.00 398.70" xmlns="http://www.w3.org/2000/svg" xmlns:xlink="http://www.w3.org/1999/xlink">
<g id="graph0" class="graph" transform="scale(1 1) rotate(0) translate(4 394.7)">
<title>oneDegreeRelationshipsDiagram</title>
<polygon fill="#ffffff" stroke="transparent" points="-4,4 -4,-394.7 576,-394.7 576,4 -4,4"/>
<text text-anchor="middle" x="72.4936" y="-7.3" font-family="Helvetica,sans-Serif" font-size="11.00" fill="#000000">Generated by SchemaSpy</text>
<!-- opiskeluoikeushistoria -->
<g id="node1" class="node">
<title>opiskeluoikeushistoria</title>
<g id="a_node1"><a xlink:href="../../tables/opiskeluoikeushistoria.html" xlink:title="opiskeluoikeushistoria" target="_top">
<polygon fill="#ffffff" stroke="transparent" points="310,-230.7 310,-386.7 564,-386.7 564,-230.7 310,-230.7"/>
<polygon fill="#f5f5f5" stroke="transparent" points="312,-361.7 312,-384.7 562,-384.7 562,-361.7 312,-361.7"/>
<polygon fill="none" stroke="#000000" points="312,-361.7 312,-384.7 562,-384.7 562,-361.7 312,-361.7"/>
<text text-anchor="start" x="317" y="-370.3" font-family="Helvetica,sans-Serif" font-weight="bold" font-size="11.00" fill="#000000">opiskeluoikeushistoria</text>
<text text-anchor="start" x="527.0437" y="-369.8" font-family="Helvetica,sans-Serif" font-size="11.00" fill="#000000">[table]</text>
<polygon fill="none" stroke="#000000" points="312,-339.7 312,-361.7 463,-361.7 463,-339.7 312,-339.7"/>
<image xlink:href="../../images/primaryKeys.png" width="11px" height="12px" preserveAspectRatio="xMinYMin meet" x="317" y="-356.7"/>
<text text-anchor="start" x="332" y="-346.8" font-family="Helvetica,sans-Serif" font-size="11.00" fill="#000000">opiskeluoikeus_id</text>
<polygon fill="none" stroke="#000000" points="463,-339.7 463,-361.7 562,-361.7 562,-339.7 463,-339.7"/>
<text text-anchor="start" x="466" y="-347.4" font-family="Helvetica,sans-Serif" font-size="11.00" fill="#000000">int4[10]</text>
<polygon fill="none" stroke="#000000" points="312,-317.7 312,-339.7 463,-339.7 463,-317.7 312,-317.7"/>
<text text-anchor="start" x="332" y="-324.8" font-family="Helvetica,sans-Serif" font-size="11.00" fill="#000000">aikaleima</text>
<polygon fill="none" stroke="#000000" points="463,-317.7 463,-339.7 562,-339.7 562,-317.7 463,-317.7"/>
<text text-anchor="start" x="466" y="-325.4" font-family="Helvetica,sans-Serif" font-size="11.00" fill="#000000">timestamptz[35,6]</text>
<polygon fill="none" stroke="#000000" points="312,-295.7 312,-317.7 463,-317.7 463,-295.7 312,-295.7"/>
<text text-anchor="start" x="332" y="-302.8" font-family="Helvetica,sans-Serif" font-size="11.00" fill="#000000">kayttaja_oid</text>
<polygon fill="none" stroke="#000000" points="463,-295.7 463,-317.7 562,-317.7 562,-295.7 463,-295.7"/>
<text text-anchor="start" x="466" y="-303.4" font-family="Helvetica,sans-Serif" font-size="11.00" fill="#000000">text[2147483647]</text>
<polygon fill="none" stroke="#000000" points="312,-273.7 312,-295.7 463,-295.7 463,-273.7 312,-273.7"/>
<text text-anchor="start" x="332" y="-280.8" font-family="Helvetica,sans-Serif" font-size="11.00" fill="#000000">muutos</text>
<polygon fill="none" stroke="#000000" points="463,-273.7 463,-295.7 562,-295.7 562,-273.7 463,-273.7"/>
<text text-anchor="start" x="465.7258" y="-281.4" font-family="Helvetica,sans-Serif" font-size="11.00" fill="#000000">jsonb[2147483647]</text>
<polygon fill="none" stroke="#000000" points="312,-251.7 312,-273.7 463,-273.7 463,-251.7 312,-251.7"/>
<image xlink:href="../../images/primaryKeys.png" width="11px" height="12px" preserveAspectRatio="xMinYMin meet" x="317" y="-268.7"/>
<text text-anchor="start" x="332" y="-258.8" font-family="Helvetica,sans-Serif" font-size="11.00" fill="#000000">versionumero</text>
<polygon fill="none" stroke="#000000" points="463,-251.7 463,-273.7 562,-273.7 562,-251.7 463,-251.7"/>
<text text-anchor="start" x="466" y="-259.4" font-family="Helvetica,sans-Serif" font-size="11.00" fill="#000000">int4[10]</text>
<polygon fill="#ffffff" stroke="transparent" points="312,-232.7 312,-251.7 373,-251.7 373,-232.7 312,-232.7"/>
<polygon fill="none" stroke="#000000" points="312,-232.7 312,-251.7 373,-251.7 373,-232.7 312,-232.7"/>
<text text-anchor="start" x="315" y="-238.8" font-family="Helvetica,sans-Serif" font-size="11.00" fill="#000000">&lt; 1</text>
<polygon fill="#ffffff" stroke="transparent" points="373,-232.7 373,-251.7 463,-251.7 463,-232.7 373,-232.7"/>
<polygon fill="none" stroke="#000000" points="373,-232.7 373,-251.7 463,-251.7 463,-232.7 373,-232.7"/>
<text text-anchor="start" x="415.3807" y="-238.8" font-family="Helvetica,sans-Serif" font-size="11.00" fill="#000000">147 rows</text>
<polygon fill="#ffffff" stroke="transparent" points="463,-232.7 463,-251.7 562,-251.7 562,-232.7 463,-232.7"/>
<polygon fill="none" stroke="#000000" points="463,-232.7 463,-251.7 562,-251.7 562,-232.7 463,-232.7"/>
<text text-anchor="start" x="543.4053" y="-238.8" font-family="Helvetica,sans-Serif" font-size="11.00" fill="#000000">0 &gt;</text>
<polygon fill="none" stroke="#000000" stroke-width="2" points="311,-231.7 311,-385.7 563,-385.7 563,-231.7 311,-231.7"/>
</a>
</g>
</g>
<!-- opiskeluoikeus -->
<g id="node2" class="node">
<title>opiskeluoikeus</title>
<g id="a_node2"><a xlink:href="../../tables/opiskeluoikeus.html" xlink:title="opiskeluoikeus" target="_top">
<polygon fill="#ffffff" stroke="transparent" points="8,-38.2 8,-385.2 261,-385.2 261,-38.2 8,-38.2"/>
<polygon fill="#f5f5f5" stroke="transparent" points="8.5,-361.7 8.5,-384.7 261.5,-384.7 261.5,-361.7 8.5,-361.7"/>
<polygon fill="none" stroke="#000000" points="8.5,-361.7 8.5,-384.7 261.5,-384.7 261.5,-361.7 8.5,-361.7"/>
<text text-anchor="start" x="13.5" y="-370.3" font-family="Helvetica,sans-Serif" font-weight="bold" font-size="11.00" fill="#000000">opiskeluoikeus</text>
<text text-anchor="start" x="226.5437" y="-369.8" font-family="Helvetica,sans-Serif" font-size="11.00" fill="#000000">[table]</text>
<polygon fill="none" stroke="#000000" points="8.5,-339.7 8.5,-361.7 261.5,-361.7 261.5,-339.7 8.5,-339.7"/>
<image xlink:href="../../images/primaryKeys.png" width="11px" height="12px" preserveAspectRatio="xMinYMin meet" x="13.5" y="-356.7"/>
<text text-anchor="start" x="28.5" y="-346.8" font-family="Helvetica,sans-Serif" font-size="11.00" fill="#000000">id</text>
<polygon fill="#ffffff" stroke="transparent" points="8.5,-317.7 8.5,-339.7 261.5,-339.7 261.5,-317.7 8.5,-317.7"/>
<polygon fill="none" stroke="#000000" points="8.5,-317.7 8.5,-339.7 261.5,-339.7 261.5,-317.7 8.5,-317.7"/>
<image xlink:href="../../images/foreignKeys.png" width="11px" height="12px" preserveAspectRatio="xMinYMin meet" x="13.5" y="-334.7"/>
<text text-anchor="start" x="28.5" y="-324.8" font-family="Helvetica,sans-Serif" font-size="11.00" fill="#000000">oppija_oid</text>
<polygon fill="#ffffff" stroke="transparent" points="8.5,-295.7 8.5,-317.7 261.5,-317.7 261.5,-295.7 8.5,-295.7"/>
<polygon fill="none" stroke="#000000" points="8.5,-295.7 8.5,-317.7 261.5,-317.7 261.5,-295.7 8.5,-295.7"/>
<text text-anchor="start" x="28.5" y="-302.8" font-family="Helvetica,sans-Serif" font-size="11.00" fill="#000000">aikaleima</text>
<polygon fill="#ffffff" stroke="transparent" points="8.5,-273.7 8.5,-295.7 261.5,-295.7 261.5,-273.7 8.5,-273.7"/>
<polygon fill="none" stroke="#000000" points="8.5,-273.7 8.5,-295.7 261.5,-295.7 261.5,-273.7 8.5,-273.7"/>
<text text-anchor="start" x="28.5" y="-280.8" font-family="Helvetica,sans-Serif" font-size="11.00" fill="#000000">oppilaitos_oid</text>
<polygon fill="#ffffff" stroke="transparent" points="8.5,-251.7 8.5,-273.7 261.5,-273.7 261.5,-251.7 8.5,-251.7"/>
<polygon fill="none" stroke="#000000" points="8.5,-251.7 8.5,-273.7 261.5,-273.7 261.5,-251.7 8.5,-251.7"/>
<text text-anchor="start" x="28.5" y="-258.8" font-family="Helvetica,sans-Serif" font-size="11.00" fill="#000000">sisaltava_opiskeluoikeus_oppilaitos_oid</text>
<polygon fill="#ffffff" stroke="transparent" points="8.5,-229.7 8.5,-251.7 261.5,-251.7 261.5,-229.7 8.5,-229.7"/>
<polygon fill="none" stroke="#000000" points="8.5,-229.7 8.5,-251.7 261.5,-251.7 261.5,-229.7 8.5,-229.7"/>
<text text-anchor="start" x="28.5" y="-236.8" font-family="Helvetica,sans-Serif" font-size="11.00" fill="#000000">oid</text>
<polygon fill="none" stroke="#000000" points="8.5,-207.7 8.5,-229.7 261.5,-229.7 261.5,-207.7 8.5,-207.7"/>
<image xlink:href="../../images/foreignKeys.png" width="11px" height="12px" preserveAspectRatio="xMinYMin meet" x="13.5" y="-224.7"/>
<text text-anchor="start" x="28.5" y="-214.8" font-family="Helvetica,sans-Serif" font-size="11.00" fill="#000000">sisaltava_opiskeluoikeus_oid</text>
<polygon fill="#ffffff" stroke="transparent" points="8.5,-185.7 8.5,-207.7 261.5,-207.7 261.5,-185.7 8.5,-185.7"/>
<polygon fill="none" stroke="#000000" points="8.5,-185.7 8.5,-207.7 261.5,-207.7 261.5,-185.7 8.5,-185.7"/>
<text text-anchor="start" x="28.5" y="-192.8" font-family="Helvetica,sans-Serif" font-size="11.00" fill="#000000">mitatoity</text>
<polygon fill="#ffffff" stroke="transparent" points="8.5,-163.7 8.5,-185.7 261.5,-185.7 261.5,-163.7 8.5,-163.7"/>
<polygon fill="none" stroke="#000000" points="8.5,-163.7 8.5,-185.7 261.5,-185.7 261.5,-163.7 8.5,-163.7"/>
<text text-anchor="start" x="28.5" y="-170.8" font-family="Helvetica,sans-Serif" font-size="11.00" fill="#000000">koulutusmuoto</text>
<polygon fill="#ffffff" stroke="transparent" points="8.5,-141.7 8.5,-163.7 261.5,-163.7 261.5,-141.7 8.5,-141.7"/>
<polygon fill="none" stroke="#000000" points="8.5,-141.7 8.5,-163.7 261.5,-163.7 261.5,-141.7 8.5,-141.7"/>
<text text-anchor="start" x="28.5" y="-148.8" font-family="Helvetica,sans-Serif" font-size="11.00" fill="#000000">alkamispaiva</text>
<polygon fill="#ffffff" stroke="transparent" points="8.5,-119.7 8.5,-141.7 261.5,-141.7 261.5,-119.7 8.5,-119.7"/>
<polygon fill="none" stroke="#000000" points="8.5,-119.7 8.5,-141.7 261.5,-141.7 261.5,-119.7 8.5,-119.7"/>
<text text-anchor="start" x="28.5" y="-126.8" font-family="Helvetica,sans-Serif" font-size="11.00" fill="#000000">paattymispaiva</text>
<polygon fill="#ffffff" stroke="transparent" points="8.5,-97.7 8.5,-119.7 261.5,-119.7 261.5,-97.7 8.5,-97.7"/>
<polygon fill="none" stroke="#000000" points="8.5,-97.7 8.5,-119.7 261.5,-119.7 261.5,-97.7 8.5,-97.7"/>
<text text-anchor="start" x="28.5" y="-104.8" font-family="Helvetica,sans-Serif" font-size="11.00" fill="#000000">suoritustyypit</text>
<polygon fill="#ffffff" stroke="transparent" points="8.5,-75.7 8.5,-97.7 261.5,-97.7 261.5,-75.7 8.5,-75.7"/>
<polygon fill="none" stroke="#000000" points="8.5,-75.7 8.5,-97.7 261.5,-97.7 261.5,-75.7 8.5,-75.7"/>
<text text-anchor="start" x="28.5" y="-82.8" font-family="Helvetica,sans-Serif" font-size="11.00" fill="#000000">poistettu</text>
<polygon fill="none" stroke="#000000" points="8.5,-56.7 8.5,-75.7 261.5,-75.7 261.5,-56.7 8.5,-56.7"/>
<text text-anchor="start" x="11.5" y="-62.8" font-family="Helvetica,sans-Serif" font-size="11.00" fill="#000000">...</text>
<polygon fill="#ffffff" stroke="transparent" points="8.5,-37.7 8.5,-56.7 109.5,-56.7 109.5,-37.7 8.5,-37.7"/>
<polygon fill="none" stroke="#000000" points="8.5,-37.7 8.5,-56.7 109.5,-56.7 109.5,-37.7 8.5,-37.7"/>
<text text-anchor="start" x="11.5" y="-43.8" font-family="Helvetica,sans-Serif" font-size="11.00" fill="#000000">&lt; 2</text>
<polygon fill="#ffffff" stroke="transparent" points="109.5,-37.7 109.5,-56.7 199.5,-56.7 199.5,-37.7 109.5,-37.7"/>
<polygon fill="none" stroke="#000000" points="109.5,-37.7 109.5,-56.7 199.5,-56.7 199.5,-37.7 109.5,-37.7"/>
<text text-anchor="start" x="151.8807" y="-43.8" font-family="Helvetica,sans-Serif" font-size="11.00" fill="#000000">148 rows</text>
<polygon fill="#ffffff" stroke="transparent" points="199.5,-37.7 199.5,-56.7 261.5,-56.7 261.5,-37.7 199.5,-37.7"/>
<polygon fill="none" stroke="#000000" points="199.5,-37.7 199.5,-56.7 261.5,-56.7 261.5,-37.7 199.5,-37.7"/>
<text text-anchor="start" x="242.9053" y="-43.8" font-family="Helvetica,sans-Serif" font-size="11.00" fill="#000000">4 &gt;</text>
</a>
</g>
</g>
<!-- opiskeluoikeushistoria&#45;&gt;opiskeluoikeus -->
<g id="edge1" class="edge">
<title>opiskeluoikeushistoria:w&#45;&gt;opiskeluoikeus:e</title>
<path fill="none" stroke="#000000" d="M297.4203,-350.7C285.5435,-350.7 278.158,-350.7 261.5,-350.7"/>
<polygon fill="#000000" stroke="#000000" points="304,-350.7001 312,-354.3 308,-350.7 312,-350.7 312,-350.7 312,-350.7 308,-350.7 312,-347.1 304,-350.7001 304,-350.7001"/>
<ellipse fill="none" stroke="#000000" cx="300.8" cy="-350.7001" rx="3.2" ry="3.2"/>
</g>
</g>
</svg>
