<?xml version="1.0" encoding="UTF-8" standalone="no"?>
<!DOCTYPE svg PUBLIC "-//W3C//DTD SVG 1.1//EN"
 "http://www.w3.org/Graphics/SVG/1.1/DTD/svg11.dtd">
<!-- Generated by graphviz version 2.40.1 (20161225.0304)
 -->
<!-- Title: oneDegreeRelationshipsDiagram Pages: 1 -->
<svg width="772pt" height="603pt"
 viewBox="0.00 0.00 772.00 602.70" xmlns="http://www.w3.org/2000/svg" xmlns:xlink="http://www.w3.org/1999/xlink">
<g id="graph0" class="graph" transform="scale(1 1) rotate(0) translate(4 598.7)">
<title>oneDegreeRelationshipsDiagram</title>
<polygon fill="#ffffff" stroke="transparent" points="-4,4 -4,-598.7 768,-598.7 768,4 -4,4"/>
<text text-anchor="middle" x="72.4936" y="-7.3" font-family="Helvetica,sans-Serif" font-size="11.00" fill="#000000">Generated by SchemaSpy</text>
<!-- opiskeluoikeus -->
<g id="node1" class="node">
<title>opiskeluoikeus</title>
<g id="a_node1"><a xlink:href="../../tables/opiskeluoikeus.html" xlink:title="opiskeluoikeus" target="_top">
<polygon fill="#ffffff" stroke="transparent" points="157,-38.2 157,-480.2 516,-480.2 516,-38.2 157,-38.2"/>
<polygon fill="#f5f5f5" stroke="transparent" points="159.5,-455.2 159.5,-478.2 514.5,-478.2 514.5,-455.2 159.5,-455.2"/>
<polygon fill="none" stroke="#000000" points="159.5,-455.2 159.5,-478.2 514.5,-478.2 514.5,-455.2 159.5,-455.2"/>
<text text-anchor="start" x="164.5" y="-463.8" font-family="Helvetica,sans-Serif" font-weight="bold" font-size="11.00" fill="#000000">opiskeluoikeus</text>
<text text-anchor="start" x="479.5437" y="-463.3" font-family="Helvetica,sans-Serif" font-size="11.00" fill="#000000">[table]</text>
<polygon fill="none" stroke="#000000" points="159.5,-433.2 159.5,-455.2 415.5,-455.2 415.5,-433.2 159.5,-433.2"/>
<image xlink:href="../../images/primaryKeys.png" width="11px" height="12px" preserveAspectRatio="xMinYMin meet" x="164.5" y="-450.2"/>
<text text-anchor="start" x="179.5" y="-440.3" font-family="Helvetica,sans-Serif" font-size="11.00" fill="#000000">id</text>
<polygon fill="none" stroke="#000000" points="415.5,-433.2 415.5,-455.2 514.5,-455.2 514.5,-433.2 415.5,-433.2"/>
<text text-anchor="start" x="418.5" y="-440.9" font-family="Helvetica,sans-Serif" font-size="11.00" fill="#000000">serial[10]</text>
<polygon fill="none" stroke="#000000" points="159.5,-411.2 159.5,-433.2 415.5,-433.2 415.5,-411.2 159.5,-411.2"/>
<text text-anchor="start" x="179.5" y="-418.3" font-family="Helvetica,sans-Serif" font-size="11.00" fill="#000000">data</text>
<polygon fill="none" stroke="#000000" points="415.5,-411.2 415.5,-433.2 514.5,-433.2 514.5,-411.2 415.5,-411.2"/>
<text text-anchor="start" x="418.2258" y="-418.9" font-family="Helvetica,sans-Serif" font-size="11.00" fill="#000000">jsonb[2147483647]</text>
<polygon fill="#ffffff" stroke="transparent" points="159.5,-389.2 159.5,-411.2 415.5,-411.2 415.5,-389.2 159.5,-389.2"/>
<polygon fill="none" stroke="#000000" points="159.5,-389.2 159.5,-411.2 415.5,-411.2 415.5,-389.2 159.5,-389.2"/>
<image xlink:href="../../images/foreignKeys.png" width="11px" height="12px" preserveAspectRatio="xMinYMin meet" x="164.5" y="-406.2"/>
<text text-anchor="start" x="179.5" y="-396.3" font-family="Helvetica,sans-Serif" font-size="11.00" fill="#000000">oppija_oid</text>
<polygon fill="none" stroke="#000000" points="415.5,-389.2 415.5,-411.2 514.5,-411.2 514.5,-389.2 415.5,-389.2"/>
<text text-anchor="start" x="418.5" y="-396.9" font-family="Helvetica,sans-Serif" font-size="11.00" fill="#000000">text[2147483647]</text>
<polygon fill="#ffffff" stroke="transparent" points="159.5,-367.2 159.5,-389.2 415.5,-389.2 415.5,-367.2 159.5,-367.2"/>
<polygon fill="none" stroke="#000000" points="159.5,-367.2 159.5,-389.2 415.5,-389.2 415.5,-367.2 159.5,-367.2"/>
<text text-anchor="start" x="179.5" y="-374.3" font-family="Helvetica,sans-Serif" font-size="11.00" fill="#000000">aikaleima</text>
<polygon fill="none" stroke="#000000" points="415.5,-367.2 415.5,-389.2 514.5,-389.2 514.5,-367.2 415.5,-367.2"/>
<text text-anchor="start" x="418.5" y="-374.9" font-family="Helvetica,sans-Serif" font-size="11.00" fill="#000000">timestamptz[35,6]</text>
<polygon fill="none" stroke="#000000" points="159.5,-345.2 159.5,-367.2 415.5,-367.2 415.5,-345.2 159.5,-345.2"/>
<text text-anchor="start" x="179.5" y="-352.3" font-family="Helvetica,sans-Serif" font-size="11.00" fill="#000000">versionumero</text>
<polygon fill="none" stroke="#000000" points="415.5,-345.2 415.5,-367.2 514.5,-367.2 514.5,-345.2 415.5,-345.2"/>
<text text-anchor="start" x="418.5" y="-352.9" font-family="Helvetica,sans-Serif" font-size="11.00" fill="#000000">int4[10]</text>
<polygon fill="#ffffff" stroke="transparent" points="159.5,-323.2 159.5,-345.2 415.5,-345.2 415.5,-323.2 159.5,-323.2"/>
<polygon fill="none" stroke="#000000" points="159.5,-323.2 159.5,-345.2 415.5,-345.2 415.5,-323.2 159.5,-323.2"/>
<text text-anchor="start" x="179.5" y="-330.3" font-family="Helvetica,sans-Serif" font-size="11.00" fill="#000000">oppilaitos_oid</text>
<polygon fill="none" stroke="#000000" points="415.5,-323.2 415.5,-345.2 514.5,-345.2 514.5,-323.2 415.5,-323.2"/>
<text text-anchor="start" x="418.5" y="-330.9" font-family="Helvetica,sans-Serif" font-size="11.00" fill="#000000">text[2147483647]</text>
<polygon fill="none" stroke="#000000" points="159.5,-301.2 159.5,-323.2 415.5,-323.2 415.5,-301.2 159.5,-301.2"/>
<text text-anchor="start" x="179.5" y="-308.3" font-family="Helvetica,sans-Serif" font-size="11.00" fill="#000000">koulutustoimija_oid</text>
<polygon fill="none" stroke="#000000" points="415.5,-301.2 415.5,-323.2 514.5,-323.2 514.5,-301.2 415.5,-301.2"/>
<text text-anchor="start" x="418.5" y="-308.9" font-family="Helvetica,sans-Serif" font-size="11.00" fill="#000000">text[2147483647]</text>
<polygon fill="none" stroke="#000000" points="159.5,-279.2 159.5,-301.2 415.5,-301.2 415.5,-279.2 159.5,-279.2"/>
<text text-anchor="start" x="179.5" y="-286.3" font-family="Helvetica,sans-Serif" font-size="11.00" fill="#000000">luokka</text>
<polygon fill="none" stroke="#000000" points="415.5,-279.2 415.5,-301.2 514.5,-301.2 514.5,-279.2 415.5,-279.2"/>
<text text-anchor="start" x="418.5" y="-286.9" font-family="Helvetica,sans-Serif" font-size="11.00" fill="#000000">text[2147483647]</text>
<polygon fill="#ffffff" stroke="transparent" points="159.5,-257.2 159.5,-279.2 415.5,-279.2 415.5,-257.2 159.5,-257.2"/>
<polygon fill="none" stroke="#000000" points="159.5,-257.2 159.5,-279.2 415.5,-279.2 415.5,-257.2 159.5,-257.2"/>
<text text-anchor="start" x="179.5" y="-264.3" font-family="Helvetica,sans-Serif" font-size="11.00" fill="#000000">sisaltava_opiskeluoikeus_oppilaitos_oid</text>
<polygon fill="none" stroke="#000000" points="415.5,-257.2 415.5,-279.2 514.5,-279.2 514.5,-257.2 415.5,-257.2"/>
<text text-anchor="start" x="418.5" y="-264.9" font-family="Helvetica,sans-Serif" font-size="11.00" fill="#000000">text[2147483647]</text>
<polygon fill="#ffffff" stroke="transparent" points="159.5,-235.2 159.5,-257.2 415.5,-257.2 415.5,-235.2 159.5,-235.2"/>
<polygon fill="none" stroke="#000000" points="159.5,-235.2 159.5,-257.2 415.5,-257.2 415.5,-235.2 159.5,-235.2"/>
<text text-anchor="start" x="179.5" y="-242.3" font-family="Helvetica,sans-Serif" font-size="11.00" fill="#000000">oid</text>
<polygon fill="none" stroke="#000000" points="415.5,-235.2 415.5,-257.2 514.5,-257.2 514.5,-235.2 415.5,-235.2"/>
<text text-anchor="start" x="418.5" y="-242.9" font-family="Helvetica,sans-Serif" font-size="11.00" fill="#000000">text[2147483647]</text>
<polygon fill="none" stroke="#000000" points="159.5,-213.2 159.5,-235.2 415.5,-235.2 415.5,-213.2 159.5,-213.2"/>
<image xlink:href="../../images/foreignKeys.png" width="11px" height="12px" preserveAspectRatio="xMinYMin meet" x="164.5" y="-230.2"/>
<text text-anchor="start" x="179.5" y="-220.3" font-family="Helvetica,sans-Serif" font-size="11.00" fill="#000000">sisaltava_opiskeluoikeus_oid</text>
<polygon fill="none" stroke="#000000" points="415.5,-213.2 415.5,-235.2 514.5,-235.2 514.5,-213.2 415.5,-213.2"/>
<text text-anchor="start" x="418.5" y="-220.9" font-family="Helvetica,sans-Serif" font-size="11.00" fill="#000000">text[2147483647]</text>
<polygon fill="#ffffff" stroke="transparent" points="159.5,-191.2 159.5,-213.2 415.5,-213.2 415.5,-191.2 159.5,-191.2"/>
<polygon fill="none" stroke="#000000" points="159.5,-191.2 159.5,-213.2 415.5,-213.2 415.5,-191.2 159.5,-191.2"/>
<text text-anchor="start" x="179.5" y="-198.3" font-family="Helvetica,sans-Serif" font-size="11.00" fill="#000000">mitatoity</text>
<polygon fill="none" stroke="#000000" points="415.5,-191.2 415.5,-213.2 514.5,-213.2 514.5,-191.2 415.5,-191.2"/>
<text text-anchor="start" x="418.5" y="-198.9" font-family="Helvetica,sans-Serif" font-size="11.00" fill="#000000">bool[1]</text>
<polygon fill="#ffffff" stroke="transparent" points="159.5,-169.2 159.5,-191.2 415.5,-191.2 415.5,-169.2 159.5,-169.2"/>
<polygon fill="none" stroke="#000000" points="159.5,-169.2 159.5,-191.2 415.5,-191.2 415.5,-169.2 159.5,-169.2"/>
<text text-anchor="start" x="179.5" y="-176.3" font-family="Helvetica,sans-Serif" font-size="11.00" fill="#000000">koulutusmuoto</text>
<polygon fill="none" stroke="#000000" points="415.5,-169.2 415.5,-191.2 514.5,-191.2 514.5,-169.2 415.5,-169.2"/>
<text text-anchor="start" x="418.5" y="-176.9" font-family="Helvetica,sans-Serif" font-size="11.00" fill="#000000">text[2147483647]</text>
<polygon fill="#ffffff" stroke="transparent" points="159.5,-147.2 159.5,-169.2 415.5,-169.2 415.5,-147.2 159.5,-147.2"/>
<polygon fill="none" stroke="#000000" points="159.5,-147.2 159.5,-169.2 415.5,-169.2 415.5,-147.2 159.5,-147.2"/>
<text text-anchor="start" x="179.5" y="-154.3" font-family="Helvetica,sans-Serif" font-size="11.00" fill="#000000">alkamispaiva</text>
<polygon fill="none" stroke="#000000" points="415.5,-147.2 415.5,-169.2 514.5,-169.2 514.5,-147.2 415.5,-147.2"/>
<text text-anchor="start" x="418.5" y="-154.9" font-family="Helvetica,sans-Serif" font-size="11.00" fill="#000000">date[13]</text>
<polygon fill="#ffffff" stroke="transparent" points="159.5,-125.2 159.5,-147.2 415.5,-147.2 415.5,-125.2 159.5,-125.2"/>
<polygon fill="none" stroke="#000000" points="159.5,-125.2 159.5,-147.2 415.5,-147.2 415.5,-125.2 159.5,-125.2"/>
<text text-anchor="start" x="179.5" y="-132.3" font-family="Helvetica,sans-Serif" font-size="11.00" fill="#000000">paattymispaiva</text>
<polygon fill="none" stroke="#000000" points="415.5,-125.2 415.5,-147.2 514.5,-147.2 514.5,-125.2 415.5,-125.2"/>
<text text-anchor="start" x="418.5" y="-132.9" font-family="Helvetica,sans-Serif" font-size="11.00" fill="#000000">date[13]</text>
<polygon fill="none" stroke="#000000" points="159.5,-103.2 159.5,-125.2 415.5,-125.2 415.5,-103.2 159.5,-103.2"/>
<text text-anchor="start" x="179.5" y="-110.3" font-family="Helvetica,sans-Serif" font-size="11.00" fill="#000000">suoritusjako_tehty_rajapaivan_jalkeen</text>
<polygon fill="none" stroke="#000000" points="415.5,-103.2 415.5,-125.2 514.5,-125.2 514.5,-103.2 415.5,-103.2"/>
<text text-anchor="start" x="418.5" y="-110.9" font-family="Helvetica,sans-Serif" font-size="11.00" fill="#000000">bool[1]</text>
<polygon fill="#ffffff" stroke="transparent" points="159.5,-81.2 159.5,-103.2 415.5,-103.2 415.5,-81.2 159.5,-81.2"/>
<polygon fill="none" stroke="#000000" points="159.5,-81.2 159.5,-103.2 415.5,-103.2 415.5,-81.2 159.5,-81.2"/>
<text text-anchor="start" x="179.5" y="-88.3" font-family="Helvetica,sans-Serif" font-size="11.00" fill="#000000">suoritustyypit</text>
<polygon fill="none" stroke="#000000" points="415.5,-81.2 415.5,-103.2 514.5,-103.2 514.5,-81.2 415.5,-81.2"/>
<text text-anchor="start" x="418.5" y="-88.9" font-family="Helvetica,sans-Serif" font-size="11.00" fill="#000000">_text[2147483647]</text>
<polygon fill="#ffffff" stroke="transparent" points="159.5,-59.2 159.5,-81.2 415.5,-81.2 415.5,-59.2 159.5,-59.2"/>
<polygon fill="none" stroke="#000000" points="159.5,-59.2 159.5,-81.2 415.5,-81.2 415.5,-59.2 159.5,-59.2"/>
<text text-anchor="start" x="179.5" y="-66.3" font-family="Helvetica,sans-Serif" font-size="11.00" fill="#000000">poistettu</text>
<polygon fill="none" stroke="#000000" points="415.5,-59.2 415.5,-81.2 514.5,-81.2 514.5,-59.2 415.5,-59.2"/>
<text text-anchor="start" x="418.5" y="-66.9" font-family="Helvetica,sans-Serif" font-size="11.00" fill="#000000">bool[1]</text>
<polygon fill="#ffffff" stroke="transparent" points="159.5,-40.2 159.5,-59.2 272.5,-59.2 272.5,-40.2 159.5,-40.2"/>
<polygon fill="none" stroke="#000000" points="159.5,-40.2 159.5,-59.2 272.5,-59.2 272.5,-40.2 159.5,-40.2"/>
<text text-anchor="start" x="162.5" y="-46.3" font-family="Helvetica,sans-Serif" font-size="11.00" fill="#000000">&lt; 2</text>
<polygon fill="#ffffff" stroke="transparent" points="272.5,-40.2 272.5,-59.2 415.5,-59.2 415.5,-40.2 272.5,-40.2"/>
<polygon fill="none" stroke="#000000" points="272.5,-40.2 272.5,-59.2 415.5,-59.2 415.5,-40.2 272.5,-40.2"/>
<text text-anchor="start" x="367.8807" y="-46.3" font-family="Helvetica,sans-Serif" font-size="11.00" fill="#000000">177 rows</text>
<polygon fill="#ffffff" stroke="transparent" points="415.5,-40.2 415.5,-59.2 514.5,-59.2 514.5,-40.2 415.5,-40.2"/>
<polygon fill="none" stroke="#000000" points="415.5,-40.2 415.5,-59.2 514.5,-59.2 514.5,-40.2 415.5,-40.2"/>
<text text-anchor="start" x="495.9053" y="-46.3" font-family="Helvetica,sans-Serif" font-size="11.00" fill="#000000">4 &gt;</text>
<polygon fill="none" stroke="#000000" stroke-width="2" points="158,-39.2 158,-479.2 515,-479.2 515,-39.2 158,-39.2"/>
</a>
</g>
</g>
<!-- opiskeluoikeus&#45;&gt;opiskeluoikeus -->
<g id="edge2" class="edge">
<title>opiskeluoikeus:w&#45;&gt;opiskeluoikeus:e</title>
<path fill="none" stroke="#000000" d="M150.5706,-235.5557C90.4984,-320.5423 101.0957,-497.2 337,-497.2 584,-497.2 584,-325.5333 514.5,-246.2"/>
<polygon fill="#000000" stroke="#000000" points="154.555,-230.4887 162.3299,-226.4253 157.0275,-227.3443 159.5,-224.2 159.5,-224.2 159.5,-224.2 157.0275,-227.3443 156.6701,-221.9747 154.555,-230.4887 154.555,-230.4887"/>
<ellipse fill="none" stroke="#000000" cx="152.577" cy="-233.0041" rx="3.2" ry="3.2"/>
</g>
<!-- henkilo -->
<g id="node2" class="node">
<title>henkilo</title>
<g id="a_node2"><a xlink:href="../../tables/henkilo.html" xlink:title="henkilo" target="_top">
<polygon fill="#ffffff" stroke="transparent" points="8,-329.7 8,-434.7 108,-434.7 108,-329.7 8,-329.7"/>
<polygon fill="#f5f5f5" stroke="transparent" points="8,-411.2 8,-434.2 108,-434.2 108,-411.2 8,-411.2"/>
<polygon fill="none" stroke="#000000" points="8,-411.2 8,-434.2 108,-434.2 108,-411.2 8,-411.2"/>
<text text-anchor="start" x="13" y="-419.8" font-family="Helvetica,sans-Serif" font-weight="bold" font-size="11.00" fill="#000000">henkilo</text>
<text text-anchor="start" x="73.0437" y="-419.3" font-family="Helvetica,sans-Serif" font-size="11.00" fill="#000000">[table]</text>
<polygon fill="none" stroke="#000000" points="8,-389.2 8,-411.2 108,-411.2 108,-389.2 8,-389.2"/>
<image xlink:href="../../images/primaryKeys.png" width="11px" height="12px" preserveAspectRatio="xMinYMin meet" x="13" y="-406.2"/>
<text text-anchor="start" x="28" y="-396.3" font-family="Helvetica,sans-Serif" font-size="11.00" fill="#000000">oid</text>
<polygon fill="#ffffff" stroke="transparent" points="8,-367.2 8,-389.2 108,-389.2 108,-367.2 8,-367.2"/>
<polygon fill="none" stroke="#000000" points="8,-367.2 8,-389.2 108,-389.2 108,-367.2 8,-367.2"/>
<image xlink:href="../../images/foreignKeys.png" width="11px" height="12px" preserveAspectRatio="xMinYMin meet" x="13" y="-384.2"/>
<text text-anchor="start" x="28" y="-374.3" font-family="Helvetica,sans-Serif" font-size="11.00" fill="#000000">master_oid</text>
<polygon fill="none" stroke="#000000" points="8,-348.2 8,-367.2 108,-367.2 108,-348.2 8,-348.2"/>
<text text-anchor="start" x="11" y="-354.3" font-family="Helvetica,sans-Serif" font-size="11.00" fill="#000000">...</text>
<polygon fill="#ffffff" stroke="transparent" points="8,-329.2 8,-348.2 33,-348.2 33,-329.2 8,-329.2"/>
<polygon fill="none" stroke="#000000" points="8,-329.2 8,-348.2 33,-348.2 33,-329.2 8,-329.2"/>
<text text-anchor="start" x="11" y="-335.3" font-family="Helvetica,sans-Serif" font-size="11.00" fill="#000000">&lt; 1</text>
<polygon fill="#ffffff" stroke="transparent" points="33,-329.2 33,-348.2 85,-348.2 85,-329.2 33,-329.2"/>
<polygon fill="none" stroke="#000000" points="33,-329.2 33,-348.2 85,-348.2 85,-329.2 33,-329.2"/>
<text text-anchor="start" x="37.3807" y="-335.3" font-family="Helvetica,sans-Serif" font-size="11.00" fill="#000000">197 rows</text>
<polygon fill="#ffffff" stroke="transparent" points="85,-329.2 85,-348.2 108,-348.2 108,-329.2 85,-329.2"/>
<polygon fill="none" stroke="#000000" points="85,-329.2 85,-348.2 108,-348.2 108,-329.2 85,-329.2"/>
<text text-anchor="start" x="89.4053" y="-335.3" font-family="Helvetica,sans-Serif" font-size="11.00" fill="#000000">3 &gt;</text>
</a>
</g>
</g>
<!-- opiskeluoikeus&#45;&gt;henkilo -->
<g id="edge1" class="edge">
<title>opiskeluoikeus:w&#45;&gt;henkilo:e</title>
<path fill="none" stroke="#000000" d="M149.045,-400.2C134.137,-400.2 126.9549,-400.2 108,-400.2"/>
<polygon fill="#000000" stroke="#000000" points="158.7,-396.2 158.7,-404.2 157.1,-404.2 157.1,-396.2 158.7,-396.2"/>
<polyline fill="none" stroke="#000000" points="159.5,-400.2 155.5,-400.2 "/>
<ellipse fill="none" stroke="#000000" cx="152.3" cy="-400.2001" rx="3.2" ry="3.2"/>
</g>
<!-- opiskeluoikeushistoria -->
<g id="node3" class="node">
<title>opiskeluoikeushistoria</title>
<g id="a_node3"><a xlink:href="../../tables/opiskeluoikeushistoria.html" xlink:title="opiskeluoikeushistoria" target="_top">
<polygon fill="#ffffff" stroke="transparent" points="573,-485.7 573,-590.7 748,-590.7 748,-485.7 573,-485.7"/>
<polygon fill="#f5f5f5" stroke="transparent" points="573.5,-567.2 573.5,-590.2 748.5,-590.2 748.5,-567.2 573.5,-567.2"/>
<polygon fill="none" stroke="#000000" points="573.5,-567.2 573.5,-590.2 748.5,-590.2 748.5,-567.2 573.5,-567.2"/>
<text text-anchor="start" x="578.5" y="-575.8" font-family="Helvetica,sans-Serif" font-weight="bold" font-size="11.00" fill="#000000">opiskeluoikeushistoria</text>
<text text-anchor="start" x="714.0219" y="-575.3" font-family="Helvetica,sans-Serif" font-size="11.00" fill="#000000">[table]</text>
<polygon fill="none" stroke="#000000" points="573.5,-545.2 573.5,-567.2 748.5,-567.2 748.5,-545.2 573.5,-545.2"/>
<image xlink:href="../../images/primaryKeys.png" width="11px" height="12px" preserveAspectRatio="xMinYMin meet" x="578.5" y="-562.2"/>
<text text-anchor="start" x="602.5" y="-552.3" font-family="Helvetica,sans-Serif" font-size="11.00" fill="#000000">opiskeluoikeus_id</text>
<polygon fill="none" stroke="#000000" points="573.5,-523.2 573.5,-545.2 748.5,-545.2 748.5,-523.2 573.5,-523.2"/>
<image xlink:href="../../images/primaryKeys.png" width="11px" height="12px" preserveAspectRatio="xMinYMin meet" x="578.5" y="-540.2"/>
<text text-anchor="start" x="602.5" y="-530.3" font-family="Helvetica,sans-Serif" font-size="11.00" fill="#000000">versionumero</text>
<polygon fill="none" stroke="#000000" points="573.5,-504.2 573.5,-523.2 748.5,-523.2 748.5,-504.2 573.5,-504.2"/>
<text text-anchor="start" x="576.5" y="-510.3" font-family="Helvetica,sans-Serif" font-size="11.00" fill="#000000">...</text>
<polygon fill="#ffffff" stroke="transparent" points="573.5,-485.2 573.5,-504.2 640.5,-504.2 640.5,-485.2 573.5,-485.2"/>
<polygon fill="none" stroke="#000000" points="573.5,-485.2 573.5,-504.2 640.5,-504.2 640.5,-485.2 573.5,-485.2"/>
<text text-anchor="start" x="576.5" y="-491.3" font-family="Helvetica,sans-Serif" font-size="11.00" fill="#000000">&lt; 1</text>
<polygon fill="#ffffff" stroke="transparent" points="640.5,-485.2 640.5,-504.2 713.5,-504.2 713.5,-485.2 640.5,-485.2"/>
<polygon fill="none" stroke="#000000" points="640.5,-485.2 640.5,-504.2 713.5,-504.2 713.5,-485.2 640.5,-485.2"/>
<text text-anchor="start" x="665.8807" y="-491.3" font-family="Helvetica,sans-Serif" font-size="11.00" fill="#000000">179 rows</text>
<polygon fill="#ffffff" stroke="transparent" points="713.5,-485.2 713.5,-504.2 748.5,-504.2 748.5,-485.2 713.5,-485.2"/>
<polygon fill="none" stroke="#000000" points="713.5,-485.2 713.5,-504.2 748.5,-504.2 748.5,-485.2 713.5,-485.2"/>
<text text-anchor="start" x="739.3862" y="-491.3" font-family="Helvetica,sans-Serif" font-size="11.00" fill="#000000"> &#160;</text>
</a>
</g>
</g>
<!-- opiskeluoikeushistoria&#45;&gt;opiskeluoikeus -->
<g id="edge3" class="edge">
<title>opiskeluoikeushistoria:w&#45;&gt;opiskeluoikeus:e</title>
<path fill="none" stroke="#000000" d="M559.1044,-552.7252C527.3069,-533.8208 564.8283,-444.2 514.5,-444.2"/>
<polygon fill="#000000" stroke="#000000" points="565.7233,-554.3229 572.6553,-559.6995 569.6117,-555.2614 573.5,-556.2 573.5,-556.2 573.5,-556.2 569.6117,-555.2614 574.3447,-552.7005 565.7233,-554.3229 565.7233,-554.3229"/>
<ellipse fill="none" stroke="#000000" cx="562.6127" cy="-553.572" rx="3.2" ry="3.2"/>
</g>
<!-- perustiedot_manual_sync -->
<g id="node4" class="node">
<title>perustiedot_manual_sync</title>
<g id="a_node4"><a xlink:href="../../tables/perustiedot_manual_sync.html" xlink:title="perustiedot_manual_sync" target="_top">
<polygon fill="#ffffff" stroke="transparent" points="565,-197.7 565,-302.7 756,-302.7 756,-197.7 565,-197.7"/>
<polygon fill="#f5f5f5" stroke="transparent" points="565.5,-279.2 565.5,-302.2 756.5,-302.2 756.5,-279.2 565.5,-279.2"/>
<polygon fill="none" stroke="#000000" points="565.5,-279.2 565.5,-302.2 756.5,-302.2 756.5,-279.2 565.5,-279.2"/>
<text text-anchor="start" x="570.5" y="-287.8" font-family="Helvetica,sans-Serif" font-weight="bold" font-size="11.00" fill="#000000">perustiedot_manual_sync</text>
<text text-anchor="start" x="722.0219" y="-287.3" font-family="Helvetica,sans-Serif" font-size="11.00" fill="#000000">[table]</text>
<polygon fill="none" stroke="#000000" points="565.5,-257.2 565.5,-279.2 756.5,-279.2 756.5,-257.2 565.5,-257.2"/>
<image xlink:href="../../images/primaryKeys.png" width="11px" height="12px" preserveAspectRatio="xMinYMin meet" x="570.5" y="-274.2"/>
<text text-anchor="start" x="594.5" y="-264.3" font-family="Helvetica,sans-Serif" font-size="11.00" fill="#000000">id</text>
<polygon fill="none" stroke="#000000" points="565.5,-235.2 565.5,-257.2 756.5,-257.2 756.5,-235.2 565.5,-235.2"/>
<image xlink:href="../../images/foreignKeys.png" width="11px" height="12px" preserveAspectRatio="xMinYMin meet" x="570.5" y="-252.2"/>
<text text-anchor="start" x="594.5" y="-242.3" font-family="Helvetica,sans-Serif" font-size="11.00" fill="#000000">opiskeluoikeus_oid</text>
<polygon fill="none" stroke="#000000" points="565.5,-216.2 565.5,-235.2 756.5,-235.2 756.5,-216.2 565.5,-216.2"/>
<text text-anchor="start" x="568.5" y="-222.3" font-family="Helvetica,sans-Serif" font-size="11.00" fill="#000000">...</text>
<polygon fill="#ffffff" stroke="transparent" points="565.5,-197.2 565.5,-216.2 659.5,-216.2 659.5,-197.2 565.5,-197.2"/>
<polygon fill="none" stroke="#000000" points="565.5,-197.2 565.5,-216.2 659.5,-216.2 659.5,-197.2 565.5,-197.2"/>
<text text-anchor="start" x="568.5" y="-203.3" font-family="Helvetica,sans-Serif" font-size="11.00" fill="#000000">&lt; 1</text>
<polygon fill="#ffffff" stroke="transparent" points="659.5,-197.2 659.5,-216.2 707.5,-216.2 707.5,-197.2 659.5,-197.2"/>
<polygon fill="none" stroke="#000000" points="659.5,-197.2 659.5,-216.2 707.5,-216.2 707.5,-197.2 659.5,-197.2"/>
<text text-anchor="start" x="698.3862" y="-203.3" font-family="Helvetica,sans-Serif" font-size="11.00" fill="#000000"> &#160;</text>
<polygon fill="#ffffff" stroke="transparent" points="707.5,-197.2 707.5,-216.2 756.5,-216.2 756.5,-197.2 707.5,-197.2"/>
<polygon fill="none" stroke="#000000" points="707.5,-197.2 707.5,-216.2 756.5,-216.2 756.5,-197.2 707.5,-197.2"/>
<text text-anchor="start" x="747.3862" y="-203.3" font-family="Helvetica,sans-Serif" font-size="11.00" fill="#000000"> &#160;</text>
</a>
</g>
</g>
<!-- perustiedot_manual_sync&#45;&gt;opiskeluoikeus -->
<g id="edge4" class="edge">
<title>perustiedot_manual_sync:w&#45;&gt;opiskeluoikeus:e</title>
<path fill="none" stroke="#000000" d="M550.776,-246.2C538.7815,-246.2 531.3229,-246.2 514.5,-246.2"/>
<polygon fill="#000000" stroke="#000000" points="557.5,-246.2001 565.5,-249.8 561.5,-246.2 565.5,-246.2 565.5,-246.2 565.5,-246.2 561.5,-246.2 565.5,-242.6 557.5,-246.2001 557.5,-246.2001"/>
<ellipse fill="none" stroke="#000000" cx="554.3" cy="-246.2001" rx="3.2" ry="3.2"/>
</g>
<!-- perustiedot_sync -->
<g id="node5" class="node">
<title>perustiedot_sync</title>
<g id="a_node5"><a xlink:href="../../tables/perustiedot_sync.html" xlink:title="perustiedot_sync" target="_top">
<polygon fill="#ffffff" stroke="transparent" points="590.5,-359.7 590.5,-464.7 730.5,-464.7 730.5,-359.7 590.5,-359.7"/>
<polygon fill="#f5f5f5" stroke="transparent" points="590.5,-441.2 590.5,-464.2 730.5,-464.2 730.5,-441.2 590.5,-441.2"/>
<polygon fill="none" stroke="#000000" points="590.5,-441.2 590.5,-464.2 730.5,-464.2 730.5,-441.2 590.5,-441.2"/>
<text text-anchor="start" x="595.5" y="-449.8" font-family="Helvetica,sans-Serif" font-weight="bold" font-size="11.00" fill="#000000">perustiedot_sync</text>
<text text-anchor="start" x="696.0219" y="-449.3" font-family="Helvetica,sans-Serif" font-size="11.00" fill="#000000">[table]</text>
<polygon fill="none" stroke="#000000" points="590.5,-419.2 590.5,-441.2 730.5,-441.2 730.5,-419.2 590.5,-419.2"/>
<image xlink:href="../../images/primaryKeys.png" width="11px" height="12px" preserveAspectRatio="xMinYMin meet" x="595.5" y="-436.2"/>
<text text-anchor="start" x="617.5" y="-426.3" font-family="Helvetica,sans-Serif" font-size="11.00" fill="#000000">id</text>
<polygon fill="none" stroke="#000000" points="590.5,-397.2 590.5,-419.2 730.5,-419.2 730.5,-397.2 590.5,-397.2"/>
<image xlink:href="../../images/foreignKeys.png" width="11px" height="12px" preserveAspectRatio="xMinYMin meet" x="595.5" y="-414.2"/>
<text text-anchor="start" x="617.5" y="-404.3" font-family="Helvetica,sans-Serif" font-size="11.00" fill="#000000">opiskeluoikeus_id</text>
<polygon fill="none" stroke="#000000" points="590.5,-378.2 590.5,-397.2 730.5,-397.2 730.5,-378.2 590.5,-378.2"/>
<text text-anchor="start" x="593.5" y="-384.3" font-family="Helvetica,sans-Serif" font-size="11.00" fill="#000000">...</text>
<polygon fill="#ffffff" stroke="transparent" points="590.5,-359.2 590.5,-378.2 645.5,-378.2 645.5,-359.2 590.5,-359.2"/>
<polygon fill="none" stroke="#000000" points="590.5,-359.2 590.5,-378.2 645.5,-378.2 645.5,-359.2 590.5,-359.2"/>
<text text-anchor="start" x="593.5" y="-365.3" font-family="Helvetica,sans-Serif" font-size="11.00" fill="#000000">&lt; 1</text>
<polygon fill="#ffffff" stroke="transparent" points="645.5,-359.2 645.5,-378.2 700.5,-378.2 700.5,-359.2 645.5,-359.2"/>
<polygon fill="none" stroke="#000000" points="645.5,-359.2 645.5,-378.2 700.5,-378.2 700.5,-359.2 645.5,-359.2"/>
<text text-anchor="start" x="665.1105" y="-365.3" font-family="Helvetica,sans-Serif" font-size="11.00" fill="#000000">0 rows</text>
<polygon fill="#ffffff" stroke="transparent" points="700.5,-359.2 700.5,-378.2 730.5,-378.2 730.5,-359.2 700.5,-359.2"/>
<polygon fill="none" stroke="#000000" points="700.5,-359.2 700.5,-378.2 730.5,-378.2 730.5,-359.2 700.5,-359.2"/>
<text text-anchor="start" x="721.3862" y="-365.3" font-family="Helvetica,sans-Serif" font-size="11.00" fill="#000000"> &#160;</text>
</a>
</g>
</g>
<!-- perustiedot_sync&#45;&gt;opiskeluoikeus -->
<g id="edge5" class="edge">
<title>perustiedot_sync:w&#45;&gt;opiskeluoikeus:e</title>
<path fill="none" stroke="#000000" d="M576.0079,-410.3442C551.9576,-418.0943 546.3277,-444.2 514.5,-444.2"/>
<polygon fill="#000000" stroke="#000000" points="582.5861,-409.3709 591.0269,-411.7612 586.5431,-408.7855 590.5,-408.2 590.5,-408.2 590.5,-408.2 586.5431,-408.7855 589.9731,-404.6388 582.5861,-409.3709 582.5861,-409.3709"/>
<ellipse fill="none" stroke="#000000" cx="579.4206" cy="-409.8393" rx="3.2" ry="3.2"/>
</g>
</g>
</svg>
