<?xml version="1.0" encoding="UTF-8" standalone="no"?>
<!DOCTYPE svg PUBLIC "-//W3C//DTD SVG 1.1//EN"
 "http://www.w3.org/Graphics/SVG/1.1/DTD/svg11.dtd">
<!-- Generated by graphviz version 2.40.1 (20161225.0304)
 -->
<!-- Title: twoDegreesRelationshipsDiagram Pages: 1 -->
<svg width="721pt" height="560pt"
 viewBox="0.00 0.00 721.00 559.70" xmlns="http://www.w3.org/2000/svg" xmlns:xlink="http://www.w3.org/1999/xlink">
<g id="graph0" class="graph" transform="scale(1 1) rotate(0) translate(4 555.7)">
<title>twoDegreesRelationshipsDiagram</title>
<polygon fill="#ffffff" stroke="transparent" points="-4,4 -4,-555.7 717,-555.7 717,4 -4,4"/>
<text text-anchor="middle" x="72.4936" y="-7.3" font-family="Helvetica,sans-Serif" font-size="11.00" fill="#000000">Generated by SchemaSpy</text>
<!-- opiskeluoikeus -->
<g id="node1" class="node">
<title>opiskeluoikeus</title>
<g id="a_node1"><a xlink:href="../../tables/opiskeluoikeus.html" xlink:title="opiskeluoikeus" target="_top">
<polygon fill="#ffffff" stroke="transparent" points="140,-38.2 140,-385.2 396,-385.2 396,-38.2 140,-38.2"/>
<polygon fill="#f5f5f5" stroke="transparent" points="140,-361.7 140,-384.7 396,-384.7 396,-361.7 140,-361.7"/>
<polygon fill="none" stroke="#000000" points="140,-361.7 140,-384.7 396,-384.7 396,-361.7 140,-361.7"/>
<text text-anchor="start" x="145" y="-370.3" font-family="Helvetica,sans-Serif" font-weight="bold" font-size="11.00" fill="#000000">opiskeluoikeus</text>
<text text-anchor="start" x="361.0437" y="-369.8" font-family="Helvetica,sans-Serif" font-size="11.00" fill="#000000">[table]</text>
<polygon fill="none" stroke="#000000" points="140,-339.7 140,-361.7 396,-361.7 396,-339.7 140,-339.7"/>
<image xlink:href="../../images/primaryKeys.png" width="11px" height="12px" preserveAspectRatio="xMinYMin meet" x="145" y="-356.7"/>
<text text-anchor="start" x="160" y="-346.8" font-family="Helvetica,sans-Serif" font-size="11.00" fill="#000000">id</text>
<polygon fill="#ffffff" stroke="transparent" points="140,-317.7 140,-339.7 396,-339.7 396,-317.7 140,-317.7"/>
<polygon fill="none" stroke="#000000" points="140,-317.7 140,-339.7 396,-339.7 396,-317.7 140,-317.7"/>
<image xlink:href="../../images/foreignKeys.png" width="11px" height="12px" preserveAspectRatio="xMinYMin meet" x="145" y="-334.7"/>
<text text-anchor="start" x="160" y="-324.8" font-family="Helvetica,sans-Serif" font-size="11.00" fill="#000000">oppija_oid</text>
<polygon fill="#ffffff" stroke="transparent" points="140,-295.7 140,-317.7 396,-317.7 396,-295.7 140,-295.7"/>
<polygon fill="none" stroke="#000000" points="140,-295.7 140,-317.7 396,-317.7 396,-295.7 140,-295.7"/>
<text text-anchor="start" x="160" y="-302.8" font-family="Helvetica,sans-Serif" font-size="11.00" fill="#000000">aikaleima</text>
<polygon fill="#ffffff" stroke="transparent" points="140,-273.7 140,-295.7 396,-295.7 396,-273.7 140,-273.7"/>
<polygon fill="none" stroke="#000000" points="140,-273.7 140,-295.7 396,-295.7 396,-273.7 140,-273.7"/>
<text text-anchor="start" x="160" y="-280.8" font-family="Helvetica,sans-Serif" font-size="11.00" fill="#000000">oppilaitos_oid</text>
<polygon fill="#ffffff" stroke="transparent" points="140,-251.7 140,-273.7 396,-273.7 396,-251.7 140,-251.7"/>
<polygon fill="none" stroke="#000000" points="140,-251.7 140,-273.7 396,-273.7 396,-251.7 140,-251.7"/>
<text text-anchor="start" x="160" y="-258.8" font-family="Helvetica,sans-Serif" font-size="11.00" fill="#000000">sisaltava_opiskeluoikeus_oppilaitos_oid</text>
<polygon fill="#ffffff" stroke="transparent" points="140,-229.7 140,-251.7 396,-251.7 396,-229.7 140,-229.7"/>
<polygon fill="none" stroke="#000000" points="140,-229.7 140,-251.7 396,-251.7 396,-229.7 140,-229.7"/>
<text text-anchor="start" x="160" y="-236.8" font-family="Helvetica,sans-Serif" font-size="11.00" fill="#000000">oid</text>
<polygon fill="none" stroke="#000000" points="140,-207.7 140,-229.7 396,-229.7 396,-207.7 140,-207.7"/>
<image xlink:href="../../images/foreignKeys.png" width="11px" height="12px" preserveAspectRatio="xMinYMin meet" x="145" y="-224.7"/>
<text text-anchor="start" x="160" y="-214.8" font-family="Helvetica,sans-Serif" font-size="11.00" fill="#000000">sisaltava_opiskeluoikeus_oid</text>
<polygon fill="#ffffff" stroke="transparent" points="140,-185.7 140,-207.7 396,-207.7 396,-185.7 140,-185.7"/>
<polygon fill="none" stroke="#000000" points="140,-185.7 140,-207.7 396,-207.7 396,-185.7 140,-185.7"/>
<text text-anchor="start" x="160" y="-192.8" font-family="Helvetica,sans-Serif" font-size="11.00" fill="#000000">mitatoity</text>
<polygon fill="#ffffff" stroke="transparent" points="140,-163.7 140,-185.7 396,-185.7 396,-163.7 140,-163.7"/>
<polygon fill="none" stroke="#000000" points="140,-163.7 140,-185.7 396,-185.7 396,-163.7 140,-163.7"/>
<text text-anchor="start" x="160" y="-170.8" font-family="Helvetica,sans-Serif" font-size="11.00" fill="#000000">koulutusmuoto</text>
<polygon fill="#ffffff" stroke="transparent" points="140,-141.7 140,-163.7 396,-163.7 396,-141.7 140,-141.7"/>
<polygon fill="none" stroke="#000000" points="140,-141.7 140,-163.7 396,-163.7 396,-141.7 140,-141.7"/>
<text text-anchor="start" x="160" y="-148.8" font-family="Helvetica,sans-Serif" font-size="11.00" fill="#000000">alkamispaiva</text>
<polygon fill="#ffffff" stroke="transparent" points="140,-119.7 140,-141.7 396,-141.7 396,-119.7 140,-119.7"/>
<polygon fill="none" stroke="#000000" points="140,-119.7 140,-141.7 396,-141.7 396,-119.7 140,-119.7"/>
<text text-anchor="start" x="160" y="-126.8" font-family="Helvetica,sans-Serif" font-size="11.00" fill="#000000">paattymispaiva</text>
<polygon fill="#ffffff" stroke="transparent" points="140,-97.7 140,-119.7 396,-119.7 396,-97.7 140,-97.7"/>
<polygon fill="none" stroke="#000000" points="140,-97.7 140,-119.7 396,-119.7 396,-97.7 140,-97.7"/>
<text text-anchor="start" x="160" y="-104.8" font-family="Helvetica,sans-Serif" font-size="11.00" fill="#000000">suoritustyypit</text>
<polygon fill="#ffffff" stroke="transparent" points="140,-75.7 140,-97.7 396,-97.7 396,-75.7 140,-75.7"/>
<polygon fill="none" stroke="#000000" points="140,-75.7 140,-97.7 396,-97.7 396,-75.7 140,-75.7"/>
<text text-anchor="start" x="160" y="-82.8" font-family="Helvetica,sans-Serif" font-size="11.00" fill="#000000">poistettu</text>
<polygon fill="none" stroke="#000000" points="140,-56.7 140,-75.7 396,-75.7 396,-56.7 140,-56.7"/>
<text text-anchor="start" x="143" y="-62.8" font-family="Helvetica,sans-Serif" font-size="11.00" fill="#000000">...</text>
<polygon fill="#ffffff" stroke="transparent" points="140,-37.7 140,-56.7 262,-56.7 262,-37.7 140,-37.7"/>
<polygon fill="none" stroke="#000000" points="140,-37.7 140,-56.7 262,-56.7 262,-37.7 140,-37.7"/>
<text text-anchor="start" x="143" y="-43.8" font-family="Helvetica,sans-Serif" font-size="11.00" fill="#000000">&lt; 2</text>
<polygon fill="#ffffff" stroke="transparent" points="262,-37.7 262,-56.7 324,-56.7 324,-37.7 262,-37.7"/>
<polygon fill="none" stroke="#000000" points="262,-37.7 262,-56.7 324,-56.7 324,-37.7 262,-37.7"/>
<text text-anchor="start" x="314.8862" y="-43.8" font-family="Helvetica,sans-Serif" font-size="11.00" fill="#000000"> &#160;</text>
<polygon fill="#ffffff" stroke="transparent" points="324,-37.7 324,-56.7 396,-56.7 396,-37.7 324,-37.7"/>
<polygon fill="none" stroke="#000000" points="324,-37.7 324,-56.7 396,-56.7 396,-37.7 324,-37.7"/>
<text text-anchor="start" x="377.4053" y="-43.8" font-family="Helvetica,sans-Serif" font-size="11.00" fill="#000000">4 &gt;</text>
</a>
</g>
</g>
<!-- henkilo -->
<g id="node2" class="node">
<title>henkilo</title>
<g id="a_node2"><a xlink:href="../../tables/henkilo.html" xlink:title="henkilo" target="_top">
<polygon fill="#ffffff" stroke="transparent" points="8,-301.2 8,-362.2 91,-362.2 91,-301.2 8,-301.2"/>
<polygon fill="#f5f5f5" stroke="transparent" points="8.5,-338.7 8.5,-361.7 91.5,-361.7 91.5,-338.7 8.5,-338.7"/>
<polygon fill="none" stroke="#000000" points="8.5,-338.7 8.5,-361.7 91.5,-361.7 91.5,-338.7 8.5,-338.7"/>
<text text-anchor="start" x="13.5" y="-347.3" font-family="Helvetica,sans-Serif" font-weight="bold" font-size="11.00" fill="#000000">henkilo</text>
<text text-anchor="start" x="57.0219" y="-346.8" font-family="Helvetica,sans-Serif" font-size="11.00" fill="#000000">[table]</text>
<polygon fill="none" stroke="#000000" points="8.5,-319.7 8.5,-338.7 91.5,-338.7 91.5,-319.7 8.5,-319.7"/>
<text text-anchor="start" x="11.5" y="-325.8" font-family="Helvetica,sans-Serif" font-size="11.00" fill="#000000">...</text>
<polygon fill="#ffffff" stroke="transparent" points="8.5,-300.7 8.5,-319.7 43.5,-319.7 43.5,-300.7 8.5,-300.7"/>
<polygon fill="none" stroke="#000000" points="8.5,-300.7 8.5,-319.7 43.5,-319.7 43.5,-300.7 8.5,-300.7"/>
<text text-anchor="start" x="11.5" y="-306.8" font-family="Helvetica,sans-Serif" font-size="11.00" fill="#000000">&lt; 1</text>
<polygon fill="#ffffff" stroke="transparent" points="43.5,-300.7 43.5,-319.7 62.5,-319.7 62.5,-300.7 43.5,-300.7"/>
<polygon fill="none" stroke="#000000" points="43.5,-300.7 43.5,-319.7 62.5,-319.7 62.5,-300.7 43.5,-300.7"/>
<text text-anchor="start" x="53.3862" y="-306.8" font-family="Helvetica,sans-Serif" font-size="11.00" fill="#000000"> &#160;</text>
<polygon fill="#ffffff" stroke="transparent" points="62.5,-300.7 62.5,-319.7 91.5,-319.7 91.5,-300.7 62.5,-300.7"/>
<polygon fill="none" stroke="#000000" points="62.5,-300.7 62.5,-319.7 91.5,-319.7 91.5,-300.7 62.5,-300.7"/>
<text text-anchor="start" x="72.9053" y="-306.8" font-family="Helvetica,sans-Serif" font-size="11.00" fill="#000000">3 &gt;</text>
</a>
</g>
</g>
<!-- opiskeluoikeus&#45;&gt;henkilo -->
<g id="edge1" class="edge">
<title>opiskeluoikeus:w&#45;&gt;henkilo:e</title>
<path fill="none" stroke="#000000" d="M129.3669,-328.7C115.8553,-328.7 109.0139,-328.7 91.5,-328.7"/>
<polygon fill="#000000" stroke="#000000" points="139.2,-324.7 139.2,-332.7 137.6,-332.7 137.6,-324.7 139.2,-324.7"/>
<polyline fill="none" stroke="#000000" points="140,-328.7 136,-328.7 "/>
<ellipse fill="none" stroke="#000000" cx="132.8" cy="-328.7001" rx="3.2" ry="3.2"/>
</g>
<!-- opiskeluoikeushistoria -->
<g id="node3" class="node">
<title>opiskeluoikeushistoria</title>
<g id="a_node3"><a xlink:href="../../tables/opiskeluoikeushistoria.html" xlink:title="opiskeluoikeushistoria" target="_top">
<polygon fill="#ffffff" stroke="transparent" points="445,-391.7 445,-547.7 705,-547.7 705,-391.7 445,-391.7"/>
<polygon fill="#f5f5f5" stroke="transparent" points="447,-522.7 447,-545.7 703,-545.7 703,-522.7 447,-522.7"/>
<polygon fill="none" stroke="#000000" points="447,-522.7 447,-545.7 703,-545.7 703,-522.7 447,-522.7"/>
<text text-anchor="start" x="452" y="-531.3" font-family="Helvetica,sans-Serif" font-weight="bold" font-size="11.00" fill="#000000">opiskeluoikeushistoria</text>
<text text-anchor="start" x="668.0437" y="-530.8" font-family="Helvetica,sans-Serif" font-size="11.00" fill="#000000">[table]</text>
<polygon fill="none" stroke="#000000" points="447,-500.7 447,-522.7 604,-522.7 604,-500.7 447,-500.7"/>
<image xlink:href="../../images/primaryKeys.png" width="11px" height="12px" preserveAspectRatio="xMinYMin meet" x="452" y="-517.7"/>
<text text-anchor="start" x="467" y="-507.8" font-family="Helvetica,sans-Serif" font-size="11.00" fill="#000000">opiskeluoikeus_id</text>
<polygon fill="none" stroke="#000000" points="604,-500.7 604,-522.7 703,-522.7 703,-500.7 604,-500.7"/>
<text text-anchor="start" x="607" y="-508.4" font-family="Helvetica,sans-Serif" font-size="11.00" fill="#000000">int4[10]</text>
<polygon fill="none" stroke="#000000" points="447,-478.7 447,-500.7 604,-500.7 604,-478.7 447,-478.7"/>
<text text-anchor="start" x="467" y="-485.8" font-family="Helvetica,sans-Serif" font-size="11.00" fill="#000000">aikaleima</text>
<polygon fill="none" stroke="#000000" points="604,-478.7 604,-500.7 703,-500.7 703,-478.7 604,-478.7"/>
<text text-anchor="start" x="607" y="-486.4" font-family="Helvetica,sans-Serif" font-size="11.00" fill="#000000">timestamptz[35,6]</text>
<polygon fill="none" stroke="#000000" points="447,-456.7 447,-478.7 604,-478.7 604,-456.7 447,-456.7"/>
<text text-anchor="start" x="467" y="-463.8" font-family="Helvetica,sans-Serif" font-size="11.00" fill="#000000">kayttaja_oid</text>
<polygon fill="none" stroke="#000000" points="604,-456.7 604,-478.7 703,-478.7 703,-456.7 604,-456.7"/>
<text text-anchor="start" x="607" y="-464.4" font-family="Helvetica,sans-Serif" font-size="11.00" fill="#000000">text[2147483647]</text>
<polygon fill="none" stroke="#000000" points="447,-434.7 447,-456.7 604,-456.7 604,-434.7 447,-434.7"/>
<text text-anchor="start" x="467" y="-441.8" font-family="Helvetica,sans-Serif" font-size="11.00" fill="#000000">muutos</text>
<polygon fill="none" stroke="#000000" points="604,-434.7 604,-456.7 703,-456.7 703,-434.7 604,-434.7"/>
<text text-anchor="start" x="606.7258" y="-442.4" font-family="Helvetica,sans-Serif" font-size="11.00" fill="#000000">jsonb[2147483647]</text>
<polygon fill="none" stroke="#000000" points="447,-412.7 447,-434.7 604,-434.7 604,-412.7 447,-412.7"/>
<image xlink:href="../../images/primaryKeys.png" width="11px" height="12px" preserveAspectRatio="xMinYMin meet" x="452" y="-429.7"/>
<text text-anchor="start" x="467" y="-419.8" font-family="Helvetica,sans-Serif" font-size="11.00" fill="#000000">versionumero</text>
<polygon fill="none" stroke="#000000" points="604,-412.7 604,-434.7 703,-434.7 703,-412.7 604,-412.7"/>
<text text-anchor="start" x="607" y="-420.4" font-family="Helvetica,sans-Serif" font-size="11.00" fill="#000000">int4[10]</text>
<polygon fill="#ffffff" stroke="transparent" points="447,-393.7 447,-412.7 530,-412.7 530,-393.7 447,-393.7"/>
<polygon fill="none" stroke="#000000" points="447,-393.7 447,-412.7 530,-412.7 530,-393.7 447,-393.7"/>
<text text-anchor="start" x="450" y="-399.8" font-family="Helvetica,sans-Serif" font-size="11.00" fill="#000000">&lt; 1</text>
<polygon fill="#ffffff" stroke="transparent" points="530,-393.7 530,-412.7 604,-412.7 604,-393.7 530,-393.7"/>
<polygon fill="none" stroke="#000000" points="530,-393.7 530,-412.7 604,-412.7 604,-393.7 530,-393.7"/>
<text text-anchor="start" x="594.8862" y="-399.8" font-family="Helvetica,sans-Serif" font-size="11.00" fill="#000000"> &#160;</text>
<polygon fill="#ffffff" stroke="transparent" points="604,-393.7 604,-412.7 703,-412.7 703,-393.7 604,-393.7"/>
<polygon fill="none" stroke="#000000" points="604,-393.7 604,-412.7 703,-412.7 703,-393.7 604,-393.7"/>
<text text-anchor="start" x="684.4053" y="-399.8" font-family="Helvetica,sans-Serif" font-size="11.00" fill="#000000">0 &gt;</text>
<polygon fill="none" stroke="#000000" stroke-width="2" points="446,-392.7 446,-546.7 704,-546.7 704,-392.7 446,-392.7"/>
</a>
</g>
</g>
<!-- opiskeluoikeushistoria&#45;&gt;opiskeluoikeus -->
<g id="edge2" class="edge">
<title>opiskeluoikeushistoria:w&#45;&gt;opiskeluoikeus:e</title>
<path fill="none" stroke="#000000" d="M432.7255,-509.0399C386.0298,-488.1068 465.3424,-350.7 396,-350.7"/>
<polygon fill="#000000" stroke="#000000" points="439.1354,-510.2343 446.3405,-515.2391 443.0677,-510.9672 447,-511.7 447,-511.7 447,-511.7 443.0677,-510.9672 447.6595,-508.1609 439.1354,-510.2343 439.1354,-510.2343"/>
<ellipse fill="none" stroke="#000000" cx="435.9896" cy="-509.6481" rx="3.2" ry="3.2"/>
</g>
<!-- perustiedot_manual_sync -->
<g id="node4" class="node">
<title>perustiedot_manual_sync</title>
<g id="a_node4"><a xlink:href="../../tables/perustiedot_manual_sync.html" xlink:title="perustiedot_manual_sync" target="_top">
<polygon fill="#ffffff" stroke="transparent" points="479.5,-213.2 479.5,-274.2 670.5,-274.2 670.5,-213.2 479.5,-213.2"/>
<polygon fill="#f5f5f5" stroke="transparent" points="480,-250.7 480,-273.7 671,-273.7 671,-250.7 480,-250.7"/>
<polygon fill="none" stroke="#000000" points="480,-250.7 480,-273.7 671,-273.7 671,-250.7 480,-250.7"/>
<text text-anchor="start" x="485" y="-259.3" font-family="Helvetica,sans-Serif" font-weight="bold" font-size="11.00" fill="#000000">perustiedot_manual_sync</text>
<text text-anchor="start" x="636.5219" y="-258.8" font-family="Helvetica,sans-Serif" font-size="11.00" fill="#000000">[table]</text>
<polygon fill="none" stroke="#000000" points="480,-231.7 480,-250.7 671,-250.7 671,-231.7 480,-231.7"/>
<text text-anchor="start" x="483" y="-237.8" font-family="Helvetica,sans-Serif" font-size="11.00" fill="#000000">...</text>
<polygon fill="#ffffff" stroke="transparent" points="480,-212.7 480,-231.7 574,-231.7 574,-212.7 480,-212.7"/>
<polygon fill="none" stroke="#000000" points="480,-212.7 480,-231.7 574,-231.7 574,-212.7 480,-212.7"/>
<text text-anchor="start" x="483" y="-218.8" font-family="Helvetica,sans-Serif" font-size="11.00" fill="#000000">&lt; 1</text>
<polygon fill="#ffffff" stroke="transparent" points="574,-212.7 574,-231.7 622,-231.7 622,-212.7 574,-212.7"/>
<polygon fill="none" stroke="#000000" points="574,-212.7 574,-231.7 622,-231.7 622,-212.7 574,-212.7"/>
<text text-anchor="start" x="612.8862" y="-218.8" font-family="Helvetica,sans-Serif" font-size="11.00" fill="#000000"> &#160;</text>
<polygon fill="#ffffff" stroke="transparent" points="622,-212.7 622,-231.7 671,-231.7 671,-212.7 622,-212.7"/>
<polygon fill="none" stroke="#000000" points="622,-212.7 622,-231.7 671,-231.7 671,-212.7 622,-212.7"/>
<text text-anchor="start" x="661.8862" y="-218.8" font-family="Helvetica,sans-Serif" font-size="11.00" fill="#000000"> &#160;</text>
</a>
</g>
</g>
<!-- perustiedot_manual_sync&#45;&gt;opiskeluoikeus -->
<g id="edge3" class="edge">
<title>perustiedot_manual_sync:w&#45;&gt;opiskeluoikeus:e</title>
<path fill="none" stroke="#000000" d="M465.3981,-240.7C439.3839,-240.7 427.9375,-240.7 396,-240.7"/>
<polygon fill="#000000" stroke="#000000" points="472,-240.7001 480,-244.3 476,-240.7 480,-240.7 480,-240.7 480,-240.7 476,-240.7 480,-237.1 472,-240.7001 472,-240.7001"/>
<ellipse fill="none" stroke="#000000" cx="468.8" cy="-240.7001" rx="3.2" ry="3.2"/>
</g>
<!-- perustiedot_sync -->
<g id="node5" class="node">
<title>perustiedot_sync</title>
<g id="a_node5"><a xlink:href="../../tables/perustiedot_sync.html" xlink:title="perustiedot_sync" target="_top">
<polygon fill="#ffffff" stroke="transparent" points="505,-309.2 505,-370.2 645,-370.2 645,-309.2 505,-309.2"/>
<polygon fill="#f5f5f5" stroke="transparent" points="505,-346.7 505,-369.7 645,-369.7 645,-346.7 505,-346.7"/>
<polygon fill="none" stroke="#000000" points="505,-346.7 505,-369.7 645,-369.7 645,-346.7 505,-346.7"/>
<text text-anchor="start" x="510" y="-355.3" font-family="Helvetica,sans-Serif" font-weight="bold" font-size="11.00" fill="#000000">perustiedot_sync</text>
<text text-anchor="start" x="610.5219" y="-354.8" font-family="Helvetica,sans-Serif" font-size="11.00" fill="#000000">[table]</text>
<polygon fill="none" stroke="#000000" points="505,-327.7 505,-346.7 645,-346.7 645,-327.7 505,-327.7"/>
<text text-anchor="start" x="508" y="-333.8" font-family="Helvetica,sans-Serif" font-size="11.00" fill="#000000">...</text>
<polygon fill="#ffffff" stroke="transparent" points="505,-308.7 505,-327.7 573,-327.7 573,-308.7 505,-308.7"/>
<polygon fill="none" stroke="#000000" points="505,-308.7 505,-327.7 573,-327.7 573,-308.7 505,-308.7"/>
<text text-anchor="start" x="508" y="-314.8" font-family="Helvetica,sans-Serif" font-size="11.00" fill="#000000">&lt; 1</text>
<polygon fill="#ffffff" stroke="transparent" points="573,-308.7 573,-327.7 609,-327.7 609,-308.7 573,-308.7"/>
<polygon fill="none" stroke="#000000" points="573,-308.7 573,-327.7 609,-327.7 609,-308.7 573,-308.7"/>
<text text-anchor="start" x="599.8862" y="-314.8" font-family="Helvetica,sans-Serif" font-size="11.00" fill="#000000"> &#160;</text>
<polygon fill="#ffffff" stroke="transparent" points="609,-308.7 609,-327.7 645,-327.7 645,-308.7 609,-308.7"/>
<polygon fill="none" stroke="#000000" points="609,-308.7 609,-327.7 645,-327.7 645,-308.7 609,-308.7"/>
<text text-anchor="start" x="635.8862" y="-314.8" font-family="Helvetica,sans-Serif" font-size="11.00" fill="#000000"> &#160;</text>
</a>
</g>
</g>
<!-- perustiedot_sync&#45;&gt;opiskeluoikeus -->
<g id="edge4" class="edge">
<title>perustiedot_sync:w&#45;&gt;opiskeluoikeus:e</title>
<path fill="none" stroke="#000000" d="M490.2222,-337.1658C453.2335,-339.595 439.5003,-350.7 396,-350.7"/>
<polygon fill="#000000" stroke="#000000" points="497.004,-336.9521 505.1134,-340.2982 501.002,-336.826 505,-336.7 505,-336.7 505,-336.7 501.002,-336.826 504.8866,-333.1018 497.004,-336.9521 497.004,-336.9521"/>
<ellipse fill="none" stroke="#000000" cx="493.8056" cy="-337.0529" rx="3.2" ry="3.2"/>
</g>
</g>
</svg>
