<?xml version="1.0" encoding="UTF-8" standalone="no"?>
<!DOCTYPE svg PUBLIC "-//W3C//DTD SVG 1.1//EN"
 "http://www.w3.org/Graphics/SVG/1.1/DTD/svg11.dtd">
<!-- Generated by graphviz version 2.40.1 (20161225.0304)
 -->
<!-- Title: oneDegreeRelationshipsDiagram Pages: 1 -->
<svg width="384pt" height="492pt"
 viewBox="0.00 0.00 384.00 492.20" xmlns="http://www.w3.org/2000/svg" xmlns:xlink="http://www.w3.org/1999/xlink">
<g id="graph0" class="graph" transform="scale(1 1) rotate(0) translate(4 488.2)">
<title>oneDegreeRelationshipsDiagram</title>
<polygon fill="#ffffff" stroke="transparent" points="-4,4 -4,-488.2 380,-488.2 380,4 -4,4"/>
<text text-anchor="middle" x="72.4936" y="-7.3" font-family="Helvetica,sans-Serif" font-size="11.00" fill="#000000">Generated by SchemaSpy</text>
<!-- opiskeluoikeus_valpas_fixture -->
<g id="node1" class="node">
<title>opiskeluoikeus_valpas_fixture</title>
<g id="a_node1"><a xlink:href="../../tables/opiskeluoikeus_valpas_fixture.html" xlink:title="opiskeluoikeus_valpas_fixture" target="_top">
<polygon fill="#ffffff" stroke="transparent" points="8,-38.2 8,-480.2 368,-480.2 368,-38.2 8,-38.2"/>
<polygon fill="#f5f5f5" stroke="transparent" points="10,-455.2 10,-478.2 366,-478.2 366,-455.2 10,-455.2"/>
<polygon fill="none" stroke="#000000" points="10,-455.2 10,-478.2 366,-478.2 366,-455.2 10,-455.2"/>
<text text-anchor="start" x="15" y="-463.8" font-family="Helvetica,sans-Serif" font-weight="bold" font-size="11.00" fill="#000000">opiskeluoikeus_valpas_fixture</text>
<text text-anchor="start" x="331.0437" y="-463.3" font-family="Helvetica,sans-Serif" font-size="11.00" fill="#000000">[table]</text>
<polygon fill="none" stroke="#000000" points="10,-433.2 10,-455.2 267,-455.2 267,-433.2 10,-433.2"/>
<text text-anchor="start" x="30" y="-440.3" font-family="Helvetica,sans-Serif" font-size="11.00" fill="#000000">id</text>
<polygon fill="none" stroke="#000000" points="267,-433.2 267,-455.2 366,-455.2 366,-433.2 267,-433.2"/>
<text text-anchor="start" x="270" y="-440.9" font-family="Helvetica,sans-Serif" font-size="11.00" fill="#000000">int4[10]</text>
<polygon fill="none" stroke="#000000" points="10,-411.2 10,-433.2 267,-433.2 267,-411.2 10,-411.2"/>
<text text-anchor="start" x="30" y="-418.3" font-family="Helvetica,sans-Serif" font-size="11.00" fill="#000000">data</text>
<polygon fill="none" stroke="#000000" points="267,-411.2 267,-433.2 366,-433.2 366,-411.2 267,-411.2"/>
<text text-anchor="start" x="269.7258" y="-418.9" font-family="Helvetica,sans-Serif" font-size="11.00" fill="#000000">jsonb[2147483647]</text>
<polygon fill="none" stroke="#000000" points="10,-389.2 10,-411.2 267,-411.2 267,-389.2 10,-389.2"/>
<text text-anchor="start" x="30" y="-396.3" font-family="Helvetica,sans-Serif" font-size="11.00" fill="#000000">oppija_oid</text>
<polygon fill="none" stroke="#000000" points="267,-389.2 267,-411.2 366,-411.2 366,-389.2 267,-389.2"/>
<text text-anchor="start" x="270" y="-396.9" font-family="Helvetica,sans-Serif" font-size="11.00" fill="#000000">text[2147483647]</text>
<polygon fill="none" stroke="#000000" points="10,-367.2 10,-389.2 267,-389.2 267,-367.2 10,-367.2"/>
<text text-anchor="start" x="30" y="-374.3" font-family="Helvetica,sans-Serif" font-size="11.00" fill="#000000">aikaleima</text>
<polygon fill="none" stroke="#000000" points="267,-367.2 267,-389.2 366,-389.2 366,-367.2 267,-367.2"/>
<text text-anchor="start" x="270" y="-374.9" font-family="Helvetica,sans-Serif" font-size="11.00" fill="#000000">timestamptz[35,6]</text>
<polygon fill="none" stroke="#000000" points="10,-345.2 10,-367.2 267,-367.2 267,-345.2 10,-345.2"/>
<text text-anchor="start" x="30" y="-352.3" font-family="Helvetica,sans-Serif" font-size="11.00" fill="#000000">versionumero</text>
<polygon fill="none" stroke="#000000" points="267,-345.2 267,-367.2 366,-367.2 366,-345.2 267,-345.2"/>
<text text-anchor="start" x="270" y="-352.9" font-family="Helvetica,sans-Serif" font-size="11.00" fill="#000000">int4[10]</text>
<polygon fill="none" stroke="#000000" points="10,-323.2 10,-345.2 267,-345.2 267,-323.2 10,-323.2"/>
<text text-anchor="start" x="30" y="-330.3" font-family="Helvetica,sans-Serif" font-size="11.00" fill="#000000">oppilaitos_oid</text>
<polygon fill="none" stroke="#000000" points="267,-323.2 267,-345.2 366,-345.2 366,-323.2 267,-323.2"/>
<text text-anchor="start" x="270" y="-330.9" font-family="Helvetica,sans-Serif" font-size="11.00" fill="#000000">text[2147483647]</text>
<polygon fill="none" stroke="#000000" points="10,-301.2 10,-323.2 267,-323.2 267,-301.2 10,-301.2"/>
<text text-anchor="start" x="30" y="-308.3" font-family="Helvetica,sans-Serif" font-size="11.00" fill="#000000">koulutustoimija_oid</text>
<polygon fill="none" stroke="#000000" points="267,-301.2 267,-323.2 366,-323.2 366,-301.2 267,-301.2"/>
<text text-anchor="start" x="270" y="-308.9" font-family="Helvetica,sans-Serif" font-size="11.00" fill="#000000">text[2147483647]</text>
<polygon fill="none" stroke="#000000" points="10,-279.2 10,-301.2 267,-301.2 267,-279.2 10,-279.2"/>
<text text-anchor="start" x="30" y="-286.3" font-family="Helvetica,sans-Serif" font-size="11.00" fill="#000000">luokka</text>
<polygon fill="none" stroke="#000000" points="267,-279.2 267,-301.2 366,-301.2 366,-279.2 267,-279.2"/>
<text text-anchor="start" x="270" y="-286.9" font-family="Helvetica,sans-Serif" font-size="11.00" fill="#000000">text[2147483647]</text>
<polygon fill="none" stroke="#000000" points="10,-257.2 10,-279.2 267,-279.2 267,-257.2 10,-257.2"/>
<text text-anchor="start" x="30" y="-264.3" font-family="Helvetica,sans-Serif" font-size="11.00" fill="#000000">sisaltava_opiskeluoikeus_oppilaitos_oid</text>
<polygon fill="none" stroke="#000000" points="267,-257.2 267,-279.2 366,-279.2 366,-257.2 267,-257.2"/>
<text text-anchor="start" x="270" y="-264.9" font-family="Helvetica,sans-Serif" font-size="11.00" fill="#000000">text[2147483647]</text>
<polygon fill="none" stroke="#000000" points="10,-235.2 10,-257.2 267,-257.2 267,-235.2 10,-235.2"/>
<text text-anchor="start" x="30" y="-242.3" font-family="Helvetica,sans-Serif" font-size="11.00" fill="#000000">oid</text>
<polygon fill="none" stroke="#000000" points="267,-235.2 267,-257.2 366,-257.2 366,-235.2 267,-235.2"/>
<text text-anchor="start" x="270" y="-242.9" font-family="Helvetica,sans-Serif" font-size="11.00" fill="#000000">text[2147483647]</text>
<polygon fill="none" stroke="#000000" points="10,-213.2 10,-235.2 267,-235.2 267,-213.2 10,-213.2"/>
<text text-anchor="start" x="30" y="-220.3" font-family="Helvetica,sans-Serif" font-size="11.00" fill="#000000">sisaltava_opiskeluoikeus_oid</text>
<polygon fill="none" stroke="#000000" points="267,-213.2 267,-235.2 366,-235.2 366,-213.2 267,-213.2"/>
<text text-anchor="start" x="270" y="-220.9" font-family="Helvetica,sans-Serif" font-size="11.00" fill="#000000">text[2147483647]</text>
<polygon fill="none" stroke="#000000" points="10,-191.2 10,-213.2 267,-213.2 267,-191.2 10,-191.2"/>
<text text-anchor="start" x="30" y="-198.3" font-family="Helvetica,sans-Serif" font-size="11.00" fill="#000000">mitatoity</text>
<polygon fill="none" stroke="#000000" points="267,-191.2 267,-213.2 366,-213.2 366,-191.2 267,-191.2"/>
<text text-anchor="start" x="270" y="-198.9" font-family="Helvetica,sans-Serif" font-size="11.00" fill="#000000">bool[1]</text>
<polygon fill="none" stroke="#000000" points="10,-169.2 10,-191.2 267,-191.2 267,-169.2 10,-169.2"/>
<text text-anchor="start" x="30" y="-176.3" font-family="Helvetica,sans-Serif" font-size="11.00" fill="#000000">koulutusmuoto</text>
<polygon fill="none" stroke="#000000" points="267,-169.2 267,-191.2 366,-191.2 366,-169.2 267,-169.2"/>
<text text-anchor="start" x="270" y="-176.9" font-family="Helvetica,sans-Serif" font-size="11.00" fill="#000000">text[2147483647]</text>
<polygon fill="none" stroke="#000000" points="10,-147.2 10,-169.2 267,-169.2 267,-147.2 10,-147.2"/>
<text text-anchor="start" x="30" y="-154.3" font-family="Helvetica,sans-Serif" font-size="11.00" fill="#000000">alkamispaiva</text>
<polygon fill="none" stroke="#000000" points="267,-147.2 267,-169.2 366,-169.2 366,-147.2 267,-147.2"/>
<text text-anchor="start" x="270" y="-154.9" font-family="Helvetica,sans-Serif" font-size="11.00" fill="#000000">date[13]</text>
<polygon fill="none" stroke="#000000" points="10,-125.2 10,-147.2 267,-147.2 267,-125.2 10,-125.2"/>
<text text-anchor="start" x="30" y="-132.3" font-family="Helvetica,sans-Serif" font-size="11.00" fill="#000000">paattymispaiva</text>
<polygon fill="none" stroke="#000000" points="267,-125.2 267,-147.2 366,-147.2 366,-125.2 267,-125.2"/>
<text text-anchor="start" x="270" y="-132.9" font-family="Helvetica,sans-Serif" font-size="11.00" fill="#000000">date[13]</text>
<polygon fill="none" stroke="#000000" points="10,-103.2 10,-125.2 267,-125.2 267,-103.2 10,-103.2"/>
<text text-anchor="start" x="30" y="-110.3" font-family="Helvetica,sans-Serif" font-size="11.00" fill="#000000">suoritusjako_tehty_rajapaivan_jalkeen</text>
<polygon fill="none" stroke="#000000" points="267,-103.2 267,-125.2 366,-125.2 366,-103.2 267,-103.2"/>
<text text-anchor="start" x="270" y="-110.9" font-family="Helvetica,sans-Serif" font-size="11.00" fill="#000000">bool[1]</text>
<polygon fill="none" stroke="#000000" points="10,-81.2 10,-103.2 267,-103.2 267,-81.2 10,-81.2"/>
<text text-anchor="start" x="30" y="-88.3" font-family="Helvetica,sans-Serif" font-size="11.00" fill="#000000">suoritustyypit</text>
<polygon fill="none" stroke="#000000" points="267,-81.2 267,-103.2 366,-103.2 366,-81.2 267,-81.2"/>
<text text-anchor="start" x="270" y="-88.9" font-family="Helvetica,sans-Serif" font-size="11.00" fill="#000000">_text[2147483647]</text>
<polygon fill="none" stroke="#000000" points="10,-59.2 10,-81.2 267,-81.2 267,-59.2 10,-59.2"/>
<text text-anchor="start" x="30" y="-66.3" font-family="Helvetica,sans-Serif" font-size="11.00" fill="#000000">poistettu</text>
<polygon fill="none" stroke="#000000" points="267,-59.2 267,-81.2 366,-81.2 366,-59.2 267,-59.2"/>
<text text-anchor="start" x="270" y="-66.9" font-family="Helvetica,sans-Serif" font-size="11.00" fill="#000000">bool[1]</text>
<polygon fill="#ffffff" stroke="transparent" points="10,-40.2 10,-59.2 124,-59.2 124,-40.2 10,-40.2"/>
<polygon fill="none" stroke="#000000" points="10,-40.2 10,-59.2 124,-59.2 124,-40.2 10,-40.2"/>
<text text-anchor="start" x="13" y="-46.3" font-family="Helvetica,sans-Serif" font-size="11.00" fill="#000000">&lt; 0</text>
<polygon fill="#ffffff" stroke="transparent" points="124,-40.2 124,-59.2 267,-59.2 267,-40.2 124,-40.2"/>
<polygon fill="none" stroke="#000000" points="124,-40.2 124,-59.2 267,-59.2 267,-40.2 124,-40.2"/>
<text text-anchor="start" x="219.3807" y="-46.3" font-family="Helvetica,sans-Serif" font-size="11.00" fill="#000000">241 rows</text>
<polygon fill="#ffffff" stroke="transparent" points="267,-40.2 267,-59.2 366,-59.2 366,-40.2 267,-40.2"/>
<polygon fill="none" stroke="#000000" points="267,-40.2 267,-59.2 366,-59.2 366,-40.2 267,-40.2"/>
<text text-anchor="start" x="347.4053" y="-46.3" font-family="Helvetica,sans-Serif" font-size="11.00" fill="#000000">0 &gt;</text>
<polygon fill="none" stroke="#000000" stroke-width="2" points="9,-39.2 9,-479.2 367,-479.2 367,-39.2 9,-39.2"/>
</a>
</g>
</g>
</g>
</svg>
