<?xml version="1.0" encoding="UTF-8" standalone="no"?>
<!DOCTYPE svg PUBLIC "-//W3C//DTD SVG 1.1//EN"
 "http://www.w3.org/Graphics/SVG/1.1/DTD/svg11.dtd">
<!-- Generated by graphviz version 2.40.1 (20161225.0304)
 -->
<!-- Title: twoDegreesRelationshipsDiagram Pages: 1 -->
<svg width="721pt" height="560pt"
 viewBox="0.00 0.00 721.00 559.70" xmlns="http://www.w3.org/2000/svg" xmlns:xlink="http://www.w3.org/1999/xlink">
<g id="graph0" class="graph" transform="scale(1 1) rotate(0) translate(4 555.7)">
<title>twoDegreesRelationshipsDiagram</title>
<polygon fill="#ffffff" stroke="transparent" points="-4,4 -4,-555.7 717,-555.7 717,4 -4,4"/>
<text text-anchor="middle" x="72.4936" y="-7.3" font-family="Helvetica,sans-Serif" font-size="11.00" fill="#000000">Generated by SchemaSpy</text>
<!-- opiskeluoikeus -->
<g id="node1" class="node">
<title>opiskeluoikeus</title>
<g id="a_node1"><a xlink:href="../../tables/opiskeluoikeus.html" xlink:title="opiskeluoikeus" target="_top">
<polygon fill="#ffffff" stroke="transparent" points="149,-38.2 149,-385.2 402,-385.2 402,-38.2 149,-38.2"/>
<polygon fill="#f5f5f5" stroke="transparent" points="149.5,-361.7 149.5,-384.7 402.5,-384.7 402.5,-361.7 149.5,-361.7"/>
<polygon fill="none" stroke="#000000" points="149.5,-361.7 149.5,-384.7 402.5,-384.7 402.5,-361.7 149.5,-361.7"/>
<text text-anchor="start" x="154.5" y="-370.3" font-family="Helvetica,sans-Serif" font-weight="bold" font-size="11.00" fill="#000000">opiskeluoikeus</text>
<text text-anchor="start" x="367.5437" y="-369.8" font-family="Helvetica,sans-Serif" font-size="11.00" fill="#000000">[table]</text>
<polygon fill="none" stroke="#000000" points="149.5,-339.7 149.5,-361.7 402.5,-361.7 402.5,-339.7 149.5,-339.7"/>
<image xlink:href="../../images/primaryKeys.png" width="11px" height="12px" preserveAspectRatio="xMinYMin meet" x="154.5" y="-356.7"/>
<text text-anchor="start" x="169.5" y="-346.8" font-family="Helvetica,sans-Serif" font-size="11.00" fill="#000000">id</text>
<polygon fill="#ffffff" stroke="transparent" points="149.5,-317.7 149.5,-339.7 402.5,-339.7 402.5,-317.7 149.5,-317.7"/>
<polygon fill="none" stroke="#000000" points="149.5,-317.7 149.5,-339.7 402.5,-339.7 402.5,-317.7 149.5,-317.7"/>
<image xlink:href="../../images/foreignKeys.png" width="11px" height="12px" preserveAspectRatio="xMinYMin meet" x="154.5" y="-334.7"/>
<text text-anchor="start" x="169.5" y="-324.8" font-family="Helvetica,sans-Serif" font-size="11.00" fill="#000000">oppija_oid</text>
<polygon fill="#ffffff" stroke="transparent" points="149.5,-295.7 149.5,-317.7 402.5,-317.7 402.5,-295.7 149.5,-295.7"/>
<polygon fill="none" stroke="#000000" points="149.5,-295.7 149.5,-317.7 402.5,-317.7 402.5,-295.7 149.5,-295.7"/>
<text text-anchor="start" x="169.5" y="-302.8" font-family="Helvetica,sans-Serif" font-size="11.00" fill="#000000">aikaleima</text>
<polygon fill="#ffffff" stroke="transparent" points="149.5,-273.7 149.5,-295.7 402.5,-295.7 402.5,-273.7 149.5,-273.7"/>
<polygon fill="none" stroke="#000000" points="149.5,-273.7 149.5,-295.7 402.5,-295.7 402.5,-273.7 149.5,-273.7"/>
<text text-anchor="start" x="169.5" y="-280.8" font-family="Helvetica,sans-Serif" font-size="11.00" fill="#000000">oppilaitos_oid</text>
<polygon fill="#ffffff" stroke="transparent" points="149.5,-251.7 149.5,-273.7 402.5,-273.7 402.5,-251.7 149.5,-251.7"/>
<polygon fill="none" stroke="#000000" points="149.5,-251.7 149.5,-273.7 402.5,-273.7 402.5,-251.7 149.5,-251.7"/>
<text text-anchor="start" x="169.5" y="-258.8" font-family="Helvetica,sans-Serif" font-size="11.00" fill="#000000">sisaltava_opiskeluoikeus_oppilaitos_oid</text>
<polygon fill="#ffffff" stroke="transparent" points="149.5,-229.7 149.5,-251.7 402.5,-251.7 402.5,-229.7 149.5,-229.7"/>
<polygon fill="none" stroke="#000000" points="149.5,-229.7 149.5,-251.7 402.5,-251.7 402.5,-229.7 149.5,-229.7"/>
<text text-anchor="start" x="169.5" y="-236.8" font-family="Helvetica,sans-Serif" font-size="11.00" fill="#000000">oid</text>
<polygon fill="none" stroke="#000000" points="149.5,-207.7 149.5,-229.7 402.5,-229.7 402.5,-207.7 149.5,-207.7"/>
<image xlink:href="../../images/foreignKeys.png" width="11px" height="12px" preserveAspectRatio="xMinYMin meet" x="154.5" y="-224.7"/>
<text text-anchor="start" x="169.5" y="-214.8" font-family="Helvetica,sans-Serif" font-size="11.00" fill="#000000">sisaltava_opiskeluoikeus_oid</text>
<polygon fill="#ffffff" stroke="transparent" points="149.5,-185.7 149.5,-207.7 402.5,-207.7 402.5,-185.7 149.5,-185.7"/>
<polygon fill="none" stroke="#000000" points="149.5,-185.7 149.5,-207.7 402.5,-207.7 402.5,-185.7 149.5,-185.7"/>
<text text-anchor="start" x="169.5" y="-192.8" font-family="Helvetica,sans-Serif" font-size="11.00" fill="#000000">mitatoity</text>
<polygon fill="#ffffff" stroke="transparent" points="149.5,-163.7 149.5,-185.7 402.5,-185.7 402.5,-163.7 149.5,-163.7"/>
<polygon fill="none" stroke="#000000" points="149.5,-163.7 149.5,-185.7 402.5,-185.7 402.5,-163.7 149.5,-163.7"/>
<text text-anchor="start" x="169.5" y="-170.8" font-family="Helvetica,sans-Serif" font-size="11.00" fill="#000000">koulutusmuoto</text>
<polygon fill="#ffffff" stroke="transparent" points="149.5,-141.7 149.5,-163.7 402.5,-163.7 402.5,-141.7 149.5,-141.7"/>
<polygon fill="none" stroke="#000000" points="149.5,-141.7 149.5,-163.7 402.5,-163.7 402.5,-141.7 149.5,-141.7"/>
<text text-anchor="start" x="169.5" y="-148.8" font-family="Helvetica,sans-Serif" font-size="11.00" fill="#000000">alkamispaiva</text>
<polygon fill="#ffffff" stroke="transparent" points="149.5,-119.7 149.5,-141.7 402.5,-141.7 402.5,-119.7 149.5,-119.7"/>
<polygon fill="none" stroke="#000000" points="149.5,-119.7 149.5,-141.7 402.5,-141.7 402.5,-119.7 149.5,-119.7"/>
<text text-anchor="start" x="169.5" y="-126.8" font-family="Helvetica,sans-Serif" font-size="11.00" fill="#000000">paattymispaiva</text>
<polygon fill="#ffffff" stroke="transparent" points="149.5,-97.7 149.5,-119.7 402.5,-119.7 402.5,-97.7 149.5,-97.7"/>
<polygon fill="none" stroke="#000000" points="149.5,-97.7 149.5,-119.7 402.5,-119.7 402.5,-97.7 149.5,-97.7"/>
<text text-anchor="start" x="169.5" y="-104.8" font-family="Helvetica,sans-Serif" font-size="11.00" fill="#000000">suoritustyypit</text>
<polygon fill="#ffffff" stroke="transparent" points="149.5,-75.7 149.5,-97.7 402.5,-97.7 402.5,-75.7 149.5,-75.7"/>
<polygon fill="none" stroke="#000000" points="149.5,-75.7 149.5,-97.7 402.5,-97.7 402.5,-75.7 149.5,-75.7"/>
<text text-anchor="start" x="169.5" y="-82.8" font-family="Helvetica,sans-Serif" font-size="11.00" fill="#000000">poistettu</text>
<polygon fill="none" stroke="#000000" points="149.5,-56.7 149.5,-75.7 402.5,-75.7 402.5,-56.7 149.5,-56.7"/>
<text text-anchor="start" x="152.5" y="-62.8" font-family="Helvetica,sans-Serif" font-size="11.00" fill="#000000">...</text>
<polygon fill="#ffffff" stroke="transparent" points="149.5,-37.7 149.5,-56.7 250.5,-56.7 250.5,-37.7 149.5,-37.7"/>
<polygon fill="none" stroke="#000000" points="149.5,-37.7 149.5,-56.7 250.5,-56.7 250.5,-37.7 149.5,-37.7"/>
<text text-anchor="start" x="152.5" y="-43.8" font-family="Helvetica,sans-Serif" font-size="11.00" fill="#000000">&lt; 2</text>
<polygon fill="#ffffff" stroke="transparent" points="250.5,-37.7 250.5,-56.7 340.5,-56.7 340.5,-37.7 250.5,-37.7"/>
<polygon fill="none" stroke="#000000" points="250.5,-37.7 250.5,-56.7 340.5,-56.7 340.5,-37.7 250.5,-37.7"/>
<text text-anchor="start" x="292.8807" y="-43.8" font-family="Helvetica,sans-Serif" font-size="11.00" fill="#000000">153 rows</text>
<polygon fill="#ffffff" stroke="transparent" points="340.5,-37.7 340.5,-56.7 402.5,-56.7 402.5,-37.7 340.5,-37.7"/>
<polygon fill="none" stroke="#000000" points="340.5,-37.7 340.5,-56.7 402.5,-56.7 402.5,-37.7 340.5,-37.7"/>
<text text-anchor="start" x="383.9053" y="-43.8" font-family="Helvetica,sans-Serif" font-size="11.00" fill="#000000">4 &gt;</text>
</a>
</g>
</g>
<!-- henkilo -->
<g id="node2" class="node">
<title>henkilo</title>
<g id="a_node2"><a xlink:href="../../tables/henkilo.html" xlink:title="henkilo" target="_top">
<polygon fill="#ffffff" stroke="transparent" points="8,-301.2 8,-362.2 100,-362.2 100,-301.2 8,-301.2"/>
<polygon fill="#f5f5f5" stroke="transparent" points="8,-338.7 8,-361.7 100,-361.7 100,-338.7 8,-338.7"/>
<polygon fill="none" stroke="#000000" points="8,-338.7 8,-361.7 100,-361.7 100,-338.7 8,-338.7"/>
<text text-anchor="start" x="13" y="-347.3" font-family="Helvetica,sans-Serif" font-weight="bold" font-size="11.00" fill="#000000">henkilo</text>
<text text-anchor="start" x="65.0437" y="-346.8" font-family="Helvetica,sans-Serif" font-size="11.00" fill="#000000">[table]</text>
<polygon fill="none" stroke="#000000" points="8,-319.7 8,-338.7 100,-338.7 100,-319.7 8,-319.7"/>
<text text-anchor="start" x="11" y="-325.8" font-family="Helvetica,sans-Serif" font-size="11.00" fill="#000000">...</text>
<polygon fill="#ffffff" stroke="transparent" points="8,-300.7 8,-319.7 29,-319.7 29,-300.7 8,-300.7"/>
<polygon fill="none" stroke="#000000" points="8,-300.7 8,-319.7 29,-319.7 29,-300.7 8,-300.7"/>
<text text-anchor="start" x="10.7027" y="-306.8" font-family="Helvetica,sans-Serif" font-size="11.00" fill="#000000">&lt; 1</text>
<polygon fill="#ffffff" stroke="transparent" points="29,-300.7 29,-319.7 79,-319.7 79,-300.7 29,-300.7"/>
<polygon fill="none" stroke="#000000" points="29,-300.7 29,-319.7 79,-319.7 79,-300.7 29,-300.7"/>
<text text-anchor="start" x="31.6904" y="-306.8" font-family="Helvetica,sans-Serif" font-size="11.00" fill="#000000">184 rows</text>
<polygon fill="#ffffff" stroke="transparent" points="79,-300.7 79,-319.7 100,-319.7 100,-300.7 79,-300.7"/>
<polygon fill="none" stroke="#000000" points="79,-300.7 79,-319.7 100,-319.7 100,-300.7 79,-300.7"/>
<text text-anchor="start" x="81.7027" y="-306.8" font-family="Helvetica,sans-Serif" font-size="11.00" fill="#000000">3 &gt;</text>
</a>
</g>
</g>
<!-- opiskeluoikeus&#45;&gt;henkilo -->
<g id="edge1" class="edge">
<title>opiskeluoikeus:w&#45;&gt;henkilo:e</title>
<path fill="none" stroke="#000000" d="M139.0474,-328.7C124.9907,-328.7 118.0469,-328.7 100,-328.7"/>
<polygon fill="#000000" stroke="#000000" points="148.7,-324.7 148.7,-332.7 147.1,-332.7 147.1,-324.7 148.7,-324.7"/>
<polyline fill="none" stroke="#000000" points="149.5,-328.7 145.5,-328.7 "/>
<ellipse fill="none" stroke="#000000" cx="142.3" cy="-328.7001" rx="3.2" ry="3.2"/>
</g>
<!-- opiskeluoikeushistoria -->
<g id="node3" class="node">
<title>opiskeluoikeushistoria</title>
<g id="a_node3"><a xlink:href="../../tables/opiskeluoikeushistoria.html" xlink:title="opiskeluoikeushistoria" target="_top">
<polygon fill="#ffffff" stroke="transparent" points="451,-391.7 451,-547.7 705,-547.7 705,-391.7 451,-391.7"/>
<polygon fill="#f5f5f5" stroke="transparent" points="453,-522.7 453,-545.7 703,-545.7 703,-522.7 453,-522.7"/>
<polygon fill="none" stroke="#000000" points="453,-522.7 453,-545.7 703,-545.7 703,-522.7 453,-522.7"/>
<text text-anchor="start" x="458" y="-531.3" font-family="Helvetica,sans-Serif" font-weight="bold" font-size="11.00" fill="#000000">opiskeluoikeushistoria</text>
<text text-anchor="start" x="668.0437" y="-530.8" font-family="Helvetica,sans-Serif" font-size="11.00" fill="#000000">[table]</text>
<polygon fill="none" stroke="#000000" points="453,-500.7 453,-522.7 604,-522.7 604,-500.7 453,-500.7"/>
<image xlink:href="../../images/primaryKeys.png" width="11px" height="12px" preserveAspectRatio="xMinYMin meet" x="458" y="-517.7"/>
<text text-anchor="start" x="473" y="-507.8" font-family="Helvetica,sans-Serif" font-size="11.00" fill="#000000">opiskeluoikeus_id</text>
<polygon fill="none" stroke="#000000" points="604,-500.7 604,-522.7 703,-522.7 703,-500.7 604,-500.7"/>
<text text-anchor="start" x="607" y="-508.4" font-family="Helvetica,sans-Serif" font-size="11.00" fill="#000000">int4[10]</text>
<polygon fill="none" stroke="#000000" points="453,-478.7 453,-500.7 604,-500.7 604,-478.7 453,-478.7"/>
<text text-anchor="start" x="473" y="-485.8" font-family="Helvetica,sans-Serif" font-size="11.00" fill="#000000">aikaleima</text>
<polygon fill="none" stroke="#000000" points="604,-478.7 604,-500.7 703,-500.7 703,-478.7 604,-478.7"/>
<text text-anchor="start" x="607" y="-486.4" font-family="Helvetica,sans-Serif" font-size="11.00" fill="#000000">timestamptz[35,6]</text>
<polygon fill="none" stroke="#000000" points="453,-456.7 453,-478.7 604,-478.7 604,-456.7 453,-456.7"/>
<text text-anchor="start" x="473" y="-463.8" font-family="Helvetica,sans-Serif" font-size="11.00" fill="#000000">kayttaja_oid</text>
<polygon fill="none" stroke="#000000" points="604,-456.7 604,-478.7 703,-478.7 703,-456.7 604,-456.7"/>
<text text-anchor="start" x="607" y="-464.4" font-family="Helvetica,sans-Serif" font-size="11.00" fill="#000000">text[2147483647]</text>
<polygon fill="none" stroke="#000000" points="453,-434.7 453,-456.7 604,-456.7 604,-434.7 453,-434.7"/>
<text text-anchor="start" x="473" y="-441.8" font-family="Helvetica,sans-Serif" font-size="11.00" fill="#000000">muutos</text>
<polygon fill="none" stroke="#000000" points="604,-434.7 604,-456.7 703,-456.7 703,-434.7 604,-434.7"/>
<text text-anchor="start" x="606.7258" y="-442.4" font-family="Helvetica,sans-Serif" font-size="11.00" fill="#000000">jsonb[2147483647]</text>
<polygon fill="none" stroke="#000000" points="453,-412.7 453,-434.7 604,-434.7 604,-412.7 453,-412.7"/>
<image xlink:href="../../images/primaryKeys.png" width="11px" height="12px" preserveAspectRatio="xMinYMin meet" x="458" y="-429.7"/>
<text text-anchor="start" x="473" y="-419.8" font-family="Helvetica,sans-Serif" font-size="11.00" fill="#000000">versionumero</text>
<polygon fill="none" stroke="#000000" points="604,-412.7 604,-434.7 703,-434.7 703,-412.7 604,-412.7"/>
<text text-anchor="start" x="607" y="-420.4" font-family="Helvetica,sans-Serif" font-size="11.00" fill="#000000">int4[10]</text>
<polygon fill="#ffffff" stroke="transparent" points="453,-393.7 453,-412.7 514,-412.7 514,-393.7 453,-393.7"/>
<polygon fill="none" stroke="#000000" points="453,-393.7 453,-412.7 514,-412.7 514,-393.7 453,-393.7"/>
<text text-anchor="start" x="456" y="-399.8" font-family="Helvetica,sans-Serif" font-size="11.00" fill="#000000">&lt; 1</text>
<polygon fill="#ffffff" stroke="transparent" points="514,-393.7 514,-412.7 604,-412.7 604,-393.7 514,-393.7"/>
<polygon fill="none" stroke="#000000" points="514,-393.7 514,-412.7 604,-412.7 604,-393.7 514,-393.7"/>
<text text-anchor="start" x="556.3807" y="-399.8" font-family="Helvetica,sans-Serif" font-size="11.00" fill="#000000">152 rows</text>
<polygon fill="#ffffff" stroke="transparent" points="604,-393.7 604,-412.7 703,-412.7 703,-393.7 604,-393.7"/>
<polygon fill="none" stroke="#000000" points="604,-393.7 604,-412.7 703,-412.7 703,-393.7 604,-393.7"/>
<text text-anchor="start" x="684.4053" y="-399.8" font-family="Helvetica,sans-Serif" font-size="11.00" fill="#000000">0 &gt;</text>
<polygon fill="none" stroke="#000000" stroke-width="2" points="452,-392.7 452,-546.7 704,-546.7 704,-392.7 452,-392.7"/>
</a>
</g>
</g>
<!-- opiskeluoikeushistoria&#45;&gt;opiskeluoikeus -->
<g id="edge2" class="edge">
<title>opiskeluoikeushistoria:w&#45;&gt;opiskeluoikeus:e</title>
<path fill="none" stroke="#000000" d="M438.7458,-509.0399C392.1507,-488.1068 471.7806,-350.7 402.5,-350.7"/>
<polygon fill="#000000" stroke="#000000" points="445.1358,-510.2323 452.3395,-515.2389 449.0679,-510.9662 453,-511.7 453,-511.7 453,-511.7 449.0679,-510.9662 453.6605,-508.1611 445.1358,-510.2323 445.1358,-510.2323"/>
<ellipse fill="none" stroke="#000000" cx="441.9901" cy="-509.6453" rx="3.2" ry="3.2"/>
</g>
<!-- perustiedot_manual_sync -->
<g id="node4" class="node">
<title>perustiedot_manual_sync</title>
<g id="a_node4"><a xlink:href="../../tables/perustiedot_manual_sync.html" xlink:title="perustiedot_manual_sync" target="_top">
<polygon fill="#ffffff" stroke="transparent" points="484.5,-213.2 484.5,-274.2 671.5,-274.2 671.5,-213.2 484.5,-213.2"/>
<polygon fill="#f5f5f5" stroke="transparent" points="485,-250.7 485,-273.7 672,-273.7 672,-250.7 485,-250.7"/>
<polygon fill="none" stroke="#000000" points="485,-250.7 485,-273.7 672,-273.7 672,-250.7 485,-250.7"/>
<text text-anchor="start" x="490" y="-259.3" font-family="Helvetica,sans-Serif" font-weight="bold" font-size="11.00" fill="#000000">perustiedot_manual_sync</text>
<text text-anchor="start" x="637.5219" y="-258.8" font-family="Helvetica,sans-Serif" font-size="11.00" fill="#000000">[table]</text>
<polygon fill="none" stroke="#000000" points="485,-231.7 485,-250.7 672,-250.7 672,-231.7 485,-231.7"/>
<text text-anchor="start" x="488" y="-237.8" font-family="Helvetica,sans-Serif" font-size="11.00" fill="#000000">...</text>
<polygon fill="#ffffff" stroke="transparent" points="485,-212.7 485,-231.7 577,-231.7 577,-212.7 485,-212.7"/>
<polygon fill="none" stroke="#000000" points="485,-212.7 485,-231.7 577,-231.7 577,-212.7 485,-212.7"/>
<text text-anchor="start" x="488" y="-218.8" font-family="Helvetica,sans-Serif" font-size="11.00" fill="#000000">&lt; 1</text>
<polygon fill="#ffffff" stroke="transparent" points="577,-212.7 577,-231.7 624,-231.7 624,-212.7 577,-212.7"/>
<polygon fill="none" stroke="#000000" points="577,-212.7 577,-231.7 624,-231.7 624,-212.7 577,-212.7"/>
<text text-anchor="start" x="614.8862" y="-218.8" font-family="Helvetica,sans-Serif" font-size="11.00" fill="#000000"> &#160;</text>
<polygon fill="#ffffff" stroke="transparent" points="624,-212.7 624,-231.7 672,-231.7 672,-212.7 624,-212.7"/>
<polygon fill="none" stroke="#000000" points="624,-212.7 624,-231.7 672,-231.7 672,-212.7 624,-212.7"/>
<text text-anchor="start" x="662.8862" y="-218.8" font-family="Helvetica,sans-Serif" font-size="11.00" fill="#000000"> &#160;</text>
</a>
</g>
</g>
<!-- perustiedot_manual_sync&#45;&gt;opiskeluoikeus -->
<g id="edge3" class="edge">
<title>perustiedot_manual_sync:w&#45;&gt;opiskeluoikeus:e</title>
<path fill="none" stroke="#000000" d="M470.3098,-240.7C445.0061,-240.7 433.724,-240.7 402.5,-240.7"/>
<polygon fill="#000000" stroke="#000000" points="477,-240.7001 485,-244.3 481,-240.7 485,-240.7 485,-240.7 485,-240.7 481,-240.7 485,-237.1 477,-240.7001 477,-240.7001"/>
<ellipse fill="none" stroke="#000000" cx="473.8" cy="-240.7001" rx="3.2" ry="3.2"/>
</g>
<!-- perustiedot_sync -->
<g id="node5" class="node">
<title>perustiedot_sync</title>
<g id="a_node5"><a xlink:href="../../tables/perustiedot_sync.html" xlink:title="perustiedot_sync" target="_top">
<polygon fill="#ffffff" stroke="transparent" points="509,-309.2 509,-370.2 647,-370.2 647,-309.2 509,-309.2"/>
<polygon fill="#f5f5f5" stroke="transparent" points="509,-346.7 509,-369.7 647,-369.7 647,-346.7 509,-346.7"/>
<polygon fill="none" stroke="#000000" points="509,-346.7 509,-369.7 647,-369.7 647,-346.7 509,-346.7"/>
<text text-anchor="start" x="514" y="-355.3" font-family="Helvetica,sans-Serif" font-weight="bold" font-size="11.00" fill="#000000">perustiedot_sync</text>
<text text-anchor="start" x="612.5219" y="-354.8" font-family="Helvetica,sans-Serif" font-size="11.00" fill="#000000">[table]</text>
<polygon fill="none" stroke="#000000" points="509,-327.7 509,-346.7 647,-346.7 647,-327.7 509,-327.7"/>
<text text-anchor="start" x="512" y="-333.8" font-family="Helvetica,sans-Serif" font-size="11.00" fill="#000000">...</text>
<polygon fill="#ffffff" stroke="transparent" points="509,-308.7 509,-327.7 566,-327.7 566,-308.7 509,-308.7"/>
<polygon fill="none" stroke="#000000" points="509,-308.7 509,-327.7 566,-327.7 566,-308.7 509,-308.7"/>
<text text-anchor="start" x="512" y="-314.8" font-family="Helvetica,sans-Serif" font-size="11.00" fill="#000000">&lt; 1</text>
<polygon fill="#ffffff" stroke="transparent" points="566,-308.7 566,-327.7 616,-327.7 616,-308.7 566,-308.7"/>
<polygon fill="none" stroke="#000000" points="566,-308.7 566,-327.7 616,-327.7 616,-308.7 566,-308.7"/>
<text text-anchor="start" x="586.1105" y="-314.8" font-family="Helvetica,sans-Serif" font-size="11.00" fill="#000000">1 row</text>
<polygon fill="#ffffff" stroke="transparent" points="616,-308.7 616,-327.7 647,-327.7 647,-308.7 616,-308.7"/>
<polygon fill="none" stroke="#000000" points="616,-308.7 616,-327.7 647,-327.7 647,-308.7 616,-308.7"/>
<text text-anchor="start" x="637.8862" y="-314.8" font-family="Helvetica,sans-Serif" font-size="11.00" fill="#000000"> &#160;</text>
</a>
</g>
</g>
<!-- perustiedot_sync&#45;&gt;opiskeluoikeus -->
<g id="edge4" class="edge">
<title>perustiedot_sync:w&#45;&gt;opiskeluoikeus:e</title>
<path fill="none" stroke="#000000" d="M494.5569,-337.1658C458.4098,-339.595 445.0189,-350.7 402.5,-350.7"/>
<polygon fill="#000000" stroke="#000000" points="501.0042,-336.9579 509.1161,-340.2981 505.0021,-336.829 509,-336.7 509,-336.7 509,-336.7 505.0021,-336.829 508.8839,-333.1019 501.0042,-336.9579 501.0042,-336.9579"/>
<ellipse fill="none" stroke="#000000" cx="497.8058" cy="-337.0611" rx="3.2" ry="3.2"/>
</g>
</g>
</svg>
