<?xml version="1.0" encoding="UTF-8" standalone="no"?>
<!DOCTYPE svg PUBLIC "-//W3C//DTD SVG 1.1//EN"
 "http://www.w3.org/Graphics/SVG/1.1/DTD/svg11.dtd">
<!-- Generated by graphviz version 2.40.1 (20161225.0304)
 -->
<!-- Title: twoDegreesRelationshipsDiagram Pages: 1 -->
<svg width="831pt" height="603pt"
 viewBox="0.00 0.00 831.00 602.70" xmlns="http://www.w3.org/2000/svg" xmlns:xlink="http://www.w3.org/1999/xlink">
<g id="graph0" class="graph" transform="scale(1 1) rotate(0) translate(4 598.7)">
<title>twoDegreesRelationshipsDiagram</title>
<polygon fill="#ffffff" stroke="transparent" points="-4,4 -4,-598.7 827,-598.7 827,4 -4,4"/>
<text text-anchor="middle" x="72.4936" y="-7.3" font-family="Helvetica,sans-Serif" font-size="11.00" fill="#000000">Generated by SchemaSpy</text>
<!-- opiskeluoikeus -->
<g id="node1" class="node">
<title>opiskeluoikeus</title>
<g id="a_node1"><a xlink:href="../../tables/opiskeluoikeus.html" xlink:title="opiskeluoikeus" target="_top">
<polygon fill="#ffffff" stroke="transparent" points="165,-38.2 165,-480.2 556,-480.2 556,-38.2 165,-38.2"/>
<polygon fill="#f5f5f5" stroke="transparent" points="167.5,-455.2 167.5,-478.2 554.5,-478.2 554.5,-455.2 167.5,-455.2"/>
<polygon fill="none" stroke="#000000" points="167.5,-455.2 167.5,-478.2 554.5,-478.2 554.5,-455.2 167.5,-455.2"/>
<text text-anchor="start" x="172.5" y="-463.8" font-family="Helvetica,sans-Serif" font-weight="bold" font-size="11.00" fill="#000000">opiskeluoikeus</text>
<text text-anchor="start" x="519.5437" y="-463.3" font-family="Helvetica,sans-Serif" font-size="11.00" fill="#000000">[table]</text>
<polygon fill="none" stroke="#000000" points="167.5,-433.2 167.5,-455.2 455.5,-455.2 455.5,-433.2 167.5,-433.2"/>
<image xlink:href="../../images/primaryKeys.png" width="11px" height="12px" preserveAspectRatio="xMinYMin meet" x="172.5" y="-450.2"/>
<text text-anchor="start" x="187.5" y="-440.3" font-family="Helvetica,sans-Serif" font-size="11.00" fill="#000000">id</text>
<polygon fill="none" stroke="#000000" points="455.5,-433.2 455.5,-455.2 554.5,-455.2 554.5,-433.2 455.5,-433.2"/>
<text text-anchor="start" x="458.5" y="-440.9" font-family="Helvetica,sans-Serif" font-size="11.00" fill="#000000">serial[10]</text>
<polygon fill="none" stroke="#000000" points="167.5,-411.2 167.5,-433.2 455.5,-433.2 455.5,-411.2 167.5,-411.2"/>
<text text-anchor="start" x="187.5" y="-418.3" font-family="Helvetica,sans-Serif" font-size="11.00" fill="#000000">data</text>
<polygon fill="none" stroke="#000000" points="455.5,-411.2 455.5,-433.2 554.5,-433.2 554.5,-411.2 455.5,-411.2"/>
<text text-anchor="start" x="458.2258" y="-418.9" font-family="Helvetica,sans-Serif" font-size="11.00" fill="#000000">jsonb[2147483647]</text>
<polygon fill="#ffffff" stroke="transparent" points="167.5,-389.2 167.5,-411.2 455.5,-411.2 455.5,-389.2 167.5,-389.2"/>
<polygon fill="none" stroke="#000000" points="167.5,-389.2 167.5,-411.2 455.5,-411.2 455.5,-389.2 167.5,-389.2"/>
<image xlink:href="../../images/foreignKeys.png" width="11px" height="12px" preserveAspectRatio="xMinYMin meet" x="172.5" y="-406.2"/>
<text text-anchor="start" x="187.5" y="-396.3" font-family="Helvetica,sans-Serif" font-size="11.00" fill="#000000">oppija_oid</text>
<polygon fill="none" stroke="#000000" points="455.5,-389.2 455.5,-411.2 554.5,-411.2 554.5,-389.2 455.5,-389.2"/>
<text text-anchor="start" x="458.5" y="-396.9" font-family="Helvetica,sans-Serif" font-size="11.00" fill="#000000">text[2147483647]</text>
<polygon fill="#ffffff" stroke="transparent" points="167.5,-367.2 167.5,-389.2 455.5,-389.2 455.5,-367.2 167.5,-367.2"/>
<polygon fill="none" stroke="#000000" points="167.5,-367.2 167.5,-389.2 455.5,-389.2 455.5,-367.2 167.5,-367.2"/>
<text text-anchor="start" x="187.5" y="-374.3" font-family="Helvetica,sans-Serif" font-size="11.00" fill="#000000">aikaleima</text>
<polygon fill="none" stroke="#000000" points="455.5,-367.2 455.5,-389.2 554.5,-389.2 554.5,-367.2 455.5,-367.2"/>
<text text-anchor="start" x="458.5" y="-374.9" font-family="Helvetica,sans-Serif" font-size="11.00" fill="#000000">timestamptz[35,6]</text>
<polygon fill="none" stroke="#000000" points="167.5,-345.2 167.5,-367.2 455.5,-367.2 455.5,-345.2 167.5,-345.2"/>
<text text-anchor="start" x="187.5" y="-352.3" font-family="Helvetica,sans-Serif" font-size="11.00" fill="#000000">versionumero</text>
<polygon fill="none" stroke="#000000" points="455.5,-345.2 455.5,-367.2 554.5,-367.2 554.5,-345.2 455.5,-345.2"/>
<text text-anchor="start" x="458.5" y="-352.9" font-family="Helvetica,sans-Serif" font-size="11.00" fill="#000000">int4[10]</text>
<polygon fill="#ffffff" stroke="transparent" points="167.5,-323.2 167.5,-345.2 455.5,-345.2 455.5,-323.2 167.5,-323.2"/>
<polygon fill="none" stroke="#000000" points="167.5,-323.2 167.5,-345.2 455.5,-345.2 455.5,-323.2 167.5,-323.2"/>
<text text-anchor="start" x="187.5" y="-330.3" font-family="Helvetica,sans-Serif" font-size="11.00" fill="#000000">oppilaitos_oid</text>
<polygon fill="none" stroke="#000000" points="455.5,-323.2 455.5,-345.2 554.5,-345.2 554.5,-323.2 455.5,-323.2"/>
<text text-anchor="start" x="458.5" y="-330.9" font-family="Helvetica,sans-Serif" font-size="11.00" fill="#000000">text[2147483647]</text>
<polygon fill="none" stroke="#000000" points="167.5,-301.2 167.5,-323.2 455.5,-323.2 455.5,-301.2 167.5,-301.2"/>
<text text-anchor="start" x="187.5" y="-308.3" font-family="Helvetica,sans-Serif" font-size="11.00" fill="#000000">koulutustoimija_oid</text>
<polygon fill="none" stroke="#000000" points="455.5,-301.2 455.5,-323.2 554.5,-323.2 554.5,-301.2 455.5,-301.2"/>
<text text-anchor="start" x="458.5" y="-308.9" font-family="Helvetica,sans-Serif" font-size="11.00" fill="#000000">text[2147483647]</text>
<polygon fill="none" stroke="#000000" points="167.5,-279.2 167.5,-301.2 455.5,-301.2 455.5,-279.2 167.5,-279.2"/>
<text text-anchor="start" x="187.5" y="-286.3" font-family="Helvetica,sans-Serif" font-size="11.00" fill="#000000">luokka</text>
<polygon fill="none" stroke="#000000" points="455.5,-279.2 455.5,-301.2 554.5,-301.2 554.5,-279.2 455.5,-279.2"/>
<text text-anchor="start" x="458.5" y="-286.9" font-family="Helvetica,sans-Serif" font-size="11.00" fill="#000000">text[2147483647]</text>
<polygon fill="#ffffff" stroke="transparent" points="167.5,-257.2 167.5,-279.2 455.5,-279.2 455.5,-257.2 167.5,-257.2"/>
<polygon fill="none" stroke="#000000" points="167.5,-257.2 167.5,-279.2 455.5,-279.2 455.5,-257.2 167.5,-257.2"/>
<text text-anchor="start" x="187.5" y="-264.3" font-family="Helvetica,sans-Serif" font-size="11.00" fill="#000000">sisaltava_opiskeluoikeus_oppilaitos_oid</text>
<polygon fill="none" stroke="#000000" points="455.5,-257.2 455.5,-279.2 554.5,-279.2 554.5,-257.2 455.5,-257.2"/>
<text text-anchor="start" x="458.5" y="-264.9" font-family="Helvetica,sans-Serif" font-size="11.00" fill="#000000">text[2147483647]</text>
<polygon fill="#ffffff" stroke="transparent" points="167.5,-235.2 167.5,-257.2 455.5,-257.2 455.5,-235.2 167.5,-235.2"/>
<polygon fill="none" stroke="#000000" points="167.5,-235.2 167.5,-257.2 455.5,-257.2 455.5,-235.2 167.5,-235.2"/>
<text text-anchor="start" x="187.5" y="-242.3" font-family="Helvetica,sans-Serif" font-size="11.00" fill="#000000">oid</text>
<polygon fill="none" stroke="#000000" points="455.5,-235.2 455.5,-257.2 554.5,-257.2 554.5,-235.2 455.5,-235.2"/>
<text text-anchor="start" x="458.5" y="-242.9" font-family="Helvetica,sans-Serif" font-size="11.00" fill="#000000">text[2147483647]</text>
<polygon fill="none" stroke="#000000" points="167.5,-213.2 167.5,-235.2 455.5,-235.2 455.5,-213.2 167.5,-213.2"/>
<image xlink:href="../../images/foreignKeys.png" width="11px" height="12px" preserveAspectRatio="xMinYMin meet" x="172.5" y="-230.2"/>
<text text-anchor="start" x="187.5" y="-220.3" font-family="Helvetica,sans-Serif" font-size="11.00" fill="#000000">sisaltava_opiskeluoikeus_oid</text>
<polygon fill="none" stroke="#000000" points="455.5,-213.2 455.5,-235.2 554.5,-235.2 554.5,-213.2 455.5,-213.2"/>
<text text-anchor="start" x="458.5" y="-220.9" font-family="Helvetica,sans-Serif" font-size="11.00" fill="#000000">text[2147483647]</text>
<polygon fill="#ffffff" stroke="transparent" points="167.5,-191.2 167.5,-213.2 455.5,-213.2 455.5,-191.2 167.5,-191.2"/>
<polygon fill="none" stroke="#000000" points="167.5,-191.2 167.5,-213.2 455.5,-213.2 455.5,-191.2 167.5,-191.2"/>
<text text-anchor="start" x="187.5" y="-198.3" font-family="Helvetica,sans-Serif" font-size="11.00" fill="#000000">mitatoity</text>
<polygon fill="none" stroke="#000000" points="455.5,-191.2 455.5,-213.2 554.5,-213.2 554.5,-191.2 455.5,-191.2"/>
<text text-anchor="start" x="458.5" y="-198.9" font-family="Helvetica,sans-Serif" font-size="11.00" fill="#000000">bool[1]</text>
<polygon fill="#ffffff" stroke="transparent" points="167.5,-169.2 167.5,-191.2 455.5,-191.2 455.5,-169.2 167.5,-169.2"/>
<polygon fill="none" stroke="#000000" points="167.5,-169.2 167.5,-191.2 455.5,-191.2 455.5,-169.2 167.5,-169.2"/>
<text text-anchor="start" x="187.5" y="-176.3" font-family="Helvetica,sans-Serif" font-size="11.00" fill="#000000">koulutusmuoto</text>
<polygon fill="none" stroke="#000000" points="455.5,-169.2 455.5,-191.2 554.5,-191.2 554.5,-169.2 455.5,-169.2"/>
<text text-anchor="start" x="458.5" y="-176.9" font-family="Helvetica,sans-Serif" font-size="11.00" fill="#000000">text[2147483647]</text>
<polygon fill="#ffffff" stroke="transparent" points="167.5,-147.2 167.5,-169.2 455.5,-169.2 455.5,-147.2 167.5,-147.2"/>
<polygon fill="none" stroke="#000000" points="167.5,-147.2 167.5,-169.2 455.5,-169.2 455.5,-147.2 167.5,-147.2"/>
<text text-anchor="start" x="187.5" y="-154.3" font-family="Helvetica,sans-Serif" font-size="11.00" fill="#000000">alkamispaiva</text>
<polygon fill="none" stroke="#000000" points="455.5,-147.2 455.5,-169.2 554.5,-169.2 554.5,-147.2 455.5,-147.2"/>
<text text-anchor="start" x="458.5" y="-154.9" font-family="Helvetica,sans-Serif" font-size="11.00" fill="#000000">date[13]</text>
<polygon fill="#ffffff" stroke="transparent" points="167.5,-125.2 167.5,-147.2 455.5,-147.2 455.5,-125.2 167.5,-125.2"/>
<polygon fill="none" stroke="#000000" points="167.5,-125.2 167.5,-147.2 455.5,-147.2 455.5,-125.2 167.5,-125.2"/>
<text text-anchor="start" x="187.5" y="-132.3" font-family="Helvetica,sans-Serif" font-size="11.00" fill="#000000">paattymispaiva</text>
<polygon fill="none" stroke="#000000" points="455.5,-125.2 455.5,-147.2 554.5,-147.2 554.5,-125.2 455.5,-125.2"/>
<text text-anchor="start" x="458.5" y="-132.9" font-family="Helvetica,sans-Serif" font-size="11.00" fill="#000000">date[13]</text>
<polygon fill="none" stroke="#000000" points="167.5,-103.2 167.5,-125.2 455.5,-125.2 455.5,-103.2 167.5,-103.2"/>
<text text-anchor="start" x="187.5" y="-110.3" font-family="Helvetica,sans-Serif" font-size="11.00" fill="#000000">suoritusjako_tehty_rajapaivan_jalkeen</text>
<polygon fill="none" stroke="#000000" points="455.5,-103.2 455.5,-125.2 554.5,-125.2 554.5,-103.2 455.5,-103.2"/>
<text text-anchor="start" x="458.5" y="-110.9" font-family="Helvetica,sans-Serif" font-size="11.00" fill="#000000">bool[1]</text>
<polygon fill="#ffffff" stroke="transparent" points="167.5,-81.2 167.5,-103.2 455.5,-103.2 455.5,-81.2 167.5,-81.2"/>
<polygon fill="none" stroke="#000000" points="167.5,-81.2 167.5,-103.2 455.5,-103.2 455.5,-81.2 167.5,-81.2"/>
<text text-anchor="start" x="187.5" y="-88.3" font-family="Helvetica,sans-Serif" font-size="11.00" fill="#000000">suoritustyypit</text>
<polygon fill="none" stroke="#000000" points="455.5,-81.2 455.5,-103.2 554.5,-103.2 554.5,-81.2 455.5,-81.2"/>
<text text-anchor="start" x="458.5" y="-88.9" font-family="Helvetica,sans-Serif" font-size="11.00" fill="#000000">_text[2147483647]</text>
<polygon fill="#ffffff" stroke="transparent" points="167.5,-59.2 167.5,-81.2 455.5,-81.2 455.5,-59.2 167.5,-59.2"/>
<polygon fill="none" stroke="#000000" points="167.5,-59.2 167.5,-81.2 455.5,-81.2 455.5,-59.2 167.5,-59.2"/>
<text text-anchor="start" x="187.5" y="-66.3" font-family="Helvetica,sans-Serif" font-size="11.00" fill="#000000">poistettu</text>
<polygon fill="none" stroke="#000000" points="455.5,-59.2 455.5,-81.2 554.5,-81.2 554.5,-59.2 455.5,-59.2"/>
<text text-anchor="start" x="458.5" y="-66.9" font-family="Helvetica,sans-Serif" font-size="11.00" fill="#000000">bool[1]</text>
<polygon fill="#ffffff" stroke="transparent" points="167.5,-40.2 167.5,-59.2 296.5,-59.2 296.5,-40.2 167.5,-40.2"/>
<polygon fill="none" stroke="#000000" points="167.5,-40.2 167.5,-59.2 296.5,-59.2 296.5,-40.2 167.5,-40.2"/>
<text text-anchor="start" x="170.5" y="-46.3" font-family="Helvetica,sans-Serif" font-size="11.00" fill="#000000">&lt; 2</text>
<polygon fill="#ffffff" stroke="transparent" points="296.5,-40.2 296.5,-59.2 455.5,-59.2 455.5,-40.2 296.5,-40.2"/>
<polygon fill="none" stroke="#000000" points="296.5,-40.2 296.5,-59.2 455.5,-59.2 455.5,-40.2 296.5,-40.2"/>
<text text-anchor="start" x="407.8807" y="-46.3" font-family="Helvetica,sans-Serif" font-size="11.00" fill="#000000">188 rows</text>
<polygon fill="#ffffff" stroke="transparent" points="455.5,-40.2 455.5,-59.2 554.5,-59.2 554.5,-40.2 455.5,-40.2"/>
<polygon fill="none" stroke="#000000" points="455.5,-40.2 455.5,-59.2 554.5,-59.2 554.5,-40.2 455.5,-40.2"/>
<text text-anchor="start" x="535.9053" y="-46.3" font-family="Helvetica,sans-Serif" font-size="11.00" fill="#000000">4 &gt;</text>
<polygon fill="none" stroke="#000000" stroke-width="2" points="166,-39.2 166,-479.2 555,-479.2 555,-39.2 166,-39.2"/>
</a>
</g>
</g>
<!-- opiskeluoikeus&#45;&gt;opiskeluoikeus -->
<g id="edge2" class="edge">
<title>opiskeluoikeus:w&#45;&gt;opiskeluoikeus:e</title>
<path fill="none" stroke="#000000" d="M158.1263,-235.2952C93.5176,-320.1808 104.7773,-497.2 361,-497.2 629,-497.2 629,-325.5333 554.5,-246.2"/>
<polygon fill="#000000" stroke="#000000" points="162.3371,-230.3111 170.25,-226.5233 164.9186,-227.2555 167.5,-224.2 167.5,-224.2 167.5,-224.2 164.9186,-227.2555 164.75,-221.8767 162.3371,-230.3111 162.3371,-230.3111"/>
<ellipse fill="none" stroke="#000000" cx="160.272" cy="-232.7555" rx="3.2" ry="3.2"/>
</g>
<!-- henkilo -->
<g id="node2" class="node">
<title>henkilo</title>
<g id="a_node2"><a xlink:href="../../tables/henkilo.html" xlink:title="henkilo" target="_top">
<polygon fill="#ffffff" stroke="transparent" points="8,-402.7 8,-507.7 116,-507.7 116,-402.7 8,-402.7"/>
<polygon fill="#f5f5f5" stroke="transparent" points="8,-484.2 8,-507.2 116,-507.2 116,-484.2 8,-484.2"/>
<polygon fill="none" stroke="#000000" points="8,-484.2 8,-507.2 116,-507.2 116,-484.2 8,-484.2"/>
<text text-anchor="start" x="13" y="-492.8" font-family="Helvetica,sans-Serif" font-weight="bold" font-size="11.00" fill="#000000">henkilo</text>
<text text-anchor="start" x="81.0437" y="-492.3" font-family="Helvetica,sans-Serif" font-size="11.00" fill="#000000">[table]</text>
<polygon fill="none" stroke="#000000" points="8,-462.2 8,-484.2 116,-484.2 116,-462.2 8,-462.2"/>
<image xlink:href="../../images/primaryKeys.png" width="11px" height="12px" preserveAspectRatio="xMinYMin meet" x="13" y="-479.2"/>
<text text-anchor="start" x="28" y="-469.3" font-family="Helvetica,sans-Serif" font-size="11.00" fill="#000000">oid</text>
<polygon fill="#ffffff" stroke="transparent" points="8,-440.2 8,-462.2 116,-462.2 116,-440.2 8,-440.2"/>
<polygon fill="none" stroke="#000000" points="8,-440.2 8,-462.2 116,-462.2 116,-440.2 8,-440.2"/>
<image xlink:href="../../images/foreignKeys.png" width="11px" height="12px" preserveAspectRatio="xMinYMin meet" x="13" y="-457.2"/>
<text text-anchor="start" x="28" y="-447.3" font-family="Helvetica,sans-Serif" font-size="11.00" fill="#000000">master_oid</text>
<polygon fill="none" stroke="#000000" points="8,-421.2 8,-440.2 116,-440.2 116,-421.2 8,-421.2"/>
<text text-anchor="start" x="11" y="-427.3" font-family="Helvetica,sans-Serif" font-size="11.00" fill="#000000">...</text>
<polygon fill="#ffffff" stroke="transparent" points="8,-402.2 8,-421.2 37,-421.2 37,-402.2 8,-402.2"/>
<polygon fill="none" stroke="#000000" points="8,-402.2 8,-421.2 37,-421.2 37,-402.2 8,-402.2"/>
<text text-anchor="start" x="11" y="-408.3" font-family="Helvetica,sans-Serif" font-size="11.00" fill="#000000">&lt; 1</text>
<polygon fill="#ffffff" stroke="transparent" points="37,-402.2 37,-421.2 91,-421.2 91,-402.2 37,-402.2"/>
<polygon fill="none" stroke="#000000" points="37,-402.2 37,-421.2 91,-421.2 91,-402.2 37,-402.2"/>
<text text-anchor="start" x="43.3807" y="-408.3" font-family="Helvetica,sans-Serif" font-size="11.00" fill="#000000">206 rows</text>
<polygon fill="#ffffff" stroke="transparent" points="91,-402.2 91,-421.2 116,-421.2 116,-402.2 91,-402.2"/>
<polygon fill="none" stroke="#000000" points="91,-402.2 91,-421.2 116,-421.2 116,-402.2 91,-402.2"/>
<text text-anchor="start" x="97.4053" y="-408.3" font-family="Helvetica,sans-Serif" font-size="11.00" fill="#000000">3 &gt;</text>
</a>
</g>
</g>
<!-- opiskeluoikeus&#45;&gt;henkilo -->
<g id="edge1" class="edge">
<title>opiskeluoikeus:w&#45;&gt;henkilo:e</title>
<path fill="none" stroke="#000000" d="M157.0347,-402.4648C132.9297,-414.7864 151.518,-473.2 116,-473.2"/>
<polygon fill="#000000" stroke="#000000" points="165.872,-396.4597 167.5642,-404.2787 166.0004,-404.6172 164.3082,-396.7981 165.872,-396.4597"/>
<polyline fill="none" stroke="#000000" points="167.5,-400.2 163.5905,-401.0461 "/>
<ellipse fill="none" stroke="#000000" cx="160.4629" cy="-401.7229" rx="3.2" ry="3.2"/>
</g>
<!-- opiskeluoikeushistoria -->
<g id="node3" class="node">
<title>opiskeluoikeushistoria</title>
<g id="a_node3"><a xlink:href="../../tables/opiskeluoikeushistoria.html" xlink:title="opiskeluoikeushistoria" target="_top">
<polygon fill="#ffffff" stroke="transparent" points="614.5,-485.7 614.5,-590.7 805.5,-590.7 805.5,-485.7 614.5,-485.7"/>
<polygon fill="#f5f5f5" stroke="transparent" points="615,-567.2 615,-590.2 806,-590.2 806,-567.2 615,-567.2"/>
<polygon fill="none" stroke="#000000" points="615,-567.2 615,-590.2 806,-590.2 806,-567.2 615,-567.2"/>
<text text-anchor="start" x="620" y="-575.8" font-family="Helvetica,sans-Serif" font-weight="bold" font-size="11.00" fill="#000000">opiskeluoikeushistoria</text>
<text text-anchor="start" x="771.5219" y="-575.3" font-family="Helvetica,sans-Serif" font-size="11.00" fill="#000000">[table]</text>
<polygon fill="none" stroke="#000000" points="615,-545.2 615,-567.2 806,-567.2 806,-545.2 615,-545.2"/>
<image xlink:href="../../images/primaryKeys.png" width="11px" height="12px" preserveAspectRatio="xMinYMin meet" x="620" y="-562.2"/>
<text text-anchor="start" x="644" y="-552.3" font-family="Helvetica,sans-Serif" font-size="11.00" fill="#000000">opiskeluoikeus_id</text>
<polygon fill="none" stroke="#000000" points="615,-523.2 615,-545.2 806,-545.2 806,-523.2 615,-523.2"/>
<image xlink:href="../../images/primaryKeys.png" width="11px" height="12px" preserveAspectRatio="xMinYMin meet" x="620" y="-540.2"/>
<text text-anchor="start" x="644" y="-530.3" font-family="Helvetica,sans-Serif" font-size="11.00" fill="#000000">versionumero</text>
<polygon fill="none" stroke="#000000" points="615,-504.2 615,-523.2 806,-523.2 806,-504.2 615,-504.2"/>
<text text-anchor="start" x="618" y="-510.3" font-family="Helvetica,sans-Serif" font-size="11.00" fill="#000000">...</text>
<polygon fill="#ffffff" stroke="transparent" points="615,-485.2 615,-504.2 690,-504.2 690,-485.2 615,-485.2"/>
<polygon fill="none" stroke="#000000" points="615,-485.2 615,-504.2 690,-504.2 690,-485.2 615,-485.2"/>
<text text-anchor="start" x="618" y="-491.3" font-family="Helvetica,sans-Serif" font-size="11.00" fill="#000000">&lt; 1</text>
<polygon fill="#ffffff" stroke="transparent" points="690,-485.2 690,-504.2 767,-504.2 767,-485.2 690,-485.2"/>
<polygon fill="none" stroke="#000000" points="690,-485.2 690,-504.2 767,-504.2 767,-485.2 690,-485.2"/>
<text text-anchor="start" x="719.3807" y="-491.3" font-family="Helvetica,sans-Serif" font-size="11.00" fill="#000000">190 rows</text>
<polygon fill="#ffffff" stroke="transparent" points="767,-485.2 767,-504.2 806,-504.2 806,-485.2 767,-485.2"/>
<polygon fill="none" stroke="#000000" points="767,-485.2 767,-504.2 806,-504.2 806,-485.2 767,-485.2"/>
<text text-anchor="start" x="796.8862" y="-491.3" font-family="Helvetica,sans-Serif" font-size="11.00" fill="#000000"> &#160;</text>
</a>
</g>
</g>
<!-- opiskeluoikeushistoria&#45;&gt;opiskeluoikeus -->
<g id="edge3" class="edge">
<title>opiskeluoikeushistoria:w&#45;&gt;opiskeluoikeus:e</title>
<path fill="none" stroke="#000000" d="M600.9132,-552.9688C567.9923,-534.6053 605.33,-444.2 554.5,-444.2"/>
<polygon fill="#000000" stroke="#000000" points="607.2025,-554.4114 614.1951,-559.7089 611.1012,-555.3057 615,-556.2 615,-556.2 615,-556.2 611.1012,-555.3057 615.8049,-552.6911 607.2025,-554.4114 607.2025,-554.4114"/>
<ellipse fill="none" stroke="#000000" cx="604.0835" cy="-553.696" rx="3.2" ry="3.2"/>
</g>
<!-- perustiedot_manual_sync -->
<g id="node4" class="node">
<title>perustiedot_manual_sync</title>
<g id="a_node4"><a xlink:href="../../tables/perustiedot_manual_sync.html" xlink:title="perustiedot_manual_sync" target="_top">
<polygon fill="#ffffff" stroke="transparent" points="605,-197.7 605,-302.7 815,-302.7 815,-197.7 605,-197.7"/>
<polygon fill="#f5f5f5" stroke="transparent" points="605,-279.2 605,-302.2 815,-302.2 815,-279.2 605,-279.2"/>
<polygon fill="none" stroke="#000000" points="605,-279.2 605,-302.2 815,-302.2 815,-279.2 605,-279.2"/>
<text text-anchor="start" x="610" y="-287.8" font-family="Helvetica,sans-Serif" font-weight="bold" font-size="11.00" fill="#000000">perustiedot_manual_sync</text>
<text text-anchor="start" x="780.5219" y="-287.3" font-family="Helvetica,sans-Serif" font-size="11.00" fill="#000000">[table]</text>
<polygon fill="none" stroke="#000000" points="605,-257.2 605,-279.2 815,-279.2 815,-257.2 605,-257.2"/>
<image xlink:href="../../images/primaryKeys.png" width="11px" height="12px" preserveAspectRatio="xMinYMin meet" x="610" y="-274.2"/>
<text text-anchor="start" x="634" y="-264.3" font-family="Helvetica,sans-Serif" font-size="11.00" fill="#000000">id</text>
<polygon fill="none" stroke="#000000" points="605,-235.2 605,-257.2 815,-257.2 815,-235.2 605,-235.2"/>
<image xlink:href="../../images/foreignKeys.png" width="11px" height="12px" preserveAspectRatio="xMinYMin meet" x="610" y="-252.2"/>
<text text-anchor="start" x="634" y="-242.3" font-family="Helvetica,sans-Serif" font-size="11.00" fill="#000000">opiskeluoikeus_oid</text>
<polygon fill="none" stroke="#000000" points="605,-216.2 605,-235.2 815,-235.2 815,-216.2 605,-216.2"/>
<text text-anchor="start" x="608" y="-222.3" font-family="Helvetica,sans-Serif" font-size="11.00" fill="#000000">...</text>
<polygon fill="#ffffff" stroke="transparent" points="605,-197.2 605,-216.2 708,-216.2 708,-197.2 605,-197.2"/>
<polygon fill="none" stroke="#000000" points="605,-197.2 605,-216.2 708,-216.2 708,-197.2 605,-197.2"/>
<text text-anchor="start" x="608" y="-203.3" font-family="Helvetica,sans-Serif" font-size="11.00" fill="#000000">&lt; 1</text>
<polygon fill="#ffffff" stroke="transparent" points="708,-197.2 708,-216.2 761,-216.2 761,-197.2 708,-197.2"/>
<polygon fill="none" stroke="#000000" points="708,-197.2 708,-216.2 761,-216.2 761,-197.2 708,-197.2"/>
<text text-anchor="start" x="751.8862" y="-203.3" font-family="Helvetica,sans-Serif" font-size="11.00" fill="#000000"> &#160;</text>
<polygon fill="#ffffff" stroke="transparent" points="761,-197.2 761,-216.2 815,-216.2 815,-197.2 761,-197.2"/>
<polygon fill="none" stroke="#000000" points="761,-197.2 761,-216.2 815,-216.2 815,-197.2 761,-197.2"/>
<text text-anchor="start" x="805.8862" y="-203.3" font-family="Helvetica,sans-Serif" font-size="11.00" fill="#000000"> &#160;</text>
</a>
</g>
</g>
<!-- perustiedot_manual_sync&#45;&gt;opiskeluoikeus -->
<g id="edge4" class="edge">
<title>perustiedot_manual_sync:w&#45;&gt;opiskeluoikeus:e</title>
<path fill="none" stroke="#000000" d="M590.4203,-246.2C578.5435,-246.2 571.158,-246.2 554.5,-246.2"/>
<polygon fill="#000000" stroke="#000000" points="597,-246.2001 605,-249.8 601,-246.2 605,-246.2 605,-246.2 605,-246.2 601,-246.2 605,-242.6 597,-246.2001 597,-246.2001"/>
<ellipse fill="none" stroke="#000000" cx="593.8" cy="-246.2001" rx="3.2" ry="3.2"/>
</g>
<!-- perustiedot_sync -->
<g id="node5" class="node">
<title>perustiedot_sync</title>
<g id="a_node5"><a xlink:href="../../tables/perustiedot_sync.html" xlink:title="perustiedot_sync" target="_top">
<polygon fill="#ffffff" stroke="transparent" points="633,-359.7 633,-464.7 787,-464.7 787,-359.7 633,-359.7"/>
<polygon fill="#f5f5f5" stroke="transparent" points="633,-441.2 633,-464.2 787,-464.2 787,-441.2 633,-441.2"/>
<polygon fill="none" stroke="#000000" points="633,-441.2 633,-464.2 787,-464.2 787,-441.2 633,-441.2"/>
<text text-anchor="start" x="638" y="-449.8" font-family="Helvetica,sans-Serif" font-weight="bold" font-size="11.00" fill="#000000">perustiedot_sync</text>
<text text-anchor="start" x="752.5219" y="-449.3" font-family="Helvetica,sans-Serif" font-size="11.00" fill="#000000">[table]</text>
<polygon fill="none" stroke="#000000" points="633,-419.2 633,-441.2 787,-441.2 787,-419.2 633,-419.2"/>
<image xlink:href="../../images/primaryKeys.png" width="11px" height="12px" preserveAspectRatio="xMinYMin meet" x="638" y="-436.2"/>
<text text-anchor="start" x="660" y="-426.3" font-family="Helvetica,sans-Serif" font-size="11.00" fill="#000000">id</text>
<polygon fill="none" stroke="#000000" points="633,-397.2 633,-419.2 787,-419.2 787,-397.2 633,-397.2"/>
<image xlink:href="../../images/foreignKeys.png" width="11px" height="12px" preserveAspectRatio="xMinYMin meet" x="638" y="-414.2"/>
<text text-anchor="start" x="660" y="-404.3" font-family="Helvetica,sans-Serif" font-size="11.00" fill="#000000">opiskeluoikeus_id</text>
<polygon fill="none" stroke="#000000" points="633,-378.2 633,-397.2 787,-397.2 787,-378.2 633,-378.2"/>
<text text-anchor="start" x="636" y="-384.3" font-family="Helvetica,sans-Serif" font-size="11.00" fill="#000000">...</text>
<polygon fill="#ffffff" stroke="transparent" points="633,-359.2 633,-378.2 695,-378.2 695,-359.2 633,-359.2"/>
<polygon fill="none" stroke="#000000" points="633,-359.2 633,-378.2 695,-378.2 695,-359.2 633,-359.2"/>
<text text-anchor="start" x="636" y="-365.3" font-family="Helvetica,sans-Serif" font-size="11.00" fill="#000000">&lt; 1</text>
<polygon fill="#ffffff" stroke="transparent" points="695,-359.2 695,-378.2 754,-378.2 754,-359.2 695,-359.2"/>
<polygon fill="none" stroke="#000000" points="695,-359.2 695,-378.2 754,-378.2 754,-359.2 695,-359.2"/>
<text text-anchor="start" x="718.6105" y="-365.3" font-family="Helvetica,sans-Serif" font-size="11.00" fill="#000000">0 rows</text>
<polygon fill="#ffffff" stroke="transparent" points="754,-359.2 754,-378.2 787,-378.2 787,-359.2 754,-359.2"/>
<polygon fill="none" stroke="#000000" points="754,-359.2 754,-378.2 787,-378.2 787,-359.2 754,-359.2"/>
<text text-anchor="start" x="777.8862" y="-365.3" font-family="Helvetica,sans-Serif" font-size="11.00" fill="#000000"> &#160;</text>
</a>
</g>
</g>
<!-- perustiedot_sync&#45;&gt;opiskeluoikeus -->
<g id="edge5" class="edge">
<title>perustiedot_sync:w&#45;&gt;opiskeluoikeus:e</title>
<path fill="none" stroke="#000000" d="M618.4329,-410.2387C593.3503,-417.8542 587.3352,-444.2 554.5,-444.2"/>
<polygon fill="#000000" stroke="#000000" points="625.0772,-409.3088 633.499,-411.7653 629.0386,-408.7544 633,-408.2 633,-408.2 633,-408.2 629.0386,-408.7544 632.501,-404.6347 625.0772,-409.3088 625.0772,-409.3088"/>
<ellipse fill="none" stroke="#000000" cx="621.9081" cy="-409.7524" rx="3.2" ry="3.2"/>
</g>
<!-- ytr_opiskeluoikeus -->
<g id="node6" class="node">
<title>ytr_opiskeluoikeus</title>
<g id="a_node6"><a xlink:href="../../tables/ytr_opiskeluoikeus.html" xlink:title="ytr_opiskeluoikeus" target="_top">
<polygon fill="#ffffff" stroke="transparent" points="278,-519.7 278,-580.7 443,-580.7 443,-519.7 278,-519.7"/>
<polygon fill="#f5f5f5" stroke="transparent" points="278.5,-557.2 278.5,-580.2 443.5,-580.2 443.5,-557.2 278.5,-557.2"/>
<polygon fill="none" stroke="#000000" points="278.5,-557.2 278.5,-580.2 443.5,-580.2 443.5,-557.2 278.5,-557.2"/>
<text text-anchor="start" x="283.5" y="-565.8" font-family="Helvetica,sans-Serif" font-weight="bold" font-size="11.00" fill="#000000">ytr_opiskeluoikeus</text>
<text text-anchor="start" x="409.0219" y="-565.3" font-family="Helvetica,sans-Serif" font-size="11.00" fill="#000000">[table]</text>
<polygon fill="none" stroke="#000000" points="278.5,-538.2 278.5,-557.2 443.5,-557.2 443.5,-538.2 278.5,-538.2"/>
<text text-anchor="start" x="281.5" y="-544.3" font-family="Helvetica,sans-Serif" font-size="11.00" fill="#000000">...</text>
<polygon fill="#ffffff" stroke="transparent" points="278.5,-519.2 278.5,-538.2 341.5,-538.2 341.5,-519.2 278.5,-519.2"/>
<polygon fill="none" stroke="#000000" points="278.5,-519.2 278.5,-538.2 341.5,-538.2 341.5,-519.2 278.5,-519.2"/>
<text text-anchor="start" x="281.5" y="-525.3" font-family="Helvetica,sans-Serif" font-size="11.00" fill="#000000">&lt; 2</text>
<polygon fill="#ffffff" stroke="transparent" points="341.5,-519.2 341.5,-538.2 400.5,-538.2 400.5,-519.2 341.5,-519.2"/>
<polygon fill="none" stroke="#000000" points="341.5,-519.2 341.5,-538.2 400.5,-538.2 400.5,-519.2 341.5,-519.2"/>
<text text-anchor="start" x="365.1105" y="-525.3" font-family="Helvetica,sans-Serif" font-size="11.00" fill="#000000">0 rows</text>
<polygon fill="#ffffff" stroke="transparent" points="400.5,-519.2 400.5,-538.2 443.5,-538.2 443.5,-519.2 400.5,-519.2"/>
<polygon fill="none" stroke="#000000" points="400.5,-519.2 400.5,-538.2 443.5,-538.2 443.5,-519.2 400.5,-519.2"/>
<text text-anchor="start" x="424.9053" y="-525.3" font-family="Helvetica,sans-Serif" font-size="11.00" fill="#000000">2 &gt;</text>
</a>
</g>
</g>
<!-- ytr_opiskeluoikeus&#45;&gt;henkilo -->
<g id="edge6" class="edge">
<title>ytr_opiskeluoikeus:w&#45;&gt;henkilo:e</title>
<path fill="none" stroke="#000000" d="M268.0506,-547.0699C219.7705,-545.8014 203.1492,-535.1254 157,-509.2 135.858,-497.323 140.2497,-473.2 116,-473.2"/>
<polygon fill="#000000" stroke="#000000" points="277.7499,-543.1903 277.6502,-551.1897 276.0503,-551.1698 276.15,-543.1704 277.7499,-543.1903"/>
<polyline fill="none" stroke="#000000" points="278.5,-547.2 274.5003,-547.1502 "/>
<ellipse fill="none" stroke="#000000" cx="271.3006" cy="-547.1103" rx="3.2" ry="3.2"/>
</g>
</g>
</svg>
