<?xml version="1.0" encoding="UTF-8" standalone="no"?>
<!DOCTYPE svg PUBLIC "-//W3C//DTD SVG 1.1//EN"
 "http://www.w3.org/Graphics/SVG/1.1/DTD/svg11.dtd">
<!-- Generated by graphviz version 2.40.1 (20161225.0304)
 -->
<!-- Title: oneDegreeRelationshipsDiagram Pages: 1 -->
<svg width="352pt" height="206pt"
 viewBox="0.00 0.00 352.00 206.20" xmlns="http://www.w3.org/2000/svg" xmlns:xlink="http://www.w3.org/1999/xlink">
<g id="graph0" class="graph" transform="scale(1 1) rotate(0) translate(4 202.2)">
<title>oneDegreeRelationshipsDiagram</title>
<polygon fill="#ffffff" stroke="transparent" points="-4,4 -4,-202.2 348,-202.2 348,4 -4,4"/>
<text text-anchor="middle" x="72.4936" y="-7.3" font-family="Helvetica,sans-Serif" font-size="11.00" fill="#000000">Generated by SchemaSpy</text>
<!-- opiskeluoikeushistoria_fixture -->
<g id="node1" class="node">
<title>opiskeluoikeushistoria_fixture</title>
<g id="a_node1"><a xlink:href="../../tables/opiskeluoikeushistoria_fixture.html" xlink:title="opiskeluoikeushistoria_fixture" target="_top">
<polygon fill="#ffffff" stroke="transparent" points="8,-38.2 8,-194.2 336,-194.2 336,-38.2 8,-38.2"/>
<polygon fill="#f5f5f5" stroke="transparent" points="10,-169.2 10,-192.2 334,-192.2 334,-169.2 10,-169.2"/>
<polygon fill="none" stroke="#000000" points="10,-169.2 10,-192.2 334,-192.2 334,-169.2 10,-169.2"/>
<text text-anchor="start" x="15" y="-177.8" font-family="Helvetica,sans-Serif" font-weight="bold" font-size="11.00" fill="#000000">opiskeluoikeushistoria_fixture</text>
<text text-anchor="start" x="299.0437" y="-177.3" font-family="Helvetica,sans-Serif" font-size="11.00" fill="#000000">[table]</text>
<polygon fill="none" stroke="#000000" points="10,-147.2 10,-169.2 235,-169.2 235,-147.2 10,-147.2"/>
<text text-anchor="start" x="30" y="-154.3" font-family="Helvetica,sans-Serif" font-size="11.00" fill="#000000">opiskeluoikeus_id</text>
<polygon fill="none" stroke="#000000" points="235,-147.2 235,-169.2 334,-169.2 334,-147.2 235,-147.2"/>
<text text-anchor="start" x="238" y="-154.9" font-family="Helvetica,sans-Serif" font-size="11.00" fill="#000000">int4[10]</text>
<polygon fill="none" stroke="#000000" points="10,-125.2 10,-147.2 235,-147.2 235,-125.2 10,-125.2"/>
<text text-anchor="start" x="30" y="-132.3" font-family="Helvetica,sans-Serif" font-size="11.00" fill="#000000">aikaleima</text>
<polygon fill="none" stroke="#000000" points="235,-125.2 235,-147.2 334,-147.2 334,-125.2 235,-125.2"/>
<text text-anchor="start" x="238" y="-132.9" font-family="Helvetica,sans-Serif" font-size="11.00" fill="#000000">timestamptz[35,6]</text>
<polygon fill="none" stroke="#000000" points="10,-103.2 10,-125.2 235,-125.2 235,-103.2 10,-103.2"/>
<text text-anchor="start" x="30" y="-110.3" font-family="Helvetica,sans-Serif" font-size="11.00" fill="#000000">kayttaja_oid</text>
<polygon fill="none" stroke="#000000" points="235,-103.2 235,-125.2 334,-125.2 334,-103.2 235,-103.2"/>
<text text-anchor="start" x="238" y="-110.9" font-family="Helvetica,sans-Serif" font-size="11.00" fill="#000000">text[2147483647]</text>
<polygon fill="none" stroke="#000000" points="10,-81.2 10,-103.2 235,-103.2 235,-81.2 10,-81.2"/>
<text text-anchor="start" x="30" y="-88.3" font-family="Helvetica,sans-Serif" font-size="11.00" fill="#000000">muutos</text>
<polygon fill="none" stroke="#000000" points="235,-81.2 235,-103.2 334,-103.2 334,-81.2 235,-81.2"/>
<text text-anchor="start" x="237.7258" y="-88.9" font-family="Helvetica,sans-Serif" font-size="11.00" fill="#000000">jsonb[2147483647]</text>
<polygon fill="none" stroke="#000000" points="10,-59.2 10,-81.2 235,-81.2 235,-59.2 10,-59.2"/>
<text text-anchor="start" x="30" y="-66.3" font-family="Helvetica,sans-Serif" font-size="11.00" fill="#000000">versionumero</text>
<polygon fill="none" stroke="#000000" points="235,-59.2 235,-81.2 334,-81.2 334,-59.2 235,-59.2"/>
<text text-anchor="start" x="238" y="-66.9" font-family="Helvetica,sans-Serif" font-size="11.00" fill="#000000">int4[10]</text>
<polygon fill="#ffffff" stroke="transparent" points="10,-40.2 10,-59.2 108,-59.2 108,-40.2 10,-40.2"/>
<polygon fill="none" stroke="#000000" points="10,-40.2 10,-59.2 108,-59.2 108,-40.2 10,-40.2"/>
<text text-anchor="start" x="13" y="-46.3" font-family="Helvetica,sans-Serif" font-size="11.00" fill="#000000">&lt; 0</text>
<polygon fill="#ffffff" stroke="transparent" points="108,-40.2 108,-59.2 235,-59.2 235,-40.2 108,-40.2"/>
<polygon fill="none" stroke="#000000" points="108,-40.2 108,-59.2 235,-59.2 235,-40.2 108,-40.2"/>
<text text-anchor="start" x="187.3807" y="-46.3" font-family="Helvetica,sans-Serif" font-size="11.00" fill="#000000">191 rows</text>
<polygon fill="#ffffff" stroke="transparent" points="235,-40.2 235,-59.2 334,-59.2 334,-40.2 235,-40.2"/>
<polygon fill="none" stroke="#000000" points="235,-40.2 235,-59.2 334,-59.2 334,-40.2 235,-40.2"/>
<text text-anchor="start" x="315.4053" y="-46.3" font-family="Helvetica,sans-Serif" font-size="11.00" fill="#000000">0 &gt;</text>
<polygon fill="none" stroke="#000000" stroke-width="2" points="9,-39.2 9,-193.2 335,-193.2 335,-39.2 9,-39.2"/>
</a>
</g>
</g>
</g>
</svg>
