<?xml version="1.0" encoding="UTF-8" standalone="no"?>
<!DOCTYPE svg PUBLIC "-//W3C//DTD SVG 1.1//EN"
 "http://www.w3.org/Graphics/SVG/1.1/DTD/svg11.dtd">
<!-- Generated by graphviz version 2.40.1 (20161225.0304)
 -->
<!-- Title: twoDegreesRelationshipsDiagram Pages: 1 -->
<svg width="710pt" height="560pt"
 viewBox="0.00 0.00 710.00 559.70" xmlns="http://www.w3.org/2000/svg" xmlns:xlink="http://www.w3.org/1999/xlink">
<g id="graph0" class="graph" transform="scale(1 1) rotate(0) translate(4 555.7)">
<title>twoDegreesRelationshipsDiagram</title>
<polygon fill="#ffffff" stroke="transparent" points="-4,4 -4,-555.7 706,-555.7 706,4 -4,4"/>
<text text-anchor="middle" x="72.4936" y="-7.3" font-family="Helvetica,sans-Serif" font-size="11.00" fill="#000000">Generated by SchemaSpy</text>
<!-- opiskeluoikeus -->
<g id="node1" class="node">
<title>opiskeluoikeus</title>
<g id="a_node1"><a xlink:href="../../tables/opiskeluoikeus.html" xlink:title="opiskeluoikeus" target="_top">
<polygon fill="#ffffff" stroke="transparent" points="138,-38.2 138,-385.2 391,-385.2 391,-38.2 138,-38.2"/>
<polygon fill="#f5f5f5" stroke="transparent" points="138.5,-361.7 138.5,-384.7 391.5,-384.7 391.5,-361.7 138.5,-361.7"/>
<polygon fill="none" stroke="#000000" points="138.5,-361.7 138.5,-384.7 391.5,-384.7 391.5,-361.7 138.5,-361.7"/>
<text text-anchor="start" x="143.5" y="-370.3" font-family="Helvetica,sans-Serif" font-weight="bold" font-size="11.00" fill="#000000">opiskeluoikeus</text>
<text text-anchor="start" x="356.5437" y="-369.8" font-family="Helvetica,sans-Serif" font-size="11.00" fill="#000000">[table]</text>
<polygon fill="none" stroke="#000000" points="138.5,-339.7 138.5,-361.7 391.5,-361.7 391.5,-339.7 138.5,-339.7"/>
<image xlink:href="../../images/primaryKeys.png" width="11px" height="12px" preserveAspectRatio="xMinYMin meet" x="143.5" y="-356.7"/>
<text text-anchor="start" x="158.5" y="-346.8" font-family="Helvetica,sans-Serif" font-size="11.00" fill="#000000">id</text>
<polygon fill="#ffffff" stroke="transparent" points="138.5,-317.7 138.5,-339.7 391.5,-339.7 391.5,-317.7 138.5,-317.7"/>
<polygon fill="none" stroke="#000000" points="138.5,-317.7 138.5,-339.7 391.5,-339.7 391.5,-317.7 138.5,-317.7"/>
<image xlink:href="../../images/foreignKeys.png" width="11px" height="12px" preserveAspectRatio="xMinYMin meet" x="143.5" y="-334.7"/>
<text text-anchor="start" x="158.5" y="-324.8" font-family="Helvetica,sans-Serif" font-size="11.00" fill="#000000">oppija_oid</text>
<polygon fill="#ffffff" stroke="transparent" points="138.5,-295.7 138.5,-317.7 391.5,-317.7 391.5,-295.7 138.5,-295.7"/>
<polygon fill="none" stroke="#000000" points="138.5,-295.7 138.5,-317.7 391.5,-317.7 391.5,-295.7 138.5,-295.7"/>
<text text-anchor="start" x="158.5" y="-302.8" font-family="Helvetica,sans-Serif" font-size="11.00" fill="#000000">aikaleima</text>
<polygon fill="#ffffff" stroke="transparent" points="138.5,-273.7 138.5,-295.7 391.5,-295.7 391.5,-273.7 138.5,-273.7"/>
<polygon fill="none" stroke="#000000" points="138.5,-273.7 138.5,-295.7 391.5,-295.7 391.5,-273.7 138.5,-273.7"/>
<text text-anchor="start" x="158.5" y="-280.8" font-family="Helvetica,sans-Serif" font-size="11.00" fill="#000000">oppilaitos_oid</text>
<polygon fill="#ffffff" stroke="transparent" points="138.5,-251.7 138.5,-273.7 391.5,-273.7 391.5,-251.7 138.5,-251.7"/>
<polygon fill="none" stroke="#000000" points="138.5,-251.7 138.5,-273.7 391.5,-273.7 391.5,-251.7 138.5,-251.7"/>
<text text-anchor="start" x="158.5" y="-258.8" font-family="Helvetica,sans-Serif" font-size="11.00" fill="#000000">sisaltava_opiskeluoikeus_oppilaitos_oid</text>
<polygon fill="#ffffff" stroke="transparent" points="138.5,-229.7 138.5,-251.7 391.5,-251.7 391.5,-229.7 138.5,-229.7"/>
<polygon fill="none" stroke="#000000" points="138.5,-229.7 138.5,-251.7 391.5,-251.7 391.5,-229.7 138.5,-229.7"/>
<text text-anchor="start" x="158.5" y="-236.8" font-family="Helvetica,sans-Serif" font-size="11.00" fill="#000000">oid</text>
<polygon fill="none" stroke="#000000" points="138.5,-207.7 138.5,-229.7 391.5,-229.7 391.5,-207.7 138.5,-207.7"/>
<image xlink:href="../../images/foreignKeys.png" width="11px" height="12px" preserveAspectRatio="xMinYMin meet" x="143.5" y="-224.7"/>
<text text-anchor="start" x="158.5" y="-214.8" font-family="Helvetica,sans-Serif" font-size="11.00" fill="#000000">sisaltava_opiskeluoikeus_oid</text>
<polygon fill="#ffffff" stroke="transparent" points="138.5,-185.7 138.5,-207.7 391.5,-207.7 391.5,-185.7 138.5,-185.7"/>
<polygon fill="none" stroke="#000000" points="138.5,-185.7 138.5,-207.7 391.5,-207.7 391.5,-185.7 138.5,-185.7"/>
<text text-anchor="start" x="158.5" y="-192.8" font-family="Helvetica,sans-Serif" font-size="11.00" fill="#000000">mitatoity</text>
<polygon fill="#ffffff" stroke="transparent" points="138.5,-163.7 138.5,-185.7 391.5,-185.7 391.5,-163.7 138.5,-163.7"/>
<polygon fill="none" stroke="#000000" points="138.5,-163.7 138.5,-185.7 391.5,-185.7 391.5,-163.7 138.5,-163.7"/>
<text text-anchor="start" x="158.5" y="-170.8" font-family="Helvetica,sans-Serif" font-size="11.00" fill="#000000">koulutusmuoto</text>
<polygon fill="#ffffff" stroke="transparent" points="138.5,-141.7 138.5,-163.7 391.5,-163.7 391.5,-141.7 138.5,-141.7"/>
<polygon fill="none" stroke="#000000" points="138.5,-141.7 138.5,-163.7 391.5,-163.7 391.5,-141.7 138.5,-141.7"/>
<text text-anchor="start" x="158.5" y="-148.8" font-family="Helvetica,sans-Serif" font-size="11.00" fill="#000000">alkamispaiva</text>
<polygon fill="#ffffff" stroke="transparent" points="138.5,-119.7 138.5,-141.7 391.5,-141.7 391.5,-119.7 138.5,-119.7"/>
<polygon fill="none" stroke="#000000" points="138.5,-119.7 138.5,-141.7 391.5,-141.7 391.5,-119.7 138.5,-119.7"/>
<text text-anchor="start" x="158.5" y="-126.8" font-family="Helvetica,sans-Serif" font-size="11.00" fill="#000000">paattymispaiva</text>
<polygon fill="#ffffff" stroke="transparent" points="138.5,-97.7 138.5,-119.7 391.5,-119.7 391.5,-97.7 138.5,-97.7"/>
<polygon fill="none" stroke="#000000" points="138.5,-97.7 138.5,-119.7 391.5,-119.7 391.5,-97.7 138.5,-97.7"/>
<text text-anchor="start" x="158.5" y="-104.8" font-family="Helvetica,sans-Serif" font-size="11.00" fill="#000000">suoritustyypit</text>
<polygon fill="#ffffff" stroke="transparent" points="138.5,-75.7 138.5,-97.7 391.5,-97.7 391.5,-75.7 138.5,-75.7"/>
<polygon fill="none" stroke="#000000" points="138.5,-75.7 138.5,-97.7 391.5,-97.7 391.5,-75.7 138.5,-75.7"/>
<text text-anchor="start" x="158.5" y="-82.8" font-family="Helvetica,sans-Serif" font-size="11.00" fill="#000000">poistettu</text>
<polygon fill="none" stroke="#000000" points="138.5,-56.7 138.5,-75.7 391.5,-75.7 391.5,-56.7 138.5,-56.7"/>
<text text-anchor="start" x="141.5" y="-62.8" font-family="Helvetica,sans-Serif" font-size="11.00" fill="#000000">...</text>
<polygon fill="#ffffff" stroke="transparent" points="138.5,-37.7 138.5,-56.7 245.5,-56.7 245.5,-37.7 138.5,-37.7"/>
<polygon fill="none" stroke="#000000" points="138.5,-37.7 138.5,-56.7 245.5,-56.7 245.5,-37.7 138.5,-37.7"/>
<text text-anchor="start" x="141.5" y="-43.8" font-family="Helvetica,sans-Serif" font-size="11.00" fill="#000000">&lt; 2</text>
<polygon fill="#ffffff" stroke="transparent" points="245.5,-37.7 245.5,-56.7 326.5,-56.7 326.5,-37.7 245.5,-37.7"/>
<polygon fill="none" stroke="#000000" points="245.5,-37.7 245.5,-56.7 326.5,-56.7 326.5,-37.7 245.5,-37.7"/>
<text text-anchor="start" x="291.1105" y="-43.8" font-family="Helvetica,sans-Serif" font-size="11.00" fill="#000000">0 rows</text>
<polygon fill="#ffffff" stroke="transparent" points="326.5,-37.7 326.5,-56.7 391.5,-56.7 391.5,-37.7 326.5,-37.7"/>
<polygon fill="none" stroke="#000000" points="326.5,-37.7 326.5,-56.7 391.5,-56.7 391.5,-37.7 326.5,-37.7"/>
<text text-anchor="start" x="372.9053" y="-43.8" font-family="Helvetica,sans-Serif" font-size="11.00" fill="#000000">4 &gt;</text>
</a>
</g>
</g>
<!-- henkilo -->
<g id="node2" class="node">
<title>henkilo</title>
<g id="a_node2"><a xlink:href="../../tables/henkilo.html" xlink:title="henkilo" target="_top">
<polygon fill="#ffffff" stroke="transparent" points="8,-301.2 8,-362.2 89,-362.2 89,-301.2 8,-301.2"/>
<polygon fill="#f5f5f5" stroke="transparent" points="8.5,-338.7 8.5,-361.7 89.5,-361.7 89.5,-338.7 8.5,-338.7"/>
<polygon fill="none" stroke="#000000" points="8.5,-338.7 8.5,-361.7 89.5,-361.7 89.5,-338.7 8.5,-338.7"/>
<text text-anchor="start" x="13.5" y="-347.3" font-family="Helvetica,sans-Serif" font-weight="bold" font-size="11.00" fill="#000000">henkilo</text>
<text text-anchor="start" x="55.0219" y="-346.8" font-family="Helvetica,sans-Serif" font-size="11.00" fill="#000000">[table]</text>
<polygon fill="none" stroke="#000000" points="8.5,-319.7 8.5,-338.7 89.5,-338.7 89.5,-319.7 8.5,-319.7"/>
<text text-anchor="start" x="11.5" y="-325.8" font-family="Helvetica,sans-Serif" font-size="11.00" fill="#000000">...</text>
<polygon fill="#ffffff" stroke="transparent" points="8.5,-300.7 8.5,-319.7 29.5,-319.7 29.5,-300.7 8.5,-300.7"/>
<polygon fill="none" stroke="#000000" points="8.5,-300.7 8.5,-319.7 29.5,-319.7 29.5,-300.7 8.5,-300.7"/>
<text text-anchor="start" x="11.2027" y="-306.8" font-family="Helvetica,sans-Serif" font-size="11.00" fill="#000000">&lt; 1</text>
<polygon fill="#ffffff" stroke="transparent" points="29.5,-300.7 29.5,-319.7 67.5,-319.7 67.5,-300.7 29.5,-300.7"/>
<polygon fill="none" stroke="#000000" points="29.5,-300.7 29.5,-319.7 67.5,-319.7 67.5,-300.7 29.5,-300.7"/>
<text text-anchor="start" x="32.3053" y="-306.8" font-family="Helvetica,sans-Serif" font-size="11.00" fill="#000000">0 rows</text>
<polygon fill="#ffffff" stroke="transparent" points="67.5,-300.7 67.5,-319.7 89.5,-319.7 89.5,-300.7 67.5,-300.7"/>
<polygon fill="none" stroke="#000000" points="67.5,-300.7 67.5,-319.7 89.5,-319.7 89.5,-300.7 67.5,-300.7"/>
<text text-anchor="start" x="70.9053" y="-306.8" font-family="Helvetica,sans-Serif" font-size="11.00" fill="#000000">3 &gt;</text>
</a>
</g>
</g>
<!-- opiskeluoikeus&#45;&gt;henkilo -->
<g id="edge1" class="edge">
<title>opiskeluoikeus:w&#45;&gt;henkilo:e</title>
<path fill="none" stroke="#000000" d="M127.7573,-328.7C114.1063,-328.7 107.1944,-328.7 89.5,-328.7"/>
<polygon fill="#000000" stroke="#000000" points="137.7,-324.7 137.7,-332.7 136.1,-332.7 136.1,-324.7 137.7,-324.7"/>
<polyline fill="none" stroke="#000000" points="138.5,-328.7 134.5,-328.7 "/>
<ellipse fill="none" stroke="#000000" cx="131.3" cy="-328.7001" rx="3.2" ry="3.2"/>
</g>
<!-- opiskeluoikeushistoria -->
<g id="node3" class="node">
<title>opiskeluoikeushistoria</title>
<g id="a_node3"><a xlink:href="../../tables/opiskeluoikeushistoria.html" xlink:title="opiskeluoikeushistoria" target="_top">
<polygon fill="#ffffff" stroke="transparent" points="440,-391.7 440,-547.7 694,-547.7 694,-391.7 440,-391.7"/>
<polygon fill="#f5f5f5" stroke="transparent" points="442,-522.7 442,-545.7 692,-545.7 692,-522.7 442,-522.7"/>
<polygon fill="none" stroke="#000000" points="442,-522.7 442,-545.7 692,-545.7 692,-522.7 442,-522.7"/>
<text text-anchor="start" x="447" y="-531.3" font-family="Helvetica,sans-Serif" font-weight="bold" font-size="11.00" fill="#000000">opiskeluoikeushistoria</text>
<text text-anchor="start" x="657.0437" y="-530.8" font-family="Helvetica,sans-Serif" font-size="11.00" fill="#000000">[table]</text>
<polygon fill="none" stroke="#000000" points="442,-500.7 442,-522.7 593,-522.7 593,-500.7 442,-500.7"/>
<image xlink:href="../../images/primaryKeys.png" width="11px" height="12px" preserveAspectRatio="xMinYMin meet" x="447" y="-517.7"/>
<text text-anchor="start" x="462" y="-507.8" font-family="Helvetica,sans-Serif" font-size="11.00" fill="#000000">opiskeluoikeus_id</text>
<polygon fill="none" stroke="#000000" points="593,-500.7 593,-522.7 692,-522.7 692,-500.7 593,-500.7"/>
<text text-anchor="start" x="596" y="-508.4" font-family="Helvetica,sans-Serif" font-size="11.00" fill="#000000">int4[10]</text>
<polygon fill="none" stroke="#000000" points="442,-478.7 442,-500.7 593,-500.7 593,-478.7 442,-478.7"/>
<text text-anchor="start" x="462" y="-485.8" font-family="Helvetica,sans-Serif" font-size="11.00" fill="#000000">aikaleima</text>
<polygon fill="none" stroke="#000000" points="593,-478.7 593,-500.7 692,-500.7 692,-478.7 593,-478.7"/>
<text text-anchor="start" x="596" y="-486.4" font-family="Helvetica,sans-Serif" font-size="11.00" fill="#000000">timestamptz[35,6]</text>
<polygon fill="none" stroke="#000000" points="442,-456.7 442,-478.7 593,-478.7 593,-456.7 442,-456.7"/>
<text text-anchor="start" x="462" y="-463.8" font-family="Helvetica,sans-Serif" font-size="11.00" fill="#000000">kayttaja_oid</text>
<polygon fill="none" stroke="#000000" points="593,-456.7 593,-478.7 692,-478.7 692,-456.7 593,-456.7"/>
<text text-anchor="start" x="596" y="-464.4" font-family="Helvetica,sans-Serif" font-size="11.00" fill="#000000">text[2147483647]</text>
<polygon fill="none" stroke="#000000" points="442,-434.7 442,-456.7 593,-456.7 593,-434.7 442,-434.7"/>
<text text-anchor="start" x="462" y="-441.8" font-family="Helvetica,sans-Serif" font-size="11.00" fill="#000000">muutos</text>
<polygon fill="none" stroke="#000000" points="593,-434.7 593,-456.7 692,-456.7 692,-434.7 593,-434.7"/>
<text text-anchor="start" x="595.7258" y="-442.4" font-family="Helvetica,sans-Serif" font-size="11.00" fill="#000000">jsonb[2147483647]</text>
<polygon fill="none" stroke="#000000" points="442,-412.7 442,-434.7 593,-434.7 593,-412.7 442,-412.7"/>
<image xlink:href="../../images/primaryKeys.png" width="11px" height="12px" preserveAspectRatio="xMinYMin meet" x="447" y="-429.7"/>
<text text-anchor="start" x="462" y="-419.8" font-family="Helvetica,sans-Serif" font-size="11.00" fill="#000000">versionumero</text>
<polygon fill="none" stroke="#000000" points="593,-412.7 593,-434.7 692,-434.7 692,-412.7 593,-412.7"/>
<text text-anchor="start" x="596" y="-420.4" font-family="Helvetica,sans-Serif" font-size="11.00" fill="#000000">int4[10]</text>
<polygon fill="#ffffff" stroke="transparent" points="442,-393.7 442,-412.7 509,-412.7 509,-393.7 442,-393.7"/>
<polygon fill="none" stroke="#000000" points="442,-393.7 442,-412.7 509,-412.7 509,-393.7 442,-393.7"/>
<text text-anchor="start" x="445" y="-399.8" font-family="Helvetica,sans-Serif" font-size="11.00" fill="#000000">&lt; 1</text>
<polygon fill="#ffffff" stroke="transparent" points="509,-393.7 509,-412.7 593,-412.7 593,-393.7 509,-393.7"/>
<polygon fill="none" stroke="#000000" points="509,-393.7 509,-412.7 593,-412.7 593,-393.7 509,-393.7"/>
<text text-anchor="start" x="557.6105" y="-399.8" font-family="Helvetica,sans-Serif" font-size="11.00" fill="#000000">0 rows</text>
<polygon fill="#ffffff" stroke="transparent" points="593,-393.7 593,-412.7 692,-412.7 692,-393.7 593,-393.7"/>
<polygon fill="none" stroke="#000000" points="593,-393.7 593,-412.7 692,-412.7 692,-393.7 593,-393.7"/>
<text text-anchor="start" x="673.4053" y="-399.8" font-family="Helvetica,sans-Serif" font-size="11.00" fill="#000000">0 &gt;</text>
<polygon fill="none" stroke="#000000" stroke-width="2" points="441,-392.7 441,-546.7 693,-546.7 693,-392.7 441,-392.7"/>
</a>
</g>
</g>
<!-- opiskeluoikeushistoria&#45;&gt;opiskeluoikeus -->
<g id="edge2" class="edge">
<title>opiskeluoikeushistoria:w&#45;&gt;opiskeluoikeus:e</title>
<path fill="none" stroke="#000000" d="M427.7458,-509.0399C381.1507,-488.1068 460.7806,-350.7 391.5,-350.7"/>
<polygon fill="#000000" stroke="#000000" points="434.1358,-510.2323 441.3395,-515.2389 438.0679,-510.9662 442,-511.7 442,-511.7 442,-511.7 438.0679,-510.9662 442.6605,-508.1611 434.1358,-510.2323 434.1358,-510.2323"/>
<ellipse fill="none" stroke="#000000" cx="430.9901" cy="-509.6453" rx="3.2" ry="3.2"/>
</g>
<!-- perustiedot_manual_sync -->
<g id="node4" class="node">
<title>perustiedot_manual_sync</title>
<g id="a_node4"><a xlink:href="../../tables/perustiedot_manual_sync.html" xlink:title="perustiedot_manual_sync" target="_top">
<polygon fill="#ffffff" stroke="transparent" points="473.5,-213.2 473.5,-274.2 660.5,-274.2 660.5,-213.2 473.5,-213.2"/>
<polygon fill="#f5f5f5" stroke="transparent" points="474,-250.7 474,-273.7 661,-273.7 661,-250.7 474,-250.7"/>
<polygon fill="none" stroke="#000000" points="474,-250.7 474,-273.7 661,-273.7 661,-250.7 474,-250.7"/>
<text text-anchor="start" x="479" y="-259.3" font-family="Helvetica,sans-Serif" font-weight="bold" font-size="11.00" fill="#000000">perustiedot_manual_sync</text>
<text text-anchor="start" x="626.5219" y="-258.8" font-family="Helvetica,sans-Serif" font-size="11.00" fill="#000000">[table]</text>
<polygon fill="none" stroke="#000000" points="474,-231.7 474,-250.7 661,-250.7 661,-231.7 474,-231.7"/>
<text text-anchor="start" x="477" y="-237.8" font-family="Helvetica,sans-Serif" font-size="11.00" fill="#000000">...</text>
<polygon fill="#ffffff" stroke="transparent" points="474,-212.7 474,-231.7 553,-231.7 553,-212.7 474,-212.7"/>
<polygon fill="none" stroke="#000000" points="474,-212.7 474,-231.7 553,-231.7 553,-212.7 474,-212.7"/>
<text text-anchor="start" x="477" y="-218.8" font-family="Helvetica,sans-Serif" font-size="11.00" fill="#000000">&lt; 1</text>
<polygon fill="#ffffff" stroke="transparent" points="553,-212.7 553,-231.7 620,-231.7 620,-212.7 553,-212.7"/>
<polygon fill="none" stroke="#000000" points="553,-212.7 553,-231.7 620,-231.7 620,-212.7 553,-212.7"/>
<text text-anchor="start" x="584.6105" y="-218.8" font-family="Helvetica,sans-Serif" font-size="11.00" fill="#000000">0 rows</text>
<polygon fill="#ffffff" stroke="transparent" points="620,-212.7 620,-231.7 661,-231.7 661,-212.7 620,-212.7"/>
<polygon fill="none" stroke="#000000" points="620,-212.7 620,-231.7 661,-231.7 661,-212.7 620,-212.7"/>
<text text-anchor="start" x="651.8862" y="-218.8" font-family="Helvetica,sans-Serif" font-size="11.00" fill="#000000"> &#160;</text>
</a>
</g>
</g>
<!-- perustiedot_manual_sync&#45;&gt;opiskeluoikeus -->
<g id="edge3" class="edge">
<title>perustiedot_manual_sync:w&#45;&gt;opiskeluoikeus:e</title>
<path fill="none" stroke="#000000" d="M459.3098,-240.7C434.0061,-240.7 422.724,-240.7 391.5,-240.7"/>
<polygon fill="#000000" stroke="#000000" points="466,-240.7001 474,-244.3 470,-240.7 474,-240.7 474,-240.7 474,-240.7 470,-240.7 474,-237.1 466,-240.7001 466,-240.7001"/>
<ellipse fill="none" stroke="#000000" cx="462.8" cy="-240.7001" rx="3.2" ry="3.2"/>
</g>
<!-- perustiedot_sync -->
<g id="node5" class="node">
<title>perustiedot_sync</title>
<g id="a_node5"><a xlink:href="../../tables/perustiedot_sync.html" xlink:title="perustiedot_sync" target="_top">
<polygon fill="#ffffff" stroke="transparent" points="498,-309.2 498,-370.2 636,-370.2 636,-309.2 498,-309.2"/>
<polygon fill="#f5f5f5" stroke="transparent" points="498,-346.7 498,-369.7 636,-369.7 636,-346.7 498,-346.7"/>
<polygon fill="none" stroke="#000000" points="498,-346.7 498,-369.7 636,-369.7 636,-346.7 498,-346.7"/>
<text text-anchor="start" x="503" y="-355.3" font-family="Helvetica,sans-Serif" font-weight="bold" font-size="11.00" fill="#000000">perustiedot_sync</text>
<text text-anchor="start" x="601.5219" y="-354.8" font-family="Helvetica,sans-Serif" font-size="11.00" fill="#000000">[table]</text>
<polygon fill="none" stroke="#000000" points="498,-327.7 498,-346.7 636,-346.7 636,-327.7 498,-327.7"/>
<text text-anchor="start" x="501" y="-333.8" font-family="Helvetica,sans-Serif" font-size="11.00" fill="#000000">...</text>
<polygon fill="#ffffff" stroke="transparent" points="498,-308.7 498,-327.7 552,-327.7 552,-308.7 498,-308.7"/>
<polygon fill="none" stroke="#000000" points="498,-308.7 498,-327.7 552,-327.7 552,-308.7 498,-308.7"/>
<text text-anchor="start" x="501" y="-314.8" font-family="Helvetica,sans-Serif" font-size="11.00" fill="#000000">&lt; 1</text>
<polygon fill="#ffffff" stroke="transparent" points="552,-308.7 552,-327.7 607,-327.7 607,-308.7 552,-308.7"/>
<polygon fill="none" stroke="#000000" points="552,-308.7 552,-327.7 607,-327.7 607,-308.7 552,-308.7"/>
<text text-anchor="start" x="571.6105" y="-314.8" font-family="Helvetica,sans-Serif" font-size="11.00" fill="#000000">0 rows</text>
<polygon fill="#ffffff" stroke="transparent" points="607,-308.7 607,-327.7 636,-327.7 636,-308.7 607,-308.7"/>
<polygon fill="none" stroke="#000000" points="607,-308.7 607,-327.7 636,-327.7 636,-308.7 607,-308.7"/>
<text text-anchor="start" x="626.8862" y="-314.8" font-family="Helvetica,sans-Serif" font-size="11.00" fill="#000000"> &#160;</text>
</a>
</g>
</g>
<!-- perustiedot_sync&#45;&gt;opiskeluoikeus -->
<g id="edge4" class="edge">
<title>perustiedot_sync:w&#45;&gt;opiskeluoikeus:e</title>
<path fill="none" stroke="#000000" d="M483.5569,-337.1658C447.4098,-339.595 434.0189,-350.7 391.5,-350.7"/>
<polygon fill="#000000" stroke="#000000" points="490.0042,-336.9579 498.1161,-340.2981 494.0021,-336.829 498,-336.7 498,-336.7 498,-336.7 494.0021,-336.829 497.8839,-333.1019 490.0042,-336.9579 490.0042,-336.9579"/>
<ellipse fill="none" stroke="#000000" cx="486.8058" cy="-337.0611" rx="3.2" ry="3.2"/>
</g>
</g>
</svg>
