<?xml version="1.0" encoding="UTF-8" standalone="no"?>
<!DOCTYPE svg PUBLIC "-//W3C//DTD SVG 1.1//EN"
 "http://www.w3.org/Graphics/SVG/1.1/DTD/svg11.dtd">
<!-- Generated by graphviz version 2.40.1 (20161225.0304)
 -->
<!-- Title: twoDegreesRelationshipsDiagram Pages: 1 -->
<svg width="774pt" height="603pt"
 viewBox="0.00 0.00 774.00 602.70" xmlns="http://www.w3.org/2000/svg" xmlns:xlink="http://www.w3.org/1999/xlink">
<g id="graph0" class="graph" transform="scale(1 1) rotate(0) translate(4 598.7)">
<title>twoDegreesRelationshipsDiagram</title>
<polygon fill="#ffffff" stroke="transparent" points="-4,4 -4,-598.7 770,-598.7 770,4 -4,4"/>
<text text-anchor="middle" x="72.4936" y="-7.3" font-family="Helvetica,sans-Serif" font-size="11.00" fill="#000000">Generated by SchemaSpy</text>
<!-- opiskeluoikeus -->
<g id="node1" class="node">
<title>opiskeluoikeus</title>
<g id="a_node1"><a xlink:href="../../tables/opiskeluoikeus.html" xlink:title="opiskeluoikeus" target="_top">
<polygon fill="#ffffff" stroke="transparent" points="158,-38.2 158,-480.2 518,-480.2 518,-38.2 158,-38.2"/>
<polygon fill="#f5f5f5" stroke="transparent" points="160,-455.2 160,-478.2 516,-478.2 516,-455.2 160,-455.2"/>
<polygon fill="none" stroke="#000000" points="160,-455.2 160,-478.2 516,-478.2 516,-455.2 160,-455.2"/>
<text text-anchor="start" x="165" y="-463.8" font-family="Helvetica,sans-Serif" font-weight="bold" font-size="11.00" fill="#000000">opiskeluoikeus</text>
<text text-anchor="start" x="481.0437" y="-463.3" font-family="Helvetica,sans-Serif" font-size="11.00" fill="#000000">[table]</text>
<polygon fill="none" stroke="#000000" points="160,-433.2 160,-455.2 417,-455.2 417,-433.2 160,-433.2"/>
<image xlink:href="../../images/primaryKeys.png" width="11px" height="12px" preserveAspectRatio="xMinYMin meet" x="165" y="-450.2"/>
<text text-anchor="start" x="180" y="-440.3" font-family="Helvetica,sans-Serif" font-size="11.00" fill="#000000">id</text>
<polygon fill="none" stroke="#000000" points="417,-433.2 417,-455.2 516,-455.2 516,-433.2 417,-433.2"/>
<text text-anchor="start" x="420" y="-440.9" font-family="Helvetica,sans-Serif" font-size="11.00" fill="#000000">serial[10]</text>
<polygon fill="none" stroke="#000000" points="160,-411.2 160,-433.2 417,-433.2 417,-411.2 160,-411.2"/>
<text text-anchor="start" x="180" y="-418.3" font-family="Helvetica,sans-Serif" font-size="11.00" fill="#000000">data</text>
<polygon fill="none" stroke="#000000" points="417,-411.2 417,-433.2 516,-433.2 516,-411.2 417,-411.2"/>
<text text-anchor="start" x="419.7258" y="-418.9" font-family="Helvetica,sans-Serif" font-size="11.00" fill="#000000">jsonb[2147483647]</text>
<polygon fill="#ffffff" stroke="transparent" points="160,-389.2 160,-411.2 417,-411.2 417,-389.2 160,-389.2"/>
<polygon fill="none" stroke="#000000" points="160,-389.2 160,-411.2 417,-411.2 417,-389.2 160,-389.2"/>
<image xlink:href="../../images/foreignKeys.png" width="11px" height="12px" preserveAspectRatio="xMinYMin meet" x="165" y="-406.2"/>
<text text-anchor="start" x="180" y="-396.3" font-family="Helvetica,sans-Serif" font-size="11.00" fill="#000000">oppija_oid</text>
<polygon fill="none" stroke="#000000" points="417,-389.2 417,-411.2 516,-411.2 516,-389.2 417,-389.2"/>
<text text-anchor="start" x="420" y="-396.9" font-family="Helvetica,sans-Serif" font-size="11.00" fill="#000000">text[2147483647]</text>
<polygon fill="#ffffff" stroke="transparent" points="160,-367.2 160,-389.2 417,-389.2 417,-367.2 160,-367.2"/>
<polygon fill="none" stroke="#000000" points="160,-367.2 160,-389.2 417,-389.2 417,-367.2 160,-367.2"/>
<text text-anchor="start" x="180" y="-374.3" font-family="Helvetica,sans-Serif" font-size="11.00" fill="#000000">aikaleima</text>
<polygon fill="none" stroke="#000000" points="417,-367.2 417,-389.2 516,-389.2 516,-367.2 417,-367.2"/>
<text text-anchor="start" x="420" y="-374.9" font-family="Helvetica,sans-Serif" font-size="11.00" fill="#000000">timestamptz[35,6]</text>
<polygon fill="none" stroke="#000000" points="160,-345.2 160,-367.2 417,-367.2 417,-345.2 160,-345.2"/>
<text text-anchor="start" x="180" y="-352.3" font-family="Helvetica,sans-Serif" font-size="11.00" fill="#000000">versionumero</text>
<polygon fill="none" stroke="#000000" points="417,-345.2 417,-367.2 516,-367.2 516,-345.2 417,-345.2"/>
<text text-anchor="start" x="420" y="-352.9" font-family="Helvetica,sans-Serif" font-size="11.00" fill="#000000">int4[10]</text>
<polygon fill="#ffffff" stroke="transparent" points="160,-323.2 160,-345.2 417,-345.2 417,-323.2 160,-323.2"/>
<polygon fill="none" stroke="#000000" points="160,-323.2 160,-345.2 417,-345.2 417,-323.2 160,-323.2"/>
<text text-anchor="start" x="180" y="-330.3" font-family="Helvetica,sans-Serif" font-size="11.00" fill="#000000">oppilaitos_oid</text>
<polygon fill="none" stroke="#000000" points="417,-323.2 417,-345.2 516,-345.2 516,-323.2 417,-323.2"/>
<text text-anchor="start" x="420" y="-330.9" font-family="Helvetica,sans-Serif" font-size="11.00" fill="#000000">text[2147483647]</text>
<polygon fill="none" stroke="#000000" points="160,-301.2 160,-323.2 417,-323.2 417,-301.2 160,-301.2"/>
<text text-anchor="start" x="180" y="-308.3" font-family="Helvetica,sans-Serif" font-size="11.00" fill="#000000">koulutustoimija_oid</text>
<polygon fill="none" stroke="#000000" points="417,-301.2 417,-323.2 516,-323.2 516,-301.2 417,-301.2"/>
<text text-anchor="start" x="420" y="-308.9" font-family="Helvetica,sans-Serif" font-size="11.00" fill="#000000">text[2147483647]</text>
<polygon fill="none" stroke="#000000" points="160,-279.2 160,-301.2 417,-301.2 417,-279.2 160,-279.2"/>
<text text-anchor="start" x="180" y="-286.3" font-family="Helvetica,sans-Serif" font-size="11.00" fill="#000000">luokka</text>
<polygon fill="none" stroke="#000000" points="417,-279.2 417,-301.2 516,-301.2 516,-279.2 417,-279.2"/>
<text text-anchor="start" x="420" y="-286.9" font-family="Helvetica,sans-Serif" font-size="11.00" fill="#000000">text[2147483647]</text>
<polygon fill="#ffffff" stroke="transparent" points="160,-257.2 160,-279.2 417,-279.2 417,-257.2 160,-257.2"/>
<polygon fill="none" stroke="#000000" points="160,-257.2 160,-279.2 417,-279.2 417,-257.2 160,-257.2"/>
<text text-anchor="start" x="180" y="-264.3" font-family="Helvetica,sans-Serif" font-size="11.00" fill="#000000">sisaltava_opiskeluoikeus_oppilaitos_oid</text>
<polygon fill="none" stroke="#000000" points="417,-257.2 417,-279.2 516,-279.2 516,-257.2 417,-257.2"/>
<text text-anchor="start" x="420" y="-264.9" font-family="Helvetica,sans-Serif" font-size="11.00" fill="#000000">text[2147483647]</text>
<polygon fill="#ffffff" stroke="transparent" points="160,-235.2 160,-257.2 417,-257.2 417,-235.2 160,-235.2"/>
<polygon fill="none" stroke="#000000" points="160,-235.2 160,-257.2 417,-257.2 417,-235.2 160,-235.2"/>
<text text-anchor="start" x="180" y="-242.3" font-family="Helvetica,sans-Serif" font-size="11.00" fill="#000000">oid</text>
<polygon fill="none" stroke="#000000" points="417,-235.2 417,-257.2 516,-257.2 516,-235.2 417,-235.2"/>
<text text-anchor="start" x="420" y="-242.9" font-family="Helvetica,sans-Serif" font-size="11.00" fill="#000000">text[2147483647]</text>
<polygon fill="none" stroke="#000000" points="160,-213.2 160,-235.2 417,-235.2 417,-213.2 160,-213.2"/>
<image xlink:href="../../images/foreignKeys.png" width="11px" height="12px" preserveAspectRatio="xMinYMin meet" x="165" y="-230.2"/>
<text text-anchor="start" x="180" y="-220.3" font-family="Helvetica,sans-Serif" font-size="11.00" fill="#000000">sisaltava_opiskeluoikeus_oid</text>
<polygon fill="none" stroke="#000000" points="417,-213.2 417,-235.2 516,-235.2 516,-213.2 417,-213.2"/>
<text text-anchor="start" x="420" y="-220.9" font-family="Helvetica,sans-Serif" font-size="11.00" fill="#000000">text[2147483647]</text>
<polygon fill="#ffffff" stroke="transparent" points="160,-191.2 160,-213.2 417,-213.2 417,-191.2 160,-191.2"/>
<polygon fill="none" stroke="#000000" points="160,-191.2 160,-213.2 417,-213.2 417,-191.2 160,-191.2"/>
<text text-anchor="start" x="180" y="-198.3" font-family="Helvetica,sans-Serif" font-size="11.00" fill="#000000">mitatoity</text>
<polygon fill="none" stroke="#000000" points="417,-191.2 417,-213.2 516,-213.2 516,-191.2 417,-191.2"/>
<text text-anchor="start" x="420" y="-198.9" font-family="Helvetica,sans-Serif" font-size="11.00" fill="#000000">bool[1]</text>
<polygon fill="#ffffff" stroke="transparent" points="160,-169.2 160,-191.2 417,-191.2 417,-169.2 160,-169.2"/>
<polygon fill="none" stroke="#000000" points="160,-169.2 160,-191.2 417,-191.2 417,-169.2 160,-169.2"/>
<text text-anchor="start" x="180" y="-176.3" font-family="Helvetica,sans-Serif" font-size="11.00" fill="#000000">koulutusmuoto</text>
<polygon fill="none" stroke="#000000" points="417,-169.2 417,-191.2 516,-191.2 516,-169.2 417,-169.2"/>
<text text-anchor="start" x="420" y="-176.9" font-family="Helvetica,sans-Serif" font-size="11.00" fill="#000000">text[2147483647]</text>
<polygon fill="#ffffff" stroke="transparent" points="160,-147.2 160,-169.2 417,-169.2 417,-147.2 160,-147.2"/>
<polygon fill="none" stroke="#000000" points="160,-147.2 160,-169.2 417,-169.2 417,-147.2 160,-147.2"/>
<text text-anchor="start" x="180" y="-154.3" font-family="Helvetica,sans-Serif" font-size="11.00" fill="#000000">alkamispaiva</text>
<polygon fill="none" stroke="#000000" points="417,-147.2 417,-169.2 516,-169.2 516,-147.2 417,-147.2"/>
<text text-anchor="start" x="420" y="-154.9" font-family="Helvetica,sans-Serif" font-size="11.00" fill="#000000">date[13]</text>
<polygon fill="#ffffff" stroke="transparent" points="160,-125.2 160,-147.2 417,-147.2 417,-125.2 160,-125.2"/>
<polygon fill="none" stroke="#000000" points="160,-125.2 160,-147.2 417,-147.2 417,-125.2 160,-125.2"/>
<text text-anchor="start" x="180" y="-132.3" font-family="Helvetica,sans-Serif" font-size="11.00" fill="#000000">paattymispaiva</text>
<polygon fill="none" stroke="#000000" points="417,-125.2 417,-147.2 516,-147.2 516,-125.2 417,-125.2"/>
<text text-anchor="start" x="420" y="-132.9" font-family="Helvetica,sans-Serif" font-size="11.00" fill="#000000">date[13]</text>
<polygon fill="none" stroke="#000000" points="160,-103.2 160,-125.2 417,-125.2 417,-103.2 160,-103.2"/>
<text text-anchor="start" x="180" y="-110.3" font-family="Helvetica,sans-Serif" font-size="11.00" fill="#000000">suoritusjako_tehty_rajapaivan_jalkeen</text>
<polygon fill="none" stroke="#000000" points="417,-103.2 417,-125.2 516,-125.2 516,-103.2 417,-103.2"/>
<text text-anchor="start" x="420" y="-110.9" font-family="Helvetica,sans-Serif" font-size="11.00" fill="#000000">bool[1]</text>
<polygon fill="#ffffff" stroke="transparent" points="160,-81.2 160,-103.2 417,-103.2 417,-81.2 160,-81.2"/>
<polygon fill="none" stroke="#000000" points="160,-81.2 160,-103.2 417,-103.2 417,-81.2 160,-81.2"/>
<text text-anchor="start" x="180" y="-88.3" font-family="Helvetica,sans-Serif" font-size="11.00" fill="#000000">suoritustyypit</text>
<polygon fill="none" stroke="#000000" points="417,-81.2 417,-103.2 516,-103.2 516,-81.2 417,-81.2"/>
<text text-anchor="start" x="420" y="-88.9" font-family="Helvetica,sans-Serif" font-size="11.00" fill="#000000">_text[2147483647]</text>
<polygon fill="#ffffff" stroke="transparent" points="160,-59.2 160,-81.2 417,-81.2 417,-59.2 160,-59.2"/>
<polygon fill="none" stroke="#000000" points="160,-59.2 160,-81.2 417,-81.2 417,-59.2 160,-59.2"/>
<text text-anchor="start" x="180" y="-66.3" font-family="Helvetica,sans-Serif" font-size="11.00" fill="#000000">poistettu</text>
<polygon fill="none" stroke="#000000" points="417,-59.2 417,-81.2 516,-81.2 516,-59.2 417,-59.2"/>
<text text-anchor="start" x="420" y="-66.9" font-family="Helvetica,sans-Serif" font-size="11.00" fill="#000000">bool[1]</text>
<polygon fill="#ffffff" stroke="transparent" points="160,-40.2 160,-59.2 274,-59.2 274,-40.2 160,-40.2"/>
<polygon fill="none" stroke="#000000" points="160,-40.2 160,-59.2 274,-59.2 274,-40.2 160,-40.2"/>
<text text-anchor="start" x="163" y="-46.3" font-family="Helvetica,sans-Serif" font-size="11.00" fill="#000000">&lt; 2</text>
<polygon fill="#ffffff" stroke="transparent" points="274,-40.2 274,-59.2 417,-59.2 417,-40.2 274,-40.2"/>
<polygon fill="none" stroke="#000000" points="274,-40.2 274,-59.2 417,-59.2 417,-40.2 274,-40.2"/>
<text text-anchor="start" x="369.3807" y="-46.3" font-family="Helvetica,sans-Serif" font-size="11.00" fill="#000000">241 rows</text>
<polygon fill="#ffffff" stroke="transparent" points="417,-40.2 417,-59.2 516,-59.2 516,-40.2 417,-40.2"/>
<polygon fill="none" stroke="#000000" points="417,-40.2 417,-59.2 516,-59.2 516,-40.2 417,-40.2"/>
<text text-anchor="start" x="497.4053" y="-46.3" font-family="Helvetica,sans-Serif" font-size="11.00" fill="#000000">4 &gt;</text>
<polygon fill="none" stroke="#000000" stroke-width="2" points="159,-39.2 159,-479.2 517,-479.2 517,-39.2 159,-39.2"/>
</a>
</g>
</g>
<!-- opiskeluoikeus&#45;&gt;opiskeluoikeus -->
<g id="edge2" class="edge">
<title>opiskeluoikeus:w&#45;&gt;opiskeluoikeus:e</title>
<path fill="none" stroke="#000000" d="M151.0707,-235.5557C90.9994,-320.5423 101.6182,-497.2 338,-497.2 585.5,-497.2 585.5,-325.5333 516,-246.2"/>
<polygon fill="#000000" stroke="#000000" points="155.055,-230.4887 162.8299,-226.4253 157.5275,-227.3443 160,-224.2 160,-224.2 160,-224.2 157.5275,-227.3443 157.1701,-221.9747 155.055,-230.4887 155.055,-230.4887"/>
<ellipse fill="none" stroke="#000000" cx="153.077" cy="-233.0041" rx="3.2" ry="3.2"/>
</g>
<!-- henkilo -->
<g id="node2" class="node">
<title>henkilo</title>
<g id="a_node2"><a xlink:href="../../tables/henkilo.html" xlink:title="henkilo" target="_top">
<polygon fill="#ffffff" stroke="transparent" points="8,-402.7 8,-507.7 109,-507.7 109,-402.7 8,-402.7"/>
<polygon fill="#f5f5f5" stroke="transparent" points="8.5,-484.2 8.5,-507.2 109.5,-507.2 109.5,-484.2 8.5,-484.2"/>
<polygon fill="none" stroke="#000000" points="8.5,-484.2 8.5,-507.2 109.5,-507.2 109.5,-484.2 8.5,-484.2"/>
<text text-anchor="start" x="13.5" y="-492.8" font-family="Helvetica,sans-Serif" font-weight="bold" font-size="11.00" fill="#000000">henkilo</text>
<text text-anchor="start" x="74.5437" y="-492.3" font-family="Helvetica,sans-Serif" font-size="11.00" fill="#000000">[table]</text>
<polygon fill="none" stroke="#000000" points="8.5,-462.2 8.5,-484.2 109.5,-484.2 109.5,-462.2 8.5,-462.2"/>
<image xlink:href="../../images/primaryKeys.png" width="11px" height="12px" preserveAspectRatio="xMinYMin meet" x="13.5" y="-479.2"/>
<text text-anchor="start" x="28.5" y="-469.3" font-family="Helvetica,sans-Serif" font-size="11.00" fill="#000000">oid</text>
<polygon fill="#ffffff" stroke="transparent" points="8.5,-440.2 8.5,-462.2 109.5,-462.2 109.5,-440.2 8.5,-440.2"/>
<polygon fill="none" stroke="#000000" points="8.5,-440.2 8.5,-462.2 109.5,-462.2 109.5,-440.2 8.5,-440.2"/>
<image xlink:href="../../images/foreignKeys.png" width="11px" height="12px" preserveAspectRatio="xMinYMin meet" x="13.5" y="-457.2"/>
<text text-anchor="start" x="28.5" y="-447.3" font-family="Helvetica,sans-Serif" font-size="11.00" fill="#000000">master_oid</text>
<polygon fill="none" stroke="#000000" points="8.5,-421.2 8.5,-440.2 109.5,-440.2 109.5,-421.2 8.5,-421.2"/>
<text text-anchor="start" x="11.5" y="-427.3" font-family="Helvetica,sans-Serif" font-size="11.00" fill="#000000">...</text>
<polygon fill="#ffffff" stroke="transparent" points="8.5,-402.2 8.5,-421.2 33.5,-421.2 33.5,-402.2 8.5,-402.2"/>
<polygon fill="none" stroke="#000000" points="8.5,-402.2 8.5,-421.2 33.5,-421.2 33.5,-402.2 8.5,-402.2"/>
<text text-anchor="start" x="11.5" y="-408.3" font-family="Helvetica,sans-Serif" font-size="11.00" fill="#000000">&lt; 1</text>
<polygon fill="#ffffff" stroke="transparent" points="33.5,-402.2 33.5,-421.2 85.5,-421.2 85.5,-402.2 33.5,-402.2"/>
<polygon fill="none" stroke="#000000" points="33.5,-402.2 33.5,-421.2 85.5,-421.2 85.5,-402.2 33.5,-402.2"/>
<text text-anchor="start" x="37.8807" y="-408.3" font-family="Helvetica,sans-Serif" font-size="11.00" fill="#000000">186 rows</text>
<polygon fill="#ffffff" stroke="transparent" points="85.5,-402.2 85.5,-421.2 109.5,-421.2 109.5,-402.2 85.5,-402.2"/>
<polygon fill="none" stroke="#000000" points="85.5,-402.2 85.5,-421.2 109.5,-421.2 109.5,-402.2 85.5,-402.2"/>
<text text-anchor="start" x="90.9053" y="-408.3" font-family="Helvetica,sans-Serif" font-size="11.00" fill="#000000">3 &gt;</text>
</a>
</g>
</g>
<!-- opiskeluoikeus&#45;&gt;henkilo -->
<g id="edge1" class="edge">
<title>opiskeluoikeus:w&#45;&gt;henkilo:e</title>
<path fill="none" stroke="#000000" d="M149.6225,-402.4648C125.7852,-414.7864 144.7903,-473.2 109.5,-473.2"/>
<polygon fill="#000000" stroke="#000000" points="158.3655,-396.4626 160.0713,-404.2786 158.5081,-404.6198 156.8023,-396.8037 158.3655,-396.4626"/>
<polyline fill="none" stroke="#000000" points="160,-400.2 156.092,-401.0529 "/>
<ellipse fill="none" stroke="#000000" cx="152.9656" cy="-401.7353" rx="3.2" ry="3.2"/>
</g>
<!-- opiskeluoikeushistoria -->
<g id="node3" class="node">
<title>opiskeluoikeushistoria</title>
<g id="a_node3"><a xlink:href="../../tables/opiskeluoikeushistoria.html" xlink:title="opiskeluoikeushistoria" target="_top">
<polygon fill="#ffffff" stroke="transparent" points="575,-485.7 575,-590.7 750,-590.7 750,-485.7 575,-485.7"/>
<polygon fill="#f5f5f5" stroke="transparent" points="575.5,-567.2 575.5,-590.2 750.5,-590.2 750.5,-567.2 575.5,-567.2"/>
<polygon fill="none" stroke="#000000" points="575.5,-567.2 575.5,-590.2 750.5,-590.2 750.5,-567.2 575.5,-567.2"/>
<text text-anchor="start" x="580.5" y="-575.8" font-family="Helvetica,sans-Serif" font-weight="bold" font-size="11.00" fill="#000000">opiskeluoikeushistoria</text>
<text text-anchor="start" x="716.0219" y="-575.3" font-family="Helvetica,sans-Serif" font-size="11.00" fill="#000000">[table]</text>
<polygon fill="none" stroke="#000000" points="575.5,-545.2 575.5,-567.2 750.5,-567.2 750.5,-545.2 575.5,-545.2"/>
<image xlink:href="../../images/primaryKeys.png" width="11px" height="12px" preserveAspectRatio="xMinYMin meet" x="580.5" y="-562.2"/>
<text text-anchor="start" x="604.5" y="-552.3" font-family="Helvetica,sans-Serif" font-size="11.00" fill="#000000">opiskeluoikeus_id</text>
<polygon fill="none" stroke="#000000" points="575.5,-523.2 575.5,-545.2 750.5,-545.2 750.5,-523.2 575.5,-523.2"/>
<image xlink:href="../../images/primaryKeys.png" width="11px" height="12px" preserveAspectRatio="xMinYMin meet" x="580.5" y="-540.2"/>
<text text-anchor="start" x="604.5" y="-530.3" font-family="Helvetica,sans-Serif" font-size="11.00" fill="#000000">versionumero</text>
<polygon fill="none" stroke="#000000" points="575.5,-504.2 575.5,-523.2 750.5,-523.2 750.5,-504.2 575.5,-504.2"/>
<text text-anchor="start" x="578.5" y="-510.3" font-family="Helvetica,sans-Serif" font-size="11.00" fill="#000000">...</text>
<polygon fill="#ffffff" stroke="transparent" points="575.5,-485.2 575.5,-504.2 642.5,-504.2 642.5,-485.2 575.5,-485.2"/>
<polygon fill="none" stroke="#000000" points="575.5,-485.2 575.5,-504.2 642.5,-504.2 642.5,-485.2 575.5,-485.2"/>
<text text-anchor="start" x="578.5" y="-491.3" font-family="Helvetica,sans-Serif" font-size="11.00" fill="#000000">&lt; 1</text>
<polygon fill="#ffffff" stroke="transparent" points="642.5,-485.2 642.5,-504.2 715.5,-504.2 715.5,-485.2 642.5,-485.2"/>
<polygon fill="none" stroke="#000000" points="642.5,-485.2 642.5,-504.2 715.5,-504.2 715.5,-485.2 642.5,-485.2"/>
<text text-anchor="start" x="667.8807" y="-491.3" font-family="Helvetica,sans-Serif" font-size="11.00" fill="#000000">241 rows</text>
<polygon fill="#ffffff" stroke="transparent" points="715.5,-485.2 715.5,-504.2 750.5,-504.2 750.5,-485.2 715.5,-485.2"/>
<polygon fill="none" stroke="#000000" points="715.5,-485.2 715.5,-504.2 750.5,-504.2 750.5,-485.2 715.5,-485.2"/>
<text text-anchor="start" x="741.3862" y="-491.3" font-family="Helvetica,sans-Serif" font-size="11.00" fill="#000000"> &#160;</text>
</a>
</g>
</g>
<!-- opiskeluoikeushistoria&#45;&gt;opiskeluoikeus -->
<g id="edge3" class="edge">
<title>opiskeluoikeushistoria:w&#45;&gt;opiskeluoikeus:e</title>
<path fill="none" stroke="#000000" d="M561.0657,-552.7252C529.1434,-533.8208 566.4212,-444.2 516,-444.2"/>
<polygon fill="#000000" stroke="#000000" points="567.7222,-554.3276 574.6574,-559.7 571.6111,-555.2638 575.5,-556.2 575.5,-556.2 575.5,-556.2 571.6111,-555.2638 576.3426,-552.7 567.7222,-554.3276 567.7222,-554.3276"/>
<ellipse fill="none" stroke="#000000" cx="564.6111" cy="-553.5787" rx="3.2" ry="3.2"/>
</g>
<!-- perustiedot_manual_sync -->
<g id="node4" class="node">
<title>perustiedot_manual_sync</title>
<g id="a_node4"><a xlink:href="../../tables/perustiedot_manual_sync.html" xlink:title="perustiedot_manual_sync" target="_top">
<polygon fill="#ffffff" stroke="transparent" points="567,-197.7 567,-302.7 758,-302.7 758,-197.7 567,-197.7"/>
<polygon fill="#f5f5f5" stroke="transparent" points="567.5,-279.2 567.5,-302.2 758.5,-302.2 758.5,-279.2 567.5,-279.2"/>
<polygon fill="none" stroke="#000000" points="567.5,-279.2 567.5,-302.2 758.5,-302.2 758.5,-279.2 567.5,-279.2"/>
<text text-anchor="start" x="572.5" y="-287.8" font-family="Helvetica,sans-Serif" font-weight="bold" font-size="11.00" fill="#000000">perustiedot_manual_sync</text>
<text text-anchor="start" x="724.0219" y="-287.3" font-family="Helvetica,sans-Serif" font-size="11.00" fill="#000000">[table]</text>
<polygon fill="none" stroke="#000000" points="567.5,-257.2 567.5,-279.2 758.5,-279.2 758.5,-257.2 567.5,-257.2"/>
<image xlink:href="../../images/primaryKeys.png" width="11px" height="12px" preserveAspectRatio="xMinYMin meet" x="572.5" y="-274.2"/>
<text text-anchor="start" x="596.5" y="-264.3" font-family="Helvetica,sans-Serif" font-size="11.00" fill="#000000">id</text>
<polygon fill="none" stroke="#000000" points="567.5,-235.2 567.5,-257.2 758.5,-257.2 758.5,-235.2 567.5,-235.2"/>
<image xlink:href="../../images/foreignKeys.png" width="11px" height="12px" preserveAspectRatio="xMinYMin meet" x="572.5" y="-252.2"/>
<text text-anchor="start" x="596.5" y="-242.3" font-family="Helvetica,sans-Serif" font-size="11.00" fill="#000000">opiskeluoikeus_oid</text>
<polygon fill="none" stroke="#000000" points="567.5,-216.2 567.5,-235.2 758.5,-235.2 758.5,-216.2 567.5,-216.2"/>
<text text-anchor="start" x="570.5" y="-222.3" font-family="Helvetica,sans-Serif" font-size="11.00" fill="#000000">...</text>
<polygon fill="#ffffff" stroke="transparent" points="567.5,-197.2 567.5,-216.2 661.5,-216.2 661.5,-197.2 567.5,-197.2"/>
<polygon fill="none" stroke="#000000" points="567.5,-197.2 567.5,-216.2 661.5,-216.2 661.5,-197.2 567.5,-197.2"/>
<text text-anchor="start" x="570.5" y="-203.3" font-family="Helvetica,sans-Serif" font-size="11.00" fill="#000000">&lt; 1</text>
<polygon fill="#ffffff" stroke="transparent" points="661.5,-197.2 661.5,-216.2 709.5,-216.2 709.5,-197.2 661.5,-197.2"/>
<polygon fill="none" stroke="#000000" points="661.5,-197.2 661.5,-216.2 709.5,-216.2 709.5,-197.2 661.5,-197.2"/>
<text text-anchor="start" x="700.3862" y="-203.3" font-family="Helvetica,sans-Serif" font-size="11.00" fill="#000000"> &#160;</text>
<polygon fill="#ffffff" stroke="transparent" points="709.5,-197.2 709.5,-216.2 758.5,-216.2 758.5,-197.2 709.5,-197.2"/>
<polygon fill="none" stroke="#000000" points="709.5,-197.2 709.5,-216.2 758.5,-216.2 758.5,-197.2 709.5,-197.2"/>
<text text-anchor="start" x="749.3862" y="-203.3" font-family="Helvetica,sans-Serif" font-size="11.00" fill="#000000"> &#160;</text>
</a>
</g>
</g>
<!-- perustiedot_manual_sync&#45;&gt;opiskeluoikeus -->
<g id="edge4" class="edge">
<title>perustiedot_manual_sync:w&#45;&gt;opiskeluoikeus:e</title>
<path fill="none" stroke="#000000" d="M553.0156,-246.2C540.6771,-246.2 533.1667,-246.2 516,-246.2"/>
<polygon fill="#000000" stroke="#000000" points="559.5,-246.2001 567.5,-249.8 563.5,-246.2 567.5,-246.2 567.5,-246.2 567.5,-246.2 563.5,-246.2 567.5,-242.6 559.5,-246.2001 559.5,-246.2001"/>
<ellipse fill="none" stroke="#000000" cx="556.3" cy="-246.2001" rx="3.2" ry="3.2"/>
</g>
<!-- perustiedot_sync -->
<g id="node5" class="node">
<title>perustiedot_sync</title>
<g id="a_node5"><a xlink:href="../../tables/perustiedot_sync.html" xlink:title="perustiedot_sync" target="_top">
<polygon fill="#ffffff" stroke="transparent" points="592.5,-359.7 592.5,-464.7 732.5,-464.7 732.5,-359.7 592.5,-359.7"/>
<polygon fill="#f5f5f5" stroke="transparent" points="592.5,-441.2 592.5,-464.2 732.5,-464.2 732.5,-441.2 592.5,-441.2"/>
<polygon fill="none" stroke="#000000" points="592.5,-441.2 592.5,-464.2 732.5,-464.2 732.5,-441.2 592.5,-441.2"/>
<text text-anchor="start" x="597.5" y="-449.8" font-family="Helvetica,sans-Serif" font-weight="bold" font-size="11.00" fill="#000000">perustiedot_sync</text>
<text text-anchor="start" x="698.0219" y="-449.3" font-family="Helvetica,sans-Serif" font-size="11.00" fill="#000000">[table]</text>
<polygon fill="none" stroke="#000000" points="592.5,-419.2 592.5,-441.2 732.5,-441.2 732.5,-419.2 592.5,-419.2"/>
<image xlink:href="../../images/primaryKeys.png" width="11px" height="12px" preserveAspectRatio="xMinYMin meet" x="597.5" y="-436.2"/>
<text text-anchor="start" x="619.5" y="-426.3" font-family="Helvetica,sans-Serif" font-size="11.00" fill="#000000">id</text>
<polygon fill="none" stroke="#000000" points="592.5,-397.2 592.5,-419.2 732.5,-419.2 732.5,-397.2 592.5,-397.2"/>
<image xlink:href="../../images/foreignKeys.png" width="11px" height="12px" preserveAspectRatio="xMinYMin meet" x="597.5" y="-414.2"/>
<text text-anchor="start" x="619.5" y="-404.3" font-family="Helvetica,sans-Serif" font-size="11.00" fill="#000000">opiskeluoikeus_id</text>
<polygon fill="none" stroke="#000000" points="592.5,-378.2 592.5,-397.2 732.5,-397.2 732.5,-378.2 592.5,-378.2"/>
<text text-anchor="start" x="595.5" y="-384.3" font-family="Helvetica,sans-Serif" font-size="11.00" fill="#000000">...</text>
<polygon fill="#ffffff" stroke="transparent" points="592.5,-359.2 592.5,-378.2 647.5,-378.2 647.5,-359.2 592.5,-359.2"/>
<polygon fill="none" stroke="#000000" points="592.5,-359.2 592.5,-378.2 647.5,-378.2 647.5,-359.2 592.5,-359.2"/>
<text text-anchor="start" x="595.5" y="-365.3" font-family="Helvetica,sans-Serif" font-size="11.00" fill="#000000">&lt; 1</text>
<polygon fill="#ffffff" stroke="transparent" points="647.5,-359.2 647.5,-378.2 702.5,-378.2 702.5,-359.2 647.5,-359.2"/>
<polygon fill="none" stroke="#000000" points="647.5,-359.2 647.5,-378.2 702.5,-378.2 702.5,-359.2 647.5,-359.2"/>
<text text-anchor="start" x="667.1105" y="-365.3" font-family="Helvetica,sans-Serif" font-size="11.00" fill="#000000">0 rows</text>
<polygon fill="#ffffff" stroke="transparent" points="702.5,-359.2 702.5,-378.2 732.5,-378.2 732.5,-359.2 702.5,-359.2"/>
<polygon fill="none" stroke="#000000" points="702.5,-359.2 702.5,-378.2 732.5,-378.2 732.5,-359.2 702.5,-359.2"/>
<text text-anchor="start" x="723.3862" y="-365.3" font-family="Helvetica,sans-Serif" font-size="11.00" fill="#000000"> &#160;</text>
</a>
</g>
</g>
<!-- perustiedot_sync&#45;&gt;opiskeluoikeus -->
<g id="edge5" class="edge">
<title>perustiedot_sync:w&#45;&gt;opiskeluoikeus:e</title>
<path fill="none" stroke="#000000" d="M577.9245,-410.3442C553.7253,-418.0943 547.9988,-444.2 516,-444.2"/>
<polygon fill="#000000" stroke="#000000" points="584.5852,-409.3644 593.024,-411.7617 588.5426,-408.7822 592.5,-408.2 592.5,-408.2 592.5,-408.2 588.5426,-408.7822 591.976,-404.6383 584.5852,-409.3644 584.5852,-409.3644"/>
<ellipse fill="none" stroke="#000000" cx="581.4193" cy="-409.8301" rx="3.2" ry="3.2"/>
</g>
<!-- ytr_opiskeluoikeus -->
<g id="node6" class="node">
<title>ytr_opiskeluoikeus</title>
<g id="a_node6"><a xlink:href="../../tables/ytr_opiskeluoikeus.html" xlink:title="ytr_opiskeluoikeus" target="_top">
<polygon fill="#ffffff" stroke="transparent" points="262.5,-519.7 262.5,-580.7 413.5,-580.7 413.5,-519.7 262.5,-519.7"/>
<polygon fill="#f5f5f5" stroke="transparent" points="263,-557.2 263,-580.2 414,-580.2 414,-557.2 263,-557.2"/>
<polygon fill="none" stroke="#000000" points="263,-557.2 263,-580.2 414,-580.2 414,-557.2 263,-557.2"/>
<text text-anchor="start" x="268" y="-565.8" font-family="Helvetica,sans-Serif" font-weight="bold" font-size="11.00" fill="#000000">ytr_opiskeluoikeus</text>
<text text-anchor="start" x="379.5219" y="-565.3" font-family="Helvetica,sans-Serif" font-size="11.00" fill="#000000">[table]</text>
<polygon fill="none" stroke="#000000" points="263,-538.2 263,-557.2 414,-557.2 414,-538.2 263,-538.2"/>
<text text-anchor="start" x="266" y="-544.3" font-family="Helvetica,sans-Serif" font-size="11.00" fill="#000000">...</text>
<polygon fill="#ffffff" stroke="transparent" points="263,-519.2 263,-538.2 319,-538.2 319,-519.2 263,-519.2"/>
<polygon fill="none" stroke="#000000" points="263,-519.2 263,-538.2 319,-538.2 319,-519.2 263,-519.2"/>
<text text-anchor="start" x="266" y="-525.3" font-family="Helvetica,sans-Serif" font-size="11.00" fill="#000000">&lt; 2</text>
<polygon fill="#ffffff" stroke="transparent" points="319,-519.2 319,-538.2 375,-538.2 375,-519.2 319,-519.2"/>
<polygon fill="none" stroke="#000000" points="319,-519.2 319,-538.2 375,-538.2 375,-519.2 319,-519.2"/>
<text text-anchor="start" x="339.6105" y="-525.3" font-family="Helvetica,sans-Serif" font-size="11.00" fill="#000000">6 rows</text>
<polygon fill="#ffffff" stroke="transparent" points="375,-519.2 375,-538.2 414,-538.2 414,-519.2 375,-519.2"/>
<polygon fill="none" stroke="#000000" points="375,-519.2 375,-538.2 414,-538.2 414,-519.2 375,-519.2"/>
<text text-anchor="start" x="395.4053" y="-525.3" font-family="Helvetica,sans-Serif" font-size="11.00" fill="#000000">2 &gt;</text>
</a>
</g>
</g>
<!-- ytr_opiskeluoikeus&#45;&gt;henkilo -->
<g id="edge6" class="edge">
<title>ytr_opiskeluoikeus:w&#45;&gt;henkilo:e</title>
<path fill="none" stroke="#000000" d="M252.3744,-547.0293C207.8638,-545.5193 192.6132,-533.9122 150,-509.2 129.1666,-497.1183 133.5832,-473.2 109.5,-473.2"/>
<polygon fill="#000000" stroke="#000000" points="262.2644,-543.1877 262.1358,-551.1866 260.536,-551.1609 260.6646,-543.162 262.2644,-543.1877"/>
<polyline fill="none" stroke="#000000" points="263,-547.2 259.0005,-547.1357 "/>
<ellipse fill="none" stroke="#000000" cx="255.8009" cy="-547.0843" rx="3.2" ry="3.2"/>
</g>
</g>
</svg>
