<?xml version="1.0" encoding="UTF-8" standalone="no"?>
<!DOCTYPE svg PUBLIC "-//W3C//DTD SVG 1.1//EN"
 "http://www.w3.org/Graphics/SVG/1.1/DTD/svg11.dtd">
<!-- Generated by graphviz version 2.40.1 (20161225.0304)
 -->
<!-- Title: twoDegreesRelationshipsDiagram Pages: 1 -->
<svg width="731pt" height="560pt"
 viewBox="0.00 0.00 731.00 559.70" xmlns="http://www.w3.org/2000/svg" xmlns:xlink="http://www.w3.org/1999/xlink">
<g id="graph0" class="graph" transform="scale(1 1) rotate(0) translate(4 555.7)">
<title>twoDegreesRelationshipsDiagram</title>
<polygon fill="#ffffff" stroke="transparent" points="-4,4 -4,-555.7 727,-555.7 727,4 -4,4"/>
<text text-anchor="middle" x="72.4936" y="-7.3" font-family="Helvetica,sans-Serif" font-size="11.00" fill="#000000">Generated by SchemaSpy</text>
<!-- opiskeluoikeus -->
<g id="node1" class="node">
<title>opiskeluoikeus</title>
<g id="a_node1"><a xlink:href="../../tables/opiskeluoikeus.html" xlink:title="opiskeluoikeus" target="_top">
<polygon fill="#ffffff" stroke="transparent" points="149,-38.2 149,-385.2 406,-385.2 406,-38.2 149,-38.2"/>
<polygon fill="#f5f5f5" stroke="transparent" points="149.5,-361.7 149.5,-384.7 406.5,-384.7 406.5,-361.7 149.5,-361.7"/>
<polygon fill="none" stroke="#000000" points="149.5,-361.7 149.5,-384.7 406.5,-384.7 406.5,-361.7 149.5,-361.7"/>
<text text-anchor="start" x="154.5" y="-370.3" font-family="Helvetica,sans-Serif" font-weight="bold" font-size="11.00" fill="#000000">opiskeluoikeus</text>
<text text-anchor="start" x="371.5437" y="-369.8" font-family="Helvetica,sans-Serif" font-size="11.00" fill="#000000">[table]</text>
<polygon fill="none" stroke="#000000" points="149.5,-339.7 149.5,-361.7 406.5,-361.7 406.5,-339.7 149.5,-339.7"/>
<image xlink:href="../../images/primaryKeys.png" width="11px" height="12px" preserveAspectRatio="xMinYMin meet" x="154.5" y="-356.7"/>
<text text-anchor="start" x="169.5" y="-346.8" font-family="Helvetica,sans-Serif" font-size="11.00" fill="#000000">id</text>
<polygon fill="#ffffff" stroke="transparent" points="149.5,-317.7 149.5,-339.7 406.5,-339.7 406.5,-317.7 149.5,-317.7"/>
<polygon fill="none" stroke="#000000" points="149.5,-317.7 149.5,-339.7 406.5,-339.7 406.5,-317.7 149.5,-317.7"/>
<image xlink:href="../../images/foreignKeys.png" width="11px" height="12px" preserveAspectRatio="xMinYMin meet" x="154.5" y="-334.7"/>
<text text-anchor="start" x="169.5" y="-324.8" font-family="Helvetica,sans-Serif" font-size="11.00" fill="#000000">oppija_oid</text>
<polygon fill="#ffffff" stroke="transparent" points="149.5,-295.7 149.5,-317.7 406.5,-317.7 406.5,-295.7 149.5,-295.7"/>
<polygon fill="none" stroke="#000000" points="149.5,-295.7 149.5,-317.7 406.5,-317.7 406.5,-295.7 149.5,-295.7"/>
<text text-anchor="start" x="169.5" y="-302.8" font-family="Helvetica,sans-Serif" font-size="11.00" fill="#000000">aikaleima</text>
<polygon fill="#ffffff" stroke="transparent" points="149.5,-273.7 149.5,-295.7 406.5,-295.7 406.5,-273.7 149.5,-273.7"/>
<polygon fill="none" stroke="#000000" points="149.5,-273.7 149.5,-295.7 406.5,-295.7 406.5,-273.7 149.5,-273.7"/>
<text text-anchor="start" x="169.5" y="-280.8" font-family="Helvetica,sans-Serif" font-size="11.00" fill="#000000">oppilaitos_oid</text>
<polygon fill="#ffffff" stroke="transparent" points="149.5,-251.7 149.5,-273.7 406.5,-273.7 406.5,-251.7 149.5,-251.7"/>
<polygon fill="none" stroke="#000000" points="149.5,-251.7 149.5,-273.7 406.5,-273.7 406.5,-251.7 149.5,-251.7"/>
<text text-anchor="start" x="169.5" y="-258.8" font-family="Helvetica,sans-Serif" font-size="11.00" fill="#000000">sisaltava_opiskeluoikeus_oppilaitos_oid</text>
<polygon fill="#ffffff" stroke="transparent" points="149.5,-229.7 149.5,-251.7 406.5,-251.7 406.5,-229.7 149.5,-229.7"/>
<polygon fill="none" stroke="#000000" points="149.5,-229.7 149.5,-251.7 406.5,-251.7 406.5,-229.7 149.5,-229.7"/>
<text text-anchor="start" x="169.5" y="-236.8" font-family="Helvetica,sans-Serif" font-size="11.00" fill="#000000">oid</text>
<polygon fill="none" stroke="#000000" points="149.5,-207.7 149.5,-229.7 406.5,-229.7 406.5,-207.7 149.5,-207.7"/>
<image xlink:href="../../images/foreignKeys.png" width="11px" height="12px" preserveAspectRatio="xMinYMin meet" x="154.5" y="-224.7"/>
<text text-anchor="start" x="169.5" y="-214.8" font-family="Helvetica,sans-Serif" font-size="11.00" fill="#000000">sisaltava_opiskeluoikeus_oid</text>
<polygon fill="#ffffff" stroke="transparent" points="149.5,-185.7 149.5,-207.7 406.5,-207.7 406.5,-185.7 149.5,-185.7"/>
<polygon fill="none" stroke="#000000" points="149.5,-185.7 149.5,-207.7 406.5,-207.7 406.5,-185.7 149.5,-185.7"/>
<text text-anchor="start" x="169.5" y="-192.8" font-family="Helvetica,sans-Serif" font-size="11.00" fill="#000000">mitatoity</text>
<polygon fill="#ffffff" stroke="transparent" points="149.5,-163.7 149.5,-185.7 406.5,-185.7 406.5,-163.7 149.5,-163.7"/>
<polygon fill="none" stroke="#000000" points="149.5,-163.7 149.5,-185.7 406.5,-185.7 406.5,-163.7 149.5,-163.7"/>
<text text-anchor="start" x="169.5" y="-170.8" font-family="Helvetica,sans-Serif" font-size="11.00" fill="#000000">koulutusmuoto</text>
<polygon fill="#ffffff" stroke="transparent" points="149.5,-141.7 149.5,-163.7 406.5,-163.7 406.5,-141.7 149.5,-141.7"/>
<polygon fill="none" stroke="#000000" points="149.5,-141.7 149.5,-163.7 406.5,-163.7 406.5,-141.7 149.5,-141.7"/>
<text text-anchor="start" x="169.5" y="-148.8" font-family="Helvetica,sans-Serif" font-size="11.00" fill="#000000">alkamispaiva</text>
<polygon fill="#ffffff" stroke="transparent" points="149.5,-119.7 149.5,-141.7 406.5,-141.7 406.5,-119.7 149.5,-119.7"/>
<polygon fill="none" stroke="#000000" points="149.5,-119.7 149.5,-141.7 406.5,-141.7 406.5,-119.7 149.5,-119.7"/>
<text text-anchor="start" x="169.5" y="-126.8" font-family="Helvetica,sans-Serif" font-size="11.00" fill="#000000">paattymispaiva</text>
<polygon fill="#ffffff" stroke="transparent" points="149.5,-97.7 149.5,-119.7 406.5,-119.7 406.5,-97.7 149.5,-97.7"/>
<polygon fill="none" stroke="#000000" points="149.5,-97.7 149.5,-119.7 406.5,-119.7 406.5,-97.7 149.5,-97.7"/>
<text text-anchor="start" x="169.5" y="-104.8" font-family="Helvetica,sans-Serif" font-size="11.00" fill="#000000">suoritustyypit</text>
<polygon fill="#ffffff" stroke="transparent" points="149.5,-75.7 149.5,-97.7 406.5,-97.7 406.5,-75.7 149.5,-75.7"/>
<polygon fill="none" stroke="#000000" points="149.5,-75.7 149.5,-97.7 406.5,-97.7 406.5,-75.7 149.5,-75.7"/>
<text text-anchor="start" x="169.5" y="-82.8" font-family="Helvetica,sans-Serif" font-size="11.00" fill="#000000">poistettu</text>
<polygon fill="none" stroke="#000000" points="149.5,-56.7 149.5,-75.7 406.5,-75.7 406.5,-56.7 149.5,-56.7"/>
<text text-anchor="start" x="152.5" y="-62.8" font-family="Helvetica,sans-Serif" font-size="11.00" fill="#000000">...</text>
<polygon fill="#ffffff" stroke="transparent" points="149.5,-37.7 149.5,-56.7 252.5,-56.7 252.5,-37.7 149.5,-37.7"/>
<polygon fill="none" stroke="#000000" points="149.5,-37.7 149.5,-56.7 252.5,-56.7 252.5,-37.7 149.5,-37.7"/>
<text text-anchor="start" x="152.5" y="-43.8" font-family="Helvetica,sans-Serif" font-size="11.00" fill="#000000">&lt; 2</text>
<polygon fill="#ffffff" stroke="transparent" points="252.5,-37.7 252.5,-56.7 343.5,-56.7 343.5,-37.7 252.5,-37.7"/>
<polygon fill="none" stroke="#000000" points="252.5,-37.7 252.5,-56.7 343.5,-56.7 343.5,-37.7 252.5,-37.7"/>
<text text-anchor="start" x="295.8807" y="-43.8" font-family="Helvetica,sans-Serif" font-size="11.00" fill="#000000">241 rows</text>
<polygon fill="#ffffff" stroke="transparent" points="343.5,-37.7 343.5,-56.7 406.5,-56.7 406.5,-37.7 343.5,-37.7"/>
<polygon fill="none" stroke="#000000" points="343.5,-37.7 343.5,-56.7 406.5,-56.7 406.5,-37.7 343.5,-37.7"/>
<text text-anchor="start" x="387.9053" y="-43.8" font-family="Helvetica,sans-Serif" font-size="11.00" fill="#000000">4 &gt;</text>
</a>
</g>
</g>
<!-- henkilo -->
<g id="node2" class="node">
<title>henkilo</title>
<g id="a_node2"><a xlink:href="../../tables/henkilo.html" xlink:title="henkilo" target="_top">
<polygon fill="#ffffff" stroke="transparent" points="8,-301.2 8,-362.2 100,-362.2 100,-301.2 8,-301.2"/>
<polygon fill="#f5f5f5" stroke="transparent" points="8,-338.7 8,-361.7 100,-361.7 100,-338.7 8,-338.7"/>
<polygon fill="none" stroke="#000000" points="8,-338.7 8,-361.7 100,-361.7 100,-338.7 8,-338.7"/>
<text text-anchor="start" x="13" y="-347.3" font-family="Helvetica,sans-Serif" font-weight="bold" font-size="11.00" fill="#000000">henkilo</text>
<text text-anchor="start" x="65.0437" y="-346.8" font-family="Helvetica,sans-Serif" font-size="11.00" fill="#000000">[table]</text>
<polygon fill="none" stroke="#000000" points="8,-319.7 8,-338.7 100,-338.7 100,-319.7 8,-319.7"/>
<text text-anchor="start" x="11" y="-325.8" font-family="Helvetica,sans-Serif" font-size="11.00" fill="#000000">...</text>
<polygon fill="#ffffff" stroke="transparent" points="8,-300.7 8,-319.7 29,-319.7 29,-300.7 8,-300.7"/>
<polygon fill="none" stroke="#000000" points="8,-300.7 8,-319.7 29,-319.7 29,-300.7 8,-300.7"/>
<text text-anchor="start" x="10.7027" y="-306.8" font-family="Helvetica,sans-Serif" font-size="11.00" fill="#000000">&lt; 1</text>
<polygon fill="#ffffff" stroke="transparent" points="29,-300.7 29,-319.7 79,-319.7 79,-300.7 29,-300.7"/>
<polygon fill="none" stroke="#000000" points="29,-300.7 29,-319.7 79,-319.7 79,-300.7 29,-300.7"/>
<text text-anchor="start" x="31.6904" y="-306.8" font-family="Helvetica,sans-Serif" font-size="11.00" fill="#000000">186 rows</text>
<polygon fill="#ffffff" stroke="transparent" points="79,-300.7 79,-319.7 100,-319.7 100,-300.7 79,-300.7"/>
<polygon fill="none" stroke="#000000" points="79,-300.7 79,-319.7 100,-319.7 100,-300.7 79,-300.7"/>
<text text-anchor="start" x="81.7027" y="-306.8" font-family="Helvetica,sans-Serif" font-size="11.00" fill="#000000">3 &gt;</text>
</a>
</g>
</g>
<!-- opiskeluoikeus&#45;&gt;henkilo -->
<g id="edge1" class="edge">
<title>opiskeluoikeus:w&#45;&gt;henkilo:e</title>
<path fill="none" stroke="#000000" d="M139.0474,-328.7C124.9907,-328.7 118.0469,-328.7 100,-328.7"/>
<polygon fill="#000000" stroke="#000000" points="148.7,-324.7 148.7,-332.7 147.1,-332.7 147.1,-324.7 148.7,-324.7"/>
<polyline fill="none" stroke="#000000" points="149.5,-328.7 145.5,-328.7 "/>
<ellipse fill="none" stroke="#000000" cx="142.3" cy="-328.7001" rx="3.2" ry="3.2"/>
</g>
<!-- opiskeluoikeushistoria -->
<g id="node3" class="node">
<title>opiskeluoikeushistoria</title>
<g id="a_node3"><a xlink:href="../../tables/opiskeluoikeushistoria.html" xlink:title="opiskeluoikeushistoria" target="_top">
<polygon fill="#ffffff" stroke="transparent" points="455,-391.7 455,-547.7 715,-547.7 715,-391.7 455,-391.7"/>
<polygon fill="#f5f5f5" stroke="transparent" points="457,-522.7 457,-545.7 713,-545.7 713,-522.7 457,-522.7"/>
<polygon fill="none" stroke="#000000" points="457,-522.7 457,-545.7 713,-545.7 713,-522.7 457,-522.7"/>
<text text-anchor="start" x="462" y="-531.3" font-family="Helvetica,sans-Serif" font-weight="bold" font-size="11.00" fill="#000000">opiskeluoikeushistoria</text>
<text text-anchor="start" x="678.0437" y="-530.8" font-family="Helvetica,sans-Serif" font-size="11.00" fill="#000000">[table]</text>
<polygon fill="none" stroke="#000000" points="457,-500.7 457,-522.7 614,-522.7 614,-500.7 457,-500.7"/>
<image xlink:href="../../images/primaryKeys.png" width="11px" height="12px" preserveAspectRatio="xMinYMin meet" x="462" y="-517.7"/>
<text text-anchor="start" x="477" y="-507.8" font-family="Helvetica,sans-Serif" font-size="11.00" fill="#000000">opiskeluoikeus_id</text>
<polygon fill="none" stroke="#000000" points="614,-500.7 614,-522.7 713,-522.7 713,-500.7 614,-500.7"/>
<text text-anchor="start" x="617" y="-508.4" font-family="Helvetica,sans-Serif" font-size="11.00" fill="#000000">int4[10]</text>
<polygon fill="none" stroke="#000000" points="457,-478.7 457,-500.7 614,-500.7 614,-478.7 457,-478.7"/>
<text text-anchor="start" x="477" y="-485.8" font-family="Helvetica,sans-Serif" font-size="11.00" fill="#000000">aikaleima</text>
<polygon fill="none" stroke="#000000" points="614,-478.7 614,-500.7 713,-500.7 713,-478.7 614,-478.7"/>
<text text-anchor="start" x="617" y="-486.4" font-family="Helvetica,sans-Serif" font-size="11.00" fill="#000000">timestamptz[35,6]</text>
<polygon fill="none" stroke="#000000" points="457,-456.7 457,-478.7 614,-478.7 614,-456.7 457,-456.7"/>
<text text-anchor="start" x="477" y="-463.8" font-family="Helvetica,sans-Serif" font-size="11.00" fill="#000000">kayttaja_oid</text>
<polygon fill="none" stroke="#000000" points="614,-456.7 614,-478.7 713,-478.7 713,-456.7 614,-456.7"/>
<text text-anchor="start" x="617" y="-464.4" font-family="Helvetica,sans-Serif" font-size="11.00" fill="#000000">text[2147483647]</text>
<polygon fill="none" stroke="#000000" points="457,-434.7 457,-456.7 614,-456.7 614,-434.7 457,-434.7"/>
<text text-anchor="start" x="477" y="-441.8" font-family="Helvetica,sans-Serif" font-size="11.00" fill="#000000">muutos</text>
<polygon fill="none" stroke="#000000" points="614,-434.7 614,-456.7 713,-456.7 713,-434.7 614,-434.7"/>
<text text-anchor="start" x="616.7258" y="-442.4" font-family="Helvetica,sans-Serif" font-size="11.00" fill="#000000">jsonb[2147483647]</text>
<polygon fill="none" stroke="#000000" points="457,-412.7 457,-434.7 614,-434.7 614,-412.7 457,-412.7"/>
<image xlink:href="../../images/primaryKeys.png" width="11px" height="12px" preserveAspectRatio="xMinYMin meet" x="462" y="-429.7"/>
<text text-anchor="start" x="477" y="-419.8" font-family="Helvetica,sans-Serif" font-size="11.00" fill="#000000">versionumero</text>
<polygon fill="none" stroke="#000000" points="614,-412.7 614,-434.7 713,-434.7 713,-412.7 614,-412.7"/>
<text text-anchor="start" x="617" y="-420.4" font-family="Helvetica,sans-Serif" font-size="11.00" fill="#000000">int4[10]</text>
<polygon fill="#ffffff" stroke="transparent" points="457,-393.7 457,-412.7 521,-412.7 521,-393.7 457,-393.7"/>
<polygon fill="none" stroke="#000000" points="457,-393.7 457,-412.7 521,-412.7 521,-393.7 457,-393.7"/>
<text text-anchor="start" x="460" y="-399.8" font-family="Helvetica,sans-Serif" font-size="11.00" fill="#000000">&lt; 1</text>
<polygon fill="#ffffff" stroke="transparent" points="521,-393.7 521,-412.7 614,-412.7 614,-393.7 521,-393.7"/>
<polygon fill="none" stroke="#000000" points="521,-393.7 521,-412.7 614,-412.7 614,-393.7 521,-393.7"/>
<text text-anchor="start" x="566.3807" y="-399.8" font-family="Helvetica,sans-Serif" font-size="11.00" fill="#000000">241 rows</text>
<polygon fill="#ffffff" stroke="transparent" points="614,-393.7 614,-412.7 713,-412.7 713,-393.7 614,-393.7"/>
<polygon fill="none" stroke="#000000" points="614,-393.7 614,-412.7 713,-412.7 713,-393.7 614,-393.7"/>
<text text-anchor="start" x="694.4053" y="-399.8" font-family="Helvetica,sans-Serif" font-size="11.00" fill="#000000">0 &gt;</text>
<polygon fill="none" stroke="#000000" stroke-width="2" points="456,-392.7 456,-546.7 714,-546.7 714,-392.7 456,-392.7"/>
</a>
</g>
</g>
<!-- opiskeluoikeushistoria&#45;&gt;opiskeluoikeus -->
<g id="edge2" class="edge">
<title>opiskeluoikeushistoria:w&#45;&gt;opiskeluoikeus:e</title>
<path fill="none" stroke="#000000" d="M442.7458,-509.0399C396.1507,-488.1068 475.7806,-350.7 406.5,-350.7"/>
<polygon fill="#000000" stroke="#000000" points="449.1358,-510.2323 456.3395,-515.2389 453.0679,-510.9662 457,-511.7 457,-511.7 457,-511.7 453.0679,-510.9662 457.6605,-508.1611 449.1358,-510.2323 449.1358,-510.2323"/>
<ellipse fill="none" stroke="#000000" cx="445.9901" cy="-509.6453" rx="3.2" ry="3.2"/>
</g>
<!-- perustiedot_manual_sync -->
<g id="node4" class="node">
<title>perustiedot_manual_sync</title>
<g id="a_node4"><a xlink:href="../../tables/perustiedot_manual_sync.html" xlink:title="perustiedot_manual_sync" target="_top">
<polygon fill="#ffffff" stroke="transparent" points="489.5,-213.2 489.5,-274.2 680.5,-274.2 680.5,-213.2 489.5,-213.2"/>
<polygon fill="#f5f5f5" stroke="transparent" points="490,-250.7 490,-273.7 681,-273.7 681,-250.7 490,-250.7"/>
<polygon fill="none" stroke="#000000" points="490,-250.7 490,-273.7 681,-273.7 681,-250.7 490,-250.7"/>
<text text-anchor="start" x="495" y="-259.3" font-family="Helvetica,sans-Serif" font-weight="bold" font-size="11.00" fill="#000000">perustiedot_manual_sync</text>
<text text-anchor="start" x="646.5219" y="-258.8" font-family="Helvetica,sans-Serif" font-size="11.00" fill="#000000">[table]</text>
<polygon fill="none" stroke="#000000" points="490,-231.7 490,-250.7 681,-250.7 681,-231.7 490,-231.7"/>
<text text-anchor="start" x="493" y="-237.8" font-family="Helvetica,sans-Serif" font-size="11.00" fill="#000000">...</text>
<polygon fill="#ffffff" stroke="transparent" points="490,-212.7 490,-231.7 584,-231.7 584,-212.7 490,-212.7"/>
<polygon fill="none" stroke="#000000" points="490,-212.7 490,-231.7 584,-231.7 584,-212.7 490,-212.7"/>
<text text-anchor="start" x="493" y="-218.8" font-family="Helvetica,sans-Serif" font-size="11.00" fill="#000000">&lt; 1</text>
<polygon fill="#ffffff" stroke="transparent" points="584,-212.7 584,-231.7 632,-231.7 632,-212.7 584,-212.7"/>
<polygon fill="none" stroke="#000000" points="584,-212.7 584,-231.7 632,-231.7 632,-212.7 584,-212.7"/>
<text text-anchor="start" x="622.8862" y="-218.8" font-family="Helvetica,sans-Serif" font-size="11.00" fill="#000000"> &#160;</text>
<polygon fill="#ffffff" stroke="transparent" points="632,-212.7 632,-231.7 681,-231.7 681,-212.7 632,-212.7"/>
<polygon fill="none" stroke="#000000" points="632,-212.7 632,-231.7 681,-231.7 681,-212.7 632,-212.7"/>
<text text-anchor="start" x="671.8862" y="-218.8" font-family="Helvetica,sans-Serif" font-size="11.00" fill="#000000"> &#160;</text>
</a>
</g>
</g>
<!-- perustiedot_manual_sync&#45;&gt;opiskeluoikeus -->
<g id="edge3" class="edge">
<title>perustiedot_manual_sync:w&#45;&gt;opiskeluoikeus:e</title>
<path fill="none" stroke="#000000" d="M475.485,-240.7C449.6256,-240.7 438.2474,-240.7 406.5,-240.7"/>
<polygon fill="#000000" stroke="#000000" points="482,-240.7001 490,-244.3 486,-240.7 490,-240.7 490,-240.7 490,-240.7 486,-240.7 490,-237.1 482,-240.7001 482,-240.7001"/>
<ellipse fill="none" stroke="#000000" cx="478.8" cy="-240.7001" rx="3.2" ry="3.2"/>
</g>
<!-- perustiedot_sync -->
<g id="node5" class="node">
<title>perustiedot_sync</title>
<g id="a_node5"><a xlink:href="../../tables/perustiedot_sync.html" xlink:title="perustiedot_sync" target="_top">
<polygon fill="#ffffff" stroke="transparent" points="515,-309.2 515,-370.2 655,-370.2 655,-309.2 515,-309.2"/>
<polygon fill="#f5f5f5" stroke="transparent" points="515,-346.7 515,-369.7 655,-369.7 655,-346.7 515,-346.7"/>
<polygon fill="none" stroke="#000000" points="515,-346.7 515,-369.7 655,-369.7 655,-346.7 515,-346.7"/>
<text text-anchor="start" x="520" y="-355.3" font-family="Helvetica,sans-Serif" font-weight="bold" font-size="11.00" fill="#000000">perustiedot_sync</text>
<text text-anchor="start" x="620.5219" y="-354.8" font-family="Helvetica,sans-Serif" font-size="11.00" fill="#000000">[table]</text>
<polygon fill="none" stroke="#000000" points="515,-327.7 515,-346.7 655,-346.7 655,-327.7 515,-327.7"/>
<text text-anchor="start" x="518" y="-333.8" font-family="Helvetica,sans-Serif" font-size="11.00" fill="#000000">...</text>
<polygon fill="#ffffff" stroke="transparent" points="515,-308.7 515,-327.7 570,-327.7 570,-308.7 515,-308.7"/>
<polygon fill="none" stroke="#000000" points="515,-308.7 515,-327.7 570,-327.7 570,-308.7 515,-308.7"/>
<text text-anchor="start" x="518" y="-314.8" font-family="Helvetica,sans-Serif" font-size="11.00" fill="#000000">&lt; 1</text>
<polygon fill="#ffffff" stroke="transparent" points="570,-308.7 570,-327.7 625,-327.7 625,-308.7 570,-308.7"/>
<polygon fill="none" stroke="#000000" points="570,-308.7 570,-327.7 625,-327.7 625,-308.7 570,-308.7"/>
<text text-anchor="start" x="589.6105" y="-314.8" font-family="Helvetica,sans-Serif" font-size="11.00" fill="#000000">0 rows</text>
<polygon fill="#ffffff" stroke="transparent" points="625,-308.7 625,-327.7 655,-327.7 655,-308.7 625,-308.7"/>
<polygon fill="none" stroke="#000000" points="625,-308.7 625,-327.7 655,-327.7 655,-308.7 625,-308.7"/>
<text text-anchor="start" x="645.8862" y="-314.8" font-family="Helvetica,sans-Serif" font-size="11.00" fill="#000000"> &#160;</text>
</a>
</g>
</g>
<!-- perustiedot_sync&#45;&gt;opiskeluoikeus -->
<g id="edge4" class="edge">
<title>perustiedot_sync:w&#45;&gt;opiskeluoikeus:e</title>
<path fill="none" stroke="#000000" d="M500.2891,-337.1658C463.4687,-339.595 449.804,-350.7 406.5,-350.7"/>
<polygon fill="#000000" stroke="#000000" points="507.004,-336.9532 515.114,-340.2982 511.002,-336.8266 515,-336.7 515,-336.7 515,-336.7 511.002,-336.8266 514.886,-333.1018 507.004,-336.9532 507.004,-336.9532"/>
<ellipse fill="none" stroke="#000000" cx="503.8056" cy="-337.0545" rx="3.2" ry="3.2"/>
</g>
</g>
</svg>
