<?xml version="1.0" encoding="UTF-8" standalone="no"?>
<!DOCTYPE svg PUBLIC "-//W3C//DTD SVG 1.1//EN"
 "http://www.w3.org/Graphics/SVG/1.1/DTD/svg11.dtd">
<!-- Generated by graphviz version 2.40.1 (20161225.0304)
 -->
<!-- Title: twoDegreesRelationshipsDiagram Pages: 1 -->
<svg width="730pt" height="560pt"
 viewBox="0.00 0.00 730.00 559.70" xmlns="http://www.w3.org/2000/svg" xmlns:xlink="http://www.w3.org/1999/xlink">
<g id="graph0" class="graph" transform="scale(1 1) rotate(0) translate(4 555.7)">
<title>twoDegreesRelationshipsDiagram</title>
<polygon fill="#ffffff" stroke="transparent" points="-4,4 -4,-555.7 726,-555.7 726,4 -4,4"/>
<text text-anchor="middle" x="72.4936" y="-7.3" font-family="Helvetica,sans-Serif" font-size="11.00" fill="#000000">Generated by SchemaSpy</text>
<!-- opiskeluoikeus -->
<g id="node1" class="node">
<title>opiskeluoikeus</title>
<g id="a_node1"><a xlink:href="../../tables/opiskeluoikeus.html" xlink:title="opiskeluoikeus" target="_top">
<polygon fill="#ffffff" stroke="transparent" points="149,-38.2 149,-385.2 405,-385.2 405,-38.2 149,-38.2"/>
<polygon fill="#f5f5f5" stroke="transparent" points="149,-361.7 149,-384.7 405,-384.7 405,-361.7 149,-361.7"/>
<polygon fill="none" stroke="#000000" points="149,-361.7 149,-384.7 405,-384.7 405,-361.7 149,-361.7"/>
<text text-anchor="start" x="154" y="-370.3" font-family="Helvetica,sans-Serif" font-weight="bold" font-size="11.00" fill="#000000">opiskeluoikeus</text>
<text text-anchor="start" x="370.0437" y="-369.8" font-family="Helvetica,sans-Serif" font-size="11.00" fill="#000000">[table]</text>
<polygon fill="none" stroke="#000000" points="149,-339.7 149,-361.7 405,-361.7 405,-339.7 149,-339.7"/>
<image xlink:href="../../images/primaryKeys.png" width="11px" height="12px" preserveAspectRatio="xMinYMin meet" x="154" y="-356.7"/>
<text text-anchor="start" x="169" y="-346.8" font-family="Helvetica,sans-Serif" font-size="11.00" fill="#000000">id</text>
<polygon fill="#ffffff" stroke="transparent" points="149,-317.7 149,-339.7 405,-339.7 405,-317.7 149,-317.7"/>
<polygon fill="none" stroke="#000000" points="149,-317.7 149,-339.7 405,-339.7 405,-317.7 149,-317.7"/>
<image xlink:href="../../images/foreignKeys.png" width="11px" height="12px" preserveAspectRatio="xMinYMin meet" x="154" y="-334.7"/>
<text text-anchor="start" x="169" y="-324.8" font-family="Helvetica,sans-Serif" font-size="11.00" fill="#000000">oppija_oid</text>
<polygon fill="#ffffff" stroke="transparent" points="149,-295.7 149,-317.7 405,-317.7 405,-295.7 149,-295.7"/>
<polygon fill="none" stroke="#000000" points="149,-295.7 149,-317.7 405,-317.7 405,-295.7 149,-295.7"/>
<text text-anchor="start" x="169" y="-302.8" font-family="Helvetica,sans-Serif" font-size="11.00" fill="#000000">aikaleima</text>
<polygon fill="#ffffff" stroke="transparent" points="149,-273.7 149,-295.7 405,-295.7 405,-273.7 149,-273.7"/>
<polygon fill="none" stroke="#000000" points="149,-273.7 149,-295.7 405,-295.7 405,-273.7 149,-273.7"/>
<text text-anchor="start" x="169" y="-280.8" font-family="Helvetica,sans-Serif" font-size="11.00" fill="#000000">oppilaitos_oid</text>
<polygon fill="#ffffff" stroke="transparent" points="149,-251.7 149,-273.7 405,-273.7 405,-251.7 149,-251.7"/>
<polygon fill="none" stroke="#000000" points="149,-251.7 149,-273.7 405,-273.7 405,-251.7 149,-251.7"/>
<text text-anchor="start" x="169" y="-258.8" font-family="Helvetica,sans-Serif" font-size="11.00" fill="#000000">sisaltava_opiskeluoikeus_oppilaitos_oid</text>
<polygon fill="#ffffff" stroke="transparent" points="149,-229.7 149,-251.7 405,-251.7 405,-229.7 149,-229.7"/>
<polygon fill="none" stroke="#000000" points="149,-229.7 149,-251.7 405,-251.7 405,-229.7 149,-229.7"/>
<text text-anchor="start" x="169" y="-236.8" font-family="Helvetica,sans-Serif" font-size="11.00" fill="#000000">oid</text>
<polygon fill="none" stroke="#000000" points="149,-207.7 149,-229.7 405,-229.7 405,-207.7 149,-207.7"/>
<image xlink:href="../../images/foreignKeys.png" width="11px" height="12px" preserveAspectRatio="xMinYMin meet" x="154" y="-224.7"/>
<text text-anchor="start" x="169" y="-214.8" font-family="Helvetica,sans-Serif" font-size="11.00" fill="#000000">sisaltava_opiskeluoikeus_oid</text>
<polygon fill="#ffffff" stroke="transparent" points="149,-185.7 149,-207.7 405,-207.7 405,-185.7 149,-185.7"/>
<polygon fill="none" stroke="#000000" points="149,-185.7 149,-207.7 405,-207.7 405,-185.7 149,-185.7"/>
<text text-anchor="start" x="169" y="-192.8" font-family="Helvetica,sans-Serif" font-size="11.00" fill="#000000">mitatoity</text>
<polygon fill="#ffffff" stroke="transparent" points="149,-163.7 149,-185.7 405,-185.7 405,-163.7 149,-163.7"/>
<polygon fill="none" stroke="#000000" points="149,-163.7 149,-185.7 405,-185.7 405,-163.7 149,-163.7"/>
<text text-anchor="start" x="169" y="-170.8" font-family="Helvetica,sans-Serif" font-size="11.00" fill="#000000">koulutusmuoto</text>
<polygon fill="#ffffff" stroke="transparent" points="149,-141.7 149,-163.7 405,-163.7 405,-141.7 149,-141.7"/>
<polygon fill="none" stroke="#000000" points="149,-141.7 149,-163.7 405,-163.7 405,-141.7 149,-141.7"/>
<text text-anchor="start" x="169" y="-148.8" font-family="Helvetica,sans-Serif" font-size="11.00" fill="#000000">alkamispaiva</text>
<polygon fill="#ffffff" stroke="transparent" points="149,-119.7 149,-141.7 405,-141.7 405,-119.7 149,-119.7"/>
<polygon fill="none" stroke="#000000" points="149,-119.7 149,-141.7 405,-141.7 405,-119.7 149,-119.7"/>
<text text-anchor="start" x="169" y="-126.8" font-family="Helvetica,sans-Serif" font-size="11.00" fill="#000000">paattymispaiva</text>
<polygon fill="#ffffff" stroke="transparent" points="149,-97.7 149,-119.7 405,-119.7 405,-97.7 149,-97.7"/>
<polygon fill="none" stroke="#000000" points="149,-97.7 149,-119.7 405,-119.7 405,-97.7 149,-97.7"/>
<text text-anchor="start" x="169" y="-104.8" font-family="Helvetica,sans-Serif" font-size="11.00" fill="#000000">suoritustyypit</text>
<polygon fill="#ffffff" stroke="transparent" points="149,-75.7 149,-97.7 405,-97.7 405,-75.7 149,-75.7"/>
<polygon fill="none" stroke="#000000" points="149,-75.7 149,-97.7 405,-97.7 405,-75.7 149,-75.7"/>
<text text-anchor="start" x="169" y="-82.8" font-family="Helvetica,sans-Serif" font-size="11.00" fill="#000000">poistettu</text>
<polygon fill="none" stroke="#000000" points="149,-56.7 149,-75.7 405,-75.7 405,-56.7 149,-56.7"/>
<text text-anchor="start" x="152" y="-62.8" font-family="Helvetica,sans-Serif" font-size="11.00" fill="#000000">...</text>
<polygon fill="#ffffff" stroke="transparent" points="149,-37.7 149,-56.7 252,-56.7 252,-37.7 149,-37.7"/>
<polygon fill="none" stroke="#000000" points="149,-37.7 149,-56.7 252,-56.7 252,-37.7 149,-37.7"/>
<text text-anchor="start" x="152" y="-43.8" font-family="Helvetica,sans-Serif" font-size="11.00" fill="#000000">&lt; 2</text>
<polygon fill="#ffffff" stroke="transparent" points="252,-37.7 252,-56.7 343,-56.7 343,-37.7 252,-37.7"/>
<polygon fill="none" stroke="#000000" points="252,-37.7 252,-56.7 343,-56.7 343,-37.7 252,-37.7"/>
<text text-anchor="start" x="295.3807" y="-43.8" font-family="Helvetica,sans-Serif" font-size="11.00" fill="#000000">184 rows</text>
<polygon fill="#ffffff" stroke="transparent" points="343,-37.7 343,-56.7 405,-56.7 405,-37.7 343,-37.7"/>
<polygon fill="none" stroke="#000000" points="343,-37.7 343,-56.7 405,-56.7 405,-37.7 343,-37.7"/>
<text text-anchor="start" x="386.4053" y="-43.8" font-family="Helvetica,sans-Serif" font-size="11.00" fill="#000000">4 &gt;</text>
</a>
</g>
</g>
<!-- henkilo -->
<g id="node2" class="node">
<title>henkilo</title>
<g id="a_node2"><a xlink:href="../../tables/henkilo.html" xlink:title="henkilo" target="_top">
<polygon fill="#ffffff" stroke="transparent" points="8,-301.2 8,-362.2 100,-362.2 100,-301.2 8,-301.2"/>
<polygon fill="#f5f5f5" stroke="transparent" points="8,-338.7 8,-361.7 100,-361.7 100,-338.7 8,-338.7"/>
<polygon fill="none" stroke="#000000" points="8,-338.7 8,-361.7 100,-361.7 100,-338.7 8,-338.7"/>
<text text-anchor="start" x="13" y="-347.3" font-family="Helvetica,sans-Serif" font-weight="bold" font-size="11.00" fill="#000000">henkilo</text>
<text text-anchor="start" x="65.0437" y="-346.8" font-family="Helvetica,sans-Serif" font-size="11.00" fill="#000000">[table]</text>
<polygon fill="none" stroke="#000000" points="8,-319.7 8,-338.7 100,-338.7 100,-319.7 8,-319.7"/>
<text text-anchor="start" x="11" y="-325.8" font-family="Helvetica,sans-Serif" font-size="11.00" fill="#000000">...</text>
<polygon fill="#ffffff" stroke="transparent" points="8,-300.7 8,-319.7 29,-319.7 29,-300.7 8,-300.7"/>
<polygon fill="none" stroke="#000000" points="8,-300.7 8,-319.7 29,-319.7 29,-300.7 8,-300.7"/>
<text text-anchor="start" x="10.7027" y="-306.8" font-family="Helvetica,sans-Serif" font-size="11.00" fill="#000000">&lt; 1</text>
<polygon fill="#ffffff" stroke="transparent" points="29,-300.7 29,-319.7 79,-319.7 79,-300.7 29,-300.7"/>
<polygon fill="none" stroke="#000000" points="29,-300.7 29,-319.7 79,-319.7 79,-300.7 29,-300.7"/>
<text text-anchor="start" x="31.6904" y="-306.8" font-family="Helvetica,sans-Serif" font-size="11.00" fill="#000000">205 rows</text>
<polygon fill="#ffffff" stroke="transparent" points="79,-300.7 79,-319.7 100,-319.7 100,-300.7 79,-300.7"/>
<polygon fill="none" stroke="#000000" points="79,-300.7 79,-319.7 100,-319.7 100,-300.7 79,-300.7"/>
<text text-anchor="start" x="81.7027" y="-306.8" font-family="Helvetica,sans-Serif" font-size="11.00" fill="#000000">3 &gt;</text>
</a>
</g>
</g>
<!-- opiskeluoikeus&#45;&gt;henkilo -->
<g id="edge1" class="edge">
<title>opiskeluoikeus:w&#45;&gt;henkilo:e</title>
<path fill="none" stroke="#000000" d="M138.2573,-328.7C124.6063,-328.7 117.6944,-328.7 100,-328.7"/>
<polygon fill="#000000" stroke="#000000" points="148.2,-324.7 148.2,-332.7 146.6,-332.7 146.6,-324.7 148.2,-324.7"/>
<polyline fill="none" stroke="#000000" points="149,-328.7 145,-328.7 "/>
<ellipse fill="none" stroke="#000000" cx="141.8" cy="-328.7001" rx="3.2" ry="3.2"/>
</g>
<!-- opiskeluoikeushistoria -->
<g id="node3" class="node">
<title>opiskeluoikeushistoria</title>
<g id="a_node3"><a xlink:href="../../tables/opiskeluoikeushistoria.html" xlink:title="opiskeluoikeushistoria" target="_top">
<polygon fill="#ffffff" stroke="transparent" points="454,-391.7 454,-547.7 714,-547.7 714,-391.7 454,-391.7"/>
<polygon fill="#f5f5f5" stroke="transparent" points="456,-522.7 456,-545.7 712,-545.7 712,-522.7 456,-522.7"/>
<polygon fill="none" stroke="#000000" points="456,-522.7 456,-545.7 712,-545.7 712,-522.7 456,-522.7"/>
<text text-anchor="start" x="461" y="-531.3" font-family="Helvetica,sans-Serif" font-weight="bold" font-size="11.00" fill="#000000">opiskeluoikeushistoria</text>
<text text-anchor="start" x="677.0437" y="-530.8" font-family="Helvetica,sans-Serif" font-size="11.00" fill="#000000">[table]</text>
<polygon fill="none" stroke="#000000" points="456,-500.7 456,-522.7 613,-522.7 613,-500.7 456,-500.7"/>
<image xlink:href="../../images/primaryKeys.png" width="11px" height="12px" preserveAspectRatio="xMinYMin meet" x="461" y="-517.7"/>
<text text-anchor="start" x="476" y="-507.8" font-family="Helvetica,sans-Serif" font-size="11.00" fill="#000000">opiskeluoikeus_id</text>
<polygon fill="none" stroke="#000000" points="613,-500.7 613,-522.7 712,-522.7 712,-500.7 613,-500.7"/>
<text text-anchor="start" x="616" y="-508.4" font-family="Helvetica,sans-Serif" font-size="11.00" fill="#000000">int4[10]</text>
<polygon fill="none" stroke="#000000" points="456,-478.7 456,-500.7 613,-500.7 613,-478.7 456,-478.7"/>
<text text-anchor="start" x="476" y="-485.8" font-family="Helvetica,sans-Serif" font-size="11.00" fill="#000000">aikaleima</text>
<polygon fill="none" stroke="#000000" points="613,-478.7 613,-500.7 712,-500.7 712,-478.7 613,-478.7"/>
<text text-anchor="start" x="616" y="-486.4" font-family="Helvetica,sans-Serif" font-size="11.00" fill="#000000">timestamptz[35,6]</text>
<polygon fill="none" stroke="#000000" points="456,-456.7 456,-478.7 613,-478.7 613,-456.7 456,-456.7"/>
<text text-anchor="start" x="476" y="-463.8" font-family="Helvetica,sans-Serif" font-size="11.00" fill="#000000">kayttaja_oid</text>
<polygon fill="none" stroke="#000000" points="613,-456.7 613,-478.7 712,-478.7 712,-456.7 613,-456.7"/>
<text text-anchor="start" x="616" y="-464.4" font-family="Helvetica,sans-Serif" font-size="11.00" fill="#000000">text[2147483647]</text>
<polygon fill="none" stroke="#000000" points="456,-434.7 456,-456.7 613,-456.7 613,-434.7 456,-434.7"/>
<text text-anchor="start" x="476" y="-441.8" font-family="Helvetica,sans-Serif" font-size="11.00" fill="#000000">muutos</text>
<polygon fill="none" stroke="#000000" points="613,-434.7 613,-456.7 712,-456.7 712,-434.7 613,-434.7"/>
<text text-anchor="start" x="615.7258" y="-442.4" font-family="Helvetica,sans-Serif" font-size="11.00" fill="#000000">jsonb[2147483647]</text>
<polygon fill="none" stroke="#000000" points="456,-412.7 456,-434.7 613,-434.7 613,-412.7 456,-412.7"/>
<image xlink:href="../../images/primaryKeys.png" width="11px" height="12px" preserveAspectRatio="xMinYMin meet" x="461" y="-429.7"/>
<text text-anchor="start" x="476" y="-419.8" font-family="Helvetica,sans-Serif" font-size="11.00" fill="#000000">versionumero</text>
<polygon fill="none" stroke="#000000" points="613,-412.7 613,-434.7 712,-434.7 712,-412.7 613,-412.7"/>
<text text-anchor="start" x="616" y="-420.4" font-family="Helvetica,sans-Serif" font-size="11.00" fill="#000000">int4[10]</text>
<polygon fill="#ffffff" stroke="transparent" points="456,-393.7 456,-412.7 520,-412.7 520,-393.7 456,-393.7"/>
<polygon fill="none" stroke="#000000" points="456,-393.7 456,-412.7 520,-412.7 520,-393.7 456,-393.7"/>
<text text-anchor="start" x="459" y="-399.8" font-family="Helvetica,sans-Serif" font-size="11.00" fill="#000000">&lt; 1</text>
<polygon fill="#ffffff" stroke="transparent" points="520,-393.7 520,-412.7 613,-412.7 613,-393.7 520,-393.7"/>
<polygon fill="none" stroke="#000000" points="520,-393.7 520,-412.7 613,-412.7 613,-393.7 520,-393.7"/>
<text text-anchor="start" x="565.3807" y="-399.8" font-family="Helvetica,sans-Serif" font-size="11.00" fill="#000000">186 rows</text>
<polygon fill="#ffffff" stroke="transparent" points="613,-393.7 613,-412.7 712,-412.7 712,-393.7 613,-393.7"/>
<polygon fill="none" stroke="#000000" points="613,-393.7 613,-412.7 712,-412.7 712,-393.7 613,-393.7"/>
<text text-anchor="start" x="693.4053" y="-399.8" font-family="Helvetica,sans-Serif" font-size="11.00" fill="#000000">0 &gt;</text>
<polygon fill="none" stroke="#000000" stroke-width="2" points="455,-392.7 455,-546.7 713,-546.7 713,-392.7 455,-392.7"/>
</a>
</g>
</g>
<!-- opiskeluoikeushistoria&#45;&gt;opiskeluoikeus -->
<g id="edge2" class="edge">
<title>opiskeluoikeushistoria:w&#45;&gt;opiskeluoikeus:e</title>
<path fill="none" stroke="#000000" d="M441.7255,-509.0399C395.0298,-488.1068 474.3424,-350.7 405,-350.7"/>
<polygon fill="#000000" stroke="#000000" points="448.1354,-510.2343 455.3405,-515.2391 452.0677,-510.9672 456,-511.7 456,-511.7 456,-511.7 452.0677,-510.9672 456.6595,-508.1609 448.1354,-510.2343 448.1354,-510.2343"/>
<ellipse fill="none" stroke="#000000" cx="444.9896" cy="-509.6481" rx="3.2" ry="3.2"/>
</g>
<!-- perustiedot_manual_sync -->
<g id="node4" class="node">
<title>perustiedot_manual_sync</title>
<g id="a_node4"><a xlink:href="../../tables/perustiedot_manual_sync.html" xlink:title="perustiedot_manual_sync" target="_top">
<polygon fill="#ffffff" stroke="transparent" points="488.5,-213.2 488.5,-274.2 679.5,-274.2 679.5,-213.2 488.5,-213.2"/>
<polygon fill="#f5f5f5" stroke="transparent" points="489,-250.7 489,-273.7 680,-273.7 680,-250.7 489,-250.7"/>
<polygon fill="none" stroke="#000000" points="489,-250.7 489,-273.7 680,-273.7 680,-250.7 489,-250.7"/>
<text text-anchor="start" x="494" y="-259.3" font-family="Helvetica,sans-Serif" font-weight="bold" font-size="11.00" fill="#000000">perustiedot_manual_sync</text>
<text text-anchor="start" x="645.5219" y="-258.8" font-family="Helvetica,sans-Serif" font-size="11.00" fill="#000000">[table]</text>
<polygon fill="none" stroke="#000000" points="489,-231.7 489,-250.7 680,-250.7 680,-231.7 489,-231.7"/>
<text text-anchor="start" x="492" y="-237.8" font-family="Helvetica,sans-Serif" font-size="11.00" fill="#000000">...</text>
<polygon fill="#ffffff" stroke="transparent" points="489,-212.7 489,-231.7 583,-231.7 583,-212.7 489,-212.7"/>
<polygon fill="none" stroke="#000000" points="489,-212.7 489,-231.7 583,-231.7 583,-212.7 489,-212.7"/>
<text text-anchor="start" x="492" y="-218.8" font-family="Helvetica,sans-Serif" font-size="11.00" fill="#000000">&lt; 1</text>
<polygon fill="#ffffff" stroke="transparent" points="583,-212.7 583,-231.7 631,-231.7 631,-212.7 583,-212.7"/>
<polygon fill="none" stroke="#000000" points="583,-212.7 583,-231.7 631,-231.7 631,-212.7 583,-212.7"/>
<text text-anchor="start" x="621.8862" y="-218.8" font-family="Helvetica,sans-Serif" font-size="11.00" fill="#000000"> &#160;</text>
<polygon fill="#ffffff" stroke="transparent" points="631,-212.7 631,-231.7 680,-231.7 680,-212.7 631,-212.7"/>
<polygon fill="none" stroke="#000000" points="631,-212.7 631,-231.7 680,-231.7 680,-212.7 631,-212.7"/>
<text text-anchor="start" x="670.8862" y="-218.8" font-family="Helvetica,sans-Serif" font-size="11.00" fill="#000000"> &#160;</text>
</a>
</g>
</g>
<!-- perustiedot_manual_sync&#45;&gt;opiskeluoikeus -->
<g id="edge3" class="edge">
<title>perustiedot_manual_sync:w&#45;&gt;opiskeluoikeus:e</title>
<path fill="none" stroke="#000000" d="M474.3981,-240.7C448.3839,-240.7 436.9375,-240.7 405,-240.7"/>
<polygon fill="#000000" stroke="#000000" points="481,-240.7001 489,-244.3 485,-240.7 489,-240.7 489,-240.7 489,-240.7 485,-240.7 489,-237.1 481,-240.7001 481,-240.7001"/>
<ellipse fill="none" stroke="#000000" cx="477.8" cy="-240.7001" rx="3.2" ry="3.2"/>
</g>
<!-- perustiedot_sync -->
<g id="node5" class="node">
<title>perustiedot_sync</title>
<g id="a_node5"><a xlink:href="../../tables/perustiedot_sync.html" xlink:title="perustiedot_sync" target="_top">
<polygon fill="#ffffff" stroke="transparent" points="514,-309.2 514,-370.2 654,-370.2 654,-309.2 514,-309.2"/>
<polygon fill="#f5f5f5" stroke="transparent" points="514,-346.7 514,-369.7 654,-369.7 654,-346.7 514,-346.7"/>
<polygon fill="none" stroke="#000000" points="514,-346.7 514,-369.7 654,-369.7 654,-346.7 514,-346.7"/>
<text text-anchor="start" x="519" y="-355.3" font-family="Helvetica,sans-Serif" font-weight="bold" font-size="11.00" fill="#000000">perustiedot_sync</text>
<text text-anchor="start" x="619.5219" y="-354.8" font-family="Helvetica,sans-Serif" font-size="11.00" fill="#000000">[table]</text>
<polygon fill="none" stroke="#000000" points="514,-327.7 514,-346.7 654,-346.7 654,-327.7 514,-327.7"/>
<text text-anchor="start" x="517" y="-333.8" font-family="Helvetica,sans-Serif" font-size="11.00" fill="#000000">...</text>
<polygon fill="#ffffff" stroke="transparent" points="514,-308.7 514,-327.7 569,-327.7 569,-308.7 514,-308.7"/>
<polygon fill="none" stroke="#000000" points="514,-308.7 514,-327.7 569,-327.7 569,-308.7 514,-308.7"/>
<text text-anchor="start" x="517" y="-314.8" font-family="Helvetica,sans-Serif" font-size="11.00" fill="#000000">&lt; 1</text>
<polygon fill="#ffffff" stroke="transparent" points="569,-308.7 569,-327.7 624,-327.7 624,-308.7 569,-308.7"/>
<polygon fill="none" stroke="#000000" points="569,-308.7 569,-327.7 624,-327.7 624,-308.7 569,-308.7"/>
<text text-anchor="start" x="588.6105" y="-314.8" font-family="Helvetica,sans-Serif" font-size="11.00" fill="#000000">0 rows</text>
<polygon fill="#ffffff" stroke="transparent" points="624,-308.7 624,-327.7 654,-327.7 654,-308.7 624,-308.7"/>
<polygon fill="none" stroke="#000000" points="624,-308.7 624,-327.7 654,-327.7 654,-308.7 624,-308.7"/>
<text text-anchor="start" x="644.8862" y="-314.8" font-family="Helvetica,sans-Serif" font-size="11.00" fill="#000000"> &#160;</text>
</a>
</g>
</g>
<!-- perustiedot_sync&#45;&gt;opiskeluoikeus -->
<g id="edge4" class="edge">
<title>perustiedot_sync:w&#45;&gt;opiskeluoikeus:e</title>
<path fill="none" stroke="#000000" d="M499.2222,-337.1658C462.2335,-339.595 448.5003,-350.7 405,-350.7"/>
<polygon fill="#000000" stroke="#000000" points="506.004,-336.9521 514.1134,-340.2982 510.002,-336.826 514,-336.7 514,-336.7 514,-336.7 510.002,-336.826 513.8866,-333.1018 506.004,-336.9521 506.004,-336.9521"/>
<ellipse fill="none" stroke="#000000" cx="502.8056" cy="-337.0529" rx="3.2" ry="3.2"/>
</g>
</g>
</svg>
