<?xml version="1.0" encoding="UTF-8" standalone="no"?>
<!DOCTYPE svg PUBLIC "-//W3C//DTD SVG 1.1//EN"
 "http://www.w3.org/Graphics/SVG/1.1/DTD/svg11.dtd">
<!-- Generated by graphviz version 2.40.1 (20161225.0304)
 -->
<!-- Title: oneDegreeRelationshipsDiagram Pages: 1 -->
<svg width="760pt" height="603pt"
 viewBox="0.00 0.00 760.00 602.70" xmlns="http://www.w3.org/2000/svg" xmlns:xlink="http://www.w3.org/1999/xlink">
<g id="graph0" class="graph" transform="scale(1 1) rotate(0) translate(4 598.7)">
<title>oneDegreeRelationshipsDiagram</title>
<polygon fill="#ffffff" stroke="transparent" points="-4,4 -4,-598.7 756,-598.7 756,4 -4,4"/>
<text text-anchor="middle" x="72.4936" y="-7.3" font-family="Helvetica,sans-Serif" font-size="11.00" fill="#000000">Generated by SchemaSpy</text>
<!-- opiskeluoikeus -->
<g id="node1" class="node">
<title>opiskeluoikeus</title>
<g id="a_node1"><a xlink:href="../../tables/opiskeluoikeus.html" xlink:title="opiskeluoikeus" target="_top">
<polygon fill="#ffffff" stroke="transparent" points="152,-38.2 152,-480.2 508,-480.2 508,-38.2 152,-38.2"/>
<polygon fill="#f5f5f5" stroke="transparent" points="154,-455.2 154,-478.2 506,-478.2 506,-455.2 154,-455.2"/>
<polygon fill="none" stroke="#000000" points="154,-455.2 154,-478.2 506,-478.2 506,-455.2 154,-455.2"/>
<text text-anchor="start" x="159" y="-463.8" font-family="Helvetica,sans-Serif" font-weight="bold" font-size="11.00" fill="#000000">opiskeluoikeus</text>
<text text-anchor="start" x="471.0437" y="-463.3" font-family="Helvetica,sans-Serif" font-size="11.00" fill="#000000">[table]</text>
<polygon fill="none" stroke="#000000" points="154,-433.2 154,-455.2 407,-455.2 407,-433.2 154,-433.2"/>
<image xlink:href="../../images/primaryKeys.png" width="11px" height="12px" preserveAspectRatio="xMinYMin meet" x="159" y="-450.2"/>
<text text-anchor="start" x="174" y="-440.3" font-family="Helvetica,sans-Serif" font-size="11.00" fill="#000000">id</text>
<polygon fill="none" stroke="#000000" points="407,-433.2 407,-455.2 506,-455.2 506,-433.2 407,-433.2"/>
<text text-anchor="start" x="410" y="-440.9" font-family="Helvetica,sans-Serif" font-size="11.00" fill="#000000">serial[10]</text>
<polygon fill="none" stroke="#000000" points="154,-411.2 154,-433.2 407,-433.2 407,-411.2 154,-411.2"/>
<text text-anchor="start" x="174" y="-418.3" font-family="Helvetica,sans-Serif" font-size="11.00" fill="#000000">data</text>
<polygon fill="none" stroke="#000000" points="407,-411.2 407,-433.2 506,-433.2 506,-411.2 407,-411.2"/>
<text text-anchor="start" x="409.7258" y="-418.9" font-family="Helvetica,sans-Serif" font-size="11.00" fill="#000000">jsonb[2147483647]</text>
<polygon fill="#ffffff" stroke="transparent" points="154,-389.2 154,-411.2 407,-411.2 407,-389.2 154,-389.2"/>
<polygon fill="none" stroke="#000000" points="154,-389.2 154,-411.2 407,-411.2 407,-389.2 154,-389.2"/>
<image xlink:href="../../images/foreignKeys.png" width="11px" height="12px" preserveAspectRatio="xMinYMin meet" x="159" y="-406.2"/>
<text text-anchor="start" x="174" y="-396.3" font-family="Helvetica,sans-Serif" font-size="11.00" fill="#000000">oppija_oid</text>
<polygon fill="none" stroke="#000000" points="407,-389.2 407,-411.2 506,-411.2 506,-389.2 407,-389.2"/>
<text text-anchor="start" x="410" y="-396.9" font-family="Helvetica,sans-Serif" font-size="11.00" fill="#000000">text[2147483647]</text>
<polygon fill="#ffffff" stroke="transparent" points="154,-367.2 154,-389.2 407,-389.2 407,-367.2 154,-367.2"/>
<polygon fill="none" stroke="#000000" points="154,-367.2 154,-389.2 407,-389.2 407,-367.2 154,-367.2"/>
<text text-anchor="start" x="174" y="-374.3" font-family="Helvetica,sans-Serif" font-size="11.00" fill="#000000">aikaleima</text>
<polygon fill="none" stroke="#000000" points="407,-367.2 407,-389.2 506,-389.2 506,-367.2 407,-367.2"/>
<text text-anchor="start" x="410" y="-374.9" font-family="Helvetica,sans-Serif" font-size="11.00" fill="#000000">timestamptz[35,6]</text>
<polygon fill="none" stroke="#000000" points="154,-345.2 154,-367.2 407,-367.2 407,-345.2 154,-345.2"/>
<text text-anchor="start" x="174" y="-352.3" font-family="Helvetica,sans-Serif" font-size="11.00" fill="#000000">versionumero</text>
<polygon fill="none" stroke="#000000" points="407,-345.2 407,-367.2 506,-367.2 506,-345.2 407,-345.2"/>
<text text-anchor="start" x="410" y="-352.9" font-family="Helvetica,sans-Serif" font-size="11.00" fill="#000000">int4[10]</text>
<polygon fill="#ffffff" stroke="transparent" points="154,-323.2 154,-345.2 407,-345.2 407,-323.2 154,-323.2"/>
<polygon fill="none" stroke="#000000" points="154,-323.2 154,-345.2 407,-345.2 407,-323.2 154,-323.2"/>
<text text-anchor="start" x="174" y="-330.3" font-family="Helvetica,sans-Serif" font-size="11.00" fill="#000000">oppilaitos_oid</text>
<polygon fill="none" stroke="#000000" points="407,-323.2 407,-345.2 506,-345.2 506,-323.2 407,-323.2"/>
<text text-anchor="start" x="410" y="-330.9" font-family="Helvetica,sans-Serif" font-size="11.00" fill="#000000">text[2147483647]</text>
<polygon fill="none" stroke="#000000" points="154,-301.2 154,-323.2 407,-323.2 407,-301.2 154,-301.2"/>
<text text-anchor="start" x="174" y="-308.3" font-family="Helvetica,sans-Serif" font-size="11.00" fill="#000000">koulutustoimija_oid</text>
<polygon fill="none" stroke="#000000" points="407,-301.2 407,-323.2 506,-323.2 506,-301.2 407,-301.2"/>
<text text-anchor="start" x="410" y="-308.9" font-family="Helvetica,sans-Serif" font-size="11.00" fill="#000000">text[2147483647]</text>
<polygon fill="none" stroke="#000000" points="154,-279.2 154,-301.2 407,-301.2 407,-279.2 154,-279.2"/>
<text text-anchor="start" x="174" y="-286.3" font-family="Helvetica,sans-Serif" font-size="11.00" fill="#000000">luokka</text>
<polygon fill="none" stroke="#000000" points="407,-279.2 407,-301.2 506,-301.2 506,-279.2 407,-279.2"/>
<text text-anchor="start" x="410" y="-286.9" font-family="Helvetica,sans-Serif" font-size="11.00" fill="#000000">text[2147483647]</text>
<polygon fill="#ffffff" stroke="transparent" points="154,-257.2 154,-279.2 407,-279.2 407,-257.2 154,-257.2"/>
<polygon fill="none" stroke="#000000" points="154,-257.2 154,-279.2 407,-279.2 407,-257.2 154,-257.2"/>
<text text-anchor="start" x="174" y="-264.3" font-family="Helvetica,sans-Serif" font-size="11.00" fill="#000000">sisaltava_opiskeluoikeus_oppilaitos_oid</text>
<polygon fill="none" stroke="#000000" points="407,-257.2 407,-279.2 506,-279.2 506,-257.2 407,-257.2"/>
<text text-anchor="start" x="410" y="-264.9" font-family="Helvetica,sans-Serif" font-size="11.00" fill="#000000">text[2147483647]</text>
<polygon fill="#ffffff" stroke="transparent" points="154,-235.2 154,-257.2 407,-257.2 407,-235.2 154,-235.2"/>
<polygon fill="none" stroke="#000000" points="154,-235.2 154,-257.2 407,-257.2 407,-235.2 154,-235.2"/>
<text text-anchor="start" x="174" y="-242.3" font-family="Helvetica,sans-Serif" font-size="11.00" fill="#000000">oid</text>
<polygon fill="none" stroke="#000000" points="407,-235.2 407,-257.2 506,-257.2 506,-235.2 407,-235.2"/>
<text text-anchor="start" x="410" y="-242.9" font-family="Helvetica,sans-Serif" font-size="11.00" fill="#000000">text[2147483647]</text>
<polygon fill="none" stroke="#000000" points="154,-213.2 154,-235.2 407,-235.2 407,-213.2 154,-213.2"/>
<image xlink:href="../../images/foreignKeys.png" width="11px" height="12px" preserveAspectRatio="xMinYMin meet" x="159" y="-230.2"/>
<text text-anchor="start" x="174" y="-220.3" font-family="Helvetica,sans-Serif" font-size="11.00" fill="#000000">sisaltava_opiskeluoikeus_oid</text>
<polygon fill="none" stroke="#000000" points="407,-213.2 407,-235.2 506,-235.2 506,-213.2 407,-213.2"/>
<text text-anchor="start" x="410" y="-220.9" font-family="Helvetica,sans-Serif" font-size="11.00" fill="#000000">text[2147483647]</text>
<polygon fill="#ffffff" stroke="transparent" points="154,-191.2 154,-213.2 407,-213.2 407,-191.2 154,-191.2"/>
<polygon fill="none" stroke="#000000" points="154,-191.2 154,-213.2 407,-213.2 407,-191.2 154,-191.2"/>
<text text-anchor="start" x="174" y="-198.3" font-family="Helvetica,sans-Serif" font-size="11.00" fill="#000000">mitatoity</text>
<polygon fill="none" stroke="#000000" points="407,-191.2 407,-213.2 506,-213.2 506,-191.2 407,-191.2"/>
<text text-anchor="start" x="410" y="-198.9" font-family="Helvetica,sans-Serif" font-size="11.00" fill="#000000">bool[1]</text>
<polygon fill="#ffffff" stroke="transparent" points="154,-169.2 154,-191.2 407,-191.2 407,-169.2 154,-169.2"/>
<polygon fill="none" stroke="#000000" points="154,-169.2 154,-191.2 407,-191.2 407,-169.2 154,-169.2"/>
<text text-anchor="start" x="174" y="-176.3" font-family="Helvetica,sans-Serif" font-size="11.00" fill="#000000">koulutusmuoto</text>
<polygon fill="none" stroke="#000000" points="407,-169.2 407,-191.2 506,-191.2 506,-169.2 407,-169.2"/>
<text text-anchor="start" x="410" y="-176.9" font-family="Helvetica,sans-Serif" font-size="11.00" fill="#000000">text[2147483647]</text>
<polygon fill="#ffffff" stroke="transparent" points="154,-147.2 154,-169.2 407,-169.2 407,-147.2 154,-147.2"/>
<polygon fill="none" stroke="#000000" points="154,-147.2 154,-169.2 407,-169.2 407,-147.2 154,-147.2"/>
<text text-anchor="start" x="174" y="-154.3" font-family="Helvetica,sans-Serif" font-size="11.00" fill="#000000">alkamispaiva</text>
<polygon fill="none" stroke="#000000" points="407,-147.2 407,-169.2 506,-169.2 506,-147.2 407,-147.2"/>
<text text-anchor="start" x="410" y="-154.9" font-family="Helvetica,sans-Serif" font-size="11.00" fill="#000000">date[13]</text>
<polygon fill="#ffffff" stroke="transparent" points="154,-125.2 154,-147.2 407,-147.2 407,-125.2 154,-125.2"/>
<polygon fill="none" stroke="#000000" points="154,-125.2 154,-147.2 407,-147.2 407,-125.2 154,-125.2"/>
<text text-anchor="start" x="174" y="-132.3" font-family="Helvetica,sans-Serif" font-size="11.00" fill="#000000">paattymispaiva</text>
<polygon fill="none" stroke="#000000" points="407,-125.2 407,-147.2 506,-147.2 506,-125.2 407,-125.2"/>
<text text-anchor="start" x="410" y="-132.9" font-family="Helvetica,sans-Serif" font-size="11.00" fill="#000000">date[13]</text>
<polygon fill="none" stroke="#000000" points="154,-103.2 154,-125.2 407,-125.2 407,-103.2 154,-103.2"/>
<text text-anchor="start" x="174" y="-110.3" font-family="Helvetica,sans-Serif" font-size="11.00" fill="#000000">suoritusjako_tehty_rajapaivan_jalkeen</text>
<polygon fill="none" stroke="#000000" points="407,-103.2 407,-125.2 506,-125.2 506,-103.2 407,-103.2"/>
<text text-anchor="start" x="410" y="-110.9" font-family="Helvetica,sans-Serif" font-size="11.00" fill="#000000">bool[1]</text>
<polygon fill="#ffffff" stroke="transparent" points="154,-81.2 154,-103.2 407,-103.2 407,-81.2 154,-81.2"/>
<polygon fill="none" stroke="#000000" points="154,-81.2 154,-103.2 407,-103.2 407,-81.2 154,-81.2"/>
<text text-anchor="start" x="174" y="-88.3" font-family="Helvetica,sans-Serif" font-size="11.00" fill="#000000">suoritustyypit</text>
<polygon fill="none" stroke="#000000" points="407,-81.2 407,-103.2 506,-103.2 506,-81.2 407,-81.2"/>
<text text-anchor="start" x="410" y="-88.9" font-family="Helvetica,sans-Serif" font-size="11.00" fill="#000000">_text[2147483647]</text>
<polygon fill="#ffffff" stroke="transparent" points="154,-59.2 154,-81.2 407,-81.2 407,-59.2 154,-59.2"/>
<polygon fill="none" stroke="#000000" points="154,-59.2 154,-81.2 407,-81.2 407,-59.2 154,-59.2"/>
<text text-anchor="start" x="174" y="-66.3" font-family="Helvetica,sans-Serif" font-size="11.00" fill="#000000">poistettu</text>
<polygon fill="none" stroke="#000000" points="407,-59.2 407,-81.2 506,-81.2 506,-59.2 407,-59.2"/>
<text text-anchor="start" x="410" y="-66.9" font-family="Helvetica,sans-Serif" font-size="11.00" fill="#000000">bool[1]</text>
<polygon fill="#ffffff" stroke="transparent" points="154,-40.2 154,-59.2 285,-59.2 285,-40.2 154,-40.2"/>
<polygon fill="none" stroke="#000000" points="154,-40.2 154,-59.2 285,-59.2 285,-40.2 154,-40.2"/>
<text text-anchor="start" x="157" y="-46.3" font-family="Helvetica,sans-Serif" font-size="11.00" fill="#000000">&lt; 2</text>
<polygon fill="#ffffff" stroke="transparent" points="285,-40.2 285,-59.2 407,-59.2 407,-40.2 285,-40.2"/>
<polygon fill="none" stroke="#000000" points="285,-40.2 285,-59.2 407,-59.2 407,-40.2 285,-40.2"/>
<text text-anchor="start" x="397.8862" y="-46.3" font-family="Helvetica,sans-Serif" font-size="11.00" fill="#000000"> &#160;</text>
<polygon fill="#ffffff" stroke="transparent" points="407,-40.2 407,-59.2 506,-59.2 506,-40.2 407,-40.2"/>
<polygon fill="none" stroke="#000000" points="407,-40.2 407,-59.2 506,-59.2 506,-40.2 407,-40.2"/>
<text text-anchor="start" x="487.4053" y="-46.3" font-family="Helvetica,sans-Serif" font-size="11.00" fill="#000000">4 &gt;</text>
<polygon fill="none" stroke="#000000" stroke-width="2" points="153,-39.2 153,-479.2 507,-479.2 507,-39.2 153,-39.2"/>
</a>
</g>
</g>
<!-- opiskeluoikeus&#45;&gt;opiskeluoikeus -->
<g id="edge2" class="edge">
<title>opiskeluoikeus:w&#45;&gt;opiskeluoikeus:e</title>
<path fill="none" stroke="#000000" d="M145.0178,-235.8166C86.0151,-320.9033 96.7222,-497.2 330,-497.2 574.5,-497.2 574.5,-325.5333 506,-246.2"/>
<polygon fill="#000000" stroke="#000000" points="149.1065,-230.5288 156.848,-226.4021 151.5532,-227.3644 154,-224.2 154,-224.2 154,-224.2 151.5532,-227.3644 151.152,-221.9979 149.1065,-230.5288 149.1065,-230.5288"/>
<ellipse fill="none" stroke="#000000" cx="147.149" cy="-233.0603" rx="3.2" ry="3.2"/>
</g>
<!-- henkilo -->
<g id="node2" class="node">
<title>henkilo</title>
<g id="a_node2"><a xlink:href="../../tables/henkilo.html" xlink:title="henkilo" target="_top">
<polygon fill="#ffffff" stroke="transparent" points="8,-329.7 8,-434.7 103,-434.7 103,-329.7 8,-329.7"/>
<polygon fill="#f5f5f5" stroke="transparent" points="8.5,-411.2 8.5,-434.2 103.5,-434.2 103.5,-411.2 8.5,-411.2"/>
<polygon fill="none" stroke="#000000" points="8.5,-411.2 8.5,-434.2 103.5,-434.2 103.5,-411.2 8.5,-411.2"/>
<text text-anchor="start" x="13.5" y="-419.8" font-family="Helvetica,sans-Serif" font-weight="bold" font-size="11.00" fill="#000000">henkilo</text>
<text text-anchor="start" x="68.5437" y="-419.3" font-family="Helvetica,sans-Serif" font-size="11.00" fill="#000000">[table]</text>
<polygon fill="none" stroke="#000000" points="8.5,-389.2 8.5,-411.2 103.5,-411.2 103.5,-389.2 8.5,-389.2"/>
<image xlink:href="../../images/primaryKeys.png" width="11px" height="12px" preserveAspectRatio="xMinYMin meet" x="13.5" y="-406.2"/>
<text text-anchor="start" x="28.5" y="-396.3" font-family="Helvetica,sans-Serif" font-size="11.00" fill="#000000">oid</text>
<polygon fill="#ffffff" stroke="transparent" points="8.5,-367.2 8.5,-389.2 103.5,-389.2 103.5,-367.2 8.5,-367.2"/>
<polygon fill="none" stroke="#000000" points="8.5,-367.2 8.5,-389.2 103.5,-389.2 103.5,-367.2 8.5,-367.2"/>
<image xlink:href="../../images/foreignKeys.png" width="11px" height="12px" preserveAspectRatio="xMinYMin meet" x="13.5" y="-384.2"/>
<text text-anchor="start" x="28.5" y="-374.3" font-family="Helvetica,sans-Serif" font-size="11.00" fill="#000000">master_oid</text>
<polygon fill="none" stroke="#000000" points="8.5,-348.2 8.5,-367.2 103.5,-367.2 103.5,-348.2 8.5,-348.2"/>
<text text-anchor="start" x="11.5" y="-354.3" font-family="Helvetica,sans-Serif" font-size="11.00" fill="#000000">...</text>
<polygon fill="#ffffff" stroke="transparent" points="8.5,-329.2 8.5,-348.2 30.5,-348.2 30.5,-329.2 8.5,-329.2"/>
<polygon fill="none" stroke="#000000" points="8.5,-329.2 8.5,-348.2 30.5,-348.2 30.5,-329.2 8.5,-329.2"/>
<text text-anchor="start" x="11.5" y="-335.3" font-family="Helvetica,sans-Serif" font-size="11.00" fill="#000000">&lt; 1</text>
<polygon fill="#ffffff" stroke="transparent" points="30.5,-329.2 30.5,-348.2 81.5,-348.2 81.5,-329.2 30.5,-329.2"/>
<polygon fill="none" stroke="#000000" points="30.5,-329.2 30.5,-348.2 81.5,-348.2 81.5,-329.2 30.5,-329.2"/>
<text text-anchor="start" x="33.8807" y="-335.3" font-family="Helvetica,sans-Serif" font-size="11.00" fill="#000000">191 rows</text>
<polygon fill="#ffffff" stroke="transparent" points="81.5,-329.2 81.5,-348.2 103.5,-348.2 103.5,-329.2 81.5,-329.2"/>
<polygon fill="none" stroke="#000000" points="81.5,-329.2 81.5,-348.2 103.5,-348.2 103.5,-329.2 81.5,-329.2"/>
<text text-anchor="start" x="84.9053" y="-335.3" font-family="Helvetica,sans-Serif" font-size="11.00" fill="#000000">3 &gt;</text>
</a>
</g>
</g>
<!-- opiskeluoikeus&#45;&gt;henkilo -->
<g id="edge1" class="edge">
<title>opiskeluoikeus:w&#45;&gt;henkilo:e</title>
<path fill="none" stroke="#000000" d="M143.3362,-400.2C128.9956,-400.2 121.9115,-400.2 103.5,-400.2"/>
<polygon fill="#000000" stroke="#000000" points="153.2,-396.2 153.2,-404.2 151.6,-404.2 151.6,-396.2 153.2,-396.2"/>
<polyline fill="none" stroke="#000000" points="154,-400.2 150,-400.2 "/>
<ellipse fill="none" stroke="#000000" cx="146.8" cy="-400.2001" rx="3.2" ry="3.2"/>
</g>
<!-- opiskeluoikeushistoria -->
<g id="node3" class="node">
<title>opiskeluoikeushistoria</title>
<g id="a_node3"><a xlink:href="../../tables/opiskeluoikeushistoria.html" xlink:title="opiskeluoikeushistoria" target="_top">
<polygon fill="#ffffff" stroke="transparent" points="566,-485.7 566,-590.7 735,-590.7 735,-485.7 566,-485.7"/>
<polygon fill="#f5f5f5" stroke="transparent" points="566.5,-567.2 566.5,-590.2 735.5,-590.2 735.5,-567.2 566.5,-567.2"/>
<polygon fill="none" stroke="#000000" points="566.5,-567.2 566.5,-590.2 735.5,-590.2 735.5,-567.2 566.5,-567.2"/>
<text text-anchor="start" x="571.5" y="-575.8" font-family="Helvetica,sans-Serif" font-weight="bold" font-size="11.00" fill="#000000">opiskeluoikeushistoria</text>
<text text-anchor="start" x="701.0219" y="-575.3" font-family="Helvetica,sans-Serif" font-size="11.00" fill="#000000">[table]</text>
<polygon fill="none" stroke="#000000" points="566.5,-545.2 566.5,-567.2 735.5,-567.2 735.5,-545.2 566.5,-545.2"/>
<image xlink:href="../../images/primaryKeys.png" width="11px" height="12px" preserveAspectRatio="xMinYMin meet" x="571.5" y="-562.2"/>
<text text-anchor="start" x="595.5" y="-552.3" font-family="Helvetica,sans-Serif" font-size="11.00" fill="#000000">opiskeluoikeus_id</text>
<polygon fill="none" stroke="#000000" points="566.5,-523.2 566.5,-545.2 735.5,-545.2 735.5,-523.2 566.5,-523.2"/>
<image xlink:href="../../images/primaryKeys.png" width="11px" height="12px" preserveAspectRatio="xMinYMin meet" x="571.5" y="-540.2"/>
<text text-anchor="start" x="595.5" y="-530.3" font-family="Helvetica,sans-Serif" font-size="11.00" fill="#000000">versionumero</text>
<polygon fill="none" stroke="#000000" points="566.5,-504.2 566.5,-523.2 735.5,-523.2 735.5,-504.2 566.5,-504.2"/>
<text text-anchor="start" x="569.5" y="-510.3" font-family="Helvetica,sans-Serif" font-size="11.00" fill="#000000">...</text>
<polygon fill="#ffffff" stroke="transparent" points="566.5,-485.2 566.5,-504.2 649.5,-504.2 649.5,-485.2 566.5,-485.2"/>
<polygon fill="none" stroke="#000000" points="566.5,-485.2 566.5,-504.2 649.5,-504.2 649.5,-485.2 566.5,-485.2"/>
<text text-anchor="start" x="569.5" y="-491.3" font-family="Helvetica,sans-Serif" font-size="11.00" fill="#000000">&lt; 1</text>
<polygon fill="#ffffff" stroke="transparent" points="649.5,-485.2 649.5,-504.2 692.5,-504.2 692.5,-485.2 649.5,-485.2"/>
<polygon fill="none" stroke="#000000" points="649.5,-485.2 649.5,-504.2 692.5,-504.2 692.5,-485.2 649.5,-485.2"/>
<text text-anchor="start" x="683.3862" y="-491.3" font-family="Helvetica,sans-Serif" font-size="11.00" fill="#000000"> &#160;</text>
<polygon fill="#ffffff" stroke="transparent" points="692.5,-485.2 692.5,-504.2 735.5,-504.2 735.5,-485.2 692.5,-485.2"/>
<polygon fill="none" stroke="#000000" points="692.5,-485.2 692.5,-504.2 735.5,-504.2 735.5,-485.2 692.5,-485.2"/>
<text text-anchor="start" x="726.3862" y="-491.3" font-family="Helvetica,sans-Serif" font-size="11.00" fill="#000000"> &#160;</text>
</a>
</g>
</g>
<!-- opiskeluoikeushistoria&#45;&gt;opiskeluoikeus -->
<g id="edge3" class="edge">
<title>opiskeluoikeushistoria:w&#45;&gt;opiskeluoikeus:e</title>
<path fill="none" stroke="#000000" d="M552.4132,-552.9688C519.4923,-534.6053 556.83,-444.2 506,-444.2"/>
<polygon fill="#000000" stroke="#000000" points="558.7025,-554.4114 565.6951,-559.7089 562.6012,-555.3057 566.5,-556.2 566.5,-556.2 566.5,-556.2 562.6012,-555.3057 567.3049,-552.6911 558.7025,-554.4114 558.7025,-554.4114"/>
<ellipse fill="none" stroke="#000000" cx="555.5835" cy="-553.696" rx="3.2" ry="3.2"/>
</g>
<!-- perustiedot_manual_sync -->
<g id="node4" class="node">
<title>perustiedot_manual_sync</title>
<g id="a_node4"><a xlink:href="../../tables/perustiedot_manual_sync.html" xlink:title="perustiedot_manual_sync" target="_top">
<polygon fill="#ffffff" stroke="transparent" points="557,-197.7 557,-302.7 744,-302.7 744,-197.7 557,-197.7"/>
<polygon fill="#f5f5f5" stroke="transparent" points="557.5,-279.2 557.5,-302.2 744.5,-302.2 744.5,-279.2 557.5,-279.2"/>
<polygon fill="none" stroke="#000000" points="557.5,-279.2 557.5,-302.2 744.5,-302.2 744.5,-279.2 557.5,-279.2"/>
<text text-anchor="start" x="562.5" y="-287.8" font-family="Helvetica,sans-Serif" font-weight="bold" font-size="11.00" fill="#000000">perustiedot_manual_sync</text>
<text text-anchor="start" x="710.0219" y="-287.3" font-family="Helvetica,sans-Serif" font-size="11.00" fill="#000000">[table]</text>
<polygon fill="none" stroke="#000000" points="557.5,-257.2 557.5,-279.2 744.5,-279.2 744.5,-257.2 557.5,-257.2"/>
<image xlink:href="../../images/primaryKeys.png" width="11px" height="12px" preserveAspectRatio="xMinYMin meet" x="562.5" y="-274.2"/>
<text text-anchor="start" x="586.5" y="-264.3" font-family="Helvetica,sans-Serif" font-size="11.00" fill="#000000">id</text>
<polygon fill="none" stroke="#000000" points="557.5,-235.2 557.5,-257.2 744.5,-257.2 744.5,-235.2 557.5,-235.2"/>
<image xlink:href="../../images/foreignKeys.png" width="11px" height="12px" preserveAspectRatio="xMinYMin meet" x="562.5" y="-252.2"/>
<text text-anchor="start" x="586.5" y="-242.3" font-family="Helvetica,sans-Serif" font-size="11.00" fill="#000000">opiskeluoikeus_oid</text>
<polygon fill="none" stroke="#000000" points="557.5,-216.2 557.5,-235.2 744.5,-235.2 744.5,-216.2 557.5,-216.2"/>
<text text-anchor="start" x="560.5" y="-222.3" font-family="Helvetica,sans-Serif" font-size="11.00" fill="#000000">...</text>
<polygon fill="#ffffff" stroke="transparent" points="557.5,-197.2 557.5,-216.2 649.5,-216.2 649.5,-197.2 557.5,-197.2"/>
<polygon fill="none" stroke="#000000" points="557.5,-197.2 557.5,-216.2 649.5,-216.2 649.5,-197.2 557.5,-197.2"/>
<text text-anchor="start" x="560.5" y="-203.3" font-family="Helvetica,sans-Serif" font-size="11.00" fill="#000000">&lt; 1</text>
<polygon fill="#ffffff" stroke="transparent" points="649.5,-197.2 649.5,-216.2 696.5,-216.2 696.5,-197.2 649.5,-197.2"/>
<polygon fill="none" stroke="#000000" points="649.5,-197.2 649.5,-216.2 696.5,-216.2 696.5,-197.2 649.5,-197.2"/>
<text text-anchor="start" x="687.3862" y="-203.3" font-family="Helvetica,sans-Serif" font-size="11.00" fill="#000000"> &#160;</text>
<polygon fill="#ffffff" stroke="transparent" points="696.5,-197.2 696.5,-216.2 744.5,-216.2 744.5,-197.2 696.5,-197.2"/>
<polygon fill="none" stroke="#000000" points="696.5,-197.2 696.5,-216.2 744.5,-216.2 744.5,-197.2 696.5,-197.2"/>
<text text-anchor="start" x="735.3862" y="-203.3" font-family="Helvetica,sans-Serif" font-size="11.00" fill="#000000"> &#160;</text>
</a>
</g>
</g>
<!-- perustiedot_manual_sync&#45;&gt;opiskeluoikeus -->
<g id="edge4" class="edge">
<title>perustiedot_manual_sync:w&#45;&gt;opiskeluoikeus:e</title>
<path fill="none" stroke="#000000" d="M543.0156,-246.2C530.6771,-246.2 523.1667,-246.2 506,-246.2"/>
<polygon fill="#000000" stroke="#000000" points="549.5,-246.2001 557.5,-249.8 553.5,-246.2 557.5,-246.2 557.5,-246.2 557.5,-246.2 553.5,-246.2 557.5,-242.6 549.5,-246.2001 549.5,-246.2001"/>
<ellipse fill="none" stroke="#000000" cx="546.3" cy="-246.2001" rx="3.2" ry="3.2"/>
</g>
<!-- perustiedot_sync -->
<g id="node5" class="node">
<title>perustiedot_sync</title>
<g id="a_node5"><a xlink:href="../../tables/perustiedot_sync.html" xlink:title="perustiedot_sync" target="_top">
<polygon fill="#ffffff" stroke="transparent" points="581.5,-359.7 581.5,-464.7 719.5,-464.7 719.5,-359.7 581.5,-359.7"/>
<polygon fill="#f5f5f5" stroke="transparent" points="581.5,-441.2 581.5,-464.2 719.5,-464.2 719.5,-441.2 581.5,-441.2"/>
<polygon fill="none" stroke="#000000" points="581.5,-441.2 581.5,-464.2 719.5,-464.2 719.5,-441.2 581.5,-441.2"/>
<text text-anchor="start" x="586.5" y="-449.8" font-family="Helvetica,sans-Serif" font-weight="bold" font-size="11.00" fill="#000000">perustiedot_sync</text>
<text text-anchor="start" x="685.0219" y="-449.3" font-family="Helvetica,sans-Serif" font-size="11.00" fill="#000000">[table]</text>
<polygon fill="none" stroke="#000000" points="581.5,-419.2 581.5,-441.2 719.5,-441.2 719.5,-419.2 581.5,-419.2"/>
<image xlink:href="../../images/primaryKeys.png" width="11px" height="12px" preserveAspectRatio="xMinYMin meet" x="586.5" y="-436.2"/>
<text text-anchor="start" x="608.5" y="-426.3" font-family="Helvetica,sans-Serif" font-size="11.00" fill="#000000">id</text>
<polygon fill="none" stroke="#000000" points="581.5,-397.2 581.5,-419.2 719.5,-419.2 719.5,-397.2 581.5,-397.2"/>
<image xlink:href="../../images/foreignKeys.png" width="11px" height="12px" preserveAspectRatio="xMinYMin meet" x="586.5" y="-414.2"/>
<text text-anchor="start" x="608.5" y="-404.3" font-family="Helvetica,sans-Serif" font-size="11.00" fill="#000000">opiskeluoikeus_id</text>
<polygon fill="none" stroke="#000000" points="581.5,-378.2 581.5,-397.2 719.5,-397.2 719.5,-378.2 581.5,-378.2"/>
<text text-anchor="start" x="584.5" y="-384.3" font-family="Helvetica,sans-Serif" font-size="11.00" fill="#000000">...</text>
<polygon fill="#ffffff" stroke="transparent" points="581.5,-359.2 581.5,-378.2 648.5,-378.2 648.5,-359.2 581.5,-359.2"/>
<polygon fill="none" stroke="#000000" points="581.5,-359.2 581.5,-378.2 648.5,-378.2 648.5,-359.2 581.5,-359.2"/>
<text text-anchor="start" x="584.5" y="-365.3" font-family="Helvetica,sans-Serif" font-size="11.00" fill="#000000">&lt; 1</text>
<polygon fill="#ffffff" stroke="transparent" points="648.5,-359.2 648.5,-378.2 683.5,-378.2 683.5,-359.2 648.5,-359.2"/>
<polygon fill="none" stroke="#000000" points="648.5,-359.2 648.5,-378.2 683.5,-378.2 683.5,-359.2 648.5,-359.2"/>
<text text-anchor="start" x="674.3862" y="-365.3" font-family="Helvetica,sans-Serif" font-size="11.00" fill="#000000"> &#160;</text>
<polygon fill="#ffffff" stroke="transparent" points="683.5,-359.2 683.5,-378.2 719.5,-378.2 719.5,-359.2 683.5,-359.2"/>
<polygon fill="none" stroke="#000000" points="683.5,-359.2 683.5,-378.2 719.5,-378.2 719.5,-359.2 683.5,-359.2"/>
<text text-anchor="start" x="710.3862" y="-365.3" font-family="Helvetica,sans-Serif" font-size="11.00" fill="#000000"> &#160;</text>
</a>
</g>
</g>
<!-- perustiedot_sync&#45;&gt;opiskeluoikeus -->
<g id="edge5" class="edge">
<title>perustiedot_sync:w&#45;&gt;opiskeluoikeus:e</title>
<path fill="none" stroke="#000000" d="M567.0912,-410.3442C543.1899,-418.0943 537.6568,-444.2 506,-444.2"/>
<polygon fill="#000000" stroke="#000000" points="573.5871,-409.3775 582.0299,-411.7608 577.5436,-408.7888 581.5,-408.2 581.5,-408.2 581.5,-408.2 577.5436,-408.7888 580.9701,-404.6392 573.5871,-409.3775 573.5871,-409.3775"/>
<ellipse fill="none" stroke="#000000" cx="570.422" cy="-409.8486" rx="3.2" ry="3.2"/>
</g>
</g>
</svg>
