<?xml version="1.0" encoding="UTF-8" standalone="no"?>
<!DOCTYPE svg PUBLIC "-//W3C//DTD SVG 1.1//EN"
 "http://www.w3.org/Graphics/SVG/1.1/DTD/svg11.dtd">
<!-- Generated by graphviz version 2.40.1 (20161225.0304)
 -->
<!-- Title: oneDegreeRelationshipsDiagram Pages: 1 -->
<svg width="383pt" height="492pt"
 viewBox="0.00 0.00 383.00 492.20" xmlns="http://www.w3.org/2000/svg" xmlns:xlink="http://www.w3.org/1999/xlink">
<g id="graph0" class="graph" transform="scale(1 1) rotate(0) translate(4 488.2)">
<title>oneDegreeRelationshipsDiagram</title>
<polygon fill="#ffffff" stroke="transparent" points="-4,4 -4,-488.2 379,-488.2 379,4 -4,4"/>
<text text-anchor="middle" x="72.4936" y="-7.3" font-family="Helvetica,sans-Serif" font-size="11.00" fill="#000000">Generated by SchemaSpy</text>
<!-- opiskeluoikeus_valpas_fixture -->
<g id="node1" class="node">
<title>opiskeluoikeus_valpas_fixture</title>
<g id="a_node1"><a xlink:href="../../tables/opiskeluoikeus_valpas_fixture.html" xlink:title="opiskeluoikeus_valpas_fixture" target="_top">
<polygon fill="#ffffff" stroke="transparent" points="8,-38.2 8,-480.2 367,-480.2 367,-38.2 8,-38.2"/>
<polygon fill="#f5f5f5" stroke="transparent" points="10.5,-455.2 10.5,-478.2 365.5,-478.2 365.5,-455.2 10.5,-455.2"/>
<polygon fill="none" stroke="#000000" points="10.5,-455.2 10.5,-478.2 365.5,-478.2 365.5,-455.2 10.5,-455.2"/>
<text text-anchor="start" x="15.5" y="-463.8" font-family="Helvetica,sans-Serif" font-weight="bold" font-size="11.00" fill="#000000">opiskeluoikeus_valpas_fixture</text>
<text text-anchor="start" x="330.5437" y="-463.3" font-family="Helvetica,sans-Serif" font-size="11.00" fill="#000000">[table]</text>
<polygon fill="none" stroke="#000000" points="10.5,-433.2 10.5,-455.2 266.5,-455.2 266.5,-433.2 10.5,-433.2"/>
<text text-anchor="start" x="30.5" y="-440.3" font-family="Helvetica,sans-Serif" font-size="11.00" fill="#000000">id</text>
<polygon fill="none" stroke="#000000" points="266.5,-433.2 266.5,-455.2 365.5,-455.2 365.5,-433.2 266.5,-433.2"/>
<text text-anchor="start" x="269.5" y="-440.9" font-family="Helvetica,sans-Serif" font-size="11.00" fill="#000000">int4[10]</text>
<polygon fill="none" stroke="#000000" points="10.5,-411.2 10.5,-433.2 266.5,-433.2 266.5,-411.2 10.5,-411.2"/>
<text text-anchor="start" x="30.5" y="-418.3" font-family="Helvetica,sans-Serif" font-size="11.00" fill="#000000">data</text>
<polygon fill="none" stroke="#000000" points="266.5,-411.2 266.5,-433.2 365.5,-433.2 365.5,-411.2 266.5,-411.2"/>
<text text-anchor="start" x="269.2258" y="-418.9" font-family="Helvetica,sans-Serif" font-size="11.00" fill="#000000">jsonb[2147483647]</text>
<polygon fill="none" stroke="#000000" points="10.5,-389.2 10.5,-411.2 266.5,-411.2 266.5,-389.2 10.5,-389.2"/>
<text text-anchor="start" x="30.5" y="-396.3" font-family="Helvetica,sans-Serif" font-size="11.00" fill="#000000">oppija_oid</text>
<polygon fill="none" stroke="#000000" points="266.5,-389.2 266.5,-411.2 365.5,-411.2 365.5,-389.2 266.5,-389.2"/>
<text text-anchor="start" x="269.5" y="-396.9" font-family="Helvetica,sans-Serif" font-size="11.00" fill="#000000">text[2147483647]</text>
<polygon fill="none" stroke="#000000" points="10.5,-367.2 10.5,-389.2 266.5,-389.2 266.5,-367.2 10.5,-367.2"/>
<text text-anchor="start" x="30.5" y="-374.3" font-family="Helvetica,sans-Serif" font-size="11.00" fill="#000000">aikaleima</text>
<polygon fill="none" stroke="#000000" points="266.5,-367.2 266.5,-389.2 365.5,-389.2 365.5,-367.2 266.5,-367.2"/>
<text text-anchor="start" x="269.5" y="-374.9" font-family="Helvetica,sans-Serif" font-size="11.00" fill="#000000">timestamptz[35,6]</text>
<polygon fill="none" stroke="#000000" points="10.5,-345.2 10.5,-367.2 266.5,-367.2 266.5,-345.2 10.5,-345.2"/>
<text text-anchor="start" x="30.5" y="-352.3" font-family="Helvetica,sans-Serif" font-size="11.00" fill="#000000">versionumero</text>
<polygon fill="none" stroke="#000000" points="266.5,-345.2 266.5,-367.2 365.5,-367.2 365.5,-345.2 266.5,-345.2"/>
<text text-anchor="start" x="269.5" y="-352.9" font-family="Helvetica,sans-Serif" font-size="11.00" fill="#000000">int4[10]</text>
<polygon fill="none" stroke="#000000" points="10.5,-323.2 10.5,-345.2 266.5,-345.2 266.5,-323.2 10.5,-323.2"/>
<text text-anchor="start" x="30.5" y="-330.3" font-family="Helvetica,sans-Serif" font-size="11.00" fill="#000000">oppilaitos_oid</text>
<polygon fill="none" stroke="#000000" points="266.5,-323.2 266.5,-345.2 365.5,-345.2 365.5,-323.2 266.5,-323.2"/>
<text text-anchor="start" x="269.5" y="-330.9" font-family="Helvetica,sans-Serif" font-size="11.00" fill="#000000">text[2147483647]</text>
<polygon fill="none" stroke="#000000" points="10.5,-301.2 10.5,-323.2 266.5,-323.2 266.5,-301.2 10.5,-301.2"/>
<text text-anchor="start" x="30.5" y="-308.3" font-family="Helvetica,sans-Serif" font-size="11.00" fill="#000000">koulutustoimija_oid</text>
<polygon fill="none" stroke="#000000" points="266.5,-301.2 266.5,-323.2 365.5,-323.2 365.5,-301.2 266.5,-301.2"/>
<text text-anchor="start" x="269.5" y="-308.9" font-family="Helvetica,sans-Serif" font-size="11.00" fill="#000000">text[2147483647]</text>
<polygon fill="none" stroke="#000000" points="10.5,-279.2 10.5,-301.2 266.5,-301.2 266.5,-279.2 10.5,-279.2"/>
<text text-anchor="start" x="30.5" y="-286.3" font-family="Helvetica,sans-Serif" font-size="11.00" fill="#000000">luokka</text>
<polygon fill="none" stroke="#000000" points="266.5,-279.2 266.5,-301.2 365.5,-301.2 365.5,-279.2 266.5,-279.2"/>
<text text-anchor="start" x="269.5" y="-286.9" font-family="Helvetica,sans-Serif" font-size="11.00" fill="#000000">text[2147483647]</text>
<polygon fill="none" stroke="#000000" points="10.5,-257.2 10.5,-279.2 266.5,-279.2 266.5,-257.2 10.5,-257.2"/>
<text text-anchor="start" x="30.5" y="-264.3" font-family="Helvetica,sans-Serif" font-size="11.00" fill="#000000">sisaltava_opiskeluoikeus_oppilaitos_oid</text>
<polygon fill="none" stroke="#000000" points="266.5,-257.2 266.5,-279.2 365.5,-279.2 365.5,-257.2 266.5,-257.2"/>
<text text-anchor="start" x="269.5" y="-264.9" font-family="Helvetica,sans-Serif" font-size="11.00" fill="#000000">text[2147483647]</text>
<polygon fill="none" stroke="#000000" points="10.5,-235.2 10.5,-257.2 266.5,-257.2 266.5,-235.2 10.5,-235.2"/>
<text text-anchor="start" x="30.5" y="-242.3" font-family="Helvetica,sans-Serif" font-size="11.00" fill="#000000">oid</text>
<polygon fill="none" stroke="#000000" points="266.5,-235.2 266.5,-257.2 365.5,-257.2 365.5,-235.2 266.5,-235.2"/>
<text text-anchor="start" x="269.5" y="-242.9" font-family="Helvetica,sans-Serif" font-size="11.00" fill="#000000">text[2147483647]</text>
<polygon fill="none" stroke="#000000" points="10.5,-213.2 10.5,-235.2 266.5,-235.2 266.5,-213.2 10.5,-213.2"/>
<text text-anchor="start" x="30.5" y="-220.3" font-family="Helvetica,sans-Serif" font-size="11.00" fill="#000000">sisaltava_opiskeluoikeus_oid</text>
<polygon fill="none" stroke="#000000" points="266.5,-213.2 266.5,-235.2 365.5,-235.2 365.5,-213.2 266.5,-213.2"/>
<text text-anchor="start" x="269.5" y="-220.9" font-family="Helvetica,sans-Serif" font-size="11.00" fill="#000000">text[2147483647]</text>
<polygon fill="none" stroke="#000000" points="10.5,-191.2 10.5,-213.2 266.5,-213.2 266.5,-191.2 10.5,-191.2"/>
<text text-anchor="start" x="30.5" y="-198.3" font-family="Helvetica,sans-Serif" font-size="11.00" fill="#000000">mitatoity</text>
<polygon fill="none" stroke="#000000" points="266.5,-191.2 266.5,-213.2 365.5,-213.2 365.5,-191.2 266.5,-191.2"/>
<text text-anchor="start" x="269.5" y="-198.9" font-family="Helvetica,sans-Serif" font-size="11.00" fill="#000000">bool[1]</text>
<polygon fill="none" stroke="#000000" points="10.5,-169.2 10.5,-191.2 266.5,-191.2 266.5,-169.2 10.5,-169.2"/>
<text text-anchor="start" x="30.5" y="-176.3" font-family="Helvetica,sans-Serif" font-size="11.00" fill="#000000">koulutusmuoto</text>
<polygon fill="none" stroke="#000000" points="266.5,-169.2 266.5,-191.2 365.5,-191.2 365.5,-169.2 266.5,-169.2"/>
<text text-anchor="start" x="269.5" y="-176.9" font-family="Helvetica,sans-Serif" font-size="11.00" fill="#000000">text[2147483647]</text>
<polygon fill="none" stroke="#000000" points="10.5,-147.2 10.5,-169.2 266.5,-169.2 266.5,-147.2 10.5,-147.2"/>
<text text-anchor="start" x="30.5" y="-154.3" font-family="Helvetica,sans-Serif" font-size="11.00" fill="#000000">alkamispaiva</text>
<polygon fill="none" stroke="#000000" points="266.5,-147.2 266.5,-169.2 365.5,-169.2 365.5,-147.2 266.5,-147.2"/>
<text text-anchor="start" x="269.5" y="-154.9" font-family="Helvetica,sans-Serif" font-size="11.00" fill="#000000">date[13]</text>
<polygon fill="none" stroke="#000000" points="10.5,-125.2 10.5,-147.2 266.5,-147.2 266.5,-125.2 10.5,-125.2"/>
<text text-anchor="start" x="30.5" y="-132.3" font-family="Helvetica,sans-Serif" font-size="11.00" fill="#000000">paattymispaiva</text>
<polygon fill="none" stroke="#000000" points="266.5,-125.2 266.5,-147.2 365.5,-147.2 365.5,-125.2 266.5,-125.2"/>
<text text-anchor="start" x="269.5" y="-132.9" font-family="Helvetica,sans-Serif" font-size="11.00" fill="#000000">date[13]</text>
<polygon fill="none" stroke="#000000" points="10.5,-103.2 10.5,-125.2 266.5,-125.2 266.5,-103.2 10.5,-103.2"/>
<text text-anchor="start" x="30.5" y="-110.3" font-family="Helvetica,sans-Serif" font-size="11.00" fill="#000000">suoritusjako_tehty_rajapaivan_jalkeen</text>
<polygon fill="none" stroke="#000000" points="266.5,-103.2 266.5,-125.2 365.5,-125.2 365.5,-103.2 266.5,-103.2"/>
<text text-anchor="start" x="269.5" y="-110.9" font-family="Helvetica,sans-Serif" font-size="11.00" fill="#000000">bool[1]</text>
<polygon fill="none" stroke="#000000" points="10.5,-81.2 10.5,-103.2 266.5,-103.2 266.5,-81.2 10.5,-81.2"/>
<text text-anchor="start" x="30.5" y="-88.3" font-family="Helvetica,sans-Serif" font-size="11.00" fill="#000000">suoritustyypit</text>
<polygon fill="none" stroke="#000000" points="266.5,-81.2 266.5,-103.2 365.5,-103.2 365.5,-81.2 266.5,-81.2"/>
<text text-anchor="start" x="269.5" y="-88.9" font-family="Helvetica,sans-Serif" font-size="11.00" fill="#000000">_text[2147483647]</text>
<polygon fill="none" stroke="#000000" points="10.5,-59.2 10.5,-81.2 266.5,-81.2 266.5,-59.2 10.5,-59.2"/>
<text text-anchor="start" x="30.5" y="-66.3" font-family="Helvetica,sans-Serif" font-size="11.00" fill="#000000">poistettu</text>
<polygon fill="none" stroke="#000000" points="266.5,-59.2 266.5,-81.2 365.5,-81.2 365.5,-59.2 266.5,-59.2"/>
<text text-anchor="start" x="269.5" y="-66.9" font-family="Helvetica,sans-Serif" font-size="11.00" fill="#000000">bool[1]</text>
<polygon fill="#ffffff" stroke="transparent" points="10.5,-40.2 10.5,-59.2 123.5,-59.2 123.5,-40.2 10.5,-40.2"/>
<polygon fill="none" stroke="#000000" points="10.5,-40.2 10.5,-59.2 123.5,-59.2 123.5,-40.2 10.5,-40.2"/>
<text text-anchor="start" x="13.5" y="-46.3" font-family="Helvetica,sans-Serif" font-size="11.00" fill="#000000">&lt; 0</text>
<polygon fill="#ffffff" stroke="transparent" points="123.5,-40.2 123.5,-59.2 266.5,-59.2 266.5,-40.2 123.5,-40.2"/>
<polygon fill="none" stroke="#000000" points="123.5,-40.2 123.5,-59.2 266.5,-59.2 266.5,-40.2 123.5,-40.2"/>
<text text-anchor="start" x="218.8807" y="-46.3" font-family="Helvetica,sans-Serif" font-size="11.00" fill="#000000">254 rows</text>
<polygon fill="#ffffff" stroke="transparent" points="266.5,-40.2 266.5,-59.2 365.5,-59.2 365.5,-40.2 266.5,-40.2"/>
<polygon fill="none" stroke="#000000" points="266.5,-40.2 266.5,-59.2 365.5,-59.2 365.5,-40.2 266.5,-40.2"/>
<text text-anchor="start" x="346.9053" y="-46.3" font-family="Helvetica,sans-Serif" font-size="11.00" fill="#000000">0 &gt;</text>
<polygon fill="none" stroke="#000000" stroke-width="2" points="9,-39.2 9,-479.2 366,-479.2 366,-39.2 9,-39.2"/>
</a>
</g>
</g>
</g>
</svg>
