<?xml version="1.0" encoding="UTF-8" standalone="no"?>
<!DOCTYPE svg PUBLIC "-//W3C//DTD SVG 1.1//EN"
 "http://www.w3.org/Graphics/SVG/1.1/DTD/svg11.dtd">
<!-- Generated by graphviz version 2.40.1 (20161225.0304)
 -->
<!-- Title: oneDegreeRelationshipsDiagramImplied Pages: 1 -->
<svg width="477pt" height="177pt"
 viewBox="0.00 0.00 477.00 177.20" xmlns="http://www.w3.org/2000/svg" xmlns:xlink="http://www.w3.org/1999/xlink">
<g id="graph0" class="graph" transform="scale(1 1) rotate(0) translate(4 173.2)">
<title>oneDegreeRelationshipsDiagramImplied</title>
<polygon fill="#ffffff" stroke="transparent" points="-4,4 -4,-173.2 473,-173.2 473,4 -4,4"/>
<text text-anchor="middle" x="72.4936" y="-7.3" font-family="Helvetica,sans-Serif" font-size="11.00" fill="#000000">Generated by SchemaSpy</text>
<!-- casserviceticket -->
<g id="node1" class="node">
<title>casserviceticket</title>
<g id="a_node1"><a xlink:href="../../tables/casserviceticket.html" xlink:title="casserviceticket" target="_top">
<polygon fill="#ffffff" stroke="transparent" points="288,-38.2 288,-165.2 461,-165.2 461,-38.2 288,-38.2"/>
<polygon fill="#f5f5f5" stroke="transparent" points="288.5,-141.7 288.5,-164.7 461.5,-164.7 461.5,-141.7 288.5,-141.7"/>
<polygon fill="none" stroke="#000000" points="288.5,-141.7 288.5,-164.7 461.5,-164.7 461.5,-141.7 288.5,-141.7"/>
<text text-anchor="start" x="293.5" y="-150.3" font-family="Helvetica,sans-Serif" font-weight="bold" font-size="11.00" fill="#000000">casserviceticket</text>
<text text-anchor="start" x="426.5437" y="-149.8" font-family="Helvetica,sans-Serif" font-size="11.00" fill="#000000">[table]</text>
<polygon fill="none" stroke="#000000" points="288.5,-119.7 288.5,-141.7 461.5,-141.7 461.5,-119.7 288.5,-119.7"/>
<image xlink:href="../../images/primaryKeys.png" width="11px" height="12px" preserveAspectRatio="xMinYMin meet" x="293.5" y="-136.7"/>
<text text-anchor="start" x="308.5" y="-126.8" font-family="Helvetica,sans-Serif" font-size="11.00" fill="#000000">serviceticket</text>
<polygon fill="none" stroke="#000000" points="288.5,-97.7 288.5,-119.7 461.5,-119.7 461.5,-97.7 288.5,-97.7"/>
<image xlink:href="../../images/foreignKeys.png" width="11px" height="12px" preserveAspectRatio="xMinYMin meet" x="293.5" y="-114.7"/>
<text text-anchor="start" x="308.5" y="-104.8" font-family="Helvetica,sans-Serif" font-size="11.00" fill="#000000">username</text>
<polygon fill="none" stroke="#000000" points="288.5,-75.7 288.5,-97.7 461.5,-97.7 461.5,-75.7 288.5,-75.7"/>
<image xlink:href="../../images/foreignKeys.png" width="11px" height="12px" preserveAspectRatio="xMinYMin meet" x="293.5" y="-92.7"/>
<text text-anchor="start" x="308.5" y="-82.8" font-family="Helvetica,sans-Serif" font-size="11.00" fill="#000000">name</text>
<polygon fill="none" stroke="#000000" points="288.5,-56.7 288.5,-75.7 461.5,-75.7 461.5,-56.7 288.5,-56.7"/>
<text text-anchor="start" x="291.5" y="-62.8" font-family="Helvetica,sans-Serif" font-size="11.00" fill="#000000">...</text>
<polygon fill="#ffffff" stroke="transparent" points="288.5,-37.7 288.5,-56.7 357.5,-56.7 357.5,-37.7 288.5,-37.7"/>
<polygon fill="none" stroke="#000000" points="288.5,-37.7 288.5,-56.7 357.5,-56.7 357.5,-37.7 288.5,-37.7"/>
<text text-anchor="start" x="291.5" y="-43.8" font-family="Helvetica,sans-Serif" font-size="11.00" fill="#000000">&lt; 2</text>
<polygon fill="#ffffff" stroke="transparent" points="357.5,-37.7 357.5,-56.7 425.5,-56.7 425.5,-37.7 357.5,-37.7"/>
<polygon fill="none" stroke="#000000" points="357.5,-37.7 357.5,-56.7 425.5,-56.7 425.5,-37.7 357.5,-37.7"/>
<text text-anchor="start" x="383.9956" y="-43.8" font-family="Helvetica,sans-Serif" font-size="11.00" fill="#000000">50 rows</text>
<polygon fill="#ffffff" stroke="transparent" points="425.5,-37.7 425.5,-56.7 461.5,-56.7 461.5,-37.7 425.5,-37.7"/>
<polygon fill="none" stroke="#000000" points="425.5,-37.7 425.5,-56.7 461.5,-56.7 461.5,-37.7 425.5,-37.7"/>
<text text-anchor="start" x="452.3862" y="-43.8" font-family="Helvetica,sans-Serif" font-size="11.00" fill="#000000"> &#160;</text>
</a>
</g>
</g>
<!-- oppilaitos_ip_osoite -->
<g id="node2" class="node">
<title>oppilaitos_ip_osoite</title>
<g id="a_node2"><a xlink:href="../../tables/oppilaitos_ip_osoite.html" xlink:title="oppilaitos_ip_osoite" target="_top">
<polygon fill="#ffffff" stroke="transparent" points="8,-54.7 8,-144.7 239,-144.7 239,-54.7 8,-54.7"/>
<polygon fill="#f5f5f5" stroke="transparent" points="10.5,-119.7 10.5,-142.7 237.5,-142.7 237.5,-119.7 10.5,-119.7"/>
<polygon fill="none" stroke="#000000" points="10.5,-119.7 10.5,-142.7 237.5,-142.7 237.5,-119.7 10.5,-119.7"/>
<text text-anchor="start" x="15.5" y="-128.3" font-family="Helvetica,sans-Serif" font-weight="bold" font-size="11.00" fill="#000000">oppilaitos_ip_osoite</text>
<text text-anchor="start" x="202.5437" y="-127.8" font-family="Helvetica,sans-Serif" font-size="11.00" fill="#000000">[table]</text>
<polygon fill="none" stroke="#000000" points="10.5,-97.7 10.5,-119.7 147.5,-119.7 147.5,-97.7 10.5,-97.7"/>
<image xlink:href="../../images/primaryKeys.png" width="11px" height="12px" preserveAspectRatio="xMinYMin meet" x="15.5" y="-114.7"/>
<text text-anchor="start" x="30.5" y="-104.8" font-family="Helvetica,sans-Serif" font-size="11.00" fill="#000000">username</text>
<polygon fill="none" stroke="#000000" points="147.5,-97.7 147.5,-119.7 237.5,-119.7 237.5,-97.7 147.5,-97.7"/>
<text text-anchor="start" x="150.0042" y="-105.4" font-family="Helvetica,sans-Serif" font-size="11.00" fill="#000000">text[2147483647]</text>
<polygon fill="none" stroke="#000000" points="10.5,-75.7 10.5,-97.7 147.5,-97.7 147.5,-75.7 10.5,-75.7"/>
<text text-anchor="start" x="30.5" y="-82.8" font-family="Helvetica,sans-Serif" font-size="11.00" fill="#000000">ip</text>
<polygon fill="none" stroke="#000000" points="147.5,-75.7 147.5,-97.7 237.5,-97.7 237.5,-75.7 147.5,-75.7"/>
<text text-anchor="start" x="150.0042" y="-83.4" font-family="Helvetica,sans-Serif" font-size="11.00" fill="#000000">text[2147483647]</text>
<polygon fill="#ffffff" stroke="transparent" points="10.5,-56.7 10.5,-75.7 83.5,-75.7 83.5,-56.7 10.5,-56.7"/>
<polygon fill="none" stroke="#000000" points="10.5,-56.7 10.5,-75.7 83.5,-75.7 83.5,-56.7 10.5,-56.7"/>
<text text-anchor="start" x="13.5" y="-62.8" font-family="Helvetica,sans-Serif" font-size="11.00" fill="#000000">&lt; 0</text>
<polygon fill="#ffffff" stroke="transparent" points="83.5,-56.7 83.5,-75.7 147.5,-75.7 147.5,-56.7 83.5,-56.7"/>
<polygon fill="none" stroke="#000000" points="83.5,-56.7 83.5,-75.7 147.5,-75.7 147.5,-56.7 83.5,-56.7"/>
<text text-anchor="start" x="138.3862" y="-62.8" font-family="Helvetica,sans-Serif" font-size="11.00" fill="#000000"> &#160;</text>
<polygon fill="#ffffff" stroke="transparent" points="147.5,-56.7 147.5,-75.7 237.5,-75.7 237.5,-56.7 147.5,-56.7"/>
<polygon fill="none" stroke="#000000" points="147.5,-56.7 147.5,-75.7 237.5,-75.7 237.5,-56.7 147.5,-56.7"/>
<text text-anchor="start" x="218.9053" y="-62.8" font-family="Helvetica,sans-Serif" font-size="11.00" fill="#000000">1 &gt;</text>
<polygon fill="none" stroke="#000000" stroke-width="2" points="9,-55.7 9,-143.7 238,-143.7 238,-55.7 9,-55.7"/>
</a>
</g>
</g>
<!-- casserviceticket&#45;&gt;oppilaitos_ip_osoite -->
<g id="edge1" class="edge">
<title>casserviceticket:w&#45;&gt;oppilaitos_ip_osoite:e</title>
<path fill="none" stroke="#000000" stroke-dasharray="5,2" d="M273.776,-108.7C261.7815,-108.7 254.3229,-108.7 237.5,-108.7"/>
<polygon fill="#000000" stroke="#000000" points="280.5,-108.7001 288.5,-112.3 284.5,-108.7 288.5,-108.7 288.5,-108.7 288.5,-108.7 284.5,-108.7 288.5,-105.1 280.5,-108.7001 280.5,-108.7001"/>
<ellipse fill="none" stroke="#000000" cx="277.3" cy="-108.7001" rx="3.2" ry="3.2"/>
</g>
</g>
</svg>
