<?xml version="1.0" encoding="UTF-8" standalone="no"?>
<!DOCTYPE svg PUBLIC "-//W3C//DTD SVG 1.1//EN"
 "http://www.w3.org/Graphics/SVG/1.1/DTD/svg11.dtd">
<!-- Generated by graphviz version 2.40.1 (20161225.0304)
 -->
<!-- Title: twoDegreesRelationshipsDiagramImplied Pages: 1 -->
<svg width="477pt" height="223pt"
 viewBox="0.00 0.00 477.00 222.70" xmlns="http://www.w3.org/2000/svg" xmlns:xlink="http://www.w3.org/1999/xlink">
<g id="graph0" class="graph" transform="scale(1 1) rotate(0) translate(4 218.7)">
<title>twoDegreesRelationshipsDiagramImplied</title>
<polygon fill="#ffffff" stroke="transparent" points="-4,4 -4,-218.7 473,-218.7 473,4 -4,4"/>
<text text-anchor="middle" x="72.4936" y="-7.3" font-family="Helvetica,sans-Serif" font-size="11.00" fill="#000000">Generated by SchemaSpy</text>
<!-- casserviceticket -->
<g id="node1" class="node">
<title>casserviceticket</title>
<g id="a_node1"><a xlink:href="../../tables/casserviceticket.html" xlink:title="casserviceticket" target="_top">
<polygon fill="#ffffff" stroke="transparent" points="288,-60.2 288,-187.2 461,-187.2 461,-60.2 288,-60.2"/>
<polygon fill="#f5f5f5" stroke="transparent" points="288.5,-163.7 288.5,-186.7 461.5,-186.7 461.5,-163.7 288.5,-163.7"/>
<polygon fill="none" stroke="#000000" points="288.5,-163.7 288.5,-186.7 461.5,-186.7 461.5,-163.7 288.5,-163.7"/>
<text text-anchor="start" x="293.5" y="-172.3" font-family="Helvetica,sans-Serif" font-weight="bold" font-size="11.00" fill="#000000">casserviceticket</text>
<text text-anchor="start" x="426.5437" y="-171.8" font-family="Helvetica,sans-Serif" font-size="11.00" fill="#000000">[table]</text>
<polygon fill="none" stroke="#000000" points="288.5,-141.7 288.5,-163.7 461.5,-163.7 461.5,-141.7 288.5,-141.7"/>
<image xlink:href="../../images/primaryKeys.png" width="11px" height="12px" preserveAspectRatio="xMinYMin meet" x="293.5" y="-158.7"/>
<text text-anchor="start" x="308.5" y="-148.8" font-family="Helvetica,sans-Serif" font-size="11.00" fill="#000000">serviceticket</text>
<polygon fill="none" stroke="#000000" points="288.5,-119.7 288.5,-141.7 461.5,-141.7 461.5,-119.7 288.5,-119.7"/>
<image xlink:href="../../images/foreignKeys.png" width="11px" height="12px" preserveAspectRatio="xMinYMin meet" x="293.5" y="-136.7"/>
<text text-anchor="start" x="308.5" y="-126.8" font-family="Helvetica,sans-Serif" font-size="11.00" fill="#000000">username</text>
<polygon fill="none" stroke="#000000" points="288.5,-97.7 288.5,-119.7 461.5,-119.7 461.5,-97.7 288.5,-97.7"/>
<image xlink:href="../../images/foreignKeys.png" width="11px" height="12px" preserveAspectRatio="xMinYMin meet" x="293.5" y="-114.7"/>
<text text-anchor="start" x="308.5" y="-104.8" font-family="Helvetica,sans-Serif" font-size="11.00" fill="#000000">name</text>
<polygon fill="none" stroke="#000000" points="288.5,-78.7 288.5,-97.7 461.5,-97.7 461.5,-78.7 288.5,-78.7"/>
<text text-anchor="start" x="291.5" y="-84.8" font-family="Helvetica,sans-Serif" font-size="11.00" fill="#000000">...</text>
<polygon fill="#ffffff" stroke="transparent" points="288.5,-59.7 288.5,-78.7 360.5,-78.7 360.5,-59.7 288.5,-59.7"/>
<polygon fill="none" stroke="#000000" points="288.5,-59.7 288.5,-78.7 360.5,-78.7 360.5,-59.7 288.5,-59.7"/>
<text text-anchor="start" x="291.5" y="-65.8" font-family="Helvetica,sans-Serif" font-size="11.00" fill="#000000">&lt; 2</text>
<polygon fill="#ffffff" stroke="transparent" points="360.5,-59.7 360.5,-78.7 423.5,-78.7 423.5,-59.7 360.5,-59.7"/>
<polygon fill="none" stroke="#000000" points="360.5,-59.7 360.5,-78.7 423.5,-78.7 423.5,-59.7 360.5,-59.7"/>
<text text-anchor="start" x="388.1105" y="-65.8" font-family="Helvetica,sans-Serif" font-size="11.00" fill="#000000">6 rows</text>
<polygon fill="#ffffff" stroke="transparent" points="423.5,-59.7 423.5,-78.7 461.5,-78.7 461.5,-59.7 423.5,-59.7"/>
<polygon fill="none" stroke="#000000" points="423.5,-59.7 423.5,-78.7 461.5,-78.7 461.5,-59.7 423.5,-59.7"/>
<text text-anchor="start" x="452.3862" y="-65.8" font-family="Helvetica,sans-Serif" font-size="11.00" fill="#000000"> &#160;</text>
</a>
</g>
</g>
<!-- scheduler -->
<g id="node2" class="node">
<title>scheduler</title>
<g id="a_node2"><a xlink:href="../../tables/scheduler.html" xlink:title="scheduler" target="_top">
<polygon fill="#ffffff" stroke="transparent" points="76,-38.2 76,-99.2 171,-99.2 171,-38.2 76,-38.2"/>
<polygon fill="#f5f5f5" stroke="transparent" points="76.5,-75.7 76.5,-98.7 171.5,-98.7 171.5,-75.7 76.5,-75.7"/>
<polygon fill="none" stroke="#000000" points="76.5,-75.7 76.5,-98.7 171.5,-98.7 171.5,-75.7 76.5,-75.7"/>
<text text-anchor="start" x="81.5" y="-84.3" font-family="Helvetica,sans-Serif" font-weight="bold" font-size="11.00" fill="#000000">scheduler</text>
<text text-anchor="start" x="137.0219" y="-83.8" font-family="Helvetica,sans-Serif" font-size="11.00" fill="#000000">[table]</text>
<polygon fill="none" stroke="#000000" points="76.5,-56.7 76.5,-75.7 171.5,-75.7 171.5,-56.7 76.5,-56.7"/>
<text text-anchor="start" x="79.5" y="-62.8" font-family="Helvetica,sans-Serif" font-size="11.00" fill="#000000">...</text>
<polygon fill="#ffffff" stroke="transparent" points="76.5,-37.7 76.5,-56.7 100.5,-56.7 100.5,-37.7 76.5,-37.7"/>
<polygon fill="none" stroke="#000000" points="76.5,-37.7 76.5,-56.7 100.5,-56.7 100.5,-37.7 76.5,-37.7"/>
<text text-anchor="start" x="79.5" y="-43.8" font-family="Helvetica,sans-Serif" font-size="11.00" fill="#000000"> &#160;</text>
<polygon fill="#ffffff" stroke="transparent" points="100.5,-37.7 100.5,-56.7 144.5,-56.7 144.5,-37.7 100.5,-37.7"/>
<polygon fill="none" stroke="#000000" points="100.5,-37.7 100.5,-56.7 144.5,-56.7 144.5,-37.7 100.5,-37.7"/>
<text text-anchor="start" x="109.1105" y="-43.8" font-family="Helvetica,sans-Serif" font-size="11.00" fill="#000000">7 rows</text>
<polygon fill="#ffffff" stroke="transparent" points="144.5,-37.7 144.5,-56.7 171.5,-56.7 171.5,-37.7 144.5,-37.7"/>
<polygon fill="none" stroke="#000000" points="144.5,-37.7 144.5,-56.7 171.5,-56.7 171.5,-37.7 144.5,-37.7"/>
<text text-anchor="start" x="152.9053" y="-43.8" font-family="Helvetica,sans-Serif" font-size="11.00" fill="#000000">1 &gt;</text>
</a>
</g>
</g>
<!-- casserviceticket&#45;&gt;scheduler -->
<g id="edge1" class="edge">
<title>casserviceticket:w&#45;&gt;scheduler:e</title>
<path fill="none" stroke="#000000" stroke-dasharray="5,2" d="M274.1348,-107.6371C231.5046,-101.0154 221.7069,-65.7 171.5,-65.7"/>
<polygon fill="#000000" stroke="#000000" points="280.5218,-108.1096 288.2343,-112.2902 284.5109,-108.4048 288.5,-108.7 288.5,-108.7 288.5,-108.7 284.5109,-108.4048 288.7657,-105.1098 280.5218,-108.1096 280.5218,-108.1096"/>
<ellipse fill="none" stroke="#000000" cx="277.3305" cy="-107.8735" rx="3.2" ry="3.2"/>
</g>
<!-- oppilaitos_ip_osoite -->
<g id="node3" class="node">
<title>oppilaitos_ip_osoite</title>
<g id="a_node3"><a xlink:href="../../tables/oppilaitos_ip_osoite.html" xlink:title="oppilaitos_ip_osoite" target="_top">
<polygon fill="#ffffff" stroke="transparent" points="8,-120.7 8,-210.7 239,-210.7 239,-120.7 8,-120.7"/>
<polygon fill="#f5f5f5" stroke="transparent" points="10.5,-185.7 10.5,-208.7 237.5,-208.7 237.5,-185.7 10.5,-185.7"/>
<polygon fill="none" stroke="#000000" points="10.5,-185.7 10.5,-208.7 237.5,-208.7 237.5,-185.7 10.5,-185.7"/>
<text text-anchor="start" x="15.5" y="-194.3" font-family="Helvetica,sans-Serif" font-weight="bold" font-size="11.00" fill="#000000">oppilaitos_ip_osoite</text>
<text text-anchor="start" x="202.5437" y="-193.8" font-family="Helvetica,sans-Serif" font-size="11.00" fill="#000000">[table]</text>
<polygon fill="none" stroke="#000000" points="10.5,-163.7 10.5,-185.7 147.5,-185.7 147.5,-163.7 10.5,-163.7"/>
<image xlink:href="../../images/primaryKeys.png" width="11px" height="12px" preserveAspectRatio="xMinYMin meet" x="15.5" y="-180.7"/>
<text text-anchor="start" x="30.5" y="-170.8" font-family="Helvetica,sans-Serif" font-size="11.00" fill="#000000">username</text>
<polygon fill="none" stroke="#000000" points="147.5,-163.7 147.5,-185.7 237.5,-185.7 237.5,-163.7 147.5,-163.7"/>
<text text-anchor="start" x="150.0042" y="-171.4" font-family="Helvetica,sans-Serif" font-size="11.00" fill="#000000">text[2147483647]</text>
<polygon fill="none" stroke="#000000" points="10.5,-141.7 10.5,-163.7 147.5,-163.7 147.5,-141.7 10.5,-141.7"/>
<text text-anchor="start" x="30.5" y="-148.8" font-family="Helvetica,sans-Serif" font-size="11.00" fill="#000000">ip</text>
<polygon fill="none" stroke="#000000" points="147.5,-141.7 147.5,-163.7 237.5,-163.7 237.5,-141.7 147.5,-141.7"/>
<text text-anchor="start" x="150.0042" y="-149.4" font-family="Helvetica,sans-Serif" font-size="11.00" fill="#000000">text[2147483647]</text>
<polygon fill="#ffffff" stroke="transparent" points="10.5,-122.7 10.5,-141.7 83.5,-141.7 83.5,-122.7 10.5,-122.7"/>
<polygon fill="none" stroke="#000000" points="10.5,-122.7 10.5,-141.7 83.5,-141.7 83.5,-122.7 10.5,-122.7"/>
<text text-anchor="start" x="13.5" y="-128.8" font-family="Helvetica,sans-Serif" font-size="11.00" fill="#000000">&lt; 0</text>
<polygon fill="#ffffff" stroke="transparent" points="83.5,-122.7 83.5,-141.7 147.5,-141.7 147.5,-122.7 83.5,-122.7"/>
<polygon fill="none" stroke="#000000" points="83.5,-122.7 83.5,-141.7 147.5,-141.7 147.5,-122.7 83.5,-122.7"/>
<text text-anchor="start" x="138.3862" y="-128.8" font-family="Helvetica,sans-Serif" font-size="11.00" fill="#000000"> &#160;</text>
<polygon fill="#ffffff" stroke="transparent" points="147.5,-122.7 147.5,-141.7 237.5,-141.7 237.5,-122.7 147.5,-122.7"/>
<polygon fill="none" stroke="#000000" points="147.5,-122.7 147.5,-141.7 237.5,-141.7 237.5,-122.7 147.5,-122.7"/>
<text text-anchor="start" x="218.9053" y="-128.8" font-family="Helvetica,sans-Serif" font-size="11.00" fill="#000000">1 &gt;</text>
<polygon fill="none" stroke="#000000" stroke-width="2" points="9,-121.7 9,-209.7 238,-209.7 238,-121.7 9,-121.7"/>
</a>
</g>
</g>
<!-- casserviceticket&#45;&gt;oppilaitos_ip_osoite -->
<g id="edge2" class="edge">
<title>casserviceticket:w&#45;&gt;oppilaitos_ip_osoite:e</title>
<path fill="none" stroke="#000000" stroke-dasharray="5,2" d="M274.4107,-135.4088C260.5669,-146.7596 261.3557,-174.7 237.5,-174.7"/>
<polygon fill="#000000" stroke="#000000" points="280.9125,-133.2358 289.6411,-134.1144 284.7063,-131.9679 288.5,-130.7 288.5,-130.7 288.5,-130.7 284.7063,-131.9679 287.3589,-127.2856 280.9125,-133.2358 280.9125,-133.2358"/>
<ellipse fill="none" stroke="#000000" cx="277.8775" cy="-134.2502" rx="3.2" ry="3.2"/>
</g>
</g>
</svg>
