<?xml version="1.0" encoding="UTF-8" standalone="no"?>
<!DOCTYPE svg PUBLIC "-//W3C//DTD SVG 1.1//EN"
 "http://www.w3.org/Graphics/SVG/1.1/DTD/svg11.dtd">
<!-- Generated by graphviz version 2.40.1 (20161225.0304)
 -->
<!-- Title: twoDegreesRelationshipsDiagramImplied Pages: 1 -->
<svg width="485pt" height="223pt"
 viewBox="0.00 0.00 485.00 222.70" xmlns="http://www.w3.org/2000/svg" xmlns:xlink="http://www.w3.org/1999/xlink">
<g id="graph0" class="graph" transform="scale(1 1) rotate(0) translate(4 218.7)">
<title>twoDegreesRelationshipsDiagramImplied</title>
<polygon fill="#ffffff" stroke="transparent" points="-4,4 -4,-218.7 481,-218.7 481,4 -4,4"/>
<text text-anchor="middle" x="72.4936" y="-7.3" font-family="Helvetica,sans-Serif" font-size="11.00" fill="#000000">Generated by SchemaSpy</text>
<!-- casserviceticket -->
<g id="node1" class="node">
<title>casserviceticket</title>
<g id="a_node1"><a xlink:href="../../tables/casserviceticket.html" xlink:title="casserviceticket" target="_top">
<polygon fill="#ffffff" stroke="transparent" points="289,-60.2 289,-187.2 469,-187.2 469,-60.2 289,-60.2"/>
<polygon fill="#f5f5f5" stroke="transparent" points="289,-163.7 289,-186.7 469,-186.7 469,-163.7 289,-163.7"/>
<polygon fill="none" stroke="#000000" points="289,-163.7 289,-186.7 469,-186.7 469,-163.7 289,-163.7"/>
<text text-anchor="start" x="294" y="-172.3" font-family="Helvetica,sans-Serif" font-weight="bold" font-size="11.00" fill="#000000">casserviceticket</text>
<text text-anchor="start" x="434.0437" y="-171.8" font-family="Helvetica,sans-Serif" font-size="11.00" fill="#000000">[table]</text>
<polygon fill="none" stroke="#000000" points="289,-141.7 289,-163.7 469,-163.7 469,-141.7 289,-141.7"/>
<image xlink:href="../../images/primaryKeys.png" width="11px" height="12px" preserveAspectRatio="xMinYMin meet" x="294" y="-158.7"/>
<text text-anchor="start" x="309" y="-148.8" font-family="Helvetica,sans-Serif" font-size="11.00" fill="#000000">serviceticket</text>
<polygon fill="none" stroke="#000000" points="289,-119.7 289,-141.7 469,-141.7 469,-119.7 289,-119.7"/>
<image xlink:href="../../images/foreignKeys.png" width="11px" height="12px" preserveAspectRatio="xMinYMin meet" x="294" y="-136.7"/>
<text text-anchor="start" x="309" y="-126.8" font-family="Helvetica,sans-Serif" font-size="11.00" fill="#000000">username</text>
<polygon fill="none" stroke="#000000" points="289,-97.7 289,-119.7 469,-119.7 469,-97.7 289,-97.7"/>
<image xlink:href="../../images/foreignKeys.png" width="11px" height="12px" preserveAspectRatio="xMinYMin meet" x="294" y="-114.7"/>
<text text-anchor="start" x="309" y="-104.8" font-family="Helvetica,sans-Serif" font-size="11.00" fill="#000000">name</text>
<polygon fill="none" stroke="#000000" points="289,-78.7 289,-97.7 469,-97.7 469,-78.7 289,-78.7"/>
<text text-anchor="start" x="292" y="-84.8" font-family="Helvetica,sans-Serif" font-size="11.00" fill="#000000">...</text>
<polygon fill="#ffffff" stroke="transparent" points="289,-59.7 289,-78.7 358,-78.7 358,-59.7 289,-59.7"/>
<polygon fill="none" stroke="#000000" points="289,-59.7 289,-78.7 358,-78.7 358,-59.7 289,-59.7"/>
<text text-anchor="start" x="292" y="-65.8" font-family="Helvetica,sans-Serif" font-size="11.00" fill="#000000">&lt; 2</text>
<polygon fill="#ffffff" stroke="transparent" points="358,-59.7 358,-78.7 432,-78.7 432,-59.7 358,-59.7"/>
<polygon fill="none" stroke="#000000" points="358,-59.7 358,-78.7 432,-78.7 432,-59.7 358,-59.7"/>
<text text-anchor="start" x="384.3807" y="-65.8" font-family="Helvetica,sans-Serif" font-size="11.00" fill="#000000">232 rows</text>
<polygon fill="#ffffff" stroke="transparent" points="432,-59.7 432,-78.7 469,-78.7 469,-59.7 432,-59.7"/>
<polygon fill="none" stroke="#000000" points="432,-59.7 432,-78.7 469,-78.7 469,-59.7 432,-59.7"/>
<text text-anchor="start" x="459.8862" y="-65.8" font-family="Helvetica,sans-Serif" font-size="11.00" fill="#000000"> &#160;</text>
</a>
</g>
</g>
<!-- scheduler -->
<g id="node2" class="node">
<title>scheduler</title>
<g id="a_node2"><a xlink:href="../../tables/scheduler.html" xlink:title="scheduler" target="_top">
<polygon fill="#ffffff" stroke="transparent" points="75.5,-38.2 75.5,-99.2 172.5,-99.2 172.5,-38.2 75.5,-38.2"/>
<polygon fill="#f5f5f5" stroke="transparent" points="76,-75.7 76,-98.7 173,-98.7 173,-75.7 76,-75.7"/>
<polygon fill="none" stroke="#000000" points="76,-75.7 76,-98.7 173,-98.7 173,-75.7 76,-75.7"/>
<text text-anchor="start" x="81" y="-84.3" font-family="Helvetica,sans-Serif" font-weight="bold" font-size="11.00" fill="#000000">scheduler</text>
<text text-anchor="start" x="138.5219" y="-83.8" font-family="Helvetica,sans-Serif" font-size="11.00" fill="#000000">[table]</text>
<polygon fill="none" stroke="#000000" points="76,-56.7 76,-75.7 173,-75.7 173,-56.7 76,-56.7"/>
<text text-anchor="start" x="79" y="-62.8" font-family="Helvetica,sans-Serif" font-size="11.00" fill="#000000">...</text>
<polygon fill="#ffffff" stroke="transparent" points="76,-37.7 76,-56.7 101,-56.7 101,-37.7 76,-37.7"/>
<polygon fill="none" stroke="#000000" points="76,-37.7 76,-56.7 101,-56.7 101,-37.7 76,-37.7"/>
<text text-anchor="start" x="79" y="-43.8" font-family="Helvetica,sans-Serif" font-size="11.00" fill="#000000"> &#160;</text>
<polygon fill="#ffffff" stroke="transparent" points="101,-37.7 101,-56.7 145,-56.7 145,-37.7 101,-37.7"/>
<polygon fill="none" stroke="#000000" points="101,-37.7 101,-56.7 145,-56.7 145,-37.7 101,-37.7"/>
<text text-anchor="start" x="109.6105" y="-43.8" font-family="Helvetica,sans-Serif" font-size="11.00" fill="#000000">7 rows</text>
<polygon fill="#ffffff" stroke="transparent" points="145,-37.7 145,-56.7 173,-56.7 173,-37.7 145,-37.7"/>
<polygon fill="none" stroke="#000000" points="145,-37.7 145,-56.7 173,-56.7 173,-37.7 145,-37.7"/>
<text text-anchor="start" x="154.4053" y="-43.8" font-family="Helvetica,sans-Serif" font-size="11.00" fill="#000000">1 &gt;</text>
</a>
</g>
</g>
<!-- casserviceticket&#45;&gt;scheduler -->
<g id="edge1" class="edge">
<title>casserviceticket:w&#45;&gt;scheduler:e</title>
<path fill="none" stroke="#000000" stroke-dasharray="5,2" d="M274.4729,-107.5939C232.4133,-100.8634 222.7216,-65.7 173,-65.7"/>
<polygon fill="#000000" stroke="#000000" points="281.0231,-108.0926 288.7267,-112.2896 285.0115,-108.3963 289,-108.7 289,-108.7 289,-108.7 285.0115,-108.3963 289.2733,-105.1104 281.0231,-108.0926 281.0231,-108.0926"/>
<ellipse fill="none" stroke="#000000" cx="277.8323" cy="-107.8496" rx="3.2" ry="3.2"/>
</g>
<!-- oppilaitos_ip_osoite -->
<g id="node3" class="node">
<title>oppilaitos_ip_osoite</title>
<g id="a_node3"><a xlink:href="../../tables/oppilaitos_ip_osoite.html" xlink:title="oppilaitos_ip_osoite" target="_top">
<polygon fill="#ffffff" stroke="transparent" points="8,-120.7 8,-210.7 240,-210.7 240,-120.7 8,-120.7"/>
<polygon fill="#f5f5f5" stroke="transparent" points="10,-185.7 10,-208.7 238,-208.7 238,-185.7 10,-185.7"/>
<polygon fill="none" stroke="#000000" points="10,-185.7 10,-208.7 238,-208.7 238,-185.7 10,-185.7"/>
<text text-anchor="start" x="15" y="-194.3" font-family="Helvetica,sans-Serif" font-weight="bold" font-size="11.00" fill="#000000">oppilaitos_ip_osoite</text>
<text text-anchor="start" x="203.0437" y="-193.8" font-family="Helvetica,sans-Serif" font-size="11.00" fill="#000000">[table]</text>
<polygon fill="none" stroke="#000000" points="10,-163.7 10,-185.7 148,-185.7 148,-163.7 10,-163.7"/>
<image xlink:href="../../images/primaryKeys.png" width="11px" height="12px" preserveAspectRatio="xMinYMin meet" x="15" y="-180.7"/>
<text text-anchor="start" x="30" y="-170.8" font-family="Helvetica,sans-Serif" font-size="11.00" fill="#000000">username</text>
<polygon fill="none" stroke="#000000" points="148,-163.7 148,-185.7 238,-185.7 238,-163.7 148,-163.7"/>
<text text-anchor="start" x="150.5042" y="-171.4" font-family="Helvetica,sans-Serif" font-size="11.00" fill="#000000">text[2147483647]</text>
<polygon fill="none" stroke="#000000" points="10,-141.7 10,-163.7 148,-163.7 148,-141.7 10,-141.7"/>
<text text-anchor="start" x="30" y="-148.8" font-family="Helvetica,sans-Serif" font-size="11.00" fill="#000000">ip</text>
<polygon fill="none" stroke="#000000" points="148,-141.7 148,-163.7 238,-163.7 238,-141.7 148,-141.7"/>
<text text-anchor="start" x="150.5042" y="-149.4" font-family="Helvetica,sans-Serif" font-size="11.00" fill="#000000">text[2147483647]</text>
<polygon fill="#ffffff" stroke="transparent" points="10,-122.7 10,-141.7 83,-141.7 83,-122.7 10,-122.7"/>
<polygon fill="none" stroke="#000000" points="10,-122.7 10,-141.7 83,-141.7 83,-122.7 10,-122.7"/>
<text text-anchor="start" x="13" y="-128.8" font-family="Helvetica,sans-Serif" font-size="11.00" fill="#000000">&lt; 0</text>
<polygon fill="#ffffff" stroke="transparent" points="83,-122.7 83,-141.7 148,-141.7 148,-122.7 83,-122.7"/>
<polygon fill="none" stroke="#000000" points="83,-122.7 83,-141.7 148,-141.7 148,-122.7 83,-122.7"/>
<text text-anchor="start" x="138.8862" y="-128.8" font-family="Helvetica,sans-Serif" font-size="11.00" fill="#000000"> &#160;</text>
<polygon fill="#ffffff" stroke="transparent" points="148,-122.7 148,-141.7 238,-141.7 238,-122.7 148,-122.7"/>
<polygon fill="none" stroke="#000000" points="148,-122.7 148,-141.7 238,-141.7 238,-122.7 148,-122.7"/>
<text text-anchor="start" x="219.4053" y="-128.8" font-family="Helvetica,sans-Serif" font-size="11.00" fill="#000000">1 &gt;</text>
<polygon fill="none" stroke="#000000" stroke-width="2" points="9,-121.7 9,-209.7 239,-209.7 239,-121.7 9,-121.7"/>
</a>
</g>
</g>
<!-- casserviceticket&#45;&gt;oppilaitos_ip_osoite -->
<g id="edge2" class="edge">
<title>casserviceticket:w&#45;&gt;oppilaitos_ip_osoite:e</title>
<path fill="none" stroke="#000000" stroke-dasharray="5,2" d="M274.9107,-135.4088C261.0669,-146.7596 261.8557,-174.7 238,-174.7"/>
<polygon fill="#000000" stroke="#000000" points="281.4125,-133.2358 290.1411,-134.1144 285.2063,-131.9679 289,-130.7 289,-130.7 289,-130.7 285.2063,-131.9679 287.8589,-127.2856 281.4125,-133.2358 281.4125,-133.2358"/>
<ellipse fill="none" stroke="#000000" cx="278.3775" cy="-134.2502" rx="3.2" ry="3.2"/>
</g>
</g>
</svg>
