<?xml version="1.0" encoding="UTF-8" standalone="no"?>
<!DOCTYPE svg PUBLIC "-//W3C//DTD SVG 1.1//EN"
 "http://www.w3.org/Graphics/SVG/1.1/DTD/svg11.dtd">
<!-- Generated by graphviz version 2.40.1 (20161225.0304)
 -->
<!-- Title: oneDegreeRelationshipsDiagramImplied Pages: 1 -->
<svg width="521pt" height="177pt"
 viewBox="0.00 0.00 521.00 177.20" xmlns="http://www.w3.org/2000/svg" xmlns:xlink="http://www.w3.org/1999/xlink">
<g id="graph0" class="graph" transform="scale(1 1) rotate(0) translate(4 173.2)">
<title>oneDegreeRelationshipsDiagramImplied</title>
<polygon fill="#ffffff" stroke="transparent" points="-4,4 -4,-173.2 517,-173.2 517,4 -4,4"/>
<text text-anchor="middle" x="72.4936" y="-7.3" font-family="Helvetica,sans-Serif" font-size="11.00" fill="#000000">Generated by SchemaSpy</text>
<!-- casserviceticket -->
<g id="node1" class="node">
<title>casserviceticket</title>
<g id="a_node1"><a xlink:href="../../tables/casserviceticket.html" xlink:title="casserviceticket" target="_top">
<polygon fill="#ffffff" stroke="transparent" points="305,-38.2 305,-165.2 505,-165.2 505,-38.2 305,-38.2"/>
<polygon fill="#f5f5f5" stroke="transparent" points="305,-141.7 305,-164.7 505,-164.7 505,-141.7 305,-141.7"/>
<polygon fill="none" stroke="#000000" points="305,-141.7 305,-164.7 505,-164.7 505,-141.7 305,-141.7"/>
<text text-anchor="start" x="310" y="-150.3" font-family="Helvetica,sans-Serif" font-weight="bold" font-size="11.00" fill="#000000">casserviceticket</text>
<text text-anchor="start" x="470.0437" y="-149.8" font-family="Helvetica,sans-Serif" font-size="11.00" fill="#000000">[table]</text>
<polygon fill="none" stroke="#000000" points="305,-119.7 305,-141.7 505,-141.7 505,-119.7 305,-119.7"/>
<image xlink:href="../../images/primaryKeys.png" width="11px" height="12px" preserveAspectRatio="xMinYMin meet" x="310" y="-136.7"/>
<text text-anchor="start" x="325" y="-126.8" font-family="Helvetica,sans-Serif" font-size="11.00" fill="#000000">serviceticket</text>
<polygon fill="none" stroke="#000000" points="305,-97.7 305,-119.7 505,-119.7 505,-97.7 305,-97.7"/>
<image xlink:href="../../images/foreignKeys.png" width="11px" height="12px" preserveAspectRatio="xMinYMin meet" x="310" y="-114.7"/>
<text text-anchor="start" x="325" y="-104.8" font-family="Helvetica,sans-Serif" font-size="11.00" fill="#000000">username</text>
<polygon fill="none" stroke="#000000" points="305,-75.7 305,-97.7 505,-97.7 505,-75.7 305,-75.7"/>
<image xlink:href="../../images/foreignKeys.png" width="11px" height="12px" preserveAspectRatio="xMinYMin meet" x="310" y="-92.7"/>
<text text-anchor="start" x="325" y="-82.8" font-family="Helvetica,sans-Serif" font-size="11.00" fill="#000000">name</text>
<polygon fill="none" stroke="#000000" points="305,-56.7 305,-75.7 505,-75.7 505,-56.7 305,-56.7"/>
<text text-anchor="start" x="308" y="-62.8" font-family="Helvetica,sans-Serif" font-size="11.00" fill="#000000">...</text>
<polygon fill="#ffffff" stroke="transparent" points="305,-37.7 305,-56.7 387,-56.7 387,-37.7 305,-37.7"/>
<polygon fill="none" stroke="#000000" points="305,-37.7 305,-56.7 387,-56.7 387,-37.7 305,-37.7"/>
<text text-anchor="start" x="308" y="-43.8" font-family="Helvetica,sans-Serif" font-size="11.00" fill="#000000">&lt; 2</text>
<polygon fill="#ffffff" stroke="transparent" points="387,-37.7 387,-56.7 462,-56.7 462,-37.7 387,-37.7"/>
<polygon fill="none" stroke="#000000" points="387,-37.7 387,-56.7 462,-56.7 462,-37.7 387,-37.7"/>
<text text-anchor="start" x="420.4956" y="-43.8" font-family="Helvetica,sans-Serif" font-size="11.00" fill="#000000">64 rows</text>
<polygon fill="#ffffff" stroke="transparent" points="462,-37.7 462,-56.7 505,-56.7 505,-37.7 462,-37.7"/>
<polygon fill="none" stroke="#000000" points="462,-37.7 462,-56.7 505,-56.7 505,-37.7 462,-37.7"/>
<text text-anchor="start" x="495.8862" y="-43.8" font-family="Helvetica,sans-Serif" font-size="11.00" fill="#000000"> &#160;</text>
</a>
</g>
</g>
<!-- oppilaitos_ip_osoite -->
<g id="node2" class="node">
<title>oppilaitos_ip_osoite</title>
<g id="a_node2"><a xlink:href="../../tables/oppilaitos_ip_osoite.html" xlink:title="oppilaitos_ip_osoite" target="_top">
<polygon fill="#ffffff" stroke="transparent" points="8,-54.7 8,-144.7 256,-144.7 256,-54.7 8,-54.7"/>
<polygon fill="#f5f5f5" stroke="transparent" points="10,-119.7 10,-142.7 254,-142.7 254,-119.7 10,-119.7"/>
<polygon fill="none" stroke="#000000" points="10,-119.7 10,-142.7 254,-142.7 254,-119.7 10,-119.7"/>
<text text-anchor="start" x="15" y="-128.3" font-family="Helvetica,sans-Serif" font-weight="bold" font-size="11.00" fill="#000000">oppilaitos_ip_osoite</text>
<text text-anchor="start" x="219.0437" y="-127.8" font-family="Helvetica,sans-Serif" font-size="11.00" fill="#000000">[table]</text>
<polygon fill="none" stroke="#000000" points="10,-97.7 10,-119.7 164,-119.7 164,-97.7 10,-97.7"/>
<image xlink:href="../../images/primaryKeys.png" width="11px" height="12px" preserveAspectRatio="xMinYMin meet" x="15" y="-114.7"/>
<text text-anchor="start" x="30" y="-104.8" font-family="Helvetica,sans-Serif" font-size="11.00" fill="#000000">username</text>
<polygon fill="none" stroke="#000000" points="164,-97.7 164,-119.7 254,-119.7 254,-97.7 164,-97.7"/>
<text text-anchor="start" x="166.5042" y="-105.4" font-family="Helvetica,sans-Serif" font-size="11.00" fill="#000000">text[2147483647]</text>
<polygon fill="none" stroke="#000000" points="10,-75.7 10,-97.7 164,-97.7 164,-75.7 10,-75.7"/>
<text text-anchor="start" x="30" y="-82.8" font-family="Helvetica,sans-Serif" font-size="11.00" fill="#000000">ip</text>
<polygon fill="none" stroke="#000000" points="164,-75.7 164,-97.7 254,-97.7 254,-75.7 164,-75.7"/>
<text text-anchor="start" x="166.5042" y="-83.4" font-family="Helvetica,sans-Serif" font-size="11.00" fill="#000000">text[2147483647]</text>
<polygon fill="#ffffff" stroke="transparent" points="10,-56.7 10,-75.7 91,-75.7 91,-56.7 10,-56.7"/>
<polygon fill="none" stroke="#000000" points="10,-56.7 10,-75.7 91,-75.7 91,-56.7 10,-56.7"/>
<text text-anchor="start" x="13" y="-62.8" font-family="Helvetica,sans-Serif" font-size="11.00" fill="#000000">&lt; 0</text>
<polygon fill="#ffffff" stroke="transparent" points="91,-56.7 91,-75.7 164,-75.7 164,-56.7 91,-56.7"/>
<polygon fill="none" stroke="#000000" points="91,-56.7 91,-75.7 164,-75.7 164,-56.7 91,-56.7"/>
<text text-anchor="start" x="154.8862" y="-62.8" font-family="Helvetica,sans-Serif" font-size="11.00" fill="#000000"> &#160;</text>
<polygon fill="#ffffff" stroke="transparent" points="164,-56.7 164,-75.7 254,-75.7 254,-56.7 164,-56.7"/>
<polygon fill="none" stroke="#000000" points="164,-56.7 164,-75.7 254,-75.7 254,-56.7 164,-56.7"/>
<text text-anchor="start" x="235.4053" y="-62.8" font-family="Helvetica,sans-Serif" font-size="11.00" fill="#000000">1 &gt;</text>
<polygon fill="none" stroke="#000000" stroke-width="2" points="9,-55.7 9,-143.7 255,-143.7 255,-55.7 9,-55.7"/>
</a>
</g>
</g>
<!-- casserviceticket&#45;&gt;oppilaitos_ip_osoite -->
<g id="edge1" class="edge">
<title>casserviceticket:w&#45;&gt;oppilaitos_ip_osoite:e</title>
<path fill="none" stroke="#000000" stroke-dasharray="5,2" d="M290.276,-108.7C278.2815,-108.7 270.8229,-108.7 254,-108.7"/>
<polygon fill="#000000" stroke="#000000" points="297,-108.7001 305,-112.3 301,-108.7 305,-108.7 305,-108.7 305,-108.7 301,-108.7 305,-105.1 297,-108.7001 297,-108.7001"/>
<ellipse fill="none" stroke="#000000" cx="293.8" cy="-108.7001" rx="3.2" ry="3.2"/>
</g>
</g>
</svg>
