<?xml version="1.0" encoding="UTF-8" standalone="no"?>
<!DOCTYPE svg PUBLIC "-//W3C//DTD SVG 1.1//EN"
 "http://www.w3.org/Graphics/SVG/1.1/DTD/svg11.dtd">
<!-- Generated by graphviz version 2.40.1 (20161225.0304)
 -->
<!-- Title: oneDegreeRelationshipsDiagramImplied Pages: 1 -->
<svg width="485pt" height="177pt"
 viewBox="0.00 0.00 485.00 177.20" xmlns="http://www.w3.org/2000/svg" xmlns:xlink="http://www.w3.org/1999/xlink">
<g id="graph0" class="graph" transform="scale(1 1) rotate(0) translate(4 173.2)">
<title>oneDegreeRelationshipsDiagramImplied</title>
<polygon fill="#ffffff" stroke="transparent" points="-4,4 -4,-173.2 481,-173.2 481,4 -4,4"/>
<text text-anchor="middle" x="72.4936" y="-7.3" font-family="Helvetica,sans-Serif" font-size="11.00" fill="#000000">Generated by SchemaSpy</text>
<!-- casserviceticket -->
<g id="node1" class="node">
<title>casserviceticket</title>
<g id="a_node1"><a xlink:href="../../tables/casserviceticket.html" xlink:title="casserviceticket" target="_top">
<polygon fill="#ffffff" stroke="transparent" points="289,-38.2 289,-165.2 469,-165.2 469,-38.2 289,-38.2"/>
<polygon fill="#f5f5f5" stroke="transparent" points="289,-141.7 289,-164.7 469,-164.7 469,-141.7 289,-141.7"/>
<polygon fill="none" stroke="#000000" points="289,-141.7 289,-164.7 469,-164.7 469,-141.7 289,-141.7"/>
<text text-anchor="start" x="294" y="-150.3" font-family="Helvetica,sans-Serif" font-weight="bold" font-size="11.00" fill="#000000">casserviceticket</text>
<text text-anchor="start" x="434.0437" y="-149.8" font-family="Helvetica,sans-Serif" font-size="11.00" fill="#000000">[table]</text>
<polygon fill="none" stroke="#000000" points="289,-119.7 289,-141.7 469,-141.7 469,-119.7 289,-119.7"/>
<image xlink:href="../../images/primaryKeys.png" width="11px" height="12px" preserveAspectRatio="xMinYMin meet" x="294" y="-136.7"/>
<text text-anchor="start" x="309" y="-126.8" font-family="Helvetica,sans-Serif" font-size="11.00" fill="#000000">serviceticket</text>
<polygon fill="none" stroke="#000000" points="289,-97.7 289,-119.7 469,-119.7 469,-97.7 289,-97.7"/>
<image xlink:href="../../images/foreignKeys.png" width="11px" height="12px" preserveAspectRatio="xMinYMin meet" x="294" y="-114.7"/>
<text text-anchor="start" x="309" y="-104.8" font-family="Helvetica,sans-Serif" font-size="11.00" fill="#000000">username</text>
<polygon fill="none" stroke="#000000" points="289,-75.7 289,-97.7 469,-97.7 469,-75.7 289,-75.7"/>
<image xlink:href="../../images/foreignKeys.png" width="11px" height="12px" preserveAspectRatio="xMinYMin meet" x="294" y="-92.7"/>
<text text-anchor="start" x="309" y="-82.8" font-family="Helvetica,sans-Serif" font-size="11.00" fill="#000000">name</text>
<polygon fill="none" stroke="#000000" points="289,-56.7 289,-75.7 469,-75.7 469,-56.7 289,-56.7"/>
<text text-anchor="start" x="292" y="-62.8" font-family="Helvetica,sans-Serif" font-size="11.00" fill="#000000">...</text>
<polygon fill="#ffffff" stroke="transparent" points="289,-37.7 289,-56.7 358,-56.7 358,-37.7 289,-37.7"/>
<polygon fill="none" stroke="#000000" points="289,-37.7 289,-56.7 358,-56.7 358,-37.7 289,-37.7"/>
<text text-anchor="start" x="292" y="-43.8" font-family="Helvetica,sans-Serif" font-size="11.00" fill="#000000">&lt; 2</text>
<polygon fill="#ffffff" stroke="transparent" points="358,-37.7 358,-56.7 432,-56.7 432,-37.7 358,-37.7"/>
<polygon fill="none" stroke="#000000" points="358,-37.7 358,-56.7 432,-56.7 432,-37.7 358,-37.7"/>
<text text-anchor="start" x="384.3807" y="-43.8" font-family="Helvetica,sans-Serif" font-size="11.00" fill="#000000">232 rows</text>
<polygon fill="#ffffff" stroke="transparent" points="432,-37.7 432,-56.7 469,-56.7 469,-37.7 432,-37.7"/>
<polygon fill="none" stroke="#000000" points="432,-37.7 432,-56.7 469,-56.7 469,-37.7 432,-37.7"/>
<text text-anchor="start" x="459.8862" y="-43.8" font-family="Helvetica,sans-Serif" font-size="11.00" fill="#000000"> &#160;</text>
</a>
</g>
</g>
<!-- oppilaitos_ip_osoite -->
<g id="node2" class="node">
<title>oppilaitos_ip_osoite</title>
<g id="a_node2"><a xlink:href="../../tables/oppilaitos_ip_osoite.html" xlink:title="oppilaitos_ip_osoite" target="_top">
<polygon fill="#ffffff" stroke="transparent" points="8,-54.7 8,-144.7 240,-144.7 240,-54.7 8,-54.7"/>
<polygon fill="#f5f5f5" stroke="transparent" points="10,-119.7 10,-142.7 238,-142.7 238,-119.7 10,-119.7"/>
<polygon fill="none" stroke="#000000" points="10,-119.7 10,-142.7 238,-142.7 238,-119.7 10,-119.7"/>
<text text-anchor="start" x="15" y="-128.3" font-family="Helvetica,sans-Serif" font-weight="bold" font-size="11.00" fill="#000000">oppilaitos_ip_osoite</text>
<text text-anchor="start" x="203.0437" y="-127.8" font-family="Helvetica,sans-Serif" font-size="11.00" fill="#000000">[table]</text>
<polygon fill="none" stroke="#000000" points="10,-97.7 10,-119.7 148,-119.7 148,-97.7 10,-97.7"/>
<image xlink:href="../../images/primaryKeys.png" width="11px" height="12px" preserveAspectRatio="xMinYMin meet" x="15" y="-114.7"/>
<text text-anchor="start" x="30" y="-104.8" font-family="Helvetica,sans-Serif" font-size="11.00" fill="#000000">username</text>
<polygon fill="none" stroke="#000000" points="148,-97.7 148,-119.7 238,-119.7 238,-97.7 148,-97.7"/>
<text text-anchor="start" x="150.5042" y="-105.4" font-family="Helvetica,sans-Serif" font-size="11.00" fill="#000000">text[2147483647]</text>
<polygon fill="none" stroke="#000000" points="10,-75.7 10,-97.7 148,-97.7 148,-75.7 10,-75.7"/>
<text text-anchor="start" x="30" y="-82.8" font-family="Helvetica,sans-Serif" font-size="11.00" fill="#000000">ip</text>
<polygon fill="none" stroke="#000000" points="148,-75.7 148,-97.7 238,-97.7 238,-75.7 148,-75.7"/>
<text text-anchor="start" x="150.5042" y="-83.4" font-family="Helvetica,sans-Serif" font-size="11.00" fill="#000000">text[2147483647]</text>
<polygon fill="#ffffff" stroke="transparent" points="10,-56.7 10,-75.7 83,-75.7 83,-56.7 10,-56.7"/>
<polygon fill="none" stroke="#000000" points="10,-56.7 10,-75.7 83,-75.7 83,-56.7 10,-56.7"/>
<text text-anchor="start" x="13" y="-62.8" font-family="Helvetica,sans-Serif" font-size="11.00" fill="#000000">&lt; 0</text>
<polygon fill="#ffffff" stroke="transparent" points="83,-56.7 83,-75.7 148,-75.7 148,-56.7 83,-56.7"/>
<polygon fill="none" stroke="#000000" points="83,-56.7 83,-75.7 148,-75.7 148,-56.7 83,-56.7"/>
<text text-anchor="start" x="138.8862" y="-62.8" font-family="Helvetica,sans-Serif" font-size="11.00" fill="#000000"> &#160;</text>
<polygon fill="#ffffff" stroke="transparent" points="148,-56.7 148,-75.7 238,-75.7 238,-56.7 148,-56.7"/>
<polygon fill="none" stroke="#000000" points="148,-56.7 148,-75.7 238,-75.7 238,-56.7 148,-56.7"/>
<text text-anchor="start" x="219.4053" y="-62.8" font-family="Helvetica,sans-Serif" font-size="11.00" fill="#000000">1 &gt;</text>
<polygon fill="none" stroke="#000000" stroke-width="2" points="9,-55.7 9,-143.7 239,-143.7 239,-55.7 9,-55.7"/>
</a>
</g>
</g>
<!-- casserviceticket&#45;&gt;oppilaitos_ip_osoite -->
<g id="edge1" class="edge">
<title>casserviceticket:w&#45;&gt;oppilaitos_ip_osoite:e</title>
<path fill="none" stroke="#000000" stroke-dasharray="5,2" d="M274.276,-108.7C262.2815,-108.7 254.8229,-108.7 238,-108.7"/>
<polygon fill="#000000" stroke="#000000" points="281,-108.7001 289,-112.3 285,-108.7 289,-108.7 289,-108.7 289,-108.7 285,-108.7 289,-105.1 281,-108.7001 281,-108.7001"/>
<ellipse fill="none" stroke="#000000" cx="277.8" cy="-108.7001" rx="3.2" ry="3.2"/>
</g>
</g>
</svg>
