<?xml version="1.0" encoding="UTF-8" standalone="no"?>
<!DOCTYPE svg PUBLIC "-//W3C//DTD SVG 1.1//EN"
 "http://www.w3.org/Graphics/SVG/1.1/DTD/svg11.dtd">
<!-- Generated by graphviz version 2.40.1 (20161225.0304)
 -->
<!-- Title: twoDegreesRelationshipsDiagramImplied Pages: 1 -->
<svg width="521pt" height="223pt"
 viewBox="0.00 0.00 521.00 222.70" xmlns="http://www.w3.org/2000/svg" xmlns:xlink="http://www.w3.org/1999/xlink">
<g id="graph0" class="graph" transform="scale(1 1) rotate(0) translate(4 218.7)">
<title>twoDegreesRelationshipsDiagramImplied</title>
<polygon fill="#ffffff" stroke="transparent" points="-4,4 -4,-218.7 517,-218.7 517,4 -4,4"/>
<text text-anchor="middle" x="72.4936" y="-7.3" font-family="Helvetica,sans-Serif" font-size="11.00" fill="#000000">Generated by SchemaSpy</text>
<!-- casserviceticket -->
<g id="node1" class="node">
<title>casserviceticket</title>
<g id="a_node1"><a xlink:href="../../tables/casserviceticket.html" xlink:title="casserviceticket" target="_top">
<polygon fill="#ffffff" stroke="transparent" points="305,-60.2 305,-187.2 505,-187.2 505,-60.2 305,-60.2"/>
<polygon fill="#f5f5f5" stroke="transparent" points="305,-163.7 305,-186.7 505,-186.7 505,-163.7 305,-163.7"/>
<polygon fill="none" stroke="#000000" points="305,-163.7 305,-186.7 505,-186.7 505,-163.7 305,-163.7"/>
<text text-anchor="start" x="310" y="-172.3" font-family="Helvetica,sans-Serif" font-weight="bold" font-size="11.00" fill="#000000">casserviceticket</text>
<text text-anchor="start" x="470.0437" y="-171.8" font-family="Helvetica,sans-Serif" font-size="11.00" fill="#000000">[table]</text>
<polygon fill="none" stroke="#000000" points="305,-141.7 305,-163.7 505,-163.7 505,-141.7 305,-141.7"/>
<image xlink:href="../../images/primaryKeys.png" width="11px" height="12px" preserveAspectRatio="xMinYMin meet" x="310" y="-158.7"/>
<text text-anchor="start" x="325" y="-148.8" font-family="Helvetica,sans-Serif" font-size="11.00" fill="#000000">serviceticket</text>
<polygon fill="none" stroke="#000000" points="305,-119.7 305,-141.7 505,-141.7 505,-119.7 305,-119.7"/>
<image xlink:href="../../images/foreignKeys.png" width="11px" height="12px" preserveAspectRatio="xMinYMin meet" x="310" y="-136.7"/>
<text text-anchor="start" x="325" y="-126.8" font-family="Helvetica,sans-Serif" font-size="11.00" fill="#000000">username</text>
<polygon fill="none" stroke="#000000" points="305,-97.7 305,-119.7 505,-119.7 505,-97.7 305,-97.7"/>
<image xlink:href="../../images/foreignKeys.png" width="11px" height="12px" preserveAspectRatio="xMinYMin meet" x="310" y="-114.7"/>
<text text-anchor="start" x="325" y="-104.8" font-family="Helvetica,sans-Serif" font-size="11.00" fill="#000000">name</text>
<polygon fill="none" stroke="#000000" points="305,-78.7 305,-97.7 505,-97.7 505,-78.7 305,-78.7"/>
<text text-anchor="start" x="308" y="-84.8" font-family="Helvetica,sans-Serif" font-size="11.00" fill="#000000">...</text>
<polygon fill="#ffffff" stroke="transparent" points="305,-59.7 305,-78.7 387,-78.7 387,-59.7 305,-59.7"/>
<polygon fill="none" stroke="#000000" points="305,-59.7 305,-78.7 387,-78.7 387,-59.7 305,-59.7"/>
<text text-anchor="start" x="308" y="-65.8" font-family="Helvetica,sans-Serif" font-size="11.00" fill="#000000">&lt; 2</text>
<polygon fill="#ffffff" stroke="transparent" points="387,-59.7 387,-78.7 462,-78.7 462,-59.7 387,-59.7"/>
<polygon fill="none" stroke="#000000" points="387,-59.7 387,-78.7 462,-78.7 462,-59.7 387,-59.7"/>
<text text-anchor="start" x="420.4956" y="-65.8" font-family="Helvetica,sans-Serif" font-size="11.00" fill="#000000">64 rows</text>
<polygon fill="#ffffff" stroke="transparent" points="462,-59.7 462,-78.7 505,-78.7 505,-59.7 462,-59.7"/>
<polygon fill="none" stroke="#000000" points="462,-59.7 462,-78.7 505,-78.7 505,-59.7 462,-59.7"/>
<text text-anchor="start" x="495.8862" y="-65.8" font-family="Helvetica,sans-Serif" font-size="11.00" fill="#000000"> &#160;</text>
</a>
</g>
</g>
<!-- scheduler -->
<g id="node2" class="node">
<title>scheduler</title>
<g id="a_node2"><a xlink:href="../../tables/scheduler.html" xlink:title="scheduler" target="_top">
<polygon fill="#ffffff" stroke="transparent" points="79.5,-38.2 79.5,-99.2 184.5,-99.2 184.5,-38.2 79.5,-38.2"/>
<polygon fill="#f5f5f5" stroke="transparent" points="80,-75.7 80,-98.7 185,-98.7 185,-75.7 80,-75.7"/>
<polygon fill="none" stroke="#000000" points="80,-75.7 80,-98.7 185,-98.7 185,-75.7 80,-75.7"/>
<text text-anchor="start" x="85" y="-84.3" font-family="Helvetica,sans-Serif" font-weight="bold" font-size="11.00" fill="#000000">scheduler</text>
<text text-anchor="start" x="150.5219" y="-83.8" font-family="Helvetica,sans-Serif" font-size="11.00" fill="#000000">[table]</text>
<polygon fill="none" stroke="#000000" points="80,-56.7 80,-75.7 185,-75.7 185,-56.7 80,-56.7"/>
<text text-anchor="start" x="83" y="-62.8" font-family="Helvetica,sans-Serif" font-size="11.00" fill="#000000">...</text>
<polygon fill="#ffffff" stroke="transparent" points="80,-37.7 80,-56.7 109,-56.7 109,-37.7 80,-37.7"/>
<polygon fill="none" stroke="#000000" points="80,-37.7 80,-56.7 109,-56.7 109,-37.7 80,-37.7"/>
<text text-anchor="start" x="83" y="-43.8" font-family="Helvetica,sans-Serif" font-size="11.00" fill="#000000"> &#160;</text>
<polygon fill="#ffffff" stroke="transparent" points="109,-37.7 109,-56.7 155,-56.7 155,-37.7 109,-37.7"/>
<polygon fill="none" stroke="#000000" points="109,-37.7 109,-56.7 155,-56.7 155,-37.7 109,-37.7"/>
<text text-anchor="start" x="119.6105" y="-43.8" font-family="Helvetica,sans-Serif" font-size="11.00" fill="#000000">6 rows</text>
<polygon fill="#ffffff" stroke="transparent" points="155,-37.7 155,-56.7 185,-56.7 185,-37.7 155,-37.7"/>
<polygon fill="none" stroke="#000000" points="155,-37.7 155,-56.7 185,-56.7 185,-37.7 155,-37.7"/>
<text text-anchor="start" x="166.4053" y="-43.8" font-family="Helvetica,sans-Serif" font-size="11.00" fill="#000000">1 &gt;</text>
</a>
</g>
</g>
<!-- casserviceticket&#45;&gt;scheduler -->
<g id="edge1" class="edge">
<title>casserviceticket:w&#45;&gt;scheduler:e</title>
<path fill="none" stroke="#000000" stroke-dasharray="5,2" d="M290.5838,-107.6795C246.6964,-101.1678 236.4534,-65.7 185,-65.7"/>
<polygon fill="#000000" stroke="#000000" points="297.02,-108.135 304.7458,-112.291 301.01,-108.4175 305,-108.7 305,-108.7 305,-108.7 301.01,-108.4175 305.2542,-105.109 297.02,-108.135 297.02,-108.135"/>
<ellipse fill="none" stroke="#000000" cx="293.828" cy="-107.9091" rx="3.2" ry="3.2"/>
</g>
<!-- oppilaitos_ip_osoite -->
<g id="node3" class="node">
<title>oppilaitos_ip_osoite</title>
<g id="a_node3"><a xlink:href="../../tables/oppilaitos_ip_osoite.html" xlink:title="oppilaitos_ip_osoite" target="_top">
<polygon fill="#ffffff" stroke="transparent" points="8,-120.7 8,-210.7 256,-210.7 256,-120.7 8,-120.7"/>
<polygon fill="#f5f5f5" stroke="transparent" points="10,-185.7 10,-208.7 254,-208.7 254,-185.7 10,-185.7"/>
<polygon fill="none" stroke="#000000" points="10,-185.7 10,-208.7 254,-208.7 254,-185.7 10,-185.7"/>
<text text-anchor="start" x="15" y="-194.3" font-family="Helvetica,sans-Serif" font-weight="bold" font-size="11.00" fill="#000000">oppilaitos_ip_osoite</text>
<text text-anchor="start" x="219.0437" y="-193.8" font-family="Helvetica,sans-Serif" font-size="11.00" fill="#000000">[table]</text>
<polygon fill="none" stroke="#000000" points="10,-163.7 10,-185.7 164,-185.7 164,-163.7 10,-163.7"/>
<image xlink:href="../../images/primaryKeys.png" width="11px" height="12px" preserveAspectRatio="xMinYMin meet" x="15" y="-180.7"/>
<text text-anchor="start" x="30" y="-170.8" font-family="Helvetica,sans-Serif" font-size="11.00" fill="#000000">username</text>
<polygon fill="none" stroke="#000000" points="164,-163.7 164,-185.7 254,-185.7 254,-163.7 164,-163.7"/>
<text text-anchor="start" x="166.5042" y="-171.4" font-family="Helvetica,sans-Serif" font-size="11.00" fill="#000000">text[2147483647]</text>
<polygon fill="none" stroke="#000000" points="10,-141.7 10,-163.7 164,-163.7 164,-141.7 10,-141.7"/>
<text text-anchor="start" x="30" y="-148.8" font-family="Helvetica,sans-Serif" font-size="11.00" fill="#000000">ip</text>
<polygon fill="none" stroke="#000000" points="164,-141.7 164,-163.7 254,-163.7 254,-141.7 164,-141.7"/>
<text text-anchor="start" x="166.5042" y="-149.4" font-family="Helvetica,sans-Serif" font-size="11.00" fill="#000000">text[2147483647]</text>
<polygon fill="#ffffff" stroke="transparent" points="10,-122.7 10,-141.7 91,-141.7 91,-122.7 10,-122.7"/>
<polygon fill="none" stroke="#000000" points="10,-122.7 10,-141.7 91,-141.7 91,-122.7 10,-122.7"/>
<text text-anchor="start" x="13" y="-128.8" font-family="Helvetica,sans-Serif" font-size="11.00" fill="#000000">&lt; 0</text>
<polygon fill="#ffffff" stroke="transparent" points="91,-122.7 91,-141.7 164,-141.7 164,-122.7 91,-122.7"/>
<polygon fill="none" stroke="#000000" points="91,-122.7 91,-141.7 164,-141.7 164,-122.7 91,-122.7"/>
<text text-anchor="start" x="154.8862" y="-128.8" font-family="Helvetica,sans-Serif" font-size="11.00" fill="#000000"> &#160;</text>
<polygon fill="#ffffff" stroke="transparent" points="164,-122.7 164,-141.7 254,-141.7 254,-122.7 164,-122.7"/>
<polygon fill="none" stroke="#000000" points="164,-122.7 164,-141.7 254,-141.7 254,-122.7 164,-122.7"/>
<text text-anchor="start" x="235.4053" y="-128.8" font-family="Helvetica,sans-Serif" font-size="11.00" fill="#000000">1 &gt;</text>
<polygon fill="none" stroke="#000000" stroke-width="2" points="9,-121.7 9,-209.7 255,-209.7 255,-121.7 9,-121.7"/>
</a>
</g>
</g>
<!-- casserviceticket&#45;&gt;oppilaitos_ip_osoite -->
<g id="edge2" class="edge">
<title>casserviceticket:w&#45;&gt;oppilaitos_ip_osoite:e</title>
<path fill="none" stroke="#000000" stroke-dasharray="5,2" d="M290.9107,-135.4088C277.0669,-146.7596 277.8557,-174.7 254,-174.7"/>
<polygon fill="#000000" stroke="#000000" points="297.4125,-133.2358 306.1411,-134.1144 301.2063,-131.9679 305,-130.7 305,-130.7 305,-130.7 301.2063,-131.9679 303.8589,-127.2856 297.4125,-133.2358 297.4125,-133.2358"/>
<ellipse fill="none" stroke="#000000" cx="294.3775" cy="-134.2502" rx="3.2" ry="3.2"/>
</g>
</g>
</svg>
