<?xml version="1.0" encoding="UTF-8" standalone="no"?>
<!DOCTYPE svg PUBLIC "-//W3C//DTD SVG 1.1//EN"
 "http://www.w3.org/Graphics/SVG/1.1/DTD/svg11.dtd">
<!-- Generated by graphviz version 2.40.1 (20161225.0304)
 -->
<!-- Title: oneDegreeRelationshipsDiagram Pages: 1 -->
<svg width="272pt" height="140pt"
 viewBox="0.00 0.00 272.00 140.20" xmlns="http://www.w3.org/2000/svg" xmlns:xlink="http://www.w3.org/1999/xlink">
<g id="graph0" class="graph" transform="scale(1 1) rotate(0) translate(4 136.2)">
<title>oneDegreeRelationshipsDiagram</title>
<polygon fill="#ffffff" stroke="transparent" points="-4,4 -4,-136.2 268,-136.2 268,4 -4,4"/>
<text text-anchor="middle" x="72.4936" y="-7.3" font-family="Helvetica,sans-Serif" font-size="11.00" fill="#000000">Generated by SchemaSpy</text>
<!-- oppilaitos_ip_osoite -->
<g id="node1" class="node">
<title>oppilaitos_ip_osoite</title>
<g id="a_node1"><a xlink:href="../../tables/oppilaitos_ip_osoite.html" xlink:title="oppilaitos_ip_osoite" target="_top">
<polygon fill="#ffffff" stroke="transparent" points="8,-38.2 8,-128.2 256,-128.2 256,-38.2 8,-38.2"/>
<polygon fill="#f5f5f5" stroke="transparent" points="10,-103.2 10,-126.2 254,-126.2 254,-103.2 10,-103.2"/>
<polygon fill="none" stroke="#000000" points="10,-103.2 10,-126.2 254,-126.2 254,-103.2 10,-103.2"/>
<text text-anchor="start" x="15" y="-111.8" font-family="Helvetica,sans-Serif" font-weight="bold" font-size="11.00" fill="#000000">oppilaitos_ip_osoite</text>
<text text-anchor="start" x="219.0437" y="-111.3" font-family="Helvetica,sans-Serif" font-size="11.00" fill="#000000">[table]</text>
<polygon fill="none" stroke="#000000" points="10,-81.2 10,-103.2 164,-103.2 164,-81.2 10,-81.2"/>
<image xlink:href="../../images/primaryKeys.png" width="11px" height="12px" preserveAspectRatio="xMinYMin meet" x="15" y="-98.2"/>
<text text-anchor="start" x="30" y="-88.3" font-family="Helvetica,sans-Serif" font-size="11.00" fill="#000000">username</text>
<polygon fill="none" stroke="#000000" points="164,-81.2 164,-103.2 254,-103.2 254,-81.2 164,-81.2"/>
<text text-anchor="start" x="166.5042" y="-88.9" font-family="Helvetica,sans-Serif" font-size="11.00" fill="#000000">text[2147483647]</text>
<polygon fill="none" stroke="#000000" points="10,-59.2 10,-81.2 164,-81.2 164,-59.2 10,-59.2"/>
<text text-anchor="start" x="30" y="-66.3" font-family="Helvetica,sans-Serif" font-size="11.00" fill="#000000">ip</text>
<polygon fill="none" stroke="#000000" points="164,-59.2 164,-81.2 254,-81.2 254,-59.2 164,-59.2"/>
<text text-anchor="start" x="166.5042" y="-66.9" font-family="Helvetica,sans-Serif" font-size="11.00" fill="#000000">text[2147483647]</text>
<polygon fill="#ffffff" stroke="transparent" points="10,-40.2 10,-59.2 91,-59.2 91,-40.2 10,-40.2"/>
<polygon fill="none" stroke="#000000" points="10,-40.2 10,-59.2 91,-59.2 91,-40.2 10,-40.2"/>
<text text-anchor="start" x="13" y="-46.3" font-family="Helvetica,sans-Serif" font-size="11.00" fill="#000000">&lt; 0</text>
<polygon fill="#ffffff" stroke="transparent" points="91,-40.2 91,-59.2 164,-59.2 164,-40.2 91,-40.2"/>
<polygon fill="none" stroke="#000000" points="91,-40.2 91,-59.2 164,-59.2 164,-40.2 91,-40.2"/>
<text text-anchor="start" x="154.8862" y="-46.3" font-family="Helvetica,sans-Serif" font-size="11.00" fill="#000000"> &#160;</text>
<polygon fill="#ffffff" stroke="transparent" points="164,-40.2 164,-59.2 254,-59.2 254,-40.2 164,-40.2"/>
<polygon fill="none" stroke="#000000" points="164,-40.2 164,-59.2 254,-59.2 254,-40.2 164,-40.2"/>
<text text-anchor="start" x="235.4053" y="-46.3" font-family="Helvetica,sans-Serif" font-size="11.00" fill="#000000">0 &gt;</text>
<polygon fill="none" stroke="#000000" stroke-width="2" points="9,-39.2 9,-127.2 255,-127.2 255,-39.2 9,-39.2"/>
</a>
</g>
</g>
</g>
</svg>
