<?xml version="1.0" encoding="UTF-8" standalone="no"?>
<!DOCTYPE svg PUBLIC "-//W3C//DTD SVG 1.1//EN"
 "http://www.w3.org/Graphics/SVG/1.1/DTD/svg11.dtd">
<!-- Generated by graphviz version 2.40.1 (20161225.0304)
 -->
<!-- Title: twoDegreesRelationshipsDiagram Pages: 1 -->
<svg width="737pt" height="477pt"
 viewBox="0.00 0.00 737.00 477.20" xmlns="http://www.w3.org/2000/svg" xmlns:xlink="http://www.w3.org/1999/xlink">
<g id="graph0" class="graph" transform="scale(1 1) rotate(0) translate(4 473.2)">
<title>twoDegreesRelationshipsDiagram</title>
<polygon fill="#ffffff" stroke="transparent" points="-4,4 -4,-473.2 733,-473.2 733,4 -4,4"/>
<text text-anchor="middle" x="72.4936" y="-7.3" font-family="Helvetica,sans-Serif" font-size="11.00" fill="#000000">Generated by SchemaSpy</text>
<!-- opiskeluoikeus -->
<g id="node1" class="node">
<title>opiskeluoikeus</title>
<g id="a_node1"><a xlink:href="../../tables/opiskeluoikeus.html" xlink:title="opiskeluoikeus" target="_top">
<polygon fill="#ffffff" stroke="transparent" points="149,-38.2 149,-385.2 405,-385.2 405,-38.2 149,-38.2"/>
<polygon fill="#f5f5f5" stroke="transparent" points="149,-361.7 149,-384.7 405,-384.7 405,-361.7 149,-361.7"/>
<polygon fill="none" stroke="#000000" points="149,-361.7 149,-384.7 405,-384.7 405,-361.7 149,-361.7"/>
<text text-anchor="start" x="154" y="-370.3" font-family="Helvetica,sans-Serif" font-weight="bold" font-size="11.00" fill="#000000">opiskeluoikeus</text>
<text text-anchor="start" x="370.0437" y="-369.8" font-family="Helvetica,sans-Serif" font-size="11.00" fill="#000000">[table]</text>
<polygon fill="none" stroke="#000000" points="149,-339.7 149,-361.7 405,-361.7 405,-339.7 149,-339.7"/>
<image xlink:href="../../images/primaryKeys.png" width="11px" height="12px" preserveAspectRatio="xMinYMin meet" x="154" y="-356.7"/>
<text text-anchor="start" x="169" y="-346.8" font-family="Helvetica,sans-Serif" font-size="11.00" fill="#000000">id</text>
<polygon fill="#ffffff" stroke="transparent" points="149,-317.7 149,-339.7 405,-339.7 405,-317.7 149,-317.7"/>
<polygon fill="none" stroke="#000000" points="149,-317.7 149,-339.7 405,-339.7 405,-317.7 149,-317.7"/>
<image xlink:href="../../images/foreignKeys.png" width="11px" height="12px" preserveAspectRatio="xMinYMin meet" x="154" y="-334.7"/>
<text text-anchor="start" x="169" y="-324.8" font-family="Helvetica,sans-Serif" font-size="11.00" fill="#000000">oppija_oid</text>
<polygon fill="#ffffff" stroke="transparent" points="149,-295.7 149,-317.7 405,-317.7 405,-295.7 149,-295.7"/>
<polygon fill="none" stroke="#000000" points="149,-295.7 149,-317.7 405,-317.7 405,-295.7 149,-295.7"/>
<text text-anchor="start" x="169" y="-302.8" font-family="Helvetica,sans-Serif" font-size="11.00" fill="#000000">aikaleima</text>
<polygon fill="#ffffff" stroke="transparent" points="149,-273.7 149,-295.7 405,-295.7 405,-273.7 149,-273.7"/>
<polygon fill="none" stroke="#000000" points="149,-273.7 149,-295.7 405,-295.7 405,-273.7 149,-273.7"/>
<text text-anchor="start" x="169" y="-280.8" font-family="Helvetica,sans-Serif" font-size="11.00" fill="#000000">oppilaitos_oid</text>
<polygon fill="#ffffff" stroke="transparent" points="149,-251.7 149,-273.7 405,-273.7 405,-251.7 149,-251.7"/>
<polygon fill="none" stroke="#000000" points="149,-251.7 149,-273.7 405,-273.7 405,-251.7 149,-251.7"/>
<text text-anchor="start" x="169" y="-258.8" font-family="Helvetica,sans-Serif" font-size="11.00" fill="#000000">sisaltava_opiskeluoikeus_oppilaitos_oid</text>
<polygon fill="#ffffff" stroke="transparent" points="149,-229.7 149,-251.7 405,-251.7 405,-229.7 149,-229.7"/>
<polygon fill="none" stroke="#000000" points="149,-229.7 149,-251.7 405,-251.7 405,-229.7 149,-229.7"/>
<text text-anchor="start" x="169" y="-236.8" font-family="Helvetica,sans-Serif" font-size="11.00" fill="#000000">oid</text>
<polygon fill="none" stroke="#000000" points="149,-207.7 149,-229.7 405,-229.7 405,-207.7 149,-207.7"/>
<image xlink:href="../../images/foreignKeys.png" width="11px" height="12px" preserveAspectRatio="xMinYMin meet" x="154" y="-224.7"/>
<text text-anchor="start" x="169" y="-214.8" font-family="Helvetica,sans-Serif" font-size="11.00" fill="#000000">sisaltava_opiskeluoikeus_oid</text>
<polygon fill="#ffffff" stroke="transparent" points="149,-185.7 149,-207.7 405,-207.7 405,-185.7 149,-185.7"/>
<polygon fill="none" stroke="#000000" points="149,-185.7 149,-207.7 405,-207.7 405,-185.7 149,-185.7"/>
<text text-anchor="start" x="169" y="-192.8" font-family="Helvetica,sans-Serif" font-size="11.00" fill="#000000">mitatoity</text>
<polygon fill="#ffffff" stroke="transparent" points="149,-163.7 149,-185.7 405,-185.7 405,-163.7 149,-163.7"/>
<polygon fill="none" stroke="#000000" points="149,-163.7 149,-185.7 405,-185.7 405,-163.7 149,-163.7"/>
<text text-anchor="start" x="169" y="-170.8" font-family="Helvetica,sans-Serif" font-size="11.00" fill="#000000">koulutusmuoto</text>
<polygon fill="#ffffff" stroke="transparent" points="149,-141.7 149,-163.7 405,-163.7 405,-141.7 149,-141.7"/>
<polygon fill="none" stroke="#000000" points="149,-141.7 149,-163.7 405,-163.7 405,-141.7 149,-141.7"/>
<text text-anchor="start" x="169" y="-148.8" font-family="Helvetica,sans-Serif" font-size="11.00" fill="#000000">alkamispaiva</text>
<polygon fill="#ffffff" stroke="transparent" points="149,-119.7 149,-141.7 405,-141.7 405,-119.7 149,-119.7"/>
<polygon fill="none" stroke="#000000" points="149,-119.7 149,-141.7 405,-141.7 405,-119.7 149,-119.7"/>
<text text-anchor="start" x="169" y="-126.8" font-family="Helvetica,sans-Serif" font-size="11.00" fill="#000000">paattymispaiva</text>
<polygon fill="#ffffff" stroke="transparent" points="149,-97.7 149,-119.7 405,-119.7 405,-97.7 149,-97.7"/>
<polygon fill="none" stroke="#000000" points="149,-97.7 149,-119.7 405,-119.7 405,-97.7 149,-97.7"/>
<text text-anchor="start" x="169" y="-104.8" font-family="Helvetica,sans-Serif" font-size="11.00" fill="#000000">suoritustyypit</text>
<polygon fill="#ffffff" stroke="transparent" points="149,-75.7 149,-97.7 405,-97.7 405,-75.7 149,-75.7"/>
<polygon fill="none" stroke="#000000" points="149,-75.7 149,-97.7 405,-97.7 405,-75.7 149,-75.7"/>
<text text-anchor="start" x="169" y="-82.8" font-family="Helvetica,sans-Serif" font-size="11.00" fill="#000000">poistettu</text>
<polygon fill="none" stroke="#000000" points="149,-56.7 149,-75.7 405,-75.7 405,-56.7 149,-56.7"/>
<text text-anchor="start" x="152" y="-62.8" font-family="Helvetica,sans-Serif" font-size="11.00" fill="#000000">...</text>
<polygon fill="#ffffff" stroke="transparent" points="149,-37.7 149,-56.7 252,-56.7 252,-37.7 149,-37.7"/>
<polygon fill="none" stroke="#000000" points="149,-37.7 149,-56.7 252,-56.7 252,-37.7 149,-37.7"/>
<text text-anchor="start" x="152" y="-43.8" font-family="Helvetica,sans-Serif" font-size="11.00" fill="#000000">&lt; 2</text>
<polygon fill="#ffffff" stroke="transparent" points="252,-37.7 252,-56.7 343,-56.7 343,-37.7 252,-37.7"/>
<polygon fill="none" stroke="#000000" points="252,-37.7 252,-56.7 343,-56.7 343,-37.7 252,-37.7"/>
<text text-anchor="start" x="295.3807" y="-43.8" font-family="Helvetica,sans-Serif" font-size="11.00" fill="#000000">161 rows</text>
<polygon fill="#ffffff" stroke="transparent" points="343,-37.7 343,-56.7 405,-56.7 405,-37.7 343,-37.7"/>
<polygon fill="none" stroke="#000000" points="343,-37.7 343,-56.7 405,-56.7 405,-37.7 343,-37.7"/>
<text text-anchor="start" x="386.4053" y="-43.8" font-family="Helvetica,sans-Serif" font-size="11.00" fill="#000000">4 &gt;</text>
</a>
</g>
</g>
<!-- henkilo -->
<g id="node2" class="node">
<title>henkilo</title>
<g id="a_node2"><a xlink:href="../../tables/henkilo.html" xlink:title="henkilo" target="_top">
<polygon fill="#ffffff" stroke="transparent" points="8,-301.2 8,-362.2 100,-362.2 100,-301.2 8,-301.2"/>
<polygon fill="#f5f5f5" stroke="transparent" points="8,-338.7 8,-361.7 100,-361.7 100,-338.7 8,-338.7"/>
<polygon fill="none" stroke="#000000" points="8,-338.7 8,-361.7 100,-361.7 100,-338.7 8,-338.7"/>
<text text-anchor="start" x="13" y="-347.3" font-family="Helvetica,sans-Serif" font-weight="bold" font-size="11.00" fill="#000000">henkilo</text>
<text text-anchor="start" x="65.0437" y="-346.8" font-family="Helvetica,sans-Serif" font-size="11.00" fill="#000000">[table]</text>
<polygon fill="none" stroke="#000000" points="8,-319.7 8,-338.7 100,-338.7 100,-319.7 8,-319.7"/>
<text text-anchor="start" x="11" y="-325.8" font-family="Helvetica,sans-Serif" font-size="11.00" fill="#000000">...</text>
<polygon fill="#ffffff" stroke="transparent" points="8,-300.7 8,-319.7 29,-319.7 29,-300.7 8,-300.7"/>
<polygon fill="none" stroke="#000000" points="8,-300.7 8,-319.7 29,-319.7 29,-300.7 8,-300.7"/>
<text text-anchor="start" x="10.7027" y="-306.8" font-family="Helvetica,sans-Serif" font-size="11.00" fill="#000000">&lt; 1</text>
<polygon fill="#ffffff" stroke="transparent" points="29,-300.7 29,-319.7 79,-319.7 79,-300.7 29,-300.7"/>
<polygon fill="none" stroke="#000000" points="29,-300.7 29,-319.7 79,-319.7 79,-300.7 29,-300.7"/>
<text text-anchor="start" x="31.6904" y="-306.8" font-family="Helvetica,sans-Serif" font-size="11.00" fill="#000000">197 rows</text>
<polygon fill="#ffffff" stroke="transparent" points="79,-300.7 79,-319.7 100,-319.7 100,-300.7 79,-300.7"/>
<polygon fill="none" stroke="#000000" points="79,-300.7 79,-319.7 100,-319.7 100,-300.7 79,-300.7"/>
<text text-anchor="start" x="81.7027" y="-306.8" font-family="Helvetica,sans-Serif" font-size="11.00" fill="#000000">3 &gt;</text>
</a>
</g>
</g>
<!-- opiskeluoikeus&#45;&gt;henkilo -->
<g id="edge1" class="edge">
<title>opiskeluoikeus:w&#45;&gt;henkilo:e</title>
<path fill="none" stroke="#000000" d="M138.2573,-328.7C124.6063,-328.7 117.6944,-328.7 100,-328.7"/>
<polygon fill="#000000" stroke="#000000" points="148.2,-324.7 148.2,-332.7 146.6,-332.7 146.6,-324.7 148.2,-324.7"/>
<polyline fill="none" stroke="#000000" points="149,-328.7 145,-328.7 "/>
<ellipse fill="none" stroke="#000000" cx="141.8" cy="-328.7001" rx="3.2" ry="3.2"/>
</g>
<!-- opiskeluoikeushistoria -->
<g id="node3" class="node">
<title>opiskeluoikeushistoria</title>
<g id="a_node3"><a xlink:href="../../tables/opiskeluoikeushistoria.html" xlink:title="opiskeluoikeushistoria" target="_top">
<polygon fill="#ffffff" stroke="transparent" points="500,-404.2 500,-465.2 675,-465.2 675,-404.2 500,-404.2"/>
<polygon fill="#f5f5f5" stroke="transparent" points="500.5,-441.7 500.5,-464.7 675.5,-464.7 675.5,-441.7 500.5,-441.7"/>
<polygon fill="none" stroke="#000000" points="500.5,-441.7 500.5,-464.7 675.5,-464.7 675.5,-441.7 500.5,-441.7"/>
<text text-anchor="start" x="505.5" y="-450.3" font-family="Helvetica,sans-Serif" font-weight="bold" font-size="11.00" fill="#000000">opiskeluoikeushistoria</text>
<text text-anchor="start" x="641.0219" y="-449.8" font-family="Helvetica,sans-Serif" font-size="11.00" fill="#000000">[table]</text>
<polygon fill="none" stroke="#000000" points="500.5,-422.7 500.5,-441.7 675.5,-441.7 675.5,-422.7 500.5,-422.7"/>
<text text-anchor="start" x="503.5" y="-428.8" font-family="Helvetica,sans-Serif" font-size="11.00" fill="#000000">...</text>
<polygon fill="#ffffff" stroke="transparent" points="500.5,-403.7 500.5,-422.7 567.5,-422.7 567.5,-403.7 500.5,-403.7"/>
<polygon fill="none" stroke="#000000" points="500.5,-403.7 500.5,-422.7 567.5,-422.7 567.5,-403.7 500.5,-403.7"/>
<text text-anchor="start" x="503.5" y="-409.8" font-family="Helvetica,sans-Serif" font-size="11.00" fill="#000000">&lt; 1</text>
<polygon fill="#ffffff" stroke="transparent" points="567.5,-403.7 567.5,-422.7 640.5,-422.7 640.5,-403.7 567.5,-403.7"/>
<polygon fill="none" stroke="#000000" points="567.5,-403.7 567.5,-422.7 640.5,-422.7 640.5,-403.7 567.5,-403.7"/>
<text text-anchor="start" x="592.8807" y="-409.8" font-family="Helvetica,sans-Serif" font-size="11.00" fill="#000000">156 rows</text>
<polygon fill="#ffffff" stroke="transparent" points="640.5,-403.7 640.5,-422.7 675.5,-422.7 675.5,-403.7 640.5,-403.7"/>
<polygon fill="none" stroke="#000000" points="640.5,-403.7 640.5,-422.7 675.5,-422.7 675.5,-403.7 640.5,-403.7"/>
<text text-anchor="start" x="666.3862" y="-409.8" font-family="Helvetica,sans-Serif" font-size="11.00" fill="#000000"> &#160;</text>
</a>
</g>
</g>
<!-- opiskeluoikeushistoria&#45;&gt;opiskeluoikeus -->
<g id="edge2" class="edge">
<title>opiskeluoikeushistoria:w&#45;&gt;opiskeluoikeus:e</title>
<path fill="none" stroke="#000000" d="M485.9355,-429.688C469.2142,-424.3493 464.0347,-409.1712 446,-393.7 425.9581,-376.5068 431.4061,-350.7 405,-350.7"/>
<polygon fill="#000000" stroke="#000000" points="492.5753,-430.6052 500.0073,-435.2661 496.5376,-431.1526 500.5,-431.7 500.5,-431.7 500.5,-431.7 496.5376,-431.1526 500.9927,-428.1339 492.5753,-430.6052 492.5753,-430.6052"/>
<ellipse fill="none" stroke="#000000" cx="489.4054" cy="-430.1673" rx="3.2" ry="3.2"/>
</g>
<!-- perustiedot_manual_sync -->
<g id="node4" class="node">
<title>perustiedot_manual_sync</title>
<g id="a_node4"><a xlink:href="../../tables/perustiedot_manual_sync.html" xlink:title="perustiedot_manual_sync" target="_top">
<polygon fill="#ffffff" stroke="transparent" points="454,-164.7 454,-298.7 721,-298.7 721,-164.7 454,-164.7"/>
<polygon fill="#f5f5f5" stroke="transparent" points="456.5,-273.7 456.5,-296.7 719.5,-296.7 719.5,-273.7 456.5,-273.7"/>
<polygon fill="none" stroke="#000000" points="456.5,-273.7 456.5,-296.7 719.5,-296.7 719.5,-273.7 456.5,-273.7"/>
<text text-anchor="start" x="461.5" y="-282.3" font-family="Helvetica,sans-Serif" font-weight="bold" font-size="11.00" fill="#000000">perustiedot_manual_sync</text>
<text text-anchor="start" x="684.5437" y="-281.8" font-family="Helvetica,sans-Serif" font-size="11.00" fill="#000000">[table]</text>
<polygon fill="none" stroke="#000000" points="456.5,-251.7 456.5,-273.7 629.5,-273.7 629.5,-251.7 456.5,-251.7"/>
<image xlink:href="../../images/primaryKeys.png" width="11px" height="12px" preserveAspectRatio="xMinYMin meet" x="461.5" y="-268.7"/>
<text text-anchor="start" x="476.5" y="-258.8" font-family="Helvetica,sans-Serif" font-size="11.00" fill="#000000">id</text>
<polygon fill="none" stroke="#000000" points="629.5,-251.7 629.5,-273.7 719.5,-273.7 719.5,-251.7 629.5,-251.7"/>
<text text-anchor="start" x="632.5" y="-259.4" font-family="Helvetica,sans-Serif" font-size="11.00" fill="#000000">serial[10]</text>
<polygon fill="none" stroke="#000000" points="456.5,-229.7 456.5,-251.7 629.5,-251.7 629.5,-229.7 456.5,-229.7"/>
<image xlink:href="../../images/foreignKeys.png" width="11px" height="12px" preserveAspectRatio="xMinYMin meet" x="461.5" y="-246.7"/>
<text text-anchor="start" x="476.5" y="-236.8" font-family="Helvetica,sans-Serif" font-size="11.00" fill="#000000">opiskeluoikeus_oid</text>
<polygon fill="none" stroke="#000000" points="629.5,-229.7 629.5,-251.7 719.5,-251.7 719.5,-229.7 629.5,-229.7"/>
<text text-anchor="start" x="632.0043" y="-237.4" font-family="Helvetica,sans-Serif" font-size="11.00" fill="#000000">text[2147483647]</text>
<polygon fill="none" stroke="#000000" points="456.5,-207.7 456.5,-229.7 629.5,-229.7 629.5,-207.7 456.5,-207.7"/>
<text text-anchor="start" x="476.5" y="-214.8" font-family="Helvetica,sans-Serif" font-size="11.00" fill="#000000">upsert</text>
<polygon fill="none" stroke="#000000" points="629.5,-207.7 629.5,-229.7 719.5,-229.7 719.5,-207.7 629.5,-207.7"/>
<text text-anchor="start" x="632.5" y="-215.4" font-family="Helvetica,sans-Serif" font-size="11.00" fill="#000000">bool[1]</text>
<polygon fill="none" stroke="#000000" points="456.5,-185.7 456.5,-207.7 629.5,-207.7 629.5,-185.7 456.5,-185.7"/>
<text text-anchor="start" x="476.5" y="-192.8" font-family="Helvetica,sans-Serif" font-size="11.00" fill="#000000">aikaleima</text>
<polygon fill="none" stroke="#000000" points="629.5,-185.7 629.5,-207.7 719.5,-207.7 719.5,-185.7 629.5,-185.7"/>
<text text-anchor="start" x="632.5" y="-193.4" font-family="Helvetica,sans-Serif" font-size="11.00" fill="#000000">timestamp[29,6]</text>
<polygon fill="#ffffff" stroke="transparent" points="456.5,-166.7 456.5,-185.7 547.5,-185.7 547.5,-166.7 456.5,-166.7"/>
<polygon fill="none" stroke="#000000" points="456.5,-166.7 456.5,-185.7 547.5,-185.7 547.5,-166.7 456.5,-166.7"/>
<text text-anchor="start" x="459.5" y="-172.8" font-family="Helvetica,sans-Serif" font-size="11.00" fill="#000000">&lt; 1</text>
<polygon fill="#ffffff" stroke="transparent" points="547.5,-166.7 547.5,-185.7 629.5,-185.7 629.5,-166.7 547.5,-166.7"/>
<polygon fill="none" stroke="#000000" points="547.5,-166.7 547.5,-185.7 629.5,-185.7 629.5,-166.7 547.5,-166.7"/>
<text text-anchor="start" x="620.3862" y="-172.8" font-family="Helvetica,sans-Serif" font-size="11.00" fill="#000000"> &#160;</text>
<polygon fill="#ffffff" stroke="transparent" points="629.5,-166.7 629.5,-185.7 719.5,-185.7 719.5,-166.7 629.5,-166.7"/>
<polygon fill="none" stroke="#000000" points="629.5,-166.7 629.5,-185.7 719.5,-185.7 719.5,-166.7 629.5,-166.7"/>
<text text-anchor="start" x="700.9053" y="-172.8" font-family="Helvetica,sans-Serif" font-size="11.00" fill="#000000">0 &gt;</text>
<polygon fill="none" stroke="#000000" stroke-width="2" points="455,-165.7 455,-297.7 720,-297.7 720,-165.7 455,-165.7"/>
</a>
</g>
</g>
<!-- perustiedot_manual_sync&#45;&gt;opiskeluoikeus -->
<g id="edge3" class="edge">
<title>perustiedot_manual_sync:w&#45;&gt;opiskeluoikeus:e</title>
<path fill="none" stroke="#000000" d="M442.0156,-240.7C429.6771,-240.7 422.1667,-240.7 405,-240.7"/>
<polygon fill="#000000" stroke="#000000" points="448.5,-240.7001 456.5,-244.3 452.5,-240.7 456.5,-240.7 456.5,-240.7 456.5,-240.7 452.5,-240.7 456.5,-237.1 448.5,-240.7001 448.5,-240.7001"/>
<ellipse fill="none" stroke="#000000" cx="445.3" cy="-240.7001" rx="3.2" ry="3.2"/>
</g>
<!-- perustiedot_sync -->
<g id="node5" class="node">
<title>perustiedot_sync</title>
<g id="a_node5"><a xlink:href="../../tables/perustiedot_sync.html" xlink:title="perustiedot_sync" target="_top">
<polygon fill="#ffffff" stroke="transparent" points="517.5,-322.2 517.5,-383.2 657.5,-383.2 657.5,-322.2 517.5,-322.2"/>
<polygon fill="#f5f5f5" stroke="transparent" points="517.5,-359.7 517.5,-382.7 657.5,-382.7 657.5,-359.7 517.5,-359.7"/>
<polygon fill="none" stroke="#000000" points="517.5,-359.7 517.5,-382.7 657.5,-382.7 657.5,-359.7 517.5,-359.7"/>
<text text-anchor="start" x="522.5" y="-368.3" font-family="Helvetica,sans-Serif" font-weight="bold" font-size="11.00" fill="#000000">perustiedot_sync</text>
<text text-anchor="start" x="623.0219" y="-367.8" font-family="Helvetica,sans-Serif" font-size="11.00" fill="#000000">[table]</text>
<polygon fill="none" stroke="#000000" points="517.5,-340.7 517.5,-359.7 657.5,-359.7 657.5,-340.7 517.5,-340.7"/>
<text text-anchor="start" x="520.5" y="-346.8" font-family="Helvetica,sans-Serif" font-size="11.00" fill="#000000">...</text>
<polygon fill="#ffffff" stroke="transparent" points="517.5,-321.7 517.5,-340.7 572.5,-340.7 572.5,-321.7 517.5,-321.7"/>
<polygon fill="none" stroke="#000000" points="517.5,-321.7 517.5,-340.7 572.5,-340.7 572.5,-321.7 517.5,-321.7"/>
<text text-anchor="start" x="520.5" y="-327.8" font-family="Helvetica,sans-Serif" font-size="11.00" fill="#000000">&lt; 1</text>
<polygon fill="#ffffff" stroke="transparent" points="572.5,-321.7 572.5,-340.7 627.5,-340.7 627.5,-321.7 572.5,-321.7"/>
<polygon fill="none" stroke="#000000" points="572.5,-321.7 572.5,-340.7 627.5,-340.7 627.5,-321.7 572.5,-321.7"/>
<text text-anchor="start" x="592.1105" y="-327.8" font-family="Helvetica,sans-Serif" font-size="11.00" fill="#000000">0 rows</text>
<polygon fill="#ffffff" stroke="transparent" points="627.5,-321.7 627.5,-340.7 657.5,-340.7 657.5,-321.7 627.5,-321.7"/>
<polygon fill="none" stroke="#000000" points="627.5,-321.7 627.5,-340.7 657.5,-340.7 657.5,-321.7 627.5,-321.7"/>
<text text-anchor="start" x="648.3862" y="-327.8" font-family="Helvetica,sans-Serif" font-size="11.00" fill="#000000"> &#160;</text>
</a>
</g>
</g>
<!-- perustiedot_sync&#45;&gt;opiskeluoikeus -->
<g id="edge4" class="edge">
<title>perustiedot_sync:w&#45;&gt;opiskeluoikeus:e</title>
<path fill="none" stroke="#000000" d="M503.0945,-349.7299C464.5091,-349.8963 449.826,-350.7 405,-350.7"/>
<polygon fill="#000000" stroke="#000000" points="509.5,-349.7167 517.5075,-353.3 513.5,-349.7083 517.5,-349.7 517.5,-349.7 517.5,-349.7 513.5,-349.7083 517.4925,-346.1 509.5,-349.7167 509.5,-349.7167"/>
<ellipse fill="none" stroke="#000000" cx="506.3" cy="-349.7233" rx="3.2" ry="3.2"/>
</g>
</g>
</svg>
