<?xml version="1.0" encoding="UTF-8" standalone="no"?>
<!DOCTYPE svg PUBLIC "-//W3C//DTD SVG 1.1//EN"
 "http://www.w3.org/Graphics/SVG/1.1/DTD/svg11.dtd">
<!-- Generated by graphviz version 2.40.1 (20161225.0304)
 -->
<!-- Title: twoDegreesRelationshipsDiagram Pages: 1 -->
<svg width="719pt" height="477pt"
 viewBox="0.00 0.00 719.00 477.20" xmlns="http://www.w3.org/2000/svg" xmlns:xlink="http://www.w3.org/1999/xlink">
<g id="graph0" class="graph" transform="scale(1 1) rotate(0) translate(4 473.2)">
<title>twoDegreesRelationshipsDiagram</title>
<polygon fill="#ffffff" stroke="transparent" points="-4,4 -4,-473.2 715,-473.2 715,4 -4,4"/>
<text text-anchor="middle" x="72.4936" y="-7.3" font-family="Helvetica,sans-Serif" font-size="11.00" fill="#000000">Generated by SchemaSpy</text>
<!-- opiskeluoikeus -->
<g id="node1" class="node">
<title>opiskeluoikeus</title>
<g id="a_node1"><a xlink:href="../../tables/opiskeluoikeus.html" xlink:title="opiskeluoikeus" target="_top">
<polygon fill="#ffffff" stroke="transparent" points="138,-38.2 138,-385.2 391,-385.2 391,-38.2 138,-38.2"/>
<polygon fill="#f5f5f5" stroke="transparent" points="138.5,-361.7 138.5,-384.7 391.5,-384.7 391.5,-361.7 138.5,-361.7"/>
<polygon fill="none" stroke="#000000" points="138.5,-361.7 138.5,-384.7 391.5,-384.7 391.5,-361.7 138.5,-361.7"/>
<text text-anchor="start" x="143.5" y="-370.3" font-family="Helvetica,sans-Serif" font-weight="bold" font-size="11.00" fill="#000000">opiskeluoikeus</text>
<text text-anchor="start" x="356.5437" y="-369.8" font-family="Helvetica,sans-Serif" font-size="11.00" fill="#000000">[table]</text>
<polygon fill="none" stroke="#000000" points="138.5,-339.7 138.5,-361.7 391.5,-361.7 391.5,-339.7 138.5,-339.7"/>
<image xlink:href="../../images/primaryKeys.png" width="11px" height="12px" preserveAspectRatio="xMinYMin meet" x="143.5" y="-356.7"/>
<text text-anchor="start" x="158.5" y="-346.8" font-family="Helvetica,sans-Serif" font-size="11.00" fill="#000000">id</text>
<polygon fill="#ffffff" stroke="transparent" points="138.5,-317.7 138.5,-339.7 391.5,-339.7 391.5,-317.7 138.5,-317.7"/>
<polygon fill="none" stroke="#000000" points="138.5,-317.7 138.5,-339.7 391.5,-339.7 391.5,-317.7 138.5,-317.7"/>
<image xlink:href="../../images/foreignKeys.png" width="11px" height="12px" preserveAspectRatio="xMinYMin meet" x="143.5" y="-334.7"/>
<text text-anchor="start" x="158.5" y="-324.8" font-family="Helvetica,sans-Serif" font-size="11.00" fill="#000000">oppija_oid</text>
<polygon fill="#ffffff" stroke="transparent" points="138.5,-295.7 138.5,-317.7 391.5,-317.7 391.5,-295.7 138.5,-295.7"/>
<polygon fill="none" stroke="#000000" points="138.5,-295.7 138.5,-317.7 391.5,-317.7 391.5,-295.7 138.5,-295.7"/>
<text text-anchor="start" x="158.5" y="-302.8" font-family="Helvetica,sans-Serif" font-size="11.00" fill="#000000">aikaleima</text>
<polygon fill="#ffffff" stroke="transparent" points="138.5,-273.7 138.5,-295.7 391.5,-295.7 391.5,-273.7 138.5,-273.7"/>
<polygon fill="none" stroke="#000000" points="138.5,-273.7 138.5,-295.7 391.5,-295.7 391.5,-273.7 138.5,-273.7"/>
<text text-anchor="start" x="158.5" y="-280.8" font-family="Helvetica,sans-Serif" font-size="11.00" fill="#000000">oppilaitos_oid</text>
<polygon fill="#ffffff" stroke="transparent" points="138.5,-251.7 138.5,-273.7 391.5,-273.7 391.5,-251.7 138.5,-251.7"/>
<polygon fill="none" stroke="#000000" points="138.5,-251.7 138.5,-273.7 391.5,-273.7 391.5,-251.7 138.5,-251.7"/>
<text text-anchor="start" x="158.5" y="-258.8" font-family="Helvetica,sans-Serif" font-size="11.00" fill="#000000">sisaltava_opiskeluoikeus_oppilaitos_oid</text>
<polygon fill="#ffffff" stroke="transparent" points="138.5,-229.7 138.5,-251.7 391.5,-251.7 391.5,-229.7 138.5,-229.7"/>
<polygon fill="none" stroke="#000000" points="138.5,-229.7 138.5,-251.7 391.5,-251.7 391.5,-229.7 138.5,-229.7"/>
<text text-anchor="start" x="158.5" y="-236.8" font-family="Helvetica,sans-Serif" font-size="11.00" fill="#000000">oid</text>
<polygon fill="none" stroke="#000000" points="138.5,-207.7 138.5,-229.7 391.5,-229.7 391.5,-207.7 138.5,-207.7"/>
<image xlink:href="../../images/foreignKeys.png" width="11px" height="12px" preserveAspectRatio="xMinYMin meet" x="143.5" y="-224.7"/>
<text text-anchor="start" x="158.5" y="-214.8" font-family="Helvetica,sans-Serif" font-size="11.00" fill="#000000">sisaltava_opiskeluoikeus_oid</text>
<polygon fill="#ffffff" stroke="transparent" points="138.5,-185.7 138.5,-207.7 391.5,-207.7 391.5,-185.7 138.5,-185.7"/>
<polygon fill="none" stroke="#000000" points="138.5,-185.7 138.5,-207.7 391.5,-207.7 391.5,-185.7 138.5,-185.7"/>
<text text-anchor="start" x="158.5" y="-192.8" font-family="Helvetica,sans-Serif" font-size="11.00" fill="#000000">mitatoity</text>
<polygon fill="#ffffff" stroke="transparent" points="138.5,-163.7 138.5,-185.7 391.5,-185.7 391.5,-163.7 138.5,-163.7"/>
<polygon fill="none" stroke="#000000" points="138.5,-163.7 138.5,-185.7 391.5,-185.7 391.5,-163.7 138.5,-163.7"/>
<text text-anchor="start" x="158.5" y="-170.8" font-family="Helvetica,sans-Serif" font-size="11.00" fill="#000000">koulutusmuoto</text>
<polygon fill="#ffffff" stroke="transparent" points="138.5,-141.7 138.5,-163.7 391.5,-163.7 391.5,-141.7 138.5,-141.7"/>
<polygon fill="none" stroke="#000000" points="138.5,-141.7 138.5,-163.7 391.5,-163.7 391.5,-141.7 138.5,-141.7"/>
<text text-anchor="start" x="158.5" y="-148.8" font-family="Helvetica,sans-Serif" font-size="11.00" fill="#000000">alkamispaiva</text>
<polygon fill="#ffffff" stroke="transparent" points="138.5,-119.7 138.5,-141.7 391.5,-141.7 391.5,-119.7 138.5,-119.7"/>
<polygon fill="none" stroke="#000000" points="138.5,-119.7 138.5,-141.7 391.5,-141.7 391.5,-119.7 138.5,-119.7"/>
<text text-anchor="start" x="158.5" y="-126.8" font-family="Helvetica,sans-Serif" font-size="11.00" fill="#000000">paattymispaiva</text>
<polygon fill="#ffffff" stroke="transparent" points="138.5,-97.7 138.5,-119.7 391.5,-119.7 391.5,-97.7 138.5,-97.7"/>
<polygon fill="none" stroke="#000000" points="138.5,-97.7 138.5,-119.7 391.5,-119.7 391.5,-97.7 138.5,-97.7"/>
<text text-anchor="start" x="158.5" y="-104.8" font-family="Helvetica,sans-Serif" font-size="11.00" fill="#000000">suoritustyypit</text>
<polygon fill="#ffffff" stroke="transparent" points="138.5,-75.7 138.5,-97.7 391.5,-97.7 391.5,-75.7 138.5,-75.7"/>
<polygon fill="none" stroke="#000000" points="138.5,-75.7 138.5,-97.7 391.5,-97.7 391.5,-75.7 138.5,-75.7"/>
<text text-anchor="start" x="158.5" y="-82.8" font-family="Helvetica,sans-Serif" font-size="11.00" fill="#000000">poistettu</text>
<polygon fill="none" stroke="#000000" points="138.5,-56.7 138.5,-75.7 391.5,-75.7 391.5,-56.7 138.5,-56.7"/>
<text text-anchor="start" x="141.5" y="-62.8" font-family="Helvetica,sans-Serif" font-size="11.00" fill="#000000">...</text>
<polygon fill="#ffffff" stroke="transparent" points="138.5,-37.7 138.5,-56.7 245.5,-56.7 245.5,-37.7 138.5,-37.7"/>
<polygon fill="none" stroke="#000000" points="138.5,-37.7 138.5,-56.7 245.5,-56.7 245.5,-37.7 138.5,-37.7"/>
<text text-anchor="start" x="141.5" y="-43.8" font-family="Helvetica,sans-Serif" font-size="11.00" fill="#000000">&lt; 2</text>
<polygon fill="#ffffff" stroke="transparent" points="245.5,-37.7 245.5,-56.7 326.5,-56.7 326.5,-37.7 245.5,-37.7"/>
<polygon fill="none" stroke="#000000" points="245.5,-37.7 245.5,-56.7 326.5,-56.7 326.5,-37.7 245.5,-37.7"/>
<text text-anchor="start" x="291.1105" y="-43.8" font-family="Helvetica,sans-Serif" font-size="11.00" fill="#000000">0 rows</text>
<polygon fill="#ffffff" stroke="transparent" points="326.5,-37.7 326.5,-56.7 391.5,-56.7 391.5,-37.7 326.5,-37.7"/>
<polygon fill="none" stroke="#000000" points="326.5,-37.7 326.5,-56.7 391.5,-56.7 391.5,-37.7 326.5,-37.7"/>
<text text-anchor="start" x="372.9053" y="-43.8" font-family="Helvetica,sans-Serif" font-size="11.00" fill="#000000">4 &gt;</text>
</a>
</g>
</g>
<!-- henkilo -->
<g id="node2" class="node">
<title>henkilo</title>
<g id="a_node2"><a xlink:href="../../tables/henkilo.html" xlink:title="henkilo" target="_top">
<polygon fill="#ffffff" stroke="transparent" points="8,-301.2 8,-362.2 89,-362.2 89,-301.2 8,-301.2"/>
<polygon fill="#f5f5f5" stroke="transparent" points="8.5,-338.7 8.5,-361.7 89.5,-361.7 89.5,-338.7 8.5,-338.7"/>
<polygon fill="none" stroke="#000000" points="8.5,-338.7 8.5,-361.7 89.5,-361.7 89.5,-338.7 8.5,-338.7"/>
<text text-anchor="start" x="13.5" y="-347.3" font-family="Helvetica,sans-Serif" font-weight="bold" font-size="11.00" fill="#000000">henkilo</text>
<text text-anchor="start" x="55.0219" y="-346.8" font-family="Helvetica,sans-Serif" font-size="11.00" fill="#000000">[table]</text>
<polygon fill="none" stroke="#000000" points="8.5,-319.7 8.5,-338.7 89.5,-338.7 89.5,-319.7 8.5,-319.7"/>
<text text-anchor="start" x="11.5" y="-325.8" font-family="Helvetica,sans-Serif" font-size="11.00" fill="#000000">...</text>
<polygon fill="#ffffff" stroke="transparent" points="8.5,-300.7 8.5,-319.7 29.5,-319.7 29.5,-300.7 8.5,-300.7"/>
<polygon fill="none" stroke="#000000" points="8.5,-300.7 8.5,-319.7 29.5,-319.7 29.5,-300.7 8.5,-300.7"/>
<text text-anchor="start" x="11.2027" y="-306.8" font-family="Helvetica,sans-Serif" font-size="11.00" fill="#000000">&lt; 1</text>
<polygon fill="#ffffff" stroke="transparent" points="29.5,-300.7 29.5,-319.7 67.5,-319.7 67.5,-300.7 29.5,-300.7"/>
<polygon fill="none" stroke="#000000" points="29.5,-300.7 29.5,-319.7 67.5,-319.7 67.5,-300.7 29.5,-300.7"/>
<text text-anchor="start" x="32.3053" y="-306.8" font-family="Helvetica,sans-Serif" font-size="11.00" fill="#000000">0 rows</text>
<polygon fill="#ffffff" stroke="transparent" points="67.5,-300.7 67.5,-319.7 89.5,-319.7 89.5,-300.7 67.5,-300.7"/>
<polygon fill="none" stroke="#000000" points="67.5,-300.7 67.5,-319.7 89.5,-319.7 89.5,-300.7 67.5,-300.7"/>
<text text-anchor="start" x="70.9053" y="-306.8" font-family="Helvetica,sans-Serif" font-size="11.00" fill="#000000">3 &gt;</text>
</a>
</g>
</g>
<!-- opiskeluoikeus&#45;&gt;henkilo -->
<g id="edge1" class="edge">
<title>opiskeluoikeus:w&#45;&gt;henkilo:e</title>
<path fill="none" stroke="#000000" d="M127.7573,-328.7C114.1063,-328.7 107.1944,-328.7 89.5,-328.7"/>
<polygon fill="#000000" stroke="#000000" points="137.7,-324.7 137.7,-332.7 136.1,-332.7 136.1,-324.7 137.7,-324.7"/>
<polyline fill="none" stroke="#000000" points="138.5,-328.7 134.5,-328.7 "/>
<ellipse fill="none" stroke="#000000" cx="131.3" cy="-328.7001" rx="3.2" ry="3.2"/>
</g>
<!-- opiskeluoikeushistoria -->
<g id="node3" class="node">
<title>opiskeluoikeushistoria</title>
<g id="a_node3"><a xlink:href="../../tables/opiskeluoikeushistoria.html" xlink:title="opiskeluoikeushistoria" target="_top">
<polygon fill="#ffffff" stroke="transparent" points="487,-404.2 487,-465.2 656,-465.2 656,-404.2 487,-404.2"/>
<polygon fill="#f5f5f5" stroke="transparent" points="487.5,-441.7 487.5,-464.7 656.5,-464.7 656.5,-441.7 487.5,-441.7"/>
<polygon fill="none" stroke="#000000" points="487.5,-441.7 487.5,-464.7 656.5,-464.7 656.5,-441.7 487.5,-441.7"/>
<text text-anchor="start" x="492.5" y="-450.3" font-family="Helvetica,sans-Serif" font-weight="bold" font-size="11.00" fill="#000000">opiskeluoikeushistoria</text>
<text text-anchor="start" x="622.0219" y="-449.8" font-family="Helvetica,sans-Serif" font-size="11.00" fill="#000000">[table]</text>
<polygon fill="none" stroke="#000000" points="487.5,-422.7 487.5,-441.7 656.5,-441.7 656.5,-422.7 487.5,-422.7"/>
<text text-anchor="start" x="490.5" y="-428.8" font-family="Helvetica,sans-Serif" font-size="11.00" fill="#000000">...</text>
<polygon fill="#ffffff" stroke="transparent" points="487.5,-403.7 487.5,-422.7 557.5,-422.7 557.5,-403.7 487.5,-403.7"/>
<polygon fill="none" stroke="#000000" points="487.5,-403.7 487.5,-422.7 557.5,-422.7 557.5,-403.7 487.5,-403.7"/>
<text text-anchor="start" x="490.5" y="-409.8" font-family="Helvetica,sans-Serif" font-size="11.00" fill="#000000">&lt; 1</text>
<polygon fill="#ffffff" stroke="transparent" points="557.5,-403.7 557.5,-422.7 619.5,-422.7 619.5,-403.7 557.5,-403.7"/>
<polygon fill="none" stroke="#000000" points="557.5,-403.7 557.5,-422.7 619.5,-422.7 619.5,-403.7 557.5,-403.7"/>
<text text-anchor="start" x="584.1105" y="-409.8" font-family="Helvetica,sans-Serif" font-size="11.00" fill="#000000">0 rows</text>
<polygon fill="#ffffff" stroke="transparent" points="619.5,-403.7 619.5,-422.7 656.5,-422.7 656.5,-403.7 619.5,-403.7"/>
<polygon fill="none" stroke="#000000" points="619.5,-403.7 619.5,-422.7 656.5,-422.7 656.5,-403.7 619.5,-403.7"/>
<text text-anchor="start" x="647.3862" y="-409.8" font-family="Helvetica,sans-Serif" font-size="11.00" fill="#000000"> &#160;</text>
</a>
</g>
</g>
<!-- opiskeluoikeushistoria&#45;&gt;opiskeluoikeus -->
<g id="edge2" class="edge">
<title>opiskeluoikeushistoria:w&#45;&gt;opiskeluoikeus:e</title>
<path fill="none" stroke="#000000" d="M472.725,-429.7075C455.7194,-424.4156 450.2766,-409.3411 432,-393.7 412.0538,-376.63 417.7533,-350.7 391.5,-350.7"/>
<polygon fill="#000000" stroke="#000000" points="479.5718,-430.6308 487.0188,-435.2677 483.5359,-431.1654 487.5,-431.7 487.5,-431.7 487.5,-431.7 483.5359,-431.1654 487.9812,-428.1323 479.5718,-430.6308 479.5718,-430.6308"/>
<ellipse fill="none" stroke="#000000" cx="476.4005" cy="-430.2031" rx="3.2" ry="3.2"/>
</g>
<!-- perustiedot_manual_sync -->
<g id="node4" class="node">
<title>perustiedot_manual_sync</title>
<g id="a_node4"><a xlink:href="../../tables/perustiedot_manual_sync.html" xlink:title="perustiedot_manual_sync" target="_top">
<polygon fill="#ffffff" stroke="transparent" points="440,-164.7 440,-298.7 703,-298.7 703,-164.7 440,-164.7"/>
<polygon fill="#f5f5f5" stroke="transparent" points="442.5,-273.7 442.5,-296.7 701.5,-296.7 701.5,-273.7 442.5,-273.7"/>
<polygon fill="none" stroke="#000000" points="442.5,-273.7 442.5,-296.7 701.5,-296.7 701.5,-273.7 442.5,-273.7"/>
<text text-anchor="start" x="447.5" y="-282.3" font-family="Helvetica,sans-Serif" font-weight="bold" font-size="11.00" fill="#000000">perustiedot_manual_sync</text>
<text text-anchor="start" x="666.5437" y="-281.8" font-family="Helvetica,sans-Serif" font-size="11.00" fill="#000000">[table]</text>
<polygon fill="none" stroke="#000000" points="442.5,-251.7 442.5,-273.7 611.5,-273.7 611.5,-251.7 442.5,-251.7"/>
<image xlink:href="../../images/primaryKeys.png" width="11px" height="12px" preserveAspectRatio="xMinYMin meet" x="447.5" y="-268.7"/>
<text text-anchor="start" x="462.5" y="-258.8" font-family="Helvetica,sans-Serif" font-size="11.00" fill="#000000">id</text>
<polygon fill="none" stroke="#000000" points="611.5,-251.7 611.5,-273.7 701.5,-273.7 701.5,-251.7 611.5,-251.7"/>
<text text-anchor="start" x="614.5" y="-259.4" font-family="Helvetica,sans-Serif" font-size="11.00" fill="#000000">serial[10]</text>
<polygon fill="none" stroke="#000000" points="442.5,-229.7 442.5,-251.7 611.5,-251.7 611.5,-229.7 442.5,-229.7"/>
<image xlink:href="../../images/foreignKeys.png" width="11px" height="12px" preserveAspectRatio="xMinYMin meet" x="447.5" y="-246.7"/>
<text text-anchor="start" x="462.5" y="-236.8" font-family="Helvetica,sans-Serif" font-size="11.00" fill="#000000">opiskeluoikeus_oid</text>
<polygon fill="none" stroke="#000000" points="611.5,-229.7 611.5,-251.7 701.5,-251.7 701.5,-229.7 611.5,-229.7"/>
<text text-anchor="start" x="614.0043" y="-237.4" font-family="Helvetica,sans-Serif" font-size="11.00" fill="#000000">text[2147483647]</text>
<polygon fill="none" stroke="#000000" points="442.5,-207.7 442.5,-229.7 611.5,-229.7 611.5,-207.7 442.5,-207.7"/>
<text text-anchor="start" x="462.5" y="-214.8" font-family="Helvetica,sans-Serif" font-size="11.00" fill="#000000">upsert</text>
<polygon fill="none" stroke="#000000" points="611.5,-207.7 611.5,-229.7 701.5,-229.7 701.5,-207.7 611.5,-207.7"/>
<text text-anchor="start" x="614.5" y="-215.4" font-family="Helvetica,sans-Serif" font-size="11.00" fill="#000000">bool[1]</text>
<polygon fill="none" stroke="#000000" points="442.5,-185.7 442.5,-207.7 611.5,-207.7 611.5,-185.7 442.5,-185.7"/>
<text text-anchor="start" x="462.5" y="-192.8" font-family="Helvetica,sans-Serif" font-size="11.00" fill="#000000">aikaleima</text>
<polygon fill="none" stroke="#000000" points="611.5,-185.7 611.5,-207.7 701.5,-207.7 701.5,-185.7 611.5,-185.7"/>
<text text-anchor="start" x="614.5" y="-193.4" font-family="Helvetica,sans-Serif" font-size="11.00" fill="#000000">timestamp[29,6]</text>
<polygon fill="#ffffff" stroke="transparent" points="442.5,-166.7 442.5,-185.7 518.5,-185.7 518.5,-166.7 442.5,-166.7"/>
<polygon fill="none" stroke="#000000" points="442.5,-166.7 442.5,-185.7 518.5,-185.7 518.5,-166.7 442.5,-166.7"/>
<text text-anchor="start" x="445.5" y="-172.8" font-family="Helvetica,sans-Serif" font-size="11.00" fill="#000000">&lt; 1</text>
<polygon fill="#ffffff" stroke="transparent" points="518.5,-166.7 518.5,-185.7 611.5,-185.7 611.5,-166.7 518.5,-166.7"/>
<polygon fill="none" stroke="#000000" points="518.5,-166.7 518.5,-185.7 611.5,-185.7 611.5,-166.7 518.5,-166.7"/>
<text text-anchor="start" x="576.1105" y="-172.8" font-family="Helvetica,sans-Serif" font-size="11.00" fill="#000000">0 rows</text>
<polygon fill="#ffffff" stroke="transparent" points="611.5,-166.7 611.5,-185.7 701.5,-185.7 701.5,-166.7 611.5,-166.7"/>
<polygon fill="none" stroke="#000000" points="611.5,-166.7 611.5,-185.7 701.5,-185.7 701.5,-166.7 611.5,-166.7"/>
<text text-anchor="start" x="682.9053" y="-172.8" font-family="Helvetica,sans-Serif" font-size="11.00" fill="#000000">0 &gt;</text>
<polygon fill="none" stroke="#000000" stroke-width="2" points="441,-165.7 441,-297.7 702,-297.7 702,-165.7 441,-165.7"/>
</a>
</g>
</g>
<!-- perustiedot_manual_sync&#45;&gt;opiskeluoikeus -->
<g id="edge3" class="edge">
<title>perustiedot_manual_sync:w&#45;&gt;opiskeluoikeus:e</title>
<path fill="none" stroke="#000000" d="M427.776,-240.7C415.7815,-240.7 408.3229,-240.7 391.5,-240.7"/>
<polygon fill="#000000" stroke="#000000" points="434.5,-240.7001 442.5,-244.3 438.5,-240.7 442.5,-240.7 442.5,-240.7 442.5,-240.7 438.5,-240.7 442.5,-237.1 434.5,-240.7001 434.5,-240.7001"/>
<ellipse fill="none" stroke="#000000" cx="431.3" cy="-240.7001" rx="3.2" ry="3.2"/>
</g>
<!-- perustiedot_sync -->
<g id="node5" class="node">
<title>perustiedot_sync</title>
<g id="a_node5"><a xlink:href="../../tables/perustiedot_sync.html" xlink:title="perustiedot_sync" target="_top">
<polygon fill="#ffffff" stroke="transparent" points="502.5,-322.2 502.5,-383.2 640.5,-383.2 640.5,-322.2 502.5,-322.2"/>
<polygon fill="#f5f5f5" stroke="transparent" points="502.5,-359.7 502.5,-382.7 640.5,-382.7 640.5,-359.7 502.5,-359.7"/>
<polygon fill="none" stroke="#000000" points="502.5,-359.7 502.5,-382.7 640.5,-382.7 640.5,-359.7 502.5,-359.7"/>
<text text-anchor="start" x="507.5" y="-368.3" font-family="Helvetica,sans-Serif" font-weight="bold" font-size="11.00" fill="#000000">perustiedot_sync</text>
<text text-anchor="start" x="606.0219" y="-367.8" font-family="Helvetica,sans-Serif" font-size="11.00" fill="#000000">[table]</text>
<polygon fill="none" stroke="#000000" points="502.5,-340.7 502.5,-359.7 640.5,-359.7 640.5,-340.7 502.5,-340.7"/>
<text text-anchor="start" x="505.5" y="-346.8" font-family="Helvetica,sans-Serif" font-size="11.00" fill="#000000">...</text>
<polygon fill="#ffffff" stroke="transparent" points="502.5,-321.7 502.5,-340.7 556.5,-340.7 556.5,-321.7 502.5,-321.7"/>
<polygon fill="none" stroke="#000000" points="502.5,-321.7 502.5,-340.7 556.5,-340.7 556.5,-321.7 502.5,-321.7"/>
<text text-anchor="start" x="505.5" y="-327.8" font-family="Helvetica,sans-Serif" font-size="11.00" fill="#000000">&lt; 1</text>
<polygon fill="#ffffff" stroke="transparent" points="556.5,-321.7 556.5,-340.7 611.5,-340.7 611.5,-321.7 556.5,-321.7"/>
<polygon fill="none" stroke="#000000" points="556.5,-321.7 556.5,-340.7 611.5,-340.7 611.5,-321.7 556.5,-321.7"/>
<text text-anchor="start" x="576.1105" y="-327.8" font-family="Helvetica,sans-Serif" font-size="11.00" fill="#000000">0 rows</text>
<polygon fill="#ffffff" stroke="transparent" points="611.5,-321.7 611.5,-340.7 640.5,-340.7 640.5,-321.7 611.5,-321.7"/>
<polygon fill="none" stroke="#000000" points="611.5,-321.7 611.5,-340.7 640.5,-340.7 640.5,-321.7 611.5,-321.7"/>
<text text-anchor="start" x="631.3862" y="-327.8" font-family="Helvetica,sans-Serif" font-size="11.00" fill="#000000"> &#160;</text>
</a>
</g>
</g>
<!-- perustiedot_sync&#45;&gt;opiskeluoikeus -->
<g id="edge4" class="edge">
<title>perustiedot_sync:w&#45;&gt;opiskeluoikeus:e</title>
<path fill="none" stroke="#000000" d="M488.0381,-349.731C450.1523,-349.8998 435.632,-350.7 391.5,-350.7"/>
<polygon fill="#000000" stroke="#000000" points="494.5,-349.7172 502.5077,-353.3 498.5,-349.7086 502.5,-349.7 502.5,-349.7 502.5,-349.7 498.5,-349.7086 502.4923,-346.1 494.5,-349.7172 494.5,-349.7172"/>
<ellipse fill="none" stroke="#000000" cx="491.3" cy="-349.7241" rx="3.2" ry="3.2"/>
</g>
</g>
</svg>
