<?xml version="1.0" encoding="UTF-8" standalone="no"?>
<!DOCTYPE svg PUBLIC "-//W3C//DTD SVG 1.1//EN"
 "http://www.w3.org/Graphics/SVG/1.1/DTD/svg11.dtd">
<!-- Generated by graphviz version 2.40.1 (20161225.0304)
 -->
<!-- Title: oneDegreeRelationshipsDiagram Pages: 1 -->
<svg width="560pt" height="421pt"
 viewBox="0.00 0.00 560.00 420.70" xmlns="http://www.w3.org/2000/svg" xmlns:xlink="http://www.w3.org/1999/xlink">
<g id="graph0" class="graph" transform="scale(1 1) rotate(0) translate(4 416.7)">
<title>oneDegreeRelationshipsDiagram</title>
<polygon fill="#ffffff" stroke="transparent" points="-4,4 -4,-416.7 556,-416.7 556,4 -4,4"/>
<text text-anchor="middle" x="72.4936" y="-7.3" font-family="Helvetica,sans-Serif" font-size="11.00" fill="#000000">Generated by SchemaSpy</text>
<!-- perustiedot_sync -->
<g id="node1" class="node">
<title>perustiedot_sync</title>
<g id="a_node1"><a xlink:href="../../tables/perustiedot_sync.html" xlink:title="perustiedot_sync" target="_top">
<polygon fill="#ffffff" stroke="transparent" points="314,-252.7 314,-408.7 544,-408.7 544,-252.7 314,-252.7"/>
<polygon fill="#f5f5f5" stroke="transparent" points="316,-383.7 316,-406.7 542,-406.7 542,-383.7 316,-383.7"/>
<polygon fill="none" stroke="#000000" points="316,-383.7 316,-406.7 542,-406.7 542,-383.7 316,-383.7"/>
<text text-anchor="start" x="321" y="-392.3" font-family="Helvetica,sans-Serif" font-weight="bold" font-size="11.00" fill="#000000">perustiedot_sync</text>
<text text-anchor="start" x="507.0437" y="-391.8" font-family="Helvetica,sans-Serif" font-size="11.00" fill="#000000">[table]</text>
<polygon fill="none" stroke="#000000" points="316,-361.7 316,-383.7 443,-383.7 443,-361.7 316,-361.7"/>
<image xlink:href="../../images/primaryKeys.png" width="11px" height="12px" preserveAspectRatio="xMinYMin meet" x="321" y="-378.7"/>
<text text-anchor="start" x="336" y="-368.8" font-family="Helvetica,sans-Serif" font-size="11.00" fill="#000000">id</text>
<polygon fill="none" stroke="#000000" points="443,-361.7 443,-383.7 542,-383.7 542,-361.7 443,-361.7"/>
<text text-anchor="start" x="446" y="-369.4" font-family="Helvetica,sans-Serif" font-size="11.00" fill="#000000">serial[10]</text>
<polygon fill="none" stroke="#000000" points="316,-339.7 316,-361.7 443,-361.7 443,-339.7 316,-339.7"/>
<image xlink:href="../../images/foreignKeys.png" width="11px" height="12px" preserveAspectRatio="xMinYMin meet" x="321" y="-356.7"/>
<text text-anchor="start" x="336" y="-346.8" font-family="Helvetica,sans-Serif" font-size="11.00" fill="#000000">opiskeluoikeus_id</text>
<polygon fill="none" stroke="#000000" points="443,-339.7 443,-361.7 542,-361.7 542,-339.7 443,-339.7"/>
<text text-anchor="start" x="446" y="-347.4" font-family="Helvetica,sans-Serif" font-size="11.00" fill="#000000">int4[10]</text>
<polygon fill="none" stroke="#000000" points="316,-317.7 316,-339.7 443,-339.7 443,-317.7 316,-317.7"/>
<text text-anchor="start" x="336" y="-324.8" font-family="Helvetica,sans-Serif" font-size="11.00" fill="#000000">aikaleima</text>
<polygon fill="none" stroke="#000000" points="443,-317.7 443,-339.7 542,-339.7 542,-317.7 443,-317.7"/>
<text text-anchor="start" x="446" y="-325.4" font-family="Helvetica,sans-Serif" font-size="11.00" fill="#000000">timestamp[29,6]</text>
<polygon fill="none" stroke="#000000" points="316,-295.7 316,-317.7 443,-317.7 443,-295.7 316,-295.7"/>
<text text-anchor="start" x="336" y="-302.8" font-family="Helvetica,sans-Serif" font-size="11.00" fill="#000000">upsert</text>
<polygon fill="none" stroke="#000000" points="443,-295.7 443,-317.7 542,-317.7 542,-295.7 443,-295.7"/>
<text text-anchor="start" x="446" y="-303.4" font-family="Helvetica,sans-Serif" font-size="11.00" fill="#000000">bool[1]</text>
<polygon fill="none" stroke="#000000" points="316,-273.7 316,-295.7 443,-295.7 443,-273.7 316,-273.7"/>
<text text-anchor="start" x="336" y="-280.8" font-family="Helvetica,sans-Serif" font-size="11.00" fill="#000000">data</text>
<polygon fill="none" stroke="#000000" points="443,-273.7 443,-295.7 542,-295.7 542,-273.7 443,-273.7"/>
<text text-anchor="start" x="445.7258" y="-281.4" font-family="Helvetica,sans-Serif" font-size="11.00" fill="#000000">jsonb[2147483647]</text>
<polygon fill="#ffffff" stroke="transparent" points="316,-254.7 316,-273.7 371,-273.7 371,-254.7 316,-254.7"/>
<polygon fill="none" stroke="#000000" points="316,-254.7 316,-273.7 371,-273.7 371,-254.7 316,-254.7"/>
<text text-anchor="start" x="319" y="-260.8" font-family="Helvetica,sans-Serif" font-size="11.00" fill="#000000">&lt; 1</text>
<polygon fill="#ffffff" stroke="transparent" points="371,-254.7 371,-273.7 443,-273.7 443,-254.7 371,-254.7"/>
<polygon fill="none" stroke="#000000" points="371,-254.7 371,-273.7 443,-273.7 443,-254.7 371,-254.7"/>
<text text-anchor="start" x="407.6105" y="-260.8" font-family="Helvetica,sans-Serif" font-size="11.00" fill="#000000">0 rows</text>
<polygon fill="#ffffff" stroke="transparent" points="443,-254.7 443,-273.7 542,-273.7 542,-254.7 443,-254.7"/>
<polygon fill="none" stroke="#000000" points="443,-254.7 443,-273.7 542,-273.7 542,-254.7 443,-254.7"/>
<text text-anchor="start" x="523.4053" y="-260.8" font-family="Helvetica,sans-Serif" font-size="11.00" fill="#000000">0 &gt;</text>
<polygon fill="none" stroke="#000000" stroke-width="2" points="315,-253.7 315,-407.7 543,-407.7 543,-253.7 315,-253.7"/>
</a>
</g>
</g>
<!-- opiskeluoikeus -->
<g id="node2" class="node">
<title>opiskeluoikeus</title>
<g id="a_node2"><a xlink:href="../../tables/opiskeluoikeus.html" xlink:title="opiskeluoikeus" target="_top">
<polygon fill="#ffffff" stroke="transparent" points="8,-38.2 8,-385.2 265,-385.2 265,-38.2 8,-38.2"/>
<polygon fill="#f5f5f5" stroke="transparent" points="8.5,-361.7 8.5,-384.7 265.5,-384.7 265.5,-361.7 8.5,-361.7"/>
<polygon fill="none" stroke="#000000" points="8.5,-361.7 8.5,-384.7 265.5,-384.7 265.5,-361.7 8.5,-361.7"/>
<text text-anchor="start" x="13.5" y="-370.3" font-family="Helvetica,sans-Serif" font-weight="bold" font-size="11.00" fill="#000000">opiskeluoikeus</text>
<text text-anchor="start" x="230.5437" y="-369.8" font-family="Helvetica,sans-Serif" font-size="11.00" fill="#000000">[table]</text>
<polygon fill="none" stroke="#000000" points="8.5,-339.7 8.5,-361.7 265.5,-361.7 265.5,-339.7 8.5,-339.7"/>
<image xlink:href="../../images/primaryKeys.png" width="11px" height="12px" preserveAspectRatio="xMinYMin meet" x="13.5" y="-356.7"/>
<text text-anchor="start" x="28.5" y="-346.8" font-family="Helvetica,sans-Serif" font-size="11.00" fill="#000000">id</text>
<polygon fill="#ffffff" stroke="transparent" points="8.5,-317.7 8.5,-339.7 265.5,-339.7 265.5,-317.7 8.5,-317.7"/>
<polygon fill="none" stroke="#000000" points="8.5,-317.7 8.5,-339.7 265.5,-339.7 265.5,-317.7 8.5,-317.7"/>
<image xlink:href="../../images/foreignKeys.png" width="11px" height="12px" preserveAspectRatio="xMinYMin meet" x="13.5" y="-334.7"/>
<text text-anchor="start" x="28.5" y="-324.8" font-family="Helvetica,sans-Serif" font-size="11.00" fill="#000000">oppija_oid</text>
<polygon fill="#ffffff" stroke="transparent" points="8.5,-295.7 8.5,-317.7 265.5,-317.7 265.5,-295.7 8.5,-295.7"/>
<polygon fill="none" stroke="#000000" points="8.5,-295.7 8.5,-317.7 265.5,-317.7 265.5,-295.7 8.5,-295.7"/>
<text text-anchor="start" x="28.5" y="-302.8" font-family="Helvetica,sans-Serif" font-size="11.00" fill="#000000">aikaleima</text>
<polygon fill="#ffffff" stroke="transparent" points="8.5,-273.7 8.5,-295.7 265.5,-295.7 265.5,-273.7 8.5,-273.7"/>
<polygon fill="none" stroke="#000000" points="8.5,-273.7 8.5,-295.7 265.5,-295.7 265.5,-273.7 8.5,-273.7"/>
<text text-anchor="start" x="28.5" y="-280.8" font-family="Helvetica,sans-Serif" font-size="11.00" fill="#000000">oppilaitos_oid</text>
<polygon fill="#ffffff" stroke="transparent" points="8.5,-251.7 8.5,-273.7 265.5,-273.7 265.5,-251.7 8.5,-251.7"/>
<polygon fill="none" stroke="#000000" points="8.5,-251.7 8.5,-273.7 265.5,-273.7 265.5,-251.7 8.5,-251.7"/>
<text text-anchor="start" x="28.5" y="-258.8" font-family="Helvetica,sans-Serif" font-size="11.00" fill="#000000">sisaltava_opiskeluoikeus_oppilaitos_oid</text>
<polygon fill="#ffffff" stroke="transparent" points="8.5,-229.7 8.5,-251.7 265.5,-251.7 265.5,-229.7 8.5,-229.7"/>
<polygon fill="none" stroke="#000000" points="8.5,-229.7 8.5,-251.7 265.5,-251.7 265.5,-229.7 8.5,-229.7"/>
<text text-anchor="start" x="28.5" y="-236.8" font-family="Helvetica,sans-Serif" font-size="11.00" fill="#000000">oid</text>
<polygon fill="none" stroke="#000000" points="8.5,-207.7 8.5,-229.7 265.5,-229.7 265.5,-207.7 8.5,-207.7"/>
<image xlink:href="../../images/foreignKeys.png" width="11px" height="12px" preserveAspectRatio="xMinYMin meet" x="13.5" y="-224.7"/>
<text text-anchor="start" x="28.5" y="-214.8" font-family="Helvetica,sans-Serif" font-size="11.00" fill="#000000">sisaltava_opiskeluoikeus_oid</text>
<polygon fill="#ffffff" stroke="transparent" points="8.5,-185.7 8.5,-207.7 265.5,-207.7 265.5,-185.7 8.5,-185.7"/>
<polygon fill="none" stroke="#000000" points="8.5,-185.7 8.5,-207.7 265.5,-207.7 265.5,-185.7 8.5,-185.7"/>
<text text-anchor="start" x="28.5" y="-192.8" font-family="Helvetica,sans-Serif" font-size="11.00" fill="#000000">mitatoity</text>
<polygon fill="#ffffff" stroke="transparent" points="8.5,-163.7 8.5,-185.7 265.5,-185.7 265.5,-163.7 8.5,-163.7"/>
<polygon fill="none" stroke="#000000" points="8.5,-163.7 8.5,-185.7 265.5,-185.7 265.5,-163.7 8.5,-163.7"/>
<text text-anchor="start" x="28.5" y="-170.8" font-family="Helvetica,sans-Serif" font-size="11.00" fill="#000000">koulutusmuoto</text>
<polygon fill="#ffffff" stroke="transparent" points="8.5,-141.7 8.5,-163.7 265.5,-163.7 265.5,-141.7 8.5,-141.7"/>
<polygon fill="none" stroke="#000000" points="8.5,-141.7 8.5,-163.7 265.5,-163.7 265.5,-141.7 8.5,-141.7"/>
<text text-anchor="start" x="28.5" y="-148.8" font-family="Helvetica,sans-Serif" font-size="11.00" fill="#000000">alkamispaiva</text>
<polygon fill="#ffffff" stroke="transparent" points="8.5,-119.7 8.5,-141.7 265.5,-141.7 265.5,-119.7 8.5,-119.7"/>
<polygon fill="none" stroke="#000000" points="8.5,-119.7 8.5,-141.7 265.5,-141.7 265.5,-119.7 8.5,-119.7"/>
<text text-anchor="start" x="28.5" y="-126.8" font-family="Helvetica,sans-Serif" font-size="11.00" fill="#000000">paattymispaiva</text>
<polygon fill="#ffffff" stroke="transparent" points="8.5,-97.7 8.5,-119.7 265.5,-119.7 265.5,-97.7 8.5,-97.7"/>
<polygon fill="none" stroke="#000000" points="8.5,-97.7 8.5,-119.7 265.5,-119.7 265.5,-97.7 8.5,-97.7"/>
<text text-anchor="start" x="28.5" y="-104.8" font-family="Helvetica,sans-Serif" font-size="11.00" fill="#000000">suoritustyypit</text>
<polygon fill="#ffffff" stroke="transparent" points="8.5,-75.7 8.5,-97.7 265.5,-97.7 265.5,-75.7 8.5,-75.7"/>
<polygon fill="none" stroke="#000000" points="8.5,-75.7 8.5,-97.7 265.5,-97.7 265.5,-75.7 8.5,-75.7"/>
<text text-anchor="start" x="28.5" y="-82.8" font-family="Helvetica,sans-Serif" font-size="11.00" fill="#000000">poistettu</text>
<polygon fill="none" stroke="#000000" points="8.5,-56.7 8.5,-75.7 265.5,-75.7 265.5,-56.7 8.5,-56.7"/>
<text text-anchor="start" x="11.5" y="-62.8" font-family="Helvetica,sans-Serif" font-size="11.00" fill="#000000">...</text>
<polygon fill="#ffffff" stroke="transparent" points="8.5,-37.7 8.5,-56.7 111.5,-56.7 111.5,-37.7 8.5,-37.7"/>
<polygon fill="none" stroke="#000000" points="8.5,-37.7 8.5,-56.7 111.5,-56.7 111.5,-37.7 8.5,-37.7"/>
<text text-anchor="start" x="11.5" y="-43.8" font-family="Helvetica,sans-Serif" font-size="11.00" fill="#000000">&lt; 2</text>
<polygon fill="#ffffff" stroke="transparent" points="111.5,-37.7 111.5,-56.7 202.5,-56.7 202.5,-37.7 111.5,-37.7"/>
<polygon fill="none" stroke="#000000" points="111.5,-37.7 111.5,-56.7 202.5,-56.7 202.5,-37.7 111.5,-37.7"/>
<text text-anchor="start" x="154.8807" y="-43.8" font-family="Helvetica,sans-Serif" font-size="11.00" fill="#000000">241 rows</text>
<polygon fill="#ffffff" stroke="transparent" points="202.5,-37.7 202.5,-56.7 265.5,-56.7 265.5,-37.7 202.5,-37.7"/>
<polygon fill="none" stroke="#000000" points="202.5,-37.7 202.5,-56.7 265.5,-56.7 265.5,-37.7 202.5,-37.7"/>
<text text-anchor="start" x="246.9053" y="-43.8" font-family="Helvetica,sans-Serif" font-size="11.00" fill="#000000">4 &gt;</text>
</a>
</g>
</g>
<!-- perustiedot_sync&#45;&gt;opiskeluoikeus -->
<g id="edge1" class="edge">
<title>perustiedot_sync:w&#45;&gt;opiskeluoikeus:e</title>
<path fill="none" stroke="#000000" d="M301.4203,-350.7C289.5435,-350.7 282.158,-350.7 265.5,-350.7"/>
<polygon fill="#000000" stroke="#000000" points="308,-350.7001 316,-354.3 312,-350.7 316,-350.7 316,-350.7 316,-350.7 312,-350.7 316,-347.1 308,-350.7001 308,-350.7001"/>
<ellipse fill="none" stroke="#000000" cx="304.8" cy="-350.7001" rx="3.2" ry="3.2"/>
</g>
</g>
</svg>
