<?xml version="1.0" encoding="UTF-8" standalone="no"?>
<!DOCTYPE svg PUBLIC "-//W3C//DTD SVG 1.1//EN"
 "http://www.w3.org/Graphics/SVG/1.1/DTD/svg11.dtd">
<!-- Generated by graphviz version 2.40.1 (20161225.0304)
 -->
<!-- Title: twoDegreesRelationshipsDiagram Pages: 1 -->
<svg width="745pt" height="503pt"
 viewBox="0.00 0.00 745.00 503.20" xmlns="http://www.w3.org/2000/svg" xmlns:xlink="http://www.w3.org/1999/xlink">
<g id="graph0" class="graph" transform="scale(1 1) rotate(0) translate(4 499.2)">
<title>twoDegreesRelationshipsDiagram</title>
<polygon fill="#ffffff" stroke="transparent" points="-4,4 -4,-499.2 741,-499.2 741,4 -4,4"/>
<text text-anchor="middle" x="72.4936" y="-7.3" font-family="Helvetica,sans-Serif" font-size="11.00" fill="#000000">Generated by SchemaSpy</text>
<!-- opiskeluoikeus -->
<g id="node1" class="node">
<title>opiskeluoikeus</title>
<g id="a_node1"><a xlink:href="../../tables/opiskeluoikeus.html" xlink:title="opiskeluoikeus" target="_top">
<polygon fill="#ffffff" stroke="transparent" points="149,-38.2 149,-385.2 437,-385.2 437,-38.2 149,-38.2"/>
<polygon fill="#f5f5f5" stroke="transparent" points="149,-361.7 149,-384.7 437,-384.7 437,-361.7 149,-361.7"/>
<polygon fill="none" stroke="#000000" points="149,-361.7 149,-384.7 437,-384.7 437,-361.7 149,-361.7"/>
<text text-anchor="start" x="154" y="-370.3" font-family="Helvetica,sans-Serif" font-weight="bold" font-size="11.00" fill="#000000">opiskeluoikeus</text>
<text text-anchor="start" x="402.0437" y="-369.8" font-family="Helvetica,sans-Serif" font-size="11.00" fill="#000000">[table]</text>
<polygon fill="none" stroke="#000000" points="149,-339.7 149,-361.7 437,-361.7 437,-339.7 149,-339.7"/>
<image xlink:href="../../images/primaryKeys.png" width="11px" height="12px" preserveAspectRatio="xMinYMin meet" x="154" y="-356.7"/>
<text text-anchor="start" x="169" y="-346.8" font-family="Helvetica,sans-Serif" font-size="11.00" fill="#000000">id</text>
<polygon fill="#ffffff" stroke="transparent" points="149,-317.7 149,-339.7 437,-339.7 437,-317.7 149,-317.7"/>
<polygon fill="none" stroke="#000000" points="149,-317.7 149,-339.7 437,-339.7 437,-317.7 149,-317.7"/>
<image xlink:href="../../images/foreignKeys.png" width="11px" height="12px" preserveAspectRatio="xMinYMin meet" x="154" y="-334.7"/>
<text text-anchor="start" x="169" y="-324.8" font-family="Helvetica,sans-Serif" font-size="11.00" fill="#000000">oppija_oid</text>
<polygon fill="#ffffff" stroke="transparent" points="149,-295.7 149,-317.7 437,-317.7 437,-295.7 149,-295.7"/>
<polygon fill="none" stroke="#000000" points="149,-295.7 149,-317.7 437,-317.7 437,-295.7 149,-295.7"/>
<text text-anchor="start" x="169" y="-302.8" font-family="Helvetica,sans-Serif" font-size="11.00" fill="#000000">aikaleima</text>
<polygon fill="#ffffff" stroke="transparent" points="149,-273.7 149,-295.7 437,-295.7 437,-273.7 149,-273.7"/>
<polygon fill="none" stroke="#000000" points="149,-273.7 149,-295.7 437,-295.7 437,-273.7 149,-273.7"/>
<text text-anchor="start" x="169" y="-280.8" font-family="Helvetica,sans-Serif" font-size="11.00" fill="#000000">oppilaitos_oid</text>
<polygon fill="#ffffff" stroke="transparent" points="149,-251.7 149,-273.7 437,-273.7 437,-251.7 149,-251.7"/>
<polygon fill="none" stroke="#000000" points="149,-251.7 149,-273.7 437,-273.7 437,-251.7 149,-251.7"/>
<text text-anchor="start" x="169" y="-258.8" font-family="Helvetica,sans-Serif" font-size="11.00" fill="#000000">sisaltava_opiskeluoikeus_oppilaitos_oid</text>
<polygon fill="#ffffff" stroke="transparent" points="149,-229.7 149,-251.7 437,-251.7 437,-229.7 149,-229.7"/>
<polygon fill="none" stroke="#000000" points="149,-229.7 149,-251.7 437,-251.7 437,-229.7 149,-229.7"/>
<text text-anchor="start" x="169" y="-236.8" font-family="Helvetica,sans-Serif" font-size="11.00" fill="#000000">oid</text>
<polygon fill="none" stroke="#000000" points="149,-207.7 149,-229.7 437,-229.7 437,-207.7 149,-207.7"/>
<image xlink:href="../../images/foreignKeys.png" width="11px" height="12px" preserveAspectRatio="xMinYMin meet" x="154" y="-224.7"/>
<text text-anchor="start" x="169" y="-214.8" font-family="Helvetica,sans-Serif" font-size="11.00" fill="#000000">sisaltava_opiskeluoikeus_oid</text>
<polygon fill="#ffffff" stroke="transparent" points="149,-185.7 149,-207.7 437,-207.7 437,-185.7 149,-185.7"/>
<polygon fill="none" stroke="#000000" points="149,-185.7 149,-207.7 437,-207.7 437,-185.7 149,-185.7"/>
<text text-anchor="start" x="169" y="-192.8" font-family="Helvetica,sans-Serif" font-size="11.00" fill="#000000">mitatoity</text>
<polygon fill="#ffffff" stroke="transparent" points="149,-163.7 149,-185.7 437,-185.7 437,-163.7 149,-163.7"/>
<polygon fill="none" stroke="#000000" points="149,-163.7 149,-185.7 437,-185.7 437,-163.7 149,-163.7"/>
<text text-anchor="start" x="169" y="-170.8" font-family="Helvetica,sans-Serif" font-size="11.00" fill="#000000">koulutusmuoto</text>
<polygon fill="#ffffff" stroke="transparent" points="149,-141.7 149,-163.7 437,-163.7 437,-141.7 149,-141.7"/>
<polygon fill="none" stroke="#000000" points="149,-141.7 149,-163.7 437,-163.7 437,-141.7 149,-141.7"/>
<text text-anchor="start" x="169" y="-148.8" font-family="Helvetica,sans-Serif" font-size="11.00" fill="#000000">alkamispaiva</text>
<polygon fill="#ffffff" stroke="transparent" points="149,-119.7 149,-141.7 437,-141.7 437,-119.7 149,-119.7"/>
<polygon fill="none" stroke="#000000" points="149,-119.7 149,-141.7 437,-141.7 437,-119.7 149,-119.7"/>
<text text-anchor="start" x="169" y="-126.8" font-family="Helvetica,sans-Serif" font-size="11.00" fill="#000000">paattymispaiva</text>
<polygon fill="#ffffff" stroke="transparent" points="149,-97.7 149,-119.7 437,-119.7 437,-97.7 149,-97.7"/>
<polygon fill="none" stroke="#000000" points="149,-97.7 149,-119.7 437,-119.7 437,-97.7 149,-97.7"/>
<text text-anchor="start" x="169" y="-104.8" font-family="Helvetica,sans-Serif" font-size="11.00" fill="#000000">suoritustyypit</text>
<polygon fill="#ffffff" stroke="transparent" points="149,-75.7 149,-97.7 437,-97.7 437,-75.7 149,-75.7"/>
<polygon fill="none" stroke="#000000" points="149,-75.7 149,-97.7 437,-97.7 437,-75.7 149,-75.7"/>
<text text-anchor="start" x="169" y="-82.8" font-family="Helvetica,sans-Serif" font-size="11.00" fill="#000000">poistettu</text>
<polygon fill="none" stroke="#000000" points="149,-56.7 149,-75.7 437,-75.7 437,-56.7 149,-56.7"/>
<text text-anchor="start" x="152" y="-62.8" font-family="Helvetica,sans-Serif" font-size="11.00" fill="#000000">...</text>
<polygon fill="#ffffff" stroke="transparent" points="149,-37.7 149,-56.7 268,-56.7 268,-37.7 149,-37.7"/>
<polygon fill="none" stroke="#000000" points="149,-37.7 149,-56.7 268,-56.7 268,-37.7 149,-37.7"/>
<text text-anchor="start" x="152" y="-43.8" font-family="Helvetica,sans-Serif" font-size="11.00" fill="#000000">&lt; 2</text>
<polygon fill="#ffffff" stroke="transparent" points="268,-37.7 268,-56.7 367,-56.7 367,-37.7 268,-37.7"/>
<polygon fill="none" stroke="#000000" points="268,-37.7 268,-56.7 367,-56.7 367,-37.7 268,-37.7"/>
<text text-anchor="start" x="319.3807" y="-43.8" font-family="Helvetica,sans-Serif" font-size="11.00" fill="#000000">188 rows</text>
<polygon fill="#ffffff" stroke="transparent" points="367,-37.7 367,-56.7 437,-56.7 437,-37.7 367,-37.7"/>
<polygon fill="none" stroke="#000000" points="367,-37.7 367,-56.7 437,-56.7 437,-37.7 367,-37.7"/>
<text text-anchor="start" x="418.4053" y="-43.8" font-family="Helvetica,sans-Serif" font-size="11.00" fill="#000000">4 &gt;</text>
</a>
</g>
</g>
<!-- henkilo -->
<g id="node2" class="node">
<title>henkilo</title>
<g id="a_node2"><a xlink:href="../../tables/henkilo.html" xlink:title="henkilo" target="_top">
<polygon fill="#ffffff" stroke="transparent" points="8,-301.2 8,-362.2 100,-362.2 100,-301.2 8,-301.2"/>
<polygon fill="#f5f5f5" stroke="transparent" points="8,-338.7 8,-361.7 100,-361.7 100,-338.7 8,-338.7"/>
<polygon fill="none" stroke="#000000" points="8,-338.7 8,-361.7 100,-361.7 100,-338.7 8,-338.7"/>
<text text-anchor="start" x="13" y="-347.3" font-family="Helvetica,sans-Serif" font-weight="bold" font-size="11.00" fill="#000000">henkilo</text>
<text text-anchor="start" x="65.0437" y="-346.8" font-family="Helvetica,sans-Serif" font-size="11.00" fill="#000000">[table]</text>
<polygon fill="none" stroke="#000000" points="8,-319.7 8,-338.7 100,-338.7 100,-319.7 8,-319.7"/>
<text text-anchor="start" x="11" y="-325.8" font-family="Helvetica,sans-Serif" font-size="11.00" fill="#000000">...</text>
<polygon fill="#ffffff" stroke="transparent" points="8,-300.7 8,-319.7 29,-319.7 29,-300.7 8,-300.7"/>
<polygon fill="none" stroke="#000000" points="8,-300.7 8,-319.7 29,-319.7 29,-300.7 8,-300.7"/>
<text text-anchor="start" x="10.7027" y="-306.8" font-family="Helvetica,sans-Serif" font-size="11.00" fill="#000000">&lt; 1</text>
<polygon fill="#ffffff" stroke="transparent" points="29,-300.7 29,-319.7 79,-319.7 79,-300.7 29,-300.7"/>
<polygon fill="none" stroke="#000000" points="29,-300.7 29,-319.7 79,-319.7 79,-300.7 29,-300.7"/>
<text text-anchor="start" x="31.6904" y="-306.8" font-family="Helvetica,sans-Serif" font-size="11.00" fill="#000000">206 rows</text>
<polygon fill="#ffffff" stroke="transparent" points="79,-300.7 79,-319.7 100,-319.7 100,-300.7 79,-300.7"/>
<polygon fill="none" stroke="#000000" points="79,-300.7 79,-319.7 100,-319.7 100,-300.7 79,-300.7"/>
<text text-anchor="start" x="81.7027" y="-306.8" font-family="Helvetica,sans-Serif" font-size="11.00" fill="#000000">3 &gt;</text>
</a>
</g>
</g>
<!-- opiskeluoikeus&#45;&gt;henkilo -->
<g id="edge1" class="edge">
<title>opiskeluoikeus:w&#45;&gt;henkilo:e</title>
<path fill="none" stroke="#000000" d="M138.2573,-328.7C124.6063,-328.7 117.6944,-328.7 100,-328.7"/>
<polygon fill="#000000" stroke="#000000" points="148.2,-324.7 148.2,-332.7 146.6,-332.7 146.6,-324.7 148.2,-324.7"/>
<polyline fill="none" stroke="#000000" points="149,-328.7 145,-328.7 "/>
<ellipse fill="none" stroke="#000000" cx="141.8" cy="-328.7001" rx="3.2" ry="3.2"/>
</g>
<!-- opiskeluoikeushistoria -->
<g id="node3" class="node">
<title>opiskeluoikeushistoria</title>
<g id="a_node3"><a xlink:href="../../tables/opiskeluoikeushistoria.html" xlink:title="opiskeluoikeushistoria" target="_top">
<polygon fill="#ffffff" stroke="transparent" points="512,-430.2 512,-491.2 703,-491.2 703,-430.2 512,-430.2"/>
<polygon fill="#f5f5f5" stroke="transparent" points="512.5,-467.7 512.5,-490.7 703.5,-490.7 703.5,-467.7 512.5,-467.7"/>
<polygon fill="none" stroke="#000000" points="512.5,-467.7 512.5,-490.7 703.5,-490.7 703.5,-467.7 512.5,-467.7"/>
<text text-anchor="start" x="517.5" y="-476.3" font-family="Helvetica,sans-Serif" font-weight="bold" font-size="11.00" fill="#000000">opiskeluoikeushistoria</text>
<text text-anchor="start" x="669.0219" y="-475.8" font-family="Helvetica,sans-Serif" font-size="11.00" fill="#000000">[table]</text>
<polygon fill="none" stroke="#000000" points="512.5,-448.7 512.5,-467.7 703.5,-467.7 703.5,-448.7 512.5,-448.7"/>
<text text-anchor="start" x="515.5" y="-454.8" font-family="Helvetica,sans-Serif" font-size="11.00" fill="#000000">...</text>
<polygon fill="#ffffff" stroke="transparent" points="512.5,-429.7 512.5,-448.7 587.5,-448.7 587.5,-429.7 512.5,-429.7"/>
<polygon fill="none" stroke="#000000" points="512.5,-429.7 512.5,-448.7 587.5,-448.7 587.5,-429.7 512.5,-429.7"/>
<text text-anchor="start" x="515.5" y="-435.8" font-family="Helvetica,sans-Serif" font-size="11.00" fill="#000000">&lt; 1</text>
<polygon fill="#ffffff" stroke="transparent" points="587.5,-429.7 587.5,-448.7 664.5,-448.7 664.5,-429.7 587.5,-429.7"/>
<polygon fill="none" stroke="#000000" points="587.5,-429.7 587.5,-448.7 664.5,-448.7 664.5,-429.7 587.5,-429.7"/>
<text text-anchor="start" x="616.8807" y="-435.8" font-family="Helvetica,sans-Serif" font-size="11.00" fill="#000000">190 rows</text>
<polygon fill="#ffffff" stroke="transparent" points="664.5,-429.7 664.5,-448.7 703.5,-448.7 703.5,-429.7 664.5,-429.7"/>
<polygon fill="none" stroke="#000000" points="664.5,-429.7 664.5,-448.7 703.5,-448.7 703.5,-429.7 664.5,-429.7"/>
<text text-anchor="start" x="694.3862" y="-435.8" font-family="Helvetica,sans-Serif" font-size="11.00" fill="#000000"> &#160;</text>
</a>
</g>
</g>
<!-- opiskeluoikeushistoria&#45;&gt;opiskeluoikeus -->
<g id="edge2" class="edge">
<title>opiskeluoikeushistoria:w&#45;&gt;opiskeluoikeus:e</title>
<path fill="none" stroke="#000000" d="M498.0994,-454.838C461.3417,-437.822 489.5185,-350.7 437,-350.7"/>
<polygon fill="#000000" stroke="#000000" points="504.6535,-456.1405 511.7982,-461.2309 508.5767,-456.9203 512.5,-457.7 512.5,-457.7 512.5,-457.7 508.5767,-456.9203 513.2018,-454.1691 504.6535,-456.1405 504.6535,-456.1405"/>
<ellipse fill="none" stroke="#000000" cx="501.5148" cy="-455.5167" rx="3.2" ry="3.2"/>
</g>
<!-- perustiedot_manual_sync -->
<g id="node4" class="node">
<title>perustiedot_manual_sync</title>
<g id="a_node4"><a xlink:href="../../tables/perustiedot_manual_sync.html" xlink:title="perustiedot_manual_sync" target="_top">
<polygon fill="#ffffff" stroke="transparent" points="502.5,-170.2 502.5,-231.2 712.5,-231.2 712.5,-170.2 502.5,-170.2"/>
<polygon fill="#f5f5f5" stroke="transparent" points="502.5,-207.7 502.5,-230.7 712.5,-230.7 712.5,-207.7 502.5,-207.7"/>
<polygon fill="none" stroke="#000000" points="502.5,-207.7 502.5,-230.7 712.5,-230.7 712.5,-207.7 502.5,-207.7"/>
<text text-anchor="start" x="507.5" y="-216.3" font-family="Helvetica,sans-Serif" font-weight="bold" font-size="11.00" fill="#000000">perustiedot_manual_sync</text>
<text text-anchor="start" x="678.0219" y="-215.8" font-family="Helvetica,sans-Serif" font-size="11.00" fill="#000000">[table]</text>
<polygon fill="none" stroke="#000000" points="502.5,-188.7 502.5,-207.7 712.5,-207.7 712.5,-188.7 502.5,-188.7"/>
<text text-anchor="start" x="505.5" y="-194.8" font-family="Helvetica,sans-Serif" font-size="11.00" fill="#000000">...</text>
<polygon fill="#ffffff" stroke="transparent" points="502.5,-169.7 502.5,-188.7 605.5,-188.7 605.5,-169.7 502.5,-169.7"/>
<polygon fill="none" stroke="#000000" points="502.5,-169.7 502.5,-188.7 605.5,-188.7 605.5,-169.7 502.5,-169.7"/>
<text text-anchor="start" x="505.5" y="-175.8" font-family="Helvetica,sans-Serif" font-size="11.00" fill="#000000">&lt; 1</text>
<polygon fill="#ffffff" stroke="transparent" points="605.5,-169.7 605.5,-188.7 658.5,-188.7 658.5,-169.7 605.5,-169.7"/>
<polygon fill="none" stroke="#000000" points="605.5,-169.7 605.5,-188.7 658.5,-188.7 658.5,-169.7 605.5,-169.7"/>
<text text-anchor="start" x="649.3862" y="-175.8" font-family="Helvetica,sans-Serif" font-size="11.00" fill="#000000"> &#160;</text>
<polygon fill="#ffffff" stroke="transparent" points="658.5,-169.7 658.5,-188.7 712.5,-188.7 712.5,-169.7 658.5,-169.7"/>
<polygon fill="none" stroke="#000000" points="658.5,-169.7 658.5,-188.7 712.5,-188.7 712.5,-169.7 658.5,-169.7"/>
<text text-anchor="start" x="703.3862" y="-175.8" font-family="Helvetica,sans-Serif" font-size="11.00" fill="#000000"> &#160;</text>
</a>
</g>
</g>
<!-- perustiedot_manual_sync&#45;&gt;opiskeluoikeus -->
<g id="edge3" class="edge">
<title>perustiedot_manual_sync:w&#45;&gt;opiskeluoikeus:e</title>
<path fill="none" stroke="#000000" d="M488.1629,-200.7925C467.9882,-210.652 466.1105,-240.7 437,-240.7"/>
<polygon fill="#000000" stroke="#000000" points="494.6798,-199.3868 503.2591,-201.2191 498.5899,-198.5434 502.5,-197.7 502.5,-197.7 502.5,-197.7 498.5899,-198.5434 501.7409,-194.1809 494.6798,-199.3868 494.6798,-199.3868"/>
<ellipse fill="none" stroke="#000000" cx="491.5518" cy="-200.0615" rx="3.2" ry="3.2"/>
</g>
<!-- perustiedot_sync -->
<g id="node5" class="node">
<title>perustiedot_sync</title>
<g id="a_node5"><a xlink:href="../../tables/perustiedot_sync.html" xlink:title="perustiedot_sync" target="_top">
<polygon fill="#ffffff" stroke="transparent" points="486,-252.7 486,-408.7 729,-408.7 729,-252.7 486,-252.7"/>
<polygon fill="#f5f5f5" stroke="transparent" points="488.5,-383.7 488.5,-406.7 727.5,-406.7 727.5,-383.7 488.5,-383.7"/>
<polygon fill="none" stroke="#000000" points="488.5,-383.7 488.5,-406.7 727.5,-406.7 727.5,-383.7 488.5,-383.7"/>
<text text-anchor="start" x="493.5" y="-392.3" font-family="Helvetica,sans-Serif" font-weight="bold" font-size="11.00" fill="#000000">perustiedot_sync</text>
<text text-anchor="start" x="692.5437" y="-391.8" font-family="Helvetica,sans-Serif" font-size="11.00" fill="#000000">[table]</text>
<polygon fill="none" stroke="#000000" points="488.5,-361.7 488.5,-383.7 628.5,-383.7 628.5,-361.7 488.5,-361.7"/>
<image xlink:href="../../images/primaryKeys.png" width="11px" height="12px" preserveAspectRatio="xMinYMin meet" x="493.5" y="-378.7"/>
<text text-anchor="start" x="508.5" y="-368.8" font-family="Helvetica,sans-Serif" font-size="11.00" fill="#000000">id</text>
<polygon fill="none" stroke="#000000" points="628.5,-361.7 628.5,-383.7 727.5,-383.7 727.5,-361.7 628.5,-361.7"/>
<text text-anchor="start" x="631.5" y="-369.4" font-family="Helvetica,sans-Serif" font-size="11.00" fill="#000000">serial[10]</text>
<polygon fill="none" stroke="#000000" points="488.5,-339.7 488.5,-361.7 628.5,-361.7 628.5,-339.7 488.5,-339.7"/>
<image xlink:href="../../images/foreignKeys.png" width="11px" height="12px" preserveAspectRatio="xMinYMin meet" x="493.5" y="-356.7"/>
<text text-anchor="start" x="508.5" y="-346.8" font-family="Helvetica,sans-Serif" font-size="11.00" fill="#000000">opiskeluoikeus_id</text>
<polygon fill="none" stroke="#000000" points="628.5,-339.7 628.5,-361.7 727.5,-361.7 727.5,-339.7 628.5,-339.7"/>
<text text-anchor="start" x="631.5" y="-347.4" font-family="Helvetica,sans-Serif" font-size="11.00" fill="#000000">int4[10]</text>
<polygon fill="none" stroke="#000000" points="488.5,-317.7 488.5,-339.7 628.5,-339.7 628.5,-317.7 488.5,-317.7"/>
<text text-anchor="start" x="508.5" y="-324.8" font-family="Helvetica,sans-Serif" font-size="11.00" fill="#000000">aikaleima</text>
<polygon fill="none" stroke="#000000" points="628.5,-317.7 628.5,-339.7 727.5,-339.7 727.5,-317.7 628.5,-317.7"/>
<text text-anchor="start" x="631.5" y="-325.4" font-family="Helvetica,sans-Serif" font-size="11.00" fill="#000000">timestamp[29,6]</text>
<polygon fill="none" stroke="#000000" points="488.5,-295.7 488.5,-317.7 628.5,-317.7 628.5,-295.7 488.5,-295.7"/>
<text text-anchor="start" x="508.5" y="-302.8" font-family="Helvetica,sans-Serif" font-size="11.00" fill="#000000">upsert</text>
<polygon fill="none" stroke="#000000" points="628.5,-295.7 628.5,-317.7 727.5,-317.7 727.5,-295.7 628.5,-295.7"/>
<text text-anchor="start" x="631.5" y="-303.4" font-family="Helvetica,sans-Serif" font-size="11.00" fill="#000000">bool[1]</text>
<polygon fill="none" stroke="#000000" points="488.5,-273.7 488.5,-295.7 628.5,-295.7 628.5,-273.7 488.5,-273.7"/>
<text text-anchor="start" x="508.5" y="-280.8" font-family="Helvetica,sans-Serif" font-size="11.00" fill="#000000">data</text>
<polygon fill="none" stroke="#000000" points="628.5,-273.7 628.5,-295.7 727.5,-295.7 727.5,-273.7 628.5,-273.7"/>
<text text-anchor="start" x="631.2258" y="-281.4" font-family="Helvetica,sans-Serif" font-size="11.00" fill="#000000">jsonb[2147483647]</text>
<polygon fill="#ffffff" stroke="transparent" points="488.5,-254.7 488.5,-273.7 549.5,-273.7 549.5,-254.7 488.5,-254.7"/>
<polygon fill="none" stroke="#000000" points="488.5,-254.7 488.5,-273.7 549.5,-273.7 549.5,-254.7 488.5,-254.7"/>
<text text-anchor="start" x="491.5" y="-260.8" font-family="Helvetica,sans-Serif" font-size="11.00" fill="#000000">&lt; 1</text>
<polygon fill="#ffffff" stroke="transparent" points="549.5,-254.7 549.5,-273.7 628.5,-273.7 628.5,-254.7 549.5,-254.7"/>
<polygon fill="none" stroke="#000000" points="549.5,-254.7 549.5,-273.7 628.5,-273.7 628.5,-254.7 549.5,-254.7"/>
<text text-anchor="start" x="593.1105" y="-260.8" font-family="Helvetica,sans-Serif" font-size="11.00" fill="#000000">0 rows</text>
<polygon fill="#ffffff" stroke="transparent" points="628.5,-254.7 628.5,-273.7 727.5,-273.7 727.5,-254.7 628.5,-254.7"/>
<polygon fill="none" stroke="#000000" points="628.5,-254.7 628.5,-273.7 727.5,-273.7 727.5,-254.7 628.5,-254.7"/>
<text text-anchor="start" x="708.9053" y="-260.8" font-family="Helvetica,sans-Serif" font-size="11.00" fill="#000000">0 &gt;</text>
<polygon fill="none" stroke="#000000" stroke-width="2" points="487,-253.7 487,-407.7 728,-407.7 728,-253.7 487,-253.7"/>
</a>
</g>
</g>
<!-- perustiedot_sync&#45;&gt;opiskeluoikeus -->
<g id="edge4" class="edge">
<title>perustiedot_sync:w&#45;&gt;opiskeluoikeus:e</title>
<path fill="none" stroke="#000000" d="M474.0156,-350.7C461.6771,-350.7 454.1667,-350.7 437,-350.7"/>
<polygon fill="#000000" stroke="#000000" points="480.5,-350.7001 488.5,-354.3 484.5,-350.7 488.5,-350.7 488.5,-350.7 488.5,-350.7 484.5,-350.7 488.5,-347.1 480.5,-350.7001 480.5,-350.7001"/>
<ellipse fill="none" stroke="#000000" cx="477.3" cy="-350.7001" rx="3.2" ry="3.2"/>
</g>
</g>
</svg>
