<?xml version="1.0" encoding="UTF-8" standalone="no"?>
<!DOCTYPE svg PUBLIC "-//W3C//DTD SVG 1.1//EN"
 "http://www.w3.org/Graphics/SVG/1.1/DTD/svg11.dtd">
<!-- Generated by graphviz version 2.40.1 (20161225.0304)
 -->
<!-- Title: twoDegreesRelationshipsDiagram Pages: 1 -->
<svg width="788pt" height="477pt"
 viewBox="0.00 0.00 788.00 477.20" xmlns="http://www.w3.org/2000/svg" xmlns:xlink="http://www.w3.org/1999/xlink">
<g id="graph0" class="graph" transform="scale(1 1) rotate(0) translate(4 473.2)">
<title>twoDegreesRelationshipsDiagram</title>
<polygon fill="#ffffff" stroke="transparent" points="-4,4 -4,-473.2 784,-473.2 784,4 -4,4"/>
<text text-anchor="middle" x="72.4936" y="-7.3" font-family="Helvetica,sans-Serif" font-size="11.00" fill="#000000">Generated by SchemaSpy</text>
<!-- opiskeluoikeus -->
<g id="node1" class="node">
<title>opiskeluoikeus</title>
<g id="a_node1"><a xlink:href="../../tables/opiskeluoikeus.html" xlink:title="opiskeluoikeus" target="_top">
<polygon fill="#ffffff" stroke="transparent" points="149,-38.2 149,-385.2 437,-385.2 437,-38.2 149,-38.2"/>
<polygon fill="#f5f5f5" stroke="transparent" points="149,-361.7 149,-384.7 437,-384.7 437,-361.7 149,-361.7"/>
<polygon fill="none" stroke="#000000" points="149,-361.7 149,-384.7 437,-384.7 437,-361.7 149,-361.7"/>
<text text-anchor="start" x="154" y="-370.3" font-family="Helvetica,sans-Serif" font-weight="bold" font-size="11.00" fill="#000000">opiskeluoikeus</text>
<text text-anchor="start" x="402.0437" y="-369.8" font-family="Helvetica,sans-Serif" font-size="11.00" fill="#000000">[table]</text>
<polygon fill="none" stroke="#000000" points="149,-339.7 149,-361.7 437,-361.7 437,-339.7 149,-339.7"/>
<image xlink:href="../../images/primaryKeys.png" width="11px" height="12px" preserveAspectRatio="xMinYMin meet" x="154" y="-356.7"/>
<text text-anchor="start" x="169" y="-346.8" font-family="Helvetica,sans-Serif" font-size="11.00" fill="#000000">id</text>
<polygon fill="#ffffff" stroke="transparent" points="149,-317.7 149,-339.7 437,-339.7 437,-317.7 149,-317.7"/>
<polygon fill="none" stroke="#000000" points="149,-317.7 149,-339.7 437,-339.7 437,-317.7 149,-317.7"/>
<image xlink:href="../../images/foreignKeys.png" width="11px" height="12px" preserveAspectRatio="xMinYMin meet" x="154" y="-334.7"/>
<text text-anchor="start" x="169" y="-324.8" font-family="Helvetica,sans-Serif" font-size="11.00" fill="#000000">oppija_oid</text>
<polygon fill="#ffffff" stroke="transparent" points="149,-295.7 149,-317.7 437,-317.7 437,-295.7 149,-295.7"/>
<polygon fill="none" stroke="#000000" points="149,-295.7 149,-317.7 437,-317.7 437,-295.7 149,-295.7"/>
<text text-anchor="start" x="169" y="-302.8" font-family="Helvetica,sans-Serif" font-size="11.00" fill="#000000">aikaleima</text>
<polygon fill="#ffffff" stroke="transparent" points="149,-273.7 149,-295.7 437,-295.7 437,-273.7 149,-273.7"/>
<polygon fill="none" stroke="#000000" points="149,-273.7 149,-295.7 437,-295.7 437,-273.7 149,-273.7"/>
<text text-anchor="start" x="169" y="-280.8" font-family="Helvetica,sans-Serif" font-size="11.00" fill="#000000">oppilaitos_oid</text>
<polygon fill="#ffffff" stroke="transparent" points="149,-251.7 149,-273.7 437,-273.7 437,-251.7 149,-251.7"/>
<polygon fill="none" stroke="#000000" points="149,-251.7 149,-273.7 437,-273.7 437,-251.7 149,-251.7"/>
<text text-anchor="start" x="169" y="-258.8" font-family="Helvetica,sans-Serif" font-size="11.00" fill="#000000">sisaltava_opiskeluoikeus_oppilaitos_oid</text>
<polygon fill="#ffffff" stroke="transparent" points="149,-229.7 149,-251.7 437,-251.7 437,-229.7 149,-229.7"/>
<polygon fill="none" stroke="#000000" points="149,-229.7 149,-251.7 437,-251.7 437,-229.7 149,-229.7"/>
<text text-anchor="start" x="169" y="-236.8" font-family="Helvetica,sans-Serif" font-size="11.00" fill="#000000">oid</text>
<polygon fill="none" stroke="#000000" points="149,-207.7 149,-229.7 437,-229.7 437,-207.7 149,-207.7"/>
<image xlink:href="../../images/foreignKeys.png" width="11px" height="12px" preserveAspectRatio="xMinYMin meet" x="154" y="-224.7"/>
<text text-anchor="start" x="169" y="-214.8" font-family="Helvetica,sans-Serif" font-size="11.00" fill="#000000">sisaltava_opiskeluoikeus_oid</text>
<polygon fill="#ffffff" stroke="transparent" points="149,-185.7 149,-207.7 437,-207.7 437,-185.7 149,-185.7"/>
<polygon fill="none" stroke="#000000" points="149,-185.7 149,-207.7 437,-207.7 437,-185.7 149,-185.7"/>
<text text-anchor="start" x="169" y="-192.8" font-family="Helvetica,sans-Serif" font-size="11.00" fill="#000000">mitatoity</text>
<polygon fill="#ffffff" stroke="transparent" points="149,-163.7 149,-185.7 437,-185.7 437,-163.7 149,-163.7"/>
<polygon fill="none" stroke="#000000" points="149,-163.7 149,-185.7 437,-185.7 437,-163.7 149,-163.7"/>
<text text-anchor="start" x="169" y="-170.8" font-family="Helvetica,sans-Serif" font-size="11.00" fill="#000000">koulutusmuoto</text>
<polygon fill="#ffffff" stroke="transparent" points="149,-141.7 149,-163.7 437,-163.7 437,-141.7 149,-141.7"/>
<polygon fill="none" stroke="#000000" points="149,-141.7 149,-163.7 437,-163.7 437,-141.7 149,-141.7"/>
<text text-anchor="start" x="169" y="-148.8" font-family="Helvetica,sans-Serif" font-size="11.00" fill="#000000">alkamispaiva</text>
<polygon fill="#ffffff" stroke="transparent" points="149,-119.7 149,-141.7 437,-141.7 437,-119.7 149,-119.7"/>
<polygon fill="none" stroke="#000000" points="149,-119.7 149,-141.7 437,-141.7 437,-119.7 149,-119.7"/>
<text text-anchor="start" x="169" y="-126.8" font-family="Helvetica,sans-Serif" font-size="11.00" fill="#000000">paattymispaiva</text>
<polygon fill="#ffffff" stroke="transparent" points="149,-97.7 149,-119.7 437,-119.7 437,-97.7 149,-97.7"/>
<polygon fill="none" stroke="#000000" points="149,-97.7 149,-119.7 437,-119.7 437,-97.7 149,-97.7"/>
<text text-anchor="start" x="169" y="-104.8" font-family="Helvetica,sans-Serif" font-size="11.00" fill="#000000">suoritustyypit</text>
<polygon fill="#ffffff" stroke="transparent" points="149,-75.7 149,-97.7 437,-97.7 437,-75.7 149,-75.7"/>
<polygon fill="none" stroke="#000000" points="149,-75.7 149,-97.7 437,-97.7 437,-75.7 149,-75.7"/>
<text text-anchor="start" x="169" y="-82.8" font-family="Helvetica,sans-Serif" font-size="11.00" fill="#000000">poistettu</text>
<polygon fill="none" stroke="#000000" points="149,-56.7 149,-75.7 437,-75.7 437,-56.7 149,-56.7"/>
<text text-anchor="start" x="152" y="-62.8" font-family="Helvetica,sans-Serif" font-size="11.00" fill="#000000">...</text>
<polygon fill="#ffffff" stroke="transparent" points="149,-37.7 149,-56.7 268,-56.7 268,-37.7 149,-37.7"/>
<polygon fill="none" stroke="#000000" points="149,-37.7 149,-56.7 268,-56.7 268,-37.7 149,-37.7"/>
<text text-anchor="start" x="152" y="-43.8" font-family="Helvetica,sans-Serif" font-size="11.00" fill="#000000">&lt; 2</text>
<polygon fill="#ffffff" stroke="transparent" points="268,-37.7 268,-56.7 367,-56.7 367,-37.7 268,-37.7"/>
<polygon fill="none" stroke="#000000" points="268,-37.7 268,-56.7 367,-56.7 367,-37.7 268,-37.7"/>
<text text-anchor="start" x="319.3807" y="-43.8" font-family="Helvetica,sans-Serif" font-size="11.00" fill="#000000">188 rows</text>
<polygon fill="#ffffff" stroke="transparent" points="367,-37.7 367,-56.7 437,-56.7 437,-37.7 367,-37.7"/>
<polygon fill="none" stroke="#000000" points="367,-37.7 367,-56.7 437,-56.7 437,-37.7 367,-37.7"/>
<text text-anchor="start" x="418.4053" y="-43.8" font-family="Helvetica,sans-Serif" font-size="11.00" fill="#000000">4 &gt;</text>
</a>
</g>
</g>
<!-- henkilo -->
<g id="node2" class="node">
<title>henkilo</title>
<g id="a_node2"><a xlink:href="../../tables/henkilo.html" xlink:title="henkilo" target="_top">
<polygon fill="#ffffff" stroke="transparent" points="8,-301.2 8,-362.2 100,-362.2 100,-301.2 8,-301.2"/>
<polygon fill="#f5f5f5" stroke="transparent" points="8,-338.7 8,-361.7 100,-361.7 100,-338.7 8,-338.7"/>
<polygon fill="none" stroke="#000000" points="8,-338.7 8,-361.7 100,-361.7 100,-338.7 8,-338.7"/>
<text text-anchor="start" x="13" y="-347.3" font-family="Helvetica,sans-Serif" font-weight="bold" font-size="11.00" fill="#000000">henkilo</text>
<text text-anchor="start" x="65.0437" y="-346.8" font-family="Helvetica,sans-Serif" font-size="11.00" fill="#000000">[table]</text>
<polygon fill="none" stroke="#000000" points="8,-319.7 8,-338.7 100,-338.7 100,-319.7 8,-319.7"/>
<text text-anchor="start" x="11" y="-325.8" font-family="Helvetica,sans-Serif" font-size="11.00" fill="#000000">...</text>
<polygon fill="#ffffff" stroke="transparent" points="8,-300.7 8,-319.7 29,-319.7 29,-300.7 8,-300.7"/>
<polygon fill="none" stroke="#000000" points="8,-300.7 8,-319.7 29,-319.7 29,-300.7 8,-300.7"/>
<text text-anchor="start" x="10.7027" y="-306.8" font-family="Helvetica,sans-Serif" font-size="11.00" fill="#000000">&lt; 1</text>
<polygon fill="#ffffff" stroke="transparent" points="29,-300.7 29,-319.7 79,-319.7 79,-300.7 29,-300.7"/>
<polygon fill="none" stroke="#000000" points="29,-300.7 29,-319.7 79,-319.7 79,-300.7 29,-300.7"/>
<text text-anchor="start" x="31.6904" y="-306.8" font-family="Helvetica,sans-Serif" font-size="11.00" fill="#000000">206 rows</text>
<polygon fill="#ffffff" stroke="transparent" points="79,-300.7 79,-319.7 100,-319.7 100,-300.7 79,-300.7"/>
<polygon fill="none" stroke="#000000" points="79,-300.7 79,-319.7 100,-319.7 100,-300.7 79,-300.7"/>
<text text-anchor="start" x="81.7027" y="-306.8" font-family="Helvetica,sans-Serif" font-size="11.00" fill="#000000">3 &gt;</text>
</a>
</g>
</g>
<!-- opiskeluoikeus&#45;&gt;henkilo -->
<g id="edge1" class="edge">
<title>opiskeluoikeus:w&#45;&gt;henkilo:e</title>
<path fill="none" stroke="#000000" d="M138.2573,-328.7C124.6063,-328.7 117.6944,-328.7 100,-328.7"/>
<polygon fill="#000000" stroke="#000000" points="148.2,-324.7 148.2,-332.7 146.6,-332.7 146.6,-324.7 148.2,-324.7"/>
<polyline fill="none" stroke="#000000" points="149,-328.7 145,-328.7 "/>
<ellipse fill="none" stroke="#000000" cx="141.8" cy="-328.7001" rx="3.2" ry="3.2"/>
</g>
<!-- opiskeluoikeushistoria -->
<g id="node3" class="node">
<title>opiskeluoikeushistoria</title>
<g id="a_node3"><a xlink:href="../../tables/opiskeluoikeushistoria.html" xlink:title="opiskeluoikeushistoria" target="_top">
<polygon fill="#ffffff" stroke="transparent" points="533.5,-404.2 533.5,-465.2 724.5,-465.2 724.5,-404.2 533.5,-404.2"/>
<polygon fill="#f5f5f5" stroke="transparent" points="534,-441.7 534,-464.7 725,-464.7 725,-441.7 534,-441.7"/>
<polygon fill="none" stroke="#000000" points="534,-441.7 534,-464.7 725,-464.7 725,-441.7 534,-441.7"/>
<text text-anchor="start" x="539" y="-450.3" font-family="Helvetica,sans-Serif" font-weight="bold" font-size="11.00" fill="#000000">opiskeluoikeushistoria</text>
<text text-anchor="start" x="690.5219" y="-449.8" font-family="Helvetica,sans-Serif" font-size="11.00" fill="#000000">[table]</text>
<polygon fill="none" stroke="#000000" points="534,-422.7 534,-441.7 725,-441.7 725,-422.7 534,-422.7"/>
<text text-anchor="start" x="537" y="-428.8" font-family="Helvetica,sans-Serif" font-size="11.00" fill="#000000">...</text>
<polygon fill="#ffffff" stroke="transparent" points="534,-403.7 534,-422.7 609,-422.7 609,-403.7 534,-403.7"/>
<polygon fill="none" stroke="#000000" points="534,-403.7 534,-422.7 609,-422.7 609,-403.7 534,-403.7"/>
<text text-anchor="start" x="537" y="-409.8" font-family="Helvetica,sans-Serif" font-size="11.00" fill="#000000">&lt; 1</text>
<polygon fill="#ffffff" stroke="transparent" points="609,-403.7 609,-422.7 686,-422.7 686,-403.7 609,-403.7"/>
<polygon fill="none" stroke="#000000" points="609,-403.7 609,-422.7 686,-422.7 686,-403.7 609,-403.7"/>
<text text-anchor="start" x="638.3807" y="-409.8" font-family="Helvetica,sans-Serif" font-size="11.00" fill="#000000">190 rows</text>
<polygon fill="#ffffff" stroke="transparent" points="686,-403.7 686,-422.7 725,-422.7 725,-403.7 686,-403.7"/>
<polygon fill="none" stroke="#000000" points="686,-403.7 686,-422.7 725,-422.7 725,-403.7 686,-403.7"/>
<text text-anchor="start" x="715.8862" y="-409.8" font-family="Helvetica,sans-Serif" font-size="11.00" fill="#000000"> &#160;</text>
</a>
</g>
</g>
<!-- opiskeluoikeushistoria&#45;&gt;opiskeluoikeus -->
<g id="edge2" class="edge">
<title>opiskeluoikeushistoria:w&#45;&gt;opiskeluoikeus:e</title>
<path fill="none" stroke="#000000" d="M519.6298,-429.8589C502.1059,-424.7087 496.649,-409.4941 478,-393.7 457.8495,-376.6342 463.4061,-350.7 437,-350.7"/>
<polygon fill="#000000" stroke="#000000" points="526.0649,-430.6833 533.5425,-435.2708 530.0324,-431.1917 534,-431.7 534,-431.7 534,-431.7 530.0324,-431.1917 534.4575,-428.1292 526.0649,-430.6833 526.0649,-430.6833"/>
<ellipse fill="none" stroke="#000000" cx="522.8908" cy="-430.2767" rx="3.2" ry="3.2"/>
</g>
<!-- perustiedot_manual_sync -->
<g id="node4" class="node">
<title>perustiedot_manual_sync</title>
<g id="a_node4"><a xlink:href="../../tables/perustiedot_manual_sync.html" xlink:title="perustiedot_manual_sync" target="_top">
<polygon fill="#ffffff" stroke="transparent" points="486,-164.7 486,-298.7 772,-298.7 772,-164.7 486,-164.7"/>
<polygon fill="#f5f5f5" stroke="transparent" points="488,-273.7 488,-296.7 770,-296.7 770,-273.7 488,-273.7"/>
<polygon fill="none" stroke="#000000" points="488,-273.7 488,-296.7 770,-296.7 770,-273.7 488,-273.7"/>
<text text-anchor="start" x="493" y="-282.3" font-family="Helvetica,sans-Serif" font-weight="bold" font-size="11.00" fill="#000000">perustiedot_manual_sync</text>
<text text-anchor="start" x="735.0437" y="-281.8" font-family="Helvetica,sans-Serif" font-size="11.00" fill="#000000">[table]</text>
<polygon fill="none" stroke="#000000" points="488,-251.7 488,-273.7 680,-273.7 680,-251.7 488,-251.7"/>
<image xlink:href="../../images/primaryKeys.png" width="11px" height="12px" preserveAspectRatio="xMinYMin meet" x="493" y="-268.7"/>
<text text-anchor="start" x="508" y="-258.8" font-family="Helvetica,sans-Serif" font-size="11.00" fill="#000000">id</text>
<polygon fill="none" stroke="#000000" points="680,-251.7 680,-273.7 770,-273.7 770,-251.7 680,-251.7"/>
<text text-anchor="start" x="683" y="-259.4" font-family="Helvetica,sans-Serif" font-size="11.00" fill="#000000">serial[10]</text>
<polygon fill="none" stroke="#000000" points="488,-229.7 488,-251.7 680,-251.7 680,-229.7 488,-229.7"/>
<image xlink:href="../../images/foreignKeys.png" width="11px" height="12px" preserveAspectRatio="xMinYMin meet" x="493" y="-246.7"/>
<text text-anchor="start" x="508" y="-236.8" font-family="Helvetica,sans-Serif" font-size="11.00" fill="#000000">opiskeluoikeus_oid</text>
<polygon fill="none" stroke="#000000" points="680,-229.7 680,-251.7 770,-251.7 770,-229.7 680,-229.7"/>
<text text-anchor="start" x="682.5043" y="-237.4" font-family="Helvetica,sans-Serif" font-size="11.00" fill="#000000">text[2147483647]</text>
<polygon fill="none" stroke="#000000" points="488,-207.7 488,-229.7 680,-229.7 680,-207.7 488,-207.7"/>
<text text-anchor="start" x="508" y="-214.8" font-family="Helvetica,sans-Serif" font-size="11.00" fill="#000000">upsert</text>
<polygon fill="none" stroke="#000000" points="680,-207.7 680,-229.7 770,-229.7 770,-207.7 680,-207.7"/>
<text text-anchor="start" x="683" y="-215.4" font-family="Helvetica,sans-Serif" font-size="11.00" fill="#000000">bool[1]</text>
<polygon fill="none" stroke="#000000" points="488,-185.7 488,-207.7 680,-207.7 680,-185.7 488,-185.7"/>
<text text-anchor="start" x="508" y="-192.8" font-family="Helvetica,sans-Serif" font-size="11.00" fill="#000000">aikaleima</text>
<polygon fill="none" stroke="#000000" points="680,-185.7 680,-207.7 770,-207.7 770,-185.7 680,-185.7"/>
<text text-anchor="start" x="683" y="-193.4" font-family="Helvetica,sans-Serif" font-size="11.00" fill="#000000">timestamp[29,6]</text>
<polygon fill="#ffffff" stroke="transparent" points="488,-166.7 488,-185.7 588,-185.7 588,-166.7 488,-166.7"/>
<polygon fill="none" stroke="#000000" points="488,-166.7 488,-185.7 588,-185.7 588,-166.7 488,-166.7"/>
<text text-anchor="start" x="491" y="-172.8" font-family="Helvetica,sans-Serif" font-size="11.00" fill="#000000">&lt; 1</text>
<polygon fill="#ffffff" stroke="transparent" points="588,-166.7 588,-185.7 680,-185.7 680,-166.7 588,-166.7"/>
<polygon fill="none" stroke="#000000" points="588,-166.7 588,-185.7 680,-185.7 680,-166.7 588,-166.7"/>
<text text-anchor="start" x="670.8862" y="-172.8" font-family="Helvetica,sans-Serif" font-size="11.00" fill="#000000"> &#160;</text>
<polygon fill="#ffffff" stroke="transparent" points="680,-166.7 680,-185.7 770,-185.7 770,-166.7 680,-166.7"/>
<polygon fill="none" stroke="#000000" points="680,-166.7 680,-185.7 770,-185.7 770,-166.7 680,-166.7"/>
<text text-anchor="start" x="751.4053" y="-172.8" font-family="Helvetica,sans-Serif" font-size="11.00" fill="#000000">0 &gt;</text>
<polygon fill="none" stroke="#000000" stroke-width="2" points="487,-165.7 487,-297.7 771,-297.7 771,-165.7 487,-165.7"/>
</a>
</g>
</g>
<!-- perustiedot_manual_sync&#45;&gt;opiskeluoikeus -->
<g id="edge3" class="edge">
<title>perustiedot_manual_sync:w&#45;&gt;opiskeluoikeus:e</title>
<path fill="none" stroke="#000000" d="M473.276,-240.7C461.2815,-240.7 453.8229,-240.7 437,-240.7"/>
<polygon fill="#000000" stroke="#000000" points="480,-240.7001 488,-244.3 484,-240.7 488,-240.7 488,-240.7 488,-240.7 484,-240.7 488,-237.1 480,-240.7001 480,-240.7001"/>
<ellipse fill="none" stroke="#000000" cx="476.8" cy="-240.7001" rx="3.2" ry="3.2"/>
</g>
<!-- perustiedot_sync -->
<g id="node5" class="node">
<title>perustiedot_sync</title>
<g id="a_node5"><a xlink:href="../../tables/perustiedot_sync.html" xlink:title="perustiedot_sync" target="_top">
<polygon fill="#ffffff" stroke="transparent" points="552,-322.2 552,-383.2 706,-383.2 706,-322.2 552,-322.2"/>
<polygon fill="#f5f5f5" stroke="transparent" points="552,-359.7 552,-382.7 706,-382.7 706,-359.7 552,-359.7"/>
<polygon fill="none" stroke="#000000" points="552,-359.7 552,-382.7 706,-382.7 706,-359.7 552,-359.7"/>
<text text-anchor="start" x="557" y="-368.3" font-family="Helvetica,sans-Serif" font-weight="bold" font-size="11.00" fill="#000000">perustiedot_sync</text>
<text text-anchor="start" x="671.5219" y="-367.8" font-family="Helvetica,sans-Serif" font-size="11.00" fill="#000000">[table]</text>
<polygon fill="none" stroke="#000000" points="552,-340.7 552,-359.7 706,-359.7 706,-340.7 552,-340.7"/>
<text text-anchor="start" x="555" y="-346.8" font-family="Helvetica,sans-Serif" font-size="11.00" fill="#000000">...</text>
<polygon fill="#ffffff" stroke="transparent" points="552,-321.7 552,-340.7 614,-340.7 614,-321.7 552,-321.7"/>
<polygon fill="none" stroke="#000000" points="552,-321.7 552,-340.7 614,-340.7 614,-321.7 552,-321.7"/>
<text text-anchor="start" x="555" y="-327.8" font-family="Helvetica,sans-Serif" font-size="11.00" fill="#000000">&lt; 1</text>
<polygon fill="#ffffff" stroke="transparent" points="614,-321.7 614,-340.7 673,-340.7 673,-321.7 614,-321.7"/>
<polygon fill="none" stroke="#000000" points="614,-321.7 614,-340.7 673,-340.7 673,-321.7 614,-321.7"/>
<text text-anchor="start" x="637.6105" y="-327.8" font-family="Helvetica,sans-Serif" font-size="11.00" fill="#000000">0 rows</text>
<polygon fill="#ffffff" stroke="transparent" points="673,-321.7 673,-340.7 706,-340.7 706,-321.7 673,-321.7"/>
<polygon fill="none" stroke="#000000" points="673,-321.7 673,-340.7 706,-340.7 706,-321.7 673,-321.7"/>
<text text-anchor="start" x="696.8862" y="-327.8" font-family="Helvetica,sans-Serif" font-size="11.00" fill="#000000"> &#160;</text>
</a>
</g>
</g>
<!-- perustiedot_sync&#45;&gt;opiskeluoikeus -->
<g id="edge4" class="edge">
<title>perustiedot_sync:w&#45;&gt;opiskeluoikeus:e</title>
<path fill="none" stroke="#000000" d="M537.5326,-349.7288C497.8968,-349.8928 482.9219,-350.7 437,-350.7"/>
<polygon fill="#000000" stroke="#000000" points="544,-349.716 552.0072,-353.3 548,-349.708 552,-349.7 552,-349.7 552,-349.7 548,-349.708 551.9928,-346.1 544,-349.716 544,-349.716"/>
<ellipse fill="none" stroke="#000000" cx="540.8" cy="-349.7224" rx="3.2" ry="3.2"/>
</g>
</g>
</svg>
