<?xml version="1.0" encoding="UTF-8" standalone="no"?>
<!DOCTYPE svg PUBLIC "-//W3C//DTD SVG 1.1//EN"
 "http://www.w3.org/Graphics/SVG/1.1/DTD/svg11.dtd">
<!-- Generated by graphviz version 2.40.1 (20161225.0304)
 -->
<!-- Title: twoDegreesRelationshipsDiagram Pages: 1 -->
<svg width="730pt" height="477pt"
 viewBox="0.00 0.00 730.00 477.20" xmlns="http://www.w3.org/2000/svg" xmlns:xlink="http://www.w3.org/1999/xlink">
<g id="graph0" class="graph" transform="scale(1 1) rotate(0) translate(4 473.2)">
<title>twoDegreesRelationshipsDiagram</title>
<polygon fill="#ffffff" stroke="transparent" points="-4,4 -4,-473.2 726,-473.2 726,4 -4,4"/>
<text text-anchor="middle" x="72.4936" y="-7.3" font-family="Helvetica,sans-Serif" font-size="11.00" fill="#000000">Generated by SchemaSpy</text>
<!-- opiskeluoikeus -->
<g id="node1" class="node">
<title>opiskeluoikeus</title>
<g id="a_node1"><a xlink:href="../../tables/opiskeluoikeus.html" xlink:title="opiskeluoikeus" target="_top">
<polygon fill="#ffffff" stroke="transparent" points="149,-38.2 149,-385.2 402,-385.2 402,-38.2 149,-38.2"/>
<polygon fill="#f5f5f5" stroke="transparent" points="149.5,-361.7 149.5,-384.7 402.5,-384.7 402.5,-361.7 149.5,-361.7"/>
<polygon fill="none" stroke="#000000" points="149.5,-361.7 149.5,-384.7 402.5,-384.7 402.5,-361.7 149.5,-361.7"/>
<text text-anchor="start" x="154.5" y="-370.3" font-family="Helvetica,sans-Serif" font-weight="bold" font-size="11.00" fill="#000000">opiskeluoikeus</text>
<text text-anchor="start" x="367.5437" y="-369.8" font-family="Helvetica,sans-Serif" font-size="11.00" fill="#000000">[table]</text>
<polygon fill="none" stroke="#000000" points="149.5,-339.7 149.5,-361.7 402.5,-361.7 402.5,-339.7 149.5,-339.7"/>
<image xlink:href="../../images/primaryKeys.png" width="11px" height="12px" preserveAspectRatio="xMinYMin meet" x="154.5" y="-356.7"/>
<text text-anchor="start" x="169.5" y="-346.8" font-family="Helvetica,sans-Serif" font-size="11.00" fill="#000000">id</text>
<polygon fill="#ffffff" stroke="transparent" points="149.5,-317.7 149.5,-339.7 402.5,-339.7 402.5,-317.7 149.5,-317.7"/>
<polygon fill="none" stroke="#000000" points="149.5,-317.7 149.5,-339.7 402.5,-339.7 402.5,-317.7 149.5,-317.7"/>
<image xlink:href="../../images/foreignKeys.png" width="11px" height="12px" preserveAspectRatio="xMinYMin meet" x="154.5" y="-334.7"/>
<text text-anchor="start" x="169.5" y="-324.8" font-family="Helvetica,sans-Serif" font-size="11.00" fill="#000000">oppija_oid</text>
<polygon fill="#ffffff" stroke="transparent" points="149.5,-295.7 149.5,-317.7 402.5,-317.7 402.5,-295.7 149.5,-295.7"/>
<polygon fill="none" stroke="#000000" points="149.5,-295.7 149.5,-317.7 402.5,-317.7 402.5,-295.7 149.5,-295.7"/>
<text text-anchor="start" x="169.5" y="-302.8" font-family="Helvetica,sans-Serif" font-size="11.00" fill="#000000">aikaleima</text>
<polygon fill="#ffffff" stroke="transparent" points="149.5,-273.7 149.5,-295.7 402.5,-295.7 402.5,-273.7 149.5,-273.7"/>
<polygon fill="none" stroke="#000000" points="149.5,-273.7 149.5,-295.7 402.5,-295.7 402.5,-273.7 149.5,-273.7"/>
<text text-anchor="start" x="169.5" y="-280.8" font-family="Helvetica,sans-Serif" font-size="11.00" fill="#000000">oppilaitos_oid</text>
<polygon fill="#ffffff" stroke="transparent" points="149.5,-251.7 149.5,-273.7 402.5,-273.7 402.5,-251.7 149.5,-251.7"/>
<polygon fill="none" stroke="#000000" points="149.5,-251.7 149.5,-273.7 402.5,-273.7 402.5,-251.7 149.5,-251.7"/>
<text text-anchor="start" x="169.5" y="-258.8" font-family="Helvetica,sans-Serif" font-size="11.00" fill="#000000">sisaltava_opiskeluoikeus_oppilaitos_oid</text>
<polygon fill="#ffffff" stroke="transparent" points="149.5,-229.7 149.5,-251.7 402.5,-251.7 402.5,-229.7 149.5,-229.7"/>
<polygon fill="none" stroke="#000000" points="149.5,-229.7 149.5,-251.7 402.5,-251.7 402.5,-229.7 149.5,-229.7"/>
<text text-anchor="start" x="169.5" y="-236.8" font-family="Helvetica,sans-Serif" font-size="11.00" fill="#000000">oid</text>
<polygon fill="none" stroke="#000000" points="149.5,-207.7 149.5,-229.7 402.5,-229.7 402.5,-207.7 149.5,-207.7"/>
<image xlink:href="../../images/foreignKeys.png" width="11px" height="12px" preserveAspectRatio="xMinYMin meet" x="154.5" y="-224.7"/>
<text text-anchor="start" x="169.5" y="-214.8" font-family="Helvetica,sans-Serif" font-size="11.00" fill="#000000">sisaltava_opiskeluoikeus_oid</text>
<polygon fill="#ffffff" stroke="transparent" points="149.5,-185.7 149.5,-207.7 402.5,-207.7 402.5,-185.7 149.5,-185.7"/>
<polygon fill="none" stroke="#000000" points="149.5,-185.7 149.5,-207.7 402.5,-207.7 402.5,-185.7 149.5,-185.7"/>
<text text-anchor="start" x="169.5" y="-192.8" font-family="Helvetica,sans-Serif" font-size="11.00" fill="#000000">mitatoity</text>
<polygon fill="#ffffff" stroke="transparent" points="149.5,-163.7 149.5,-185.7 402.5,-185.7 402.5,-163.7 149.5,-163.7"/>
<polygon fill="none" stroke="#000000" points="149.5,-163.7 149.5,-185.7 402.5,-185.7 402.5,-163.7 149.5,-163.7"/>
<text text-anchor="start" x="169.5" y="-170.8" font-family="Helvetica,sans-Serif" font-size="11.00" fill="#000000">koulutusmuoto</text>
<polygon fill="#ffffff" stroke="transparent" points="149.5,-141.7 149.5,-163.7 402.5,-163.7 402.5,-141.7 149.5,-141.7"/>
<polygon fill="none" stroke="#000000" points="149.5,-141.7 149.5,-163.7 402.5,-163.7 402.5,-141.7 149.5,-141.7"/>
<text text-anchor="start" x="169.5" y="-148.8" font-family="Helvetica,sans-Serif" font-size="11.00" fill="#000000">alkamispaiva</text>
<polygon fill="#ffffff" stroke="transparent" points="149.5,-119.7 149.5,-141.7 402.5,-141.7 402.5,-119.7 149.5,-119.7"/>
<polygon fill="none" stroke="#000000" points="149.5,-119.7 149.5,-141.7 402.5,-141.7 402.5,-119.7 149.5,-119.7"/>
<text text-anchor="start" x="169.5" y="-126.8" font-family="Helvetica,sans-Serif" font-size="11.00" fill="#000000">paattymispaiva</text>
<polygon fill="#ffffff" stroke="transparent" points="149.5,-97.7 149.5,-119.7 402.5,-119.7 402.5,-97.7 149.5,-97.7"/>
<polygon fill="none" stroke="#000000" points="149.5,-97.7 149.5,-119.7 402.5,-119.7 402.5,-97.7 149.5,-97.7"/>
<text text-anchor="start" x="169.5" y="-104.8" font-family="Helvetica,sans-Serif" font-size="11.00" fill="#000000">suoritustyypit</text>
<polygon fill="#ffffff" stroke="transparent" points="149.5,-75.7 149.5,-97.7 402.5,-97.7 402.5,-75.7 149.5,-75.7"/>
<polygon fill="none" stroke="#000000" points="149.5,-75.7 149.5,-97.7 402.5,-97.7 402.5,-75.7 149.5,-75.7"/>
<text text-anchor="start" x="169.5" y="-82.8" font-family="Helvetica,sans-Serif" font-size="11.00" fill="#000000">poistettu</text>
<polygon fill="none" stroke="#000000" points="149.5,-56.7 149.5,-75.7 402.5,-75.7 402.5,-56.7 149.5,-56.7"/>
<text text-anchor="start" x="152.5" y="-62.8" font-family="Helvetica,sans-Serif" font-size="11.00" fill="#000000">...</text>
<polygon fill="#ffffff" stroke="transparent" points="149.5,-37.7 149.5,-56.7 250.5,-56.7 250.5,-37.7 149.5,-37.7"/>
<polygon fill="none" stroke="#000000" points="149.5,-37.7 149.5,-56.7 250.5,-56.7 250.5,-37.7 149.5,-37.7"/>
<text text-anchor="start" x="152.5" y="-43.8" font-family="Helvetica,sans-Serif" font-size="11.00" fill="#000000">&lt; 2</text>
<polygon fill="#ffffff" stroke="transparent" points="250.5,-37.7 250.5,-56.7 340.5,-56.7 340.5,-37.7 250.5,-37.7"/>
<polygon fill="none" stroke="#000000" points="250.5,-37.7 250.5,-56.7 340.5,-56.7 340.5,-37.7 250.5,-37.7"/>
<text text-anchor="start" x="292.8807" y="-43.8" font-family="Helvetica,sans-Serif" font-size="11.00" fill="#000000">173 rows</text>
<polygon fill="#ffffff" stroke="transparent" points="340.5,-37.7 340.5,-56.7 402.5,-56.7 402.5,-37.7 340.5,-37.7"/>
<polygon fill="none" stroke="#000000" points="340.5,-37.7 340.5,-56.7 402.5,-56.7 402.5,-37.7 340.5,-37.7"/>
<text text-anchor="start" x="383.9053" y="-43.8" font-family="Helvetica,sans-Serif" font-size="11.00" fill="#000000">4 &gt;</text>
</a>
</g>
</g>
<!-- henkilo -->
<g id="node2" class="node">
<title>henkilo</title>
<g id="a_node2"><a xlink:href="../../tables/henkilo.html" xlink:title="henkilo" target="_top">
<polygon fill="#ffffff" stroke="transparent" points="8,-301.2 8,-362.2 100,-362.2 100,-301.2 8,-301.2"/>
<polygon fill="#f5f5f5" stroke="transparent" points="8,-338.7 8,-361.7 100,-361.7 100,-338.7 8,-338.7"/>
<polygon fill="none" stroke="#000000" points="8,-338.7 8,-361.7 100,-361.7 100,-338.7 8,-338.7"/>
<text text-anchor="start" x="13" y="-347.3" font-family="Helvetica,sans-Serif" font-weight="bold" font-size="11.00" fill="#000000">henkilo</text>
<text text-anchor="start" x="65.0437" y="-346.8" font-family="Helvetica,sans-Serif" font-size="11.00" fill="#000000">[table]</text>
<polygon fill="none" stroke="#000000" points="8,-319.7 8,-338.7 100,-338.7 100,-319.7 8,-319.7"/>
<text text-anchor="start" x="11" y="-325.8" font-family="Helvetica,sans-Serif" font-size="11.00" fill="#000000">...</text>
<polygon fill="#ffffff" stroke="transparent" points="8,-300.7 8,-319.7 29,-319.7 29,-300.7 8,-300.7"/>
<polygon fill="none" stroke="#000000" points="8,-300.7 8,-319.7 29,-319.7 29,-300.7 8,-300.7"/>
<text text-anchor="start" x="10.7027" y="-306.8" font-family="Helvetica,sans-Serif" font-size="11.00" fill="#000000">&lt; 1</text>
<polygon fill="#ffffff" stroke="transparent" points="29,-300.7 29,-319.7 79,-319.7 79,-300.7 29,-300.7"/>
<polygon fill="none" stroke="#000000" points="29,-300.7 29,-319.7 79,-319.7 79,-300.7 29,-300.7"/>
<text text-anchor="start" x="31.6904" y="-306.8" font-family="Helvetica,sans-Serif" font-size="11.00" fill="#000000">194 rows</text>
<polygon fill="#ffffff" stroke="transparent" points="79,-300.7 79,-319.7 100,-319.7 100,-300.7 79,-300.7"/>
<polygon fill="none" stroke="#000000" points="79,-300.7 79,-319.7 100,-319.7 100,-300.7 79,-300.7"/>
<text text-anchor="start" x="81.7027" y="-306.8" font-family="Helvetica,sans-Serif" font-size="11.00" fill="#000000">3 &gt;</text>
</a>
</g>
</g>
<!-- opiskeluoikeus&#45;&gt;henkilo -->
<g id="edge1" class="edge">
<title>opiskeluoikeus:w&#45;&gt;henkilo:e</title>
<path fill="none" stroke="#000000" d="M139.0474,-328.7C124.9907,-328.7 118.0469,-328.7 100,-328.7"/>
<polygon fill="#000000" stroke="#000000" points="148.7,-324.7 148.7,-332.7 147.1,-332.7 147.1,-324.7 148.7,-324.7"/>
<polyline fill="none" stroke="#000000" points="149.5,-328.7 145.5,-328.7 "/>
<ellipse fill="none" stroke="#000000" cx="142.3" cy="-328.7001" rx="3.2" ry="3.2"/>
</g>
<!-- opiskeluoikeushistoria -->
<g id="node3" class="node">
<title>opiskeluoikeushistoria</title>
<g id="a_node3"><a xlink:href="../../tables/opiskeluoikeushistoria.html" xlink:title="opiskeluoikeushistoria" target="_top">
<polygon fill="#ffffff" stroke="transparent" points="498,-404.2 498,-465.2 667,-465.2 667,-404.2 498,-404.2"/>
<polygon fill="#f5f5f5" stroke="transparent" points="498.5,-441.7 498.5,-464.7 667.5,-464.7 667.5,-441.7 498.5,-441.7"/>
<polygon fill="none" stroke="#000000" points="498.5,-441.7 498.5,-464.7 667.5,-464.7 667.5,-441.7 498.5,-441.7"/>
<text text-anchor="start" x="503.5" y="-450.3" font-family="Helvetica,sans-Serif" font-weight="bold" font-size="11.00" fill="#000000">opiskeluoikeushistoria</text>
<text text-anchor="start" x="633.0219" y="-449.8" font-family="Helvetica,sans-Serif" font-size="11.00" fill="#000000">[table]</text>
<polygon fill="none" stroke="#000000" points="498.5,-422.7 498.5,-441.7 667.5,-441.7 667.5,-422.7 498.5,-422.7"/>
<text text-anchor="start" x="501.5" y="-428.8" font-family="Helvetica,sans-Serif" font-size="11.00" fill="#000000">...</text>
<polygon fill="#ffffff" stroke="transparent" points="498.5,-403.7 498.5,-422.7 562.5,-422.7 562.5,-403.7 498.5,-403.7"/>
<polygon fill="none" stroke="#000000" points="498.5,-403.7 498.5,-422.7 562.5,-422.7 562.5,-403.7 498.5,-403.7"/>
<text text-anchor="start" x="501.5" y="-409.8" font-family="Helvetica,sans-Serif" font-size="11.00" fill="#000000">&lt; 1</text>
<polygon fill="#ffffff" stroke="transparent" points="562.5,-403.7 562.5,-422.7 633.5,-422.7 633.5,-403.7 562.5,-403.7"/>
<polygon fill="none" stroke="#000000" points="562.5,-403.7 562.5,-422.7 633.5,-422.7 633.5,-403.7 562.5,-403.7"/>
<text text-anchor="start" x="585.8807" y="-409.8" font-family="Helvetica,sans-Serif" font-size="11.00" fill="#000000">174 rows</text>
<polygon fill="#ffffff" stroke="transparent" points="633.5,-403.7 633.5,-422.7 667.5,-422.7 667.5,-403.7 633.5,-403.7"/>
<polygon fill="none" stroke="#000000" points="633.5,-403.7 633.5,-422.7 667.5,-422.7 667.5,-403.7 633.5,-403.7"/>
<text text-anchor="start" x="658.3862" y="-409.8" font-family="Helvetica,sans-Serif" font-size="11.00" fill="#000000"> &#160;</text>
</a>
</g>
</g>
<!-- opiskeluoikeushistoria&#45;&gt;opiskeluoikeus -->
<g id="edge2" class="edge">
<title>opiskeluoikeushistoria:w&#45;&gt;opiskeluoikeus:e</title>
<path fill="none" stroke="#000000" d="M483.725,-429.7075C466.7194,-424.4156 461.2766,-409.3411 443,-393.7 423.0538,-376.63 428.7533,-350.7 402.5,-350.7"/>
<polygon fill="#000000" stroke="#000000" points="490.5718,-430.6308 498.0188,-435.2677 494.5359,-431.1654 498.5,-431.7 498.5,-431.7 498.5,-431.7 494.5359,-431.1654 498.9812,-428.1323 490.5718,-430.6308 490.5718,-430.6308"/>
<ellipse fill="none" stroke="#000000" cx="487.4005" cy="-430.2031" rx="3.2" ry="3.2"/>
</g>
<!-- perustiedot_manual_sync -->
<g id="node4" class="node">
<title>perustiedot_manual_sync</title>
<g id="a_node4"><a xlink:href="../../tables/perustiedot_manual_sync.html" xlink:title="perustiedot_manual_sync" target="_top">
<polygon fill="#ffffff" stroke="transparent" points="451,-164.7 451,-298.7 714,-298.7 714,-164.7 451,-164.7"/>
<polygon fill="#f5f5f5" stroke="transparent" points="453.5,-273.7 453.5,-296.7 712.5,-296.7 712.5,-273.7 453.5,-273.7"/>
<polygon fill="none" stroke="#000000" points="453.5,-273.7 453.5,-296.7 712.5,-296.7 712.5,-273.7 453.5,-273.7"/>
<text text-anchor="start" x="458.5" y="-282.3" font-family="Helvetica,sans-Serif" font-weight="bold" font-size="11.00" fill="#000000">perustiedot_manual_sync</text>
<text text-anchor="start" x="677.5437" y="-281.8" font-family="Helvetica,sans-Serif" font-size="11.00" fill="#000000">[table]</text>
<polygon fill="none" stroke="#000000" points="453.5,-251.7 453.5,-273.7 622.5,-273.7 622.5,-251.7 453.5,-251.7"/>
<image xlink:href="../../images/primaryKeys.png" width="11px" height="12px" preserveAspectRatio="xMinYMin meet" x="458.5" y="-268.7"/>
<text text-anchor="start" x="473.5" y="-258.8" font-family="Helvetica,sans-Serif" font-size="11.00" fill="#000000">id</text>
<polygon fill="none" stroke="#000000" points="622.5,-251.7 622.5,-273.7 712.5,-273.7 712.5,-251.7 622.5,-251.7"/>
<text text-anchor="start" x="625.5" y="-259.4" font-family="Helvetica,sans-Serif" font-size="11.00" fill="#000000">serial[10]</text>
<polygon fill="none" stroke="#000000" points="453.5,-229.7 453.5,-251.7 622.5,-251.7 622.5,-229.7 453.5,-229.7"/>
<image xlink:href="../../images/foreignKeys.png" width="11px" height="12px" preserveAspectRatio="xMinYMin meet" x="458.5" y="-246.7"/>
<text text-anchor="start" x="473.5" y="-236.8" font-family="Helvetica,sans-Serif" font-size="11.00" fill="#000000">opiskeluoikeus_oid</text>
<polygon fill="none" stroke="#000000" points="622.5,-229.7 622.5,-251.7 712.5,-251.7 712.5,-229.7 622.5,-229.7"/>
<text text-anchor="start" x="625.0043" y="-237.4" font-family="Helvetica,sans-Serif" font-size="11.00" fill="#000000">text[2147483647]</text>
<polygon fill="none" stroke="#000000" points="453.5,-207.7 453.5,-229.7 622.5,-229.7 622.5,-207.7 453.5,-207.7"/>
<text text-anchor="start" x="473.5" y="-214.8" font-family="Helvetica,sans-Serif" font-size="11.00" fill="#000000">upsert</text>
<polygon fill="none" stroke="#000000" points="622.5,-207.7 622.5,-229.7 712.5,-229.7 712.5,-207.7 622.5,-207.7"/>
<text text-anchor="start" x="625.5" y="-215.4" font-family="Helvetica,sans-Serif" font-size="11.00" fill="#000000">bool[1]</text>
<polygon fill="none" stroke="#000000" points="453.5,-185.7 453.5,-207.7 622.5,-207.7 622.5,-185.7 453.5,-185.7"/>
<text text-anchor="start" x="473.5" y="-192.8" font-family="Helvetica,sans-Serif" font-size="11.00" fill="#000000">aikaleima</text>
<polygon fill="none" stroke="#000000" points="622.5,-185.7 622.5,-207.7 712.5,-207.7 712.5,-185.7 622.5,-185.7"/>
<text text-anchor="start" x="625.5" y="-193.4" font-family="Helvetica,sans-Serif" font-size="11.00" fill="#000000">timestamp[29,6]</text>
<polygon fill="#ffffff" stroke="transparent" points="453.5,-166.7 453.5,-185.7 542.5,-185.7 542.5,-166.7 453.5,-166.7"/>
<polygon fill="none" stroke="#000000" points="453.5,-166.7 453.5,-185.7 542.5,-185.7 542.5,-166.7 453.5,-166.7"/>
<text text-anchor="start" x="456.5" y="-172.8" font-family="Helvetica,sans-Serif" font-size="11.00" fill="#000000">&lt; 1</text>
<polygon fill="#ffffff" stroke="transparent" points="542.5,-166.7 542.5,-185.7 622.5,-185.7 622.5,-166.7 542.5,-166.7"/>
<polygon fill="none" stroke="#000000" points="542.5,-166.7 542.5,-185.7 622.5,-185.7 622.5,-166.7 542.5,-166.7"/>
<text text-anchor="start" x="613.3862" y="-172.8" font-family="Helvetica,sans-Serif" font-size="11.00" fill="#000000"> &#160;</text>
<polygon fill="#ffffff" stroke="transparent" points="622.5,-166.7 622.5,-185.7 712.5,-185.7 712.5,-166.7 622.5,-166.7"/>
<polygon fill="none" stroke="#000000" points="622.5,-166.7 622.5,-185.7 712.5,-185.7 712.5,-166.7 622.5,-166.7"/>
<text text-anchor="start" x="693.9053" y="-172.8" font-family="Helvetica,sans-Serif" font-size="11.00" fill="#000000">0 &gt;</text>
<polygon fill="none" stroke="#000000" stroke-width="2" points="452,-165.7 452,-297.7 713,-297.7 713,-165.7 452,-165.7"/>
</a>
</g>
</g>
<!-- perustiedot_manual_sync&#45;&gt;opiskeluoikeus -->
<g id="edge3" class="edge">
<title>perustiedot_manual_sync:w&#45;&gt;opiskeluoikeus:e</title>
<path fill="none" stroke="#000000" d="M438.776,-240.7C426.7815,-240.7 419.3229,-240.7 402.5,-240.7"/>
<polygon fill="#000000" stroke="#000000" points="445.5,-240.7001 453.5,-244.3 449.5,-240.7 453.5,-240.7 453.5,-240.7 453.5,-240.7 449.5,-240.7 453.5,-237.1 445.5,-240.7001 445.5,-240.7001"/>
<ellipse fill="none" stroke="#000000" cx="442.3" cy="-240.7001" rx="3.2" ry="3.2"/>
</g>
<!-- perustiedot_sync -->
<g id="node5" class="node">
<title>perustiedot_sync</title>
<g id="a_node5"><a xlink:href="../../tables/perustiedot_sync.html" xlink:title="perustiedot_sync" target="_top">
<polygon fill="#ffffff" stroke="transparent" points="513.5,-322.2 513.5,-383.2 651.5,-383.2 651.5,-322.2 513.5,-322.2"/>
<polygon fill="#f5f5f5" stroke="transparent" points="513.5,-359.7 513.5,-382.7 651.5,-382.7 651.5,-359.7 513.5,-359.7"/>
<polygon fill="none" stroke="#000000" points="513.5,-359.7 513.5,-382.7 651.5,-382.7 651.5,-359.7 513.5,-359.7"/>
<text text-anchor="start" x="518.5" y="-368.3" font-family="Helvetica,sans-Serif" font-weight="bold" font-size="11.00" fill="#000000">perustiedot_sync</text>
<text text-anchor="start" x="617.0219" y="-367.8" font-family="Helvetica,sans-Serif" font-size="11.00" fill="#000000">[table]</text>
<polygon fill="none" stroke="#000000" points="513.5,-340.7 513.5,-359.7 651.5,-359.7 651.5,-340.7 513.5,-340.7"/>
<text text-anchor="start" x="516.5" y="-346.8" font-family="Helvetica,sans-Serif" font-size="11.00" fill="#000000">...</text>
<polygon fill="#ffffff" stroke="transparent" points="513.5,-321.7 513.5,-340.7 567.5,-340.7 567.5,-321.7 513.5,-321.7"/>
<polygon fill="none" stroke="#000000" points="513.5,-321.7 513.5,-340.7 567.5,-340.7 567.5,-321.7 513.5,-321.7"/>
<text text-anchor="start" x="516.5" y="-327.8" font-family="Helvetica,sans-Serif" font-size="11.00" fill="#000000">&lt; 1</text>
<polygon fill="#ffffff" stroke="transparent" points="567.5,-321.7 567.5,-340.7 622.5,-340.7 622.5,-321.7 567.5,-321.7"/>
<polygon fill="none" stroke="#000000" points="567.5,-321.7 567.5,-340.7 622.5,-340.7 622.5,-321.7 567.5,-321.7"/>
<text text-anchor="start" x="587.1105" y="-327.8" font-family="Helvetica,sans-Serif" font-size="11.00" fill="#000000">0 rows</text>
<polygon fill="#ffffff" stroke="transparent" points="622.5,-321.7 622.5,-340.7 651.5,-340.7 651.5,-321.7 622.5,-321.7"/>
<polygon fill="none" stroke="#000000" points="622.5,-321.7 622.5,-340.7 651.5,-340.7 651.5,-321.7 622.5,-321.7"/>
<text text-anchor="start" x="642.3862" y="-327.8" font-family="Helvetica,sans-Serif" font-size="11.00" fill="#000000"> &#160;</text>
</a>
</g>
</g>
<!-- perustiedot_sync&#45;&gt;opiskeluoikeus -->
<g id="edge4" class="edge">
<title>perustiedot_sync:w&#45;&gt;opiskeluoikeus:e</title>
<path fill="none" stroke="#000000" d="M499.0381,-349.731C461.1523,-349.8998 446.632,-350.7 402.5,-350.7"/>
<polygon fill="#000000" stroke="#000000" points="505.5,-349.7172 513.5077,-353.3 509.5,-349.7086 513.5,-349.7 513.5,-349.7 513.5,-349.7 509.5,-349.7086 513.4923,-346.1 505.5,-349.7172 505.5,-349.7172"/>
<ellipse fill="none" stroke="#000000" cx="502.3" cy="-349.7241" rx="3.2" ry="3.2"/>
</g>
</g>
</svg>
