<?xml version="1.0" encoding="UTF-8" standalone="no"?>
<!DOCTYPE svg PUBLIC "-//W3C//DTD SVG 1.1//EN"
 "http://www.w3.org/Graphics/SVG/1.1/DTD/svg11.dtd">
<!-- Generated by graphviz version 2.40.1 (20161225.0304)
 -->
<!-- Title: twoDegreesRelationshipsDiagram Pages: 1 -->
<svg width="728pt" height="477pt"
 viewBox="0.00 0.00 728.00 477.20" xmlns="http://www.w3.org/2000/svg" xmlns:xlink="http://www.w3.org/1999/xlink">
<g id="graph0" class="graph" transform="scale(1 1) rotate(0) translate(4 473.2)">
<title>twoDegreesRelationshipsDiagram</title>
<polygon fill="#ffffff" stroke="transparent" points="-4,4 -4,-473.2 724,-473.2 724,4 -4,4"/>
<text text-anchor="middle" x="72.4936" y="-7.3" font-family="Helvetica,sans-Serif" font-size="11.00" fill="#000000">Generated by SchemaSpy</text>
<!-- opiskeluoikeus -->
<g id="node1" class="node">
<title>opiskeluoikeus</title>
<g id="a_node1"><a xlink:href="../../tables/opiskeluoikeus.html" xlink:title="opiskeluoikeus" target="_top">
<polygon fill="#ffffff" stroke="transparent" points="140,-38.2 140,-385.2 396,-385.2 396,-38.2 140,-38.2"/>
<polygon fill="#f5f5f5" stroke="transparent" points="140,-361.7 140,-384.7 396,-384.7 396,-361.7 140,-361.7"/>
<polygon fill="none" stroke="#000000" points="140,-361.7 140,-384.7 396,-384.7 396,-361.7 140,-361.7"/>
<text text-anchor="start" x="145" y="-370.3" font-family="Helvetica,sans-Serif" font-weight="bold" font-size="11.00" fill="#000000">opiskeluoikeus</text>
<text text-anchor="start" x="361.0437" y="-369.8" font-family="Helvetica,sans-Serif" font-size="11.00" fill="#000000">[table]</text>
<polygon fill="none" stroke="#000000" points="140,-339.7 140,-361.7 396,-361.7 396,-339.7 140,-339.7"/>
<image xlink:href="../../images/primaryKeys.png" width="11px" height="12px" preserveAspectRatio="xMinYMin meet" x="145" y="-356.7"/>
<text text-anchor="start" x="160" y="-346.8" font-family="Helvetica,sans-Serif" font-size="11.00" fill="#000000">id</text>
<polygon fill="#ffffff" stroke="transparent" points="140,-317.7 140,-339.7 396,-339.7 396,-317.7 140,-317.7"/>
<polygon fill="none" stroke="#000000" points="140,-317.7 140,-339.7 396,-339.7 396,-317.7 140,-317.7"/>
<image xlink:href="../../images/foreignKeys.png" width="11px" height="12px" preserveAspectRatio="xMinYMin meet" x="145" y="-334.7"/>
<text text-anchor="start" x="160" y="-324.8" font-family="Helvetica,sans-Serif" font-size="11.00" fill="#000000">oppija_oid</text>
<polygon fill="#ffffff" stroke="transparent" points="140,-295.7 140,-317.7 396,-317.7 396,-295.7 140,-295.7"/>
<polygon fill="none" stroke="#000000" points="140,-295.7 140,-317.7 396,-317.7 396,-295.7 140,-295.7"/>
<text text-anchor="start" x="160" y="-302.8" font-family="Helvetica,sans-Serif" font-size="11.00" fill="#000000">aikaleima</text>
<polygon fill="#ffffff" stroke="transparent" points="140,-273.7 140,-295.7 396,-295.7 396,-273.7 140,-273.7"/>
<polygon fill="none" stroke="#000000" points="140,-273.7 140,-295.7 396,-295.7 396,-273.7 140,-273.7"/>
<text text-anchor="start" x="160" y="-280.8" font-family="Helvetica,sans-Serif" font-size="11.00" fill="#000000">oppilaitos_oid</text>
<polygon fill="#ffffff" stroke="transparent" points="140,-251.7 140,-273.7 396,-273.7 396,-251.7 140,-251.7"/>
<polygon fill="none" stroke="#000000" points="140,-251.7 140,-273.7 396,-273.7 396,-251.7 140,-251.7"/>
<text text-anchor="start" x="160" y="-258.8" font-family="Helvetica,sans-Serif" font-size="11.00" fill="#000000">sisaltava_opiskeluoikeus_oppilaitos_oid</text>
<polygon fill="#ffffff" stroke="transparent" points="140,-229.7 140,-251.7 396,-251.7 396,-229.7 140,-229.7"/>
<polygon fill="none" stroke="#000000" points="140,-229.7 140,-251.7 396,-251.7 396,-229.7 140,-229.7"/>
<text text-anchor="start" x="160" y="-236.8" font-family="Helvetica,sans-Serif" font-size="11.00" fill="#000000">oid</text>
<polygon fill="none" stroke="#000000" points="140,-207.7 140,-229.7 396,-229.7 396,-207.7 140,-207.7"/>
<image xlink:href="../../images/foreignKeys.png" width="11px" height="12px" preserveAspectRatio="xMinYMin meet" x="145" y="-224.7"/>
<text text-anchor="start" x="160" y="-214.8" font-family="Helvetica,sans-Serif" font-size="11.00" fill="#000000">sisaltava_opiskeluoikeus_oid</text>
<polygon fill="#ffffff" stroke="transparent" points="140,-185.7 140,-207.7 396,-207.7 396,-185.7 140,-185.7"/>
<polygon fill="none" stroke="#000000" points="140,-185.7 140,-207.7 396,-207.7 396,-185.7 140,-185.7"/>
<text text-anchor="start" x="160" y="-192.8" font-family="Helvetica,sans-Serif" font-size="11.00" fill="#000000">mitatoity</text>
<polygon fill="#ffffff" stroke="transparent" points="140,-163.7 140,-185.7 396,-185.7 396,-163.7 140,-163.7"/>
<polygon fill="none" stroke="#000000" points="140,-163.7 140,-185.7 396,-185.7 396,-163.7 140,-163.7"/>
<text text-anchor="start" x="160" y="-170.8" font-family="Helvetica,sans-Serif" font-size="11.00" fill="#000000">koulutusmuoto</text>
<polygon fill="#ffffff" stroke="transparent" points="140,-141.7 140,-163.7 396,-163.7 396,-141.7 140,-141.7"/>
<polygon fill="none" stroke="#000000" points="140,-141.7 140,-163.7 396,-163.7 396,-141.7 140,-141.7"/>
<text text-anchor="start" x="160" y="-148.8" font-family="Helvetica,sans-Serif" font-size="11.00" fill="#000000">alkamispaiva</text>
<polygon fill="#ffffff" stroke="transparent" points="140,-119.7 140,-141.7 396,-141.7 396,-119.7 140,-119.7"/>
<polygon fill="none" stroke="#000000" points="140,-119.7 140,-141.7 396,-141.7 396,-119.7 140,-119.7"/>
<text text-anchor="start" x="160" y="-126.8" font-family="Helvetica,sans-Serif" font-size="11.00" fill="#000000">paattymispaiva</text>
<polygon fill="#ffffff" stroke="transparent" points="140,-97.7 140,-119.7 396,-119.7 396,-97.7 140,-97.7"/>
<polygon fill="none" stroke="#000000" points="140,-97.7 140,-119.7 396,-119.7 396,-97.7 140,-97.7"/>
<text text-anchor="start" x="160" y="-104.8" font-family="Helvetica,sans-Serif" font-size="11.00" fill="#000000">suoritustyypit</text>
<polygon fill="#ffffff" stroke="transparent" points="140,-75.7 140,-97.7 396,-97.7 396,-75.7 140,-75.7"/>
<polygon fill="none" stroke="#000000" points="140,-75.7 140,-97.7 396,-97.7 396,-75.7 140,-75.7"/>
<text text-anchor="start" x="160" y="-82.8" font-family="Helvetica,sans-Serif" font-size="11.00" fill="#000000">poistettu</text>
<polygon fill="none" stroke="#000000" points="140,-56.7 140,-75.7 396,-75.7 396,-56.7 140,-56.7"/>
<text text-anchor="start" x="143" y="-62.8" font-family="Helvetica,sans-Serif" font-size="11.00" fill="#000000">...</text>
<polygon fill="#ffffff" stroke="transparent" points="140,-37.7 140,-56.7 262,-56.7 262,-37.7 140,-37.7"/>
<polygon fill="none" stroke="#000000" points="140,-37.7 140,-56.7 262,-56.7 262,-37.7 140,-37.7"/>
<text text-anchor="start" x="143" y="-43.8" font-family="Helvetica,sans-Serif" font-size="11.00" fill="#000000">&lt; 2</text>
<polygon fill="#ffffff" stroke="transparent" points="262,-37.7 262,-56.7 324,-56.7 324,-37.7 262,-37.7"/>
<polygon fill="none" stroke="#000000" points="262,-37.7 262,-56.7 324,-56.7 324,-37.7 262,-37.7"/>
<text text-anchor="start" x="314.8862" y="-43.8" font-family="Helvetica,sans-Serif" font-size="11.00" fill="#000000"> &#160;</text>
<polygon fill="#ffffff" stroke="transparent" points="324,-37.7 324,-56.7 396,-56.7 396,-37.7 324,-37.7"/>
<polygon fill="none" stroke="#000000" points="324,-37.7 324,-56.7 396,-56.7 396,-37.7 324,-37.7"/>
<text text-anchor="start" x="377.4053" y="-43.8" font-family="Helvetica,sans-Serif" font-size="11.00" fill="#000000">4 &gt;</text>
</a>
</g>
</g>
<!-- henkilo -->
<g id="node2" class="node">
<title>henkilo</title>
<g id="a_node2"><a xlink:href="../../tables/henkilo.html" xlink:title="henkilo" target="_top">
<polygon fill="#ffffff" stroke="transparent" points="8,-301.2 8,-362.2 91,-362.2 91,-301.2 8,-301.2"/>
<polygon fill="#f5f5f5" stroke="transparent" points="8.5,-338.7 8.5,-361.7 91.5,-361.7 91.5,-338.7 8.5,-338.7"/>
<polygon fill="none" stroke="#000000" points="8.5,-338.7 8.5,-361.7 91.5,-361.7 91.5,-338.7 8.5,-338.7"/>
<text text-anchor="start" x="13.5" y="-347.3" font-family="Helvetica,sans-Serif" font-weight="bold" font-size="11.00" fill="#000000">henkilo</text>
<text text-anchor="start" x="57.0219" y="-346.8" font-family="Helvetica,sans-Serif" font-size="11.00" fill="#000000">[table]</text>
<polygon fill="none" stroke="#000000" points="8.5,-319.7 8.5,-338.7 91.5,-338.7 91.5,-319.7 8.5,-319.7"/>
<text text-anchor="start" x="11.5" y="-325.8" font-family="Helvetica,sans-Serif" font-size="11.00" fill="#000000">...</text>
<polygon fill="#ffffff" stroke="transparent" points="8.5,-300.7 8.5,-319.7 43.5,-319.7 43.5,-300.7 8.5,-300.7"/>
<polygon fill="none" stroke="#000000" points="8.5,-300.7 8.5,-319.7 43.5,-319.7 43.5,-300.7 8.5,-300.7"/>
<text text-anchor="start" x="11.5" y="-306.8" font-family="Helvetica,sans-Serif" font-size="11.00" fill="#000000">&lt; 1</text>
<polygon fill="#ffffff" stroke="transparent" points="43.5,-300.7 43.5,-319.7 62.5,-319.7 62.5,-300.7 43.5,-300.7"/>
<polygon fill="none" stroke="#000000" points="43.5,-300.7 43.5,-319.7 62.5,-319.7 62.5,-300.7 43.5,-300.7"/>
<text text-anchor="start" x="53.3862" y="-306.8" font-family="Helvetica,sans-Serif" font-size="11.00" fill="#000000"> &#160;</text>
<polygon fill="#ffffff" stroke="transparent" points="62.5,-300.7 62.5,-319.7 91.5,-319.7 91.5,-300.7 62.5,-300.7"/>
<polygon fill="none" stroke="#000000" points="62.5,-300.7 62.5,-319.7 91.5,-319.7 91.5,-300.7 62.5,-300.7"/>
<text text-anchor="start" x="72.9053" y="-306.8" font-family="Helvetica,sans-Serif" font-size="11.00" fill="#000000">3 &gt;</text>
</a>
</g>
</g>
<!-- opiskeluoikeus&#45;&gt;henkilo -->
<g id="edge1" class="edge">
<title>opiskeluoikeus:w&#45;&gt;henkilo:e</title>
<path fill="none" stroke="#000000" d="M129.3669,-328.7C115.8553,-328.7 109.0139,-328.7 91.5,-328.7"/>
<polygon fill="#000000" stroke="#000000" points="139.2,-324.7 139.2,-332.7 137.6,-332.7 137.6,-324.7 139.2,-324.7"/>
<polyline fill="none" stroke="#000000" points="140,-328.7 136,-328.7 "/>
<ellipse fill="none" stroke="#000000" cx="132.8" cy="-328.7001" rx="3.2" ry="3.2"/>
</g>
<!-- opiskeluoikeushistoria -->
<g id="node3" class="node">
<title>opiskeluoikeushistoria</title>
<g id="a_node3"><a xlink:href="../../tables/opiskeluoikeushistoria.html" xlink:title="opiskeluoikeushistoria" target="_top">
<polygon fill="#ffffff" stroke="transparent" points="491,-404.2 491,-465.2 666,-465.2 666,-404.2 491,-404.2"/>
<polygon fill="#f5f5f5" stroke="transparent" points="491.5,-441.7 491.5,-464.7 666.5,-464.7 666.5,-441.7 491.5,-441.7"/>
<polygon fill="none" stroke="#000000" points="491.5,-441.7 491.5,-464.7 666.5,-464.7 666.5,-441.7 491.5,-441.7"/>
<text text-anchor="start" x="496.5" y="-450.3" font-family="Helvetica,sans-Serif" font-weight="bold" font-size="11.00" fill="#000000">opiskeluoikeushistoria</text>
<text text-anchor="start" x="632.0219" y="-449.8" font-family="Helvetica,sans-Serif" font-size="11.00" fill="#000000">[table]</text>
<polygon fill="none" stroke="#000000" points="491.5,-422.7 491.5,-441.7 666.5,-441.7 666.5,-422.7 491.5,-422.7"/>
<text text-anchor="start" x="494.5" y="-428.8" font-family="Helvetica,sans-Serif" font-size="11.00" fill="#000000">...</text>
<polygon fill="#ffffff" stroke="transparent" points="491.5,-403.7 491.5,-422.7 577.5,-422.7 577.5,-403.7 491.5,-403.7"/>
<polygon fill="none" stroke="#000000" points="491.5,-403.7 491.5,-422.7 577.5,-422.7 577.5,-403.7 491.5,-403.7"/>
<text text-anchor="start" x="494.5" y="-409.8" font-family="Helvetica,sans-Serif" font-size="11.00" fill="#000000">&lt; 1</text>
<polygon fill="#ffffff" stroke="transparent" points="577.5,-403.7 577.5,-422.7 621.5,-422.7 621.5,-403.7 577.5,-403.7"/>
<polygon fill="none" stroke="#000000" points="577.5,-403.7 577.5,-422.7 621.5,-422.7 621.5,-403.7 577.5,-403.7"/>
<text text-anchor="start" x="612.3862" y="-409.8" font-family="Helvetica,sans-Serif" font-size="11.00" fill="#000000"> &#160;</text>
<polygon fill="#ffffff" stroke="transparent" points="621.5,-403.7 621.5,-422.7 666.5,-422.7 666.5,-403.7 621.5,-403.7"/>
<polygon fill="none" stroke="#000000" points="621.5,-403.7 621.5,-422.7 666.5,-422.7 666.5,-403.7 621.5,-403.7"/>
<text text-anchor="start" x="657.3862" y="-409.8" font-family="Helvetica,sans-Serif" font-size="11.00" fill="#000000"> &#160;</text>
</a>
</g>
</g>
<!-- opiskeluoikeushistoria&#45;&gt;opiskeluoikeus -->
<g id="edge2" class="edge">
<title>opiskeluoikeushistoria:w&#45;&gt;opiskeluoikeus:e</title>
<path fill="none" stroke="#000000" d="M476.9355,-429.688C460.2142,-424.3493 455.0347,-409.1712 437,-393.7 416.9581,-376.5068 422.4061,-350.7 396,-350.7"/>
<polygon fill="#000000" stroke="#000000" points="483.5753,-430.6052 491.0073,-435.2661 487.5376,-431.1526 491.5,-431.7 491.5,-431.7 491.5,-431.7 487.5376,-431.1526 491.9927,-428.1339 483.5753,-430.6052 483.5753,-430.6052"/>
<ellipse fill="none" stroke="#000000" cx="480.4054" cy="-430.1673" rx="3.2" ry="3.2"/>
</g>
<!-- perustiedot_manual_sync -->
<g id="node4" class="node">
<title>perustiedot_manual_sync</title>
<g id="a_node4"><a xlink:href="../../tables/perustiedot_manual_sync.html" xlink:title="perustiedot_manual_sync" target="_top">
<polygon fill="#ffffff" stroke="transparent" points="445,-164.7 445,-298.7 712,-298.7 712,-164.7 445,-164.7"/>
<polygon fill="#f5f5f5" stroke="transparent" points="447.5,-273.7 447.5,-296.7 710.5,-296.7 710.5,-273.7 447.5,-273.7"/>
<polygon fill="none" stroke="#000000" points="447.5,-273.7 447.5,-296.7 710.5,-296.7 710.5,-273.7 447.5,-273.7"/>
<text text-anchor="start" x="452.5" y="-282.3" font-family="Helvetica,sans-Serif" font-weight="bold" font-size="11.00" fill="#000000">perustiedot_manual_sync</text>
<text text-anchor="start" x="675.5437" y="-281.8" font-family="Helvetica,sans-Serif" font-size="11.00" fill="#000000">[table]</text>
<polygon fill="none" stroke="#000000" points="447.5,-251.7 447.5,-273.7 620.5,-273.7 620.5,-251.7 447.5,-251.7"/>
<image xlink:href="../../images/primaryKeys.png" width="11px" height="12px" preserveAspectRatio="xMinYMin meet" x="452.5" y="-268.7"/>
<text text-anchor="start" x="467.5" y="-258.8" font-family="Helvetica,sans-Serif" font-size="11.00" fill="#000000">id</text>
<polygon fill="none" stroke="#000000" points="620.5,-251.7 620.5,-273.7 710.5,-273.7 710.5,-251.7 620.5,-251.7"/>
<text text-anchor="start" x="623.5" y="-259.4" font-family="Helvetica,sans-Serif" font-size="11.00" fill="#000000">serial[10]</text>
<polygon fill="none" stroke="#000000" points="447.5,-229.7 447.5,-251.7 620.5,-251.7 620.5,-229.7 447.5,-229.7"/>
<image xlink:href="../../images/foreignKeys.png" width="11px" height="12px" preserveAspectRatio="xMinYMin meet" x="452.5" y="-246.7"/>
<text text-anchor="start" x="467.5" y="-236.8" font-family="Helvetica,sans-Serif" font-size="11.00" fill="#000000">opiskeluoikeus_oid</text>
<polygon fill="none" stroke="#000000" points="620.5,-229.7 620.5,-251.7 710.5,-251.7 710.5,-229.7 620.5,-229.7"/>
<text text-anchor="start" x="623.0043" y="-237.4" font-family="Helvetica,sans-Serif" font-size="11.00" fill="#000000">text[2147483647]</text>
<polygon fill="none" stroke="#000000" points="447.5,-207.7 447.5,-229.7 620.5,-229.7 620.5,-207.7 447.5,-207.7"/>
<text text-anchor="start" x="467.5" y="-214.8" font-family="Helvetica,sans-Serif" font-size="11.00" fill="#000000">upsert</text>
<polygon fill="none" stroke="#000000" points="620.5,-207.7 620.5,-229.7 710.5,-229.7 710.5,-207.7 620.5,-207.7"/>
<text text-anchor="start" x="623.5" y="-215.4" font-family="Helvetica,sans-Serif" font-size="11.00" fill="#000000">bool[1]</text>
<polygon fill="none" stroke="#000000" points="447.5,-185.7 447.5,-207.7 620.5,-207.7 620.5,-185.7 447.5,-185.7"/>
<text text-anchor="start" x="467.5" y="-192.8" font-family="Helvetica,sans-Serif" font-size="11.00" fill="#000000">aikaleima</text>
<polygon fill="none" stroke="#000000" points="620.5,-185.7 620.5,-207.7 710.5,-207.7 710.5,-185.7 620.5,-185.7"/>
<text text-anchor="start" x="623.5" y="-193.4" font-family="Helvetica,sans-Serif" font-size="11.00" fill="#000000">timestamp[29,6]</text>
<polygon fill="#ffffff" stroke="transparent" points="447.5,-166.7 447.5,-185.7 538.5,-185.7 538.5,-166.7 447.5,-166.7"/>
<polygon fill="none" stroke="#000000" points="447.5,-166.7 447.5,-185.7 538.5,-185.7 538.5,-166.7 447.5,-166.7"/>
<text text-anchor="start" x="450.5" y="-172.8" font-family="Helvetica,sans-Serif" font-size="11.00" fill="#000000">&lt; 1</text>
<polygon fill="#ffffff" stroke="transparent" points="538.5,-166.7 538.5,-185.7 620.5,-185.7 620.5,-166.7 538.5,-166.7"/>
<polygon fill="none" stroke="#000000" points="538.5,-166.7 538.5,-185.7 620.5,-185.7 620.5,-166.7 538.5,-166.7"/>
<text text-anchor="start" x="611.3862" y="-172.8" font-family="Helvetica,sans-Serif" font-size="11.00" fill="#000000"> &#160;</text>
<polygon fill="#ffffff" stroke="transparent" points="620.5,-166.7 620.5,-185.7 710.5,-185.7 710.5,-166.7 620.5,-166.7"/>
<polygon fill="none" stroke="#000000" points="620.5,-166.7 620.5,-185.7 710.5,-185.7 710.5,-166.7 620.5,-166.7"/>
<text text-anchor="start" x="691.9053" y="-172.8" font-family="Helvetica,sans-Serif" font-size="11.00" fill="#000000">0 &gt;</text>
<polygon fill="none" stroke="#000000" stroke-width="2" points="446,-165.7 446,-297.7 711,-297.7 711,-165.7 446,-165.7"/>
</a>
</g>
</g>
<!-- perustiedot_manual_sync&#45;&gt;opiskeluoikeus -->
<g id="edge3" class="edge">
<title>perustiedot_manual_sync:w&#45;&gt;opiskeluoikeus:e</title>
<path fill="none" stroke="#000000" d="M433.0156,-240.7C420.6771,-240.7 413.1667,-240.7 396,-240.7"/>
<polygon fill="#000000" stroke="#000000" points="439.5,-240.7001 447.5,-244.3 443.5,-240.7 447.5,-240.7 447.5,-240.7 447.5,-240.7 443.5,-240.7 447.5,-237.1 439.5,-240.7001 439.5,-240.7001"/>
<ellipse fill="none" stroke="#000000" cx="436.3" cy="-240.7001" rx="3.2" ry="3.2"/>
</g>
<!-- perustiedot_sync -->
<g id="node5" class="node">
<title>perustiedot_sync</title>
<g id="a_node5"><a xlink:href="../../tables/perustiedot_sync.html" xlink:title="perustiedot_sync" target="_top">
<polygon fill="#ffffff" stroke="transparent" points="508.5,-322.2 508.5,-383.2 648.5,-383.2 648.5,-322.2 508.5,-322.2"/>
<polygon fill="#f5f5f5" stroke="transparent" points="508.5,-359.7 508.5,-382.7 648.5,-382.7 648.5,-359.7 508.5,-359.7"/>
<polygon fill="none" stroke="#000000" points="508.5,-359.7 508.5,-382.7 648.5,-382.7 648.5,-359.7 508.5,-359.7"/>
<text text-anchor="start" x="513.5" y="-368.3" font-family="Helvetica,sans-Serif" font-weight="bold" font-size="11.00" fill="#000000">perustiedot_sync</text>
<text text-anchor="start" x="614.0219" y="-367.8" font-family="Helvetica,sans-Serif" font-size="11.00" fill="#000000">[table]</text>
<polygon fill="none" stroke="#000000" points="508.5,-340.7 508.5,-359.7 648.5,-359.7 648.5,-340.7 508.5,-340.7"/>
<text text-anchor="start" x="511.5" y="-346.8" font-family="Helvetica,sans-Serif" font-size="11.00" fill="#000000">...</text>
<polygon fill="#ffffff" stroke="transparent" points="508.5,-321.7 508.5,-340.7 576.5,-340.7 576.5,-321.7 508.5,-321.7"/>
<polygon fill="none" stroke="#000000" points="508.5,-321.7 508.5,-340.7 576.5,-340.7 576.5,-321.7 508.5,-321.7"/>
<text text-anchor="start" x="511.5" y="-327.8" font-family="Helvetica,sans-Serif" font-size="11.00" fill="#000000">&lt; 1</text>
<polygon fill="#ffffff" stroke="transparent" points="576.5,-321.7 576.5,-340.7 612.5,-340.7 612.5,-321.7 576.5,-321.7"/>
<polygon fill="none" stroke="#000000" points="576.5,-321.7 576.5,-340.7 612.5,-340.7 612.5,-321.7 576.5,-321.7"/>
<text text-anchor="start" x="603.3862" y="-327.8" font-family="Helvetica,sans-Serif" font-size="11.00" fill="#000000"> &#160;</text>
<polygon fill="#ffffff" stroke="transparent" points="612.5,-321.7 612.5,-340.7 648.5,-340.7 648.5,-321.7 612.5,-321.7"/>
<polygon fill="none" stroke="#000000" points="612.5,-321.7 612.5,-340.7 648.5,-340.7 648.5,-321.7 612.5,-321.7"/>
<text text-anchor="start" x="639.3862" y="-327.8" font-family="Helvetica,sans-Serif" font-size="11.00" fill="#000000"> &#160;</text>
</a>
</g>
</g>
<!-- perustiedot_sync&#45;&gt;opiskeluoikeus -->
<g id="edge4" class="edge">
<title>perustiedot_sync:w&#45;&gt;opiskeluoikeus:e</title>
<path fill="none" stroke="#000000" d="M494.0945,-349.7299C455.5091,-349.8963 440.826,-350.7 396,-350.7"/>
<polygon fill="#000000" stroke="#000000" points="500.5,-349.7167 508.5075,-353.3 504.5,-349.7083 508.5,-349.7 508.5,-349.7 508.5,-349.7 504.5,-349.7083 508.4925,-346.1 500.5,-349.7167 500.5,-349.7167"/>
<ellipse fill="none" stroke="#000000" cx="497.3" cy="-349.7233" rx="3.2" ry="3.2"/>
</g>
</g>
</svg>
