<?xml version="1.0" encoding="UTF-8" standalone="no"?>
<!DOCTYPE svg PUBLIC "-//W3C//DTD SVG 1.1//EN"
 "http://www.w3.org/Graphics/SVG/1.1/DTD/svg11.dtd">
<!-- Generated by graphviz version 2.40.1 (20161225.0304)
 -->
<!-- Title: oneDegreeRelationshipsDiagram Pages: 1 -->
<svg width="647pt" height="397pt"
 viewBox="0.00 0.00 647.00 397.20" xmlns="http://www.w3.org/2000/svg" xmlns:xlink="http://www.w3.org/1999/xlink">
<g id="graph0" class="graph" transform="scale(1 1) rotate(0) translate(4 393.2)">
<title>oneDegreeRelationshipsDiagram</title>
<polygon fill="#ffffff" stroke="transparent" points="-4,4 -4,-393.2 643,-393.2 643,4 -4,4"/>
<text text-anchor="middle" x="72.4936" y="-7.3" font-family="Helvetica,sans-Serif" font-size="11.00" fill="#000000">Generated by SchemaSpy</text>
<!-- perustiedot_manual_sync -->
<g id="node1" class="node">
<title>perustiedot_manual_sync</title>
<g id="a_node1"><a xlink:href="../../tables/perustiedot_manual_sync.html" xlink:title="perustiedot_manual_sync" target="_top">
<polygon fill="#ffffff" stroke="transparent" points="345,-164.7 345,-298.7 631,-298.7 631,-164.7 345,-164.7"/>
<polygon fill="#f5f5f5" stroke="transparent" points="347,-273.7 347,-296.7 629,-296.7 629,-273.7 347,-273.7"/>
<polygon fill="none" stroke="#000000" points="347,-273.7 347,-296.7 629,-296.7 629,-273.7 347,-273.7"/>
<text text-anchor="start" x="352" y="-282.3" font-family="Helvetica,sans-Serif" font-weight="bold" font-size="11.00" fill="#000000">perustiedot_manual_sync</text>
<text text-anchor="start" x="594.0437" y="-281.8" font-family="Helvetica,sans-Serif" font-size="11.00" fill="#000000">[table]</text>
<polygon fill="none" stroke="#000000" points="347,-251.7 347,-273.7 539,-273.7 539,-251.7 347,-251.7"/>
<image xlink:href="../../images/primaryKeys.png" width="11px" height="12px" preserveAspectRatio="xMinYMin meet" x="352" y="-268.7"/>
<text text-anchor="start" x="367" y="-258.8" font-family="Helvetica,sans-Serif" font-size="11.00" fill="#000000">id</text>
<polygon fill="none" stroke="#000000" points="539,-251.7 539,-273.7 629,-273.7 629,-251.7 539,-251.7"/>
<text text-anchor="start" x="542" y="-259.4" font-family="Helvetica,sans-Serif" font-size="11.00" fill="#000000">serial[10]</text>
<polygon fill="none" stroke="#000000" points="347,-229.7 347,-251.7 539,-251.7 539,-229.7 347,-229.7"/>
<image xlink:href="../../images/foreignKeys.png" width="11px" height="12px" preserveAspectRatio="xMinYMin meet" x="352" y="-246.7"/>
<text text-anchor="start" x="367" y="-236.8" font-family="Helvetica,sans-Serif" font-size="11.00" fill="#000000">opiskeluoikeus_oid</text>
<polygon fill="none" stroke="#000000" points="539,-229.7 539,-251.7 629,-251.7 629,-229.7 539,-229.7"/>
<text text-anchor="start" x="541.5043" y="-237.4" font-family="Helvetica,sans-Serif" font-size="11.00" fill="#000000">text[2147483647]</text>
<polygon fill="none" stroke="#000000" points="347,-207.7 347,-229.7 539,-229.7 539,-207.7 347,-207.7"/>
<text text-anchor="start" x="367" y="-214.8" font-family="Helvetica,sans-Serif" font-size="11.00" fill="#000000">upsert</text>
<polygon fill="none" stroke="#000000" points="539,-207.7 539,-229.7 629,-229.7 629,-207.7 539,-207.7"/>
<text text-anchor="start" x="542" y="-215.4" font-family="Helvetica,sans-Serif" font-size="11.00" fill="#000000">bool[1]</text>
<polygon fill="none" stroke="#000000" points="347,-185.7 347,-207.7 539,-207.7 539,-185.7 347,-185.7"/>
<text text-anchor="start" x="367" y="-192.8" font-family="Helvetica,sans-Serif" font-size="11.00" fill="#000000">aikaleima</text>
<polygon fill="none" stroke="#000000" points="539,-185.7 539,-207.7 629,-207.7 629,-185.7 539,-185.7"/>
<text text-anchor="start" x="542" y="-193.4" font-family="Helvetica,sans-Serif" font-size="11.00" fill="#000000">timestamp[29,6]</text>
<polygon fill="#ffffff" stroke="transparent" points="347,-166.7 347,-185.7 447,-185.7 447,-166.7 347,-166.7"/>
<polygon fill="none" stroke="#000000" points="347,-166.7 347,-185.7 447,-185.7 447,-166.7 347,-166.7"/>
<text text-anchor="start" x="350" y="-172.8" font-family="Helvetica,sans-Serif" font-size="11.00" fill="#000000">&lt; 1</text>
<polygon fill="#ffffff" stroke="transparent" points="447,-166.7 447,-185.7 539,-185.7 539,-166.7 447,-166.7"/>
<polygon fill="none" stroke="#000000" points="447,-166.7 447,-185.7 539,-185.7 539,-166.7 447,-166.7"/>
<text text-anchor="start" x="529.8862" y="-172.8" font-family="Helvetica,sans-Serif" font-size="11.00" fill="#000000"> &#160;</text>
<polygon fill="#ffffff" stroke="transparent" points="539,-166.7 539,-185.7 629,-185.7 629,-166.7 539,-166.7"/>
<polygon fill="none" stroke="#000000" points="539,-166.7 539,-185.7 629,-185.7 629,-166.7 539,-166.7"/>
<text text-anchor="start" x="610.4053" y="-172.8" font-family="Helvetica,sans-Serif" font-size="11.00" fill="#000000">0 &gt;</text>
<polygon fill="none" stroke="#000000" stroke-width="2" points="346,-165.7 346,-297.7 630,-297.7 630,-165.7 346,-165.7"/>
</a>
</g>
</g>
<!-- opiskeluoikeus -->
<g id="node2" class="node">
<title>opiskeluoikeus</title>
<g id="a_node2"><a xlink:href="../../tables/opiskeluoikeus.html" xlink:title="opiskeluoikeus" target="_top">
<polygon fill="#ffffff" stroke="transparent" points="8,-38.2 8,-385.2 296,-385.2 296,-38.2 8,-38.2"/>
<polygon fill="#f5f5f5" stroke="transparent" points="8,-361.7 8,-384.7 296,-384.7 296,-361.7 8,-361.7"/>
<polygon fill="none" stroke="#000000" points="8,-361.7 8,-384.7 296,-384.7 296,-361.7 8,-361.7"/>
<text text-anchor="start" x="13" y="-370.3" font-family="Helvetica,sans-Serif" font-weight="bold" font-size="11.00" fill="#000000">opiskeluoikeus</text>
<text text-anchor="start" x="261.0437" y="-369.8" font-family="Helvetica,sans-Serif" font-size="11.00" fill="#000000">[table]</text>
<polygon fill="none" stroke="#000000" points="8,-339.7 8,-361.7 296,-361.7 296,-339.7 8,-339.7"/>
<image xlink:href="../../images/primaryKeys.png" width="11px" height="12px" preserveAspectRatio="xMinYMin meet" x="13" y="-356.7"/>
<text text-anchor="start" x="28" y="-346.8" font-family="Helvetica,sans-Serif" font-size="11.00" fill="#000000">id</text>
<polygon fill="#ffffff" stroke="transparent" points="8,-317.7 8,-339.7 296,-339.7 296,-317.7 8,-317.7"/>
<polygon fill="none" stroke="#000000" points="8,-317.7 8,-339.7 296,-339.7 296,-317.7 8,-317.7"/>
<image xlink:href="../../images/foreignKeys.png" width="11px" height="12px" preserveAspectRatio="xMinYMin meet" x="13" y="-334.7"/>
<text text-anchor="start" x="28" y="-324.8" font-family="Helvetica,sans-Serif" font-size="11.00" fill="#000000">oppija_oid</text>
<polygon fill="#ffffff" stroke="transparent" points="8,-295.7 8,-317.7 296,-317.7 296,-295.7 8,-295.7"/>
<polygon fill="none" stroke="#000000" points="8,-295.7 8,-317.7 296,-317.7 296,-295.7 8,-295.7"/>
<text text-anchor="start" x="28" y="-302.8" font-family="Helvetica,sans-Serif" font-size="11.00" fill="#000000">aikaleima</text>
<polygon fill="#ffffff" stroke="transparent" points="8,-273.7 8,-295.7 296,-295.7 296,-273.7 8,-273.7"/>
<polygon fill="none" stroke="#000000" points="8,-273.7 8,-295.7 296,-295.7 296,-273.7 8,-273.7"/>
<text text-anchor="start" x="28" y="-280.8" font-family="Helvetica,sans-Serif" font-size="11.00" fill="#000000">oppilaitos_oid</text>
<polygon fill="#ffffff" stroke="transparent" points="8,-251.7 8,-273.7 296,-273.7 296,-251.7 8,-251.7"/>
<polygon fill="none" stroke="#000000" points="8,-251.7 8,-273.7 296,-273.7 296,-251.7 8,-251.7"/>
<text text-anchor="start" x="28" y="-258.8" font-family="Helvetica,sans-Serif" font-size="11.00" fill="#000000">sisaltava_opiskeluoikeus_oppilaitos_oid</text>
<polygon fill="#ffffff" stroke="transparent" points="8,-229.7 8,-251.7 296,-251.7 296,-229.7 8,-229.7"/>
<polygon fill="none" stroke="#000000" points="8,-229.7 8,-251.7 296,-251.7 296,-229.7 8,-229.7"/>
<text text-anchor="start" x="28" y="-236.8" font-family="Helvetica,sans-Serif" font-size="11.00" fill="#000000">oid</text>
<polygon fill="none" stroke="#000000" points="8,-207.7 8,-229.7 296,-229.7 296,-207.7 8,-207.7"/>
<image xlink:href="../../images/foreignKeys.png" width="11px" height="12px" preserveAspectRatio="xMinYMin meet" x="13" y="-224.7"/>
<text text-anchor="start" x="28" y="-214.8" font-family="Helvetica,sans-Serif" font-size="11.00" fill="#000000">sisaltava_opiskeluoikeus_oid</text>
<polygon fill="#ffffff" stroke="transparent" points="8,-185.7 8,-207.7 296,-207.7 296,-185.7 8,-185.7"/>
<polygon fill="none" stroke="#000000" points="8,-185.7 8,-207.7 296,-207.7 296,-185.7 8,-185.7"/>
<text text-anchor="start" x="28" y="-192.8" font-family="Helvetica,sans-Serif" font-size="11.00" fill="#000000">mitatoity</text>
<polygon fill="#ffffff" stroke="transparent" points="8,-163.7 8,-185.7 296,-185.7 296,-163.7 8,-163.7"/>
<polygon fill="none" stroke="#000000" points="8,-163.7 8,-185.7 296,-185.7 296,-163.7 8,-163.7"/>
<text text-anchor="start" x="28" y="-170.8" font-family="Helvetica,sans-Serif" font-size="11.00" fill="#000000">koulutusmuoto</text>
<polygon fill="#ffffff" stroke="transparent" points="8,-141.7 8,-163.7 296,-163.7 296,-141.7 8,-141.7"/>
<polygon fill="none" stroke="#000000" points="8,-141.7 8,-163.7 296,-163.7 296,-141.7 8,-141.7"/>
<text text-anchor="start" x="28" y="-148.8" font-family="Helvetica,sans-Serif" font-size="11.00" fill="#000000">alkamispaiva</text>
<polygon fill="#ffffff" stroke="transparent" points="8,-119.7 8,-141.7 296,-141.7 296,-119.7 8,-119.7"/>
<polygon fill="none" stroke="#000000" points="8,-119.7 8,-141.7 296,-141.7 296,-119.7 8,-119.7"/>
<text text-anchor="start" x="28" y="-126.8" font-family="Helvetica,sans-Serif" font-size="11.00" fill="#000000">paattymispaiva</text>
<polygon fill="#ffffff" stroke="transparent" points="8,-97.7 8,-119.7 296,-119.7 296,-97.7 8,-97.7"/>
<polygon fill="none" stroke="#000000" points="8,-97.7 8,-119.7 296,-119.7 296,-97.7 8,-97.7"/>
<text text-anchor="start" x="28" y="-104.8" font-family="Helvetica,sans-Serif" font-size="11.00" fill="#000000">suoritustyypit</text>
<polygon fill="#ffffff" stroke="transparent" points="8,-75.7 8,-97.7 296,-97.7 296,-75.7 8,-75.7"/>
<polygon fill="none" stroke="#000000" points="8,-75.7 8,-97.7 296,-97.7 296,-75.7 8,-75.7"/>
<text text-anchor="start" x="28" y="-82.8" font-family="Helvetica,sans-Serif" font-size="11.00" fill="#000000">poistettu</text>
<polygon fill="none" stroke="#000000" points="8,-56.7 8,-75.7 296,-75.7 296,-56.7 8,-56.7"/>
<text text-anchor="start" x="11" y="-62.8" font-family="Helvetica,sans-Serif" font-size="11.00" fill="#000000">...</text>
<polygon fill="#ffffff" stroke="transparent" points="8,-37.7 8,-56.7 127,-56.7 127,-37.7 8,-37.7"/>
<polygon fill="none" stroke="#000000" points="8,-37.7 8,-56.7 127,-56.7 127,-37.7 8,-37.7"/>
<text text-anchor="start" x="11" y="-43.8" font-family="Helvetica,sans-Serif" font-size="11.00" fill="#000000">&lt; 2</text>
<polygon fill="#ffffff" stroke="transparent" points="127,-37.7 127,-56.7 226,-56.7 226,-37.7 127,-37.7"/>
<polygon fill="none" stroke="#000000" points="127,-37.7 127,-56.7 226,-56.7 226,-37.7 127,-37.7"/>
<text text-anchor="start" x="178.3807" y="-43.8" font-family="Helvetica,sans-Serif" font-size="11.00" fill="#000000">188 rows</text>
<polygon fill="#ffffff" stroke="transparent" points="226,-37.7 226,-56.7 296,-56.7 296,-37.7 226,-37.7"/>
<polygon fill="none" stroke="#000000" points="226,-37.7 226,-56.7 296,-56.7 296,-37.7 226,-37.7"/>
<text text-anchor="start" x="277.4053" y="-43.8" font-family="Helvetica,sans-Serif" font-size="11.00" fill="#000000">4 &gt;</text>
</a>
</g>
</g>
<!-- perustiedot_manual_sync&#45;&gt;opiskeluoikeus -->
<g id="edge1" class="edge">
<title>perustiedot_manual_sync:w&#45;&gt;opiskeluoikeus:e</title>
<path fill="none" stroke="#000000" d="M332.276,-240.7C320.2815,-240.7 312.8229,-240.7 296,-240.7"/>
<polygon fill="#000000" stroke="#000000" points="339,-240.7001 347,-244.3 343,-240.7 347,-240.7 347,-240.7 347,-240.7 343,-240.7 347,-237.1 339,-240.7001 339,-240.7001"/>
<ellipse fill="none" stroke="#000000" cx="335.8" cy="-240.7001" rx="3.2" ry="3.2"/>
</g>
</g>
</svg>
