<?xml version="1.0" encoding="UTF-8" standalone="no"?>
<!DOCTYPE svg PUBLIC "-//W3C//DTD SVG 1.1//EN"
 "http://www.w3.org/Graphics/SVG/1.1/DTD/svg11.dtd">
<!-- Generated by graphviz version 2.40.1 (20161225.0304)
 -->
<!-- Title: twoDegreesRelationshipsDiagram Pages: 1 -->
<svg width="738pt" height="477pt"
 viewBox="0.00 0.00 738.00 477.20" xmlns="http://www.w3.org/2000/svg" xmlns:xlink="http://www.w3.org/1999/xlink">
<g id="graph0" class="graph" transform="scale(1 1) rotate(0) translate(4 473.2)">
<title>twoDegreesRelationshipsDiagram</title>
<polygon fill="#ffffff" stroke="transparent" points="-4,4 -4,-473.2 734,-473.2 734,4 -4,4"/>
<text text-anchor="middle" x="72.4936" y="-7.3" font-family="Helvetica,sans-Serif" font-size="11.00" fill="#000000">Generated by SchemaSpy</text>
<!-- opiskeluoikeus -->
<g id="node1" class="node">
<title>opiskeluoikeus</title>
<g id="a_node1"><a xlink:href="../../tables/opiskeluoikeus.html" xlink:title="opiskeluoikeus" target="_top">
<polygon fill="#ffffff" stroke="transparent" points="149,-38.2 149,-385.2 406,-385.2 406,-38.2 149,-38.2"/>
<polygon fill="#f5f5f5" stroke="transparent" points="149.5,-361.7 149.5,-384.7 406.5,-384.7 406.5,-361.7 149.5,-361.7"/>
<polygon fill="none" stroke="#000000" points="149.5,-361.7 149.5,-384.7 406.5,-384.7 406.5,-361.7 149.5,-361.7"/>
<text text-anchor="start" x="154.5" y="-370.3" font-family="Helvetica,sans-Serif" font-weight="bold" font-size="11.00" fill="#000000">opiskeluoikeus</text>
<text text-anchor="start" x="371.5437" y="-369.8" font-family="Helvetica,sans-Serif" font-size="11.00" fill="#000000">[table]</text>
<polygon fill="none" stroke="#000000" points="149.5,-339.7 149.5,-361.7 406.5,-361.7 406.5,-339.7 149.5,-339.7"/>
<image xlink:href="../../images/primaryKeys.png" width="11px" height="12px" preserveAspectRatio="xMinYMin meet" x="154.5" y="-356.7"/>
<text text-anchor="start" x="169.5" y="-346.8" font-family="Helvetica,sans-Serif" font-size="11.00" fill="#000000">id</text>
<polygon fill="#ffffff" stroke="transparent" points="149.5,-317.7 149.5,-339.7 406.5,-339.7 406.5,-317.7 149.5,-317.7"/>
<polygon fill="none" stroke="#000000" points="149.5,-317.7 149.5,-339.7 406.5,-339.7 406.5,-317.7 149.5,-317.7"/>
<image xlink:href="../../images/foreignKeys.png" width="11px" height="12px" preserveAspectRatio="xMinYMin meet" x="154.5" y="-334.7"/>
<text text-anchor="start" x="169.5" y="-324.8" font-family="Helvetica,sans-Serif" font-size="11.00" fill="#000000">oppija_oid</text>
<polygon fill="#ffffff" stroke="transparent" points="149.5,-295.7 149.5,-317.7 406.5,-317.7 406.5,-295.7 149.5,-295.7"/>
<polygon fill="none" stroke="#000000" points="149.5,-295.7 149.5,-317.7 406.5,-317.7 406.5,-295.7 149.5,-295.7"/>
<text text-anchor="start" x="169.5" y="-302.8" font-family="Helvetica,sans-Serif" font-size="11.00" fill="#000000">aikaleima</text>
<polygon fill="#ffffff" stroke="transparent" points="149.5,-273.7 149.5,-295.7 406.5,-295.7 406.5,-273.7 149.5,-273.7"/>
<polygon fill="none" stroke="#000000" points="149.5,-273.7 149.5,-295.7 406.5,-295.7 406.5,-273.7 149.5,-273.7"/>
<text text-anchor="start" x="169.5" y="-280.8" font-family="Helvetica,sans-Serif" font-size="11.00" fill="#000000">oppilaitos_oid</text>
<polygon fill="#ffffff" stroke="transparent" points="149.5,-251.7 149.5,-273.7 406.5,-273.7 406.5,-251.7 149.5,-251.7"/>
<polygon fill="none" stroke="#000000" points="149.5,-251.7 149.5,-273.7 406.5,-273.7 406.5,-251.7 149.5,-251.7"/>
<text text-anchor="start" x="169.5" y="-258.8" font-family="Helvetica,sans-Serif" font-size="11.00" fill="#000000">sisaltava_opiskeluoikeus_oppilaitos_oid</text>
<polygon fill="#ffffff" stroke="transparent" points="149.5,-229.7 149.5,-251.7 406.5,-251.7 406.5,-229.7 149.5,-229.7"/>
<polygon fill="none" stroke="#000000" points="149.5,-229.7 149.5,-251.7 406.5,-251.7 406.5,-229.7 149.5,-229.7"/>
<text text-anchor="start" x="169.5" y="-236.8" font-family="Helvetica,sans-Serif" font-size="11.00" fill="#000000">oid</text>
<polygon fill="none" stroke="#000000" points="149.5,-207.7 149.5,-229.7 406.5,-229.7 406.5,-207.7 149.5,-207.7"/>
<image xlink:href="../../images/foreignKeys.png" width="11px" height="12px" preserveAspectRatio="xMinYMin meet" x="154.5" y="-224.7"/>
<text text-anchor="start" x="169.5" y="-214.8" font-family="Helvetica,sans-Serif" font-size="11.00" fill="#000000">sisaltava_opiskeluoikeus_oid</text>
<polygon fill="#ffffff" stroke="transparent" points="149.5,-185.7 149.5,-207.7 406.5,-207.7 406.5,-185.7 149.5,-185.7"/>
<polygon fill="none" stroke="#000000" points="149.5,-185.7 149.5,-207.7 406.5,-207.7 406.5,-185.7 149.5,-185.7"/>
<text text-anchor="start" x="169.5" y="-192.8" font-family="Helvetica,sans-Serif" font-size="11.00" fill="#000000">mitatoity</text>
<polygon fill="#ffffff" stroke="transparent" points="149.5,-163.7 149.5,-185.7 406.5,-185.7 406.5,-163.7 149.5,-163.7"/>
<polygon fill="none" stroke="#000000" points="149.5,-163.7 149.5,-185.7 406.5,-185.7 406.5,-163.7 149.5,-163.7"/>
<text text-anchor="start" x="169.5" y="-170.8" font-family="Helvetica,sans-Serif" font-size="11.00" fill="#000000">koulutusmuoto</text>
<polygon fill="#ffffff" stroke="transparent" points="149.5,-141.7 149.5,-163.7 406.5,-163.7 406.5,-141.7 149.5,-141.7"/>
<polygon fill="none" stroke="#000000" points="149.5,-141.7 149.5,-163.7 406.5,-163.7 406.5,-141.7 149.5,-141.7"/>
<text text-anchor="start" x="169.5" y="-148.8" font-family="Helvetica,sans-Serif" font-size="11.00" fill="#000000">alkamispaiva</text>
<polygon fill="#ffffff" stroke="transparent" points="149.5,-119.7 149.5,-141.7 406.5,-141.7 406.5,-119.7 149.5,-119.7"/>
<polygon fill="none" stroke="#000000" points="149.5,-119.7 149.5,-141.7 406.5,-141.7 406.5,-119.7 149.5,-119.7"/>
<text text-anchor="start" x="169.5" y="-126.8" font-family="Helvetica,sans-Serif" font-size="11.00" fill="#000000">paattymispaiva</text>
<polygon fill="#ffffff" stroke="transparent" points="149.5,-97.7 149.5,-119.7 406.5,-119.7 406.5,-97.7 149.5,-97.7"/>
<polygon fill="none" stroke="#000000" points="149.5,-97.7 149.5,-119.7 406.5,-119.7 406.5,-97.7 149.5,-97.7"/>
<text text-anchor="start" x="169.5" y="-104.8" font-family="Helvetica,sans-Serif" font-size="11.00" fill="#000000">suoritustyypit</text>
<polygon fill="#ffffff" stroke="transparent" points="149.5,-75.7 149.5,-97.7 406.5,-97.7 406.5,-75.7 149.5,-75.7"/>
<polygon fill="none" stroke="#000000" points="149.5,-75.7 149.5,-97.7 406.5,-97.7 406.5,-75.7 149.5,-75.7"/>
<text text-anchor="start" x="169.5" y="-82.8" font-family="Helvetica,sans-Serif" font-size="11.00" fill="#000000">poistettu</text>
<polygon fill="none" stroke="#000000" points="149.5,-56.7 149.5,-75.7 406.5,-75.7 406.5,-56.7 149.5,-56.7"/>
<text text-anchor="start" x="152.5" y="-62.8" font-family="Helvetica,sans-Serif" font-size="11.00" fill="#000000">...</text>
<polygon fill="#ffffff" stroke="transparent" points="149.5,-37.7 149.5,-56.7 252.5,-56.7 252.5,-37.7 149.5,-37.7"/>
<polygon fill="none" stroke="#000000" points="149.5,-37.7 149.5,-56.7 252.5,-56.7 252.5,-37.7 149.5,-37.7"/>
<text text-anchor="start" x="152.5" y="-43.8" font-family="Helvetica,sans-Serif" font-size="11.00" fill="#000000">&lt; 2</text>
<polygon fill="#ffffff" stroke="transparent" points="252.5,-37.7 252.5,-56.7 343.5,-56.7 343.5,-37.7 252.5,-37.7"/>
<polygon fill="none" stroke="#000000" points="252.5,-37.7 252.5,-56.7 343.5,-56.7 343.5,-37.7 252.5,-37.7"/>
<text text-anchor="start" x="295.8807" y="-43.8" font-family="Helvetica,sans-Serif" font-size="11.00" fill="#000000">241 rows</text>
<polygon fill="#ffffff" stroke="transparent" points="343.5,-37.7 343.5,-56.7 406.5,-56.7 406.5,-37.7 343.5,-37.7"/>
<polygon fill="none" stroke="#000000" points="343.5,-37.7 343.5,-56.7 406.5,-56.7 406.5,-37.7 343.5,-37.7"/>
<text text-anchor="start" x="387.9053" y="-43.8" font-family="Helvetica,sans-Serif" font-size="11.00" fill="#000000">4 &gt;</text>
</a>
</g>
</g>
<!-- henkilo -->
<g id="node2" class="node">
<title>henkilo</title>
<g id="a_node2"><a xlink:href="../../tables/henkilo.html" xlink:title="henkilo" target="_top">
<polygon fill="#ffffff" stroke="transparent" points="8,-301.2 8,-362.2 100,-362.2 100,-301.2 8,-301.2"/>
<polygon fill="#f5f5f5" stroke="transparent" points="8,-338.7 8,-361.7 100,-361.7 100,-338.7 8,-338.7"/>
<polygon fill="none" stroke="#000000" points="8,-338.7 8,-361.7 100,-361.7 100,-338.7 8,-338.7"/>
<text text-anchor="start" x="13" y="-347.3" font-family="Helvetica,sans-Serif" font-weight="bold" font-size="11.00" fill="#000000">henkilo</text>
<text text-anchor="start" x="65.0437" y="-346.8" font-family="Helvetica,sans-Serif" font-size="11.00" fill="#000000">[table]</text>
<polygon fill="none" stroke="#000000" points="8,-319.7 8,-338.7 100,-338.7 100,-319.7 8,-319.7"/>
<text text-anchor="start" x="11" y="-325.8" font-family="Helvetica,sans-Serif" font-size="11.00" fill="#000000">...</text>
<polygon fill="#ffffff" stroke="transparent" points="8,-300.7 8,-319.7 29,-319.7 29,-300.7 8,-300.7"/>
<polygon fill="none" stroke="#000000" points="8,-300.7 8,-319.7 29,-319.7 29,-300.7 8,-300.7"/>
<text text-anchor="start" x="10.7027" y="-306.8" font-family="Helvetica,sans-Serif" font-size="11.00" fill="#000000">&lt; 1</text>
<polygon fill="#ffffff" stroke="transparent" points="29,-300.7 29,-319.7 79,-319.7 79,-300.7 29,-300.7"/>
<polygon fill="none" stroke="#000000" points="29,-300.7 29,-319.7 79,-319.7 79,-300.7 29,-300.7"/>
<text text-anchor="start" x="31.6904" y="-306.8" font-family="Helvetica,sans-Serif" font-size="11.00" fill="#000000">186 rows</text>
<polygon fill="#ffffff" stroke="transparent" points="79,-300.7 79,-319.7 100,-319.7 100,-300.7 79,-300.7"/>
<polygon fill="none" stroke="#000000" points="79,-300.7 79,-319.7 100,-319.7 100,-300.7 79,-300.7"/>
<text text-anchor="start" x="81.7027" y="-306.8" font-family="Helvetica,sans-Serif" font-size="11.00" fill="#000000">3 &gt;</text>
</a>
</g>
</g>
<!-- opiskeluoikeus&#45;&gt;henkilo -->
<g id="edge1" class="edge">
<title>opiskeluoikeus:w&#45;&gt;henkilo:e</title>
<path fill="none" stroke="#000000" d="M139.0474,-328.7C124.9907,-328.7 118.0469,-328.7 100,-328.7"/>
<polygon fill="#000000" stroke="#000000" points="148.7,-324.7 148.7,-332.7 147.1,-332.7 147.1,-324.7 148.7,-324.7"/>
<polyline fill="none" stroke="#000000" points="149.5,-328.7 145.5,-328.7 "/>
<ellipse fill="none" stroke="#000000" cx="142.3" cy="-328.7001" rx="3.2" ry="3.2"/>
</g>
<!-- opiskeluoikeushistoria -->
<g id="node3" class="node">
<title>opiskeluoikeushistoria</title>
<g id="a_node3"><a xlink:href="../../tables/opiskeluoikeushistoria.html" xlink:title="opiskeluoikeushistoria" target="_top">
<polygon fill="#ffffff" stroke="transparent" points="501,-404.2 501,-465.2 676,-465.2 676,-404.2 501,-404.2"/>
<polygon fill="#f5f5f5" stroke="transparent" points="501.5,-441.7 501.5,-464.7 676.5,-464.7 676.5,-441.7 501.5,-441.7"/>
<polygon fill="none" stroke="#000000" points="501.5,-441.7 501.5,-464.7 676.5,-464.7 676.5,-441.7 501.5,-441.7"/>
<text text-anchor="start" x="506.5" y="-450.3" font-family="Helvetica,sans-Serif" font-weight="bold" font-size="11.00" fill="#000000">opiskeluoikeushistoria</text>
<text text-anchor="start" x="642.0219" y="-449.8" font-family="Helvetica,sans-Serif" font-size="11.00" fill="#000000">[table]</text>
<polygon fill="none" stroke="#000000" points="501.5,-422.7 501.5,-441.7 676.5,-441.7 676.5,-422.7 501.5,-422.7"/>
<text text-anchor="start" x="504.5" y="-428.8" font-family="Helvetica,sans-Serif" font-size="11.00" fill="#000000">...</text>
<polygon fill="#ffffff" stroke="transparent" points="501.5,-403.7 501.5,-422.7 568.5,-422.7 568.5,-403.7 501.5,-403.7"/>
<polygon fill="none" stroke="#000000" points="501.5,-403.7 501.5,-422.7 568.5,-422.7 568.5,-403.7 501.5,-403.7"/>
<text text-anchor="start" x="504.5" y="-409.8" font-family="Helvetica,sans-Serif" font-size="11.00" fill="#000000">&lt; 1</text>
<polygon fill="#ffffff" stroke="transparent" points="568.5,-403.7 568.5,-422.7 641.5,-422.7 641.5,-403.7 568.5,-403.7"/>
<polygon fill="none" stroke="#000000" points="568.5,-403.7 568.5,-422.7 641.5,-422.7 641.5,-403.7 568.5,-403.7"/>
<text text-anchor="start" x="593.8807" y="-409.8" font-family="Helvetica,sans-Serif" font-size="11.00" fill="#000000">241 rows</text>
<polygon fill="#ffffff" stroke="transparent" points="641.5,-403.7 641.5,-422.7 676.5,-422.7 676.5,-403.7 641.5,-403.7"/>
<polygon fill="none" stroke="#000000" points="641.5,-403.7 641.5,-422.7 676.5,-422.7 676.5,-403.7 641.5,-403.7"/>
<text text-anchor="start" x="667.3862" y="-409.8" font-family="Helvetica,sans-Serif" font-size="11.00" fill="#000000"> &#160;</text>
</a>
</g>
</g>
<!-- opiskeluoikeushistoria&#45;&gt;opiskeluoikeus -->
<g id="edge2" class="edge">
<title>opiskeluoikeushistoria:w&#45;&gt;opiskeluoikeus:e</title>
<path fill="none" stroke="#000000" d="M486.9301,-429.6943C470.1956,-424.3708 464.9872,-409.2264 447,-393.7 427.1265,-376.5454 432.7533,-350.7 406.5,-350.7"/>
<polygon fill="#000000" stroke="#000000" points="493.5747,-430.609 501.009,-435.2664 497.5374,-431.1545 501.5,-431.7 501.5,-431.7 501.5,-431.7 497.5374,-431.1545 501.991,-428.1336 493.5747,-430.609 493.5747,-430.609"/>
<ellipse fill="none" stroke="#000000" cx="490.4046" cy="-430.1726" rx="3.2" ry="3.2"/>
</g>
<!-- perustiedot_manual_sync -->
<g id="node4" class="node">
<title>perustiedot_manual_sync</title>
<g id="a_node4"><a xlink:href="../../tables/perustiedot_manual_sync.html" xlink:title="perustiedot_manual_sync" target="_top">
<polygon fill="#ffffff" stroke="transparent" points="455,-164.7 455,-298.7 722,-298.7 722,-164.7 455,-164.7"/>
<polygon fill="#f5f5f5" stroke="transparent" points="457.5,-273.7 457.5,-296.7 720.5,-296.7 720.5,-273.7 457.5,-273.7"/>
<polygon fill="none" stroke="#000000" points="457.5,-273.7 457.5,-296.7 720.5,-296.7 720.5,-273.7 457.5,-273.7"/>
<text text-anchor="start" x="462.5" y="-282.3" font-family="Helvetica,sans-Serif" font-weight="bold" font-size="11.00" fill="#000000">perustiedot_manual_sync</text>
<text text-anchor="start" x="685.5437" y="-281.8" font-family="Helvetica,sans-Serif" font-size="11.00" fill="#000000">[table]</text>
<polygon fill="none" stroke="#000000" points="457.5,-251.7 457.5,-273.7 630.5,-273.7 630.5,-251.7 457.5,-251.7"/>
<image xlink:href="../../images/primaryKeys.png" width="11px" height="12px" preserveAspectRatio="xMinYMin meet" x="462.5" y="-268.7"/>
<text text-anchor="start" x="477.5" y="-258.8" font-family="Helvetica,sans-Serif" font-size="11.00" fill="#000000">id</text>
<polygon fill="none" stroke="#000000" points="630.5,-251.7 630.5,-273.7 720.5,-273.7 720.5,-251.7 630.5,-251.7"/>
<text text-anchor="start" x="633.5" y="-259.4" font-family="Helvetica,sans-Serif" font-size="11.00" fill="#000000">serial[10]</text>
<polygon fill="none" stroke="#000000" points="457.5,-229.7 457.5,-251.7 630.5,-251.7 630.5,-229.7 457.5,-229.7"/>
<image xlink:href="../../images/foreignKeys.png" width="11px" height="12px" preserveAspectRatio="xMinYMin meet" x="462.5" y="-246.7"/>
<text text-anchor="start" x="477.5" y="-236.8" font-family="Helvetica,sans-Serif" font-size="11.00" fill="#000000">opiskeluoikeus_oid</text>
<polygon fill="none" stroke="#000000" points="630.5,-229.7 630.5,-251.7 720.5,-251.7 720.5,-229.7 630.5,-229.7"/>
<text text-anchor="start" x="633.0043" y="-237.4" font-family="Helvetica,sans-Serif" font-size="11.00" fill="#000000">text[2147483647]</text>
<polygon fill="none" stroke="#000000" points="457.5,-207.7 457.5,-229.7 630.5,-229.7 630.5,-207.7 457.5,-207.7"/>
<text text-anchor="start" x="477.5" y="-214.8" font-family="Helvetica,sans-Serif" font-size="11.00" fill="#000000">upsert</text>
<polygon fill="none" stroke="#000000" points="630.5,-207.7 630.5,-229.7 720.5,-229.7 720.5,-207.7 630.5,-207.7"/>
<text text-anchor="start" x="633.5" y="-215.4" font-family="Helvetica,sans-Serif" font-size="11.00" fill="#000000">bool[1]</text>
<polygon fill="none" stroke="#000000" points="457.5,-185.7 457.5,-207.7 630.5,-207.7 630.5,-185.7 457.5,-185.7"/>
<text text-anchor="start" x="477.5" y="-192.8" font-family="Helvetica,sans-Serif" font-size="11.00" fill="#000000">aikaleima</text>
<polygon fill="none" stroke="#000000" points="630.5,-185.7 630.5,-207.7 720.5,-207.7 720.5,-185.7 630.5,-185.7"/>
<text text-anchor="start" x="633.5" y="-193.4" font-family="Helvetica,sans-Serif" font-size="11.00" fill="#000000">timestamp[29,6]</text>
<polygon fill="#ffffff" stroke="transparent" points="457.5,-166.7 457.5,-185.7 548.5,-185.7 548.5,-166.7 457.5,-166.7"/>
<polygon fill="none" stroke="#000000" points="457.5,-166.7 457.5,-185.7 548.5,-185.7 548.5,-166.7 457.5,-166.7"/>
<text text-anchor="start" x="460.5" y="-172.8" font-family="Helvetica,sans-Serif" font-size="11.00" fill="#000000">&lt; 1</text>
<polygon fill="#ffffff" stroke="transparent" points="548.5,-166.7 548.5,-185.7 630.5,-185.7 630.5,-166.7 548.5,-166.7"/>
<polygon fill="none" stroke="#000000" points="548.5,-166.7 548.5,-185.7 630.5,-185.7 630.5,-166.7 548.5,-166.7"/>
<text text-anchor="start" x="621.3862" y="-172.8" font-family="Helvetica,sans-Serif" font-size="11.00" fill="#000000"> &#160;</text>
<polygon fill="#ffffff" stroke="transparent" points="630.5,-166.7 630.5,-185.7 720.5,-185.7 720.5,-166.7 630.5,-166.7"/>
<polygon fill="none" stroke="#000000" points="630.5,-166.7 630.5,-185.7 720.5,-185.7 720.5,-166.7 630.5,-166.7"/>
<text text-anchor="start" x="701.9053" y="-172.8" font-family="Helvetica,sans-Serif" font-size="11.00" fill="#000000">0 &gt;</text>
<polygon fill="none" stroke="#000000" stroke-width="2" points="456,-165.7 456,-297.7 721,-297.7 721,-165.7 456,-165.7"/>
</a>
</g>
</g>
<!-- perustiedot_manual_sync&#45;&gt;opiskeluoikeus -->
<g id="edge3" class="edge">
<title>perustiedot_manual_sync:w&#45;&gt;opiskeluoikeus:e</title>
<path fill="none" stroke="#000000" d="M442.776,-240.7C430.7815,-240.7 423.3229,-240.7 406.5,-240.7"/>
<polygon fill="#000000" stroke="#000000" points="449.5,-240.7001 457.5,-244.3 453.5,-240.7 457.5,-240.7 457.5,-240.7 457.5,-240.7 453.5,-240.7 457.5,-237.1 449.5,-240.7001 449.5,-240.7001"/>
<ellipse fill="none" stroke="#000000" cx="446.3" cy="-240.7001" rx="3.2" ry="3.2"/>
</g>
<!-- perustiedot_sync -->
<g id="node5" class="node">
<title>perustiedot_sync</title>
<g id="a_node5"><a xlink:href="../../tables/perustiedot_sync.html" xlink:title="perustiedot_sync" target="_top">
<polygon fill="#ffffff" stroke="transparent" points="518.5,-322.2 518.5,-383.2 658.5,-383.2 658.5,-322.2 518.5,-322.2"/>
<polygon fill="#f5f5f5" stroke="transparent" points="518.5,-359.7 518.5,-382.7 658.5,-382.7 658.5,-359.7 518.5,-359.7"/>
<polygon fill="none" stroke="#000000" points="518.5,-359.7 518.5,-382.7 658.5,-382.7 658.5,-359.7 518.5,-359.7"/>
<text text-anchor="start" x="523.5" y="-368.3" font-family="Helvetica,sans-Serif" font-weight="bold" font-size="11.00" fill="#000000">perustiedot_sync</text>
<text text-anchor="start" x="624.0219" y="-367.8" font-family="Helvetica,sans-Serif" font-size="11.00" fill="#000000">[table]</text>
<polygon fill="none" stroke="#000000" points="518.5,-340.7 518.5,-359.7 658.5,-359.7 658.5,-340.7 518.5,-340.7"/>
<text text-anchor="start" x="521.5" y="-346.8" font-family="Helvetica,sans-Serif" font-size="11.00" fill="#000000">...</text>
<polygon fill="#ffffff" stroke="transparent" points="518.5,-321.7 518.5,-340.7 573.5,-340.7 573.5,-321.7 518.5,-321.7"/>
<polygon fill="none" stroke="#000000" points="518.5,-321.7 518.5,-340.7 573.5,-340.7 573.5,-321.7 518.5,-321.7"/>
<text text-anchor="start" x="521.5" y="-327.8" font-family="Helvetica,sans-Serif" font-size="11.00" fill="#000000">&lt; 1</text>
<polygon fill="#ffffff" stroke="transparent" points="573.5,-321.7 573.5,-340.7 628.5,-340.7 628.5,-321.7 573.5,-321.7"/>
<polygon fill="none" stroke="#000000" points="573.5,-321.7 573.5,-340.7 628.5,-340.7 628.5,-321.7 573.5,-321.7"/>
<text text-anchor="start" x="593.1105" y="-327.8" font-family="Helvetica,sans-Serif" font-size="11.00" fill="#000000">0 rows</text>
<polygon fill="#ffffff" stroke="transparent" points="628.5,-321.7 628.5,-340.7 658.5,-340.7 658.5,-321.7 628.5,-321.7"/>
<polygon fill="none" stroke="#000000" points="628.5,-321.7 628.5,-340.7 658.5,-340.7 658.5,-321.7 628.5,-321.7"/>
<text text-anchor="start" x="649.3862" y="-327.8" font-family="Helvetica,sans-Serif" font-size="11.00" fill="#000000"> &#160;</text>
</a>
</g>
</g>
<!-- perustiedot_sync&#45;&gt;opiskeluoikeus -->
<g id="edge4" class="edge">
<title>perustiedot_sync:w&#45;&gt;opiskeluoikeus:e</title>
<path fill="none" stroke="#000000" d="M503.9078,-349.731C465.6807,-349.8998 451.0296,-350.7 406.5,-350.7"/>
<polygon fill="#000000" stroke="#000000" points="510.5,-349.7171 518.5077,-353.3 514.5,-349.7085 518.5,-349.7 518.5,-349.7 518.5,-349.7 514.5,-349.7085 518.4923,-346.1 510.5,-349.7171 510.5,-349.7171"/>
<ellipse fill="none" stroke="#000000" cx="507.3" cy="-349.7239" rx="3.2" ry="3.2"/>
</g>
</g>
</svg>
