<?xml version="1.0" encoding="UTF-8" standalone="no"?>
<!DOCTYPE svg PUBLIC "-//W3C//DTD SVG 1.1//EN"
 "http://www.w3.org/Graphics/SVG/1.1/DTD/svg11.dtd">
<!-- Generated by graphviz version 2.40.1 (20161225.0304)
 -->
<!-- Title: twoDegreesRelationshipsDiagram Pages: 1 -->
<svg width="684pt" height="503pt"
 viewBox="0.00 0.00 684.00 503.20" xmlns="http://www.w3.org/2000/svg" xmlns:xlink="http://www.w3.org/1999/xlink">
<g id="graph0" class="graph" transform="scale(1 1) rotate(0) translate(4 499.2)">
<title>twoDegreesRelationshipsDiagram</title>
<polygon fill="#ffffff" stroke="transparent" points="-4,4 -4,-499.2 680,-499.2 680,4 -4,4"/>
<text text-anchor="middle" x="72.4936" y="-7.3" font-family="Helvetica,sans-Serif" font-size="11.00" fill="#000000">Generated by SchemaSpy</text>
<!-- opiskeluoikeus -->
<g id="node1" class="node">
<title>opiskeluoikeus</title>
<g id="a_node1"><a xlink:href="../../tables/opiskeluoikeus.html" xlink:title="opiskeluoikeus" target="_top">
<polygon fill="#ffffff" stroke="transparent" points="138,-38.2 138,-385.2 391,-385.2 391,-38.2 138,-38.2"/>
<polygon fill="#f5f5f5" stroke="transparent" points="138.5,-361.7 138.5,-384.7 391.5,-384.7 391.5,-361.7 138.5,-361.7"/>
<polygon fill="none" stroke="#000000" points="138.5,-361.7 138.5,-384.7 391.5,-384.7 391.5,-361.7 138.5,-361.7"/>
<text text-anchor="start" x="143.5" y="-370.3" font-family="Helvetica,sans-Serif" font-weight="bold" font-size="11.00" fill="#000000">opiskeluoikeus</text>
<text text-anchor="start" x="356.5437" y="-369.8" font-family="Helvetica,sans-Serif" font-size="11.00" fill="#000000">[table]</text>
<polygon fill="none" stroke="#000000" points="138.5,-339.7 138.5,-361.7 391.5,-361.7 391.5,-339.7 138.5,-339.7"/>
<image xlink:href="../../images/primaryKeys.png" width="11px" height="12px" preserveAspectRatio="xMinYMin meet" x="143.5" y="-356.7"/>
<text text-anchor="start" x="158.5" y="-346.8" font-family="Helvetica,sans-Serif" font-size="11.00" fill="#000000">id</text>
<polygon fill="#ffffff" stroke="transparent" points="138.5,-317.7 138.5,-339.7 391.5,-339.7 391.5,-317.7 138.5,-317.7"/>
<polygon fill="none" stroke="#000000" points="138.5,-317.7 138.5,-339.7 391.5,-339.7 391.5,-317.7 138.5,-317.7"/>
<image xlink:href="../../images/foreignKeys.png" width="11px" height="12px" preserveAspectRatio="xMinYMin meet" x="143.5" y="-334.7"/>
<text text-anchor="start" x="158.5" y="-324.8" font-family="Helvetica,sans-Serif" font-size="11.00" fill="#000000">oppija_oid</text>
<polygon fill="#ffffff" stroke="transparent" points="138.5,-295.7 138.5,-317.7 391.5,-317.7 391.5,-295.7 138.5,-295.7"/>
<polygon fill="none" stroke="#000000" points="138.5,-295.7 138.5,-317.7 391.5,-317.7 391.5,-295.7 138.5,-295.7"/>
<text text-anchor="start" x="158.5" y="-302.8" font-family="Helvetica,sans-Serif" font-size="11.00" fill="#000000">aikaleima</text>
<polygon fill="#ffffff" stroke="transparent" points="138.5,-273.7 138.5,-295.7 391.5,-295.7 391.5,-273.7 138.5,-273.7"/>
<polygon fill="none" stroke="#000000" points="138.5,-273.7 138.5,-295.7 391.5,-295.7 391.5,-273.7 138.5,-273.7"/>
<text text-anchor="start" x="158.5" y="-280.8" font-family="Helvetica,sans-Serif" font-size="11.00" fill="#000000">oppilaitos_oid</text>
<polygon fill="#ffffff" stroke="transparent" points="138.5,-251.7 138.5,-273.7 391.5,-273.7 391.5,-251.7 138.5,-251.7"/>
<polygon fill="none" stroke="#000000" points="138.5,-251.7 138.5,-273.7 391.5,-273.7 391.5,-251.7 138.5,-251.7"/>
<text text-anchor="start" x="158.5" y="-258.8" font-family="Helvetica,sans-Serif" font-size="11.00" fill="#000000">sisaltava_opiskeluoikeus_oppilaitos_oid</text>
<polygon fill="#ffffff" stroke="transparent" points="138.5,-229.7 138.5,-251.7 391.5,-251.7 391.5,-229.7 138.5,-229.7"/>
<polygon fill="none" stroke="#000000" points="138.5,-229.7 138.5,-251.7 391.5,-251.7 391.5,-229.7 138.5,-229.7"/>
<text text-anchor="start" x="158.5" y="-236.8" font-family="Helvetica,sans-Serif" font-size="11.00" fill="#000000">oid</text>
<polygon fill="none" stroke="#000000" points="138.5,-207.7 138.5,-229.7 391.5,-229.7 391.5,-207.7 138.5,-207.7"/>
<image xlink:href="../../images/foreignKeys.png" width="11px" height="12px" preserveAspectRatio="xMinYMin meet" x="143.5" y="-224.7"/>
<text text-anchor="start" x="158.5" y="-214.8" font-family="Helvetica,sans-Serif" font-size="11.00" fill="#000000">sisaltava_opiskeluoikeus_oid</text>
<polygon fill="#ffffff" stroke="transparent" points="138.5,-185.7 138.5,-207.7 391.5,-207.7 391.5,-185.7 138.5,-185.7"/>
<polygon fill="none" stroke="#000000" points="138.5,-185.7 138.5,-207.7 391.5,-207.7 391.5,-185.7 138.5,-185.7"/>
<text text-anchor="start" x="158.5" y="-192.8" font-family="Helvetica,sans-Serif" font-size="11.00" fill="#000000">mitatoity</text>
<polygon fill="#ffffff" stroke="transparent" points="138.5,-163.7 138.5,-185.7 391.5,-185.7 391.5,-163.7 138.5,-163.7"/>
<polygon fill="none" stroke="#000000" points="138.5,-163.7 138.5,-185.7 391.5,-185.7 391.5,-163.7 138.5,-163.7"/>
<text text-anchor="start" x="158.5" y="-170.8" font-family="Helvetica,sans-Serif" font-size="11.00" fill="#000000">koulutusmuoto</text>
<polygon fill="#ffffff" stroke="transparent" points="138.5,-141.7 138.5,-163.7 391.5,-163.7 391.5,-141.7 138.5,-141.7"/>
<polygon fill="none" stroke="#000000" points="138.5,-141.7 138.5,-163.7 391.5,-163.7 391.5,-141.7 138.5,-141.7"/>
<text text-anchor="start" x="158.5" y="-148.8" font-family="Helvetica,sans-Serif" font-size="11.00" fill="#000000">alkamispaiva</text>
<polygon fill="#ffffff" stroke="transparent" points="138.5,-119.7 138.5,-141.7 391.5,-141.7 391.5,-119.7 138.5,-119.7"/>
<polygon fill="none" stroke="#000000" points="138.5,-119.7 138.5,-141.7 391.5,-141.7 391.5,-119.7 138.5,-119.7"/>
<text text-anchor="start" x="158.5" y="-126.8" font-family="Helvetica,sans-Serif" font-size="11.00" fill="#000000">paattymispaiva</text>
<polygon fill="#ffffff" stroke="transparent" points="138.5,-97.7 138.5,-119.7 391.5,-119.7 391.5,-97.7 138.5,-97.7"/>
<polygon fill="none" stroke="#000000" points="138.5,-97.7 138.5,-119.7 391.5,-119.7 391.5,-97.7 138.5,-97.7"/>
<text text-anchor="start" x="158.5" y="-104.8" font-family="Helvetica,sans-Serif" font-size="11.00" fill="#000000">suoritustyypit</text>
<polygon fill="#ffffff" stroke="transparent" points="138.5,-75.7 138.5,-97.7 391.5,-97.7 391.5,-75.7 138.5,-75.7"/>
<polygon fill="none" stroke="#000000" points="138.5,-75.7 138.5,-97.7 391.5,-97.7 391.5,-75.7 138.5,-75.7"/>
<text text-anchor="start" x="158.5" y="-82.8" font-family="Helvetica,sans-Serif" font-size="11.00" fill="#000000">poistettu</text>
<polygon fill="none" stroke="#000000" points="138.5,-56.7 138.5,-75.7 391.5,-75.7 391.5,-56.7 138.5,-56.7"/>
<text text-anchor="start" x="141.5" y="-62.8" font-family="Helvetica,sans-Serif" font-size="11.00" fill="#000000">...</text>
<polygon fill="#ffffff" stroke="transparent" points="138.5,-37.7 138.5,-56.7 245.5,-56.7 245.5,-37.7 138.5,-37.7"/>
<polygon fill="none" stroke="#000000" points="138.5,-37.7 138.5,-56.7 245.5,-56.7 245.5,-37.7 138.5,-37.7"/>
<text text-anchor="start" x="141.5" y="-43.8" font-family="Helvetica,sans-Serif" font-size="11.00" fill="#000000">&lt; 2</text>
<polygon fill="#ffffff" stroke="transparent" points="245.5,-37.7 245.5,-56.7 326.5,-56.7 326.5,-37.7 245.5,-37.7"/>
<polygon fill="none" stroke="#000000" points="245.5,-37.7 245.5,-56.7 326.5,-56.7 326.5,-37.7 245.5,-37.7"/>
<text text-anchor="start" x="291.1105" y="-43.8" font-family="Helvetica,sans-Serif" font-size="11.00" fill="#000000">0 rows</text>
<polygon fill="#ffffff" stroke="transparent" points="326.5,-37.7 326.5,-56.7 391.5,-56.7 391.5,-37.7 326.5,-37.7"/>
<polygon fill="none" stroke="#000000" points="326.5,-37.7 326.5,-56.7 391.5,-56.7 391.5,-37.7 326.5,-37.7"/>
<text text-anchor="start" x="372.9053" y="-43.8" font-family="Helvetica,sans-Serif" font-size="11.00" fill="#000000">4 &gt;</text>
</a>
</g>
</g>
<!-- henkilo -->
<g id="node2" class="node">
<title>henkilo</title>
<g id="a_node2"><a xlink:href="../../tables/henkilo.html" xlink:title="henkilo" target="_top">
<polygon fill="#ffffff" stroke="transparent" points="8,-301.2 8,-362.2 89,-362.2 89,-301.2 8,-301.2"/>
<polygon fill="#f5f5f5" stroke="transparent" points="8.5,-338.7 8.5,-361.7 89.5,-361.7 89.5,-338.7 8.5,-338.7"/>
<polygon fill="none" stroke="#000000" points="8.5,-338.7 8.5,-361.7 89.5,-361.7 89.5,-338.7 8.5,-338.7"/>
<text text-anchor="start" x="13.5" y="-347.3" font-family="Helvetica,sans-Serif" font-weight="bold" font-size="11.00" fill="#000000">henkilo</text>
<text text-anchor="start" x="55.0219" y="-346.8" font-family="Helvetica,sans-Serif" font-size="11.00" fill="#000000">[table]</text>
<polygon fill="none" stroke="#000000" points="8.5,-319.7 8.5,-338.7 89.5,-338.7 89.5,-319.7 8.5,-319.7"/>
<text text-anchor="start" x="11.5" y="-325.8" font-family="Helvetica,sans-Serif" font-size="11.00" fill="#000000">...</text>
<polygon fill="#ffffff" stroke="transparent" points="8.5,-300.7 8.5,-319.7 29.5,-319.7 29.5,-300.7 8.5,-300.7"/>
<polygon fill="none" stroke="#000000" points="8.5,-300.7 8.5,-319.7 29.5,-319.7 29.5,-300.7 8.5,-300.7"/>
<text text-anchor="start" x="11.2027" y="-306.8" font-family="Helvetica,sans-Serif" font-size="11.00" fill="#000000">&lt; 1</text>
<polygon fill="#ffffff" stroke="transparent" points="29.5,-300.7 29.5,-319.7 67.5,-319.7 67.5,-300.7 29.5,-300.7"/>
<polygon fill="none" stroke="#000000" points="29.5,-300.7 29.5,-319.7 67.5,-319.7 67.5,-300.7 29.5,-300.7"/>
<text text-anchor="start" x="32.3053" y="-306.8" font-family="Helvetica,sans-Serif" font-size="11.00" fill="#000000">0 rows</text>
<polygon fill="#ffffff" stroke="transparent" points="67.5,-300.7 67.5,-319.7 89.5,-319.7 89.5,-300.7 67.5,-300.7"/>
<polygon fill="none" stroke="#000000" points="67.5,-300.7 67.5,-319.7 89.5,-319.7 89.5,-300.7 67.5,-300.7"/>
<text text-anchor="start" x="70.9053" y="-306.8" font-family="Helvetica,sans-Serif" font-size="11.00" fill="#000000">3 &gt;</text>
</a>
</g>
</g>
<!-- opiskeluoikeus&#45;&gt;henkilo -->
<g id="edge1" class="edge">
<title>opiskeluoikeus:w&#45;&gt;henkilo:e</title>
<path fill="none" stroke="#000000" d="M127.7573,-328.7C114.1063,-328.7 107.1944,-328.7 89.5,-328.7"/>
<polygon fill="#000000" stroke="#000000" points="137.7,-324.7 137.7,-332.7 136.1,-332.7 136.1,-324.7 137.7,-324.7"/>
<polyline fill="none" stroke="#000000" points="138.5,-328.7 134.5,-328.7 "/>
<ellipse fill="none" stroke="#000000" cx="131.3" cy="-328.7001" rx="3.2" ry="3.2"/>
</g>
<!-- opiskeluoikeushistoria -->
<g id="node3" class="node">
<title>opiskeluoikeushistoria</title>
<g id="a_node3"><a xlink:href="../../tables/opiskeluoikeushistoria.html" xlink:title="opiskeluoikeushistoria" target="_top">
<polygon fill="#ffffff" stroke="transparent" points="469.5,-430.2 469.5,-491.2 638.5,-491.2 638.5,-430.2 469.5,-430.2"/>
<polygon fill="#f5f5f5" stroke="transparent" points="470,-467.7 470,-490.7 639,-490.7 639,-467.7 470,-467.7"/>
<polygon fill="none" stroke="#000000" points="470,-467.7 470,-490.7 639,-490.7 639,-467.7 470,-467.7"/>
<text text-anchor="start" x="475" y="-476.3" font-family="Helvetica,sans-Serif" font-weight="bold" font-size="11.00" fill="#000000">opiskeluoikeushistoria</text>
<text text-anchor="start" x="604.5219" y="-475.8" font-family="Helvetica,sans-Serif" font-size="11.00" fill="#000000">[table]</text>
<polygon fill="none" stroke="#000000" points="470,-448.7 470,-467.7 639,-467.7 639,-448.7 470,-448.7"/>
<text text-anchor="start" x="473" y="-454.8" font-family="Helvetica,sans-Serif" font-size="11.00" fill="#000000">...</text>
<polygon fill="#ffffff" stroke="transparent" points="470,-429.7 470,-448.7 540,-448.7 540,-429.7 470,-429.7"/>
<polygon fill="none" stroke="#000000" points="470,-429.7 470,-448.7 540,-448.7 540,-429.7 470,-429.7"/>
<text text-anchor="start" x="473" y="-435.8" font-family="Helvetica,sans-Serif" font-size="11.00" fill="#000000">&lt; 1</text>
<polygon fill="#ffffff" stroke="transparent" points="540,-429.7 540,-448.7 602,-448.7 602,-429.7 540,-429.7"/>
<polygon fill="none" stroke="#000000" points="540,-429.7 540,-448.7 602,-448.7 602,-429.7 540,-429.7"/>
<text text-anchor="start" x="566.6105" y="-435.8" font-family="Helvetica,sans-Serif" font-size="11.00" fill="#000000">0 rows</text>
<polygon fill="#ffffff" stroke="transparent" points="602,-429.7 602,-448.7 639,-448.7 639,-429.7 602,-429.7"/>
<polygon fill="none" stroke="#000000" points="602,-429.7 602,-448.7 639,-448.7 639,-429.7 602,-429.7"/>
<text text-anchor="start" x="629.8862" y="-435.8" font-family="Helvetica,sans-Serif" font-size="11.00" fill="#000000"> &#160;</text>
</a>
</g>
</g>
<!-- opiskeluoikeushistoria&#45;&gt;opiskeluoikeus -->
<g id="edge2" class="edge">
<title>opiskeluoikeushistoria:w&#45;&gt;opiskeluoikeus:e</title>
<path fill="none" stroke="#000000" d="M455.7111,-454.2216C445.3657,-447.8635 442.8418,-433.7248 432,-419.7 410.252,-391.567 427.059,-350.7 391.5,-350.7"/>
<polygon fill="#000000" stroke="#000000" points="462.227,-455.8078 469.1485,-461.1979 466.1135,-456.7539 470,-457.7 470,-457.7 470,-457.7 466.1135,-456.7539 470.8515,-454.2021 462.227,-455.8078 462.227,-455.8078"/>
<ellipse fill="none" stroke="#000000" cx="459.1178" cy="-455.0509" rx="3.2" ry="3.2"/>
</g>
<!-- perustiedot_manual_sync -->
<g id="node4" class="node">
<title>perustiedot_manual_sync</title>
<g id="a_node4"><a xlink:href="../../tables/perustiedot_manual_sync.html" xlink:title="perustiedot_manual_sync" target="_top">
<polygon fill="#ffffff" stroke="transparent" points="460.5,-170.2 460.5,-231.2 647.5,-231.2 647.5,-170.2 460.5,-170.2"/>
<polygon fill="#f5f5f5" stroke="transparent" points="461,-207.7 461,-230.7 648,-230.7 648,-207.7 461,-207.7"/>
<polygon fill="none" stroke="#000000" points="461,-207.7 461,-230.7 648,-230.7 648,-207.7 461,-207.7"/>
<text text-anchor="start" x="466" y="-216.3" font-family="Helvetica,sans-Serif" font-weight="bold" font-size="11.00" fill="#000000">perustiedot_manual_sync</text>
<text text-anchor="start" x="613.5219" y="-215.8" font-family="Helvetica,sans-Serif" font-size="11.00" fill="#000000">[table]</text>
<polygon fill="none" stroke="#000000" points="461,-188.7 461,-207.7 648,-207.7 648,-188.7 461,-188.7"/>
<text text-anchor="start" x="464" y="-194.8" font-family="Helvetica,sans-Serif" font-size="11.00" fill="#000000">...</text>
<polygon fill="#ffffff" stroke="transparent" points="461,-169.7 461,-188.7 540,-188.7 540,-169.7 461,-169.7"/>
<polygon fill="none" stroke="#000000" points="461,-169.7 461,-188.7 540,-188.7 540,-169.7 461,-169.7"/>
<text text-anchor="start" x="464" y="-175.8" font-family="Helvetica,sans-Serif" font-size="11.00" fill="#000000">&lt; 1</text>
<polygon fill="#ffffff" stroke="transparent" points="540,-169.7 540,-188.7 607,-188.7 607,-169.7 540,-169.7"/>
<polygon fill="none" stroke="#000000" points="540,-169.7 540,-188.7 607,-188.7 607,-169.7 540,-169.7"/>
<text text-anchor="start" x="571.6105" y="-175.8" font-family="Helvetica,sans-Serif" font-size="11.00" fill="#000000">0 rows</text>
<polygon fill="#ffffff" stroke="transparent" points="607,-169.7 607,-188.7 648,-188.7 648,-169.7 607,-169.7"/>
<polygon fill="none" stroke="#000000" points="607,-169.7 607,-188.7 648,-188.7 648,-169.7 607,-169.7"/>
<text text-anchor="start" x="638.8862" y="-175.8" font-family="Helvetica,sans-Serif" font-size="11.00" fill="#000000"> &#160;</text>
</a>
</g>
</g>
<!-- perustiedot_manual_sync&#45;&gt;opiskeluoikeus -->
<g id="edge3" class="edge">
<title>perustiedot_manual_sync:w&#45;&gt;opiskeluoikeus:e</title>
<path fill="none" stroke="#000000" d="M446.5633,-200.5214C424.6965,-210.0877 422.1475,-240.7 391.5,-240.7"/>
<polygon fill="#000000" stroke="#000000" points="453.1485,-199.2344 461.6905,-201.2332 457.0743,-198.4672 461,-197.7 461,-197.7 461,-197.7 457.0743,-198.4672 460.3095,-194.1668 453.1485,-199.2344 453.1485,-199.2344"/>
<ellipse fill="none" stroke="#000000" cx="450.0079" cy="-199.8482" rx="3.2" ry="3.2"/>
</g>
<!-- perustiedot_sync -->
<g id="node5" class="node">
<title>perustiedot_sync</title>
<g id="a_node5"><a xlink:href="../../tables/perustiedot_sync.html" xlink:title="perustiedot_sync" target="_top">
<polygon fill="#ffffff" stroke="transparent" points="440,-252.7 440,-408.7 668,-408.7 668,-252.7 440,-252.7"/>
<polygon fill="#f5f5f5" stroke="transparent" points="442,-383.7 442,-406.7 666,-406.7 666,-383.7 442,-383.7"/>
<polygon fill="none" stroke="#000000" points="442,-383.7 442,-406.7 666,-406.7 666,-383.7 442,-383.7"/>
<text text-anchor="start" x="447" y="-392.3" font-family="Helvetica,sans-Serif" font-weight="bold" font-size="11.00" fill="#000000">perustiedot_sync</text>
<text text-anchor="start" x="631.0437" y="-391.8" font-family="Helvetica,sans-Serif" font-size="11.00" fill="#000000">[table]</text>
<polygon fill="none" stroke="#000000" points="442,-361.7 442,-383.7 567,-383.7 567,-361.7 442,-361.7"/>
<image xlink:href="../../images/primaryKeys.png" width="11px" height="12px" preserveAspectRatio="xMinYMin meet" x="447" y="-378.7"/>
<text text-anchor="start" x="462" y="-368.8" font-family="Helvetica,sans-Serif" font-size="11.00" fill="#000000">id</text>
<polygon fill="none" stroke="#000000" points="567,-361.7 567,-383.7 666,-383.7 666,-361.7 567,-361.7"/>
<text text-anchor="start" x="570" y="-369.4" font-family="Helvetica,sans-Serif" font-size="11.00" fill="#000000">serial[10]</text>
<polygon fill="none" stroke="#000000" points="442,-339.7 442,-361.7 567,-361.7 567,-339.7 442,-339.7"/>
<image xlink:href="../../images/foreignKeys.png" width="11px" height="12px" preserveAspectRatio="xMinYMin meet" x="447" y="-356.7"/>
<text text-anchor="start" x="462" y="-346.8" font-family="Helvetica,sans-Serif" font-size="11.00" fill="#000000">opiskeluoikeus_id</text>
<polygon fill="none" stroke="#000000" points="567,-339.7 567,-361.7 666,-361.7 666,-339.7 567,-339.7"/>
<text text-anchor="start" x="570" y="-347.4" font-family="Helvetica,sans-Serif" font-size="11.00" fill="#000000">int4[10]</text>
<polygon fill="none" stroke="#000000" points="442,-317.7 442,-339.7 567,-339.7 567,-317.7 442,-317.7"/>
<text text-anchor="start" x="462" y="-324.8" font-family="Helvetica,sans-Serif" font-size="11.00" fill="#000000">aikaleima</text>
<polygon fill="none" stroke="#000000" points="567,-317.7 567,-339.7 666,-339.7 666,-317.7 567,-317.7"/>
<text text-anchor="start" x="570" y="-325.4" font-family="Helvetica,sans-Serif" font-size="11.00" fill="#000000">timestamp[29,6]</text>
<polygon fill="none" stroke="#000000" points="442,-295.7 442,-317.7 567,-317.7 567,-295.7 442,-295.7"/>
<text text-anchor="start" x="462" y="-302.8" font-family="Helvetica,sans-Serif" font-size="11.00" fill="#000000">upsert</text>
<polygon fill="none" stroke="#000000" points="567,-295.7 567,-317.7 666,-317.7 666,-295.7 567,-295.7"/>
<text text-anchor="start" x="570" y="-303.4" font-family="Helvetica,sans-Serif" font-size="11.00" fill="#000000">bool[1]</text>
<polygon fill="none" stroke="#000000" points="442,-273.7 442,-295.7 567,-295.7 567,-273.7 442,-273.7"/>
<text text-anchor="start" x="462" y="-280.8" font-family="Helvetica,sans-Serif" font-size="11.00" fill="#000000">data</text>
<polygon fill="none" stroke="#000000" points="567,-273.7 567,-295.7 666,-295.7 666,-273.7 567,-273.7"/>
<text text-anchor="start" x="569.7258" y="-281.4" font-family="Helvetica,sans-Serif" font-size="11.00" fill="#000000">jsonb[2147483647]</text>
<polygon fill="#ffffff" stroke="transparent" points="442,-254.7 442,-273.7 496,-273.7 496,-254.7 442,-254.7"/>
<polygon fill="none" stroke="#000000" points="442,-254.7 442,-273.7 496,-273.7 496,-254.7 442,-254.7"/>
<text text-anchor="start" x="445" y="-260.8" font-family="Helvetica,sans-Serif" font-size="11.00" fill="#000000">&lt; 1</text>
<polygon fill="#ffffff" stroke="transparent" points="496,-254.7 496,-273.7 567,-273.7 567,-254.7 496,-254.7"/>
<polygon fill="none" stroke="#000000" points="496,-254.7 496,-273.7 567,-273.7 567,-254.7 496,-254.7"/>
<text text-anchor="start" x="531.6105" y="-260.8" font-family="Helvetica,sans-Serif" font-size="11.00" fill="#000000">0 rows</text>
<polygon fill="#ffffff" stroke="transparent" points="567,-254.7 567,-273.7 666,-273.7 666,-254.7 567,-254.7"/>
<polygon fill="none" stroke="#000000" points="567,-254.7 567,-273.7 666,-273.7 666,-254.7 567,-254.7"/>
<text text-anchor="start" x="647.4053" y="-260.8" font-family="Helvetica,sans-Serif" font-size="11.00" fill="#000000">0 &gt;</text>
<polygon fill="none" stroke="#000000" stroke-width="2" points="441,-253.7 441,-407.7 667,-407.7 667,-253.7 441,-253.7"/>
</a>
</g>
</g>
<!-- perustiedot_sync&#45;&gt;opiskeluoikeus -->
<g id="edge4" class="edge">
<title>perustiedot_sync:w&#45;&gt;opiskeluoikeus:e</title>
<path fill="none" stroke="#000000" d="M427.4203,-350.7C415.5435,-350.7 408.158,-350.7 391.5,-350.7"/>
<polygon fill="#000000" stroke="#000000" points="434,-350.7001 442,-354.3 438,-350.7 442,-350.7 442,-350.7 442,-350.7 438,-350.7 442,-347.1 434,-350.7001 434,-350.7001"/>
<ellipse fill="none" stroke="#000000" cx="430.8" cy="-350.7001" rx="3.2" ry="3.2"/>
</g>
</g>
</svg>
