<?xml version="1.0" encoding="UTF-8" standalone="no"?>
<!DOCTYPE svg PUBLIC "-//W3C//DTD SVG 1.1//EN"
 "http://www.w3.org/Graphics/SVG/1.1/DTD/svg11.dtd">
<!-- Generated by graphviz version 2.40.1 (20161225.0304)
 -->
<!-- Title: twoDegreesRelationshipsDiagram Pages: 1 -->
<svg width="691pt" height="503pt"
 viewBox="0.00 0.00 691.00 503.20" xmlns="http://www.w3.org/2000/svg" xmlns:xlink="http://www.w3.org/1999/xlink">
<g id="graph0" class="graph" transform="scale(1 1) rotate(0) translate(4 499.2)">
<title>twoDegreesRelationshipsDiagram</title>
<polygon fill="#ffffff" stroke="transparent" points="-4,4 -4,-499.2 687,-499.2 687,4 -4,4"/>
<text text-anchor="middle" x="72.4936" y="-7.3" font-family="Helvetica,sans-Serif" font-size="11.00" fill="#000000">Generated by SchemaSpy</text>
<!-- opiskeluoikeus -->
<g id="node1" class="node">
<title>opiskeluoikeus</title>
<g id="a_node1"><a xlink:href="../../tables/opiskeluoikeus.html" xlink:title="opiskeluoikeus" target="_top">
<polygon fill="#ffffff" stroke="transparent" points="140,-38.2 140,-385.2 396,-385.2 396,-38.2 140,-38.2"/>
<polygon fill="#f5f5f5" stroke="transparent" points="140,-361.7 140,-384.7 396,-384.7 396,-361.7 140,-361.7"/>
<polygon fill="none" stroke="#000000" points="140,-361.7 140,-384.7 396,-384.7 396,-361.7 140,-361.7"/>
<text text-anchor="start" x="145" y="-370.3" font-family="Helvetica,sans-Serif" font-weight="bold" font-size="11.00" fill="#000000">opiskeluoikeus</text>
<text text-anchor="start" x="361.0437" y="-369.8" font-family="Helvetica,sans-Serif" font-size="11.00" fill="#000000">[table]</text>
<polygon fill="none" stroke="#000000" points="140,-339.7 140,-361.7 396,-361.7 396,-339.7 140,-339.7"/>
<image xlink:href="../../images/primaryKeys.png" width="11px" height="12px" preserveAspectRatio="xMinYMin meet" x="145" y="-356.7"/>
<text text-anchor="start" x="160" y="-346.8" font-family="Helvetica,sans-Serif" font-size="11.00" fill="#000000">id</text>
<polygon fill="#ffffff" stroke="transparent" points="140,-317.7 140,-339.7 396,-339.7 396,-317.7 140,-317.7"/>
<polygon fill="none" stroke="#000000" points="140,-317.7 140,-339.7 396,-339.7 396,-317.7 140,-317.7"/>
<image xlink:href="../../images/foreignKeys.png" width="11px" height="12px" preserveAspectRatio="xMinYMin meet" x="145" y="-334.7"/>
<text text-anchor="start" x="160" y="-324.8" font-family="Helvetica,sans-Serif" font-size="11.00" fill="#000000">oppija_oid</text>
<polygon fill="#ffffff" stroke="transparent" points="140,-295.7 140,-317.7 396,-317.7 396,-295.7 140,-295.7"/>
<polygon fill="none" stroke="#000000" points="140,-295.7 140,-317.7 396,-317.7 396,-295.7 140,-295.7"/>
<text text-anchor="start" x="160" y="-302.8" font-family="Helvetica,sans-Serif" font-size="11.00" fill="#000000">aikaleima</text>
<polygon fill="#ffffff" stroke="transparent" points="140,-273.7 140,-295.7 396,-295.7 396,-273.7 140,-273.7"/>
<polygon fill="none" stroke="#000000" points="140,-273.7 140,-295.7 396,-295.7 396,-273.7 140,-273.7"/>
<text text-anchor="start" x="160" y="-280.8" font-family="Helvetica,sans-Serif" font-size="11.00" fill="#000000">oppilaitos_oid</text>
<polygon fill="#ffffff" stroke="transparent" points="140,-251.7 140,-273.7 396,-273.7 396,-251.7 140,-251.7"/>
<polygon fill="none" stroke="#000000" points="140,-251.7 140,-273.7 396,-273.7 396,-251.7 140,-251.7"/>
<text text-anchor="start" x="160" y="-258.8" font-family="Helvetica,sans-Serif" font-size="11.00" fill="#000000">sisaltava_opiskeluoikeus_oppilaitos_oid</text>
<polygon fill="#ffffff" stroke="transparent" points="140,-229.7 140,-251.7 396,-251.7 396,-229.7 140,-229.7"/>
<polygon fill="none" stroke="#000000" points="140,-229.7 140,-251.7 396,-251.7 396,-229.7 140,-229.7"/>
<text text-anchor="start" x="160" y="-236.8" font-family="Helvetica,sans-Serif" font-size="11.00" fill="#000000">oid</text>
<polygon fill="none" stroke="#000000" points="140,-207.7 140,-229.7 396,-229.7 396,-207.7 140,-207.7"/>
<image xlink:href="../../images/foreignKeys.png" width="11px" height="12px" preserveAspectRatio="xMinYMin meet" x="145" y="-224.7"/>
<text text-anchor="start" x="160" y="-214.8" font-family="Helvetica,sans-Serif" font-size="11.00" fill="#000000">sisaltava_opiskeluoikeus_oid</text>
<polygon fill="#ffffff" stroke="transparent" points="140,-185.7 140,-207.7 396,-207.7 396,-185.7 140,-185.7"/>
<polygon fill="none" stroke="#000000" points="140,-185.7 140,-207.7 396,-207.7 396,-185.7 140,-185.7"/>
<text text-anchor="start" x="160" y="-192.8" font-family="Helvetica,sans-Serif" font-size="11.00" fill="#000000">mitatoity</text>
<polygon fill="#ffffff" stroke="transparent" points="140,-163.7 140,-185.7 396,-185.7 396,-163.7 140,-163.7"/>
<polygon fill="none" stroke="#000000" points="140,-163.7 140,-185.7 396,-185.7 396,-163.7 140,-163.7"/>
<text text-anchor="start" x="160" y="-170.8" font-family="Helvetica,sans-Serif" font-size="11.00" fill="#000000">koulutusmuoto</text>
<polygon fill="#ffffff" stroke="transparent" points="140,-141.7 140,-163.7 396,-163.7 396,-141.7 140,-141.7"/>
<polygon fill="none" stroke="#000000" points="140,-141.7 140,-163.7 396,-163.7 396,-141.7 140,-141.7"/>
<text text-anchor="start" x="160" y="-148.8" font-family="Helvetica,sans-Serif" font-size="11.00" fill="#000000">alkamispaiva</text>
<polygon fill="#ffffff" stroke="transparent" points="140,-119.7 140,-141.7 396,-141.7 396,-119.7 140,-119.7"/>
<polygon fill="none" stroke="#000000" points="140,-119.7 140,-141.7 396,-141.7 396,-119.7 140,-119.7"/>
<text text-anchor="start" x="160" y="-126.8" font-family="Helvetica,sans-Serif" font-size="11.00" fill="#000000">paattymispaiva</text>
<polygon fill="#ffffff" stroke="transparent" points="140,-97.7 140,-119.7 396,-119.7 396,-97.7 140,-97.7"/>
<polygon fill="none" stroke="#000000" points="140,-97.7 140,-119.7 396,-119.7 396,-97.7 140,-97.7"/>
<text text-anchor="start" x="160" y="-104.8" font-family="Helvetica,sans-Serif" font-size="11.00" fill="#000000">suoritustyypit</text>
<polygon fill="#ffffff" stroke="transparent" points="140,-75.7 140,-97.7 396,-97.7 396,-75.7 140,-75.7"/>
<polygon fill="none" stroke="#000000" points="140,-75.7 140,-97.7 396,-97.7 396,-75.7 140,-75.7"/>
<text text-anchor="start" x="160" y="-82.8" font-family="Helvetica,sans-Serif" font-size="11.00" fill="#000000">poistettu</text>
<polygon fill="none" stroke="#000000" points="140,-56.7 140,-75.7 396,-75.7 396,-56.7 140,-56.7"/>
<text text-anchor="start" x="143" y="-62.8" font-family="Helvetica,sans-Serif" font-size="11.00" fill="#000000">...</text>
<polygon fill="#ffffff" stroke="transparent" points="140,-37.7 140,-56.7 262,-56.7 262,-37.7 140,-37.7"/>
<polygon fill="none" stroke="#000000" points="140,-37.7 140,-56.7 262,-56.7 262,-37.7 140,-37.7"/>
<text text-anchor="start" x="143" y="-43.8" font-family="Helvetica,sans-Serif" font-size="11.00" fill="#000000">&lt; 2</text>
<polygon fill="#ffffff" stroke="transparent" points="262,-37.7 262,-56.7 324,-56.7 324,-37.7 262,-37.7"/>
<polygon fill="none" stroke="#000000" points="262,-37.7 262,-56.7 324,-56.7 324,-37.7 262,-37.7"/>
<text text-anchor="start" x="314.8862" y="-43.8" font-family="Helvetica,sans-Serif" font-size="11.00" fill="#000000"> &#160;</text>
<polygon fill="#ffffff" stroke="transparent" points="324,-37.7 324,-56.7 396,-56.7 396,-37.7 324,-37.7"/>
<polygon fill="none" stroke="#000000" points="324,-37.7 324,-56.7 396,-56.7 396,-37.7 324,-37.7"/>
<text text-anchor="start" x="377.4053" y="-43.8" font-family="Helvetica,sans-Serif" font-size="11.00" fill="#000000">4 &gt;</text>
</a>
</g>
</g>
<!-- henkilo -->
<g id="node2" class="node">
<title>henkilo</title>
<g id="a_node2"><a xlink:href="../../tables/henkilo.html" xlink:title="henkilo" target="_top">
<polygon fill="#ffffff" stroke="transparent" points="8,-301.2 8,-362.2 91,-362.2 91,-301.2 8,-301.2"/>
<polygon fill="#f5f5f5" stroke="transparent" points="8.5,-338.7 8.5,-361.7 91.5,-361.7 91.5,-338.7 8.5,-338.7"/>
<polygon fill="none" stroke="#000000" points="8.5,-338.7 8.5,-361.7 91.5,-361.7 91.5,-338.7 8.5,-338.7"/>
<text text-anchor="start" x="13.5" y="-347.3" font-family="Helvetica,sans-Serif" font-weight="bold" font-size="11.00" fill="#000000">henkilo</text>
<text text-anchor="start" x="57.0219" y="-346.8" font-family="Helvetica,sans-Serif" font-size="11.00" fill="#000000">[table]</text>
<polygon fill="none" stroke="#000000" points="8.5,-319.7 8.5,-338.7 91.5,-338.7 91.5,-319.7 8.5,-319.7"/>
<text text-anchor="start" x="11.5" y="-325.8" font-family="Helvetica,sans-Serif" font-size="11.00" fill="#000000">...</text>
<polygon fill="#ffffff" stroke="transparent" points="8.5,-300.7 8.5,-319.7 43.5,-319.7 43.5,-300.7 8.5,-300.7"/>
<polygon fill="none" stroke="#000000" points="8.5,-300.7 8.5,-319.7 43.5,-319.7 43.5,-300.7 8.5,-300.7"/>
<text text-anchor="start" x="11.5" y="-306.8" font-family="Helvetica,sans-Serif" font-size="11.00" fill="#000000">&lt; 1</text>
<polygon fill="#ffffff" stroke="transparent" points="43.5,-300.7 43.5,-319.7 62.5,-319.7 62.5,-300.7 43.5,-300.7"/>
<polygon fill="none" stroke="#000000" points="43.5,-300.7 43.5,-319.7 62.5,-319.7 62.5,-300.7 43.5,-300.7"/>
<text text-anchor="start" x="53.3862" y="-306.8" font-family="Helvetica,sans-Serif" font-size="11.00" fill="#000000"> &#160;</text>
<polygon fill="#ffffff" stroke="transparent" points="62.5,-300.7 62.5,-319.7 91.5,-319.7 91.5,-300.7 62.5,-300.7"/>
<polygon fill="none" stroke="#000000" points="62.5,-300.7 62.5,-319.7 91.5,-319.7 91.5,-300.7 62.5,-300.7"/>
<text text-anchor="start" x="72.9053" y="-306.8" font-family="Helvetica,sans-Serif" font-size="11.00" fill="#000000">3 &gt;</text>
</a>
</g>
</g>
<!-- opiskeluoikeus&#45;&gt;henkilo -->
<g id="edge1" class="edge">
<title>opiskeluoikeus:w&#45;&gt;henkilo:e</title>
<path fill="none" stroke="#000000" d="M129.3669,-328.7C115.8553,-328.7 109.0139,-328.7 91.5,-328.7"/>
<polygon fill="#000000" stroke="#000000" points="139.2,-324.7 139.2,-332.7 137.6,-332.7 137.6,-324.7 139.2,-324.7"/>
<polyline fill="none" stroke="#000000" points="140,-328.7 136,-328.7 "/>
<ellipse fill="none" stroke="#000000" cx="132.8" cy="-328.7001" rx="3.2" ry="3.2"/>
</g>
<!-- opiskeluoikeushistoria -->
<g id="node3" class="node">
<title>opiskeluoikeushistoria</title>
<g id="a_node3"><a xlink:href="../../tables/opiskeluoikeushistoria.html" xlink:title="opiskeluoikeushistoria" target="_top">
<polygon fill="#ffffff" stroke="transparent" points="472.5,-430.2 472.5,-491.2 647.5,-491.2 647.5,-430.2 472.5,-430.2"/>
<polygon fill="#f5f5f5" stroke="transparent" points="473,-467.7 473,-490.7 648,-490.7 648,-467.7 473,-467.7"/>
<polygon fill="none" stroke="#000000" points="473,-467.7 473,-490.7 648,-490.7 648,-467.7 473,-467.7"/>
<text text-anchor="start" x="478" y="-476.3" font-family="Helvetica,sans-Serif" font-weight="bold" font-size="11.00" fill="#000000">opiskeluoikeushistoria</text>
<text text-anchor="start" x="613.5219" y="-475.8" font-family="Helvetica,sans-Serif" font-size="11.00" fill="#000000">[table]</text>
<polygon fill="none" stroke="#000000" points="473,-448.7 473,-467.7 648,-467.7 648,-448.7 473,-448.7"/>
<text text-anchor="start" x="476" y="-454.8" font-family="Helvetica,sans-Serif" font-size="11.00" fill="#000000">...</text>
<polygon fill="#ffffff" stroke="transparent" points="473,-429.7 473,-448.7 559,-448.7 559,-429.7 473,-429.7"/>
<polygon fill="none" stroke="#000000" points="473,-429.7 473,-448.7 559,-448.7 559,-429.7 473,-429.7"/>
<text text-anchor="start" x="476" y="-435.8" font-family="Helvetica,sans-Serif" font-size="11.00" fill="#000000">&lt; 1</text>
<polygon fill="#ffffff" stroke="transparent" points="559,-429.7 559,-448.7 603,-448.7 603,-429.7 559,-429.7"/>
<polygon fill="none" stroke="#000000" points="559,-429.7 559,-448.7 603,-448.7 603,-429.7 559,-429.7"/>
<text text-anchor="start" x="593.8862" y="-435.8" font-family="Helvetica,sans-Serif" font-size="11.00" fill="#000000"> &#160;</text>
<polygon fill="#ffffff" stroke="transparent" points="603,-429.7 603,-448.7 648,-448.7 648,-429.7 603,-429.7"/>
<polygon fill="none" stroke="#000000" points="603,-429.7 603,-448.7 648,-448.7 648,-429.7 603,-429.7"/>
<text text-anchor="start" x="638.8862" y="-435.8" font-family="Helvetica,sans-Serif" font-size="11.00" fill="#000000"> &#160;</text>
</a>
</g>
</g>
<!-- opiskeluoikeushistoria&#45;&gt;opiskeluoikeus -->
<g id="edge2" class="edge">
<title>opiskeluoikeushistoria:w&#45;&gt;opiskeluoikeus:e</title>
<path fill="none" stroke="#000000" d="M458.9118,-453.9658C449.3414,-447.4342 447.3022,-433.3292 437,-419.7 415.4896,-391.2431 431.672,-350.7 396,-350.7"/>
<polygon fill="#000000" stroke="#000000" points="465.267,-455.6503 472.0776,-461.1798 469.1335,-456.6751 473,-457.7 473,-457.7 473,-457.7 469.1335,-456.6751 473.9224,-454.2202 465.267,-455.6503 465.267,-455.6503"/>
<ellipse fill="none" stroke="#000000" cx="462.1738" cy="-454.8304" rx="3.2" ry="3.2"/>
</g>
<!-- perustiedot_manual_sync -->
<g id="node4" class="node">
<title>perustiedot_manual_sync</title>
<g id="a_node4"><a xlink:href="../../tables/perustiedot_manual_sync.html" xlink:title="perustiedot_manual_sync" target="_top">
<polygon fill="#ffffff" stroke="transparent" points="464.5,-170.2 464.5,-231.2 655.5,-231.2 655.5,-170.2 464.5,-170.2"/>
<polygon fill="#f5f5f5" stroke="transparent" points="465,-207.7 465,-230.7 656,-230.7 656,-207.7 465,-207.7"/>
<polygon fill="none" stroke="#000000" points="465,-207.7 465,-230.7 656,-230.7 656,-207.7 465,-207.7"/>
<text text-anchor="start" x="470" y="-216.3" font-family="Helvetica,sans-Serif" font-weight="bold" font-size="11.00" fill="#000000">perustiedot_manual_sync</text>
<text text-anchor="start" x="621.5219" y="-215.8" font-family="Helvetica,sans-Serif" font-size="11.00" fill="#000000">[table]</text>
<polygon fill="none" stroke="#000000" points="465,-188.7 465,-207.7 656,-207.7 656,-188.7 465,-188.7"/>
<text text-anchor="start" x="468" y="-194.8" font-family="Helvetica,sans-Serif" font-size="11.00" fill="#000000">...</text>
<polygon fill="#ffffff" stroke="transparent" points="465,-169.7 465,-188.7 559,-188.7 559,-169.7 465,-169.7"/>
<polygon fill="none" stroke="#000000" points="465,-169.7 465,-188.7 559,-188.7 559,-169.7 465,-169.7"/>
<text text-anchor="start" x="468" y="-175.8" font-family="Helvetica,sans-Serif" font-size="11.00" fill="#000000">&lt; 1</text>
<polygon fill="#ffffff" stroke="transparent" points="559,-169.7 559,-188.7 607,-188.7 607,-169.7 559,-169.7"/>
<polygon fill="none" stroke="#000000" points="559,-169.7 559,-188.7 607,-188.7 607,-169.7 559,-169.7"/>
<text text-anchor="start" x="597.8862" y="-175.8" font-family="Helvetica,sans-Serif" font-size="11.00" fill="#000000"> &#160;</text>
<polygon fill="#ffffff" stroke="transparent" points="607,-169.7 607,-188.7 656,-188.7 656,-169.7 607,-169.7"/>
<polygon fill="none" stroke="#000000" points="607,-169.7 607,-188.7 656,-188.7 656,-169.7 607,-169.7"/>
<text text-anchor="start" x="646.8862" y="-175.8" font-family="Helvetica,sans-Serif" font-size="11.00" fill="#000000"> &#160;</text>
</a>
</g>
</g>
<!-- perustiedot_manual_sync&#45;&gt;opiskeluoikeus -->
<g id="edge3" class="edge">
<title>perustiedot_manual_sync:w&#45;&gt;opiskeluoikeus:e</title>
<path fill="none" stroke="#000000" d="M450.6474,-200.5214C428.9252,-210.0877 426.4882,-240.7 396,-240.7"/>
<polygon fill="#000000" stroke="#000000" points="457.1502,-199.2431 465.6944,-201.2324 461.0751,-198.4716 465,-197.7 465,-197.7 465,-197.7 461.0751,-198.4716 464.3056,-194.1676 457.1502,-199.2431 457.1502,-199.2431"/>
<ellipse fill="none" stroke="#000000" cx="454.0103" cy="-199.8604" rx="3.2" ry="3.2"/>
</g>
<!-- perustiedot_sync -->
<g id="node5" class="node">
<title>perustiedot_sync</title>
<g id="a_node5"><a xlink:href="../../tables/perustiedot_sync.html" xlink:title="perustiedot_sync" target="_top">
<polygon fill="#ffffff" stroke="transparent" points="445,-252.7 445,-408.7 675,-408.7 675,-252.7 445,-252.7"/>
<polygon fill="#f5f5f5" stroke="transparent" points="447,-383.7 447,-406.7 673,-406.7 673,-383.7 447,-383.7"/>
<polygon fill="none" stroke="#000000" points="447,-383.7 447,-406.7 673,-406.7 673,-383.7 447,-383.7"/>
<text text-anchor="start" x="452" y="-392.3" font-family="Helvetica,sans-Serif" font-weight="bold" font-size="11.00" fill="#000000">perustiedot_sync</text>
<text text-anchor="start" x="638.0437" y="-391.8" font-family="Helvetica,sans-Serif" font-size="11.00" fill="#000000">[table]</text>
<polygon fill="none" stroke="#000000" points="447,-361.7 447,-383.7 574,-383.7 574,-361.7 447,-361.7"/>
<image xlink:href="../../images/primaryKeys.png" width="11px" height="12px" preserveAspectRatio="xMinYMin meet" x="452" y="-378.7"/>
<text text-anchor="start" x="467" y="-368.8" font-family="Helvetica,sans-Serif" font-size="11.00" fill="#000000">id</text>
<polygon fill="none" stroke="#000000" points="574,-361.7 574,-383.7 673,-383.7 673,-361.7 574,-361.7"/>
<text text-anchor="start" x="577" y="-369.4" font-family="Helvetica,sans-Serif" font-size="11.00" fill="#000000">serial[10]</text>
<polygon fill="none" stroke="#000000" points="447,-339.7 447,-361.7 574,-361.7 574,-339.7 447,-339.7"/>
<image xlink:href="../../images/foreignKeys.png" width="11px" height="12px" preserveAspectRatio="xMinYMin meet" x="452" y="-356.7"/>
<text text-anchor="start" x="467" y="-346.8" font-family="Helvetica,sans-Serif" font-size="11.00" fill="#000000">opiskeluoikeus_id</text>
<polygon fill="none" stroke="#000000" points="574,-339.7 574,-361.7 673,-361.7 673,-339.7 574,-339.7"/>
<text text-anchor="start" x="577" y="-347.4" font-family="Helvetica,sans-Serif" font-size="11.00" fill="#000000">int4[10]</text>
<polygon fill="none" stroke="#000000" points="447,-317.7 447,-339.7 574,-339.7 574,-317.7 447,-317.7"/>
<text text-anchor="start" x="467" y="-324.8" font-family="Helvetica,sans-Serif" font-size="11.00" fill="#000000">aikaleima</text>
<polygon fill="none" stroke="#000000" points="574,-317.7 574,-339.7 673,-339.7 673,-317.7 574,-317.7"/>
<text text-anchor="start" x="577" y="-325.4" font-family="Helvetica,sans-Serif" font-size="11.00" fill="#000000">timestamp[29,6]</text>
<polygon fill="none" stroke="#000000" points="447,-295.7 447,-317.7 574,-317.7 574,-295.7 447,-295.7"/>
<text text-anchor="start" x="467" y="-302.8" font-family="Helvetica,sans-Serif" font-size="11.00" fill="#000000">upsert</text>
<polygon fill="none" stroke="#000000" points="574,-295.7 574,-317.7 673,-317.7 673,-295.7 574,-295.7"/>
<text text-anchor="start" x="577" y="-303.4" font-family="Helvetica,sans-Serif" font-size="11.00" fill="#000000">bool[1]</text>
<polygon fill="none" stroke="#000000" points="447,-273.7 447,-295.7 574,-295.7 574,-273.7 447,-273.7"/>
<text text-anchor="start" x="467" y="-280.8" font-family="Helvetica,sans-Serif" font-size="11.00" fill="#000000">data</text>
<polygon fill="none" stroke="#000000" points="574,-273.7 574,-295.7 673,-295.7 673,-273.7 574,-273.7"/>
<text text-anchor="start" x="576.7258" y="-281.4" font-family="Helvetica,sans-Serif" font-size="11.00" fill="#000000">jsonb[2147483647]</text>
<polygon fill="#ffffff" stroke="transparent" points="447,-254.7 447,-273.7 515,-273.7 515,-254.7 447,-254.7"/>
<polygon fill="none" stroke="#000000" points="447,-254.7 447,-273.7 515,-273.7 515,-254.7 447,-254.7"/>
<text text-anchor="start" x="450" y="-260.8" font-family="Helvetica,sans-Serif" font-size="11.00" fill="#000000">&lt; 1</text>
<polygon fill="#ffffff" stroke="transparent" points="515,-254.7 515,-273.7 574,-273.7 574,-254.7 515,-254.7"/>
<polygon fill="none" stroke="#000000" points="515,-254.7 515,-273.7 574,-273.7 574,-254.7 515,-254.7"/>
<text text-anchor="start" x="564.8862" y="-260.8" font-family="Helvetica,sans-Serif" font-size="11.00" fill="#000000"> &#160;</text>
<polygon fill="#ffffff" stroke="transparent" points="574,-254.7 574,-273.7 673,-273.7 673,-254.7 574,-254.7"/>
<polygon fill="none" stroke="#000000" points="574,-254.7 574,-273.7 673,-273.7 673,-254.7 574,-254.7"/>
<text text-anchor="start" x="654.4053" y="-260.8" font-family="Helvetica,sans-Serif" font-size="11.00" fill="#000000">0 &gt;</text>
<polygon fill="none" stroke="#000000" stroke-width="2" points="446,-253.7 446,-407.7 674,-407.7 674,-253.7 446,-253.7"/>
</a>
</g>
</g>
<!-- perustiedot_sync&#45;&gt;opiskeluoikeus -->
<g id="edge4" class="edge">
<title>perustiedot_sync:w&#45;&gt;opiskeluoikeus:e</title>
<path fill="none" stroke="#000000" d="M432.276,-350.7C420.2815,-350.7 412.8229,-350.7 396,-350.7"/>
<polygon fill="#000000" stroke="#000000" points="439,-350.7001 447,-354.3 443,-350.7 447,-350.7 447,-350.7 447,-350.7 443,-350.7 447,-347.1 439,-350.7001 439,-350.7001"/>
<ellipse fill="none" stroke="#000000" cx="435.8" cy="-350.7001" rx="3.2" ry="3.2"/>
</g>
</g>
</svg>
