<?xml version="1.0" encoding="UTF-8" standalone="no"?>
<!DOCTYPE svg PUBLIC "-//W3C//DTD SVG 1.1//EN"
 "http://www.w3.org/Graphics/SVG/1.1/DTD/svg11.dtd">
<!-- Generated by graphviz version 2.40.1 (20161225.0304)
 -->
<!-- Title: oneDegreeRelationshipsDiagram Pages: 1 -->
<svg width="559pt" height="421pt"
 viewBox="0.00 0.00 559.00 420.70" xmlns="http://www.w3.org/2000/svg" xmlns:xlink="http://www.w3.org/1999/xlink">
<g id="graph0" class="graph" transform="scale(1 1) rotate(0) translate(4 416.7)">
<title>oneDegreeRelationshipsDiagram</title>
<polygon fill="#ffffff" stroke="transparent" points="-4,4 -4,-416.7 555,-416.7 555,4 -4,4"/>
<text text-anchor="middle" x="72.4936" y="-7.3" font-family="Helvetica,sans-Serif" font-size="11.00" fill="#000000">Generated by SchemaSpy</text>
<!-- perustiedot_sync -->
<g id="node1" class="node">
<title>perustiedot_sync</title>
<g id="a_node1"><a xlink:href="../../tables/perustiedot_sync.html" xlink:title="perustiedot_sync" target="_top">
<polygon fill="#ffffff" stroke="transparent" points="313,-252.7 313,-408.7 543,-408.7 543,-252.7 313,-252.7"/>
<polygon fill="#f5f5f5" stroke="transparent" points="315,-383.7 315,-406.7 541,-406.7 541,-383.7 315,-383.7"/>
<polygon fill="none" stroke="#000000" points="315,-383.7 315,-406.7 541,-406.7 541,-383.7 315,-383.7"/>
<text text-anchor="start" x="320" y="-392.3" font-family="Helvetica,sans-Serif" font-weight="bold" font-size="11.00" fill="#000000">perustiedot_sync</text>
<text text-anchor="start" x="506.0437" y="-391.8" font-family="Helvetica,sans-Serif" font-size="11.00" fill="#000000">[table]</text>
<polygon fill="none" stroke="#000000" points="315,-361.7 315,-383.7 442,-383.7 442,-361.7 315,-361.7"/>
<image xlink:href="../../images/primaryKeys.png" width="11px" height="12px" preserveAspectRatio="xMinYMin meet" x="320" y="-378.7"/>
<text text-anchor="start" x="335" y="-368.8" font-family="Helvetica,sans-Serif" font-size="11.00" fill="#000000">id</text>
<polygon fill="none" stroke="#000000" points="442,-361.7 442,-383.7 541,-383.7 541,-361.7 442,-361.7"/>
<text text-anchor="start" x="445" y="-369.4" font-family="Helvetica,sans-Serif" font-size="11.00" fill="#000000">serial[10]</text>
<polygon fill="none" stroke="#000000" points="315,-339.7 315,-361.7 442,-361.7 442,-339.7 315,-339.7"/>
<image xlink:href="../../images/foreignKeys.png" width="11px" height="12px" preserveAspectRatio="xMinYMin meet" x="320" y="-356.7"/>
<text text-anchor="start" x="335" y="-346.8" font-family="Helvetica,sans-Serif" font-size="11.00" fill="#000000">opiskeluoikeus_id</text>
<polygon fill="none" stroke="#000000" points="442,-339.7 442,-361.7 541,-361.7 541,-339.7 442,-339.7"/>
<text text-anchor="start" x="445" y="-347.4" font-family="Helvetica,sans-Serif" font-size="11.00" fill="#000000">int4[10]</text>
<polygon fill="none" stroke="#000000" points="315,-317.7 315,-339.7 442,-339.7 442,-317.7 315,-317.7"/>
<text text-anchor="start" x="335" y="-324.8" font-family="Helvetica,sans-Serif" font-size="11.00" fill="#000000">aikaleima</text>
<polygon fill="none" stroke="#000000" points="442,-317.7 442,-339.7 541,-339.7 541,-317.7 442,-317.7"/>
<text text-anchor="start" x="445" y="-325.4" font-family="Helvetica,sans-Serif" font-size="11.00" fill="#000000">timestamp[29,6]</text>
<polygon fill="none" stroke="#000000" points="315,-295.7 315,-317.7 442,-317.7 442,-295.7 315,-295.7"/>
<text text-anchor="start" x="335" y="-302.8" font-family="Helvetica,sans-Serif" font-size="11.00" fill="#000000">upsert</text>
<polygon fill="none" stroke="#000000" points="442,-295.7 442,-317.7 541,-317.7 541,-295.7 442,-295.7"/>
<text text-anchor="start" x="445" y="-303.4" font-family="Helvetica,sans-Serif" font-size="11.00" fill="#000000">bool[1]</text>
<polygon fill="none" stroke="#000000" points="315,-273.7 315,-295.7 442,-295.7 442,-273.7 315,-273.7"/>
<text text-anchor="start" x="335" y="-280.8" font-family="Helvetica,sans-Serif" font-size="11.00" fill="#000000">data</text>
<polygon fill="none" stroke="#000000" points="442,-273.7 442,-295.7 541,-295.7 541,-273.7 442,-273.7"/>
<text text-anchor="start" x="444.7258" y="-281.4" font-family="Helvetica,sans-Serif" font-size="11.00" fill="#000000">jsonb[2147483647]</text>
<polygon fill="#ffffff" stroke="transparent" points="315,-254.7 315,-273.7 370,-273.7 370,-254.7 315,-254.7"/>
<polygon fill="none" stroke="#000000" points="315,-254.7 315,-273.7 370,-273.7 370,-254.7 315,-254.7"/>
<text text-anchor="start" x="318" y="-260.8" font-family="Helvetica,sans-Serif" font-size="11.00" fill="#000000">&lt; 1</text>
<polygon fill="#ffffff" stroke="transparent" points="370,-254.7 370,-273.7 442,-273.7 442,-254.7 370,-254.7"/>
<polygon fill="none" stroke="#000000" points="370,-254.7 370,-273.7 442,-273.7 442,-254.7 370,-254.7"/>
<text text-anchor="start" x="406.6105" y="-260.8" font-family="Helvetica,sans-Serif" font-size="11.00" fill="#000000">0 rows</text>
<polygon fill="#ffffff" stroke="transparent" points="442,-254.7 442,-273.7 541,-273.7 541,-254.7 442,-254.7"/>
<polygon fill="none" stroke="#000000" points="442,-254.7 442,-273.7 541,-273.7 541,-254.7 442,-254.7"/>
<text text-anchor="start" x="522.4053" y="-260.8" font-family="Helvetica,sans-Serif" font-size="11.00" fill="#000000">0 &gt;</text>
<polygon fill="none" stroke="#000000" stroke-width="2" points="314,-253.7 314,-407.7 542,-407.7 542,-253.7 314,-253.7"/>
</a>
</g>
</g>
<!-- opiskeluoikeus -->
<g id="node2" class="node">
<title>opiskeluoikeus</title>
<g id="a_node2"><a xlink:href="../../tables/opiskeluoikeus.html" xlink:title="opiskeluoikeus" target="_top">
<polygon fill="#ffffff" stroke="transparent" points="8,-38.2 8,-385.2 264,-385.2 264,-38.2 8,-38.2"/>
<polygon fill="#f5f5f5" stroke="transparent" points="8,-361.7 8,-384.7 264,-384.7 264,-361.7 8,-361.7"/>
<polygon fill="none" stroke="#000000" points="8,-361.7 8,-384.7 264,-384.7 264,-361.7 8,-361.7"/>
<text text-anchor="start" x="13" y="-370.3" font-family="Helvetica,sans-Serif" font-weight="bold" font-size="11.00" fill="#000000">opiskeluoikeus</text>
<text text-anchor="start" x="229.0437" y="-369.8" font-family="Helvetica,sans-Serif" font-size="11.00" fill="#000000">[table]</text>
<polygon fill="none" stroke="#000000" points="8,-339.7 8,-361.7 264,-361.7 264,-339.7 8,-339.7"/>
<image xlink:href="../../images/primaryKeys.png" width="11px" height="12px" preserveAspectRatio="xMinYMin meet" x="13" y="-356.7"/>
<text text-anchor="start" x="28" y="-346.8" font-family="Helvetica,sans-Serif" font-size="11.00" fill="#000000">id</text>
<polygon fill="#ffffff" stroke="transparent" points="8,-317.7 8,-339.7 264,-339.7 264,-317.7 8,-317.7"/>
<polygon fill="none" stroke="#000000" points="8,-317.7 8,-339.7 264,-339.7 264,-317.7 8,-317.7"/>
<image xlink:href="../../images/foreignKeys.png" width="11px" height="12px" preserveAspectRatio="xMinYMin meet" x="13" y="-334.7"/>
<text text-anchor="start" x="28" y="-324.8" font-family="Helvetica,sans-Serif" font-size="11.00" fill="#000000">oppija_oid</text>
<polygon fill="#ffffff" stroke="transparent" points="8,-295.7 8,-317.7 264,-317.7 264,-295.7 8,-295.7"/>
<polygon fill="none" stroke="#000000" points="8,-295.7 8,-317.7 264,-317.7 264,-295.7 8,-295.7"/>
<text text-anchor="start" x="28" y="-302.8" font-family="Helvetica,sans-Serif" font-size="11.00" fill="#000000">aikaleima</text>
<polygon fill="#ffffff" stroke="transparent" points="8,-273.7 8,-295.7 264,-295.7 264,-273.7 8,-273.7"/>
<polygon fill="none" stroke="#000000" points="8,-273.7 8,-295.7 264,-295.7 264,-273.7 8,-273.7"/>
<text text-anchor="start" x="28" y="-280.8" font-family="Helvetica,sans-Serif" font-size="11.00" fill="#000000">oppilaitos_oid</text>
<polygon fill="#ffffff" stroke="transparent" points="8,-251.7 8,-273.7 264,-273.7 264,-251.7 8,-251.7"/>
<polygon fill="none" stroke="#000000" points="8,-251.7 8,-273.7 264,-273.7 264,-251.7 8,-251.7"/>
<text text-anchor="start" x="28" y="-258.8" font-family="Helvetica,sans-Serif" font-size="11.00" fill="#000000">sisaltava_opiskeluoikeus_oppilaitos_oid</text>
<polygon fill="#ffffff" stroke="transparent" points="8,-229.7 8,-251.7 264,-251.7 264,-229.7 8,-229.7"/>
<polygon fill="none" stroke="#000000" points="8,-229.7 8,-251.7 264,-251.7 264,-229.7 8,-229.7"/>
<text text-anchor="start" x="28" y="-236.8" font-family="Helvetica,sans-Serif" font-size="11.00" fill="#000000">oid</text>
<polygon fill="none" stroke="#000000" points="8,-207.7 8,-229.7 264,-229.7 264,-207.7 8,-207.7"/>
<image xlink:href="../../images/foreignKeys.png" width="11px" height="12px" preserveAspectRatio="xMinYMin meet" x="13" y="-224.7"/>
<text text-anchor="start" x="28" y="-214.8" font-family="Helvetica,sans-Serif" font-size="11.00" fill="#000000">sisaltava_opiskeluoikeus_oid</text>
<polygon fill="#ffffff" stroke="transparent" points="8,-185.7 8,-207.7 264,-207.7 264,-185.7 8,-185.7"/>
<polygon fill="none" stroke="#000000" points="8,-185.7 8,-207.7 264,-207.7 264,-185.7 8,-185.7"/>
<text text-anchor="start" x="28" y="-192.8" font-family="Helvetica,sans-Serif" font-size="11.00" fill="#000000">mitatoity</text>
<polygon fill="#ffffff" stroke="transparent" points="8,-163.7 8,-185.7 264,-185.7 264,-163.7 8,-163.7"/>
<polygon fill="none" stroke="#000000" points="8,-163.7 8,-185.7 264,-185.7 264,-163.7 8,-163.7"/>
<text text-anchor="start" x="28" y="-170.8" font-family="Helvetica,sans-Serif" font-size="11.00" fill="#000000">koulutusmuoto</text>
<polygon fill="#ffffff" stroke="transparent" points="8,-141.7 8,-163.7 264,-163.7 264,-141.7 8,-141.7"/>
<polygon fill="none" stroke="#000000" points="8,-141.7 8,-163.7 264,-163.7 264,-141.7 8,-141.7"/>
<text text-anchor="start" x="28" y="-148.8" font-family="Helvetica,sans-Serif" font-size="11.00" fill="#000000">alkamispaiva</text>
<polygon fill="#ffffff" stroke="transparent" points="8,-119.7 8,-141.7 264,-141.7 264,-119.7 8,-119.7"/>
<polygon fill="none" stroke="#000000" points="8,-119.7 8,-141.7 264,-141.7 264,-119.7 8,-119.7"/>
<text text-anchor="start" x="28" y="-126.8" font-family="Helvetica,sans-Serif" font-size="11.00" fill="#000000">paattymispaiva</text>
<polygon fill="#ffffff" stroke="transparent" points="8,-97.7 8,-119.7 264,-119.7 264,-97.7 8,-97.7"/>
<polygon fill="none" stroke="#000000" points="8,-97.7 8,-119.7 264,-119.7 264,-97.7 8,-97.7"/>
<text text-anchor="start" x="28" y="-104.8" font-family="Helvetica,sans-Serif" font-size="11.00" fill="#000000">suoritustyypit</text>
<polygon fill="#ffffff" stroke="transparent" points="8,-75.7 8,-97.7 264,-97.7 264,-75.7 8,-75.7"/>
<polygon fill="none" stroke="#000000" points="8,-75.7 8,-97.7 264,-97.7 264,-75.7 8,-75.7"/>
<text text-anchor="start" x="28" y="-82.8" font-family="Helvetica,sans-Serif" font-size="11.00" fill="#000000">poistettu</text>
<polygon fill="none" stroke="#000000" points="8,-56.7 8,-75.7 264,-75.7 264,-56.7 8,-56.7"/>
<text text-anchor="start" x="11" y="-62.8" font-family="Helvetica,sans-Serif" font-size="11.00" fill="#000000">...</text>
<polygon fill="#ffffff" stroke="transparent" points="8,-37.7 8,-56.7 111,-56.7 111,-37.7 8,-37.7"/>
<polygon fill="none" stroke="#000000" points="8,-37.7 8,-56.7 111,-56.7 111,-37.7 8,-37.7"/>
<text text-anchor="start" x="11" y="-43.8" font-family="Helvetica,sans-Serif" font-size="11.00" fill="#000000">&lt; 2</text>
<polygon fill="#ffffff" stroke="transparent" points="111,-37.7 111,-56.7 202,-56.7 202,-37.7 111,-37.7"/>
<polygon fill="none" stroke="#000000" points="111,-37.7 111,-56.7 202,-56.7 202,-37.7 111,-37.7"/>
<text text-anchor="start" x="154.3807" y="-43.8" font-family="Helvetica,sans-Serif" font-size="11.00" fill="#000000">186 rows</text>
<polygon fill="#ffffff" stroke="transparent" points="202,-37.7 202,-56.7 264,-56.7 264,-37.7 202,-37.7"/>
<polygon fill="none" stroke="#000000" points="202,-37.7 202,-56.7 264,-56.7 264,-37.7 202,-37.7"/>
<text text-anchor="start" x="245.4053" y="-43.8" font-family="Helvetica,sans-Serif" font-size="11.00" fill="#000000">4 &gt;</text>
</a>
</g>
</g>
<!-- perustiedot_sync&#45;&gt;opiskeluoikeus -->
<g id="edge1" class="edge">
<title>perustiedot_sync:w&#45;&gt;opiskeluoikeus:e</title>
<path fill="none" stroke="#000000" d="M300.276,-350.7C288.2815,-350.7 280.8229,-350.7 264,-350.7"/>
<polygon fill="#000000" stroke="#000000" points="307,-350.7001 315,-354.3 311,-350.7 315,-350.7 315,-350.7 315,-350.7 311,-350.7 315,-347.1 307,-350.7001 307,-350.7001"/>
<ellipse fill="none" stroke="#000000" cx="303.8" cy="-350.7001" rx="3.2" ry="3.2"/>
</g>
</g>
</svg>
