<?xml version="1.0" encoding="UTF-8" standalone="no"?>
<!DOCTYPE svg PUBLIC "-//W3C//DTD SVG 1.1//EN"
 "http://www.w3.org/Graphics/SVG/1.1/DTD/svg11.dtd">
<!-- Generated by graphviz version 2.40.1 (20161225.0304)
 -->
<!-- Title: oneDegreeRelationshipsDiagramImplied Pages: 1 -->
<svg width="452pt" height="227pt"
 viewBox="0.00 0.00 452.00 226.70" xmlns="http://www.w3.org/2000/svg" xmlns:xlink="http://www.w3.org/1999/xlink">
<g id="graph0" class="graph" transform="scale(1 1) rotate(0) translate(4 222.7)">
<title>oneDegreeRelationshipsDiagramImplied</title>
<polygon fill="#ffffff" stroke="transparent" points="-4,4 -4,-222.7 448,-222.7 448,4 -4,4"/>
<text text-anchor="middle" x="72.4936" y="-7.3" font-family="Helvetica,sans-Serif" font-size="11.00" fill="#000000">Generated by SchemaSpy</text>
<!-- casserviceticket -->
<g id="node1" class="node">
<title>casserviceticket</title>
<g id="a_node1"><a xlink:href="../../tables/casserviceticket.html" xlink:title="casserviceticket" target="_top">
<polygon fill="#ffffff" stroke="transparent" points="256,-87.7 256,-214.7 436,-214.7 436,-87.7 256,-87.7"/>
<polygon fill="#f5f5f5" stroke="transparent" points="256,-191.2 256,-214.2 436,-214.2 436,-191.2 256,-191.2"/>
<polygon fill="none" stroke="#000000" points="256,-191.2 256,-214.2 436,-214.2 436,-191.2 256,-191.2"/>
<text text-anchor="start" x="261" y="-199.8" font-family="Helvetica,sans-Serif" font-weight="bold" font-size="11.00" fill="#000000">casserviceticket</text>
<text text-anchor="start" x="401.0437" y="-199.3" font-family="Helvetica,sans-Serif" font-size="11.00" fill="#000000">[table]</text>
<polygon fill="none" stroke="#000000" points="256,-169.2 256,-191.2 436,-191.2 436,-169.2 256,-169.2"/>
<image xlink:href="../../images/primaryKeys.png" width="11px" height="12px" preserveAspectRatio="xMinYMin meet" x="261" y="-186.2"/>
<text text-anchor="start" x="276" y="-176.3" font-family="Helvetica,sans-Serif" font-size="11.00" fill="#000000">serviceticket</text>
<polygon fill="none" stroke="#000000" points="256,-147.2 256,-169.2 436,-169.2 436,-147.2 256,-147.2"/>
<image xlink:href="../../images/foreignKeys.png" width="11px" height="12px" preserveAspectRatio="xMinYMin meet" x="261" y="-164.2"/>
<text text-anchor="start" x="276" y="-154.3" font-family="Helvetica,sans-Serif" font-size="11.00" fill="#000000">username</text>
<polygon fill="none" stroke="#000000" points="256,-125.2 256,-147.2 436,-147.2 436,-125.2 256,-125.2"/>
<image xlink:href="../../images/foreignKeys.png" width="11px" height="12px" preserveAspectRatio="xMinYMin meet" x="261" y="-142.2"/>
<text text-anchor="start" x="276" y="-132.3" font-family="Helvetica,sans-Serif" font-size="11.00" fill="#000000">name</text>
<polygon fill="none" stroke="#000000" points="256,-106.2 256,-125.2 436,-125.2 436,-106.2 256,-106.2"/>
<text text-anchor="start" x="259" y="-112.3" font-family="Helvetica,sans-Serif" font-size="11.00" fill="#000000">...</text>
<polygon fill="#ffffff" stroke="transparent" points="256,-87.2 256,-106.2 325,-106.2 325,-87.2 256,-87.2"/>
<polygon fill="none" stroke="#000000" points="256,-87.2 256,-106.2 325,-106.2 325,-87.2 256,-87.2"/>
<text text-anchor="start" x="259" y="-93.3" font-family="Helvetica,sans-Serif" font-size="11.00" fill="#000000">&lt; 2</text>
<polygon fill="#ffffff" stroke="transparent" points="325,-87.2 325,-106.2 399,-106.2 399,-87.2 325,-87.2"/>
<polygon fill="none" stroke="#000000" points="325,-87.2 325,-106.2 399,-106.2 399,-87.2 325,-87.2"/>
<text text-anchor="start" x="351.3807" y="-93.3" font-family="Helvetica,sans-Serif" font-size="11.00" fill="#000000">232 rows</text>
<polygon fill="#ffffff" stroke="transparent" points="399,-87.2 399,-106.2 436,-106.2 436,-87.2 399,-87.2"/>
<polygon fill="none" stroke="#000000" points="399,-87.2 399,-106.2 436,-106.2 436,-87.2 399,-87.2"/>
<text text-anchor="start" x="426.8862" y="-93.3" font-family="Helvetica,sans-Serif" font-size="11.00" fill="#000000"> &#160;</text>
</a>
</g>
</g>
<!-- scheduler -->
<g id="node2" class="node">
<title>scheduler</title>
<g id="a_node2"><a xlink:href="../../tables/scheduler.html" xlink:title="scheduler" target="_top">
<polygon fill="#ffffff" stroke="transparent" points="8,-38.2 8,-172.2 207,-172.2 207,-38.2 8,-38.2"/>
<polygon fill="#f5f5f5" stroke="transparent" points="10.5,-147.2 10.5,-170.2 205.5,-170.2 205.5,-147.2 10.5,-147.2"/>
<polygon fill="none" stroke="#000000" points="10.5,-147.2 10.5,-170.2 205.5,-170.2 205.5,-147.2 10.5,-147.2"/>
<text text-anchor="start" x="15.5" y="-155.8" font-family="Helvetica,sans-Serif" font-weight="bold" font-size="11.00" fill="#000000">scheduler</text>
<text text-anchor="start" x="170.5437" y="-155.3" font-family="Helvetica,sans-Serif" font-size="11.00" fill="#000000">[table]</text>
<polygon fill="none" stroke="#000000" points="10.5,-125.2 10.5,-147.2 106.5,-147.2 106.5,-125.2 10.5,-125.2"/>
<image xlink:href="../../images/primaryKeys.png" width="11px" height="12px" preserveAspectRatio="xMinYMin meet" x="15.5" y="-142.2"/>
<text text-anchor="start" x="30.5" y="-132.3" font-family="Helvetica,sans-Serif" font-size="11.00" fill="#000000">name</text>
<polygon fill="none" stroke="#000000" points="106.5,-125.2 106.5,-147.2 205.5,-147.2 205.5,-125.2 106.5,-125.2"/>
<text text-anchor="start" x="109.5" y="-132.9" font-family="Helvetica,sans-Serif" font-size="11.00" fill="#000000">text[2147483647]</text>
<polygon fill="none" stroke="#000000" points="10.5,-103.2 10.5,-125.2 106.5,-125.2 106.5,-103.2 10.5,-103.2"/>
<text text-anchor="start" x="30.5" y="-110.3" font-family="Helvetica,sans-Serif" font-size="11.00" fill="#000000">nextfiretime</text>
<polygon fill="none" stroke="#000000" points="106.5,-103.2 106.5,-125.2 205.5,-125.2 205.5,-103.2 106.5,-103.2"/>
<text text-anchor="start" x="109.5" y="-110.9" font-family="Helvetica,sans-Serif" font-size="11.00" fill="#000000">timestamp[29,6]</text>
<polygon fill="none" stroke="#000000" points="10.5,-81.2 10.5,-103.2 106.5,-103.2 106.5,-81.2 10.5,-81.2"/>
<text text-anchor="start" x="30.5" y="-88.3" font-family="Helvetica,sans-Serif" font-size="11.00" fill="#000000">context</text>
<polygon fill="none" stroke="#000000" points="106.5,-81.2 106.5,-103.2 205.5,-103.2 205.5,-81.2 106.5,-81.2"/>
<text text-anchor="start" x="109.2258" y="-88.9" font-family="Helvetica,sans-Serif" font-size="11.00" fill="#000000">jsonb[2147483647]</text>
<polygon fill="none" stroke="#000000" points="10.5,-59.2 10.5,-81.2 106.5,-81.2 106.5,-59.2 10.5,-59.2"/>
<text text-anchor="start" x="30.5" y="-66.3" font-family="Helvetica,sans-Serif" font-size="11.00" fill="#000000">status</text>
<polygon fill="none" stroke="#000000" points="106.5,-59.2 106.5,-81.2 205.5,-81.2 205.5,-59.2 106.5,-59.2"/>
<text text-anchor="start" x="109.5" y="-66.9" font-family="Helvetica,sans-Serif" font-size="11.00" fill="#000000">int4[10]</text>
<polygon fill="#ffffff" stroke="transparent" points="10.5,-40.2 10.5,-59.2 49.5,-59.2 49.5,-40.2 10.5,-40.2"/>
<polygon fill="none" stroke="#000000" points="10.5,-40.2 10.5,-59.2 49.5,-59.2 49.5,-40.2 10.5,-40.2"/>
<text text-anchor="start" x="13.5" y="-46.3" font-family="Helvetica,sans-Serif" font-size="11.00" fill="#000000">&lt; 0</text>
<polygon fill="#ffffff" stroke="transparent" points="49.5,-40.2 49.5,-59.2 106.5,-59.2 106.5,-40.2 49.5,-40.2"/>
<polygon fill="none" stroke="#000000" points="49.5,-40.2 49.5,-59.2 106.5,-59.2 106.5,-40.2 49.5,-40.2"/>
<text text-anchor="start" x="71.1105" y="-46.3" font-family="Helvetica,sans-Serif" font-size="11.00" fill="#000000">7 rows</text>
<polygon fill="#ffffff" stroke="transparent" points="106.5,-40.2 106.5,-59.2 205.5,-59.2 205.5,-40.2 106.5,-40.2"/>
<polygon fill="none" stroke="#000000" points="106.5,-40.2 106.5,-59.2 205.5,-59.2 205.5,-40.2 106.5,-40.2"/>
<text text-anchor="start" x="186.9053" y="-46.3" font-family="Helvetica,sans-Serif" font-size="11.00" fill="#000000">1 &gt;</text>
<polygon fill="none" stroke="#000000" stroke-width="2" points="9,-39.2 9,-171.2 206,-171.2 206,-39.2 9,-39.2"/>
</a>
</g>
</g>
<!-- casserviceticket&#45;&gt;scheduler -->
<g id="edge1" class="edge">
<title>casserviceticket:w&#45;&gt;scheduler:e</title>
<path fill="none" stroke="#000000" stroke-dasharray="5,2" d="M241.4203,-136.2C229.5435,-136.2 222.158,-136.2 205.5,-136.2"/>
<polygon fill="#000000" stroke="#000000" points="248,-136.2001 256,-139.8 252,-136.2 256,-136.2 256,-136.2 256,-136.2 252,-136.2 256,-132.6 248,-136.2001 248,-136.2001"/>
<ellipse fill="none" stroke="#000000" cx="244.8" cy="-136.2001" rx="3.2" ry="3.2"/>
</g>
</g>
</svg>
