<?xml version="1.0" encoding="UTF-8" standalone="no"?>
<!DOCTYPE svg PUBLIC "-//W3C//DTD SVG 1.1//EN"
 "http://www.w3.org/Graphics/SVG/1.1/DTD/svg11.dtd">
<!-- Generated by graphviz version 2.40.1 (20161225.0304)
 -->
<!-- Title: oneDegreeRelationshipsDiagramImplied Pages: 1 -->
<svg width="481pt" height="205pt"
 viewBox="0.00 0.00 481.00 204.70" xmlns="http://www.w3.org/2000/svg" xmlns:xlink="http://www.w3.org/1999/xlink">
<g id="graph0" class="graph" transform="scale(1 1) rotate(0) translate(4 200.7)">
<title>oneDegreeRelationshipsDiagramImplied</title>
<polygon fill="#ffffff" stroke="transparent" points="-4,4 -4,-200.7 477,-200.7 477,4 -4,4"/>
<text text-anchor="middle" x="72.4936" y="-7.3" font-family="Helvetica,sans-Serif" font-size="11.00" fill="#000000">Generated by SchemaSpy</text>
<!-- casserviceticket -->
<g id="node1" class="node">
<title>casserviceticket</title>
<g id="a_node1"><a xlink:href="../../tables/casserviceticket.html" xlink:title="casserviceticket" target="_top">
<polygon fill="#ffffff" stroke="transparent" points="265,-65.7 265,-192.7 465,-192.7 465,-65.7 265,-65.7"/>
<polygon fill="#f5f5f5" stroke="transparent" points="265,-169.2 265,-192.2 465,-192.2 465,-169.2 265,-169.2"/>
<polygon fill="none" stroke="#000000" points="265,-169.2 265,-192.2 465,-192.2 465,-169.2 265,-169.2"/>
<text text-anchor="start" x="270" y="-177.8" font-family="Helvetica,sans-Serif" font-weight="bold" font-size="11.00" fill="#000000">casserviceticket</text>
<text text-anchor="start" x="430.0437" y="-177.3" font-family="Helvetica,sans-Serif" font-size="11.00" fill="#000000">[table]</text>
<polygon fill="none" stroke="#000000" points="265,-147.2 265,-169.2 465,-169.2 465,-147.2 265,-147.2"/>
<image xlink:href="../../images/primaryKeys.png" width="11px" height="12px" preserveAspectRatio="xMinYMin meet" x="270" y="-164.2"/>
<text text-anchor="start" x="285" y="-154.3" font-family="Helvetica,sans-Serif" font-size="11.00" fill="#000000">serviceticket</text>
<polygon fill="none" stroke="#000000" points="265,-125.2 265,-147.2 465,-147.2 465,-125.2 265,-125.2"/>
<image xlink:href="../../images/foreignKeys.png" width="11px" height="12px" preserveAspectRatio="xMinYMin meet" x="270" y="-142.2"/>
<text text-anchor="start" x="285" y="-132.3" font-family="Helvetica,sans-Serif" font-size="11.00" fill="#000000">username</text>
<polygon fill="none" stroke="#000000" points="265,-103.2 265,-125.2 465,-125.2 465,-103.2 265,-103.2"/>
<image xlink:href="../../images/foreignKeys.png" width="11px" height="12px" preserveAspectRatio="xMinYMin meet" x="270" y="-120.2"/>
<text text-anchor="start" x="285" y="-110.3" font-family="Helvetica,sans-Serif" font-size="11.00" fill="#000000">name</text>
<polygon fill="none" stroke="#000000" points="265,-84.2 265,-103.2 465,-103.2 465,-84.2 265,-84.2"/>
<text text-anchor="start" x="268" y="-90.3" font-family="Helvetica,sans-Serif" font-size="11.00" fill="#000000">...</text>
<polygon fill="#ffffff" stroke="transparent" points="265,-65.2 265,-84.2 347,-84.2 347,-65.2 265,-65.2"/>
<polygon fill="none" stroke="#000000" points="265,-65.2 265,-84.2 347,-84.2 347,-65.2 265,-65.2"/>
<text text-anchor="start" x="268" y="-71.3" font-family="Helvetica,sans-Serif" font-size="11.00" fill="#000000">&lt; 2</text>
<polygon fill="#ffffff" stroke="transparent" points="347,-65.2 347,-84.2 422,-84.2 422,-65.2 347,-65.2"/>
<polygon fill="none" stroke="#000000" points="347,-65.2 347,-84.2 422,-84.2 422,-65.2 347,-65.2"/>
<text text-anchor="start" x="380.4956" y="-71.3" font-family="Helvetica,sans-Serif" font-size="11.00" fill="#000000">64 rows</text>
<polygon fill="#ffffff" stroke="transparent" points="422,-65.2 422,-84.2 465,-84.2 465,-65.2 422,-65.2"/>
<polygon fill="none" stroke="#000000" points="422,-65.2 422,-84.2 465,-84.2 465,-65.2 422,-65.2"/>
<text text-anchor="start" x="455.8862" y="-71.3" font-family="Helvetica,sans-Serif" font-size="11.00" fill="#000000"> &#160;</text>
</a>
</g>
</g>
<!-- scheduler -->
<g id="node2" class="node">
<title>scheduler</title>
<g id="a_node2"><a xlink:href="../../tables/scheduler.html" xlink:title="scheduler" target="_top">
<polygon fill="#ffffff" stroke="transparent" points="8,-38.2 8,-150.2 216,-150.2 216,-38.2 8,-38.2"/>
<polygon fill="#f5f5f5" stroke="transparent" points="10,-125.2 10,-148.2 214,-148.2 214,-125.2 10,-125.2"/>
<polygon fill="none" stroke="#000000" points="10,-125.2 10,-148.2 214,-148.2 214,-125.2 10,-125.2"/>
<text text-anchor="start" x="15" y="-133.8" font-family="Helvetica,sans-Serif" font-weight="bold" font-size="11.00" fill="#000000">scheduler</text>
<text text-anchor="start" x="179.0437" y="-133.3" font-family="Helvetica,sans-Serif" font-size="11.00" fill="#000000">[table]</text>
<polygon fill="none" stroke="#000000" points="10,-103.2 10,-125.2 115,-125.2 115,-103.2 10,-103.2"/>
<image xlink:href="../../images/primaryKeys.png" width="11px" height="12px" preserveAspectRatio="xMinYMin meet" x="15" y="-120.2"/>
<text text-anchor="start" x="30" y="-110.3" font-family="Helvetica,sans-Serif" font-size="11.00" fill="#000000">name</text>
<polygon fill="none" stroke="#000000" points="115,-103.2 115,-125.2 214,-125.2 214,-103.2 115,-103.2"/>
<text text-anchor="start" x="118" y="-110.9" font-family="Helvetica,sans-Serif" font-size="11.00" fill="#000000">text[2147483647]</text>
<polygon fill="none" stroke="#000000" points="10,-81.2 10,-103.2 115,-103.2 115,-81.2 10,-81.2"/>
<text text-anchor="start" x="30" y="-88.3" font-family="Helvetica,sans-Serif" font-size="11.00" fill="#000000">nextfiretime</text>
<polygon fill="none" stroke="#000000" points="115,-81.2 115,-103.2 214,-103.2 214,-81.2 115,-81.2"/>
<text text-anchor="start" x="118" y="-88.9" font-family="Helvetica,sans-Serif" font-size="11.00" fill="#000000">timestamp[29,6]</text>
<polygon fill="none" stroke="#000000" points="10,-59.2 10,-81.2 115,-81.2 115,-59.2 10,-59.2"/>
<text text-anchor="start" x="30" y="-66.3" font-family="Helvetica,sans-Serif" font-size="11.00" fill="#000000">context</text>
<polygon fill="none" stroke="#000000" points="115,-59.2 115,-81.2 214,-81.2 214,-59.2 115,-59.2"/>
<text text-anchor="start" x="117.7258" y="-66.9" font-family="Helvetica,sans-Serif" font-size="11.00" fill="#000000">jsonb[2147483647]</text>
<polygon fill="#ffffff" stroke="transparent" points="10,-40.2 10,-59.2 54,-59.2 54,-40.2 10,-40.2"/>
<polygon fill="none" stroke="#000000" points="10,-40.2 10,-59.2 54,-59.2 54,-40.2 10,-40.2"/>
<text text-anchor="start" x="13" y="-46.3" font-family="Helvetica,sans-Serif" font-size="11.00" fill="#000000">&lt; 0</text>
<polygon fill="#ffffff" stroke="transparent" points="54,-40.2 54,-59.2 115,-59.2 115,-40.2 54,-40.2"/>
<polygon fill="none" stroke="#000000" points="54,-40.2 54,-59.2 115,-59.2 115,-40.2 54,-40.2"/>
<text text-anchor="start" x="79.6105" y="-46.3" font-family="Helvetica,sans-Serif" font-size="11.00" fill="#000000">6 rows</text>
<polygon fill="#ffffff" stroke="transparent" points="115,-40.2 115,-59.2 214,-59.2 214,-40.2 115,-40.2"/>
<polygon fill="none" stroke="#000000" points="115,-40.2 115,-59.2 214,-59.2 214,-40.2 115,-40.2"/>
<text text-anchor="start" x="195.4053" y="-46.3" font-family="Helvetica,sans-Serif" font-size="11.00" fill="#000000">1 &gt;</text>
<polygon fill="none" stroke="#000000" stroke-width="2" points="9,-39.2 9,-149.2 215,-149.2 215,-39.2 9,-39.2"/>
</a>
</g>
</g>
<!-- casserviceticket&#45;&gt;scheduler -->
<g id="edge1" class="edge">
<title>casserviceticket:w&#45;&gt;scheduler:e</title>
<path fill="none" stroke="#000000" stroke-dasharray="5,2" d="M250.276,-114.2C238.2815,-114.2 230.8229,-114.2 214,-114.2"/>
<polygon fill="#000000" stroke="#000000" points="257,-114.2001 265,-117.8 261,-114.2 265,-114.2 265,-114.2 265,-114.2 261,-114.2 265,-110.6 257,-114.2001 257,-114.2001"/>
<ellipse fill="none" stroke="#000000" cx="253.8" cy="-114.2001" rx="3.2" ry="3.2"/>
</g>
</g>
</svg>
