<?xml version="1.0" encoding="UTF-8" standalone="no"?>
<!DOCTYPE svg PUBLIC "-//W3C//DTD SVG 1.1//EN"
 "http://www.w3.org/Graphics/SVG/1.1/DTD/svg11.dtd">
<!-- Generated by graphviz version 2.40.1 (20161225.0304)
 -->
<!-- Title: twoDegreesRelationshipsDiagramImplied Pages: 1 -->
<svg width="438pt" height="245pt"
 viewBox="0.00 0.00 438.00 244.70" xmlns="http://www.w3.org/2000/svg" xmlns:xlink="http://www.w3.org/1999/xlink">
<g id="graph0" class="graph" transform="scale(1 1) rotate(0) translate(4 240.7)">
<title>twoDegreesRelationshipsDiagramImplied</title>
<polygon fill="#ffffff" stroke="transparent" points="-4,4 -4,-240.7 434,-240.7 434,4 -4,4"/>
<text text-anchor="middle" x="72.4936" y="-7.3" font-family="Helvetica,sans-Serif" font-size="11.00" fill="#000000">Generated by SchemaSpy</text>
<!-- casserviceticket -->
<g id="node1" class="node">
<title>casserviceticket</title>
<g id="a_node1"><a xlink:href="../../tables/casserviceticket.html" xlink:title="casserviceticket" target="_top">
<polygon fill="#ffffff" stroke="transparent" points="249,-96.7 249,-223.7 422,-223.7 422,-96.7 249,-96.7"/>
<polygon fill="#f5f5f5" stroke="transparent" points="249.5,-200.2 249.5,-223.2 422.5,-223.2 422.5,-200.2 249.5,-200.2"/>
<polygon fill="none" stroke="#000000" points="249.5,-200.2 249.5,-223.2 422.5,-223.2 422.5,-200.2 249.5,-200.2"/>
<text text-anchor="start" x="254.5" y="-208.8" font-family="Helvetica,sans-Serif" font-weight="bold" font-size="11.00" fill="#000000">casserviceticket</text>
<text text-anchor="start" x="387.5437" y="-208.3" font-family="Helvetica,sans-Serif" font-size="11.00" fill="#000000">[table]</text>
<polygon fill="none" stroke="#000000" points="249.5,-178.2 249.5,-200.2 422.5,-200.2 422.5,-178.2 249.5,-178.2"/>
<image xlink:href="../../images/primaryKeys.png" width="11px" height="12px" preserveAspectRatio="xMinYMin meet" x="254.5" y="-195.2"/>
<text text-anchor="start" x="269.5" y="-185.3" font-family="Helvetica,sans-Serif" font-size="11.00" fill="#000000">serviceticket</text>
<polygon fill="none" stroke="#000000" points="249.5,-156.2 249.5,-178.2 422.5,-178.2 422.5,-156.2 249.5,-156.2"/>
<image xlink:href="../../images/foreignKeys.png" width="11px" height="12px" preserveAspectRatio="xMinYMin meet" x="254.5" y="-173.2"/>
<text text-anchor="start" x="269.5" y="-163.3" font-family="Helvetica,sans-Serif" font-size="11.00" fill="#000000">username</text>
<polygon fill="none" stroke="#000000" points="249.5,-134.2 249.5,-156.2 422.5,-156.2 422.5,-134.2 249.5,-134.2"/>
<image xlink:href="../../images/foreignKeys.png" width="11px" height="12px" preserveAspectRatio="xMinYMin meet" x="254.5" y="-151.2"/>
<text text-anchor="start" x="269.5" y="-141.3" font-family="Helvetica,sans-Serif" font-size="11.00" fill="#000000">name</text>
<polygon fill="none" stroke="#000000" points="249.5,-115.2 249.5,-134.2 422.5,-134.2 422.5,-115.2 249.5,-115.2"/>
<text text-anchor="start" x="252.5" y="-121.3" font-family="Helvetica,sans-Serif" font-size="11.00" fill="#000000">...</text>
<polygon fill="#ffffff" stroke="transparent" points="249.5,-96.2 249.5,-115.2 310.5,-115.2 310.5,-96.2 249.5,-96.2"/>
<polygon fill="none" stroke="#000000" points="249.5,-96.2 249.5,-115.2 310.5,-115.2 310.5,-96.2 249.5,-96.2"/>
<text text-anchor="start" x="252.5" y="-102.3" font-family="Helvetica,sans-Serif" font-size="11.00" fill="#000000">&lt; 2</text>
<polygon fill="#ffffff" stroke="transparent" points="310.5,-96.2 310.5,-115.2 389.5,-115.2 389.5,-96.2 310.5,-96.2"/>
<polygon fill="none" stroke="#000000" points="310.5,-96.2 310.5,-115.2 389.5,-115.2 389.5,-96.2 310.5,-96.2"/>
<text text-anchor="start" x="332.7089" y="-102.3" font-family="Helvetica,sans-Serif" font-size="11.00" fill="#000000">1,589 rows</text>
<polygon fill="#ffffff" stroke="transparent" points="389.5,-96.2 389.5,-115.2 422.5,-115.2 422.5,-96.2 389.5,-96.2"/>
<polygon fill="none" stroke="#000000" points="389.5,-96.2 389.5,-115.2 422.5,-115.2 422.5,-96.2 389.5,-96.2"/>
<text text-anchor="start" x="413.3862" y="-102.3" font-family="Helvetica,sans-Serif" font-size="11.00" fill="#000000"> &#160;</text>
</a>
</g>
</g>
<!-- scheduler -->
<g id="node2" class="node">
<title>scheduler</title>
<g id="a_node2"><a xlink:href="../../tables/scheduler.html" xlink:title="scheduler" target="_top">
<polygon fill="#ffffff" stroke="transparent" points="8,-38.2 8,-150.2 200,-150.2 200,-38.2 8,-38.2"/>
<polygon fill="#f5f5f5" stroke="transparent" points="10,-125.2 10,-148.2 198,-148.2 198,-125.2 10,-125.2"/>
<polygon fill="none" stroke="#000000" points="10,-125.2 10,-148.2 198,-148.2 198,-125.2 10,-125.2"/>
<text text-anchor="start" x="15" y="-133.8" font-family="Helvetica,sans-Serif" font-weight="bold" font-size="11.00" fill="#000000">scheduler</text>
<text text-anchor="start" x="163.0437" y="-133.3" font-family="Helvetica,sans-Serif" font-size="11.00" fill="#000000">[table]</text>
<polygon fill="none" stroke="#000000" points="10,-103.2 10,-125.2 99,-125.2 99,-103.2 10,-103.2"/>
<image xlink:href="../../images/primaryKeys.png" width="11px" height="12px" preserveAspectRatio="xMinYMin meet" x="15" y="-120.2"/>
<text text-anchor="start" x="30" y="-110.3" font-family="Helvetica,sans-Serif" font-size="11.00" fill="#000000">name</text>
<polygon fill="none" stroke="#000000" points="99,-103.2 99,-125.2 198,-125.2 198,-103.2 99,-103.2"/>
<text text-anchor="start" x="102" y="-110.9" font-family="Helvetica,sans-Serif" font-size="11.00" fill="#000000">text[2147483647]</text>
<polygon fill="none" stroke="#000000" points="10,-81.2 10,-103.2 99,-103.2 99,-81.2 10,-81.2"/>
<text text-anchor="start" x="30" y="-88.3" font-family="Helvetica,sans-Serif" font-size="11.00" fill="#000000">nextfiretime</text>
<polygon fill="none" stroke="#000000" points="99,-81.2 99,-103.2 198,-103.2 198,-81.2 99,-81.2"/>
<text text-anchor="start" x="102" y="-88.9" font-family="Helvetica,sans-Serif" font-size="11.00" fill="#000000">timestamp[29,6]</text>
<polygon fill="none" stroke="#000000" points="10,-59.2 10,-81.2 99,-81.2 99,-59.2 10,-59.2"/>
<text text-anchor="start" x="30" y="-66.3" font-family="Helvetica,sans-Serif" font-size="11.00" fill="#000000">context</text>
<polygon fill="none" stroke="#000000" points="99,-59.2 99,-81.2 198,-81.2 198,-59.2 99,-59.2"/>
<text text-anchor="start" x="101.7258" y="-66.9" font-family="Helvetica,sans-Serif" font-size="11.00" fill="#000000">jsonb[2147483647]</text>
<polygon fill="#ffffff" stroke="transparent" points="10,-40.2 10,-59.2 46,-59.2 46,-40.2 10,-40.2"/>
<polygon fill="none" stroke="#000000" points="10,-40.2 10,-59.2 46,-59.2 46,-40.2 10,-40.2"/>
<text text-anchor="start" x="13" y="-46.3" font-family="Helvetica,sans-Serif" font-size="11.00" fill="#000000">&lt; 0</text>
<polygon fill="#ffffff" stroke="transparent" points="46,-40.2 46,-59.2 99,-59.2 99,-40.2 46,-40.2"/>
<polygon fill="none" stroke="#000000" points="46,-40.2 46,-59.2 99,-59.2 99,-40.2 46,-40.2"/>
<text text-anchor="start" x="63.6105" y="-46.3" font-family="Helvetica,sans-Serif" font-size="11.00" fill="#000000">9 rows</text>
<polygon fill="#ffffff" stroke="transparent" points="99,-40.2 99,-59.2 198,-59.2 198,-40.2 99,-40.2"/>
<polygon fill="none" stroke="#000000" points="99,-40.2 99,-59.2 198,-59.2 198,-40.2 99,-40.2"/>
<text text-anchor="start" x="179.4053" y="-46.3" font-family="Helvetica,sans-Serif" font-size="11.00" fill="#000000">1 &gt;</text>
<polygon fill="none" stroke="#000000" stroke-width="2" points="9,-39.2 9,-149.2 199,-149.2 199,-39.2 9,-39.2"/>
</a>
</g>
</g>
<!-- casserviceticket&#45;&gt;scheduler -->
<g id="edge1" class="edge">
<title>casserviceticket:w&#45;&gt;scheduler:e</title>
<path fill="none" stroke="#000000" stroke-dasharray="5,2" d="M235.4805,-141.3988C222.2585,-133.1209 218.8716,-114.2 198,-114.2"/>
<polygon fill="#000000" stroke="#000000" points="241.7788,-143.1064 248.5579,-148.6745 245.6394,-144.1532 249.5,-145.2 249.5,-145.2 249.5,-145.2 245.6394,-144.1532 250.4421,-141.7255 241.7788,-143.1064 241.7788,-143.1064"/>
<ellipse fill="none" stroke="#000000" cx="238.6903" cy="-142.269" rx="3.2" ry="3.2"/>
</g>
<!-- oppilaitos_ip_osoite -->
<g id="node3" class="node">
<title>oppilaitos_ip_osoite</title>
<g id="a_node3"><a xlink:href="../../tables/oppilaitos_ip_osoite.html" xlink:title="oppilaitos_ip_osoite" target="_top">
<polygon fill="#ffffff" stroke="transparent" points="26.5,-171.7 26.5,-232.7 181.5,-232.7 181.5,-171.7 26.5,-171.7"/>
<polygon fill="#f5f5f5" stroke="transparent" points="27,-209.2 27,-232.2 182,-232.2 182,-209.2 27,-209.2"/>
<polygon fill="none" stroke="#000000" points="27,-209.2 27,-232.2 182,-232.2 182,-209.2 27,-209.2"/>
<text text-anchor="start" x="32" y="-217.8" font-family="Helvetica,sans-Serif" font-weight="bold" font-size="11.00" fill="#000000">oppilaitos_ip_osoite</text>
<text text-anchor="start" x="147.5219" y="-217.3" font-family="Helvetica,sans-Serif" font-size="11.00" fill="#000000">[table]</text>
<polygon fill="none" stroke="#000000" points="27,-190.2 27,-209.2 182,-209.2 182,-190.2 27,-190.2"/>
<text text-anchor="start" x="30" y="-196.3" font-family="Helvetica,sans-Serif" font-size="11.00" fill="#000000">...</text>
<polygon fill="#ffffff" stroke="transparent" points="27,-171.2 27,-190.2 94,-190.2 94,-171.2 27,-171.2"/>
<polygon fill="none" stroke="#000000" points="27,-171.2 27,-190.2 94,-190.2 94,-171.2 27,-171.2"/>
<text text-anchor="start" x="30" y="-177.3" font-family="Helvetica,sans-Serif" font-size="11.00" fill="#000000"> &#160;</text>
<polygon fill="#ffffff" stroke="transparent" points="94,-171.2 94,-190.2 133,-190.2 133,-171.2 94,-171.2"/>
<polygon fill="none" stroke="#000000" points="94,-171.2 94,-190.2 133,-190.2 133,-171.2 94,-171.2"/>
<text text-anchor="start" x="123.8862" y="-177.3" font-family="Helvetica,sans-Serif" font-size="11.00" fill="#000000"> &#160;</text>
<polygon fill="#ffffff" stroke="transparent" points="133,-171.2 133,-190.2 182,-190.2 182,-171.2 133,-171.2"/>
<polygon fill="none" stroke="#000000" points="133,-171.2 133,-190.2 182,-190.2 182,-171.2 133,-171.2"/>
<text text-anchor="start" x="163.4053" y="-177.3" font-family="Helvetica,sans-Serif" font-size="11.00" fill="#000000">1 &gt;</text>
</a>
</g>
</g>
<!-- casserviceticket&#45;&gt;oppilaitos_ip_osoite -->
<g id="edge2" class="edge">
<title>casserviceticket:w&#45;&gt;oppilaitos_ip_osoite:e</title>
<path fill="none" stroke="#000000" stroke-dasharray="5,2" d="M235.1829,-169.6052C215.0246,-177.0472 209.6238,-199.2 182,-199.2"/>
<polygon fill="#000000" stroke="#000000" points="241.6106,-168.5254 250.0964,-170.7503 245.5553,-167.8627 249.5,-167.2 249.5,-167.2 249.5,-167.2 245.5553,-167.8627 248.9036,-163.6497 241.6106,-168.5254 241.6106,-168.5254"/>
<ellipse fill="none" stroke="#000000" cx="238.4548" cy="-169.0556" rx="3.2" ry="3.2"/>
</g>
</g>
</svg>
