<?xml version="1.0" encoding="UTF-8" standalone="no"?>
<!DOCTYPE svg PUBLIC "-//W3C//DTD SVG 1.1//EN"
 "http://www.w3.org/Graphics/SVG/1.1/DTD/svg11.dtd">
<!-- Generated by graphviz version 2.40.1 (20161225.0304)
 -->
<!-- Title: twoDegreesRelationshipsDiagramImplied Pages: 1 -->
<svg width="438pt" height="267pt"
 viewBox="0.00 0.00 438.00 266.70" xmlns="http://www.w3.org/2000/svg" xmlns:xlink="http://www.w3.org/1999/xlink">
<g id="graph0" class="graph" transform="scale(1 1) rotate(0) translate(4 262.7)">
<title>twoDegreesRelationshipsDiagramImplied</title>
<polygon fill="#ffffff" stroke="transparent" points="-4,4 -4,-262.7 434,-262.7 434,4 -4,4"/>
<text text-anchor="middle" x="72.4936" y="-7.3" font-family="Helvetica,sans-Serif" font-size="11.00" fill="#000000">Generated by SchemaSpy</text>
<!-- casserviceticket -->
<g id="node1" class="node">
<title>casserviceticket</title>
<g id="a_node1"><a xlink:href="../../tables/casserviceticket.html" xlink:title="casserviceticket" target="_top">
<polygon fill="#ffffff" stroke="transparent" points="249,-118.7 249,-245.7 422,-245.7 422,-118.7 249,-118.7"/>
<polygon fill="#f5f5f5" stroke="transparent" points="249.5,-222.2 249.5,-245.2 422.5,-245.2 422.5,-222.2 249.5,-222.2"/>
<polygon fill="none" stroke="#000000" points="249.5,-222.2 249.5,-245.2 422.5,-245.2 422.5,-222.2 249.5,-222.2"/>
<text text-anchor="start" x="254.5" y="-230.8" font-family="Helvetica,sans-Serif" font-weight="bold" font-size="11.00" fill="#000000">casserviceticket</text>
<text text-anchor="start" x="387.5437" y="-230.3" font-family="Helvetica,sans-Serif" font-size="11.00" fill="#000000">[table]</text>
<polygon fill="none" stroke="#000000" points="249.5,-200.2 249.5,-222.2 422.5,-222.2 422.5,-200.2 249.5,-200.2"/>
<image xlink:href="../../images/primaryKeys.png" width="11px" height="12px" preserveAspectRatio="xMinYMin meet" x="254.5" y="-217.2"/>
<text text-anchor="start" x="269.5" y="-207.3" font-family="Helvetica,sans-Serif" font-size="11.00" fill="#000000">serviceticket</text>
<polygon fill="none" stroke="#000000" points="249.5,-178.2 249.5,-200.2 422.5,-200.2 422.5,-178.2 249.5,-178.2"/>
<image xlink:href="../../images/foreignKeys.png" width="11px" height="12px" preserveAspectRatio="xMinYMin meet" x="254.5" y="-195.2"/>
<text text-anchor="start" x="269.5" y="-185.3" font-family="Helvetica,sans-Serif" font-size="11.00" fill="#000000">username</text>
<polygon fill="none" stroke="#000000" points="249.5,-156.2 249.5,-178.2 422.5,-178.2 422.5,-156.2 249.5,-156.2"/>
<image xlink:href="../../images/foreignKeys.png" width="11px" height="12px" preserveAspectRatio="xMinYMin meet" x="254.5" y="-173.2"/>
<text text-anchor="start" x="269.5" y="-163.3" font-family="Helvetica,sans-Serif" font-size="11.00" fill="#000000">name</text>
<polygon fill="none" stroke="#000000" points="249.5,-137.2 249.5,-156.2 422.5,-156.2 422.5,-137.2 249.5,-137.2"/>
<text text-anchor="start" x="252.5" y="-143.3" font-family="Helvetica,sans-Serif" font-size="11.00" fill="#000000">...</text>
<polygon fill="#ffffff" stroke="transparent" points="249.5,-118.2 249.5,-137.2 321.5,-137.2 321.5,-118.2 249.5,-118.2"/>
<polygon fill="none" stroke="#000000" points="249.5,-118.2 249.5,-137.2 321.5,-137.2 321.5,-118.2 249.5,-118.2"/>
<text text-anchor="start" x="252.5" y="-124.3" font-family="Helvetica,sans-Serif" font-size="11.00" fill="#000000">&lt; 2</text>
<polygon fill="#ffffff" stroke="transparent" points="321.5,-118.2 321.5,-137.2 384.5,-137.2 384.5,-118.2 321.5,-118.2"/>
<polygon fill="none" stroke="#000000" points="321.5,-118.2 321.5,-137.2 384.5,-137.2 384.5,-118.2 321.5,-118.2"/>
<text text-anchor="start" x="349.1105" y="-124.3" font-family="Helvetica,sans-Serif" font-size="11.00" fill="#000000">0 rows</text>
<polygon fill="#ffffff" stroke="transparent" points="384.5,-118.2 384.5,-137.2 422.5,-137.2 422.5,-118.2 384.5,-118.2"/>
<polygon fill="none" stroke="#000000" points="384.5,-118.2 384.5,-137.2 422.5,-137.2 422.5,-118.2 384.5,-118.2"/>
<text text-anchor="start" x="413.3862" y="-124.3" font-family="Helvetica,sans-Serif" font-size="11.00" fill="#000000"> &#160;</text>
</a>
</g>
</g>
<!-- scheduler -->
<g id="node2" class="node">
<title>scheduler</title>
<g id="a_node2"><a xlink:href="../../tables/scheduler.html" xlink:title="scheduler" target="_top">
<polygon fill="#ffffff" stroke="transparent" points="8,-38.2 8,-172.2 200,-172.2 200,-38.2 8,-38.2"/>
<polygon fill="#f5f5f5" stroke="transparent" points="10,-147.2 10,-170.2 198,-170.2 198,-147.2 10,-147.2"/>
<polygon fill="none" stroke="#000000" points="10,-147.2 10,-170.2 198,-170.2 198,-147.2 10,-147.2"/>
<text text-anchor="start" x="15" y="-155.8" font-family="Helvetica,sans-Serif" font-weight="bold" font-size="11.00" fill="#000000">scheduler</text>
<text text-anchor="start" x="163.0437" y="-155.3" font-family="Helvetica,sans-Serif" font-size="11.00" fill="#000000">[table]</text>
<polygon fill="none" stroke="#000000" points="10,-125.2 10,-147.2 99,-147.2 99,-125.2 10,-125.2"/>
<image xlink:href="../../images/primaryKeys.png" width="11px" height="12px" preserveAspectRatio="xMinYMin meet" x="15" y="-142.2"/>
<text text-anchor="start" x="30" y="-132.3" font-family="Helvetica,sans-Serif" font-size="11.00" fill="#000000">name</text>
<polygon fill="none" stroke="#000000" points="99,-125.2 99,-147.2 198,-147.2 198,-125.2 99,-125.2"/>
<text text-anchor="start" x="102" y="-132.9" font-family="Helvetica,sans-Serif" font-size="11.00" fill="#000000">text[2147483647]</text>
<polygon fill="none" stroke="#000000" points="10,-103.2 10,-125.2 99,-125.2 99,-103.2 10,-103.2"/>
<text text-anchor="start" x="30" y="-110.3" font-family="Helvetica,sans-Serif" font-size="11.00" fill="#000000">nextfiretime</text>
<polygon fill="none" stroke="#000000" points="99,-103.2 99,-125.2 198,-125.2 198,-103.2 99,-103.2"/>
<text text-anchor="start" x="102" y="-110.9" font-family="Helvetica,sans-Serif" font-size="11.00" fill="#000000">timestamp[29,6]</text>
<polygon fill="none" stroke="#000000" points="10,-81.2 10,-103.2 99,-103.2 99,-81.2 10,-81.2"/>
<text text-anchor="start" x="30" y="-88.3" font-family="Helvetica,sans-Serif" font-size="11.00" fill="#000000">context</text>
<polygon fill="none" stroke="#000000" points="99,-81.2 99,-103.2 198,-103.2 198,-81.2 99,-81.2"/>
<text text-anchor="start" x="101.7258" y="-88.9" font-family="Helvetica,sans-Serif" font-size="11.00" fill="#000000">jsonb[2147483647]</text>
<polygon fill="none" stroke="#000000" points="10,-59.2 10,-81.2 99,-81.2 99,-59.2 10,-59.2"/>
<text text-anchor="start" x="30" y="-66.3" font-family="Helvetica,sans-Serif" font-size="11.00" fill="#000000">status</text>
<polygon fill="none" stroke="#000000" points="99,-59.2 99,-81.2 198,-81.2 198,-59.2 99,-59.2"/>
<text text-anchor="start" x="102" y="-66.9" font-family="Helvetica,sans-Serif" font-size="11.00" fill="#000000">int4[10]</text>
<polygon fill="#ffffff" stroke="transparent" points="10,-40.2 10,-59.2 46,-59.2 46,-40.2 10,-40.2"/>
<polygon fill="none" stroke="#000000" points="10,-40.2 10,-59.2 46,-59.2 46,-40.2 10,-40.2"/>
<text text-anchor="start" x="13" y="-46.3" font-family="Helvetica,sans-Serif" font-size="11.00" fill="#000000">&lt; 0</text>
<polygon fill="#ffffff" stroke="transparent" points="46,-40.2 46,-59.2 99,-59.2 99,-40.2 46,-40.2"/>
<polygon fill="none" stroke="#000000" points="46,-40.2 46,-59.2 99,-59.2 99,-40.2 46,-40.2"/>
<text text-anchor="start" x="63.6105" y="-46.3" font-family="Helvetica,sans-Serif" font-size="11.00" fill="#000000">0 rows</text>
<polygon fill="#ffffff" stroke="transparent" points="99,-40.2 99,-59.2 198,-59.2 198,-40.2 99,-40.2"/>
<polygon fill="none" stroke="#000000" points="99,-40.2 99,-59.2 198,-59.2 198,-40.2 99,-40.2"/>
<text text-anchor="start" x="179.4053" y="-46.3" font-family="Helvetica,sans-Serif" font-size="11.00" fill="#000000">1 &gt;</text>
<polygon fill="none" stroke="#000000" stroke-width="2" points="9,-39.2 9,-171.2 199,-171.2 199,-39.2 9,-39.2"/>
</a>
</g>
</g>
<!-- casserviceticket&#45;&gt;scheduler -->
<g id="edge1" class="edge">
<title>casserviceticket:w&#45;&gt;scheduler:e</title>
<path fill="none" stroke="#000000" stroke-dasharray="5,2" d="M235.4805,-163.3988C222.2585,-155.1209 218.8716,-136.2 198,-136.2"/>
<polygon fill="#000000" stroke="#000000" points="241.7788,-165.1064 248.5579,-170.6745 245.6394,-166.1532 249.5,-167.2 249.5,-167.2 249.5,-167.2 245.6394,-166.1532 250.4421,-163.7255 241.7788,-165.1064 241.7788,-165.1064"/>
<ellipse fill="none" stroke="#000000" cx="238.6903" cy="-164.269" rx="3.2" ry="3.2"/>
</g>
<!-- oppilaitos_ip_osoite -->
<g id="node3" class="node">
<title>oppilaitos_ip_osoite</title>
<g id="a_node3"><a xlink:href="../../tables/oppilaitos_ip_osoite.html" xlink:title="oppilaitos_ip_osoite" target="_top">
<polygon fill="#ffffff" stroke="transparent" points="26.5,-193.7 26.5,-254.7 181.5,-254.7 181.5,-193.7 26.5,-193.7"/>
<polygon fill="#f5f5f5" stroke="transparent" points="27,-231.2 27,-254.2 182,-254.2 182,-231.2 27,-231.2"/>
<polygon fill="none" stroke="#000000" points="27,-231.2 27,-254.2 182,-254.2 182,-231.2 27,-231.2"/>
<text text-anchor="start" x="32" y="-239.8" font-family="Helvetica,sans-Serif" font-weight="bold" font-size="11.00" fill="#000000">oppilaitos_ip_osoite</text>
<text text-anchor="start" x="147.5219" y="-239.3" font-family="Helvetica,sans-Serif" font-size="11.00" fill="#000000">[table]</text>
<polygon fill="none" stroke="#000000" points="27,-212.2 27,-231.2 182,-231.2 182,-212.2 27,-212.2"/>
<text text-anchor="start" x="30" y="-218.3" font-family="Helvetica,sans-Serif" font-size="11.00" fill="#000000">...</text>
<polygon fill="#ffffff" stroke="transparent" points="27,-193.2 27,-212.2 81,-212.2 81,-193.2 27,-193.2"/>
<polygon fill="none" stroke="#000000" points="27,-193.2 27,-212.2 81,-212.2 81,-193.2 27,-193.2"/>
<text text-anchor="start" x="30" y="-199.3" font-family="Helvetica,sans-Serif" font-size="11.00" fill="#000000"> &#160;</text>
<polygon fill="#ffffff" stroke="transparent" points="81,-193.2 81,-212.2 140,-212.2 140,-193.2 81,-193.2"/>
<polygon fill="none" stroke="#000000" points="81,-193.2 81,-212.2 140,-212.2 140,-193.2 81,-193.2"/>
<text text-anchor="start" x="104.6105" y="-199.3" font-family="Helvetica,sans-Serif" font-size="11.00" fill="#000000">0 rows</text>
<polygon fill="#ffffff" stroke="transparent" points="140,-193.2 140,-212.2 182,-212.2 182,-193.2 140,-193.2"/>
<polygon fill="none" stroke="#000000" points="140,-193.2 140,-212.2 182,-212.2 182,-193.2 140,-193.2"/>
<text text-anchor="start" x="163.4053" y="-199.3" font-family="Helvetica,sans-Serif" font-size="11.00" fill="#000000">1 &gt;</text>
</a>
</g>
</g>
<!-- casserviceticket&#45;&gt;oppilaitos_ip_osoite -->
<g id="edge2" class="edge">
<title>casserviceticket:w&#45;&gt;oppilaitos_ip_osoite:e</title>
<path fill="none" stroke="#000000" stroke-dasharray="5,2" d="M235.1829,-191.6052C215.0246,-199.0472 209.6238,-221.2 182,-221.2"/>
<polygon fill="#000000" stroke="#000000" points="241.6106,-190.5254 250.0964,-192.7503 245.5553,-189.8627 249.5,-189.2 249.5,-189.2 249.5,-189.2 245.5553,-189.8627 248.9036,-185.6497 241.6106,-190.5254 241.6106,-190.5254"/>
<ellipse fill="none" stroke="#000000" cx="238.4548" cy="-191.0556" rx="3.2" ry="3.2"/>
</g>
</g>
</svg>
