<?xml version="1.0" encoding="UTF-8" standalone="no"?>
<!DOCTYPE svg PUBLIC "-//W3C//DTD SVG 1.1//EN"
 "http://www.w3.org/Graphics/SVG/1.1/DTD/svg11.dtd">
<!-- Generated by graphviz version 2.40.1 (20161225.0304)
 -->
<!-- Title: twoDegreesRelationshipsDiagramImplied Pages: 1 -->
<svg width="438pt" height="289pt"
 viewBox="0.00 0.00 438.00 288.70" xmlns="http://www.w3.org/2000/svg" xmlns:xlink="http://www.w3.org/1999/xlink">
<g id="graph0" class="graph" transform="scale(1 1) rotate(0) translate(4 284.7)">
<title>twoDegreesRelationshipsDiagramImplied</title>
<polygon fill="#ffffff" stroke="transparent" points="-4,4 -4,-284.7 434,-284.7 434,4 -4,4"/>
<text text-anchor="middle" x="72.4936" y="-7.3" font-family="Helvetica,sans-Serif" font-size="11.00" fill="#000000">Generated by SchemaSpy</text>
<!-- casserviceticket -->
<g id="node1" class="node">
<title>casserviceticket</title>
<g id="a_node1"><a xlink:href="../../tables/casserviceticket.html" xlink:title="casserviceticket" target="_top">
<polygon fill="#ffffff" stroke="transparent" points="249,-140.7 249,-267.7 422,-267.7 422,-140.7 249,-140.7"/>
<polygon fill="#f5f5f5" stroke="transparent" points="249.5,-244.2 249.5,-267.2 422.5,-267.2 422.5,-244.2 249.5,-244.2"/>
<polygon fill="none" stroke="#000000" points="249.5,-244.2 249.5,-267.2 422.5,-267.2 422.5,-244.2 249.5,-244.2"/>
<text text-anchor="start" x="254.5" y="-252.8" font-family="Helvetica,sans-Serif" font-weight="bold" font-size="11.00" fill="#000000">casserviceticket</text>
<text text-anchor="start" x="387.5437" y="-252.3" font-family="Helvetica,sans-Serif" font-size="11.00" fill="#000000">[table]</text>
<polygon fill="none" stroke="#000000" points="249.5,-222.2 249.5,-244.2 422.5,-244.2 422.5,-222.2 249.5,-222.2"/>
<image xlink:href="../../images/primaryKeys.png" width="11px" height="12px" preserveAspectRatio="xMinYMin meet" x="254.5" y="-239.2"/>
<text text-anchor="start" x="269.5" y="-229.3" font-family="Helvetica,sans-Serif" font-size="11.00" fill="#000000">serviceticket</text>
<polygon fill="none" stroke="#000000" points="249.5,-200.2 249.5,-222.2 422.5,-222.2 422.5,-200.2 249.5,-200.2"/>
<image xlink:href="../../images/foreignKeys.png" width="11px" height="12px" preserveAspectRatio="xMinYMin meet" x="254.5" y="-217.2"/>
<text text-anchor="start" x="269.5" y="-207.3" font-family="Helvetica,sans-Serif" font-size="11.00" fill="#000000">username</text>
<polygon fill="none" stroke="#000000" points="249.5,-178.2 249.5,-200.2 422.5,-200.2 422.5,-178.2 249.5,-178.2"/>
<image xlink:href="../../images/foreignKeys.png" width="11px" height="12px" preserveAspectRatio="xMinYMin meet" x="254.5" y="-195.2"/>
<text text-anchor="start" x="269.5" y="-185.3" font-family="Helvetica,sans-Serif" font-size="11.00" fill="#000000">name</text>
<polygon fill="none" stroke="#000000" points="249.5,-159.2 249.5,-178.2 422.5,-178.2 422.5,-159.2 249.5,-159.2"/>
<text text-anchor="start" x="252.5" y="-165.3" font-family="Helvetica,sans-Serif" font-size="11.00" fill="#000000">...</text>
<polygon fill="#ffffff" stroke="transparent" points="249.5,-140.2 249.5,-159.2 321.5,-159.2 321.5,-140.2 249.5,-140.2"/>
<polygon fill="none" stroke="#000000" points="249.5,-140.2 249.5,-159.2 321.5,-159.2 321.5,-140.2 249.5,-140.2"/>
<text text-anchor="start" x="252.5" y="-146.3" font-family="Helvetica,sans-Serif" font-size="11.00" fill="#000000">&lt; 2</text>
<polygon fill="#ffffff" stroke="transparent" points="321.5,-140.2 321.5,-159.2 384.5,-159.2 384.5,-140.2 321.5,-140.2"/>
<polygon fill="none" stroke="#000000" points="321.5,-140.2 321.5,-159.2 384.5,-159.2 384.5,-140.2 321.5,-140.2"/>
<text text-anchor="start" x="349.1105" y="-146.3" font-family="Helvetica,sans-Serif" font-size="11.00" fill="#000000">3 rows</text>
<polygon fill="#ffffff" stroke="transparent" points="384.5,-140.2 384.5,-159.2 422.5,-159.2 422.5,-140.2 384.5,-140.2"/>
<polygon fill="none" stroke="#000000" points="384.5,-140.2 384.5,-159.2 422.5,-159.2 422.5,-140.2 384.5,-140.2"/>
<text text-anchor="start" x="413.3862" y="-146.3" font-family="Helvetica,sans-Serif" font-size="11.00" fill="#000000"> &#160;</text>
</a>
</g>
</g>
<!-- scheduler -->
<g id="node2" class="node">
<title>scheduler</title>
<g id="a_node2"><a xlink:href="../../tables/scheduler.html" xlink:title="scheduler" target="_top">
<polygon fill="#ffffff" stroke="transparent" points="8,-38.2 8,-194.2 200,-194.2 200,-38.2 8,-38.2"/>
<polygon fill="#f5f5f5" stroke="transparent" points="10,-169.2 10,-192.2 198,-192.2 198,-169.2 10,-169.2"/>
<polygon fill="none" stroke="#000000" points="10,-169.2 10,-192.2 198,-192.2 198,-169.2 10,-169.2"/>
<text text-anchor="start" x="15" y="-177.8" font-family="Helvetica,sans-Serif" font-weight="bold" font-size="11.00" fill="#000000">scheduler</text>
<text text-anchor="start" x="163.0437" y="-177.3" font-family="Helvetica,sans-Serif" font-size="11.00" fill="#000000">[table]</text>
<polygon fill="none" stroke="#000000" points="10,-147.2 10,-169.2 99,-169.2 99,-147.2 10,-147.2"/>
<image xlink:href="../../images/primaryKeys.png" width="11px" height="12px" preserveAspectRatio="xMinYMin meet" x="15" y="-164.2"/>
<text text-anchor="start" x="30" y="-154.3" font-family="Helvetica,sans-Serif" font-size="11.00" fill="#000000">name</text>
<polygon fill="none" stroke="#000000" points="99,-147.2 99,-169.2 198,-169.2 198,-147.2 99,-147.2"/>
<text text-anchor="start" x="102" y="-154.9" font-family="Helvetica,sans-Serif" font-size="11.00" fill="#000000">text[2147483647]</text>
<polygon fill="none" stroke="#000000" points="10,-125.2 10,-147.2 99,-147.2 99,-125.2 10,-125.2"/>
<text text-anchor="start" x="30" y="-132.3" font-family="Helvetica,sans-Serif" font-size="11.00" fill="#000000">nextfiretime</text>
<polygon fill="none" stroke="#000000" points="99,-125.2 99,-147.2 198,-147.2 198,-125.2 99,-125.2"/>
<text text-anchor="start" x="102" y="-132.9" font-family="Helvetica,sans-Serif" font-size="11.00" fill="#000000">timestamp[29,6]</text>
<polygon fill="none" stroke="#000000" points="10,-103.2 10,-125.2 99,-125.2 99,-103.2 10,-103.2"/>
<text text-anchor="start" x="30" y="-110.3" font-family="Helvetica,sans-Serif" font-size="11.00" fill="#000000">context</text>
<polygon fill="none" stroke="#000000" points="99,-103.2 99,-125.2 198,-125.2 198,-103.2 99,-103.2"/>
<text text-anchor="start" x="101.7258" y="-110.9" font-family="Helvetica,sans-Serif" font-size="11.00" fill="#000000">jsonb[2147483647]</text>
<polygon fill="none" stroke="#000000" points="10,-81.2 10,-103.2 99,-103.2 99,-81.2 10,-81.2"/>
<text text-anchor="start" x="30" y="-88.3" font-family="Helvetica,sans-Serif" font-size="11.00" fill="#000000">status</text>
<polygon fill="none" stroke="#000000" points="99,-81.2 99,-103.2 198,-103.2 198,-81.2 99,-81.2"/>
<text text-anchor="start" x="102" y="-88.9" font-family="Helvetica,sans-Serif" font-size="11.00" fill="#000000">int4[10]</text>
<polygon fill="none" stroke="#000000" points="10,-59.2 10,-81.2 99,-81.2 99,-59.2 10,-59.2"/>
<text text-anchor="start" x="30" y="-66.3" font-family="Helvetica,sans-Serif" font-size="11.00" fill="#000000">pauseduntil</text>
<polygon fill="none" stroke="#000000" points="99,-59.2 99,-81.2 198,-81.2 198,-59.2 99,-59.2"/>
<text text-anchor="start" x="102" y="-66.9" font-family="Helvetica,sans-Serif" font-size="11.00" fill="#000000">timestamp[29,6]</text>
<polygon fill="#ffffff" stroke="transparent" points="10,-40.2 10,-59.2 46,-59.2 46,-40.2 10,-40.2"/>
<polygon fill="none" stroke="#000000" points="10,-40.2 10,-59.2 46,-59.2 46,-40.2 10,-40.2"/>
<text text-anchor="start" x="13" y="-46.3" font-family="Helvetica,sans-Serif" font-size="11.00" fill="#000000">&lt; 0</text>
<polygon fill="#ffffff" stroke="transparent" points="46,-40.2 46,-59.2 99,-59.2 99,-40.2 46,-40.2"/>
<polygon fill="none" stroke="#000000" points="46,-40.2 46,-59.2 99,-59.2 99,-40.2 46,-40.2"/>
<text text-anchor="start" x="63.6105" y="-46.3" font-family="Helvetica,sans-Serif" font-size="11.00" fill="#000000">9 rows</text>
<polygon fill="#ffffff" stroke="transparent" points="99,-40.2 99,-59.2 198,-59.2 198,-40.2 99,-40.2"/>
<polygon fill="none" stroke="#000000" points="99,-40.2 99,-59.2 198,-59.2 198,-40.2 99,-40.2"/>
<text text-anchor="start" x="179.4053" y="-46.3" font-family="Helvetica,sans-Serif" font-size="11.00" fill="#000000">1 &gt;</text>
<polygon fill="none" stroke="#000000" stroke-width="2" points="9,-39.2 9,-193.2 199,-193.2 199,-39.2 9,-39.2"/>
</a>
</g>
</g>
<!-- casserviceticket&#45;&gt;scheduler -->
<g id="edge1" class="edge">
<title>casserviceticket:w&#45;&gt;scheduler:e</title>
<path fill="none" stroke="#000000" stroke-dasharray="5,2" d="M235.4805,-185.3988C222.2585,-177.1209 218.8716,-158.2 198,-158.2"/>
<polygon fill="#000000" stroke="#000000" points="241.7788,-187.1064 248.5579,-192.6745 245.6394,-188.1532 249.5,-189.2 249.5,-189.2 249.5,-189.2 245.6394,-188.1532 250.4421,-185.7255 241.7788,-187.1064 241.7788,-187.1064"/>
<ellipse fill="none" stroke="#000000" cx="238.6903" cy="-186.269" rx="3.2" ry="3.2"/>
</g>
<!-- oppilaitos_ip_osoite -->
<g id="node3" class="node">
<title>oppilaitos_ip_osoite</title>
<g id="a_node3"><a xlink:href="../../tables/oppilaitos_ip_osoite.html" xlink:title="oppilaitos_ip_osoite" target="_top">
<polygon fill="#ffffff" stroke="transparent" points="26.5,-215.7 26.5,-276.7 181.5,-276.7 181.5,-215.7 26.5,-215.7"/>
<polygon fill="#f5f5f5" stroke="transparent" points="27,-253.2 27,-276.2 182,-276.2 182,-253.2 27,-253.2"/>
<polygon fill="none" stroke="#000000" points="27,-253.2 27,-276.2 182,-276.2 182,-253.2 27,-253.2"/>
<text text-anchor="start" x="32" y="-261.8" font-family="Helvetica,sans-Serif" font-weight="bold" font-size="11.00" fill="#000000">oppilaitos_ip_osoite</text>
<text text-anchor="start" x="147.5219" y="-261.3" font-family="Helvetica,sans-Serif" font-size="11.00" fill="#000000">[table]</text>
<polygon fill="none" stroke="#000000" points="27,-234.2 27,-253.2 182,-253.2 182,-234.2 27,-234.2"/>
<text text-anchor="start" x="30" y="-240.3" font-family="Helvetica,sans-Serif" font-size="11.00" fill="#000000">...</text>
<polygon fill="#ffffff" stroke="transparent" points="27,-215.2 27,-234.2 94,-234.2 94,-215.2 27,-215.2"/>
<polygon fill="none" stroke="#000000" points="27,-215.2 27,-234.2 94,-234.2 94,-215.2 27,-215.2"/>
<text text-anchor="start" x="30" y="-221.3" font-family="Helvetica,sans-Serif" font-size="11.00" fill="#000000"> &#160;</text>
<polygon fill="#ffffff" stroke="transparent" points="94,-215.2 94,-234.2 133,-234.2 133,-215.2 94,-215.2"/>
<polygon fill="none" stroke="#000000" points="94,-215.2 94,-234.2 133,-234.2 133,-215.2 94,-215.2"/>
<text text-anchor="start" x="123.8862" y="-221.3" font-family="Helvetica,sans-Serif" font-size="11.00" fill="#000000"> &#160;</text>
<polygon fill="#ffffff" stroke="transparent" points="133,-215.2 133,-234.2 182,-234.2 182,-215.2 133,-215.2"/>
<polygon fill="none" stroke="#000000" points="133,-215.2 133,-234.2 182,-234.2 182,-215.2 133,-215.2"/>
<text text-anchor="start" x="163.4053" y="-221.3" font-family="Helvetica,sans-Serif" font-size="11.00" fill="#000000">1 &gt;</text>
</a>
</g>
</g>
<!-- casserviceticket&#45;&gt;oppilaitos_ip_osoite -->
<g id="edge2" class="edge">
<title>casserviceticket:w&#45;&gt;oppilaitos_ip_osoite:e</title>
<path fill="none" stroke="#000000" stroke-dasharray="5,2" d="M235.1829,-213.6052C215.0246,-221.0472 209.6238,-243.2 182,-243.2"/>
<polygon fill="#000000" stroke="#000000" points="241.6106,-212.5254 250.0964,-214.7503 245.5553,-211.8627 249.5,-211.2 249.5,-211.2 249.5,-211.2 245.5553,-211.8627 248.9036,-207.6497 241.6106,-212.5254 241.6106,-212.5254"/>
<ellipse fill="none" stroke="#000000" cx="238.4548" cy="-213.0556" rx="3.2" ry="3.2"/>
</g>
</g>
</svg>
