<?xml version="1.0" encoding="UTF-8" standalone="no"?>
<!DOCTYPE svg PUBLIC "-//W3C//DTD SVG 1.1//EN"
 "http://www.w3.org/Graphics/SVG/1.1/DTD/svg11.dtd">
<!-- Generated by graphviz version 2.40.1 (20161225.0304)
 -->
<!-- Title: oneDegreeRelationshipsDiagramImplied Pages: 1 -->
<svg width="438pt" height="227pt"
 viewBox="0.00 0.00 438.00 226.70" xmlns="http://www.w3.org/2000/svg" xmlns:xlink="http://www.w3.org/1999/xlink">
<g id="graph0" class="graph" transform="scale(1 1) rotate(0) translate(4 222.7)">
<title>oneDegreeRelationshipsDiagramImplied</title>
<polygon fill="#ffffff" stroke="transparent" points="-4,4 -4,-222.7 434,-222.7 434,4 -4,4"/>
<text text-anchor="middle" x="72.4936" y="-7.3" font-family="Helvetica,sans-Serif" font-size="11.00" fill="#000000">Generated by SchemaSpy</text>
<!-- casserviceticket -->
<g id="node1" class="node">
<title>casserviceticket</title>
<g id="a_node1"><a xlink:href="../../tables/casserviceticket.html" xlink:title="casserviceticket" target="_top">
<polygon fill="#ffffff" stroke="transparent" points="249,-87.7 249,-214.7 422,-214.7 422,-87.7 249,-87.7"/>
<polygon fill="#f5f5f5" stroke="transparent" points="249.5,-191.2 249.5,-214.2 422.5,-214.2 422.5,-191.2 249.5,-191.2"/>
<polygon fill="none" stroke="#000000" points="249.5,-191.2 249.5,-214.2 422.5,-214.2 422.5,-191.2 249.5,-191.2"/>
<text text-anchor="start" x="254.5" y="-199.8" font-family="Helvetica,sans-Serif" font-weight="bold" font-size="11.00" fill="#000000">casserviceticket</text>
<text text-anchor="start" x="387.5437" y="-199.3" font-family="Helvetica,sans-Serif" font-size="11.00" fill="#000000">[table]</text>
<polygon fill="none" stroke="#000000" points="249.5,-169.2 249.5,-191.2 422.5,-191.2 422.5,-169.2 249.5,-169.2"/>
<image xlink:href="../../images/primaryKeys.png" width="11px" height="12px" preserveAspectRatio="xMinYMin meet" x="254.5" y="-186.2"/>
<text text-anchor="start" x="269.5" y="-176.3" font-family="Helvetica,sans-Serif" font-size="11.00" fill="#000000">serviceticket</text>
<polygon fill="none" stroke="#000000" points="249.5,-147.2 249.5,-169.2 422.5,-169.2 422.5,-147.2 249.5,-147.2"/>
<image xlink:href="../../images/foreignKeys.png" width="11px" height="12px" preserveAspectRatio="xMinYMin meet" x="254.5" y="-164.2"/>
<text text-anchor="start" x="269.5" y="-154.3" font-family="Helvetica,sans-Serif" font-size="11.00" fill="#000000">username</text>
<polygon fill="none" stroke="#000000" points="249.5,-125.2 249.5,-147.2 422.5,-147.2 422.5,-125.2 249.5,-125.2"/>
<image xlink:href="../../images/foreignKeys.png" width="11px" height="12px" preserveAspectRatio="xMinYMin meet" x="254.5" y="-142.2"/>
<text text-anchor="start" x="269.5" y="-132.3" font-family="Helvetica,sans-Serif" font-size="11.00" fill="#000000">name</text>
<polygon fill="none" stroke="#000000" points="249.5,-106.2 249.5,-125.2 422.5,-125.2 422.5,-106.2 249.5,-106.2"/>
<text text-anchor="start" x="252.5" y="-112.3" font-family="Helvetica,sans-Serif" font-size="11.00" fill="#000000">...</text>
<polygon fill="#ffffff" stroke="transparent" points="249.5,-87.2 249.5,-106.2 318.5,-106.2 318.5,-87.2 249.5,-87.2"/>
<polygon fill="none" stroke="#000000" points="249.5,-87.2 249.5,-106.2 318.5,-106.2 318.5,-87.2 249.5,-87.2"/>
<text text-anchor="start" x="252.5" y="-93.3" font-family="Helvetica,sans-Serif" font-size="11.00" fill="#000000">&lt; 2</text>
<polygon fill="#ffffff" stroke="transparent" points="318.5,-87.2 318.5,-106.2 386.5,-106.2 386.5,-87.2 318.5,-87.2"/>
<polygon fill="none" stroke="#000000" points="318.5,-87.2 318.5,-106.2 386.5,-106.2 386.5,-87.2 318.5,-87.2"/>
<text text-anchor="start" x="344.9956" y="-93.3" font-family="Helvetica,sans-Serif" font-size="11.00" fill="#000000">30 rows</text>
<polygon fill="#ffffff" stroke="transparent" points="386.5,-87.2 386.5,-106.2 422.5,-106.2 422.5,-87.2 386.5,-87.2"/>
<polygon fill="none" stroke="#000000" points="386.5,-87.2 386.5,-106.2 422.5,-106.2 422.5,-87.2 386.5,-87.2"/>
<text text-anchor="start" x="413.3862" y="-93.3" font-family="Helvetica,sans-Serif" font-size="11.00" fill="#000000"> &#160;</text>
</a>
</g>
</g>
<!-- scheduler -->
<g id="node2" class="node">
<title>scheduler</title>
<g id="a_node2"><a xlink:href="../../tables/scheduler.html" xlink:title="scheduler" target="_top">
<polygon fill="#ffffff" stroke="transparent" points="8,-38.2 8,-172.2 200,-172.2 200,-38.2 8,-38.2"/>
<polygon fill="#f5f5f5" stroke="transparent" points="10,-147.2 10,-170.2 198,-170.2 198,-147.2 10,-147.2"/>
<polygon fill="none" stroke="#000000" points="10,-147.2 10,-170.2 198,-170.2 198,-147.2 10,-147.2"/>
<text text-anchor="start" x="15" y="-155.8" font-family="Helvetica,sans-Serif" font-weight="bold" font-size="11.00" fill="#000000">scheduler</text>
<text text-anchor="start" x="163.0437" y="-155.3" font-family="Helvetica,sans-Serif" font-size="11.00" fill="#000000">[table]</text>
<polygon fill="none" stroke="#000000" points="10,-125.2 10,-147.2 99,-147.2 99,-125.2 10,-125.2"/>
<image xlink:href="../../images/primaryKeys.png" width="11px" height="12px" preserveAspectRatio="xMinYMin meet" x="15" y="-142.2"/>
<text text-anchor="start" x="30" y="-132.3" font-family="Helvetica,sans-Serif" font-size="11.00" fill="#000000">name</text>
<polygon fill="none" stroke="#000000" points="99,-125.2 99,-147.2 198,-147.2 198,-125.2 99,-125.2"/>
<text text-anchor="start" x="102" y="-132.9" font-family="Helvetica,sans-Serif" font-size="11.00" fill="#000000">text[2147483647]</text>
<polygon fill="none" stroke="#000000" points="10,-103.2 10,-125.2 99,-125.2 99,-103.2 10,-103.2"/>
<text text-anchor="start" x="30" y="-110.3" font-family="Helvetica,sans-Serif" font-size="11.00" fill="#000000">nextfiretime</text>
<polygon fill="none" stroke="#000000" points="99,-103.2 99,-125.2 198,-125.2 198,-103.2 99,-103.2"/>
<text text-anchor="start" x="102" y="-110.9" font-family="Helvetica,sans-Serif" font-size="11.00" fill="#000000">timestamp[29,6]</text>
<polygon fill="none" stroke="#000000" points="10,-81.2 10,-103.2 99,-103.2 99,-81.2 10,-81.2"/>
<text text-anchor="start" x="30" y="-88.3" font-family="Helvetica,sans-Serif" font-size="11.00" fill="#000000">context</text>
<polygon fill="none" stroke="#000000" points="99,-81.2 99,-103.2 198,-103.2 198,-81.2 99,-81.2"/>
<text text-anchor="start" x="101.7258" y="-88.9" font-family="Helvetica,sans-Serif" font-size="11.00" fill="#000000">jsonb[2147483647]</text>
<polygon fill="none" stroke="#000000" points="10,-59.2 10,-81.2 99,-81.2 99,-59.2 10,-59.2"/>
<text text-anchor="start" x="30" y="-66.3" font-family="Helvetica,sans-Serif" font-size="11.00" fill="#000000">status</text>
<polygon fill="none" stroke="#000000" points="99,-59.2 99,-81.2 198,-81.2 198,-59.2 99,-59.2"/>
<text text-anchor="start" x="102" y="-66.9" font-family="Helvetica,sans-Serif" font-size="11.00" fill="#000000">int4[10]</text>
<polygon fill="#ffffff" stroke="transparent" points="10,-40.2 10,-59.2 46,-59.2 46,-40.2 10,-40.2"/>
<polygon fill="none" stroke="#000000" points="10,-40.2 10,-59.2 46,-59.2 46,-40.2 10,-40.2"/>
<text text-anchor="start" x="13" y="-46.3" font-family="Helvetica,sans-Serif" font-size="11.00" fill="#000000">&lt; 0</text>
<polygon fill="#ffffff" stroke="transparent" points="46,-40.2 46,-59.2 99,-59.2 99,-40.2 46,-40.2"/>
<polygon fill="none" stroke="#000000" points="46,-40.2 46,-59.2 99,-59.2 99,-40.2 46,-40.2"/>
<text text-anchor="start" x="63.6105" y="-46.3" font-family="Helvetica,sans-Serif" font-size="11.00" fill="#000000">5 rows</text>
<polygon fill="#ffffff" stroke="transparent" points="99,-40.2 99,-59.2 198,-59.2 198,-40.2 99,-40.2"/>
<polygon fill="none" stroke="#000000" points="99,-40.2 99,-59.2 198,-59.2 198,-40.2 99,-40.2"/>
<text text-anchor="start" x="179.4053" y="-46.3" font-family="Helvetica,sans-Serif" font-size="11.00" fill="#000000">1 &gt;</text>
<polygon fill="none" stroke="#000000" stroke-width="2" points="9,-39.2 9,-171.2 199,-171.2 199,-39.2 9,-39.2"/>
</a>
</g>
</g>
<!-- casserviceticket&#45;&gt;scheduler -->
<g id="edge1" class="edge">
<title>casserviceticket:w&#45;&gt;scheduler:e</title>
<path fill="none" stroke="#000000" stroke-dasharray="5,2" d="M235.0156,-136.2C222.6771,-136.2 215.1667,-136.2 198,-136.2"/>
<polygon fill="#000000" stroke="#000000" points="241.5,-136.2001 249.5,-139.8 245.5,-136.2 249.5,-136.2 249.5,-136.2 249.5,-136.2 245.5,-136.2 249.5,-132.6 241.5,-136.2001 241.5,-136.2001"/>
<ellipse fill="none" stroke="#000000" cx="238.3" cy="-136.2001" rx="3.2" ry="3.2"/>
</g>
</g>
</svg>
