<?xml version="1.0" encoding="UTF-8" standalone="no"?>
<!DOCTYPE svg PUBLIC "-//W3C//DTD SVG 1.1//EN"
 "http://www.w3.org/Graphics/SVG/1.1/DTD/svg11.dtd">
<!-- Generated by graphviz version 2.40.1 (20161225.0304)
 -->
<!-- Title: twoDegreesRelationshipsDiagramImplied Pages: 1 -->
<svg width="452pt" height="289pt"
 viewBox="0.00 0.00 452.00 288.70" xmlns="http://www.w3.org/2000/svg" xmlns:xlink="http://www.w3.org/1999/xlink">
<g id="graph0" class="graph" transform="scale(1 1) rotate(0) translate(4 284.7)">
<title>twoDegreesRelationshipsDiagramImplied</title>
<polygon fill="#ffffff" stroke="transparent" points="-4,4 -4,-284.7 448,-284.7 448,4 -4,4"/>
<text text-anchor="middle" x="72.4936" y="-7.3" font-family="Helvetica,sans-Serif" font-size="11.00" fill="#000000">Generated by SchemaSpy</text>
<!-- casserviceticket -->
<g id="node1" class="node">
<title>casserviceticket</title>
<g id="a_node1"><a xlink:href="../../tables/casserviceticket.html" xlink:title="casserviceticket" target="_top">
<polygon fill="#ffffff" stroke="transparent" points="256,-140.7 256,-267.7 436,-267.7 436,-140.7 256,-140.7"/>
<polygon fill="#f5f5f5" stroke="transparent" points="256,-244.2 256,-267.2 436,-267.2 436,-244.2 256,-244.2"/>
<polygon fill="none" stroke="#000000" points="256,-244.2 256,-267.2 436,-267.2 436,-244.2 256,-244.2"/>
<text text-anchor="start" x="261" y="-252.8" font-family="Helvetica,sans-Serif" font-weight="bold" font-size="11.00" fill="#000000">casserviceticket</text>
<text text-anchor="start" x="401.0437" y="-252.3" font-family="Helvetica,sans-Serif" font-size="11.00" fill="#000000">[table]</text>
<polygon fill="none" stroke="#000000" points="256,-222.2 256,-244.2 436,-244.2 436,-222.2 256,-222.2"/>
<image xlink:href="../../images/primaryKeys.png" width="11px" height="12px" preserveAspectRatio="xMinYMin meet" x="261" y="-239.2"/>
<text text-anchor="start" x="276" y="-229.3" font-family="Helvetica,sans-Serif" font-size="11.00" fill="#000000">serviceticket</text>
<polygon fill="none" stroke="#000000" points="256,-200.2 256,-222.2 436,-222.2 436,-200.2 256,-200.2"/>
<image xlink:href="../../images/foreignKeys.png" width="11px" height="12px" preserveAspectRatio="xMinYMin meet" x="261" y="-217.2"/>
<text text-anchor="start" x="276" y="-207.3" font-family="Helvetica,sans-Serif" font-size="11.00" fill="#000000">username</text>
<polygon fill="none" stroke="#000000" points="256,-178.2 256,-200.2 436,-200.2 436,-178.2 256,-178.2"/>
<image xlink:href="../../images/foreignKeys.png" width="11px" height="12px" preserveAspectRatio="xMinYMin meet" x="261" y="-195.2"/>
<text text-anchor="start" x="276" y="-185.3" font-family="Helvetica,sans-Serif" font-size="11.00" fill="#000000">name</text>
<polygon fill="none" stroke="#000000" points="256,-159.2 256,-178.2 436,-178.2 436,-159.2 256,-159.2"/>
<text text-anchor="start" x="259" y="-165.3" font-family="Helvetica,sans-Serif" font-size="11.00" fill="#000000">...</text>
<polygon fill="#ffffff" stroke="transparent" points="256,-140.2 256,-159.2 321,-159.2 321,-140.2 256,-140.2"/>
<polygon fill="none" stroke="#000000" points="256,-140.2 256,-159.2 321,-159.2 321,-140.2 256,-140.2"/>
<text text-anchor="start" x="259" y="-146.3" font-family="Helvetica,sans-Serif" font-size="11.00" fill="#000000">&lt; 2</text>
<polygon fill="#ffffff" stroke="transparent" points="321,-140.2 321,-159.2 402,-159.2 402,-140.2 321,-140.2"/>
<polygon fill="none" stroke="#000000" points="321,-140.2 321,-159.2 402,-159.2 402,-140.2 321,-140.2"/>
<text text-anchor="start" x="345.2089" y="-146.3" font-family="Helvetica,sans-Serif" font-size="11.00" fill="#000000">4,748 rows</text>
<polygon fill="#ffffff" stroke="transparent" points="402,-140.2 402,-159.2 436,-159.2 436,-140.2 402,-140.2"/>
<polygon fill="none" stroke="#000000" points="402,-140.2 402,-159.2 436,-159.2 436,-140.2 402,-140.2"/>
<text text-anchor="start" x="426.8862" y="-146.3" font-family="Helvetica,sans-Serif" font-size="11.00" fill="#000000"> &#160;</text>
</a>
</g>
</g>
<!-- scheduler -->
<g id="node2" class="node">
<title>scheduler</title>
<g id="a_node2"><a xlink:href="../../tables/scheduler.html" xlink:title="scheduler" target="_top">
<polygon fill="#ffffff" stroke="transparent" points="8,-38.2 8,-194.2 207,-194.2 207,-38.2 8,-38.2"/>
<polygon fill="#f5f5f5" stroke="transparent" points="10.5,-169.2 10.5,-192.2 205.5,-192.2 205.5,-169.2 10.5,-169.2"/>
<polygon fill="none" stroke="#000000" points="10.5,-169.2 10.5,-192.2 205.5,-192.2 205.5,-169.2 10.5,-169.2"/>
<text text-anchor="start" x="15.5" y="-177.8" font-family="Helvetica,sans-Serif" font-weight="bold" font-size="11.00" fill="#000000">scheduler</text>
<text text-anchor="start" x="170.5437" y="-177.3" font-family="Helvetica,sans-Serif" font-size="11.00" fill="#000000">[table]</text>
<polygon fill="none" stroke="#000000" points="10.5,-147.2 10.5,-169.2 106.5,-169.2 106.5,-147.2 10.5,-147.2"/>
<image xlink:href="../../images/primaryKeys.png" width="11px" height="12px" preserveAspectRatio="xMinYMin meet" x="15.5" y="-164.2"/>
<text text-anchor="start" x="30.5" y="-154.3" font-family="Helvetica,sans-Serif" font-size="11.00" fill="#000000">name</text>
<polygon fill="none" stroke="#000000" points="106.5,-147.2 106.5,-169.2 205.5,-169.2 205.5,-147.2 106.5,-147.2"/>
<text text-anchor="start" x="109.5" y="-154.9" font-family="Helvetica,sans-Serif" font-size="11.00" fill="#000000">text[2147483647]</text>
<polygon fill="none" stroke="#000000" points="10.5,-125.2 10.5,-147.2 106.5,-147.2 106.5,-125.2 10.5,-125.2"/>
<text text-anchor="start" x="30.5" y="-132.3" font-family="Helvetica,sans-Serif" font-size="11.00" fill="#000000">nextfiretime</text>
<polygon fill="none" stroke="#000000" points="106.5,-125.2 106.5,-147.2 205.5,-147.2 205.5,-125.2 106.5,-125.2"/>
<text text-anchor="start" x="109.5" y="-132.9" font-family="Helvetica,sans-Serif" font-size="11.00" fill="#000000">timestamp[29,6]</text>
<polygon fill="none" stroke="#000000" points="10.5,-103.2 10.5,-125.2 106.5,-125.2 106.5,-103.2 10.5,-103.2"/>
<text text-anchor="start" x="30.5" y="-110.3" font-family="Helvetica,sans-Serif" font-size="11.00" fill="#000000">context</text>
<polygon fill="none" stroke="#000000" points="106.5,-103.2 106.5,-125.2 205.5,-125.2 205.5,-103.2 106.5,-103.2"/>
<text text-anchor="start" x="109.2258" y="-110.9" font-family="Helvetica,sans-Serif" font-size="11.00" fill="#000000">jsonb[2147483647]</text>
<polygon fill="none" stroke="#000000" points="10.5,-81.2 10.5,-103.2 106.5,-103.2 106.5,-81.2 10.5,-81.2"/>
<text text-anchor="start" x="30.5" y="-88.3" font-family="Helvetica,sans-Serif" font-size="11.00" fill="#000000">status</text>
<polygon fill="none" stroke="#000000" points="106.5,-81.2 106.5,-103.2 205.5,-103.2 205.5,-81.2 106.5,-81.2"/>
<text text-anchor="start" x="109.5" y="-88.9" font-family="Helvetica,sans-Serif" font-size="11.00" fill="#000000">int4[10]</text>
<polygon fill="none" stroke="#000000" points="10.5,-59.2 10.5,-81.2 106.5,-81.2 106.5,-59.2 10.5,-59.2"/>
<text text-anchor="start" x="30.5" y="-66.3" font-family="Helvetica,sans-Serif" font-size="11.00" fill="#000000">pauseduntil</text>
<polygon fill="none" stroke="#000000" points="106.5,-59.2 106.5,-81.2 205.5,-81.2 205.5,-59.2 106.5,-59.2"/>
<text text-anchor="start" x="109.5" y="-66.9" font-family="Helvetica,sans-Serif" font-size="11.00" fill="#000000">timestamp[29,6]</text>
<polygon fill="#ffffff" stroke="transparent" points="10.5,-40.2 10.5,-59.2 49.5,-59.2 49.5,-40.2 10.5,-40.2"/>
<polygon fill="none" stroke="#000000" points="10.5,-40.2 10.5,-59.2 49.5,-59.2 49.5,-40.2 10.5,-40.2"/>
<text text-anchor="start" x="13.5" y="-46.3" font-family="Helvetica,sans-Serif" font-size="11.00" fill="#000000">&lt; 0</text>
<polygon fill="#ffffff" stroke="transparent" points="49.5,-40.2 49.5,-59.2 106.5,-59.2 106.5,-40.2 49.5,-40.2"/>
<polygon fill="none" stroke="#000000" points="49.5,-40.2 49.5,-59.2 106.5,-59.2 106.5,-40.2 49.5,-40.2"/>
<text text-anchor="start" x="71.1105" y="-46.3" font-family="Helvetica,sans-Serif" font-size="11.00" fill="#000000">9 rows</text>
<polygon fill="#ffffff" stroke="transparent" points="106.5,-40.2 106.5,-59.2 205.5,-59.2 205.5,-40.2 106.5,-40.2"/>
<polygon fill="none" stroke="#000000" points="106.5,-40.2 106.5,-59.2 205.5,-59.2 205.5,-40.2 106.5,-40.2"/>
<text text-anchor="start" x="186.9053" y="-46.3" font-family="Helvetica,sans-Serif" font-size="11.00" fill="#000000">1 &gt;</text>
<polygon fill="none" stroke="#000000" stroke-width="2" points="9,-39.2 9,-193.2 206,-193.2 206,-39.2 9,-39.2"/>
</a>
</g>
</g>
<!-- casserviceticket&#45;&gt;scheduler -->
<g id="edge1" class="edge">
<title>casserviceticket:w&#45;&gt;scheduler:e</title>
<path fill="none" stroke="#000000" stroke-dasharray="5,2" d="M241.8267,-185.1473C229.1849,-176.7444 225.8692,-158.2 205.5,-158.2"/>
<polygon fill="#000000" stroke="#000000" points="248.3083,-187.0006 255.0103,-192.6613 252.1541,-188.1003 256,-189.2 256,-189.2 256,-189.2 252.1541,-188.1003 256.9897,-185.7387 248.3083,-187.0006 248.3083,-187.0006"/>
<ellipse fill="none" stroke="#000000" cx="245.2316" cy="-186.1208" rx="3.2" ry="3.2"/>
</g>
<!-- oppilaitos_ip_osoite -->
<g id="node3" class="node">
<title>oppilaitos_ip_osoite</title>
<g id="a_node3"><a xlink:href="../../tables/oppilaitos_ip_osoite.html" xlink:title="oppilaitos_ip_osoite" target="_top">
<polygon fill="#ffffff" stroke="transparent" points="29.5,-215.7 29.5,-276.7 185.5,-276.7 185.5,-215.7 29.5,-215.7"/>
<polygon fill="#f5f5f5" stroke="transparent" points="29.5,-253.2 29.5,-276.2 185.5,-276.2 185.5,-253.2 29.5,-253.2"/>
<polygon fill="none" stroke="#000000" points="29.5,-253.2 29.5,-276.2 185.5,-276.2 185.5,-253.2 29.5,-253.2"/>
<text text-anchor="start" x="34.5" y="-261.8" font-family="Helvetica,sans-Serif" font-weight="bold" font-size="11.00" fill="#000000">oppilaitos_ip_osoite</text>
<text text-anchor="start" x="151.0219" y="-261.3" font-family="Helvetica,sans-Serif" font-size="11.00" fill="#000000">[table]</text>
<polygon fill="none" stroke="#000000" points="29.5,-234.2 29.5,-253.2 185.5,-253.2 185.5,-234.2 29.5,-234.2"/>
<text text-anchor="start" x="32.5" y="-240.3" font-family="Helvetica,sans-Serif" font-size="11.00" fill="#000000">...</text>
<polygon fill="#ffffff" stroke="transparent" points="29.5,-215.2 29.5,-234.2 96.5,-234.2 96.5,-215.2 29.5,-215.2"/>
<polygon fill="none" stroke="#000000" points="29.5,-215.2 29.5,-234.2 96.5,-234.2 96.5,-215.2 29.5,-215.2"/>
<text text-anchor="start" x="32.5" y="-221.3" font-family="Helvetica,sans-Serif" font-size="11.00" fill="#000000"> &#160;</text>
<polygon fill="#ffffff" stroke="transparent" points="96.5,-215.2 96.5,-234.2 136.5,-234.2 136.5,-215.2 96.5,-215.2"/>
<polygon fill="none" stroke="#000000" points="96.5,-215.2 96.5,-234.2 136.5,-234.2 136.5,-215.2 96.5,-215.2"/>
<text text-anchor="start" x="127.3862" y="-221.3" font-family="Helvetica,sans-Serif" font-size="11.00" fill="#000000"> &#160;</text>
<polygon fill="#ffffff" stroke="transparent" points="136.5,-215.2 136.5,-234.2 185.5,-234.2 185.5,-215.2 136.5,-215.2"/>
<polygon fill="none" stroke="#000000" points="136.5,-215.2 136.5,-234.2 185.5,-234.2 185.5,-215.2 136.5,-215.2"/>
<text text-anchor="start" x="166.9053" y="-221.3" font-family="Helvetica,sans-Serif" font-size="11.00" fill="#000000">1 &gt;</text>
</a>
</g>
</g>
<!-- casserviceticket&#45;&gt;oppilaitos_ip_osoite -->
<g id="edge2" class="edge">
<title>casserviceticket:w&#45;&gt;oppilaitos_ip_osoite:e</title>
<path fill="none" stroke="#000000" stroke-dasharray="5,2" d="M241.7167,-213.3995C220.2123,-220.6292 214.399,-243.2 185.5,-243.2"/>
<polygon fill="#000000" stroke="#000000" points="248.0932,-212.4176 256.5479,-214.7581 252.0466,-211.8088 256,-211.2 256,-211.2 256,-211.2 252.0466,-211.8088 255.4521,-207.6419 248.0932,-212.4176 248.0932,-212.4176"/>
<ellipse fill="none" stroke="#000000" cx="244.9305" cy="-212.9047" rx="3.2" ry="3.2"/>
</g>
</g>
</svg>
