<?xml version="1.0" encoding="UTF-8" standalone="no"?>
<!DOCTYPE svg PUBLIC "-//W3C//DTD SVG 1.1//EN"
 "http://www.w3.org/Graphics/SVG/1.1/DTD/svg11.dtd">
<!-- Generated by graphviz version 2.40.1 (20161225.0304)
 -->
<!-- Title: oneDegreeRelationshipsDiagram Pages: 1 -->
<svg width="228pt" height="338pt"
 viewBox="0.00 0.00 228.00 338.20" xmlns="http://www.w3.org/2000/svg" xmlns:xlink="http://www.w3.org/1999/xlink">
<g id="graph0" class="graph" transform="scale(1 1) rotate(0) translate(4 334.2)">
<title>oneDegreeRelationshipsDiagram</title>
<polygon fill="#ffffff" stroke="transparent" points="-4,4 -4,-334.2 224,-334.2 224,4 -4,4"/>
<text text-anchor="middle" x="72.4936" y="-7.3" font-family="Helvetica,sans-Serif" font-size="11.00" fill="#000000">Generated by SchemaSpy</text>
<!-- schema_version -->
<g id="node1" class="node">
<title>schema_version</title>
<g id="a_node1"><a xlink:href="../../tables/schema_version.html" xlink:title="schema_version" target="_top">
<polygon fill="#ffffff" stroke="transparent" points="8,-38.2 8,-326.2 212,-326.2 212,-38.2 8,-38.2"/>
<polygon fill="#f5f5f5" stroke="transparent" points="10,-301.2 10,-324.2 210,-324.2 210,-301.2 10,-301.2"/>
<polygon fill="none" stroke="#000000" points="10,-301.2 10,-324.2 210,-324.2 210,-301.2 10,-301.2"/>
<text text-anchor="start" x="15" y="-309.8" font-family="Helvetica,sans-Serif" font-weight="bold" font-size="11.00" fill="#000000">schema_version</text>
<text text-anchor="start" x="175.0437" y="-309.3" font-family="Helvetica,sans-Serif" font-size="11.00" fill="#000000">[table]</text>
<polygon fill="#ffffff" stroke="transparent" points="10,-279.2 10,-301.2 126,-301.2 126,-279.2 10,-279.2"/>
<polygon fill="none" stroke="#000000" points="10,-279.2 10,-301.2 126,-301.2 126,-279.2 10,-279.2"/>
<text text-anchor="start" x="30" y="-286.3" font-family="Helvetica,sans-Serif" font-size="11.00" fill="#000000">version_rank</text>
<polygon fill="none" stroke="#000000" points="126,-279.2 126,-301.2 210,-301.2 210,-279.2 126,-279.2"/>
<text text-anchor="start" x="129" y="-286.9" font-family="Helvetica,sans-Serif" font-size="11.00" fill="#000000">int4[10]</text>
<polygon fill="#ffffff" stroke="transparent" points="10,-257.2 10,-279.2 126,-279.2 126,-257.2 10,-257.2"/>
<polygon fill="none" stroke="#000000" points="10,-257.2 10,-279.2 126,-279.2 126,-257.2 10,-257.2"/>
<text text-anchor="start" x="30" y="-264.3" font-family="Helvetica,sans-Serif" font-size="11.00" fill="#000000">installed_rank</text>
<polygon fill="none" stroke="#000000" points="126,-257.2 126,-279.2 210,-279.2 210,-257.2 126,-257.2"/>
<text text-anchor="start" x="129" y="-264.9" font-family="Helvetica,sans-Serif" font-size="11.00" fill="#000000">int4[10]</text>
<polygon fill="none" stroke="#000000" points="10,-235.2 10,-257.2 126,-257.2 126,-235.2 10,-235.2"/>
<image xlink:href="../../images/primaryKeys.png" width="11px" height="12px" preserveAspectRatio="xMinYMin meet" x="15" y="-252.2"/>
<text text-anchor="start" x="30" y="-242.3" font-family="Helvetica,sans-Serif" font-size="11.00" fill="#000000">version</text>
<polygon fill="none" stroke="#000000" points="126,-235.2 126,-257.2 210,-257.2 210,-235.2 126,-235.2"/>
<text text-anchor="start" x="129" y="-242.9" font-family="Helvetica,sans-Serif" font-size="11.00" fill="#000000">varchar[50]</text>
<polygon fill="none" stroke="#000000" points="10,-213.2 10,-235.2 126,-235.2 126,-213.2 10,-213.2"/>
<text text-anchor="start" x="30" y="-220.3" font-family="Helvetica,sans-Serif" font-size="11.00" fill="#000000">description</text>
<polygon fill="none" stroke="#000000" points="126,-213.2 126,-235.2 210,-235.2 210,-213.2 126,-213.2"/>
<text text-anchor="start" x="129" y="-220.9" font-family="Helvetica,sans-Serif" font-size="11.00" fill="#000000">varchar[200]</text>
<polygon fill="none" stroke="#000000" points="10,-191.2 10,-213.2 126,-213.2 126,-191.2 10,-191.2"/>
<text text-anchor="start" x="30" y="-198.3" font-family="Helvetica,sans-Serif" font-size="11.00" fill="#000000">type</text>
<polygon fill="none" stroke="#000000" points="126,-191.2 126,-213.2 210,-213.2 210,-191.2 126,-191.2"/>
<text text-anchor="start" x="129" y="-198.9" font-family="Helvetica,sans-Serif" font-size="11.00" fill="#000000">varchar[20]</text>
<polygon fill="none" stroke="#000000" points="10,-169.2 10,-191.2 126,-191.2 126,-169.2 10,-169.2"/>
<text text-anchor="start" x="30" y="-176.3" font-family="Helvetica,sans-Serif" font-size="11.00" fill="#000000">script</text>
<polygon fill="none" stroke="#000000" points="126,-169.2 126,-191.2 210,-191.2 210,-169.2 126,-169.2"/>
<text text-anchor="start" x="129" y="-176.9" font-family="Helvetica,sans-Serif" font-size="11.00" fill="#000000">varchar[1000]</text>
<polygon fill="none" stroke="#000000" points="10,-147.2 10,-169.2 126,-169.2 126,-147.2 10,-147.2"/>
<text text-anchor="start" x="30" y="-154.3" font-family="Helvetica,sans-Serif" font-size="11.00" fill="#000000">checksum</text>
<polygon fill="none" stroke="#000000" points="126,-147.2 126,-169.2 210,-169.2 210,-147.2 126,-147.2"/>
<text text-anchor="start" x="129" y="-154.9" font-family="Helvetica,sans-Serif" font-size="11.00" fill="#000000">int4[10]</text>
<polygon fill="none" stroke="#000000" points="10,-125.2 10,-147.2 126,-147.2 126,-125.2 10,-125.2"/>
<text text-anchor="start" x="30" y="-132.3" font-family="Helvetica,sans-Serif" font-size="11.00" fill="#000000">installed_by</text>
<polygon fill="none" stroke="#000000" points="126,-125.2 126,-147.2 210,-147.2 210,-125.2 126,-125.2"/>
<text text-anchor="start" x="129" y="-132.9" font-family="Helvetica,sans-Serif" font-size="11.00" fill="#000000">varchar[100]</text>
<polygon fill="none" stroke="#000000" points="10,-103.2 10,-125.2 126,-125.2 126,-103.2 10,-103.2"/>
<text text-anchor="start" x="30" y="-110.3" font-family="Helvetica,sans-Serif" font-size="11.00" fill="#000000">installed_on</text>
<polygon fill="none" stroke="#000000" points="126,-103.2 126,-125.2 210,-125.2 210,-103.2 126,-103.2"/>
<text text-anchor="start" x="128.8807" y="-110.9" font-family="Helvetica,sans-Serif" font-size="11.00" fill="#000000">timestamp[29,6]</text>
<polygon fill="none" stroke="#000000" points="10,-81.2 10,-103.2 126,-103.2 126,-81.2 10,-81.2"/>
<text text-anchor="start" x="30" y="-88.3" font-family="Helvetica,sans-Serif" font-size="11.00" fill="#000000">execution_time</text>
<polygon fill="none" stroke="#000000" points="126,-81.2 126,-103.2 210,-103.2 210,-81.2 126,-81.2"/>
<text text-anchor="start" x="129" y="-88.9" font-family="Helvetica,sans-Serif" font-size="11.00" fill="#000000">int4[10]</text>
<polygon fill="#ffffff" stroke="transparent" points="10,-59.2 10,-81.2 126,-81.2 126,-59.2 10,-59.2"/>
<polygon fill="none" stroke="#000000" points="10,-59.2 10,-81.2 126,-81.2 126,-59.2 10,-59.2"/>
<text text-anchor="start" x="30" y="-66.3" font-family="Helvetica,sans-Serif" font-size="11.00" fill="#000000">success</text>
<polygon fill="none" stroke="#000000" points="126,-59.2 126,-81.2 210,-81.2 210,-59.2 126,-59.2"/>
<text text-anchor="start" x="129" y="-66.9" font-family="Helvetica,sans-Serif" font-size="11.00" fill="#000000">bool[1]</text>
<polygon fill="#ffffff" stroke="transparent" points="10,-40.2 10,-59.2 56,-59.2 56,-40.2 10,-40.2"/>
<polygon fill="none" stroke="#000000" points="10,-40.2 10,-59.2 56,-59.2 56,-40.2 10,-40.2"/>
<text text-anchor="start" x="13" y="-46.3" font-family="Helvetica,sans-Serif" font-size="11.00" fill="#000000">&lt; 0</text>
<polygon fill="#ffffff" stroke="transparent" points="56,-40.2 56,-59.2 126,-59.2 126,-40.2 56,-40.2"/>
<polygon fill="none" stroke="#000000" points="56,-40.2 56,-59.2 126,-59.2 126,-40.2 56,-40.2"/>
<text text-anchor="start" x="84.4956" y="-46.3" font-family="Helvetica,sans-Serif" font-size="11.00" fill="#000000">97 rows</text>
<polygon fill="#ffffff" stroke="transparent" points="126,-40.2 126,-59.2 210,-59.2 210,-40.2 126,-40.2"/>
<polygon fill="none" stroke="#000000" points="126,-40.2 126,-59.2 210,-59.2 210,-40.2 126,-40.2"/>
<text text-anchor="start" x="191.4053" y="-46.3" font-family="Helvetica,sans-Serif" font-size="11.00" fill="#000000">0 &gt;</text>
<polygon fill="none" stroke="#000000" stroke-width="2" points="9,-39.2 9,-325.2 211,-325.2 211,-39.2 9,-39.2"/>
</a>
</g>
</g>
</g>
</svg>
