<?xml version="1.0" encoding="UTF-8" standalone="no"?>
<!DOCTYPE svg PUBLIC "-//W3C//DTD SVG 1.1//EN"
 "http://www.w3.org/Graphics/SVG/1.1/DTD/svg11.dtd">
<!-- Generated by graphviz version 2.40.1 (20161225.0304)
 -->
<!-- Title: twoDegreesRelationshipsDiagramImplied Pages: 1 -->
<svg width="452pt" height="267pt"
 viewBox="0.00 0.00 452.00 266.70" xmlns="http://www.w3.org/2000/svg" xmlns:xlink="http://www.w3.org/1999/xlink">
<g id="graph0" class="graph" transform="scale(1 1) rotate(0) translate(4 262.7)">
<title>twoDegreesRelationshipsDiagramImplied</title>
<polygon fill="#ffffff" stroke="transparent" points="-4,4 -4,-262.7 448,-262.7 448,4 -4,4"/>
<text text-anchor="middle" x="72.4936" y="-7.3" font-family="Helvetica,sans-Serif" font-size="11.00" fill="#000000">Generated by SchemaSpy</text>
<!-- casserviceticket -->
<g id="node1" class="node">
<title>casserviceticket</title>
<g id="a_node1"><a xlink:href="../../tables/casserviceticket.html" xlink:title="casserviceticket" target="_top">
<polygon fill="#ffffff" stroke="transparent" points="256,-118.7 256,-245.7 436,-245.7 436,-118.7 256,-118.7"/>
<polygon fill="#f5f5f5" stroke="transparent" points="256,-222.2 256,-245.2 436,-245.2 436,-222.2 256,-222.2"/>
<polygon fill="none" stroke="#000000" points="256,-222.2 256,-245.2 436,-245.2 436,-222.2 256,-222.2"/>
<text text-anchor="start" x="261" y="-230.8" font-family="Helvetica,sans-Serif" font-weight="bold" font-size="11.00" fill="#000000">casserviceticket</text>
<text text-anchor="start" x="401.0437" y="-230.3" font-family="Helvetica,sans-Serif" font-size="11.00" fill="#000000">[table]</text>
<polygon fill="none" stroke="#000000" points="256,-200.2 256,-222.2 436,-222.2 436,-200.2 256,-200.2"/>
<image xlink:href="../../images/primaryKeys.png" width="11px" height="12px" preserveAspectRatio="xMinYMin meet" x="261" y="-217.2"/>
<text text-anchor="start" x="276" y="-207.3" font-family="Helvetica,sans-Serif" font-size="11.00" fill="#000000">serviceticket</text>
<polygon fill="none" stroke="#000000" points="256,-178.2 256,-200.2 436,-200.2 436,-178.2 256,-178.2"/>
<image xlink:href="../../images/foreignKeys.png" width="11px" height="12px" preserveAspectRatio="xMinYMin meet" x="261" y="-195.2"/>
<text text-anchor="start" x="276" y="-185.3" font-family="Helvetica,sans-Serif" font-size="11.00" fill="#000000">username</text>
<polygon fill="none" stroke="#000000" points="256,-156.2 256,-178.2 436,-178.2 436,-156.2 256,-156.2"/>
<image xlink:href="../../images/foreignKeys.png" width="11px" height="12px" preserveAspectRatio="xMinYMin meet" x="261" y="-173.2"/>
<text text-anchor="start" x="276" y="-163.3" font-family="Helvetica,sans-Serif" font-size="11.00" fill="#000000">name</text>
<polygon fill="none" stroke="#000000" points="256,-137.2 256,-156.2 436,-156.2 436,-137.2 256,-137.2"/>
<text text-anchor="start" x="259" y="-143.3" font-family="Helvetica,sans-Serif" font-size="11.00" fill="#000000">...</text>
<polygon fill="#ffffff" stroke="transparent" points="256,-118.2 256,-137.2 325,-137.2 325,-118.2 256,-118.2"/>
<polygon fill="none" stroke="#000000" points="256,-118.2 256,-137.2 325,-137.2 325,-118.2 256,-118.2"/>
<text text-anchor="start" x="259" y="-124.3" font-family="Helvetica,sans-Serif" font-size="11.00" fill="#000000">&lt; 2</text>
<polygon fill="#ffffff" stroke="transparent" points="325,-118.2 325,-137.2 399,-137.2 399,-118.2 325,-118.2"/>
<polygon fill="none" stroke="#000000" points="325,-118.2 325,-137.2 399,-137.2 399,-118.2 325,-118.2"/>
<text text-anchor="start" x="351.3807" y="-124.3" font-family="Helvetica,sans-Serif" font-size="11.00" fill="#000000">232 rows</text>
<polygon fill="#ffffff" stroke="transparent" points="399,-118.2 399,-137.2 436,-137.2 436,-118.2 399,-118.2"/>
<polygon fill="none" stroke="#000000" points="399,-118.2 399,-137.2 436,-137.2 436,-118.2 399,-118.2"/>
<text text-anchor="start" x="426.8862" y="-124.3" font-family="Helvetica,sans-Serif" font-size="11.00" fill="#000000"> &#160;</text>
</a>
</g>
</g>
<!-- scheduler -->
<g id="node2" class="node">
<title>scheduler</title>
<g id="a_node2"><a xlink:href="../../tables/scheduler.html" xlink:title="scheduler" target="_top">
<polygon fill="#ffffff" stroke="transparent" points="8,-38.2 8,-172.2 207,-172.2 207,-38.2 8,-38.2"/>
<polygon fill="#f5f5f5" stroke="transparent" points="10.5,-147.2 10.5,-170.2 205.5,-170.2 205.5,-147.2 10.5,-147.2"/>
<polygon fill="none" stroke="#000000" points="10.5,-147.2 10.5,-170.2 205.5,-170.2 205.5,-147.2 10.5,-147.2"/>
<text text-anchor="start" x="15.5" y="-155.8" font-family="Helvetica,sans-Serif" font-weight="bold" font-size="11.00" fill="#000000">scheduler</text>
<text text-anchor="start" x="170.5437" y="-155.3" font-family="Helvetica,sans-Serif" font-size="11.00" fill="#000000">[table]</text>
<polygon fill="none" stroke="#000000" points="10.5,-125.2 10.5,-147.2 106.5,-147.2 106.5,-125.2 10.5,-125.2"/>
<image xlink:href="../../images/primaryKeys.png" width="11px" height="12px" preserveAspectRatio="xMinYMin meet" x="15.5" y="-142.2"/>
<text text-anchor="start" x="30.5" y="-132.3" font-family="Helvetica,sans-Serif" font-size="11.00" fill="#000000">name</text>
<polygon fill="none" stroke="#000000" points="106.5,-125.2 106.5,-147.2 205.5,-147.2 205.5,-125.2 106.5,-125.2"/>
<text text-anchor="start" x="109.5" y="-132.9" font-family="Helvetica,sans-Serif" font-size="11.00" fill="#000000">text[2147483647]</text>
<polygon fill="none" stroke="#000000" points="10.5,-103.2 10.5,-125.2 106.5,-125.2 106.5,-103.2 10.5,-103.2"/>
<text text-anchor="start" x="30.5" y="-110.3" font-family="Helvetica,sans-Serif" font-size="11.00" fill="#000000">nextfiretime</text>
<polygon fill="none" stroke="#000000" points="106.5,-103.2 106.5,-125.2 205.5,-125.2 205.5,-103.2 106.5,-103.2"/>
<text text-anchor="start" x="109.5" y="-110.9" font-family="Helvetica,sans-Serif" font-size="11.00" fill="#000000">timestamp[29,6]</text>
<polygon fill="none" stroke="#000000" points="10.5,-81.2 10.5,-103.2 106.5,-103.2 106.5,-81.2 10.5,-81.2"/>
<text text-anchor="start" x="30.5" y="-88.3" font-family="Helvetica,sans-Serif" font-size="11.00" fill="#000000">context</text>
<polygon fill="none" stroke="#000000" points="106.5,-81.2 106.5,-103.2 205.5,-103.2 205.5,-81.2 106.5,-81.2"/>
<text text-anchor="start" x="109.2258" y="-88.9" font-family="Helvetica,sans-Serif" font-size="11.00" fill="#000000">jsonb[2147483647]</text>
<polygon fill="none" stroke="#000000" points="10.5,-59.2 10.5,-81.2 106.5,-81.2 106.5,-59.2 10.5,-59.2"/>
<text text-anchor="start" x="30.5" y="-66.3" font-family="Helvetica,sans-Serif" font-size="11.00" fill="#000000">status</text>
<polygon fill="none" stroke="#000000" points="106.5,-59.2 106.5,-81.2 205.5,-81.2 205.5,-59.2 106.5,-59.2"/>
<text text-anchor="start" x="109.5" y="-66.9" font-family="Helvetica,sans-Serif" font-size="11.00" fill="#000000">int4[10]</text>
<polygon fill="#ffffff" stroke="transparent" points="10.5,-40.2 10.5,-59.2 49.5,-59.2 49.5,-40.2 10.5,-40.2"/>
<polygon fill="none" stroke="#000000" points="10.5,-40.2 10.5,-59.2 49.5,-59.2 49.5,-40.2 10.5,-40.2"/>
<text text-anchor="start" x="13.5" y="-46.3" font-family="Helvetica,sans-Serif" font-size="11.00" fill="#000000">&lt; 0</text>
<polygon fill="#ffffff" stroke="transparent" points="49.5,-40.2 49.5,-59.2 106.5,-59.2 106.5,-40.2 49.5,-40.2"/>
<polygon fill="none" stroke="#000000" points="49.5,-40.2 49.5,-59.2 106.5,-59.2 106.5,-40.2 49.5,-40.2"/>
<text text-anchor="start" x="71.1105" y="-46.3" font-family="Helvetica,sans-Serif" font-size="11.00" fill="#000000">7 rows</text>
<polygon fill="#ffffff" stroke="transparent" points="106.5,-40.2 106.5,-59.2 205.5,-59.2 205.5,-40.2 106.5,-40.2"/>
<polygon fill="none" stroke="#000000" points="106.5,-40.2 106.5,-59.2 205.5,-59.2 205.5,-40.2 106.5,-40.2"/>
<text text-anchor="start" x="186.9053" y="-46.3" font-family="Helvetica,sans-Serif" font-size="11.00" fill="#000000">1 &gt;</text>
<polygon fill="none" stroke="#000000" stroke-width="2" points="9,-39.2 9,-171.2 206,-171.2 206,-39.2 9,-39.2"/>
</a>
</g>
</g>
<!-- casserviceticket&#45;&gt;scheduler -->
<g id="edge1" class="edge">
<title>casserviceticket:w&#45;&gt;scheduler:e</title>
<path fill="none" stroke="#000000" stroke-dasharray="5,2" d="M241.8267,-163.1473C229.1849,-154.7444 225.8692,-136.2 205.5,-136.2"/>
<polygon fill="#000000" stroke="#000000" points="248.3083,-165.0006 255.0103,-170.6613 252.1541,-166.1003 256,-167.2 256,-167.2 256,-167.2 252.1541,-166.1003 256.9897,-163.7387 248.3083,-165.0006 248.3083,-165.0006"/>
<ellipse fill="none" stroke="#000000" cx="245.2316" cy="-164.1208" rx="3.2" ry="3.2"/>
</g>
<!-- oppilaitos_ip_osoite -->
<g id="node3" class="node">
<title>oppilaitos_ip_osoite</title>
<g id="a_node3"><a xlink:href="../../tables/oppilaitos_ip_osoite.html" xlink:title="oppilaitos_ip_osoite" target="_top">
<polygon fill="#ffffff" stroke="transparent" points="29.5,-193.7 29.5,-254.7 185.5,-254.7 185.5,-193.7 29.5,-193.7"/>
<polygon fill="#f5f5f5" stroke="transparent" points="29.5,-231.2 29.5,-254.2 185.5,-254.2 185.5,-231.2 29.5,-231.2"/>
<polygon fill="none" stroke="#000000" points="29.5,-231.2 29.5,-254.2 185.5,-254.2 185.5,-231.2 29.5,-231.2"/>
<text text-anchor="start" x="34.5" y="-239.8" font-family="Helvetica,sans-Serif" font-weight="bold" font-size="11.00" fill="#000000">oppilaitos_ip_osoite</text>
<text text-anchor="start" x="151.0219" y="-239.3" font-family="Helvetica,sans-Serif" font-size="11.00" fill="#000000">[table]</text>
<polygon fill="none" stroke="#000000" points="29.5,-212.2 29.5,-231.2 185.5,-231.2 185.5,-212.2 29.5,-212.2"/>
<text text-anchor="start" x="32.5" y="-218.3" font-family="Helvetica,sans-Serif" font-size="11.00" fill="#000000">...</text>
<polygon fill="#ffffff" stroke="transparent" points="29.5,-193.2 29.5,-212.2 96.5,-212.2 96.5,-193.2 29.5,-193.2"/>
<polygon fill="none" stroke="#000000" points="29.5,-193.2 29.5,-212.2 96.5,-212.2 96.5,-193.2 29.5,-193.2"/>
<text text-anchor="start" x="32.5" y="-199.3" font-family="Helvetica,sans-Serif" font-size="11.00" fill="#000000"> &#160;</text>
<polygon fill="#ffffff" stroke="transparent" points="96.5,-193.2 96.5,-212.2 136.5,-212.2 136.5,-193.2 96.5,-193.2"/>
<polygon fill="none" stroke="#000000" points="96.5,-193.2 96.5,-212.2 136.5,-212.2 136.5,-193.2 96.5,-193.2"/>
<text text-anchor="start" x="127.3862" y="-199.3" font-family="Helvetica,sans-Serif" font-size="11.00" fill="#000000"> &#160;</text>
<polygon fill="#ffffff" stroke="transparent" points="136.5,-193.2 136.5,-212.2 185.5,-212.2 185.5,-193.2 136.5,-193.2"/>
<polygon fill="none" stroke="#000000" points="136.5,-193.2 136.5,-212.2 185.5,-212.2 185.5,-193.2 136.5,-193.2"/>
<text text-anchor="start" x="166.9053" y="-199.3" font-family="Helvetica,sans-Serif" font-size="11.00" fill="#000000">1 &gt;</text>
</a>
</g>
</g>
<!-- casserviceticket&#45;&gt;oppilaitos_ip_osoite -->
<g id="edge2" class="edge">
<title>casserviceticket:w&#45;&gt;oppilaitos_ip_osoite:e</title>
<path fill="none" stroke="#000000" stroke-dasharray="5,2" d="M241.7167,-191.3995C220.2123,-198.6292 214.399,-221.2 185.5,-221.2"/>
<polygon fill="#000000" stroke="#000000" points="248.0932,-190.4176 256.5479,-192.7581 252.0466,-189.8088 256,-189.2 256,-189.2 256,-189.2 252.0466,-189.8088 255.4521,-185.6419 248.0932,-190.4176 248.0932,-190.4176"/>
<ellipse fill="none" stroke="#000000" cx="244.9305" cy="-190.9047" rx="3.2" ry="3.2"/>
</g>
</g>
</svg>
