<?xml version="1.0" encoding="UTF-8" standalone="no"?>
<!DOCTYPE svg PUBLIC "-//W3C//DTD SVG 1.1//EN"
 "http://www.w3.org/Graphics/SVG/1.1/DTD/svg11.dtd">
<!-- Generated by graphviz version 2.40.1 (20161225.0304)
 -->
<!-- Title: twoDegreesRelationshipsDiagramImplied Pages: 1 -->
<svg width="452pt" height="245pt"
 viewBox="0.00 0.00 452.00 244.70" xmlns="http://www.w3.org/2000/svg" xmlns:xlink="http://www.w3.org/1999/xlink">
<g id="graph0" class="graph" transform="scale(1 1) rotate(0) translate(4 240.7)">
<title>twoDegreesRelationshipsDiagramImplied</title>
<polygon fill="#ffffff" stroke="transparent" points="-4,4 -4,-240.7 448,-240.7 448,4 -4,4"/>
<text text-anchor="middle" x="72.4936" y="-7.3" font-family="Helvetica,sans-Serif" font-size="11.00" fill="#000000">Generated by SchemaSpy</text>
<!-- casserviceticket -->
<g id="node1" class="node">
<title>casserviceticket</title>
<g id="a_node1"><a xlink:href="../../tables/casserviceticket.html" xlink:title="casserviceticket" target="_top">
<polygon fill="#ffffff" stroke="transparent" points="256,-96.7 256,-223.7 436,-223.7 436,-96.7 256,-96.7"/>
<polygon fill="#f5f5f5" stroke="transparent" points="256,-200.2 256,-223.2 436,-223.2 436,-200.2 256,-200.2"/>
<polygon fill="none" stroke="#000000" points="256,-200.2 256,-223.2 436,-223.2 436,-200.2 256,-200.2"/>
<text text-anchor="start" x="261" y="-208.8" font-family="Helvetica,sans-Serif" font-weight="bold" font-size="11.00" fill="#000000">casserviceticket</text>
<text text-anchor="start" x="401.0437" y="-208.3" font-family="Helvetica,sans-Serif" font-size="11.00" fill="#000000">[table]</text>
<polygon fill="none" stroke="#000000" points="256,-178.2 256,-200.2 436,-200.2 436,-178.2 256,-178.2"/>
<image xlink:href="../../images/primaryKeys.png" width="11px" height="12px" preserveAspectRatio="xMinYMin meet" x="261" y="-195.2"/>
<text text-anchor="start" x="276" y="-185.3" font-family="Helvetica,sans-Serif" font-size="11.00" fill="#000000">serviceticket</text>
<polygon fill="none" stroke="#000000" points="256,-156.2 256,-178.2 436,-178.2 436,-156.2 256,-156.2"/>
<image xlink:href="../../images/foreignKeys.png" width="11px" height="12px" preserveAspectRatio="xMinYMin meet" x="261" y="-173.2"/>
<text text-anchor="start" x="276" y="-163.3" font-family="Helvetica,sans-Serif" font-size="11.00" fill="#000000">username</text>
<polygon fill="none" stroke="#000000" points="256,-134.2 256,-156.2 436,-156.2 436,-134.2 256,-134.2"/>
<image xlink:href="../../images/foreignKeys.png" width="11px" height="12px" preserveAspectRatio="xMinYMin meet" x="261" y="-151.2"/>
<text text-anchor="start" x="276" y="-141.3" font-family="Helvetica,sans-Serif" font-size="11.00" fill="#000000">name</text>
<polygon fill="none" stroke="#000000" points="256,-115.2 256,-134.2 436,-134.2 436,-115.2 256,-115.2"/>
<text text-anchor="start" x="259" y="-121.3" font-family="Helvetica,sans-Serif" font-size="11.00" fill="#000000">...</text>
<polygon fill="#ffffff" stroke="transparent" points="256,-96.2 256,-115.2 344,-115.2 344,-96.2 256,-96.2"/>
<polygon fill="none" stroke="#000000" points="256,-96.2 256,-115.2 344,-115.2 344,-96.2 256,-96.2"/>
<text text-anchor="start" x="259" y="-102.3" font-family="Helvetica,sans-Serif" font-size="11.00" fill="#000000">&lt; 2</text>
<polygon fill="#ffffff" stroke="transparent" points="344,-96.2 344,-115.2 390,-115.2 390,-96.2 344,-96.2"/>
<polygon fill="none" stroke="#000000" points="344,-96.2 344,-115.2 390,-115.2 390,-96.2 344,-96.2"/>
<text text-anchor="start" x="380.8862" y="-102.3" font-family="Helvetica,sans-Serif" font-size="11.00" fill="#000000"> &#160;</text>
<polygon fill="#ffffff" stroke="transparent" points="390,-96.2 390,-115.2 436,-115.2 436,-96.2 390,-96.2"/>
<polygon fill="none" stroke="#000000" points="390,-96.2 390,-115.2 436,-115.2 436,-96.2 390,-96.2"/>
<text text-anchor="start" x="426.8862" y="-102.3" font-family="Helvetica,sans-Serif" font-size="11.00" fill="#000000"> &#160;</text>
</a>
</g>
</g>
<!-- scheduler -->
<g id="node2" class="node">
<title>scheduler</title>
<g id="a_node2"><a xlink:href="../../tables/scheduler.html" xlink:title="scheduler" target="_top">
<polygon fill="#ffffff" stroke="transparent" points="8,-38.2 8,-150.2 207,-150.2 207,-38.2 8,-38.2"/>
<polygon fill="#f5f5f5" stroke="transparent" points="10.5,-125.2 10.5,-148.2 205.5,-148.2 205.5,-125.2 10.5,-125.2"/>
<polygon fill="none" stroke="#000000" points="10.5,-125.2 10.5,-148.2 205.5,-148.2 205.5,-125.2 10.5,-125.2"/>
<text text-anchor="start" x="15.5" y="-133.8" font-family="Helvetica,sans-Serif" font-weight="bold" font-size="11.00" fill="#000000">scheduler</text>
<text text-anchor="start" x="170.5437" y="-133.3" font-family="Helvetica,sans-Serif" font-size="11.00" fill="#000000">[table]</text>
<polygon fill="none" stroke="#000000" points="10.5,-103.2 10.5,-125.2 106.5,-125.2 106.5,-103.2 10.5,-103.2"/>
<image xlink:href="../../images/primaryKeys.png" width="11px" height="12px" preserveAspectRatio="xMinYMin meet" x="15.5" y="-120.2"/>
<text text-anchor="start" x="30.5" y="-110.3" font-family="Helvetica,sans-Serif" font-size="11.00" fill="#000000">name</text>
<polygon fill="none" stroke="#000000" points="106.5,-103.2 106.5,-125.2 205.5,-125.2 205.5,-103.2 106.5,-103.2"/>
<text text-anchor="start" x="109.5" y="-110.9" font-family="Helvetica,sans-Serif" font-size="11.00" fill="#000000">text[2147483647]</text>
<polygon fill="none" stroke="#000000" points="10.5,-81.2 10.5,-103.2 106.5,-103.2 106.5,-81.2 10.5,-81.2"/>
<text text-anchor="start" x="30.5" y="-88.3" font-family="Helvetica,sans-Serif" font-size="11.00" fill="#000000">nextfiretime</text>
<polygon fill="none" stroke="#000000" points="106.5,-81.2 106.5,-103.2 205.5,-103.2 205.5,-81.2 106.5,-81.2"/>
<text text-anchor="start" x="109.5" y="-88.9" font-family="Helvetica,sans-Serif" font-size="11.00" fill="#000000">timestamp[29,6]</text>
<polygon fill="none" stroke="#000000" points="10.5,-59.2 10.5,-81.2 106.5,-81.2 106.5,-59.2 10.5,-59.2"/>
<text text-anchor="start" x="30.5" y="-66.3" font-family="Helvetica,sans-Serif" font-size="11.00" fill="#000000">context</text>
<polygon fill="none" stroke="#000000" points="106.5,-59.2 106.5,-81.2 205.5,-81.2 205.5,-59.2 106.5,-59.2"/>
<text text-anchor="start" x="109.2258" y="-66.9" font-family="Helvetica,sans-Serif" font-size="11.00" fill="#000000">jsonb[2147483647]</text>
<polygon fill="#ffffff" stroke="transparent" points="10.5,-40.2 10.5,-59.2 49.5,-59.2 49.5,-40.2 10.5,-40.2"/>
<polygon fill="none" stroke="#000000" points="10.5,-40.2 10.5,-59.2 49.5,-59.2 49.5,-40.2 10.5,-40.2"/>
<text text-anchor="start" x="13.5" y="-46.3" font-family="Helvetica,sans-Serif" font-size="11.00" fill="#000000">&lt; 0</text>
<polygon fill="#ffffff" stroke="transparent" points="49.5,-40.2 49.5,-59.2 106.5,-59.2 106.5,-40.2 49.5,-40.2"/>
<polygon fill="none" stroke="#000000" points="49.5,-40.2 49.5,-59.2 106.5,-59.2 106.5,-40.2 49.5,-40.2"/>
<text text-anchor="start" x="71.1105" y="-46.3" font-family="Helvetica,sans-Serif" font-size="11.00" fill="#000000">9 rows</text>
<polygon fill="#ffffff" stroke="transparent" points="106.5,-40.2 106.5,-59.2 205.5,-59.2 205.5,-40.2 106.5,-40.2"/>
<polygon fill="none" stroke="#000000" points="106.5,-40.2 106.5,-59.2 205.5,-59.2 205.5,-40.2 106.5,-40.2"/>
<text text-anchor="start" x="186.9053" y="-46.3" font-family="Helvetica,sans-Serif" font-size="11.00" fill="#000000">1 &gt;</text>
<polygon fill="none" stroke="#000000" stroke-width="2" points="9,-39.2 9,-149.2 206,-149.2 206,-39.2 9,-39.2"/>
</a>
</g>
</g>
<!-- casserviceticket&#45;&gt;scheduler -->
<g id="edge1" class="edge">
<title>casserviceticket:w&#45;&gt;scheduler:e</title>
<path fill="none" stroke="#000000" stroke-dasharray="5,2" d="M241.8267,-141.1473C229.1849,-132.7444 225.8692,-114.2 205.5,-114.2"/>
<polygon fill="#000000" stroke="#000000" points="248.3083,-143.0006 255.0103,-148.6613 252.1541,-144.1003 256,-145.2 256,-145.2 256,-145.2 252.1541,-144.1003 256.9897,-141.7387 248.3083,-143.0006 248.3083,-143.0006"/>
<ellipse fill="none" stroke="#000000" cx="245.2316" cy="-142.1208" rx="3.2" ry="3.2"/>
</g>
<!-- oppilaitos_ip_osoite -->
<g id="node3" class="node">
<title>oppilaitos_ip_osoite</title>
<g id="a_node3"><a xlink:href="../../tables/oppilaitos_ip_osoite.html" xlink:title="oppilaitos_ip_osoite" target="_top">
<polygon fill="#ffffff" stroke="transparent" points="29.5,-171.7 29.5,-232.7 185.5,-232.7 185.5,-171.7 29.5,-171.7"/>
<polygon fill="#f5f5f5" stroke="transparent" points="29.5,-209.2 29.5,-232.2 185.5,-232.2 185.5,-209.2 29.5,-209.2"/>
<polygon fill="none" stroke="#000000" points="29.5,-209.2 29.5,-232.2 185.5,-232.2 185.5,-209.2 29.5,-209.2"/>
<text text-anchor="start" x="34.5" y="-217.8" font-family="Helvetica,sans-Serif" font-weight="bold" font-size="11.00" fill="#000000">oppilaitos_ip_osoite</text>
<text text-anchor="start" x="151.0219" y="-217.3" font-family="Helvetica,sans-Serif" font-size="11.00" fill="#000000">[table]</text>
<polygon fill="none" stroke="#000000" points="29.5,-190.2 29.5,-209.2 185.5,-209.2 185.5,-190.2 29.5,-190.2"/>
<text text-anchor="start" x="32.5" y="-196.3" font-family="Helvetica,sans-Serif" font-size="11.00" fill="#000000">...</text>
<polygon fill="#ffffff" stroke="transparent" points="29.5,-171.2 29.5,-190.2 96.5,-190.2 96.5,-171.2 29.5,-171.2"/>
<polygon fill="none" stroke="#000000" points="29.5,-171.2 29.5,-190.2 96.5,-190.2 96.5,-171.2 29.5,-171.2"/>
<text text-anchor="start" x="32.5" y="-177.3" font-family="Helvetica,sans-Serif" font-size="11.00" fill="#000000"> &#160;</text>
<polygon fill="#ffffff" stroke="transparent" points="96.5,-171.2 96.5,-190.2 136.5,-190.2 136.5,-171.2 96.5,-171.2"/>
<polygon fill="none" stroke="#000000" points="96.5,-171.2 96.5,-190.2 136.5,-190.2 136.5,-171.2 96.5,-171.2"/>
<text text-anchor="start" x="127.3862" y="-177.3" font-family="Helvetica,sans-Serif" font-size="11.00" fill="#000000"> &#160;</text>
<polygon fill="#ffffff" stroke="transparent" points="136.5,-171.2 136.5,-190.2 185.5,-190.2 185.5,-171.2 136.5,-171.2"/>
<polygon fill="none" stroke="#000000" points="136.5,-171.2 136.5,-190.2 185.5,-190.2 185.5,-171.2 136.5,-171.2"/>
<text text-anchor="start" x="166.9053" y="-177.3" font-family="Helvetica,sans-Serif" font-size="11.00" fill="#000000">1 &gt;</text>
</a>
</g>
</g>
<!-- casserviceticket&#45;&gt;oppilaitos_ip_osoite -->
<g id="edge2" class="edge">
<title>casserviceticket:w&#45;&gt;oppilaitos_ip_osoite:e</title>
<path fill="none" stroke="#000000" stroke-dasharray="5,2" d="M241.7167,-169.3995C220.2123,-176.6292 214.399,-199.2 185.5,-199.2"/>
<polygon fill="#000000" stroke="#000000" points="248.0932,-168.4176 256.5479,-170.7581 252.0466,-167.8088 256,-167.2 256,-167.2 256,-167.2 252.0466,-167.8088 255.4521,-163.6419 248.0932,-168.4176 248.0932,-168.4176"/>
<ellipse fill="none" stroke="#000000" cx="244.9305" cy="-168.9047" rx="3.2" ry="3.2"/>
</g>
</g>
</svg>
