<?xml version="1.0" encoding="UTF-8" standalone="no"?>
<!DOCTYPE svg PUBLIC "-//W3C//DTD SVG 1.1//EN"
 "http://www.w3.org/Graphics/SVG/1.1/DTD/svg11.dtd">
<!-- Generated by graphviz version 2.40.1 (20161225.0304)
 -->
<!-- Title: oneDegreeRelationshipsDiagram Pages: 1 -->
<svg width="247pt" height="250pt"
 viewBox="0.00 0.00 247.00 250.20" xmlns="http://www.w3.org/2000/svg" xmlns:xlink="http://www.w3.org/1999/xlink">
<g id="graph0" class="graph" transform="scale(1 1) rotate(0) translate(4 246.2)">
<title>oneDegreeRelationshipsDiagram</title>
<polygon fill="#ffffff" stroke="transparent" points="-4,4 -4,-246.2 243,-246.2 243,4 -4,4"/>
<text text-anchor="middle" x="72.4936" y="-7.3" font-family="Helvetica,sans-Serif" font-size="11.00" fill="#000000">Generated by SchemaSpy</text>
<!-- suoritusjako -->
<g id="node1" class="node">
<title>suoritusjako</title>
<g id="a_node1"><a xlink:href="../../tables/suoritusjako.html" xlink:title="suoritusjako" target="_top">
<polygon fill="#ffffff" stroke="transparent" points="8,-38.2 8,-238.2 231,-238.2 231,-38.2 8,-38.2"/>
<polygon fill="#f5f5f5" stroke="transparent" points="10.5,-213.2 10.5,-236.2 229.5,-236.2 229.5,-213.2 10.5,-213.2"/>
<polygon fill="none" stroke="#000000" points="10.5,-213.2 10.5,-236.2 229.5,-236.2 229.5,-213.2 10.5,-213.2"/>
<text text-anchor="start" x="15.5" y="-221.8" font-family="Helvetica,sans-Serif" font-weight="bold" font-size="11.00" fill="#000000">suoritusjako</text>
<text text-anchor="start" x="194.5437" y="-221.3" font-family="Helvetica,sans-Serif" font-size="11.00" fill="#000000">[table]</text>
<polygon fill="none" stroke="#000000" points="10.5,-191.2 10.5,-213.2 130.5,-213.2 130.5,-191.2 10.5,-191.2"/>
<image xlink:href="../../images/primaryKeys.png" width="11px" height="12px" preserveAspectRatio="xMinYMin meet" x="15.5" y="-208.2"/>
<text text-anchor="start" x="30.5" y="-198.3" font-family="Helvetica,sans-Serif" font-size="11.00" fill="#000000">id</text>
<polygon fill="none" stroke="#000000" points="130.5,-191.2 130.5,-213.2 229.5,-213.2 229.5,-191.2 130.5,-191.2"/>
<text text-anchor="start" x="133.5" y="-198.9" font-family="Helvetica,sans-Serif" font-size="11.00" fill="#000000">bigserial[19]</text>
<polygon fill="#ffffff" stroke="transparent" points="10.5,-169.2 10.5,-191.2 130.5,-191.2 130.5,-169.2 10.5,-169.2"/>
<polygon fill="none" stroke="#000000" points="10.5,-169.2 10.5,-191.2 130.5,-191.2 130.5,-169.2 10.5,-169.2"/>
<image xlink:href="../../images/foreignKeys.png" width="11px" height="12px" preserveAspectRatio="xMinYMin meet" x="15.5" y="-186.2"/>
<text text-anchor="start" x="30.5" y="-176.3" font-family="Helvetica,sans-Serif" font-size="11.00" fill="#000000">secret</text>
<polygon fill="none" stroke="#000000" points="130.5,-169.2 130.5,-191.2 229.5,-191.2 229.5,-169.2 130.5,-169.2"/>
<text text-anchor="start" x="133.5" y="-176.9" font-family="Helvetica,sans-Serif" font-size="11.00" fill="#000000">text[2147483647]</text>
<polygon fill="none" stroke="#000000" points="10.5,-147.2 10.5,-169.2 130.5,-169.2 130.5,-147.2 10.5,-147.2"/>
<text text-anchor="start" x="30.5" y="-154.3" font-family="Helvetica,sans-Serif" font-size="11.00" fill="#000000">oppija_oid</text>
<polygon fill="none" stroke="#000000" points="130.5,-147.2 130.5,-169.2 229.5,-169.2 229.5,-147.2 130.5,-147.2"/>
<text text-anchor="start" x="133.5" y="-154.9" font-family="Helvetica,sans-Serif" font-size="11.00" fill="#000000">text[2147483647]</text>
<polygon fill="none" stroke="#000000" points="10.5,-125.2 10.5,-147.2 130.5,-147.2 130.5,-125.2 10.5,-125.2"/>
<text text-anchor="start" x="30.5" y="-132.3" font-family="Helvetica,sans-Serif" font-size="11.00" fill="#000000">suoritus_ids</text>
<polygon fill="none" stroke="#000000" points="130.5,-125.2 130.5,-147.2 229.5,-147.2 229.5,-125.2 130.5,-125.2"/>
<text text-anchor="start" x="133.2258" y="-132.9" font-family="Helvetica,sans-Serif" font-size="11.00" fill="#000000">jsonb[2147483647]</text>
<polygon fill="none" stroke="#000000" points="10.5,-103.2 10.5,-125.2 130.5,-125.2 130.5,-103.2 10.5,-103.2"/>
<text text-anchor="start" x="30.5" y="-110.3" font-family="Helvetica,sans-Serif" font-size="11.00" fill="#000000">voimassa_asti</text>
<polygon fill="none" stroke="#000000" points="130.5,-103.2 130.5,-125.2 229.5,-125.2 229.5,-103.2 130.5,-103.2"/>
<text text-anchor="start" x="133.5" y="-110.9" font-family="Helvetica,sans-Serif" font-size="11.00" fill="#000000">date[13]</text>
<polygon fill="none" stroke="#000000" points="10.5,-81.2 10.5,-103.2 130.5,-103.2 130.5,-81.2 10.5,-81.2"/>
<text text-anchor="start" x="30.5" y="-88.3" font-family="Helvetica,sans-Serif" font-size="11.00" fill="#000000">aikaleima</text>
<polygon fill="none" stroke="#000000" points="130.5,-81.2 130.5,-103.2 229.5,-103.2 229.5,-81.2 130.5,-81.2"/>
<text text-anchor="start" x="133.5" y="-88.9" font-family="Helvetica,sans-Serif" font-size="11.00" fill="#000000">timestamptz[35,6]</text>
<polygon fill="none" stroke="#000000" points="10.5,-59.2 10.5,-81.2 130.5,-81.2 130.5,-59.2 10.5,-59.2"/>
<text text-anchor="start" x="30.5" y="-66.3" font-family="Helvetica,sans-Serif" font-size="11.00" fill="#000000">kokonaisuudet</text>
<polygon fill="none" stroke="#000000" points="130.5,-59.2 130.5,-81.2 229.5,-81.2 229.5,-59.2 130.5,-59.2"/>
<text text-anchor="start" x="133.2258" y="-66.9" font-family="Helvetica,sans-Serif" font-size="11.00" fill="#000000">jsonb[2147483647]</text>
<polygon fill="#ffffff" stroke="transparent" points="10.5,-40.2 10.5,-59.2 74.5,-59.2 74.5,-40.2 10.5,-40.2"/>
<polygon fill="none" stroke="#000000" points="10.5,-40.2 10.5,-59.2 74.5,-59.2 74.5,-40.2 10.5,-40.2"/>
<text text-anchor="start" x="13.5" y="-46.3" font-family="Helvetica,sans-Serif" font-size="11.00" fill="#000000">&lt; 0</text>
<polygon fill="#ffffff" stroke="transparent" points="74.5,-40.2 74.5,-59.2 130.5,-59.2 130.5,-40.2 74.5,-40.2"/>
<polygon fill="none" stroke="#000000" points="74.5,-40.2 74.5,-59.2 130.5,-59.2 130.5,-40.2 74.5,-40.2"/>
<text text-anchor="start" x="121.3862" y="-46.3" font-family="Helvetica,sans-Serif" font-size="11.00" fill="#000000"> &#160;</text>
<polygon fill="#ffffff" stroke="transparent" points="130.5,-40.2 130.5,-59.2 229.5,-59.2 229.5,-40.2 130.5,-40.2"/>
<polygon fill="none" stroke="#000000" points="130.5,-40.2 130.5,-59.2 229.5,-59.2 229.5,-40.2 130.5,-40.2"/>
<text text-anchor="start" x="210.9053" y="-46.3" font-family="Helvetica,sans-Serif" font-size="11.00" fill="#000000">0 &gt;</text>
<polygon fill="none" stroke="#000000" stroke-width="2" points="9,-39.2 9,-237.2 230,-237.2 230,-39.2 9,-39.2"/>
</a>
</g>
</g>
</g>
</svg>
