<?xml version="1.0" encoding="UTF-8" standalone="no"?>
<!DOCTYPE svg PUBLIC "-//W3C//DTD SVG 1.1//EN"
 "http://www.w3.org/Graphics/SVG/1.1/DTD/svg11.dtd">
<!-- Generated by graphviz version 2.40.1 (20161225.0304)
 -->
<!-- Title: oneDegreeRelationshipsDiagramImplied Pages: 1 -->
<svg width="424pt" height="227pt"
 viewBox="0.00 0.00 424.00 226.70" xmlns="http://www.w3.org/2000/svg" xmlns:xlink="http://www.w3.org/1999/xlink">
<g id="graph0" class="graph" transform="scale(1 1) rotate(0) translate(4 222.7)">
<title>oneDegreeRelationshipsDiagramImplied</title>
<polygon fill="#ffffff" stroke="transparent" points="-4,4 -4,-222.7 420,-222.7 420,4 -4,4"/>
<text text-anchor="middle" x="72.4936" y="-7.3" font-family="Helvetica,sans-Serif" font-size="11.00" fill="#000000">Generated by SchemaSpy</text>
<!-- suoritusjako -->
<g id="node1" class="node">
<title>suoritusjako</title>
<g id="a_node1"><a xlink:href="../../tables/suoritusjako.html" xlink:title="suoritusjako" target="_top">
<polygon fill="#ffffff" stroke="transparent" points="286,-109.7 286,-214.7 408,-214.7 408,-109.7 286,-109.7"/>
<polygon fill="#f5f5f5" stroke="transparent" points="286,-191.2 286,-214.2 408,-214.2 408,-191.2 286,-191.2"/>
<polygon fill="none" stroke="#000000" points="286,-191.2 286,-214.2 408,-214.2 408,-191.2 286,-191.2"/>
<text text-anchor="start" x="291" y="-199.8" font-family="Helvetica,sans-Serif" font-weight="bold" font-size="11.00" fill="#000000">suoritusjako</text>
<text text-anchor="start" x="373.5219" y="-199.3" font-family="Helvetica,sans-Serif" font-size="11.00" fill="#000000">[table]</text>
<polygon fill="none" stroke="#000000" points="286,-169.2 286,-191.2 408,-191.2 408,-169.2 286,-169.2"/>
<image xlink:href="../../images/primaryKeys.png" width="11px" height="12px" preserveAspectRatio="xMinYMin meet" x="291" y="-186.2"/>
<text text-anchor="start" x="307" y="-176.3" font-family="Helvetica,sans-Serif" font-size="11.00" fill="#000000">id</text>
<polygon fill="#ffffff" stroke="transparent" points="286,-147.2 286,-169.2 408,-169.2 408,-147.2 286,-147.2"/>
<polygon fill="none" stroke="#000000" points="286,-147.2 286,-169.2 408,-169.2 408,-147.2 286,-147.2"/>
<image xlink:href="../../images/foreignKeys.png" width="11px" height="12px" preserveAspectRatio="xMinYMin meet" x="291" y="-164.2"/>
<text text-anchor="start" x="307" y="-154.3" font-family="Helvetica,sans-Serif" font-size="11.00" fill="#000000">secret</text>
<polygon fill="none" stroke="#000000" points="286,-128.2 286,-147.2 408,-147.2 408,-128.2 286,-128.2"/>
<text text-anchor="start" x="289" y="-134.3" font-family="Helvetica,sans-Serif" font-size="11.00" fill="#000000">...</text>
<polygon fill="#ffffff" stroke="transparent" points="286,-109.2 286,-128.2 345,-128.2 345,-109.2 286,-109.2"/>
<polygon fill="none" stroke="#000000" points="286,-109.2 286,-128.2 345,-128.2 345,-109.2 286,-109.2"/>
<text text-anchor="start" x="289" y="-115.3" font-family="Helvetica,sans-Serif" font-size="11.00" fill="#000000">&lt; 1</text>
<polygon fill="#ffffff" stroke="transparent" points="345,-109.2 345,-128.2 376,-128.2 376,-109.2 345,-109.2"/>
<polygon fill="none" stroke="#000000" points="345,-109.2 345,-128.2 376,-128.2 376,-109.2 345,-109.2"/>
<text text-anchor="start" x="366.8862" y="-115.3" font-family="Helvetica,sans-Serif" font-size="11.00" fill="#000000"> &#160;</text>
<polygon fill="#ffffff" stroke="transparent" points="376,-109.2 376,-128.2 408,-128.2 408,-109.2 376,-109.2"/>
<polygon fill="none" stroke="#000000" points="376,-109.2 376,-128.2 408,-128.2 408,-109.2 376,-109.2"/>
<text text-anchor="start" x="398.8862" y="-115.3" font-family="Helvetica,sans-Serif" font-size="11.00" fill="#000000"> &#160;</text>
</a>
</g>
</g>
<!-- suoritusjako_v2 -->
<g id="node2" class="node">
<title>suoritusjako_v2</title>
<g id="a_node2"><a xlink:href="../../tables/suoritusjako_v2.html" xlink:title="suoritusjako_v2" target="_top">
<polygon fill="#ffffff" stroke="transparent" points="8,-38.2 8,-194.2 237,-194.2 237,-38.2 8,-38.2"/>
<polygon fill="#f5f5f5" stroke="transparent" points="10.5,-169.2 10.5,-192.2 235.5,-192.2 235.5,-169.2 10.5,-169.2"/>
<polygon fill="none" stroke="#000000" points="10.5,-169.2 10.5,-192.2 235.5,-192.2 235.5,-169.2 10.5,-169.2"/>
<text text-anchor="start" x="15.5" y="-177.8" font-family="Helvetica,sans-Serif" font-weight="bold" font-size="11.00" fill="#000000">suoritusjako_v2</text>
<text text-anchor="start" x="200.5437" y="-177.3" font-family="Helvetica,sans-Serif" font-size="11.00" fill="#000000">[table]</text>
<polygon fill="none" stroke="#000000" points="10.5,-147.2 10.5,-169.2 136.5,-169.2 136.5,-147.2 10.5,-147.2"/>
<image xlink:href="../../images/primaryKeys.png" width="11px" height="12px" preserveAspectRatio="xMinYMin meet" x="15.5" y="-164.2"/>
<text text-anchor="start" x="30.5" y="-154.3" font-family="Helvetica,sans-Serif" font-size="11.00" fill="#000000">secret</text>
<polygon fill="none" stroke="#000000" points="136.5,-147.2 136.5,-169.2 235.5,-169.2 235.5,-147.2 136.5,-147.2"/>
<text text-anchor="start" x="139.5" y="-154.9" font-family="Helvetica,sans-Serif" font-size="11.00" fill="#000000">text[2147483647]</text>
<polygon fill="none" stroke="#000000" points="10.5,-125.2 10.5,-147.2 136.5,-147.2 136.5,-125.2 10.5,-125.2"/>
<text text-anchor="start" x="30.5" y="-132.3" font-family="Helvetica,sans-Serif" font-size="11.00" fill="#000000">oppija_oid</text>
<polygon fill="none" stroke="#000000" points="136.5,-125.2 136.5,-147.2 235.5,-147.2 235.5,-125.2 136.5,-125.2"/>
<text text-anchor="start" x="139.5" y="-132.9" font-family="Helvetica,sans-Serif" font-size="11.00" fill="#000000">text[2147483647]</text>
<polygon fill="none" stroke="#000000" points="10.5,-103.2 10.5,-125.2 136.5,-125.2 136.5,-103.2 10.5,-103.2"/>
<text text-anchor="start" x="30.5" y="-110.3" font-family="Helvetica,sans-Serif" font-size="11.00" fill="#000000">data</text>
<polygon fill="none" stroke="#000000" points="136.5,-103.2 136.5,-125.2 235.5,-125.2 235.5,-103.2 136.5,-103.2"/>
<text text-anchor="start" x="139.2258" y="-110.9" font-family="Helvetica,sans-Serif" font-size="11.00" fill="#000000">jsonb[2147483647]</text>
<polygon fill="none" stroke="#000000" points="10.5,-81.2 10.5,-103.2 136.5,-103.2 136.5,-81.2 10.5,-81.2"/>
<text text-anchor="start" x="30.5" y="-88.3" font-family="Helvetica,sans-Serif" font-size="11.00" fill="#000000">voimassa_asti</text>
<polygon fill="none" stroke="#000000" points="136.5,-81.2 136.5,-103.2 235.5,-103.2 235.5,-81.2 136.5,-81.2"/>
<text text-anchor="start" x="139.5" y="-88.9" font-family="Helvetica,sans-Serif" font-size="11.00" fill="#000000">date[13]</text>
<polygon fill="none" stroke="#000000" points="10.5,-59.2 10.5,-81.2 136.5,-81.2 136.5,-59.2 10.5,-59.2"/>
<text text-anchor="start" x="30.5" y="-66.3" font-family="Helvetica,sans-Serif" font-size="11.00" fill="#000000">aikaleima</text>
<polygon fill="none" stroke="#000000" points="136.5,-59.2 136.5,-81.2 235.5,-81.2 235.5,-59.2 136.5,-59.2"/>
<text text-anchor="start" x="139.5" y="-66.9" font-family="Helvetica,sans-Serif" font-size="11.00" fill="#000000">timestamptz[35,6]</text>
<polygon fill="#ffffff" stroke="transparent" points="10.5,-40.2 10.5,-59.2 77.5,-59.2 77.5,-40.2 10.5,-40.2"/>
<polygon fill="none" stroke="#000000" points="10.5,-40.2 10.5,-59.2 77.5,-59.2 77.5,-40.2 10.5,-40.2"/>
<text text-anchor="start" x="13.5" y="-46.3" font-family="Helvetica,sans-Serif" font-size="11.00" fill="#000000">&lt; 0</text>
<polygon fill="#ffffff" stroke="transparent" points="77.5,-40.2 77.5,-59.2 136.5,-59.2 136.5,-40.2 77.5,-40.2"/>
<polygon fill="none" stroke="#000000" points="77.5,-40.2 77.5,-59.2 136.5,-59.2 136.5,-40.2 77.5,-40.2"/>
<text text-anchor="start" x="127.3862" y="-46.3" font-family="Helvetica,sans-Serif" font-size="11.00" fill="#000000"> &#160;</text>
<polygon fill="#ffffff" stroke="transparent" points="136.5,-40.2 136.5,-59.2 235.5,-59.2 235.5,-40.2 136.5,-40.2"/>
<polygon fill="none" stroke="#000000" points="136.5,-40.2 136.5,-59.2 235.5,-59.2 235.5,-40.2 136.5,-40.2"/>
<text text-anchor="start" x="216.9053" y="-46.3" font-family="Helvetica,sans-Serif" font-size="11.00" fill="#000000">1 &gt;</text>
<polygon fill="none" stroke="#000000" stroke-width="2" points="9,-39.2 9,-193.2 236,-193.2 236,-39.2 9,-39.2"/>
</a>
</g>
</g>
<!-- suoritusjako&#45;&gt;suoritusjako_v2 -->
<g id="edge1" class="edge">
<title>suoritusjako:w&#45;&gt;suoritusjako_v2:e</title>
<path fill="none" stroke="#000000" stroke-dasharray="5,2" d="M275.3362,-158.2C260.9956,-158.2 253.9115,-158.2 235.5,-158.2"/>
<polygon fill="#000000" stroke="#000000" points="285.2,-154.2 285.2,-162.2 283.6,-162.2 283.6,-154.2 285.2,-154.2"/>
<polyline fill="none" stroke="#000000" points="286,-158.2 282,-158.2 "/>
<ellipse fill="none" stroke="#000000" cx="278.8" cy="-158.2001" rx="3.2" ry="3.2"/>
</g>
</g>
</svg>
