<?xml version="1.0" encoding="UTF-8" standalone="no"?>
<!DOCTYPE svg PUBLIC "-//W3C//DTD SVG 1.1//EN"
 "http://www.w3.org/Graphics/SVG/1.1/DTD/svg11.dtd">
<!-- Generated by graphviz version 2.40.1 (20161225.0304)
 -->
<!-- Title: oneDegreeRelationshipsDiagramImplied Pages: 1 -->
<svg width="398pt" height="227pt"
 viewBox="0.00 0.00 398.00 226.70" xmlns="http://www.w3.org/2000/svg" xmlns:xlink="http://www.w3.org/1999/xlink">
<g id="graph0" class="graph" transform="scale(1 1) rotate(0) translate(4 222.7)">
<title>oneDegreeRelationshipsDiagramImplied</title>
<polygon fill="#ffffff" stroke="transparent" points="-4,4 -4,-222.7 394,-222.7 394,4 -4,4"/>
<text text-anchor="middle" x="72.4936" y="-7.3" font-family="Helvetica,sans-Serif" font-size="11.00" fill="#000000">Generated by SchemaSpy</text>
<!-- suoritusjako -->
<g id="node1" class="node">
<title>suoritusjako</title>
<g id="a_node1"><a xlink:href="../../tables/suoritusjako.html" xlink:title="suoritusjako" target="_top">
<polygon fill="#ffffff" stroke="transparent" points="272,-109.7 272,-214.7 382,-214.7 382,-109.7 272,-109.7"/>
<polygon fill="#f5f5f5" stroke="transparent" points="272,-191.2 272,-214.2 382,-214.2 382,-191.2 272,-191.2"/>
<polygon fill="none" stroke="#000000" points="272,-191.2 272,-214.2 382,-214.2 382,-191.2 272,-191.2"/>
<text text-anchor="start" x="277" y="-199.8" font-family="Helvetica,sans-Serif" font-weight="bold" font-size="11.00" fill="#000000">suoritusjako</text>
<text text-anchor="start" x="347.5219" y="-199.3" font-family="Helvetica,sans-Serif" font-size="11.00" fill="#000000">[table]</text>
<polygon fill="none" stroke="#000000" points="272,-169.2 272,-191.2 382,-191.2 382,-169.2 272,-169.2"/>
<image xlink:href="../../images/primaryKeys.png" width="11px" height="12px" preserveAspectRatio="xMinYMin meet" x="277" y="-186.2"/>
<text text-anchor="start" x="295" y="-176.3" font-family="Helvetica,sans-Serif" font-size="11.00" fill="#000000">id</text>
<polygon fill="#ffffff" stroke="transparent" points="272,-147.2 272,-169.2 382,-169.2 382,-147.2 272,-147.2"/>
<polygon fill="none" stroke="#000000" points="272,-147.2 272,-169.2 382,-169.2 382,-147.2 272,-147.2"/>
<image xlink:href="../../images/foreignKeys.png" width="11px" height="12px" preserveAspectRatio="xMinYMin meet" x="277" y="-164.2"/>
<text text-anchor="start" x="295" y="-154.3" font-family="Helvetica,sans-Serif" font-size="11.00" fill="#000000">secret</text>
<polygon fill="none" stroke="#000000" points="272,-128.2 272,-147.2 382,-147.2 382,-128.2 272,-128.2"/>
<text text-anchor="start" x="275" y="-134.3" font-family="Helvetica,sans-Serif" font-size="11.00" fill="#000000">...</text>
<polygon fill="#ffffff" stroke="transparent" points="272,-109.2 272,-128.2 325,-128.2 325,-109.2 272,-109.2"/>
<polygon fill="none" stroke="#000000" points="272,-109.2 272,-128.2 325,-128.2 325,-109.2 272,-109.2"/>
<text text-anchor="start" x="275" y="-115.3" font-family="Helvetica,sans-Serif" font-size="11.00" fill="#000000">&lt; 1</text>
<polygon fill="#ffffff" stroke="transparent" points="325,-109.2 325,-128.2 353,-128.2 353,-109.2 325,-109.2"/>
<polygon fill="none" stroke="#000000" points="325,-109.2 325,-128.2 353,-128.2 353,-109.2 325,-109.2"/>
<text text-anchor="start" x="343.8862" y="-115.3" font-family="Helvetica,sans-Serif" font-size="11.00" fill="#000000"> &#160;</text>
<polygon fill="#ffffff" stroke="transparent" points="353,-109.2 353,-128.2 382,-128.2 382,-109.2 353,-109.2"/>
<polygon fill="none" stroke="#000000" points="353,-109.2 353,-128.2 382,-128.2 382,-109.2 353,-109.2"/>
<text text-anchor="start" x="372.8862" y="-115.3" font-family="Helvetica,sans-Serif" font-size="11.00" fill="#000000"> &#160;</text>
</a>
</g>
</g>
<!-- suoritusjako_v2 -->
<g id="node2" class="node">
<title>suoritusjako_v2</title>
<g id="a_node2"><a xlink:href="../../tables/suoritusjako_v2.html" xlink:title="suoritusjako_v2" target="_top">
<polygon fill="#ffffff" stroke="transparent" points="8,-38.2 8,-194.2 223,-194.2 223,-38.2 8,-38.2"/>
<polygon fill="#f5f5f5" stroke="transparent" points="10.5,-169.2 10.5,-192.2 221.5,-192.2 221.5,-169.2 10.5,-169.2"/>
<polygon fill="none" stroke="#000000" points="10.5,-169.2 10.5,-192.2 221.5,-192.2 221.5,-169.2 10.5,-169.2"/>
<text text-anchor="start" x="15.5" y="-177.8" font-family="Helvetica,sans-Serif" font-weight="bold" font-size="11.00" fill="#000000">suoritusjako_v2</text>
<text text-anchor="start" x="186.5437" y="-177.3" font-family="Helvetica,sans-Serif" font-size="11.00" fill="#000000">[table]</text>
<polygon fill="none" stroke="#000000" points="10.5,-147.2 10.5,-169.2 122.5,-169.2 122.5,-147.2 10.5,-147.2"/>
<image xlink:href="../../images/primaryKeys.png" width="11px" height="12px" preserveAspectRatio="xMinYMin meet" x="15.5" y="-164.2"/>
<text text-anchor="start" x="30.5" y="-154.3" font-family="Helvetica,sans-Serif" font-size="11.00" fill="#000000">secret</text>
<polygon fill="none" stroke="#000000" points="122.5,-147.2 122.5,-169.2 221.5,-169.2 221.5,-147.2 122.5,-147.2"/>
<text text-anchor="start" x="125.5" y="-154.9" font-family="Helvetica,sans-Serif" font-size="11.00" fill="#000000">text[2147483647]</text>
<polygon fill="none" stroke="#000000" points="10.5,-125.2 10.5,-147.2 122.5,-147.2 122.5,-125.2 10.5,-125.2"/>
<text text-anchor="start" x="30.5" y="-132.3" font-family="Helvetica,sans-Serif" font-size="11.00" fill="#000000">oppija_oid</text>
<polygon fill="none" stroke="#000000" points="122.5,-125.2 122.5,-147.2 221.5,-147.2 221.5,-125.2 122.5,-125.2"/>
<text text-anchor="start" x="125.5" y="-132.9" font-family="Helvetica,sans-Serif" font-size="11.00" fill="#000000">text[2147483647]</text>
<polygon fill="none" stroke="#000000" points="10.5,-103.2 10.5,-125.2 122.5,-125.2 122.5,-103.2 10.5,-103.2"/>
<text text-anchor="start" x="30.5" y="-110.3" font-family="Helvetica,sans-Serif" font-size="11.00" fill="#000000">data</text>
<polygon fill="none" stroke="#000000" points="122.5,-103.2 122.5,-125.2 221.5,-125.2 221.5,-103.2 122.5,-103.2"/>
<text text-anchor="start" x="125.2258" y="-110.9" font-family="Helvetica,sans-Serif" font-size="11.00" fill="#000000">jsonb[2147483647]</text>
<polygon fill="none" stroke="#000000" points="10.5,-81.2 10.5,-103.2 122.5,-103.2 122.5,-81.2 10.5,-81.2"/>
<text text-anchor="start" x="30.5" y="-88.3" font-family="Helvetica,sans-Serif" font-size="11.00" fill="#000000">voimassa_asti</text>
<polygon fill="none" stroke="#000000" points="122.5,-81.2 122.5,-103.2 221.5,-103.2 221.5,-81.2 122.5,-81.2"/>
<text text-anchor="start" x="125.5" y="-88.9" font-family="Helvetica,sans-Serif" font-size="11.00" fill="#000000">date[13]</text>
<polygon fill="none" stroke="#000000" points="10.5,-59.2 10.5,-81.2 122.5,-81.2 122.5,-59.2 10.5,-59.2"/>
<text text-anchor="start" x="30.5" y="-66.3" font-family="Helvetica,sans-Serif" font-size="11.00" fill="#000000">aikaleima</text>
<polygon fill="none" stroke="#000000" points="122.5,-59.2 122.5,-81.2 221.5,-81.2 221.5,-59.2 122.5,-59.2"/>
<text text-anchor="start" x="125.5" y="-66.9" font-family="Helvetica,sans-Serif" font-size="11.00" fill="#000000">timestamptz[35,6]</text>
<polygon fill="#ffffff" stroke="transparent" points="10.5,-40.2 10.5,-59.2 70.5,-59.2 70.5,-40.2 10.5,-40.2"/>
<polygon fill="none" stroke="#000000" points="10.5,-40.2 10.5,-59.2 70.5,-59.2 70.5,-40.2 10.5,-40.2"/>
<text text-anchor="start" x="13.5" y="-46.3" font-family="Helvetica,sans-Serif" font-size="11.00" fill="#000000">&lt; 0</text>
<polygon fill="#ffffff" stroke="transparent" points="70.5,-40.2 70.5,-59.2 122.5,-59.2 122.5,-40.2 70.5,-40.2"/>
<polygon fill="none" stroke="#000000" points="70.5,-40.2 70.5,-59.2 122.5,-59.2 122.5,-40.2 70.5,-40.2"/>
<text text-anchor="start" x="113.3862" y="-46.3" font-family="Helvetica,sans-Serif" font-size="11.00" fill="#000000"> &#160;</text>
<polygon fill="#ffffff" stroke="transparent" points="122.5,-40.2 122.5,-59.2 221.5,-59.2 221.5,-40.2 122.5,-40.2"/>
<polygon fill="none" stroke="#000000" points="122.5,-40.2 122.5,-59.2 221.5,-59.2 221.5,-40.2 122.5,-40.2"/>
<text text-anchor="start" x="202.9053" y="-46.3" font-family="Helvetica,sans-Serif" font-size="11.00" fill="#000000">1 &gt;</text>
<polygon fill="none" stroke="#000000" stroke-width="2" points="9,-39.2 9,-193.2 222,-193.2 222,-39.2 9,-39.2"/>
</a>
</g>
</g>
<!-- suoritusjako&#45;&gt;suoritusjako_v2 -->
<g id="edge1" class="edge">
<title>suoritusjako:w&#45;&gt;suoritusjako_v2:e</title>
<path fill="none" stroke="#000000" stroke-dasharray="5,2" d="M261.3362,-158.2C246.9956,-158.2 239.9115,-158.2 221.5,-158.2"/>
<polygon fill="#000000" stroke="#000000" points="271.2,-154.2 271.2,-162.2 269.6,-162.2 269.6,-154.2 271.2,-154.2"/>
<polyline fill="none" stroke="#000000" points="272,-158.2 268,-158.2 "/>
<ellipse fill="none" stroke="#000000" cx="264.8" cy="-158.2001" rx="3.2" ry="3.2"/>
</g>
</g>
</svg>
