<?xml version="1.0" encoding="UTF-8" standalone="no"?>
<!DOCTYPE svg PUBLIC "-//W3C//DTD SVG 1.1//EN"
 "http://www.w3.org/Graphics/SVG/1.1/DTD/svg11.dtd">
<!-- Generated by graphviz version 2.40.1 (20161225.0304)
 -->
<!-- Title: oneDegreeRelationshipsDiagramImplied Pages: 1 -->
<svg width="419pt" height="250pt"
 viewBox="0.00 0.00 419.00 250.20" xmlns="http://www.w3.org/2000/svg" xmlns:xlink="http://www.w3.org/1999/xlink">
<g id="graph0" class="graph" transform="scale(1 1) rotate(0) translate(4 246.2)">
<title>oneDegreeRelationshipsDiagramImplied</title>
<polygon fill="#ffffff" stroke="transparent" points="-4,4 -4,-246.2 415,-246.2 415,4 -4,4"/>
<text text-anchor="middle" x="72.4936" y="-7.3" font-family="Helvetica,sans-Serif" font-size="11.00" fill="#000000">Generated by SchemaSpy</text>
<!-- suoritusjako -->
<g id="node1" class="node">
<title>suoritusjako</title>
<g id="a_node1"><a xlink:href="../../tables/suoritusjako.html" xlink:title="suoritusjako" target="_top">
<polygon fill="#ffffff" stroke="transparent" points="189,-38.2 189,-238.2 403,-238.2 403,-38.2 189,-38.2"/>
<polygon fill="#f5f5f5" stroke="transparent" points="191,-213.2 191,-236.2 401,-236.2 401,-213.2 191,-213.2"/>
<polygon fill="none" stroke="#000000" points="191,-213.2 191,-236.2 401,-236.2 401,-213.2 191,-213.2"/>
<text text-anchor="start" x="196" y="-221.8" font-family="Helvetica,sans-Serif" font-weight="bold" font-size="11.00" fill="#000000">suoritusjako</text>
<text text-anchor="start" x="366.0437" y="-221.3" font-family="Helvetica,sans-Serif" font-size="11.00" fill="#000000">[table]</text>
<polygon fill="none" stroke="#000000" points="191,-191.2 191,-213.2 302,-213.2 302,-191.2 191,-191.2"/>
<image xlink:href="../../images/primaryKeys.png" width="11px" height="12px" preserveAspectRatio="xMinYMin meet" x="196" y="-208.2"/>
<text text-anchor="start" x="211" y="-198.3" font-family="Helvetica,sans-Serif" font-size="11.00" fill="#000000">id</text>
<polygon fill="none" stroke="#000000" points="302,-191.2 302,-213.2 401,-213.2 401,-191.2 302,-191.2"/>
<text text-anchor="start" x="305" y="-198.9" font-family="Helvetica,sans-Serif" font-size="11.00" fill="#000000">bigserial[19]</text>
<polygon fill="#ffffff" stroke="transparent" points="191,-169.2 191,-191.2 302,-191.2 302,-169.2 191,-169.2"/>
<polygon fill="none" stroke="#000000" points="191,-169.2 191,-191.2 302,-191.2 302,-169.2 191,-169.2"/>
<image xlink:href="../../images/foreignKeys.png" width="11px" height="12px" preserveAspectRatio="xMinYMin meet" x="196" y="-186.2"/>
<text text-anchor="start" x="211" y="-176.3" font-family="Helvetica,sans-Serif" font-size="11.00" fill="#000000">secret</text>
<polygon fill="none" stroke="#000000" points="302,-169.2 302,-191.2 401,-191.2 401,-169.2 302,-169.2"/>
<text text-anchor="start" x="305" y="-176.9" font-family="Helvetica,sans-Serif" font-size="11.00" fill="#000000">text[2147483647]</text>
<polygon fill="none" stroke="#000000" points="191,-147.2 191,-169.2 302,-169.2 302,-147.2 191,-147.2"/>
<text text-anchor="start" x="211" y="-154.3" font-family="Helvetica,sans-Serif" font-size="11.00" fill="#000000">oppija_oid</text>
<polygon fill="none" stroke="#000000" points="302,-147.2 302,-169.2 401,-169.2 401,-147.2 302,-147.2"/>
<text text-anchor="start" x="305" y="-154.9" font-family="Helvetica,sans-Serif" font-size="11.00" fill="#000000">text[2147483647]</text>
<polygon fill="none" stroke="#000000" points="191,-125.2 191,-147.2 302,-147.2 302,-125.2 191,-125.2"/>
<text text-anchor="start" x="211" y="-132.3" font-family="Helvetica,sans-Serif" font-size="11.00" fill="#000000">suoritus_ids</text>
<polygon fill="none" stroke="#000000" points="302,-125.2 302,-147.2 401,-147.2 401,-125.2 302,-125.2"/>
<text text-anchor="start" x="304.7258" y="-132.9" font-family="Helvetica,sans-Serif" font-size="11.00" fill="#000000">jsonb[2147483647]</text>
<polygon fill="none" stroke="#000000" points="191,-103.2 191,-125.2 302,-125.2 302,-103.2 191,-103.2"/>
<text text-anchor="start" x="211" y="-110.3" font-family="Helvetica,sans-Serif" font-size="11.00" fill="#000000">voimassa_asti</text>
<polygon fill="none" stroke="#000000" points="302,-103.2 302,-125.2 401,-125.2 401,-103.2 302,-103.2"/>
<text text-anchor="start" x="305" y="-110.9" font-family="Helvetica,sans-Serif" font-size="11.00" fill="#000000">date[13]</text>
<polygon fill="none" stroke="#000000" points="191,-81.2 191,-103.2 302,-103.2 302,-81.2 191,-81.2"/>
<text text-anchor="start" x="211" y="-88.3" font-family="Helvetica,sans-Serif" font-size="11.00" fill="#000000">aikaleima</text>
<polygon fill="none" stroke="#000000" points="302,-81.2 302,-103.2 401,-103.2 401,-81.2 302,-81.2"/>
<text text-anchor="start" x="305" y="-88.9" font-family="Helvetica,sans-Serif" font-size="11.00" fill="#000000">timestamptz[35,6]</text>
<polygon fill="none" stroke="#000000" points="191,-59.2 191,-81.2 302,-81.2 302,-59.2 191,-59.2"/>
<text text-anchor="start" x="211" y="-66.3" font-family="Helvetica,sans-Serif" font-size="11.00" fill="#000000">kokonaisuudet</text>
<polygon fill="none" stroke="#000000" points="302,-59.2 302,-81.2 401,-81.2 401,-59.2 302,-59.2"/>
<text text-anchor="start" x="304.7258" y="-66.9" font-family="Helvetica,sans-Serif" font-size="11.00" fill="#000000">jsonb[2147483647]</text>
<polygon fill="#ffffff" stroke="transparent" points="191,-40.2 191,-59.2 251,-59.2 251,-40.2 191,-40.2"/>
<polygon fill="none" stroke="#000000" points="191,-40.2 191,-59.2 251,-59.2 251,-40.2 191,-40.2"/>
<text text-anchor="start" x="194" y="-46.3" font-family="Helvetica,sans-Serif" font-size="11.00" fill="#000000">&lt; 1</text>
<polygon fill="#ffffff" stroke="transparent" points="251,-40.2 251,-59.2 302,-59.2 302,-40.2 251,-40.2"/>
<polygon fill="none" stroke="#000000" points="251,-40.2 251,-59.2 302,-59.2 302,-40.2 251,-40.2"/>
<text text-anchor="start" x="292.8862" y="-46.3" font-family="Helvetica,sans-Serif" font-size="11.00" fill="#000000"> &#160;</text>
<polygon fill="#ffffff" stroke="transparent" points="302,-40.2 302,-59.2 401,-59.2 401,-40.2 302,-40.2"/>
<polygon fill="none" stroke="#000000" points="302,-40.2 302,-59.2 401,-59.2 401,-40.2 302,-40.2"/>
<text text-anchor="start" x="382.4053" y="-46.3" font-family="Helvetica,sans-Serif" font-size="11.00" fill="#000000">0 &gt;</text>
<polygon fill="none" stroke="#000000" stroke-width="2" points="190,-39.2 190,-237.2 402,-237.2 402,-39.2 190,-39.2"/>
</a>
</g>
</g>
<!-- suoritusjako_v2 -->
<g id="node2" class="node">
<title>suoritusjako_v2</title>
<g id="a_node2"><a xlink:href="../../tables/suoritusjako_v2.html" xlink:title="suoritusjako_v2" target="_top">
<polygon fill="#ffffff" stroke="transparent" points="8,-131.7 8,-214.7 140,-214.7 140,-131.7 8,-131.7"/>
<polygon fill="#f5f5f5" stroke="transparent" points="8,-191.2 8,-214.2 140,-214.2 140,-191.2 8,-191.2"/>
<polygon fill="none" stroke="#000000" points="8,-191.2 8,-214.2 140,-214.2 140,-191.2 8,-191.2"/>
<text text-anchor="start" x="13" y="-199.8" font-family="Helvetica,sans-Serif" font-weight="bold" font-size="11.00" fill="#000000">suoritusjako_v2</text>
<text text-anchor="start" x="105.5219" y="-199.3" font-family="Helvetica,sans-Serif" font-size="11.00" fill="#000000">[table]</text>
<polygon fill="none" stroke="#000000" points="8,-169.2 8,-191.2 140,-191.2 140,-169.2 8,-169.2"/>
<image xlink:href="../../images/primaryKeys.png" width="11px" height="12px" preserveAspectRatio="xMinYMin meet" x="13" y="-186.2"/>
<text text-anchor="start" x="37" y="-176.3" font-family="Helvetica,sans-Serif" font-size="11.00" fill="#000000">secret</text>
<polygon fill="none" stroke="#000000" points="8,-150.2 8,-169.2 140,-169.2 140,-150.2 8,-150.2"/>
<text text-anchor="start" x="11" y="-156.3" font-family="Helvetica,sans-Serif" font-size="11.00" fill="#000000">...</text>
<polygon fill="#ffffff" stroke="transparent" points="8,-131.2 8,-150.2 63,-150.2 63,-131.2 8,-131.2"/>
<polygon fill="none" stroke="#000000" points="8,-131.2 8,-150.2 63,-150.2 63,-131.2 8,-131.2"/>
<text text-anchor="start" x="11" y="-137.3" font-family="Helvetica,sans-Serif" font-size="11.00" fill="#000000"> &#160;</text>
<polygon fill="#ffffff" stroke="transparent" points="63,-131.2 63,-150.2 97,-150.2 97,-131.2 63,-131.2"/>
<polygon fill="none" stroke="#000000" points="63,-131.2 63,-150.2 97,-150.2 97,-131.2 63,-131.2"/>
<text text-anchor="start" x="87.8862" y="-137.3" font-family="Helvetica,sans-Serif" font-size="11.00" fill="#000000"> &#160;</text>
<polygon fill="#ffffff" stroke="transparent" points="97,-131.2 97,-150.2 140,-150.2 140,-131.2 97,-131.2"/>
<polygon fill="none" stroke="#000000" points="97,-131.2 97,-150.2 140,-150.2 140,-131.2 97,-131.2"/>
<text text-anchor="start" x="121.4053" y="-137.3" font-family="Helvetica,sans-Serif" font-size="11.00" fill="#000000">1 &gt;</text>
</a>
</g>
</g>
<!-- suoritusjako&#45;&gt;suoritusjako_v2 -->
<g id="edge1" class="edge">
<title>suoritusjako:w&#45;&gt;suoritusjako_v2:e</title>
<path fill="none" stroke="#000000" stroke-dasharray="5,2" d="M180.2307,-180.2C165.748,-180.2 158.5938,-180.2 140,-180.2"/>
<polygon fill="#000000" stroke="#000000" points="190.2,-176.2 190.2,-184.2 188.6,-184.2 188.6,-176.2 190.2,-176.2"/>
<polyline fill="none" stroke="#000000" points="191,-180.2 187,-180.2 "/>
<ellipse fill="none" stroke="#000000" cx="183.8" cy="-180.2001" rx="3.2" ry="3.2"/>
</g>
</g>
</svg>
