<?xml version="1.0" encoding="UTF-8" standalone="no"?>
<!DOCTYPE svg PUBLIC "-//W3C//DTD SVG 1.1//EN"
 "http://www.w3.org/Graphics/SVG/1.1/DTD/svg11.dtd">
<!-- Generated by graphviz version 2.40.1 (20161225.0304)
 -->
<!-- Title: oneDegreeRelationshipsDiagramImplied Pages: 1 -->
<svg width="411pt" height="250pt"
 viewBox="0.00 0.00 411.00 250.20" xmlns="http://www.w3.org/2000/svg" xmlns:xlink="http://www.w3.org/1999/xlink">
<g id="graph0" class="graph" transform="scale(1 1) rotate(0) translate(4 246.2)">
<title>oneDegreeRelationshipsDiagramImplied</title>
<polygon fill="#ffffff" stroke="transparent" points="-4,4 -4,-246.2 407,-246.2 407,4 -4,4"/>
<text text-anchor="middle" x="72.4936" y="-7.3" font-family="Helvetica,sans-Serif" font-size="11.00" fill="#000000">Generated by SchemaSpy</text>
<!-- suoritusjako -->
<g id="node1" class="node">
<title>suoritusjako</title>
<g id="a_node1"><a xlink:href="../../tables/suoritusjako.html" xlink:title="suoritusjako" target="_top">
<polygon fill="#ffffff" stroke="transparent" points="187,-38.2 187,-238.2 395,-238.2 395,-38.2 187,-38.2"/>
<polygon fill="#f5f5f5" stroke="transparent" points="189,-213.2 189,-236.2 393,-236.2 393,-213.2 189,-213.2"/>
<polygon fill="none" stroke="#000000" points="189,-213.2 189,-236.2 393,-236.2 393,-213.2 189,-213.2"/>
<text text-anchor="start" x="194" y="-221.8" font-family="Helvetica,sans-Serif" font-weight="bold" font-size="11.00" fill="#000000">suoritusjako</text>
<text text-anchor="start" x="358.0437" y="-221.3" font-family="Helvetica,sans-Serif" font-size="11.00" fill="#000000">[table]</text>
<polygon fill="none" stroke="#000000" points="189,-191.2 189,-213.2 294,-213.2 294,-191.2 189,-191.2"/>
<image xlink:href="../../images/primaryKeys.png" width="11px" height="12px" preserveAspectRatio="xMinYMin meet" x="194" y="-208.2"/>
<text text-anchor="start" x="209" y="-198.3" font-family="Helvetica,sans-Serif" font-size="11.00" fill="#000000">id</text>
<polygon fill="none" stroke="#000000" points="294,-191.2 294,-213.2 393,-213.2 393,-191.2 294,-191.2"/>
<text text-anchor="start" x="297" y="-198.9" font-family="Helvetica,sans-Serif" font-size="11.00" fill="#000000">bigserial[19]</text>
<polygon fill="#ffffff" stroke="transparent" points="189,-169.2 189,-191.2 294,-191.2 294,-169.2 189,-169.2"/>
<polygon fill="none" stroke="#000000" points="189,-169.2 189,-191.2 294,-191.2 294,-169.2 189,-169.2"/>
<image xlink:href="../../images/foreignKeys.png" width="11px" height="12px" preserveAspectRatio="xMinYMin meet" x="194" y="-186.2"/>
<text text-anchor="start" x="209" y="-176.3" font-family="Helvetica,sans-Serif" font-size="11.00" fill="#000000">secret</text>
<polygon fill="none" stroke="#000000" points="294,-169.2 294,-191.2 393,-191.2 393,-169.2 294,-169.2"/>
<text text-anchor="start" x="297" y="-176.9" font-family="Helvetica,sans-Serif" font-size="11.00" fill="#000000">text[2147483647]</text>
<polygon fill="none" stroke="#000000" points="189,-147.2 189,-169.2 294,-169.2 294,-147.2 189,-147.2"/>
<text text-anchor="start" x="209" y="-154.3" font-family="Helvetica,sans-Serif" font-size="11.00" fill="#000000">oppija_oid</text>
<polygon fill="none" stroke="#000000" points="294,-147.2 294,-169.2 393,-169.2 393,-147.2 294,-147.2"/>
<text text-anchor="start" x="297" y="-154.9" font-family="Helvetica,sans-Serif" font-size="11.00" fill="#000000">text[2147483647]</text>
<polygon fill="none" stroke="#000000" points="189,-125.2 189,-147.2 294,-147.2 294,-125.2 189,-125.2"/>
<text text-anchor="start" x="209" y="-132.3" font-family="Helvetica,sans-Serif" font-size="11.00" fill="#000000">suoritus_ids</text>
<polygon fill="none" stroke="#000000" points="294,-125.2 294,-147.2 393,-147.2 393,-125.2 294,-125.2"/>
<text text-anchor="start" x="296.7258" y="-132.9" font-family="Helvetica,sans-Serif" font-size="11.00" fill="#000000">jsonb[2147483647]</text>
<polygon fill="none" stroke="#000000" points="189,-103.2 189,-125.2 294,-125.2 294,-103.2 189,-103.2"/>
<text text-anchor="start" x="209" y="-110.3" font-family="Helvetica,sans-Serif" font-size="11.00" fill="#000000">voimassa_asti</text>
<polygon fill="none" stroke="#000000" points="294,-103.2 294,-125.2 393,-125.2 393,-103.2 294,-103.2"/>
<text text-anchor="start" x="297" y="-110.9" font-family="Helvetica,sans-Serif" font-size="11.00" fill="#000000">date[13]</text>
<polygon fill="none" stroke="#000000" points="189,-81.2 189,-103.2 294,-103.2 294,-81.2 189,-81.2"/>
<text text-anchor="start" x="209" y="-88.3" font-family="Helvetica,sans-Serif" font-size="11.00" fill="#000000">aikaleima</text>
<polygon fill="none" stroke="#000000" points="294,-81.2 294,-103.2 393,-103.2 393,-81.2 294,-81.2"/>
<text text-anchor="start" x="297" y="-88.9" font-family="Helvetica,sans-Serif" font-size="11.00" fill="#000000">timestamptz[35,6]</text>
<polygon fill="none" stroke="#000000" points="189,-59.2 189,-81.2 294,-81.2 294,-59.2 189,-59.2"/>
<text text-anchor="start" x="209" y="-66.3" font-family="Helvetica,sans-Serif" font-size="11.00" fill="#000000">kokonaisuudet</text>
<polygon fill="none" stroke="#000000" points="294,-59.2 294,-81.2 393,-81.2 393,-59.2 294,-59.2"/>
<text text-anchor="start" x="296.7258" y="-66.9" font-family="Helvetica,sans-Serif" font-size="11.00" fill="#000000">jsonb[2147483647]</text>
<polygon fill="#ffffff" stroke="transparent" points="189,-40.2 189,-59.2 246,-59.2 246,-40.2 189,-40.2"/>
<polygon fill="none" stroke="#000000" points="189,-40.2 189,-59.2 246,-59.2 246,-40.2 189,-40.2"/>
<text text-anchor="start" x="192" y="-46.3" font-family="Helvetica,sans-Serif" font-size="11.00" fill="#000000">&lt; 1</text>
<polygon fill="#ffffff" stroke="transparent" points="246,-40.2 246,-59.2 294,-59.2 294,-40.2 246,-40.2"/>
<polygon fill="none" stroke="#000000" points="246,-40.2 246,-59.2 294,-59.2 294,-40.2 246,-40.2"/>
<text text-anchor="start" x="284.8862" y="-46.3" font-family="Helvetica,sans-Serif" font-size="11.00" fill="#000000"> &#160;</text>
<polygon fill="#ffffff" stroke="transparent" points="294,-40.2 294,-59.2 393,-59.2 393,-40.2 294,-40.2"/>
<polygon fill="none" stroke="#000000" points="294,-40.2 294,-59.2 393,-59.2 393,-40.2 294,-40.2"/>
<text text-anchor="start" x="374.4053" y="-46.3" font-family="Helvetica,sans-Serif" font-size="11.00" fill="#000000">0 &gt;</text>
<polygon fill="none" stroke="#000000" stroke-width="2" points="188,-39.2 188,-237.2 394,-237.2 394,-39.2 188,-39.2"/>
</a>
</g>
</g>
<!-- suoritusjako_v2 -->
<g id="node2" class="node">
<title>suoritusjako_v2</title>
<g id="a_node2"><a xlink:href="../../tables/suoritusjako_v2.html" xlink:title="suoritusjako_v2" target="_top">
<polygon fill="#ffffff" stroke="transparent" points="8,-131.7 8,-214.7 138,-214.7 138,-131.7 8,-131.7"/>
<polygon fill="#f5f5f5" stroke="transparent" points="8,-191.2 8,-214.2 138,-214.2 138,-191.2 8,-191.2"/>
<polygon fill="none" stroke="#000000" points="8,-191.2 8,-214.2 138,-214.2 138,-191.2 8,-191.2"/>
<text text-anchor="start" x="13" y="-199.8" font-family="Helvetica,sans-Serif" font-weight="bold" font-size="11.00" fill="#000000">suoritusjako_v2</text>
<text text-anchor="start" x="103.5219" y="-199.3" font-family="Helvetica,sans-Serif" font-size="11.00" fill="#000000">[table]</text>
<polygon fill="none" stroke="#000000" points="8,-169.2 8,-191.2 138,-191.2 138,-169.2 8,-169.2"/>
<image xlink:href="../../images/primaryKeys.png" width="11px" height="12px" preserveAspectRatio="xMinYMin meet" x="13" y="-186.2"/>
<text text-anchor="start" x="37" y="-176.3" font-family="Helvetica,sans-Serif" font-size="11.00" fill="#000000">secret</text>
<polygon fill="none" stroke="#000000" points="8,-150.2 8,-169.2 138,-169.2 138,-150.2 8,-150.2"/>
<text text-anchor="start" x="11" y="-156.3" font-family="Helvetica,sans-Serif" font-size="11.00" fill="#000000">...</text>
<polygon fill="#ffffff" stroke="transparent" points="8,-131.2 8,-150.2 62,-150.2 62,-131.2 8,-131.2"/>
<polygon fill="none" stroke="#000000" points="8,-131.2 8,-150.2 62,-150.2 62,-131.2 8,-131.2"/>
<text text-anchor="start" x="11" y="-137.3" font-family="Helvetica,sans-Serif" font-size="11.00" fill="#000000"> &#160;</text>
<polygon fill="#ffffff" stroke="transparent" points="62,-131.2 62,-150.2 95,-150.2 95,-131.2 62,-131.2"/>
<polygon fill="none" stroke="#000000" points="62,-131.2 62,-150.2 95,-150.2 95,-131.2 62,-131.2"/>
<text text-anchor="start" x="85.8862" y="-137.3" font-family="Helvetica,sans-Serif" font-size="11.00" fill="#000000"> &#160;</text>
<polygon fill="#ffffff" stroke="transparent" points="95,-131.2 95,-150.2 138,-150.2 138,-131.2 95,-131.2"/>
<polygon fill="none" stroke="#000000" points="95,-131.2 95,-150.2 138,-150.2 138,-131.2 95,-131.2"/>
<text text-anchor="start" x="119.4053" y="-137.3" font-family="Helvetica,sans-Serif" font-size="11.00" fill="#000000">1 &gt;</text>
</a>
</g>
</g>
<!-- suoritusjako&#45;&gt;suoritusjako_v2 -->
<g id="edge1" class="edge">
<title>suoritusjako:w&#45;&gt;suoritusjako_v2:e</title>
<path fill="none" stroke="#000000" stroke-dasharray="5,2" d="M178.2307,-180.2C163.748,-180.2 156.5938,-180.2 138,-180.2"/>
<polygon fill="#000000" stroke="#000000" points="188.2,-176.2 188.2,-184.2 186.6,-184.2 186.6,-176.2 188.2,-176.2"/>
<polyline fill="none" stroke="#000000" points="189,-180.2 185,-180.2 "/>
<ellipse fill="none" stroke="#000000" cx="181.8" cy="-180.2001" rx="3.2" ry="3.2"/>
</g>
</g>
</svg>
