<?xml version="1.0" encoding="UTF-8" standalone="no"?>
<!DOCTYPE svg PUBLIC "-//W3C//DTD SVG 1.1//EN"
 "http://www.w3.org/Graphics/SVG/1.1/DTD/svg11.dtd">
<!-- Generated by graphviz version 2.40.1 (20161225.0304)
 -->
<!-- Title: oneDegreeRelationshipsDiagramImplied Pages: 1 -->
<svg width="409pt" height="228pt"
 viewBox="0.00 0.00 409.00 228.20" xmlns="http://www.w3.org/2000/svg" xmlns:xlink="http://www.w3.org/1999/xlink">
<g id="graph0" class="graph" transform="scale(1 1) rotate(0) translate(4 224.2)">
<title>oneDegreeRelationshipsDiagramImplied</title>
<polygon fill="#ffffff" stroke="transparent" points="-4,4 -4,-224.2 405,-224.2 405,4 -4,4"/>
<text text-anchor="middle" x="72.4936" y="-7.3" font-family="Helvetica,sans-Serif" font-size="11.00" fill="#000000">Generated by SchemaSpy</text>
<!-- suoritusjako -->
<g id="node1" class="node">
<title>suoritusjako</title>
<g id="a_node1"><a xlink:href="../../tables/suoritusjako.html" xlink:title="suoritusjako" target="_top">
<polygon fill="#ffffff" stroke="transparent" points="187,-38.2 187,-216.2 393,-216.2 393,-38.2 187,-38.2"/>
<polygon fill="#f5f5f5" stroke="transparent" points="189,-191.2 189,-214.2 391,-214.2 391,-191.2 189,-191.2"/>
<polygon fill="none" stroke="#000000" points="189,-191.2 189,-214.2 391,-214.2 391,-191.2 189,-191.2"/>
<text text-anchor="start" x="194" y="-199.8" font-family="Helvetica,sans-Serif" font-weight="bold" font-size="11.00" fill="#000000">suoritusjako</text>
<text text-anchor="start" x="356.0437" y="-199.3" font-family="Helvetica,sans-Serif" font-size="11.00" fill="#000000">[table]</text>
<polygon fill="none" stroke="#000000" points="189,-169.2 189,-191.2 292,-191.2 292,-169.2 189,-169.2"/>
<image xlink:href="../../images/primaryKeys.png" width="11px" height="12px" preserveAspectRatio="xMinYMin meet" x="194" y="-186.2"/>
<text text-anchor="start" x="209" y="-176.3" font-family="Helvetica,sans-Serif" font-size="11.00" fill="#000000">id</text>
<polygon fill="none" stroke="#000000" points="292,-169.2 292,-191.2 391,-191.2 391,-169.2 292,-169.2"/>
<text text-anchor="start" x="295" y="-176.9" font-family="Helvetica,sans-Serif" font-size="11.00" fill="#000000">bigserial[19]</text>
<polygon fill="#ffffff" stroke="transparent" points="189,-147.2 189,-169.2 292,-169.2 292,-147.2 189,-147.2"/>
<polygon fill="none" stroke="#000000" points="189,-147.2 189,-169.2 292,-169.2 292,-147.2 189,-147.2"/>
<image xlink:href="../../images/foreignKeys.png" width="11px" height="12px" preserveAspectRatio="xMinYMin meet" x="194" y="-164.2"/>
<text text-anchor="start" x="209" y="-154.3" font-family="Helvetica,sans-Serif" font-size="11.00" fill="#000000">secret</text>
<polygon fill="none" stroke="#000000" points="292,-147.2 292,-169.2 391,-169.2 391,-147.2 292,-147.2"/>
<text text-anchor="start" x="295" y="-154.9" font-family="Helvetica,sans-Serif" font-size="11.00" fill="#000000">text[2147483647]</text>
<polygon fill="none" stroke="#000000" points="189,-125.2 189,-147.2 292,-147.2 292,-125.2 189,-125.2"/>
<text text-anchor="start" x="209" y="-132.3" font-family="Helvetica,sans-Serif" font-size="11.00" fill="#000000">oppija_oid</text>
<polygon fill="none" stroke="#000000" points="292,-125.2 292,-147.2 391,-147.2 391,-125.2 292,-125.2"/>
<text text-anchor="start" x="295" y="-132.9" font-family="Helvetica,sans-Serif" font-size="11.00" fill="#000000">text[2147483647]</text>
<polygon fill="none" stroke="#000000" points="189,-103.2 189,-125.2 292,-125.2 292,-103.2 189,-103.2"/>
<text text-anchor="start" x="209" y="-110.3" font-family="Helvetica,sans-Serif" font-size="11.00" fill="#000000">suoritus_ids</text>
<polygon fill="none" stroke="#000000" points="292,-103.2 292,-125.2 391,-125.2 391,-103.2 292,-103.2"/>
<text text-anchor="start" x="294.7258" y="-110.9" font-family="Helvetica,sans-Serif" font-size="11.00" fill="#000000">jsonb[2147483647]</text>
<polygon fill="none" stroke="#000000" points="189,-81.2 189,-103.2 292,-103.2 292,-81.2 189,-81.2"/>
<text text-anchor="start" x="209" y="-88.3" font-family="Helvetica,sans-Serif" font-size="11.00" fill="#000000">voimassa_asti</text>
<polygon fill="none" stroke="#000000" points="292,-81.2 292,-103.2 391,-103.2 391,-81.2 292,-81.2"/>
<text text-anchor="start" x="295" y="-88.9" font-family="Helvetica,sans-Serif" font-size="11.00" fill="#000000">date[13]</text>
<polygon fill="none" stroke="#000000" points="189,-59.2 189,-81.2 292,-81.2 292,-59.2 189,-59.2"/>
<text text-anchor="start" x="209" y="-66.3" font-family="Helvetica,sans-Serif" font-size="11.00" fill="#000000">aikaleima</text>
<polygon fill="none" stroke="#000000" points="292,-59.2 292,-81.2 391,-81.2 391,-59.2 292,-59.2"/>
<text text-anchor="start" x="295" y="-66.9" font-family="Helvetica,sans-Serif" font-size="11.00" fill="#000000">timestamptz[35,6]</text>
<polygon fill="#ffffff" stroke="transparent" points="189,-40.2 189,-59.2 232,-59.2 232,-40.2 189,-40.2"/>
<polygon fill="none" stroke="#000000" points="189,-40.2 189,-59.2 232,-59.2 232,-40.2 189,-40.2"/>
<text text-anchor="start" x="192" y="-46.3" font-family="Helvetica,sans-Serif" font-size="11.00" fill="#000000">&lt; 1</text>
<polygon fill="#ffffff" stroke="transparent" points="232,-40.2 232,-59.2 292,-59.2 292,-40.2 232,-40.2"/>
<polygon fill="none" stroke="#000000" points="232,-40.2 232,-59.2 292,-59.2 292,-40.2 232,-40.2"/>
<text text-anchor="start" x="256.6105" y="-46.3" font-family="Helvetica,sans-Serif" font-size="11.00" fill="#000000">0 rows</text>
<polygon fill="#ffffff" stroke="transparent" points="292,-40.2 292,-59.2 391,-59.2 391,-40.2 292,-40.2"/>
<polygon fill="none" stroke="#000000" points="292,-40.2 292,-59.2 391,-59.2 391,-40.2 292,-40.2"/>
<text text-anchor="start" x="372.4053" y="-46.3" font-family="Helvetica,sans-Serif" font-size="11.00" fill="#000000">0 &gt;</text>
<polygon fill="none" stroke="#000000" stroke-width="2" points="188,-39.2 188,-215.2 392,-215.2 392,-39.2 188,-39.2"/>
</a>
</g>
</g>
<!-- suoritusjako_v2 -->
<g id="node2" class="node">
<title>suoritusjako_v2</title>
<g id="a_node2"><a xlink:href="../../tables/suoritusjako_v2.html" xlink:title="suoritusjako_v2" target="_top">
<polygon fill="#ffffff" stroke="transparent" points="8,-109.7 8,-192.7 138,-192.7 138,-109.7 8,-109.7"/>
<polygon fill="#f5f5f5" stroke="transparent" points="8,-169.2 8,-192.2 138,-192.2 138,-169.2 8,-169.2"/>
<polygon fill="none" stroke="#000000" points="8,-169.2 8,-192.2 138,-192.2 138,-169.2 8,-169.2"/>
<text text-anchor="start" x="13" y="-177.8" font-family="Helvetica,sans-Serif" font-weight="bold" font-size="11.00" fill="#000000">suoritusjako_v2</text>
<text text-anchor="start" x="103.5219" y="-177.3" font-family="Helvetica,sans-Serif" font-size="11.00" fill="#000000">[table]</text>
<polygon fill="none" stroke="#000000" points="8,-147.2 8,-169.2 138,-169.2 138,-147.2 8,-147.2"/>
<image xlink:href="../../images/primaryKeys.png" width="11px" height="12px" preserveAspectRatio="xMinYMin meet" x="13" y="-164.2"/>
<text text-anchor="start" x="37" y="-154.3" font-family="Helvetica,sans-Serif" font-size="11.00" fill="#000000">secret</text>
<polygon fill="none" stroke="#000000" points="8,-128.2 8,-147.2 138,-147.2 138,-128.2 8,-128.2"/>
<text text-anchor="start" x="11" y="-134.3" font-family="Helvetica,sans-Serif" font-size="11.00" fill="#000000">...</text>
<polygon fill="#ffffff" stroke="transparent" points="8,-109.2 8,-128.2 49,-128.2 49,-109.2 8,-109.2"/>
<polygon fill="none" stroke="#000000" points="8,-109.2 8,-128.2 49,-128.2 49,-109.2 8,-109.2"/>
<text text-anchor="start" x="11" y="-115.3" font-family="Helvetica,sans-Serif" font-size="11.00" fill="#000000"> &#160;</text>
<polygon fill="#ffffff" stroke="transparent" points="49,-109.2 49,-128.2 102,-128.2 102,-109.2 49,-109.2"/>
<polygon fill="none" stroke="#000000" points="49,-109.2 49,-128.2 102,-128.2 102,-109.2 49,-109.2"/>
<text text-anchor="start" x="66.6105" y="-115.3" font-family="Helvetica,sans-Serif" font-size="11.00" fill="#000000">0 rows</text>
<polygon fill="#ffffff" stroke="transparent" points="102,-109.2 102,-128.2 138,-128.2 138,-109.2 102,-109.2"/>
<polygon fill="none" stroke="#000000" points="102,-109.2 102,-128.2 138,-128.2 138,-109.2 102,-109.2"/>
<text text-anchor="start" x="119.4053" y="-115.3" font-family="Helvetica,sans-Serif" font-size="11.00" fill="#000000">1 &gt;</text>
</a>
</g>
</g>
<!-- suoritusjako&#45;&gt;suoritusjako_v2 -->
<g id="edge1" class="edge">
<title>suoritusjako:w&#45;&gt;suoritusjako_v2:e</title>
<path fill="none" stroke="#000000" stroke-dasharray="5,2" d="M178.2307,-158.2C163.748,-158.2 156.5938,-158.2 138,-158.2"/>
<polygon fill="#000000" stroke="#000000" points="188.2,-154.2 188.2,-162.2 186.6,-162.2 186.6,-154.2 188.2,-154.2"/>
<polyline fill="none" stroke="#000000" points="189,-158.2 185,-158.2 "/>
<ellipse fill="none" stroke="#000000" cx="181.8" cy="-158.2001" rx="3.2" ry="3.2"/>
</g>
</g>
</svg>
