<?xml version="1.0" encoding="UTF-8" standalone="no"?>
<!DOCTYPE svg PUBLIC "-//W3C//DTD SVG 1.1//EN"
 "http://www.w3.org/Graphics/SVG/1.1/DTD/svg11.dtd">
<!-- Generated by graphviz version 2.40.1 (20161225.0304)
 -->
<!-- Title: oneDegreeRelationshipsDiagramImplied Pages: 1 -->
<svg width="404pt" height="227pt"
 viewBox="0.00 0.00 404.00 226.70" xmlns="http://www.w3.org/2000/svg" xmlns:xlink="http://www.w3.org/1999/xlink">
<g id="graph0" class="graph" transform="scale(1 1) rotate(0) translate(4 222.7)">
<title>oneDegreeRelationshipsDiagramImplied</title>
<polygon fill="#ffffff" stroke="transparent" points="-4,4 -4,-222.7 400,-222.7 400,4 -4,4"/>
<text text-anchor="middle" x="72.4936" y="-7.3" font-family="Helvetica,sans-Serif" font-size="11.00" fill="#000000">Generated by SchemaSpy</text>
<!-- suoritusjako -->
<g id="node1" class="node">
<title>suoritusjako</title>
<g id="a_node1"><a xlink:href="../../tables/suoritusjako.html" xlink:title="suoritusjako" target="_top">
<polygon fill="#ffffff" stroke="transparent" points="274,-109.7 274,-214.7 388,-214.7 388,-109.7 274,-109.7"/>
<polygon fill="#f5f5f5" stroke="transparent" points="274,-191.2 274,-214.2 388,-214.2 388,-191.2 274,-191.2"/>
<polygon fill="none" stroke="#000000" points="274,-191.2 274,-214.2 388,-214.2 388,-191.2 274,-191.2"/>
<text text-anchor="start" x="279" y="-199.8" font-family="Helvetica,sans-Serif" font-weight="bold" font-size="11.00" fill="#000000">suoritusjako</text>
<text text-anchor="start" x="353.5219" y="-199.3" font-family="Helvetica,sans-Serif" font-size="11.00" fill="#000000">[table]</text>
<polygon fill="none" stroke="#000000" points="274,-169.2 274,-191.2 388,-191.2 388,-169.2 274,-169.2"/>
<image xlink:href="../../images/primaryKeys.png" width="11px" height="12px" preserveAspectRatio="xMinYMin meet" x="279" y="-186.2"/>
<text text-anchor="start" x="296" y="-176.3" font-family="Helvetica,sans-Serif" font-size="11.00" fill="#000000">id</text>
<polygon fill="#ffffff" stroke="transparent" points="274,-147.2 274,-169.2 388,-169.2 388,-147.2 274,-147.2"/>
<polygon fill="none" stroke="#000000" points="274,-147.2 274,-169.2 388,-169.2 388,-147.2 274,-147.2"/>
<image xlink:href="../../images/foreignKeys.png" width="11px" height="12px" preserveAspectRatio="xMinYMin meet" x="279" y="-164.2"/>
<text text-anchor="start" x="296" y="-154.3" font-family="Helvetica,sans-Serif" font-size="11.00" fill="#000000">secret</text>
<polygon fill="none" stroke="#000000" points="274,-128.2 274,-147.2 388,-147.2 388,-128.2 274,-128.2"/>
<text text-anchor="start" x="277" y="-134.3" font-family="Helvetica,sans-Serif" font-size="11.00" fill="#000000">...</text>
<polygon fill="#ffffff" stroke="transparent" points="274,-109.2 274,-128.2 329,-128.2 329,-109.2 274,-109.2"/>
<polygon fill="none" stroke="#000000" points="274,-109.2 274,-128.2 329,-128.2 329,-109.2 274,-109.2"/>
<text text-anchor="start" x="277" y="-115.3" font-family="Helvetica,sans-Serif" font-size="11.00" fill="#000000">&lt; 1</text>
<polygon fill="#ffffff" stroke="transparent" points="329,-109.2 329,-128.2 358,-128.2 358,-109.2 329,-109.2"/>
<polygon fill="none" stroke="#000000" points="329,-109.2 329,-128.2 358,-128.2 358,-109.2 329,-109.2"/>
<text text-anchor="start" x="348.8862" y="-115.3" font-family="Helvetica,sans-Serif" font-size="11.00" fill="#000000"> &#160;</text>
<polygon fill="#ffffff" stroke="transparent" points="358,-109.2 358,-128.2 388,-128.2 388,-109.2 358,-109.2"/>
<polygon fill="none" stroke="#000000" points="358,-109.2 358,-128.2 388,-128.2 388,-109.2 358,-109.2"/>
<text text-anchor="start" x="378.8862" y="-115.3" font-family="Helvetica,sans-Serif" font-size="11.00" fill="#000000"> &#160;</text>
</a>
</g>
</g>
<!-- suoritusjako_v2 -->
<g id="node2" class="node">
<title>suoritusjako_v2</title>
<g id="a_node2"><a xlink:href="../../tables/suoritusjako_v2.html" xlink:title="suoritusjako_v2" target="_top">
<polygon fill="#ffffff" stroke="transparent" points="8,-38.2 8,-194.2 225,-194.2 225,-38.2 8,-38.2"/>
<polygon fill="#f5f5f5" stroke="transparent" points="10.5,-169.2 10.5,-192.2 223.5,-192.2 223.5,-169.2 10.5,-169.2"/>
<polygon fill="none" stroke="#000000" points="10.5,-169.2 10.5,-192.2 223.5,-192.2 223.5,-169.2 10.5,-169.2"/>
<text text-anchor="start" x="15.5" y="-177.8" font-family="Helvetica,sans-Serif" font-weight="bold" font-size="11.00" fill="#000000">suoritusjako_v2</text>
<text text-anchor="start" x="188.5437" y="-177.3" font-family="Helvetica,sans-Serif" font-size="11.00" fill="#000000">[table]</text>
<polygon fill="none" stroke="#000000" points="10.5,-147.2 10.5,-169.2 124.5,-169.2 124.5,-147.2 10.5,-147.2"/>
<image xlink:href="../../images/primaryKeys.png" width="11px" height="12px" preserveAspectRatio="xMinYMin meet" x="15.5" y="-164.2"/>
<text text-anchor="start" x="30.5" y="-154.3" font-family="Helvetica,sans-Serif" font-size="11.00" fill="#000000">secret</text>
<polygon fill="none" stroke="#000000" points="124.5,-147.2 124.5,-169.2 223.5,-169.2 223.5,-147.2 124.5,-147.2"/>
<text text-anchor="start" x="127.5" y="-154.9" font-family="Helvetica,sans-Serif" font-size="11.00" fill="#000000">text[2147483647]</text>
<polygon fill="none" stroke="#000000" points="10.5,-125.2 10.5,-147.2 124.5,-147.2 124.5,-125.2 10.5,-125.2"/>
<text text-anchor="start" x="30.5" y="-132.3" font-family="Helvetica,sans-Serif" font-size="11.00" fill="#000000">oppija_oid</text>
<polygon fill="none" stroke="#000000" points="124.5,-125.2 124.5,-147.2 223.5,-147.2 223.5,-125.2 124.5,-125.2"/>
<text text-anchor="start" x="127.5" y="-132.9" font-family="Helvetica,sans-Serif" font-size="11.00" fill="#000000">text[2147483647]</text>
<polygon fill="none" stroke="#000000" points="10.5,-103.2 10.5,-125.2 124.5,-125.2 124.5,-103.2 10.5,-103.2"/>
<text text-anchor="start" x="30.5" y="-110.3" font-family="Helvetica,sans-Serif" font-size="11.00" fill="#000000">data</text>
<polygon fill="none" stroke="#000000" points="124.5,-103.2 124.5,-125.2 223.5,-125.2 223.5,-103.2 124.5,-103.2"/>
<text text-anchor="start" x="127.2258" y="-110.9" font-family="Helvetica,sans-Serif" font-size="11.00" fill="#000000">jsonb[2147483647]</text>
<polygon fill="none" stroke="#000000" points="10.5,-81.2 10.5,-103.2 124.5,-103.2 124.5,-81.2 10.5,-81.2"/>
<text text-anchor="start" x="30.5" y="-88.3" font-family="Helvetica,sans-Serif" font-size="11.00" fill="#000000">voimassa_asti</text>
<polygon fill="none" stroke="#000000" points="124.5,-81.2 124.5,-103.2 223.5,-103.2 223.5,-81.2 124.5,-81.2"/>
<text text-anchor="start" x="127.5" y="-88.9" font-family="Helvetica,sans-Serif" font-size="11.00" fill="#000000">date[13]</text>
<polygon fill="none" stroke="#000000" points="10.5,-59.2 10.5,-81.2 124.5,-81.2 124.5,-59.2 10.5,-59.2"/>
<text text-anchor="start" x="30.5" y="-66.3" font-family="Helvetica,sans-Serif" font-size="11.00" fill="#000000">aikaleima</text>
<polygon fill="none" stroke="#000000" points="124.5,-59.2 124.5,-81.2 223.5,-81.2 223.5,-59.2 124.5,-59.2"/>
<text text-anchor="start" x="127.5" y="-66.9" font-family="Helvetica,sans-Serif" font-size="11.00" fill="#000000">timestamptz[35,6]</text>
<polygon fill="#ffffff" stroke="transparent" points="10.5,-40.2 10.5,-59.2 71.5,-59.2 71.5,-40.2 10.5,-40.2"/>
<polygon fill="none" stroke="#000000" points="10.5,-40.2 10.5,-59.2 71.5,-59.2 71.5,-40.2 10.5,-40.2"/>
<text text-anchor="start" x="13.5" y="-46.3" font-family="Helvetica,sans-Serif" font-size="11.00" fill="#000000">&lt; 0</text>
<polygon fill="#ffffff" stroke="transparent" points="71.5,-40.2 71.5,-59.2 124.5,-59.2 124.5,-40.2 71.5,-40.2"/>
<polygon fill="none" stroke="#000000" points="71.5,-40.2 71.5,-59.2 124.5,-59.2 124.5,-40.2 71.5,-40.2"/>
<text text-anchor="start" x="115.3862" y="-46.3" font-family="Helvetica,sans-Serif" font-size="11.00" fill="#000000"> &#160;</text>
<polygon fill="#ffffff" stroke="transparent" points="124.5,-40.2 124.5,-59.2 223.5,-59.2 223.5,-40.2 124.5,-40.2"/>
<polygon fill="none" stroke="#000000" points="124.5,-40.2 124.5,-59.2 223.5,-59.2 223.5,-40.2 124.5,-40.2"/>
<text text-anchor="start" x="204.9053" y="-46.3" font-family="Helvetica,sans-Serif" font-size="11.00" fill="#000000">1 &gt;</text>
<polygon fill="none" stroke="#000000" stroke-width="2" points="9,-39.2 9,-193.2 224,-193.2 224,-39.2 9,-39.2"/>
</a>
</g>
</g>
<!-- suoritusjako&#45;&gt;suoritusjako_v2 -->
<g id="edge1" class="edge">
<title>suoritusjako:w&#45;&gt;suoritusjako_v2:e</title>
<path fill="none" stroke="#000000" stroke-dasharray="5,2" d="M263.3362,-158.2C248.9956,-158.2 241.9115,-158.2 223.5,-158.2"/>
<polygon fill="#000000" stroke="#000000" points="273.2,-154.2 273.2,-162.2 271.6,-162.2 271.6,-154.2 273.2,-154.2"/>
<polyline fill="none" stroke="#000000" points="274,-158.2 270,-158.2 "/>
<ellipse fill="none" stroke="#000000" cx="266.8" cy="-158.2001" rx="3.2" ry="3.2"/>
</g>
</g>
</svg>
