<?xml version="1.0" encoding="UTF-8" standalone="no"?>
<!DOCTYPE svg PUBLIC "-//W3C//DTD SVG 1.1//EN"
 "http://www.w3.org/Graphics/SVG/1.1/DTD/svg11.dtd">
<!-- Generated by graphviz version 2.40.1 (20161225.0304)
 -->
<!-- Title: oneDegreeRelationshipsDiagram Pages: 1 -->
<svg width="604pt" height="513pt"
 viewBox="0.00 0.00 604.00 512.70" xmlns="http://www.w3.org/2000/svg" xmlns:xlink="http://www.w3.org/1999/xlink">
<g id="graph0" class="graph" transform="scale(1 1) rotate(0) translate(4 508.7)">
<title>oneDegreeRelationshipsDiagram</title>
<polygon fill="#ffffff" stroke="transparent" points="-4,4 -4,-508.7 600,-508.7 600,4 -4,4"/>
<text text-anchor="middle" x="72.4936" y="-7.3" font-family="Helvetica,sans-Serif" font-size="11.00" fill="#000000">Generated by SchemaSpy</text>
<!-- kielitutkintotodistus_tiedote_job -->
<g id="node1" class="node">
<title>kielitutkintotodistus_tiedote_job</title>
<g id="a_node1"><a xlink:href="../../tables/kielitutkintotodistus_tiedote_job.html" xlink:title="kielitutkintotodistus_tiedote_job" target="_top">
<polygon fill="#ffffff" stroke="transparent" points="354,-329.7 354,-500.7 588,-500.7 588,-329.7 354,-329.7"/>
<polygon fill="#f5f5f5" stroke="transparent" points="354,-477.2 354,-500.2 588,-500.2 588,-477.2 354,-477.2"/>
<polygon fill="none" stroke="#000000" points="354,-477.2 354,-500.2 588,-500.2 588,-477.2 354,-477.2"/>
<text text-anchor="start" x="359" y="-485.8" font-family="Helvetica,sans-Serif" font-weight="bold" font-size="11.00" fill="#000000">kielitutkintotodistus_tiedote_job</text>
<text text-anchor="start" x="553.5219" y="-485.3" font-family="Helvetica,sans-Serif" font-size="11.00" fill="#000000">[table]</text>
<polygon fill="none" stroke="#000000" points="354,-455.2 354,-477.2 588,-477.2 588,-455.2 354,-455.2"/>
<image xlink:href="../../images/primaryKeys.png" width="11px" height="12px" preserveAspectRatio="xMinYMin meet" x="359" y="-472.2"/>
<text text-anchor="start" x="383" y="-462.3" font-family="Helvetica,sans-Serif" font-size="11.00" fill="#000000">id</text>
<polygon fill="#ffffff" stroke="transparent" points="354,-433.2 354,-455.2 588,-455.2 588,-433.2 354,-433.2"/>
<polygon fill="none" stroke="#000000" points="354,-433.2 354,-455.2 588,-455.2 588,-433.2 354,-433.2"/>
<text text-anchor="start" x="383" y="-440.3" font-family="Helvetica,sans-Serif" font-size="11.00" fill="#000000">opiskeluoikeus_oid</text>
<polygon fill="#ffffff" stroke="transparent" points="354,-411.2 354,-433.2 588,-433.2 588,-411.2 354,-411.2"/>
<polygon fill="none" stroke="#000000" points="354,-411.2 354,-433.2 588,-433.2 588,-411.2 354,-411.2"/>
<text text-anchor="start" x="383" y="-418.3" font-family="Helvetica,sans-Serif" font-size="11.00" fill="#000000">state</text>
<polygon fill="#ffffff" stroke="transparent" points="354,-389.2 354,-411.2 588,-411.2 588,-389.2 354,-389.2"/>
<polygon fill="none" stroke="#000000" points="354,-389.2 354,-411.2 588,-411.2 588,-389.2 354,-389.2"/>
<text text-anchor="start" x="383" y="-396.3" font-family="Helvetica,sans-Serif" font-size="11.00" fill="#000000">created_at</text>
<polygon fill="none" stroke="#000000" points="354,-367.2 354,-389.2 588,-389.2 588,-367.2 354,-367.2"/>
<image xlink:href="../../images/foreignKeys.png" width="11px" height="12px" preserveAspectRatio="xMinYMin meet" x="359" y="-384.2"/>
<text text-anchor="start" x="383" y="-374.3" font-family="Helvetica,sans-Serif" font-size="11.00" fill="#000000">todistus_job_id</text>
<polygon fill="none" stroke="#000000" points="354,-348.2 354,-367.2 588,-367.2 588,-348.2 354,-348.2"/>
<text text-anchor="start" x="357" y="-354.3" font-family="Helvetica,sans-Serif" font-size="11.00" fill="#000000">...</text>
<polygon fill="#ffffff" stroke="transparent" points="354,-329.2 354,-348.2 469,-348.2 469,-329.2 354,-329.2"/>
<polygon fill="none" stroke="#000000" points="354,-329.2 354,-348.2 469,-348.2 469,-329.2 354,-329.2"/>
<text text-anchor="start" x="357" y="-335.3" font-family="Helvetica,sans-Serif" font-size="11.00" fill="#000000">&lt; 1</text>
<polygon fill="#ffffff" stroke="transparent" points="469,-329.2 469,-348.2 528,-348.2 528,-329.2 469,-329.2"/>
<polygon fill="none" stroke="#000000" points="469,-329.2 469,-348.2 528,-348.2 528,-329.2 469,-329.2"/>
<text text-anchor="start" x="518.8862" y="-335.3" font-family="Helvetica,sans-Serif" font-size="11.00" fill="#000000"> &#160;</text>
<polygon fill="#ffffff" stroke="transparent" points="528,-329.2 528,-348.2 588,-348.2 588,-329.2 528,-329.2"/>
<polygon fill="none" stroke="#000000" points="528,-329.2 528,-348.2 588,-348.2 588,-329.2 528,-329.2"/>
<text text-anchor="start" x="578.8862" y="-335.3" font-family="Helvetica,sans-Serif" font-size="11.00" fill="#000000"> &#160;</text>
</a>
</g>
</g>
<!-- todistus_job -->
<g id="node2" class="node">
<title>todistus_job</title>
<g id="a_node2"><a xlink:href="../../tables/todistus_job.html" xlink:title="todistus_job" target="_top">
<polygon fill="#ffffff" stroke="transparent" points="8,-38.2 8,-414.2 305,-414.2 305,-38.2 8,-38.2"/>
<polygon fill="#f5f5f5" stroke="transparent" points="10.5,-389.2 10.5,-412.2 303.5,-412.2 303.5,-389.2 10.5,-389.2"/>
<polygon fill="none" stroke="#000000" points="10.5,-389.2 10.5,-412.2 303.5,-412.2 303.5,-389.2 10.5,-389.2"/>
<text text-anchor="start" x="15.5" y="-397.8" font-family="Helvetica,sans-Serif" font-weight="bold" font-size="11.00" fill="#000000">todistus_job</text>
<text text-anchor="start" x="268.5437" y="-397.3" font-family="Helvetica,sans-Serif" font-size="11.00" fill="#000000">[table]</text>
<polygon fill="none" stroke="#000000" points="10.5,-367.2 10.5,-389.2 209.5,-389.2 209.5,-367.2 10.5,-367.2"/>
<image xlink:href="../../images/primaryKeys.png" width="11px" height="12px" preserveAspectRatio="xMinYMin meet" x="15.5" y="-384.2"/>
<text text-anchor="start" x="30.5" y="-374.3" font-family="Helvetica,sans-Serif" font-size="11.00" fill="#000000">id</text>
<polygon fill="none" stroke="#000000" points="209.5,-367.2 209.5,-389.2 303.5,-389.2 303.5,-367.2 209.5,-367.2"/>
<text text-anchor="start" x="212.4758" y="-374.9" font-family="Helvetica,sans-Serif" font-size="11.00" fill="#000000">uuid[2147483647]</text>
<polygon fill="none" stroke="#000000" points="10.5,-345.2 10.5,-367.2 209.5,-367.2 209.5,-345.2 10.5,-345.2"/>
<text text-anchor="start" x="30.5" y="-352.3" font-family="Helvetica,sans-Serif" font-size="11.00" fill="#000000">user_oid</text>
<polygon fill="none" stroke="#000000" points="209.5,-345.2 209.5,-367.2 303.5,-367.2 303.5,-345.2 209.5,-345.2"/>
<text text-anchor="start" x="212.5" y="-352.9" font-family="Helvetica,sans-Serif" font-size="11.00" fill="#000000">text[2147483647]</text>
<polygon fill="none" stroke="#000000" points="10.5,-323.2 10.5,-345.2 209.5,-345.2 209.5,-323.2 10.5,-323.2"/>
<text text-anchor="start" x="30.5" y="-330.3" font-family="Helvetica,sans-Serif" font-size="11.00" fill="#000000">oppija_oid</text>
<polygon fill="none" stroke="#000000" points="209.5,-323.2 209.5,-345.2 303.5,-345.2 303.5,-323.2 209.5,-323.2"/>
<text text-anchor="start" x="212.5" y="-330.9" font-family="Helvetica,sans-Serif" font-size="11.00" fill="#000000">text[2147483647]</text>
<polygon fill="#ffffff" stroke="transparent" points="10.5,-301.2 10.5,-323.2 209.5,-323.2 209.5,-301.2 10.5,-301.2"/>
<polygon fill="none" stroke="#000000" points="10.5,-301.2 10.5,-323.2 209.5,-323.2 209.5,-301.2 10.5,-301.2"/>
<text text-anchor="start" x="30.5" y="-308.3" font-family="Helvetica,sans-Serif" font-size="11.00" fill="#000000">opiskeluoikeus_oid</text>
<polygon fill="none" stroke="#000000" points="209.5,-301.2 209.5,-323.2 303.5,-323.2 303.5,-301.2 209.5,-301.2"/>
<text text-anchor="start" x="212.5" y="-308.9" font-family="Helvetica,sans-Serif" font-size="11.00" fill="#000000">text[2147483647]</text>
<polygon fill="#ffffff" stroke="transparent" points="10.5,-279.2 10.5,-301.2 209.5,-301.2 209.5,-279.2 10.5,-279.2"/>
<polygon fill="none" stroke="#000000" points="10.5,-279.2 10.5,-301.2 209.5,-301.2 209.5,-279.2 10.5,-279.2"/>
<text text-anchor="start" x="30.5" y="-286.3" font-family="Helvetica,sans-Serif" font-size="11.00" fill="#000000">template_variant</text>
<polygon fill="none" stroke="#000000" points="209.5,-279.2 209.5,-301.2 303.5,-301.2 303.5,-279.2 209.5,-279.2"/>
<text text-anchor="start" x="212.5" y="-286.9" font-family="Helvetica,sans-Serif" font-size="11.00" fill="#000000">text[2147483647]</text>
<polygon fill="none" stroke="#000000" points="10.5,-257.2 10.5,-279.2 209.5,-279.2 209.5,-257.2 10.5,-257.2"/>
<text text-anchor="start" x="30.5" y="-264.3" font-family="Helvetica,sans-Serif" font-size="11.00" fill="#000000">opiskeluoikeus_versionumero</text>
<polygon fill="none" stroke="#000000" points="209.5,-257.2 209.5,-279.2 303.5,-279.2 303.5,-257.2 209.5,-257.2"/>
<text text-anchor="start" x="212.5" y="-264.9" font-family="Helvetica,sans-Serif" font-size="11.00" fill="#000000">int4[10]</text>
<polygon fill="none" stroke="#000000" points="10.5,-235.2 10.5,-257.2 209.5,-257.2 209.5,-235.2 10.5,-235.2"/>
<text text-anchor="start" x="30.5" y="-242.3" font-family="Helvetica,sans-Serif" font-size="11.00" fill="#000000">oppija_henkilotiedot_hash</text>
<polygon fill="none" stroke="#000000" points="209.5,-235.2 209.5,-257.2 303.5,-257.2 303.5,-235.2 209.5,-235.2"/>
<text text-anchor="start" x="212.5" y="-242.9" font-family="Helvetica,sans-Serif" font-size="11.00" fill="#000000">text[2147483647]</text>
<polygon fill="#ffffff" stroke="transparent" points="10.5,-213.2 10.5,-235.2 209.5,-235.2 209.5,-213.2 10.5,-213.2"/>
<polygon fill="none" stroke="#000000" points="10.5,-213.2 10.5,-235.2 209.5,-235.2 209.5,-213.2 10.5,-213.2"/>
<text text-anchor="start" x="30.5" y="-220.3" font-family="Helvetica,sans-Serif" font-size="11.00" fill="#000000">state</text>
<polygon fill="none" stroke="#000000" points="209.5,-213.2 209.5,-235.2 303.5,-235.2 303.5,-213.2 209.5,-213.2"/>
<text text-anchor="start" x="212.5" y="-220.9" font-family="Helvetica,sans-Serif" font-size="11.00" fill="#000000">text[2147483647]</text>
<polygon fill="none" stroke="#000000" points="10.5,-191.2 10.5,-213.2 209.5,-213.2 209.5,-191.2 10.5,-191.2"/>
<text text-anchor="start" x="30.5" y="-198.3" font-family="Helvetica,sans-Serif" font-size="11.00" fill="#000000">created_at</text>
<polygon fill="none" stroke="#000000" points="209.5,-191.2 209.5,-213.2 303.5,-213.2 303.5,-191.2 209.5,-191.2"/>
<text text-anchor="start" x="212.5" y="-198.9" font-family="Helvetica,sans-Serif" font-size="11.00" fill="#000000">timestamptz[35,6]</text>
<polygon fill="none" stroke="#000000" points="10.5,-169.2 10.5,-191.2 209.5,-191.2 209.5,-169.2 10.5,-169.2"/>
<text text-anchor="start" x="30.5" y="-176.3" font-family="Helvetica,sans-Serif" font-size="11.00" fill="#000000">started_at</text>
<polygon fill="none" stroke="#000000" points="209.5,-169.2 209.5,-191.2 303.5,-191.2 303.5,-169.2 209.5,-169.2"/>
<text text-anchor="start" x="212.5" y="-176.9" font-family="Helvetica,sans-Serif" font-size="11.00" fill="#000000">timestamptz[35,6]</text>
<polygon fill="none" stroke="#000000" points="10.5,-147.2 10.5,-169.2 209.5,-169.2 209.5,-147.2 10.5,-147.2"/>
<text text-anchor="start" x="30.5" y="-154.3" font-family="Helvetica,sans-Serif" font-size="11.00" fill="#000000">completed_at</text>
<polygon fill="none" stroke="#000000" points="209.5,-147.2 209.5,-169.2 303.5,-169.2 303.5,-147.2 209.5,-147.2"/>
<text text-anchor="start" x="212.5" y="-154.9" font-family="Helvetica,sans-Serif" font-size="11.00" fill="#000000">timestamptz[35,6]</text>
<polygon fill="none" stroke="#000000" points="10.5,-125.2 10.5,-147.2 209.5,-147.2 209.5,-125.2 10.5,-125.2"/>
<text text-anchor="start" x="30.5" y="-132.3" font-family="Helvetica,sans-Serif" font-size="11.00" fill="#000000">worker</text>
<polygon fill="none" stroke="#000000" points="209.5,-125.2 209.5,-147.2 303.5,-147.2 303.5,-125.2 209.5,-125.2"/>
<text text-anchor="start" x="212.5" y="-132.9" font-family="Helvetica,sans-Serif" font-size="11.00" fill="#000000">text[2147483647]</text>
<polygon fill="none" stroke="#000000" points="10.5,-103.2 10.5,-125.2 209.5,-125.2 209.5,-103.2 10.5,-103.2"/>
<text text-anchor="start" x="30.5" y="-110.3" font-family="Helvetica,sans-Serif" font-size="11.00" fill="#000000">attempts</text>
<polygon fill="none" stroke="#000000" points="209.5,-103.2 209.5,-125.2 303.5,-125.2 303.5,-103.2 209.5,-103.2"/>
<text text-anchor="start" x="212.5" y="-110.9" font-family="Helvetica,sans-Serif" font-size="11.00" fill="#000000">int4[10]</text>
<polygon fill="none" stroke="#000000" points="10.5,-81.2 10.5,-103.2 209.5,-103.2 209.5,-81.2 10.5,-81.2"/>
<text text-anchor="start" x="30.5" y="-88.3" font-family="Helvetica,sans-Serif" font-size="11.00" fill="#000000">error</text>
<polygon fill="none" stroke="#000000" points="209.5,-81.2 209.5,-103.2 303.5,-103.2 303.5,-81.2 209.5,-81.2"/>
<text text-anchor="start" x="212.5" y="-88.9" font-family="Helvetica,sans-Serif" font-size="11.00" fill="#000000">text[2147483647]</text>
<polygon fill="none" stroke="#000000" points="10.5,-59.2 10.5,-81.2 209.5,-81.2 209.5,-59.2 10.5,-59.2"/>
<text text-anchor="start" x="30.5" y="-66.3" font-family="Helvetica,sans-Serif" font-size="11.00" fill="#000000">is_stamped</text>
<polygon fill="none" stroke="#000000" points="209.5,-59.2 209.5,-81.2 303.5,-81.2 303.5,-59.2 209.5,-59.2"/>
<text text-anchor="start" x="212.5" y="-66.9" font-family="Helvetica,sans-Serif" font-size="11.00" fill="#000000">bool[1]</text>
<polygon fill="#ffffff" stroke="transparent" points="10.5,-40.2 10.5,-59.2 114.5,-59.2 114.5,-40.2 10.5,-40.2"/>
<polygon fill="none" stroke="#000000" points="10.5,-40.2 10.5,-59.2 114.5,-59.2 114.5,-40.2 10.5,-40.2"/>
<text text-anchor="start" x="13.5" y="-46.3" font-family="Helvetica,sans-Serif" font-size="11.00" fill="#000000">&lt; 0</text>
<polygon fill="#ffffff" stroke="transparent" points="114.5,-40.2 114.5,-59.2 209.5,-59.2 209.5,-40.2 114.5,-40.2"/>
<polygon fill="none" stroke="#000000" points="114.5,-40.2 114.5,-59.2 209.5,-59.2 209.5,-40.2 114.5,-40.2"/>
<text text-anchor="start" x="200.3862" y="-46.3" font-family="Helvetica,sans-Serif" font-size="11.00" fill="#000000"> &#160;</text>
<polygon fill="#ffffff" stroke="transparent" points="209.5,-40.2 209.5,-59.2 303.5,-59.2 303.5,-40.2 209.5,-40.2"/>
<polygon fill="none" stroke="#000000" points="209.5,-40.2 209.5,-59.2 303.5,-59.2 303.5,-40.2 209.5,-40.2"/>
<text text-anchor="start" x="284.9053" y="-46.3" font-family="Helvetica,sans-Serif" font-size="11.00" fill="#000000">1 &gt;</text>
<polygon fill="none" stroke="#000000" stroke-width="2" points="9,-39.2 9,-413.2 304,-413.2 304,-39.2 9,-39.2"/>
</a>
</g>
</g>
<!-- kielitutkintotodistus_tiedote_job&#45;&gt;todistus_job -->
<g id="edge1" class="edge">
<title>kielitutkintotodistus_tiedote_job:w&#45;&gt;todistus_job:e</title>
<path fill="none" stroke="#000000" d="M339.4203,-378.2C327.5435,-378.2 320.158,-378.2 303.5,-378.2"/>
<polygon fill="#000000" stroke="#000000" points="346,-378.2001 354,-381.8 350,-378.2 354,-378.2 354,-378.2 354,-378.2 350,-378.2 354,-374.6 346,-378.2001 346,-378.2001"/>
<ellipse fill="none" stroke="#000000" cx="342.8" cy="-378.2001" rx="3.2" ry="3.2"/>
</g>
</g>
</svg>
