<?xml version="1.0" encoding="UTF-8" standalone="no"?>
<!DOCTYPE svg PUBLIC "-//W3C//DTD SVG 1.1//EN"
 "http://www.w3.org/Graphics/SVG/1.1/DTD/svg11.dtd">
<!-- Generated by graphviz version 2.40.1 (20161225.0304)
 -->
<!-- Title: oneDegreeRelationshipsDiagram Pages: 1 -->
<svg width="343pt" height="426pt"
 viewBox="0.00 0.00 343.00 426.20" xmlns="http://www.w3.org/2000/svg" xmlns:xlink="http://www.w3.org/1999/xlink">
<g id="graph0" class="graph" transform="scale(1 1) rotate(0) translate(4 422.2)">
<title>oneDegreeRelationshipsDiagram</title>
<polygon fill="#ffffff" stroke="transparent" points="-4,4 -4,-422.2 339,-422.2 339,4 -4,4"/>
<text text-anchor="middle" x="72.4936" y="-7.3" font-family="Helvetica,sans-Serif" font-size="11.00" fill="#000000">Generated by SchemaSpy</text>
<!-- todistus_job -->
<g id="node1" class="node">
<title>todistus_job</title>
<g id="a_node1"><a xlink:href="../../tables/todistus_job.html" xlink:title="todistus_job" target="_top">
<polygon fill="#ffffff" stroke="transparent" points="8,-38.2 8,-414.2 327,-414.2 327,-38.2 8,-38.2"/>
<polygon fill="#f5f5f5" stroke="transparent" points="10.5,-389.2 10.5,-412.2 325.5,-412.2 325.5,-389.2 10.5,-389.2"/>
<polygon fill="none" stroke="#000000" points="10.5,-389.2 10.5,-412.2 325.5,-412.2 325.5,-389.2 10.5,-389.2"/>
<text text-anchor="start" x="15.5" y="-397.8" font-family="Helvetica,sans-Serif" font-weight="bold" font-size="11.00" fill="#000000">todistus_job</text>
<text text-anchor="start" x="290.5437" y="-397.3" font-family="Helvetica,sans-Serif" font-size="11.00" fill="#000000">[table]</text>
<polygon fill="none" stroke="#000000" points="10.5,-367.2 10.5,-389.2 231.5,-389.2 231.5,-367.2 10.5,-367.2"/>
<image xlink:href="../../images/primaryKeys.png" width="11px" height="12px" preserveAspectRatio="xMinYMin meet" x="15.5" y="-384.2"/>
<text text-anchor="start" x="30.5" y="-374.3" font-family="Helvetica,sans-Serif" font-size="11.00" fill="#000000">id</text>
<polygon fill="none" stroke="#000000" points="231.5,-367.2 231.5,-389.2 325.5,-389.2 325.5,-367.2 231.5,-367.2"/>
<text text-anchor="start" x="234.4758" y="-374.9" font-family="Helvetica,sans-Serif" font-size="11.00" fill="#000000">uuid[2147483647]</text>
<polygon fill="none" stroke="#000000" points="10.5,-345.2 10.5,-367.2 231.5,-367.2 231.5,-345.2 10.5,-345.2"/>
<text text-anchor="start" x="30.5" y="-352.3" font-family="Helvetica,sans-Serif" font-size="11.00" fill="#000000">user_oid</text>
<polygon fill="none" stroke="#000000" points="231.5,-345.2 231.5,-367.2 325.5,-367.2 325.5,-345.2 231.5,-345.2"/>
<text text-anchor="start" x="234.5" y="-352.9" font-family="Helvetica,sans-Serif" font-size="11.00" fill="#000000">text[2147483647]</text>
<polygon fill="none" stroke="#000000" points="10.5,-323.2 10.5,-345.2 231.5,-345.2 231.5,-323.2 10.5,-323.2"/>
<text text-anchor="start" x="30.5" y="-330.3" font-family="Helvetica,sans-Serif" font-size="11.00" fill="#000000">oppija_oid</text>
<polygon fill="none" stroke="#000000" points="231.5,-323.2 231.5,-345.2 325.5,-345.2 325.5,-323.2 231.5,-323.2"/>
<text text-anchor="start" x="234.5" y="-330.9" font-family="Helvetica,sans-Serif" font-size="11.00" fill="#000000">text[2147483647]</text>
<polygon fill="#ffffff" stroke="transparent" points="10.5,-301.2 10.5,-323.2 231.5,-323.2 231.5,-301.2 10.5,-301.2"/>
<polygon fill="none" stroke="#000000" points="10.5,-301.2 10.5,-323.2 231.5,-323.2 231.5,-301.2 10.5,-301.2"/>
<text text-anchor="start" x="30.5" y="-308.3" font-family="Helvetica,sans-Serif" font-size="11.00" fill="#000000">opiskeluoikeus_oid</text>
<polygon fill="none" stroke="#000000" points="231.5,-301.2 231.5,-323.2 325.5,-323.2 325.5,-301.2 231.5,-301.2"/>
<text text-anchor="start" x="234.5" y="-308.9" font-family="Helvetica,sans-Serif" font-size="11.00" fill="#000000">text[2147483647]</text>
<polygon fill="#ffffff" stroke="transparent" points="10.5,-279.2 10.5,-301.2 231.5,-301.2 231.5,-279.2 10.5,-279.2"/>
<polygon fill="none" stroke="#000000" points="10.5,-279.2 10.5,-301.2 231.5,-301.2 231.5,-279.2 10.5,-279.2"/>
<text text-anchor="start" x="30.5" y="-286.3" font-family="Helvetica,sans-Serif" font-size="11.00" fill="#000000">template_variant</text>
<polygon fill="none" stroke="#000000" points="231.5,-279.2 231.5,-301.2 325.5,-301.2 325.5,-279.2 231.5,-279.2"/>
<text text-anchor="start" x="234.5" y="-286.9" font-family="Helvetica,sans-Serif" font-size="11.00" fill="#000000">text[2147483647]</text>
<polygon fill="none" stroke="#000000" points="10.5,-257.2 10.5,-279.2 231.5,-279.2 231.5,-257.2 10.5,-257.2"/>
<text text-anchor="start" x="30.5" y="-264.3" font-family="Helvetica,sans-Serif" font-size="11.00" fill="#000000">opiskeluoikeus_versionumero</text>
<polygon fill="none" stroke="#000000" points="231.5,-257.2 231.5,-279.2 325.5,-279.2 325.5,-257.2 231.5,-257.2"/>
<text text-anchor="start" x="234.5" y="-264.9" font-family="Helvetica,sans-Serif" font-size="11.00" fill="#000000">int4[10]</text>
<polygon fill="none" stroke="#000000" points="10.5,-235.2 10.5,-257.2 231.5,-257.2 231.5,-235.2 10.5,-235.2"/>
<text text-anchor="start" x="30.5" y="-242.3" font-family="Helvetica,sans-Serif" font-size="11.00" fill="#000000">oppija_henkilotiedot_hash</text>
<polygon fill="none" stroke="#000000" points="231.5,-235.2 231.5,-257.2 325.5,-257.2 325.5,-235.2 231.5,-235.2"/>
<text text-anchor="start" x="234.5" y="-242.9" font-family="Helvetica,sans-Serif" font-size="11.00" fill="#000000">text[2147483647]</text>
<polygon fill="#ffffff" stroke="transparent" points="10.5,-213.2 10.5,-235.2 231.5,-235.2 231.5,-213.2 10.5,-213.2"/>
<polygon fill="none" stroke="#000000" points="10.5,-213.2 10.5,-235.2 231.5,-235.2 231.5,-213.2 10.5,-213.2"/>
<text text-anchor="start" x="30.5" y="-220.3" font-family="Helvetica,sans-Serif" font-size="11.00" fill="#000000">state</text>
<polygon fill="none" stroke="#000000" points="231.5,-213.2 231.5,-235.2 325.5,-235.2 325.5,-213.2 231.5,-213.2"/>
<text text-anchor="start" x="234.5" y="-220.9" font-family="Helvetica,sans-Serif" font-size="11.00" fill="#000000">text[2147483647]</text>
<polygon fill="none" stroke="#000000" points="10.5,-191.2 10.5,-213.2 231.5,-213.2 231.5,-191.2 10.5,-191.2"/>
<text text-anchor="start" x="30.5" y="-198.3" font-family="Helvetica,sans-Serif" font-size="11.00" fill="#000000">created_at</text>
<polygon fill="none" stroke="#000000" points="231.5,-191.2 231.5,-213.2 325.5,-213.2 325.5,-191.2 231.5,-191.2"/>
<text text-anchor="start" x="234.5" y="-198.9" font-family="Helvetica,sans-Serif" font-size="11.00" fill="#000000">timestamptz[35,6]</text>
<polygon fill="none" stroke="#000000" points="10.5,-169.2 10.5,-191.2 231.5,-191.2 231.5,-169.2 10.5,-169.2"/>
<text text-anchor="start" x="30.5" y="-176.3" font-family="Helvetica,sans-Serif" font-size="11.00" fill="#000000">started_at</text>
<polygon fill="none" stroke="#000000" points="231.5,-169.2 231.5,-191.2 325.5,-191.2 325.5,-169.2 231.5,-169.2"/>
<text text-anchor="start" x="234.5" y="-176.9" font-family="Helvetica,sans-Serif" font-size="11.00" fill="#000000">timestamptz[35,6]</text>
<polygon fill="none" stroke="#000000" points="10.5,-147.2 10.5,-169.2 231.5,-169.2 231.5,-147.2 10.5,-147.2"/>
<text text-anchor="start" x="30.5" y="-154.3" font-family="Helvetica,sans-Serif" font-size="11.00" fill="#000000">completed_at</text>
<polygon fill="none" stroke="#000000" points="231.5,-147.2 231.5,-169.2 325.5,-169.2 325.5,-147.2 231.5,-147.2"/>
<text text-anchor="start" x="234.5" y="-154.9" font-family="Helvetica,sans-Serif" font-size="11.00" fill="#000000">timestamptz[35,6]</text>
<polygon fill="none" stroke="#000000" points="10.5,-125.2 10.5,-147.2 231.5,-147.2 231.5,-125.2 10.5,-125.2"/>
<text text-anchor="start" x="30.5" y="-132.3" font-family="Helvetica,sans-Serif" font-size="11.00" fill="#000000">worker</text>
<polygon fill="none" stroke="#000000" points="231.5,-125.2 231.5,-147.2 325.5,-147.2 325.5,-125.2 231.5,-125.2"/>
<text text-anchor="start" x="234.5" y="-132.9" font-family="Helvetica,sans-Serif" font-size="11.00" fill="#000000">text[2147483647]</text>
<polygon fill="none" stroke="#000000" points="10.5,-103.2 10.5,-125.2 231.5,-125.2 231.5,-103.2 10.5,-103.2"/>
<text text-anchor="start" x="30.5" y="-110.3" font-family="Helvetica,sans-Serif" font-size="11.00" fill="#000000">attempts</text>
<polygon fill="none" stroke="#000000" points="231.5,-103.2 231.5,-125.2 325.5,-125.2 325.5,-103.2 231.5,-103.2"/>
<text text-anchor="start" x="234.5" y="-110.9" font-family="Helvetica,sans-Serif" font-size="11.00" fill="#000000">int4[10]</text>
<polygon fill="none" stroke="#000000" points="10.5,-81.2 10.5,-103.2 231.5,-103.2 231.5,-81.2 10.5,-81.2"/>
<text text-anchor="start" x="30.5" y="-88.3" font-family="Helvetica,sans-Serif" font-size="11.00" fill="#000000">error</text>
<polygon fill="none" stroke="#000000" points="231.5,-81.2 231.5,-103.2 325.5,-103.2 325.5,-81.2 231.5,-81.2"/>
<text text-anchor="start" x="234.5" y="-88.9" font-family="Helvetica,sans-Serif" font-size="11.00" fill="#000000">text[2147483647]</text>
<polygon fill="none" stroke="#000000" points="10.5,-59.2 10.5,-81.2 231.5,-81.2 231.5,-59.2 10.5,-59.2"/>
<text text-anchor="start" x="30.5" y="-66.3" font-family="Helvetica,sans-Serif" font-size="11.00" fill="#000000">is_stamped</text>
<polygon fill="none" stroke="#000000" points="231.5,-59.2 231.5,-81.2 325.5,-81.2 325.5,-59.2 231.5,-59.2"/>
<text text-anchor="start" x="234.5" y="-66.9" font-family="Helvetica,sans-Serif" font-size="11.00" fill="#000000">bool[1]</text>
<polygon fill="#ffffff" stroke="transparent" points="10.5,-40.2 10.5,-59.2 125.5,-59.2 125.5,-40.2 10.5,-40.2"/>
<polygon fill="none" stroke="#000000" points="10.5,-40.2 10.5,-59.2 125.5,-59.2 125.5,-40.2 10.5,-40.2"/>
<text text-anchor="start" x="13.5" y="-46.3" font-family="Helvetica,sans-Serif" font-size="11.00" fill="#000000">&lt; 0</text>
<polygon fill="#ffffff" stroke="transparent" points="125.5,-40.2 125.5,-59.2 231.5,-59.2 231.5,-40.2 125.5,-40.2"/>
<polygon fill="none" stroke="#000000" points="125.5,-40.2 125.5,-59.2 231.5,-59.2 231.5,-40.2 125.5,-40.2"/>
<text text-anchor="start" x="222.3862" y="-46.3" font-family="Helvetica,sans-Serif" font-size="11.00" fill="#000000"> &#160;</text>
<polygon fill="#ffffff" stroke="transparent" points="231.5,-40.2 231.5,-59.2 325.5,-59.2 325.5,-40.2 231.5,-40.2"/>
<polygon fill="none" stroke="#000000" points="231.5,-40.2 231.5,-59.2 325.5,-59.2 325.5,-40.2 231.5,-40.2"/>
<text text-anchor="start" x="306.9053" y="-46.3" font-family="Helvetica,sans-Serif" font-size="11.00" fill="#000000">0 &gt;</text>
<polygon fill="none" stroke="#000000" stroke-width="2" points="9,-39.2 9,-413.2 326,-413.2 326,-39.2 9,-39.2"/>
</a>
</g>
</g>
</g>
</svg>
