<?xml version="1.0" encoding="UTF-8" standalone="no"?>
<!DOCTYPE svg PUBLIC "-//W3C//DTD SVG 1.1//EN"
 "http://www.w3.org/Graphics/SVG/1.1/DTD/svg11.dtd">
<!-- Generated by graphviz version 2.40.1 (20161225.0304)
 -->
<!-- Title: oneDegreeRelationshipsDiagram Pages: 1 -->
<svg width="215pt" height="206pt"
 viewBox="0.00 0.00 215.00 206.20" xmlns="http://www.w3.org/2000/svg" xmlns:xlink="http://www.w3.org/1999/xlink">
<g id="graph0" class="graph" transform="scale(1 1) rotate(0) translate(4 202.2)">
<title>oneDegreeRelationshipsDiagram</title>
<polygon fill="#ffffff" stroke="transparent" points="-4,4 -4,-202.2 211,-202.2 211,4 -4,4"/>
<text text-anchor="middle" x="72.4936" y="-7.3" font-family="Helvetica,sans-Serif" font-size="11.00" fill="#000000">Generated by SchemaSpy</text>
<!-- worker_lease -->
<g id="node1" class="node">
<title>worker_lease</title>
<g id="a_node1"><a xlink:href="../../tables/worker_lease.html" xlink:title="worker_lease" target="_top">
<polygon fill="#ffffff" stroke="transparent" points="8,-38.2 8,-194.2 199,-194.2 199,-38.2 8,-38.2"/>
<polygon fill="#f5f5f5" stroke="transparent" points="10.5,-169.2 10.5,-192.2 197.5,-192.2 197.5,-169.2 10.5,-169.2"/>
<polygon fill="none" stroke="#000000" points="10.5,-169.2 10.5,-192.2 197.5,-192.2 197.5,-169.2 10.5,-169.2"/>
<text text-anchor="start" x="15.5" y="-177.8" font-family="Helvetica,sans-Serif" font-weight="bold" font-size="11.00" fill="#000000">worker_lease</text>
<text text-anchor="start" x="162.5437" y="-177.3" font-family="Helvetica,sans-Serif" font-size="11.00" fill="#000000">[table]</text>
<polygon fill="none" stroke="#000000" points="10.5,-147.2 10.5,-169.2 107.5,-169.2 107.5,-147.2 10.5,-147.2"/>
<image xlink:href="../../images/primaryKeys.png" width="11px" height="12px" preserveAspectRatio="xMinYMin meet" x="15.5" y="-164.2"/>
<text text-anchor="start" x="30.5" y="-154.3" font-family="Helvetica,sans-Serif" font-size="11.00" fill="#000000">name</text>
<polygon fill="none" stroke="#000000" points="107.5,-147.2 107.5,-169.2 197.5,-169.2 197.5,-147.2 107.5,-147.2"/>
<text text-anchor="start" x="110.0042" y="-154.9" font-family="Helvetica,sans-Serif" font-size="11.00" fill="#000000">text[2147483647]</text>
<polygon fill="none" stroke="#000000" points="10.5,-125.2 10.5,-147.2 107.5,-147.2 107.5,-125.2 10.5,-125.2"/>
<image xlink:href="../../images/primaryKeys.png" width="11px" height="12px" preserveAspectRatio="xMinYMin meet" x="15.5" y="-142.2"/>
<text text-anchor="start" x="30.5" y="-132.3" font-family="Helvetica,sans-Serif" font-size="11.00" fill="#000000">slot</text>
<polygon fill="none" stroke="#000000" points="107.5,-125.2 107.5,-147.2 197.5,-147.2 197.5,-125.2 107.5,-125.2"/>
<text text-anchor="start" x="110.5" y="-132.9" font-family="Helvetica,sans-Serif" font-size="11.00" fill="#000000">int4[10]</text>
<polygon fill="none" stroke="#000000" points="10.5,-103.2 10.5,-125.2 107.5,-125.2 107.5,-103.2 10.5,-103.2"/>
<text text-anchor="start" x="30.5" y="-110.3" font-family="Helvetica,sans-Serif" font-size="11.00" fill="#000000">holder_id</text>
<polygon fill="none" stroke="#000000" points="107.5,-103.2 107.5,-125.2 197.5,-125.2 197.5,-103.2 107.5,-103.2"/>
<text text-anchor="start" x="110.0042" y="-110.9" font-family="Helvetica,sans-Serif" font-size="11.00" fill="#000000">text[2147483647]</text>
<polygon fill="#ffffff" stroke="transparent" points="10.5,-81.2 10.5,-103.2 107.5,-103.2 107.5,-81.2 10.5,-81.2"/>
<polygon fill="none" stroke="#000000" points="10.5,-81.2 10.5,-103.2 107.5,-103.2 107.5,-81.2 10.5,-81.2"/>
<text text-anchor="start" x="30.5" y="-88.3" font-family="Helvetica,sans-Serif" font-size="11.00" fill="#000000">expires_at</text>
<polygon fill="none" stroke="#000000" points="107.5,-81.2 107.5,-103.2 197.5,-103.2 197.5,-81.2 107.5,-81.2"/>
<text text-anchor="start" x="110.5" y="-88.9" font-family="Helvetica,sans-Serif" font-size="11.00" fill="#000000">timestamp[29,6]</text>
<polygon fill="none" stroke="#000000" points="10.5,-59.2 10.5,-81.2 107.5,-81.2 107.5,-59.2 10.5,-59.2"/>
<text text-anchor="start" x="30.5" y="-66.3" font-family="Helvetica,sans-Serif" font-size="11.00" fill="#000000">heartbeat_at</text>
<polygon fill="none" stroke="#000000" points="107.5,-59.2 107.5,-81.2 197.5,-81.2 197.5,-59.2 107.5,-59.2"/>
<text text-anchor="start" x="110.5" y="-66.9" font-family="Helvetica,sans-Serif" font-size="11.00" fill="#000000">timestamp[29,6]</text>
<polygon fill="#ffffff" stroke="transparent" points="10.5,-40.2 10.5,-59.2 50.5,-59.2 50.5,-40.2 10.5,-40.2"/>
<polygon fill="none" stroke="#000000" points="10.5,-40.2 10.5,-59.2 50.5,-59.2 50.5,-40.2 10.5,-40.2"/>
<text text-anchor="start" x="13.5" y="-46.3" font-family="Helvetica,sans-Serif" font-size="11.00" fill="#000000">&lt; 0</text>
<polygon fill="#ffffff" stroke="transparent" points="50.5,-40.2 50.5,-59.2 107.5,-59.2 107.5,-40.2 50.5,-40.2"/>
<polygon fill="none" stroke="#000000" points="50.5,-40.2 50.5,-59.2 107.5,-59.2 107.5,-40.2 50.5,-40.2"/>
<text text-anchor="start" x="72.1105" y="-46.3" font-family="Helvetica,sans-Serif" font-size="11.00" fill="#000000">2 rows</text>
<polygon fill="#ffffff" stroke="transparent" points="107.5,-40.2 107.5,-59.2 197.5,-59.2 197.5,-40.2 107.5,-40.2"/>
<polygon fill="none" stroke="#000000" points="107.5,-40.2 107.5,-59.2 197.5,-59.2 197.5,-40.2 107.5,-40.2"/>
<text text-anchor="start" x="178.9053" y="-46.3" font-family="Helvetica,sans-Serif" font-size="11.00" fill="#000000">0 &gt;</text>
<polygon fill="none" stroke="#000000" stroke-width="2" points="9,-39.2 9,-193.2 198,-193.2 198,-39.2 9,-39.2"/>
</a>
</g>
</g>
</g>
</svg>
