<?xml version="1.0" encoding="UTF-8" standalone="no"?>
<!DOCTYPE svg PUBLIC "-//W3C//DTD SVG 1.1//EN"
 "http://www.w3.org/Graphics/SVG/1.1/DTD/svg11.dtd">
<!-- Generated by graphviz version 2.40.1 (20161225.0304)
 -->
<!-- Title: twoDegreesRelationshipsDiagram Pages: 1 -->
<svg width="754pt" height="399pt"
 viewBox="0.00 0.00 754.00 398.70" xmlns="http://www.w3.org/2000/svg" xmlns:xlink="http://www.w3.org/1999/xlink">
<g id="graph0" class="graph" transform="scale(1 1) rotate(0) translate(4 394.7)">
<title>twoDegreesRelationshipsDiagram</title>
<polygon fill="#ffffff" stroke="transparent" points="-4,4 -4,-394.7 750,-394.7 750,4 -4,4"/>
<text text-anchor="middle" x="72.4936" y="-7.3" font-family="Helvetica,sans-Serif" font-size="11.00" fill="#000000">Generated by SchemaSpy</text>
<!-- ytr_opiskeluoikeus -->
<g id="node1" class="node">
<title>ytr_opiskeluoikeus</title>
<g id="a_node1"><a xlink:href="../../tables/ytr_opiskeluoikeus.html" xlink:title="ytr_opiskeluoikeus" target="_top">
<polygon fill="#ffffff" stroke="transparent" points="149,-38.2 149,-385.2 406,-385.2 406,-38.2 149,-38.2"/>
<polygon fill="#f5f5f5" stroke="transparent" points="149.5,-361.7 149.5,-384.7 406.5,-384.7 406.5,-361.7 149.5,-361.7"/>
<polygon fill="none" stroke="#000000" points="149.5,-361.7 149.5,-384.7 406.5,-384.7 406.5,-361.7 149.5,-361.7"/>
<text text-anchor="start" x="154.5" y="-370.3" font-family="Helvetica,sans-Serif" font-weight="bold" font-size="11.00" fill="#000000">ytr_opiskeluoikeus</text>
<text text-anchor="start" x="371.5437" y="-369.8" font-family="Helvetica,sans-Serif" font-size="11.00" fill="#000000">[table]</text>
<polygon fill="none" stroke="#000000" points="149.5,-339.7 149.5,-361.7 406.5,-361.7 406.5,-339.7 149.5,-339.7"/>
<image xlink:href="../../images/primaryKeys.png" width="11px" height="12px" preserveAspectRatio="xMinYMin meet" x="154.5" y="-356.7"/>
<text text-anchor="start" x="169.5" y="-346.8" font-family="Helvetica,sans-Serif" font-size="11.00" fill="#000000">id</text>
<polygon fill="#ffffff" stroke="transparent" points="149.5,-317.7 149.5,-339.7 406.5,-339.7 406.5,-317.7 149.5,-317.7"/>
<polygon fill="none" stroke="#000000" points="149.5,-317.7 149.5,-339.7 406.5,-339.7 406.5,-317.7 149.5,-317.7"/>
<image xlink:href="../../images/foreignKeys.png" width="11px" height="12px" preserveAspectRatio="xMinYMin meet" x="154.5" y="-334.7"/>
<text text-anchor="start" x="169.5" y="-324.8" font-family="Helvetica,sans-Serif" font-size="11.00" fill="#000000">oppija_oid</text>
<polygon fill="#ffffff" stroke="transparent" points="149.5,-295.7 149.5,-317.7 406.5,-317.7 406.5,-295.7 149.5,-295.7"/>
<polygon fill="none" stroke="#000000" points="149.5,-295.7 149.5,-317.7 406.5,-317.7 406.5,-295.7 149.5,-295.7"/>
<text text-anchor="start" x="169.5" y="-302.8" font-family="Helvetica,sans-Serif" font-size="11.00" fill="#000000">aikaleima</text>
<polygon fill="#ffffff" stroke="transparent" points="149.5,-273.7 149.5,-295.7 406.5,-295.7 406.5,-273.7 149.5,-273.7"/>
<polygon fill="none" stroke="#000000" points="149.5,-273.7 149.5,-295.7 406.5,-295.7 406.5,-273.7 149.5,-273.7"/>
<text text-anchor="start" x="169.5" y="-280.8" font-family="Helvetica,sans-Serif" font-size="11.00" fill="#000000">oppilaitos_oid</text>
<polygon fill="#ffffff" stroke="transparent" points="149.5,-251.7 149.5,-273.7 406.5,-273.7 406.5,-251.7 149.5,-251.7"/>
<polygon fill="none" stroke="#000000" points="149.5,-251.7 149.5,-273.7 406.5,-273.7 406.5,-251.7 149.5,-251.7"/>
<text text-anchor="start" x="169.5" y="-258.8" font-family="Helvetica,sans-Serif" font-size="11.00" fill="#000000">sisaltava_opiskeluoikeus_oppilaitos_oid</text>
<polygon fill="#ffffff" stroke="transparent" points="149.5,-229.7 149.5,-251.7 406.5,-251.7 406.5,-229.7 149.5,-229.7"/>
<polygon fill="none" stroke="#000000" points="149.5,-229.7 149.5,-251.7 406.5,-251.7 406.5,-229.7 149.5,-229.7"/>
<text text-anchor="start" x="169.5" y="-236.8" font-family="Helvetica,sans-Serif" font-size="11.00" fill="#000000">oid</text>
<polygon fill="none" stroke="#000000" points="149.5,-207.7 149.5,-229.7 406.5,-229.7 406.5,-207.7 149.5,-207.7"/>
<image xlink:href="../../images/foreignKeys.png" width="11px" height="12px" preserveAspectRatio="xMinYMin meet" x="154.5" y="-224.7"/>
<text text-anchor="start" x="169.5" y="-214.8" font-family="Helvetica,sans-Serif" font-size="11.00" fill="#000000">sisaltava_opiskeluoikeus_oid</text>
<polygon fill="#ffffff" stroke="transparent" points="149.5,-185.7 149.5,-207.7 406.5,-207.7 406.5,-185.7 149.5,-185.7"/>
<polygon fill="none" stroke="#000000" points="149.5,-185.7 149.5,-207.7 406.5,-207.7 406.5,-185.7 149.5,-185.7"/>
<text text-anchor="start" x="169.5" y="-192.8" font-family="Helvetica,sans-Serif" font-size="11.00" fill="#000000">mitatoity</text>
<polygon fill="#ffffff" stroke="transparent" points="149.5,-163.7 149.5,-185.7 406.5,-185.7 406.5,-163.7 149.5,-163.7"/>
<polygon fill="none" stroke="#000000" points="149.5,-163.7 149.5,-185.7 406.5,-185.7 406.5,-163.7 149.5,-163.7"/>
<text text-anchor="start" x="169.5" y="-170.8" font-family="Helvetica,sans-Serif" font-size="11.00" fill="#000000">koulutusmuoto</text>
<polygon fill="#ffffff" stroke="transparent" points="149.5,-141.7 149.5,-163.7 406.5,-163.7 406.5,-141.7 149.5,-141.7"/>
<polygon fill="none" stroke="#000000" points="149.5,-141.7 149.5,-163.7 406.5,-163.7 406.5,-141.7 149.5,-141.7"/>
<text text-anchor="start" x="169.5" y="-148.8" font-family="Helvetica,sans-Serif" font-size="11.00" fill="#000000">alkamispaiva</text>
<polygon fill="#ffffff" stroke="transparent" points="149.5,-119.7 149.5,-141.7 406.5,-141.7 406.5,-119.7 149.5,-119.7"/>
<polygon fill="none" stroke="#000000" points="149.5,-119.7 149.5,-141.7 406.5,-141.7 406.5,-119.7 149.5,-119.7"/>
<text text-anchor="start" x="169.5" y="-126.8" font-family="Helvetica,sans-Serif" font-size="11.00" fill="#000000">paattymispaiva</text>
<polygon fill="#ffffff" stroke="transparent" points="149.5,-97.7 149.5,-119.7 406.5,-119.7 406.5,-97.7 149.5,-97.7"/>
<polygon fill="none" stroke="#000000" points="149.5,-97.7 149.5,-119.7 406.5,-119.7 406.5,-97.7 149.5,-97.7"/>
<text text-anchor="start" x="169.5" y="-104.8" font-family="Helvetica,sans-Serif" font-size="11.00" fill="#000000">suoritustyypit</text>
<polygon fill="#ffffff" stroke="transparent" points="149.5,-75.7 149.5,-97.7 406.5,-97.7 406.5,-75.7 149.5,-75.7"/>
<polygon fill="none" stroke="#000000" points="149.5,-75.7 149.5,-97.7 406.5,-97.7 406.5,-75.7 149.5,-75.7"/>
<text text-anchor="start" x="169.5" y="-82.8" font-family="Helvetica,sans-Serif" font-size="11.00" fill="#000000">poistettu</text>
<polygon fill="none" stroke="#000000" points="149.5,-56.7 149.5,-75.7 406.5,-75.7 406.5,-56.7 149.5,-56.7"/>
<text text-anchor="start" x="152.5" y="-62.8" font-family="Helvetica,sans-Serif" font-size="11.00" fill="#000000">...</text>
<polygon fill="#ffffff" stroke="transparent" points="149.5,-37.7 149.5,-56.7 258.5,-56.7 258.5,-37.7 149.5,-37.7"/>
<polygon fill="none" stroke="#000000" points="149.5,-37.7 149.5,-56.7 258.5,-56.7 258.5,-37.7 149.5,-37.7"/>
<text text-anchor="start" x="152.5" y="-43.8" font-family="Helvetica,sans-Serif" font-size="11.00" fill="#000000">&lt; 2</text>
<polygon fill="#ffffff" stroke="transparent" points="258.5,-37.7 258.5,-56.7 340.5,-56.7 340.5,-37.7 258.5,-37.7"/>
<polygon fill="none" stroke="#000000" points="258.5,-37.7 258.5,-56.7 340.5,-56.7 340.5,-37.7 258.5,-37.7"/>
<text text-anchor="start" x="305.1105" y="-43.8" font-family="Helvetica,sans-Serif" font-size="11.00" fill="#000000">6 rows</text>
<polygon fill="#ffffff" stroke="transparent" points="340.5,-37.7 340.5,-56.7 406.5,-56.7 406.5,-37.7 340.5,-37.7"/>
<polygon fill="none" stroke="#000000" points="340.5,-37.7 340.5,-56.7 406.5,-56.7 406.5,-37.7 340.5,-37.7"/>
<text text-anchor="start" x="387.9053" y="-43.8" font-family="Helvetica,sans-Serif" font-size="11.00" fill="#000000">2 &gt;</text>
</a>
</g>
</g>
<!-- henkilo -->
<g id="node2" class="node">
<title>henkilo</title>
<g id="a_node2"><a xlink:href="../../tables/henkilo.html" xlink:title="henkilo" target="_top">
<polygon fill="#ffffff" stroke="transparent" points="8,-301.2 8,-362.2 100,-362.2 100,-301.2 8,-301.2"/>
<polygon fill="#f5f5f5" stroke="transparent" points="8,-338.7 8,-361.7 100,-361.7 100,-338.7 8,-338.7"/>
<polygon fill="none" stroke="#000000" points="8,-338.7 8,-361.7 100,-361.7 100,-338.7 8,-338.7"/>
<text text-anchor="start" x="13" y="-347.3" font-family="Helvetica,sans-Serif" font-weight="bold" font-size="11.00" fill="#000000">henkilo</text>
<text text-anchor="start" x="65.0437" y="-346.8" font-family="Helvetica,sans-Serif" font-size="11.00" fill="#000000">[table]</text>
<polygon fill="none" stroke="#000000" points="8,-319.7 8,-338.7 100,-338.7 100,-319.7 8,-319.7"/>
<text text-anchor="start" x="11" y="-325.8" font-family="Helvetica,sans-Serif" font-size="11.00" fill="#000000">...</text>
<polygon fill="#ffffff" stroke="transparent" points="8,-300.7 8,-319.7 29,-319.7 29,-300.7 8,-300.7"/>
<polygon fill="none" stroke="#000000" points="8,-300.7 8,-319.7 29,-319.7 29,-300.7 8,-300.7"/>
<text text-anchor="start" x="10.7027" y="-306.8" font-family="Helvetica,sans-Serif" font-size="11.00" fill="#000000">&lt; 1</text>
<polygon fill="#ffffff" stroke="transparent" points="29,-300.7 29,-319.7 79,-319.7 79,-300.7 29,-300.7"/>
<polygon fill="none" stroke="#000000" points="29,-300.7 29,-319.7 79,-319.7 79,-300.7 29,-300.7"/>
<text text-anchor="start" x="31.6904" y="-306.8" font-family="Helvetica,sans-Serif" font-size="11.00" fill="#000000">186 rows</text>
<polygon fill="#ffffff" stroke="transparent" points="79,-300.7 79,-319.7 100,-319.7 100,-300.7 79,-300.7"/>
<polygon fill="none" stroke="#000000" points="79,-300.7 79,-319.7 100,-319.7 100,-300.7 79,-300.7"/>
<text text-anchor="start" x="81.7027" y="-306.8" font-family="Helvetica,sans-Serif" font-size="11.00" fill="#000000">3 &gt;</text>
</a>
</g>
</g>
<!-- ytr_opiskeluoikeus&#45;&gt;henkilo -->
<g id="edge1" class="edge">
<title>ytr_opiskeluoikeus:w&#45;&gt;henkilo:e</title>
<path fill="none" stroke="#000000" d="M139.0474,-328.7C124.9907,-328.7 118.0469,-328.7 100,-328.7"/>
<polygon fill="#000000" stroke="#000000" points="148.7,-324.7 148.7,-332.7 147.1,-332.7 147.1,-324.7 148.7,-324.7"/>
<polyline fill="none" stroke="#000000" points="149.5,-328.7 145.5,-328.7 "/>
<ellipse fill="none" stroke="#000000" cx="142.3" cy="-328.7001" rx="3.2" ry="3.2"/>
</g>
<!-- ytr_opiskeluoikeushistoria -->
<g id="node3" class="node">
<title>ytr_opiskeluoikeushistoria</title>
<g id="a_node3"><a xlink:href="../../tables/ytr_opiskeluoikeushistoria.html" xlink:title="ytr_opiskeluoikeushistoria" target="_top">
<polygon fill="#ffffff" stroke="transparent" points="455,-230.7 455,-386.7 738,-386.7 738,-230.7 455,-230.7"/>
<polygon fill="#f5f5f5" stroke="transparent" points="457.5,-361.7 457.5,-384.7 736.5,-384.7 736.5,-361.7 457.5,-361.7"/>
<polygon fill="none" stroke="#000000" points="457.5,-361.7 457.5,-384.7 736.5,-384.7 736.5,-361.7 457.5,-361.7"/>
<text text-anchor="start" x="462.5" y="-370.3" font-family="Helvetica,sans-Serif" font-weight="bold" font-size="11.00" fill="#000000">ytr_opiskeluoikeushistoria</text>
<text text-anchor="start" x="701.5437" y="-369.8" font-family="Helvetica,sans-Serif" font-size="11.00" fill="#000000">[table]</text>
<polygon fill="none" stroke="#000000" points="457.5,-339.7 457.5,-361.7 637.5,-361.7 637.5,-339.7 457.5,-339.7"/>
<image xlink:href="../../images/primaryKeys.png" width="11px" height="12px" preserveAspectRatio="xMinYMin meet" x="462.5" y="-356.7"/>
<text text-anchor="start" x="477.5" y="-346.8" font-family="Helvetica,sans-Serif" font-size="11.00" fill="#000000">opiskeluoikeus_id</text>
<polygon fill="none" stroke="#000000" points="637.5,-339.7 637.5,-361.7 736.5,-361.7 736.5,-339.7 637.5,-339.7"/>
<text text-anchor="start" x="640.5" y="-347.4" font-family="Helvetica,sans-Serif" font-size="11.00" fill="#000000">int4[10]</text>
<polygon fill="none" stroke="#000000" points="457.5,-317.7 457.5,-339.7 637.5,-339.7 637.5,-317.7 457.5,-317.7"/>
<text text-anchor="start" x="477.5" y="-324.8" font-family="Helvetica,sans-Serif" font-size="11.00" fill="#000000">aikaleima</text>
<polygon fill="none" stroke="#000000" points="637.5,-317.7 637.5,-339.7 736.5,-339.7 736.5,-317.7 637.5,-317.7"/>
<text text-anchor="start" x="640.5" y="-325.4" font-family="Helvetica,sans-Serif" font-size="11.00" fill="#000000">timestamptz[35,6]</text>
<polygon fill="none" stroke="#000000" points="457.5,-295.7 457.5,-317.7 637.5,-317.7 637.5,-295.7 457.5,-295.7"/>
<text text-anchor="start" x="477.5" y="-302.8" font-family="Helvetica,sans-Serif" font-size="11.00" fill="#000000">kayttaja_oid</text>
<polygon fill="none" stroke="#000000" points="637.5,-295.7 637.5,-317.7 736.5,-317.7 736.5,-295.7 637.5,-295.7"/>
<text text-anchor="start" x="640.5" y="-303.4" font-family="Helvetica,sans-Serif" font-size="11.00" fill="#000000">text[2147483647]</text>
<polygon fill="none" stroke="#000000" points="457.5,-273.7 457.5,-295.7 637.5,-295.7 637.5,-273.7 457.5,-273.7"/>
<text text-anchor="start" x="477.5" y="-280.8" font-family="Helvetica,sans-Serif" font-size="11.00" fill="#000000">muutos</text>
<polygon fill="none" stroke="#000000" points="637.5,-273.7 637.5,-295.7 736.5,-295.7 736.5,-273.7 637.5,-273.7"/>
<text text-anchor="start" x="640.2258" y="-281.4" font-family="Helvetica,sans-Serif" font-size="11.00" fill="#000000">jsonb[2147483647]</text>
<polygon fill="none" stroke="#000000" points="457.5,-251.7 457.5,-273.7 637.5,-273.7 637.5,-251.7 457.5,-251.7"/>
<image xlink:href="../../images/primaryKeys.png" width="11px" height="12px" preserveAspectRatio="xMinYMin meet" x="462.5" y="-268.7"/>
<text text-anchor="start" x="477.5" y="-258.8" font-family="Helvetica,sans-Serif" font-size="11.00" fill="#000000">versionumero</text>
<polygon fill="none" stroke="#000000" points="637.5,-251.7 637.5,-273.7 736.5,-273.7 736.5,-251.7 637.5,-251.7"/>
<text text-anchor="start" x="640.5" y="-259.4" font-family="Helvetica,sans-Serif" font-size="11.00" fill="#000000">int4[10]</text>
<polygon fill="#ffffff" stroke="transparent" points="457.5,-232.7 457.5,-251.7 538.5,-251.7 538.5,-232.7 457.5,-232.7"/>
<polygon fill="none" stroke="#000000" points="457.5,-232.7 457.5,-251.7 538.5,-251.7 538.5,-232.7 457.5,-232.7"/>
<text text-anchor="start" x="460.5" y="-238.8" font-family="Helvetica,sans-Serif" font-size="11.00" fill="#000000">&lt; 1</text>
<polygon fill="#ffffff" stroke="transparent" points="538.5,-232.7 538.5,-251.7 637.5,-251.7 637.5,-232.7 538.5,-232.7"/>
<polygon fill="none" stroke="#000000" points="538.5,-232.7 538.5,-251.7 637.5,-251.7 637.5,-232.7 538.5,-232.7"/>
<text text-anchor="start" x="602.1105" y="-238.8" font-family="Helvetica,sans-Serif" font-size="11.00" fill="#000000">6 rows</text>
<polygon fill="#ffffff" stroke="transparent" points="637.5,-232.7 637.5,-251.7 736.5,-251.7 736.5,-232.7 637.5,-232.7"/>
<polygon fill="none" stroke="#000000" points="637.5,-232.7 637.5,-251.7 736.5,-251.7 736.5,-232.7 637.5,-232.7"/>
<text text-anchor="start" x="717.9053" y="-238.8" font-family="Helvetica,sans-Serif" font-size="11.00" fill="#000000">0 &gt;</text>
<polygon fill="none" stroke="#000000" stroke-width="2" points="456,-231.7 456,-385.7 737,-385.7 737,-231.7 456,-231.7"/>
</a>
</g>
</g>
<!-- ytr_opiskeluoikeushistoria&#45;&gt;ytr_opiskeluoikeus -->
<g id="edge2" class="edge">
<title>ytr_opiskeluoikeushistoria:w&#45;&gt;ytr_opiskeluoikeus:e</title>
<path fill="none" stroke="#000000" d="M442.776,-350.7C430.7815,-350.7 423.3229,-350.7 406.5,-350.7"/>
<polygon fill="#000000" stroke="#000000" points="449.5,-350.7001 457.5,-354.3 453.5,-350.7 457.5,-350.7 457.5,-350.7 457.5,-350.7 453.5,-350.7 457.5,-347.1 449.5,-350.7001 449.5,-350.7001"/>
<ellipse fill="none" stroke="#000000" cx="446.3" cy="-350.7001" rx="3.2" ry="3.2"/>
</g>
</g>
</svg>
