<?xml version="1.0" encoding="UTF-8" standalone="no"?>
<!DOCTYPE svg PUBLIC "-//W3C//DTD SVG 1.1//EN"
 "http://www.w3.org/Graphics/SVG/1.1/DTD/svg11.dtd">
<!-- Generated by graphviz version 2.40.1 (20161225.0304)
 -->
<!-- Title: oneDegreeRelationshipsDiagram Pages: 1 -->
<svg width="778pt" height="510pt"
 viewBox="0.00 0.00 778.00 510.20" xmlns="http://www.w3.org/2000/svg" xmlns:xlink="http://www.w3.org/1999/xlink">
<g id="graph0" class="graph" transform="scale(1 1) rotate(0) translate(4 506.2)">
<title>oneDegreeRelationshipsDiagram</title>
<polygon fill="#ffffff" stroke="transparent" points="-4,4 -4,-506.2 774,-506.2 774,4 -4,4"/>
<text text-anchor="middle" x="72.4936" y="-7.3" font-family="Helvetica,sans-Serif" font-size="11.00" fill="#000000">Generated by SchemaSpy</text>
<!-- ytr_opiskeluoikeus -->
<g id="node1" class="node">
<title>ytr_opiskeluoikeus</title>
<g id="a_node1"><a xlink:href="../../tables/ytr_opiskeluoikeus.html" xlink:title="ytr_opiskeluoikeus" target="_top">
<polygon fill="#ffffff" stroke="transparent" points="157,-38.2 157,-480.2 516,-480.2 516,-38.2 157,-38.2"/>
<polygon fill="#f5f5f5" stroke="transparent" points="159.5,-455.2 159.5,-478.2 514.5,-478.2 514.5,-455.2 159.5,-455.2"/>
<polygon fill="none" stroke="#000000" points="159.5,-455.2 159.5,-478.2 514.5,-478.2 514.5,-455.2 159.5,-455.2"/>
<text text-anchor="start" x="164.5" y="-463.8" font-family="Helvetica,sans-Serif" font-weight="bold" font-size="11.00" fill="#000000">ytr_opiskeluoikeus</text>
<text text-anchor="start" x="479.5437" y="-463.3" font-family="Helvetica,sans-Serif" font-size="11.00" fill="#000000">[table]</text>
<polygon fill="none" stroke="#000000" points="159.5,-433.2 159.5,-455.2 415.5,-455.2 415.5,-433.2 159.5,-433.2"/>
<image xlink:href="../../images/primaryKeys.png" width="11px" height="12px" preserveAspectRatio="xMinYMin meet" x="164.5" y="-450.2"/>
<text text-anchor="start" x="179.5" y="-440.3" font-family="Helvetica,sans-Serif" font-size="11.00" fill="#000000">id</text>
<polygon fill="none" stroke="#000000" points="415.5,-433.2 415.5,-455.2 514.5,-455.2 514.5,-433.2 415.5,-433.2"/>
<text text-anchor="start" x="418.5" y="-440.9" font-family="Helvetica,sans-Serif" font-size="11.00" fill="#000000">serial[10]</text>
<polygon fill="none" stroke="#000000" points="159.5,-411.2 159.5,-433.2 415.5,-433.2 415.5,-411.2 159.5,-411.2"/>
<text text-anchor="start" x="179.5" y="-418.3" font-family="Helvetica,sans-Serif" font-size="11.00" fill="#000000">data</text>
<polygon fill="none" stroke="#000000" points="415.5,-411.2 415.5,-433.2 514.5,-433.2 514.5,-411.2 415.5,-411.2"/>
<text text-anchor="start" x="418.2258" y="-418.9" font-family="Helvetica,sans-Serif" font-size="11.00" fill="#000000">jsonb[2147483647]</text>
<polygon fill="#ffffff" stroke="transparent" points="159.5,-389.2 159.5,-411.2 415.5,-411.2 415.5,-389.2 159.5,-389.2"/>
<polygon fill="none" stroke="#000000" points="159.5,-389.2 159.5,-411.2 415.5,-411.2 415.5,-389.2 159.5,-389.2"/>
<image xlink:href="../../images/foreignKeys.png" width="11px" height="12px" preserveAspectRatio="xMinYMin meet" x="164.5" y="-406.2"/>
<text text-anchor="start" x="179.5" y="-396.3" font-family="Helvetica,sans-Serif" font-size="11.00" fill="#000000">oppija_oid</text>
<polygon fill="none" stroke="#000000" points="415.5,-389.2 415.5,-411.2 514.5,-411.2 514.5,-389.2 415.5,-389.2"/>
<text text-anchor="start" x="418.5" y="-396.9" font-family="Helvetica,sans-Serif" font-size="11.00" fill="#000000">text[2147483647]</text>
<polygon fill="#ffffff" stroke="transparent" points="159.5,-367.2 159.5,-389.2 415.5,-389.2 415.5,-367.2 159.5,-367.2"/>
<polygon fill="none" stroke="#000000" points="159.5,-367.2 159.5,-389.2 415.5,-389.2 415.5,-367.2 159.5,-367.2"/>
<text text-anchor="start" x="179.5" y="-374.3" font-family="Helvetica,sans-Serif" font-size="11.00" fill="#000000">aikaleima</text>
<polygon fill="none" stroke="#000000" points="415.5,-367.2 415.5,-389.2 514.5,-389.2 514.5,-367.2 415.5,-367.2"/>
<text text-anchor="start" x="418.5" y="-374.9" font-family="Helvetica,sans-Serif" font-size="11.00" fill="#000000">timestamptz[35,6]</text>
<polygon fill="none" stroke="#000000" points="159.5,-345.2 159.5,-367.2 415.5,-367.2 415.5,-345.2 159.5,-345.2"/>
<text text-anchor="start" x="179.5" y="-352.3" font-family="Helvetica,sans-Serif" font-size="11.00" fill="#000000">versionumero</text>
<polygon fill="none" stroke="#000000" points="415.5,-345.2 415.5,-367.2 514.5,-367.2 514.5,-345.2 415.5,-345.2"/>
<text text-anchor="start" x="418.5" y="-352.9" font-family="Helvetica,sans-Serif" font-size="11.00" fill="#000000">int4[10]</text>
<polygon fill="#ffffff" stroke="transparent" points="159.5,-323.2 159.5,-345.2 415.5,-345.2 415.5,-323.2 159.5,-323.2"/>
<polygon fill="none" stroke="#000000" points="159.5,-323.2 159.5,-345.2 415.5,-345.2 415.5,-323.2 159.5,-323.2"/>
<text text-anchor="start" x="179.5" y="-330.3" font-family="Helvetica,sans-Serif" font-size="11.00" fill="#000000">oppilaitos_oid</text>
<polygon fill="none" stroke="#000000" points="415.5,-323.2 415.5,-345.2 514.5,-345.2 514.5,-323.2 415.5,-323.2"/>
<text text-anchor="start" x="418.5" y="-330.9" font-family="Helvetica,sans-Serif" font-size="11.00" fill="#000000">text[2147483647]</text>
<polygon fill="none" stroke="#000000" points="159.5,-301.2 159.5,-323.2 415.5,-323.2 415.5,-301.2 159.5,-301.2"/>
<text text-anchor="start" x="179.5" y="-308.3" font-family="Helvetica,sans-Serif" font-size="11.00" fill="#000000">koulutustoimija_oid</text>
<polygon fill="none" stroke="#000000" points="415.5,-301.2 415.5,-323.2 514.5,-323.2 514.5,-301.2 415.5,-301.2"/>
<text text-anchor="start" x="418.5" y="-308.9" font-family="Helvetica,sans-Serif" font-size="11.00" fill="#000000">text[2147483647]</text>
<polygon fill="none" stroke="#000000" points="159.5,-279.2 159.5,-301.2 415.5,-301.2 415.5,-279.2 159.5,-279.2"/>
<text text-anchor="start" x="179.5" y="-286.3" font-family="Helvetica,sans-Serif" font-size="11.00" fill="#000000">luokka</text>
<polygon fill="none" stroke="#000000" points="415.5,-279.2 415.5,-301.2 514.5,-301.2 514.5,-279.2 415.5,-279.2"/>
<text text-anchor="start" x="418.5" y="-286.9" font-family="Helvetica,sans-Serif" font-size="11.00" fill="#000000">text[2147483647]</text>
<polygon fill="#ffffff" stroke="transparent" points="159.5,-257.2 159.5,-279.2 415.5,-279.2 415.5,-257.2 159.5,-257.2"/>
<polygon fill="none" stroke="#000000" points="159.5,-257.2 159.5,-279.2 415.5,-279.2 415.5,-257.2 159.5,-257.2"/>
<text text-anchor="start" x="179.5" y="-264.3" font-family="Helvetica,sans-Serif" font-size="11.00" fill="#000000">sisaltava_opiskeluoikeus_oppilaitos_oid</text>
<polygon fill="none" stroke="#000000" points="415.5,-257.2 415.5,-279.2 514.5,-279.2 514.5,-257.2 415.5,-257.2"/>
<text text-anchor="start" x="418.5" y="-264.9" font-family="Helvetica,sans-Serif" font-size="11.00" fill="#000000">text[2147483647]</text>
<polygon fill="#ffffff" stroke="transparent" points="159.5,-235.2 159.5,-257.2 415.5,-257.2 415.5,-235.2 159.5,-235.2"/>
<polygon fill="none" stroke="#000000" points="159.5,-235.2 159.5,-257.2 415.5,-257.2 415.5,-235.2 159.5,-235.2"/>
<text text-anchor="start" x="179.5" y="-242.3" font-family="Helvetica,sans-Serif" font-size="11.00" fill="#000000">oid</text>
<polygon fill="none" stroke="#000000" points="415.5,-235.2 415.5,-257.2 514.5,-257.2 514.5,-235.2 415.5,-235.2"/>
<text text-anchor="start" x="418.5" y="-242.9" font-family="Helvetica,sans-Serif" font-size="11.00" fill="#000000">text[2147483647]</text>
<polygon fill="none" stroke="#000000" points="159.5,-213.2 159.5,-235.2 415.5,-235.2 415.5,-213.2 159.5,-213.2"/>
<image xlink:href="../../images/foreignKeys.png" width="11px" height="12px" preserveAspectRatio="xMinYMin meet" x="164.5" y="-230.2"/>
<text text-anchor="start" x="179.5" y="-220.3" font-family="Helvetica,sans-Serif" font-size="11.00" fill="#000000">sisaltava_opiskeluoikeus_oid</text>
<polygon fill="none" stroke="#000000" points="415.5,-213.2 415.5,-235.2 514.5,-235.2 514.5,-213.2 415.5,-213.2"/>
<text text-anchor="start" x="418.5" y="-220.9" font-family="Helvetica,sans-Serif" font-size="11.00" fill="#000000">text[2147483647]</text>
<polygon fill="#ffffff" stroke="transparent" points="159.5,-191.2 159.5,-213.2 415.5,-213.2 415.5,-191.2 159.5,-191.2"/>
<polygon fill="none" stroke="#000000" points="159.5,-191.2 159.5,-213.2 415.5,-213.2 415.5,-191.2 159.5,-191.2"/>
<text text-anchor="start" x="179.5" y="-198.3" font-family="Helvetica,sans-Serif" font-size="11.00" fill="#000000">mitatoity</text>
<polygon fill="none" stroke="#000000" points="415.5,-191.2 415.5,-213.2 514.5,-213.2 514.5,-191.2 415.5,-191.2"/>
<text text-anchor="start" x="418.5" y="-198.9" font-family="Helvetica,sans-Serif" font-size="11.00" fill="#000000">bool[1]</text>
<polygon fill="#ffffff" stroke="transparent" points="159.5,-169.2 159.5,-191.2 415.5,-191.2 415.5,-169.2 159.5,-169.2"/>
<polygon fill="none" stroke="#000000" points="159.5,-169.2 159.5,-191.2 415.5,-191.2 415.5,-169.2 159.5,-169.2"/>
<text text-anchor="start" x="179.5" y="-176.3" font-family="Helvetica,sans-Serif" font-size="11.00" fill="#000000">koulutusmuoto</text>
<polygon fill="none" stroke="#000000" points="415.5,-169.2 415.5,-191.2 514.5,-191.2 514.5,-169.2 415.5,-169.2"/>
<text text-anchor="start" x="418.5" y="-176.9" font-family="Helvetica,sans-Serif" font-size="11.00" fill="#000000">text[2147483647]</text>
<polygon fill="#ffffff" stroke="transparent" points="159.5,-147.2 159.5,-169.2 415.5,-169.2 415.5,-147.2 159.5,-147.2"/>
<polygon fill="none" stroke="#000000" points="159.5,-147.2 159.5,-169.2 415.5,-169.2 415.5,-147.2 159.5,-147.2"/>
<text text-anchor="start" x="179.5" y="-154.3" font-family="Helvetica,sans-Serif" font-size="11.00" fill="#000000">alkamispaiva</text>
<polygon fill="none" stroke="#000000" points="415.5,-147.2 415.5,-169.2 514.5,-169.2 514.5,-147.2 415.5,-147.2"/>
<text text-anchor="start" x="418.5" y="-154.9" font-family="Helvetica,sans-Serif" font-size="11.00" fill="#000000">date[13]</text>
<polygon fill="#ffffff" stroke="transparent" points="159.5,-125.2 159.5,-147.2 415.5,-147.2 415.5,-125.2 159.5,-125.2"/>
<polygon fill="none" stroke="#000000" points="159.5,-125.2 159.5,-147.2 415.5,-147.2 415.5,-125.2 159.5,-125.2"/>
<text text-anchor="start" x="179.5" y="-132.3" font-family="Helvetica,sans-Serif" font-size="11.00" fill="#000000">paattymispaiva</text>
<polygon fill="none" stroke="#000000" points="415.5,-125.2 415.5,-147.2 514.5,-147.2 514.5,-125.2 415.5,-125.2"/>
<text text-anchor="start" x="418.5" y="-132.9" font-family="Helvetica,sans-Serif" font-size="11.00" fill="#000000">date[13]</text>
<polygon fill="none" stroke="#000000" points="159.5,-103.2 159.5,-125.2 415.5,-125.2 415.5,-103.2 159.5,-103.2"/>
<text text-anchor="start" x="179.5" y="-110.3" font-family="Helvetica,sans-Serif" font-size="11.00" fill="#000000">suoritusjako_tehty_rajapaivan_jalkeen</text>
<polygon fill="none" stroke="#000000" points="415.5,-103.2 415.5,-125.2 514.5,-125.2 514.5,-103.2 415.5,-103.2"/>
<text text-anchor="start" x="418.5" y="-110.9" font-family="Helvetica,sans-Serif" font-size="11.00" fill="#000000">bool[1]</text>
<polygon fill="#ffffff" stroke="transparent" points="159.5,-81.2 159.5,-103.2 415.5,-103.2 415.5,-81.2 159.5,-81.2"/>
<polygon fill="none" stroke="#000000" points="159.5,-81.2 159.5,-103.2 415.5,-103.2 415.5,-81.2 159.5,-81.2"/>
<text text-anchor="start" x="179.5" y="-88.3" font-family="Helvetica,sans-Serif" font-size="11.00" fill="#000000">suoritustyypit</text>
<polygon fill="none" stroke="#000000" points="415.5,-81.2 415.5,-103.2 514.5,-103.2 514.5,-81.2 415.5,-81.2"/>
<text text-anchor="start" x="418.5" y="-88.9" font-family="Helvetica,sans-Serif" font-size="11.00" fill="#000000">_text[2147483647]</text>
<polygon fill="#ffffff" stroke="transparent" points="159.5,-59.2 159.5,-81.2 415.5,-81.2 415.5,-59.2 159.5,-59.2"/>
<polygon fill="none" stroke="#000000" points="159.5,-59.2 159.5,-81.2 415.5,-81.2 415.5,-59.2 159.5,-59.2"/>
<text text-anchor="start" x="179.5" y="-66.3" font-family="Helvetica,sans-Serif" font-size="11.00" fill="#000000">poistettu</text>
<polygon fill="none" stroke="#000000" points="415.5,-59.2 415.5,-81.2 514.5,-81.2 514.5,-59.2 415.5,-59.2"/>
<text text-anchor="start" x="418.5" y="-66.9" font-family="Helvetica,sans-Serif" font-size="11.00" fill="#000000">bool[1]</text>
<polygon fill="#ffffff" stroke="transparent" points="159.5,-40.2 159.5,-59.2 278.5,-59.2 278.5,-40.2 159.5,-40.2"/>
<polygon fill="none" stroke="#000000" points="159.5,-40.2 159.5,-59.2 278.5,-59.2 278.5,-40.2 159.5,-40.2"/>
<text text-anchor="start" x="162.5" y="-46.3" font-family="Helvetica,sans-Serif" font-size="11.00" fill="#000000">&lt; 2</text>
<polygon fill="#ffffff" stroke="transparent" points="278.5,-40.2 278.5,-59.2 415.5,-59.2 415.5,-40.2 278.5,-40.2"/>
<polygon fill="none" stroke="#000000" points="278.5,-40.2 278.5,-59.2 415.5,-59.2 415.5,-40.2 278.5,-40.2"/>
<text text-anchor="start" x="380.1105" y="-46.3" font-family="Helvetica,sans-Serif" font-size="11.00" fill="#000000">9 rows</text>
<polygon fill="#ffffff" stroke="transparent" points="415.5,-40.2 415.5,-59.2 514.5,-59.2 514.5,-40.2 415.5,-40.2"/>
<polygon fill="none" stroke="#000000" points="415.5,-40.2 415.5,-59.2 514.5,-59.2 514.5,-40.2 415.5,-40.2"/>
<text text-anchor="start" x="495.9053" y="-46.3" font-family="Helvetica,sans-Serif" font-size="11.00" fill="#000000">2 &gt;</text>
<polygon fill="none" stroke="#000000" stroke-width="2" points="158,-39.2 158,-479.2 515,-479.2 515,-39.2 158,-39.2"/>
</a>
</g>
</g>
<!-- ytr_opiskeluoikeus&#45;&gt;ytr_opiskeluoikeus -->
<g id="edge2" class="edge">
<title>ytr_opiskeluoikeus:w&#45;&gt;ytr_opiskeluoikeus:e</title>
<path fill="none" stroke="#000000" d="M150.5706,-235.5557C90.4984,-320.5423 101.0957,-497.2 337,-497.2 584,-497.2 584,-325.5333 514.5,-246.2"/>
<polygon fill="#000000" stroke="#000000" points="154.555,-230.4887 162.3299,-226.4253 157.0275,-227.3443 159.5,-224.2 159.5,-224.2 159.5,-224.2 157.0275,-227.3443 156.6701,-221.9747 154.555,-230.4887 154.555,-230.4887"/>
<ellipse fill="none" stroke="#000000" cx="152.577" cy="-233.0041" rx="3.2" ry="3.2"/>
</g>
<!-- henkilo -->
<g id="node2" class="node">
<title>henkilo</title>
<g id="a_node2"><a xlink:href="../../tables/henkilo.html" xlink:title="henkilo" target="_top">
<polygon fill="#ffffff" stroke="transparent" points="8,-329.7 8,-434.7 108,-434.7 108,-329.7 8,-329.7"/>
<polygon fill="#f5f5f5" stroke="transparent" points="8,-411.2 8,-434.2 108,-434.2 108,-411.2 8,-411.2"/>
<polygon fill="none" stroke="#000000" points="8,-411.2 8,-434.2 108,-434.2 108,-411.2 8,-411.2"/>
<text text-anchor="start" x="13" y="-419.8" font-family="Helvetica,sans-Serif" font-weight="bold" font-size="11.00" fill="#000000">henkilo</text>
<text text-anchor="start" x="73.0437" y="-419.3" font-family="Helvetica,sans-Serif" font-size="11.00" fill="#000000">[table]</text>
<polygon fill="none" stroke="#000000" points="8,-389.2 8,-411.2 108,-411.2 108,-389.2 8,-389.2"/>
<image xlink:href="../../images/primaryKeys.png" width="11px" height="12px" preserveAspectRatio="xMinYMin meet" x="13" y="-406.2"/>
<text text-anchor="start" x="28" y="-396.3" font-family="Helvetica,sans-Serif" font-size="11.00" fill="#000000">oid</text>
<polygon fill="#ffffff" stroke="transparent" points="8,-367.2 8,-389.2 108,-389.2 108,-367.2 8,-367.2"/>
<polygon fill="none" stroke="#000000" points="8,-367.2 8,-389.2 108,-389.2 108,-367.2 8,-367.2"/>
<image xlink:href="../../images/foreignKeys.png" width="11px" height="12px" preserveAspectRatio="xMinYMin meet" x="13" y="-384.2"/>
<text text-anchor="start" x="28" y="-374.3" font-family="Helvetica,sans-Serif" font-size="11.00" fill="#000000">master_oid</text>
<polygon fill="none" stroke="#000000" points="8,-348.2 8,-367.2 108,-367.2 108,-348.2 8,-348.2"/>
<text text-anchor="start" x="11" y="-354.3" font-family="Helvetica,sans-Serif" font-size="11.00" fill="#000000">...</text>
<polygon fill="#ffffff" stroke="transparent" points="8,-329.2 8,-348.2 33,-348.2 33,-329.2 8,-329.2"/>
<polygon fill="none" stroke="#000000" points="8,-329.2 8,-348.2 33,-348.2 33,-329.2 8,-329.2"/>
<text text-anchor="start" x="11" y="-335.3" font-family="Helvetica,sans-Serif" font-size="11.00" fill="#000000">&lt; 1</text>
<polygon fill="#ffffff" stroke="transparent" points="33,-329.2 33,-348.2 85,-348.2 85,-329.2 33,-329.2"/>
<polygon fill="none" stroke="#000000" points="33,-329.2 33,-348.2 85,-348.2 85,-329.2 33,-329.2"/>
<text text-anchor="start" x="37.3807" y="-335.3" font-family="Helvetica,sans-Serif" font-size="11.00" fill="#000000">205 rows</text>
<polygon fill="#ffffff" stroke="transparent" points="85,-329.2 85,-348.2 108,-348.2 108,-329.2 85,-329.2"/>
<polygon fill="none" stroke="#000000" points="85,-329.2 85,-348.2 108,-348.2 108,-329.2 85,-329.2"/>
<text text-anchor="start" x="89.4053" y="-335.3" font-family="Helvetica,sans-Serif" font-size="11.00" fill="#000000">3 &gt;</text>
</a>
</g>
</g>
<!-- ytr_opiskeluoikeus&#45;&gt;henkilo -->
<g id="edge1" class="edge">
<title>ytr_opiskeluoikeus:w&#45;&gt;henkilo:e</title>
<path fill="none" stroke="#000000" d="M149.045,-400.2C134.137,-400.2 126.9549,-400.2 108,-400.2"/>
<polygon fill="#000000" stroke="#000000" points="158.7,-396.2 158.7,-404.2 157.1,-404.2 157.1,-396.2 158.7,-396.2"/>
<polyline fill="none" stroke="#000000" points="159.5,-400.2 155.5,-400.2 "/>
<ellipse fill="none" stroke="#000000" cx="152.3" cy="-400.2001" rx="3.2" ry="3.2"/>
</g>
<!-- ytr_opiskeluoikeushistoria -->
<g id="node3" class="node">
<title>ytr_opiskeluoikeushistoria</title>
<g id="a_node3"><a xlink:href="../../tables/ytr_opiskeluoikeushistoria.html" xlink:title="ytr_opiskeluoikeushistoria" target="_top">
<polygon fill="#ffffff" stroke="transparent" points="565,-373.7 565,-478.7 762,-478.7 762,-373.7 565,-373.7"/>
<polygon fill="#f5f5f5" stroke="transparent" points="565.5,-455.2 565.5,-478.2 762.5,-478.2 762.5,-455.2 565.5,-455.2"/>
<polygon fill="none" stroke="#000000" points="565.5,-455.2 565.5,-478.2 762.5,-478.2 762.5,-455.2 565.5,-455.2"/>
<text text-anchor="start" x="570.5" y="-463.8" font-family="Helvetica,sans-Serif" font-weight="bold" font-size="11.00" fill="#000000">ytr_opiskeluoikeushistoria</text>
<text text-anchor="start" x="728.0219" y="-463.3" font-family="Helvetica,sans-Serif" font-size="11.00" fill="#000000">[table]</text>
<polygon fill="none" stroke="#000000" points="565.5,-433.2 565.5,-455.2 762.5,-455.2 762.5,-433.2 565.5,-433.2"/>
<image xlink:href="../../images/primaryKeys.png" width="11px" height="12px" preserveAspectRatio="xMinYMin meet" x="570.5" y="-450.2"/>
<text text-anchor="start" x="594.5" y="-440.3" font-family="Helvetica,sans-Serif" font-size="11.00" fill="#000000">opiskeluoikeus_id</text>
<polygon fill="none" stroke="#000000" points="565.5,-411.2 565.5,-433.2 762.5,-433.2 762.5,-411.2 565.5,-411.2"/>
<image xlink:href="../../images/primaryKeys.png" width="11px" height="12px" preserveAspectRatio="xMinYMin meet" x="570.5" y="-428.2"/>
<text text-anchor="start" x="594.5" y="-418.3" font-family="Helvetica,sans-Serif" font-size="11.00" fill="#000000">versionumero</text>
<polygon fill="none" stroke="#000000" points="565.5,-392.2 565.5,-411.2 762.5,-411.2 762.5,-392.2 565.5,-392.2"/>
<text text-anchor="start" x="568.5" y="-398.3" font-family="Helvetica,sans-Serif" font-size="11.00" fill="#000000">...</text>
<polygon fill="#ffffff" stroke="transparent" points="565.5,-373.2 565.5,-392.2 649.5,-392.2 649.5,-373.2 565.5,-373.2"/>
<polygon fill="none" stroke="#000000" points="565.5,-373.2 565.5,-392.2 649.5,-392.2 649.5,-373.2 565.5,-373.2"/>
<text text-anchor="start" x="568.5" y="-379.3" font-family="Helvetica,sans-Serif" font-size="11.00" fill="#000000">&lt; 1</text>
<polygon fill="#ffffff" stroke="transparent" points="649.5,-373.2 649.5,-392.2 718.5,-392.2 718.5,-373.2 649.5,-373.2"/>
<polygon fill="none" stroke="#000000" points="649.5,-373.2 649.5,-392.2 718.5,-392.2 718.5,-373.2 649.5,-373.2"/>
<text text-anchor="start" x="683.1105" y="-379.3" font-family="Helvetica,sans-Serif" font-size="11.00" fill="#000000">9 rows</text>
<polygon fill="#ffffff" stroke="transparent" points="718.5,-373.2 718.5,-392.2 762.5,-392.2 762.5,-373.2 718.5,-373.2"/>
<polygon fill="none" stroke="#000000" points="718.5,-373.2 718.5,-392.2 762.5,-392.2 762.5,-373.2 718.5,-373.2"/>
<text text-anchor="start" x="753.3862" y="-379.3" font-family="Helvetica,sans-Serif" font-size="11.00" fill="#000000"> &#160;</text>
</a>
</g>
</g>
<!-- ytr_opiskeluoikeushistoria&#45;&gt;ytr_opiskeluoikeus -->
<g id="edge3" class="edge">
<title>ytr_opiskeluoikeushistoria:w&#45;&gt;ytr_opiskeluoikeus:e</title>
<path fill="none" stroke="#000000" d="M550.776,-444.2C538.7815,-444.2 531.3229,-444.2 514.5,-444.2"/>
<polygon fill="#000000" stroke="#000000" points="557.5,-444.2001 565.5,-447.8 561.5,-444.2 565.5,-444.2 565.5,-444.2 565.5,-444.2 561.5,-444.2 565.5,-440.6 557.5,-444.2001 557.5,-444.2001"/>
<ellipse fill="none" stroke="#000000" cx="554.3" cy="-444.2001" rx="3.2" ry="3.2"/>
</g>
</g>
</svg>
