<?xml version="1.0" encoding="UTF-8" standalone="no"?>
<!DOCTYPE svg PUBLIC "-//W3C//DTD SVG 1.1//EN"
 "http://www.w3.org/Graphics/SVG/1.1/DTD/svg11.dtd">
<!-- Generated by graphviz version 2.40.1 (20161225.0304)
 -->
<!-- Title: twoDegreesRelationshipsDiagram Pages: 1 -->
<svg width="752pt" height="399pt"
 viewBox="0.00 0.00 752.00 398.70" xmlns="http://www.w3.org/2000/svg" xmlns:xlink="http://www.w3.org/1999/xlink">
<g id="graph0" class="graph" transform="scale(1 1) rotate(0) translate(4 394.7)">
<title>twoDegreesRelationshipsDiagram</title>
<polygon fill="#ffffff" stroke="transparent" points="-4,4 -4,-394.7 748,-394.7 748,4 -4,4"/>
<text text-anchor="middle" x="72.4936" y="-7.3" font-family="Helvetica,sans-Serif" font-size="11.00" fill="#000000">Generated by SchemaSpy</text>
<!-- ytr_opiskeluoikeus -->
<g id="node1" class="node">
<title>ytr_opiskeluoikeus</title>
<g id="a_node1"><a xlink:href="../../tables/ytr_opiskeluoikeus.html" xlink:title="ytr_opiskeluoikeus" target="_top">
<polygon fill="#ffffff" stroke="transparent" points="149,-38.2 149,-385.2 405,-385.2 405,-38.2 149,-38.2"/>
<polygon fill="#f5f5f5" stroke="transparent" points="149,-361.7 149,-384.7 405,-384.7 405,-361.7 149,-361.7"/>
<polygon fill="none" stroke="#000000" points="149,-361.7 149,-384.7 405,-384.7 405,-361.7 149,-361.7"/>
<text text-anchor="start" x="154" y="-370.3" font-family="Helvetica,sans-Serif" font-weight="bold" font-size="11.00" fill="#000000">ytr_opiskeluoikeus</text>
<text text-anchor="start" x="370.0437" y="-369.8" font-family="Helvetica,sans-Serif" font-size="11.00" fill="#000000">[table]</text>
<polygon fill="none" stroke="#000000" points="149,-339.7 149,-361.7 405,-361.7 405,-339.7 149,-339.7"/>
<image xlink:href="../../images/primaryKeys.png" width="11px" height="12px" preserveAspectRatio="xMinYMin meet" x="154" y="-356.7"/>
<text text-anchor="start" x="169" y="-346.8" font-family="Helvetica,sans-Serif" font-size="11.00" fill="#000000">id</text>
<polygon fill="#ffffff" stroke="transparent" points="149,-317.7 149,-339.7 405,-339.7 405,-317.7 149,-317.7"/>
<polygon fill="none" stroke="#000000" points="149,-317.7 149,-339.7 405,-339.7 405,-317.7 149,-317.7"/>
<image xlink:href="../../images/foreignKeys.png" width="11px" height="12px" preserveAspectRatio="xMinYMin meet" x="154" y="-334.7"/>
<text text-anchor="start" x="169" y="-324.8" font-family="Helvetica,sans-Serif" font-size="11.00" fill="#000000">oppija_oid</text>
<polygon fill="#ffffff" stroke="transparent" points="149,-295.7 149,-317.7 405,-317.7 405,-295.7 149,-295.7"/>
<polygon fill="none" stroke="#000000" points="149,-295.7 149,-317.7 405,-317.7 405,-295.7 149,-295.7"/>
<text text-anchor="start" x="169" y="-302.8" font-family="Helvetica,sans-Serif" font-size="11.00" fill="#000000">aikaleima</text>
<polygon fill="#ffffff" stroke="transparent" points="149,-273.7 149,-295.7 405,-295.7 405,-273.7 149,-273.7"/>
<polygon fill="none" stroke="#000000" points="149,-273.7 149,-295.7 405,-295.7 405,-273.7 149,-273.7"/>
<text text-anchor="start" x="169" y="-280.8" font-family="Helvetica,sans-Serif" font-size="11.00" fill="#000000">oppilaitos_oid</text>
<polygon fill="#ffffff" stroke="transparent" points="149,-251.7 149,-273.7 405,-273.7 405,-251.7 149,-251.7"/>
<polygon fill="none" stroke="#000000" points="149,-251.7 149,-273.7 405,-273.7 405,-251.7 149,-251.7"/>
<text text-anchor="start" x="169" y="-258.8" font-family="Helvetica,sans-Serif" font-size="11.00" fill="#000000">sisaltava_opiskeluoikeus_oppilaitos_oid</text>
<polygon fill="#ffffff" stroke="transparent" points="149,-229.7 149,-251.7 405,-251.7 405,-229.7 149,-229.7"/>
<polygon fill="none" stroke="#000000" points="149,-229.7 149,-251.7 405,-251.7 405,-229.7 149,-229.7"/>
<text text-anchor="start" x="169" y="-236.8" font-family="Helvetica,sans-Serif" font-size="11.00" fill="#000000">oid</text>
<polygon fill="none" stroke="#000000" points="149,-207.7 149,-229.7 405,-229.7 405,-207.7 149,-207.7"/>
<image xlink:href="../../images/foreignKeys.png" width="11px" height="12px" preserveAspectRatio="xMinYMin meet" x="154" y="-224.7"/>
<text text-anchor="start" x="169" y="-214.8" font-family="Helvetica,sans-Serif" font-size="11.00" fill="#000000">sisaltava_opiskeluoikeus_oid</text>
<polygon fill="#ffffff" stroke="transparent" points="149,-185.7 149,-207.7 405,-207.7 405,-185.7 149,-185.7"/>
<polygon fill="none" stroke="#000000" points="149,-185.7 149,-207.7 405,-207.7 405,-185.7 149,-185.7"/>
<text text-anchor="start" x="169" y="-192.8" font-family="Helvetica,sans-Serif" font-size="11.00" fill="#000000">mitatoity</text>
<polygon fill="#ffffff" stroke="transparent" points="149,-163.7 149,-185.7 405,-185.7 405,-163.7 149,-163.7"/>
<polygon fill="none" stroke="#000000" points="149,-163.7 149,-185.7 405,-185.7 405,-163.7 149,-163.7"/>
<text text-anchor="start" x="169" y="-170.8" font-family="Helvetica,sans-Serif" font-size="11.00" fill="#000000">koulutusmuoto</text>
<polygon fill="#ffffff" stroke="transparent" points="149,-141.7 149,-163.7 405,-163.7 405,-141.7 149,-141.7"/>
<polygon fill="none" stroke="#000000" points="149,-141.7 149,-163.7 405,-163.7 405,-141.7 149,-141.7"/>
<text text-anchor="start" x="169" y="-148.8" font-family="Helvetica,sans-Serif" font-size="11.00" fill="#000000">alkamispaiva</text>
<polygon fill="#ffffff" stroke="transparent" points="149,-119.7 149,-141.7 405,-141.7 405,-119.7 149,-119.7"/>
<polygon fill="none" stroke="#000000" points="149,-119.7 149,-141.7 405,-141.7 405,-119.7 149,-119.7"/>
<text text-anchor="start" x="169" y="-126.8" font-family="Helvetica,sans-Serif" font-size="11.00" fill="#000000">paattymispaiva</text>
<polygon fill="#ffffff" stroke="transparent" points="149,-97.7 149,-119.7 405,-119.7 405,-97.7 149,-97.7"/>
<polygon fill="none" stroke="#000000" points="149,-97.7 149,-119.7 405,-119.7 405,-97.7 149,-97.7"/>
<text text-anchor="start" x="169" y="-104.8" font-family="Helvetica,sans-Serif" font-size="11.00" fill="#000000">suoritustyypit</text>
<polygon fill="#ffffff" stroke="transparent" points="149,-75.7 149,-97.7 405,-97.7 405,-75.7 149,-75.7"/>
<polygon fill="none" stroke="#000000" points="149,-75.7 149,-97.7 405,-97.7 405,-75.7 149,-75.7"/>
<text text-anchor="start" x="169" y="-82.8" font-family="Helvetica,sans-Serif" font-size="11.00" fill="#000000">poistettu</text>
<polygon fill="none" stroke="#000000" points="149,-56.7 149,-75.7 405,-75.7 405,-56.7 149,-56.7"/>
<text text-anchor="start" x="152" y="-62.8" font-family="Helvetica,sans-Serif" font-size="11.00" fill="#000000">...</text>
<polygon fill="#ffffff" stroke="transparent" points="149,-37.7 149,-56.7 258,-56.7 258,-37.7 149,-37.7"/>
<polygon fill="none" stroke="#000000" points="149,-37.7 149,-56.7 258,-56.7 258,-37.7 149,-37.7"/>
<text text-anchor="start" x="152" y="-43.8" font-family="Helvetica,sans-Serif" font-size="11.00" fill="#000000">&lt; 2</text>
<polygon fill="#ffffff" stroke="transparent" points="258,-37.7 258,-56.7 340,-56.7 340,-37.7 258,-37.7"/>
<polygon fill="none" stroke="#000000" points="258,-37.7 258,-56.7 340,-56.7 340,-37.7 258,-37.7"/>
<text text-anchor="start" x="304.6105" y="-43.8" font-family="Helvetica,sans-Serif" font-size="11.00" fill="#000000">9 rows</text>
<polygon fill="#ffffff" stroke="transparent" points="340,-37.7 340,-56.7 405,-56.7 405,-37.7 340,-37.7"/>
<polygon fill="none" stroke="#000000" points="340,-37.7 340,-56.7 405,-56.7 405,-37.7 340,-37.7"/>
<text text-anchor="start" x="386.4053" y="-43.8" font-family="Helvetica,sans-Serif" font-size="11.00" fill="#000000">2 &gt;</text>
</a>
</g>
</g>
<!-- henkilo -->
<g id="node2" class="node">
<title>henkilo</title>
<g id="a_node2"><a xlink:href="../../tables/henkilo.html" xlink:title="henkilo" target="_top">
<polygon fill="#ffffff" stroke="transparent" points="8,-301.2 8,-362.2 100,-362.2 100,-301.2 8,-301.2"/>
<polygon fill="#f5f5f5" stroke="transparent" points="8,-338.7 8,-361.7 100,-361.7 100,-338.7 8,-338.7"/>
<polygon fill="none" stroke="#000000" points="8,-338.7 8,-361.7 100,-361.7 100,-338.7 8,-338.7"/>
<text text-anchor="start" x="13" y="-347.3" font-family="Helvetica,sans-Serif" font-weight="bold" font-size="11.00" fill="#000000">henkilo</text>
<text text-anchor="start" x="65.0437" y="-346.8" font-family="Helvetica,sans-Serif" font-size="11.00" fill="#000000">[table]</text>
<polygon fill="none" stroke="#000000" points="8,-319.7 8,-338.7 100,-338.7 100,-319.7 8,-319.7"/>
<text text-anchor="start" x="11" y="-325.8" font-family="Helvetica,sans-Serif" font-size="11.00" fill="#000000">...</text>
<polygon fill="#ffffff" stroke="transparent" points="8,-300.7 8,-319.7 29,-319.7 29,-300.7 8,-300.7"/>
<polygon fill="none" stroke="#000000" points="8,-300.7 8,-319.7 29,-319.7 29,-300.7 8,-300.7"/>
<text text-anchor="start" x="10.7027" y="-306.8" font-family="Helvetica,sans-Serif" font-size="11.00" fill="#000000">&lt; 1</text>
<polygon fill="#ffffff" stroke="transparent" points="29,-300.7 29,-319.7 79,-319.7 79,-300.7 29,-300.7"/>
<polygon fill="none" stroke="#000000" points="29,-300.7 29,-319.7 79,-319.7 79,-300.7 29,-300.7"/>
<text text-anchor="start" x="31.6904" y="-306.8" font-family="Helvetica,sans-Serif" font-size="11.00" fill="#000000">205 rows</text>
<polygon fill="#ffffff" stroke="transparent" points="79,-300.7 79,-319.7 100,-319.7 100,-300.7 79,-300.7"/>
<polygon fill="none" stroke="#000000" points="79,-300.7 79,-319.7 100,-319.7 100,-300.7 79,-300.7"/>
<text text-anchor="start" x="81.7027" y="-306.8" font-family="Helvetica,sans-Serif" font-size="11.00" fill="#000000">3 &gt;</text>
</a>
</g>
</g>
<!-- ytr_opiskeluoikeus&#45;&gt;henkilo -->
<g id="edge1" class="edge">
<title>ytr_opiskeluoikeus:w&#45;&gt;henkilo:e</title>
<path fill="none" stroke="#000000" d="M138.2573,-328.7C124.6063,-328.7 117.6944,-328.7 100,-328.7"/>
<polygon fill="#000000" stroke="#000000" points="148.2,-324.7 148.2,-332.7 146.6,-332.7 146.6,-324.7 148.2,-324.7"/>
<polyline fill="none" stroke="#000000" points="149,-328.7 145,-328.7 "/>
<ellipse fill="none" stroke="#000000" cx="141.8" cy="-328.7001" rx="3.2" ry="3.2"/>
</g>
<!-- ytr_opiskeluoikeushistoria -->
<g id="node3" class="node">
<title>ytr_opiskeluoikeushistoria</title>
<g id="a_node3"><a xlink:href="../../tables/ytr_opiskeluoikeushistoria.html" xlink:title="ytr_opiskeluoikeushistoria" target="_top">
<polygon fill="#ffffff" stroke="transparent" points="454,-230.7 454,-386.7 736,-386.7 736,-230.7 454,-230.7"/>
<polygon fill="#f5f5f5" stroke="transparent" points="456,-361.7 456,-384.7 734,-384.7 734,-361.7 456,-361.7"/>
<polygon fill="none" stroke="#000000" points="456,-361.7 456,-384.7 734,-384.7 734,-361.7 456,-361.7"/>
<text text-anchor="start" x="461" y="-370.3" font-family="Helvetica,sans-Serif" font-weight="bold" font-size="11.00" fill="#000000">ytr_opiskeluoikeushistoria</text>
<text text-anchor="start" x="699.0437" y="-369.8" font-family="Helvetica,sans-Serif" font-size="11.00" fill="#000000">[table]</text>
<polygon fill="none" stroke="#000000" points="456,-339.7 456,-361.7 635,-361.7 635,-339.7 456,-339.7"/>
<image xlink:href="../../images/primaryKeys.png" width="11px" height="12px" preserveAspectRatio="xMinYMin meet" x="461" y="-356.7"/>
<text text-anchor="start" x="476" y="-346.8" font-family="Helvetica,sans-Serif" font-size="11.00" fill="#000000">opiskeluoikeus_id</text>
<polygon fill="none" stroke="#000000" points="635,-339.7 635,-361.7 734,-361.7 734,-339.7 635,-339.7"/>
<text text-anchor="start" x="638" y="-347.4" font-family="Helvetica,sans-Serif" font-size="11.00" fill="#000000">int4[10]</text>
<polygon fill="none" stroke="#000000" points="456,-317.7 456,-339.7 635,-339.7 635,-317.7 456,-317.7"/>
<text text-anchor="start" x="476" y="-324.8" font-family="Helvetica,sans-Serif" font-size="11.00" fill="#000000">aikaleima</text>
<polygon fill="none" stroke="#000000" points="635,-317.7 635,-339.7 734,-339.7 734,-317.7 635,-317.7"/>
<text text-anchor="start" x="638" y="-325.4" font-family="Helvetica,sans-Serif" font-size="11.00" fill="#000000">timestamptz[35,6]</text>
<polygon fill="none" stroke="#000000" points="456,-295.7 456,-317.7 635,-317.7 635,-295.7 456,-295.7"/>
<text text-anchor="start" x="476" y="-302.8" font-family="Helvetica,sans-Serif" font-size="11.00" fill="#000000">kayttaja_oid</text>
<polygon fill="none" stroke="#000000" points="635,-295.7 635,-317.7 734,-317.7 734,-295.7 635,-295.7"/>
<text text-anchor="start" x="638" y="-303.4" font-family="Helvetica,sans-Serif" font-size="11.00" fill="#000000">text[2147483647]</text>
<polygon fill="none" stroke="#000000" points="456,-273.7 456,-295.7 635,-295.7 635,-273.7 456,-273.7"/>
<text text-anchor="start" x="476" y="-280.8" font-family="Helvetica,sans-Serif" font-size="11.00" fill="#000000">muutos</text>
<polygon fill="none" stroke="#000000" points="635,-273.7 635,-295.7 734,-295.7 734,-273.7 635,-273.7"/>
<text text-anchor="start" x="637.7258" y="-281.4" font-family="Helvetica,sans-Serif" font-size="11.00" fill="#000000">jsonb[2147483647]</text>
<polygon fill="none" stroke="#000000" points="456,-251.7 456,-273.7 635,-273.7 635,-251.7 456,-251.7"/>
<image xlink:href="../../images/primaryKeys.png" width="11px" height="12px" preserveAspectRatio="xMinYMin meet" x="461" y="-268.7"/>
<text text-anchor="start" x="476" y="-258.8" font-family="Helvetica,sans-Serif" font-size="11.00" fill="#000000">versionumero</text>
<polygon fill="none" stroke="#000000" points="635,-251.7 635,-273.7 734,-273.7 734,-251.7 635,-251.7"/>
<text text-anchor="start" x="638" y="-259.4" font-family="Helvetica,sans-Serif" font-size="11.00" fill="#000000">int4[10]</text>
<polygon fill="#ffffff" stroke="transparent" points="456,-232.7 456,-251.7 537,-251.7 537,-232.7 456,-232.7"/>
<polygon fill="none" stroke="#000000" points="456,-232.7 456,-251.7 537,-251.7 537,-232.7 456,-232.7"/>
<text text-anchor="start" x="459" y="-238.8" font-family="Helvetica,sans-Serif" font-size="11.00" fill="#000000">&lt; 1</text>
<polygon fill="#ffffff" stroke="transparent" points="537,-232.7 537,-251.7 635,-251.7 635,-232.7 537,-232.7"/>
<polygon fill="none" stroke="#000000" points="537,-232.7 537,-251.7 635,-251.7 635,-232.7 537,-232.7"/>
<text text-anchor="start" x="599.6105" y="-238.8" font-family="Helvetica,sans-Serif" font-size="11.00" fill="#000000">9 rows</text>
<polygon fill="#ffffff" stroke="transparent" points="635,-232.7 635,-251.7 734,-251.7 734,-232.7 635,-232.7"/>
<polygon fill="none" stroke="#000000" points="635,-232.7 635,-251.7 734,-251.7 734,-232.7 635,-232.7"/>
<text text-anchor="start" x="715.4053" y="-238.8" font-family="Helvetica,sans-Serif" font-size="11.00" fill="#000000">0 &gt;</text>
<polygon fill="none" stroke="#000000" stroke-width="2" points="455,-231.7 455,-385.7 735,-385.7 735,-231.7 455,-231.7"/>
</a>
</g>
</g>
<!-- ytr_opiskeluoikeushistoria&#45;&gt;ytr_opiskeluoikeus -->
<g id="edge2" class="edge">
<title>ytr_opiskeluoikeushistoria:w&#45;&gt;ytr_opiskeluoikeus:e</title>
<path fill="none" stroke="#000000" d="M441.276,-350.7C429.2815,-350.7 421.8229,-350.7 405,-350.7"/>
<polygon fill="#000000" stroke="#000000" points="448,-350.7001 456,-354.3 452,-350.7 456,-350.7 456,-350.7 456,-350.7 452,-350.7 456,-347.1 448,-350.7001 448,-350.7001"/>
<ellipse fill="none" stroke="#000000" cx="444.8" cy="-350.7001" rx="3.2" ry="3.2"/>
</g>
</g>
</svg>
