<?xml version="1.0" encoding="UTF-8" standalone="no"?>
<!DOCTYPE svg PUBLIC "-//W3C//DTD SVG 1.1//EN"
 "http://www.w3.org/Graphics/SVG/1.1/DTD/svg11.dtd">
<!-- Generated by graphviz version 2.40.1 (20161225.0304)
 -->
<!-- Title: twoDegreesRelationshipsDiagram Pages: 1 -->
<svg width="838pt" height="593pt"
 viewBox="0.00 0.00 838.00 592.70" xmlns="http://www.w3.org/2000/svg" xmlns:xlink="http://www.w3.org/1999/xlink">
<g id="graph0" class="graph" transform="scale(1 1) rotate(0) translate(4 588.7)">
<title>twoDegreesRelationshipsDiagram</title>
<polygon fill="#ffffff" stroke="transparent" points="-4,4 -4,-588.7 834,-588.7 834,4 -4,4"/>
<text text-anchor="middle" x="72.4936" y="-7.3" font-family="Helvetica,sans-Serif" font-size="11.00" fill="#000000">Generated by SchemaSpy</text>
<!-- opiskeluoikeus -->
<g id="node1" class="node">
<title>opiskeluoikeus</title>
<g id="a_node1"><a xlink:href="../../tables/opiskeluoikeus.html" xlink:title="opiskeluoikeus" target="_top">
<polygon fill="#ffffff" stroke="transparent" points="290.5,-519.7 290.5,-580.7 430.5,-580.7 430.5,-519.7 290.5,-519.7"/>
<polygon fill="#f5f5f5" stroke="transparent" points="290.5,-557.2 290.5,-580.2 430.5,-580.2 430.5,-557.2 290.5,-557.2"/>
<polygon fill="none" stroke="#000000" points="290.5,-557.2 290.5,-580.2 430.5,-580.2 430.5,-557.2 290.5,-557.2"/>
<text text-anchor="start" x="295.5" y="-565.8" font-family="Helvetica,sans-Serif" font-weight="bold" font-size="11.00" fill="#000000">opiskeluoikeus</text>
<text text-anchor="start" x="396.0219" y="-565.3" font-family="Helvetica,sans-Serif" font-size="11.00" fill="#000000">[table]</text>
<polygon fill="none" stroke="#000000" points="290.5,-538.2 290.5,-557.2 430.5,-557.2 430.5,-538.2 290.5,-538.2"/>
<text text-anchor="start" x="293.5" y="-544.3" font-family="Helvetica,sans-Serif" font-size="11.00" fill="#000000">...</text>
<polygon fill="#ffffff" stroke="transparent" points="290.5,-519.2 290.5,-538.2 335.5,-538.2 335.5,-519.2 290.5,-519.2"/>
<polygon fill="none" stroke="#000000" points="290.5,-519.2 290.5,-538.2 335.5,-538.2 335.5,-519.2 290.5,-519.2"/>
<text text-anchor="start" x="293.5" y="-525.3" font-family="Helvetica,sans-Serif" font-size="11.00" fill="#000000">&lt; 2</text>
<polygon fill="#ffffff" stroke="transparent" points="335.5,-519.2 335.5,-538.2 397.5,-538.2 397.5,-519.2 335.5,-519.2"/>
<polygon fill="none" stroke="#000000" points="335.5,-519.2 335.5,-538.2 397.5,-538.2 397.5,-519.2 335.5,-519.2"/>
<text text-anchor="start" x="349.8807" y="-525.3" font-family="Helvetica,sans-Serif" font-size="11.00" fill="#000000">188 rows</text>
<polygon fill="#ffffff" stroke="transparent" points="397.5,-519.2 397.5,-538.2 430.5,-538.2 430.5,-519.2 397.5,-519.2"/>
<polygon fill="none" stroke="#000000" points="397.5,-519.2 397.5,-538.2 430.5,-538.2 430.5,-519.2 397.5,-519.2"/>
<text text-anchor="start" x="411.9053" y="-525.3" font-family="Helvetica,sans-Serif" font-size="11.00" fill="#000000">4 &gt;</text>
</a>
</g>
</g>
<!-- henkilo -->
<g id="node2" class="node">
<title>henkilo</title>
<g id="a_node2"><a xlink:href="../../tables/henkilo.html" xlink:title="henkilo" target="_top">
<polygon fill="#ffffff" stroke="transparent" points="8,-402.7 8,-507.7 116,-507.7 116,-402.7 8,-402.7"/>
<polygon fill="#f5f5f5" stroke="transparent" points="8,-484.2 8,-507.2 116,-507.2 116,-484.2 8,-484.2"/>
<polygon fill="none" stroke="#000000" points="8,-484.2 8,-507.2 116,-507.2 116,-484.2 8,-484.2"/>
<text text-anchor="start" x="13" y="-492.8" font-family="Helvetica,sans-Serif" font-weight="bold" font-size="11.00" fill="#000000">henkilo</text>
<text text-anchor="start" x="81.0437" y="-492.3" font-family="Helvetica,sans-Serif" font-size="11.00" fill="#000000">[table]</text>
<polygon fill="none" stroke="#000000" points="8,-462.2 8,-484.2 116,-484.2 116,-462.2 8,-462.2"/>
<image xlink:href="../../images/primaryKeys.png" width="11px" height="12px" preserveAspectRatio="xMinYMin meet" x="13" y="-479.2"/>
<text text-anchor="start" x="28" y="-469.3" font-family="Helvetica,sans-Serif" font-size="11.00" fill="#000000">oid</text>
<polygon fill="#ffffff" stroke="transparent" points="8,-440.2 8,-462.2 116,-462.2 116,-440.2 8,-440.2"/>
<polygon fill="none" stroke="#000000" points="8,-440.2 8,-462.2 116,-462.2 116,-440.2 8,-440.2"/>
<image xlink:href="../../images/foreignKeys.png" width="11px" height="12px" preserveAspectRatio="xMinYMin meet" x="13" y="-457.2"/>
<text text-anchor="start" x="28" y="-447.3" font-family="Helvetica,sans-Serif" font-size="11.00" fill="#000000">master_oid</text>
<polygon fill="none" stroke="#000000" points="8,-421.2 8,-440.2 116,-440.2 116,-421.2 8,-421.2"/>
<text text-anchor="start" x="11" y="-427.3" font-family="Helvetica,sans-Serif" font-size="11.00" fill="#000000">...</text>
<polygon fill="#ffffff" stroke="transparent" points="8,-402.2 8,-421.2 37,-421.2 37,-402.2 8,-402.2"/>
<polygon fill="none" stroke="#000000" points="8,-402.2 8,-421.2 37,-421.2 37,-402.2 8,-402.2"/>
<text text-anchor="start" x="11" y="-408.3" font-family="Helvetica,sans-Serif" font-size="11.00" fill="#000000">&lt; 1</text>
<polygon fill="#ffffff" stroke="transparent" points="37,-402.2 37,-421.2 91,-421.2 91,-402.2 37,-402.2"/>
<polygon fill="none" stroke="#000000" points="37,-402.2 37,-421.2 91,-421.2 91,-402.2 37,-402.2"/>
<text text-anchor="start" x="43.3807" y="-408.3" font-family="Helvetica,sans-Serif" font-size="11.00" fill="#000000">206 rows</text>
<polygon fill="#ffffff" stroke="transparent" points="91,-402.2 91,-421.2 116,-421.2 116,-402.2 91,-402.2"/>
<polygon fill="none" stroke="#000000" points="91,-402.2 91,-421.2 116,-421.2 116,-402.2 91,-402.2"/>
<text text-anchor="start" x="97.4053" y="-408.3" font-family="Helvetica,sans-Serif" font-size="11.00" fill="#000000">3 &gt;</text>
</a>
</g>
</g>
<!-- opiskeluoikeus&#45;&gt;henkilo -->
<g id="edge1" class="edge">
<title>opiskeluoikeus:w&#45;&gt;henkilo:e</title>
<path fill="none" stroke="#000000" d="M280.0935,-547.1101C226.6172,-546.1338 207.9958,-536.9884 157,-509.2 135.7065,-497.5968 140.2497,-473.2 116,-473.2"/>
<polygon fill="#000000" stroke="#000000" points="289.7346,-543.1932 289.6654,-551.1929 288.0655,-551.1791 288.1347,-543.1794 289.7346,-543.1932"/>
<polyline fill="none" stroke="#000000" points="290.5,-547.2 286.5001,-547.1654 "/>
<ellipse fill="none" stroke="#000000" cx="283.3003" cy="-547.1377" rx="3.2" ry="3.2"/>
</g>
<!-- ytr_opiskeluoikeus -->
<g id="node3" class="node">
<title>ytr_opiskeluoikeus</title>
<g id="a_node3"><a xlink:href="../../tables/ytr_opiskeluoikeus.html" xlink:title="ytr_opiskeluoikeus" target="_top">
<polygon fill="#ffffff" stroke="transparent" points="165,-38.2 165,-480.2 556,-480.2 556,-38.2 165,-38.2"/>
<polygon fill="#f5f5f5" stroke="transparent" points="167.5,-455.2 167.5,-478.2 554.5,-478.2 554.5,-455.2 167.5,-455.2"/>
<polygon fill="none" stroke="#000000" points="167.5,-455.2 167.5,-478.2 554.5,-478.2 554.5,-455.2 167.5,-455.2"/>
<text text-anchor="start" x="172.5" y="-463.8" font-family="Helvetica,sans-Serif" font-weight="bold" font-size="11.00" fill="#000000">ytr_opiskeluoikeus</text>
<text text-anchor="start" x="519.5437" y="-463.3" font-family="Helvetica,sans-Serif" font-size="11.00" fill="#000000">[table]</text>
<polygon fill="none" stroke="#000000" points="167.5,-433.2 167.5,-455.2 455.5,-455.2 455.5,-433.2 167.5,-433.2"/>
<image xlink:href="../../images/primaryKeys.png" width="11px" height="12px" preserveAspectRatio="xMinYMin meet" x="172.5" y="-450.2"/>
<text text-anchor="start" x="187.5" y="-440.3" font-family="Helvetica,sans-Serif" font-size="11.00" fill="#000000">id</text>
<polygon fill="none" stroke="#000000" points="455.5,-433.2 455.5,-455.2 554.5,-455.2 554.5,-433.2 455.5,-433.2"/>
<text text-anchor="start" x="458.5" y="-440.9" font-family="Helvetica,sans-Serif" font-size="11.00" fill="#000000">serial[10]</text>
<polygon fill="none" stroke="#000000" points="167.5,-411.2 167.5,-433.2 455.5,-433.2 455.5,-411.2 167.5,-411.2"/>
<text text-anchor="start" x="187.5" y="-418.3" font-family="Helvetica,sans-Serif" font-size="11.00" fill="#000000">data</text>
<polygon fill="none" stroke="#000000" points="455.5,-411.2 455.5,-433.2 554.5,-433.2 554.5,-411.2 455.5,-411.2"/>
<text text-anchor="start" x="458.2258" y="-418.9" font-family="Helvetica,sans-Serif" font-size="11.00" fill="#000000">jsonb[2147483647]</text>
<polygon fill="#ffffff" stroke="transparent" points="167.5,-389.2 167.5,-411.2 455.5,-411.2 455.5,-389.2 167.5,-389.2"/>
<polygon fill="none" stroke="#000000" points="167.5,-389.2 167.5,-411.2 455.5,-411.2 455.5,-389.2 167.5,-389.2"/>
<image xlink:href="../../images/foreignKeys.png" width="11px" height="12px" preserveAspectRatio="xMinYMin meet" x="172.5" y="-406.2"/>
<text text-anchor="start" x="187.5" y="-396.3" font-family="Helvetica,sans-Serif" font-size="11.00" fill="#000000">oppija_oid</text>
<polygon fill="none" stroke="#000000" points="455.5,-389.2 455.5,-411.2 554.5,-411.2 554.5,-389.2 455.5,-389.2"/>
<text text-anchor="start" x="458.5" y="-396.9" font-family="Helvetica,sans-Serif" font-size="11.00" fill="#000000">text[2147483647]</text>
<polygon fill="#ffffff" stroke="transparent" points="167.5,-367.2 167.5,-389.2 455.5,-389.2 455.5,-367.2 167.5,-367.2"/>
<polygon fill="none" stroke="#000000" points="167.5,-367.2 167.5,-389.2 455.5,-389.2 455.5,-367.2 167.5,-367.2"/>
<text text-anchor="start" x="187.5" y="-374.3" font-family="Helvetica,sans-Serif" font-size="11.00" fill="#000000">aikaleima</text>
<polygon fill="none" stroke="#000000" points="455.5,-367.2 455.5,-389.2 554.5,-389.2 554.5,-367.2 455.5,-367.2"/>
<text text-anchor="start" x="458.5" y="-374.9" font-family="Helvetica,sans-Serif" font-size="11.00" fill="#000000">timestamptz[35,6]</text>
<polygon fill="none" stroke="#000000" points="167.5,-345.2 167.5,-367.2 455.5,-367.2 455.5,-345.2 167.5,-345.2"/>
<text text-anchor="start" x="187.5" y="-352.3" font-family="Helvetica,sans-Serif" font-size="11.00" fill="#000000">versionumero</text>
<polygon fill="none" stroke="#000000" points="455.5,-345.2 455.5,-367.2 554.5,-367.2 554.5,-345.2 455.5,-345.2"/>
<text text-anchor="start" x="458.5" y="-352.9" font-family="Helvetica,sans-Serif" font-size="11.00" fill="#000000">int4[10]</text>
<polygon fill="#ffffff" stroke="transparent" points="167.5,-323.2 167.5,-345.2 455.5,-345.2 455.5,-323.2 167.5,-323.2"/>
<polygon fill="none" stroke="#000000" points="167.5,-323.2 167.5,-345.2 455.5,-345.2 455.5,-323.2 167.5,-323.2"/>
<text text-anchor="start" x="187.5" y="-330.3" font-family="Helvetica,sans-Serif" font-size="11.00" fill="#000000">oppilaitos_oid</text>
<polygon fill="none" stroke="#000000" points="455.5,-323.2 455.5,-345.2 554.5,-345.2 554.5,-323.2 455.5,-323.2"/>
<text text-anchor="start" x="458.5" y="-330.9" font-family="Helvetica,sans-Serif" font-size="11.00" fill="#000000">text[2147483647]</text>
<polygon fill="none" stroke="#000000" points="167.5,-301.2 167.5,-323.2 455.5,-323.2 455.5,-301.2 167.5,-301.2"/>
<text text-anchor="start" x="187.5" y="-308.3" font-family="Helvetica,sans-Serif" font-size="11.00" fill="#000000">koulutustoimija_oid</text>
<polygon fill="none" stroke="#000000" points="455.5,-301.2 455.5,-323.2 554.5,-323.2 554.5,-301.2 455.5,-301.2"/>
<text text-anchor="start" x="458.5" y="-308.9" font-family="Helvetica,sans-Serif" font-size="11.00" fill="#000000">text[2147483647]</text>
<polygon fill="none" stroke="#000000" points="167.5,-279.2 167.5,-301.2 455.5,-301.2 455.5,-279.2 167.5,-279.2"/>
<text text-anchor="start" x="187.5" y="-286.3" font-family="Helvetica,sans-Serif" font-size="11.00" fill="#000000">luokka</text>
<polygon fill="none" stroke="#000000" points="455.5,-279.2 455.5,-301.2 554.5,-301.2 554.5,-279.2 455.5,-279.2"/>
<text text-anchor="start" x="458.5" y="-286.9" font-family="Helvetica,sans-Serif" font-size="11.00" fill="#000000">text[2147483647]</text>
<polygon fill="#ffffff" stroke="transparent" points="167.5,-257.2 167.5,-279.2 455.5,-279.2 455.5,-257.2 167.5,-257.2"/>
<polygon fill="none" stroke="#000000" points="167.5,-257.2 167.5,-279.2 455.5,-279.2 455.5,-257.2 167.5,-257.2"/>
<text text-anchor="start" x="187.5" y="-264.3" font-family="Helvetica,sans-Serif" font-size="11.00" fill="#000000">sisaltava_opiskeluoikeus_oppilaitos_oid</text>
<polygon fill="none" stroke="#000000" points="455.5,-257.2 455.5,-279.2 554.5,-279.2 554.5,-257.2 455.5,-257.2"/>
<text text-anchor="start" x="458.5" y="-264.9" font-family="Helvetica,sans-Serif" font-size="11.00" fill="#000000">text[2147483647]</text>
<polygon fill="#ffffff" stroke="transparent" points="167.5,-235.2 167.5,-257.2 455.5,-257.2 455.5,-235.2 167.5,-235.2"/>
<polygon fill="none" stroke="#000000" points="167.5,-235.2 167.5,-257.2 455.5,-257.2 455.5,-235.2 167.5,-235.2"/>
<text text-anchor="start" x="187.5" y="-242.3" font-family="Helvetica,sans-Serif" font-size="11.00" fill="#000000">oid</text>
<polygon fill="none" stroke="#000000" points="455.5,-235.2 455.5,-257.2 554.5,-257.2 554.5,-235.2 455.5,-235.2"/>
<text text-anchor="start" x="458.5" y="-242.9" font-family="Helvetica,sans-Serif" font-size="11.00" fill="#000000">text[2147483647]</text>
<polygon fill="none" stroke="#000000" points="167.5,-213.2 167.5,-235.2 455.5,-235.2 455.5,-213.2 167.5,-213.2"/>
<image xlink:href="../../images/foreignKeys.png" width="11px" height="12px" preserveAspectRatio="xMinYMin meet" x="172.5" y="-230.2"/>
<text text-anchor="start" x="187.5" y="-220.3" font-family="Helvetica,sans-Serif" font-size="11.00" fill="#000000">sisaltava_opiskeluoikeus_oid</text>
<polygon fill="none" stroke="#000000" points="455.5,-213.2 455.5,-235.2 554.5,-235.2 554.5,-213.2 455.5,-213.2"/>
<text text-anchor="start" x="458.5" y="-220.9" font-family="Helvetica,sans-Serif" font-size="11.00" fill="#000000">text[2147483647]</text>
<polygon fill="#ffffff" stroke="transparent" points="167.5,-191.2 167.5,-213.2 455.5,-213.2 455.5,-191.2 167.5,-191.2"/>
<polygon fill="none" stroke="#000000" points="167.5,-191.2 167.5,-213.2 455.5,-213.2 455.5,-191.2 167.5,-191.2"/>
<text text-anchor="start" x="187.5" y="-198.3" font-family="Helvetica,sans-Serif" font-size="11.00" fill="#000000">mitatoity</text>
<polygon fill="none" stroke="#000000" points="455.5,-191.2 455.5,-213.2 554.5,-213.2 554.5,-191.2 455.5,-191.2"/>
<text text-anchor="start" x="458.5" y="-198.9" font-family="Helvetica,sans-Serif" font-size="11.00" fill="#000000">bool[1]</text>
<polygon fill="#ffffff" stroke="transparent" points="167.5,-169.2 167.5,-191.2 455.5,-191.2 455.5,-169.2 167.5,-169.2"/>
<polygon fill="none" stroke="#000000" points="167.5,-169.2 167.5,-191.2 455.5,-191.2 455.5,-169.2 167.5,-169.2"/>
<text text-anchor="start" x="187.5" y="-176.3" font-family="Helvetica,sans-Serif" font-size="11.00" fill="#000000">koulutusmuoto</text>
<polygon fill="none" stroke="#000000" points="455.5,-169.2 455.5,-191.2 554.5,-191.2 554.5,-169.2 455.5,-169.2"/>
<text text-anchor="start" x="458.5" y="-176.9" font-family="Helvetica,sans-Serif" font-size="11.00" fill="#000000">text[2147483647]</text>
<polygon fill="#ffffff" stroke="transparent" points="167.5,-147.2 167.5,-169.2 455.5,-169.2 455.5,-147.2 167.5,-147.2"/>
<polygon fill="none" stroke="#000000" points="167.5,-147.2 167.5,-169.2 455.5,-169.2 455.5,-147.2 167.5,-147.2"/>
<text text-anchor="start" x="187.5" y="-154.3" font-family="Helvetica,sans-Serif" font-size="11.00" fill="#000000">alkamispaiva</text>
<polygon fill="none" stroke="#000000" points="455.5,-147.2 455.5,-169.2 554.5,-169.2 554.5,-147.2 455.5,-147.2"/>
<text text-anchor="start" x="458.5" y="-154.9" font-family="Helvetica,sans-Serif" font-size="11.00" fill="#000000">date[13]</text>
<polygon fill="#ffffff" stroke="transparent" points="167.5,-125.2 167.5,-147.2 455.5,-147.2 455.5,-125.2 167.5,-125.2"/>
<polygon fill="none" stroke="#000000" points="167.5,-125.2 167.5,-147.2 455.5,-147.2 455.5,-125.2 167.5,-125.2"/>
<text text-anchor="start" x="187.5" y="-132.3" font-family="Helvetica,sans-Serif" font-size="11.00" fill="#000000">paattymispaiva</text>
<polygon fill="none" stroke="#000000" points="455.5,-125.2 455.5,-147.2 554.5,-147.2 554.5,-125.2 455.5,-125.2"/>
<text text-anchor="start" x="458.5" y="-132.9" font-family="Helvetica,sans-Serif" font-size="11.00" fill="#000000">date[13]</text>
<polygon fill="none" stroke="#000000" points="167.5,-103.2 167.5,-125.2 455.5,-125.2 455.5,-103.2 167.5,-103.2"/>
<text text-anchor="start" x="187.5" y="-110.3" font-family="Helvetica,sans-Serif" font-size="11.00" fill="#000000">suoritusjako_tehty_rajapaivan_jalkeen</text>
<polygon fill="none" stroke="#000000" points="455.5,-103.2 455.5,-125.2 554.5,-125.2 554.5,-103.2 455.5,-103.2"/>
<text text-anchor="start" x="458.5" y="-110.9" font-family="Helvetica,sans-Serif" font-size="11.00" fill="#000000">bool[1]</text>
<polygon fill="#ffffff" stroke="transparent" points="167.5,-81.2 167.5,-103.2 455.5,-103.2 455.5,-81.2 167.5,-81.2"/>
<polygon fill="none" stroke="#000000" points="167.5,-81.2 167.5,-103.2 455.5,-103.2 455.5,-81.2 167.5,-81.2"/>
<text text-anchor="start" x="187.5" y="-88.3" font-family="Helvetica,sans-Serif" font-size="11.00" fill="#000000">suoritustyypit</text>
<polygon fill="none" stroke="#000000" points="455.5,-81.2 455.5,-103.2 554.5,-103.2 554.5,-81.2 455.5,-81.2"/>
<text text-anchor="start" x="458.5" y="-88.9" font-family="Helvetica,sans-Serif" font-size="11.00" fill="#000000">_text[2147483647]</text>
<polygon fill="#ffffff" stroke="transparent" points="167.5,-59.2 167.5,-81.2 455.5,-81.2 455.5,-59.2 167.5,-59.2"/>
<polygon fill="none" stroke="#000000" points="167.5,-59.2 167.5,-81.2 455.5,-81.2 455.5,-59.2 167.5,-59.2"/>
<text text-anchor="start" x="187.5" y="-66.3" font-family="Helvetica,sans-Serif" font-size="11.00" fill="#000000">poistettu</text>
<polygon fill="none" stroke="#000000" points="455.5,-59.2 455.5,-81.2 554.5,-81.2 554.5,-59.2 455.5,-59.2"/>
<text text-anchor="start" x="458.5" y="-66.9" font-family="Helvetica,sans-Serif" font-size="11.00" fill="#000000">bool[1]</text>
<polygon fill="#ffffff" stroke="transparent" points="167.5,-40.2 167.5,-59.2 302.5,-59.2 302.5,-40.2 167.5,-40.2"/>
<polygon fill="none" stroke="#000000" points="167.5,-40.2 167.5,-59.2 302.5,-59.2 302.5,-40.2 167.5,-40.2"/>
<text text-anchor="start" x="170.5" y="-46.3" font-family="Helvetica,sans-Serif" font-size="11.00" fill="#000000">&lt; 2</text>
<polygon fill="#ffffff" stroke="transparent" points="302.5,-40.2 302.5,-59.2 455.5,-59.2 455.5,-40.2 302.5,-40.2"/>
<polygon fill="none" stroke="#000000" points="302.5,-40.2 302.5,-59.2 455.5,-59.2 455.5,-40.2 302.5,-40.2"/>
<text text-anchor="start" x="420.1105" y="-46.3" font-family="Helvetica,sans-Serif" font-size="11.00" fill="#000000">0 rows</text>
<polygon fill="#ffffff" stroke="transparent" points="455.5,-40.2 455.5,-59.2 554.5,-59.2 554.5,-40.2 455.5,-40.2"/>
<polygon fill="none" stroke="#000000" points="455.5,-40.2 455.5,-59.2 554.5,-59.2 554.5,-40.2 455.5,-40.2"/>
<text text-anchor="start" x="535.9053" y="-46.3" font-family="Helvetica,sans-Serif" font-size="11.00" fill="#000000">2 &gt;</text>
<polygon fill="none" stroke="#000000" stroke-width="2" points="166,-39.2 166,-479.2 555,-479.2 555,-39.2 166,-39.2"/>
</a>
</g>
</g>
<!-- ytr_opiskeluoikeus&#45;&gt;henkilo -->
<g id="edge2" class="edge">
<title>ytr_opiskeluoikeus:w&#45;&gt;henkilo:e</title>
<path fill="none" stroke="#000000" d="M157.0347,-402.4648C132.9297,-414.7864 151.518,-473.2 116,-473.2"/>
<polygon fill="#000000" stroke="#000000" points="165.872,-396.4597 167.5642,-404.2787 166.0004,-404.6172 164.3082,-396.7981 165.872,-396.4597"/>
<polyline fill="none" stroke="#000000" points="167.5,-400.2 163.5905,-401.0461 "/>
<ellipse fill="none" stroke="#000000" cx="160.4629" cy="-401.7229" rx="3.2" ry="3.2"/>
</g>
<!-- ytr_opiskeluoikeus&#45;&gt;ytr_opiskeluoikeus -->
<g id="edge3" class="edge">
<title>ytr_opiskeluoikeus:w&#45;&gt;ytr_opiskeluoikeus:e</title>
<path fill="none" stroke="#000000" d="M158.1263,-235.2952C93.5176,-320.1808 104.7773,-497.2 361,-497.2 629,-497.2 629,-325.5333 554.5,-246.2"/>
<polygon fill="#000000" stroke="#000000" points="162.3371,-230.3111 170.25,-226.5233 164.9186,-227.2555 167.5,-224.2 167.5,-224.2 167.5,-224.2 164.9186,-227.2555 164.75,-221.8767 162.3371,-230.3111 162.3371,-230.3111"/>
<ellipse fill="none" stroke="#000000" cx="160.272" cy="-232.7555" rx="3.2" ry="3.2"/>
</g>
<!-- ytr_opiskeluoikeushistoria -->
<g id="node4" class="node">
<title>ytr_opiskeluoikeushistoria</title>
<g id="a_node4"><a xlink:href="../../tables/ytr_opiskeluoikeushistoria.html" xlink:title="ytr_opiskeluoikeushistoria" target="_top">
<polygon fill="#ffffff" stroke="transparent" points="605,-373.7 605,-478.7 822,-478.7 822,-373.7 605,-373.7"/>
<polygon fill="#f5f5f5" stroke="transparent" points="605.5,-455.2 605.5,-478.2 822.5,-478.2 822.5,-455.2 605.5,-455.2"/>
<polygon fill="none" stroke="#000000" points="605.5,-455.2 605.5,-478.2 822.5,-478.2 822.5,-455.2 605.5,-455.2"/>
<text text-anchor="start" x="610.5" y="-463.8" font-family="Helvetica,sans-Serif" font-weight="bold" font-size="11.00" fill="#000000">ytr_opiskeluoikeushistoria</text>
<text text-anchor="start" x="788.0219" y="-463.3" font-family="Helvetica,sans-Serif" font-size="11.00" fill="#000000">[table]</text>
<polygon fill="none" stroke="#000000" points="605.5,-433.2 605.5,-455.2 822.5,-455.2 822.5,-433.2 605.5,-433.2"/>
<image xlink:href="../../images/primaryKeys.png" width="11px" height="12px" preserveAspectRatio="xMinYMin meet" x="610.5" y="-450.2"/>
<text text-anchor="start" x="634.5" y="-440.3" font-family="Helvetica,sans-Serif" font-size="11.00" fill="#000000">opiskeluoikeus_id</text>
<polygon fill="none" stroke="#000000" points="605.5,-411.2 605.5,-433.2 822.5,-433.2 822.5,-411.2 605.5,-411.2"/>
<image xlink:href="../../images/primaryKeys.png" width="11px" height="12px" preserveAspectRatio="xMinYMin meet" x="610.5" y="-428.2"/>
<text text-anchor="start" x="634.5" y="-418.3" font-family="Helvetica,sans-Serif" font-size="11.00" fill="#000000">versionumero</text>
<polygon fill="none" stroke="#000000" points="605.5,-392.2 605.5,-411.2 822.5,-411.2 822.5,-392.2 605.5,-392.2"/>
<text text-anchor="start" x="608.5" y="-398.3" font-family="Helvetica,sans-Serif" font-size="11.00" fill="#000000">...</text>
<polygon fill="#ffffff" stroke="transparent" points="605.5,-373.2 605.5,-392.2 699.5,-392.2 699.5,-373.2 605.5,-373.2"/>
<polygon fill="none" stroke="#000000" points="605.5,-373.2 605.5,-392.2 699.5,-392.2 699.5,-373.2 605.5,-373.2"/>
<text text-anchor="start" x="608.5" y="-379.3" font-family="Helvetica,sans-Serif" font-size="11.00" fill="#000000">&lt; 1</text>
<polygon fill="#ffffff" stroke="transparent" points="699.5,-373.2 699.5,-392.2 773.5,-392.2 773.5,-373.2 699.5,-373.2"/>
<polygon fill="none" stroke="#000000" points="699.5,-373.2 699.5,-392.2 773.5,-392.2 773.5,-373.2 699.5,-373.2"/>
<text text-anchor="start" x="738.1105" y="-379.3" font-family="Helvetica,sans-Serif" font-size="11.00" fill="#000000">0 rows</text>
<polygon fill="#ffffff" stroke="transparent" points="773.5,-373.2 773.5,-392.2 822.5,-392.2 822.5,-373.2 773.5,-373.2"/>
<polygon fill="none" stroke="#000000" points="773.5,-373.2 773.5,-392.2 822.5,-392.2 822.5,-373.2 773.5,-373.2"/>
<text text-anchor="start" x="813.3862" y="-379.3" font-family="Helvetica,sans-Serif" font-size="11.00" fill="#000000"> &#160;</text>
</a>
</g>
</g>
<!-- ytr_opiskeluoikeushistoria&#45;&gt;ytr_opiskeluoikeus -->
<g id="edge4" class="edge">
<title>ytr_opiskeluoikeushistoria:w&#45;&gt;ytr_opiskeluoikeus:e</title>
<path fill="none" stroke="#000000" d="M590.776,-444.2C578.7815,-444.2 571.3229,-444.2 554.5,-444.2"/>
<polygon fill="#000000" stroke="#000000" points="597.5,-444.2001 605.5,-447.8 601.5,-444.2 605.5,-444.2 605.5,-444.2 605.5,-444.2 601.5,-444.2 605.5,-440.6 597.5,-444.2001 597.5,-444.2001"/>
<ellipse fill="none" stroke="#000000" cx="594.3" cy="-444.2001" rx="3.2" ry="3.2"/>
</g>
</g>
</svg>
