<?xml version="1.0" encoding="UTF-8" standalone="no"?>
<!DOCTYPE svg PUBLIC "-//W3C//DTD SVG 1.1//EN"
 "http://www.w3.org/Graphics/SVG/1.1/DTD/svg11.dtd">
<!-- Generated by graphviz version 2.40.1 (20161225.0304)
 -->
<!-- Title: twoDegreesRelationshipsDiagram Pages: 1 -->
<svg width="764pt" height="593pt"
 viewBox="0.00 0.00 764.00 592.70" xmlns="http://www.w3.org/2000/svg" xmlns:xlink="http://www.w3.org/1999/xlink">
<g id="graph0" class="graph" transform="scale(1 1) rotate(0) translate(4 588.7)">
<title>twoDegreesRelationshipsDiagram</title>
<polygon fill="#ffffff" stroke="transparent" points="-4,4 -4,-588.7 760,-588.7 760,4 -4,4"/>
<text text-anchor="middle" x="72.4936" y="-7.3" font-family="Helvetica,sans-Serif" font-size="11.00" fill="#000000">Generated by SchemaSpy</text>
<!-- opiskeluoikeus -->
<g id="node1" class="node">
<title>opiskeluoikeus</title>
<g id="a_node1"><a xlink:href="../../tables/opiskeluoikeus.html" xlink:title="opiskeluoikeus" target="_top">
<polygon fill="#ffffff" stroke="transparent" points="267.5,-519.7 267.5,-580.7 392.5,-580.7 392.5,-519.7 267.5,-519.7"/>
<polygon fill="#f5f5f5" stroke="transparent" points="268,-557.2 268,-580.2 393,-580.2 393,-557.2 268,-557.2"/>
<polygon fill="none" stroke="#000000" points="268,-557.2 268,-580.2 393,-580.2 393,-557.2 268,-557.2"/>
<text text-anchor="start" x="273" y="-565.8" font-family="Helvetica,sans-Serif" font-weight="bold" font-size="11.00" fill="#000000">opiskeluoikeus</text>
<text text-anchor="start" x="358.5219" y="-565.3" font-family="Helvetica,sans-Serif" font-size="11.00" fill="#000000">[table]</text>
<polygon fill="none" stroke="#000000" points="268,-538.2 268,-557.2 393,-557.2 393,-538.2 268,-538.2"/>
<text text-anchor="start" x="271" y="-544.3" font-family="Helvetica,sans-Serif" font-size="11.00" fill="#000000">...</text>
<polygon fill="#ffffff" stroke="transparent" points="268,-519.2 268,-538.2 305,-538.2 305,-519.2 268,-519.2"/>
<polygon fill="none" stroke="#000000" points="268,-519.2 268,-538.2 305,-538.2 305,-519.2 268,-519.2"/>
<text text-anchor="start" x="271" y="-525.3" font-family="Helvetica,sans-Serif" font-size="11.00" fill="#000000">&lt; 2</text>
<polygon fill="#ffffff" stroke="transparent" points="305,-519.2 305,-538.2 363,-538.2 363,-519.2 305,-519.2"/>
<polygon fill="none" stroke="#000000" points="305,-519.2 305,-538.2 363,-538.2 363,-519.2 305,-519.2"/>
<text text-anchor="start" x="315.3807" y="-525.3" font-family="Helvetica,sans-Serif" font-size="11.00" fill="#000000">242 rows</text>
<polygon fill="#ffffff" stroke="transparent" points="363,-519.2 363,-538.2 393,-538.2 393,-519.2 363,-519.2"/>
<polygon fill="none" stroke="#000000" points="363,-519.2 363,-538.2 393,-538.2 393,-519.2 363,-519.2"/>
<text text-anchor="start" x="374.4053" y="-525.3" font-family="Helvetica,sans-Serif" font-size="11.00" fill="#000000">4 &gt;</text>
</a>
</g>
</g>
<!-- henkilo -->
<g id="node2" class="node">
<title>henkilo</title>
<g id="a_node2"><a xlink:href="../../tables/henkilo.html" xlink:title="henkilo" target="_top">
<polygon fill="#ffffff" stroke="transparent" points="8,-402.7 8,-507.7 103,-507.7 103,-402.7 8,-402.7"/>
<polygon fill="#f5f5f5" stroke="transparent" points="8.5,-484.2 8.5,-507.2 103.5,-507.2 103.5,-484.2 8.5,-484.2"/>
<polygon fill="none" stroke="#000000" points="8.5,-484.2 8.5,-507.2 103.5,-507.2 103.5,-484.2 8.5,-484.2"/>
<text text-anchor="start" x="13.5" y="-492.8" font-family="Helvetica,sans-Serif" font-weight="bold" font-size="11.00" fill="#000000">henkilo</text>
<text text-anchor="start" x="68.5437" y="-492.3" font-family="Helvetica,sans-Serif" font-size="11.00" fill="#000000">[table]</text>
<polygon fill="none" stroke="#000000" points="8.5,-462.2 8.5,-484.2 103.5,-484.2 103.5,-462.2 8.5,-462.2"/>
<image xlink:href="../../images/primaryKeys.png" width="11px" height="12px" preserveAspectRatio="xMinYMin meet" x="13.5" y="-479.2"/>
<text text-anchor="start" x="28.5" y="-469.3" font-family="Helvetica,sans-Serif" font-size="11.00" fill="#000000">oid</text>
<polygon fill="#ffffff" stroke="transparent" points="8.5,-440.2 8.5,-462.2 103.5,-462.2 103.5,-440.2 8.5,-440.2"/>
<polygon fill="none" stroke="#000000" points="8.5,-440.2 8.5,-462.2 103.5,-462.2 103.5,-440.2 8.5,-440.2"/>
<image xlink:href="../../images/foreignKeys.png" width="11px" height="12px" preserveAspectRatio="xMinYMin meet" x="13.5" y="-457.2"/>
<text text-anchor="start" x="28.5" y="-447.3" font-family="Helvetica,sans-Serif" font-size="11.00" fill="#000000">master_oid</text>
<polygon fill="none" stroke="#000000" points="8.5,-421.2 8.5,-440.2 103.5,-440.2 103.5,-421.2 8.5,-421.2"/>
<text text-anchor="start" x="11.5" y="-427.3" font-family="Helvetica,sans-Serif" font-size="11.00" fill="#000000">...</text>
<polygon fill="#ffffff" stroke="transparent" points="8.5,-402.2 8.5,-421.2 30.5,-421.2 30.5,-402.2 8.5,-402.2"/>
<polygon fill="none" stroke="#000000" points="8.5,-402.2 8.5,-421.2 30.5,-421.2 30.5,-402.2 8.5,-402.2"/>
<text text-anchor="start" x="11.5" y="-408.3" font-family="Helvetica,sans-Serif" font-size="11.00" fill="#000000">&lt; 1</text>
<polygon fill="#ffffff" stroke="transparent" points="30.5,-402.2 30.5,-421.2 81.5,-421.2 81.5,-402.2 30.5,-402.2"/>
<polygon fill="none" stroke="#000000" points="30.5,-402.2 30.5,-421.2 81.5,-421.2 81.5,-402.2 30.5,-402.2"/>
<text text-anchor="start" x="33.8807" y="-408.3" font-family="Helvetica,sans-Serif" font-size="11.00" fill="#000000">186 rows</text>
<polygon fill="#ffffff" stroke="transparent" points="81.5,-402.2 81.5,-421.2 103.5,-421.2 103.5,-402.2 81.5,-402.2"/>
<polygon fill="none" stroke="#000000" points="81.5,-402.2 81.5,-421.2 103.5,-421.2 103.5,-402.2 81.5,-402.2"/>
<text text-anchor="start" x="84.9053" y="-408.3" font-family="Helvetica,sans-Serif" font-size="11.00" fill="#000000">3 &gt;</text>
</a>
</g>
</g>
<!-- opiskeluoikeus&#45;&gt;henkilo -->
<g id="edge1" class="edge">
<title>opiskeluoikeus:w&#45;&gt;henkilo:e</title>
<path fill="none" stroke="#000000" d="M257.3519,-547.076C208.1407,-545.8651 191.0105,-535.6196 144,-509.2 123.0051,-497.401 127.5832,-473.2 103.5,-473.2"/>
<polygon fill="#000000" stroke="#000000" points="267.2467,-543.191 267.1534,-551.1904 265.5536,-551.1718 265.6468,-543.1723 267.2467,-543.191"/>
<polyline fill="none" stroke="#000000" points="268,-547.2 264.0003,-547.1534 "/>
<ellipse fill="none" stroke="#000000" cx="260.8005" cy="-547.1161" rx="3.2" ry="3.2"/>
</g>
<!-- ytr_opiskeluoikeus -->
<g id="node3" class="node">
<title>ytr_opiskeluoikeus</title>
<g id="a_node3"><a xlink:href="../../tables/ytr_opiskeluoikeus.html" xlink:title="ytr_opiskeluoikeus" target="_top">
<polygon fill="#ffffff" stroke="transparent" points="152,-38.2 152,-480.2 508,-480.2 508,-38.2 152,-38.2"/>
<polygon fill="#f5f5f5" stroke="transparent" points="154,-455.2 154,-478.2 506,-478.2 506,-455.2 154,-455.2"/>
<polygon fill="none" stroke="#000000" points="154,-455.2 154,-478.2 506,-478.2 506,-455.2 154,-455.2"/>
<text text-anchor="start" x="159" y="-463.8" font-family="Helvetica,sans-Serif" font-weight="bold" font-size="11.00" fill="#000000">ytr_opiskeluoikeus</text>
<text text-anchor="start" x="471.0437" y="-463.3" font-family="Helvetica,sans-Serif" font-size="11.00" fill="#000000">[table]</text>
<polygon fill="none" stroke="#000000" points="154,-433.2 154,-455.2 407,-455.2 407,-433.2 154,-433.2"/>
<image xlink:href="../../images/primaryKeys.png" width="11px" height="12px" preserveAspectRatio="xMinYMin meet" x="159" y="-450.2"/>
<text text-anchor="start" x="174" y="-440.3" font-family="Helvetica,sans-Serif" font-size="11.00" fill="#000000">id</text>
<polygon fill="none" stroke="#000000" points="407,-433.2 407,-455.2 506,-455.2 506,-433.2 407,-433.2"/>
<text text-anchor="start" x="410" y="-440.9" font-family="Helvetica,sans-Serif" font-size="11.00" fill="#000000">serial[10]</text>
<polygon fill="none" stroke="#000000" points="154,-411.2 154,-433.2 407,-433.2 407,-411.2 154,-411.2"/>
<text text-anchor="start" x="174" y="-418.3" font-family="Helvetica,sans-Serif" font-size="11.00" fill="#000000">data</text>
<polygon fill="none" stroke="#000000" points="407,-411.2 407,-433.2 506,-433.2 506,-411.2 407,-411.2"/>
<text text-anchor="start" x="409.7258" y="-418.9" font-family="Helvetica,sans-Serif" font-size="11.00" fill="#000000">jsonb[2147483647]</text>
<polygon fill="#ffffff" stroke="transparent" points="154,-389.2 154,-411.2 407,-411.2 407,-389.2 154,-389.2"/>
<polygon fill="none" stroke="#000000" points="154,-389.2 154,-411.2 407,-411.2 407,-389.2 154,-389.2"/>
<image xlink:href="../../images/foreignKeys.png" width="11px" height="12px" preserveAspectRatio="xMinYMin meet" x="159" y="-406.2"/>
<text text-anchor="start" x="174" y="-396.3" font-family="Helvetica,sans-Serif" font-size="11.00" fill="#000000">oppija_oid</text>
<polygon fill="none" stroke="#000000" points="407,-389.2 407,-411.2 506,-411.2 506,-389.2 407,-389.2"/>
<text text-anchor="start" x="410" y="-396.9" font-family="Helvetica,sans-Serif" font-size="11.00" fill="#000000">text[2147483647]</text>
<polygon fill="#ffffff" stroke="transparent" points="154,-367.2 154,-389.2 407,-389.2 407,-367.2 154,-367.2"/>
<polygon fill="none" stroke="#000000" points="154,-367.2 154,-389.2 407,-389.2 407,-367.2 154,-367.2"/>
<text text-anchor="start" x="174" y="-374.3" font-family="Helvetica,sans-Serif" font-size="11.00" fill="#000000">aikaleima</text>
<polygon fill="none" stroke="#000000" points="407,-367.2 407,-389.2 506,-389.2 506,-367.2 407,-367.2"/>
<text text-anchor="start" x="410" y="-374.9" font-family="Helvetica,sans-Serif" font-size="11.00" fill="#000000">timestamptz[35,6]</text>
<polygon fill="none" stroke="#000000" points="154,-345.2 154,-367.2 407,-367.2 407,-345.2 154,-345.2"/>
<text text-anchor="start" x="174" y="-352.3" font-family="Helvetica,sans-Serif" font-size="11.00" fill="#000000">versionumero</text>
<polygon fill="none" stroke="#000000" points="407,-345.2 407,-367.2 506,-367.2 506,-345.2 407,-345.2"/>
<text text-anchor="start" x="410" y="-352.9" font-family="Helvetica,sans-Serif" font-size="11.00" fill="#000000">int4[10]</text>
<polygon fill="#ffffff" stroke="transparent" points="154,-323.2 154,-345.2 407,-345.2 407,-323.2 154,-323.2"/>
<polygon fill="none" stroke="#000000" points="154,-323.2 154,-345.2 407,-345.2 407,-323.2 154,-323.2"/>
<text text-anchor="start" x="174" y="-330.3" font-family="Helvetica,sans-Serif" font-size="11.00" fill="#000000">oppilaitos_oid</text>
<polygon fill="none" stroke="#000000" points="407,-323.2 407,-345.2 506,-345.2 506,-323.2 407,-323.2"/>
<text text-anchor="start" x="410" y="-330.9" font-family="Helvetica,sans-Serif" font-size="11.00" fill="#000000">text[2147483647]</text>
<polygon fill="none" stroke="#000000" points="154,-301.2 154,-323.2 407,-323.2 407,-301.2 154,-301.2"/>
<text text-anchor="start" x="174" y="-308.3" font-family="Helvetica,sans-Serif" font-size="11.00" fill="#000000">koulutustoimija_oid</text>
<polygon fill="none" stroke="#000000" points="407,-301.2 407,-323.2 506,-323.2 506,-301.2 407,-301.2"/>
<text text-anchor="start" x="410" y="-308.9" font-family="Helvetica,sans-Serif" font-size="11.00" fill="#000000">text[2147483647]</text>
<polygon fill="none" stroke="#000000" points="154,-279.2 154,-301.2 407,-301.2 407,-279.2 154,-279.2"/>
<text text-anchor="start" x="174" y="-286.3" font-family="Helvetica,sans-Serif" font-size="11.00" fill="#000000">luokka</text>
<polygon fill="none" stroke="#000000" points="407,-279.2 407,-301.2 506,-301.2 506,-279.2 407,-279.2"/>
<text text-anchor="start" x="410" y="-286.9" font-family="Helvetica,sans-Serif" font-size="11.00" fill="#000000">text[2147483647]</text>
<polygon fill="#ffffff" stroke="transparent" points="154,-257.2 154,-279.2 407,-279.2 407,-257.2 154,-257.2"/>
<polygon fill="none" stroke="#000000" points="154,-257.2 154,-279.2 407,-279.2 407,-257.2 154,-257.2"/>
<text text-anchor="start" x="174" y="-264.3" font-family="Helvetica,sans-Serif" font-size="11.00" fill="#000000">sisaltava_opiskeluoikeus_oppilaitos_oid</text>
<polygon fill="none" stroke="#000000" points="407,-257.2 407,-279.2 506,-279.2 506,-257.2 407,-257.2"/>
<text text-anchor="start" x="410" y="-264.9" font-family="Helvetica,sans-Serif" font-size="11.00" fill="#000000">text[2147483647]</text>
<polygon fill="#ffffff" stroke="transparent" points="154,-235.2 154,-257.2 407,-257.2 407,-235.2 154,-235.2"/>
<polygon fill="none" stroke="#000000" points="154,-235.2 154,-257.2 407,-257.2 407,-235.2 154,-235.2"/>
<text text-anchor="start" x="174" y="-242.3" font-family="Helvetica,sans-Serif" font-size="11.00" fill="#000000">oid</text>
<polygon fill="none" stroke="#000000" points="407,-235.2 407,-257.2 506,-257.2 506,-235.2 407,-235.2"/>
<text text-anchor="start" x="410" y="-242.9" font-family="Helvetica,sans-Serif" font-size="11.00" fill="#000000">text[2147483647]</text>
<polygon fill="none" stroke="#000000" points="154,-213.2 154,-235.2 407,-235.2 407,-213.2 154,-213.2"/>
<image xlink:href="../../images/foreignKeys.png" width="11px" height="12px" preserveAspectRatio="xMinYMin meet" x="159" y="-230.2"/>
<text text-anchor="start" x="174" y="-220.3" font-family="Helvetica,sans-Serif" font-size="11.00" fill="#000000">sisaltava_opiskeluoikeus_oid</text>
<polygon fill="none" stroke="#000000" points="407,-213.2 407,-235.2 506,-235.2 506,-213.2 407,-213.2"/>
<text text-anchor="start" x="410" y="-220.9" font-family="Helvetica,sans-Serif" font-size="11.00" fill="#000000">text[2147483647]</text>
<polygon fill="#ffffff" stroke="transparent" points="154,-191.2 154,-213.2 407,-213.2 407,-191.2 154,-191.2"/>
<polygon fill="none" stroke="#000000" points="154,-191.2 154,-213.2 407,-213.2 407,-191.2 154,-191.2"/>
<text text-anchor="start" x="174" y="-198.3" font-family="Helvetica,sans-Serif" font-size="11.00" fill="#000000">mitatoity</text>
<polygon fill="none" stroke="#000000" points="407,-191.2 407,-213.2 506,-213.2 506,-191.2 407,-191.2"/>
<text text-anchor="start" x="410" y="-198.9" font-family="Helvetica,sans-Serif" font-size="11.00" fill="#000000">bool[1]</text>
<polygon fill="#ffffff" stroke="transparent" points="154,-169.2 154,-191.2 407,-191.2 407,-169.2 154,-169.2"/>
<polygon fill="none" stroke="#000000" points="154,-169.2 154,-191.2 407,-191.2 407,-169.2 154,-169.2"/>
<text text-anchor="start" x="174" y="-176.3" font-family="Helvetica,sans-Serif" font-size="11.00" fill="#000000">koulutusmuoto</text>
<polygon fill="none" stroke="#000000" points="407,-169.2 407,-191.2 506,-191.2 506,-169.2 407,-169.2"/>
<text text-anchor="start" x="410" y="-176.9" font-family="Helvetica,sans-Serif" font-size="11.00" fill="#000000">text[2147483647]</text>
<polygon fill="#ffffff" stroke="transparent" points="154,-147.2 154,-169.2 407,-169.2 407,-147.2 154,-147.2"/>
<polygon fill="none" stroke="#000000" points="154,-147.2 154,-169.2 407,-169.2 407,-147.2 154,-147.2"/>
<text text-anchor="start" x="174" y="-154.3" font-family="Helvetica,sans-Serif" font-size="11.00" fill="#000000">alkamispaiva</text>
<polygon fill="none" stroke="#000000" points="407,-147.2 407,-169.2 506,-169.2 506,-147.2 407,-147.2"/>
<text text-anchor="start" x="410" y="-154.9" font-family="Helvetica,sans-Serif" font-size="11.00" fill="#000000">date[13]</text>
<polygon fill="#ffffff" stroke="transparent" points="154,-125.2 154,-147.2 407,-147.2 407,-125.2 154,-125.2"/>
<polygon fill="none" stroke="#000000" points="154,-125.2 154,-147.2 407,-147.2 407,-125.2 154,-125.2"/>
<text text-anchor="start" x="174" y="-132.3" font-family="Helvetica,sans-Serif" font-size="11.00" fill="#000000">paattymispaiva</text>
<polygon fill="none" stroke="#000000" points="407,-125.2 407,-147.2 506,-147.2 506,-125.2 407,-125.2"/>
<text text-anchor="start" x="410" y="-132.9" font-family="Helvetica,sans-Serif" font-size="11.00" fill="#000000">date[13]</text>
<polygon fill="none" stroke="#000000" points="154,-103.2 154,-125.2 407,-125.2 407,-103.2 154,-103.2"/>
<text text-anchor="start" x="174" y="-110.3" font-family="Helvetica,sans-Serif" font-size="11.00" fill="#000000">suoritusjako_tehty_rajapaivan_jalkeen</text>
<polygon fill="none" stroke="#000000" points="407,-103.2 407,-125.2 506,-125.2 506,-103.2 407,-103.2"/>
<text text-anchor="start" x="410" y="-110.9" font-family="Helvetica,sans-Serif" font-size="11.00" fill="#000000">bool[1]</text>
<polygon fill="#ffffff" stroke="transparent" points="154,-81.2 154,-103.2 407,-103.2 407,-81.2 154,-81.2"/>
<polygon fill="none" stroke="#000000" points="154,-81.2 154,-103.2 407,-103.2 407,-81.2 154,-81.2"/>
<text text-anchor="start" x="174" y="-88.3" font-family="Helvetica,sans-Serif" font-size="11.00" fill="#000000">suoritustyypit</text>
<polygon fill="none" stroke="#000000" points="407,-81.2 407,-103.2 506,-103.2 506,-81.2 407,-81.2"/>
<text text-anchor="start" x="410" y="-88.9" font-family="Helvetica,sans-Serif" font-size="11.00" fill="#000000">_text[2147483647]</text>
<polygon fill="#ffffff" stroke="transparent" points="154,-59.2 154,-81.2 407,-81.2 407,-59.2 154,-59.2"/>
<polygon fill="none" stroke="#000000" points="154,-59.2 154,-81.2 407,-81.2 407,-59.2 154,-59.2"/>
<text text-anchor="start" x="174" y="-66.3" font-family="Helvetica,sans-Serif" font-size="11.00" fill="#000000">poistettu</text>
<polygon fill="none" stroke="#000000" points="407,-59.2 407,-81.2 506,-81.2 506,-59.2 407,-59.2"/>
<text text-anchor="start" x="410" y="-66.9" font-family="Helvetica,sans-Serif" font-size="11.00" fill="#000000">bool[1]</text>
<polygon fill="#ffffff" stroke="transparent" points="154,-40.2 154,-59.2 272,-59.2 272,-40.2 154,-40.2"/>
<polygon fill="none" stroke="#000000" points="154,-40.2 154,-59.2 272,-59.2 272,-40.2 154,-40.2"/>
<text text-anchor="start" x="157" y="-46.3" font-family="Helvetica,sans-Serif" font-size="11.00" fill="#000000">&lt; 2</text>
<polygon fill="#ffffff" stroke="transparent" points="272,-40.2 272,-59.2 407,-59.2 407,-40.2 272,-40.2"/>
<polygon fill="none" stroke="#000000" points="272,-40.2 272,-59.2 407,-59.2 407,-40.2 272,-40.2"/>
<text text-anchor="start" x="371.6105" y="-46.3" font-family="Helvetica,sans-Serif" font-size="11.00" fill="#000000">6 rows</text>
<polygon fill="#ffffff" stroke="transparent" points="407,-40.2 407,-59.2 506,-59.2 506,-40.2 407,-40.2"/>
<polygon fill="none" stroke="#000000" points="407,-40.2 407,-59.2 506,-59.2 506,-40.2 407,-40.2"/>
<text text-anchor="start" x="487.4053" y="-46.3" font-family="Helvetica,sans-Serif" font-size="11.00" fill="#000000">2 &gt;</text>
<polygon fill="none" stroke="#000000" stroke-width="2" points="153,-39.2 153,-479.2 507,-479.2 507,-39.2 153,-39.2"/>
</a>
</g>
</g>
<!-- ytr_opiskeluoikeus&#45;&gt;henkilo -->
<g id="edge2" class="edge">
<title>ytr_opiskeluoikeus:w&#45;&gt;henkilo:e</title>
<path fill="none" stroke="#000000" d="M143.6225,-402.4648C119.7852,-414.7864 138.7903,-473.2 103.5,-473.2"/>
<polygon fill="#000000" stroke="#000000" points="152.3655,-396.4626 154.0713,-404.2786 152.5081,-404.6198 150.8023,-396.8037 152.3655,-396.4626"/>
<polyline fill="none" stroke="#000000" points="154,-400.2 150.092,-401.0529 "/>
<ellipse fill="none" stroke="#000000" cx="146.9656" cy="-401.7353" rx="3.2" ry="3.2"/>
</g>
<!-- ytr_opiskeluoikeus&#45;&gt;ytr_opiskeluoikeus -->
<g id="edge3" class="edge">
<title>ytr_opiskeluoikeus:w&#45;&gt;ytr_opiskeluoikeus:e</title>
<path fill="none" stroke="#000000" d="M145.0178,-235.8166C86.0151,-320.9033 96.7222,-497.2 330,-497.2 574.5,-497.2 574.5,-325.5333 506,-246.2"/>
<polygon fill="#000000" stroke="#000000" points="149.1065,-230.5288 156.848,-226.4021 151.5532,-227.3644 154,-224.2 154,-224.2 154,-224.2 151.5532,-227.3644 151.152,-221.9979 149.1065,-230.5288 149.1065,-230.5288"/>
<ellipse fill="none" stroke="#000000" cx="147.149" cy="-233.0603" rx="3.2" ry="3.2"/>
</g>
<!-- ytr_opiskeluoikeushistoria -->
<g id="node4" class="node">
<title>ytr_opiskeluoikeushistoria</title>
<g id="a_node4"><a xlink:href="../../tables/ytr_opiskeluoikeushistoria.html" xlink:title="ytr_opiskeluoikeushistoria" target="_top">
<polygon fill="#ffffff" stroke="transparent" points="557,-373.7 557,-478.7 748,-478.7 748,-373.7 557,-373.7"/>
<polygon fill="#f5f5f5" stroke="transparent" points="557.5,-455.2 557.5,-478.2 748.5,-478.2 748.5,-455.2 557.5,-455.2"/>
<polygon fill="none" stroke="#000000" points="557.5,-455.2 557.5,-478.2 748.5,-478.2 748.5,-455.2 557.5,-455.2"/>
<text text-anchor="start" x="562.5" y="-463.8" font-family="Helvetica,sans-Serif" font-weight="bold" font-size="11.00" fill="#000000">ytr_opiskeluoikeushistoria</text>
<text text-anchor="start" x="714.0219" y="-463.3" font-family="Helvetica,sans-Serif" font-size="11.00" fill="#000000">[table]</text>
<polygon fill="none" stroke="#000000" points="557.5,-433.2 557.5,-455.2 748.5,-455.2 748.5,-433.2 557.5,-433.2"/>
<image xlink:href="../../images/primaryKeys.png" width="11px" height="12px" preserveAspectRatio="xMinYMin meet" x="562.5" y="-450.2"/>
<text text-anchor="start" x="586.5" y="-440.3" font-family="Helvetica,sans-Serif" font-size="11.00" fill="#000000">opiskeluoikeus_id</text>
<polygon fill="none" stroke="#000000" points="557.5,-411.2 557.5,-433.2 748.5,-433.2 748.5,-411.2 557.5,-411.2"/>
<image xlink:href="../../images/primaryKeys.png" width="11px" height="12px" preserveAspectRatio="xMinYMin meet" x="562.5" y="-428.2"/>
<text text-anchor="start" x="586.5" y="-418.3" font-family="Helvetica,sans-Serif" font-size="11.00" fill="#000000">versionumero</text>
<polygon fill="none" stroke="#000000" points="557.5,-392.2 557.5,-411.2 748.5,-411.2 748.5,-392.2 557.5,-392.2"/>
<text text-anchor="start" x="560.5" y="-398.3" font-family="Helvetica,sans-Serif" font-size="11.00" fill="#000000">...</text>
<polygon fill="#ffffff" stroke="transparent" points="557.5,-373.2 557.5,-392.2 638.5,-392.2 638.5,-373.2 557.5,-373.2"/>
<polygon fill="none" stroke="#000000" points="557.5,-373.2 557.5,-392.2 638.5,-392.2 638.5,-373.2 557.5,-373.2"/>
<text text-anchor="start" x="560.5" y="-379.3" font-family="Helvetica,sans-Serif" font-size="11.00" fill="#000000">&lt; 1</text>
<polygon fill="#ffffff" stroke="transparent" points="638.5,-373.2 638.5,-392.2 706.5,-392.2 706.5,-373.2 638.5,-373.2"/>
<polygon fill="none" stroke="#000000" points="638.5,-373.2 638.5,-392.2 706.5,-392.2 706.5,-373.2 638.5,-373.2"/>
<text text-anchor="start" x="671.1105" y="-379.3" font-family="Helvetica,sans-Serif" font-size="11.00" fill="#000000">6 rows</text>
<polygon fill="#ffffff" stroke="transparent" points="706.5,-373.2 706.5,-392.2 748.5,-392.2 748.5,-373.2 706.5,-373.2"/>
<polygon fill="none" stroke="#000000" points="706.5,-373.2 706.5,-392.2 748.5,-392.2 748.5,-373.2 706.5,-373.2"/>
<text text-anchor="start" x="739.3862" y="-379.3" font-family="Helvetica,sans-Serif" font-size="11.00" fill="#000000"> &#160;</text>
</a>
</g>
</g>
<!-- ytr_opiskeluoikeushistoria&#45;&gt;ytr_opiskeluoikeus -->
<g id="edge4" class="edge">
<title>ytr_opiskeluoikeushistoria:w&#45;&gt;ytr_opiskeluoikeus:e</title>
<path fill="none" stroke="#000000" d="M543.0156,-444.2C530.6771,-444.2 523.1667,-444.2 506,-444.2"/>
<polygon fill="#000000" stroke="#000000" points="549.5,-444.2001 557.5,-447.8 553.5,-444.2 557.5,-444.2 557.5,-444.2 557.5,-444.2 553.5,-444.2 557.5,-440.6 549.5,-444.2001 549.5,-444.2001"/>
<ellipse fill="none" stroke="#000000" cx="546.3" cy="-444.2001" rx="3.2" ry="3.2"/>
</g>
</g>
</svg>
