<?xml version="1.0" encoding="UTF-8" standalone="no"?>
<!DOCTYPE svg PUBLIC "-//W3C//DTD SVG 1.1//EN"
 "http://www.w3.org/Graphics/SVG/1.1/DTD/svg11.dtd">
<!-- Generated by graphviz version 2.40.1 (20161225.0304)
 -->
<!-- Title: twoDegreesRelationshipsDiagram Pages: 1 -->
<svg width="804pt" height="399pt"
 viewBox="0.00 0.00 804.00 398.70" xmlns="http://www.w3.org/2000/svg" xmlns:xlink="http://www.w3.org/1999/xlink">
<g id="graph0" class="graph" transform="scale(1 1) rotate(0) translate(4 394.7)">
<title>twoDegreesRelationshipsDiagram</title>
<polygon fill="#ffffff" stroke="transparent" points="-4,4 -4,-394.7 800,-394.7 800,4 -4,4"/>
<text text-anchor="middle" x="72.4936" y="-7.3" font-family="Helvetica,sans-Serif" font-size="11.00" fill="#000000">Generated by SchemaSpy</text>
<!-- ytr_opiskeluoikeus -->
<g id="node1" class="node">
<title>ytr_opiskeluoikeus</title>
<g id="a_node1"><a xlink:href="../../tables/ytr_opiskeluoikeus.html" xlink:title="ytr_opiskeluoikeus" target="_top">
<polygon fill="#ffffff" stroke="transparent" points="149,-38.2 149,-385.2 437,-385.2 437,-38.2 149,-38.2"/>
<polygon fill="#f5f5f5" stroke="transparent" points="149,-361.7 149,-384.7 437,-384.7 437,-361.7 149,-361.7"/>
<polygon fill="none" stroke="#000000" points="149,-361.7 149,-384.7 437,-384.7 437,-361.7 149,-361.7"/>
<text text-anchor="start" x="154" y="-370.3" font-family="Helvetica,sans-Serif" font-weight="bold" font-size="11.00" fill="#000000">ytr_opiskeluoikeus</text>
<text text-anchor="start" x="402.0437" y="-369.8" font-family="Helvetica,sans-Serif" font-size="11.00" fill="#000000">[table]</text>
<polygon fill="none" stroke="#000000" points="149,-339.7 149,-361.7 437,-361.7 437,-339.7 149,-339.7"/>
<image xlink:href="../../images/primaryKeys.png" width="11px" height="12px" preserveAspectRatio="xMinYMin meet" x="154" y="-356.7"/>
<text text-anchor="start" x="169" y="-346.8" font-family="Helvetica,sans-Serif" font-size="11.00" fill="#000000">id</text>
<polygon fill="#ffffff" stroke="transparent" points="149,-317.7 149,-339.7 437,-339.7 437,-317.7 149,-317.7"/>
<polygon fill="none" stroke="#000000" points="149,-317.7 149,-339.7 437,-339.7 437,-317.7 149,-317.7"/>
<image xlink:href="../../images/foreignKeys.png" width="11px" height="12px" preserveAspectRatio="xMinYMin meet" x="154" y="-334.7"/>
<text text-anchor="start" x="169" y="-324.8" font-family="Helvetica,sans-Serif" font-size="11.00" fill="#000000">oppija_oid</text>
<polygon fill="#ffffff" stroke="transparent" points="149,-295.7 149,-317.7 437,-317.7 437,-295.7 149,-295.7"/>
<polygon fill="none" stroke="#000000" points="149,-295.7 149,-317.7 437,-317.7 437,-295.7 149,-295.7"/>
<text text-anchor="start" x="169" y="-302.8" font-family="Helvetica,sans-Serif" font-size="11.00" fill="#000000">aikaleima</text>
<polygon fill="#ffffff" stroke="transparent" points="149,-273.7 149,-295.7 437,-295.7 437,-273.7 149,-273.7"/>
<polygon fill="none" stroke="#000000" points="149,-273.7 149,-295.7 437,-295.7 437,-273.7 149,-273.7"/>
<text text-anchor="start" x="169" y="-280.8" font-family="Helvetica,sans-Serif" font-size="11.00" fill="#000000">oppilaitos_oid</text>
<polygon fill="#ffffff" stroke="transparent" points="149,-251.7 149,-273.7 437,-273.7 437,-251.7 149,-251.7"/>
<polygon fill="none" stroke="#000000" points="149,-251.7 149,-273.7 437,-273.7 437,-251.7 149,-251.7"/>
<text text-anchor="start" x="169" y="-258.8" font-family="Helvetica,sans-Serif" font-size="11.00" fill="#000000">sisaltava_opiskeluoikeus_oppilaitos_oid</text>
<polygon fill="#ffffff" stroke="transparent" points="149,-229.7 149,-251.7 437,-251.7 437,-229.7 149,-229.7"/>
<polygon fill="none" stroke="#000000" points="149,-229.7 149,-251.7 437,-251.7 437,-229.7 149,-229.7"/>
<text text-anchor="start" x="169" y="-236.8" font-family="Helvetica,sans-Serif" font-size="11.00" fill="#000000">oid</text>
<polygon fill="none" stroke="#000000" points="149,-207.7 149,-229.7 437,-229.7 437,-207.7 149,-207.7"/>
<image xlink:href="../../images/foreignKeys.png" width="11px" height="12px" preserveAspectRatio="xMinYMin meet" x="154" y="-224.7"/>
<text text-anchor="start" x="169" y="-214.8" font-family="Helvetica,sans-Serif" font-size="11.00" fill="#000000">sisaltava_opiskeluoikeus_oid</text>
<polygon fill="#ffffff" stroke="transparent" points="149,-185.7 149,-207.7 437,-207.7 437,-185.7 149,-185.7"/>
<polygon fill="none" stroke="#000000" points="149,-185.7 149,-207.7 437,-207.7 437,-185.7 149,-185.7"/>
<text text-anchor="start" x="169" y="-192.8" font-family="Helvetica,sans-Serif" font-size="11.00" fill="#000000">mitatoity</text>
<polygon fill="#ffffff" stroke="transparent" points="149,-163.7 149,-185.7 437,-185.7 437,-163.7 149,-163.7"/>
<polygon fill="none" stroke="#000000" points="149,-163.7 149,-185.7 437,-185.7 437,-163.7 149,-163.7"/>
<text text-anchor="start" x="169" y="-170.8" font-family="Helvetica,sans-Serif" font-size="11.00" fill="#000000">koulutusmuoto</text>
<polygon fill="#ffffff" stroke="transparent" points="149,-141.7 149,-163.7 437,-163.7 437,-141.7 149,-141.7"/>
<polygon fill="none" stroke="#000000" points="149,-141.7 149,-163.7 437,-163.7 437,-141.7 149,-141.7"/>
<text text-anchor="start" x="169" y="-148.8" font-family="Helvetica,sans-Serif" font-size="11.00" fill="#000000">alkamispaiva</text>
<polygon fill="#ffffff" stroke="transparent" points="149,-119.7 149,-141.7 437,-141.7 437,-119.7 149,-119.7"/>
<polygon fill="none" stroke="#000000" points="149,-119.7 149,-141.7 437,-141.7 437,-119.7 149,-119.7"/>
<text text-anchor="start" x="169" y="-126.8" font-family="Helvetica,sans-Serif" font-size="11.00" fill="#000000">paattymispaiva</text>
<polygon fill="#ffffff" stroke="transparent" points="149,-97.7 149,-119.7 437,-119.7 437,-97.7 149,-97.7"/>
<polygon fill="none" stroke="#000000" points="149,-97.7 149,-119.7 437,-119.7 437,-97.7 149,-97.7"/>
<text text-anchor="start" x="169" y="-104.8" font-family="Helvetica,sans-Serif" font-size="11.00" fill="#000000">suoritustyypit</text>
<polygon fill="#ffffff" stroke="transparent" points="149,-75.7 149,-97.7 437,-97.7 437,-75.7 149,-75.7"/>
<polygon fill="none" stroke="#000000" points="149,-75.7 149,-97.7 437,-97.7 437,-75.7 149,-75.7"/>
<text text-anchor="start" x="169" y="-82.8" font-family="Helvetica,sans-Serif" font-size="11.00" fill="#000000">poistettu</text>
<polygon fill="none" stroke="#000000" points="149,-56.7 149,-75.7 437,-75.7 437,-56.7 149,-56.7"/>
<text text-anchor="start" x="152" y="-62.8" font-family="Helvetica,sans-Serif" font-size="11.00" fill="#000000">...</text>
<polygon fill="#ffffff" stroke="transparent" points="149,-37.7 149,-56.7 274,-56.7 274,-37.7 149,-37.7"/>
<polygon fill="none" stroke="#000000" points="149,-37.7 149,-56.7 274,-56.7 274,-37.7 149,-37.7"/>
<text text-anchor="start" x="152" y="-43.8" font-family="Helvetica,sans-Serif" font-size="11.00" fill="#000000">&lt; 2</text>
<polygon fill="#ffffff" stroke="transparent" points="274,-37.7 274,-56.7 364,-56.7 364,-37.7 274,-37.7"/>
<polygon fill="none" stroke="#000000" points="274,-37.7 274,-56.7 364,-56.7 364,-37.7 274,-37.7"/>
<text text-anchor="start" x="328.6105" y="-43.8" font-family="Helvetica,sans-Serif" font-size="11.00" fill="#000000">0 rows</text>
<polygon fill="#ffffff" stroke="transparent" points="364,-37.7 364,-56.7 437,-56.7 437,-37.7 364,-37.7"/>
<polygon fill="none" stroke="#000000" points="364,-37.7 364,-56.7 437,-56.7 437,-37.7 364,-37.7"/>
<text text-anchor="start" x="418.4053" y="-43.8" font-family="Helvetica,sans-Serif" font-size="11.00" fill="#000000">2 &gt;</text>
</a>
</g>
</g>
<!-- henkilo -->
<g id="node2" class="node">
<title>henkilo</title>
<g id="a_node2"><a xlink:href="../../tables/henkilo.html" xlink:title="henkilo" target="_top">
<polygon fill="#ffffff" stroke="transparent" points="8,-301.2 8,-362.2 100,-362.2 100,-301.2 8,-301.2"/>
<polygon fill="#f5f5f5" stroke="transparent" points="8,-338.7 8,-361.7 100,-361.7 100,-338.7 8,-338.7"/>
<polygon fill="none" stroke="#000000" points="8,-338.7 8,-361.7 100,-361.7 100,-338.7 8,-338.7"/>
<text text-anchor="start" x="13" y="-347.3" font-family="Helvetica,sans-Serif" font-weight="bold" font-size="11.00" fill="#000000">henkilo</text>
<text text-anchor="start" x="65.0437" y="-346.8" font-family="Helvetica,sans-Serif" font-size="11.00" fill="#000000">[table]</text>
<polygon fill="none" stroke="#000000" points="8,-319.7 8,-338.7 100,-338.7 100,-319.7 8,-319.7"/>
<text text-anchor="start" x="11" y="-325.8" font-family="Helvetica,sans-Serif" font-size="11.00" fill="#000000">...</text>
<polygon fill="#ffffff" stroke="transparent" points="8,-300.7 8,-319.7 29,-319.7 29,-300.7 8,-300.7"/>
<polygon fill="none" stroke="#000000" points="8,-300.7 8,-319.7 29,-319.7 29,-300.7 8,-300.7"/>
<text text-anchor="start" x="10.7027" y="-306.8" font-family="Helvetica,sans-Serif" font-size="11.00" fill="#000000">&lt; 1</text>
<polygon fill="#ffffff" stroke="transparent" points="29,-300.7 29,-319.7 79,-319.7 79,-300.7 29,-300.7"/>
<polygon fill="none" stroke="#000000" points="29,-300.7 29,-319.7 79,-319.7 79,-300.7 29,-300.7"/>
<text text-anchor="start" x="31.6904" y="-306.8" font-family="Helvetica,sans-Serif" font-size="11.00" fill="#000000">206 rows</text>
<polygon fill="#ffffff" stroke="transparent" points="79,-300.7 79,-319.7 100,-319.7 100,-300.7 79,-300.7"/>
<polygon fill="none" stroke="#000000" points="79,-300.7 79,-319.7 100,-319.7 100,-300.7 79,-300.7"/>
<text text-anchor="start" x="81.7027" y="-306.8" font-family="Helvetica,sans-Serif" font-size="11.00" fill="#000000">3 &gt;</text>
</a>
</g>
</g>
<!-- ytr_opiskeluoikeus&#45;&gt;henkilo -->
<g id="edge1" class="edge">
<title>ytr_opiskeluoikeus:w&#45;&gt;henkilo:e</title>
<path fill="none" stroke="#000000" d="M138.2573,-328.7C124.6063,-328.7 117.6944,-328.7 100,-328.7"/>
<polygon fill="#000000" stroke="#000000" points="148.2,-324.7 148.2,-332.7 146.6,-332.7 146.6,-324.7 148.2,-324.7"/>
<polyline fill="none" stroke="#000000" points="149,-328.7 145,-328.7 "/>
<ellipse fill="none" stroke="#000000" cx="141.8" cy="-328.7001" rx="3.2" ry="3.2"/>
</g>
<!-- ytr_opiskeluoikeushistoria -->
<g id="node3" class="node">
<title>ytr_opiskeluoikeushistoria</title>
<g id="a_node3"><a xlink:href="../../tables/ytr_opiskeluoikeushistoria.html" xlink:title="ytr_opiskeluoikeushistoria" target="_top">
<polygon fill="#ffffff" stroke="transparent" points="486,-230.7 486,-386.7 788,-386.7 788,-230.7 486,-230.7"/>
<polygon fill="#f5f5f5" stroke="transparent" points="488,-361.7 488,-384.7 786,-384.7 786,-361.7 488,-361.7"/>
<polygon fill="none" stroke="#000000" points="488,-361.7 488,-384.7 786,-384.7 786,-361.7 488,-361.7"/>
<text text-anchor="start" x="493" y="-370.3" font-family="Helvetica,sans-Serif" font-weight="bold" font-size="11.00" fill="#000000">ytr_opiskeluoikeushistoria</text>
<text text-anchor="start" x="751.0437" y="-369.8" font-family="Helvetica,sans-Serif" font-size="11.00" fill="#000000">[table]</text>
<polygon fill="none" stroke="#000000" points="488,-339.7 488,-361.7 687,-361.7 687,-339.7 488,-339.7"/>
<image xlink:href="../../images/primaryKeys.png" width="11px" height="12px" preserveAspectRatio="xMinYMin meet" x="493" y="-356.7"/>
<text text-anchor="start" x="508" y="-346.8" font-family="Helvetica,sans-Serif" font-size="11.00" fill="#000000">opiskeluoikeus_id</text>
<polygon fill="none" stroke="#000000" points="687,-339.7 687,-361.7 786,-361.7 786,-339.7 687,-339.7"/>
<text text-anchor="start" x="690" y="-347.4" font-family="Helvetica,sans-Serif" font-size="11.00" fill="#000000">int4[10]</text>
<polygon fill="none" stroke="#000000" points="488,-317.7 488,-339.7 687,-339.7 687,-317.7 488,-317.7"/>
<text text-anchor="start" x="508" y="-324.8" font-family="Helvetica,sans-Serif" font-size="11.00" fill="#000000">aikaleima</text>
<polygon fill="none" stroke="#000000" points="687,-317.7 687,-339.7 786,-339.7 786,-317.7 687,-317.7"/>
<text text-anchor="start" x="690" y="-325.4" font-family="Helvetica,sans-Serif" font-size="11.00" fill="#000000">timestamptz[35,6]</text>
<polygon fill="none" stroke="#000000" points="488,-295.7 488,-317.7 687,-317.7 687,-295.7 488,-295.7"/>
<text text-anchor="start" x="508" y="-302.8" font-family="Helvetica,sans-Serif" font-size="11.00" fill="#000000">kayttaja_oid</text>
<polygon fill="none" stroke="#000000" points="687,-295.7 687,-317.7 786,-317.7 786,-295.7 687,-295.7"/>
<text text-anchor="start" x="690" y="-303.4" font-family="Helvetica,sans-Serif" font-size="11.00" fill="#000000">text[2147483647]</text>
<polygon fill="none" stroke="#000000" points="488,-273.7 488,-295.7 687,-295.7 687,-273.7 488,-273.7"/>
<text text-anchor="start" x="508" y="-280.8" font-family="Helvetica,sans-Serif" font-size="11.00" fill="#000000">muutos</text>
<polygon fill="none" stroke="#000000" points="687,-273.7 687,-295.7 786,-295.7 786,-273.7 687,-273.7"/>
<text text-anchor="start" x="689.7258" y="-281.4" font-family="Helvetica,sans-Serif" font-size="11.00" fill="#000000">jsonb[2147483647]</text>
<polygon fill="none" stroke="#000000" points="488,-251.7 488,-273.7 687,-273.7 687,-251.7 488,-251.7"/>
<image xlink:href="../../images/primaryKeys.png" width="11px" height="12px" preserveAspectRatio="xMinYMin meet" x="493" y="-268.7"/>
<text text-anchor="start" x="508" y="-258.8" font-family="Helvetica,sans-Serif" font-size="11.00" fill="#000000">versionumero</text>
<polygon fill="none" stroke="#000000" points="687,-251.7 687,-273.7 786,-273.7 786,-251.7 687,-251.7"/>
<text text-anchor="start" x="690" y="-259.4" font-family="Helvetica,sans-Serif" font-size="11.00" fill="#000000">int4[10]</text>
<polygon fill="#ffffff" stroke="transparent" points="488,-232.7 488,-251.7 579,-251.7 579,-232.7 488,-232.7"/>
<polygon fill="none" stroke="#000000" points="488,-232.7 488,-251.7 579,-251.7 579,-232.7 488,-232.7"/>
<text text-anchor="start" x="491" y="-238.8" font-family="Helvetica,sans-Serif" font-size="11.00" fill="#000000">&lt; 1</text>
<polygon fill="#ffffff" stroke="transparent" points="579,-232.7 579,-251.7 687,-251.7 687,-232.7 579,-232.7"/>
<polygon fill="none" stroke="#000000" points="579,-232.7 579,-251.7 687,-251.7 687,-232.7 579,-232.7"/>
<text text-anchor="start" x="651.6105" y="-238.8" font-family="Helvetica,sans-Serif" font-size="11.00" fill="#000000">0 rows</text>
<polygon fill="#ffffff" stroke="transparent" points="687,-232.7 687,-251.7 786,-251.7 786,-232.7 687,-232.7"/>
<polygon fill="none" stroke="#000000" points="687,-232.7 687,-251.7 786,-251.7 786,-232.7 687,-232.7"/>
<text text-anchor="start" x="767.4053" y="-238.8" font-family="Helvetica,sans-Serif" font-size="11.00" fill="#000000">0 &gt;</text>
<polygon fill="none" stroke="#000000" stroke-width="2" points="487,-231.7 487,-385.7 787,-385.7 787,-231.7 487,-231.7"/>
</a>
</g>
</g>
<!-- ytr_opiskeluoikeushistoria&#45;&gt;ytr_opiskeluoikeus -->
<g id="edge2" class="edge">
<title>ytr_opiskeluoikeushistoria:w&#45;&gt;ytr_opiskeluoikeus:e</title>
<path fill="none" stroke="#000000" d="M473.276,-350.7C461.2815,-350.7 453.8229,-350.7 437,-350.7"/>
<polygon fill="#000000" stroke="#000000" points="480,-350.7001 488,-354.3 484,-350.7 488,-350.7 488,-350.7 488,-350.7 484,-350.7 488,-347.1 480,-350.7001 480,-350.7001"/>
<ellipse fill="none" stroke="#000000" cx="476.8" cy="-350.7001" rx="3.2" ry="3.2"/>
</g>
</g>
</svg>
