<?xml version="1.0" encoding="UTF-8" standalone="no"?>
<!DOCTYPE svg PUBLIC "-//W3C//DTD SVG 1.1//EN"
 "http://www.w3.org/Graphics/SVG/1.1/DTD/svg11.dtd">
<!-- Generated by graphviz version 2.40.1 (20161225.0304)
 -->
<!-- Title: twoDegreesRelationshipsDiagram Pages: 1 -->
<svg width="778pt" height="593pt"
 viewBox="0.00 0.00 778.00 592.70" xmlns="http://www.w3.org/2000/svg" xmlns:xlink="http://www.w3.org/1999/xlink">
<g id="graph0" class="graph" transform="scale(1 1) rotate(0) translate(4 588.7)">
<title>twoDegreesRelationshipsDiagram</title>
<polygon fill="#ffffff" stroke="transparent" points="-4,4 -4,-588.7 774,-588.7 774,4 -4,4"/>
<text text-anchor="middle" x="72.4936" y="-7.3" font-family="Helvetica,sans-Serif" font-size="11.00" fill="#000000">Generated by SchemaSpy</text>
<!-- opiskeluoikeus -->
<g id="node1" class="node">
<title>opiskeluoikeus</title>
<g id="a_node1"><a xlink:href="../../tables/opiskeluoikeus.html" xlink:title="opiskeluoikeus" target="_top">
<polygon fill="#ffffff" stroke="transparent" points="272,-519.7 272,-580.7 401,-580.7 401,-519.7 272,-519.7"/>
<polygon fill="#f5f5f5" stroke="transparent" points="272.5,-557.2 272.5,-580.2 401.5,-580.2 401.5,-557.2 272.5,-557.2"/>
<polygon fill="none" stroke="#000000" points="272.5,-557.2 272.5,-580.2 401.5,-580.2 401.5,-557.2 272.5,-557.2"/>
<text text-anchor="start" x="277.5" y="-565.8" font-family="Helvetica,sans-Serif" font-weight="bold" font-size="11.00" fill="#000000">opiskeluoikeus</text>
<text text-anchor="start" x="367.0219" y="-565.3" font-family="Helvetica,sans-Serif" font-size="11.00" fill="#000000">[table]</text>
<polygon fill="none" stroke="#000000" points="272.5,-538.2 272.5,-557.2 401.5,-557.2 401.5,-538.2 272.5,-538.2"/>
<text text-anchor="start" x="275.5" y="-544.3" font-family="Helvetica,sans-Serif" font-size="11.00" fill="#000000">...</text>
<polygon fill="#ffffff" stroke="transparent" points="272.5,-519.2 272.5,-538.2 311.5,-538.2 311.5,-519.2 272.5,-519.2"/>
<polygon fill="none" stroke="#000000" points="272.5,-519.2 272.5,-538.2 311.5,-538.2 311.5,-519.2 272.5,-519.2"/>
<text text-anchor="start" x="275.5" y="-525.3" font-family="Helvetica,sans-Serif" font-size="11.00" fill="#000000">&lt; 2</text>
<polygon fill="#ffffff" stroke="transparent" points="311.5,-519.2 311.5,-538.2 370.5,-538.2 370.5,-519.2 311.5,-519.2"/>
<polygon fill="none" stroke="#000000" points="311.5,-519.2 311.5,-538.2 370.5,-538.2 370.5,-519.2 311.5,-519.2"/>
<text text-anchor="start" x="322.8807" y="-525.3" font-family="Helvetica,sans-Serif" font-size="11.00" fill="#000000">184 rows</text>
<polygon fill="#ffffff" stroke="transparent" points="370.5,-519.2 370.5,-538.2 401.5,-538.2 401.5,-519.2 370.5,-519.2"/>
<polygon fill="none" stroke="#000000" points="370.5,-519.2 370.5,-538.2 401.5,-538.2 401.5,-519.2 370.5,-519.2"/>
<text text-anchor="start" x="382.9053" y="-525.3" font-family="Helvetica,sans-Serif" font-size="11.00" fill="#000000">4 &gt;</text>
</a>
</g>
</g>
<!-- henkilo -->
<g id="node2" class="node">
<title>henkilo</title>
<g id="a_node2"><a xlink:href="../../tables/henkilo.html" xlink:title="henkilo" target="_top">
<polygon fill="#ffffff" stroke="transparent" points="8,-402.7 8,-507.7 108,-507.7 108,-402.7 8,-402.7"/>
<polygon fill="#f5f5f5" stroke="transparent" points="8,-484.2 8,-507.2 108,-507.2 108,-484.2 8,-484.2"/>
<polygon fill="none" stroke="#000000" points="8,-484.2 8,-507.2 108,-507.2 108,-484.2 8,-484.2"/>
<text text-anchor="start" x="13" y="-492.8" font-family="Helvetica,sans-Serif" font-weight="bold" font-size="11.00" fill="#000000">henkilo</text>
<text text-anchor="start" x="73.0437" y="-492.3" font-family="Helvetica,sans-Serif" font-size="11.00" fill="#000000">[table]</text>
<polygon fill="none" stroke="#000000" points="8,-462.2 8,-484.2 108,-484.2 108,-462.2 8,-462.2"/>
<image xlink:href="../../images/primaryKeys.png" width="11px" height="12px" preserveAspectRatio="xMinYMin meet" x="13" y="-479.2"/>
<text text-anchor="start" x="28" y="-469.3" font-family="Helvetica,sans-Serif" font-size="11.00" fill="#000000">oid</text>
<polygon fill="#ffffff" stroke="transparent" points="8,-440.2 8,-462.2 108,-462.2 108,-440.2 8,-440.2"/>
<polygon fill="none" stroke="#000000" points="8,-440.2 8,-462.2 108,-462.2 108,-440.2 8,-440.2"/>
<image xlink:href="../../images/foreignKeys.png" width="11px" height="12px" preserveAspectRatio="xMinYMin meet" x="13" y="-457.2"/>
<text text-anchor="start" x="28" y="-447.3" font-family="Helvetica,sans-Serif" font-size="11.00" fill="#000000">master_oid</text>
<polygon fill="none" stroke="#000000" points="8,-421.2 8,-440.2 108,-440.2 108,-421.2 8,-421.2"/>
<text text-anchor="start" x="11" y="-427.3" font-family="Helvetica,sans-Serif" font-size="11.00" fill="#000000">...</text>
<polygon fill="#ffffff" stroke="transparent" points="8,-402.2 8,-421.2 33,-421.2 33,-402.2 8,-402.2"/>
<polygon fill="none" stroke="#000000" points="8,-402.2 8,-421.2 33,-421.2 33,-402.2 8,-402.2"/>
<text text-anchor="start" x="11" y="-408.3" font-family="Helvetica,sans-Serif" font-size="11.00" fill="#000000">&lt; 1</text>
<polygon fill="#ffffff" stroke="transparent" points="33,-402.2 33,-421.2 85,-421.2 85,-402.2 33,-402.2"/>
<polygon fill="none" stroke="#000000" points="33,-402.2 33,-421.2 85,-421.2 85,-402.2 33,-402.2"/>
<text text-anchor="start" x="37.3807" y="-408.3" font-family="Helvetica,sans-Serif" font-size="11.00" fill="#000000">201 rows</text>
<polygon fill="#ffffff" stroke="transparent" points="85,-402.2 85,-421.2 108,-421.2 108,-402.2 85,-402.2"/>
<polygon fill="none" stroke="#000000" points="85,-402.2 85,-421.2 108,-421.2 108,-402.2 85,-402.2"/>
<text text-anchor="start" x="89.4053" y="-408.3" font-family="Helvetica,sans-Serif" font-size="11.00" fill="#000000">3 &gt;</text>
</a>
</g>
</g>
<!-- opiskeluoikeus&#45;&gt;henkilo -->
<g id="edge1" class="edge">
<title>opiskeluoikeus:w&#45;&gt;henkilo:e</title>
<path fill="none" stroke="#000000" d="M261.8925,-547.0734C212.875,-545.8376 195.9023,-535.4061 149,-509.2 127.8306,-497.3719 132.2497,-473.2 108,-473.2"/>
<polygon fill="#000000" stroke="#000000" points="271.7478,-543.1907 271.6523,-551.1902 270.0524,-551.171 270.148,-543.1716 271.7478,-543.1907"/>
<polyline fill="none" stroke="#000000" points="272.5,-547.2 268.5003,-547.1522 "/>
<ellipse fill="none" stroke="#000000" cx="265.3005" cy="-547.114" rx="3.2" ry="3.2"/>
</g>
<!-- ytr_opiskeluoikeus -->
<g id="node3" class="node">
<title>ytr_opiskeluoikeus</title>
<g id="a_node3"><a xlink:href="../../tables/ytr_opiskeluoikeus.html" xlink:title="ytr_opiskeluoikeus" target="_top">
<polygon fill="#ffffff" stroke="transparent" points="157,-38.2 157,-480.2 516,-480.2 516,-38.2 157,-38.2"/>
<polygon fill="#f5f5f5" stroke="transparent" points="159.5,-455.2 159.5,-478.2 514.5,-478.2 514.5,-455.2 159.5,-455.2"/>
<polygon fill="none" stroke="#000000" points="159.5,-455.2 159.5,-478.2 514.5,-478.2 514.5,-455.2 159.5,-455.2"/>
<text text-anchor="start" x="164.5" y="-463.8" font-family="Helvetica,sans-Serif" font-weight="bold" font-size="11.00" fill="#000000">ytr_opiskeluoikeus</text>
<text text-anchor="start" x="479.5437" y="-463.3" font-family="Helvetica,sans-Serif" font-size="11.00" fill="#000000">[table]</text>
<polygon fill="none" stroke="#000000" points="159.5,-433.2 159.5,-455.2 415.5,-455.2 415.5,-433.2 159.5,-433.2"/>
<image xlink:href="../../images/primaryKeys.png" width="11px" height="12px" preserveAspectRatio="xMinYMin meet" x="164.5" y="-450.2"/>
<text text-anchor="start" x="179.5" y="-440.3" font-family="Helvetica,sans-Serif" font-size="11.00" fill="#000000">id</text>
<polygon fill="none" stroke="#000000" points="415.5,-433.2 415.5,-455.2 514.5,-455.2 514.5,-433.2 415.5,-433.2"/>
<text text-anchor="start" x="418.5" y="-440.9" font-family="Helvetica,sans-Serif" font-size="11.00" fill="#000000">serial[10]</text>
<polygon fill="none" stroke="#000000" points="159.5,-411.2 159.5,-433.2 415.5,-433.2 415.5,-411.2 159.5,-411.2"/>
<text text-anchor="start" x="179.5" y="-418.3" font-family="Helvetica,sans-Serif" font-size="11.00" fill="#000000">data</text>
<polygon fill="none" stroke="#000000" points="415.5,-411.2 415.5,-433.2 514.5,-433.2 514.5,-411.2 415.5,-411.2"/>
<text text-anchor="start" x="418.2258" y="-418.9" font-family="Helvetica,sans-Serif" font-size="11.00" fill="#000000">jsonb[2147483647]</text>
<polygon fill="#ffffff" stroke="transparent" points="159.5,-389.2 159.5,-411.2 415.5,-411.2 415.5,-389.2 159.5,-389.2"/>
<polygon fill="none" stroke="#000000" points="159.5,-389.2 159.5,-411.2 415.5,-411.2 415.5,-389.2 159.5,-389.2"/>
<image xlink:href="../../images/foreignKeys.png" width="11px" height="12px" preserveAspectRatio="xMinYMin meet" x="164.5" y="-406.2"/>
<text text-anchor="start" x="179.5" y="-396.3" font-family="Helvetica,sans-Serif" font-size="11.00" fill="#000000">oppija_oid</text>
<polygon fill="none" stroke="#000000" points="415.5,-389.2 415.5,-411.2 514.5,-411.2 514.5,-389.2 415.5,-389.2"/>
<text text-anchor="start" x="418.5" y="-396.9" font-family="Helvetica,sans-Serif" font-size="11.00" fill="#000000">text[2147483647]</text>
<polygon fill="#ffffff" stroke="transparent" points="159.5,-367.2 159.5,-389.2 415.5,-389.2 415.5,-367.2 159.5,-367.2"/>
<polygon fill="none" stroke="#000000" points="159.5,-367.2 159.5,-389.2 415.5,-389.2 415.5,-367.2 159.5,-367.2"/>
<text text-anchor="start" x="179.5" y="-374.3" font-family="Helvetica,sans-Serif" font-size="11.00" fill="#000000">aikaleima</text>
<polygon fill="none" stroke="#000000" points="415.5,-367.2 415.5,-389.2 514.5,-389.2 514.5,-367.2 415.5,-367.2"/>
<text text-anchor="start" x="418.5" y="-374.9" font-family="Helvetica,sans-Serif" font-size="11.00" fill="#000000">timestamptz[35,6]</text>
<polygon fill="none" stroke="#000000" points="159.5,-345.2 159.5,-367.2 415.5,-367.2 415.5,-345.2 159.5,-345.2"/>
<text text-anchor="start" x="179.5" y="-352.3" font-family="Helvetica,sans-Serif" font-size="11.00" fill="#000000">versionumero</text>
<polygon fill="none" stroke="#000000" points="415.5,-345.2 415.5,-367.2 514.5,-367.2 514.5,-345.2 415.5,-345.2"/>
<text text-anchor="start" x="418.5" y="-352.9" font-family="Helvetica,sans-Serif" font-size="11.00" fill="#000000">int4[10]</text>
<polygon fill="#ffffff" stroke="transparent" points="159.5,-323.2 159.5,-345.2 415.5,-345.2 415.5,-323.2 159.5,-323.2"/>
<polygon fill="none" stroke="#000000" points="159.5,-323.2 159.5,-345.2 415.5,-345.2 415.5,-323.2 159.5,-323.2"/>
<text text-anchor="start" x="179.5" y="-330.3" font-family="Helvetica,sans-Serif" font-size="11.00" fill="#000000">oppilaitos_oid</text>
<polygon fill="none" stroke="#000000" points="415.5,-323.2 415.5,-345.2 514.5,-345.2 514.5,-323.2 415.5,-323.2"/>
<text text-anchor="start" x="418.5" y="-330.9" font-family="Helvetica,sans-Serif" font-size="11.00" fill="#000000">text[2147483647]</text>
<polygon fill="none" stroke="#000000" points="159.5,-301.2 159.5,-323.2 415.5,-323.2 415.5,-301.2 159.5,-301.2"/>
<text text-anchor="start" x="179.5" y="-308.3" font-family="Helvetica,sans-Serif" font-size="11.00" fill="#000000">koulutustoimija_oid</text>
<polygon fill="none" stroke="#000000" points="415.5,-301.2 415.5,-323.2 514.5,-323.2 514.5,-301.2 415.5,-301.2"/>
<text text-anchor="start" x="418.5" y="-308.9" font-family="Helvetica,sans-Serif" font-size="11.00" fill="#000000">text[2147483647]</text>
<polygon fill="none" stroke="#000000" points="159.5,-279.2 159.5,-301.2 415.5,-301.2 415.5,-279.2 159.5,-279.2"/>
<text text-anchor="start" x="179.5" y="-286.3" font-family="Helvetica,sans-Serif" font-size="11.00" fill="#000000">luokka</text>
<polygon fill="none" stroke="#000000" points="415.5,-279.2 415.5,-301.2 514.5,-301.2 514.5,-279.2 415.5,-279.2"/>
<text text-anchor="start" x="418.5" y="-286.9" font-family="Helvetica,sans-Serif" font-size="11.00" fill="#000000">text[2147483647]</text>
<polygon fill="#ffffff" stroke="transparent" points="159.5,-257.2 159.5,-279.2 415.5,-279.2 415.5,-257.2 159.5,-257.2"/>
<polygon fill="none" stroke="#000000" points="159.5,-257.2 159.5,-279.2 415.5,-279.2 415.5,-257.2 159.5,-257.2"/>
<text text-anchor="start" x="179.5" y="-264.3" font-family="Helvetica,sans-Serif" font-size="11.00" fill="#000000">sisaltava_opiskeluoikeus_oppilaitos_oid</text>
<polygon fill="none" stroke="#000000" points="415.5,-257.2 415.5,-279.2 514.5,-279.2 514.5,-257.2 415.5,-257.2"/>
<text text-anchor="start" x="418.5" y="-264.9" font-family="Helvetica,sans-Serif" font-size="11.00" fill="#000000">text[2147483647]</text>
<polygon fill="#ffffff" stroke="transparent" points="159.5,-235.2 159.5,-257.2 415.5,-257.2 415.5,-235.2 159.5,-235.2"/>
<polygon fill="none" stroke="#000000" points="159.5,-235.2 159.5,-257.2 415.5,-257.2 415.5,-235.2 159.5,-235.2"/>
<text text-anchor="start" x="179.5" y="-242.3" font-family="Helvetica,sans-Serif" font-size="11.00" fill="#000000">oid</text>
<polygon fill="none" stroke="#000000" points="415.5,-235.2 415.5,-257.2 514.5,-257.2 514.5,-235.2 415.5,-235.2"/>
<text text-anchor="start" x="418.5" y="-242.9" font-family="Helvetica,sans-Serif" font-size="11.00" fill="#000000">text[2147483647]</text>
<polygon fill="none" stroke="#000000" points="159.5,-213.2 159.5,-235.2 415.5,-235.2 415.5,-213.2 159.5,-213.2"/>
<image xlink:href="../../images/foreignKeys.png" width="11px" height="12px" preserveAspectRatio="xMinYMin meet" x="164.5" y="-230.2"/>
<text text-anchor="start" x="179.5" y="-220.3" font-family="Helvetica,sans-Serif" font-size="11.00" fill="#000000">sisaltava_opiskeluoikeus_oid</text>
<polygon fill="none" stroke="#000000" points="415.5,-213.2 415.5,-235.2 514.5,-235.2 514.5,-213.2 415.5,-213.2"/>
<text text-anchor="start" x="418.5" y="-220.9" font-family="Helvetica,sans-Serif" font-size="11.00" fill="#000000">text[2147483647]</text>
<polygon fill="#ffffff" stroke="transparent" points="159.5,-191.2 159.5,-213.2 415.5,-213.2 415.5,-191.2 159.5,-191.2"/>
<polygon fill="none" stroke="#000000" points="159.5,-191.2 159.5,-213.2 415.5,-213.2 415.5,-191.2 159.5,-191.2"/>
<text text-anchor="start" x="179.5" y="-198.3" font-family="Helvetica,sans-Serif" font-size="11.00" fill="#000000">mitatoity</text>
<polygon fill="none" stroke="#000000" points="415.5,-191.2 415.5,-213.2 514.5,-213.2 514.5,-191.2 415.5,-191.2"/>
<text text-anchor="start" x="418.5" y="-198.9" font-family="Helvetica,sans-Serif" font-size="11.00" fill="#000000">bool[1]</text>
<polygon fill="#ffffff" stroke="transparent" points="159.5,-169.2 159.5,-191.2 415.5,-191.2 415.5,-169.2 159.5,-169.2"/>
<polygon fill="none" stroke="#000000" points="159.5,-169.2 159.5,-191.2 415.5,-191.2 415.5,-169.2 159.5,-169.2"/>
<text text-anchor="start" x="179.5" y="-176.3" font-family="Helvetica,sans-Serif" font-size="11.00" fill="#000000">koulutusmuoto</text>
<polygon fill="none" stroke="#000000" points="415.5,-169.2 415.5,-191.2 514.5,-191.2 514.5,-169.2 415.5,-169.2"/>
<text text-anchor="start" x="418.5" y="-176.9" font-family="Helvetica,sans-Serif" font-size="11.00" fill="#000000">text[2147483647]</text>
<polygon fill="#ffffff" stroke="transparent" points="159.5,-147.2 159.5,-169.2 415.5,-169.2 415.5,-147.2 159.5,-147.2"/>
<polygon fill="none" stroke="#000000" points="159.5,-147.2 159.5,-169.2 415.5,-169.2 415.5,-147.2 159.5,-147.2"/>
<text text-anchor="start" x="179.5" y="-154.3" font-family="Helvetica,sans-Serif" font-size="11.00" fill="#000000">alkamispaiva</text>
<polygon fill="none" stroke="#000000" points="415.5,-147.2 415.5,-169.2 514.5,-169.2 514.5,-147.2 415.5,-147.2"/>
<text text-anchor="start" x="418.5" y="-154.9" font-family="Helvetica,sans-Serif" font-size="11.00" fill="#000000">date[13]</text>
<polygon fill="#ffffff" stroke="transparent" points="159.5,-125.2 159.5,-147.2 415.5,-147.2 415.5,-125.2 159.5,-125.2"/>
<polygon fill="none" stroke="#000000" points="159.5,-125.2 159.5,-147.2 415.5,-147.2 415.5,-125.2 159.5,-125.2"/>
<text text-anchor="start" x="179.5" y="-132.3" font-family="Helvetica,sans-Serif" font-size="11.00" fill="#000000">paattymispaiva</text>
<polygon fill="none" stroke="#000000" points="415.5,-125.2 415.5,-147.2 514.5,-147.2 514.5,-125.2 415.5,-125.2"/>
<text text-anchor="start" x="418.5" y="-132.9" font-family="Helvetica,sans-Serif" font-size="11.00" fill="#000000">date[13]</text>
<polygon fill="none" stroke="#000000" points="159.5,-103.2 159.5,-125.2 415.5,-125.2 415.5,-103.2 159.5,-103.2"/>
<text text-anchor="start" x="179.5" y="-110.3" font-family="Helvetica,sans-Serif" font-size="11.00" fill="#000000">suoritusjako_tehty_rajapaivan_jalkeen</text>
<polygon fill="none" stroke="#000000" points="415.5,-103.2 415.5,-125.2 514.5,-125.2 514.5,-103.2 415.5,-103.2"/>
<text text-anchor="start" x="418.5" y="-110.9" font-family="Helvetica,sans-Serif" font-size="11.00" fill="#000000">bool[1]</text>
<polygon fill="#ffffff" stroke="transparent" points="159.5,-81.2 159.5,-103.2 415.5,-103.2 415.5,-81.2 159.5,-81.2"/>
<polygon fill="none" stroke="#000000" points="159.5,-81.2 159.5,-103.2 415.5,-103.2 415.5,-81.2 159.5,-81.2"/>
<text text-anchor="start" x="179.5" y="-88.3" font-family="Helvetica,sans-Serif" font-size="11.00" fill="#000000">suoritustyypit</text>
<polygon fill="none" stroke="#000000" points="415.5,-81.2 415.5,-103.2 514.5,-103.2 514.5,-81.2 415.5,-81.2"/>
<text text-anchor="start" x="418.5" y="-88.9" font-family="Helvetica,sans-Serif" font-size="11.00" fill="#000000">_text[2147483647]</text>
<polygon fill="#ffffff" stroke="transparent" points="159.5,-59.2 159.5,-81.2 415.5,-81.2 415.5,-59.2 159.5,-59.2"/>
<polygon fill="none" stroke="#000000" points="159.5,-59.2 159.5,-81.2 415.5,-81.2 415.5,-59.2 159.5,-59.2"/>
<text text-anchor="start" x="179.5" y="-66.3" font-family="Helvetica,sans-Serif" font-size="11.00" fill="#000000">poistettu</text>
<polygon fill="none" stroke="#000000" points="415.5,-59.2 415.5,-81.2 514.5,-81.2 514.5,-59.2 415.5,-59.2"/>
<text text-anchor="start" x="418.5" y="-66.9" font-family="Helvetica,sans-Serif" font-size="11.00" fill="#000000">bool[1]</text>
<polygon fill="#ffffff" stroke="transparent" points="159.5,-40.2 159.5,-59.2 278.5,-59.2 278.5,-40.2 159.5,-40.2"/>
<polygon fill="none" stroke="#000000" points="159.5,-40.2 159.5,-59.2 278.5,-59.2 278.5,-40.2 159.5,-40.2"/>
<text text-anchor="start" x="162.5" y="-46.3" font-family="Helvetica,sans-Serif" font-size="11.00" fill="#000000">&lt; 2</text>
<polygon fill="#ffffff" stroke="transparent" points="278.5,-40.2 278.5,-59.2 415.5,-59.2 415.5,-40.2 278.5,-40.2"/>
<polygon fill="none" stroke="#000000" points="278.5,-40.2 278.5,-59.2 415.5,-59.2 415.5,-40.2 278.5,-40.2"/>
<text text-anchor="start" x="380.1105" y="-46.3" font-family="Helvetica,sans-Serif" font-size="11.00" fill="#000000">9 rows</text>
<polygon fill="#ffffff" stroke="transparent" points="415.5,-40.2 415.5,-59.2 514.5,-59.2 514.5,-40.2 415.5,-40.2"/>
<polygon fill="none" stroke="#000000" points="415.5,-40.2 415.5,-59.2 514.5,-59.2 514.5,-40.2 415.5,-40.2"/>
<text text-anchor="start" x="495.9053" y="-46.3" font-family="Helvetica,sans-Serif" font-size="11.00" fill="#000000">2 &gt;</text>
<polygon fill="none" stroke="#000000" stroke-width="2" points="158,-39.2 158,-479.2 515,-479.2 515,-39.2 158,-39.2"/>
</a>
</g>
</g>
<!-- ytr_opiskeluoikeus&#45;&gt;henkilo -->
<g id="edge2" class="edge">
<title>ytr_opiskeluoikeus:w&#45;&gt;henkilo:e</title>
<path fill="none" stroke="#000000" d="M149.0347,-402.4648C124.9297,-414.7864 143.518,-473.2 108,-473.2"/>
<polygon fill="#000000" stroke="#000000" points="157.872,-396.4597 159.5642,-404.2787 158.0004,-404.6172 156.3082,-396.7981 157.872,-396.4597"/>
<polyline fill="none" stroke="#000000" points="159.5,-400.2 155.5905,-401.0461 "/>
<ellipse fill="none" stroke="#000000" cx="152.4629" cy="-401.7229" rx="3.2" ry="3.2"/>
</g>
<!-- ytr_opiskeluoikeus&#45;&gt;ytr_opiskeluoikeus -->
<g id="edge3" class="edge">
<title>ytr_opiskeluoikeus:w&#45;&gt;ytr_opiskeluoikeus:e</title>
<path fill="none" stroke="#000000" d="M150.5706,-235.5557C90.4984,-320.5423 101.0957,-497.2 337,-497.2 584,-497.2 584,-325.5333 514.5,-246.2"/>
<polygon fill="#000000" stroke="#000000" points="154.555,-230.4887 162.3299,-226.4253 157.0275,-227.3443 159.5,-224.2 159.5,-224.2 159.5,-224.2 157.0275,-227.3443 156.6701,-221.9747 154.555,-230.4887 154.555,-230.4887"/>
<ellipse fill="none" stroke="#000000" cx="152.577" cy="-233.0041" rx="3.2" ry="3.2"/>
</g>
<!-- ytr_opiskeluoikeushistoria -->
<g id="node4" class="node">
<title>ytr_opiskeluoikeushistoria</title>
<g id="a_node4"><a xlink:href="../../tables/ytr_opiskeluoikeushistoria.html" xlink:title="ytr_opiskeluoikeushistoria" target="_top">
<polygon fill="#ffffff" stroke="transparent" points="565,-373.7 565,-478.7 762,-478.7 762,-373.7 565,-373.7"/>
<polygon fill="#f5f5f5" stroke="transparent" points="565.5,-455.2 565.5,-478.2 762.5,-478.2 762.5,-455.2 565.5,-455.2"/>
<polygon fill="none" stroke="#000000" points="565.5,-455.2 565.5,-478.2 762.5,-478.2 762.5,-455.2 565.5,-455.2"/>
<text text-anchor="start" x="570.5" y="-463.8" font-family="Helvetica,sans-Serif" font-weight="bold" font-size="11.00" fill="#000000">ytr_opiskeluoikeushistoria</text>
<text text-anchor="start" x="728.0219" y="-463.3" font-family="Helvetica,sans-Serif" font-size="11.00" fill="#000000">[table]</text>
<polygon fill="none" stroke="#000000" points="565.5,-433.2 565.5,-455.2 762.5,-455.2 762.5,-433.2 565.5,-433.2"/>
<image xlink:href="../../images/primaryKeys.png" width="11px" height="12px" preserveAspectRatio="xMinYMin meet" x="570.5" y="-450.2"/>
<text text-anchor="start" x="594.5" y="-440.3" font-family="Helvetica,sans-Serif" font-size="11.00" fill="#000000">opiskeluoikeus_id</text>
<polygon fill="none" stroke="#000000" points="565.5,-411.2 565.5,-433.2 762.5,-433.2 762.5,-411.2 565.5,-411.2"/>
<image xlink:href="../../images/primaryKeys.png" width="11px" height="12px" preserveAspectRatio="xMinYMin meet" x="570.5" y="-428.2"/>
<text text-anchor="start" x="594.5" y="-418.3" font-family="Helvetica,sans-Serif" font-size="11.00" fill="#000000">versionumero</text>
<polygon fill="none" stroke="#000000" points="565.5,-392.2 565.5,-411.2 762.5,-411.2 762.5,-392.2 565.5,-392.2"/>
<text text-anchor="start" x="568.5" y="-398.3" font-family="Helvetica,sans-Serif" font-size="11.00" fill="#000000">...</text>
<polygon fill="#ffffff" stroke="transparent" points="565.5,-373.2 565.5,-392.2 649.5,-392.2 649.5,-373.2 565.5,-373.2"/>
<polygon fill="none" stroke="#000000" points="565.5,-373.2 565.5,-392.2 649.5,-392.2 649.5,-373.2 565.5,-373.2"/>
<text text-anchor="start" x="568.5" y="-379.3" font-family="Helvetica,sans-Serif" font-size="11.00" fill="#000000">&lt; 1</text>
<polygon fill="#ffffff" stroke="transparent" points="649.5,-373.2 649.5,-392.2 718.5,-392.2 718.5,-373.2 649.5,-373.2"/>
<polygon fill="none" stroke="#000000" points="649.5,-373.2 649.5,-392.2 718.5,-392.2 718.5,-373.2 649.5,-373.2"/>
<text text-anchor="start" x="683.1105" y="-379.3" font-family="Helvetica,sans-Serif" font-size="11.00" fill="#000000">9 rows</text>
<polygon fill="#ffffff" stroke="transparent" points="718.5,-373.2 718.5,-392.2 762.5,-392.2 762.5,-373.2 718.5,-373.2"/>
<polygon fill="none" stroke="#000000" points="718.5,-373.2 718.5,-392.2 762.5,-392.2 762.5,-373.2 718.5,-373.2"/>
<text text-anchor="start" x="753.3862" y="-379.3" font-family="Helvetica,sans-Serif" font-size="11.00" fill="#000000"> &#160;</text>
</a>
</g>
</g>
<!-- ytr_opiskeluoikeushistoria&#45;&gt;ytr_opiskeluoikeus -->
<g id="edge4" class="edge">
<title>ytr_opiskeluoikeushistoria:w&#45;&gt;ytr_opiskeluoikeus:e</title>
<path fill="none" stroke="#000000" d="M550.776,-444.2C538.7815,-444.2 531.3229,-444.2 514.5,-444.2"/>
<polygon fill="#000000" stroke="#000000" points="557.5,-444.2001 565.5,-447.8 561.5,-444.2 565.5,-444.2 565.5,-444.2 565.5,-444.2 561.5,-444.2 565.5,-440.6 557.5,-444.2001 557.5,-444.2001"/>
<ellipse fill="none" stroke="#000000" cx="554.3" cy="-444.2001" rx="3.2" ry="3.2"/>
</g>
</g>
</svg>
