<?xml version="1.0" encoding="UTF-8" standalone="no"?>
<!DOCTYPE svg PUBLIC "-//W3C//DTD SVG 1.1//EN"
 "http://www.w3.org/Graphics/SVG/1.1/DTD/svg11.dtd">
<!-- Generated by graphviz version 2.40.1 (20161225.0304)
 -->
<!-- Title: oneDegreeRelationshipsDiagram Pages: 1 -->
<svg width="346pt" height="206pt"
 viewBox="0.00 0.00 346.00 206.20" xmlns="http://www.w3.org/2000/svg" xmlns:xlink="http://www.w3.org/1999/xlink">
<g id="graph0" class="graph" transform="scale(1 1) rotate(0) translate(4 202.2)">
<title>oneDegreeRelationshipsDiagram</title>
<polygon fill="#ffffff" stroke="transparent" points="-4,4 -4,-202.2 342,-202.2 342,4 -4,4"/>
<text text-anchor="middle" x="72.4936" y="-7.3" font-family="Helvetica,sans-Serif" font-size="11.00" fill="#000000">Generated by SchemaSpy</text>
<!-- ytr_opiskeluoikeushistoria_virheet -->
<g id="node1" class="node">
<title>ytr_opiskeluoikeushistoria_virheet</title>
<g id="a_node1"><a xlink:href="../../tables/ytr_opiskeluoikeushistoria_virheet.html" xlink:title="ytr_opiskeluoikeushistoria_virheet" target="_top">
<polygon fill="#ffffff" stroke="transparent" points="8,-38.2 8,-194.2 330,-194.2 330,-38.2 8,-38.2"/>
<polygon fill="#f5f5f5" stroke="transparent" points="10,-169.2 10,-192.2 328,-192.2 328,-169.2 10,-169.2"/>
<polygon fill="none" stroke="#000000" points="10,-169.2 10,-192.2 328,-192.2 328,-169.2 10,-169.2"/>
<text text-anchor="start" x="15" y="-177.8" font-family="Helvetica,sans-Serif" font-weight="bold" font-size="11.00" fill="#000000">ytr_opiskeluoikeushistoria_virheet</text>
<text text-anchor="start" x="293.0437" y="-177.3" font-family="Helvetica,sans-Serif" font-size="11.00" fill="#000000">[table]</text>
<polygon fill="none" stroke="#000000" points="10,-147.2 10,-169.2 229,-169.2 229,-147.2 10,-147.2"/>
<image xlink:href="../../images/primaryKeys.png" width="11px" height="12px" preserveAspectRatio="xMinYMin meet" x="15" y="-164.2"/>
<text text-anchor="start" x="30" y="-154.3" font-family="Helvetica,sans-Serif" font-size="11.00" fill="#000000">id</text>
<polygon fill="none" stroke="#000000" points="229,-147.2 229,-169.2 328,-169.2 328,-147.2 229,-147.2"/>
<text text-anchor="start" x="232" y="-154.9" font-family="Helvetica,sans-Serif" font-size="11.00" fill="#000000">int4[10]</text>
<polygon fill="none" stroke="#000000" points="10,-125.2 10,-147.2 229,-147.2 229,-125.2 10,-125.2"/>
<text text-anchor="start" x="30" y="-132.3" font-family="Helvetica,sans-Serif" font-size="11.00" fill="#000000">aikaleima</text>
<polygon fill="none" stroke="#000000" points="229,-125.2 229,-147.2 328,-147.2 328,-125.2 229,-125.2"/>
<text text-anchor="start" x="232" y="-132.9" font-family="Helvetica,sans-Serif" font-size="11.00" fill="#000000">timetz[21,6]</text>
<polygon fill="none" stroke="#000000" points="10,-103.2 10,-125.2 229,-125.2 229,-103.2 10,-103.2"/>
<text text-anchor="start" x="30" y="-110.3" font-family="Helvetica,sans-Serif" font-size="11.00" fill="#000000">opiskeluoikeus</text>
<polygon fill="none" stroke="#000000" points="229,-103.2 229,-125.2 328,-125.2 328,-103.2 229,-103.2"/>
<text text-anchor="start" x="231.7258" y="-110.9" font-family="Helvetica,sans-Serif" font-size="11.00" fill="#000000">jsonb[2147483647]</text>
<polygon fill="none" stroke="#000000" points="10,-81.2 10,-103.2 229,-103.2 229,-81.2 10,-81.2"/>
<text text-anchor="start" x="30" y="-88.3" font-family="Helvetica,sans-Serif" font-size="11.00" fill="#000000">historia</text>
<polygon fill="none" stroke="#000000" points="229,-81.2 229,-103.2 328,-103.2 328,-81.2 229,-81.2"/>
<text text-anchor="start" x="231.7258" y="-88.9" font-family="Helvetica,sans-Serif" font-size="11.00" fill="#000000">jsonb[2147483647]</text>
<polygon fill="none" stroke="#000000" points="10,-59.2 10,-81.2 229,-81.2 229,-59.2 10,-59.2"/>
<text text-anchor="start" x="30" y="-66.3" font-family="Helvetica,sans-Serif" font-size="11.00" fill="#000000">diff</text>
<polygon fill="none" stroke="#000000" points="229,-59.2 229,-81.2 328,-81.2 328,-59.2 229,-59.2"/>
<text text-anchor="start" x="231.7258" y="-66.9" font-family="Helvetica,sans-Serif" font-size="11.00" fill="#000000">jsonb[2147483647]</text>
<polygon fill="#ffffff" stroke="transparent" points="10,-40.2 10,-59.2 124,-59.2 124,-40.2 10,-40.2"/>
<polygon fill="none" stroke="#000000" points="10,-40.2 10,-59.2 124,-59.2 124,-40.2 10,-40.2"/>
<text text-anchor="start" x="13" y="-46.3" font-family="Helvetica,sans-Serif" font-size="11.00" fill="#000000">&lt; 0</text>
<polygon fill="#ffffff" stroke="transparent" points="124,-40.2 124,-59.2 229,-59.2 229,-40.2 124,-40.2"/>
<polygon fill="none" stroke="#000000" points="124,-40.2 124,-59.2 229,-59.2 229,-40.2 124,-40.2"/>
<text text-anchor="start" x="219.8862" y="-46.3" font-family="Helvetica,sans-Serif" font-size="11.00" fill="#000000"> &#160;</text>
<polygon fill="#ffffff" stroke="transparent" points="229,-40.2 229,-59.2 328,-59.2 328,-40.2 229,-40.2"/>
<polygon fill="none" stroke="#000000" points="229,-40.2 229,-59.2 328,-59.2 328,-40.2 229,-40.2"/>
<text text-anchor="start" x="309.4053" y="-46.3" font-family="Helvetica,sans-Serif" font-size="11.00" fill="#000000">0 &gt;</text>
<polygon fill="none" stroke="#000000" stroke-width="2" points="9,-39.2 9,-193.2 329,-193.2 329,-39.2 9,-39.2"/>
</a>
</g>
</g>
</g>
</svg>
