<?xml version="1.0" encoding="UTF-8" standalone="no"?>
<!DOCTYPE svg PUBLIC "-//W3C//DTD SVG 1.1//EN"
 "http://www.w3.org/Graphics/SVG/1.1/DTD/svg11.dtd">
<!-- Generated by graphviz version 2.40.1 (20161225.0304)
 -->
<!-- Title: oneDegreeRelationshipsDiagram Pages: 1 -->
<svg width="278pt" height="228pt"
 viewBox="0.00 0.00 278.00 228.20" xmlns="http://www.w3.org/2000/svg" xmlns:xlink="http://www.w3.org/1999/xlink">
<g id="graph0" class="graph" transform="scale(1 1) rotate(0) translate(4 224.2)">
<title>oneDegreeRelationshipsDiagram</title>
<polygon fill="#ffffff" stroke="transparent" points="-4,4 -4,-224.2 274,-224.2 274,4 -4,4"/>
<text text-anchor="middle" x="72.4936" y="-7.3" font-family="Helvetica,sans-Serif" font-size="11.00" fill="#000000">Generated by SchemaSpy</text>
<!-- ytr_download_status -->
<g id="node1" class="node">
<title>ytr_download_status</title>
<g id="a_node1"><a xlink:href="../../tables/ytr_download_status.html" xlink:title="ytr_download_status" target="_top">
<polygon fill="#ffffff" stroke="transparent" points="8,-38.2 8,-216.2 262,-216.2 262,-38.2 8,-38.2"/>
<polygon fill="#f5f5f5" stroke="transparent" points="10,-191.2 10,-214.2 260,-214.2 260,-191.2 10,-191.2"/>
<polygon fill="none" stroke="#000000" points="10,-191.2 10,-214.2 260,-214.2 260,-191.2 10,-191.2"/>
<text text-anchor="start" x="15" y="-199.8" font-family="Helvetica,sans-Serif" font-weight="bold" font-size="11.00" fill="#000000">ytr_download_status</text>
<text text-anchor="start" x="225.0437" y="-199.3" font-family="Helvetica,sans-Serif" font-size="11.00" fill="#000000">[table]</text>
<polygon fill="none" stroke="#000000" points="10,-169.2 10,-191.2 161,-191.2 161,-169.2 10,-169.2"/>
<image xlink:href="../../images/primaryKeys.png" width="11px" height="12px" preserveAspectRatio="xMinYMin meet" x="15" y="-186.2"/>
<text text-anchor="start" x="30" y="-176.3" font-family="Helvetica,sans-Serif" font-size="11.00" fill="#000000">id</text>
<polygon fill="none" stroke="#000000" points="161,-169.2 161,-191.2 260,-191.2 260,-169.2 161,-169.2"/>
<text text-anchor="start" x="164" y="-176.9" font-family="Helvetica,sans-Serif" font-size="11.00" fill="#000000">serial[10]</text>
<polygon fill="none" stroke="#000000" points="10,-147.2 10,-169.2 161,-169.2 161,-147.2 10,-147.2"/>
<text text-anchor="start" x="30" y="-154.3" font-family="Helvetica,sans-Serif" font-size="11.00" fill="#000000">aikaleima</text>
<polygon fill="none" stroke="#000000" points="161,-147.2 161,-169.2 260,-169.2 260,-147.2 161,-147.2"/>
<text text-anchor="start" x="164" y="-154.9" font-family="Helvetica,sans-Serif" font-size="11.00" fill="#000000">timestamptz[35,6]</text>
<polygon fill="none" stroke="#000000" points="10,-125.2 10,-147.2 161,-147.2 161,-125.2 10,-125.2"/>
<text text-anchor="start" x="30" y="-132.3" font-family="Helvetica,sans-Serif" font-size="11.00" fill="#000000">initialized</text>
<polygon fill="none" stroke="#000000" points="161,-125.2 161,-147.2 260,-147.2 260,-125.2 161,-125.2"/>
<text text-anchor="start" x="164" y="-132.9" font-family="Helvetica,sans-Serif" font-size="11.00" fill="#000000">timestamptz[35,6]</text>
<polygon fill="none" stroke="#000000" points="10,-103.2 10,-125.2 161,-125.2 161,-103.2 10,-103.2"/>
<text text-anchor="start" x="30" y="-110.3" font-family="Helvetica,sans-Serif" font-size="11.00" fill="#000000">completed</text>
<polygon fill="none" stroke="#000000" points="161,-103.2 161,-125.2 260,-125.2 260,-103.2 161,-103.2"/>
<text text-anchor="start" x="164" y="-110.9" font-family="Helvetica,sans-Serif" font-size="11.00" fill="#000000">timestamptz[35,6]</text>
<polygon fill="none" stroke="#000000" points="10,-81.2 10,-103.2 161,-103.2 161,-81.2 10,-81.2"/>
<text text-anchor="start" x="30" y="-88.3" font-family="Helvetica,sans-Serif" font-size="11.00" fill="#000000">modified_since_param</text>
<polygon fill="none" stroke="#000000" points="161,-81.2 161,-103.2 260,-103.2 260,-81.2 161,-81.2"/>
<text text-anchor="start" x="164" y="-88.9" font-family="Helvetica,sans-Serif" font-size="11.00" fill="#000000">date[13]</text>
<polygon fill="none" stroke="#000000" points="10,-59.2 10,-81.2 161,-81.2 161,-59.2 10,-59.2"/>
<text text-anchor="start" x="30" y="-66.3" font-family="Helvetica,sans-Serif" font-size="11.00" fill="#000000">data</text>
<polygon fill="none" stroke="#000000" points="161,-59.2 161,-81.2 260,-81.2 260,-59.2 161,-59.2"/>
<text text-anchor="start" x="163.7258" y="-66.9" font-family="Helvetica,sans-Serif" font-size="11.00" fill="#000000">jsonb[2147483647]</text>
<polygon fill="#ffffff" stroke="transparent" points="10,-40.2 10,-59.2 74,-59.2 74,-40.2 10,-40.2"/>
<polygon fill="none" stroke="#000000" points="10,-40.2 10,-59.2 74,-59.2 74,-40.2 10,-40.2"/>
<text text-anchor="start" x="13" y="-46.3" font-family="Helvetica,sans-Serif" font-size="11.00" fill="#000000">&lt; 0</text>
<polygon fill="#ffffff" stroke="transparent" points="74,-40.2 74,-59.2 161,-59.2 161,-40.2 74,-40.2"/>
<polygon fill="none" stroke="#000000" points="74,-40.2 74,-59.2 161,-59.2 161,-40.2 74,-40.2"/>
<text text-anchor="start" x="119.4956" y="-46.3" font-family="Helvetica,sans-Serif" font-size="11.00" fill="#000000">55 rows</text>
<polygon fill="#ffffff" stroke="transparent" points="161,-40.2 161,-59.2 260,-59.2 260,-40.2 161,-40.2"/>
<polygon fill="none" stroke="#000000" points="161,-40.2 161,-59.2 260,-59.2 260,-40.2 161,-40.2"/>
<text text-anchor="start" x="241.4053" y="-46.3" font-family="Helvetica,sans-Serif" font-size="11.00" fill="#000000">0 &gt;</text>
<polygon fill="none" stroke="#000000" stroke-width="2" points="9,-39.2 9,-215.2 261,-215.2 261,-39.2 9,-39.2"/>
</a>
</g>
</g>
</g>
</svg>
