<?xml version="1.0" encoding="UTF-8" standalone="no"?>
<!DOCTYPE svg PUBLIC "-//W3C//DTD SVG 1.1//EN"
 "http://www.w3.org/Graphics/SVG/1.1/DTD/svg11.dtd">
<!-- Generated by graphviz version 2.40.1 (20161225.0304)
 -->
<!-- Title: twoDegreesRelationshipsDiagram Pages: 1 -->
<svg width="732pt" height="399pt"
 viewBox="0.00 0.00 732.00 398.70" xmlns="http://www.w3.org/2000/svg" xmlns:xlink="http://www.w3.org/1999/xlink">
<g id="graph0" class="graph" transform="scale(1 1) rotate(0) translate(4 394.7)">
<title>twoDegreesRelationshipsDiagram</title>
<polygon fill="#ffffff" stroke="transparent" points="-4,4 -4,-394.7 728,-394.7 728,4 -4,4"/>
<text text-anchor="middle" x="72.4936" y="-7.3" font-family="Helvetica,sans-Serif" font-size="11.00" fill="#000000">Generated by SchemaSpy</text>
<!-- ytr_opiskeluoikeus -->
<g id="node1" class="node">
<title>ytr_opiskeluoikeus</title>
<g id="a_node1"><a xlink:href="../../tables/ytr_opiskeluoikeus.html" xlink:title="ytr_opiskeluoikeus" target="_top">
<polygon fill="#ffffff" stroke="transparent" points="138,-38.2 138,-385.2 391,-385.2 391,-38.2 138,-38.2"/>
<polygon fill="#f5f5f5" stroke="transparent" points="138.5,-361.7 138.5,-384.7 391.5,-384.7 391.5,-361.7 138.5,-361.7"/>
<polygon fill="none" stroke="#000000" points="138.5,-361.7 138.5,-384.7 391.5,-384.7 391.5,-361.7 138.5,-361.7"/>
<text text-anchor="start" x="143.5" y="-370.3" font-family="Helvetica,sans-Serif" font-weight="bold" font-size="11.00" fill="#000000">ytr_opiskeluoikeus</text>
<text text-anchor="start" x="356.5437" y="-369.8" font-family="Helvetica,sans-Serif" font-size="11.00" fill="#000000">[table]</text>
<polygon fill="none" stroke="#000000" points="138.5,-339.7 138.5,-361.7 391.5,-361.7 391.5,-339.7 138.5,-339.7"/>
<image xlink:href="../../images/primaryKeys.png" width="11px" height="12px" preserveAspectRatio="xMinYMin meet" x="143.5" y="-356.7"/>
<text text-anchor="start" x="158.5" y="-346.8" font-family="Helvetica,sans-Serif" font-size="11.00" fill="#000000">id</text>
<polygon fill="#ffffff" stroke="transparent" points="138.5,-317.7 138.5,-339.7 391.5,-339.7 391.5,-317.7 138.5,-317.7"/>
<polygon fill="none" stroke="#000000" points="138.5,-317.7 138.5,-339.7 391.5,-339.7 391.5,-317.7 138.5,-317.7"/>
<image xlink:href="../../images/foreignKeys.png" width="11px" height="12px" preserveAspectRatio="xMinYMin meet" x="143.5" y="-334.7"/>
<text text-anchor="start" x="158.5" y="-324.8" font-family="Helvetica,sans-Serif" font-size="11.00" fill="#000000">oppija_oid</text>
<polygon fill="#ffffff" stroke="transparent" points="138.5,-295.7 138.5,-317.7 391.5,-317.7 391.5,-295.7 138.5,-295.7"/>
<polygon fill="none" stroke="#000000" points="138.5,-295.7 138.5,-317.7 391.5,-317.7 391.5,-295.7 138.5,-295.7"/>
<text text-anchor="start" x="158.5" y="-302.8" font-family="Helvetica,sans-Serif" font-size="11.00" fill="#000000">aikaleima</text>
<polygon fill="#ffffff" stroke="transparent" points="138.5,-273.7 138.5,-295.7 391.5,-295.7 391.5,-273.7 138.5,-273.7"/>
<polygon fill="none" stroke="#000000" points="138.5,-273.7 138.5,-295.7 391.5,-295.7 391.5,-273.7 138.5,-273.7"/>
<text text-anchor="start" x="158.5" y="-280.8" font-family="Helvetica,sans-Serif" font-size="11.00" fill="#000000">oppilaitos_oid</text>
<polygon fill="#ffffff" stroke="transparent" points="138.5,-251.7 138.5,-273.7 391.5,-273.7 391.5,-251.7 138.5,-251.7"/>
<polygon fill="none" stroke="#000000" points="138.5,-251.7 138.5,-273.7 391.5,-273.7 391.5,-251.7 138.5,-251.7"/>
<text text-anchor="start" x="158.5" y="-258.8" font-family="Helvetica,sans-Serif" font-size="11.00" fill="#000000">sisaltava_opiskeluoikeus_oppilaitos_oid</text>
<polygon fill="#ffffff" stroke="transparent" points="138.5,-229.7 138.5,-251.7 391.5,-251.7 391.5,-229.7 138.5,-229.7"/>
<polygon fill="none" stroke="#000000" points="138.5,-229.7 138.5,-251.7 391.5,-251.7 391.5,-229.7 138.5,-229.7"/>
<text text-anchor="start" x="158.5" y="-236.8" font-family="Helvetica,sans-Serif" font-size="11.00" fill="#000000">oid</text>
<polygon fill="none" stroke="#000000" points="138.5,-207.7 138.5,-229.7 391.5,-229.7 391.5,-207.7 138.5,-207.7"/>
<image xlink:href="../../images/foreignKeys.png" width="11px" height="12px" preserveAspectRatio="xMinYMin meet" x="143.5" y="-224.7"/>
<text text-anchor="start" x="158.5" y="-214.8" font-family="Helvetica,sans-Serif" font-size="11.00" fill="#000000">sisaltava_opiskeluoikeus_oid</text>
<polygon fill="#ffffff" stroke="transparent" points="138.5,-185.7 138.5,-207.7 391.5,-207.7 391.5,-185.7 138.5,-185.7"/>
<polygon fill="none" stroke="#000000" points="138.5,-185.7 138.5,-207.7 391.5,-207.7 391.5,-185.7 138.5,-185.7"/>
<text text-anchor="start" x="158.5" y="-192.8" font-family="Helvetica,sans-Serif" font-size="11.00" fill="#000000">mitatoity</text>
<polygon fill="#ffffff" stroke="transparent" points="138.5,-163.7 138.5,-185.7 391.5,-185.7 391.5,-163.7 138.5,-163.7"/>
<polygon fill="none" stroke="#000000" points="138.5,-163.7 138.5,-185.7 391.5,-185.7 391.5,-163.7 138.5,-163.7"/>
<text text-anchor="start" x="158.5" y="-170.8" font-family="Helvetica,sans-Serif" font-size="11.00" fill="#000000">koulutusmuoto</text>
<polygon fill="#ffffff" stroke="transparent" points="138.5,-141.7 138.5,-163.7 391.5,-163.7 391.5,-141.7 138.5,-141.7"/>
<polygon fill="none" stroke="#000000" points="138.5,-141.7 138.5,-163.7 391.5,-163.7 391.5,-141.7 138.5,-141.7"/>
<text text-anchor="start" x="158.5" y="-148.8" font-family="Helvetica,sans-Serif" font-size="11.00" fill="#000000">alkamispaiva</text>
<polygon fill="#ffffff" stroke="transparent" points="138.5,-119.7 138.5,-141.7 391.5,-141.7 391.5,-119.7 138.5,-119.7"/>
<polygon fill="none" stroke="#000000" points="138.5,-119.7 138.5,-141.7 391.5,-141.7 391.5,-119.7 138.5,-119.7"/>
<text text-anchor="start" x="158.5" y="-126.8" font-family="Helvetica,sans-Serif" font-size="11.00" fill="#000000">paattymispaiva</text>
<polygon fill="#ffffff" stroke="transparent" points="138.5,-97.7 138.5,-119.7 391.5,-119.7 391.5,-97.7 138.5,-97.7"/>
<polygon fill="none" stroke="#000000" points="138.5,-97.7 138.5,-119.7 391.5,-119.7 391.5,-97.7 138.5,-97.7"/>
<text text-anchor="start" x="158.5" y="-104.8" font-family="Helvetica,sans-Serif" font-size="11.00" fill="#000000">suoritustyypit</text>
<polygon fill="#ffffff" stroke="transparent" points="138.5,-75.7 138.5,-97.7 391.5,-97.7 391.5,-75.7 138.5,-75.7"/>
<polygon fill="none" stroke="#000000" points="138.5,-75.7 138.5,-97.7 391.5,-97.7 391.5,-75.7 138.5,-75.7"/>
<text text-anchor="start" x="158.5" y="-82.8" font-family="Helvetica,sans-Serif" font-size="11.00" fill="#000000">poistettu</text>
<polygon fill="none" stroke="#000000" points="138.5,-56.7 138.5,-75.7 391.5,-75.7 391.5,-56.7 138.5,-56.7"/>
<text text-anchor="start" x="141.5" y="-62.8" font-family="Helvetica,sans-Serif" font-size="11.00" fill="#000000">...</text>
<polygon fill="#ffffff" stroke="transparent" points="138.5,-37.7 138.5,-56.7 245.5,-56.7 245.5,-37.7 138.5,-37.7"/>
<polygon fill="none" stroke="#000000" points="138.5,-37.7 138.5,-56.7 245.5,-56.7 245.5,-37.7 138.5,-37.7"/>
<text text-anchor="start" x="141.5" y="-43.8" font-family="Helvetica,sans-Serif" font-size="11.00" fill="#000000">&lt; 2</text>
<polygon fill="#ffffff" stroke="transparent" points="245.5,-37.7 245.5,-56.7 326.5,-56.7 326.5,-37.7 245.5,-37.7"/>
<polygon fill="none" stroke="#000000" points="245.5,-37.7 245.5,-56.7 326.5,-56.7 326.5,-37.7 245.5,-37.7"/>
<text text-anchor="start" x="291.1105" y="-43.8" font-family="Helvetica,sans-Serif" font-size="11.00" fill="#000000">0 rows</text>
<polygon fill="#ffffff" stroke="transparent" points="326.5,-37.7 326.5,-56.7 391.5,-56.7 391.5,-37.7 326.5,-37.7"/>
<polygon fill="none" stroke="#000000" points="326.5,-37.7 326.5,-56.7 391.5,-56.7 391.5,-37.7 326.5,-37.7"/>
<text text-anchor="start" x="372.9053" y="-43.8" font-family="Helvetica,sans-Serif" font-size="11.00" fill="#000000">2 &gt;</text>
</a>
</g>
</g>
<!-- henkilo -->
<g id="node2" class="node">
<title>henkilo</title>
<g id="a_node2"><a xlink:href="../../tables/henkilo.html" xlink:title="henkilo" target="_top">
<polygon fill="#ffffff" stroke="transparent" points="8,-301.2 8,-362.2 89,-362.2 89,-301.2 8,-301.2"/>
<polygon fill="#f5f5f5" stroke="transparent" points="8.5,-338.7 8.5,-361.7 89.5,-361.7 89.5,-338.7 8.5,-338.7"/>
<polygon fill="none" stroke="#000000" points="8.5,-338.7 8.5,-361.7 89.5,-361.7 89.5,-338.7 8.5,-338.7"/>
<text text-anchor="start" x="13.5" y="-347.3" font-family="Helvetica,sans-Serif" font-weight="bold" font-size="11.00" fill="#000000">henkilo</text>
<text text-anchor="start" x="55.0219" y="-346.8" font-family="Helvetica,sans-Serif" font-size="11.00" fill="#000000">[table]</text>
<polygon fill="none" stroke="#000000" points="8.5,-319.7 8.5,-338.7 89.5,-338.7 89.5,-319.7 8.5,-319.7"/>
<text text-anchor="start" x="11.5" y="-325.8" font-family="Helvetica,sans-Serif" font-size="11.00" fill="#000000">...</text>
<polygon fill="#ffffff" stroke="transparent" points="8.5,-300.7 8.5,-319.7 29.5,-319.7 29.5,-300.7 8.5,-300.7"/>
<polygon fill="none" stroke="#000000" points="8.5,-300.7 8.5,-319.7 29.5,-319.7 29.5,-300.7 8.5,-300.7"/>
<text text-anchor="start" x="11.2027" y="-306.8" font-family="Helvetica,sans-Serif" font-size="11.00" fill="#000000">&lt; 1</text>
<polygon fill="#ffffff" stroke="transparent" points="29.5,-300.7 29.5,-319.7 67.5,-319.7 67.5,-300.7 29.5,-300.7"/>
<polygon fill="none" stroke="#000000" points="29.5,-300.7 29.5,-319.7 67.5,-319.7 67.5,-300.7 29.5,-300.7"/>
<text text-anchor="start" x="32.3053" y="-306.8" font-family="Helvetica,sans-Serif" font-size="11.00" fill="#000000">0 rows</text>
<polygon fill="#ffffff" stroke="transparent" points="67.5,-300.7 67.5,-319.7 89.5,-319.7 89.5,-300.7 67.5,-300.7"/>
<polygon fill="none" stroke="#000000" points="67.5,-300.7 67.5,-319.7 89.5,-319.7 89.5,-300.7 67.5,-300.7"/>
<text text-anchor="start" x="70.9053" y="-306.8" font-family="Helvetica,sans-Serif" font-size="11.00" fill="#000000">3 &gt;</text>
</a>
</g>
</g>
<!-- ytr_opiskeluoikeus&#45;&gt;henkilo -->
<g id="edge1" class="edge">
<title>ytr_opiskeluoikeus:w&#45;&gt;henkilo:e</title>
<path fill="none" stroke="#000000" d="M127.7573,-328.7C114.1063,-328.7 107.1944,-328.7 89.5,-328.7"/>
<polygon fill="#000000" stroke="#000000" points="137.7,-324.7 137.7,-332.7 136.1,-332.7 136.1,-324.7 137.7,-324.7"/>
<polyline fill="none" stroke="#000000" points="138.5,-328.7 134.5,-328.7 "/>
<ellipse fill="none" stroke="#000000" cx="131.3" cy="-328.7001" rx="3.2" ry="3.2"/>
</g>
<!-- ytr_opiskeluoikeushistoria -->
<g id="node3" class="node">
<title>ytr_opiskeluoikeushistoria</title>
<g id="a_node3"><a xlink:href="../../tables/ytr_opiskeluoikeushistoria.html" xlink:title="ytr_opiskeluoikeushistoria" target="_top">
<polygon fill="#ffffff" stroke="transparent" points="440,-230.7 440,-386.7 716,-386.7 716,-230.7 440,-230.7"/>
<polygon fill="#f5f5f5" stroke="transparent" points="442,-361.7 442,-384.7 714,-384.7 714,-361.7 442,-361.7"/>
<polygon fill="none" stroke="#000000" points="442,-361.7 442,-384.7 714,-384.7 714,-361.7 442,-361.7"/>
<text text-anchor="start" x="447" y="-370.3" font-family="Helvetica,sans-Serif" font-weight="bold" font-size="11.00" fill="#000000">ytr_opiskeluoikeushistoria</text>
<text text-anchor="start" x="679.0437" y="-369.8" font-family="Helvetica,sans-Serif" font-size="11.00" fill="#000000">[table]</text>
<polygon fill="none" stroke="#000000" points="442,-339.7 442,-361.7 615,-361.7 615,-339.7 442,-339.7"/>
<image xlink:href="../../images/primaryKeys.png" width="11px" height="12px" preserveAspectRatio="xMinYMin meet" x="447" y="-356.7"/>
<text text-anchor="start" x="462" y="-346.8" font-family="Helvetica,sans-Serif" font-size="11.00" fill="#000000">opiskeluoikeus_id</text>
<polygon fill="none" stroke="#000000" points="615,-339.7 615,-361.7 714,-361.7 714,-339.7 615,-339.7"/>
<text text-anchor="start" x="618" y="-347.4" font-family="Helvetica,sans-Serif" font-size="11.00" fill="#000000">int4[10]</text>
<polygon fill="none" stroke="#000000" points="442,-317.7 442,-339.7 615,-339.7 615,-317.7 442,-317.7"/>
<text text-anchor="start" x="462" y="-324.8" font-family="Helvetica,sans-Serif" font-size="11.00" fill="#000000">aikaleima</text>
<polygon fill="none" stroke="#000000" points="615,-317.7 615,-339.7 714,-339.7 714,-317.7 615,-317.7"/>
<text text-anchor="start" x="618" y="-325.4" font-family="Helvetica,sans-Serif" font-size="11.00" fill="#000000">timestamptz[35,6]</text>
<polygon fill="none" stroke="#000000" points="442,-295.7 442,-317.7 615,-317.7 615,-295.7 442,-295.7"/>
<text text-anchor="start" x="462" y="-302.8" font-family="Helvetica,sans-Serif" font-size="11.00" fill="#000000">kayttaja_oid</text>
<polygon fill="none" stroke="#000000" points="615,-295.7 615,-317.7 714,-317.7 714,-295.7 615,-295.7"/>
<text text-anchor="start" x="618" y="-303.4" font-family="Helvetica,sans-Serif" font-size="11.00" fill="#000000">text[2147483647]</text>
<polygon fill="none" stroke="#000000" points="442,-273.7 442,-295.7 615,-295.7 615,-273.7 442,-273.7"/>
<text text-anchor="start" x="462" y="-280.8" font-family="Helvetica,sans-Serif" font-size="11.00" fill="#000000">muutos</text>
<polygon fill="none" stroke="#000000" points="615,-273.7 615,-295.7 714,-295.7 714,-273.7 615,-273.7"/>
<text text-anchor="start" x="617.7258" y="-281.4" font-family="Helvetica,sans-Serif" font-size="11.00" fill="#000000">jsonb[2147483647]</text>
<polygon fill="none" stroke="#000000" points="442,-251.7 442,-273.7 615,-273.7 615,-251.7 442,-251.7"/>
<image xlink:href="../../images/primaryKeys.png" width="11px" height="12px" preserveAspectRatio="xMinYMin meet" x="447" y="-268.7"/>
<text text-anchor="start" x="462" y="-258.8" font-family="Helvetica,sans-Serif" font-size="11.00" fill="#000000">versionumero</text>
<polygon fill="none" stroke="#000000" points="615,-251.7 615,-273.7 714,-273.7 714,-251.7 615,-251.7"/>
<text text-anchor="start" x="618" y="-259.4" font-family="Helvetica,sans-Serif" font-size="11.00" fill="#000000">int4[10]</text>
<polygon fill="#ffffff" stroke="transparent" points="442,-232.7 442,-251.7 520,-251.7 520,-232.7 442,-232.7"/>
<polygon fill="none" stroke="#000000" points="442,-232.7 442,-251.7 520,-251.7 520,-232.7 442,-232.7"/>
<text text-anchor="start" x="445" y="-238.8" font-family="Helvetica,sans-Serif" font-size="11.00" fill="#000000">&lt; 1</text>
<polygon fill="#ffffff" stroke="transparent" points="520,-232.7 520,-251.7 615,-251.7 615,-232.7 520,-232.7"/>
<polygon fill="none" stroke="#000000" points="520,-232.7 520,-251.7 615,-251.7 615,-232.7 520,-232.7"/>
<text text-anchor="start" x="579.6105" y="-238.8" font-family="Helvetica,sans-Serif" font-size="11.00" fill="#000000">0 rows</text>
<polygon fill="#ffffff" stroke="transparent" points="615,-232.7 615,-251.7 714,-251.7 714,-232.7 615,-232.7"/>
<polygon fill="none" stroke="#000000" points="615,-232.7 615,-251.7 714,-251.7 714,-232.7 615,-232.7"/>
<text text-anchor="start" x="695.4053" y="-238.8" font-family="Helvetica,sans-Serif" font-size="11.00" fill="#000000">0 &gt;</text>
<polygon fill="none" stroke="#000000" stroke-width="2" points="441,-231.7 441,-385.7 715,-385.7 715,-231.7 441,-231.7"/>
</a>
</g>
</g>
<!-- ytr_opiskeluoikeushistoria&#45;&gt;ytr_opiskeluoikeus -->
<g id="edge2" class="edge">
<title>ytr_opiskeluoikeushistoria:w&#45;&gt;ytr_opiskeluoikeus:e</title>
<path fill="none" stroke="#000000" d="M427.4203,-350.7C415.5435,-350.7 408.158,-350.7 391.5,-350.7"/>
<polygon fill="#000000" stroke="#000000" points="434,-350.7001 442,-354.3 438,-350.7 442,-350.7 442,-350.7 442,-350.7 438,-350.7 442,-347.1 434,-350.7001 434,-350.7001"/>
<ellipse fill="none" stroke="#000000" cx="430.8" cy="-350.7001" rx="3.2" ry="3.2"/>
</g>
</g>
</svg>
