<?xml version="1.0" encoding="UTF-8" standalone="no"?>
<!DOCTYPE svg PUBLIC "-//W3C//DTD SVG 1.1//EN"
 "http://www.w3.org/Graphics/SVG/1.1/DTD/svg11.dtd">
<!-- Generated by graphviz version 2.40.1 (20161225.0304)
 -->
<!-- Title: oneDegreeRelationshipsDiagram Pages: 1 -->
<svg width="380pt" height="206pt"
 viewBox="0.00 0.00 380.00 206.20" xmlns="http://www.w3.org/2000/svg" xmlns:xlink="http://www.w3.org/1999/xlink">
<g id="graph0" class="graph" transform="scale(1 1) rotate(0) translate(4 202.2)">
<title>oneDegreeRelationshipsDiagram</title>
<polygon fill="#ffffff" stroke="transparent" points="-4,4 -4,-202.2 376,-202.2 376,4 -4,4"/>
<text text-anchor="middle" x="72.4936" y="-7.3" font-family="Helvetica,sans-Serif" font-size="11.00" fill="#000000">Generated by SchemaSpy</text>
<!-- ytr_opiskeluoikeushistoria_virheet -->
<g id="node1" class="node">
<title>ytr_opiskeluoikeushistoria_virheet</title>
<g id="a_node1"><a xlink:href="../../tables/ytr_opiskeluoikeushistoria_virheet.html" xlink:title="ytr_opiskeluoikeushistoria_virheet" target="_top">
<polygon fill="#ffffff" stroke="transparent" points="8,-38.2 8,-194.2 364,-194.2 364,-38.2 8,-38.2"/>
<polygon fill="#f5f5f5" stroke="transparent" points="10,-169.2 10,-192.2 362,-192.2 362,-169.2 10,-169.2"/>
<polygon fill="none" stroke="#000000" points="10,-169.2 10,-192.2 362,-192.2 362,-169.2 10,-169.2"/>
<text text-anchor="start" x="15" y="-177.8" font-family="Helvetica,sans-Serif" font-weight="bold" font-size="11.00" fill="#000000">ytr_opiskeluoikeushistoria_virheet</text>
<text text-anchor="start" x="327.0437" y="-177.3" font-family="Helvetica,sans-Serif" font-size="11.00" fill="#000000">[table]</text>
<polygon fill="none" stroke="#000000" points="10,-147.2 10,-169.2 263,-169.2 263,-147.2 10,-147.2"/>
<image xlink:href="../../images/primaryKeys.png" width="11px" height="12px" preserveAspectRatio="xMinYMin meet" x="15" y="-164.2"/>
<text text-anchor="start" x="30" y="-154.3" font-family="Helvetica,sans-Serif" font-size="11.00" fill="#000000">id</text>
<polygon fill="none" stroke="#000000" points="263,-147.2 263,-169.2 362,-169.2 362,-147.2 263,-147.2"/>
<text text-anchor="start" x="266" y="-154.9" font-family="Helvetica,sans-Serif" font-size="11.00" fill="#000000">int4[10]</text>
<polygon fill="none" stroke="#000000" points="10,-125.2 10,-147.2 263,-147.2 263,-125.2 10,-125.2"/>
<text text-anchor="start" x="30" y="-132.3" font-family="Helvetica,sans-Serif" font-size="11.00" fill="#000000">aikaleima</text>
<polygon fill="none" stroke="#000000" points="263,-125.2 263,-147.2 362,-147.2 362,-125.2 263,-125.2"/>
<text text-anchor="start" x="266" y="-132.9" font-family="Helvetica,sans-Serif" font-size="11.00" fill="#000000">timetz[21,6]</text>
<polygon fill="none" stroke="#000000" points="10,-103.2 10,-125.2 263,-125.2 263,-103.2 10,-103.2"/>
<text text-anchor="start" x="30" y="-110.3" font-family="Helvetica,sans-Serif" font-size="11.00" fill="#000000">opiskeluoikeus</text>
<polygon fill="none" stroke="#000000" points="263,-103.2 263,-125.2 362,-125.2 362,-103.2 263,-103.2"/>
<text text-anchor="start" x="265.7258" y="-110.9" font-family="Helvetica,sans-Serif" font-size="11.00" fill="#000000">jsonb[2147483647]</text>
<polygon fill="none" stroke="#000000" points="10,-81.2 10,-103.2 263,-103.2 263,-81.2 10,-81.2"/>
<text text-anchor="start" x="30" y="-88.3" font-family="Helvetica,sans-Serif" font-size="11.00" fill="#000000">historia</text>
<polygon fill="none" stroke="#000000" points="263,-81.2 263,-103.2 362,-103.2 362,-81.2 263,-81.2"/>
<text text-anchor="start" x="265.7258" y="-88.9" font-family="Helvetica,sans-Serif" font-size="11.00" fill="#000000">jsonb[2147483647]</text>
<polygon fill="none" stroke="#000000" points="10,-59.2 10,-81.2 263,-81.2 263,-59.2 10,-59.2"/>
<text text-anchor="start" x="30" y="-66.3" font-family="Helvetica,sans-Serif" font-size="11.00" fill="#000000">diff</text>
<polygon fill="none" stroke="#000000" points="263,-59.2 263,-81.2 362,-81.2 362,-59.2 263,-59.2"/>
<text text-anchor="start" x="265.7258" y="-66.9" font-family="Helvetica,sans-Serif" font-size="11.00" fill="#000000">jsonb[2147483647]</text>
<polygon fill="#ffffff" stroke="transparent" points="10,-40.2 10,-59.2 141,-59.2 141,-40.2 10,-40.2"/>
<polygon fill="none" stroke="#000000" points="10,-40.2 10,-59.2 141,-59.2 141,-40.2 10,-40.2"/>
<text text-anchor="start" x="13" y="-46.3" font-family="Helvetica,sans-Serif" font-size="11.00" fill="#000000">&lt; 0</text>
<polygon fill="#ffffff" stroke="transparent" points="141,-40.2 141,-59.2 263,-59.2 263,-40.2 141,-40.2"/>
<polygon fill="none" stroke="#000000" points="141,-40.2 141,-59.2 263,-59.2 263,-40.2 141,-40.2"/>
<text text-anchor="start" x="253.8862" y="-46.3" font-family="Helvetica,sans-Serif" font-size="11.00" fill="#000000"> &#160;</text>
<polygon fill="#ffffff" stroke="transparent" points="263,-40.2 263,-59.2 362,-59.2 362,-40.2 263,-40.2"/>
<polygon fill="none" stroke="#000000" points="263,-40.2 263,-59.2 362,-59.2 362,-40.2 263,-40.2"/>
<text text-anchor="start" x="343.4053" y="-46.3" font-family="Helvetica,sans-Serif" font-size="11.00" fill="#000000">0 &gt;</text>
<polygon fill="none" stroke="#000000" stroke-width="2" points="9,-39.2 9,-193.2 363,-193.2 363,-39.2 9,-39.2"/>
</a>
</g>
</g>
</g>
</svg>
