<?xml version="1.0" encoding="UTF-8" standalone="no"?>
<!DOCTYPE svg PUBLIC "-//W3C//DTD SVG 1.1//EN"
 "http://www.w3.org/Graphics/SVG/1.1/DTD/svg11.dtd">
<!-- Generated by graphviz version 2.40.1 (20161225.0304)
 -->
<!-- Title: oneDegreeRelationshipsDiagram Pages: 1 -->
<svg width="613pt" height="399pt"
 viewBox="0.00 0.00 613.00 398.70" xmlns="http://www.w3.org/2000/svg" xmlns:xlink="http://www.w3.org/1999/xlink">
<g id="graph0" class="graph" transform="scale(1 1) rotate(0) translate(4 394.7)">
<title>oneDegreeRelationshipsDiagram</title>
<polygon fill="#ffffff" stroke="transparent" points="-4,4 -4,-394.7 609,-394.7 609,4 -4,4"/>
<text text-anchor="middle" x="72.4936" y="-7.3" font-family="Helvetica,sans-Serif" font-size="11.00" fill="#000000">Generated by SchemaSpy</text>
<!-- ytr_opiskeluoikeushistoria -->
<g id="node1" class="node">
<title>ytr_opiskeluoikeushistoria</title>
<g id="a_node1"><a xlink:href="../../tables/ytr_opiskeluoikeushistoria.html" xlink:title="ytr_opiskeluoikeushistoria" target="_top">
<polygon fill="#ffffff" stroke="transparent" points="314,-230.7 314,-386.7 597,-386.7 597,-230.7 314,-230.7"/>
<polygon fill="#f5f5f5" stroke="transparent" points="316.5,-361.7 316.5,-384.7 595.5,-384.7 595.5,-361.7 316.5,-361.7"/>
<polygon fill="none" stroke="#000000" points="316.5,-361.7 316.5,-384.7 595.5,-384.7 595.5,-361.7 316.5,-361.7"/>
<text text-anchor="start" x="321.5" y="-370.3" font-family="Helvetica,sans-Serif" font-weight="bold" font-size="11.00" fill="#000000">ytr_opiskeluoikeushistoria</text>
<text text-anchor="start" x="560.5437" y="-369.8" font-family="Helvetica,sans-Serif" font-size="11.00" fill="#000000">[table]</text>
<polygon fill="none" stroke="#000000" points="316.5,-339.7 316.5,-361.7 496.5,-361.7 496.5,-339.7 316.5,-339.7"/>
<image xlink:href="../../images/primaryKeys.png" width="11px" height="12px" preserveAspectRatio="xMinYMin meet" x="321.5" y="-356.7"/>
<text text-anchor="start" x="336.5" y="-346.8" font-family="Helvetica,sans-Serif" font-size="11.00" fill="#000000">opiskeluoikeus_id</text>
<polygon fill="none" stroke="#000000" points="496.5,-339.7 496.5,-361.7 595.5,-361.7 595.5,-339.7 496.5,-339.7"/>
<text text-anchor="start" x="499.5" y="-347.4" font-family="Helvetica,sans-Serif" font-size="11.00" fill="#000000">int4[10]</text>
<polygon fill="none" stroke="#000000" points="316.5,-317.7 316.5,-339.7 496.5,-339.7 496.5,-317.7 316.5,-317.7"/>
<text text-anchor="start" x="336.5" y="-324.8" font-family="Helvetica,sans-Serif" font-size="11.00" fill="#000000">aikaleima</text>
<polygon fill="none" stroke="#000000" points="496.5,-317.7 496.5,-339.7 595.5,-339.7 595.5,-317.7 496.5,-317.7"/>
<text text-anchor="start" x="499.5" y="-325.4" font-family="Helvetica,sans-Serif" font-size="11.00" fill="#000000">timestamptz[35,6]</text>
<polygon fill="none" stroke="#000000" points="316.5,-295.7 316.5,-317.7 496.5,-317.7 496.5,-295.7 316.5,-295.7"/>
<text text-anchor="start" x="336.5" y="-302.8" font-family="Helvetica,sans-Serif" font-size="11.00" fill="#000000">kayttaja_oid</text>
<polygon fill="none" stroke="#000000" points="496.5,-295.7 496.5,-317.7 595.5,-317.7 595.5,-295.7 496.5,-295.7"/>
<text text-anchor="start" x="499.5" y="-303.4" font-family="Helvetica,sans-Serif" font-size="11.00" fill="#000000">text[2147483647]</text>
<polygon fill="none" stroke="#000000" points="316.5,-273.7 316.5,-295.7 496.5,-295.7 496.5,-273.7 316.5,-273.7"/>
<text text-anchor="start" x="336.5" y="-280.8" font-family="Helvetica,sans-Serif" font-size="11.00" fill="#000000">muutos</text>
<polygon fill="none" stroke="#000000" points="496.5,-273.7 496.5,-295.7 595.5,-295.7 595.5,-273.7 496.5,-273.7"/>
<text text-anchor="start" x="499.2258" y="-281.4" font-family="Helvetica,sans-Serif" font-size="11.00" fill="#000000">jsonb[2147483647]</text>
<polygon fill="none" stroke="#000000" points="316.5,-251.7 316.5,-273.7 496.5,-273.7 496.5,-251.7 316.5,-251.7"/>
<image xlink:href="../../images/primaryKeys.png" width="11px" height="12px" preserveAspectRatio="xMinYMin meet" x="321.5" y="-268.7"/>
<text text-anchor="start" x="336.5" y="-258.8" font-family="Helvetica,sans-Serif" font-size="11.00" fill="#000000">versionumero</text>
<polygon fill="none" stroke="#000000" points="496.5,-251.7 496.5,-273.7 595.5,-273.7 595.5,-251.7 496.5,-251.7"/>
<text text-anchor="start" x="499.5" y="-259.4" font-family="Helvetica,sans-Serif" font-size="11.00" fill="#000000">int4[10]</text>
<polygon fill="#ffffff" stroke="transparent" points="316.5,-232.7 316.5,-251.7 397.5,-251.7 397.5,-232.7 316.5,-232.7"/>
<polygon fill="none" stroke="#000000" points="316.5,-232.7 316.5,-251.7 397.5,-251.7 397.5,-232.7 316.5,-232.7"/>
<text text-anchor="start" x="319.5" y="-238.8" font-family="Helvetica,sans-Serif" font-size="11.00" fill="#000000">&lt; 1</text>
<polygon fill="#ffffff" stroke="transparent" points="397.5,-232.7 397.5,-251.7 496.5,-251.7 496.5,-232.7 397.5,-232.7"/>
<polygon fill="none" stroke="#000000" points="397.5,-232.7 397.5,-251.7 496.5,-251.7 496.5,-232.7 397.5,-232.7"/>
<text text-anchor="start" x="461.1105" y="-238.8" font-family="Helvetica,sans-Serif" font-size="11.00" fill="#000000">6 rows</text>
<polygon fill="#ffffff" stroke="transparent" points="496.5,-232.7 496.5,-251.7 595.5,-251.7 595.5,-232.7 496.5,-232.7"/>
<polygon fill="none" stroke="#000000" points="496.5,-232.7 496.5,-251.7 595.5,-251.7 595.5,-232.7 496.5,-232.7"/>
<text text-anchor="start" x="576.9053" y="-238.8" font-family="Helvetica,sans-Serif" font-size="11.00" fill="#000000">0 &gt;</text>
<polygon fill="none" stroke="#000000" stroke-width="2" points="315,-231.7 315,-385.7 596,-385.7 596,-231.7 315,-231.7"/>
</a>
</g>
</g>
<!-- ytr_opiskeluoikeus -->
<g id="node2" class="node">
<title>ytr_opiskeluoikeus</title>
<g id="a_node2"><a xlink:href="../../tables/ytr_opiskeluoikeus.html" xlink:title="ytr_opiskeluoikeus" target="_top">
<polygon fill="#ffffff" stroke="transparent" points="8,-38.2 8,-385.2 265,-385.2 265,-38.2 8,-38.2"/>
<polygon fill="#f5f5f5" stroke="transparent" points="8.5,-361.7 8.5,-384.7 265.5,-384.7 265.5,-361.7 8.5,-361.7"/>
<polygon fill="none" stroke="#000000" points="8.5,-361.7 8.5,-384.7 265.5,-384.7 265.5,-361.7 8.5,-361.7"/>
<text text-anchor="start" x="13.5" y="-370.3" font-family="Helvetica,sans-Serif" font-weight="bold" font-size="11.00" fill="#000000">ytr_opiskeluoikeus</text>
<text text-anchor="start" x="230.5437" y="-369.8" font-family="Helvetica,sans-Serif" font-size="11.00" fill="#000000">[table]</text>
<polygon fill="none" stroke="#000000" points="8.5,-339.7 8.5,-361.7 265.5,-361.7 265.5,-339.7 8.5,-339.7"/>
<image xlink:href="../../images/primaryKeys.png" width="11px" height="12px" preserveAspectRatio="xMinYMin meet" x="13.5" y="-356.7"/>
<text text-anchor="start" x="28.5" y="-346.8" font-family="Helvetica,sans-Serif" font-size="11.00" fill="#000000">id</text>
<polygon fill="#ffffff" stroke="transparent" points="8.5,-317.7 8.5,-339.7 265.5,-339.7 265.5,-317.7 8.5,-317.7"/>
<polygon fill="none" stroke="#000000" points="8.5,-317.7 8.5,-339.7 265.5,-339.7 265.5,-317.7 8.5,-317.7"/>
<image xlink:href="../../images/foreignKeys.png" width="11px" height="12px" preserveAspectRatio="xMinYMin meet" x="13.5" y="-334.7"/>
<text text-anchor="start" x="28.5" y="-324.8" font-family="Helvetica,sans-Serif" font-size="11.00" fill="#000000">oppija_oid</text>
<polygon fill="#ffffff" stroke="transparent" points="8.5,-295.7 8.5,-317.7 265.5,-317.7 265.5,-295.7 8.5,-295.7"/>
<polygon fill="none" stroke="#000000" points="8.5,-295.7 8.5,-317.7 265.5,-317.7 265.5,-295.7 8.5,-295.7"/>
<text text-anchor="start" x="28.5" y="-302.8" font-family="Helvetica,sans-Serif" font-size="11.00" fill="#000000">aikaleima</text>
<polygon fill="#ffffff" stroke="transparent" points="8.5,-273.7 8.5,-295.7 265.5,-295.7 265.5,-273.7 8.5,-273.7"/>
<polygon fill="none" stroke="#000000" points="8.5,-273.7 8.5,-295.7 265.5,-295.7 265.5,-273.7 8.5,-273.7"/>
<text text-anchor="start" x="28.5" y="-280.8" font-family="Helvetica,sans-Serif" font-size="11.00" fill="#000000">oppilaitos_oid</text>
<polygon fill="#ffffff" stroke="transparent" points="8.5,-251.7 8.5,-273.7 265.5,-273.7 265.5,-251.7 8.5,-251.7"/>
<polygon fill="none" stroke="#000000" points="8.5,-251.7 8.5,-273.7 265.5,-273.7 265.5,-251.7 8.5,-251.7"/>
<text text-anchor="start" x="28.5" y="-258.8" font-family="Helvetica,sans-Serif" font-size="11.00" fill="#000000">sisaltava_opiskeluoikeus_oppilaitos_oid</text>
<polygon fill="#ffffff" stroke="transparent" points="8.5,-229.7 8.5,-251.7 265.5,-251.7 265.5,-229.7 8.5,-229.7"/>
<polygon fill="none" stroke="#000000" points="8.5,-229.7 8.5,-251.7 265.5,-251.7 265.5,-229.7 8.5,-229.7"/>
<text text-anchor="start" x="28.5" y="-236.8" font-family="Helvetica,sans-Serif" font-size="11.00" fill="#000000">oid</text>
<polygon fill="none" stroke="#000000" points="8.5,-207.7 8.5,-229.7 265.5,-229.7 265.5,-207.7 8.5,-207.7"/>
<image xlink:href="../../images/foreignKeys.png" width="11px" height="12px" preserveAspectRatio="xMinYMin meet" x="13.5" y="-224.7"/>
<text text-anchor="start" x="28.5" y="-214.8" font-family="Helvetica,sans-Serif" font-size="11.00" fill="#000000">sisaltava_opiskeluoikeus_oid</text>
<polygon fill="#ffffff" stroke="transparent" points="8.5,-185.7 8.5,-207.7 265.5,-207.7 265.5,-185.7 8.5,-185.7"/>
<polygon fill="none" stroke="#000000" points="8.5,-185.7 8.5,-207.7 265.5,-207.7 265.5,-185.7 8.5,-185.7"/>
<text text-anchor="start" x="28.5" y="-192.8" font-family="Helvetica,sans-Serif" font-size="11.00" fill="#000000">mitatoity</text>
<polygon fill="#ffffff" stroke="transparent" points="8.5,-163.7 8.5,-185.7 265.5,-185.7 265.5,-163.7 8.5,-163.7"/>
<polygon fill="none" stroke="#000000" points="8.5,-163.7 8.5,-185.7 265.5,-185.7 265.5,-163.7 8.5,-163.7"/>
<text text-anchor="start" x="28.5" y="-170.8" font-family="Helvetica,sans-Serif" font-size="11.00" fill="#000000">koulutusmuoto</text>
<polygon fill="#ffffff" stroke="transparent" points="8.5,-141.7 8.5,-163.7 265.5,-163.7 265.5,-141.7 8.5,-141.7"/>
<polygon fill="none" stroke="#000000" points="8.5,-141.7 8.5,-163.7 265.5,-163.7 265.5,-141.7 8.5,-141.7"/>
<text text-anchor="start" x="28.5" y="-148.8" font-family="Helvetica,sans-Serif" font-size="11.00" fill="#000000">alkamispaiva</text>
<polygon fill="#ffffff" stroke="transparent" points="8.5,-119.7 8.5,-141.7 265.5,-141.7 265.5,-119.7 8.5,-119.7"/>
<polygon fill="none" stroke="#000000" points="8.5,-119.7 8.5,-141.7 265.5,-141.7 265.5,-119.7 8.5,-119.7"/>
<text text-anchor="start" x="28.5" y="-126.8" font-family="Helvetica,sans-Serif" font-size="11.00" fill="#000000">paattymispaiva</text>
<polygon fill="#ffffff" stroke="transparent" points="8.5,-97.7 8.5,-119.7 265.5,-119.7 265.5,-97.7 8.5,-97.7"/>
<polygon fill="none" stroke="#000000" points="8.5,-97.7 8.5,-119.7 265.5,-119.7 265.5,-97.7 8.5,-97.7"/>
<text text-anchor="start" x="28.5" y="-104.8" font-family="Helvetica,sans-Serif" font-size="11.00" fill="#000000">suoritustyypit</text>
<polygon fill="#ffffff" stroke="transparent" points="8.5,-75.7 8.5,-97.7 265.5,-97.7 265.5,-75.7 8.5,-75.7"/>
<polygon fill="none" stroke="#000000" points="8.5,-75.7 8.5,-97.7 265.5,-97.7 265.5,-75.7 8.5,-75.7"/>
<text text-anchor="start" x="28.5" y="-82.8" font-family="Helvetica,sans-Serif" font-size="11.00" fill="#000000">poistettu</text>
<polygon fill="none" stroke="#000000" points="8.5,-56.7 8.5,-75.7 265.5,-75.7 265.5,-56.7 8.5,-56.7"/>
<text text-anchor="start" x="11.5" y="-62.8" font-family="Helvetica,sans-Serif" font-size="11.00" fill="#000000">...</text>
<polygon fill="#ffffff" stroke="transparent" points="8.5,-37.7 8.5,-56.7 117.5,-56.7 117.5,-37.7 8.5,-37.7"/>
<polygon fill="none" stroke="#000000" points="8.5,-37.7 8.5,-56.7 117.5,-56.7 117.5,-37.7 8.5,-37.7"/>
<text text-anchor="start" x="11.5" y="-43.8" font-family="Helvetica,sans-Serif" font-size="11.00" fill="#000000">&lt; 2</text>
<polygon fill="#ffffff" stroke="transparent" points="117.5,-37.7 117.5,-56.7 199.5,-56.7 199.5,-37.7 117.5,-37.7"/>
<polygon fill="none" stroke="#000000" points="117.5,-37.7 117.5,-56.7 199.5,-56.7 199.5,-37.7 117.5,-37.7"/>
<text text-anchor="start" x="164.1105" y="-43.8" font-family="Helvetica,sans-Serif" font-size="11.00" fill="#000000">6 rows</text>
<polygon fill="#ffffff" stroke="transparent" points="199.5,-37.7 199.5,-56.7 265.5,-56.7 265.5,-37.7 199.5,-37.7"/>
<polygon fill="none" stroke="#000000" points="199.5,-37.7 199.5,-56.7 265.5,-56.7 265.5,-37.7 199.5,-37.7"/>
<text text-anchor="start" x="246.9053" y="-43.8" font-family="Helvetica,sans-Serif" font-size="11.00" fill="#000000">2 &gt;</text>
</a>
</g>
</g>
<!-- ytr_opiskeluoikeushistoria&#45;&gt;ytr_opiskeluoikeus -->
<g id="edge1" class="edge">
<title>ytr_opiskeluoikeushistoria:w&#45;&gt;ytr_opiskeluoikeus:e</title>
<path fill="none" stroke="#000000" d="M301.776,-350.7C289.7815,-350.7 282.3229,-350.7 265.5,-350.7"/>
<polygon fill="#000000" stroke="#000000" points="308.5,-350.7001 316.5,-354.3 312.5,-350.7 316.5,-350.7 316.5,-350.7 316.5,-350.7 312.5,-350.7 316.5,-347.1 308.5,-350.7001 308.5,-350.7001"/>
<ellipse fill="none" stroke="#000000" cx="305.3" cy="-350.7001" rx="3.2" ry="3.2"/>
</g>
</g>
</svg>
