<?xml version="1.0" encoding="UTF-8" standalone="no"?>
<!DOCTYPE svg PUBLIC "-//W3C//DTD SVG 1.1//EN"
 "http://www.w3.org/Graphics/SVG/1.1/DTD/svg11.dtd">
<!-- Generated by graphviz version 2.40.1 (20161225.0304)
 -->
<!-- Title: twoDegreesRelationshipsDiagram Pages: 1 -->
<svg width="743pt" height="399pt"
 viewBox="0.00 0.00 743.00 398.70" xmlns="http://www.w3.org/2000/svg" xmlns:xlink="http://www.w3.org/1999/xlink">
<g id="graph0" class="graph" transform="scale(1 1) rotate(0) translate(4 394.7)">
<title>twoDegreesRelationshipsDiagram</title>
<polygon fill="#ffffff" stroke="transparent" points="-4,4 -4,-394.7 739,-394.7 739,4 -4,4"/>
<text text-anchor="middle" x="72.4936" y="-7.3" font-family="Helvetica,sans-Serif" font-size="11.00" fill="#000000">Generated by SchemaSpy</text>
<!-- ytr_opiskeluoikeus -->
<g id="node1" class="node">
<title>ytr_opiskeluoikeus</title>
<g id="a_node1"><a xlink:href="../../tables/ytr_opiskeluoikeus.html" xlink:title="ytr_opiskeluoikeus" target="_top">
<polygon fill="#ffffff" stroke="transparent" points="140,-38.2 140,-385.2 396,-385.2 396,-38.2 140,-38.2"/>
<polygon fill="#f5f5f5" stroke="transparent" points="140,-361.7 140,-384.7 396,-384.7 396,-361.7 140,-361.7"/>
<polygon fill="none" stroke="#000000" points="140,-361.7 140,-384.7 396,-384.7 396,-361.7 140,-361.7"/>
<text text-anchor="start" x="145" y="-370.3" font-family="Helvetica,sans-Serif" font-weight="bold" font-size="11.00" fill="#000000">ytr_opiskeluoikeus</text>
<text text-anchor="start" x="361.0437" y="-369.8" font-family="Helvetica,sans-Serif" font-size="11.00" fill="#000000">[table]</text>
<polygon fill="none" stroke="#000000" points="140,-339.7 140,-361.7 396,-361.7 396,-339.7 140,-339.7"/>
<image xlink:href="../../images/primaryKeys.png" width="11px" height="12px" preserveAspectRatio="xMinYMin meet" x="145" y="-356.7"/>
<text text-anchor="start" x="160" y="-346.8" font-family="Helvetica,sans-Serif" font-size="11.00" fill="#000000">id</text>
<polygon fill="#ffffff" stroke="transparent" points="140,-317.7 140,-339.7 396,-339.7 396,-317.7 140,-317.7"/>
<polygon fill="none" stroke="#000000" points="140,-317.7 140,-339.7 396,-339.7 396,-317.7 140,-317.7"/>
<image xlink:href="../../images/foreignKeys.png" width="11px" height="12px" preserveAspectRatio="xMinYMin meet" x="145" y="-334.7"/>
<text text-anchor="start" x="160" y="-324.8" font-family="Helvetica,sans-Serif" font-size="11.00" fill="#000000">oppija_oid</text>
<polygon fill="#ffffff" stroke="transparent" points="140,-295.7 140,-317.7 396,-317.7 396,-295.7 140,-295.7"/>
<polygon fill="none" stroke="#000000" points="140,-295.7 140,-317.7 396,-317.7 396,-295.7 140,-295.7"/>
<text text-anchor="start" x="160" y="-302.8" font-family="Helvetica,sans-Serif" font-size="11.00" fill="#000000">aikaleima</text>
<polygon fill="#ffffff" stroke="transparent" points="140,-273.7 140,-295.7 396,-295.7 396,-273.7 140,-273.7"/>
<polygon fill="none" stroke="#000000" points="140,-273.7 140,-295.7 396,-295.7 396,-273.7 140,-273.7"/>
<text text-anchor="start" x="160" y="-280.8" font-family="Helvetica,sans-Serif" font-size="11.00" fill="#000000">oppilaitos_oid</text>
<polygon fill="#ffffff" stroke="transparent" points="140,-251.7 140,-273.7 396,-273.7 396,-251.7 140,-251.7"/>
<polygon fill="none" stroke="#000000" points="140,-251.7 140,-273.7 396,-273.7 396,-251.7 140,-251.7"/>
<text text-anchor="start" x="160" y="-258.8" font-family="Helvetica,sans-Serif" font-size="11.00" fill="#000000">sisaltava_opiskeluoikeus_oppilaitos_oid</text>
<polygon fill="#ffffff" stroke="transparent" points="140,-229.7 140,-251.7 396,-251.7 396,-229.7 140,-229.7"/>
<polygon fill="none" stroke="#000000" points="140,-229.7 140,-251.7 396,-251.7 396,-229.7 140,-229.7"/>
<text text-anchor="start" x="160" y="-236.8" font-family="Helvetica,sans-Serif" font-size="11.00" fill="#000000">oid</text>
<polygon fill="none" stroke="#000000" points="140,-207.7 140,-229.7 396,-229.7 396,-207.7 140,-207.7"/>
<image xlink:href="../../images/foreignKeys.png" width="11px" height="12px" preserveAspectRatio="xMinYMin meet" x="145" y="-224.7"/>
<text text-anchor="start" x="160" y="-214.8" font-family="Helvetica,sans-Serif" font-size="11.00" fill="#000000">sisaltava_opiskeluoikeus_oid</text>
<polygon fill="#ffffff" stroke="transparent" points="140,-185.7 140,-207.7 396,-207.7 396,-185.7 140,-185.7"/>
<polygon fill="none" stroke="#000000" points="140,-185.7 140,-207.7 396,-207.7 396,-185.7 140,-185.7"/>
<text text-anchor="start" x="160" y="-192.8" font-family="Helvetica,sans-Serif" font-size="11.00" fill="#000000">mitatoity</text>
<polygon fill="#ffffff" stroke="transparent" points="140,-163.7 140,-185.7 396,-185.7 396,-163.7 140,-163.7"/>
<polygon fill="none" stroke="#000000" points="140,-163.7 140,-185.7 396,-185.7 396,-163.7 140,-163.7"/>
<text text-anchor="start" x="160" y="-170.8" font-family="Helvetica,sans-Serif" font-size="11.00" fill="#000000">koulutusmuoto</text>
<polygon fill="#ffffff" stroke="transparent" points="140,-141.7 140,-163.7 396,-163.7 396,-141.7 140,-141.7"/>
<polygon fill="none" stroke="#000000" points="140,-141.7 140,-163.7 396,-163.7 396,-141.7 140,-141.7"/>
<text text-anchor="start" x="160" y="-148.8" font-family="Helvetica,sans-Serif" font-size="11.00" fill="#000000">alkamispaiva</text>
<polygon fill="#ffffff" stroke="transparent" points="140,-119.7 140,-141.7 396,-141.7 396,-119.7 140,-119.7"/>
<polygon fill="none" stroke="#000000" points="140,-119.7 140,-141.7 396,-141.7 396,-119.7 140,-119.7"/>
<text text-anchor="start" x="160" y="-126.8" font-family="Helvetica,sans-Serif" font-size="11.00" fill="#000000">paattymispaiva</text>
<polygon fill="#ffffff" stroke="transparent" points="140,-97.7 140,-119.7 396,-119.7 396,-97.7 140,-97.7"/>
<polygon fill="none" stroke="#000000" points="140,-97.7 140,-119.7 396,-119.7 396,-97.7 140,-97.7"/>
<text text-anchor="start" x="160" y="-104.8" font-family="Helvetica,sans-Serif" font-size="11.00" fill="#000000">suoritustyypit</text>
<polygon fill="#ffffff" stroke="transparent" points="140,-75.7 140,-97.7 396,-97.7 396,-75.7 140,-75.7"/>
<polygon fill="none" stroke="#000000" points="140,-75.7 140,-97.7 396,-97.7 396,-75.7 140,-75.7"/>
<text text-anchor="start" x="160" y="-82.8" font-family="Helvetica,sans-Serif" font-size="11.00" fill="#000000">poistettu</text>
<polygon fill="none" stroke="#000000" points="140,-56.7 140,-75.7 396,-75.7 396,-56.7 140,-56.7"/>
<text text-anchor="start" x="143" y="-62.8" font-family="Helvetica,sans-Serif" font-size="11.00" fill="#000000">...</text>
<polygon fill="#ffffff" stroke="transparent" points="140,-37.7 140,-56.7 262,-56.7 262,-37.7 140,-37.7"/>
<polygon fill="none" stroke="#000000" points="140,-37.7 140,-56.7 262,-56.7 262,-37.7 140,-37.7"/>
<text text-anchor="start" x="143" y="-43.8" font-family="Helvetica,sans-Serif" font-size="11.00" fill="#000000">&lt; 2</text>
<polygon fill="#ffffff" stroke="transparent" points="262,-37.7 262,-56.7 324,-56.7 324,-37.7 262,-37.7"/>
<polygon fill="none" stroke="#000000" points="262,-37.7 262,-56.7 324,-56.7 324,-37.7 262,-37.7"/>
<text text-anchor="start" x="314.8862" y="-43.8" font-family="Helvetica,sans-Serif" font-size="11.00" fill="#000000"> &#160;</text>
<polygon fill="#ffffff" stroke="transparent" points="324,-37.7 324,-56.7 396,-56.7 396,-37.7 324,-37.7"/>
<polygon fill="none" stroke="#000000" points="324,-37.7 324,-56.7 396,-56.7 396,-37.7 324,-37.7"/>
<text text-anchor="start" x="377.4053" y="-43.8" font-family="Helvetica,sans-Serif" font-size="11.00" fill="#000000">2 &gt;</text>
</a>
</g>
</g>
<!-- henkilo -->
<g id="node2" class="node">
<title>henkilo</title>
<g id="a_node2"><a xlink:href="../../tables/henkilo.html" xlink:title="henkilo" target="_top">
<polygon fill="#ffffff" stroke="transparent" points="8,-301.2 8,-362.2 91,-362.2 91,-301.2 8,-301.2"/>
<polygon fill="#f5f5f5" stroke="transparent" points="8.5,-338.7 8.5,-361.7 91.5,-361.7 91.5,-338.7 8.5,-338.7"/>
<polygon fill="none" stroke="#000000" points="8.5,-338.7 8.5,-361.7 91.5,-361.7 91.5,-338.7 8.5,-338.7"/>
<text text-anchor="start" x="13.5" y="-347.3" font-family="Helvetica,sans-Serif" font-weight="bold" font-size="11.00" fill="#000000">henkilo</text>
<text text-anchor="start" x="57.0219" y="-346.8" font-family="Helvetica,sans-Serif" font-size="11.00" fill="#000000">[table]</text>
<polygon fill="none" stroke="#000000" points="8.5,-319.7 8.5,-338.7 91.5,-338.7 91.5,-319.7 8.5,-319.7"/>
<text text-anchor="start" x="11.5" y="-325.8" font-family="Helvetica,sans-Serif" font-size="11.00" fill="#000000">...</text>
<polygon fill="#ffffff" stroke="transparent" points="8.5,-300.7 8.5,-319.7 43.5,-319.7 43.5,-300.7 8.5,-300.7"/>
<polygon fill="none" stroke="#000000" points="8.5,-300.7 8.5,-319.7 43.5,-319.7 43.5,-300.7 8.5,-300.7"/>
<text text-anchor="start" x="11.5" y="-306.8" font-family="Helvetica,sans-Serif" font-size="11.00" fill="#000000">&lt; 1</text>
<polygon fill="#ffffff" stroke="transparent" points="43.5,-300.7 43.5,-319.7 62.5,-319.7 62.5,-300.7 43.5,-300.7"/>
<polygon fill="none" stroke="#000000" points="43.5,-300.7 43.5,-319.7 62.5,-319.7 62.5,-300.7 43.5,-300.7"/>
<text text-anchor="start" x="53.3862" y="-306.8" font-family="Helvetica,sans-Serif" font-size="11.00" fill="#000000"> &#160;</text>
<polygon fill="#ffffff" stroke="transparent" points="62.5,-300.7 62.5,-319.7 91.5,-319.7 91.5,-300.7 62.5,-300.7"/>
<polygon fill="none" stroke="#000000" points="62.5,-300.7 62.5,-319.7 91.5,-319.7 91.5,-300.7 62.5,-300.7"/>
<text text-anchor="start" x="72.9053" y="-306.8" font-family="Helvetica,sans-Serif" font-size="11.00" fill="#000000">3 &gt;</text>
</a>
</g>
</g>
<!-- ytr_opiskeluoikeus&#45;&gt;henkilo -->
<g id="edge1" class="edge">
<title>ytr_opiskeluoikeus:w&#45;&gt;henkilo:e</title>
<path fill="none" stroke="#000000" d="M129.3669,-328.7C115.8553,-328.7 109.0139,-328.7 91.5,-328.7"/>
<polygon fill="#000000" stroke="#000000" points="139.2,-324.7 139.2,-332.7 137.6,-332.7 137.6,-324.7 139.2,-324.7"/>
<polyline fill="none" stroke="#000000" points="140,-328.7 136,-328.7 "/>
<ellipse fill="none" stroke="#000000" cx="132.8" cy="-328.7001" rx="3.2" ry="3.2"/>
</g>
<!-- ytr_opiskeluoikeushistoria -->
<g id="node3" class="node">
<title>ytr_opiskeluoikeushistoria</title>
<g id="a_node3"><a xlink:href="../../tables/ytr_opiskeluoikeushistoria.html" xlink:title="ytr_opiskeluoikeushistoria" target="_top">
<polygon fill="#ffffff" stroke="transparent" points="445,-230.7 445,-386.7 727,-386.7 727,-230.7 445,-230.7"/>
<polygon fill="#f5f5f5" stroke="transparent" points="447,-361.7 447,-384.7 725,-384.7 725,-361.7 447,-361.7"/>
<polygon fill="none" stroke="#000000" points="447,-361.7 447,-384.7 725,-384.7 725,-361.7 447,-361.7"/>
<text text-anchor="start" x="452" y="-370.3" font-family="Helvetica,sans-Serif" font-weight="bold" font-size="11.00" fill="#000000">ytr_opiskeluoikeushistoria</text>
<text text-anchor="start" x="690.0437" y="-369.8" font-family="Helvetica,sans-Serif" font-size="11.00" fill="#000000">[table]</text>
<polygon fill="none" stroke="#000000" points="447,-339.7 447,-361.7 626,-361.7 626,-339.7 447,-339.7"/>
<image xlink:href="../../images/primaryKeys.png" width="11px" height="12px" preserveAspectRatio="xMinYMin meet" x="452" y="-356.7"/>
<text text-anchor="start" x="467" y="-346.8" font-family="Helvetica,sans-Serif" font-size="11.00" fill="#000000">opiskeluoikeus_id</text>
<polygon fill="none" stroke="#000000" points="626,-339.7 626,-361.7 725,-361.7 725,-339.7 626,-339.7"/>
<text text-anchor="start" x="629" y="-347.4" font-family="Helvetica,sans-Serif" font-size="11.00" fill="#000000">int4[10]</text>
<polygon fill="none" stroke="#000000" points="447,-317.7 447,-339.7 626,-339.7 626,-317.7 447,-317.7"/>
<text text-anchor="start" x="467" y="-324.8" font-family="Helvetica,sans-Serif" font-size="11.00" fill="#000000">aikaleima</text>
<polygon fill="none" stroke="#000000" points="626,-317.7 626,-339.7 725,-339.7 725,-317.7 626,-317.7"/>
<text text-anchor="start" x="629" y="-325.4" font-family="Helvetica,sans-Serif" font-size="11.00" fill="#000000">timestamptz[35,6]</text>
<polygon fill="none" stroke="#000000" points="447,-295.7 447,-317.7 626,-317.7 626,-295.7 447,-295.7"/>
<text text-anchor="start" x="467" y="-302.8" font-family="Helvetica,sans-Serif" font-size="11.00" fill="#000000">kayttaja_oid</text>
<polygon fill="none" stroke="#000000" points="626,-295.7 626,-317.7 725,-317.7 725,-295.7 626,-295.7"/>
<text text-anchor="start" x="629" y="-303.4" font-family="Helvetica,sans-Serif" font-size="11.00" fill="#000000">text[2147483647]</text>
<polygon fill="none" stroke="#000000" points="447,-273.7 447,-295.7 626,-295.7 626,-273.7 447,-273.7"/>
<text text-anchor="start" x="467" y="-280.8" font-family="Helvetica,sans-Serif" font-size="11.00" fill="#000000">muutos</text>
<polygon fill="none" stroke="#000000" points="626,-273.7 626,-295.7 725,-295.7 725,-273.7 626,-273.7"/>
<text text-anchor="start" x="628.7258" y="-281.4" font-family="Helvetica,sans-Serif" font-size="11.00" fill="#000000">jsonb[2147483647]</text>
<polygon fill="none" stroke="#000000" points="447,-251.7 447,-273.7 626,-273.7 626,-251.7 447,-251.7"/>
<image xlink:href="../../images/primaryKeys.png" width="11px" height="12px" preserveAspectRatio="xMinYMin meet" x="452" y="-268.7"/>
<text text-anchor="start" x="467" y="-258.8" font-family="Helvetica,sans-Serif" font-size="11.00" fill="#000000">versionumero</text>
<polygon fill="none" stroke="#000000" points="626,-251.7 626,-273.7 725,-273.7 725,-251.7 626,-251.7"/>
<text text-anchor="start" x="629" y="-259.4" font-family="Helvetica,sans-Serif" font-size="11.00" fill="#000000">int4[10]</text>
<polygon fill="#ffffff" stroke="transparent" points="447,-232.7 447,-251.7 541,-251.7 541,-232.7 447,-232.7"/>
<polygon fill="none" stroke="#000000" points="447,-232.7 447,-251.7 541,-251.7 541,-232.7 447,-232.7"/>
<text text-anchor="start" x="450" y="-238.8" font-family="Helvetica,sans-Serif" font-size="11.00" fill="#000000">&lt; 1</text>
<polygon fill="#ffffff" stroke="transparent" points="541,-232.7 541,-251.7 626,-251.7 626,-232.7 541,-232.7"/>
<polygon fill="none" stroke="#000000" points="541,-232.7 541,-251.7 626,-251.7 626,-232.7 541,-232.7"/>
<text text-anchor="start" x="616.8862" y="-238.8" font-family="Helvetica,sans-Serif" font-size="11.00" fill="#000000"> &#160;</text>
<polygon fill="#ffffff" stroke="transparent" points="626,-232.7 626,-251.7 725,-251.7 725,-232.7 626,-232.7"/>
<polygon fill="none" stroke="#000000" points="626,-232.7 626,-251.7 725,-251.7 725,-232.7 626,-232.7"/>
<text text-anchor="start" x="706.4053" y="-238.8" font-family="Helvetica,sans-Serif" font-size="11.00" fill="#000000">0 &gt;</text>
<polygon fill="none" stroke="#000000" stroke-width="2" points="446,-231.7 446,-385.7 726,-385.7 726,-231.7 446,-231.7"/>
</a>
</g>
</g>
<!-- ytr_opiskeluoikeushistoria&#45;&gt;ytr_opiskeluoikeus -->
<g id="edge2" class="edge">
<title>ytr_opiskeluoikeushistoria:w&#45;&gt;ytr_opiskeluoikeus:e</title>
<path fill="none" stroke="#000000" d="M432.276,-350.7C420.2815,-350.7 412.8229,-350.7 396,-350.7"/>
<polygon fill="#000000" stroke="#000000" points="439,-350.7001 447,-354.3 443,-350.7 447,-350.7 447,-350.7 447,-350.7 443,-350.7 447,-347.1 439,-350.7001 439,-350.7001"/>
<ellipse fill="none" stroke="#000000" cx="435.8" cy="-350.7001" rx="3.2" ry="3.2"/>
</g>
</g>
</svg>
