<?xml version="1.0" encoding="UTF-8" standalone="no"?>
<!DOCTYPE svg PUBLIC "-//W3C//DTD SVG 1.1//EN"
 "http://www.w3.org/Graphics/SVG/1.1/DTD/svg11.dtd">
<!-- Generated by graphviz version 2.40.1 (20161225.0304)
 -->
<!-- Title: oneDegreeRelationshipsDiagram Pages: 1 -->
<svg width="611pt" height="399pt"
 viewBox="0.00 0.00 611.00 398.70" xmlns="http://www.w3.org/2000/svg" xmlns:xlink="http://www.w3.org/1999/xlink">
<g id="graph0" class="graph" transform="scale(1 1) rotate(0) translate(4 394.7)">
<title>oneDegreeRelationshipsDiagram</title>
<polygon fill="#ffffff" stroke="transparent" points="-4,4 -4,-394.7 607,-394.7 607,4 -4,4"/>
<text text-anchor="middle" x="72.4936" y="-7.3" font-family="Helvetica,sans-Serif" font-size="11.00" fill="#000000">Generated by SchemaSpy</text>
<!-- ytr_opiskeluoikeushistoria -->
<g id="node1" class="node">
<title>ytr_opiskeluoikeushistoria</title>
<g id="a_node1"><a xlink:href="../../tables/ytr_opiskeluoikeushistoria.html" xlink:title="ytr_opiskeluoikeushistoria" target="_top">
<polygon fill="#ffffff" stroke="transparent" points="313,-230.7 313,-386.7 595,-386.7 595,-230.7 313,-230.7"/>
<polygon fill="#f5f5f5" stroke="transparent" points="315,-361.7 315,-384.7 593,-384.7 593,-361.7 315,-361.7"/>
<polygon fill="none" stroke="#000000" points="315,-361.7 315,-384.7 593,-384.7 593,-361.7 315,-361.7"/>
<text text-anchor="start" x="320" y="-370.3" font-family="Helvetica,sans-Serif" font-weight="bold" font-size="11.00" fill="#000000">ytr_opiskeluoikeushistoria</text>
<text text-anchor="start" x="558.0437" y="-369.8" font-family="Helvetica,sans-Serif" font-size="11.00" fill="#000000">[table]</text>
<polygon fill="none" stroke="#000000" points="315,-339.7 315,-361.7 494,-361.7 494,-339.7 315,-339.7"/>
<image xlink:href="../../images/primaryKeys.png" width="11px" height="12px" preserveAspectRatio="xMinYMin meet" x="320" y="-356.7"/>
<text text-anchor="start" x="335" y="-346.8" font-family="Helvetica,sans-Serif" font-size="11.00" fill="#000000">opiskeluoikeus_id</text>
<polygon fill="none" stroke="#000000" points="494,-339.7 494,-361.7 593,-361.7 593,-339.7 494,-339.7"/>
<text text-anchor="start" x="497" y="-347.4" font-family="Helvetica,sans-Serif" font-size="11.00" fill="#000000">int4[10]</text>
<polygon fill="none" stroke="#000000" points="315,-317.7 315,-339.7 494,-339.7 494,-317.7 315,-317.7"/>
<text text-anchor="start" x="335" y="-324.8" font-family="Helvetica,sans-Serif" font-size="11.00" fill="#000000">aikaleima</text>
<polygon fill="none" stroke="#000000" points="494,-317.7 494,-339.7 593,-339.7 593,-317.7 494,-317.7"/>
<text text-anchor="start" x="497" y="-325.4" font-family="Helvetica,sans-Serif" font-size="11.00" fill="#000000">timestamptz[35,6]</text>
<polygon fill="none" stroke="#000000" points="315,-295.7 315,-317.7 494,-317.7 494,-295.7 315,-295.7"/>
<text text-anchor="start" x="335" y="-302.8" font-family="Helvetica,sans-Serif" font-size="11.00" fill="#000000">kayttaja_oid</text>
<polygon fill="none" stroke="#000000" points="494,-295.7 494,-317.7 593,-317.7 593,-295.7 494,-295.7"/>
<text text-anchor="start" x="497" y="-303.4" font-family="Helvetica,sans-Serif" font-size="11.00" fill="#000000">text[2147483647]</text>
<polygon fill="none" stroke="#000000" points="315,-273.7 315,-295.7 494,-295.7 494,-273.7 315,-273.7"/>
<text text-anchor="start" x="335" y="-280.8" font-family="Helvetica,sans-Serif" font-size="11.00" fill="#000000">muutos</text>
<polygon fill="none" stroke="#000000" points="494,-273.7 494,-295.7 593,-295.7 593,-273.7 494,-273.7"/>
<text text-anchor="start" x="496.7258" y="-281.4" font-family="Helvetica,sans-Serif" font-size="11.00" fill="#000000">jsonb[2147483647]</text>
<polygon fill="none" stroke="#000000" points="315,-251.7 315,-273.7 494,-273.7 494,-251.7 315,-251.7"/>
<image xlink:href="../../images/primaryKeys.png" width="11px" height="12px" preserveAspectRatio="xMinYMin meet" x="320" y="-268.7"/>
<text text-anchor="start" x="335" y="-258.8" font-family="Helvetica,sans-Serif" font-size="11.00" fill="#000000">versionumero</text>
<polygon fill="none" stroke="#000000" points="494,-251.7 494,-273.7 593,-273.7 593,-251.7 494,-251.7"/>
<text text-anchor="start" x="497" y="-259.4" font-family="Helvetica,sans-Serif" font-size="11.00" fill="#000000">int4[10]</text>
<polygon fill="#ffffff" stroke="transparent" points="315,-232.7 315,-251.7 396,-251.7 396,-232.7 315,-232.7"/>
<polygon fill="none" stroke="#000000" points="315,-232.7 315,-251.7 396,-251.7 396,-232.7 315,-232.7"/>
<text text-anchor="start" x="318" y="-238.8" font-family="Helvetica,sans-Serif" font-size="11.00" fill="#000000">&lt; 1</text>
<polygon fill="#ffffff" stroke="transparent" points="396,-232.7 396,-251.7 494,-251.7 494,-232.7 396,-232.7"/>
<polygon fill="none" stroke="#000000" points="396,-232.7 396,-251.7 494,-251.7 494,-232.7 396,-232.7"/>
<text text-anchor="start" x="458.6105" y="-238.8" font-family="Helvetica,sans-Serif" font-size="11.00" fill="#000000">9 rows</text>
<polygon fill="#ffffff" stroke="transparent" points="494,-232.7 494,-251.7 593,-251.7 593,-232.7 494,-232.7"/>
<polygon fill="none" stroke="#000000" points="494,-232.7 494,-251.7 593,-251.7 593,-232.7 494,-232.7"/>
<text text-anchor="start" x="574.4053" y="-238.8" font-family="Helvetica,sans-Serif" font-size="11.00" fill="#000000">0 &gt;</text>
<polygon fill="none" stroke="#000000" stroke-width="2" points="314,-231.7 314,-385.7 594,-385.7 594,-231.7 314,-231.7"/>
</a>
</g>
</g>
<!-- ytr_opiskeluoikeus -->
<g id="node2" class="node">
<title>ytr_opiskeluoikeus</title>
<g id="a_node2"><a xlink:href="../../tables/ytr_opiskeluoikeus.html" xlink:title="ytr_opiskeluoikeus" target="_top">
<polygon fill="#ffffff" stroke="transparent" points="8,-38.2 8,-385.2 264,-385.2 264,-38.2 8,-38.2"/>
<polygon fill="#f5f5f5" stroke="transparent" points="8,-361.7 8,-384.7 264,-384.7 264,-361.7 8,-361.7"/>
<polygon fill="none" stroke="#000000" points="8,-361.7 8,-384.7 264,-384.7 264,-361.7 8,-361.7"/>
<text text-anchor="start" x="13" y="-370.3" font-family="Helvetica,sans-Serif" font-weight="bold" font-size="11.00" fill="#000000">ytr_opiskeluoikeus</text>
<text text-anchor="start" x="229.0437" y="-369.8" font-family="Helvetica,sans-Serif" font-size="11.00" fill="#000000">[table]</text>
<polygon fill="none" stroke="#000000" points="8,-339.7 8,-361.7 264,-361.7 264,-339.7 8,-339.7"/>
<image xlink:href="../../images/primaryKeys.png" width="11px" height="12px" preserveAspectRatio="xMinYMin meet" x="13" y="-356.7"/>
<text text-anchor="start" x="28" y="-346.8" font-family="Helvetica,sans-Serif" font-size="11.00" fill="#000000">id</text>
<polygon fill="#ffffff" stroke="transparent" points="8,-317.7 8,-339.7 264,-339.7 264,-317.7 8,-317.7"/>
<polygon fill="none" stroke="#000000" points="8,-317.7 8,-339.7 264,-339.7 264,-317.7 8,-317.7"/>
<image xlink:href="../../images/foreignKeys.png" width="11px" height="12px" preserveAspectRatio="xMinYMin meet" x="13" y="-334.7"/>
<text text-anchor="start" x="28" y="-324.8" font-family="Helvetica,sans-Serif" font-size="11.00" fill="#000000">oppija_oid</text>
<polygon fill="#ffffff" stroke="transparent" points="8,-295.7 8,-317.7 264,-317.7 264,-295.7 8,-295.7"/>
<polygon fill="none" stroke="#000000" points="8,-295.7 8,-317.7 264,-317.7 264,-295.7 8,-295.7"/>
<text text-anchor="start" x="28" y="-302.8" font-family="Helvetica,sans-Serif" font-size="11.00" fill="#000000">aikaleima</text>
<polygon fill="#ffffff" stroke="transparent" points="8,-273.7 8,-295.7 264,-295.7 264,-273.7 8,-273.7"/>
<polygon fill="none" stroke="#000000" points="8,-273.7 8,-295.7 264,-295.7 264,-273.7 8,-273.7"/>
<text text-anchor="start" x="28" y="-280.8" font-family="Helvetica,sans-Serif" font-size="11.00" fill="#000000">oppilaitos_oid</text>
<polygon fill="#ffffff" stroke="transparent" points="8,-251.7 8,-273.7 264,-273.7 264,-251.7 8,-251.7"/>
<polygon fill="none" stroke="#000000" points="8,-251.7 8,-273.7 264,-273.7 264,-251.7 8,-251.7"/>
<text text-anchor="start" x="28" y="-258.8" font-family="Helvetica,sans-Serif" font-size="11.00" fill="#000000">sisaltava_opiskeluoikeus_oppilaitos_oid</text>
<polygon fill="#ffffff" stroke="transparent" points="8,-229.7 8,-251.7 264,-251.7 264,-229.7 8,-229.7"/>
<polygon fill="none" stroke="#000000" points="8,-229.7 8,-251.7 264,-251.7 264,-229.7 8,-229.7"/>
<text text-anchor="start" x="28" y="-236.8" font-family="Helvetica,sans-Serif" font-size="11.00" fill="#000000">oid</text>
<polygon fill="none" stroke="#000000" points="8,-207.7 8,-229.7 264,-229.7 264,-207.7 8,-207.7"/>
<image xlink:href="../../images/foreignKeys.png" width="11px" height="12px" preserveAspectRatio="xMinYMin meet" x="13" y="-224.7"/>
<text text-anchor="start" x="28" y="-214.8" font-family="Helvetica,sans-Serif" font-size="11.00" fill="#000000">sisaltava_opiskeluoikeus_oid</text>
<polygon fill="#ffffff" stroke="transparent" points="8,-185.7 8,-207.7 264,-207.7 264,-185.7 8,-185.7"/>
<polygon fill="none" stroke="#000000" points="8,-185.7 8,-207.7 264,-207.7 264,-185.7 8,-185.7"/>
<text text-anchor="start" x="28" y="-192.8" font-family="Helvetica,sans-Serif" font-size="11.00" fill="#000000">mitatoity</text>
<polygon fill="#ffffff" stroke="transparent" points="8,-163.7 8,-185.7 264,-185.7 264,-163.7 8,-163.7"/>
<polygon fill="none" stroke="#000000" points="8,-163.7 8,-185.7 264,-185.7 264,-163.7 8,-163.7"/>
<text text-anchor="start" x="28" y="-170.8" font-family="Helvetica,sans-Serif" font-size="11.00" fill="#000000">koulutusmuoto</text>
<polygon fill="#ffffff" stroke="transparent" points="8,-141.7 8,-163.7 264,-163.7 264,-141.7 8,-141.7"/>
<polygon fill="none" stroke="#000000" points="8,-141.7 8,-163.7 264,-163.7 264,-141.7 8,-141.7"/>
<text text-anchor="start" x="28" y="-148.8" font-family="Helvetica,sans-Serif" font-size="11.00" fill="#000000">alkamispaiva</text>
<polygon fill="#ffffff" stroke="transparent" points="8,-119.7 8,-141.7 264,-141.7 264,-119.7 8,-119.7"/>
<polygon fill="none" stroke="#000000" points="8,-119.7 8,-141.7 264,-141.7 264,-119.7 8,-119.7"/>
<text text-anchor="start" x="28" y="-126.8" font-family="Helvetica,sans-Serif" font-size="11.00" fill="#000000">paattymispaiva</text>
<polygon fill="#ffffff" stroke="transparent" points="8,-97.7 8,-119.7 264,-119.7 264,-97.7 8,-97.7"/>
<polygon fill="none" stroke="#000000" points="8,-97.7 8,-119.7 264,-119.7 264,-97.7 8,-97.7"/>
<text text-anchor="start" x="28" y="-104.8" font-family="Helvetica,sans-Serif" font-size="11.00" fill="#000000">suoritustyypit</text>
<polygon fill="#ffffff" stroke="transparent" points="8,-75.7 8,-97.7 264,-97.7 264,-75.7 8,-75.7"/>
<polygon fill="none" stroke="#000000" points="8,-75.7 8,-97.7 264,-97.7 264,-75.7 8,-75.7"/>
<text text-anchor="start" x="28" y="-82.8" font-family="Helvetica,sans-Serif" font-size="11.00" fill="#000000">poistettu</text>
<polygon fill="none" stroke="#000000" points="8,-56.7 8,-75.7 264,-75.7 264,-56.7 8,-56.7"/>
<text text-anchor="start" x="11" y="-62.8" font-family="Helvetica,sans-Serif" font-size="11.00" fill="#000000">...</text>
<polygon fill="#ffffff" stroke="transparent" points="8,-37.7 8,-56.7 117,-56.7 117,-37.7 8,-37.7"/>
<polygon fill="none" stroke="#000000" points="8,-37.7 8,-56.7 117,-56.7 117,-37.7 8,-37.7"/>
<text text-anchor="start" x="11" y="-43.8" font-family="Helvetica,sans-Serif" font-size="11.00" fill="#000000">&lt; 2</text>
<polygon fill="#ffffff" stroke="transparent" points="117,-37.7 117,-56.7 199,-56.7 199,-37.7 117,-37.7"/>
<polygon fill="none" stroke="#000000" points="117,-37.7 117,-56.7 199,-56.7 199,-37.7 117,-37.7"/>
<text text-anchor="start" x="163.6105" y="-43.8" font-family="Helvetica,sans-Serif" font-size="11.00" fill="#000000">9 rows</text>
<polygon fill="#ffffff" stroke="transparent" points="199,-37.7 199,-56.7 264,-56.7 264,-37.7 199,-37.7"/>
<polygon fill="none" stroke="#000000" points="199,-37.7 199,-56.7 264,-56.7 264,-37.7 199,-37.7"/>
<text text-anchor="start" x="245.4053" y="-43.8" font-family="Helvetica,sans-Serif" font-size="11.00" fill="#000000">2 &gt;</text>
</a>
</g>
</g>
<!-- ytr_opiskeluoikeushistoria&#45;&gt;ytr_opiskeluoikeus -->
<g id="edge1" class="edge">
<title>ytr_opiskeluoikeushistoria:w&#45;&gt;ytr_opiskeluoikeus:e</title>
<path fill="none" stroke="#000000" d="M300.276,-350.7C288.2815,-350.7 280.8229,-350.7 264,-350.7"/>
<polygon fill="#000000" stroke="#000000" points="307,-350.7001 315,-354.3 311,-350.7 315,-350.7 315,-350.7 315,-350.7 311,-350.7 315,-347.1 307,-350.7001 307,-350.7001"/>
<ellipse fill="none" stroke="#000000" cx="303.8" cy="-350.7001" rx="3.2" ry="3.2"/>
</g>
</g>
</svg>
