<?xml version="1.0" encoding="UTF-8" standalone="no"?>
<!DOCTYPE svg PUBLIC "-//W3C//DTD SVG 1.1//EN"
 "http://www.w3.org/Graphics/SVG/1.1/DTD/svg11.dtd">
<!-- Generated by graphviz version 2.40.1 (20161225.0304)
 -->
<!-- Title: twoDegreesRelationshipsDiagram Pages: 1 -->
<svg width="781pt" height="593pt"
 viewBox="0.00 0.00 781.00 592.70" xmlns="http://www.w3.org/2000/svg" xmlns:xlink="http://www.w3.org/1999/xlink">
<g id="graph0" class="graph" transform="scale(1 1) rotate(0) translate(4 588.7)">
<title>twoDegreesRelationshipsDiagram</title>
<polygon fill="#ffffff" stroke="transparent" points="-4,4 -4,-588.7 777,-588.7 777,4 -4,4"/>
<text text-anchor="middle" x="72.4936" y="-7.3" font-family="Helvetica,sans-Serif" font-size="11.00" fill="#000000">Generated by SchemaSpy</text>
<!-- opiskeluoikeus -->
<g id="node1" class="node">
<title>opiskeluoikeus</title>
<g id="a_node1"><a xlink:href="../../tables/opiskeluoikeus.html" xlink:title="opiskeluoikeus" target="_top">
<polygon fill="#ffffff" stroke="transparent" points="273.5,-519.7 273.5,-580.7 402.5,-580.7 402.5,-519.7 273.5,-519.7"/>
<polygon fill="#f5f5f5" stroke="transparent" points="274,-557.2 274,-580.2 403,-580.2 403,-557.2 274,-557.2"/>
<polygon fill="none" stroke="#000000" points="274,-557.2 274,-580.2 403,-580.2 403,-557.2 274,-557.2"/>
<text text-anchor="start" x="279" y="-565.8" font-family="Helvetica,sans-Serif" font-weight="bold" font-size="11.00" fill="#000000">opiskeluoikeus</text>
<text text-anchor="start" x="368.5219" y="-565.3" font-family="Helvetica,sans-Serif" font-size="11.00" fill="#000000">[table]</text>
<polygon fill="none" stroke="#000000" points="274,-538.2 274,-557.2 403,-557.2 403,-538.2 274,-538.2"/>
<text text-anchor="start" x="277" y="-544.3" font-family="Helvetica,sans-Serif" font-size="11.00" fill="#000000">...</text>
<polygon fill="#ffffff" stroke="transparent" points="274,-519.2 274,-538.2 313,-538.2 313,-519.2 274,-519.2"/>
<polygon fill="none" stroke="#000000" points="274,-519.2 274,-538.2 313,-538.2 313,-519.2 274,-519.2"/>
<text text-anchor="start" x="277" y="-525.3" font-family="Helvetica,sans-Serif" font-size="11.00" fill="#000000">&lt; 2</text>
<polygon fill="#ffffff" stroke="transparent" points="313,-519.2 313,-538.2 372,-538.2 372,-519.2 313,-519.2"/>
<polygon fill="none" stroke="#000000" points="313,-519.2 313,-538.2 372,-538.2 372,-519.2 313,-519.2"/>
<text text-anchor="start" x="324.3807" y="-525.3" font-family="Helvetica,sans-Serif" font-size="11.00" fill="#000000">241 rows</text>
<polygon fill="#ffffff" stroke="transparent" points="372,-519.2 372,-538.2 403,-538.2 403,-519.2 372,-519.2"/>
<polygon fill="none" stroke="#000000" points="372,-519.2 372,-538.2 403,-538.2 403,-519.2 372,-519.2"/>
<text text-anchor="start" x="384.4053" y="-525.3" font-family="Helvetica,sans-Serif" font-size="11.00" fill="#000000">4 &gt;</text>
</a>
</g>
</g>
<!-- henkilo -->
<g id="node2" class="node">
<title>henkilo</title>
<g id="a_node2"><a xlink:href="../../tables/henkilo.html" xlink:title="henkilo" target="_top">
<polygon fill="#ffffff" stroke="transparent" points="8,-402.7 8,-507.7 109,-507.7 109,-402.7 8,-402.7"/>
<polygon fill="#f5f5f5" stroke="transparent" points="8.5,-484.2 8.5,-507.2 109.5,-507.2 109.5,-484.2 8.5,-484.2"/>
<polygon fill="none" stroke="#000000" points="8.5,-484.2 8.5,-507.2 109.5,-507.2 109.5,-484.2 8.5,-484.2"/>
<text text-anchor="start" x="13.5" y="-492.8" font-family="Helvetica,sans-Serif" font-weight="bold" font-size="11.00" fill="#000000">henkilo</text>
<text text-anchor="start" x="74.5437" y="-492.3" font-family="Helvetica,sans-Serif" font-size="11.00" fill="#000000">[table]</text>
<polygon fill="none" stroke="#000000" points="8.5,-462.2 8.5,-484.2 109.5,-484.2 109.5,-462.2 8.5,-462.2"/>
<image xlink:href="../../images/primaryKeys.png" width="11px" height="12px" preserveAspectRatio="xMinYMin meet" x="13.5" y="-479.2"/>
<text text-anchor="start" x="28.5" y="-469.3" font-family="Helvetica,sans-Serif" font-size="11.00" fill="#000000">oid</text>
<polygon fill="#ffffff" stroke="transparent" points="8.5,-440.2 8.5,-462.2 109.5,-462.2 109.5,-440.2 8.5,-440.2"/>
<polygon fill="none" stroke="#000000" points="8.5,-440.2 8.5,-462.2 109.5,-462.2 109.5,-440.2 8.5,-440.2"/>
<image xlink:href="../../images/foreignKeys.png" width="11px" height="12px" preserveAspectRatio="xMinYMin meet" x="13.5" y="-457.2"/>
<text text-anchor="start" x="28.5" y="-447.3" font-family="Helvetica,sans-Serif" font-size="11.00" fill="#000000">master_oid</text>
<polygon fill="none" stroke="#000000" points="8.5,-421.2 8.5,-440.2 109.5,-440.2 109.5,-421.2 8.5,-421.2"/>
<text text-anchor="start" x="11.5" y="-427.3" font-family="Helvetica,sans-Serif" font-size="11.00" fill="#000000">...</text>
<polygon fill="#ffffff" stroke="transparent" points="8.5,-402.2 8.5,-421.2 33.5,-421.2 33.5,-402.2 8.5,-402.2"/>
<polygon fill="none" stroke="#000000" points="8.5,-402.2 8.5,-421.2 33.5,-421.2 33.5,-402.2 8.5,-402.2"/>
<text text-anchor="start" x="11.5" y="-408.3" font-family="Helvetica,sans-Serif" font-size="11.00" fill="#000000">&lt; 1</text>
<polygon fill="#ffffff" stroke="transparent" points="33.5,-402.2 33.5,-421.2 85.5,-421.2 85.5,-402.2 33.5,-402.2"/>
<polygon fill="none" stroke="#000000" points="33.5,-402.2 33.5,-421.2 85.5,-421.2 85.5,-402.2 33.5,-402.2"/>
<text text-anchor="start" x="37.8807" y="-408.3" font-family="Helvetica,sans-Serif" font-size="11.00" fill="#000000">186 rows</text>
<polygon fill="#ffffff" stroke="transparent" points="85.5,-402.2 85.5,-421.2 109.5,-421.2 109.5,-402.2 85.5,-402.2"/>
<polygon fill="none" stroke="#000000" points="85.5,-402.2 85.5,-421.2 109.5,-421.2 109.5,-402.2 85.5,-402.2"/>
<text text-anchor="start" x="90.9053" y="-408.3" font-family="Helvetica,sans-Serif" font-size="11.00" fill="#000000">3 &gt;</text>
</a>
</g>
</g>
<!-- opiskeluoikeus&#45;&gt;henkilo -->
<g id="edge1" class="edge">
<title>opiskeluoikeus:w&#45;&gt;henkilo:e</title>
<path fill="none" stroke="#000000" d="M263.3519,-547.076C214.1407,-545.8651 197.0105,-535.6196 150,-509.2 129.0051,-497.401 133.5832,-473.2 109.5,-473.2"/>
<polygon fill="#000000" stroke="#000000" points="273.2467,-543.191 273.1534,-551.1904 271.5536,-551.1718 271.6468,-543.1723 273.2467,-543.191"/>
<polyline fill="none" stroke="#000000" points="274,-547.2 270.0003,-547.1534 "/>
<ellipse fill="none" stroke="#000000" cx="266.8005" cy="-547.1161" rx="3.2" ry="3.2"/>
</g>
<!-- ytr_opiskeluoikeus -->
<g id="node3" class="node">
<title>ytr_opiskeluoikeus</title>
<g id="a_node3"><a xlink:href="../../tables/ytr_opiskeluoikeus.html" xlink:title="ytr_opiskeluoikeus" target="_top">
<polygon fill="#ffffff" stroke="transparent" points="158,-38.2 158,-480.2 518,-480.2 518,-38.2 158,-38.2"/>
<polygon fill="#f5f5f5" stroke="transparent" points="160,-455.2 160,-478.2 516,-478.2 516,-455.2 160,-455.2"/>
<polygon fill="none" stroke="#000000" points="160,-455.2 160,-478.2 516,-478.2 516,-455.2 160,-455.2"/>
<text text-anchor="start" x="165" y="-463.8" font-family="Helvetica,sans-Serif" font-weight="bold" font-size="11.00" fill="#000000">ytr_opiskeluoikeus</text>
<text text-anchor="start" x="481.0437" y="-463.3" font-family="Helvetica,sans-Serif" font-size="11.00" fill="#000000">[table]</text>
<polygon fill="none" stroke="#000000" points="160,-433.2 160,-455.2 417,-455.2 417,-433.2 160,-433.2"/>
<image xlink:href="../../images/primaryKeys.png" width="11px" height="12px" preserveAspectRatio="xMinYMin meet" x="165" y="-450.2"/>
<text text-anchor="start" x="180" y="-440.3" font-family="Helvetica,sans-Serif" font-size="11.00" fill="#000000">id</text>
<polygon fill="none" stroke="#000000" points="417,-433.2 417,-455.2 516,-455.2 516,-433.2 417,-433.2"/>
<text text-anchor="start" x="420" y="-440.9" font-family="Helvetica,sans-Serif" font-size="11.00" fill="#000000">serial[10]</text>
<polygon fill="none" stroke="#000000" points="160,-411.2 160,-433.2 417,-433.2 417,-411.2 160,-411.2"/>
<text text-anchor="start" x="180" y="-418.3" font-family="Helvetica,sans-Serif" font-size="11.00" fill="#000000">data</text>
<polygon fill="none" stroke="#000000" points="417,-411.2 417,-433.2 516,-433.2 516,-411.2 417,-411.2"/>
<text text-anchor="start" x="419.7258" y="-418.9" font-family="Helvetica,sans-Serif" font-size="11.00" fill="#000000">jsonb[2147483647]</text>
<polygon fill="#ffffff" stroke="transparent" points="160,-389.2 160,-411.2 417,-411.2 417,-389.2 160,-389.2"/>
<polygon fill="none" stroke="#000000" points="160,-389.2 160,-411.2 417,-411.2 417,-389.2 160,-389.2"/>
<image xlink:href="../../images/foreignKeys.png" width="11px" height="12px" preserveAspectRatio="xMinYMin meet" x="165" y="-406.2"/>
<text text-anchor="start" x="180" y="-396.3" font-family="Helvetica,sans-Serif" font-size="11.00" fill="#000000">oppija_oid</text>
<polygon fill="none" stroke="#000000" points="417,-389.2 417,-411.2 516,-411.2 516,-389.2 417,-389.2"/>
<text text-anchor="start" x="420" y="-396.9" font-family="Helvetica,sans-Serif" font-size="11.00" fill="#000000">text[2147483647]</text>
<polygon fill="#ffffff" stroke="transparent" points="160,-367.2 160,-389.2 417,-389.2 417,-367.2 160,-367.2"/>
<polygon fill="none" stroke="#000000" points="160,-367.2 160,-389.2 417,-389.2 417,-367.2 160,-367.2"/>
<text text-anchor="start" x="180" y="-374.3" font-family="Helvetica,sans-Serif" font-size="11.00" fill="#000000">aikaleima</text>
<polygon fill="none" stroke="#000000" points="417,-367.2 417,-389.2 516,-389.2 516,-367.2 417,-367.2"/>
<text text-anchor="start" x="420" y="-374.9" font-family="Helvetica,sans-Serif" font-size="11.00" fill="#000000">timestamptz[35,6]</text>
<polygon fill="none" stroke="#000000" points="160,-345.2 160,-367.2 417,-367.2 417,-345.2 160,-345.2"/>
<text text-anchor="start" x="180" y="-352.3" font-family="Helvetica,sans-Serif" font-size="11.00" fill="#000000">versionumero</text>
<polygon fill="none" stroke="#000000" points="417,-345.2 417,-367.2 516,-367.2 516,-345.2 417,-345.2"/>
<text text-anchor="start" x="420" y="-352.9" font-family="Helvetica,sans-Serif" font-size="11.00" fill="#000000">int4[10]</text>
<polygon fill="#ffffff" stroke="transparent" points="160,-323.2 160,-345.2 417,-345.2 417,-323.2 160,-323.2"/>
<polygon fill="none" stroke="#000000" points="160,-323.2 160,-345.2 417,-345.2 417,-323.2 160,-323.2"/>
<text text-anchor="start" x="180" y="-330.3" font-family="Helvetica,sans-Serif" font-size="11.00" fill="#000000">oppilaitos_oid</text>
<polygon fill="none" stroke="#000000" points="417,-323.2 417,-345.2 516,-345.2 516,-323.2 417,-323.2"/>
<text text-anchor="start" x="420" y="-330.9" font-family="Helvetica,sans-Serif" font-size="11.00" fill="#000000">text[2147483647]</text>
<polygon fill="none" stroke="#000000" points="160,-301.2 160,-323.2 417,-323.2 417,-301.2 160,-301.2"/>
<text text-anchor="start" x="180" y="-308.3" font-family="Helvetica,sans-Serif" font-size="11.00" fill="#000000">koulutustoimija_oid</text>
<polygon fill="none" stroke="#000000" points="417,-301.2 417,-323.2 516,-323.2 516,-301.2 417,-301.2"/>
<text text-anchor="start" x="420" y="-308.9" font-family="Helvetica,sans-Serif" font-size="11.00" fill="#000000">text[2147483647]</text>
<polygon fill="none" stroke="#000000" points="160,-279.2 160,-301.2 417,-301.2 417,-279.2 160,-279.2"/>
<text text-anchor="start" x="180" y="-286.3" font-family="Helvetica,sans-Serif" font-size="11.00" fill="#000000">luokka</text>
<polygon fill="none" stroke="#000000" points="417,-279.2 417,-301.2 516,-301.2 516,-279.2 417,-279.2"/>
<text text-anchor="start" x="420" y="-286.9" font-family="Helvetica,sans-Serif" font-size="11.00" fill="#000000">text[2147483647]</text>
<polygon fill="#ffffff" stroke="transparent" points="160,-257.2 160,-279.2 417,-279.2 417,-257.2 160,-257.2"/>
<polygon fill="none" stroke="#000000" points="160,-257.2 160,-279.2 417,-279.2 417,-257.2 160,-257.2"/>
<text text-anchor="start" x="180" y="-264.3" font-family="Helvetica,sans-Serif" font-size="11.00" fill="#000000">sisaltava_opiskeluoikeus_oppilaitos_oid</text>
<polygon fill="none" stroke="#000000" points="417,-257.2 417,-279.2 516,-279.2 516,-257.2 417,-257.2"/>
<text text-anchor="start" x="420" y="-264.9" font-family="Helvetica,sans-Serif" font-size="11.00" fill="#000000">text[2147483647]</text>
<polygon fill="#ffffff" stroke="transparent" points="160,-235.2 160,-257.2 417,-257.2 417,-235.2 160,-235.2"/>
<polygon fill="none" stroke="#000000" points="160,-235.2 160,-257.2 417,-257.2 417,-235.2 160,-235.2"/>
<text text-anchor="start" x="180" y="-242.3" font-family="Helvetica,sans-Serif" font-size="11.00" fill="#000000">oid</text>
<polygon fill="none" stroke="#000000" points="417,-235.2 417,-257.2 516,-257.2 516,-235.2 417,-235.2"/>
<text text-anchor="start" x="420" y="-242.9" font-family="Helvetica,sans-Serif" font-size="11.00" fill="#000000">text[2147483647]</text>
<polygon fill="none" stroke="#000000" points="160,-213.2 160,-235.2 417,-235.2 417,-213.2 160,-213.2"/>
<image xlink:href="../../images/foreignKeys.png" width="11px" height="12px" preserveAspectRatio="xMinYMin meet" x="165" y="-230.2"/>
<text text-anchor="start" x="180" y="-220.3" font-family="Helvetica,sans-Serif" font-size="11.00" fill="#000000">sisaltava_opiskeluoikeus_oid</text>
<polygon fill="none" stroke="#000000" points="417,-213.2 417,-235.2 516,-235.2 516,-213.2 417,-213.2"/>
<text text-anchor="start" x="420" y="-220.9" font-family="Helvetica,sans-Serif" font-size="11.00" fill="#000000">text[2147483647]</text>
<polygon fill="#ffffff" stroke="transparent" points="160,-191.2 160,-213.2 417,-213.2 417,-191.2 160,-191.2"/>
<polygon fill="none" stroke="#000000" points="160,-191.2 160,-213.2 417,-213.2 417,-191.2 160,-191.2"/>
<text text-anchor="start" x="180" y="-198.3" font-family="Helvetica,sans-Serif" font-size="11.00" fill="#000000">mitatoity</text>
<polygon fill="none" stroke="#000000" points="417,-191.2 417,-213.2 516,-213.2 516,-191.2 417,-191.2"/>
<text text-anchor="start" x="420" y="-198.9" font-family="Helvetica,sans-Serif" font-size="11.00" fill="#000000">bool[1]</text>
<polygon fill="#ffffff" stroke="transparent" points="160,-169.2 160,-191.2 417,-191.2 417,-169.2 160,-169.2"/>
<polygon fill="none" stroke="#000000" points="160,-169.2 160,-191.2 417,-191.2 417,-169.2 160,-169.2"/>
<text text-anchor="start" x="180" y="-176.3" font-family="Helvetica,sans-Serif" font-size="11.00" fill="#000000">koulutusmuoto</text>
<polygon fill="none" stroke="#000000" points="417,-169.2 417,-191.2 516,-191.2 516,-169.2 417,-169.2"/>
<text text-anchor="start" x="420" y="-176.9" font-family="Helvetica,sans-Serif" font-size="11.00" fill="#000000">text[2147483647]</text>
<polygon fill="#ffffff" stroke="transparent" points="160,-147.2 160,-169.2 417,-169.2 417,-147.2 160,-147.2"/>
<polygon fill="none" stroke="#000000" points="160,-147.2 160,-169.2 417,-169.2 417,-147.2 160,-147.2"/>
<text text-anchor="start" x="180" y="-154.3" font-family="Helvetica,sans-Serif" font-size="11.00" fill="#000000">alkamispaiva</text>
<polygon fill="none" stroke="#000000" points="417,-147.2 417,-169.2 516,-169.2 516,-147.2 417,-147.2"/>
<text text-anchor="start" x="420" y="-154.9" font-family="Helvetica,sans-Serif" font-size="11.00" fill="#000000">date[13]</text>
<polygon fill="#ffffff" stroke="transparent" points="160,-125.2 160,-147.2 417,-147.2 417,-125.2 160,-125.2"/>
<polygon fill="none" stroke="#000000" points="160,-125.2 160,-147.2 417,-147.2 417,-125.2 160,-125.2"/>
<text text-anchor="start" x="180" y="-132.3" font-family="Helvetica,sans-Serif" font-size="11.00" fill="#000000">paattymispaiva</text>
<polygon fill="none" stroke="#000000" points="417,-125.2 417,-147.2 516,-147.2 516,-125.2 417,-125.2"/>
<text text-anchor="start" x="420" y="-132.9" font-family="Helvetica,sans-Serif" font-size="11.00" fill="#000000">date[13]</text>
<polygon fill="none" stroke="#000000" points="160,-103.2 160,-125.2 417,-125.2 417,-103.2 160,-103.2"/>
<text text-anchor="start" x="180" y="-110.3" font-family="Helvetica,sans-Serif" font-size="11.00" fill="#000000">suoritusjako_tehty_rajapaivan_jalkeen</text>
<polygon fill="none" stroke="#000000" points="417,-103.2 417,-125.2 516,-125.2 516,-103.2 417,-103.2"/>
<text text-anchor="start" x="420" y="-110.9" font-family="Helvetica,sans-Serif" font-size="11.00" fill="#000000">bool[1]</text>
<polygon fill="#ffffff" stroke="transparent" points="160,-81.2 160,-103.2 417,-103.2 417,-81.2 160,-81.2"/>
<polygon fill="none" stroke="#000000" points="160,-81.2 160,-103.2 417,-103.2 417,-81.2 160,-81.2"/>
<text text-anchor="start" x="180" y="-88.3" font-family="Helvetica,sans-Serif" font-size="11.00" fill="#000000">suoritustyypit</text>
<polygon fill="none" stroke="#000000" points="417,-81.2 417,-103.2 516,-103.2 516,-81.2 417,-81.2"/>
<text text-anchor="start" x="420" y="-88.9" font-family="Helvetica,sans-Serif" font-size="11.00" fill="#000000">_text[2147483647]</text>
<polygon fill="#ffffff" stroke="transparent" points="160,-59.2 160,-81.2 417,-81.2 417,-59.2 160,-59.2"/>
<polygon fill="none" stroke="#000000" points="160,-59.2 160,-81.2 417,-81.2 417,-59.2 160,-59.2"/>
<text text-anchor="start" x="180" y="-66.3" font-family="Helvetica,sans-Serif" font-size="11.00" fill="#000000">poistettu</text>
<polygon fill="none" stroke="#000000" points="417,-59.2 417,-81.2 516,-81.2 516,-59.2 417,-59.2"/>
<text text-anchor="start" x="420" y="-66.9" font-family="Helvetica,sans-Serif" font-size="11.00" fill="#000000">bool[1]</text>
<polygon fill="#ffffff" stroke="transparent" points="160,-40.2 160,-59.2 280,-59.2 280,-40.2 160,-40.2"/>
<polygon fill="none" stroke="#000000" points="160,-40.2 160,-59.2 280,-59.2 280,-40.2 160,-40.2"/>
<text text-anchor="start" x="163" y="-46.3" font-family="Helvetica,sans-Serif" font-size="11.00" fill="#000000">&lt; 2</text>
<polygon fill="#ffffff" stroke="transparent" points="280,-40.2 280,-59.2 417,-59.2 417,-40.2 280,-40.2"/>
<polygon fill="none" stroke="#000000" points="280,-40.2 280,-59.2 417,-59.2 417,-40.2 280,-40.2"/>
<text text-anchor="start" x="381.6105" y="-46.3" font-family="Helvetica,sans-Serif" font-size="11.00" fill="#000000">6 rows</text>
<polygon fill="#ffffff" stroke="transparent" points="417,-40.2 417,-59.2 516,-59.2 516,-40.2 417,-40.2"/>
<polygon fill="none" stroke="#000000" points="417,-40.2 417,-59.2 516,-59.2 516,-40.2 417,-40.2"/>
<text text-anchor="start" x="497.4053" y="-46.3" font-family="Helvetica,sans-Serif" font-size="11.00" fill="#000000">2 &gt;</text>
<polygon fill="none" stroke="#000000" stroke-width="2" points="159,-39.2 159,-479.2 517,-479.2 517,-39.2 159,-39.2"/>
</a>
</g>
</g>
<!-- ytr_opiskeluoikeus&#45;&gt;henkilo -->
<g id="edge2" class="edge">
<title>ytr_opiskeluoikeus:w&#45;&gt;henkilo:e</title>
<path fill="none" stroke="#000000" d="M149.6225,-402.4648C125.7852,-414.7864 144.7903,-473.2 109.5,-473.2"/>
<polygon fill="#000000" stroke="#000000" points="158.3655,-396.4626 160.0713,-404.2786 158.5081,-404.6198 156.8023,-396.8037 158.3655,-396.4626"/>
<polyline fill="none" stroke="#000000" points="160,-400.2 156.092,-401.0529 "/>
<ellipse fill="none" stroke="#000000" cx="152.9656" cy="-401.7353" rx="3.2" ry="3.2"/>
</g>
<!-- ytr_opiskeluoikeus&#45;&gt;ytr_opiskeluoikeus -->
<g id="edge3" class="edge">
<title>ytr_opiskeluoikeus:w&#45;&gt;ytr_opiskeluoikeus:e</title>
<path fill="none" stroke="#000000" d="M151.0707,-235.5557C90.9994,-320.5423 101.6182,-497.2 338,-497.2 585.5,-497.2 585.5,-325.5333 516,-246.2"/>
<polygon fill="#000000" stroke="#000000" points="155.055,-230.4887 162.8299,-226.4253 157.5275,-227.3443 160,-224.2 160,-224.2 160,-224.2 157.5275,-227.3443 157.1701,-221.9747 155.055,-230.4887 155.055,-230.4887"/>
<ellipse fill="none" stroke="#000000" cx="153.077" cy="-233.0041" rx="3.2" ry="3.2"/>
</g>
<!-- ytr_opiskeluoikeushistoria -->
<g id="node4" class="node">
<title>ytr_opiskeluoikeushistoria</title>
<g id="a_node4"><a xlink:href="../../tables/ytr_opiskeluoikeushistoria.html" xlink:title="ytr_opiskeluoikeushistoria" target="_top">
<polygon fill="#ffffff" stroke="transparent" points="567,-373.7 567,-478.7 765,-478.7 765,-373.7 567,-373.7"/>
<polygon fill="#f5f5f5" stroke="transparent" points="567,-455.2 567,-478.2 765,-478.2 765,-455.2 567,-455.2"/>
<polygon fill="none" stroke="#000000" points="567,-455.2 567,-478.2 765,-478.2 765,-455.2 567,-455.2"/>
<text text-anchor="start" x="572" y="-463.8" font-family="Helvetica,sans-Serif" font-weight="bold" font-size="11.00" fill="#000000">ytr_opiskeluoikeushistoria</text>
<text text-anchor="start" x="730.5219" y="-463.3" font-family="Helvetica,sans-Serif" font-size="11.00" fill="#000000">[table]</text>
<polygon fill="none" stroke="#000000" points="567,-433.2 567,-455.2 765,-455.2 765,-433.2 567,-433.2"/>
<image xlink:href="../../images/primaryKeys.png" width="11px" height="12px" preserveAspectRatio="xMinYMin meet" x="572" y="-450.2"/>
<text text-anchor="start" x="596" y="-440.3" font-family="Helvetica,sans-Serif" font-size="11.00" fill="#000000">opiskeluoikeus_id</text>
<polygon fill="none" stroke="#000000" points="567,-411.2 567,-433.2 765,-433.2 765,-411.2 567,-411.2"/>
<image xlink:href="../../images/primaryKeys.png" width="11px" height="12px" preserveAspectRatio="xMinYMin meet" x="572" y="-428.2"/>
<text text-anchor="start" x="596" y="-418.3" font-family="Helvetica,sans-Serif" font-size="11.00" fill="#000000">versionumero</text>
<polygon fill="none" stroke="#000000" points="567,-392.2 567,-411.2 765,-411.2 765,-392.2 567,-392.2"/>
<text text-anchor="start" x="570" y="-398.3" font-family="Helvetica,sans-Serif" font-size="11.00" fill="#000000">...</text>
<polygon fill="#ffffff" stroke="transparent" points="567,-373.2 567,-392.2 651,-392.2 651,-373.2 567,-373.2"/>
<polygon fill="none" stroke="#000000" points="567,-373.2 567,-392.2 651,-392.2 651,-373.2 567,-373.2"/>
<text text-anchor="start" x="570" y="-379.3" font-family="Helvetica,sans-Serif" font-size="11.00" fill="#000000">&lt; 1</text>
<polygon fill="#ffffff" stroke="transparent" points="651,-373.2 651,-392.2 721,-392.2 721,-373.2 651,-373.2"/>
<polygon fill="none" stroke="#000000" points="651,-373.2 651,-392.2 721,-392.2 721,-373.2 651,-373.2"/>
<text text-anchor="start" x="685.6105" y="-379.3" font-family="Helvetica,sans-Serif" font-size="11.00" fill="#000000">6 rows</text>
<polygon fill="#ffffff" stroke="transparent" points="721,-373.2 721,-392.2 765,-392.2 765,-373.2 721,-373.2"/>
<polygon fill="none" stroke="#000000" points="721,-373.2 721,-392.2 765,-392.2 765,-373.2 721,-373.2"/>
<text text-anchor="start" x="755.8862" y="-379.3" font-family="Helvetica,sans-Serif" font-size="11.00" fill="#000000"> &#160;</text>
</a>
</g>
</g>
<!-- ytr_opiskeluoikeushistoria&#45;&gt;ytr_opiskeluoikeus -->
<g id="edge4" class="edge">
<title>ytr_opiskeluoikeushistoria:w&#45;&gt;ytr_opiskeluoikeus:e</title>
<path fill="none" stroke="#000000" d="M552.276,-444.2C540.2815,-444.2 532.8229,-444.2 516,-444.2"/>
<polygon fill="#000000" stroke="#000000" points="559,-444.2001 567,-447.8 563,-444.2 567,-444.2 567,-444.2 567,-444.2 563,-444.2 567,-440.6 559,-444.2001 559,-444.2001"/>
<ellipse fill="none" stroke="#000000" cx="555.8" cy="-444.2001" rx="3.2" ry="3.2"/>
</g>
</g>
</svg>
