<svg xmlns="http://www.w3.org/2000/svg" xmlns:xlink="http://www.w3.org/1999/xlink" contentStyleType="text/css" height="2272px" preserveAspectRatio="none" style="width:1732px;height:2272px;background:#FFFFFF;" version="1.1" viewBox="0 0 1732 2272" width="1732px" zoomAndPan="magnify"><title>OAuth2 -happy path -aktiviteettidiagrammi swimlaneilla</title><defs/><g><text fill="#000000" font-family="sans-serif" font-size="14" font-weight="bold" lengthAdjust="spacing" textLength="445.792" x="642.0833" y="32.9951">OAuth2 -happy path -aktiviteettidiagrammi swimlaneilla</text><rect fill="none" height="20.9531" style="stroke:none;stroke-width:1.0;" width="1699.9585" x="15" y="50.042"/><ellipse cx="186.146" cy="85.9951" fill="#222222" rx="10" ry="10" style="stroke:#222222;stroke-width:1.0;"/><rect fill="#F1F1F1" height="75.875" rx="12.5" ry="12.5" style="stroke:#181818;stroke-width:0.5;" width="167.6094" x="102.3413" y="115.9951"/><text fill="#000000" font-family="sans-serif" font-size="12" lengthAdjust="spacing" textLength="147.6094" x="112.3413" y="137.1338">K&#228;ytt&#228;j&#228; avaa web-sivun</text><text fill="#000000" font-family="sans-serif" font-size="12" lengthAdjust="spacing" textLength="122.666" x="112.3413" y="151.1025">(tai mobiiliappiksen)</text><text fill="#000000" font-family="sans-serif" font-size="12" lengthAdjust="spacing" textLength="107.918" x="112.3413" y="165.0713">ja aloittaa vahvan</text><text fill="#000000" font-family="sans-serif" font-size="12" lengthAdjust="spacing" textLength="105.3457" x="112.3413" y="179.04">tunnistautumisen</text><path d="M20,255.8389 L20,311.2373 A0,0 0 0 0 20,311.2373 L97.9829,311.2373 A0,0 0 0 0 97.9829,311.2373 L97.9829,287.5381 L117.9829,283.5381 L97.9829,279.5381 L97.9829,265.8389 L87.9829,255.8389 L20,255.8389 A0,0 0 0 0 20,255.8389 " fill="#FEFFDD" style="stroke:#181818;stroke-width:0.5;"/><path d="M87.9829,255.8389 L87.9829,265.8389 L97.9829,265.8389 L87.9829,255.8389 " fill="#FEFFDD" style="stroke:#181818;stroke-width:0.5;"/><text fill="#000000" font-family="sans-serif" font-size="13" lengthAdjust="spacing" textLength="56.9829" x="26" y="272.9058">mukana:</text><text fill="#000000" font-family="sans-serif" font-size="13" lengthAdjust="spacing" textLength="29.5737" x="26" y="288.0386">hetu</text><text fill="#000000" font-family="sans-serif" font-size="13" lengthAdjust="spacing" textLength="28.1265" x="26" y="303.1714">nimi</text><rect fill="#F1F1F1" height="33.9688" rx="12.5" ry="12.5" style="stroke:#181818;stroke-width:0.5;" width="136.3262" x="117.9829" y="266.5537"/><text fill="#000000" font-family="sans-serif" font-size="12" lengthAdjust="spacing" textLength="116.3262" x="127.9829" y="287.6924">Pyyd&#228; opintotietoja</text><rect fill="#F1F1F1" height="33.9688" rx="12.5" ry="12.5" style="stroke:#181818;stroke-width:0.5;" width="168.2188" x="102.0366" y="2184.1904"/><text fill="#000000" font-family="sans-serif" font-size="12" lengthAdjust="spacing" textLength="148.2188" x="112.0366" y="2205.3291">Tallenna opiskelijastatus</text><ellipse cx="186.146" cy="2249.1592" fill="none" rx="11" ry="11" style="stroke:#222222;stroke-width:1.0;"/><ellipse cx="186.146" cy="2249.1592" fill="#222222" rx="6" ry="6" style="stroke:#222222;stroke-width:1.0;"/><line style="stroke:#000000;stroke-width:1.5;" x1="15" x2="15" y1="50.042" y2="2260.1592"/><rect fill="#F1F1F1" height="47.9375" rx="12.5" ry="12.5" style="stroke:#181818;stroke-width:0.5;" width="209.0352" x="643.7876" y="331.2373"/><text fill="#000000" font-family="sans-serif" font-size="12" lengthAdjust="spacing" textLength="142.2422" x="653.7876" y="352.376">Luo sessio ja sille state,</text><text fill="#000000" font-family="sans-serif" font-size="12" lengthAdjust="spacing" textLength="189.0352" x="653.7876" y="366.3447">code_challenge ja code_verifier</text><rect fill="#F1F1F1" height="33.9688" rx="12.5" ry="12.5" style="stroke:#181818;stroke-width:0.5;" width="215.4336" x="640.5884" y="399.1748"/><text fill="#000000" font-family="sans-serif" font-size="12" lengthAdjust="spacing" textLength="195.4336" x="650.5884" y="420.3135">Tallenna hetu session yhteyteen</text><path d="M407.9702,443.1436 L407.9702,665.0029 A0,0 0 0 0 407.9702,665.0029 L630.5464,665.0029 A0,0 0 0 0 630.5464,665.0029 L630.5464,558.0732 L650.5464,554.0732 L630.5464,550.0732 L630.5464,453.1436 L620.5464,443.1436 L407.9702,443.1436 A0,0 0 0 0 407.9702,443.1436 " fill="#FEFFDD" style="stroke:#181818;stroke-width:0.5;"/><path d="M620.5464,443.1436 L620.5464,453.1436 L630.5464,453.1436 L620.5464,443.1436 " fill="#FEFFDD" style="stroke:#181818;stroke-width:0.5;"/><text fill="#000000" font-family="sans-serif" font-size="13" lengthAdjust="spacing" textLength="135.6113" x="413.9702" y="460.2104">https://opintopolku.fi</text><text fill="#000000" font-family="sans-serif" font-size="13" lengthAdjust="spacing" textLength="150.4775" x="413.9702" y="475.3433">/koski/omadata-oauth2</text><text fill="#000000" font-family="sans-serif" font-size="13" lengthAdjust="spacing" textLength="124.1602" x="413.9702" y="490.4761">/authorize/PARAMS</text><text fill="#000000" font-family="sans-serif" font-size="13" lengthAdjust="spacing" textLength="4.1323" x="413.9702" y="505.6089">&#160;</text><text fill="#000000" font-family="sans-serif" font-size="13" lengthAdjust="spacing" textLength="58.5063" x="413.9702" y="520.7417">PARAMS:</text><text fill="#000000" font-family="sans-serif" font-size="13" lengthAdjust="spacing" textLength="54.0693" x="413.9702" y="535.8745">client_id</text><text fill="#000000" font-family="sans-serif" font-size="13" lengthAdjust="spacing" textLength="74.4897" x="413.9702" y="551.0073">redirect_uri</text><text fill="#000000" font-family="sans-serif" font-size="13" lengthAdjust="spacing" textLength="32.9316" x="413.9702" y="566.1401">state</text><text fill="#000000" font-family="sans-serif" font-size="13" lengthAdjust="spacing" textLength="38.124" x="413.9702" y="581.2729">scope</text><text fill="#000000" font-family="sans-serif" font-size="13" lengthAdjust="spacing" textLength="137.1157" x="413.9702" y="596.4058">response_type=code</text><text fill="#000000" font-family="sans-serif" font-size="13" lengthAdjust="spacing" textLength="178.7056" x="413.9702" y="611.5386">response_mode=form_post</text><text fill="#000000" font-family="sans-serif" font-size="13" lengthAdjust="spacing" textLength="201.5762" x="413.9702" y="626.6714">code_challenge_method=S256</text><text fill="#000000" font-family="sans-serif" font-size="13" lengthAdjust="spacing" textLength="100.915" x="413.9702" y="641.8042">code_challenge</text><text fill="#000000" font-family="sans-serif" font-size="13" lengthAdjust="spacing" textLength="4.1323" x="413.9702" y="656.937">&#160;</text><rect fill="#F1F1F1" height="61.9063" rx="12.5" ry="12.5" style="stroke:#181818;stroke-width:0.5;" width="195.5176" x="650.5464" y="523.1201"/><text fill="#000000" font-family="sans-serif" font-size="12" lengthAdjust="spacing" textLength="107.5898" x="660.5464" y="544.2588">Muodosta OAuth2</text><text fill="#000000" font-family="sans-serif" font-size="12" lengthAdjust="spacing" textLength="175.5176" x="660.5464" y="558.2275">authorization endpoint URI ja</text><text fill="#000000" font-family="sans-serif" font-size="12" lengthAdjust="spacing" textLength="168.334" x="660.5464" y="572.1963">ohjaa k&#228;ytt&#228;j&#228;n selain sinne</text><rect fill="#F1F1F1" height="47.9375" rx="12.5" ry="12.5" style="stroke:#181818;stroke-width:0.5;" width="161.5566" x="667.5269" y="1089.2451"/><text fill="#000000" font-family="sans-serif" font-size="12" lengthAdjust="spacing" textLength="141.5566" x="677.5269" y="1110.3838">Hae statelle tallennettu</text><text fill="#000000" font-family="sans-serif" font-size="12" lengthAdjust="spacing" textLength="77.5664" x="677.5269" y="1124.3525">code_verifier</text><path d="M320.6401,1147.1826 L320.6401,1459.8389 A0,0 0 0 0 320.6401,1459.8389 L651.8247,1459.8389 A0,0 0 0 0 651.8247,1459.8389 L651.8247,1307.5107 L671.8247,1303.5107 L651.8247,1299.5107 L651.8247,1157.1826 L641.8247,1147.1826 L320.6401,1147.1826 A0,0 0 0 0 320.6401,1147.1826 " fill="#FEFFDD" style="stroke:#181818;stroke-width:0.5;"/><path d="M641.8247,1147.1826 L641.8247,1157.1826 L651.8247,1157.1826 L641.8247,1147.1826 " fill="#FEFFDD" style="stroke:#181818;stroke-width:0.5;"/><text fill="#000000" font-family="sans-serif" font-size="13" lengthAdjust="spacing" textLength="112.3408" x="326.6401" y="1164.2495">mutual-TLS POST</text><text fill="#000000" font-family="sans-serif" font-size="13" lengthAdjust="spacing" textLength="310.1846" x="326.6401" y="1179.3823">https://oph-koski-luovutuspalvelu.opintopolku.fi</text><text fill="#000000" font-family="sans-serif" font-size="13" lengthAdjust="spacing" textLength="174.6875" x="326.6401" y="1194.5151">/koski/api/omadata-oauth2</text><text fill="#000000" font-family="sans-serif" font-size="13" lengthAdjust="spacing" textLength="140.7466" x="326.6401" y="1209.6479">/authorization-server/</text><text fill="#000000" font-family="sans-serif" font-size="13" lengthAdjust="spacing" textLength="141.2036" x="334.9048" y="1224.7808">body=CODE_PARAMS</text><text fill="#000000" font-family="sans-serif" font-size="13" lengthAdjust="spacing" textLength="4.1323" x="326.6401" y="1239.9136">&#160;</text><text fill="#000000" font-family="sans-serif" font-size="13" lengthAdjust="spacing" textLength="140.0356" x="326.6401" y="1255.0464">mutual-TLS tarvitsee:</text><text fill="#000000" font-family="sans-serif" font-size="13" lengthAdjust="spacing" textLength="187.2178" x="326.6401" y="1270.1792">(1) Voimassaolevan luotetun</text><text fill="#000000" font-family="sans-serif" font-size="13" lengthAdjust="spacing" textLength="113.2041" x="334.9048" y="1285.312">CA:n my&#246;nt&#228;m&#228;n</text><text fill="#000000" font-family="sans-serif" font-size="13" lengthAdjust="spacing" textLength="127.8228" x="334.9048" y="1300.4448">asiakasvarmenteen</text><text fill="#000000" font-family="sans-serif" font-size="13" lengthAdjust="spacing" textLength="115.5781" x="334.9048" y="1315.5776">(client certificate)</text><text fill="#000000" font-family="sans-serif" font-size="13" lengthAdjust="spacing" textLength="161.4336" x="326.6401" y="1330.7104">(2) Kiinte&#228;n IP-osoitteen/</text><text fill="#000000" font-family="sans-serif" font-size="13" lengthAdjust="spacing" textLength="74.6294" x="334.9048" y="1345.8433">-avaruuden</text><text fill="#000000" font-family="sans-serif" font-size="13" lengthAdjust="spacing" textLength="4.1323" x="326.6401" y="1360.9761">&#160;</text><text fill="#000000" font-family="sans-serif" font-size="13" lengthAdjust="spacing" textLength="102.54" x="326.6401" y="1376.1089">CODE_PARAMS:</text><text fill="#000000" font-family="sans-serif" font-size="13" lengthAdjust="spacing" textLength="205.3276" x="326.6401" y="1391.2417">grant_type=authorization_code</text><text fill="#000000" font-family="sans-serif" font-size="13" lengthAdjust="spacing" textLength="31.3511" x="326.6401" y="1406.3745">code</text><text fill="#000000" font-family="sans-serif" font-size="13" lengthAdjust="spacing" textLength="84.0303" x="326.6401" y="1421.5073">code_verifier</text><text fill="#000000" font-family="sans-serif" font-size="13" lengthAdjust="spacing" textLength="74.4897" x="326.6401" y="1436.6401">redirect_uri</text><text fill="#000000" font-family="sans-serif" font-size="13" lengthAdjust="spacing" textLength="54.0693" x="326.6401" y="1451.7729">client_id</text><rect fill="#F1F1F1" height="47.9375" rx="12.5" ry="12.5" style="stroke:#181818;stroke-width:0.5;" width="152.9609" x="671.8247" y="1279.542"/><text fill="#000000" font-family="sans-serif" font-size="12" lengthAdjust="spacing" textLength="132.9609" x="681.8247" y="1300.6807">Pyyd&#228; access tokenia,</text><text fill="#000000" font-family="sans-serif" font-size="12" lengthAdjust="spacing" textLength="129.9375" x="681.8247" y="1314.6494">mukana code_verifier</text><path d="M279.2554,1645.7139 L279.2554,1852.4404 A0,0 0 0 0 279.2554,1852.4404 L610.4399,1852.4404 A0,0 0 0 0 610.4399,1852.4404 L610.4399,1753.0771 L630.4399,1749.0771 L610.4399,1745.0771 L610.4399,1655.7139 L600.4399,1645.7139 L279.2554,1645.7139 A0,0 0 0 0 279.2554,1645.7139 " fill="#FEFFDD" style="stroke:#181818;stroke-width:0.5;"/><path d="M600.4399,1645.7139 L600.4399,1655.7139 L610.4399,1655.7139 L600.4399,1645.7139 " fill="#FEFFDD" style="stroke:#181818;stroke-width:0.5;"/><text fill="#000000" font-family="sans-serif" font-size="13" lengthAdjust="spacing" textLength="112.3408" x="285.2554" y="1662.7808">mutual-TLS POST</text><text fill="#000000" font-family="sans-serif" font-size="13" lengthAdjust="spacing" textLength="310.1846" x="285.2554" y="1677.9136">https://oph-koski-luovutuspalvelu.opintopolku.fi</text><text fill="#000000" font-family="sans-serif" font-size="13" lengthAdjust="spacing" textLength="281.709" x="285.2554" y="1693.0464">/koski/api/omadata-oauth2/resource-server</text><text fill="#000000" font-family="sans-serif" font-size="13" lengthAdjust="spacing" textLength="190.3027" x="293.52" y="1708.1792">Authorization=Bearer TOKEN</text><text fill="#000000" font-family="sans-serif" font-size="13" lengthAdjust="spacing" textLength="4.1323" x="285.2554" y="1723.312">&#160;</text><text fill="#000000" font-family="sans-serif" font-size="13" lengthAdjust="spacing" textLength="140.0356" x="285.2554" y="1738.4448">mutual-TLS tarvitsee:</text><text fill="#000000" font-family="sans-serif" font-size="13" lengthAdjust="spacing" textLength="187.2178" x="289.3877" y="1753.5776">(1) Voimassaolevan luotetun</text><text fill="#000000" font-family="sans-serif" font-size="13" lengthAdjust="spacing" textLength="113.2041" x="297.6523" y="1768.7104">CA:n my&#246;nt&#228;m&#228;n</text><text fill="#000000" font-family="sans-serif" font-size="13" lengthAdjust="spacing" textLength="127.8228" x="297.6523" y="1783.8433">asiakasvarmenteen</text><text fill="#000000" font-family="sans-serif" font-size="13" lengthAdjust="spacing" textLength="115.5781" x="297.6523" y="1798.9761">(client certificate)</text><text fill="#000000" font-family="sans-serif" font-size="13" lengthAdjust="spacing" textLength="161.4336" x="289.3877" y="1814.1089">(2) Kiinte&#228;n IP-osoitteen/</text><text fill="#000000" font-family="sans-serif" font-size="13" lengthAdjust="spacing" textLength="74.6294" x="297.6523" y="1829.2417">-avaruuden</text><text fill="#000000" font-family="sans-serif" font-size="13" lengthAdjust="spacing" textLength="4.1323" x="285.2554" y="1844.3745">&#160;</text><rect fill="#F1F1F1" height="33.9688" rx="12.5" ry="12.5" style="stroke:#181818;stroke-width:0.5;" width="235.7305" x="630.4399" y="1732.0928"/><text fill="#000000" font-family="sans-serif" font-size="12" lengthAdjust="spacing" textLength="215.7305" x="640.4399" y="1753.2314">Pyyd&#228; opintotietoja access tokenilla</text><rect fill="#F1F1F1" height="61.9063" rx="12.5" ry="12.5" style="stroke:#181818;stroke-width:0.5;" width="198.1309" x="649.2397" y="1980.3779"/><text fill="#000000" font-family="sans-serif" font-size="12" lengthAdjust="spacing" textLength="156.832" x="659.2397" y="2001.5166">Tarkista, ett&#228; opintotiedot</text><text fill="#000000" font-family="sans-serif" font-size="12" lengthAdjust="spacing" textLength="178.1309" x="659.2397" y="2015.4854">vastaavat alussa tallennettua</text><text fill="#000000" font-family="sans-serif" font-size="12" lengthAdjust="spacing" textLength="34.6523" x="659.2397" y="2029.4541">hetua</text><rect fill="#F1F1F1" height="47.9375" rx="12.5" ry="12.5" style="stroke:#181818;stroke-width:0.5;" width="226.1914" x="635.2095" y="2062.2842"/><text fill="#000000" font-family="sans-serif" font-size="12" lengthAdjust="spacing" textLength="146.373" x="645.2095" y="2083.4229">P&#228;&#228;ttele opiskelijastatus</text><text fill="#000000" font-family="sans-serif" font-size="12" lengthAdjust="spacing" textLength="206.1914" x="645.2095" y="2097.3916">opintotiedoista ("s&#228;&#228;nt&#246;moottori")</text><rect fill="#F1F1F1" height="33.9688" rx="12.5" ry="12.5" style="stroke:#181818;stroke-width:0.5;" width="158.0059" x="669.3022" y="2130.2217"/><text fill="#000000" font-family="sans-serif" font-size="12" lengthAdjust="spacing" textLength="138.0059" x="679.3022" y="2151.3604">L&#228;het&#228; opiskelijastatus</text><line style="stroke:#000000;stroke-width:1.5;" x1="274.2554" x2="274.2554" y1="50.042" y2="2260.1592"/><rect fill="#F1F1F1" height="33.9688" rx="12.5" ry="12.5" style="stroke:#181818;stroke-width:0.5;" width="205.1211" x="1235.8633" y="685.0029"/><text fill="#000000" font-family="sans-serif" font-size="12" lengthAdjust="spacing" textLength="185.1211" x="1245.8633" y="706.1416">Aloita vahva tunnistautuminen</text><rect fill="#F1F1F1" height="61.9063" rx="12.5" ry="12.5" style="stroke:#181818;stroke-width:0.5;" width="243.7402" x="1216.5537" y="820.8779"/><text fill="#000000" font-family="sans-serif" font-size="12" lengthAdjust="spacing" textLength="195.498" x="1226.5537" y="842.0166">Vastaanota ja tallenna k&#228;ytt&#228;j&#228;n</text><text fill="#000000" font-family="sans-serif" font-size="12" lengthAdjust="spacing" textLength="211.4297" x="1226.5537" y="855.9854">antama suostumus ja siihen liitetty</text><text fill="#000000" font-family="sans-serif" font-size="12" lengthAdjust="spacing" textLength="223.7402" x="1226.5537" y="869.9541">authorization code ja code_challenge</text><path d="M875.1704,892.7842 L875.1704,1069.2451 A0,0 0 0 0 875.1704,1069.2451 L1180.9707,1069.2451 A0,0 0 0 0 1180.9707,1069.2451 L1180.9707,985.0146 L1200.9707,981.0146 L1180.9707,977.0146 L1180.9707,902.7842 L1170.9707,892.7842 L875.1704,892.7842 A0,0 0 0 0 875.1704,892.7842 " fill="#FEFFDD" style="stroke:#181818;stroke-width:0.5;"/><path d="M1170.9707,892.7842 L1170.9707,902.7842 L1180.9707,902.7842 L1170.9707,892.7842 " fill="#FEFFDD" style="stroke:#181818;stroke-width:0.5;"/><text fill="#000000" font-family="sans-serif" font-size="13" lengthAdjust="spacing" textLength="112.8867" x="881.1704" y="909.8511">POST redirect_uri</text><text fill="#000000" font-family="sans-serif" font-size="13" lengthAdjust="spacing" textLength="156.8379" x="881.1704" y="924.9839">body=CODE_RESPONSE</text><text fill="#000000" font-family="sans-serif" font-size="13" lengthAdjust="spacing" textLength="4.1323" x="881.1704" y="940.1167">&#160;</text><text fill="#000000" font-family="sans-serif" font-size="13" lengthAdjust="spacing" textLength="118.1743" x="881.1704" y="955.2495">CODE_RESPONSE:</text><text fill="#000000" font-family="sans-serif" font-size="13" lengthAdjust="spacing" textLength="32.9316" x="881.1704" y="970.3823">state</text><text fill="#000000" font-family="sans-serif" font-size="13" lengthAdjust="spacing" textLength="31.3511" x="881.1704" y="985.5151">code</text><text fill="#000000" font-family="sans-serif" font-size="13" lengthAdjust="spacing" textLength="276.5356" x="889.4351" y="1000.6479">Virhetilanteissa code:n sijasta voi sis&#228;lt&#228;&#228;:</text><text fill="#000000" font-family="sans-serif" font-size="13" lengthAdjust="spacing" textLength="31.9858" x="881.1704" y="1015.7808">error</text><text fill="#000000" font-family="sans-serif" font-size="13" lengthAdjust="spacing" textLength="110.7666" x="881.1704" y="1030.9136">error_description</text><text fill="#000000" font-family="sans-serif" font-size="13" lengthAdjust="spacing" textLength="55.6816" x="881.1704" y="1046.0464">error_uri</text><text fill="#000000" font-family="sans-serif" font-size="13" lengthAdjust="spacing" textLength="4.1323" x="881.1704" y="1061.1792">&#160;</text><rect fill="#F1F1F1" height="33.9688" rx="12.5" ry="12.5" style="stroke:#181818;stroke-width:0.5;" width="274.9063" x="1200.9707" y="964.0303"/><text fill="#000000" font-family="sans-serif" font-size="12" lengthAdjust="spacing" textLength="254.9063" x="1210.9707" y="985.1689">L&#228;het&#228; OAuth2 authorization code ja state</text><rect fill="#F1F1F1" height="33.9688" rx="12.5" ry="12.5" style="stroke:#181818;stroke-width:0.5;" width="203.0352" x="1236.9063" y="1479.8389"/><text fill="#000000" font-family="sans-serif" font-size="12" lengthAdjust="spacing" textLength="183.0352" x="1246.9063" y="1500.9775">Tarkista varmenne ja ip-osoite</text><rect fill="#F1F1F1" height="47.9375" rx="12.5" ry="12.5" style="stroke:#181818;stroke-width:0.5;" width="247.0742" x="1214.8867" y="1533.8076"/><text fill="#000000" font-family="sans-serif" font-size="12" lengthAdjust="spacing" textLength="227.0742" x="1224.8867" y="1554.9463">Tarkista code_challenge-code_verifier</text><text fill="#000000" font-family="sans-serif" font-size="12" lengthAdjust="spacing" textLength="68.6836" x="1224.8867" y="1568.915">vastaavuus</text><rect fill="#F1F1F1" height="33.9688" rx="12.5" ry="12.5" style="stroke:#181818;stroke-width:0.5;" width="255.7754" x="1210.5361" y="1601.7451"/><text fill="#000000" font-family="sans-serif" font-size="12" lengthAdjust="spacing" textLength="235.7754" x="1220.5361" y="1622.8838">Luo, tallenna ja vastaa access tokenilla</text><rect fill="#F1F1F1" height="33.9688" rx="12.5" ry="12.5" style="stroke:#181818;stroke-width:0.5;" width="203.0352" x="1236.9063" y="1872.4404"/><text fill="#000000" font-family="sans-serif" font-size="12" lengthAdjust="spacing" textLength="183.0352" x="1246.9063" y="1893.5791">Tarkista varmenne ja ip-osoite</text><rect fill="#F1F1F1" height="33.9688" rx="12.5" ry="12.5" style="stroke:#181818;stroke-width:0.5;" width="150.7227" x="1263.0625" y="1926.4092"/><text fill="#000000" font-family="sans-serif" font-size="12" lengthAdjust="spacing" textLength="130.7227" x="1273.0625" y="1947.5479">Vastaa opintotiedoilla</text><line style="stroke:#000000;stroke-width:1.5;" x1="870.1704" x2="870.1704" y1="50.042" y2="2260.1592"/><rect fill="#F1F1F1" height="33.9688" rx="12.5" ry="12.5" style="stroke:#181818;stroke-width:0.5;" width="94.6191" x="1550.1777" y="211.8701"/><text fill="#000000" font-family="sans-serif" font-size="12" lengthAdjust="spacing" textLength="74.6191" x="1560.1777" y="233.0088">Tunnistaudu</text><rect fill="#F1F1F1" height="61.9063" rx="12.5" ry="12.5" style="stroke:#181818;stroke-width:0.5;" width="223.2207" x="1485.877" y="738.9717"/><text fill="#000000" font-family="sans-serif" font-size="12" lengthAdjust="spacing" textLength="170.3438" x="1495.877" y="760.1104">L&#228;het&#228; tunnistautumistiedot</text><text fill="#000000" font-family="sans-serif" font-size="12" lengthAdjust="spacing" textLength="203.2207" x="1495.877" y="774.0791">(jos k&#228;ytt&#228;j&#228; oli jo tunnistautunut,</text><text fill="#000000" font-family="sans-serif" font-size="12" lengthAdjust="spacing" textLength="177.4512" x="1495.877" y="788.0479">jos ei, niin tunnistaudu ensin)</text><line style="stroke:#000000;stroke-width:1.5;" x1="1479.877" x2="1479.877" y1="50.042" y2="2260.1592"/><line style="stroke:#000000;stroke-width:1.5;" x1="1713.0977" x2="1713.0977" y1="50.042" y2="2260.1592"/><line style="stroke:#181818;stroke-width:1.0;" x1="186.146" x2="186.146" y1="95.9951" y2="115.9951"/><polygon fill="#181818" points="182.146,105.9951,186.146,115.9951,190.146,105.9951,186.146,109.9951" style="stroke:#181818;stroke-width:1.0;"/><line style="stroke:#181818;stroke-width:1.0;" x1="186.146" x2="186.146" y1="2218.1592" y2="2238.1592"/><polygon fill="#181818" points="182.146,2228.1592,186.146,2238.1592,190.146,2228.1592,186.146,2232.1592" style="stroke:#181818;stroke-width:1.0;"/><line style="stroke:#181818;stroke-width:1.0;" x1="748.3052" x2="748.3052" y1="379.1748" y2="399.1748"/><polygon fill="#181818" points="744.3052,389.1748,748.3052,399.1748,752.3052,389.1748,748.3052,393.1748" style="stroke:#181818;stroke-width:1.0;"/><line style="stroke:#181818;stroke-width:1.0;" x1="748.3052" x2="748.3052" y1="433.1436" y2="523.1201"/><polygon fill="#181818" points="744.3052,513.1201,748.3052,523.1201,752.3052,513.1201,748.3052,517.1201" style="stroke:#181818;stroke-width:1.0;"/><line style="stroke:#181818;stroke-width:1.0;" x1="748.3052" x2="748.3052" y1="1137.1826" y2="1279.542"/><polygon fill="#181818" points="744.3052,1269.542,748.3052,1279.542,752.3052,1269.542,748.3052,1273.542" style="stroke:#181818;stroke-width:1.0;"/><line style="stroke:#181818;stroke-width:1.0;" x1="748.3052" x2="748.3052" y1="2042.2842" y2="2062.2842"/><polygon fill="#181818" points="744.3052,2052.2842,748.3052,2062.2842,752.3052,2052.2842,748.3052,2056.2842" style="stroke:#181818;stroke-width:1.0;"/><line style="stroke:#181818;stroke-width:1.0;" x1="748.3052" x2="748.3052" y1="2110.2217" y2="2130.2217"/><polygon fill="#181818" points="744.3052,2120.2217,748.3052,2130.2217,752.3052,2120.2217,748.3052,2124.2217" style="stroke:#181818;stroke-width:1.0;"/><line style="stroke:#181818;stroke-width:1.0;" x1="1338.4238" x2="1338.4238" y1="882.7842" y2="964.0303"/><polygon fill="#181818" points="1334.4238,954.0303,1338.4238,964.0303,1342.4238,954.0303,1338.4238,958.0303" style="stroke:#181818;stroke-width:1.0;"/><line style="stroke:#181818;stroke-width:1.0;" x1="1338.4238" x2="1338.4238" y1="1513.8076" y2="1533.8076"/><polygon fill="#181818" points="1334.4238,1523.8076,1338.4238,1533.8076,1342.4238,1523.8076,1338.4238,1527.8076" style="stroke:#181818;stroke-width:1.0;"/><line style="stroke:#181818;stroke-width:1.0;" x1="1338.4238" x2="1338.4238" y1="1581.7451" y2="1601.7451"/><polygon fill="#181818" points="1334.4238,1591.7451,1338.4238,1601.7451,1342.4238,1591.7451,1338.4238,1595.7451" style="stroke:#181818;stroke-width:1.0;"/><line style="stroke:#181818;stroke-width:1.0;" x1="1338.4238" x2="1338.4238" y1="1906.4092" y2="1926.4092"/><polygon fill="#181818" points="1334.4238,1916.4092,1338.4238,1926.4092,1342.4238,1916.4092,1338.4238,1920.4092" style="stroke:#181818;stroke-width:1.0;"/><line style="stroke:#181818;stroke-width:1.0;" x1="186.146" x2="186.146" y1="191.8701" y2="196.8701"/><line style="stroke:#181818;stroke-width:1.0;" x1="186.146" x2="1597.4873" y1="196.8701" y2="196.8701"/><line style="stroke:#181818;stroke-width:1.0;" x1="1597.4873" x2="1597.4873" y1="196.8701" y2="211.8701"/><polygon fill="#181818" points="1593.4873,201.8701,1597.4873,211.8701,1601.4873,201.8701,1597.4873,205.8701" style="stroke:#181818;stroke-width:1.0;"/><line style="stroke:#181818;stroke-width:1.0;" x1="1597.4873" x2="1597.4873" y1="245.8389" y2="250.8389"/><line style="stroke:#181818;stroke-width:1.0;" x1="1597.4873" x2="186.146" y1="250.8389" y2="250.8389"/><line style="stroke:#181818;stroke-width:1.0;" x1="186.146" x2="186.146" y1="250.8389" y2="266.5537"/><polygon fill="#181818" points="182.146,256.5537,186.146,266.5537,190.146,256.5537,186.146,260.5537" style="stroke:#181818;stroke-width:1.0;"/><line style="stroke:#181818;stroke-width:1.0;" x1="186.146" x2="186.146" y1="300.5225" y2="316.2373"/><line style="stroke:#181818;stroke-width:1.0;" x1="186.146" x2="748.3052" y1="316.2373" y2="316.2373"/><line style="stroke:#181818;stroke-width:1.0;" x1="748.3052" x2="748.3052" y1="316.2373" y2="331.2373"/><polygon fill="#181818" points="744.3052,321.2373,748.3052,331.2373,752.3052,321.2373,748.3052,325.2373" style="stroke:#181818;stroke-width:1.0;"/><line style="stroke:#181818;stroke-width:1.0;" x1="748.3052" x2="748.3052" y1="585.0264" y2="642.5146"/><line style="stroke:#181818;stroke-width:1.0;" x1="748.3052" x2="1338.4238" y1="642.5146" y2="642.5146"/><line style="stroke:#181818;stroke-width:1.0;" x1="1338.4238" x2="1338.4238" y1="642.5146" y2="685.0029"/><polygon fill="#181818" points="1334.4238,675.0029,1338.4238,685.0029,1342.4238,675.0029,1338.4238,679.0029" style="stroke:#181818;stroke-width:1.0;"/><line style="stroke:#181818;stroke-width:1.0;" x1="1338.4238" x2="1338.4238" y1="718.9717" y2="723.9717"/><line style="stroke:#181818;stroke-width:1.0;" x1="1338.4238" x2="1597.4873" y1="723.9717" y2="723.9717"/><line style="stroke:#181818;stroke-width:1.0;" x1="1597.4873" x2="1597.4873" y1="723.9717" y2="738.9717"/><polygon fill="#181818" points="1593.4873,728.9717,1597.4873,738.9717,1601.4873,728.9717,1597.4873,732.9717" style="stroke:#181818;stroke-width:1.0;"/><line style="stroke:#181818;stroke-width:1.0;" x1="1597.4873" x2="1597.4873" y1="800.8779" y2="805.8779"/><line style="stroke:#181818;stroke-width:1.0;" x1="1597.4873" x2="1338.4238" y1="805.8779" y2="805.8779"/><line style="stroke:#181818;stroke-width:1.0;" x1="1338.4238" x2="1338.4238" y1="805.8779" y2="820.8779"/><polygon fill="#181818" points="1334.4238,810.8779,1338.4238,820.8779,1342.4238,810.8779,1338.4238,814.8779" style="stroke:#181818;stroke-width:1.0;"/><line style="stroke:#181818;stroke-width:1.0;" x1="1338.4238" x2="1338.4238" y1="997.999" y2="1051.1221"/><line style="stroke:#181818;stroke-width:1.0;" x1="1338.4238" x2="748.3052" y1="1051.1221" y2="1051.1221"/><line style="stroke:#181818;stroke-width:1.0;" x1="748.3052" x2="748.3052" y1="1051.1221" y2="1089.2451"/><polygon fill="#181818" points="744.3052,1079.2451,748.3052,1089.2451,752.3052,1079.2451,748.3052,1083.2451" style="stroke:#181818;stroke-width:1.0;"/><line style="stroke:#181818;stroke-width:1.0;" x1="748.3052" x2="748.3052" y1="1327.4795" y2="1411.1592"/><line style="stroke:#181818;stroke-width:1.0;" x1="748.3052" x2="1338.4238" y1="1411.1592" y2="1411.1592"/><line style="stroke:#181818;stroke-width:1.0;" x1="1338.4238" x2="1338.4238" y1="1411.1592" y2="1479.8389"/><polygon fill="#181818" points="1334.4238,1469.8389,1338.4238,1479.8389,1342.4238,1469.8389,1338.4238,1473.8389" style="stroke:#181818;stroke-width:1.0;"/><line style="stroke:#181818;stroke-width:1.0;" x1="1338.4238" x2="1338.4238" y1="1635.7139" y2="1671.4033"/><line style="stroke:#181818;stroke-width:1.0;" x1="1338.4238" x2="748.3052" y1="1671.4033" y2="1671.4033"/><line style="stroke:#181818;stroke-width:1.0;" x1="748.3052" x2="748.3052" y1="1671.4033" y2="1732.0928"/><polygon fill="#181818" points="744.3052,1722.0928,748.3052,1732.0928,752.3052,1722.0928,748.3052,1726.0928" style="stroke:#181818;stroke-width:1.0;"/><line style="stroke:#181818;stroke-width:1.0;" x1="748.3052" x2="748.3052" y1="1766.0615" y2="1826.751"/><line style="stroke:#181818;stroke-width:1.0;" x1="748.3052" x2="1338.4238" y1="1826.751" y2="1826.751"/><line style="stroke:#181818;stroke-width:1.0;" x1="1338.4238" x2="1338.4238" y1="1826.751" y2="1872.4404"/><polygon fill="#181818" points="1334.4238,1862.4404,1338.4238,1872.4404,1342.4238,1862.4404,1338.4238,1866.4404" style="stroke:#181818;stroke-width:1.0;"/><line style="stroke:#181818;stroke-width:1.0;" x1="1338.4238" x2="1338.4238" y1="1960.3779" y2="1965.3779"/><line style="stroke:#181818;stroke-width:1.0;" x1="1338.4238" x2="748.3052" y1="1965.3779" y2="1965.3779"/><line style="stroke:#181818;stroke-width:1.0;" x1="748.3052" x2="748.3052" y1="1965.3779" y2="1980.3779"/><polygon fill="#181818" points="744.3052,1970.3779,748.3052,1980.3779,752.3052,1970.3779,748.3052,1974.3779" style="stroke:#181818;stroke-width:1.0;"/><line style="stroke:#181818;stroke-width:1.0;" x1="748.3052" x2="748.3052" y1="2164.1904" y2="2169.1904"/><line style="stroke:#181818;stroke-width:1.0;" x1="748.3052" x2="186.146" y1="2169.1904" y2="2169.1904"/><line style="stroke:#181818;stroke-width:1.0;" x1="186.146" x2="186.146" y1="2169.1904" y2="2184.1904"/><polygon fill="#181818" points="182.146,2174.1904,186.146,2184.1904,190.146,2174.1904,186.146,2178.1904" style="stroke:#181818;stroke-width:1.0;"/><text fill="#000000" font-family="sans-serif" font-size="18" lengthAdjust="spacing" textLength="174.8936" x="57.1809" y="66.75">Hy&#246;dynt&#228;j&#228;-palvelu</text><text fill="#000000" font-family="sans-serif" font-size="18" lengthAdjust="spacing" textLength="345.0322" x="399.6968" y="66.75">Hy&#246;dynt&#228;j&#228;n KOSKI-integraatiopalvelu</text><text fill="#000000" font-family="sans-serif" font-size="18" lengthAdjust="spacing" textLength="98.7891" x="1125.6292" y="66.75">OPH KOSKI</text><text fill="#000000" font-family="sans-serif" font-size="18" lengthAdjust="spacing" textLength="73.4414" x="1559.7666" y="66.75">Suomi.fi</text><!--SRC=[lLR1Rk984BttLxJc118Uj95s3qOviBEH4YKpe93D5LNiohYmtMsvgprYbS_X6-O7-B6jDYOObaJA7FO2ehjT_UgzLmypSO5wDlMSNUWeWwfQwmeuqn7aJ0qn8ZEb1DzhA4lIxWUL1HYaeW3rShtU_apNXhURrNOJLL0qMFYNatMZRsUBsvk83ADK0IPxE3cRN- -sNzwivXXgLl7jThFctPw61a3_mAV8KUED6Z2GBkqJKK7I0UKEpL2jG4DXYLdEDf0rO1HxOqZgUVOboQ69UbbuMzBdPtfHySD-D_MJDz74y_Kw5GYsadui4x9TmKGPowWBV6PL-XmCn2f3zifGIGfDgiF-1tY9xxpL3fqZgwKF9tIZ5cYC8vNO59T91h9alcFORbSQhEcPi9v88-sU0HqmT6MCNcUCQz5Jkew_UfjQgTSfhuIHpDRqJm1Xj02khC3IVz_VI7rbivLmc1y4C5Aq098lCWRxtMVCbOl7unqzbIroB-IgSMvTJcDRGWeCaONsrl7-MXpFf_VJhmkbTj-nIWf2mqjALOqfrPZmqjUaMWgKIso5ik4gQnmkULtXPU3Wi5JAhyjdMvVBIjeyeMnPeboRNYukVl_ZP4lrnEfPCvu68tKsqaSkCgSkkjjkX7PnoB7Pn2cfPJLOMTTdKjk2zChs3nlF8nME8Osq8M6P3yOKROJpuUGOtYF8BWXi27RWlVnznHGOXbAiv8KGNtgtynLbQ7H1CkVCwnCR16fUxVLAqQJNOfSRvnzhjUfxOpvRFEWZEPzikhxyCllhQdb_jPZFlYskb3hw6NUAj-fg_KYrN4mIG8pat0vQ76ou2Wpenaf2aTjk2a6ttSGAwzhMkyzbYYwfgGeOkvK0uPUcyngwQGnZsT4j17frEebTM42Io11gjZaQWb6N4QTpsyyGzb143tSB7KZhJLKMjPCK5TusSiXrc3wVdpUetfwvLgp8OIq0niBjGOlzBFPGI0JBVu53ZDNWjw5-j5I2y6yBb5ZL0aRy8q6izPUfo54AaO76ClXEQt04ERW6wb9cMW98rWQx0TS9rYpj9yBbK0qkXlgM0kE1_vjvP5t8RtaY08mazMllKtbUzN36IkIHg6XJuAYvPUkQruzNfeyZvP0qvqV_0UgSMdEr-4thRQfss73IEt0y9z7ndKqxeettRjAc- -WmfgjGE-mU-qJ-OISVCUMvFwOp5VyFbuqbYAsl4-py9UfD-yfS_ebGOwqVPhTNtzuocdxVQMUjTjPhvyscttVRaTr-qHcxM3ueajeFYxg_OwGn97c_5kyz1ImlEZx4OI-Ae7q1WP118GgbBuagUThbMEpIKdHLVMYXay4d5quBif-bjSoYsATXF_5FAxppelJw5lBVPvoOIFqB]--></g></svg>