<svg xmlns="http://www.w3.org/2000/svg" xmlns:xlink="http://www.w3.org/1999/xlink" contentStyleType="text/css" height="2562px" preserveAspectRatio="none" style="width:2037px;height:2562px;background:#FFFFFF;" version="1.1" viewBox="0 0 2037 2562" width="2037px" zoomAndPan="magnify"><title>OAuth2 -happy path -sekvenssi esimerkki-hy&#246;dynt&#228;j&#228;lle</title><defs/><g><text fill="#000000" font-family="sans-serif" font-size="14" font-weight="bold" lengthAdjust="spacing" textLength="442.2715" x="799.0308" y="27.9951">OAuth2 -happy path -sekvenssi esimerkki-hy&#246;dynt&#228;j&#228;lle</text><rect fill="none" height="479.9219" style="stroke:#000000;stroke-width:1.5;" width="969.9351" x="20" y="135.5938"/><rect fill="none" height="779.5156" style="stroke:#000000;stroke-width:1.5;" width="2011.333" x="20" y="629.5156"/><rect fill="none" height="471.0547" style="stroke:#000000;stroke-width:1.5;" width="1721.3848" x="160" y="1423.0313"/><rect fill="none" height="229.4609" style="stroke:#000000;stroke-width:1.5;" width="1645.5576" x="178" y="1908.0859"/><rect fill="none" height="313.4609" style="stroke:#000000;stroke-width:1.5;" width="989.9351" x="10" y="2151.5469"/><rect fill="none" height="108.5313" style="stroke:#000000;stroke-width:1.5;" width="969.9351" x="20" y="2349.4766"/><line style="stroke:#181818;stroke-width:0.5;stroke-dasharray:5.0,5.0;" x1="62" x2="62" y1="118.5938" y2="2482.0078"/><line style="stroke:#181818;stroke-width:0.5;stroke-dasharray:5.0,5.0;" x1="183.0713" x2="183.0713" y1="118.5938" y2="2482.0078"/><line style="stroke:#181818;stroke-width:0.5;stroke-dasharray:5.0,5.0;" x1="401.3711" x2="401.3711" y1="118.5938" y2="2482.0078"/><line style="stroke:#181818;stroke-width:0.5;stroke-dasharray:5.0,5.0;" x1="904.9438" x2="904.9438" y1="118.5938" y2="2482.0078"/><line style="stroke:#181818;stroke-width:0.5;stroke-dasharray:5.0,5.0;" x1="1560.4746" x2="1560.4746" y1="118.5938" y2="2482.0078"/><line style="stroke:#181818;stroke-width:0.5;stroke-dasharray:5.0,5.0;" x1="1881.9531" x2="1881.9531" y1="118.5938" y2="2482.0078"/><text fill="#000000" font-family="sans-serif" font-size="14" lengthAdjust="spacing" textLength="58.0713" x="30" y="115.292">K&#228;ytt&#228;j&#228;</text><ellipse cx="62.0356" cy="50.7969" fill="#E2E2F0" rx="8" ry="8" style="stroke:#181818;stroke-width:0.5;"/><path d="M62.0356,58.7969 L62.0356,85.7969 M49.0356,66.7969 L75.0356,66.7969 M62.0356,85.7969 L49.0356,100.7969 M62.0356,85.7969 L75.0356,100.7969 " fill="none" style="stroke:#181818;stroke-width:0.5;"/><text fill="#000000" font-family="sans-serif" font-size="14" lengthAdjust="spacing" textLength="58.0713" x="30" y="2494.0029">K&#228;ytt&#228;j&#228;</text><ellipse cx="62.0356" cy="2505.8047" fill="#E2E2F0" rx="8" ry="8" style="stroke:#181818;stroke-width:0.5;"/><path d="M62.0356,2513.8047 L62.0356,2540.8047 M49.0356,2521.8047 L75.0356,2521.8047 M62.0356,2540.8047 L49.0356,2555.8047 M62.0356,2540.8047 L75.0356,2555.8047 " fill="none" style="stroke:#181818;stroke-width:0.5;"/><rect fill="#E2E2F0" height="30.2969" rx="2.5" ry="2.5" style="stroke:#181818;stroke-width:0.5;" width="158.2998" x="104.0713" y="87.2969"/><text fill="#000000" font-family="sans-serif" font-size="14" lengthAdjust="spacing" textLength="144.2998" x="111.0713" y="107.292">Hy&#246;dynt&#228;j&#228;n palvelu</text><rect fill="#E2E2F0" height="30.2969" rx="2.5" ry="2.5" style="stroke:#181818;stroke-width:0.5;" width="158.2998" x="104.0713" y="2481.0078"/><text fill="#000000" font-family="sans-serif" font-size="14" lengthAdjust="spacing" textLength="144.2998" x="111.0713" y="2501.0029">Hy&#246;dynt&#228;j&#228;n palvelu</text><rect fill="#E2E2F0" height="46.5938" rx="2.5" ry="2.5" style="stroke:#181818;stroke-width:0.5;" width="259.6631" x="272.3711" y="71"/><text fill="#000000" font-family="sans-serif" font-size="14" lengthAdjust="spacing" textLength="245.6631" x="279.3711" y="90.9951">Hy&#246;dynt&#228;j&#228;n OAuth2-alij&#228;rjestelm&#228;</text><text fill="#000000" font-family="sans-serif" font-size="14" lengthAdjust="spacing" textLength="97.7197" x="353.3428" y="107.292">OAuth2 Client</text><rect fill="#E2E2F0" height="46.5938" rx="2.5" ry="2.5" style="stroke:#181818;stroke-width:0.5;" width="259.6631" x="272.3711" y="2481.0078"/><text fill="#000000" font-family="sans-serif" font-size="14" lengthAdjust="spacing" textLength="245.6631" x="279.3711" y="2501.0029">Hy&#246;dynt&#228;j&#228;n OAuth2-alij&#228;rjestelm&#228;</text><text fill="#000000" font-family="sans-serif" font-size="14" lengthAdjust="spacing" textLength="97.7197" x="353.3428" y="2517.2998">OAuth2 Client</text><rect fill="#E2E2F0" height="46.5938" rx="2.5" ry="2.5" style="stroke:#181818;stroke-width:0.5;" width="147.9912" x="831.9438" y="71"/><text fill="#000000" font-family="sans-serif" font-size="14" lengthAdjust="spacing" textLength="77.5332" x="867.1729" y="90.9951">Web-selain</text><text fill="#000000" font-family="sans-serif" font-size="14" lengthAdjust="spacing" textLength="133.9912" x="838.9438" y="107.292">OAuth2 User agent</text><rect fill="#E2E2F0" height="46.5938" rx="2.5" ry="2.5" style="stroke:#181818;stroke-width:0.5;" width="147.9912" x="831.9438" y="2481.0078"/><text fill="#000000" font-family="sans-serif" font-size="14" lengthAdjust="spacing" textLength="77.5332" x="867.1729" y="2501.0029">Web-selain</text><text fill="#000000" font-family="sans-serif" font-size="14" lengthAdjust="spacing" textLength="133.9912" x="838.9438" y="2517.2998">OAuth2 User agent</text><rect fill="#E2E2F0" height="46.5938" rx="2.5" ry="2.5" style="stroke:#181818;stroke-width:0.5;" width="343.4785" x="1389.4746" y="71"/><text fill="#000000" font-family="sans-serif" font-size="14" lengthAdjust="spacing" textLength="42.3965" x="1540.0156" y="90.9951">KOSKI</text><text fill="#000000" font-family="sans-serif" font-size="14" lengthAdjust="spacing" textLength="329.4785" x="1396.4746" y="107.292">OAuth2 Authorization server &amp; resource server</text><rect fill="#E2E2F0" height="46.5938" rx="2.5" ry="2.5" style="stroke:#181818;stroke-width:0.5;" width="343.4785" x="1389.4746" y="2481.0078"/><text fill="#000000" font-family="sans-serif" font-size="14" lengthAdjust="spacing" textLength="42.3965" x="1540.0156" y="2501.0029">KOSKI</text><text fill="#000000" font-family="sans-serif" font-size="14" lengthAdjust="spacing" textLength="329.4785" x="1396.4746" y="2517.2998">OAuth2 Authorization server &amp; resource server</text><rect fill="#E2E2F0" height="30.2969" rx="2.5" ry="2.5" style="stroke:#181818;stroke-width:0.5;" width="278.3799" x="1742.9531" y="87.2969"/><text fill="#000000" font-family="sans-serif" font-size="14" lengthAdjust="spacing" textLength="264.3799" x="1749.9531" y="107.292">Opintopolku &amp; Suomi.fi-kirjautuminen</text><rect fill="#E2E2F0" height="30.2969" rx="2.5" ry="2.5" style="stroke:#181818;stroke-width:0.5;" width="278.3799" x="1742.9531" y="2481.0078"/><text fill="#000000" font-family="sans-serif" font-size="14" lengthAdjust="spacing" textLength="264.3799" x="1749.9531" y="2501.0029">Opintopolku &amp; Suomi.fi-kirjautuminen</text><path d="M20,135.5938 L466.9717,135.5938 L466.9717,188.125 L456.9717,198.125 L20,198.125 L20,135.5938 " fill="#EEEEEE" style="stroke:#000000;stroke-width:1.5;"/><rect fill="none" height="479.9219" style="stroke:#000000;stroke-width:1.5;" width="969.9351" x="20" y="135.5938"/><text fill="#000000" font-family="sans-serif" font-size="13" font-weight="bold" lengthAdjust="spacing" textLength="360.0771" x="35" y="148.6606">Esimerkki hy&#246;dynt&#228;j&#228;n palvelusta, jossa erillinen</text><text fill="#000000" font-family="sans-serif" font-size="13" font-weight="bold" lengthAdjust="spacing" textLength="228.0332" x="39.5259" y="163.7935">alij&#228;rjestelm&#228; OAuth2-clientille</text><text fill="#000000" font-family="sans-serif" font-size="13" font-weight="bold" lengthAdjust="spacing" textLength="397.4458" x="39.5259" y="178.9263">HUOM: Hy&#246;dynt&#228;j&#228;n palveluiden sis&#228;isi&#228; kirjautumisia</text><text fill="#000000" font-family="sans-serif" font-size="13" font-weight="bold" lengthAdjust="spacing" textLength="326.7012" x="44.0518" y="194.0591">ja muita autentikointeja ei ole t&#228;ss&#228; kuvattu</text><polygon fill="#181818" points="893.9395,215.2578,903.9395,219.2578,893.9395,223.2578,897.9395,219.2578" style="stroke:#181818;stroke-width:1.0;"/><line style="stroke:#181818;stroke-width:1.0;" x1="62.0356" x2="899.9395" y1="219.2578" y2="219.2578"/><text fill="#000000" font-family="sans-serif" font-size="13" lengthAdjust="spacing" textLength="126.8262" x="69.0356" y="214.1919">OPEN https://client/</text><polygon fill="#181818" points="194.2212,244.3906,184.2212,248.3906,194.2212,252.3906,190.2212,248.3906" style="stroke:#181818;stroke-width:1.0;"/><line style="stroke:#181818;stroke-width:1.0;" x1="188.2212" x2="904.9395" y1="248.3906" y2="248.3906"/><text fill="#000000" font-family="sans-serif" font-size="13" lengthAdjust="spacing" textLength="34.7407" x="200.2212" y="243.3247">GET /</text><polygon fill="#181818" points="893.9395,273.5234,903.9395,277.5234,893.9395,281.5234,897.9395,277.5234" style="stroke:#181818;stroke-width:1.0;"/><line style="stroke:#181818;stroke-width:1.0;" x1="183.2212" x2="899.9395" y1="277.5234" y2="277.5234"/><text fill="#000000" font-family="sans-serif" font-size="13" lengthAdjust="spacing" textLength="67.1836" x="190.2212" y="272.4575">HTML-sivu</text><polygon fill="#181818" points="893.9395,302.6563,903.9395,306.6563,893.9395,310.6563,897.9395,306.6563" style="stroke:#181818;stroke-width:1.0;"/><line style="stroke:#181818;stroke-width:1.0;" x1="62.0356" x2="899.9395" y1="306.6563" y2="306.6563"/><text fill="#000000" font-family="sans-serif" font-size="13" lengthAdjust="spacing" textLength="331.9507" x="69.0356" y="301.5903">OPEN "Lis&#228;&#228;/k&#228;sittele KOSKI-opintotiedot"-toiminto</text><polygon fill="#181818" points="194.2212,331.7891,184.2212,335.7891,194.2212,339.7891,190.2212,335.7891" style="stroke:#181818;stroke-width:1.0;"/><line style="stroke:#181818;stroke-width:1.0;" x1="188.2212" x2="904.9395" y1="335.7891" y2="335.7891"/><text fill="#000000" font-family="sans-serif" font-size="13" lengthAdjust="spacing" textLength="151.9438" x="200.2212" y="330.7231">GET /koski-opintotiedot</text><polygon fill="#181818" points="893.9395,360.9219,903.9395,364.9219,893.9395,368.9219,897.9395,364.9219" style="stroke:#181818;stroke-width:1.0;"/><line style="stroke:#181818;stroke-width:1.0;" x1="183.2212" x2="899.9395" y1="364.9219" y2="364.9219"/><text fill="#000000" font-family="sans-serif" font-size="13" lengthAdjust="spacing" textLength="323.832" x="190.2212" y="359.856">REDIRECT https://oauth2-client/koski-opintotiedot</text><polygon fill="#181818" points="413.2026,390.0547,403.2026,394.0547,413.2026,398.0547,409.2026,394.0547" style="stroke:#181818;stroke-width:1.0;"/><line style="stroke:#181818;stroke-width:1.0;" x1="407.2026" x2="904.9395" y1="394.0547" y2="394.0547"/><text fill="#000000" font-family="sans-serif" font-size="13" lengthAdjust="spacing" textLength="151.9438" x="419.2026" y="388.9888">GET /koski-opintotiedot</text><line style="stroke:#181818;stroke-width:1.0;" x1="402.2026" x2="444.2026" y1="438.3203" y2="438.3203"/><line style="stroke:#181818;stroke-width:1.0;" x1="444.2026" x2="444.2026" y1="438.3203" y2="451.3203"/><line style="stroke:#181818;stroke-width:1.0;" x1="403.2026" x2="444.2026" y1="451.3203" y2="451.3203"/><polygon fill="#181818" points="413.2026,447.3203,403.2026,451.3203,413.2026,455.3203,409.2026,451.3203" style="stroke:#181818;stroke-width:1.0;"/><text fill="#000000" font-family="sans-serif" font-size="13" lengthAdjust="spacing" textLength="371.23" x="409.2026" y="418.1216">Muodosta state, generoi code_verifier ja code_challenge,</text><text fill="#000000" font-family="sans-serif" font-size="13" lengthAdjust="spacing" textLength="235.5742" x="409.2026" y="433.2544">tallenna code_verifier staten kanssa</text><polygon fill="#181818" points="893.9395,539.9844,903.9395,543.9844,893.9395,547.9844,897.9395,543.9844" style="stroke:#181818;stroke-width:1.0;"/><line style="stroke:#181818;stroke-width:1.0;" x1="402.2026" x2="899.9395" y1="543.9844" y2="543.9844"/><text fill="#000000" font-family="sans-serif" font-size="13" lengthAdjust="spacing" textLength="479.7368" x="409.2026" y="538.9185">REDIRECT https://opintopolku.fi/koski/omadata-oauth2/authorize/PARAMS</text><path d="M174,464.3203 L174,610.3203 L396,610.3203 L396,474.3203 L386,464.3203 L174,464.3203 " fill="#FEFFDD" style="stroke:#181818;stroke-width:0.5;"/><path d="M386,464.3203 L386,474.3203 L396,474.3203 L386,464.3203 " fill="#FEFFDD" style="stroke:#181818;stroke-width:0.5;"/><text fill="#000000" font-family="sans-serif" font-size="13" lengthAdjust="spacing" textLength="58.5063" x="180" y="481.3872">PARAMS:</text><text fill="#000000" font-family="sans-serif" font-size="13" lengthAdjust="spacing" textLength="54.0693" x="180" y="496.52">client_id</text><text fill="#000000" font-family="sans-serif" font-size="13" lengthAdjust="spacing" textLength="74.4897" x="180" y="511.6528">redirect_uri</text><text fill="#000000" font-family="sans-serif" font-size="13" lengthAdjust="spacing" textLength="32.9316" x="180" y="526.7856">state</text><text fill="#000000" font-family="sans-serif" font-size="13" lengthAdjust="spacing" textLength="38.124" x="180" y="541.9185">scope</text><text fill="#000000" font-family="sans-serif" font-size="13" lengthAdjust="spacing" textLength="137.1157" x="180" y="557.0513">response_type=code</text><text fill="#000000" font-family="sans-serif" font-size="13" lengthAdjust="spacing" textLength="178.7056" x="180" y="572.1841">response_mode=form_post</text><text fill="#000000" font-family="sans-serif" font-size="13" lengthAdjust="spacing" textLength="201.5762" x="180" y="587.3169">code_challenge_method=S256</text><text fill="#000000" font-family="sans-serif" font-size="13" lengthAdjust="spacing" textLength="100.915" x="180" y="602.4497">code_challenge</text><path d="M20,629.5156 L363.8477,629.5156 L363.8477,636.6484 L353.8477,646.6484 L20,646.6484 L20,629.5156 " fill="#EEEEEE" style="stroke:#000000;stroke-width:1.5;"/><rect fill="none" height="779.5156" style="stroke:#000000;stroke-width:1.5;" width="2011.333" x="20" y="629.5156"/><text fill="#000000" font-family="sans-serif" font-size="13" font-weight="bold" lengthAdjust="spacing" textLength="298.8477" x="35" y="642.5825">OAuth2 authorization end-pointin k&#228;ytt&#246;</text><polygon fill="#181818" points="1549.2139,663.7813,1559.2139,667.7813,1549.2139,671.7813,1553.2139,667.7813" style="stroke:#181818;stroke-width:1.0;"/><line style="stroke:#181818;stroke-width:1.0;" x1="905.9395" x2="1555.2139" y1="667.7813" y2="667.7813"/><text fill="#000000" font-family="sans-serif" font-size="13" lengthAdjust="spacing" textLength="304.9985" x="912.9395" y="662.7153">GET /koski/omadata-oauth2/authorize/PARAMS</text><polygon fill="#181818" points="916.9395,692.9141,906.9395,696.9141,916.9395,700.9141,912.9395,696.9141" style="stroke:#181818;stroke-width:1.0;"/><line style="stroke:#181818;stroke-width:1.0;" x1="910.9395" x2="1560.2139" y1="696.9141" y2="696.9141"/><text fill="#000000" font-family="sans-serif" font-size="13" lengthAdjust="spacing" textLength="631.2744" x="922.9395" y="691.8481">REDIRECT https://opintopolku.fi/.../login?...onSuccess=/koski/omadata-oauth2/authorize/PARAMS</text><polygon fill="#181818" points="1870.1431,722.0469,1880.1431,726.0469,1870.1431,730.0469,1874.1431,726.0469" style="stroke:#181818;stroke-width:1.0;"/><line style="stroke:#181818;stroke-width:1.0;" x1="905.9395" x2="1876.1431" y1="726.0469" y2="726.0469"/><text fill="#000000" font-family="sans-serif" font-size="13" lengthAdjust="spacing" textLength="592.1475" x="912.9395" y="720.981">GET https://opintopolku.fi/.../login?...onSuccess=/koski/omadata-oauth2/authorize/PARAMS</text><polygon fill="#181818" points="916.9395,751.1797,906.9395,755.1797,916.9395,759.1797,912.9395,755.1797" style="stroke:#181818;stroke-width:1.0;"/><line style="stroke:#181818;stroke-width:1.0;" x1="910.9395" x2="1881.1431" y1="755.1797" y2="755.1797"/><text fill="#000000" font-family="sans-serif" font-size="13" lengthAdjust="spacing" textLength="106.8628" x="922.9395" y="750.1138">HTML:Login-sivu</text><polygon fill="#181818" points="893.9395,780.3125,903.9395,784.3125,893.9395,788.3125,897.9395,784.3125" style="stroke:#181818;stroke-width:1.0;"/><line style="stroke:#181818;stroke-width:1.0;" x1="62.0356" x2="899.9395" y1="784.3125" y2="784.3125"/><text fill="#000000" font-family="sans-serif" font-size="13" lengthAdjust="spacing" textLength="200.9478" x="69.0356" y="779.2466">Suomi.fi &amp; opintopolku.fi -login</text><polygon fill="#181818" points="1870.1431,809.4453,1880.1431,813.4453,1870.1431,817.4453,1874.1431,813.4453" style="stroke:#181818;stroke-width:1.0;"/><line style="stroke:#181818;stroke-width:1.0;" x1="905.9395" x2="1876.1431" y1="813.4453" y2="813.4453"/><text fill="#000000" font-family="sans-serif" font-size="13" lengthAdjust="spacing" textLength="200.9478" x="912.9395" y="808.3794">Suomi.fi &amp; opintopolku.fi -login</text><polygon fill="#181818" points="916.9395,838.5781,906.9395,842.5781,916.9395,846.5781,912.9395,842.5781" style="stroke:#181818;stroke-width:1.0;"/><line style="stroke:#181818;stroke-width:1.0;" x1="910.9395" x2="1881.1431" y1="842.5781" y2="842.5781"/><text fill="#000000" font-family="sans-serif" font-size="13" lengthAdjust="spacing" textLength="344.1255" x="922.9395" y="837.5122">REDIRECT /koski/omadata-oauth2/authorize/PARAMS</text><polygon fill="#181818" points="1549.2139,867.7109,1559.2139,871.7109,1549.2139,875.7109,1553.2139,871.7109" style="stroke:#181818;stroke-width:1.0;"/><line style="stroke:#181818;stroke-width:1.0;" x1="905.9395" x2="1555.2139" y1="871.7109" y2="871.7109"/><text fill="#000000" font-family="sans-serif" font-size="13" lengthAdjust="spacing" textLength="304.9985" x="912.9395" y="866.645">GET /koski/omadata-oauth2/authorize/PARAMS</text><polygon fill="#181818" points="916.9395,896.8438,906.9395,900.8438,916.9395,904.8438,912.9395,900.8438" style="stroke:#181818;stroke-width:1.0;"/><line style="stroke:#181818;stroke-width:1.0;" x1="910.9395" x2="1560.2139" y1="900.8438" y2="900.8438"/><text fill="#000000" font-family="sans-serif" font-size="13" lengthAdjust="spacing" textLength="147.9893" x="922.9395" y="895.7778">HTML:Hyv&#228;ksynt&#228;-sivu</text><polygon fill="#181818" points="893.9395,925.9766,903.9395,929.9766,893.9395,933.9766,897.9395,929.9766" style="stroke:#181818;stroke-width:1.0;"/><line style="stroke:#181818;stroke-width:1.0;" x1="62.0356" x2="899.9395" y1="929.9766" y2="929.9766"/><text fill="#000000" font-family="sans-serif" font-size="13" lengthAdjust="spacing" textLength="120.2119" x="69.0356" y="924.9106">Hyv&#228;ksy valtuutus</text><polygon fill="#181818" points="1549.2139,955.1094,1559.2139,959.1094,1549.2139,963.1094,1553.2139,959.1094" style="stroke:#181818;stroke-width:1.0;"/><line style="stroke:#181818;stroke-width:1.0;" x1="905.9395" x2="1555.2139" y1="959.1094" y2="959.1094"/><text fill="#000000" font-family="sans-serif" font-size="13" lengthAdjust="spacing" textLength="336.1084" x="912.9395" y="954.0435">GET /koski/api/omadata-oauth2/authorize/?PARAMS</text><polygon fill="#181818" points="1870.1431,984.2422,1880.1431,988.2422,1870.1431,992.2422,1874.1431,988.2422" style="stroke:#181818;stroke-width:1.0;"/><line style="stroke:#181818;stroke-width:1.0;" x1="1561.2139" x2="1876.1431" y1="988.2422" y2="988.2422"/><text fill="#000000" font-family="sans-serif" font-size="13" lengthAdjust="spacing" textLength="41.1074" x="1568.2139" y="983.1763">logout</text><line style="stroke:#181818;stroke-width:1.0;" x1="1561.2139" x2="1603.2139" y1="1047.6406" y2="1047.6406"/><line style="stroke:#181818;stroke-width:1.0;" x1="1603.2139" x2="1603.2139" y1="1047.6406" y2="1060.6406"/><line style="stroke:#181818;stroke-width:1.0;" x1="1562.2139" x2="1603.2139" y1="1060.6406" y2="1060.6406"/><polygon fill="#181818" points="1572.2139,1056.6406,1562.2139,1060.6406,1572.2139,1064.6406,1568.2139,1060.6406" style="stroke:#181818;stroke-width:1.0;"/><text fill="#000000" font-family="sans-serif" font-size="13" lengthAdjust="spacing" textLength="221.7681" x="1568.2139" y="1012.3091">Luo ja tallenna authorization code</text><text fill="#000000" font-family="sans-serif" font-size="13" lengthAdjust="spacing" textLength="224.8848" x="1568.2139" y="1027.4419">ja sen yhteyteen muut parametrit,</text><text fill="#000000" font-family="sans-serif" font-size="13" lengthAdjust="spacing" textLength="192.4736" x="1568.2139" y="1042.5747">mm. code_challenge ja scope</text><polygon fill="#181818" points="916.9395,1149.3047,906.9395,1153.3047,916.9395,1157.3047,912.9395,1153.3047" style="stroke:#181818;stroke-width:1.0;"/><line style="stroke:#181818;stroke-width:1.0;" x1="910.9395" x2="1560.2139" y1="1153.3047" y2="1153.3047"/><text fill="#000000" font-family="sans-serif" font-size="13" lengthAdjust="spacing" textLength="300.7329" x="922.9395" y="1148.2388">REDIRECT /post-response/RESPONSE_PARAMS</text><path d="M595,1073.6406 L595,1219.6406 L900,1219.6406 L900,1083.6406 L890,1073.6406 L595,1073.6406 " fill="#FEFFDD" style="stroke:#181818;stroke-width:0.5;"/><path d="M890,1073.6406 L890,1083.6406 L900,1083.6406 L890,1073.6406 " fill="#FEFFDD" style="stroke:#181818;stroke-width:0.5;"/><text fill="#000000" font-family="sans-serif" font-size="13" lengthAdjust="spacing" textLength="134.7671" x="601" y="1090.7075">RESPONSE_PARAMS:</text><text fill="#000000" font-family="sans-serif" font-size="13" lengthAdjust="spacing" textLength="54.0693" x="601" y="1105.8403">client_id</text><text fill="#000000" font-family="sans-serif" font-size="13" lengthAdjust="spacing" textLength="74.4897" x="601" y="1120.9731">redirect_uri</text><text fill="#000000" font-family="sans-serif" font-size="13" lengthAdjust="spacing" textLength="32.9316" x="601" y="1136.106">state</text><text fill="#000000" font-family="sans-serif" font-size="13" lengthAdjust="spacing" textLength="31.3511" x="601" y="1151.2388">code</text><text fill="#000000" font-family="sans-serif" font-size="13" lengthAdjust="spacing" textLength="276.5356" x="609.2646" y="1166.3716">Virhetilanteissa code:n sijasta voi sis&#228;lt&#228;&#228;:</text><text fill="#000000" font-family="sans-serif" font-size="13" lengthAdjust="spacing" textLength="31.9858" x="601" y="1181.5044">error</text><text fill="#000000" font-family="sans-serif" font-size="13" lengthAdjust="spacing" textLength="110.7666" x="601" y="1196.6372">error_description</text><text fill="#000000" font-family="sans-serif" font-size="13" lengthAdjust="spacing" textLength="55.6816" x="601" y="1211.77">error_uri</text><polygon fill="#181818" points="1549.2139,1241.9688,1559.2139,1245.9688,1549.2139,1249.9688,1553.2139,1245.9688" style="stroke:#181818;stroke-width:1.0;"/><line style="stroke:#181818;stroke-width:1.0;" x1="905.9395" x2="1555.2139" y1="1245.9688" y2="1245.9688"/><text fill="#000000" font-family="sans-serif" font-size="13" lengthAdjust="spacing" textLength="261.606" x="912.9395" y="1240.9028">GET /post-response/RESPONSE_PARAMS</text><polygon fill="#181818" points="916.9395,1271.1016,906.9395,1275.1016,916.9395,1279.1016,912.9395,1275.1016" style="stroke:#181818;stroke-width:1.0;"/><line style="stroke:#181818;stroke-width:1.0;" x1="910.9395" x2="1560.2139" y1="1275.1016" y2="1275.1016"/><text fill="#000000" font-family="sans-serif" font-size="13" lengthAdjust="spacing" textLength="371.4712" x="922.9395" y="1270.0356">HTML:Auto-submit web form, jossa RESPONSE inputteina</text><polygon fill="#181818" points="413.2026,1356.1992,403.2026,1360.1992,413.2026,1364.1992,409.2026,1360.1992" style="stroke:#181818;stroke-width:1.0;"/><line style="stroke:#181818;stroke-width:1.0;" x1="407.2026" x2="904.9395" y1="1360.1992" y2="1360.1992"/><text fill="#000000" font-family="sans-serif" font-size="13" lengthAdjust="spacing" textLength="112.8867" x="419.2026" y="1340.0005">POST redirect_uri</text><text fill="#000000" font-family="sans-serif" font-size="13" lengthAdjust="spacing" textLength="156.8379" x="419.2026" y="1355.1333">body=CODE_RESPONSE</text><path d="M91,1288.1016 L91,1403.1016 L396,1403.1016 L396,1298.1016 L386,1288.1016 L91,1288.1016 " fill="#FEFFDD" style="stroke:#181818;stroke-width:0.5;"/><path d="M386,1288.1016 L386,1298.1016 L396,1298.1016 L386,1288.1016 " fill="#FEFFDD" style="stroke:#181818;stroke-width:0.5;"/><text fill="#000000" font-family="sans-serif" font-size="13" lengthAdjust="spacing" textLength="118.1743" x="97" y="1305.1685">CODE_RESPONSE:</text><text fill="#000000" font-family="sans-serif" font-size="13" lengthAdjust="spacing" textLength="32.9316" x="97" y="1320.3013">state</text><text fill="#000000" font-family="sans-serif" font-size="13" lengthAdjust="spacing" textLength="31.3511" x="97" y="1335.4341">code</text><text fill="#000000" font-family="sans-serif" font-size="13" lengthAdjust="spacing" textLength="276.5356" x="105.2646" y="1350.5669">Virhetilanteissa code:n sijasta voi sis&#228;lt&#228;&#228;:</text><text fill="#000000" font-family="sans-serif" font-size="13" lengthAdjust="spacing" textLength="31.9858" x="97" y="1365.6997">error</text><text fill="#000000" font-family="sans-serif" font-size="13" lengthAdjust="spacing" textLength="110.7666" x="97" y="1380.8325">error_description</text><text fill="#000000" font-family="sans-serif" font-size="13" lengthAdjust="spacing" textLength="55.6816" x="97" y="1395.9653">error_uri</text><path d="M160,1423.0313 L442.6943,1423.0313 L442.6943,1430.1641 L432.6943,1440.1641 L160,1440.1641 L160,1423.0313 " fill="#EEEEEE" style="stroke:#000000;stroke-width:1.5;"/><rect fill="none" height="471.0547" style="stroke:#000000;stroke-width:1.5;" width="1721.3848" x="160" y="1423.0313"/><text fill="#000000" font-family="sans-serif" font-size="13" font-weight="bold" lengthAdjust="spacing" textLength="237.6943" x="175" y="1436.0981">OAuth2 token-endpointin k&#228;ytt&#246;</text><line style="stroke:#181818;stroke-width:1.0;" x1="402.2026" x2="444.2026" y1="1461.2969" y2="1461.2969"/><line style="stroke:#181818;stroke-width:1.0;" x1="444.2026" x2="444.2026" y1="1461.2969" y2="1474.2969"/><line style="stroke:#181818;stroke-width:1.0;" x1="403.2026" x2="444.2026" y1="1474.2969" y2="1474.2969"/><polygon fill="#181818" points="413.2026,1470.2969,403.2026,1474.2969,413.2026,1478.2969,409.2026,1474.2969" style="stroke:#181818;stroke-width:1.0;"/><text fill="#000000" font-family="sans-serif" font-size="13" lengthAdjust="spacing" textLength="241.5156" x="409.2026" y="1456.231">Hae statelle tallennettu code_verifier</text><polygon fill="#181818" points="1549.2139,1608.3594,1559.2139,1612.3594,1549.2139,1616.3594,1553.2139,1612.3594" style="stroke:#181818;stroke-width:1.0;"/><line style="stroke:#181818;stroke-width:1.0;" x1="402.2026" x2="1555.2139" y1="1612.3594" y2="1612.3594"/><text fill="#000000" font-family="sans-serif" font-size="13" lengthAdjust="spacing" textLength="742.0918" x="409.2026" y="1592.1606">mutual-TLS POST https://oph-koski-luovutuspalvelu.opintopolku.fi/koski/api/omadata-oauth2/authorization-server/</text><text fill="#000000" font-family="sans-serif" font-size="13" lengthAdjust="spacing" textLength="141.2036" x="417.4673" y="1607.2935">body=CODE_PARAMS</text><path d="M170,1487.2969 L170,1708.2969 L396,1708.2969 L396,1497.2969 L386,1487.2969 L170,1487.2969 " fill="#FEFFDD" style="stroke:#181818;stroke-width:0.5;"/><path d="M386,1487.2969 L386,1497.2969 L396,1497.2969 L386,1487.2969 " fill="#FEFFDD" style="stroke:#181818;stroke-width:0.5;"/><text fill="#000000" font-family="sans-serif" font-size="13" lengthAdjust="spacing" textLength="140.0356" x="176" y="1504.3638">mutual-TLS tarvitsee:</text><text fill="#000000" font-family="sans-serif" font-size="13" lengthAdjust="spacing" textLength="187.2178" x="176" y="1519.4966">(1) Voimassaolevan luotetun</text><text fill="#000000" font-family="sans-serif" font-size="13" lengthAdjust="spacing" textLength="113.2041" x="184.2646" y="1534.6294">CA:n my&#246;nt&#228;m&#228;n</text><text fill="#000000" font-family="sans-serif" font-size="13" lengthAdjust="spacing" textLength="127.8228" x="184.2646" y="1549.7622">asiakasvarmenteen</text><text fill="#000000" font-family="sans-serif" font-size="13" lengthAdjust="spacing" textLength="115.5781" x="184.2646" y="1564.895">(client certificate)</text><text fill="#000000" font-family="sans-serif" font-size="13" lengthAdjust="spacing" textLength="161.4336" x="176" y="1580.0278">(2) Kiinte&#228;n IP-osoitteen/</text><text fill="#000000" font-family="sans-serif" font-size="13" lengthAdjust="spacing" textLength="74.6294" x="184.2646" y="1595.1606">-avaruuden</text><text fill="#000000" font-family="sans-serif" font-size="13" lengthAdjust="spacing" textLength="4.1323" x="176" y="1610.2935">&#160;</text><text fill="#000000" font-family="sans-serif" font-size="13" lengthAdjust="spacing" textLength="102.54" x="176" y="1625.4263">CODE_PARAMS:</text><text fill="#000000" font-family="sans-serif" font-size="13" lengthAdjust="spacing" textLength="205.3276" x="176" y="1640.5591">grant_type=authorization_code</text><text fill="#000000" font-family="sans-serif" font-size="13" lengthAdjust="spacing" textLength="31.3511" x="176" y="1655.6919">code</text><text fill="#000000" font-family="sans-serif" font-size="13" lengthAdjust="spacing" textLength="84.0303" x="176" y="1670.8247">code_verifier</text><text fill="#000000" font-family="sans-serif" font-size="13" lengthAdjust="spacing" textLength="74.4897" x="176" y="1685.9575">redirect_uri</text><text fill="#000000" font-family="sans-serif" font-size="13" lengthAdjust="spacing" textLength="54.0693" x="176" y="1701.0903">client_id</text><line style="stroke:#181818;stroke-width:1.0;" x1="1561.2139" x2="1603.2139" y1="1750.4219" y2="1750.4219"/><line style="stroke:#181818;stroke-width:1.0;" x1="1603.2139" x2="1603.2139" y1="1750.4219" y2="1763.4219"/><line style="stroke:#181818;stroke-width:1.0;" x1="1562.2139" x2="1603.2139" y1="1763.4219" y2="1763.4219"/><polygon fill="#181818" points="1572.2139,1759.4219,1562.2139,1763.4219,1572.2139,1767.4219,1568.2139,1763.4219" style="stroke:#181818;stroke-width:1.0;"/><text fill="#000000" font-family="sans-serif" font-size="13" lengthAdjust="spacing" textLength="219.0322" x="1568.2139" y="1730.2231">tarkista code ja ett&#228; code_verifier</text><text fill="#000000" font-family="sans-serif" font-size="13" lengthAdjust="spacing" textLength="290.4751" x="1568.2139" y="1745.356">vastaa codelle tallennettua code_challengea</text><line style="stroke:#181818;stroke-width:1.0;" x1="1561.2139" x2="1603.2139" y1="1792.5547" y2="1792.5547"/><line style="stroke:#181818;stroke-width:1.0;" x1="1603.2139" x2="1603.2139" y1="1792.5547" y2="1805.5547"/><line style="stroke:#181818;stroke-width:1.0;" x1="1562.2139" x2="1603.2139" y1="1805.5547" y2="1805.5547"/><polygon fill="#181818" points="1572.2139,1801.5547,1562.2139,1805.5547,1572.2139,1809.5547,1568.2139,1805.5547" style="stroke:#181818;stroke-width:1.0;"/><text fill="#000000" font-family="sans-serif" font-size="13" lengthAdjust="spacing" textLength="301.1709" x="1568.2139" y="1787.4888">Luo ja tallenna access_token coden yhteyteen</text><polygon fill="#181818" points="413.2026,1856.3867,403.2026,1860.3867,413.2026,1864.3867,409.2026,1860.3867" style="stroke:#181818;stroke-width:1.0;"/><line style="stroke:#181818;stroke-width:1.0;" x1="407.2026" x2="1560.2139" y1="1860.3867" y2="1860.3867"/><text fill="#000000" font-family="sans-serif" font-size="13" lengthAdjust="spacing" textLength="120.8975" x="419.2026" y="1855.3208">TOKEN_RESPONSE</text><path d="M249,1818.5547 L249,1888.5547 L396,1888.5547 L396,1828.5547 L386,1818.5547 L249,1818.5547 " fill="#FEFFDD" style="stroke:#181818;stroke-width:0.5;"/><path d="M386,1818.5547 L386,1828.5547 L396,1828.5547 L386,1818.5547 " fill="#FEFFDD" style="stroke:#181818;stroke-width:0.5;"/><text fill="#000000" font-family="sans-serif" font-size="13" lengthAdjust="spacing" textLength="125.2773" x="255" y="1835.6216">TOKEN_RESPONSE:</text><text fill="#000000" font-family="sans-serif" font-size="13" lengthAdjust="spacing" textLength="87.1216" x="255" y="1850.7544">access_token</text><text fill="#000000" font-family="sans-serif" font-size="13" lengthAdjust="spacing" textLength="126.8198" x="255" y="1865.8872">token_type=Bearer</text><text fill="#000000" font-family="sans-serif" font-size="13" lengthAdjust="spacing" textLength="66.022" x="255" y="1881.02">expires_in</text><path d="M178,1908.0859 L482.9175,1908.0859 L482.9175,1915.2188 L472.9175,1925.2188 L178,1925.2188 L178,1908.0859 " fill="#EEEEEE" style="stroke:#000000;stroke-width:1.5;"/><rect fill="none" height="229.4609" style="stroke:#000000;stroke-width:1.5;" width="1645.5576" x="178" y="1908.0859"/><text fill="#000000" font-family="sans-serif" font-size="13" font-weight="bold" lengthAdjust="spacing" textLength="259.9175" x="193" y="1921.1528">OAuth2 resource-endpointin k&#228;ytt&#246;</text><polygon fill="#181818" points="1549.2139,1998.3164,1559.2139,2002.3164,1549.2139,2006.3164,1553.2139,2002.3164" style="stroke:#181818;stroke-width:1.0;"/><line style="stroke:#181818;stroke-width:1.0;" x1="402.2026" x2="1555.2139" y1="2002.3164" y2="2002.3164"/><text fill="#000000" font-family="sans-serif" font-size="13" lengthAdjust="spacing" textLength="708.3667" x="409.2026" y="1982.1177">mutual-TLS POST https://oph-koski-luovutuspalvelu.opintopolku.fi/koski/api/omadata-oauth2/resource-server</text><text fill="#000000" font-family="sans-serif" font-size="13" lengthAdjust="spacing" textLength="190.3027" x="417.4673" y="1997.2505">Authorization=Bearer TOKEN</text><path d="M188,1930.2188 L188,2045.2188 L396,2045.2188 L396,1940.2188 L386,1930.2188 L188,1930.2188 " fill="#FEFFDD" style="stroke:#181818;stroke-width:0.5;"/><path d="M386,1930.2188 L386,1940.2188 L396,1940.2188 L386,1930.2188 " fill="#FEFFDD" style="stroke:#181818;stroke-width:0.5;"/><text fill="#000000" font-family="sans-serif" font-size="13" lengthAdjust="spacing" textLength="140.0356" x="194" y="1947.2856">mutual-TLS tarvitsee:</text><text fill="#000000" font-family="sans-serif" font-size="13" lengthAdjust="spacing" textLength="187.2178" x="194" y="1962.4185">(1) Voimassaolevan luotetun</text><text fill="#000000" font-family="sans-serif" font-size="13" lengthAdjust="spacing" textLength="113.2041" x="202.2646" y="1977.5513">CA:n my&#246;nt&#228;m&#228;n</text><text fill="#000000" font-family="sans-serif" font-size="13" lengthAdjust="spacing" textLength="127.8228" x="202.2646" y="1992.6841">asiakasvarmenteen</text><text fill="#000000" font-family="sans-serif" font-size="13" lengthAdjust="spacing" textLength="115.5781" x="202.2646" y="2007.8169">(client certificate)</text><text fill="#000000" font-family="sans-serif" font-size="13" lengthAdjust="spacing" textLength="161.4336" x="194" y="2022.9497">(2) Kiinte&#228;n IP-osoitteen/</text><text fill="#000000" font-family="sans-serif" font-size="13" lengthAdjust="spacing" textLength="74.6294" x="202.2646" y="2038.0825">-avaruuden</text><line style="stroke:#181818;stroke-width:1.0;" x1="1561.2139" x2="1603.2139" y1="2087.4141" y2="2087.4141"/><line style="stroke:#181818;stroke-width:1.0;" x1="1603.2139" x2="1603.2139" y1="2087.4141" y2="2100.4141"/><line style="stroke:#181818;stroke-width:1.0;" x1="1562.2139" x2="1603.2139" y1="2100.4141" y2="2100.4141"/><polygon fill="#181818" points="1572.2139,2096.4141,1562.2139,2100.4141,1572.2139,2104.4141,1568.2139,2100.4141" style="stroke:#181818;stroke-width:1.0;"/><text fill="#000000" font-family="sans-serif" font-size="13" lengthAdjust="spacing" textLength="243.3438" x="1568.2139" y="2067.2153">Hae ja muotoile opiskeluoikeus-DATA</text><text fill="#000000" font-family="sans-serif" font-size="13" lengthAdjust="spacing" textLength="242.2012" x="1568.2139" y="2082.3481">access_tokenin ja scopen perusteella</text><polygon fill="#181818" points="413.2026,2125.5469,403.2026,2129.5469,413.2026,2133.5469,409.2026,2129.5469" style="stroke:#181818;stroke-width:1.0;"/><line style="stroke:#181818;stroke-width:1.0;" x1="407.2026" x2="1560.2139" y1="2129.5469" y2="2129.5469"/><text fill="#000000" font-family="sans-serif" font-size="13" lengthAdjust="spacing" textLength="35.7373" x="419.2026" y="2124.481">DATA</text><path d="M10,2151.5469 L415.0771,2151.5469 L415.0771,2173.8125 L405.0771,2183.8125 L10,2183.8125 L10,2151.5469 " fill="#EEEEEE" style="stroke:#000000;stroke-width:1.5;"/><rect fill="none" height="313.4609" style="stroke:#000000;stroke-width:1.5;" width="989.9351" x="10" y="2151.5469"/><text fill="#000000" font-family="sans-serif" font-size="13" font-weight="bold" lengthAdjust="spacing" textLength="360.0771" x="25" y="2164.6138">Esimerkki hy&#246;dynt&#228;j&#228;n palvelusta, jossa erillinen</text><text fill="#000000" font-family="sans-serif" font-size="13" font-weight="bold" lengthAdjust="spacing" textLength="228.0332" x="29.5259" y="2179.7466">alij&#228;rjestelm&#228; OAuth2-clientille</text><line style="stroke:#181818;stroke-width:1.0;" x1="402.2026" x2="444.2026" y1="2204.9453" y2="2204.9453"/><line style="stroke:#181818;stroke-width:1.0;" x1="444.2026" x2="444.2026" y1="2204.9453" y2="2217.9453"/><line style="stroke:#181818;stroke-width:1.0;" x1="403.2026" x2="444.2026" y1="2217.9453" y2="2217.9453"/><polygon fill="#181818" points="413.2026,2213.9453,403.2026,2217.9453,413.2026,2221.9453,409.2026,2217.9453" style="stroke:#181818;stroke-width:1.0;"/><text fill="#000000" font-family="sans-serif" font-size="13" lengthAdjust="spacing" textLength="299.3237" x="409.2026" y="2199.8794">Analysoi/muunna DATA hy&#246;dynt&#228;j&#228;n k&#228;ytt&#246;&#246;n</text><polygon fill="#181818" points="194.2212,2243.0781,184.2212,2247.0781,194.2212,2251.0781,190.2212,2247.0781" style="stroke:#181818;stroke-width:1.0;"/><line style="stroke:#181818;stroke-width:1.0;" x1="188.2212" x2="401.2026" y1="2247.0781" y2="2247.0781"/><text fill="#000000" font-family="sans-serif" font-size="13" lengthAdjust="spacing" textLength="138.8232" x="200.2212" y="2242.0122">Tallenna opintotiedot</text><polygon fill="#181818" points="893.9395,2272.2109,903.9395,2276.2109,893.9395,2280.2109,897.9395,2276.2109" style="stroke:#181818;stroke-width:1.0;"/><line style="stroke:#181818;stroke-width:1.0;" x1="402.2026" x2="899.9395" y1="2276.2109" y2="2276.2109"/><text fill="#000000" font-family="sans-serif" font-size="13" lengthAdjust="spacing" textLength="156.1714" x="409.2026" y="2271.145">REDIRECT https://client/</text><polygon fill="#181818" points="194.2212,2301.3438,184.2212,2305.3438,194.2212,2309.3438,190.2212,2305.3438" style="stroke:#181818;stroke-width:1.0;"/><line style="stroke:#181818;stroke-width:1.0;" x1="188.2212" x2="904.9395" y1="2305.3438" y2="2305.3438"/><text fill="#000000" font-family="sans-serif" font-size="13" lengthAdjust="spacing" textLength="34.7407" x="200.2212" y="2300.2778">GET /</text><polygon fill="#181818" points="893.9395,2330.4766,903.9395,2334.4766,893.9395,2338.4766,897.9395,2334.4766" style="stroke:#181818;stroke-width:1.0;"/><line style="stroke:#181818;stroke-width:1.0;" x1="183.2212" x2="899.9395" y1="2334.4766" y2="2334.4766"/><text fill="#000000" font-family="sans-serif" font-size="13" lengthAdjust="spacing" textLength="248.5107" x="190.2212" y="2329.4106">HTML-sivu, jossa opintotiedot mukana</text><path d="M20,2349.4766 L84.4429,2349.4766 L84.4429,2356.6094 L74.4429,2366.6094 L20,2366.6094 L20,2349.4766 " fill="#EEEEEE" style="stroke:#000000;stroke-width:1.5;"/><rect fill="none" height="108.5313" style="stroke:#000000;stroke-width:1.5;" width="969.9351" x="20" y="2349.4766"/><text fill="#000000" font-family="sans-serif" font-size="13" font-weight="bold" lengthAdjust="spacing" textLength="19.4429" x="35" y="2362.5435">alt</text><polygon fill="#181818" points="893.9395,2383.7422,903.9395,2387.7422,893.9395,2391.7422,897.9395,2387.7422" style="stroke:#181818;stroke-width:1.0;"/><line style="stroke:#181818;stroke-width:1.0;" x1="62.0356" x2="899.9395" y1="2387.7422" y2="2387.7422"/><text fill="#000000" font-family="sans-serif" font-size="13" lengthAdjust="spacing" textLength="308.5596" x="69.0356" y="2382.6763">Hyv&#228;ksy/katsele/filtter&#246;i/muokkaa opintotietoja</text><line style="stroke:#000000;stroke-width:1.0;stroke-dasharray:2.0,2.0;" x1="20" x2="989.9351" y1="2396.7422" y2="2396.7422"/><polygon fill="#181818" points="893.9395,2414.875,903.9395,2418.875,893.9395,2422.875,897.9395,2418.875" style="stroke:#181818;stroke-width:1.0;"/><line style="stroke:#181818;stroke-width:1.0;" x1="62.0356" x2="899.9395" y1="2418.875" y2="2418.875"/><text fill="#000000" font-family="sans-serif" font-size="13" lengthAdjust="spacing" textLength="233.251" x="69.0356" y="2413.8091">Tee ostoksia opiskelija-alennuksella</text><line style="stroke:#000000;stroke-width:1.0;stroke-dasharray:2.0,2.0;" x1="20" x2="989.9351" y1="2427.875" y2="2427.875"/><polygon fill="#181818" points="893.9395,2446.0078,903.9395,2450.0078,893.9395,2454.0078,897.9395,2450.0078" style="stroke:#181818;stroke-width:1.0;"/><line style="stroke:#181818;stroke-width:1.0;" x1="62.0356" x2="899.9395" y1="2450.0078" y2="2450.0078"/><text fill="#000000" font-family="sans-serif" font-size="13" lengthAdjust="spacing" textLength="12.397" x="69.0356" y="2444.9419">...</text><!--SRC=[rLZDRkCs4BxpAOWzjBl0Aa8NQ0y6qeMR6CqYoJg8lTj3KmYCF8bfIQJ07xVky_WPzWNyOfqHBLkojRPRD0LwY21Jv73upJVV3EEaou4F-zvDt_5eAifomKlXfZooaCr1MIivM5c0oJ8PJHUhBvE5SglbRBNCSs1Cf4uRVhrQBbmOvS9oRy4mLWhZP2fBeHnFSmdA9JW-bodmNnddLqrR2ZVDvv1xzblNmgu5mUT8v19_cXbO1tcnMkB4zMakggMx1ictH3pNHd-1HpnfBgJQBlo4KtWrXHP_o-DCsqp6kX0JuKIa1SsAwQcD_1DwBVlNDBSoVJqSNN_OMkslvmidjUA41Exo3JTWjJU8IHW9EqwTAsqlZhroVYvqAPNJfSupV_OaurJOI9Ubd8auryzInJZsVeti-TdPMSkTY_weScQujO6RZhmk9DgACcbcU11VI0MAzdussfTyK4USJpkZP9ruosVQMi71o3odrG-AxyQYZb488iu3d7JrQNZR-qhqvGGG6cbNIsabhj-wPwN0jNmcUE6b4nn7oMIcyLY0eo2vHYAZFMjf8SBcd6UCmisZ7vjXx_7XtU3Z1kFWNCmQCt3-3c5x_EV1cCTiPtZNyDNuzYQoSkuFxFlgXiwtMiOP-YeT8WM1Ab68ivCmqUvLvBGiwFT9ZbKCRHauvkhzuFB3_U1YlC4Xq7eTgow3NNuStRyrzTRhYKRkSFnpy9QZBJ1QybHF847oooU9g64qgu5qAf0nwXdUFYXNlIgnCxMoetWcKAT4OySZ9stdq-7iZk_wz_tR4LFQ0S_XoR4mqAi1bXDcO28Df2xnHhBA9sPJNG9-iALM5XAtAE6SVDyE5VZh_4cR8YaH4zO-Sb80xZyv7xtx_eUTJmpKX9Ctz58dx5fZH4jZy7jKKe98X2Wez1Us4yOWLyqe7aM2XJL_5sPKfg1Nx_5Dgv5FKx3s_DHDsswJh0MdNsOtij-LtBqRiXbIl3l7Qsb5bMsxnAFAd-wJ75_LvT46ydy6uhyN-mgQgyLyjSni9Ug74AhdyRd8dKTrjoSu9ie3phtVyowWYj1fxnh3jU4RhqbcDghIpXlAjmU5torgosBgOE40tmhq5GkL4PYRHZfKfQ8usv4giXfI_rYMn9JrKQq6yVrWT3VyE1eaUtApy-M8xbGQm_bdQQQ05HTR091KfccyHxLr9aY0vwYwLPtD7TMY7WDZj0dFP08sDR8aBDOZP7yZEuU2TVXGXzY30gOZwnyBwVZlyCX96UiUexR3fIezLaof1FjQEReRZiQy2So3UjIJnVd5y7AGr8OQyBR6U_yXYllgxNG6AiBnVT7kAAPN0aBzowdl2Km6x7dQ9RAvj8vKWJadycXyCmfeRILq6eL2ddizfyHSjsLddHNpG4fMUHI5ZZQclcqRWZr-Dxnn0diLPm5RwjVVlU6ViGCI23isTdEXE3hbm7bgr2_w68K2MqZI6cmqQKnWYvW9EnUcmFDYmkBOw_NXKy2E-4ccYDORzlhT6tujgM-aplF3NQIjfZuCL8nB8e4MlCT6bB66mpqC5T8W5FBMCPEAB9l75lbMTcwJTik0FLd2ysUIY4M6I4g0BbNjW3weEN4lpDa9_MxZ94wHlgem9XNtgkKDoMiitz1kFBmUVEnAfFQ77ciQPjKpWFSJ28Fem1ybecCJh6q76fhwTdGiArwUsXjF0gk9rAqRtVfS0P__1RqF496qfRfgQRo58CSG99iXMbfcu6rqsH_t7rGpm1YMklBXPGuCtX01sIcw64IhM_BtOhVDJjtiAv4l498Owpab0Bcpkt5DCOp0let6tMjSPr7hvdFoHQI-Ufvszppvybc3rNGAOuct98m7zbn7-h8u4qZI7E8dcIDlpEeBOQMpJ3HCEZr3Ov1R-8grCI1jB983ULlp1yjc90Wmdzd0ZWC6w3yPWINq-0i0]--></g></svg>