<svg xmlns="http://www.w3.org/2000/svg" xmlns:xlink="http://www.w3.org/1999/xlink" contentStyleType="text/css" height="3044px" preserveAspectRatio="none" style="width:2249px;height:3044px;background:#FFFFFF;" version="1.1" viewBox="0 0 2249 3044" width="2249px" zoomAndPan="magnify"><title>OAuth2 -happy path -aktiviteettidiagrammi swimlaneilla</title><defs/><g><text fill="#000000" font-family="sans-serif" font-size="14" font-weight="bold" lengthAdjust="spacing" textLength="445.792" x="900.1067" y="32.9951">OAuth2 -happy path -aktiviteettidiagrammi swimlaneilla</text><text fill="#000000" font-family="sans-serif" font-size="14" font-weight="bold" lengthAdjust="spacing" textLength="289.666" x="978.1697" y="49.292">eriyt&#228; tilallinen ja tilaton integraatio</text><rect fill="none" height="20.9531" style="stroke:none;stroke-width:1.0;" width="2216.0054" x="15" y="66.3389"/><ellipse cx="219.0894" cy="102.292" fill="#222222" rx="10" ry="10" style="stroke:#222222;stroke-width:1.0;"/><rect fill="#F1F1F1" height="75.875" rx="12.5" ry="12.5" style="stroke:#181818;stroke-width:0.5;" width="173.1523" x="132.5132" y="132.292"/><text fill="#000000" font-family="sans-serif" font-size="12" lengthAdjust="spacing" textLength="153.1523" x="142.5132" y="153.4307">K&#228;ytt&#228;j&#228; avaa selaimessa</text><text fill="#000000" font-family="sans-serif" font-size="12" lengthAdjust="spacing" textLength="61.043" x="142.5132" y="167.3994">web-sivun</text><text fill="#000000" font-family="sans-serif" font-size="12" lengthAdjust="spacing" textLength="107.918" x="142.5132" y="181.3682">ja aloittaa vahvan</text><text fill="#000000" font-family="sans-serif" font-size="12" lengthAdjust="spacing" textLength="105.3457" x="142.5132" y="195.3369">tunnistautumisen</text><rect fill="#F1F1F1" height="61.9063" rx="12.5" ry="12.5" style="stroke:#181818;stroke-width:0.5;" width="152.2754" x="142.9517" y="282.1357"/><text fill="#000000" font-family="sans-serif" font-size="12" lengthAdjust="spacing" textLength="90.3516" x="152.9517" y="303.2744">K&#228;ytt&#228;j&#228; siirtyy</text><text fill="#000000" font-family="sans-serif" font-size="12" lengthAdjust="spacing" textLength="66.5859" x="152.9517" y="317.2432">selaimessa</text><text fill="#000000" font-family="sans-serif" font-size="12" lengthAdjust="spacing" textLength="132.2754" x="152.9517" y="331.2119">opintotietojen hakuun</text><path d="M20,585.6592 L20,625.9248 A0,0 0 0 0 20,625.9248 L125.3921,625.9248 A0,0 0 0 0 125.3921,625.9248 L125.3921,609.792 L145.3921,605.792 L125.3921,601.792 L125.3921,595.6592 L115.3921,585.6592 L20,585.6592 A0,0 0 0 0 20,585.6592 " fill="#FEFFDD" style="stroke:#181818;stroke-width:0.5;"/><path d="M115.3921,585.6592 L115.3921,595.6592 L125.3921,595.6592 L115.3921,585.6592 " fill="#FEFFDD" style="stroke:#181818;stroke-width:0.5;"/><text fill="#000000" font-family="sans-serif" font-size="13" lengthAdjust="spacing" textLength="84.3921" x="26" y="602.7261">hetun v&#228;litys</text><text fill="#000000" font-family="sans-serif" font-size="13" lengthAdjust="spacing" textLength="67.3677" x="26" y="617.8589">esim. n&#228;in</text><rect fill="#F1F1F1" height="47.9375" rx="12.5" ry="12.5" style="stroke:#181818;stroke-width:0.5;" width="147.3945" x="145.3921" y="581.8232"/><text fill="#000000" font-family="sans-serif" font-size="12" lengthAdjust="spacing" textLength="55.7813" x="155.3921" y="602.9619">Backend:</text><text fill="#000000" font-family="sans-serif" font-size="12" lengthAdjust="spacing" textLength="127.3945" x="155.3921" y="616.9307">Palauta henkil&#246;tiedot</text><rect fill="#F1F1F1" height="61.9063" rx="12.5" ry="12.5" style="stroke:#181818;stroke-width:0.5;" width="172.0332" x="133.0728" y="2846.2139"/><text fill="#000000" font-family="sans-serif" font-size="12" lengthAdjust="spacing" textLength="55.7813" x="143.0728" y="2867.3525">Backend:</text><text fill="#000000" font-family="sans-serif" font-size="12" lengthAdjust="spacing" textLength="152.0332" x="143.0728" y="2881.3213">Tallenna opiskelijastatus,</text><text fill="#000000" font-family="sans-serif" font-size="12" lengthAdjust="spacing" textLength="61.248" x="143.0728" y="2895.29">vastaa OK</text><ellipse cx="219.0894" cy="3021.0264" fill="none" rx="11" ry="11" style="stroke:#222222;stroke-width:1.0;"/><ellipse cx="219.0894" cy="3021.0264" fill="#222222" rx="6" ry="6" style="stroke:#222222;stroke-width:1.0;"/><line style="stroke:#000000;stroke-width:1.5;" x1="15" x2="15" y1="66.3389" y2="3032.0264"/><path d="M314.6655,375.4443 L314.6655,400.5771 A0,0 0 0 0 314.6655,400.5771 L571.7983,400.5771 A0,0 0 0 0 571.7983,400.5771 L571.7983,393.4443 L591.7983,388.0107 L571.7983,385.4443 L571.7983,385.4443 L561.7983,375.4443 L314.6655,375.4443 A0,0 0 0 0 314.6655,375.4443 " fill="#FEFFDD" style="stroke:#181818;stroke-width:0.5;"/><path d="M561.7983,375.4443 L561.7983,385.4443 L571.7983,385.4443 L561.7983,375.4443 " fill="#FEFFDD" style="stroke:#181818;stroke-width:0.5;"/><text fill="#000000" font-family="sans-serif" font-size="13" lengthAdjust="spacing" textLength="236.1328" x="320.6655" y="392.5112">T&#228;t&#228; n&#228;kym&#228;&#228; ei v&#228;ltt&#228;m&#228;tt&#228; tarvita</text><rect fill="#F1F1F1" height="47.9375" rx="12.5" ry="12.5" style="stroke:#181818;stroke-width:0.5;" width="213.4414" x="591.7983" y="364.042"/><text fill="#000000" font-family="sans-serif" font-size="12" lengthAdjust="spacing" textLength="193.4414" x="601.7983" y="385.1807">N&#228;yt&#228; selaimessa opintotietojen</text><text fill="#000000" font-family="sans-serif" font-size="12" lengthAdjust="spacing" textLength="77.5664" x="601.7983" y="399.1494">hakun&#228;kym&#228;</text><rect fill="#F1F1F1" height="61.9063" rx="12.5" ry="12.5" style="stroke:#181818;stroke-width:0.5;" width="209.0352" x="594.0015" y="431.9795"/><text fill="#000000" font-family="sans-serif" font-size="12" lengthAdjust="spacing" textLength="55.7813" x="604.0015" y="453.1182">Backend:</text><text fill="#000000" font-family="sans-serif" font-size="12" lengthAdjust="spacing" textLength="142.2422" x="604.0015" y="467.0869">Luo sessio ja sille state,</text><text fill="#000000" font-family="sans-serif" font-size="12" lengthAdjust="spacing" textLength="189.0352" x="604.0015" y="481.0557">code_challenge ja code_verifier</text><rect fill="#F1F1F1" height="47.9375" rx="12.5" ry="12.5" style="stroke:#181818;stroke-width:0.5;" width="166.6895" x="615.1743" y="513.8857"/><text fill="#000000" font-family="sans-serif" font-size="12" lengthAdjust="spacing" textLength="55.7813" x="625.1743" y="535.0244">Backend:</text><text fill="#000000" font-family="sans-serif" font-size="12" lengthAdjust="spacing" textLength="146.6895" x="625.1743" y="548.9932">Hae henkil&#246;tiedot (hetu)</text><rect fill="#F1F1F1" height="47.9375" rx="12.5" ry="12.5" style="stroke:#181818;stroke-width:0.5;" width="209.0176" x="594.0103" y="649.7607"/><text fill="#000000" font-family="sans-serif" font-size="12" lengthAdjust="spacing" textLength="55.7813" x="604.0103" y="670.8994">Backend:</text><text fill="#000000" font-family="sans-serif" font-size="12" lengthAdjust="spacing" textLength="189.0176" x="604.0103" y="684.8682">Tallenna hetu staten yhteyteen</text><path d="M358.1841,707.6982 L358.1841,929.5576 A0,0 0 0 0 358.1841,929.5576 L580.7603,929.5576 A0,0 0 0 0 580.7603,929.5576 L580.7603,822.6279 L600.7603,818.6279 L580.7603,814.6279 L580.7603,717.6982 L570.7603,707.6982 L358.1841,707.6982 A0,0 0 0 0 358.1841,707.6982 " fill="#FEFFDD" style="stroke:#181818;stroke-width:0.5;"/><path d="M570.7603,707.6982 L570.7603,717.6982 L580.7603,717.6982 L570.7603,707.6982 " fill="#FEFFDD" style="stroke:#181818;stroke-width:0.5;"/><text fill="#000000" font-family="sans-serif" font-size="13" lengthAdjust="spacing" textLength="135.6113" x="364.1841" y="724.7651">https://opintopolku.fi</text><text fill="#000000" font-family="sans-serif" font-size="13" lengthAdjust="spacing" textLength="150.4775" x="364.1841" y="739.8979">/koski/omadata-oauth2</text><text fill="#000000" font-family="sans-serif" font-size="13" lengthAdjust="spacing" textLength="124.1602" x="364.1841" y="755.0308">/authorize/PARAMS</text><text fill="#000000" font-family="sans-serif" font-size="13" lengthAdjust="spacing" textLength="4.1323" x="364.1841" y="770.1636">&#160;</text><text fill="#000000" font-family="sans-serif" font-size="13" lengthAdjust="spacing" textLength="58.5063" x="364.1841" y="785.2964">PARAMS:</text><text fill="#000000" font-family="sans-serif" font-size="13" lengthAdjust="spacing" textLength="54.0693" x="364.1841" y="800.4292">client_id</text><text fill="#000000" font-family="sans-serif" font-size="13" lengthAdjust="spacing" textLength="74.4897" x="364.1841" y="815.562">redirect_uri</text><text fill="#000000" font-family="sans-serif" font-size="13" lengthAdjust="spacing" textLength="32.9316" x="364.1841" y="830.6948">state</text><text fill="#000000" font-family="sans-serif" font-size="13" lengthAdjust="spacing" textLength="38.124" x="364.1841" y="845.8276">scope</text><text fill="#000000" font-family="sans-serif" font-size="13" lengthAdjust="spacing" textLength="137.1157" x="364.1841" y="860.9604">response_type=code</text><text fill="#000000" font-family="sans-serif" font-size="13" lengthAdjust="spacing" textLength="178.7056" x="364.1841" y="876.0933">response_mode=form_post</text><text fill="#000000" font-family="sans-serif" font-size="13" lengthAdjust="spacing" textLength="201.5762" x="364.1841" y="891.2261">code_challenge_method=S256</text><text fill="#000000" font-family="sans-serif" font-size="13" lengthAdjust="spacing" textLength="100.915" x="364.1841" y="906.3589">code_challenge</text><text fill="#000000" font-family="sans-serif" font-size="13" lengthAdjust="spacing" textLength="4.1323" x="364.1841" y="921.4917">&#160;</text><rect fill="#F1F1F1" height="75.875" rx="12.5" ry="12.5" style="stroke:#181818;stroke-width:0.5;" width="195.5176" x="600.7603" y="780.6904"/><text fill="#000000" font-family="sans-serif" font-size="12" lengthAdjust="spacing" textLength="55.7813" x="610.7603" y="801.8291">Backend:</text><text fill="#000000" font-family="sans-serif" font-size="12" lengthAdjust="spacing" textLength="107.5898" x="610.7603" y="815.7979">Muodosta OAuth2</text><text fill="#000000" font-family="sans-serif" font-size="12" lengthAdjust="spacing" textLength="175.5176" x="610.7603" y="829.7666">authorization endpoint URI ja</text><text fill="#000000" font-family="sans-serif" font-size="12" lengthAdjust="spacing" textLength="168.334" x="610.7603" y="843.7354">ohjaa k&#228;ytt&#228;j&#228;n selain sinne</text><rect fill="#F1F1F1" height="47.9375" rx="12.5" ry="12.5" style="stroke:#181818;stroke-width:0.5;" width="146.3223" x="625.3579" y="1517.6123"/><text fill="#000000" font-family="sans-serif" font-size="12" lengthAdjust="spacing" textLength="55.7813" x="635.3579" y="1538.751">Backend:</text><text fill="#000000" font-family="sans-serif" font-size="12" lengthAdjust="spacing" textLength="126.3223" x="635.3579" y="1552.7197">Palauta code_verifier</text><rect fill="#F1F1F1" height="47.9375" rx="12.5" ry="12.5" style="stroke:#181818;stroke-width:0.5;" width="96.0547" x="650.4917" y="2546.5264"/><text fill="#000000" font-family="sans-serif" font-size="12" lengthAdjust="spacing" textLength="55.7813" x="660.4917" y="2567.665">Backend:</text><text fill="#000000" font-family="sans-serif" font-size="12" lengthAdjust="spacing" textLength="76.0547" x="660.4917" y="2581.6338">Palauta hetu</text><line style="stroke:#000000;stroke-width:1.5;" x1="309.6655" x2="309.6655" y1="66.3389" y2="3032.0264"/><rect fill="#F1F1F1" height="61.9063" rx="12.5" ry="12.5" style="stroke:#181818;stroke-width:0.5;" width="161.5566" x="1202.5112" y="1435.7061"/><text fill="#000000" font-family="sans-serif" font-size="12" lengthAdjust="spacing" textLength="55.7813" x="1212.5112" y="1456.8447">Backend:</text><text fill="#000000" font-family="sans-serif" font-size="12" lengthAdjust="spacing" textLength="141.5566" x="1212.5112" y="1470.8135">Hae statelle tallennettu</text><text fill="#000000" font-family="sans-serif" font-size="12" lengthAdjust="spacing" textLength="77.5664" x="1212.5112" y="1484.7822">code_verifier</text><path d="M855.6245,1575.5498 L855.6245,1888.2061 A0,0 0 0 0 855.6245,1888.2061 L1186.8091,1888.2061 A0,0 0 0 0 1186.8091,1888.2061 L1186.8091,1735.8779 L1206.8091,1731.8779 L1186.8091,1727.8779 L1186.8091,1585.5498 L1176.8091,1575.5498 L855.6245,1575.5498 A0,0 0 0 0 855.6245,1575.5498 " fill="#FEFFDD" style="stroke:#181818;stroke-width:0.5;"/><path d="M1176.8091,1575.5498 L1176.8091,1585.5498 L1186.8091,1585.5498 L1176.8091,1575.5498 " fill="#FEFFDD" style="stroke:#181818;stroke-width:0.5;"/><text fill="#000000" font-family="sans-serif" font-size="13" lengthAdjust="spacing" textLength="112.3408" x="861.6245" y="1592.6167">mutual-TLS POST</text><text fill="#000000" font-family="sans-serif" font-size="13" lengthAdjust="spacing" textLength="310.1846" x="861.6245" y="1607.7495">https://oph-koski-luovutuspalvelu.opintopolku.fi</text><text fill="#000000" font-family="sans-serif" font-size="13" lengthAdjust="spacing" textLength="174.6875" x="861.6245" y="1622.8823">/koski/api/omadata-oauth2</text><text fill="#000000" font-family="sans-serif" font-size="13" lengthAdjust="spacing" textLength="140.7466" x="861.6245" y="1638.0151">/authorization-server/</text><text fill="#000000" font-family="sans-serif" font-size="13" lengthAdjust="spacing" textLength="141.2036" x="869.8892" y="1653.1479">body=CODE_PARAMS</text><text fill="#000000" font-family="sans-serif" font-size="13" lengthAdjust="spacing" textLength="4.1323" x="861.6245" y="1668.2808">&#160;</text><text fill="#000000" font-family="sans-serif" font-size="13" lengthAdjust="spacing" textLength="140.0356" x="861.6245" y="1683.4136">mutual-TLS tarvitsee:</text><text fill="#000000" font-family="sans-serif" font-size="13" lengthAdjust="spacing" textLength="187.2178" x="861.6245" y="1698.5464">(1) Voimassaolevan luotetun</text><text fill="#000000" font-family="sans-serif" font-size="13" lengthAdjust="spacing" textLength="113.2041" x="869.8892" y="1713.6792">CA:n my&#246;nt&#228;m&#228;n</text><text fill="#000000" font-family="sans-serif" font-size="13" lengthAdjust="spacing" textLength="127.8228" x="869.8892" y="1728.812">asiakasvarmenteen</text><text fill="#000000" font-family="sans-serif" font-size="13" lengthAdjust="spacing" textLength="115.5781" x="869.8892" y="1743.9448">(client certificate)</text><text fill="#000000" font-family="sans-serif" font-size="13" lengthAdjust="spacing" textLength="161.4336" x="861.6245" y="1759.0776">(2) Kiinte&#228;n IP-osoitteen/</text><text fill="#000000" font-family="sans-serif" font-size="13" lengthAdjust="spacing" textLength="74.6294" x="869.8892" y="1774.2104">-avaruuden</text><text fill="#000000" font-family="sans-serif" font-size="13" lengthAdjust="spacing" textLength="4.1323" x="861.6245" y="1789.3433">&#160;</text><text fill="#000000" font-family="sans-serif" font-size="13" lengthAdjust="spacing" textLength="102.54" x="861.6245" y="1804.4761">CODE_PARAMS:</text><text fill="#000000" font-family="sans-serif" font-size="13" lengthAdjust="spacing" textLength="205.3276" x="861.6245" y="1819.6089">grant_type=authorization_code</text><text fill="#000000" font-family="sans-serif" font-size="13" lengthAdjust="spacing" textLength="31.3511" x="861.6245" y="1834.7417">code</text><text fill="#000000" font-family="sans-serif" font-size="13" lengthAdjust="spacing" textLength="84.0303" x="861.6245" y="1849.8745">code_verifier</text><text fill="#000000" font-family="sans-serif" font-size="13" lengthAdjust="spacing" textLength="74.4897" x="861.6245" y="1865.0073">redirect_uri</text><text fill="#000000" font-family="sans-serif" font-size="13" lengthAdjust="spacing" textLength="54.0693" x="861.6245" y="1880.1401">client_id</text><rect fill="#F1F1F1" height="61.9063" rx="12.5" ry="12.5" style="stroke:#181818;stroke-width:0.5;" width="152.9609" x="1206.8091" y="1700.9248"/><text fill="#000000" font-family="sans-serif" font-size="12" lengthAdjust="spacing" textLength="55.7813" x="1216.8091" y="1722.0635">Backend:</text><text fill="#000000" font-family="sans-serif" font-size="12" lengthAdjust="spacing" textLength="132.9609" x="1216.8091" y="1736.0322">Pyyd&#228; access tokenia,</text><text fill="#000000" font-family="sans-serif" font-size="12" lengthAdjust="spacing" textLength="129.9375" x="1216.8091" y="1750.001">mukana code_verifier</text><path d="M814.2397,2115.9873 L814.2397,2322.7139 A0,0 0 0 0 814.2397,2322.7139 L1145.4243,2322.7139 A0,0 0 0 0 1145.4243,2322.7139 L1145.4243,2223.3506 L1165.4243,2219.3506 L1145.4243,2215.3506 L1145.4243,2125.9873 L1135.4243,2115.9873 L814.2397,2115.9873 A0,0 0 0 0 814.2397,2115.9873 " fill="#FEFFDD" style="stroke:#181818;stroke-width:0.5;"/><path d="M1135.4243,2115.9873 L1135.4243,2125.9873 L1145.4243,2125.9873 L1135.4243,2115.9873 " fill="#FEFFDD" style="stroke:#181818;stroke-width:0.5;"/><text fill="#000000" font-family="sans-serif" font-size="13" lengthAdjust="spacing" textLength="112.3408" x="820.2397" y="2133.0542">mutual-TLS POST</text><text fill="#000000" font-family="sans-serif" font-size="13" lengthAdjust="spacing" textLength="310.1846" x="820.2397" y="2148.187">https://oph-koski-luovutuspalvelu.opintopolku.fi</text><text fill="#000000" font-family="sans-serif" font-size="13" lengthAdjust="spacing" textLength="281.709" x="820.2397" y="2163.3198">/koski/api/omadata-oauth2/resource-server</text><text fill="#000000" font-family="sans-serif" font-size="13" lengthAdjust="spacing" textLength="190.3027" x="828.5044" y="2178.4526">Authorization=Bearer TOKEN</text><text fill="#000000" font-family="sans-serif" font-size="13" lengthAdjust="spacing" textLength="4.1323" x="820.2397" y="2193.5854">&#160;</text><text fill="#000000" font-family="sans-serif" font-size="13" lengthAdjust="spacing" textLength="140.0356" x="820.2397" y="2208.7183">mutual-TLS tarvitsee:</text><text fill="#000000" font-family="sans-serif" font-size="13" lengthAdjust="spacing" textLength="187.2178" x="824.3721" y="2223.8511">(1) Voimassaolevan luotetun</text><text fill="#000000" font-family="sans-serif" font-size="13" lengthAdjust="spacing" textLength="113.2041" x="832.6367" y="2238.9839">CA:n my&#246;nt&#228;m&#228;n</text><text fill="#000000" font-family="sans-serif" font-size="13" lengthAdjust="spacing" textLength="127.8228" x="832.6367" y="2254.1167">asiakasvarmenteen</text><text fill="#000000" font-family="sans-serif" font-size="13" lengthAdjust="spacing" textLength="115.5781" x="832.6367" y="2269.2495">(client certificate)</text><text fill="#000000" font-family="sans-serif" font-size="13" lengthAdjust="spacing" textLength="161.4336" x="824.3721" y="2284.3823">(2) Kiinte&#228;n IP-osoitteen/</text><text fill="#000000" font-family="sans-serif" font-size="13" lengthAdjust="spacing" textLength="74.6294" x="832.6367" y="2299.5151">-avaruuden</text><text fill="#000000" font-family="sans-serif" font-size="13" lengthAdjust="spacing" textLength="4.1323" x="820.2397" y="2314.6479">&#160;</text><rect fill="#F1F1F1" height="47.9375" rx="12.5" ry="12.5" style="stroke:#181818;stroke-width:0.5;" width="235.7305" x="1165.4243" y="2195.3818"/><text fill="#000000" font-family="sans-serif" font-size="12" lengthAdjust="spacing" textLength="55.7813" x="1175.4243" y="2216.5205">Backend:</text><text fill="#000000" font-family="sans-serif" font-size="12" lengthAdjust="spacing" textLength="215.7305" x="1175.4243" y="2230.4893">Pyyd&#228; opintotietoja access tokenilla</text><rect fill="#F1F1F1" height="47.9375" rx="12.5" ry="12.5" style="stroke:#181818;stroke-width:0.5;" width="192.6699" x="1186.9546" y="2478.5889"/><text fill="#000000" font-family="sans-serif" font-size="12" lengthAdjust="spacing" textLength="55.7813" x="1196.9546" y="2499.7275">Backend:</text><text fill="#000000" font-family="sans-serif" font-size="12" lengthAdjust="spacing" textLength="172.6699" x="1196.9546" y="2513.6963">Hae statelle tallennettu hetu</text><rect fill="#F1F1F1" height="61.9063" rx="12.5" ry="12.5" style="stroke:#181818;stroke-width:0.5;" width="176.832" x="1194.8735" y="2614.4639"/><text fill="#000000" font-family="sans-serif" font-size="12" lengthAdjust="spacing" textLength="55.7813" x="1204.8735" y="2635.6025">Backend:</text><text fill="#000000" font-family="sans-serif" font-size="12" lengthAdjust="spacing" textLength="156.832" x="1204.8735" y="2649.5713">Tarkista, ett&#228; opintotiedot</text><text fill="#000000" font-family="sans-serif" font-size="12" lengthAdjust="spacing" textLength="97.7461" x="1204.8735" y="2663.54">vastaavat hetua</text><rect fill="#F1F1F1" height="61.9063" rx="12.5" ry="12.5" style="stroke:#181818;stroke-width:0.5;" width="226.1914" x="1170.1938" y="2696.3701"/><text fill="#000000" font-family="sans-serif" font-size="12" lengthAdjust="spacing" textLength="55.7813" x="1180.1938" y="2717.5088">Backend:</text><text fill="#000000" font-family="sans-serif" font-size="12" lengthAdjust="spacing" textLength="146.373" x="1180.1938" y="2731.4775">P&#228;&#228;ttele opiskelijastatus</text><text fill="#000000" font-family="sans-serif" font-size="12" lengthAdjust="spacing" textLength="206.1914" x="1180.1938" y="2745.4463">opintotiedoista ("s&#228;&#228;nt&#246;moottori")</text><rect fill="#F1F1F1" height="47.9375" rx="12.5" ry="12.5" style="stroke:#181818;stroke-width:0.5;" width="158.0059" x="1204.2866" y="2778.2764"/><text fill="#000000" font-family="sans-serif" font-size="12" lengthAdjust="spacing" textLength="55.7813" x="1214.2866" y="2799.415">Backend:</text><text fill="#000000" font-family="sans-serif" font-size="12" lengthAdjust="spacing" textLength="138.0059" x="1214.2866" y="2813.3838">L&#228;het&#228; opiskelijastatus</text><rect fill="#F1F1F1" height="61.9063" rx="12.5" ry="12.5" style="stroke:#181818;stroke-width:0.5;" width="212.7676" x="1176.9058" y="2928.1201"/><text fill="#000000" font-family="sans-serif" font-size="12" lengthAdjust="spacing" textLength="55.7813" x="1186.9058" y="2949.2588">Backend:</text><text fill="#000000" font-family="sans-serif" font-size="12" lengthAdjust="spacing" textLength="192.7676" x="1186.9058" y="2963.2275">Uudelleenohjaa k&#228;ytt&#228;j&#228;n selain</text><text fill="#000000" font-family="sans-serif" font-size="12" lengthAdjust="spacing" textLength="181.0898" x="1186.9058" y="2977.1963">takaisin hy&#246;dynt&#228;j&#228;-palveluun</text><line style="stroke:#000000;stroke-width:1.5;" x1="809.2397" x2="809.2397" y1="66.3389" y2="3032.0264"/><rect fill="#F1F1F1" height="33.9688" rx="12.5" ry="12.5" style="stroke:#181818;stroke-width:0.5;" width="205.1211" x="1770.8477" y="949.5576"/><text fill="#000000" font-family="sans-serif" font-size="12" lengthAdjust="spacing" textLength="185.1211" x="1780.8477" y="970.6963">Aloita vahva tunnistautuminen</text><rect fill="#F1F1F1" height="47.9375" rx="12.5" ry="12.5" style="stroke:#181818;stroke-width:0.5;" width="217.707" x="1764.5547" y="1071.4639"/><text fill="#000000" font-family="sans-serif" font-size="12" lengthAdjust="spacing" textLength="197.707" x="1774.5547" y="1092.6025">K&#228;ytt&#228;j&#228; hyv&#228;ksyy opintotietojen</text><text fill="#000000" font-family="sans-serif" font-size="12" lengthAdjust="spacing" textLength="86.0156" x="1774.5547" y="1106.5713">luovuttamisen</text><rect fill="#F1F1F1" height="89.8438" rx="12.5" ry="12.5" style="stroke:#181818;stroke-width:0.5;" width="243.7402" x="1751.5381" y="1139.4014"/><text fill="#000000" font-family="sans-serif" font-size="12" lengthAdjust="spacing" textLength="55.7813" x="1761.5381" y="1160.54">Backend:</text><text fill="#000000" font-family="sans-serif" font-size="12" lengthAdjust="spacing" textLength="141.5332" x="1761.5381" y="1174.5088">Luo authorization code,</text><text fill="#000000" font-family="sans-serif" font-size="12" lengthAdjust="spacing" textLength="194.3906" x="1761.5381" y="1188.4775">vastaanota ja tallenna k&#228;ytt&#228;j&#228;n</text><text fill="#000000" font-family="sans-serif" font-size="12" lengthAdjust="spacing" textLength="146.9355" x="1761.5381" y="1202.4463">antama suostumus sek&#228;</text><text fill="#000000" font-family="sans-serif" font-size="12" lengthAdjust="spacing" textLength="223.7402" x="1761.5381" y="1216.415">authorization code ja code_challenge</text><path d="M1410.1548,1239.2451 L1410.1548,1415.7061 A0,0 0 0 0 1410.1548,1415.7061 L1715.9551,1415.7061 A0,0 0 0 0 1715.9551,1415.7061 L1715.9551,1331.4756 L1735.9551,1327.4756 L1715.9551,1323.4756 L1715.9551,1249.2451 L1705.9551,1239.2451 L1410.1548,1239.2451 A0,0 0 0 0 1410.1548,1239.2451 " fill="#FEFFDD" style="stroke:#181818;stroke-width:0.5;"/><path d="M1705.9551,1239.2451 L1705.9551,1249.2451 L1715.9551,1249.2451 L1705.9551,1239.2451 " fill="#FEFFDD" style="stroke:#181818;stroke-width:0.5;"/><text fill="#000000" font-family="sans-serif" font-size="13" lengthAdjust="spacing" textLength="112.8867" x="1416.1548" y="1256.312">POST redirect_uri</text><text fill="#000000" font-family="sans-serif" font-size="13" lengthAdjust="spacing" textLength="156.8379" x="1416.1548" y="1271.4448">body=CODE_RESPONSE</text><text fill="#000000" font-family="sans-serif" font-size="13" lengthAdjust="spacing" textLength="4.1323" x="1416.1548" y="1286.5776">&#160;</text><text fill="#000000" font-family="sans-serif" font-size="13" lengthAdjust="spacing" textLength="118.1743" x="1416.1548" y="1301.7104">CODE_RESPONSE:</text><text fill="#000000" font-family="sans-serif" font-size="13" lengthAdjust="spacing" textLength="32.9316" x="1416.1548" y="1316.8433">state</text><text fill="#000000" font-family="sans-serif" font-size="13" lengthAdjust="spacing" textLength="31.3511" x="1416.1548" y="1331.9761">code</text><text fill="#000000" font-family="sans-serif" font-size="13" lengthAdjust="spacing" textLength="276.5356" x="1424.4194" y="1347.1089">Virhetilanteissa code:n sijasta voi sis&#228;lt&#228;&#228;:</text><text fill="#000000" font-family="sans-serif" font-size="13" lengthAdjust="spacing" textLength="31.9858" x="1416.1548" y="1362.2417">error</text><text fill="#000000" font-family="sans-serif" font-size="13" lengthAdjust="spacing" textLength="110.7666" x="1416.1548" y="1377.3745">error_description</text><text fill="#000000" font-family="sans-serif" font-size="13" lengthAdjust="spacing" textLength="55.6816" x="1416.1548" y="1392.5073">error_uri</text><text fill="#000000" font-family="sans-serif" font-size="13" lengthAdjust="spacing" textLength="4.1323" x="1416.1548" y="1407.6401">&#160;</text><rect fill="#F1F1F1" height="47.9375" rx="12.5" ry="12.5" style="stroke:#181818;stroke-width:0.5;" width="274.9063" x="1735.9551" y="1303.5068"/><text fill="#000000" font-family="sans-serif" font-size="12" lengthAdjust="spacing" textLength="40.6699" x="1745.9551" y="1324.6455">Selain:</text><text fill="#000000" font-family="sans-serif" font-size="12" lengthAdjust="spacing" textLength="254.9063" x="1745.9551" y="1338.6143">L&#228;het&#228; OAuth2 authorization code ja state</text><rect fill="#F1F1F1" height="47.9375" rx="12.5" ry="12.5" style="stroke:#181818;stroke-width:0.5;" width="203.0352" x="1771.8906" y="1908.2061"/><text fill="#000000" font-family="sans-serif" font-size="12" lengthAdjust="spacing" textLength="55.7813" x="1781.8906" y="1929.3447">Backend:</text><text fill="#000000" font-family="sans-serif" font-size="12" lengthAdjust="spacing" textLength="183.0352" x="1781.8906" y="1943.3135">Tarkista varmenne ja ip-osoite</text><rect fill="#F1F1F1" height="61.9063" rx="12.5" ry="12.5" style="stroke:#181818;stroke-width:0.5;" width="247.0742" x="1749.8711" y="1976.1436"/><text fill="#000000" font-family="sans-serif" font-size="12" lengthAdjust="spacing" textLength="55.7813" x="1759.8711" y="1997.2822">Backend:</text><text fill="#000000" font-family="sans-serif" font-size="12" lengthAdjust="spacing" textLength="227.0742" x="1759.8711" y="2011.251">Tarkista code_challenge-code_verifier</text><text fill="#000000" font-family="sans-serif" font-size="12" lengthAdjust="spacing" textLength="68.6836" x="1759.8711" y="2025.2197">vastaavuus</text><rect fill="#F1F1F1" height="47.9375" rx="12.5" ry="12.5" style="stroke:#181818;stroke-width:0.5;" width="255.7754" x="1745.5205" y="2058.0498"/><text fill="#000000" font-family="sans-serif" font-size="12" lengthAdjust="spacing" textLength="55.7813" x="1755.5205" y="2079.1885">Backend:</text><text fill="#000000" font-family="sans-serif" font-size="12" lengthAdjust="spacing" textLength="235.7754" x="1755.5205" y="2093.1572">Luo, tallenna ja vastaa access tokenilla</text><rect fill="#F1F1F1" height="47.9375" rx="12.5" ry="12.5" style="stroke:#181818;stroke-width:0.5;" width="203.0352" x="1771.8906" y="2342.7139"/><text fill="#000000" font-family="sans-serif" font-size="12" lengthAdjust="spacing" textLength="55.7813" x="1781.8906" y="2363.8525">Backend:</text><text fill="#000000" font-family="sans-serif" font-size="12" lengthAdjust="spacing" textLength="183.0352" x="1781.8906" y="2377.8213">Tarkista varmenne ja ip-osoite</text><rect fill="#F1F1F1" height="47.9375" rx="12.5" ry="12.5" style="stroke:#181818;stroke-width:0.5;" width="150.7227" x="1798.0469" y="2410.6514"/><text fill="#000000" font-family="sans-serif" font-size="12" lengthAdjust="spacing" textLength="55.7813" x="1808.0469" y="2431.79">Backend:</text><text fill="#000000" font-family="sans-serif" font-size="12" lengthAdjust="spacing" textLength="130.7227" x="1808.0469" y="2445.7588">Vastaa opintotiedoilla</text><line style="stroke:#000000;stroke-width:1.5;" x1="1405.1548" x2="1405.1548" y1="66.3389" y2="3032.0264"/><rect fill="#F1F1F1" height="33.9688" rx="12.5" ry="12.5" style="stroke:#181818;stroke-width:0.5;" width="94.6191" x="2075.6934" y="228.167"/><text fill="#000000" font-family="sans-serif" font-size="12" lengthAdjust="spacing" textLength="74.6191" x="2085.6934" y="249.3057">Tunnistaudu</text><rect fill="#F1F1F1" height="47.9375" rx="12.5" ry="12.5" style="stroke:#181818;stroke-width:0.5;" width="204.2832" x="2020.8613" y="1003.5264"/><text fill="#000000" font-family="sans-serif" font-size="12" lengthAdjust="spacing" textLength="170.3438" x="2030.8613" y="1024.665">L&#228;het&#228; tunnistautumistiedot</text><text fill="#000000" font-family="sans-serif" font-size="12" lengthAdjust="spacing" textLength="184.2832" x="2030.8613" y="1038.6338">(k&#228;ytt&#228;j&#228; on jo tunnistautunut)</text><line style="stroke:#000000;stroke-width:1.5;" x1="2014.8613" x2="2014.8613" y1="66.3389" y2="3032.0264"/><line style="stroke:#000000;stroke-width:1.5;" x1="2229.1445" x2="2229.1445" y1="66.3389" y2="3032.0264"/><line style="stroke:#181818;stroke-width:1.0;" x1="219.0894" x2="219.0894" y1="112.292" y2="132.292"/><polygon fill="#181818" points="215.0894,122.292,219.0894,132.292,223.0894,122.292,219.0894,126.292" style="stroke:#181818;stroke-width:1.0;"/><line style="stroke:#181818;stroke-width:1.0;" x1="698.519" x2="698.519" y1="411.9795" y2="431.9795"/><polygon fill="#181818" points="694.519,421.9795,698.519,431.9795,702.519,421.9795,698.519,425.9795" style="stroke:#181818;stroke-width:1.0;"/><line style="stroke:#181818;stroke-width:1.0;" x1="698.519" x2="698.519" y1="493.8857" y2="513.8857"/><polygon fill="#181818" points="694.519,503.8857,698.519,513.8857,702.519,503.8857,698.519,507.8857" style="stroke:#181818;stroke-width:1.0;"/><line style="stroke:#181818;stroke-width:1.0;" x1="698.519" x2="698.519" y1="697.6982" y2="780.6904"/><polygon fill="#181818" points="694.519,770.6904,698.519,780.6904,702.519,770.6904,698.519,774.6904" style="stroke:#181818;stroke-width:1.0;"/><line style="stroke:#181818;stroke-width:1.0;" x1="1283.2896" x2="1283.2896" y1="2676.3701" y2="2696.3701"/><polygon fill="#181818" points="1279.2896,2686.3701,1283.2896,2696.3701,1287.2896,2686.3701,1283.2896,2690.3701" style="stroke:#181818;stroke-width:1.0;"/><line style="stroke:#181818;stroke-width:1.0;" x1="1283.2896" x2="1283.2896" y1="2758.2764" y2="2778.2764"/><polygon fill="#181818" points="1279.2896,2768.2764,1283.2896,2778.2764,1287.2896,2768.2764,1283.2896,2772.2764" style="stroke:#181818;stroke-width:1.0;"/><line style="stroke:#181818;stroke-width:1.0;" x1="1873.4082" x2="1873.4082" y1="1119.4014" y2="1139.4014"/><polygon fill="#181818" points="1869.4082,1129.4014,1873.4082,1139.4014,1877.4082,1129.4014,1873.4082,1133.4014" style="stroke:#181818;stroke-width:1.0;"/><line style="stroke:#181818;stroke-width:1.0;" x1="1873.4082" x2="1873.4082" y1="1229.2451" y2="1303.5068"/><polygon fill="#181818" points="1869.4082,1293.5068,1873.4082,1303.5068,1877.4082,1293.5068,1873.4082,1297.5068" style="stroke:#181818;stroke-width:1.0;"/><line style="stroke:#181818;stroke-width:1.0;" x1="1873.4082" x2="1873.4082" y1="1956.1436" y2="1976.1436"/><polygon fill="#181818" points="1869.4082,1966.1436,1873.4082,1976.1436,1877.4082,1966.1436,1873.4082,1970.1436" style="stroke:#181818;stroke-width:1.0;"/><line style="stroke:#181818;stroke-width:1.0;" x1="1873.4082" x2="1873.4082" y1="2038.0498" y2="2058.0498"/><polygon fill="#181818" points="1869.4082,2048.0498,1873.4082,2058.0498,1877.4082,2048.0498,1873.4082,2052.0498" style="stroke:#181818;stroke-width:1.0;"/><line style="stroke:#181818;stroke-width:1.0;" x1="1873.4082" x2="1873.4082" y1="2390.6514" y2="2410.6514"/><polygon fill="#181818" points="1869.4082,2400.6514,1873.4082,2410.6514,1877.4082,2400.6514,1873.4082,2404.6514" style="stroke:#181818;stroke-width:1.0;"/><line style="stroke:#181818;stroke-width:1.0;" x1="219.0894" x2="219.0894" y1="208.167" y2="213.167"/><line style="stroke:#181818;stroke-width:1.0;" x1="219.0894" x2="2123.0029" y1="213.167" y2="213.167"/><line style="stroke:#181818;stroke-width:1.0;" x1="2123.0029" x2="2123.0029" y1="213.167" y2="228.167"/><polygon fill="#181818" points="2119.0029,218.167,2123.0029,228.167,2127.0029,218.167,2123.0029,222.167" style="stroke:#181818;stroke-width:1.0;"/><line style="stroke:#181818;stroke-width:1.0;" x1="2123.0029" x2="2123.0029" y1="262.1357" y2="267.1357"/><line style="stroke:#181818;stroke-width:1.0;" x1="2123.0029" x2="219.0894" y1="267.1357" y2="267.1357"/><line style="stroke:#181818;stroke-width:1.0;" x1="219.0894" x2="219.0894" y1="267.1357" y2="282.1357"/><polygon fill="#181818" points="215.0894,272.1357,219.0894,282.1357,223.0894,272.1357,219.0894,276.1357" style="stroke:#181818;stroke-width:1.0;"/><line style="stroke:#181818;stroke-width:1.0;" x1="219.0894" x2="219.0894" y1="344.042" y2="349.042"/><line style="stroke:#181818;stroke-width:1.0;" x1="219.0894" x2="698.519" y1="349.042" y2="349.042"/><line style="stroke:#181818;stroke-width:1.0;" x1="698.519" x2="698.519" y1="349.042" y2="364.042"/><polygon fill="#181818" points="694.519,354.042,698.519,364.042,702.519,354.042,698.519,358.042" style="stroke:#181818;stroke-width:1.0;"/><line style="stroke:#181818;stroke-width:1.0;" x1="698.519" x2="698.519" y1="561.8232" y2="566.8232"/><line style="stroke:#181818;stroke-width:1.0;" x1="698.519" x2="219.0894" y1="566.8232" y2="566.8232"/><line style="stroke:#181818;stroke-width:1.0;" x1="219.0894" x2="219.0894" y1="566.8232" y2="581.8232"/><polygon fill="#181818" points="215.0894,571.8232,219.0894,581.8232,223.0894,571.8232,219.0894,575.8232" style="stroke:#181818;stroke-width:1.0;"/><line style="stroke:#181818;stroke-width:1.0;" x1="219.0894" x2="219.0894" y1="629.7607" y2="634.7607"/><line style="stroke:#181818;stroke-width:1.0;" x1="219.0894" x2="698.519" y1="634.7607" y2="634.7607"/><line style="stroke:#181818;stroke-width:1.0;" x1="698.519" x2="698.519" y1="634.7607" y2="649.7607"/><polygon fill="#181818" points="694.519,639.7607,698.519,649.7607,702.519,639.7607,698.519,643.7607" style="stroke:#181818;stroke-width:1.0;"/><line style="stroke:#181818;stroke-width:1.0;" x1="698.519" x2="698.519" y1="856.5654" y2="910.5615"/><line style="stroke:#181818;stroke-width:1.0;" x1="698.519" x2="1873.4082" y1="910.5615" y2="910.5615"/><line style="stroke:#181818;stroke-width:1.0;" x1="1873.4082" x2="1873.4082" y1="910.5615" y2="949.5576"/><polygon fill="#181818" points="1869.4082,939.5576,1873.4082,949.5576,1877.4082,939.5576,1873.4082,943.5576" style="stroke:#181818;stroke-width:1.0;"/><line style="stroke:#181818;stroke-width:1.0;" x1="1873.4082" x2="1873.4082" y1="983.5264" y2="988.5264"/><line style="stroke:#181818;stroke-width:1.0;" x1="1873.4082" x2="2123.0029" y1="988.5264" y2="988.5264"/><line style="stroke:#181818;stroke-width:1.0;" x1="2123.0029" x2="2123.0029" y1="988.5264" y2="1003.5264"/><polygon fill="#181818" points="2119.0029,993.5264,2123.0029,1003.5264,2127.0029,993.5264,2123.0029,997.5264" style="stroke:#181818;stroke-width:1.0;"/><line style="stroke:#181818;stroke-width:1.0;" x1="2123.0029" x2="2123.0029" y1="1051.4639" y2="1056.4639"/><line style="stroke:#181818;stroke-width:1.0;" x1="2123.0029" x2="1873.4082" y1="1056.4639" y2="1056.4639"/><line style="stroke:#181818;stroke-width:1.0;" x1="1873.4082" x2="1873.4082" y1="1056.4639" y2="1071.4639"/><polygon fill="#181818" points="1869.4082,1061.4639,1873.4082,1071.4639,1877.4082,1061.4639,1873.4082,1065.4639" style="stroke:#181818;stroke-width:1.0;"/><line style="stroke:#181818;stroke-width:1.0;" x1="1873.4082" x2="1873.4082" y1="1351.4443" y2="1401.0752"/><line style="stroke:#181818;stroke-width:1.0;" x1="1873.4082" x2="1283.2896" y1="1401.0752" y2="1401.0752"/><line style="stroke:#181818;stroke-width:1.0;" x1="1283.2896" x2="1283.2896" y1="1401.0752" y2="1435.7061"/><polygon fill="#181818" points="1279.2896,1425.7061,1283.2896,1435.7061,1287.2896,1425.7061,1283.2896,1429.7061" style="stroke:#181818;stroke-width:1.0;"/><line style="stroke:#181818;stroke-width:1.0;" x1="1283.2896" x2="1283.2896" y1="1497.6123" y2="1502.6123"/><line style="stroke:#181818;stroke-width:1.0;" x1="1283.2896" x2="698.519" y1="1502.6123" y2="1502.6123"/><line style="stroke:#181818;stroke-width:1.0;" x1="698.519" x2="698.519" y1="1502.6123" y2="1517.6123"/><polygon fill="#181818" points="694.519,1507.6123,698.519,1517.6123,702.519,1507.6123,698.519,1511.6123" style="stroke:#181818;stroke-width:1.0;"/><line style="stroke:#181818;stroke-width:1.0;" x1="698.519" x2="698.519" y1="1565.5498" y2="1620.7373"/><line style="stroke:#181818;stroke-width:1.0;" x1="698.519" x2="1283.2896" y1="1620.7373" y2="1620.7373"/><line style="stroke:#181818;stroke-width:1.0;" x1="1283.2896" x2="1283.2896" y1="1620.7373" y2="1700.9248"/><polygon fill="#181818" points="1279.2896,1690.9248,1283.2896,1700.9248,1287.2896,1690.9248,1283.2896,1694.9248" style="stroke:#181818;stroke-width:1.0;"/><line style="stroke:#181818;stroke-width:1.0;" x1="1283.2896" x2="1283.2896" y1="1762.8311" y2="1843.0186"/><line style="stroke:#181818;stroke-width:1.0;" x1="1283.2896" x2="1873.4082" y1="1843.0186" y2="1843.0186"/><line style="stroke:#181818;stroke-width:1.0;" x1="1873.4082" x2="1873.4082" y1="1843.0186" y2="1908.2061"/><polygon fill="#181818" points="1869.4082,1898.2061,1873.4082,1908.2061,1877.4082,1898.2061,1873.4082,1902.2061" style="stroke:#181818;stroke-width:1.0;"/><line style="stroke:#181818;stroke-width:1.0;" x1="1873.4082" x2="1873.4082" y1="2105.9873" y2="2138.1846"/><line style="stroke:#181818;stroke-width:1.0;" x1="1873.4082" x2="1283.2896" y1="2138.1846" y2="2138.1846"/><line style="stroke:#181818;stroke-width:1.0;" x1="1283.2896" x2="1283.2896" y1="2138.1846" y2="2195.3818"/><polygon fill="#181818" points="1279.2896,2185.3818,1283.2896,2195.3818,1287.2896,2185.3818,1283.2896,2189.3818" style="stroke:#181818;stroke-width:1.0;"/><line style="stroke:#181818;stroke-width:1.0;" x1="1283.2896" x2="1283.2896" y1="2243.3193" y2="2300.5166"/><line style="stroke:#181818;stroke-width:1.0;" x1="1283.2896" x2="1873.4082" y1="2300.5166" y2="2300.5166"/><line style="stroke:#181818;stroke-width:1.0;" x1="1873.4082" x2="1873.4082" y1="2300.5166" y2="2342.7139"/><polygon fill="#181818" points="1869.4082,2332.7139,1873.4082,2342.7139,1877.4082,2332.7139,1873.4082,2336.7139" style="stroke:#181818;stroke-width:1.0;"/><line style="stroke:#181818;stroke-width:1.0;" x1="1873.4082" x2="1873.4082" y1="2458.5889" y2="2463.5889"/><line style="stroke:#181818;stroke-width:1.0;" x1="1873.4082" x2="1283.2896" y1="2463.5889" y2="2463.5889"/><line style="stroke:#181818;stroke-width:1.0;" x1="1283.2896" x2="1283.2896" y1="2463.5889" y2="2478.5889"/><polygon fill="#181818" points="1279.2896,2468.5889,1283.2896,2478.5889,1287.2896,2468.5889,1283.2896,2472.5889" style="stroke:#181818;stroke-width:1.0;"/><line style="stroke:#181818;stroke-width:1.0;" x1="1283.2896" x2="1283.2896" y1="2526.5264" y2="2531.5264"/><line style="stroke:#181818;stroke-width:1.0;" x1="1283.2896" x2="698.519" y1="2531.5264" y2="2531.5264"/><line style="stroke:#181818;stroke-width:1.0;" x1="698.519" x2="698.519" y1="2531.5264" y2="2546.5264"/><polygon fill="#181818" points="694.519,2536.5264,698.519,2546.5264,702.519,2536.5264,698.519,2540.5264" style="stroke:#181818;stroke-width:1.0;"/><line style="stroke:#181818;stroke-width:1.0;" x1="698.519" x2="698.519" y1="2594.4639" y2="2599.4639"/><line style="stroke:#181818;stroke-width:1.0;" x1="698.519" x2="1283.2896" y1="2599.4639" y2="2599.4639"/><line style="stroke:#181818;stroke-width:1.0;" x1="1283.2896" x2="1283.2896" y1="2599.4639" y2="2614.4639"/><polygon fill="#181818" points="1279.2896,2604.4639,1283.2896,2614.4639,1287.2896,2604.4639,1283.2896,2608.4639" style="stroke:#181818;stroke-width:1.0;"/><line style="stroke:#181818;stroke-width:1.0;" x1="1283.2896" x2="1283.2896" y1="2826.2139" y2="2831.2139"/><line style="stroke:#181818;stroke-width:1.0;" x1="1283.2896" x2="219.0894" y1="2831.2139" y2="2831.2139"/><line style="stroke:#181818;stroke-width:1.0;" x1="219.0894" x2="219.0894" y1="2831.2139" y2="2846.2139"/><polygon fill="#181818" points="215.0894,2836.2139,219.0894,2846.2139,223.0894,2836.2139,219.0894,2840.2139" style="stroke:#181818;stroke-width:1.0;"/><line style="stroke:#181818;stroke-width:1.0;" x1="219.0894" x2="219.0894" y1="2908.1201" y2="2913.1201"/><line style="stroke:#181818;stroke-width:1.0;" x1="219.0894" x2="1283.2896" y1="2913.1201" y2="2913.1201"/><line style="stroke:#181818;stroke-width:1.0;" x1="1283.2896" x2="1283.2896" y1="2913.1201" y2="2928.1201"/><polygon fill="#181818" points="1279.2896,2918.1201,1283.2896,2928.1201,1287.2896,2918.1201,1283.2896,2922.1201" style="stroke:#181818;stroke-width:1.0;"/><line style="stroke:#181818;stroke-width:1.0;" x1="1283.2896" x2="1283.2896" y1="2990.0264" y2="2995.0264"/><line style="stroke:#181818;stroke-width:1.0;" x1="1283.2896" x2="219.0894" y1="2995.0264" y2="2995.0264"/><line style="stroke:#181818;stroke-width:1.0;" x1="219.0894" x2="219.0894" y1="2995.0264" y2="3010.0264"/><polygon fill="#181818" points="215.0894,3000.0264,219.0894,3010.0264,223.0894,3000.0264,219.0894,3004.0264" style="stroke:#181818;stroke-width:1.0;"/><text fill="#000000" font-family="sans-serif" font-size="18" lengthAdjust="spacing" textLength="174.8936" x="74.886" y="83.0469">Hy&#246;dynt&#228;j&#228;-palvelu</text><text fill="#000000" font-family="sans-serif" font-size="18" lengthAdjust="spacing" textLength="427.7373" x="345.584" y="83.0469">Hy&#246;dynt&#228;j&#228;n tilallinen KOSKI-integraatiopalvelu</text><text fill="#000000" font-family="sans-serif" font-size="18" lengthAdjust="spacing" textLength="408.3223" x="903.0361" y="83.0469">Hy&#246;dynt&#228;j&#228;n tilaton KOSKI-integraatiopalvelu</text><text fill="#000000" font-family="sans-serif" font-size="18" lengthAdjust="spacing" textLength="98.7891" x="1660.6135" y="83.0469">OPH KOSKI</text><text fill="#000000" font-family="sans-serif" font-size="18" lengthAdjust="spacing" textLength="73.4414" x="2085.2822" y="83.0469">Suomi.fi</text><!--SRC=[lLTBRkCu4Dtp54Il722ACG5c5WgoSFS4IE1qRCJkh0Oms5QbLPP42loeeK6EupFa0hxO52L_ACVs1DF1REAOdwfNLQzUqHPj3dmqS3Qzv54gohBcfR0fZqHciK8BO2qcA7veKHJ8pKyiSY41yrpy9K5ZRLTBRZ4NUOuI95-8vfjLagEqGDU4HSLURklLQr9BEhrOBQDIv1NaxcLlNOQMXgF9y2uAZ9oyv1sUk34QtxRRB-me5cE5jYmUhfQrRVUug8JW1dA11HWZs4_u7Xcid6GKfyWLMai7Af5MGZBhf4Gougmhq82y8bSJfmgyUCON5aytsucxEWwYuzuWQblNB42WIefFMGIh5fIaL6JEoJVstfd8-C4xyuws3dZN0VCEv6gPrSLgUSMaii1pUBPikbhwYvij-XUGLwjbxh7JWcru8JHHI32G2VTNMVnPp3Fw5hDxfyYhCQWyPGpn2JWbny8vcwi4PlEKu8Fy0NwxMQc8RSy8-YgmSYk0fo0pp5Ul13bHblTIiExiL8QtjySYfsA9FGjXbDwMRC92Mni61eiB7pFANKp_CVLR5DCcKEbXMDVcGF8wjL1JyyamsgzE9OeEhFkL4VXKQVpR6vQSZfIANF5lZtUKDARI1N4psz59jcMc3vGIEc5QMvgutszhNweySyHPri-KoR2l2f48Ao8b6g_zZLleZmUFWwyJnjhFcCrp16bdc30D2MgOsvdJo9gOc9ch4cZ3b4eQcDcwX6jVsDrIGT-kdvKkPYM5kSU3MG7aDhcUNFx-nzuM2uiHT7eyy1swxa_UQK_vfZtlLqigW2TjfurRJh1Ua4TEoLwey9nqjc5Sw3liuxGc2cMchlUxAtUgSgGXQxtejaUtl3xaSrO9yYWeLD4exOOwOPMPa6IGUifH4btX39MTzjbRSzlMscQI84mQZX22JJxMm-7mzQQq8PN6eycKTwh_NINrzPVHdpUpnvl9UFGmkM6iypLU4wGX0-TFgCanzH1r3Nf5ykknP-t21yyhHMC8ZPSQhpin0wsLRl_E4Z1pZQN7k5xn4FwbMK_FZgxQD52zMArpJ-FHiJrz-bL5sEZIUyo-5_kuhXC_qEPp4brk5QsYE6U5ouHyusbNpeBOBV9eUZ_XlhA1KgHHemvHIs5drZul3ck8A8_hICEeo80c07qYm8um6tq9KBGZnG34hFVR6NzIM0WYYSg1HZ0dCDPBDbdvCY3E59GmsGualoOCYaoOIkY2T8hKbTPwhMZnEMXBuS-fl6UiTtd6X-WpwlDyDuwKyREURdY04JqBj7C9tMS1pfXH-ad-6cNh13ThgBtziyrqLoPtwdb4peAHeJDiUg69H3QjY6MB4guEdUpsUTI5qQfAvPpPqw3pdSGil3T_hCiXUWT-33D3PJpau__WP9z6aN9w3cisKgq7OHslFuFGeFbqDBnvE4PBVfgN1ubva9c7gSbFSxD3pe_ZqLDR-csH4lK1bJ-cfyrBwEDaz8IrzoBT9EgSG_Em3V9WDzqZRED9X6aR-mb5jQ7uw8h986-7676JXRdqDUXzCluquNijbBAMMFVfhDEFcucyR-fTZztjCtF_zkPHmKV3NypIDs8TEG5vzEd9BB4SwVr9Jw83U0_yaWb_dgcI_GC0]--></g></svg>