<svg xmlns="http://www.w3.org/2000/svg" xmlns:xlink="http://www.w3.org/1999/xlink" contentStyleType="text/css" height="2420px" preserveAspectRatio="none" style="width:2186px;height:2420px;background:#FFFFFF;" version="1.1" viewBox="0 0 2186 2420" width="2186px" zoomAndPan="magnify"><title>OAuth2 -happy path -aktiviteettidiagrammi swimlaneilla</title><defs/><g><text fill="#000000" font-family="sans-serif" font-size="14" font-weight="bold" lengthAdjust="spacing" textLength="445.792" x="869.0095" y="32.9951">OAuth2 -happy path -aktiviteettidiagrammi swimlaneilla</text><rect fill="none" height="20.9531" style="stroke:none;stroke-width:1.0;" width="2153.811" x="15" y="50.042"/><ellipse cx="186.146" cy="85.9951" fill="#222222" rx="10" ry="10" style="stroke:#222222;stroke-width:1.0;"/><rect fill="#F1F1F1" height="75.875" rx="12.5" ry="12.5" style="stroke:#181818;stroke-width:0.5;" width="167.6094" x="102.3413" y="115.9951"/><text fill="#000000" font-family="sans-serif" font-size="12" lengthAdjust="spacing" textLength="147.6094" x="112.3413" y="137.1338">K&#228;ytt&#228;j&#228; avaa web-sivun</text><text fill="#000000" font-family="sans-serif" font-size="12" lengthAdjust="spacing" textLength="122.666" x="112.3413" y="151.1025">(tai mobiiliappiksen)</text><text fill="#000000" font-family="sans-serif" font-size="12" lengthAdjust="spacing" textLength="107.918" x="112.3413" y="165.0713">ja aloittaa vahvan</text><text fill="#000000" font-family="sans-serif" font-size="12" lengthAdjust="spacing" textLength="105.3457" x="112.3413" y="179.04">tunnistautumisen</text><path d="M20,255.8389 L20,311.2373 A0,0 0 0 0 20,311.2373 L97.9829,311.2373 A0,0 0 0 0 97.9829,311.2373 L97.9829,287.5381 L117.9829,283.5381 L97.9829,279.5381 L97.9829,265.8389 L87.9829,255.8389 L20,255.8389 A0,0 0 0 0 20,255.8389 " fill="#FEFFDD" style="stroke:#181818;stroke-width:0.5;"/><path d="M87.9829,255.8389 L87.9829,265.8389 L97.9829,265.8389 L87.9829,255.8389 " fill="#FEFFDD" style="stroke:#181818;stroke-width:0.5;"/><text fill="#000000" font-family="sans-serif" font-size="13" lengthAdjust="spacing" textLength="56.9829" x="26" y="272.9058">mukana:</text><text fill="#000000" font-family="sans-serif" font-size="13" lengthAdjust="spacing" textLength="29.5737" x="26" y="288.0386">hetu</text><text fill="#000000" font-family="sans-serif" font-size="13" lengthAdjust="spacing" textLength="28.1265" x="26" y="303.1714">nimi</text><rect fill="#F1F1F1" height="33.9688" rx="12.5" ry="12.5" style="stroke:#181818;stroke-width:0.5;" width="136.3262" x="117.9829" y="266.5537"/><text fill="#000000" font-family="sans-serif" font-size="12" lengthAdjust="spacing" textLength="116.3262" x="127.9829" y="287.6924">Pyyd&#228; opintotietoja</text><rect fill="#F1F1F1" height="33.9688" rx="12.5" ry="12.5" style="stroke:#181818;stroke-width:0.5;" width="168.2188" x="102.0366" y="2332.1279"/><text fill="#000000" font-family="sans-serif" font-size="12" lengthAdjust="spacing" textLength="148.2188" x="112.0366" y="2353.2666">Tallenna opiskelijastatus</text><ellipse cx="186.146" cy="2397.0967" fill="none" rx="11" ry="11" style="stroke:#222222;stroke-width:1.0;"/><ellipse cx="186.146" cy="2397.0967" fill="#222222" rx="6" ry="6" style="stroke:#222222;stroke-width:1.0;"/><line style="stroke:#000000;stroke-width:1.5;" x1="15" x2="15" y1="50.042" y2="2408.0967"/><rect fill="#F1F1F1" height="47.9375" rx="12.5" ry="12.5" style="stroke:#181818;stroke-width:0.5;" width="209.0352" x="515.0728" y="331.2373"/><text fill="#000000" font-family="sans-serif" font-size="12" lengthAdjust="spacing" textLength="59.6602" x="525.0728" y="352.376">Luo state,</text><text fill="#000000" font-family="sans-serif" font-size="12" lengthAdjust="spacing" textLength="189.0352" x="525.0728" y="366.3447">code_challenge ja code_verifier</text><rect fill="#F1F1F1" height="33.9688" rx="12.5" ry="12.5" style="stroke:#181818;stroke-width:0.5;" width="209.0176" x="515.0815" y="399.1748"/><text fill="#000000" font-family="sans-serif" font-size="12" lengthAdjust="spacing" textLength="189.0176" x="525.0815" y="420.3135">Tallenna hetu staten yhteyteen</text><path d="M279.2554,443.1436 L279.2554,665.0029 A0,0 0 0 0 279.2554,665.0029 L501.8315,665.0029 A0,0 0 0 0 501.8315,665.0029 L501.8315,558.0732 L521.8315,554.0732 L501.8315,550.0732 L501.8315,453.1436 L491.8315,443.1436 L279.2554,443.1436 A0,0 0 0 0 279.2554,443.1436 " fill="#FEFFDD" style="stroke:#181818;stroke-width:0.5;"/><path d="M491.8315,443.1436 L491.8315,453.1436 L501.8315,453.1436 L491.8315,443.1436 " fill="#FEFFDD" style="stroke:#181818;stroke-width:0.5;"/><text fill="#000000" font-family="sans-serif" font-size="13" lengthAdjust="spacing" textLength="135.6113" x="285.2554" y="460.2104">https://opintopolku.fi</text><text fill="#000000" font-family="sans-serif" font-size="13" lengthAdjust="spacing" textLength="150.4775" x="285.2554" y="475.3433">/koski/omadata-oauth2</text><text fill="#000000" font-family="sans-serif" font-size="13" lengthAdjust="spacing" textLength="124.1602" x="285.2554" y="490.4761">/authorize/PARAMS</text><text fill="#000000" font-family="sans-serif" font-size="13" lengthAdjust="spacing" textLength="4.1323" x="285.2554" y="505.6089">&#160;</text><text fill="#000000" font-family="sans-serif" font-size="13" lengthAdjust="spacing" textLength="58.5063" x="285.2554" y="520.7417">PARAMS:</text><text fill="#000000" font-family="sans-serif" font-size="13" lengthAdjust="spacing" textLength="54.0693" x="285.2554" y="535.8745">client_id</text><text fill="#000000" font-family="sans-serif" font-size="13" lengthAdjust="spacing" textLength="74.4897" x="285.2554" y="551.0073">redirect_uri</text><text fill="#000000" font-family="sans-serif" font-size="13" lengthAdjust="spacing" textLength="32.9316" x="285.2554" y="566.1401">state</text><text fill="#000000" font-family="sans-serif" font-size="13" lengthAdjust="spacing" textLength="38.124" x="285.2554" y="581.2729">scope</text><text fill="#000000" font-family="sans-serif" font-size="13" lengthAdjust="spacing" textLength="137.1157" x="285.2554" y="596.4058">response_type=code</text><text fill="#000000" font-family="sans-serif" font-size="13" lengthAdjust="spacing" textLength="178.7056" x="285.2554" y="611.5386">response_mode=form_post</text><text fill="#000000" font-family="sans-serif" font-size="13" lengthAdjust="spacing" textLength="201.5762" x="285.2554" y="626.6714">code_challenge_method=S256</text><text fill="#000000" font-family="sans-serif" font-size="13" lengthAdjust="spacing" textLength="100.915" x="285.2554" y="641.8042">code_challenge</text><text fill="#000000" font-family="sans-serif" font-size="13" lengthAdjust="spacing" textLength="4.1323" x="285.2554" y="656.937">&#160;</text><rect fill="#F1F1F1" height="61.9063" rx="12.5" ry="12.5" style="stroke:#181818;stroke-width:0.5;" width="195.5176" x="521.8315" y="523.1201"/><text fill="#000000" font-family="sans-serif" font-size="12" lengthAdjust="spacing" textLength="107.5898" x="531.8315" y="544.2588">Muodosta OAuth2</text><text fill="#000000" font-family="sans-serif" font-size="12" lengthAdjust="spacing" textLength="175.5176" x="531.8315" y="558.2275">authorization endpoint URI ja</text><text fill="#000000" font-family="sans-serif" font-size="12" lengthAdjust="spacing" textLength="168.334" x="531.8315" y="572.1963">ohjaa k&#228;ytt&#228;j&#228;n selain sinne</text><rect fill="#F1F1F1" height="33.9688" rx="12.5" ry="12.5" style="stroke:#181818;stroke-width:0.5;" width="146.3223" x="546.4292" y="1157.1826"/><text fill="#000000" font-family="sans-serif" font-size="12" lengthAdjust="spacing" textLength="126.3223" x="556.4292" y="1178.3213">Palauta code_verifier</text><rect fill="#F1F1F1" height="33.9688" rx="12.5" ry="12.5" style="stroke:#181818;stroke-width:0.5;" width="96.0547" x="571.563" y="2088.3154"/><text fill="#000000" font-family="sans-serif" font-size="12" lengthAdjust="spacing" textLength="76.0547" x="581.563" y="2109.4541">Palauta hetu</text><line style="stroke:#000000;stroke-width:1.5;" x1="274.2554" x2="274.2554" y1="50.042" y2="2408.0967"/><rect fill="#F1F1F1" height="47.9375" rx="12.5" ry="12.5" style="stroke:#181818;stroke-width:0.5;" width="161.5566" x="1121.3794" y="1089.2451"/><text fill="#000000" font-family="sans-serif" font-size="12" lengthAdjust="spacing" textLength="141.5566" x="1131.3794" y="1110.3838">Hae statelle tallennettu</text><text fill="#000000" font-family="sans-serif" font-size="12" lengthAdjust="spacing" textLength="77.5664" x="1131.3794" y="1124.3525">code_verifier</text><path d="M774.4927,1201.1514 L774.4927,1513.8076 A0,0 0 0 0 774.4927,1513.8076 L1105.6772,1513.8076 A0,0 0 0 0 1105.6772,1513.8076 L1105.6772,1361.4795 L1125.6772,1357.4795 L1105.6772,1353.4795 L1105.6772,1211.1514 L1095.6772,1201.1514 L774.4927,1201.1514 A0,0 0 0 0 774.4927,1201.1514 " fill="#FEFFDD" style="stroke:#181818;stroke-width:0.5;"/><path d="M1095.6772,1201.1514 L1095.6772,1211.1514 L1105.6772,1211.1514 L1095.6772,1201.1514 " fill="#FEFFDD" style="stroke:#181818;stroke-width:0.5;"/><text fill="#000000" font-family="sans-serif" font-size="13" lengthAdjust="spacing" textLength="112.3408" x="780.4927" y="1218.2183">mutual-TLS POST</text><text fill="#000000" font-family="sans-serif" font-size="13" lengthAdjust="spacing" textLength="310.1846" x="780.4927" y="1233.3511">https://oph-koski-luovutuspalvelu.opintopolku.fi</text><text fill="#000000" font-family="sans-serif" font-size="13" lengthAdjust="spacing" textLength="174.6875" x="780.4927" y="1248.4839">/koski/api/omadata-oauth2</text><text fill="#000000" font-family="sans-serif" font-size="13" lengthAdjust="spacing" textLength="140.7466" x="780.4927" y="1263.6167">/authorization-server/</text><text fill="#000000" font-family="sans-serif" font-size="13" lengthAdjust="spacing" textLength="141.2036" x="788.7573" y="1278.7495">body=CODE_PARAMS</text><text fill="#000000" font-family="sans-serif" font-size="13" lengthAdjust="spacing" textLength="4.1323" x="780.4927" y="1293.8823">&#160;</text><text fill="#000000" font-family="sans-serif" font-size="13" lengthAdjust="spacing" textLength="140.0356" x="780.4927" y="1309.0151">mutual-TLS tarvitsee:</text><text fill="#000000" font-family="sans-serif" font-size="13" lengthAdjust="spacing" textLength="187.2178" x="780.4927" y="1324.1479">(1) Voimassaolevan luotetun</text><text fill="#000000" font-family="sans-serif" font-size="13" lengthAdjust="spacing" textLength="113.2041" x="788.7573" y="1339.2808">CA:n my&#246;nt&#228;m&#228;n</text><text fill="#000000" font-family="sans-serif" font-size="13" lengthAdjust="spacing" textLength="127.8228" x="788.7573" y="1354.4136">asiakasvarmenteen</text><text fill="#000000" font-family="sans-serif" font-size="13" lengthAdjust="spacing" textLength="115.5781" x="788.7573" y="1369.5464">(client certificate)</text><text fill="#000000" font-family="sans-serif" font-size="13" lengthAdjust="spacing" textLength="161.4336" x="780.4927" y="1384.6792">(2) Kiinte&#228;n IP-osoitteen/</text><text fill="#000000" font-family="sans-serif" font-size="13" lengthAdjust="spacing" textLength="74.6294" x="788.7573" y="1399.812">-avaruuden</text><text fill="#000000" font-family="sans-serif" font-size="13" lengthAdjust="spacing" textLength="4.1323" x="780.4927" y="1414.9448">&#160;</text><text fill="#000000" font-family="sans-serif" font-size="13" lengthAdjust="spacing" textLength="102.54" x="780.4927" y="1430.0776">CODE_PARAMS:</text><text fill="#000000" font-family="sans-serif" font-size="13" lengthAdjust="spacing" textLength="205.3276" x="780.4927" y="1445.2104">grant_type=authorization_code</text><text fill="#000000" font-family="sans-serif" font-size="13" lengthAdjust="spacing" textLength="31.3511" x="780.4927" y="1460.3433">code</text><text fill="#000000" font-family="sans-serif" font-size="13" lengthAdjust="spacing" textLength="84.0303" x="780.4927" y="1475.4761">code_verifier</text><text fill="#000000" font-family="sans-serif" font-size="13" lengthAdjust="spacing" textLength="74.4897" x="780.4927" y="1490.6089">redirect_uri</text><text fill="#000000" font-family="sans-serif" font-size="13" lengthAdjust="spacing" textLength="54.0693" x="780.4927" y="1505.7417">client_id</text><rect fill="#F1F1F1" height="47.9375" rx="12.5" ry="12.5" style="stroke:#181818;stroke-width:0.5;" width="152.9609" x="1125.6772" y="1333.5107"/><text fill="#000000" font-family="sans-serif" font-size="12" lengthAdjust="spacing" textLength="132.9609" x="1135.6772" y="1354.6494">Pyyd&#228; access tokenia,</text><text fill="#000000" font-family="sans-serif" font-size="12" lengthAdjust="spacing" textLength="129.9375" x="1135.6772" y="1368.6182">mukana code_verifier</text><path d="M733.1079,1699.6826 L733.1079,1906.4092 A0,0 0 0 0 733.1079,1906.4092 L1064.2925,1906.4092 A0,0 0 0 0 1064.2925,1906.4092 L1064.2925,1807.0459 L1084.2925,1803.0459 L1064.2925,1799.0459 L1064.2925,1709.6826 L1054.2925,1699.6826 L733.1079,1699.6826 A0,0 0 0 0 733.1079,1699.6826 " fill="#FEFFDD" style="stroke:#181818;stroke-width:0.5;"/><path d="M1054.2925,1699.6826 L1054.2925,1709.6826 L1064.2925,1709.6826 L1054.2925,1699.6826 " fill="#FEFFDD" style="stroke:#181818;stroke-width:0.5;"/><text fill="#000000" font-family="sans-serif" font-size="13" lengthAdjust="spacing" textLength="112.3408" x="739.1079" y="1716.7495">mutual-TLS POST</text><text fill="#000000" font-family="sans-serif" font-size="13" lengthAdjust="spacing" textLength="310.1846" x="739.1079" y="1731.8823">https://oph-koski-luovutuspalvelu.opintopolku.fi</text><text fill="#000000" font-family="sans-serif" font-size="13" lengthAdjust="spacing" textLength="281.709" x="739.1079" y="1747.0151">/koski/api/omadata-oauth2/resource-server</text><text fill="#000000" font-family="sans-serif" font-size="13" lengthAdjust="spacing" textLength="190.3027" x="747.3726" y="1762.1479">Authorization=Bearer TOKEN</text><text fill="#000000" font-family="sans-serif" font-size="13" lengthAdjust="spacing" textLength="4.1323" x="739.1079" y="1777.2808">&#160;</text><text fill="#000000" font-family="sans-serif" font-size="13" lengthAdjust="spacing" textLength="140.0356" x="739.1079" y="1792.4136">mutual-TLS tarvitsee:</text><text fill="#000000" font-family="sans-serif" font-size="13" lengthAdjust="spacing" textLength="187.2178" x="743.2402" y="1807.5464">(1) Voimassaolevan luotetun</text><text fill="#000000" font-family="sans-serif" font-size="13" lengthAdjust="spacing" textLength="113.2041" x="751.5049" y="1822.6792">CA:n my&#246;nt&#228;m&#228;n</text><text fill="#000000" font-family="sans-serif" font-size="13" lengthAdjust="spacing" textLength="127.8228" x="751.5049" y="1837.812">asiakasvarmenteen</text><text fill="#000000" font-family="sans-serif" font-size="13" lengthAdjust="spacing" textLength="115.5781" x="751.5049" y="1852.9448">(client certificate)</text><text fill="#000000" font-family="sans-serif" font-size="13" lengthAdjust="spacing" textLength="161.4336" x="743.2402" y="1868.0776">(2) Kiinte&#228;n IP-osoitteen/</text><text fill="#000000" font-family="sans-serif" font-size="13" lengthAdjust="spacing" textLength="74.6294" x="751.5049" y="1883.2104">-avaruuden</text><text fill="#000000" font-family="sans-serif" font-size="13" lengthAdjust="spacing" textLength="4.1323" x="739.1079" y="1898.3433">&#160;</text><rect fill="#F1F1F1" height="33.9688" rx="12.5" ry="12.5" style="stroke:#181818;stroke-width:0.5;" width="235.7305" x="1084.2925" y="1786.0615"/><text fill="#000000" font-family="sans-serif" font-size="12" lengthAdjust="spacing" textLength="215.7305" x="1094.2925" y="1807.2002">Pyyd&#228; opintotietoja access tokenilla</text><rect fill="#F1F1F1" height="33.9688" rx="12.5" ry="12.5" style="stroke:#181818;stroke-width:0.5;" width="192.6699" x="1105.8228" y="2034.3467"/><text fill="#000000" font-family="sans-serif" font-size="12" lengthAdjust="spacing" textLength="172.6699" x="1115.8228" y="2055.4854">Hae statelle tallennettu hetu</text><rect fill="#F1F1F1" height="47.9375" rx="12.5" ry="12.5" style="stroke:#181818;stroke-width:0.5;" width="176.832" x="1113.7417" y="2142.2842"/><text fill="#000000" font-family="sans-serif" font-size="12" lengthAdjust="spacing" textLength="156.832" x="1123.7417" y="2163.4229">Tarkista, ett&#228; opintotiedot</text><text fill="#000000" font-family="sans-serif" font-size="12" lengthAdjust="spacing" textLength="97.7461" x="1123.7417" y="2177.3916">vastaavat hetua</text><rect fill="#F1F1F1" height="47.9375" rx="12.5" ry="12.5" style="stroke:#181818;stroke-width:0.5;" width="226.1914" x="1089.062" y="2210.2217"/><text fill="#000000" font-family="sans-serif" font-size="12" lengthAdjust="spacing" textLength="146.373" x="1099.062" y="2231.3604">P&#228;&#228;ttele opiskelijastatus</text><text fill="#000000" font-family="sans-serif" font-size="12" lengthAdjust="spacing" textLength="206.1914" x="1099.062" y="2245.3291">opintotiedoista ("s&#228;&#228;nt&#246;moottori")</text><rect fill="#F1F1F1" height="33.9688" rx="12.5" ry="12.5" style="stroke:#181818;stroke-width:0.5;" width="158.0059" x="1123.1548" y="2278.1592"/><text fill="#000000" font-family="sans-serif" font-size="12" lengthAdjust="spacing" textLength="138.0059" x="1133.1548" y="2299.2979">L&#228;het&#228; opiskelijastatus</text><line style="stroke:#000000;stroke-width:1.5;" x1="728.1079" x2="728.1079" y1="50.042" y2="2408.0967"/><rect fill="#F1F1F1" height="33.9688" rx="12.5" ry="12.5" style="stroke:#181818;stroke-width:0.5;" width="205.1211" x="1689.7158" y="685.0029"/><text fill="#000000" font-family="sans-serif" font-size="12" lengthAdjust="spacing" textLength="185.1211" x="1699.7158" y="706.1416">Aloita vahva tunnistautuminen</text><rect fill="#F1F1F1" height="61.9063" rx="12.5" ry="12.5" style="stroke:#181818;stroke-width:0.5;" width="243.7402" x="1670.4063" y="820.8779"/><text fill="#000000" font-family="sans-serif" font-size="12" lengthAdjust="spacing" textLength="195.498" x="1680.4063" y="842.0166">Vastaanota ja tallenna k&#228;ytt&#228;j&#228;n</text><text fill="#000000" font-family="sans-serif" font-size="12" lengthAdjust="spacing" textLength="211.4297" x="1680.4063" y="855.9854">antama suostumus ja siihen liitetty</text><text fill="#000000" font-family="sans-serif" font-size="12" lengthAdjust="spacing" textLength="223.7402" x="1680.4063" y="869.9541">authorization code ja code_challenge</text><path d="M1329.0229,892.7842 L1329.0229,1069.2451 A0,0 0 0 0 1329.0229,1069.2451 L1634.8232,1069.2451 A0,0 0 0 0 1634.8232,1069.2451 L1634.8232,985.0146 L1654.8232,981.0146 L1634.8232,977.0146 L1634.8232,902.7842 L1624.8232,892.7842 L1329.0229,892.7842 A0,0 0 0 0 1329.0229,892.7842 " fill="#FEFFDD" style="stroke:#181818;stroke-width:0.5;"/><path d="M1624.8232,892.7842 L1624.8232,902.7842 L1634.8232,902.7842 L1624.8232,892.7842 " fill="#FEFFDD" style="stroke:#181818;stroke-width:0.5;"/><text fill="#000000" font-family="sans-serif" font-size="13" lengthAdjust="spacing" textLength="112.8867" x="1335.0229" y="909.8511">POST redirect_uri</text><text fill="#000000" font-family="sans-serif" font-size="13" lengthAdjust="spacing" textLength="156.8379" x="1335.0229" y="924.9839">body=CODE_RESPONSE</text><text fill="#000000" font-family="sans-serif" font-size="13" lengthAdjust="spacing" textLength="4.1323" x="1335.0229" y="940.1167">&#160;</text><text fill="#000000" font-family="sans-serif" font-size="13" lengthAdjust="spacing" textLength="118.1743" x="1335.0229" y="955.2495">CODE_RESPONSE:</text><text fill="#000000" font-family="sans-serif" font-size="13" lengthAdjust="spacing" textLength="32.9316" x="1335.0229" y="970.3823">state</text><text fill="#000000" font-family="sans-serif" font-size="13" lengthAdjust="spacing" textLength="31.3511" x="1335.0229" y="985.5151">code</text><text fill="#000000" font-family="sans-serif" font-size="13" lengthAdjust="spacing" textLength="276.5356" x="1343.2876" y="1000.6479">Virhetilanteissa code:n sijasta voi sis&#228;lt&#228;&#228;:</text><text fill="#000000" font-family="sans-serif" font-size="13" lengthAdjust="spacing" textLength="31.9858" x="1335.0229" y="1015.7808">error</text><text fill="#000000" font-family="sans-serif" font-size="13" lengthAdjust="spacing" textLength="110.7666" x="1335.0229" y="1030.9136">error_description</text><text fill="#000000" font-family="sans-serif" font-size="13" lengthAdjust="spacing" textLength="55.6816" x="1335.0229" y="1046.0464">error_uri</text><text fill="#000000" font-family="sans-serif" font-size="13" lengthAdjust="spacing" textLength="4.1323" x="1335.0229" y="1061.1792">&#160;</text><rect fill="#F1F1F1" height="33.9688" rx="12.5" ry="12.5" style="stroke:#181818;stroke-width:0.5;" width="274.9063" x="1654.8232" y="964.0303"/><text fill="#000000" font-family="sans-serif" font-size="12" lengthAdjust="spacing" textLength="254.9063" x="1664.8232" y="985.1689">L&#228;het&#228; OAuth2 authorization code ja state</text><rect fill="#F1F1F1" height="33.9688" rx="12.5" ry="12.5" style="stroke:#181818;stroke-width:0.5;" width="203.0352" x="1690.7588" y="1533.8076"/><text fill="#000000" font-family="sans-serif" font-size="12" lengthAdjust="spacing" textLength="183.0352" x="1700.7588" y="1554.9463">Tarkista varmenne ja ip-osoite</text><rect fill="#F1F1F1" height="47.9375" rx="12.5" ry="12.5" style="stroke:#181818;stroke-width:0.5;" width="247.0742" x="1668.7393" y="1587.7764"/><text fill="#000000" font-family="sans-serif" font-size="12" lengthAdjust="spacing" textLength="227.0742" x="1678.7393" y="1608.915">Tarkista code_challenge-code_verifier</text><text fill="#000000" font-family="sans-serif" font-size="12" lengthAdjust="spacing" textLength="68.6836" x="1678.7393" y="1622.8838">vastaavuus</text><rect fill="#F1F1F1" height="33.9688" rx="12.5" ry="12.5" style="stroke:#181818;stroke-width:0.5;" width="255.7754" x="1664.3887" y="1655.7139"/><text fill="#000000" font-family="sans-serif" font-size="12" lengthAdjust="spacing" textLength="235.7754" x="1674.3887" y="1676.8525">Luo, tallenna ja vastaa access tokenilla</text><rect fill="#F1F1F1" height="33.9688" rx="12.5" ry="12.5" style="stroke:#181818;stroke-width:0.5;" width="203.0352" x="1690.7588" y="1926.4092"/><text fill="#000000" font-family="sans-serif" font-size="12" lengthAdjust="spacing" textLength="183.0352" x="1700.7588" y="1947.5479">Tarkista varmenne ja ip-osoite</text><rect fill="#F1F1F1" height="33.9688" rx="12.5" ry="12.5" style="stroke:#181818;stroke-width:0.5;" width="150.7227" x="1716.915" y="1980.3779"/><text fill="#000000" font-family="sans-serif" font-size="12" lengthAdjust="spacing" textLength="130.7227" x="1726.915" y="2001.5166">Vastaa opintotiedoilla</text><line style="stroke:#000000;stroke-width:1.5;" x1="1324.0229" x2="1324.0229" y1="50.042" y2="2408.0967"/><rect fill="#F1F1F1" height="33.9688" rx="12.5" ry="12.5" style="stroke:#181818;stroke-width:0.5;" width="94.6191" x="2004.0303" y="211.8701"/><text fill="#000000" font-family="sans-serif" font-size="12" lengthAdjust="spacing" textLength="74.6191" x="2014.0303" y="233.0088">Tunnistaudu</text><rect fill="#F1F1F1" height="61.9063" rx="12.5" ry="12.5" style="stroke:#181818;stroke-width:0.5;" width="223.2207" x="1939.7295" y="738.9717"/><text fill="#000000" font-family="sans-serif" font-size="12" lengthAdjust="spacing" textLength="170.3438" x="1949.7295" y="760.1104">L&#228;het&#228; tunnistautumistiedot</text><text fill="#000000" font-family="sans-serif" font-size="12" lengthAdjust="spacing" textLength="203.2207" x="1949.7295" y="774.0791">(jos k&#228;ytt&#228;j&#228; oli jo tunnistautunut,</text><text fill="#000000" font-family="sans-serif" font-size="12" lengthAdjust="spacing" textLength="177.4512" x="1949.7295" y="788.0479">jos ei, niin tunnistaudu ensin)</text><line style="stroke:#000000;stroke-width:1.5;" x1="1933.7295" x2="1933.7295" y1="50.042" y2="2408.0967"/><line style="stroke:#000000;stroke-width:1.5;" x1="2166.9502" x2="2166.9502" y1="50.042" y2="2408.0967"/><line style="stroke:#181818;stroke-width:1.0;" x1="186.146" x2="186.146" y1="95.9951" y2="115.9951"/><polygon fill="#181818" points="182.146,105.9951,186.146,115.9951,190.146,105.9951,186.146,109.9951" style="stroke:#181818;stroke-width:1.0;"/><line style="stroke:#181818;stroke-width:1.0;" x1="186.146" x2="186.146" y1="2366.0967" y2="2386.0967"/><polygon fill="#181818" points="182.146,2376.0967,186.146,2386.0967,190.146,2376.0967,186.146,2380.0967" style="stroke:#181818;stroke-width:1.0;"/><line style="stroke:#181818;stroke-width:1.0;" x1="619.5903" x2="619.5903" y1="379.1748" y2="399.1748"/><polygon fill="#181818" points="615.5903,389.1748,619.5903,399.1748,623.5903,389.1748,619.5903,393.1748" style="stroke:#181818;stroke-width:1.0;"/><line style="stroke:#181818;stroke-width:1.0;" x1="619.5903" x2="619.5903" y1="433.1436" y2="523.1201"/><polygon fill="#181818" points="615.5903,513.1201,619.5903,523.1201,623.5903,513.1201,619.5903,517.1201" style="stroke:#181818;stroke-width:1.0;"/><line style="stroke:#181818;stroke-width:1.0;" x1="1202.1577" x2="1202.1577" y1="2190.2217" y2="2210.2217"/><polygon fill="#181818" points="1198.1577,2200.2217,1202.1577,2210.2217,1206.1577,2200.2217,1202.1577,2204.2217" style="stroke:#181818;stroke-width:1.0;"/><line style="stroke:#181818;stroke-width:1.0;" x1="1202.1577" x2="1202.1577" y1="2258.1592" y2="2278.1592"/><polygon fill="#181818" points="1198.1577,2268.1592,1202.1577,2278.1592,1206.1577,2268.1592,1202.1577,2272.1592" style="stroke:#181818;stroke-width:1.0;"/><line style="stroke:#181818;stroke-width:1.0;" x1="1792.2764" x2="1792.2764" y1="882.7842" y2="964.0303"/><polygon fill="#181818" points="1788.2764,954.0303,1792.2764,964.0303,1796.2764,954.0303,1792.2764,958.0303" style="stroke:#181818;stroke-width:1.0;"/><line style="stroke:#181818;stroke-width:1.0;" x1="1792.2764" x2="1792.2764" y1="1567.7764" y2="1587.7764"/><polygon fill="#181818" points="1788.2764,1577.7764,1792.2764,1587.7764,1796.2764,1577.7764,1792.2764,1581.7764" style="stroke:#181818;stroke-width:1.0;"/><line style="stroke:#181818;stroke-width:1.0;" x1="1792.2764" x2="1792.2764" y1="1635.7139" y2="1655.7139"/><polygon fill="#181818" points="1788.2764,1645.7139,1792.2764,1655.7139,1796.2764,1645.7139,1792.2764,1649.7139" style="stroke:#181818;stroke-width:1.0;"/><line style="stroke:#181818;stroke-width:1.0;" x1="1792.2764" x2="1792.2764" y1="1960.3779" y2="1980.3779"/><polygon fill="#181818" points="1788.2764,1970.3779,1792.2764,1980.3779,1796.2764,1970.3779,1792.2764,1974.3779" style="stroke:#181818;stroke-width:1.0;"/><line style="stroke:#181818;stroke-width:1.0;" x1="186.146" x2="186.146" y1="191.8701" y2="196.8701"/><line style="stroke:#181818;stroke-width:1.0;" x1="186.146" x2="2051.3398" y1="196.8701" y2="196.8701"/><line style="stroke:#181818;stroke-width:1.0;" x1="2051.3398" x2="2051.3398" y1="196.8701" y2="211.8701"/><polygon fill="#181818" points="2047.3398,201.8701,2051.3398,211.8701,2055.3398,201.8701,2051.3398,205.8701" style="stroke:#181818;stroke-width:1.0;"/><line style="stroke:#181818;stroke-width:1.0;" x1="2051.3398" x2="2051.3398" y1="245.8389" y2="250.8389"/><line style="stroke:#181818;stroke-width:1.0;" x1="2051.3398" x2="186.146" y1="250.8389" y2="250.8389"/><line style="stroke:#181818;stroke-width:1.0;" x1="186.146" x2="186.146" y1="250.8389" y2="266.5537"/><polygon fill="#181818" points="182.146,256.5537,186.146,266.5537,190.146,256.5537,186.146,260.5537" style="stroke:#181818;stroke-width:1.0;"/><line style="stroke:#181818;stroke-width:1.0;" x1="186.146" x2="186.146" y1="300.5225" y2="316.2373"/><line style="stroke:#181818;stroke-width:1.0;" x1="186.146" x2="619.5903" y1="316.2373" y2="316.2373"/><line style="stroke:#181818;stroke-width:1.0;" x1="619.5903" x2="619.5903" y1="316.2373" y2="331.2373"/><polygon fill="#181818" points="615.5903,321.2373,619.5903,331.2373,623.5903,321.2373,619.5903,325.2373" style="stroke:#181818;stroke-width:1.0;"/><line style="stroke:#181818;stroke-width:1.0;" x1="619.5903" x2="619.5903" y1="585.0264" y2="642.5146"/><line style="stroke:#181818;stroke-width:1.0;" x1="619.5903" x2="1792.2764" y1="642.5146" y2="642.5146"/><line style="stroke:#181818;stroke-width:1.0;" x1="1792.2764" x2="1792.2764" y1="642.5146" y2="685.0029"/><polygon fill="#181818" points="1788.2764,675.0029,1792.2764,685.0029,1796.2764,675.0029,1792.2764,679.0029" style="stroke:#181818;stroke-width:1.0;"/><line style="stroke:#181818;stroke-width:1.0;" x1="1792.2764" x2="1792.2764" y1="718.9717" y2="723.9717"/><line style="stroke:#181818;stroke-width:1.0;" x1="1792.2764" x2="2051.3398" y1="723.9717" y2="723.9717"/><line style="stroke:#181818;stroke-width:1.0;" x1="2051.3398" x2="2051.3398" y1="723.9717" y2="738.9717"/><polygon fill="#181818" points="2047.3398,728.9717,2051.3398,738.9717,2055.3398,728.9717,2051.3398,732.9717" style="stroke:#181818;stroke-width:1.0;"/><line style="stroke:#181818;stroke-width:1.0;" x1="2051.3398" x2="2051.3398" y1="800.8779" y2="805.8779"/><line style="stroke:#181818;stroke-width:1.0;" x1="2051.3398" x2="1792.2764" y1="805.8779" y2="805.8779"/><line style="stroke:#181818;stroke-width:1.0;" x1="1792.2764" x2="1792.2764" y1="805.8779" y2="820.8779"/><polygon fill="#181818" points="1788.2764,810.8779,1792.2764,820.8779,1796.2764,810.8779,1792.2764,814.8779" style="stroke:#181818;stroke-width:1.0;"/><line style="stroke:#181818;stroke-width:1.0;" x1="1792.2764" x2="1792.2764" y1="997.999" y2="1051.1221"/><line style="stroke:#181818;stroke-width:1.0;" x1="1792.2764" x2="1202.1577" y1="1051.1221" y2="1051.1221"/><line style="stroke:#181818;stroke-width:1.0;" x1="1202.1577" x2="1202.1577" y1="1051.1221" y2="1089.2451"/><polygon fill="#181818" points="1198.1577,1079.2451,1202.1577,1089.2451,1206.1577,1079.2451,1202.1577,1083.2451" style="stroke:#181818;stroke-width:1.0;"/><line style="stroke:#181818;stroke-width:1.0;" x1="1202.1577" x2="1202.1577" y1="1137.1826" y2="1142.1826"/><line style="stroke:#181818;stroke-width:1.0;" x1="1202.1577" x2="619.5903" y1="1142.1826" y2="1142.1826"/><line style="stroke:#181818;stroke-width:1.0;" x1="619.5903" x2="619.5903" y1="1142.1826" y2="1157.1826"/><polygon fill="#181818" points="615.5903,1147.1826,619.5903,1157.1826,623.5903,1147.1826,619.5903,1151.1826" style="stroke:#181818;stroke-width:1.0;"/><line style="stroke:#181818;stroke-width:1.0;" x1="619.5903" x2="619.5903" y1="1191.1514" y2="1249.8311"/><line style="stroke:#181818;stroke-width:1.0;" x1="619.5903" x2="1202.1577" y1="1249.8311" y2="1249.8311"/><line style="stroke:#181818;stroke-width:1.0;" x1="1202.1577" x2="1202.1577" y1="1249.8311" y2="1333.5107"/><polygon fill="#181818" points="1198.1577,1323.5107,1202.1577,1333.5107,1206.1577,1323.5107,1202.1577,1327.5107" style="stroke:#181818;stroke-width:1.0;"/><line style="stroke:#181818;stroke-width:1.0;" x1="1202.1577" x2="1202.1577" y1="1381.4482" y2="1465.1279"/><line style="stroke:#181818;stroke-width:1.0;" x1="1202.1577" x2="1792.2764" y1="1465.1279" y2="1465.1279"/><line style="stroke:#181818;stroke-width:1.0;" x1="1792.2764" x2="1792.2764" y1="1465.1279" y2="1533.8076"/><polygon fill="#181818" points="1788.2764,1523.8076,1792.2764,1533.8076,1796.2764,1523.8076,1792.2764,1527.8076" style="stroke:#181818;stroke-width:1.0;"/><line style="stroke:#181818;stroke-width:1.0;" x1="1792.2764" x2="1792.2764" y1="1689.6826" y2="1725.3721"/><line style="stroke:#181818;stroke-width:1.0;" x1="1792.2764" x2="1202.1577" y1="1725.3721" y2="1725.3721"/><line style="stroke:#181818;stroke-width:1.0;" x1="1202.1577" x2="1202.1577" y1="1725.3721" y2="1786.0615"/><polygon fill="#181818" points="1198.1577,1776.0615,1202.1577,1786.0615,1206.1577,1776.0615,1202.1577,1780.0615" style="stroke:#181818;stroke-width:1.0;"/><line style="stroke:#181818;stroke-width:1.0;" x1="1202.1577" x2="1202.1577" y1="1820.0303" y2="1880.7197"/><line style="stroke:#181818;stroke-width:1.0;" x1="1202.1577" x2="1792.2764" y1="1880.7197" y2="1880.7197"/><line style="stroke:#181818;stroke-width:1.0;" x1="1792.2764" x2="1792.2764" y1="1880.7197" y2="1926.4092"/><polygon fill="#181818" points="1788.2764,1916.4092,1792.2764,1926.4092,1796.2764,1916.4092,1792.2764,1920.4092" style="stroke:#181818;stroke-width:1.0;"/><line style="stroke:#181818;stroke-width:1.0;" x1="1792.2764" x2="1792.2764" y1="2014.3467" y2="2019.3467"/><line style="stroke:#181818;stroke-width:1.0;" x1="1792.2764" x2="1202.1577" y1="2019.3467" y2="2019.3467"/><line style="stroke:#181818;stroke-width:1.0;" x1="1202.1577" x2="1202.1577" y1="2019.3467" y2="2034.3467"/><polygon fill="#181818" points="1198.1577,2024.3467,1202.1577,2034.3467,1206.1577,2024.3467,1202.1577,2028.3467" style="stroke:#181818;stroke-width:1.0;"/><line style="stroke:#181818;stroke-width:1.0;" x1="1202.1577" x2="1202.1577" y1="2068.3154" y2="2073.3154"/><line style="stroke:#181818;stroke-width:1.0;" x1="1202.1577" x2="619.5903" y1="2073.3154" y2="2073.3154"/><line style="stroke:#181818;stroke-width:1.0;" x1="619.5903" x2="619.5903" y1="2073.3154" y2="2088.3154"/><polygon fill="#181818" points="615.5903,2078.3154,619.5903,2088.3154,623.5903,2078.3154,619.5903,2082.3154" style="stroke:#181818;stroke-width:1.0;"/><line style="stroke:#181818;stroke-width:1.0;" x1="619.5903" x2="619.5903" y1="2122.2842" y2="2127.2842"/><line style="stroke:#181818;stroke-width:1.0;" x1="619.5903" x2="1202.1577" y1="2127.2842" y2="2127.2842"/><line style="stroke:#181818;stroke-width:1.0;" x1="1202.1577" x2="1202.1577" y1="2127.2842" y2="2142.2842"/><polygon fill="#181818" points="1198.1577,2132.2842,1202.1577,2142.2842,1206.1577,2132.2842,1202.1577,2136.2842" style="stroke:#181818;stroke-width:1.0;"/><line style="stroke:#181818;stroke-width:1.0;" x1="1202.1577" x2="1202.1577" y1="2312.1279" y2="2317.1279"/><line style="stroke:#181818;stroke-width:1.0;" x1="1202.1577" x2="186.146" y1="2317.1279" y2="2317.1279"/><line style="stroke:#181818;stroke-width:1.0;" x1="186.146" x2="186.146" y1="2317.1279" y2="2332.1279"/><polygon fill="#181818" points="182.146,2322.1279,186.146,2332.1279,190.146,2322.1279,186.146,2326.1279" style="stroke:#181818;stroke-width:1.0;"/><text fill="#000000" font-family="sans-serif" font-size="18" lengthAdjust="spacing" textLength="174.8936" x="57.1809" y="66.75">Hy&#246;dynt&#228;j&#228;-palvelu</text><text fill="#000000" font-family="sans-serif" font-size="18" lengthAdjust="spacing" textLength="345.0322" x="328.6655" y="66.75">Hy&#246;dynt&#228;j&#228;n KOSKI-integraatiopalvelu</text><text fill="#000000" font-family="sans-serif" font-size="18" lengthAdjust="spacing" textLength="362.2061" x="844.9624" y="66.75">Hy&#246;dynt&#228;j&#228;n KOSKI-integraatiopalvelu 2</text><text fill="#000000" font-family="sans-serif" font-size="18" lengthAdjust="spacing" textLength="98.7891" x="1579.4817" y="66.75">OPH KOSKI</text><text fill="#000000" font-family="sans-serif" font-size="18" lengthAdjust="spacing" textLength="73.4414" x="2013.6191" y="66.75">Suomi.fi</text><!--SRC=[lLR1Rk984BttLxJc118Uj95s3qOviBEH4YKpe93D5LLmPLnWTrlkQezOvNFuXla1VcogRGWsGoAHmrv0T5TtlthrwXLCdA6UZ3sd5pfAeIZMkW1ETGGhfeeOaPaIWkybv3bfzuFo30nIbe5wkLvlVoPhmzlDShk92iWgpFpBqRhHjvFPxKr4Xb5k0IPxTgI-aDZ9zBe9U7dpPSTGiefljvirDtiQAW3z0vyYHvKtgiT0EhTFH1b9jhHoQFfg2HeoIymIMq5QWL7iZI6vpxFFIO96wcNcRKwVd-b5nG_xtSIFtaGJJzVhH23OGZAoJCXs2IDbBAFEy9bLxbTW85OfibU6Sb9e4Xtsp-0mllDM2nJ6WLhO1EUB5B8CpNVKabQzKc59puJbI83NUmPqUBCvPlGwPLnBgIN9-AktYPNrdIYK493QaluBRnej-0ehAFI_zpTolRBfKYXR7VWssc4695za3BQJJPaB5m-73Hk5pLPUk5J3bNKh6jeS4c28BDIl3lVFud0wlXz_dIdLVCTgaH4QdbEYIaoen0NFVKcgJaMvXIrGDbnXZSCvhmky31GSbdBvTVbiotnUI9f7ZCrpb6UJozd5dtyTRQbMRLfAZCT1DplLw8vepB5exhOROLq4qTMM22Enh7fBwzfCQfkHNjfsiF4yK24CQQ0D2SjyqA7KHZZlZxhm7a5sGM13K0Flgz-kc0B3a8DsNWZnkNSXqX6beeoCn0AOrqSo2DIygkkLeb4hnPsbd3vMrwgjZUbazg0xvNoooVhoo-IVg_dzrMmw-JQxKghpCzvLlAwkrezKoiCatiH8pZNGuY33PM10LrRCYznsamcwxIPMM9QsR3xd2Rf5IKN0k5i94Cvlnc1JyJLWaw2GiYTSAFJgg1NFwF0fP4BaRyry5goT5y5YWSvfjYiq18ET1HtVtBOezf153tSp7OhKwk8qgZitohoj9CZj7ljykh-XUBl7Qt543ai1C9HQ7cg_x_qM2d5u6KiECLQzF_hwqL8EKc-ReRYs5Z2YL_5vhR-CfVovC1JuoOFEjGP7i09NGPcBXuZXoLglCHIzm98b_OLKhgzw5trzIu7AGEpDDB8kZ0Sv4G16CbHAxnCvhreuOoMyYpNLhjD9RbwhzFNZbUckXHsSxRJLF42vebhCDNvJzn8L3JOSjGAwVHbrtwngIwYyTwDwU0mEjh0CTuVThavas7zCRPt9T-BE_qDdGx5-wyi5xXGczHktQtFvDqA9fNwOt5vzUqjg-dsjdHJRIRMTbfj-NsyTmNrG6yqWE5GaiHyewrlULl-R-92bdNUm1h5FTQ0nZB1sIhmNDt1zi-GNJuFV2vM2M2BT2hDc98YKL9kDG5xlamlHWkDdRYspYEHJlptMZczuvy_Vwp-jtyyuqQtw1G00]--></g></svg>