<svg xmlns="http://www.w3.org/2000/svg" xmlns:xlink="http://www.w3.org/1999/xlink" contentStyleType="text/css" height="2837px" preserveAspectRatio="none" style="width:1749px;height:2837px;background:#FFFFFF;" version="1.1" viewBox="0 0 1749 2837" width="1749px" zoomAndPan="magnify"><title>OAuth2 -happy path -aktiviteettidiagrammi swimlaneilla</title><defs/><g><text fill="#000000" font-family="sans-serif" font-size="14" font-weight="bold" lengthAdjust="spacing" textLength="445.792" x="650.3196" y="32.9951">OAuth2 -happy path -aktiviteettidiagrammi swimlaneilla</text><rect fill="none" height="20.9531" style="stroke:none;stroke-width:1.0;" width="1716.4312" x="15" y="50.042"/><ellipse cx="219.0894" cy="85.9951" fill="#222222" rx="10" ry="10" style="stroke:#222222;stroke-width:1.0;"/><rect fill="#F1F1F1" height="75.875" rx="12.5" ry="12.5" style="stroke:#181818;stroke-width:0.5;" width="173.1523" x="132.5132" y="115.9951"/><text fill="#000000" font-family="sans-serif" font-size="12" lengthAdjust="spacing" textLength="153.1523" x="142.5132" y="137.1338">K&#228;ytt&#228;j&#228; avaa selaimessa</text><text fill="#000000" font-family="sans-serif" font-size="12" lengthAdjust="spacing" textLength="61.043" x="142.5132" y="151.1025">web-sivun</text><text fill="#000000" font-family="sans-serif" font-size="12" lengthAdjust="spacing" textLength="107.918" x="142.5132" y="165.0713">ja aloittaa vahvan</text><text fill="#000000" font-family="sans-serif" font-size="12" lengthAdjust="spacing" textLength="105.3457" x="142.5132" y="179.04">tunnistautumisen</text><rect fill="#F1F1F1" height="61.9063" rx="12.5" ry="12.5" style="stroke:#181818;stroke-width:0.5;" width="152.2754" x="142.9517" y="265.8389"/><text fill="#000000" font-family="sans-serif" font-size="12" lengthAdjust="spacing" textLength="90.3516" x="152.9517" y="286.9775">K&#228;ytt&#228;j&#228; siirtyy</text><text fill="#000000" font-family="sans-serif" font-size="12" lengthAdjust="spacing" textLength="66.5859" x="152.9517" y="300.9463">selaimessa</text><text fill="#000000" font-family="sans-serif" font-size="12" lengthAdjust="spacing" textLength="132.2754" x="152.9517" y="314.915">opintotietojen hakuun</text><path d="M20,569.3623 L20,609.6279 A0,0 0 0 0 20,609.6279 L125.3921,609.6279 A0,0 0 0 0 125.3921,609.6279 L125.3921,593.4951 L145.3921,589.4951 L125.3921,585.4951 L125.3921,579.3623 L115.3921,569.3623 L20,569.3623 A0,0 0 0 0 20,569.3623 " fill="#FEFFDD" style="stroke:#181818;stroke-width:0.5;"/><path d="M115.3921,569.3623 L115.3921,579.3623 L125.3921,579.3623 L115.3921,569.3623 " fill="#FEFFDD" style="stroke:#181818;stroke-width:0.5;"/><text fill="#000000" font-family="sans-serif" font-size="13" lengthAdjust="spacing" textLength="84.3921" x="26" y="586.4292">hetun v&#228;litys</text><text fill="#000000" font-family="sans-serif" font-size="13" lengthAdjust="spacing" textLength="67.3677" x="26" y="601.562">esim. n&#228;in</text><rect fill="#F1F1F1" height="47.9375" rx="12.5" ry="12.5" style="stroke:#181818;stroke-width:0.5;" width="147.3945" x="145.3921" y="565.5264"/><text fill="#000000" font-family="sans-serif" font-size="12" lengthAdjust="spacing" textLength="55.7813" x="155.3921" y="586.665">Backend:</text><text fill="#000000" font-family="sans-serif" font-size="12" lengthAdjust="spacing" textLength="127.3945" x="155.3921" y="600.6338">Palauta henkil&#246;tiedot</text><rect fill="#F1F1F1" height="61.9063" rx="12.5" ry="12.5" style="stroke:#181818;stroke-width:0.5;" width="172.0332" x="133.0728" y="2640.0732"/><text fill="#000000" font-family="sans-serif" font-size="12" lengthAdjust="spacing" textLength="55.7813" x="143.0728" y="2661.2119">Backend:</text><text fill="#000000" font-family="sans-serif" font-size="12" lengthAdjust="spacing" textLength="152.0332" x="143.0728" y="2675.1807">Tallenna opiskelijastatus,</text><text fill="#000000" font-family="sans-serif" font-size="12" lengthAdjust="spacing" textLength="61.248" x="143.0728" y="2689.1494">vastaa OK</text><ellipse cx="219.0894" cy="2814.8857" fill="none" rx="11" ry="11" style="stroke:#222222;stroke-width:1.0;"/><ellipse cx="219.0894" cy="2814.8857" fill="#222222" rx="6" ry="6" style="stroke:#222222;stroke-width:1.0;"/><line style="stroke:#000000;stroke-width:1.5;" x1="15" x2="15" y1="50.042" y2="2825.8857"/><path d="M399.8618,359.1475 L399.8618,384.2803 A0,0 0 0 0 399.8618,384.2803 L656.9946,384.2803 A0,0 0 0 0 656.9946,384.2803 L656.9946,377.1475 L676.9946,371.7139 L656.9946,369.1475 L656.9946,369.1475 L646.9946,359.1475 L399.8618,359.1475 A0,0 0 0 0 399.8618,359.1475 " fill="#FEFFDD" style="stroke:#181818;stroke-width:0.5;"/><path d="M646.9946,359.1475 L646.9946,369.1475 L656.9946,369.1475 L646.9946,359.1475 " fill="#FEFFDD" style="stroke:#181818;stroke-width:0.5;"/><text fill="#000000" font-family="sans-serif" font-size="13" lengthAdjust="spacing" textLength="236.1328" x="405.8618" y="376.2144">T&#228;t&#228; n&#228;kym&#228;&#228; ei v&#228;ltt&#228;m&#228;tt&#228; tarvita</text><rect fill="#F1F1F1" height="47.9375" rx="12.5" ry="12.5" style="stroke:#181818;stroke-width:0.5;" width="213.4414" x="676.9946" y="347.7451"/><text fill="#000000" font-family="sans-serif" font-size="12" lengthAdjust="spacing" textLength="193.4414" x="686.9946" y="368.8838">N&#228;yt&#228; selaimessa opintotietojen</text><text fill="#000000" font-family="sans-serif" font-size="12" lengthAdjust="spacing" textLength="77.5664" x="686.9946" y="382.8525">hakun&#228;kym&#228;</text><rect fill="#F1F1F1" height="61.9063" rx="12.5" ry="12.5" style="stroke:#181818;stroke-width:0.5;" width="209.0352" x="679.1978" y="415.6826"/><text fill="#000000" font-family="sans-serif" font-size="12" lengthAdjust="spacing" textLength="55.7813" x="689.1978" y="436.8213">Backend:</text><text fill="#000000" font-family="sans-serif" font-size="12" lengthAdjust="spacing" textLength="142.2422" x="689.1978" y="450.79">Luo sessio ja sille state,</text><text fill="#000000" font-family="sans-serif" font-size="12" lengthAdjust="spacing" textLength="189.0352" x="689.1978" y="464.7588">code_challenge ja code_verifier</text><rect fill="#F1F1F1" height="47.9375" rx="12.5" ry="12.5" style="stroke:#181818;stroke-width:0.5;" width="166.6895" x="700.3706" y="497.5889"/><text fill="#000000" font-family="sans-serif" font-size="12" lengthAdjust="spacing" textLength="55.7813" x="710.3706" y="518.7275">Backend:</text><text fill="#000000" font-family="sans-serif" font-size="12" lengthAdjust="spacing" textLength="146.6895" x="710.3706" y="532.6963">Hae henkil&#246;tiedot (hetu)</text><rect fill="#F1F1F1" height="47.9375" rx="12.5" ry="12.5" style="stroke:#181818;stroke-width:0.5;" width="209.0176" x="679.2065" y="633.4639"/><text fill="#000000" font-family="sans-serif" font-size="12" lengthAdjust="spacing" textLength="55.7813" x="689.2065" y="654.6025">Backend:</text><text fill="#000000" font-family="sans-serif" font-size="12" lengthAdjust="spacing" textLength="189.0176" x="689.2065" y="668.5713">Tallenna hetu staten yhteyteen</text><path d="M443.3804,691.4014 L443.3804,913.2607 A0,0 0 0 0 443.3804,913.2607 L665.9565,913.2607 A0,0 0 0 0 665.9565,913.2607 L665.9565,806.3311 L685.9565,802.3311 L665.9565,798.3311 L665.9565,701.4014 L655.9565,691.4014 L443.3804,691.4014 A0,0 0 0 0 443.3804,691.4014 " fill="#FEFFDD" style="stroke:#181818;stroke-width:0.5;"/><path d="M655.9565,691.4014 L655.9565,701.4014 L665.9565,701.4014 L655.9565,691.4014 " fill="#FEFFDD" style="stroke:#181818;stroke-width:0.5;"/><text fill="#000000" font-family="sans-serif" font-size="13" lengthAdjust="spacing" textLength="135.6113" x="449.3804" y="708.4683">https://opintopolku.fi</text><text fill="#000000" font-family="sans-serif" font-size="13" lengthAdjust="spacing" textLength="150.4775" x="449.3804" y="723.6011">/koski/omadata-oauth2</text><text fill="#000000" font-family="sans-serif" font-size="13" lengthAdjust="spacing" textLength="124.1602" x="449.3804" y="738.7339">/authorize/PARAMS</text><text fill="#000000" font-family="sans-serif" font-size="13" lengthAdjust="spacing" textLength="4.1323" x="449.3804" y="753.8667">&#160;</text><text fill="#000000" font-family="sans-serif" font-size="13" lengthAdjust="spacing" textLength="58.5063" x="449.3804" y="768.9995">PARAMS:</text><text fill="#000000" font-family="sans-serif" font-size="13" lengthAdjust="spacing" textLength="54.0693" x="449.3804" y="784.1323">client_id</text><text fill="#000000" font-family="sans-serif" font-size="13" lengthAdjust="spacing" textLength="74.4897" x="449.3804" y="799.2651">redirect_uri</text><text fill="#000000" font-family="sans-serif" font-size="13" lengthAdjust="spacing" textLength="32.9316" x="449.3804" y="814.3979">state</text><text fill="#000000" font-family="sans-serif" font-size="13" lengthAdjust="spacing" textLength="38.124" x="449.3804" y="829.5308">scope</text><text fill="#000000" font-family="sans-serif" font-size="13" lengthAdjust="spacing" textLength="137.1157" x="449.3804" y="844.6636">response_type=code</text><text fill="#000000" font-family="sans-serif" font-size="13" lengthAdjust="spacing" textLength="178.7056" x="449.3804" y="859.7964">response_mode=form_post</text><text fill="#000000" font-family="sans-serif" font-size="13" lengthAdjust="spacing" textLength="201.5762" x="449.3804" y="874.9292">code_challenge_method=S256</text><text fill="#000000" font-family="sans-serif" font-size="13" lengthAdjust="spacing" textLength="100.915" x="449.3804" y="890.062">code_challenge</text><text fill="#000000" font-family="sans-serif" font-size="13" lengthAdjust="spacing" textLength="4.1323" x="449.3804" y="905.1948">&#160;</text><rect fill="#F1F1F1" height="75.875" rx="12.5" ry="12.5" style="stroke:#181818;stroke-width:0.5;" width="195.5176" x="685.9565" y="764.3936"/><text fill="#000000" font-family="sans-serif" font-size="12" lengthAdjust="spacing" textLength="55.7813" x="695.9565" y="785.5322">Backend:</text><text fill="#000000" font-family="sans-serif" font-size="12" lengthAdjust="spacing" textLength="107.5898" x="695.9565" y="799.501">Muodosta OAuth2</text><text fill="#000000" font-family="sans-serif" font-size="12" lengthAdjust="spacing" textLength="175.5176" x="695.9565" y="813.4697">authorization endpoint URI ja</text><text fill="#000000" font-family="sans-serif" font-size="12" lengthAdjust="spacing" textLength="168.334" x="695.9565" y="827.4385">ohjaa k&#228;ytt&#228;j&#228;n selain sinne</text><rect fill="#F1F1F1" height="61.9063" rx="12.5" ry="12.5" style="stroke:#181818;stroke-width:0.5;" width="161.5566" x="702.937" y="1419.4092"/><text fill="#000000" font-family="sans-serif" font-size="12" lengthAdjust="spacing" textLength="55.7813" x="712.937" y="1440.5479">Backend:</text><text fill="#000000" font-family="sans-serif" font-size="12" lengthAdjust="spacing" textLength="141.5566" x="712.937" y="1454.5166">Hae statelle tallennettu</text><text fill="#000000" font-family="sans-serif" font-size="12" lengthAdjust="spacing" textLength="77.5664" x="712.937" y="1468.4854">code_verifier</text><path d="M356.0503,1491.3154 L356.0503,1803.9717 A0,0 0 0 0 356.0503,1803.9717 L687.2349,1803.9717 A0,0 0 0 0 687.2349,1803.9717 L687.2349,1651.6436 L707.2349,1647.6436 L687.2349,1643.6436 L687.2349,1501.3154 L677.2349,1491.3154 L356.0503,1491.3154 A0,0 0 0 0 356.0503,1491.3154 " fill="#FEFFDD" style="stroke:#181818;stroke-width:0.5;"/><path d="M677.2349,1491.3154 L677.2349,1501.3154 L687.2349,1501.3154 L677.2349,1491.3154 " fill="#FEFFDD" style="stroke:#181818;stroke-width:0.5;"/><text fill="#000000" font-family="sans-serif" font-size="13" lengthAdjust="spacing" textLength="112.3408" x="362.0503" y="1508.3823">mutual-TLS POST</text><text fill="#000000" font-family="sans-serif" font-size="13" lengthAdjust="spacing" textLength="310.1846" x="362.0503" y="1523.5151">https://oph-koski-luovutuspalvelu.opintopolku.fi</text><text fill="#000000" font-family="sans-serif" font-size="13" lengthAdjust="spacing" textLength="174.6875" x="362.0503" y="1538.6479">/koski/api/omadata-oauth2</text><text fill="#000000" font-family="sans-serif" font-size="13" lengthAdjust="spacing" textLength="140.7466" x="362.0503" y="1553.7808">/authorization-server/</text><text fill="#000000" font-family="sans-serif" font-size="13" lengthAdjust="spacing" textLength="141.2036" x="370.3149" y="1568.9136">body=CODE_PARAMS</text><text fill="#000000" font-family="sans-serif" font-size="13" lengthAdjust="spacing" textLength="4.1323" x="362.0503" y="1584.0464">&#160;</text><text fill="#000000" font-family="sans-serif" font-size="13" lengthAdjust="spacing" textLength="140.0356" x="362.0503" y="1599.1792">mutual-TLS tarvitsee:</text><text fill="#000000" font-family="sans-serif" font-size="13" lengthAdjust="spacing" textLength="187.2178" x="362.0503" y="1614.312">(1) Voimassaolevan luotetun</text><text fill="#000000" font-family="sans-serif" font-size="13" lengthAdjust="spacing" textLength="113.2041" x="370.3149" y="1629.4448">CA:n my&#246;nt&#228;m&#228;n</text><text fill="#000000" font-family="sans-serif" font-size="13" lengthAdjust="spacing" textLength="127.8228" x="370.3149" y="1644.5776">asiakasvarmenteen</text><text fill="#000000" font-family="sans-serif" font-size="13" lengthAdjust="spacing" textLength="115.5781" x="370.3149" y="1659.7104">(client certificate)</text><text fill="#000000" font-family="sans-serif" font-size="13" lengthAdjust="spacing" textLength="161.4336" x="362.0503" y="1674.8433">(2) Kiinte&#228;n IP-osoitteen/</text><text fill="#000000" font-family="sans-serif" font-size="13" lengthAdjust="spacing" textLength="74.6294" x="370.3149" y="1689.9761">-avaruuden</text><text fill="#000000" font-family="sans-serif" font-size="13" lengthAdjust="spacing" textLength="4.1323" x="362.0503" y="1705.1089">&#160;</text><text fill="#000000" font-family="sans-serif" font-size="13" lengthAdjust="spacing" textLength="102.54" x="362.0503" y="1720.2417">CODE_PARAMS:</text><text fill="#000000" font-family="sans-serif" font-size="13" lengthAdjust="spacing" textLength="205.3276" x="362.0503" y="1735.3745">grant_type=authorization_code</text><text fill="#000000" font-family="sans-serif" font-size="13" lengthAdjust="spacing" textLength="31.3511" x="362.0503" y="1750.5073">code</text><text fill="#000000" font-family="sans-serif" font-size="13" lengthAdjust="spacing" textLength="84.0303" x="362.0503" y="1765.6401">code_verifier</text><text fill="#000000" font-family="sans-serif" font-size="13" lengthAdjust="spacing" textLength="74.4897" x="362.0503" y="1780.7729">redirect_uri</text><text fill="#000000" font-family="sans-serif" font-size="13" lengthAdjust="spacing" textLength="54.0693" x="362.0503" y="1795.9058">client_id</text><rect fill="#F1F1F1" height="61.9063" rx="12.5" ry="12.5" style="stroke:#181818;stroke-width:0.5;" width="152.9609" x="707.2349" y="1616.6904"/><text fill="#000000" font-family="sans-serif" font-size="12" lengthAdjust="spacing" textLength="55.7813" x="717.2349" y="1637.8291">Backend:</text><text fill="#000000" font-family="sans-serif" font-size="12" lengthAdjust="spacing" textLength="132.9609" x="717.2349" y="1651.7979">Pyyd&#228; access tokenia,</text><text fill="#000000" font-family="sans-serif" font-size="12" lengthAdjust="spacing" textLength="129.9375" x="717.2349" y="1665.7666">mukana code_verifier</text><path d="M314.6655,2031.7529 L314.6655,2238.4795 A0,0 0 0 0 314.6655,2238.4795 L645.8501,2238.4795 A0,0 0 0 0 645.8501,2238.4795 L645.8501,2139.1162 L665.8501,2135.1162 L645.8501,2131.1162 L645.8501,2041.7529 L635.8501,2031.7529 L314.6655,2031.7529 A0,0 0 0 0 314.6655,2031.7529 " fill="#FEFFDD" style="stroke:#181818;stroke-width:0.5;"/><path d="M635.8501,2031.7529 L635.8501,2041.7529 L645.8501,2041.7529 L635.8501,2031.7529 " fill="#FEFFDD" style="stroke:#181818;stroke-width:0.5;"/><text fill="#000000" font-family="sans-serif" font-size="13" lengthAdjust="spacing" textLength="112.3408" x="320.6655" y="2048.8198">mutual-TLS POST</text><text fill="#000000" font-family="sans-serif" font-size="13" lengthAdjust="spacing" textLength="310.1846" x="320.6655" y="2063.9526">https://oph-koski-luovutuspalvelu.opintopolku.fi</text><text fill="#000000" font-family="sans-serif" font-size="13" lengthAdjust="spacing" textLength="281.709" x="320.6655" y="2079.0854">/koski/api/omadata-oauth2/resource-server</text><text fill="#000000" font-family="sans-serif" font-size="13" lengthAdjust="spacing" textLength="190.3027" x="328.9302" y="2094.2183">Authorization=Bearer TOKEN</text><text fill="#000000" font-family="sans-serif" font-size="13" lengthAdjust="spacing" textLength="4.1323" x="320.6655" y="2109.3511">&#160;</text><text fill="#000000" font-family="sans-serif" font-size="13" lengthAdjust="spacing" textLength="140.0356" x="320.6655" y="2124.4839">mutual-TLS tarvitsee:</text><text fill="#000000" font-family="sans-serif" font-size="13" lengthAdjust="spacing" textLength="187.2178" x="324.7979" y="2139.6167">(1) Voimassaolevan luotetun</text><text fill="#000000" font-family="sans-serif" font-size="13" lengthAdjust="spacing" textLength="113.2041" x="333.0625" y="2154.7495">CA:n my&#246;nt&#228;m&#228;n</text><text fill="#000000" font-family="sans-serif" font-size="13" lengthAdjust="spacing" textLength="127.8228" x="333.0625" y="2169.8823">asiakasvarmenteen</text><text fill="#000000" font-family="sans-serif" font-size="13" lengthAdjust="spacing" textLength="115.5781" x="333.0625" y="2185.0151">(client certificate)</text><text fill="#000000" font-family="sans-serif" font-size="13" lengthAdjust="spacing" textLength="161.4336" x="324.7979" y="2200.1479">(2) Kiinte&#228;n IP-osoitteen/</text><text fill="#000000" font-family="sans-serif" font-size="13" lengthAdjust="spacing" textLength="74.6294" x="333.0625" y="2215.2808">-avaruuden</text><text fill="#000000" font-family="sans-serif" font-size="13" lengthAdjust="spacing" textLength="4.1323" x="320.6655" y="2230.4136">&#160;</text><rect fill="#F1F1F1" height="47.9375" rx="12.5" ry="12.5" style="stroke:#181818;stroke-width:0.5;" width="235.7305" x="665.8501" y="2111.1475"/><text fill="#000000" font-family="sans-serif" font-size="12" lengthAdjust="spacing" textLength="55.7813" x="675.8501" y="2132.2861">Backend:</text><text fill="#000000" font-family="sans-serif" font-size="12" lengthAdjust="spacing" textLength="215.7305" x="675.8501" y="2146.2549">Pyyd&#228; opintotietoja access tokenilla</text><rect fill="#F1F1F1" height="75.875" rx="12.5" ry="12.5" style="stroke:#181818;stroke-width:0.5;" width="198.1309" x="684.6499" y="2394.3545"/><text fill="#000000" font-family="sans-serif" font-size="12" lengthAdjust="spacing" textLength="55.7813" x="694.6499" y="2415.4932">Backend:</text><text fill="#000000" font-family="sans-serif" font-size="12" lengthAdjust="spacing" textLength="156.832" x="694.6499" y="2429.4619">Tarkista, ett&#228; opintotiedot</text><text fill="#000000" font-family="sans-serif" font-size="12" lengthAdjust="spacing" textLength="178.1309" x="694.6499" y="2443.4307">vastaavat alussa tallennettua</text><text fill="#000000" font-family="sans-serif" font-size="12" lengthAdjust="spacing" textLength="34.6523" x="694.6499" y="2457.3994">hetua</text><rect fill="#F1F1F1" height="61.9063" rx="12.5" ry="12.5" style="stroke:#181818;stroke-width:0.5;" width="226.1914" x="670.6196" y="2490.2295"/><text fill="#000000" font-family="sans-serif" font-size="12" lengthAdjust="spacing" textLength="55.7813" x="680.6196" y="2511.3682">Backend:</text><text fill="#000000" font-family="sans-serif" font-size="12" lengthAdjust="spacing" textLength="146.373" x="680.6196" y="2525.3369">P&#228;&#228;ttele opiskelijastatus</text><text fill="#000000" font-family="sans-serif" font-size="12" lengthAdjust="spacing" textLength="206.1914" x="680.6196" y="2539.3057">opintotiedoista ("s&#228;&#228;nt&#246;moottori")</text><rect fill="#F1F1F1" height="47.9375" rx="12.5" ry="12.5" style="stroke:#181818;stroke-width:0.5;" width="158.0059" x="704.7124" y="2572.1357"/><text fill="#000000" font-family="sans-serif" font-size="12" lengthAdjust="spacing" textLength="55.7813" x="714.7124" y="2593.2744">Backend:</text><text fill="#000000" font-family="sans-serif" font-size="12" lengthAdjust="spacing" textLength="138.0059" x="714.7124" y="2607.2432">L&#228;het&#228; opiskelijastatus</text><rect fill="#F1F1F1" height="61.9063" rx="12.5" ry="12.5" style="stroke:#181818;stroke-width:0.5;" width="212.7676" x="677.3315" y="2721.9795"/><text fill="#000000" font-family="sans-serif" font-size="12" lengthAdjust="spacing" textLength="55.7813" x="687.3315" y="2743.1182">Backend:</text><text fill="#000000" font-family="sans-serif" font-size="12" lengthAdjust="spacing" textLength="192.7676" x="687.3315" y="2757.0869">Uudelleenohjaa k&#228;ytt&#228;j&#228;n selain</text><text fill="#000000" font-family="sans-serif" font-size="12" lengthAdjust="spacing" textLength="181.0898" x="687.3315" y="2771.0557">takaisin hy&#246;dynt&#228;j&#228;-palveluun</text><line style="stroke:#000000;stroke-width:1.5;" x1="309.6655" x2="309.6655" y1="50.042" y2="2825.8857"/><rect fill="#F1F1F1" height="33.9688" rx="12.5" ry="12.5" style="stroke:#181818;stroke-width:0.5;" width="205.1211" x="1271.2734" y="933.2607"/><text fill="#000000" font-family="sans-serif" font-size="12" lengthAdjust="spacing" textLength="185.1211" x="1281.2734" y="954.3994">Aloita vahva tunnistautuminen</text><rect fill="#F1F1F1" height="47.9375" rx="12.5" ry="12.5" style="stroke:#181818;stroke-width:0.5;" width="217.707" x="1264.9805" y="1055.167"/><text fill="#000000" font-family="sans-serif" font-size="12" lengthAdjust="spacing" textLength="197.707" x="1274.9805" y="1076.3057">K&#228;ytt&#228;j&#228; hyv&#228;ksyy opintotietojen</text><text fill="#000000" font-family="sans-serif" font-size="12" lengthAdjust="spacing" textLength="86.0156" x="1274.9805" y="1090.2744">luovuttamisen</text><rect fill="#F1F1F1" height="89.8438" rx="12.5" ry="12.5" style="stroke:#181818;stroke-width:0.5;" width="243.7402" x="1251.9639" y="1123.1045"/><text fill="#000000" font-family="sans-serif" font-size="12" lengthAdjust="spacing" textLength="55.7813" x="1261.9639" y="1144.2432">Backend:</text><text fill="#000000" font-family="sans-serif" font-size="12" lengthAdjust="spacing" textLength="141.5332" x="1261.9639" y="1158.2119">Luo authorization code,</text><text fill="#000000" font-family="sans-serif" font-size="12" lengthAdjust="spacing" textLength="194.3906" x="1261.9639" y="1172.1807">vastaanota ja tallenna k&#228;ytt&#228;j&#228;n</text><text fill="#000000" font-family="sans-serif" font-size="12" lengthAdjust="spacing" textLength="146.9355" x="1261.9639" y="1186.1494">antama suostumus sek&#228;</text><text fill="#000000" font-family="sans-serif" font-size="12" lengthAdjust="spacing" textLength="223.7402" x="1261.9639" y="1200.1182">authorization code ja code_challenge</text><path d="M910.5806,1222.9482 L910.5806,1399.4092 A0,0 0 0 0 910.5806,1399.4092 L1216.3809,1399.4092 A0,0 0 0 0 1216.3809,1399.4092 L1216.3809,1315.1787 L1236.3809,1311.1787 L1216.3809,1307.1787 L1216.3809,1232.9482 L1206.3809,1222.9482 L910.5806,1222.9482 A0,0 0 0 0 910.5806,1222.9482 " fill="#FEFFDD" style="stroke:#181818;stroke-width:0.5;"/><path d="M1206.3809,1222.9482 L1206.3809,1232.9482 L1216.3809,1232.9482 L1206.3809,1222.9482 " fill="#FEFFDD" style="stroke:#181818;stroke-width:0.5;"/><text fill="#000000" font-family="sans-serif" font-size="13" lengthAdjust="spacing" textLength="112.8867" x="916.5806" y="1240.0151">POST redirect_uri</text><text fill="#000000" font-family="sans-serif" font-size="13" lengthAdjust="spacing" textLength="156.8379" x="916.5806" y="1255.1479">body=CODE_RESPONSE</text><text fill="#000000" font-family="sans-serif" font-size="13" lengthAdjust="spacing" textLength="4.1323" x="916.5806" y="1270.2808">&#160;</text><text fill="#000000" font-family="sans-serif" font-size="13" lengthAdjust="spacing" textLength="118.1743" x="916.5806" y="1285.4136">CODE_RESPONSE:</text><text fill="#000000" font-family="sans-serif" font-size="13" lengthAdjust="spacing" textLength="32.9316" x="916.5806" y="1300.5464">state</text><text fill="#000000" font-family="sans-serif" font-size="13" lengthAdjust="spacing" textLength="31.3511" x="916.5806" y="1315.6792">code</text><text fill="#000000" font-family="sans-serif" font-size="13" lengthAdjust="spacing" textLength="276.5356" x="924.8452" y="1330.812">Virhetilanteissa code:n sijasta voi sis&#228;lt&#228;&#228;:</text><text fill="#000000" font-family="sans-serif" font-size="13" lengthAdjust="spacing" textLength="31.9858" x="916.5806" y="1345.9448">error</text><text fill="#000000" font-family="sans-serif" font-size="13" lengthAdjust="spacing" textLength="110.7666" x="916.5806" y="1361.0776">error_description</text><text fill="#000000" font-family="sans-serif" font-size="13" lengthAdjust="spacing" textLength="55.6816" x="916.5806" y="1376.2104">error_uri</text><text fill="#000000" font-family="sans-serif" font-size="13" lengthAdjust="spacing" textLength="4.1323" x="916.5806" y="1391.3433">&#160;</text><rect fill="#F1F1F1" height="47.9375" rx="12.5" ry="12.5" style="stroke:#181818;stroke-width:0.5;" width="274.9063" x="1236.3809" y="1287.21"/><text fill="#000000" font-family="sans-serif" font-size="12" lengthAdjust="spacing" textLength="40.6699" x="1246.3809" y="1308.3486">Selain:</text><text fill="#000000" font-family="sans-serif" font-size="12" lengthAdjust="spacing" textLength="254.9063" x="1246.3809" y="1322.3174">L&#228;het&#228; OAuth2 authorization code ja state</text><rect fill="#F1F1F1" height="47.9375" rx="12.5" ry="12.5" style="stroke:#181818;stroke-width:0.5;" width="203.0352" x="1272.3164" y="1823.9717"/><text fill="#000000" font-family="sans-serif" font-size="12" lengthAdjust="spacing" textLength="55.7813" x="1282.3164" y="1845.1104">Backend:</text><text fill="#000000" font-family="sans-serif" font-size="12" lengthAdjust="spacing" textLength="183.0352" x="1282.3164" y="1859.0791">Tarkista varmenne ja ip-osoite</text><rect fill="#F1F1F1" height="61.9063" rx="12.5" ry="12.5" style="stroke:#181818;stroke-width:0.5;" width="247.0742" x="1250.2969" y="1891.9092"/><text fill="#000000" font-family="sans-serif" font-size="12" lengthAdjust="spacing" textLength="55.7813" x="1260.2969" y="1913.0479">Backend:</text><text fill="#000000" font-family="sans-serif" font-size="12" lengthAdjust="spacing" textLength="227.0742" x="1260.2969" y="1927.0166">Tarkista code_challenge-code_verifier</text><text fill="#000000" font-family="sans-serif" font-size="12" lengthAdjust="spacing" textLength="68.6836" x="1260.2969" y="1940.9854">vastaavuus</text><rect fill="#F1F1F1" height="47.9375" rx="12.5" ry="12.5" style="stroke:#181818;stroke-width:0.5;" width="255.7754" x="1245.9463" y="1973.8154"/><text fill="#000000" font-family="sans-serif" font-size="12" lengthAdjust="spacing" textLength="55.7813" x="1255.9463" y="1994.9541">Backend:</text><text fill="#000000" font-family="sans-serif" font-size="12" lengthAdjust="spacing" textLength="235.7754" x="1255.9463" y="2008.9229">Luo, tallenna ja vastaa access tokenilla</text><rect fill="#F1F1F1" height="47.9375" rx="12.5" ry="12.5" style="stroke:#181818;stroke-width:0.5;" width="203.0352" x="1272.3164" y="2258.4795"/><text fill="#000000" font-family="sans-serif" font-size="12" lengthAdjust="spacing" textLength="55.7813" x="1282.3164" y="2279.6182">Backend:</text><text fill="#000000" font-family="sans-serif" font-size="12" lengthAdjust="spacing" textLength="183.0352" x="1282.3164" y="2293.5869">Tarkista varmenne ja ip-osoite</text><rect fill="#F1F1F1" height="47.9375" rx="12.5" ry="12.5" style="stroke:#181818;stroke-width:0.5;" width="150.7227" x="1298.4727" y="2326.417"/><text fill="#000000" font-family="sans-serif" font-size="12" lengthAdjust="spacing" textLength="55.7813" x="1308.4727" y="2347.5557">Backend:</text><text fill="#000000" font-family="sans-serif" font-size="12" lengthAdjust="spacing" textLength="130.7227" x="1308.4727" y="2361.5244">Vastaa opintotiedoilla</text><line style="stroke:#000000;stroke-width:1.5;" x1="905.5806" x2="905.5806" y1="50.042" y2="2825.8857"/><rect fill="#F1F1F1" height="33.9688" rx="12.5" ry="12.5" style="stroke:#181818;stroke-width:0.5;" width="94.6191" x="1576.1191" y="211.8701"/><text fill="#000000" font-family="sans-serif" font-size="12" lengthAdjust="spacing" textLength="74.6191" x="1586.1191" y="233.0088">Tunnistaudu</text><rect fill="#F1F1F1" height="47.9375" rx="12.5" ry="12.5" style="stroke:#181818;stroke-width:0.5;" width="204.2832" x="1521.2871" y="987.2295"/><text fill="#000000" font-family="sans-serif" font-size="12" lengthAdjust="spacing" textLength="170.3438" x="1531.2871" y="1008.3682">L&#228;het&#228; tunnistautumistiedot</text><text fill="#000000" font-family="sans-serif" font-size="12" lengthAdjust="spacing" textLength="184.2832" x="1531.2871" y="1022.3369">(k&#228;ytt&#228;j&#228; on jo tunnistautunut)</text><line style="stroke:#000000;stroke-width:1.5;" x1="1515.2871" x2="1515.2871" y1="50.042" y2="2825.8857"/><line style="stroke:#000000;stroke-width:1.5;" x1="1729.5703" x2="1729.5703" y1="50.042" y2="2825.8857"/><line style="stroke:#181818;stroke-width:1.0;" x1="219.0894" x2="219.0894" y1="95.9951" y2="115.9951"/><polygon fill="#181818" points="215.0894,105.9951,219.0894,115.9951,223.0894,105.9951,219.0894,109.9951" style="stroke:#181818;stroke-width:1.0;"/><line style="stroke:#181818;stroke-width:1.0;" x1="783.7153" x2="783.7153" y1="395.6826" y2="415.6826"/><polygon fill="#181818" points="779.7153,405.6826,783.7153,415.6826,787.7153,405.6826,783.7153,409.6826" style="stroke:#181818;stroke-width:1.0;"/><line style="stroke:#181818;stroke-width:1.0;" x1="783.7153" x2="783.7153" y1="477.5889" y2="497.5889"/><polygon fill="#181818" points="779.7153,487.5889,783.7153,497.5889,787.7153,487.5889,783.7153,491.5889" style="stroke:#181818;stroke-width:1.0;"/><line style="stroke:#181818;stroke-width:1.0;" x1="783.7153" x2="783.7153" y1="681.4014" y2="764.3936"/><polygon fill="#181818" points="779.7153,754.3936,783.7153,764.3936,787.7153,754.3936,783.7153,758.3936" style="stroke:#181818;stroke-width:1.0;"/><line style="stroke:#181818;stroke-width:1.0;" x1="783.7153" x2="783.7153" y1="1481.3154" y2="1616.6904"/><polygon fill="#181818" points="779.7153,1606.6904,783.7153,1616.6904,787.7153,1606.6904,783.7153,1610.6904" style="stroke:#181818;stroke-width:1.0;"/><line style="stroke:#181818;stroke-width:1.0;" x1="783.7153" x2="783.7153" y1="2470.2295" y2="2490.2295"/><polygon fill="#181818" points="779.7153,2480.2295,783.7153,2490.2295,787.7153,2480.2295,783.7153,2484.2295" style="stroke:#181818;stroke-width:1.0;"/><line style="stroke:#181818;stroke-width:1.0;" x1="783.7153" x2="783.7153" y1="2552.1357" y2="2572.1357"/><polygon fill="#181818" points="779.7153,2562.1357,783.7153,2572.1357,787.7153,2562.1357,783.7153,2566.1357" style="stroke:#181818;stroke-width:1.0;"/><line style="stroke:#181818;stroke-width:1.0;" x1="1373.834" x2="1373.834" y1="1103.1045" y2="1123.1045"/><polygon fill="#181818" points="1369.834,1113.1045,1373.834,1123.1045,1377.834,1113.1045,1373.834,1117.1045" style="stroke:#181818;stroke-width:1.0;"/><line style="stroke:#181818;stroke-width:1.0;" x1="1373.834" x2="1373.834" y1="1212.9482" y2="1287.21"/><polygon fill="#181818" points="1369.834,1277.21,1373.834,1287.21,1377.834,1277.21,1373.834,1281.21" style="stroke:#181818;stroke-width:1.0;"/><line style="stroke:#181818;stroke-width:1.0;" x1="1373.834" x2="1373.834" y1="1871.9092" y2="1891.9092"/><polygon fill="#181818" points="1369.834,1881.9092,1373.834,1891.9092,1377.834,1881.9092,1373.834,1885.9092" style="stroke:#181818;stroke-width:1.0;"/><line style="stroke:#181818;stroke-width:1.0;" x1="1373.834" x2="1373.834" y1="1953.8154" y2="1973.8154"/><polygon fill="#181818" points="1369.834,1963.8154,1373.834,1973.8154,1377.834,1963.8154,1373.834,1967.8154" style="stroke:#181818;stroke-width:1.0;"/><line style="stroke:#181818;stroke-width:1.0;" x1="1373.834" x2="1373.834" y1="2306.417" y2="2326.417"/><polygon fill="#181818" points="1369.834,2316.417,1373.834,2326.417,1377.834,2316.417,1373.834,2320.417" style="stroke:#181818;stroke-width:1.0;"/><line style="stroke:#181818;stroke-width:1.0;" x1="219.0894" x2="219.0894" y1="191.8701" y2="196.8701"/><line style="stroke:#181818;stroke-width:1.0;" x1="219.0894" x2="1623.4287" y1="196.8701" y2="196.8701"/><line style="stroke:#181818;stroke-width:1.0;" x1="1623.4287" x2="1623.4287" y1="196.8701" y2="211.8701"/><polygon fill="#181818" points="1619.4287,201.8701,1623.4287,211.8701,1627.4287,201.8701,1623.4287,205.8701" style="stroke:#181818;stroke-width:1.0;"/><line style="stroke:#181818;stroke-width:1.0;" x1="1623.4287" x2="1623.4287" y1="245.8389" y2="250.8389"/><line style="stroke:#181818;stroke-width:1.0;" x1="1623.4287" x2="219.0894" y1="250.8389" y2="250.8389"/><line style="stroke:#181818;stroke-width:1.0;" x1="219.0894" x2="219.0894" y1="250.8389" y2="265.8389"/><polygon fill="#181818" points="215.0894,255.8389,219.0894,265.8389,223.0894,255.8389,219.0894,259.8389" style="stroke:#181818;stroke-width:1.0;"/><line style="stroke:#181818;stroke-width:1.0;" x1="219.0894" x2="219.0894" y1="327.7451" y2="332.7451"/><line style="stroke:#181818;stroke-width:1.0;" x1="219.0894" x2="783.7153" y1="332.7451" y2="332.7451"/><line style="stroke:#181818;stroke-width:1.0;" x1="783.7153" x2="783.7153" y1="332.7451" y2="347.7451"/><polygon fill="#181818" points="779.7153,337.7451,783.7153,347.7451,787.7153,337.7451,783.7153,341.7451" style="stroke:#181818;stroke-width:1.0;"/><line style="stroke:#181818;stroke-width:1.0;" x1="783.7153" x2="783.7153" y1="545.5264" y2="550.5264"/><line style="stroke:#181818;stroke-width:1.0;" x1="783.7153" x2="219.0894" y1="550.5264" y2="550.5264"/><line style="stroke:#181818;stroke-width:1.0;" x1="219.0894" x2="219.0894" y1="550.5264" y2="565.5264"/><polygon fill="#181818" points="215.0894,555.5264,219.0894,565.5264,223.0894,555.5264,219.0894,559.5264" style="stroke:#181818;stroke-width:1.0;"/><line style="stroke:#181818;stroke-width:1.0;" x1="219.0894" x2="219.0894" y1="613.4639" y2="618.4639"/><line style="stroke:#181818;stroke-width:1.0;" x1="219.0894" x2="783.7153" y1="618.4639" y2="618.4639"/><line style="stroke:#181818;stroke-width:1.0;" x1="783.7153" x2="783.7153" y1="618.4639" y2="633.4639"/><polygon fill="#181818" points="779.7153,623.4639,783.7153,633.4639,787.7153,623.4639,783.7153,627.4639" style="stroke:#181818;stroke-width:1.0;"/><line style="stroke:#181818;stroke-width:1.0;" x1="783.7153" x2="783.7153" y1="840.2686" y2="894.2646"/><line style="stroke:#181818;stroke-width:1.0;" x1="783.7153" x2="1373.834" y1="894.2646" y2="894.2646"/><line style="stroke:#181818;stroke-width:1.0;" x1="1373.834" x2="1373.834" y1="894.2646" y2="933.2607"/><polygon fill="#181818" points="1369.834,923.2607,1373.834,933.2607,1377.834,923.2607,1373.834,927.2607" style="stroke:#181818;stroke-width:1.0;"/><line style="stroke:#181818;stroke-width:1.0;" x1="1373.834" x2="1373.834" y1="967.2295" y2="972.2295"/><line style="stroke:#181818;stroke-width:1.0;" x1="1373.834" x2="1623.4287" y1="972.2295" y2="972.2295"/><line style="stroke:#181818;stroke-width:1.0;" x1="1623.4287" x2="1623.4287" y1="972.2295" y2="987.2295"/><polygon fill="#181818" points="1619.4287,977.2295,1623.4287,987.2295,1627.4287,977.2295,1623.4287,981.2295" style="stroke:#181818;stroke-width:1.0;"/><line style="stroke:#181818;stroke-width:1.0;" x1="1623.4287" x2="1623.4287" y1="1035.167" y2="1040.167"/><line style="stroke:#181818;stroke-width:1.0;" x1="1623.4287" x2="1373.834" y1="1040.167" y2="1040.167"/><line style="stroke:#181818;stroke-width:1.0;" x1="1373.834" x2="1373.834" y1="1040.167" y2="1055.167"/><polygon fill="#181818" points="1369.834,1045.167,1373.834,1055.167,1377.834,1045.167,1373.834,1049.167" style="stroke:#181818;stroke-width:1.0;"/><line style="stroke:#181818;stroke-width:1.0;" x1="1373.834" x2="1373.834" y1="1335.1475" y2="1384.7783"/><line style="stroke:#181818;stroke-width:1.0;" x1="1373.834" x2="783.7153" y1="1384.7783" y2="1384.7783"/><line style="stroke:#181818;stroke-width:1.0;" x1="783.7153" x2="783.7153" y1="1384.7783" y2="1419.4092"/><polygon fill="#181818" points="779.7153,1409.4092,783.7153,1419.4092,787.7153,1409.4092,783.7153,1413.4092" style="stroke:#181818;stroke-width:1.0;"/><line style="stroke:#181818;stroke-width:1.0;" x1="783.7153" x2="783.7153" y1="1678.5967" y2="1758.7842"/><line style="stroke:#181818;stroke-width:1.0;" x1="783.7153" x2="1373.834" y1="1758.7842" y2="1758.7842"/><line style="stroke:#181818;stroke-width:1.0;" x1="1373.834" x2="1373.834" y1="1758.7842" y2="1823.9717"/><polygon fill="#181818" points="1369.834,1813.9717,1373.834,1823.9717,1377.834,1813.9717,1373.834,1817.9717" style="stroke:#181818;stroke-width:1.0;"/><line style="stroke:#181818;stroke-width:1.0;" x1="1373.834" x2="1373.834" y1="2021.7529" y2="2053.9502"/><line style="stroke:#181818;stroke-width:1.0;" x1="1373.834" x2="783.7153" y1="2053.9502" y2="2053.9502"/><line style="stroke:#181818;stroke-width:1.0;" x1="783.7153" x2="783.7153" y1="2053.9502" y2="2111.1475"/><polygon fill="#181818" points="779.7153,2101.1475,783.7153,2111.1475,787.7153,2101.1475,783.7153,2105.1475" style="stroke:#181818;stroke-width:1.0;"/><line style="stroke:#181818;stroke-width:1.0;" x1="783.7153" x2="783.7153" y1="2159.085" y2="2216.2822"/><line style="stroke:#181818;stroke-width:1.0;" x1="783.7153" x2="1373.834" y1="2216.2822" y2="2216.2822"/><line style="stroke:#181818;stroke-width:1.0;" x1="1373.834" x2="1373.834" y1="2216.2822" y2="2258.4795"/><polygon fill="#181818" points="1369.834,2248.4795,1373.834,2258.4795,1377.834,2248.4795,1373.834,2252.4795" style="stroke:#181818;stroke-width:1.0;"/><line style="stroke:#181818;stroke-width:1.0;" x1="1373.834" x2="1373.834" y1="2374.3545" y2="2379.3545"/><line style="stroke:#181818;stroke-width:1.0;" x1="1373.834" x2="783.7153" y1="2379.3545" y2="2379.3545"/><line style="stroke:#181818;stroke-width:1.0;" x1="783.7153" x2="783.7153" y1="2379.3545" y2="2394.3545"/><polygon fill="#181818" points="779.7153,2384.3545,783.7153,2394.3545,787.7153,2384.3545,783.7153,2388.3545" style="stroke:#181818;stroke-width:1.0;"/><line style="stroke:#181818;stroke-width:1.0;" x1="783.7153" x2="783.7153" y1="2620.0732" y2="2625.0732"/><line style="stroke:#181818;stroke-width:1.0;" x1="783.7153" x2="219.0894" y1="2625.0732" y2="2625.0732"/><line style="stroke:#181818;stroke-width:1.0;" x1="219.0894" x2="219.0894" y1="2625.0732" y2="2640.0732"/><polygon fill="#181818" points="215.0894,2630.0732,219.0894,2640.0732,223.0894,2630.0732,219.0894,2634.0732" style="stroke:#181818;stroke-width:1.0;"/><line style="stroke:#181818;stroke-width:1.0;" x1="219.0894" x2="219.0894" y1="2701.9795" y2="2706.9795"/><line style="stroke:#181818;stroke-width:1.0;" x1="219.0894" x2="783.7153" y1="2706.9795" y2="2706.9795"/><line style="stroke:#181818;stroke-width:1.0;" x1="783.7153" x2="783.7153" y1="2706.9795" y2="2721.9795"/><polygon fill="#181818" points="779.7153,2711.9795,783.7153,2721.9795,787.7153,2711.9795,783.7153,2715.9795" style="stroke:#181818;stroke-width:1.0;"/><line style="stroke:#181818;stroke-width:1.0;" x1="783.7153" x2="783.7153" y1="2783.8857" y2="2788.8857"/><line style="stroke:#181818;stroke-width:1.0;" x1="783.7153" x2="219.0894" y1="2788.8857" y2="2788.8857"/><line style="stroke:#181818;stroke-width:1.0;" x1="219.0894" x2="219.0894" y1="2788.8857" y2="2803.8857"/><polygon fill="#181818" points="215.0894,2793.8857,219.0894,2803.8857,223.0894,2793.8857,219.0894,2797.8857" style="stroke:#181818;stroke-width:1.0;"/><text fill="#000000" font-family="sans-serif" font-size="18" lengthAdjust="spacing" textLength="174.8936" x="74.886" y="66.75">Hy&#246;dynt&#228;j&#228;-palvelu</text><text fill="#000000" font-family="sans-serif" font-size="18" lengthAdjust="spacing" textLength="345.0322" x="435.1069" y="66.75">Hy&#246;dynt&#228;j&#228;n KOSKI-integraatiopalvelu</text><text fill="#000000" font-family="sans-serif" font-size="18" lengthAdjust="spacing" textLength="98.7891" x="1161.0393" y="66.75">OPH KOSKI</text><text fill="#000000" font-family="sans-serif" font-size="18" lengthAdjust="spacing" textLength="73.4414" x="1585.708" y="66.75">Suomi.fi</text><!--SRC=[lLTBRjj84DttAHfPoO1fOGpCB2XueMGCs91Z2PRYhL0Xos69P3V1xcR0WO-ZC-G2kjXKa_gGicJC98FPa69_wlTUlMvPiXdAwTZPv5e62HH5BGkmYGmWjLIHHRIMOe9l9UGvIVETyWmKKfQ1UBshDp_YMjdDUhLP1mLa5MRkzMXSoSbqFhaFI5baAs197rPEPtVjzAiuQyvOAAq89vjrRTiv2HM0D9W1vMWCYE_uDJ1KEILM827JP2qlg22fG0dhb28sugpBoQ0QiQkvqpbTlT2h21UxwTYDpWVHSs-8IblNeXE1BZW_RGcjNg6I2QJEgJVstgj5-EWzUEjxgx9lLNYhQhDEwtop7WcbBSeCNwnORDP-uswAVoB9QhFEVC0yu5-IgyXuWa0LIxzLX1yXIlah50zEirTZI4kkds5mKN95B5wAICUuZ1BW8VKD_NGpKc59BuJbg6Fb3b0cg5BADZyuv5XREKZGkeltohhVFOEC4O8Z2zqilItLf4MsDW8DvLS-PrA7dFvDlVUk5qrsolksharSoJgnM3FzLJV5pqx7cXTiEqPmn8akwIzlM4bUKcXs9RyytNEbX4vMpCBqG1pLOiilKWfxkLbRc70uR04lT9OwPgSOfjgaDDGvn60XqD1u7UxSud0sVXf_dWlHlaCHPOJABYaM9SPKOcINhYJHv2HCf0la2LDePN1fwm9lF9g7ePo_RbvqcIyBJlC8_6MEx3Q-cL___iVHbEWYqEdfSEnxSTk9ijU8waqZFcpM381dQgzXMoA8GQUEaekzqjrrojc6PbtVtOvDQkPDQkhwkAKofol7Qh5LXdvFzE7rAL-A2jWZSAhWcy7kgDD5MO1YWzn8ZeleScSOTfuNRytj-sbVIGvXtd248zZLOolFfxStq7QfD9lE5xA7_bSTrpUVfd_UBfzkvxFfu_nMYDvdk2L8GmOfdwbanyGwRv6y3FdnqBDsvPENbUQ3W8pN5oyseS2or6NxNCPeef8A7-Dsn8VmYntgfQK9qIlJjkPyC3bnLencTHtxWoAAMDUarJnAS2bobu9wes67ukNC9SY2nSDS-Zfs-Z89cbuCMi8uiutowdJ7Gd6-Qnly0eCb1p3aSX_WsNLp9ufMjGrYA0Q_NSXdJJam93f3Fjea1sEzAhALJsD6AEVIgbRp_HWOWXHC1MNEgi1QncE3LY9aXANbz2CkweKON5_82NaCF2Btiq0RVuRo3XzWmCTjwLpC-qKdpb0mO2msZOxqabisHDe_zfNkYz91gyw8HqUWovGQvZMPg8RuLBHHukZKodvN1VqmsXwkd3D77NzvQEYLz-QNzJd4zvxHpt5uoyYk_foo_NzmSSY2hrqPuPQ5ZF6uYz_DHuGIIxcOJcuVpz5Hli_7auGyoSZJb9JlSx97ol-EFyyjv7kGOlqBYE_SNafiRc0TgtR7GR1yNtLUP3ko1irT1tfwvfMMisVzOpCcnQmLOqPVTAFrMGu-6B-QO_sHQsqju_hXeiVqtSboREeVtTJsrwNZtRl3KKudFrcnBumd6qTrzkeaBFE7-Fx4H_g9E4_SkRj_97GX_WO0]--></g></svg>