<svg xmlns="http://www.w3.org/2000/svg" xmlns:xlink="http://www.w3.org/1999/xlink" contentStyleType="text/css" height="2436px" preserveAspectRatio="none" style="width:2186px;height:2436px;background:#FFFFFF;" version="1.1" viewBox="0 0 2186 2436" width="2186px" zoomAndPan="magnify"><title>OAuth2 -happy path -aktiviteettidiagrammi swimlaneilla</title><defs/><g><text fill="#000000" font-family="sans-serif" font-size="14" font-weight="bold" lengthAdjust="spacing" textLength="445.792" x="869.0095" y="32.9951">OAuth2 -happy path -aktiviteettidiagrammi swimlaneilla</text><text fill="#000000" font-family="sans-serif" font-size="14" font-weight="bold" lengthAdjust="spacing" textLength="289.666" x="947.0725" y="49.292">eriyt&#228; tilallinen ja tilaton integraatio</text><rect fill="none" height="20.9531" style="stroke:none;stroke-width:1.0;" width="2153.811" x="15" y="66.3389"/><ellipse cx="186.146" cy="102.292" fill="#222222" rx="10" ry="10" style="stroke:#222222;stroke-width:1.0;"/><rect fill="#F1F1F1" height="75.875" rx="12.5" ry="12.5" style="stroke:#181818;stroke-width:0.5;" width="167.6094" x="102.3413" y="132.292"/><text fill="#000000" font-family="sans-serif" font-size="12" lengthAdjust="spacing" textLength="147.6094" x="112.3413" y="153.4307">K&#228;ytt&#228;j&#228; avaa web-sivun</text><text fill="#000000" font-family="sans-serif" font-size="12" lengthAdjust="spacing" textLength="122.666" x="112.3413" y="167.3994">(tai mobiiliappiksen)</text><text fill="#000000" font-family="sans-serif" font-size="12" lengthAdjust="spacing" textLength="107.918" x="112.3413" y="181.3682">ja aloittaa vahvan</text><text fill="#000000" font-family="sans-serif" font-size="12" lengthAdjust="spacing" textLength="105.3457" x="112.3413" y="195.3369">tunnistautumisen</text><path d="M20,272.1357 L20,327.5342 A0,0 0 0 0 20,327.5342 L97.9829,327.5342 A0,0 0 0 0 97.9829,327.5342 L97.9829,303.835 L117.9829,299.835 L97.9829,295.835 L97.9829,282.1357 L87.9829,272.1357 L20,272.1357 A0,0 0 0 0 20,272.1357 " fill="#FEFFDD" style="stroke:#181818;stroke-width:0.5;"/><path d="M87.9829,272.1357 L87.9829,282.1357 L97.9829,282.1357 L87.9829,272.1357 " fill="#FEFFDD" style="stroke:#181818;stroke-width:0.5;"/><text fill="#000000" font-family="sans-serif" font-size="13" lengthAdjust="spacing" textLength="56.9829" x="26" y="289.2026">mukana:</text><text fill="#000000" font-family="sans-serif" font-size="13" lengthAdjust="spacing" textLength="29.5737" x="26" y="304.3354">hetu</text><text fill="#000000" font-family="sans-serif" font-size="13" lengthAdjust="spacing" textLength="28.1265" x="26" y="319.4683">nimi</text><rect fill="#F1F1F1" height="33.9688" rx="12.5" ry="12.5" style="stroke:#181818;stroke-width:0.5;" width="136.3262" x="117.9829" y="282.8506"/><text fill="#000000" font-family="sans-serif" font-size="12" lengthAdjust="spacing" textLength="116.3262" x="127.9829" y="303.9893">Pyyd&#228; opintotietoja</text><rect fill="#F1F1F1" height="33.9688" rx="12.5" ry="12.5" style="stroke:#181818;stroke-width:0.5;" width="168.2188" x="102.0366" y="2348.4248"/><text fill="#000000" font-family="sans-serif" font-size="12" lengthAdjust="spacing" textLength="148.2188" x="112.0366" y="2369.5635">Tallenna opiskelijastatus</text><ellipse cx="186.146" cy="2413.3936" fill="none" rx="11" ry="11" style="stroke:#222222;stroke-width:1.0;"/><ellipse cx="186.146" cy="2413.3936" fill="#222222" rx="6" ry="6" style="stroke:#222222;stroke-width:1.0;"/><line style="stroke:#000000;stroke-width:1.5;" x1="15" x2="15" y1="66.3389" y2="2424.3936"/><rect fill="#F1F1F1" height="47.9375" rx="12.5" ry="12.5" style="stroke:#181818;stroke-width:0.5;" width="209.0352" x="515.0728" y="347.5342"/><text fill="#000000" font-family="sans-serif" font-size="12" lengthAdjust="spacing" textLength="59.6602" x="525.0728" y="368.6729">Luo state,</text><text fill="#000000" font-family="sans-serif" font-size="12" lengthAdjust="spacing" textLength="189.0352" x="525.0728" y="382.6416">code_challenge ja code_verifier</text><rect fill="#F1F1F1" height="33.9688" rx="12.5" ry="12.5" style="stroke:#181818;stroke-width:0.5;" width="209.0176" x="515.0815" y="415.4717"/><text fill="#000000" font-family="sans-serif" font-size="12" lengthAdjust="spacing" textLength="189.0176" x="525.0815" y="436.6104">Tallenna hetu staten yhteyteen</text><path d="M279.2554,459.4404 L279.2554,681.2998 A0,0 0 0 0 279.2554,681.2998 L501.8315,681.2998 A0,0 0 0 0 501.8315,681.2998 L501.8315,574.3701 L521.8315,570.3701 L501.8315,566.3701 L501.8315,469.4404 L491.8315,459.4404 L279.2554,459.4404 A0,0 0 0 0 279.2554,459.4404 " fill="#FEFFDD" style="stroke:#181818;stroke-width:0.5;"/><path d="M491.8315,459.4404 L491.8315,469.4404 L501.8315,469.4404 L491.8315,459.4404 " fill="#FEFFDD" style="stroke:#181818;stroke-width:0.5;"/><text fill="#000000" font-family="sans-serif" font-size="13" lengthAdjust="spacing" textLength="135.6113" x="285.2554" y="476.5073">https://opintopolku.fi</text><text fill="#000000" font-family="sans-serif" font-size="13" lengthAdjust="spacing" textLength="150.4775" x="285.2554" y="491.6401">/koski/omadata-oauth2</text><text fill="#000000" font-family="sans-serif" font-size="13" lengthAdjust="spacing" textLength="124.1602" x="285.2554" y="506.7729">/authorize/PARAMS</text><text fill="#000000" font-family="sans-serif" font-size="13" lengthAdjust="spacing" textLength="4.1323" x="285.2554" y="521.9058">&#160;</text><text fill="#000000" font-family="sans-serif" font-size="13" lengthAdjust="spacing" textLength="58.5063" x="285.2554" y="537.0386">PARAMS:</text><text fill="#000000" font-family="sans-serif" font-size="13" lengthAdjust="spacing" textLength="54.0693" x="285.2554" y="552.1714">client_id</text><text fill="#000000" font-family="sans-serif" font-size="13" lengthAdjust="spacing" textLength="74.4897" x="285.2554" y="567.3042">redirect_uri</text><text fill="#000000" font-family="sans-serif" font-size="13" lengthAdjust="spacing" textLength="32.9316" x="285.2554" y="582.437">state</text><text fill="#000000" font-family="sans-serif" font-size="13" lengthAdjust="spacing" textLength="38.124" x="285.2554" y="597.5698">scope</text><text fill="#000000" font-family="sans-serif" font-size="13" lengthAdjust="spacing" textLength="137.1157" x="285.2554" y="612.7026">response_type=code</text><text fill="#000000" font-family="sans-serif" font-size="13" lengthAdjust="spacing" textLength="178.7056" x="285.2554" y="627.8354">response_mode=form_post</text><text fill="#000000" font-family="sans-serif" font-size="13" lengthAdjust="spacing" textLength="201.5762" x="285.2554" y="642.9683">code_challenge_method=S256</text><text fill="#000000" font-family="sans-serif" font-size="13" lengthAdjust="spacing" textLength="100.915" x="285.2554" y="658.1011">code_challenge</text><text fill="#000000" font-family="sans-serif" font-size="13" lengthAdjust="spacing" textLength="4.1323" x="285.2554" y="673.2339">&#160;</text><rect fill="#F1F1F1" height="61.9063" rx="12.5" ry="12.5" style="stroke:#181818;stroke-width:0.5;" width="195.5176" x="521.8315" y="539.417"/><text fill="#000000" font-family="sans-serif" font-size="12" lengthAdjust="spacing" textLength="107.5898" x="531.8315" y="560.5557">Muodosta OAuth2</text><text fill="#000000" font-family="sans-serif" font-size="12" lengthAdjust="spacing" textLength="175.5176" x="531.8315" y="574.5244">authorization endpoint URI ja</text><text fill="#000000" font-family="sans-serif" font-size="12" lengthAdjust="spacing" textLength="168.334" x="531.8315" y="588.4932">ohjaa k&#228;ytt&#228;j&#228;n selain sinne</text><rect fill="#F1F1F1" height="33.9688" rx="12.5" ry="12.5" style="stroke:#181818;stroke-width:0.5;" width="146.3223" x="546.4292" y="1173.4795"/><text fill="#000000" font-family="sans-serif" font-size="12" lengthAdjust="spacing" textLength="126.3223" x="556.4292" y="1194.6182">Palauta code_verifier</text><rect fill="#F1F1F1" height="33.9688" rx="12.5" ry="12.5" style="stroke:#181818;stroke-width:0.5;" width="96.0547" x="571.563" y="2104.6123"/><text fill="#000000" font-family="sans-serif" font-size="12" lengthAdjust="spacing" textLength="76.0547" x="581.563" y="2125.751">Palauta hetu</text><line style="stroke:#000000;stroke-width:1.5;" x1="274.2554" x2="274.2554" y1="66.3389" y2="2424.3936"/><rect fill="#F1F1F1" height="47.9375" rx="12.5" ry="12.5" style="stroke:#181818;stroke-width:0.5;" width="161.5566" x="1121.3794" y="1105.542"/><text fill="#000000" font-family="sans-serif" font-size="12" lengthAdjust="spacing" textLength="141.5566" x="1131.3794" y="1126.6807">Hae statelle tallennettu</text><text fill="#000000" font-family="sans-serif" font-size="12" lengthAdjust="spacing" textLength="77.5664" x="1131.3794" y="1140.6494">code_verifier</text><path d="M774.4927,1217.4482 L774.4927,1530.1045 A0,0 0 0 0 774.4927,1530.1045 L1105.6772,1530.1045 A0,0 0 0 0 1105.6772,1530.1045 L1105.6772,1377.7764 L1125.6772,1373.7764 L1105.6772,1369.7764 L1105.6772,1227.4482 L1095.6772,1217.4482 L774.4927,1217.4482 A0,0 0 0 0 774.4927,1217.4482 " fill="#FEFFDD" style="stroke:#181818;stroke-width:0.5;"/><path d="M1095.6772,1217.4482 L1095.6772,1227.4482 L1105.6772,1227.4482 L1095.6772,1217.4482 " fill="#FEFFDD" style="stroke:#181818;stroke-width:0.5;"/><text fill="#000000" font-family="sans-serif" font-size="13" lengthAdjust="spacing" textLength="112.3408" x="780.4927" y="1234.5151">mutual-TLS POST</text><text fill="#000000" font-family="sans-serif" font-size="13" lengthAdjust="spacing" textLength="310.1846" x="780.4927" y="1249.6479">https://oph-koski-luovutuspalvelu.opintopolku.fi</text><text fill="#000000" font-family="sans-serif" font-size="13" lengthAdjust="spacing" textLength="174.6875" x="780.4927" y="1264.7808">/koski/api/omadata-oauth2</text><text fill="#000000" font-family="sans-serif" font-size="13" lengthAdjust="spacing" textLength="140.7466" x="780.4927" y="1279.9136">/authorization-server/</text><text fill="#000000" font-family="sans-serif" font-size="13" lengthAdjust="spacing" textLength="141.2036" x="788.7573" y="1295.0464">body=CODE_PARAMS</text><text fill="#000000" font-family="sans-serif" font-size="13" lengthAdjust="spacing" textLength="4.1323" x="780.4927" y="1310.1792">&#160;</text><text fill="#000000" font-family="sans-serif" font-size="13" lengthAdjust="spacing" textLength="140.0356" x="780.4927" y="1325.312">mutual-TLS tarvitsee:</text><text fill="#000000" font-family="sans-serif" font-size="13" lengthAdjust="spacing" textLength="187.2178" x="780.4927" y="1340.4448">(1) Voimassaolevan luotetun</text><text fill="#000000" font-family="sans-serif" font-size="13" lengthAdjust="spacing" textLength="113.2041" x="788.7573" y="1355.5776">CA:n my&#246;nt&#228;m&#228;n</text><text fill="#000000" font-family="sans-serif" font-size="13" lengthAdjust="spacing" textLength="127.8228" x="788.7573" y="1370.7104">asiakasvarmenteen</text><text fill="#000000" font-family="sans-serif" font-size="13" lengthAdjust="spacing" textLength="115.5781" x="788.7573" y="1385.8433">(client certificate)</text><text fill="#000000" font-family="sans-serif" font-size="13" lengthAdjust="spacing" textLength="161.4336" x="780.4927" y="1400.9761">(2) Kiinte&#228;n IP-osoitteen/</text><text fill="#000000" font-family="sans-serif" font-size="13" lengthAdjust="spacing" textLength="74.6294" x="788.7573" y="1416.1089">-avaruuden</text><text fill="#000000" font-family="sans-serif" font-size="13" lengthAdjust="spacing" textLength="4.1323" x="780.4927" y="1431.2417">&#160;</text><text fill="#000000" font-family="sans-serif" font-size="13" lengthAdjust="spacing" textLength="102.54" x="780.4927" y="1446.3745">CODE_PARAMS:</text><text fill="#000000" font-family="sans-serif" font-size="13" lengthAdjust="spacing" textLength="205.3276" x="780.4927" y="1461.5073">grant_type=authorization_code</text><text fill="#000000" font-family="sans-serif" font-size="13" lengthAdjust="spacing" textLength="31.3511" x="780.4927" y="1476.6401">code</text><text fill="#000000" font-family="sans-serif" font-size="13" lengthAdjust="spacing" textLength="84.0303" x="780.4927" y="1491.7729">code_verifier</text><text fill="#000000" font-family="sans-serif" font-size="13" lengthAdjust="spacing" textLength="74.4897" x="780.4927" y="1506.9058">redirect_uri</text><text fill="#000000" font-family="sans-serif" font-size="13" lengthAdjust="spacing" textLength="54.0693" x="780.4927" y="1522.0386">client_id</text><rect fill="#F1F1F1" height="47.9375" rx="12.5" ry="12.5" style="stroke:#181818;stroke-width:0.5;" width="152.9609" x="1125.6772" y="1349.8076"/><text fill="#000000" font-family="sans-serif" font-size="12" lengthAdjust="spacing" textLength="132.9609" x="1135.6772" y="1370.9463">Pyyd&#228; access tokenia,</text><text fill="#000000" font-family="sans-serif" font-size="12" lengthAdjust="spacing" textLength="129.9375" x="1135.6772" y="1384.915">mukana code_verifier</text><path d="M733.1079,1715.9795 L733.1079,1922.7061 A0,0 0 0 0 733.1079,1922.7061 L1064.2925,1922.7061 A0,0 0 0 0 1064.2925,1922.7061 L1064.2925,1823.3428 L1084.2925,1819.3428 L1064.2925,1815.3428 L1064.2925,1725.9795 L1054.2925,1715.9795 L733.1079,1715.9795 A0,0 0 0 0 733.1079,1715.9795 " fill="#FEFFDD" style="stroke:#181818;stroke-width:0.5;"/><path d="M1054.2925,1715.9795 L1054.2925,1725.9795 L1064.2925,1725.9795 L1054.2925,1715.9795 " fill="#FEFFDD" style="stroke:#181818;stroke-width:0.5;"/><text fill="#000000" font-family="sans-serif" font-size="13" lengthAdjust="spacing" textLength="112.3408" x="739.1079" y="1733.0464">mutual-TLS POST</text><text fill="#000000" font-family="sans-serif" font-size="13" lengthAdjust="spacing" textLength="310.1846" x="739.1079" y="1748.1792">https://oph-koski-luovutuspalvelu.opintopolku.fi</text><text fill="#000000" font-family="sans-serif" font-size="13" lengthAdjust="spacing" textLength="281.709" x="739.1079" y="1763.312">/koski/api/omadata-oauth2/resource-server</text><text fill="#000000" font-family="sans-serif" font-size="13" lengthAdjust="spacing" textLength="190.3027" x="747.3726" y="1778.4448">Authorization=Bearer TOKEN</text><text fill="#000000" font-family="sans-serif" font-size="13" lengthAdjust="spacing" textLength="4.1323" x="739.1079" y="1793.5776">&#160;</text><text fill="#000000" font-family="sans-serif" font-size="13" lengthAdjust="spacing" textLength="140.0356" x="739.1079" y="1808.7104">mutual-TLS tarvitsee:</text><text fill="#000000" font-family="sans-serif" font-size="13" lengthAdjust="spacing" textLength="187.2178" x="743.2402" y="1823.8433">(1) Voimassaolevan luotetun</text><text fill="#000000" font-family="sans-serif" font-size="13" lengthAdjust="spacing" textLength="113.2041" x="751.5049" y="1838.9761">CA:n my&#246;nt&#228;m&#228;n</text><text fill="#000000" font-family="sans-serif" font-size="13" lengthAdjust="spacing" textLength="127.8228" x="751.5049" y="1854.1089">asiakasvarmenteen</text><text fill="#000000" font-family="sans-serif" font-size="13" lengthAdjust="spacing" textLength="115.5781" x="751.5049" y="1869.2417">(client certificate)</text><text fill="#000000" font-family="sans-serif" font-size="13" lengthAdjust="spacing" textLength="161.4336" x="743.2402" y="1884.3745">(2) Kiinte&#228;n IP-osoitteen/</text><text fill="#000000" font-family="sans-serif" font-size="13" lengthAdjust="spacing" textLength="74.6294" x="751.5049" y="1899.5073">-avaruuden</text><text fill="#000000" font-family="sans-serif" font-size="13" lengthAdjust="spacing" textLength="4.1323" x="739.1079" y="1914.6401">&#160;</text><rect fill="#F1F1F1" height="33.9688" rx="12.5" ry="12.5" style="stroke:#181818;stroke-width:0.5;" width="235.7305" x="1084.2925" y="1802.3584"/><text fill="#000000" font-family="sans-serif" font-size="12" lengthAdjust="spacing" textLength="215.7305" x="1094.2925" y="1823.4971">Pyyd&#228; opintotietoja access tokenilla</text><rect fill="#F1F1F1" height="33.9688" rx="12.5" ry="12.5" style="stroke:#181818;stroke-width:0.5;" width="192.6699" x="1105.8228" y="2050.6436"/><text fill="#000000" font-family="sans-serif" font-size="12" lengthAdjust="spacing" textLength="172.6699" x="1115.8228" y="2071.7822">Hae statelle tallennettu hetu</text><rect fill="#F1F1F1" height="47.9375" rx="12.5" ry="12.5" style="stroke:#181818;stroke-width:0.5;" width="176.832" x="1113.7417" y="2158.5811"/><text fill="#000000" font-family="sans-serif" font-size="12" lengthAdjust="spacing" textLength="156.832" x="1123.7417" y="2179.7197">Tarkista, ett&#228; opintotiedot</text><text fill="#000000" font-family="sans-serif" font-size="12" lengthAdjust="spacing" textLength="97.7461" x="1123.7417" y="2193.6885">vastaavat hetua</text><rect fill="#F1F1F1" height="47.9375" rx="12.5" ry="12.5" style="stroke:#181818;stroke-width:0.5;" width="226.1914" x="1089.062" y="2226.5186"/><text fill="#000000" font-family="sans-serif" font-size="12" lengthAdjust="spacing" textLength="146.373" x="1099.062" y="2247.6572">P&#228;&#228;ttele opiskelijastatus</text><text fill="#000000" font-family="sans-serif" font-size="12" lengthAdjust="spacing" textLength="206.1914" x="1099.062" y="2261.626">opintotiedoista ("s&#228;&#228;nt&#246;moottori")</text><rect fill="#F1F1F1" height="33.9688" rx="12.5" ry="12.5" style="stroke:#181818;stroke-width:0.5;" width="158.0059" x="1123.1548" y="2294.4561"/><text fill="#000000" font-family="sans-serif" font-size="12" lengthAdjust="spacing" textLength="138.0059" x="1133.1548" y="2315.5947">L&#228;het&#228; opiskelijastatus</text><line style="stroke:#000000;stroke-width:1.5;" x1="728.1079" x2="728.1079" y1="66.3389" y2="2424.3936"/><rect fill="#F1F1F1" height="33.9688" rx="12.5" ry="12.5" style="stroke:#181818;stroke-width:0.5;" width="205.1211" x="1689.7158" y="701.2998"/><text fill="#000000" font-family="sans-serif" font-size="12" lengthAdjust="spacing" textLength="185.1211" x="1699.7158" y="722.4385">Aloita vahva tunnistautuminen</text><rect fill="#F1F1F1" height="61.9063" rx="12.5" ry="12.5" style="stroke:#181818;stroke-width:0.5;" width="243.7402" x="1670.4063" y="837.1748"/><text fill="#000000" font-family="sans-serif" font-size="12" lengthAdjust="spacing" textLength="195.498" x="1680.4063" y="858.3135">Vastaanota ja tallenna k&#228;ytt&#228;j&#228;n</text><text fill="#000000" font-family="sans-serif" font-size="12" lengthAdjust="spacing" textLength="211.4297" x="1680.4063" y="872.2822">antama suostumus ja siihen liitetty</text><text fill="#000000" font-family="sans-serif" font-size="12" lengthAdjust="spacing" textLength="223.7402" x="1680.4063" y="886.251">authorization code ja code_challenge</text><path d="M1329.0229,909.0811 L1329.0229,1085.542 A0,0 0 0 0 1329.0229,1085.542 L1634.8232,1085.542 A0,0 0 0 0 1634.8232,1085.542 L1634.8232,1001.3115 L1654.8232,997.3115 L1634.8232,993.3115 L1634.8232,919.0811 L1624.8232,909.0811 L1329.0229,909.0811 A0,0 0 0 0 1329.0229,909.0811 " fill="#FEFFDD" style="stroke:#181818;stroke-width:0.5;"/><path d="M1624.8232,909.0811 L1624.8232,919.0811 L1634.8232,919.0811 L1624.8232,909.0811 " fill="#FEFFDD" style="stroke:#181818;stroke-width:0.5;"/><text fill="#000000" font-family="sans-serif" font-size="13" lengthAdjust="spacing" textLength="112.8867" x="1335.0229" y="926.1479">POST redirect_uri</text><text fill="#000000" font-family="sans-serif" font-size="13" lengthAdjust="spacing" textLength="156.8379" x="1335.0229" y="941.2808">body=CODE_RESPONSE</text><text fill="#000000" font-family="sans-serif" font-size="13" lengthAdjust="spacing" textLength="4.1323" x="1335.0229" y="956.4136">&#160;</text><text fill="#000000" font-family="sans-serif" font-size="13" lengthAdjust="spacing" textLength="118.1743" x="1335.0229" y="971.5464">CODE_RESPONSE:</text><text fill="#000000" font-family="sans-serif" font-size="13" lengthAdjust="spacing" textLength="32.9316" x="1335.0229" y="986.6792">state</text><text fill="#000000" font-family="sans-serif" font-size="13" lengthAdjust="spacing" textLength="31.3511" x="1335.0229" y="1001.812">code</text><text fill="#000000" font-family="sans-serif" font-size="13" lengthAdjust="spacing" textLength="276.5356" x="1343.2876" y="1016.9448">Virhetilanteissa code:n sijasta voi sis&#228;lt&#228;&#228;:</text><text fill="#000000" font-family="sans-serif" font-size="13" lengthAdjust="spacing" textLength="31.9858" x="1335.0229" y="1032.0776">error</text><text fill="#000000" font-family="sans-serif" font-size="13" lengthAdjust="spacing" textLength="110.7666" x="1335.0229" y="1047.2104">error_description</text><text fill="#000000" font-family="sans-serif" font-size="13" lengthAdjust="spacing" textLength="55.6816" x="1335.0229" y="1062.3433">error_uri</text><text fill="#000000" font-family="sans-serif" font-size="13" lengthAdjust="spacing" textLength="4.1323" x="1335.0229" y="1077.4761">&#160;</text><rect fill="#F1F1F1" height="33.9688" rx="12.5" ry="12.5" style="stroke:#181818;stroke-width:0.5;" width="274.9063" x="1654.8232" y="980.3271"/><text fill="#000000" font-family="sans-serif" font-size="12" lengthAdjust="spacing" textLength="254.9063" x="1664.8232" y="1001.4658">L&#228;het&#228; OAuth2 authorization code ja state</text><rect fill="#F1F1F1" height="33.9688" rx="12.5" ry="12.5" style="stroke:#181818;stroke-width:0.5;" width="203.0352" x="1690.7588" y="1550.1045"/><text fill="#000000" font-family="sans-serif" font-size="12" lengthAdjust="spacing" textLength="183.0352" x="1700.7588" y="1571.2432">Tarkista varmenne ja ip-osoite</text><rect fill="#F1F1F1" height="47.9375" rx="12.5" ry="12.5" style="stroke:#181818;stroke-width:0.5;" width="247.0742" x="1668.7393" y="1604.0732"/><text fill="#000000" font-family="sans-serif" font-size="12" lengthAdjust="spacing" textLength="227.0742" x="1678.7393" y="1625.2119">Tarkista code_challenge-code_verifier</text><text fill="#000000" font-family="sans-serif" font-size="12" lengthAdjust="spacing" textLength="68.6836" x="1678.7393" y="1639.1807">vastaavuus</text><rect fill="#F1F1F1" height="33.9688" rx="12.5" ry="12.5" style="stroke:#181818;stroke-width:0.5;" width="255.7754" x="1664.3887" y="1672.0107"/><text fill="#000000" font-family="sans-serif" font-size="12" lengthAdjust="spacing" textLength="235.7754" x="1674.3887" y="1693.1494">Luo, tallenna ja vastaa access tokenilla</text><rect fill="#F1F1F1" height="33.9688" rx="12.5" ry="12.5" style="stroke:#181818;stroke-width:0.5;" width="203.0352" x="1690.7588" y="1942.7061"/><text fill="#000000" font-family="sans-serif" font-size="12" lengthAdjust="spacing" textLength="183.0352" x="1700.7588" y="1963.8447">Tarkista varmenne ja ip-osoite</text><rect fill="#F1F1F1" height="33.9688" rx="12.5" ry="12.5" style="stroke:#181818;stroke-width:0.5;" width="150.7227" x="1716.915" y="1996.6748"/><text fill="#000000" font-family="sans-serif" font-size="12" lengthAdjust="spacing" textLength="130.7227" x="1726.915" y="2017.8135">Vastaa opintotiedoilla</text><line style="stroke:#000000;stroke-width:1.5;" x1="1324.0229" x2="1324.0229" y1="66.3389" y2="2424.3936"/><rect fill="#F1F1F1" height="33.9688" rx="12.5" ry="12.5" style="stroke:#181818;stroke-width:0.5;" width="94.6191" x="2004.0303" y="228.167"/><text fill="#000000" font-family="sans-serif" font-size="12" lengthAdjust="spacing" textLength="74.6191" x="2014.0303" y="249.3057">Tunnistaudu</text><rect fill="#F1F1F1" height="61.9063" rx="12.5" ry="12.5" style="stroke:#181818;stroke-width:0.5;" width="223.2207" x="1939.7295" y="755.2686"/><text fill="#000000" font-family="sans-serif" font-size="12" lengthAdjust="spacing" textLength="170.3438" x="1949.7295" y="776.4072">L&#228;het&#228; tunnistautumistiedot</text><text fill="#000000" font-family="sans-serif" font-size="12" lengthAdjust="spacing" textLength="203.2207" x="1949.7295" y="790.376">(jos k&#228;ytt&#228;j&#228; oli jo tunnistautunut,</text><text fill="#000000" font-family="sans-serif" font-size="12" lengthAdjust="spacing" textLength="177.4512" x="1949.7295" y="804.3447">jos ei, niin tunnistaudu ensin)</text><line style="stroke:#000000;stroke-width:1.5;" x1="1933.7295" x2="1933.7295" y1="66.3389" y2="2424.3936"/><line style="stroke:#000000;stroke-width:1.5;" x1="2166.9502" x2="2166.9502" y1="66.3389" y2="2424.3936"/><line style="stroke:#181818;stroke-width:1.0;" x1="186.146" x2="186.146" y1="112.292" y2="132.292"/><polygon fill="#181818" points="182.146,122.292,186.146,132.292,190.146,122.292,186.146,126.292" style="stroke:#181818;stroke-width:1.0;"/><line style="stroke:#181818;stroke-width:1.0;" x1="186.146" x2="186.146" y1="2382.3936" y2="2402.3936"/><polygon fill="#181818" points="182.146,2392.3936,186.146,2402.3936,190.146,2392.3936,186.146,2396.3936" style="stroke:#181818;stroke-width:1.0;"/><line style="stroke:#181818;stroke-width:1.0;" x1="619.5903" x2="619.5903" y1="395.4717" y2="415.4717"/><polygon fill="#181818" points="615.5903,405.4717,619.5903,415.4717,623.5903,405.4717,619.5903,409.4717" style="stroke:#181818;stroke-width:1.0;"/><line style="stroke:#181818;stroke-width:1.0;" x1="619.5903" x2="619.5903" y1="449.4404" y2="539.417"/><polygon fill="#181818" points="615.5903,529.417,619.5903,539.417,623.5903,529.417,619.5903,533.417" style="stroke:#181818;stroke-width:1.0;"/><line style="stroke:#181818;stroke-width:1.0;" x1="1202.1577" x2="1202.1577" y1="2206.5186" y2="2226.5186"/><polygon fill="#181818" points="1198.1577,2216.5186,1202.1577,2226.5186,1206.1577,2216.5186,1202.1577,2220.5186" style="stroke:#181818;stroke-width:1.0;"/><line style="stroke:#181818;stroke-width:1.0;" x1="1202.1577" x2="1202.1577" y1="2274.4561" y2="2294.4561"/><polygon fill="#181818" points="1198.1577,2284.4561,1202.1577,2294.4561,1206.1577,2284.4561,1202.1577,2288.4561" style="stroke:#181818;stroke-width:1.0;"/><line style="stroke:#181818;stroke-width:1.0;" x1="1792.2764" x2="1792.2764" y1="899.0811" y2="980.3271"/><polygon fill="#181818" points="1788.2764,970.3271,1792.2764,980.3271,1796.2764,970.3271,1792.2764,974.3271" style="stroke:#181818;stroke-width:1.0;"/><line style="stroke:#181818;stroke-width:1.0;" x1="1792.2764" x2="1792.2764" y1="1584.0732" y2="1604.0732"/><polygon fill="#181818" points="1788.2764,1594.0732,1792.2764,1604.0732,1796.2764,1594.0732,1792.2764,1598.0732" style="stroke:#181818;stroke-width:1.0;"/><line style="stroke:#181818;stroke-width:1.0;" x1="1792.2764" x2="1792.2764" y1="1652.0107" y2="1672.0107"/><polygon fill="#181818" points="1788.2764,1662.0107,1792.2764,1672.0107,1796.2764,1662.0107,1792.2764,1666.0107" style="stroke:#181818;stroke-width:1.0;"/><line style="stroke:#181818;stroke-width:1.0;" x1="1792.2764" x2="1792.2764" y1="1976.6748" y2="1996.6748"/><polygon fill="#181818" points="1788.2764,1986.6748,1792.2764,1996.6748,1796.2764,1986.6748,1792.2764,1990.6748" style="stroke:#181818;stroke-width:1.0;"/><line style="stroke:#181818;stroke-width:1.0;" x1="186.146" x2="186.146" y1="208.167" y2="213.167"/><line style="stroke:#181818;stroke-width:1.0;" x1="186.146" x2="2051.3398" y1="213.167" y2="213.167"/><line style="stroke:#181818;stroke-width:1.0;" x1="2051.3398" x2="2051.3398" y1="213.167" y2="228.167"/><polygon fill="#181818" points="2047.3398,218.167,2051.3398,228.167,2055.3398,218.167,2051.3398,222.167" style="stroke:#181818;stroke-width:1.0;"/><line style="stroke:#181818;stroke-width:1.0;" x1="2051.3398" x2="2051.3398" y1="262.1357" y2="267.1357"/><line style="stroke:#181818;stroke-width:1.0;" x1="2051.3398" x2="186.146" y1="267.1357" y2="267.1357"/><line style="stroke:#181818;stroke-width:1.0;" x1="186.146" x2="186.146" y1="267.1357" y2="282.8506"/><polygon fill="#181818" points="182.146,272.8506,186.146,282.8506,190.146,272.8506,186.146,276.8506" style="stroke:#181818;stroke-width:1.0;"/><line style="stroke:#181818;stroke-width:1.0;" x1="186.146" x2="186.146" y1="316.8193" y2="332.5342"/><line style="stroke:#181818;stroke-width:1.0;" x1="186.146" x2="619.5903" y1="332.5342" y2="332.5342"/><line style="stroke:#181818;stroke-width:1.0;" x1="619.5903" x2="619.5903" y1="332.5342" y2="347.5342"/><polygon fill="#181818" points="615.5903,337.5342,619.5903,347.5342,623.5903,337.5342,619.5903,341.5342" style="stroke:#181818;stroke-width:1.0;"/><line style="stroke:#181818;stroke-width:1.0;" x1="619.5903" x2="619.5903" y1="601.3232" y2="658.8115"/><line style="stroke:#181818;stroke-width:1.0;" x1="619.5903" x2="1792.2764" y1="658.8115" y2="658.8115"/><line style="stroke:#181818;stroke-width:1.0;" x1="1792.2764" x2="1792.2764" y1="658.8115" y2="701.2998"/><polygon fill="#181818" points="1788.2764,691.2998,1792.2764,701.2998,1796.2764,691.2998,1792.2764,695.2998" style="stroke:#181818;stroke-width:1.0;"/><line style="stroke:#181818;stroke-width:1.0;" x1="1792.2764" x2="1792.2764" y1="735.2686" y2="740.2686"/><line style="stroke:#181818;stroke-width:1.0;" x1="1792.2764" x2="2051.3398" y1="740.2686" y2="740.2686"/><line style="stroke:#181818;stroke-width:1.0;" x1="2051.3398" x2="2051.3398" y1="740.2686" y2="755.2686"/><polygon fill="#181818" points="2047.3398,745.2686,2051.3398,755.2686,2055.3398,745.2686,2051.3398,749.2686" style="stroke:#181818;stroke-width:1.0;"/><line style="stroke:#181818;stroke-width:1.0;" x1="2051.3398" x2="2051.3398" y1="817.1748" y2="822.1748"/><line style="stroke:#181818;stroke-width:1.0;" x1="2051.3398" x2="1792.2764" y1="822.1748" y2="822.1748"/><line style="stroke:#181818;stroke-width:1.0;" x1="1792.2764" x2="1792.2764" y1="822.1748" y2="837.1748"/><polygon fill="#181818" points="1788.2764,827.1748,1792.2764,837.1748,1796.2764,827.1748,1792.2764,831.1748" style="stroke:#181818;stroke-width:1.0;"/><line style="stroke:#181818;stroke-width:1.0;" x1="1792.2764" x2="1792.2764" y1="1014.2959" y2="1067.4189"/><line style="stroke:#181818;stroke-width:1.0;" x1="1792.2764" x2="1202.1577" y1="1067.4189" y2="1067.4189"/><line style="stroke:#181818;stroke-width:1.0;" x1="1202.1577" x2="1202.1577" y1="1067.4189" y2="1105.542"/><polygon fill="#181818" points="1198.1577,1095.542,1202.1577,1105.542,1206.1577,1095.542,1202.1577,1099.542" style="stroke:#181818;stroke-width:1.0;"/><line style="stroke:#181818;stroke-width:1.0;" x1="1202.1577" x2="1202.1577" y1="1153.4795" y2="1158.4795"/><line style="stroke:#181818;stroke-width:1.0;" x1="1202.1577" x2="619.5903" y1="1158.4795" y2="1158.4795"/><line style="stroke:#181818;stroke-width:1.0;" x1="619.5903" x2="619.5903" y1="1158.4795" y2="1173.4795"/><polygon fill="#181818" points="615.5903,1163.4795,619.5903,1173.4795,623.5903,1163.4795,619.5903,1167.4795" style="stroke:#181818;stroke-width:1.0;"/><line style="stroke:#181818;stroke-width:1.0;" x1="619.5903" x2="619.5903" y1="1207.4482" y2="1266.1279"/><line style="stroke:#181818;stroke-width:1.0;" x1="619.5903" x2="1202.1577" y1="1266.1279" y2="1266.1279"/><line style="stroke:#181818;stroke-width:1.0;" x1="1202.1577" x2="1202.1577" y1="1266.1279" y2="1349.8076"/><polygon fill="#181818" points="1198.1577,1339.8076,1202.1577,1349.8076,1206.1577,1339.8076,1202.1577,1343.8076" style="stroke:#181818;stroke-width:1.0;"/><line style="stroke:#181818;stroke-width:1.0;" x1="1202.1577" x2="1202.1577" y1="1397.7451" y2="1481.4248"/><line style="stroke:#181818;stroke-width:1.0;" x1="1202.1577" x2="1792.2764" y1="1481.4248" y2="1481.4248"/><line style="stroke:#181818;stroke-width:1.0;" x1="1792.2764" x2="1792.2764" y1="1481.4248" y2="1550.1045"/><polygon fill="#181818" points="1788.2764,1540.1045,1792.2764,1550.1045,1796.2764,1540.1045,1792.2764,1544.1045" style="stroke:#181818;stroke-width:1.0;"/><line style="stroke:#181818;stroke-width:1.0;" x1="1792.2764" x2="1792.2764" y1="1705.9795" y2="1741.6689"/><line style="stroke:#181818;stroke-width:1.0;" x1="1792.2764" x2="1202.1577" y1="1741.6689" y2="1741.6689"/><line style="stroke:#181818;stroke-width:1.0;" x1="1202.1577" x2="1202.1577" y1="1741.6689" y2="1802.3584"/><polygon fill="#181818" points="1198.1577,1792.3584,1202.1577,1802.3584,1206.1577,1792.3584,1202.1577,1796.3584" style="stroke:#181818;stroke-width:1.0;"/><line style="stroke:#181818;stroke-width:1.0;" x1="1202.1577" x2="1202.1577" y1="1836.3271" y2="1897.0166"/><line style="stroke:#181818;stroke-width:1.0;" x1="1202.1577" x2="1792.2764" y1="1897.0166" y2="1897.0166"/><line style="stroke:#181818;stroke-width:1.0;" x1="1792.2764" x2="1792.2764" y1="1897.0166" y2="1942.7061"/><polygon fill="#181818" points="1788.2764,1932.7061,1792.2764,1942.7061,1796.2764,1932.7061,1792.2764,1936.7061" style="stroke:#181818;stroke-width:1.0;"/><line style="stroke:#181818;stroke-width:1.0;" x1="1792.2764" x2="1792.2764" y1="2030.6436" y2="2035.6436"/><line style="stroke:#181818;stroke-width:1.0;" x1="1792.2764" x2="1202.1577" y1="2035.6436" y2="2035.6436"/><line style="stroke:#181818;stroke-width:1.0;" x1="1202.1577" x2="1202.1577" y1="2035.6436" y2="2050.6436"/><polygon fill="#181818" points="1198.1577,2040.6436,1202.1577,2050.6436,1206.1577,2040.6436,1202.1577,2044.6436" style="stroke:#181818;stroke-width:1.0;"/><line style="stroke:#181818;stroke-width:1.0;" x1="1202.1577" x2="1202.1577" y1="2084.6123" y2="2089.6123"/><line style="stroke:#181818;stroke-width:1.0;" x1="1202.1577" x2="619.5903" y1="2089.6123" y2="2089.6123"/><line style="stroke:#181818;stroke-width:1.0;" x1="619.5903" x2="619.5903" y1="2089.6123" y2="2104.6123"/><polygon fill="#181818" points="615.5903,2094.6123,619.5903,2104.6123,623.5903,2094.6123,619.5903,2098.6123" style="stroke:#181818;stroke-width:1.0;"/><line style="stroke:#181818;stroke-width:1.0;" x1="619.5903" x2="619.5903" y1="2138.5811" y2="2143.5811"/><line style="stroke:#181818;stroke-width:1.0;" x1="619.5903" x2="1202.1577" y1="2143.5811" y2="2143.5811"/><line style="stroke:#181818;stroke-width:1.0;" x1="1202.1577" x2="1202.1577" y1="2143.5811" y2="2158.5811"/><polygon fill="#181818" points="1198.1577,2148.5811,1202.1577,2158.5811,1206.1577,2148.5811,1202.1577,2152.5811" style="stroke:#181818;stroke-width:1.0;"/><line style="stroke:#181818;stroke-width:1.0;" x1="1202.1577" x2="1202.1577" y1="2328.4248" y2="2333.4248"/><line style="stroke:#181818;stroke-width:1.0;" x1="1202.1577" x2="186.146" y1="2333.4248" y2="2333.4248"/><line style="stroke:#181818;stroke-width:1.0;" x1="186.146" x2="186.146" y1="2333.4248" y2="2348.4248"/><polygon fill="#181818" points="182.146,2338.4248,186.146,2348.4248,190.146,2338.4248,186.146,2342.4248" style="stroke:#181818;stroke-width:1.0;"/><text fill="#000000" font-family="sans-serif" font-size="18" lengthAdjust="spacing" textLength="174.8936" x="57.1809" y="83.0469">Hy&#246;dynt&#228;j&#228;-palvelu</text><text fill="#000000" font-family="sans-serif" font-size="18" lengthAdjust="spacing" textLength="427.7373" x="287.313" y="83.0469">Hy&#246;dynt&#228;j&#228;n tilallinen KOSKI-integraatiopalvelu</text><text fill="#000000" font-family="sans-serif" font-size="18" lengthAdjust="spacing" textLength="408.3223" x="821.9043" y="83.0469">Hy&#246;dynt&#228;j&#228;n tilaton KOSKI-integraatiopalvelu</text><text fill="#000000" font-family="sans-serif" font-size="18" lengthAdjust="spacing" textLength="98.7891" x="1579.4817" y="83.0469">OPH KOSKI</text><text fill="#000000" font-family="sans-serif" font-size="18" lengthAdjust="spacing" textLength="73.4414" x="2013.6191" y="83.0469">Suomi.fi</text><!--SRC=[lLRDQkD84BxtKpHpii4Qiu7TWqmEtjb0GZ9Z4sTpMZ0Lgp8kM-eMwceDMl8uUOPv0R_OL4jsB7biBsHWBnBgtw- - -kehCN6AUZBslBpGqHBolD8vy597i6OgYH6PAI7uMa2MaNRVA4l18AKf_6Eme8ethvefXJGbWqQleFvYQpGPHja6J5QzN5URxqbbPFLgynhba9QO-fU3STC-wNOokxs9MeUStHGkFBDZChrkfbzEGd4C1QluTlDQSJEdeGJGt_0fSbHweteCf3FxH9IIC4LhXwQl9698BJ7BsXAM9HZ5tXYIyppxZ6JHIBtClCteupEzgFXXDvluqKaqyRIg4e5WSud7CY7R5OoKiOmwnMTMcL-3WLWjaRqob952a-Wm_pvIupjljQ1Y7AY5JN2-MCecD5ynvBGUAINVpuJ5I6AevmpeS7sppUXgoLY9OYJU-BEtYPNnhRQKSB6q1VqRxZHQeEPMKEY_xs_aU6MNAs5llQVUQ8SfaBp866p7lMJENJmSDiJaDbrxeLKDrzQjQMWpI80Xib3VEjnTYyFf-7xyUQPKyuxL8YKqFAT45PXGWGkU-u9K7Ofo2vkZJBZS6eTphdAy31JiXpBvkdosHJRF9Sm3nkOPohN9vUpYzpyEfbGhJIrHnkCWeQs0T4S_vb0_TvjNOJsKNKTcef74ikgjh6ipgMrAUcNRYutdWGhBa0RQaB3CUqbAReJp_gWBxn5a5WGsr1M-otuxOmeCGmRQUI74Pzw5bOveASf8IPo4kJgGGQ3cJLrl58rQ8MwTwVYsEbTjRKmdimVTIUUJJQhBJvE_hkRtLxFfvCliIgdEPxpDU9rThH-fa8kbNgH2oBa6MXnak0eCwDAA1vBRlAQ2RlCQAomAMpJFUO9kKL0UC6v70eJpTNdUj-9hm2PCeMP7kn3frK51lg_afv0AipzLzpjmRjqA5WjqJhDTeo4OR4tgyFosYR67D7guc-cGkrPnBwEweAFKsr8MkUrL7u-NFUIdIx_MJEIm4013IV5U4ZjBQA6G7Y1Dpo76glTRNpzQoa1aO5CKNzS2HcGidK3hJsDHHIOy1PQo87-jmH6imPLGP68jueCorcjyHY-mO0b_8Qdigzv5NzzI83BGUpEDh0iDH7O4W96qdSBxHFQh5ivO2UlYMBKPTOARr-9zUxmntNMslU4TTw07ADPKQxp6R-eIexp1XgFMWcwvHjqxozefIk_TgEufWxrRhCBPORQh4_cL-1NDTJhaaPF_3xKDfIzONonmgpF9uhYTeSi_4GeizCFazkhBAS7fyuexAhcZcZikEdrUTHtPlLCXJPVOPoInxqxkAUEhVpX-rUzEd_4Vg7OC33I6jjUEb7VA1wxFbx3ZQUWHmh2482lT6jEcZOZ2L9kam6dlWmkh1Sttp5fcqSw7VhiL7fvmvj_nxU_ivprEvAn-0000]--></g></svg>