<svg xmlns="http://www.w3.org/2000/svg" xmlns:xlink="http://www.w3.org/1999/xlink" contentStyleType="text/css" height="1175px" preserveAspectRatio="none" style="width:4076px;height:1175px;background:#FFFFFF;" version="1.1" viewBox="0 0 4076 1175" width="4076px" zoomAndPan="magnify"><title>OAuth2 -happy path -sekvenssi Koski-servleteiss&#228;</title><defs/><g><text fill="#000000" font-family="sans-serif" font-size="14" font-weight="bold" lengthAdjust="spacing" textLength="396.0947" x="1839.2573" y="27.9951">OAuth2 -happy path -sekvenssi Koski-servleteiss&#228;</text><line style="stroke:#181818;stroke-width:0.5;stroke-dasharray:5.0,5.0;" x1="23" x2="23" y1="118.5938" y2="1095.0391"/><line style="stroke:#181818;stroke-width:0.5;stroke-dasharray:5.0,5.0;" x1="130.5361" x2="130.5361" y1="118.5938" y2="1095.0391"/><line style="stroke:#181818;stroke-width:0.5;stroke-dasharray:5.0,5.0;" x1="468.8774" x2="468.8774" y1="118.5938" y2="1095.0391"/><line style="stroke:#181818;stroke-width:0.5;stroke-dasharray:5.0,5.0;" x1="797.6953" x2="797.6953" y1="118.5938" y2="1095.0391"/><line style="stroke:#181818;stroke-width:0.5;stroke-dasharray:5.0,5.0;" x1="1176.9536" x2="1176.9536" y1="118.5938" y2="1095.0391"/><line style="stroke:#181818;stroke-width:0.5;stroke-dasharray:5.0,5.0;" x1="1555.7197" x2="1555.7197" y1="118.5938" y2="1095.0391"/><line style="stroke:#181818;stroke-width:0.5;stroke-dasharray:5.0,5.0;" x1="1908.1973" x2="1908.1973" y1="118.5938" y2="1095.0391"/><line style="stroke:#181818;stroke-width:0.5;stroke-dasharray:5.0,5.0;" x1="2213.1777" x2="2213.1777" y1="118.5938" y2="1095.0391"/><line style="stroke:#181818;stroke-width:0.5;stroke-dasharray:5.0,5.0;" x1="2642.0835" x2="2642.0835" y1="118.5938" y2="1095.0391"/><line style="stroke:#181818;stroke-width:0.5;stroke-dasharray:5.0,5.0;" x1="2918.3228" x2="2918.3228" y1="118.5938" y2="1095.0391"/><line style="stroke:#181818;stroke-width:0.5;stroke-dasharray:5.0,5.0;" x1="3179.0972" x2="3179.0972" y1="118.5938" y2="1095.0391"/><line style="stroke:#181818;stroke-width:0.5;stroke-dasharray:5.0,5.0;" x1="3605.0078" x2="3605.0078" y1="118.5938" y2="1095.0391"/><line style="stroke:#181818;stroke-width:0.5;stroke-dasharray:5.0,5.0;" x1="3922.623" x2="3922.623" y1="118.5938" y2="1095.0391"/><text fill="#000000" font-family="sans-serif" font-size="14" lengthAdjust="spacing" textLength="30.5361" x="5" y="115.292">user</text><ellipse cx="23.2681" cy="50.7969" fill="#E2E2F0" rx="8" ry="8" style="stroke:#181818;stroke-width:0.5;"/><path d="M23.2681,58.7969 L23.2681,85.7969 M10.2681,66.7969 L36.2681,66.7969 M23.2681,85.7969 L10.2681,100.7969 M23.2681,85.7969 L36.2681,100.7969 " fill="none" style="stroke:#181818;stroke-width:0.5;"/><text fill="#000000" font-family="sans-serif" font-size="14" lengthAdjust="spacing" textLength="30.5361" x="5" y="1107.0342">user</text><ellipse cx="23.2681" cy="1118.8359" fill="#E2E2F0" rx="8" ry="8" style="stroke:#181818;stroke-width:0.5;"/><path d="M23.2681,1126.8359 L23.2681,1153.8359 M10.2681,1134.8359 L36.2681,1134.8359 M23.2681,1153.8359 L10.2681,1168.8359 M23.2681,1153.8359 L36.2681,1168.8359 " fill="none" style="stroke:#181818;stroke-width:0.5;"/><rect fill="#E2E2F0" height="46.5938" rx="2.5" ry="2.5" style="stroke:#181818;stroke-width:0.5;" width="158.6553" x="51.5361" y="71"/><text fill="#000000" font-family="sans-serif" font-size="14" lengthAdjust="spacing" textLength="144.6553" x="58.5361" y="90.9951">Hy&#246;dynt&#228;j&#228;-backend</text><text fill="#000000" font-family="sans-serif" font-size="14" lengthAdjust="spacing" textLength="40.5303" x="110.5986" y="107.292">Client</text><rect fill="#E2E2F0" height="46.5938" rx="2.5" ry="2.5" style="stroke:#181818;stroke-width:0.5;" width="158.6553" x="51.5361" y="1094.0391"/><text fill="#000000" font-family="sans-serif" font-size="14" lengthAdjust="spacing" textLength="144.6553" x="58.5361" y="1114.0342">Hy&#246;dynt&#228;j&#228;-backend</text><text fill="#000000" font-family="sans-serif" font-size="14" lengthAdjust="spacing" textLength="40.5303" x="110.5986" y="1130.3311">Client</text><rect fill="#E2E2F0" height="46.5938" rx="2.5" ry="2.5" style="stroke:#181818;stroke-width:0.5;" width="91.5332" x="423.8774" y="71"/><text fill="#000000" font-family="sans-serif" font-size="14" lengthAdjust="spacing" textLength="77.5332" x="430.8774" y="90.9951">Web-selain</text><text fill="#000000" font-family="sans-serif" font-size="14" lengthAdjust="spacing" textLength="76.8018" x="431.2432" y="107.292">User agent</text><rect fill="#E2E2F0" height="46.5938" rx="2.5" ry="2.5" style="stroke:#181818;stroke-width:0.5;" width="91.5332" x="423.8774" y="1094.0391"/><text fill="#000000" font-family="sans-serif" font-size="14" lengthAdjust="spacing" textLength="77.5332" x="430.8774" y="1114.0342">Web-selain</text><text fill="#000000" font-family="sans-serif" font-size="14" lengthAdjust="spacing" textLength="76.8018" x="431.2432" y="1130.3311">User agent</text><rect fill="#E2E2F0" height="46.5938" rx="2.5" ry="2.5" style="stroke:#181818;stroke-width:0.5;" width="333.8945" x="631.6953" y="71"/><text fill="#000000" font-family="sans-serif" font-size="14" lengthAdjust="spacing" textLength="42.3965" x="777.4443" y="90.9951">KOSKI</text><text fill="#000000" font-family="sans-serif" font-size="14" lengthAdjust="spacing" textLength="319.8945" x="638.6953" y="107.292">OmaDataOAuth2ResourceOwnerReactServlet</text><rect fill="#E2E2F0" height="46.5938" rx="2.5" ry="2.5" style="stroke:#181818;stroke-width:0.5;" width="333.8945" x="631.6953" y="1094.0391"/><text fill="#000000" font-family="sans-serif" font-size="14" lengthAdjust="spacing" textLength="42.3965" x="777.4443" y="1114.0342">KOSKI</text><text fill="#000000" font-family="sans-serif" font-size="14" lengthAdjust="spacing" textLength="319.8945" x="638.6953" y="1130.3311">OmaDataOAuth2ResourceOwnerReactServlet</text><rect fill="#E2E2F0" height="46.5938" rx="2.5" ry="2.5" style="stroke:#181818;stroke-width:0.5;" width="99.0459" x="1127.9536" y="71"/><text fill="#000000" font-family="sans-serif" font-size="14" lengthAdjust="spacing" textLength="85.0459" x="1134.9536" y="90.9951">Opintopolku</text><text fill="#000000" font-family="sans-serif" font-size="14" lengthAdjust="spacing" textLength="77.8408" x="1138.5562" y="107.292">CAS Oppija</text><rect fill="#E2E2F0" height="46.5938" rx="2.5" ry="2.5" style="stroke:#181818;stroke-width:0.5;" width="99.0459" x="1127.9536" y="1094.0391"/><text fill="#000000" font-family="sans-serif" font-size="14" lengthAdjust="spacing" textLength="85.0459" x="1134.9536" y="1114.0342">Opintopolku</text><text fill="#000000" font-family="sans-serif" font-size="14" lengthAdjust="spacing" textLength="77.8408" x="1138.5562" y="1130.3311">CAS Oppija</text><rect fill="#E2E2F0" height="46.5938" rx="2.5" ry="2.5" style="stroke:#181818;stroke-width:0.5;" width="89.1816" x="1511.7197" y="71"/><text fill="#000000" font-family="sans-serif" font-size="14" lengthAdjust="spacing" textLength="42.3965" x="1535.1123" y="90.9951">KOSKI</text><text fill="#000000" font-family="sans-serif" font-size="14" lengthAdjust="spacing" textLength="75.1816" x="1518.7197" y="107.292">CasServlet</text><rect fill="#E2E2F0" height="46.5938" rx="2.5" ry="2.5" style="stroke:#181818;stroke-width:0.5;" width="89.1816" x="1511.7197" y="1094.0391"/><text fill="#000000" font-family="sans-serif" font-size="14" lengthAdjust="spacing" textLength="42.3965" x="1535.1123" y="1114.0342">KOSKI</text><text fill="#000000" font-family="sans-serif" font-size="14" lengthAdjust="spacing" textLength="75.1816" x="1518.7197" y="1130.3311">CasServlet</text><rect fill="#E2E2F0" height="46.5938" rx="2.5" ry="2.5" style="stroke:#181818;stroke-width:0.5;" width="296.9805" x="1760.1973" y="71"/><text fill="#000000" font-family="sans-serif" font-size="14" lengthAdjust="spacing" textLength="42.3965" x="1887.4893" y="90.9951">KOSKI</text><text fill="#000000" font-family="sans-serif" font-size="14" lengthAdjust="spacing" textLength="282.9805" x="1767.1973" y="107.292">OmaDataOAuth2CASWorkaroundServlet</text><rect fill="#E2E2F0" height="46.5938" rx="2.5" ry="2.5" style="stroke:#181818;stroke-width:0.5;" width="296.9805" x="1760.1973" y="1094.0391"/><text fill="#000000" font-family="sans-serif" font-size="14" lengthAdjust="spacing" textLength="42.3965" x="1887.4893" y="1114.0342">KOSKI</text><text fill="#000000" font-family="sans-serif" font-size="14" lengthAdjust="spacing" textLength="282.9805" x="1767.1973" y="1130.3311">OmaDataOAuth2CASWorkaroundServlet</text><rect fill="#E2E2F0" height="46.5938" rx="2.5" ry="2.5" style="stroke:#181818;stroke-width:0.5;" width="293.7881" x="2067.1777" y="71"/><text fill="#000000" font-family="sans-serif" font-size="14" lengthAdjust="spacing" textLength="42.3965" x="2192.8735" y="90.9951">KOSKI</text><text fill="#000000" font-family="sans-serif" font-size="14" lengthAdjust="spacing" textLength="279.7881" x="2074.1777" y="107.292">OmaDataOAuth2ResourceOwnerServlet</text><rect fill="#E2E2F0" height="46.5938" rx="2.5" ry="2.5" style="stroke:#181818;stroke-width:0.5;" width="293.7881" x="2067.1777" y="1094.0391"/><text fill="#000000" font-family="sans-serif" font-size="14" lengthAdjust="spacing" textLength="42.3965" x="2192.8735" y="1114.0342">KOSKI</text><text fill="#000000" font-family="sans-serif" font-size="14" lengthAdjust="spacing" textLength="279.7881" x="2074.1777" y="1130.3311">OmaDataOAuth2ResourceOwnerServlet</text><rect fill="#E2E2F0" height="46.5938" rx="2.5" ry="2.5" style="stroke:#181818;stroke-width:0.5;" width="203.2393" x="2541.0835" y="71"/><text fill="#000000" font-family="sans-serif" font-size="14" lengthAdjust="spacing" textLength="42.3965" x="2621.5049" y="90.9951">KOSKI</text><text fill="#000000" font-family="sans-serif" font-size="14" lengthAdjust="spacing" textLength="189.2393" x="2548.0835" y="107.292">KoskiSpecificLogoutServlet</text><rect fill="#E2E2F0" height="46.5938" rx="2.5" ry="2.5" style="stroke:#181818;stroke-width:0.5;" width="203.2393" x="2541.0835" y="1094.0391"/><text fill="#000000" font-family="sans-serif" font-size="14" lengthAdjust="spacing" textLength="42.3965" x="2621.5049" y="1114.0342">KOSKI</text><text fill="#000000" font-family="sans-serif" font-size="14" lengthAdjust="spacing" textLength="189.2393" x="2548.0835" y="1130.3311">KoskiSpecificLogoutServlet</text><rect fill="#E2E2F0" height="46.5938" rx="2.5" ry="2.5" style="stroke:#181818;stroke-width:0.5;" width="328.7744" x="2754.3228" y="71"/><text fill="#000000" font-family="sans-serif" font-size="14" lengthAdjust="spacing" textLength="42.3965" x="2897.5117" y="90.9951">KOSKI</text><text fill="#000000" font-family="sans-serif" font-size="14" lengthAdjust="spacing" textLength="314.7744" x="2761.3228" y="107.292">OmaDataOAuth2LogoutPostResponseServlet</text><rect fill="#E2E2F0" height="46.5938" rx="2.5" ry="2.5" style="stroke:#181818;stroke-width:0.5;" width="328.7744" x="2754.3228" y="1094.0391"/><text fill="#000000" font-family="sans-serif" font-size="14" lengthAdjust="spacing" textLength="42.3965" x="2897.5117" y="1114.0342">KOSKI</text><text fill="#000000" font-family="sans-serif" font-size="14" lengthAdjust="spacing" textLength="314.7744" x="2761.3228" y="1130.3311">OmaDataOAuth2LogoutPostResponseServlet</text><rect fill="#E2E2F0" height="46.5938" rx="2.5" ry="2.5" style="stroke:#181818;stroke-width:0.5;" width="172.6074" x="3093.0972" y="71"/><text fill="#000000" font-family="sans-serif" font-size="14" lengthAdjust="spacing" textLength="158.6074" x="3100.0972" y="90.9951">KOSKI-luovutuspalvelu</text><text fill="#000000" font-family="sans-serif" font-size="14" lengthAdjust="spacing" textLength="38.8076" x="3159.9971" y="107.292">nginx</text><rect fill="#E2E2F0" height="46.5938" rx="2.5" ry="2.5" style="stroke:#181818;stroke-width:0.5;" width="172.6074" x="3093.0972" y="1094.0391"/><text fill="#000000" font-family="sans-serif" font-size="14" lengthAdjust="spacing" textLength="158.6074" x="3100.0972" y="1114.0342">KOSKI-luovutuspalvelu</text><text fill="#000000" font-family="sans-serif" font-size="14" lengthAdjust="spacing" textLength="38.8076" x="3159.9971" y="1130.3311">nginx</text><rect fill="#E2E2F0" height="46.5938" rx="2.5" ry="2.5" style="stroke:#181818;stroke-width:0.5;" width="322.6152" x="3444.0078" y="71"/><text fill="#000000" font-family="sans-serif" font-size="14" lengthAdjust="spacing" textLength="42.3965" x="3584.1172" y="90.9951">KOSKI</text><text fill="#000000" font-family="sans-serif" font-size="14" lengthAdjust="spacing" textLength="308.6152" x="3451.0078" y="107.292">OmaDataOAuth2AuthorizationServerServlet</text><rect fill="#E2E2F0" height="46.5938" rx="2.5" ry="2.5" style="stroke:#181818;stroke-width:0.5;" width="322.6152" x="3444.0078" y="1094.0391"/><text fill="#000000" font-family="sans-serif" font-size="14" lengthAdjust="spacing" textLength="42.3965" x="3584.1172" y="1114.0342">KOSKI</text><text fill="#000000" font-family="sans-serif" font-size="14" lengthAdjust="spacing" textLength="308.6152" x="3451.0078" y="1130.3311">OmaDataOAuth2AuthorizationServerServlet</text><rect fill="#E2E2F0" height="46.5938" rx="2.5" ry="2.5" style="stroke:#181818;stroke-width:0.5;" width="293.9863" x="3776.623" y="71"/><text fill="#000000" font-family="sans-serif" font-size="14" lengthAdjust="spacing" textLength="42.3965" x="3902.418" y="90.9951">KOSKI</text><text fill="#000000" font-family="sans-serif" font-size="14" lengthAdjust="spacing" textLength="279.9863" x="3783.623" y="107.292">OmaDataOAuth2ResourceServerServlet</text><rect fill="#E2E2F0" height="46.5938" rx="2.5" ry="2.5" style="stroke:#181818;stroke-width:0.5;" width="293.9863" x="3776.623" y="1094.0391"/><text fill="#000000" font-family="sans-serif" font-size="14" lengthAdjust="spacing" textLength="42.3965" x="3902.418" y="1114.0342">KOSKI</text><text fill="#000000" font-family="sans-serif" font-size="14" lengthAdjust="spacing" textLength="279.9863" x="3783.623" y="1130.3311">OmaDataOAuth2ResourceServerServlet</text><polygon fill="#181818" points="457.644,145.7266,467.644,149.7266,457.644,153.7266,461.644,149.7266" style="stroke:#181818;stroke-width:1.0;"/><line style="stroke:#181818;stroke-width:1.0;" x1="130.8638" x2="463.644" y1="149.7266" y2="149.7266"/><text fill="#000000" font-family="sans-serif" font-size="13" lengthAdjust="spacing" textLength="314.7803" x="137.8638" y="144.6606">OPEN /koski/omadata-oauth2/authorize/PARAMS</text><polygon fill="#181818" points="786.6426,174.8594,796.6426,178.8594,786.6426,182.8594,790.6426,178.8594" style="stroke:#181818;stroke-width:1.0;"/><line style="stroke:#181818;stroke-width:1.0;" x1="469.644" x2="792.6426" y1="178.8594" y2="178.8594"/><text fill="#000000" font-family="sans-serif" font-size="13" lengthAdjust="spacing" textLength="304.9985" x="476.644" y="173.7935">GET /koski/omadata-oauth2/authorize/PARAMS</text><polygon fill="#181818" points="1165.4766,249.3906,1175.4766,253.3906,1165.4766,257.3906,1169.4766,253.3906" style="stroke:#181818;stroke-width:1.0;"/><line style="stroke:#181818;stroke-width:1.0;" x1="798.6426" x2="1171.4766" y1="253.3906" y2="253.3906"/><text fill="#000000" font-family="sans-serif" font-size="13" lengthAdjust="spacing" textLength="335.6006" x="805.6426" y="202.9263">REDIRECT https://opintopolku.fi/cas-oppija/login/fi/?</text><text fill="#000000" font-family="sans-serif" font-size="13" lengthAdjust="spacing" textLength="172.4277" x="813.9072" y="218.0591">service=/koski/cas/oppija?</text><text fill="#000000" font-family="sans-serif" font-size="13" lengthAdjust="spacing" textLength="338.3047" x="822.1719" y="233.1919">onSuccess=/koski/omadata-oauth2/cas-workaround</text><text fill="#000000" font-family="sans-serif" font-size="13" lengthAdjust="spacing" textLength="272.7524" x="830.4365" y="248.3247">/authorize/BASE64URLENCODED_PARAMS</text><polygon fill="#181818" points="480.644,278.5234,470.644,282.5234,480.644,286.5234,476.644,282.5234" style="stroke:#181818;stroke-width:1.0;"/><line style="stroke:#181818;stroke-width:1.0;" x1="474.644" x2="1176.4766" y1="282.5234" y2="282.5234"/><text fill="#000000" font-family="sans-serif" font-size="13" lengthAdjust="spacing" textLength="66.3076" x="486.644" y="277.4575">Login-sivu</text><polygon fill="#181818" points="457.644,307.6563,467.644,311.6563,457.644,315.6563,461.644,311.6563" style="stroke:#181818;stroke-width:1.0;"/><line style="stroke:#181818;stroke-width:1.0;" x1="23.2681" x2="463.644" y1="311.6563" y2="311.6563"/><text fill="#000000" font-family="sans-serif" font-size="13" lengthAdjust="spacing" textLength="89.4004" x="30.2681" y="306.5903">Suomi.fi-login</text><polygon fill="#181818" points="1165.4766,336.7891,1175.4766,340.7891,1165.4766,344.7891,1169.4766,340.7891" style="stroke:#181818;stroke-width:1.0;"/><line style="stroke:#181818;stroke-width:1.0;" x1="469.644" x2="1171.4766" y1="340.7891" y2="340.7891"/><text fill="#000000" font-family="sans-serif" font-size="13" lengthAdjust="spacing" textLength="89.4004" x="476.644" y="335.7231">Suomi.fi-login</text><polygon fill="#181818" points="1544.3105,396.1875,1554.3105,400.1875,1544.3105,404.1875,1548.3105,400.1875" style="stroke:#181818;stroke-width:1.0;"/><line style="stroke:#181818;stroke-width:1.0;" x1="1177.4766" x2="1550.3105" y1="400.1875" y2="400.1875"/><text fill="#000000" font-family="sans-serif" font-size="13" lengthAdjust="spacing" textLength="184.4565" x="1184.4766" y="364.856">REDIRECT /koski/cas/oppija?</text><text fill="#000000" font-family="sans-serif" font-size="13" lengthAdjust="spacing" textLength="338.3047" x="1201.0059" y="379.9888">onSuccess=/koski/omadata-oauth2/cas-workaround</text><text fill="#000000" font-family="sans-serif" font-size="13" lengthAdjust="spacing" textLength="272.7524" x="1209.2705" y="395.1216">/authorize/BASE64URLENCODED_PARAMS</text><polygon fill="#181818" points="1896.6875,440.4531,1906.6875,444.4531,1896.6875,448.4531,1900.6875,444.4531" style="stroke:#181818;stroke-width:1.0;"/><line style="stroke:#181818;stroke-width:1.0;" x1="1556.3105" x2="1902.6875" y1="444.4531" y2="444.4531"/><text fill="#000000" font-family="sans-serif" font-size="13" lengthAdjust="spacing" textLength="328.377" x="1563.3105" y="424.2544">REDIRECT /koski/omadata-oauth2/cas-workaround</text><text fill="#000000" font-family="sans-serif" font-size="13" lengthAdjust="spacing" textLength="272.7524" x="1588.1045" y="439.3872">/authorize/BASE64URLENCODED_PARAMS</text><polygon fill="#181818" points="809.6426,469.5859,799.6426,473.5859,809.6426,477.5859,805.6426,473.5859" style="stroke:#181818;stroke-width:1.0;"/><line style="stroke:#181818;stroke-width:1.0;" x1="803.6426" x2="1907.6875" y1="473.5859" y2="473.5859"/><text fill="#000000" font-family="sans-serif" font-size="13" lengthAdjust="spacing" textLength="344.1255" x="815.6426" y="468.52">REDIRECT /koski/omadata-oauth2/authorize/PARAMS</text><polygon fill="#181818" points="480.644,498.7188,470.644,502.7188,480.644,506.7188,476.644,502.7188" style="stroke:#181818;stroke-width:1.0;"/><line style="stroke:#181818;stroke-width:1.0;" x1="474.644" x2="797.6426" y1="502.7188" y2="502.7188"/><text fill="#000000" font-family="sans-serif" font-size="13" lengthAdjust="spacing" textLength="107.4341" x="486.644" y="497.6528">Hyv&#228;ksynt&#228;-sivu</text><polygon fill="#181818" points="457.644,527.8516,467.644,531.8516,457.644,535.8516,461.644,531.8516" style="stroke:#181818;stroke-width:1.0;"/><line style="stroke:#181818;stroke-width:1.0;" x1="23.2681" x2="463.644" y1="531.8516" y2="531.8516"/><text fill="#000000" font-family="sans-serif" font-size="13" lengthAdjust="spacing" textLength="120.2119" x="30.2681" y="526.7856">Hyv&#228;ksy valtuutus</text><polygon fill="#181818" points="2202.0718,556.9844,2212.0718,560.9844,2202.0718,564.9844,2206.0718,560.9844" style="stroke:#181818;stroke-width:1.0;"/><line style="stroke:#181818;stroke-width:1.0;" x1="469.644" x2="2208.0718" y1="560.9844" y2="560.9844"/><text fill="#000000" font-family="sans-serif" font-size="13" lengthAdjust="spacing" textLength="336.1084" x="476.644" y="555.9185">GET /koski/api/omadata-oauth2/authorize/?PARAMS</text><polygon fill="#181818" points="2630.7031,616.3828,2640.7031,620.3828,2630.7031,624.3828,2634.7031,620.3828" style="stroke:#181818;stroke-width:1.0;"/><line style="stroke:#181818;stroke-width:1.0;" x1="2214.0718" x2="2636.7031" y1="620.3828" y2="620.3828"/><text fill="#000000" font-family="sans-serif" font-size="13" lengthAdjust="spacing" textLength="192.3848" x="2221.0718" y="585.0513">REDIRECT /koski/user/logout?</text><text fill="#000000" font-family="sans-serif" font-size="13" lengthAdjust="spacing" textLength="309.5371" x="2229.3364" y="600.1841">target=/koski/omadata-oauth2/cas-workaround</text><text fill="#000000" font-family="sans-serif" font-size="13" lengthAdjust="spacing" textLength="379.8374" x="2245.8657" y="615.3169">/post-response/BASE64URLENCODED_RESPONSE_PARAMS</text><polygon fill="#181818" points="1188.4766,675.7813,1178.4766,679.7813,1188.4766,683.7813,1184.4766,679.7813" style="stroke:#181818;stroke-width:1.0;"/><line style="stroke:#181818;stroke-width:1.0;" x1="1182.4766" x2="2641.7031" y1="679.7813" y2="679.7813"/><text fill="#000000" font-family="sans-serif" font-size="13" lengthAdjust="spacing" textLength="192.48" x="1194.4766" y="644.4497">REDIRECT /cas-oppija/logout?</text><text fill="#000000" font-family="sans-serif" font-size="13" lengthAdjust="spacing" textLength="316.3481" x="1202.7412" y="659.5825">service=/koski/omadata-oauth2/cas-workaround</text><text fill="#000000" font-family="sans-serif" font-size="13" lengthAdjust="spacing" textLength="379.8374" x="1219.2705" y="674.7153">/post-response/BASE64URLENCODED_RESPONSE_PARAMS</text><polygon fill="#181818" points="1896.6875,720.0469,1906.6875,724.0469,1896.6875,728.0469,1900.6875,724.0469" style="stroke:#181818;stroke-width:1.0;"/><line style="stroke:#181818;stroke-width:1.0;" x1="1177.4766" x2="1902.6875" y1="724.0469" y2="724.0469"/><text fill="#000000" font-family="sans-serif" font-size="13" lengthAdjust="spacing" textLength="328.377" x="1184.4766" y="703.8481">REDIRECT /koski/omadata-oauth2/cas-workaround</text><text fill="#000000" font-family="sans-serif" font-size="13" lengthAdjust="spacing" textLength="379.8374" x="1209.2705" y="718.981">/post-response/BASE64URLENCODED_RESPONSE_PARAMS</text><polygon fill="#181818" points="2906.71,749.1797,2916.71,753.1797,2906.71,757.1797,2910.71,753.1797" style="stroke:#181818;stroke-width:1.0;"/><line style="stroke:#181818;stroke-width:1.0;" x1="1908.6875" x2="2912.71" y1="753.1797" y2="753.1797"/><text fill="#000000" font-family="sans-serif" font-size="13" lengthAdjust="spacing" textLength="300.7329" x="1915.6875" y="748.1138">REDIRECT /post-response/RESPONSE_PARAMS</text><polygon fill="#181818" points="480.644,778.3125,470.644,782.3125,480.644,786.3125,476.644,782.3125" style="stroke:#181818;stroke-width:1.0;"/><line style="stroke:#181818;stroke-width:1.0;" x1="474.644" x2="2917.71" y1="782.3125" y2="782.3125"/><text fill="#000000" font-family="sans-serif" font-size="13" lengthAdjust="spacing" textLength="330.916" x="486.644" y="777.2466">Auto-submit web form, jossa RESPONSE inputteina</text><polygon fill="#181818" points="141.8638,822.5781,131.8638,826.5781,141.8638,830.5781,137.8638,826.5781" style="stroke:#181818;stroke-width:1.0;"/><line style="stroke:#181818;stroke-width:1.0;" x1="135.8638" x2="468.644" y1="826.5781" y2="826.5781"/><text fill="#000000" font-family="sans-serif" font-size="13" lengthAdjust="spacing" textLength="112.8867" x="147.8638" y="806.3794">POST redirect_uri</text><text fill="#000000" font-family="sans-serif" font-size="13" lengthAdjust="spacing" textLength="156.8379" x="147.8638" y="821.5122">body=CODE_RESPONSE</text><polygon fill="#181818" points="3167.4009,866.8438,3177.4009,870.8438,3167.4009,874.8438,3171.4009,870.8438" style="stroke:#181818;stroke-width:1.0;"/><line style="stroke:#181818;stroke-width:1.0;" x1="130.8638" x2="3173.4009" y1="870.8438" y2="870.8438"/><text fill="#000000" font-family="sans-serif" font-size="13" lengthAdjust="spacing" textLength="431.9072" x="137.8638" y="850.645">mutual-TLS POST /koski/api/omadata-oauth2/authorization-server/</text><text fill="#000000" font-family="sans-serif" font-size="13" lengthAdjust="spacing" textLength="141.2036" x="146.1284" y="865.7778">body=CODE_PARAMS</text><polygon fill="#181818" points="3593.3154,911.1094,3603.3154,915.1094,3593.3154,919.1094,3597.3154,915.1094" style="stroke:#181818;stroke-width:1.0;"/><line style="stroke:#181818;stroke-width:1.0;" x1="3179.4009" x2="3599.3154" y1="915.1094" y2="915.1094"/><text fill="#000000" font-family="sans-serif" font-size="13" lengthAdjust="spacing" textLength="401.9146" x="3186.4009" y="894.9106">PROXY POST /koski/api/omadata-oauth2/authorization-server/</text><text fill="#000000" font-family="sans-serif" font-size="13" lengthAdjust="spacing" textLength="322.4546" x="3194.6655" y="910.0435">Authorization=BasicAuth&amp;  body=CODE_PARAMS</text><polygon fill="#181818" points="141.8638,940.2422,131.8638,944.2422,141.8638,948.2422,137.8638,944.2422" style="stroke:#181818;stroke-width:1.0;"/><line style="stroke:#181818;stroke-width:1.0;" x1="135.8638" x2="3604.3154" y1="944.2422" y2="944.2422"/><text fill="#000000" font-family="sans-serif" font-size="13" lengthAdjust="spacing" textLength="120.8975" x="147.8638" y="939.1763">TOKEN_RESPONSE</text><polygon fill="#181818" points="3167.4009,984.5078,3177.4009,988.5078,3167.4009,992.5078,3171.4009,988.5078" style="stroke:#181818;stroke-width:1.0;"/><line style="stroke:#181818;stroke-width:1.0;" x1="130.8638" x2="3173.4009" y1="988.5078" y2="988.5078"/><text fill="#000000" font-family="sans-serif" font-size="13" lengthAdjust="spacing" textLength="390.146" x="137.8638" y="968.3091">mutual-TLS GET /koski/api/omadata-oauth2/resource-server</text><text fill="#000000" font-family="sans-serif" font-size="13" lengthAdjust="spacing" textLength="190.3027" x="146.1284" y="983.4419">Authorization=Bearer TOKEN</text><polygon fill="#181818" points="3911.6162,1043.9063,3921.6162,1047.9063,3911.6162,1051.9063,3915.6162,1047.9063" style="stroke:#181818;stroke-width:1.0;"/><line style="stroke:#181818;stroke-width:1.0;" x1="3179.4009" x2="3917.6162" y1="1047.9063" y2="1047.9063"/><text fill="#000000" font-family="sans-serif" font-size="13" lengthAdjust="spacing" textLength="368.1895" x="3186.4009" y="1012.5747">PROXY POST /koski/api/omadata-oauth2/resource-server</text><text fill="#000000" font-family="sans-serif" font-size="13" lengthAdjust="spacing" textLength="162.8491" x="3194.6655" y="1027.7075">Authorization=BasicAuth</text><text fill="#000000" font-family="sans-serif" font-size="13" lengthAdjust="spacing" textLength="147.2974" x="3194.6655" y="1042.8403">X-Auth=Bearer TOKEN</text><polygon fill="#181818" points="141.8638,1073.0391,131.8638,1077.0391,141.8638,1081.0391,137.8638,1077.0391" style="stroke:#181818;stroke-width:1.0;"/><line style="stroke:#181818;stroke-width:1.0;" x1="135.8638" x2="3922.6162" y1="1077.0391" y2="1077.0391"/><text fill="#000000" font-family="sans-serif" font-size="13" lengthAdjust="spacing" textLength="35.7373" x="147.8638" y="1071.9731">DATA</text><!--SRC=[lLVTRjem5BxFK_Xgkrc8D5MzYCGg2j5QmGWYLEsqJiWaRd49TkGVElOyFCDUW1URdH18GaZ2kkq6Y7r-llFvV2T6O14Yu7Qac7y4vXn6qHf4KCo1oT5YXGZd6FGfNs3rp5OX4WXpljqO1lG5PK2gLSE881FOnn4a0lWXHkhhcm70pNhxArWJiTsyR3Vc3FeBH0ArterDZEzvHnrg2fzJvtiqKob3Y8bwk5Dx8DxJNk-1jT2GBBg40HJGf533j_GdPVWdidE1tINiAQkanZ7YL38VkQy4iJ5ILNX9NN7IlklrRzLtCvS4oro8YDkM9OcGAqWZJ0IDQBYGhITi-P2RD8hm2xH2-eo9fTQkD9FOH-rMgvMd3l9fOXo3SG-XD6aTJwtepHm5oiTAVDgKUDBt4USwS9w2BkHbPHwMgsZLDRnIje2CIX8SMBRi6UJeyaAo416V1YXGAU6IdoPVrN2_3rJBUvbr3YUCtju2vvr-6GhTj_fmgHHN0h9d9DgvtB5wl0Zv-0dxWzWkatINyxHHKIOvS8dbY7AXO4QKS5HRpqaNdMWdNlDJLeqsS4VEi4vprgWpxdpn32FZgU8q59yDFZkJnYaQ1bNfCvAomTZftOwTxcGlsIPYVIG0f88zqboy2y11UKqKbFW0a2dikkCvbnTtuu4pxBezfpTDAytWBnxAG4CqELx9XFCZ0q_I9LPrcN4nnOF9CLCqpQVDJ8yCYV-VZ0oEOcULJfPZi7yDIdtoStg_1kPR193hY9lrQhjPyFYLNDKvgHrOmL18AIHlBkjIHLTDQkkglgfCGHNZz9Z8x6pMnxkRpsTrGwH6fSbsi_Au8yQEDtA7dhDlZGg09mTIOVIaS0jpvz_WpMlztwdgN5pdI-pqsp2BEO-ZEktfY4N9A7DgSZbROW5UqGmyKRRy05uevn2aEG0caHJg1atWqJHENhms6BdU130KO8PyCPKCFv8P3TPjJTAUe_oD89HqfJKQmN25GdbuzPk57RLEr7Z_KNcbwEnq2GLMarnLs-2ETDgdCbKgyOPPIitpjvOY5JPOgaSOcfE1br1RFv3Y8k9_EsfswEuzy9_sI35DiH4hE5GdF7OVllunc5pezZNasDTBxyfWDiMKxR-9stU6cKPho6trh6UxaziLKb87WaozX-BazVIMzqr3Pkknf9pghGTJ_ohWQm0cIsclC-aOlm40]--></g></svg>