<svg xmlns="http://www.w3.org/2000/svg" xmlns:xlink="http://www.w3.org/1999/xlink" contentStyleType="text/css" height="2302px" preserveAspectRatio="none" style="width:2037px;height:2302px;background:#FFFFFF;" version="1.1" viewBox="0 0 2037 2302" width="2037px" zoomAndPan="magnify"><title>OAuth2 -happy path -sekvenssi esimerkki-hy&#246;dynt&#228;j&#228;lle</title><defs/><g><text fill="#000000" font-family="sans-serif" font-size="14" font-weight="bold" lengthAdjust="spacing" textLength="442.2715" x="799.0308" y="27.9951">OAuth2 -happy path -sekvenssi esimerkki-hy&#246;dynt&#228;j&#228;lle</text><rect fill="none" height="464.7891" style="stroke:#000000;stroke-width:1.5;" width="969.9351" x="20" y="135.5938"/><rect fill="none" height="779.5156" style="stroke:#000000;stroke-width:1.5;" width="2011.333" x="20" y="614.3828"/><rect fill="none" height="307.8594" style="stroke:#000000;stroke-width:1.5;" width="1721.3848" x="160" y="1407.8984"/><rect fill="none" height="147.7969" style="stroke:#000000;stroke-width:1.5;" width="1561.1865" x="262.3711" y="1729.7578"/><rect fill="none" height="313.4609" style="stroke:#000000;stroke-width:1.5;" width="989.9351" x="10" y="1891.5547"/><rect fill="none" height="108.5313" style="stroke:#000000;stroke-width:1.5;" width="969.9351" x="20" y="2089.4844"/><line style="stroke:#181818;stroke-width:0.5;stroke-dasharray:5.0,5.0;" x1="62" x2="62" y1="118.5938" y2="2222.0156"/><line style="stroke:#181818;stroke-width:0.5;stroke-dasharray:5.0,5.0;" x1="183.0713" x2="183.0713" y1="118.5938" y2="2222.0156"/><line style="stroke:#181818;stroke-width:0.5;stroke-dasharray:5.0,5.0;" x1="401.3711" x2="401.3711" y1="118.5938" y2="2222.0156"/><line style="stroke:#181818;stroke-width:0.5;stroke-dasharray:5.0,5.0;" x1="904.9438" x2="904.9438" y1="118.5938" y2="2222.0156"/><line style="stroke:#181818;stroke-width:0.5;stroke-dasharray:5.0,5.0;" x1="1560.4746" x2="1560.4746" y1="118.5938" y2="2222.0156"/><line style="stroke:#181818;stroke-width:0.5;stroke-dasharray:5.0,5.0;" x1="1881.9531" x2="1881.9531" y1="118.5938" y2="2222.0156"/><text fill="#000000" font-family="sans-serif" font-size="14" lengthAdjust="spacing" textLength="58.0713" x="30" y="115.292">K&#228;ytt&#228;j&#228;</text><ellipse cx="62.0356" cy="50.7969" fill="#E2E2F0" rx="8" ry="8" style="stroke:#181818;stroke-width:0.5;"/><path d="M62.0356,58.7969 L62.0356,85.7969 M49.0356,66.7969 L75.0356,66.7969 M62.0356,85.7969 L49.0356,100.7969 M62.0356,85.7969 L75.0356,100.7969 " fill="none" style="stroke:#181818;stroke-width:0.5;"/><text fill="#000000" font-family="sans-serif" font-size="14" lengthAdjust="spacing" textLength="58.0713" x="30" y="2234.0107">K&#228;ytt&#228;j&#228;</text><ellipse cx="62.0356" cy="2245.8125" fill="#E2E2F0" rx="8" ry="8" style="stroke:#181818;stroke-width:0.5;"/><path d="M62.0356,2253.8125 L62.0356,2280.8125 M49.0356,2261.8125 L75.0356,2261.8125 M62.0356,2280.8125 L49.0356,2295.8125 M62.0356,2280.8125 L75.0356,2295.8125 " fill="none" style="stroke:#181818;stroke-width:0.5;"/><rect fill="#E2E2F0" height="30.2969" rx="2.5" ry="2.5" style="stroke:#181818;stroke-width:0.5;" width="158.2998" x="104.0713" y="87.2969"/><text fill="#000000" font-family="sans-serif" font-size="14" lengthAdjust="spacing" textLength="144.2998" x="111.0713" y="107.292">Hy&#246;dynt&#228;j&#228;n palvelu</text><rect fill="#E2E2F0" height="30.2969" rx="2.5" ry="2.5" style="stroke:#181818;stroke-width:0.5;" width="158.2998" x="104.0713" y="2221.0156"/><text fill="#000000" font-family="sans-serif" font-size="14" lengthAdjust="spacing" textLength="144.2998" x="111.0713" y="2241.0107">Hy&#246;dynt&#228;j&#228;n palvelu</text><rect fill="#E2E2F0" height="46.5938" rx="2.5" ry="2.5" style="stroke:#181818;stroke-width:0.5;" width="259.6631" x="272.3711" y="71"/><text fill="#000000" font-family="sans-serif" font-size="14" lengthAdjust="spacing" textLength="245.6631" x="279.3711" y="90.9951">Hy&#246;dynt&#228;j&#228;n OAuth2-alij&#228;rjestelm&#228;</text><text fill="#000000" font-family="sans-serif" font-size="14" lengthAdjust="spacing" textLength="97.7197" x="353.3428" y="107.292">OAuth2 Client</text><rect fill="#E2E2F0" height="46.5938" rx="2.5" ry="2.5" style="stroke:#181818;stroke-width:0.5;" width="259.6631" x="272.3711" y="2221.0156"/><text fill="#000000" font-family="sans-serif" font-size="14" lengthAdjust="spacing" textLength="245.6631" x="279.3711" y="2241.0107">Hy&#246;dynt&#228;j&#228;n OAuth2-alij&#228;rjestelm&#228;</text><text fill="#000000" font-family="sans-serif" font-size="14" lengthAdjust="spacing" textLength="97.7197" x="353.3428" y="2257.3076">OAuth2 Client</text><rect fill="#E2E2F0" height="46.5938" rx="2.5" ry="2.5" style="stroke:#181818;stroke-width:0.5;" width="147.9912" x="831.9438" y="71"/><text fill="#000000" font-family="sans-serif" font-size="14" lengthAdjust="spacing" textLength="77.5332" x="867.1729" y="90.9951">Web-selain</text><text fill="#000000" font-family="sans-serif" font-size="14" lengthAdjust="spacing" textLength="133.9912" x="838.9438" y="107.292">OAuth2 User agent</text><rect fill="#E2E2F0" height="46.5938" rx="2.5" ry="2.5" style="stroke:#181818;stroke-width:0.5;" width="147.9912" x="831.9438" y="2221.0156"/><text fill="#000000" font-family="sans-serif" font-size="14" lengthAdjust="spacing" textLength="77.5332" x="867.1729" y="2241.0107">Web-selain</text><text fill="#000000" font-family="sans-serif" font-size="14" lengthAdjust="spacing" textLength="133.9912" x="838.9438" y="2257.3076">OAuth2 User agent</text><rect fill="#E2E2F0" height="46.5938" rx="2.5" ry="2.5" style="stroke:#181818;stroke-width:0.5;" width="343.4785" x="1389.4746" y="71"/><text fill="#000000" font-family="sans-serif" font-size="14" lengthAdjust="spacing" textLength="42.3965" x="1540.0156" y="90.9951">KOSKI</text><text fill="#000000" font-family="sans-serif" font-size="14" lengthAdjust="spacing" textLength="329.4785" x="1396.4746" y="107.292">OAuth2 Authorization server &amp; resource server</text><rect fill="#E2E2F0" height="46.5938" rx="2.5" ry="2.5" style="stroke:#181818;stroke-width:0.5;" width="343.4785" x="1389.4746" y="2221.0156"/><text fill="#000000" font-family="sans-serif" font-size="14" lengthAdjust="spacing" textLength="42.3965" x="1540.0156" y="2241.0107">KOSKI</text><text fill="#000000" font-family="sans-serif" font-size="14" lengthAdjust="spacing" textLength="329.4785" x="1396.4746" y="2257.3076">OAuth2 Authorization server &amp; resource server</text><rect fill="#E2E2F0" height="30.2969" rx="2.5" ry="2.5" style="stroke:#181818;stroke-width:0.5;" width="278.3799" x="1742.9531" y="87.2969"/><text fill="#000000" font-family="sans-serif" font-size="14" lengthAdjust="spacing" textLength="264.3799" x="1749.9531" y="107.292">Opintopolku &amp; Suomi.fi-kirjautuminen</text><rect fill="#E2E2F0" height="30.2969" rx="2.5" ry="2.5" style="stroke:#181818;stroke-width:0.5;" width="278.3799" x="1742.9531" y="2221.0156"/><text fill="#000000" font-family="sans-serif" font-size="14" lengthAdjust="spacing" textLength="264.3799" x="1749.9531" y="2241.0107">Opintopolku &amp; Suomi.fi-kirjautuminen</text><path d="M20,135.5938 L466.9717,135.5938 L466.9717,188.125 L456.9717,198.125 L20,198.125 L20,135.5938 " fill="#EEEEEE" style="stroke:#000000;stroke-width:1.5;"/><rect fill="none" height="464.7891" style="stroke:#000000;stroke-width:1.5;" width="969.9351" x="20" y="135.5938"/><text fill="#000000" font-family="sans-serif" font-size="13" font-weight="bold" lengthAdjust="spacing" textLength="360.0771" x="35" y="148.6606">Esimerkki hy&#246;dynt&#228;j&#228;n palvelusta, jossa erillinen</text><text fill="#000000" font-family="sans-serif" font-size="13" font-weight="bold" lengthAdjust="spacing" textLength="228.0332" x="39.5259" y="163.7935">alij&#228;rjestelm&#228; OAuth2-clientille</text><text fill="#000000" font-family="sans-serif" font-size="13" font-weight="bold" lengthAdjust="spacing" textLength="397.4458" x="39.5259" y="178.9263">HUOM: Hy&#246;dynt&#228;j&#228;n palveluiden sis&#228;isi&#228; kirjautumisia</text><text fill="#000000" font-family="sans-serif" font-size="13" font-weight="bold" lengthAdjust="spacing" textLength="326.7012" x="44.0518" y="194.0591">ja muita autentikointeja ei ole t&#228;ss&#228; kuvattu</text><polygon fill="#181818" points="893.9395,215.2578,903.9395,219.2578,893.9395,223.2578,897.9395,219.2578" style="stroke:#181818;stroke-width:1.0;"/><line style="stroke:#181818;stroke-width:1.0;" x1="62.0356" x2="899.9395" y1="219.2578" y2="219.2578"/><text fill="#000000" font-family="sans-serif" font-size="13" lengthAdjust="spacing" textLength="126.8262" x="69.0356" y="214.1919">OPEN https://client/</text><polygon fill="#181818" points="194.2212,244.3906,184.2212,248.3906,194.2212,252.3906,190.2212,248.3906" style="stroke:#181818;stroke-width:1.0;"/><line style="stroke:#181818;stroke-width:1.0;" x1="188.2212" x2="904.9395" y1="248.3906" y2="248.3906"/><text fill="#000000" font-family="sans-serif" font-size="13" lengthAdjust="spacing" textLength="34.7407" x="200.2212" y="243.3247">GET /</text><polygon fill="#181818" points="893.9395,273.5234,903.9395,277.5234,893.9395,281.5234,897.9395,277.5234" style="stroke:#181818;stroke-width:1.0;"/><line style="stroke:#181818;stroke-width:1.0;" x1="183.2212" x2="899.9395" y1="277.5234" y2="277.5234"/><text fill="#000000" font-family="sans-serif" font-size="13" lengthAdjust="spacing" textLength="67.1836" x="190.2212" y="272.4575">HTML-sivu</text><polygon fill="#181818" points="893.9395,302.6563,903.9395,306.6563,893.9395,310.6563,897.9395,306.6563" style="stroke:#181818;stroke-width:1.0;"/><line style="stroke:#181818;stroke-width:1.0;" x1="62.0356" x2="899.9395" y1="306.6563" y2="306.6563"/><text fill="#000000" font-family="sans-serif" font-size="13" lengthAdjust="spacing" textLength="331.9507" x="69.0356" y="301.5903">OPEN "Lis&#228;&#228;/k&#228;sittele KOSKI-opintotiedot"-toiminto</text><polygon fill="#181818" points="194.2212,331.7891,184.2212,335.7891,194.2212,339.7891,190.2212,335.7891" style="stroke:#181818;stroke-width:1.0;"/><line style="stroke:#181818;stroke-width:1.0;" x1="188.2212" x2="904.9395" y1="335.7891" y2="335.7891"/><text fill="#000000" font-family="sans-serif" font-size="13" lengthAdjust="spacing" textLength="151.9438" x="200.2212" y="330.7231">GET /koski-opintotiedot</text><polygon fill="#181818" points="893.9395,360.9219,903.9395,364.9219,893.9395,368.9219,897.9395,364.9219" style="stroke:#181818;stroke-width:1.0;"/><line style="stroke:#181818;stroke-width:1.0;" x1="183.2212" x2="899.9395" y1="364.9219" y2="364.9219"/><text fill="#000000" font-family="sans-serif" font-size="13" lengthAdjust="spacing" textLength="323.832" x="190.2212" y="359.856">REDIRECT https://oauth2-client/koski-opintotiedot</text><polygon fill="#181818" points="413.2026,390.0547,403.2026,394.0547,413.2026,398.0547,409.2026,394.0547" style="stroke:#181818;stroke-width:1.0;"/><line style="stroke:#181818;stroke-width:1.0;" x1="407.2026" x2="904.9395" y1="394.0547" y2="394.0547"/><text fill="#000000" font-family="sans-serif" font-size="13" lengthAdjust="spacing" textLength="151.9438" x="419.2026" y="388.9888">GET /koski-opintotiedot</text><line style="stroke:#181818;stroke-width:1.0;" x1="402.2026" x2="444.2026" y1="423.1875" y2="423.1875"/><line style="stroke:#181818;stroke-width:1.0;" x1="444.2026" x2="444.2026" y1="423.1875" y2="436.1875"/><line style="stroke:#181818;stroke-width:1.0;" x1="403.2026" x2="444.2026" y1="436.1875" y2="436.1875"/><polygon fill="#181818" points="413.2026,432.1875,403.2026,436.1875,413.2026,440.1875,409.2026,436.1875" style="stroke:#181818;stroke-width:1.0;"/><text fill="#000000" font-family="sans-serif" font-size="13" lengthAdjust="spacing" textLength="440.1592" x="409.2026" y="418.1216">Luo CODE_VERIFIER ja CODE_CHALLENGE, tallenna CODE_VERIFIER</text><polygon fill="#181818" points="893.9395,524.8516,903.9395,528.8516,893.9395,532.8516,897.9395,528.8516" style="stroke:#181818;stroke-width:1.0;"/><line style="stroke:#181818;stroke-width:1.0;" x1="402.2026" x2="899.9395" y1="528.8516" y2="528.8516"/><text fill="#000000" font-family="sans-serif" font-size="13" lengthAdjust="spacing" textLength="479.7368" x="409.2026" y="523.7856">REDIRECT https://opintopolku.fi/koski/omadata-oauth2/authorize/PARAMS</text><path d="M174,449.1875 L174,595.1875 L396,595.1875 L396,459.1875 L386,449.1875 L174,449.1875 " fill="#FEFFDD" style="stroke:#181818;stroke-width:0.5;"/><path d="M386,449.1875 L386,459.1875 L396,459.1875 L386,449.1875 " fill="#FEFFDD" style="stroke:#181818;stroke-width:0.5;"/><text fill="#000000" font-family="sans-serif" font-size="13" lengthAdjust="spacing" textLength="58.5063" x="180" y="466.2544">PARAMS:</text><text fill="#000000" font-family="sans-serif" font-size="13" lengthAdjust="spacing" textLength="54.0693" x="180" y="481.3872">client_id</text><text fill="#000000" font-family="sans-serif" font-size="13" lengthAdjust="spacing" textLength="74.4897" x="180" y="496.52">redirect_uri</text><text fill="#000000" font-family="sans-serif" font-size="13" lengthAdjust="spacing" textLength="32.9316" x="180" y="511.6528">state</text><text fill="#000000" font-family="sans-serif" font-size="13" lengthAdjust="spacing" textLength="38.124" x="180" y="526.7856">scope</text><text fill="#000000" font-family="sans-serif" font-size="13" lengthAdjust="spacing" textLength="137.1157" x="180" y="541.9185">response_type=code</text><text fill="#000000" font-family="sans-serif" font-size="13" lengthAdjust="spacing" textLength="178.7056" x="180" y="557.0513">response_mode=form_post</text><text fill="#000000" font-family="sans-serif" font-size="13" lengthAdjust="spacing" textLength="201.5762" x="180" y="572.1841">code_challenge_method=S256</text><text fill="#000000" font-family="sans-serif" font-size="13" lengthAdjust="spacing" textLength="100.915" x="180" y="587.3169">code_challenge</text><path d="M20,614.3828 L363.8477,614.3828 L363.8477,621.5156 L353.8477,631.5156 L20,631.5156 L20,614.3828 " fill="#EEEEEE" style="stroke:#000000;stroke-width:1.5;"/><rect fill="none" height="779.5156" style="stroke:#000000;stroke-width:1.5;" width="2011.333" x="20" y="614.3828"/><text fill="#000000" font-family="sans-serif" font-size="13" font-weight="bold" lengthAdjust="spacing" textLength="298.8477" x="35" y="627.4497">OAuth2 authorization end-pointin k&#228;ytt&#246;</text><polygon fill="#181818" points="1549.2139,648.6484,1559.2139,652.6484,1549.2139,656.6484,1553.2139,652.6484" style="stroke:#181818;stroke-width:1.0;"/><line style="stroke:#181818;stroke-width:1.0;" x1="905.9395" x2="1555.2139" y1="652.6484" y2="652.6484"/><text fill="#000000" font-family="sans-serif" font-size="13" lengthAdjust="spacing" textLength="304.9985" x="912.9395" y="647.5825">GET /koski/omadata-oauth2/authorize/PARAMS</text><polygon fill="#181818" points="916.9395,677.7813,906.9395,681.7813,916.9395,685.7813,912.9395,681.7813" style="stroke:#181818;stroke-width:1.0;"/><line style="stroke:#181818;stroke-width:1.0;" x1="910.9395" x2="1560.2139" y1="681.7813" y2="681.7813"/><text fill="#000000" font-family="sans-serif" font-size="13" lengthAdjust="spacing" textLength="631.2744" x="922.9395" y="676.7153">REDIRECT https://opintopolku.fi/.../login?...onSuccess=/koski/omadata-oauth2/authorize/PARAMS</text><polygon fill="#181818" points="1870.1431,706.9141,1880.1431,710.9141,1870.1431,714.9141,1874.1431,710.9141" style="stroke:#181818;stroke-width:1.0;"/><line style="stroke:#181818;stroke-width:1.0;" x1="905.9395" x2="1876.1431" y1="710.9141" y2="710.9141"/><text fill="#000000" font-family="sans-serif" font-size="13" lengthAdjust="spacing" textLength="592.1475" x="912.9395" y="705.8481">GET https://opintopolku.fi/.../login?...onSuccess=/koski/omadata-oauth2/authorize/PARAMS</text><polygon fill="#181818" points="916.9395,736.0469,906.9395,740.0469,916.9395,744.0469,912.9395,740.0469" style="stroke:#181818;stroke-width:1.0;"/><line style="stroke:#181818;stroke-width:1.0;" x1="910.9395" x2="1881.1431" y1="740.0469" y2="740.0469"/><text fill="#000000" font-family="sans-serif" font-size="13" lengthAdjust="spacing" textLength="106.8628" x="922.9395" y="734.981">HTML:Login-sivu</text><polygon fill="#181818" points="893.9395,765.1797,903.9395,769.1797,893.9395,773.1797,897.9395,769.1797" style="stroke:#181818;stroke-width:1.0;"/><line style="stroke:#181818;stroke-width:1.0;" x1="62.0356" x2="899.9395" y1="769.1797" y2="769.1797"/><text fill="#000000" font-family="sans-serif" font-size="13" lengthAdjust="spacing" textLength="200.9478" x="69.0356" y="764.1138">Suomi.fi &amp; opintopolku.fi -login</text><polygon fill="#181818" points="1870.1431,794.3125,1880.1431,798.3125,1870.1431,802.3125,1874.1431,798.3125" style="stroke:#181818;stroke-width:1.0;"/><line style="stroke:#181818;stroke-width:1.0;" x1="905.9395" x2="1876.1431" y1="798.3125" y2="798.3125"/><text fill="#000000" font-family="sans-serif" font-size="13" lengthAdjust="spacing" textLength="200.9478" x="912.9395" y="793.2466">Suomi.fi &amp; opintopolku.fi -login</text><polygon fill="#181818" points="916.9395,823.4453,906.9395,827.4453,916.9395,831.4453,912.9395,827.4453" style="stroke:#181818;stroke-width:1.0;"/><line style="stroke:#181818;stroke-width:1.0;" x1="910.9395" x2="1881.1431" y1="827.4453" y2="827.4453"/><text fill="#000000" font-family="sans-serif" font-size="13" lengthAdjust="spacing" textLength="344.1255" x="922.9395" y="822.3794">REDIRECT /koski/omadata-oauth2/authorize/PARAMS</text><polygon fill="#181818" points="1549.2139,852.5781,1559.2139,856.5781,1549.2139,860.5781,1553.2139,856.5781" style="stroke:#181818;stroke-width:1.0;"/><line style="stroke:#181818;stroke-width:1.0;" x1="905.9395" x2="1555.2139" y1="856.5781" y2="856.5781"/><text fill="#000000" font-family="sans-serif" font-size="13" lengthAdjust="spacing" textLength="304.9985" x="912.9395" y="851.5122">GET /koski/omadata-oauth2/authorize/PARAMS</text><polygon fill="#181818" points="916.9395,881.7109,906.9395,885.7109,916.9395,889.7109,912.9395,885.7109" style="stroke:#181818;stroke-width:1.0;"/><line style="stroke:#181818;stroke-width:1.0;" x1="910.9395" x2="1560.2139" y1="885.7109" y2="885.7109"/><text fill="#000000" font-family="sans-serif" font-size="13" lengthAdjust="spacing" textLength="147.9893" x="922.9395" y="880.645">HTML:Hyv&#228;ksynt&#228;-sivu</text><polygon fill="#181818" points="893.9395,910.8438,903.9395,914.8438,893.9395,918.8438,897.9395,914.8438" style="stroke:#181818;stroke-width:1.0;"/><line style="stroke:#181818;stroke-width:1.0;" x1="62.0356" x2="899.9395" y1="914.8438" y2="914.8438"/><text fill="#000000" font-family="sans-serif" font-size="13" lengthAdjust="spacing" textLength="120.2119" x="69.0356" y="909.7778">Hyv&#228;ksy valtuutus</text><polygon fill="#181818" points="1549.2139,939.9766,1559.2139,943.9766,1549.2139,947.9766,1553.2139,943.9766" style="stroke:#181818;stroke-width:1.0;"/><line style="stroke:#181818;stroke-width:1.0;" x1="905.9395" x2="1555.2139" y1="943.9766" y2="943.9766"/><text fill="#000000" font-family="sans-serif" font-size="13" lengthAdjust="spacing" textLength="336.1084" x="912.9395" y="938.9106">GET /koski/api/omadata-oauth2/authorize/?PARAMS</text><polygon fill="#181818" points="1870.1431,969.1094,1880.1431,973.1094,1870.1431,977.1094,1874.1431,973.1094" style="stroke:#181818;stroke-width:1.0;"/><line style="stroke:#181818;stroke-width:1.0;" x1="1561.2139" x2="1876.1431" y1="973.1094" y2="973.1094"/><text fill="#000000" font-family="sans-serif" font-size="13" lengthAdjust="spacing" textLength="41.1074" x="1568.2139" y="968.0435">logout</text><line style="stroke:#181818;stroke-width:1.0;" x1="1561.2139" x2="1603.2139" y1="1032.5078" y2="1032.5078"/><line style="stroke:#181818;stroke-width:1.0;" x1="1603.2139" x2="1603.2139" y1="1032.5078" y2="1045.5078"/><line style="stroke:#181818;stroke-width:1.0;" x1="1562.2139" x2="1603.2139" y1="1045.5078" y2="1045.5078"/><polygon fill="#181818" points="1572.2139,1041.5078,1562.2139,1045.5078,1572.2139,1049.5078,1568.2139,1045.5078" style="stroke:#181818;stroke-width:1.0;"/><text fill="#000000" font-family="sans-serif" font-size="13" lengthAdjust="spacing" textLength="221.7681" x="1568.2139" y="997.1763">Luo ja tallenna authorization code</text><text fill="#000000" font-family="sans-serif" font-size="13" lengthAdjust="spacing" textLength="224.8848" x="1568.2139" y="1012.3091">ja sen yhteyteen muut parametrit,</text><text fill="#000000" font-family="sans-serif" font-size="13" lengthAdjust="spacing" textLength="192.4736" x="1568.2139" y="1027.4419">mm. code_challenge ja scope</text><polygon fill="#181818" points="916.9395,1134.1719,906.9395,1138.1719,916.9395,1142.1719,912.9395,1138.1719" style="stroke:#181818;stroke-width:1.0;"/><line style="stroke:#181818;stroke-width:1.0;" x1="910.9395" x2="1560.2139" y1="1138.1719" y2="1138.1719"/><text fill="#000000" font-family="sans-serif" font-size="13" lengthAdjust="spacing" textLength="300.7329" x="922.9395" y="1133.106">REDIRECT /post-response/RESPONSE_PARAMS</text><path d="M595,1058.5078 L595,1204.5078 L900,1204.5078 L900,1068.5078 L890,1058.5078 L595,1058.5078 " fill="#FEFFDD" style="stroke:#181818;stroke-width:0.5;"/><path d="M890,1058.5078 L890,1068.5078 L900,1068.5078 L890,1058.5078 " fill="#FEFFDD" style="stroke:#181818;stroke-width:0.5;"/><text fill="#000000" font-family="sans-serif" font-size="13" lengthAdjust="spacing" textLength="134.7671" x="601" y="1075.5747">RESPONSE_PARAMS:</text><text fill="#000000" font-family="sans-serif" font-size="13" lengthAdjust="spacing" textLength="54.0693" x="601" y="1090.7075">client_id</text><text fill="#000000" font-family="sans-serif" font-size="13" lengthAdjust="spacing" textLength="74.4897" x="601" y="1105.8403">redirect_uri</text><text fill="#000000" font-family="sans-serif" font-size="13" lengthAdjust="spacing" textLength="32.9316" x="601" y="1120.9731">state</text><text fill="#000000" font-family="sans-serif" font-size="13" lengthAdjust="spacing" textLength="31.3511" x="601" y="1136.106">code</text><text fill="#000000" font-family="sans-serif" font-size="13" lengthAdjust="spacing" textLength="276.5356" x="609.2646" y="1151.2388">Virhetilanteissa code:n sijasta voi sis&#228;lt&#228;&#228;:</text><text fill="#000000" font-family="sans-serif" font-size="13" lengthAdjust="spacing" textLength="31.9858" x="601" y="1166.3716">error</text><text fill="#000000" font-family="sans-serif" font-size="13" lengthAdjust="spacing" textLength="110.7666" x="601" y="1181.5044">error_description</text><text fill="#000000" font-family="sans-serif" font-size="13" lengthAdjust="spacing" textLength="55.6816" x="601" y="1196.6372">error_uri</text><polygon fill="#181818" points="1549.2139,1226.8359,1559.2139,1230.8359,1549.2139,1234.8359,1553.2139,1230.8359" style="stroke:#181818;stroke-width:1.0;"/><line style="stroke:#181818;stroke-width:1.0;" x1="905.9395" x2="1555.2139" y1="1230.8359" y2="1230.8359"/><text fill="#000000" font-family="sans-serif" font-size="13" lengthAdjust="spacing" textLength="261.606" x="912.9395" y="1225.77">GET /post-response/RESPONSE_PARAMS</text><polygon fill="#181818" points="916.9395,1255.9688,906.9395,1259.9688,916.9395,1263.9688,912.9395,1259.9688" style="stroke:#181818;stroke-width:1.0;"/><line style="stroke:#181818;stroke-width:1.0;" x1="910.9395" x2="1560.2139" y1="1259.9688" y2="1259.9688"/><text fill="#000000" font-family="sans-serif" font-size="13" lengthAdjust="spacing" textLength="371.4712" x="922.9395" y="1254.9028">HTML:Auto-submit web form, jossa RESPONSE inputteina</text><polygon fill="#181818" points="413.2026,1341.0664,403.2026,1345.0664,413.2026,1349.0664,409.2026,1345.0664" style="stroke:#181818;stroke-width:1.0;"/><line style="stroke:#181818;stroke-width:1.0;" x1="407.2026" x2="904.9395" y1="1345.0664" y2="1345.0664"/><text fill="#000000" font-family="sans-serif" font-size="13" lengthAdjust="spacing" textLength="112.8867" x="419.2026" y="1324.8677">POST redirect_uri</text><text fill="#000000" font-family="sans-serif" font-size="13" lengthAdjust="spacing" textLength="156.8379" x="419.2026" y="1340.0005">body=CODE_RESPONSE</text><path d="M91,1272.9688 L91,1387.9688 L396,1387.9688 L396,1282.9688 L386,1272.9688 L91,1272.9688 " fill="#FEFFDD" style="stroke:#181818;stroke-width:0.5;"/><path d="M386,1272.9688 L386,1282.9688 L396,1282.9688 L386,1272.9688 " fill="#FEFFDD" style="stroke:#181818;stroke-width:0.5;"/><text fill="#000000" font-family="sans-serif" font-size="13" lengthAdjust="spacing" textLength="118.1743" x="97" y="1290.0356">CODE_RESPONSE:</text><text fill="#000000" font-family="sans-serif" font-size="13" lengthAdjust="spacing" textLength="32.9316" x="97" y="1305.1685">state</text><text fill="#000000" font-family="sans-serif" font-size="13" lengthAdjust="spacing" textLength="31.3511" x="97" y="1320.3013">code</text><text fill="#000000" font-family="sans-serif" font-size="13" lengthAdjust="spacing" textLength="276.5356" x="105.2646" y="1335.4341">Virhetilanteissa code:n sijasta voi sis&#228;lt&#228;&#228;:</text><text fill="#000000" font-family="sans-serif" font-size="13" lengthAdjust="spacing" textLength="31.9858" x="97" y="1350.5669">error</text><text fill="#000000" font-family="sans-serif" font-size="13" lengthAdjust="spacing" textLength="110.7666" x="97" y="1365.6997">error_description</text><text fill="#000000" font-family="sans-serif" font-size="13" lengthAdjust="spacing" textLength="55.6816" x="97" y="1380.8325">error_uri</text><path d="M160,1407.8984 L442.6943,1407.8984 L442.6943,1415.0313 L432.6943,1425.0313 L160,1425.0313 L160,1407.8984 " fill="#EEEEEE" style="stroke:#000000;stroke-width:1.5;"/><rect fill="none" height="307.8594" style="stroke:#000000;stroke-width:1.5;" width="1721.3848" x="160" y="1407.8984"/><text fill="#000000" font-family="sans-serif" font-size="13" font-weight="bold" lengthAdjust="spacing" textLength="237.6943" x="175" y="1420.9653">OAuth2 token-endpointin k&#228;ytt&#246;</text><polygon fill="#181818" points="1549.2139,1490.5625,1559.2139,1494.5625,1549.2139,1498.5625,1553.2139,1494.5625" style="stroke:#181818;stroke-width:1.0;"/><line style="stroke:#181818;stroke-width:1.0;" x1="402.2026" x2="1555.2139" y1="1494.5625" y2="1494.5625"/><text fill="#000000" font-family="sans-serif" font-size="13" lengthAdjust="spacing" textLength="742.0918" x="409.2026" y="1474.3638">mutual-TLS POST https://oph-koski-luovutuspalvelu.opintopolku.fi/koski/api/omadata-oauth2/authorization-server/</text><text fill="#000000" font-family="sans-serif" font-size="13" lengthAdjust="spacing" textLength="141.2036" x="417.4673" y="1489.4966">body=CODE_PARAMS</text><path d="M170,1430.0313 L170,1530.0313 L396,1530.0313 L396,1440.0313 L386,1430.0313 L170,1430.0313 " fill="#FEFFDD" style="stroke:#181818;stroke-width:0.5;"/><path d="M386,1430.0313 L386,1440.0313 L396,1440.0313 L386,1430.0313 " fill="#FEFFDD" style="stroke:#181818;stroke-width:0.5;"/><text fill="#000000" font-family="sans-serif" font-size="13" lengthAdjust="spacing" textLength="102.54" x="176" y="1447.0981">CODE_PARAMS:</text><text fill="#000000" font-family="sans-serif" font-size="13" lengthAdjust="spacing" textLength="205.3276" x="176" y="1462.231">grant_type=authorization_code</text><text fill="#000000" font-family="sans-serif" font-size="13" lengthAdjust="spacing" textLength="31.3511" x="176" y="1477.3638">code</text><text fill="#000000" font-family="sans-serif" font-size="13" lengthAdjust="spacing" textLength="84.0303" x="176" y="1492.4966">code_verifier</text><text fill="#000000" font-family="sans-serif" font-size="13" lengthAdjust="spacing" textLength="74.4897" x="176" y="1507.6294">redirect_uri</text><text fill="#000000" font-family="sans-serif" font-size="13" lengthAdjust="spacing" textLength="54.0693" x="176" y="1522.7622">client_id</text><line style="stroke:#181818;stroke-width:1.0;" x1="1561.2139" x2="1603.2139" y1="1572.0938" y2="1572.0938"/><line style="stroke:#181818;stroke-width:1.0;" x1="1603.2139" x2="1603.2139" y1="1572.0938" y2="1585.0938"/><line style="stroke:#181818;stroke-width:1.0;" x1="1562.2139" x2="1603.2139" y1="1585.0938" y2="1585.0938"/><polygon fill="#181818" points="1572.2139,1581.0938,1562.2139,1585.0938,1572.2139,1589.0938,1568.2139,1585.0938" style="stroke:#181818;stroke-width:1.0;"/><text fill="#000000" font-family="sans-serif" font-size="13" lengthAdjust="spacing" textLength="219.0322" x="1568.2139" y="1551.895">tarkista code ja ett&#228; code_verifier</text><text fill="#000000" font-family="sans-serif" font-size="13" lengthAdjust="spacing" textLength="290.4751" x="1568.2139" y="1567.0278">vastaa codelle tallennettua code_challengea</text><line style="stroke:#181818;stroke-width:1.0;" x1="1561.2139" x2="1603.2139" y1="1614.2266" y2="1614.2266"/><line style="stroke:#181818;stroke-width:1.0;" x1="1603.2139" x2="1603.2139" y1="1614.2266" y2="1627.2266"/><line style="stroke:#181818;stroke-width:1.0;" x1="1562.2139" x2="1603.2139" y1="1627.2266" y2="1627.2266"/><polygon fill="#181818" points="1572.2139,1623.2266,1562.2139,1627.2266,1572.2139,1631.2266,1568.2139,1627.2266" style="stroke:#181818;stroke-width:1.0;"/><text fill="#000000" font-family="sans-serif" font-size="13" lengthAdjust="spacing" textLength="301.1709" x="1568.2139" y="1609.1606">Luo ja tallenna access_token coden yhteyteen</text><polygon fill="#181818" points="413.2026,1678.0586,403.2026,1682.0586,413.2026,1686.0586,409.2026,1682.0586" style="stroke:#181818;stroke-width:1.0;"/><line style="stroke:#181818;stroke-width:1.0;" x1="407.2026" x2="1560.2139" y1="1682.0586" y2="1682.0586"/><text fill="#000000" font-family="sans-serif" font-size="13" lengthAdjust="spacing" textLength="120.8975" x="419.2026" y="1676.9927">TOKEN_RESPONSE</text><path d="M249,1640.2266 L249,1710.2266 L396,1710.2266 L396,1650.2266 L386,1640.2266 L249,1640.2266 " fill="#FEFFDD" style="stroke:#181818;stroke-width:0.5;"/><path d="M386,1640.2266 L386,1650.2266 L396,1650.2266 L386,1640.2266 " fill="#FEFFDD" style="stroke:#181818;stroke-width:0.5;"/><text fill="#000000" font-family="sans-serif" font-size="13" lengthAdjust="spacing" textLength="125.2773" x="255" y="1657.2935">TOKEN_RESPONSE:</text><text fill="#000000" font-family="sans-serif" font-size="13" lengthAdjust="spacing" textLength="87.1216" x="255" y="1672.4263">access_token</text><text fill="#000000" font-family="sans-serif" font-size="13" lengthAdjust="spacing" textLength="126.8198" x="255" y="1687.5591">token_type=Bearer</text><text fill="#000000" font-family="sans-serif" font-size="13" lengthAdjust="spacing" textLength="66.022" x="255" y="1702.6919">expires_in</text><path d="M262.3711,1729.7578 L567.2886,1729.7578 L567.2886,1736.8906 L557.2886,1746.8906 L262.3711,1746.8906 L262.3711,1729.7578 " fill="#EEEEEE" style="stroke:#000000;stroke-width:1.5;"/><rect fill="none" height="147.7969" style="stroke:#000000;stroke-width:1.5;" width="1561.1865" x="262.3711" y="1729.7578"/><text fill="#000000" font-family="sans-serif" font-size="13" font-weight="bold" lengthAdjust="spacing" textLength="259.9175" x="277.3711" y="1742.8247">OAuth2 resource-endpointin k&#228;ytt&#246;</text><polygon fill="#181818" points="1549.2139,1779.1563,1559.2139,1783.1563,1549.2139,1787.1563,1553.2139,1783.1563" style="stroke:#181818;stroke-width:1.0;"/><line style="stroke:#181818;stroke-width:1.0;" x1="402.2026" x2="1555.2139" y1="1783.1563" y2="1783.1563"/><text fill="#000000" font-family="sans-serif" font-size="13" lengthAdjust="spacing" textLength="708.3667" x="409.2026" y="1762.9575">mutual-TLS POST https://oph-koski-luovutuspalvelu.opintopolku.fi/koski/api/omadata-oauth2/resource-server</text><text fill="#000000" font-family="sans-serif" font-size="13" lengthAdjust="spacing" textLength="190.3027" x="417.4673" y="1778.0903">Authorization=Bearer TOKEN</text><line style="stroke:#181818;stroke-width:1.0;" x1="1561.2139" x2="1603.2139" y1="1827.4219" y2="1827.4219"/><line style="stroke:#181818;stroke-width:1.0;" x1="1603.2139" x2="1603.2139" y1="1827.4219" y2="1840.4219"/><line style="stroke:#181818;stroke-width:1.0;" x1="1562.2139" x2="1603.2139" y1="1840.4219" y2="1840.4219"/><polygon fill="#181818" points="1572.2139,1836.4219,1562.2139,1840.4219,1572.2139,1844.4219,1568.2139,1840.4219" style="stroke:#181818;stroke-width:1.0;"/><text fill="#000000" font-family="sans-serif" font-size="13" lengthAdjust="spacing" textLength="243.3438" x="1568.2139" y="1807.2231">Hae ja muotoile opiskeluoikeus-DATA</text><text fill="#000000" font-family="sans-serif" font-size="13" lengthAdjust="spacing" textLength="242.2012" x="1568.2139" y="1822.356">access_tokenin ja scopen perusteella</text><polygon fill="#181818" points="413.2026,1865.5547,403.2026,1869.5547,413.2026,1873.5547,409.2026,1869.5547" style="stroke:#181818;stroke-width:1.0;"/><line style="stroke:#181818;stroke-width:1.0;" x1="407.2026" x2="1560.2139" y1="1869.5547" y2="1869.5547"/><text fill="#000000" font-family="sans-serif" font-size="13" lengthAdjust="spacing" textLength="35.7373" x="419.2026" y="1864.4888">DATA</text><path d="M10,1891.5547 L415.0771,1891.5547 L415.0771,1913.8203 L405.0771,1923.8203 L10,1923.8203 L10,1891.5547 " fill="#EEEEEE" style="stroke:#000000;stroke-width:1.5;"/><rect fill="none" height="313.4609" style="stroke:#000000;stroke-width:1.5;" width="989.9351" x="10" y="1891.5547"/><text fill="#000000" font-family="sans-serif" font-size="13" font-weight="bold" lengthAdjust="spacing" textLength="360.0771" x="25" y="1904.6216">Esimerkki hy&#246;dynt&#228;j&#228;n palvelusta, jossa erillinen</text><text fill="#000000" font-family="sans-serif" font-size="13" font-weight="bold" lengthAdjust="spacing" textLength="228.0332" x="29.5259" y="1919.7544">alij&#228;rjestelm&#228; OAuth2-clientille</text><line style="stroke:#181818;stroke-width:1.0;" x1="402.2026" x2="444.2026" y1="1944.9531" y2="1944.9531"/><line style="stroke:#181818;stroke-width:1.0;" x1="444.2026" x2="444.2026" y1="1944.9531" y2="1957.9531"/><line style="stroke:#181818;stroke-width:1.0;" x1="403.2026" x2="444.2026" y1="1957.9531" y2="1957.9531"/><polygon fill="#181818" points="413.2026,1953.9531,403.2026,1957.9531,413.2026,1961.9531,409.2026,1957.9531" style="stroke:#181818;stroke-width:1.0;"/><text fill="#000000" font-family="sans-serif" font-size="13" lengthAdjust="spacing" textLength="299.3237" x="409.2026" y="1939.8872">Analysoi/muunna DATA hy&#246;dynt&#228;j&#228;n k&#228;ytt&#246;&#246;n</text><polygon fill="#181818" points="194.2212,1983.0859,184.2212,1987.0859,194.2212,1991.0859,190.2212,1987.0859" style="stroke:#181818;stroke-width:1.0;"/><line style="stroke:#181818;stroke-width:1.0;" x1="188.2212" x2="401.2026" y1="1987.0859" y2="1987.0859"/><text fill="#000000" font-family="sans-serif" font-size="13" lengthAdjust="spacing" textLength="138.8232" x="200.2212" y="1982.02">Tallenna opintotiedot</text><polygon fill="#181818" points="893.9395,2012.2188,903.9395,2016.2188,893.9395,2020.2188,897.9395,2016.2188" style="stroke:#181818;stroke-width:1.0;"/><line style="stroke:#181818;stroke-width:1.0;" x1="402.2026" x2="899.9395" y1="2016.2188" y2="2016.2188"/><text fill="#000000" font-family="sans-serif" font-size="13" lengthAdjust="spacing" textLength="156.1714" x="409.2026" y="2011.1528">REDIRECT https://client/</text><polygon fill="#181818" points="194.2212,2041.3516,184.2212,2045.3516,194.2212,2049.3516,190.2212,2045.3516" style="stroke:#181818;stroke-width:1.0;"/><line style="stroke:#181818;stroke-width:1.0;" x1="188.2212" x2="904.9395" y1="2045.3516" y2="2045.3516"/><text fill="#000000" font-family="sans-serif" font-size="13" lengthAdjust="spacing" textLength="34.7407" x="200.2212" y="2040.2856">GET /</text><polygon fill="#181818" points="893.9395,2070.4844,903.9395,2074.4844,893.9395,2078.4844,897.9395,2074.4844" style="stroke:#181818;stroke-width:1.0;"/><line style="stroke:#181818;stroke-width:1.0;" x1="183.2212" x2="899.9395" y1="2074.4844" y2="2074.4844"/><text fill="#000000" font-family="sans-serif" font-size="13" lengthAdjust="spacing" textLength="248.5107" x="190.2212" y="2069.4185">HTML-sivu, jossa opintotiedot mukana</text><path d="M20,2089.4844 L84.4429,2089.4844 L84.4429,2096.6172 L74.4429,2106.6172 L20,2106.6172 L20,2089.4844 " fill="#EEEEEE" style="stroke:#000000;stroke-width:1.5;"/><rect fill="none" height="108.5313" style="stroke:#000000;stroke-width:1.5;" width="969.9351" x="20" y="2089.4844"/><text fill="#000000" font-family="sans-serif" font-size="13" font-weight="bold" lengthAdjust="spacing" textLength="19.4429" x="35" y="2102.5513">alt</text><polygon fill="#181818" points="893.9395,2123.75,903.9395,2127.75,893.9395,2131.75,897.9395,2127.75" style="stroke:#181818;stroke-width:1.0;"/><line style="stroke:#181818;stroke-width:1.0;" x1="62.0356" x2="899.9395" y1="2127.75" y2="2127.75"/><text fill="#000000" font-family="sans-serif" font-size="13" lengthAdjust="spacing" textLength="308.5596" x="69.0356" y="2122.6841">Hyv&#228;ksy/katsele/filtter&#246;i/muokkaa opintotietoja</text><line style="stroke:#000000;stroke-width:1.0;stroke-dasharray:2.0,2.0;" x1="20" x2="989.9351" y1="2136.75" y2="2136.75"/><polygon fill="#181818" points="893.9395,2154.8828,903.9395,2158.8828,893.9395,2162.8828,897.9395,2158.8828" style="stroke:#181818;stroke-width:1.0;"/><line style="stroke:#181818;stroke-width:1.0;" x1="62.0356" x2="899.9395" y1="2158.8828" y2="2158.8828"/><text fill="#000000" font-family="sans-serif" font-size="13" lengthAdjust="spacing" textLength="233.251" x="69.0356" y="2153.8169">Tee ostoksia opiskelija-alennuksella</text><line style="stroke:#000000;stroke-width:1.0;stroke-dasharray:2.0,2.0;" x1="20" x2="989.9351" y1="2167.8828" y2="2167.8828"/><polygon fill="#181818" points="893.9395,2186.0156,903.9395,2190.0156,893.9395,2194.0156,897.9395,2190.0156" style="stroke:#181818;stroke-width:1.0;"/><line style="stroke:#181818;stroke-width:1.0;" x1="62.0356" x2="899.9395" y1="2190.0156" y2="2190.0156"/><text fill="#000000" font-family="sans-serif" font-size="13" lengthAdjust="spacing" textLength="12.397" x="69.0356" y="2184.9497">...</text><!--SRC=[nLVTRkf64BxtKwpEHNiJO-b8xGKIZMZY7gAG407dzA9KrWOcOR2zQ-skwQ7FmpFa1NYnpdensE00hNhQ6yiUptmx-ytVha6J01jqSpF_oFmvpx8LoxYPCrz3l0IXDJBGc8AAO_JdgytRR2NCPhtOh9C4F8zFZLJiVhDU6ITbNBDSW_AyZ2k3KyouC6oQ80WJaNo9Ks2_UOprgbY25asMaEJUxqs6JGREPvydI9zg0Tf0acxMfBZTpKrXUWXeVOluQmdwAppJJXEEOc_ucLHOeMADlsT1B7MCWKpvZ1lkIswr0lkK2l-4TWt_tkeMqFU3qVtT7hMxrUS6fM2M2LhbEwP0ormH9qxYLfmRa-bs4EJ2v4ikCnH6PZA9yzOB1bEkVPbbkE118bzH12IxtZBRQRLQDNTkkgF2cS4UWnOTvJ95ml9ZL0lQI9wY067NVbKoprXOHfpD6wEa3RzY2warPw0mIQprHB33M9GnSa4aFI2btkV1G_kTwECCY1hKcpLg9FkzUnevsR85PscEXZEIMiXOqhQ0f81CKY8JdjRMa6Wp9lSy6sxc_rGDUviDdiB77SVEkS2hQ93-GSAssQTmp0BlG7m8t1i_z7sDo_p4kX_wTd-RTH2JhsY8AN2fuhiu6uIPD1zy8p6rtnSvLcHe3U2SgyFmzcuOtentFBYqtiQg2R39ZxFhrrJxkMGtWzim-X8Extwv2uSsdeNWfjVjzyF7J-4LCvpoH0XUrwp0dTb6lLXEbsxmr1rs7qQUa0PO0Y_6Su9soHxEF0KpL30rKQxGeyGtuEcfp81-w4mA3P5PPT2Pobb5bD9NvqMgDCga9YxeCvhEYvszqb-WzMUTqSSVVZpuvO6OCUkDVIchSTj0UAs1q7y_izcFWiMk_Rvv1p5olQWQehDCUCxcxz9CRSSresjwasAKJwUWTUVIHUjksvxbdFusgrdyfifjzoscgz_c0Yxx9hNGkalCB_nftibvgoQFTfJ_CnB_lTWNrFHMoyqwraN7FiLGgSUMF34vjMvzWMCyE-7SzP5tZbMYJkQc8Yw1RPUXlhBh8_MwiVKs4VHVqwXPpGsi3D1RIhxI55ASQbEXkPg8D6snUd5QL5Vwvweai5NlbzqW68QZfy7ZA8oEsit1dpDzf-WnZ7r1DGSQfpJV0UqCjlAs7PmBJefiAT4DqSJOGTFsG2cft3EQWPugp2mNMud5txMTKy4wlQbJsKCDJFewVqxHi3_WcTdEM1uWIXo68ijf7ABWtdkpvcam6hCgCHFnB6UhJZ4gIg0AlJLv-pzayRXx6nc3y4b-tBJtewsaEwN2uOa_xe_SblTzSEwxKPlaScchQtjmQZMElHDrLHI3xywSWJrPxNayIjAAj4sR8iBSoAjXHGMjkqT4kFY2TA2jvV4-lVTS7HMmuIf66m8BP8iExDs2rM0dOccZv7GIU_9pvKwgEJ-eMtv9aoX6I5H4gJ2lD8UA-IuJnuFxyB4fvUe_sbuLs2kUZhoVWIjY1xvcn8wEQ0gS6Ftb9U7_pv-T9ovrRERKBZRRVJb-6dZlSN27U4ddMmeRhQjZSa1Y3BdsRxlZxaHKEQETbcsNhWcWwEu1573U51HhNQkzRtQFyPgEjrt1avMM6D0miJbbtJbSk8pQvaqSOrHEzUCoCMjdwejFmUMbvh9RpSNNcfAigbCKovZRdaq3_yoX88YveSisq8qreKwlDc-MAnd7l09fv8B08D7m3jeOA6qq9GVT2SlyePxjSqjO7ckN7IS0x1tPPObz_0K0]--></g></svg>