<svg xmlns="http://www.w3.org/2000/svg" xmlns:xlink="http://www.w3.org/1999/xlink" contentStyleType="text/css" height="3044px" preserveAspectRatio="none" style="width:2146px;height:3044px;background:#FFFFFF;" version="1.1" viewBox="0 0 2146 3044" width="2146px" zoomAndPan="magnify"><title>OAuth2 -happy path -aktiviteettidiagrammi swimlaneilla</title><defs/><g><text fill="#000000" font-family="sans-serif" font-size="14" font-weight="bold" lengthAdjust="spacing" textLength="445.792" x="848.7317" y="32.9951">OAuth2 -happy path -aktiviteettidiagrammi swimlaneilla</text><text fill="#000000" font-family="sans-serif" font-size="14" font-weight="bold" lengthAdjust="spacing" textLength="231.0273" x="956.114" y="49.292">eriyt&#228; s&#228;&#228;nt&#246;moottoripalvelu</text><rect fill="none" height="20.9531" style="stroke:none;stroke-width:1.0;" width="2113.2554" x="15" y="66.3389"/><ellipse cx="219.0894" cy="102.292" fill="#222222" rx="10" ry="10" style="stroke:#222222;stroke-width:1.0;"/><rect fill="#F1F1F1" height="75.875" rx="12.5" ry="12.5" style="stroke:#181818;stroke-width:0.5;" width="173.1523" x="132.5132" y="132.292"/><text fill="#000000" font-family="sans-serif" font-size="12" lengthAdjust="spacing" textLength="153.1523" x="142.5132" y="153.4307">K&#228;ytt&#228;j&#228; avaa selaimessa</text><text fill="#000000" font-family="sans-serif" font-size="12" lengthAdjust="spacing" textLength="61.043" x="142.5132" y="167.3994">web-sivun</text><text fill="#000000" font-family="sans-serif" font-size="12" lengthAdjust="spacing" textLength="107.918" x="142.5132" y="181.3682">ja aloittaa vahvan</text><text fill="#000000" font-family="sans-serif" font-size="12" lengthAdjust="spacing" textLength="105.3457" x="142.5132" y="195.3369">tunnistautumisen</text><rect fill="#F1F1F1" height="61.9063" rx="12.5" ry="12.5" style="stroke:#181818;stroke-width:0.5;" width="152.2754" x="142.9517" y="282.1357"/><text fill="#000000" font-family="sans-serif" font-size="12" lengthAdjust="spacing" textLength="90.3516" x="152.9517" y="303.2744">K&#228;ytt&#228;j&#228; siirtyy</text><text fill="#000000" font-family="sans-serif" font-size="12" lengthAdjust="spacing" textLength="66.5859" x="152.9517" y="317.2432">selaimessa</text><text fill="#000000" font-family="sans-serif" font-size="12" lengthAdjust="spacing" textLength="132.2754" x="152.9517" y="331.2119">opintotietojen hakuun</text><path d="M20,585.6592 L20,625.9248 A0,0 0 0 0 20,625.9248 L125.3921,625.9248 A0,0 0 0 0 125.3921,625.9248 L125.3921,609.792 L145.3921,605.792 L125.3921,601.792 L125.3921,595.6592 L115.3921,585.6592 L20,585.6592 A0,0 0 0 0 20,585.6592 " fill="#FEFFDD" style="stroke:#181818;stroke-width:0.5;"/><path d="M115.3921,585.6592 L115.3921,595.6592 L125.3921,595.6592 L115.3921,585.6592 " fill="#FEFFDD" style="stroke:#181818;stroke-width:0.5;"/><text fill="#000000" font-family="sans-serif" font-size="13" lengthAdjust="spacing" textLength="84.3921" x="26" y="602.7261">hetun v&#228;litys</text><text fill="#000000" font-family="sans-serif" font-size="13" lengthAdjust="spacing" textLength="67.3677" x="26" y="617.8589">esim. n&#228;in</text><rect fill="#F1F1F1" height="47.9375" rx="12.5" ry="12.5" style="stroke:#181818;stroke-width:0.5;" width="147.3945" x="145.3921" y="581.8232"/><text fill="#000000" font-family="sans-serif" font-size="12" lengthAdjust="spacing" textLength="55.7813" x="155.3921" y="602.9619">Backend:</text><text fill="#000000" font-family="sans-serif" font-size="12" lengthAdjust="spacing" textLength="127.3945" x="155.3921" y="616.9307">Palauta henkil&#246;tiedot</text><rect fill="#F1F1F1" height="61.9063" rx="12.5" ry="12.5" style="stroke:#181818;stroke-width:0.5;" width="172.0332" x="133.0728" y="2846.2139"/><text fill="#000000" font-family="sans-serif" font-size="12" lengthAdjust="spacing" textLength="55.7813" x="143.0728" y="2867.3525">Backend:</text><text fill="#000000" font-family="sans-serif" font-size="12" lengthAdjust="spacing" textLength="152.0332" x="143.0728" y="2881.3213">Tallenna opiskelijastatus,</text><text fill="#000000" font-family="sans-serif" font-size="12" lengthAdjust="spacing" textLength="61.248" x="143.0728" y="2895.29">vastaa OK</text><ellipse cx="219.0894" cy="3021.0264" fill="none" rx="11" ry="11" style="stroke:#222222;stroke-width:1.0;"/><ellipse cx="219.0894" cy="3021.0264" fill="#222222" rx="6" ry="6" style="stroke:#222222;stroke-width:1.0;"/><line style="stroke:#000000;stroke-width:1.5;" x1="15" x2="15" y1="66.3389" y2="3032.0264"/><path d="M399.8618,375.4443 L399.8618,400.5771 A0,0 0 0 0 399.8618,400.5771 L656.9946,400.5771 A0,0 0 0 0 656.9946,400.5771 L656.9946,393.4443 L676.9946,388.0107 L656.9946,385.4443 L656.9946,385.4443 L646.9946,375.4443 L399.8618,375.4443 A0,0 0 0 0 399.8618,375.4443 " fill="#FEFFDD" style="stroke:#181818;stroke-width:0.5;"/><path d="M646.9946,375.4443 L646.9946,385.4443 L656.9946,385.4443 L646.9946,375.4443 " fill="#FEFFDD" style="stroke:#181818;stroke-width:0.5;"/><text fill="#000000" font-family="sans-serif" font-size="13" lengthAdjust="spacing" textLength="236.1328" x="405.8618" y="392.5112">T&#228;t&#228; n&#228;kym&#228;&#228; ei v&#228;ltt&#228;m&#228;tt&#228; tarvita</text><rect fill="#F1F1F1" height="47.9375" rx="12.5" ry="12.5" style="stroke:#181818;stroke-width:0.5;" width="213.4414" x="676.9946" y="364.042"/><text fill="#000000" font-family="sans-serif" font-size="12" lengthAdjust="spacing" textLength="193.4414" x="686.9946" y="385.1807">N&#228;yt&#228; selaimessa opintotietojen</text><text fill="#000000" font-family="sans-serif" font-size="12" lengthAdjust="spacing" textLength="77.5664" x="686.9946" y="399.1494">hakun&#228;kym&#228;</text><rect fill="#F1F1F1" height="61.9063" rx="12.5" ry="12.5" style="stroke:#181818;stroke-width:0.5;" width="209.0352" x="679.1978" y="431.9795"/><text fill="#000000" font-family="sans-serif" font-size="12" lengthAdjust="spacing" textLength="55.7813" x="689.1978" y="453.1182">Backend:</text><text fill="#000000" font-family="sans-serif" font-size="12" lengthAdjust="spacing" textLength="142.2422" x="689.1978" y="467.0869">Luo sessio ja sille state,</text><text fill="#000000" font-family="sans-serif" font-size="12" lengthAdjust="spacing" textLength="189.0352" x="689.1978" y="481.0557">code_challenge ja code_verifier</text><rect fill="#F1F1F1" height="47.9375" rx="12.5" ry="12.5" style="stroke:#181818;stroke-width:0.5;" width="166.6895" x="700.3706" y="513.8857"/><text fill="#000000" font-family="sans-serif" font-size="12" lengthAdjust="spacing" textLength="55.7813" x="710.3706" y="535.0244">Backend:</text><text fill="#000000" font-family="sans-serif" font-size="12" lengthAdjust="spacing" textLength="146.6895" x="710.3706" y="548.9932">Hae henkil&#246;tiedot (hetu)</text><rect fill="#F1F1F1" height="47.9375" rx="12.5" ry="12.5" style="stroke:#181818;stroke-width:0.5;" width="209.0176" x="679.2065" y="649.7607"/><text fill="#000000" font-family="sans-serif" font-size="12" lengthAdjust="spacing" textLength="55.7813" x="689.2065" y="670.8994">Backend:</text><text fill="#000000" font-family="sans-serif" font-size="12" lengthAdjust="spacing" textLength="189.0176" x="689.2065" y="684.8682">Tallenna hetu staten yhteyteen</text><path d="M443.3804,707.6982 L443.3804,929.5576 A0,0 0 0 0 443.3804,929.5576 L665.9565,929.5576 A0,0 0 0 0 665.9565,929.5576 L665.9565,822.6279 L685.9565,818.6279 L665.9565,814.6279 L665.9565,717.6982 L655.9565,707.6982 L443.3804,707.6982 A0,0 0 0 0 443.3804,707.6982 " fill="#FEFFDD" style="stroke:#181818;stroke-width:0.5;"/><path d="M655.9565,707.6982 L655.9565,717.6982 L665.9565,717.6982 L655.9565,707.6982 " fill="#FEFFDD" style="stroke:#181818;stroke-width:0.5;"/><text fill="#000000" font-family="sans-serif" font-size="13" lengthAdjust="spacing" textLength="135.6113" x="449.3804" y="724.7651">https://opintopolku.fi</text><text fill="#000000" font-family="sans-serif" font-size="13" lengthAdjust="spacing" textLength="150.4775" x="449.3804" y="739.8979">/koski/omadata-oauth2</text><text fill="#000000" font-family="sans-serif" font-size="13" lengthAdjust="spacing" textLength="124.1602" x="449.3804" y="755.0308">/authorize/PARAMS</text><text fill="#000000" font-family="sans-serif" font-size="13" lengthAdjust="spacing" textLength="4.1323" x="449.3804" y="770.1636">&#160;</text><text fill="#000000" font-family="sans-serif" font-size="13" lengthAdjust="spacing" textLength="58.5063" x="449.3804" y="785.2964">PARAMS:</text><text fill="#000000" font-family="sans-serif" font-size="13" lengthAdjust="spacing" textLength="54.0693" x="449.3804" y="800.4292">client_id</text><text fill="#000000" font-family="sans-serif" font-size="13" lengthAdjust="spacing" textLength="74.4897" x="449.3804" y="815.562">redirect_uri</text><text fill="#000000" font-family="sans-serif" font-size="13" lengthAdjust="spacing" textLength="32.9316" x="449.3804" y="830.6948">state</text><text fill="#000000" font-family="sans-serif" font-size="13" lengthAdjust="spacing" textLength="38.124" x="449.3804" y="845.8276">scope</text><text fill="#000000" font-family="sans-serif" font-size="13" lengthAdjust="spacing" textLength="137.1157" x="449.3804" y="860.9604">response_type=code</text><text fill="#000000" font-family="sans-serif" font-size="13" lengthAdjust="spacing" textLength="178.7056" x="449.3804" y="876.0933">response_mode=form_post</text><text fill="#000000" font-family="sans-serif" font-size="13" lengthAdjust="spacing" textLength="201.5762" x="449.3804" y="891.2261">code_challenge_method=S256</text><text fill="#000000" font-family="sans-serif" font-size="13" lengthAdjust="spacing" textLength="100.915" x="449.3804" y="906.3589">code_challenge</text><text fill="#000000" font-family="sans-serif" font-size="13" lengthAdjust="spacing" textLength="4.1323" x="449.3804" y="921.4917">&#160;</text><rect fill="#F1F1F1" height="75.875" rx="12.5" ry="12.5" style="stroke:#181818;stroke-width:0.5;" width="195.5176" x="685.9565" y="780.6904"/><text fill="#000000" font-family="sans-serif" font-size="12" lengthAdjust="spacing" textLength="55.7813" x="695.9565" y="801.8291">Backend:</text><text fill="#000000" font-family="sans-serif" font-size="12" lengthAdjust="spacing" textLength="107.5898" x="695.9565" y="815.7979">Muodosta OAuth2</text><text fill="#000000" font-family="sans-serif" font-size="12" lengthAdjust="spacing" textLength="175.5176" x="695.9565" y="829.7666">authorization endpoint URI ja</text><text fill="#000000" font-family="sans-serif" font-size="12" lengthAdjust="spacing" textLength="168.334" x="695.9565" y="843.7354">ohjaa k&#228;ytt&#228;j&#228;n selain sinne</text><rect fill="#F1F1F1" height="61.9063" rx="12.5" ry="12.5" style="stroke:#181818;stroke-width:0.5;" width="161.5566" x="702.937" y="1435.7061"/><text fill="#000000" font-family="sans-serif" font-size="12" lengthAdjust="spacing" textLength="55.7813" x="712.937" y="1456.8447">Backend:</text><text fill="#000000" font-family="sans-serif" font-size="12" lengthAdjust="spacing" textLength="141.5566" x="712.937" y="1470.8135">Hae statelle tallennettu</text><text fill="#000000" font-family="sans-serif" font-size="12" lengthAdjust="spacing" textLength="77.5664" x="712.937" y="1484.7822">code_verifier</text><path d="M356.0503,1507.6123 L356.0503,1820.2686 A0,0 0 0 0 356.0503,1820.2686 L687.2349,1820.2686 A0,0 0 0 0 687.2349,1820.2686 L687.2349,1667.9404 L707.2349,1663.9404 L687.2349,1659.9404 L687.2349,1517.6123 L677.2349,1507.6123 L356.0503,1507.6123 A0,0 0 0 0 356.0503,1507.6123 " fill="#FEFFDD" style="stroke:#181818;stroke-width:0.5;"/><path d="M677.2349,1507.6123 L677.2349,1517.6123 L687.2349,1517.6123 L677.2349,1507.6123 " fill="#FEFFDD" style="stroke:#181818;stroke-width:0.5;"/><text fill="#000000" font-family="sans-serif" font-size="13" lengthAdjust="spacing" textLength="112.3408" x="362.0503" y="1524.6792">mutual-TLS POST</text><text fill="#000000" font-family="sans-serif" font-size="13" lengthAdjust="spacing" textLength="310.1846" x="362.0503" y="1539.812">https://oph-koski-luovutuspalvelu.opintopolku.fi</text><text fill="#000000" font-family="sans-serif" font-size="13" lengthAdjust="spacing" textLength="174.6875" x="362.0503" y="1554.9448">/koski/api/omadata-oauth2</text><text fill="#000000" font-family="sans-serif" font-size="13" lengthAdjust="spacing" textLength="140.7466" x="362.0503" y="1570.0776">/authorization-server/</text><text fill="#000000" font-family="sans-serif" font-size="13" lengthAdjust="spacing" textLength="141.2036" x="370.3149" y="1585.2104">body=CODE_PARAMS</text><text fill="#000000" font-family="sans-serif" font-size="13" lengthAdjust="spacing" textLength="4.1323" x="362.0503" y="1600.3433">&#160;</text><text fill="#000000" font-family="sans-serif" font-size="13" lengthAdjust="spacing" textLength="140.0356" x="362.0503" y="1615.4761">mutual-TLS tarvitsee:</text><text fill="#000000" font-family="sans-serif" font-size="13" lengthAdjust="spacing" textLength="187.2178" x="362.0503" y="1630.6089">(1) Voimassaolevan luotetun</text><text fill="#000000" font-family="sans-serif" font-size="13" lengthAdjust="spacing" textLength="113.2041" x="370.3149" y="1645.7417">CA:n my&#246;nt&#228;m&#228;n</text><text fill="#000000" font-family="sans-serif" font-size="13" lengthAdjust="spacing" textLength="127.8228" x="370.3149" y="1660.8745">asiakasvarmenteen</text><text fill="#000000" font-family="sans-serif" font-size="13" lengthAdjust="spacing" textLength="115.5781" x="370.3149" y="1676.0073">(client certificate)</text><text fill="#000000" font-family="sans-serif" font-size="13" lengthAdjust="spacing" textLength="161.4336" x="362.0503" y="1691.1401">(2) Kiinte&#228;n IP-osoitteen/</text><text fill="#000000" font-family="sans-serif" font-size="13" lengthAdjust="spacing" textLength="74.6294" x="370.3149" y="1706.2729">-avaruuden</text><text fill="#000000" font-family="sans-serif" font-size="13" lengthAdjust="spacing" textLength="4.1323" x="362.0503" y="1721.4058">&#160;</text><text fill="#000000" font-family="sans-serif" font-size="13" lengthAdjust="spacing" textLength="102.54" x="362.0503" y="1736.5386">CODE_PARAMS:</text><text fill="#000000" font-family="sans-serif" font-size="13" lengthAdjust="spacing" textLength="205.3276" x="362.0503" y="1751.6714">grant_type=authorization_code</text><text fill="#000000" font-family="sans-serif" font-size="13" lengthAdjust="spacing" textLength="31.3511" x="362.0503" y="1766.8042">code</text><text fill="#000000" font-family="sans-serif" font-size="13" lengthAdjust="spacing" textLength="84.0303" x="362.0503" y="1781.937">code_verifier</text><text fill="#000000" font-family="sans-serif" font-size="13" lengthAdjust="spacing" textLength="74.4897" x="362.0503" y="1797.0698">redirect_uri</text><text fill="#000000" font-family="sans-serif" font-size="13" lengthAdjust="spacing" textLength="54.0693" x="362.0503" y="1812.2026">client_id</text><rect fill="#F1F1F1" height="61.9063" rx="12.5" ry="12.5" style="stroke:#181818;stroke-width:0.5;" width="152.9609" x="707.2349" y="1632.9873"/><text fill="#000000" font-family="sans-serif" font-size="12" lengthAdjust="spacing" textLength="55.7813" x="717.2349" y="1654.126">Backend:</text><text fill="#000000" font-family="sans-serif" font-size="12" lengthAdjust="spacing" textLength="132.9609" x="717.2349" y="1668.0947">Pyyd&#228; access tokenia,</text><text fill="#000000" font-family="sans-serif" font-size="12" lengthAdjust="spacing" textLength="129.9375" x="717.2349" y="1682.0635">mukana code_verifier</text><path d="M314.6655,2048.0498 L314.6655,2254.7764 A0,0 0 0 0 314.6655,2254.7764 L645.8501,2254.7764 A0,0 0 0 0 645.8501,2254.7764 L645.8501,2155.4131 L665.8501,2151.4131 L645.8501,2147.4131 L645.8501,2058.0498 L635.8501,2048.0498 L314.6655,2048.0498 A0,0 0 0 0 314.6655,2048.0498 " fill="#FEFFDD" style="stroke:#181818;stroke-width:0.5;"/><path d="M635.8501,2048.0498 L635.8501,2058.0498 L645.8501,2058.0498 L635.8501,2048.0498 " fill="#FEFFDD" style="stroke:#181818;stroke-width:0.5;"/><text fill="#000000" font-family="sans-serif" font-size="13" lengthAdjust="spacing" textLength="112.3408" x="320.6655" y="2065.1167">mutual-TLS POST</text><text fill="#000000" font-family="sans-serif" font-size="13" lengthAdjust="spacing" textLength="310.1846" x="320.6655" y="2080.2495">https://oph-koski-luovutuspalvelu.opintopolku.fi</text><text fill="#000000" font-family="sans-serif" font-size="13" lengthAdjust="spacing" textLength="281.709" x="320.6655" y="2095.3823">/koski/api/omadata-oauth2/resource-server</text><text fill="#000000" font-family="sans-serif" font-size="13" lengthAdjust="spacing" textLength="190.3027" x="328.9302" y="2110.5151">Authorization=Bearer TOKEN</text><text fill="#000000" font-family="sans-serif" font-size="13" lengthAdjust="spacing" textLength="4.1323" x="320.6655" y="2125.6479">&#160;</text><text fill="#000000" font-family="sans-serif" font-size="13" lengthAdjust="spacing" textLength="140.0356" x="320.6655" y="2140.7808">mutual-TLS tarvitsee:</text><text fill="#000000" font-family="sans-serif" font-size="13" lengthAdjust="spacing" textLength="187.2178" x="324.7979" y="2155.9136">(1) Voimassaolevan luotetun</text><text fill="#000000" font-family="sans-serif" font-size="13" lengthAdjust="spacing" textLength="113.2041" x="333.0625" y="2171.0464">CA:n my&#246;nt&#228;m&#228;n</text><text fill="#000000" font-family="sans-serif" font-size="13" lengthAdjust="spacing" textLength="127.8228" x="333.0625" y="2186.1792">asiakasvarmenteen</text><text fill="#000000" font-family="sans-serif" font-size="13" lengthAdjust="spacing" textLength="115.5781" x="333.0625" y="2201.312">(client certificate)</text><text fill="#000000" font-family="sans-serif" font-size="13" lengthAdjust="spacing" textLength="161.4336" x="324.7979" y="2216.4448">(2) Kiinte&#228;n IP-osoitteen/</text><text fill="#000000" font-family="sans-serif" font-size="13" lengthAdjust="spacing" textLength="74.6294" x="333.0625" y="2231.5776">-avaruuden</text><text fill="#000000" font-family="sans-serif" font-size="13" lengthAdjust="spacing" textLength="4.1323" x="320.6655" y="2246.7104">&#160;</text><rect fill="#F1F1F1" height="47.9375" rx="12.5" ry="12.5" style="stroke:#181818;stroke-width:0.5;" width="235.7305" x="665.8501" y="2127.4443"/><text fill="#000000" font-family="sans-serif" font-size="12" lengthAdjust="spacing" textLength="55.7813" x="675.8501" y="2148.583">Backend:</text><text fill="#000000" font-family="sans-serif" font-size="12" lengthAdjust="spacing" textLength="215.7305" x="675.8501" y="2162.5518">Pyyd&#228; opintotietoja access tokenilla</text><rect fill="#F1F1F1" height="47.9375" rx="12.5" ry="12.5" style="stroke:#181818;stroke-width:0.5;" width="192.6699" x="687.3804" y="2410.6514"/><text fill="#000000" font-family="sans-serif" font-size="12" lengthAdjust="spacing" textLength="55.7813" x="697.3804" y="2431.79">Backend:</text><text fill="#000000" font-family="sans-serif" font-size="12" lengthAdjust="spacing" textLength="172.6699" x="697.3804" y="2445.7588">Hae statelle tallennettu hetu</text><rect fill="#F1F1F1" height="47.9375" rx="12.5" ry="12.5" style="stroke:#181818;stroke-width:0.5;" width="183.5469" x="691.9419" y="2478.5889"/><text fill="#000000" font-family="sans-serif" font-size="12" lengthAdjust="spacing" textLength="55.7813" x="701.9419" y="2499.7275">Backend:</text><text fill="#000000" font-family="sans-serif" font-size="12" lengthAdjust="spacing" textLength="163.5469" x="701.9419" y="2513.6963">L&#228;het&#228; opintotiedot ja hetu</text><rect fill="#F1F1F1" height="47.9375" rx="12.5" ry="12.5" style="stroke:#181818;stroke-width:0.5;" width="158.0059" x="704.7124" y="2778.2764"/><text fill="#000000" font-family="sans-serif" font-size="12" lengthAdjust="spacing" textLength="55.7813" x="714.7124" y="2799.415">Backend:</text><text fill="#000000" font-family="sans-serif" font-size="12" lengthAdjust="spacing" textLength="138.0059" x="714.7124" y="2813.3838">L&#228;het&#228; opiskelijastatus</text><rect fill="#F1F1F1" height="61.9063" rx="12.5" ry="12.5" style="stroke:#181818;stroke-width:0.5;" width="212.7676" x="677.3315" y="2928.1201"/><text fill="#000000" font-family="sans-serif" font-size="12" lengthAdjust="spacing" textLength="55.7813" x="687.3315" y="2949.2588">Backend:</text><text fill="#000000" font-family="sans-serif" font-size="12" lengthAdjust="spacing" textLength="192.7676" x="687.3315" y="2963.2275">Uudelleenohjaa k&#228;ytt&#228;j&#228;n selain</text><text fill="#000000" font-family="sans-serif" font-size="12" lengthAdjust="spacing" textLength="181.0898" x="687.3315" y="2977.1963">takaisin hy&#246;dynt&#228;j&#228;-palveluun</text><line style="stroke:#000000;stroke-width:1.5;" x1="309.6655" x2="309.6655" y1="66.3389" y2="3032.0264"/><rect fill="#F1F1F1" height="61.9063" rx="12.5" ry="12.5" style="stroke:#181818;stroke-width:0.5;" width="176.832" x="1016.5767" y="2546.5264"/><text fill="#000000" font-family="sans-serif" font-size="12" lengthAdjust="spacing" textLength="55.7813" x="1026.5767" y="2567.665">Backend:</text><text fill="#000000" font-family="sans-serif" font-size="12" lengthAdjust="spacing" textLength="156.832" x="1026.5767" y="2581.6338">Tarkista, ett&#228; opintotiedot</text><text fill="#000000" font-family="sans-serif" font-size="12" lengthAdjust="spacing" textLength="97.7461" x="1026.5767" y="2595.6025">vastaavat hetua</text><rect fill="#F1F1F1" height="61.9063" rx="12.5" ry="12.5" style="stroke:#181818;stroke-width:0.5;" width="226.1914" x="991.897" y="2628.4326"/><text fill="#000000" font-family="sans-serif" font-size="12" lengthAdjust="spacing" textLength="55.7813" x="1001.897" y="2649.5713">Backend:</text><text fill="#000000" font-family="sans-serif" font-size="12" lengthAdjust="spacing" textLength="146.373" x="1001.897" y="2663.54">P&#228;&#228;ttele opiskelijastatus</text><text fill="#000000" font-family="sans-serif" font-size="12" lengthAdjust="spacing" textLength="206.1914" x="1001.897" y="2677.5088">opintotiedoista ("s&#228;&#228;nt&#246;moottori")</text><rect fill="#F1F1F1" height="47.9375" rx="12.5" ry="12.5" style="stroke:#181818;stroke-width:0.5;" width="186.5" x="1011.7427" y="2710.3389"/><text fill="#000000" font-family="sans-serif" font-size="12" lengthAdjust="spacing" textLength="55.7813" x="1021.7427" y="2731.4775">Backend:</text><text fill="#000000" font-family="sans-serif" font-size="12" lengthAdjust="spacing" textLength="166.5" x="1021.7427" y="2745.4463">Vastaa opiskelijastatuksella</text><line style="stroke:#000000;stroke-width:1.5;" x1="905.5806" x2="905.5806" y1="66.3389" y2="3032.0264"/><rect fill="#F1F1F1" height="33.9688" rx="12.5" ry="12.5" style="stroke:#181818;stroke-width:0.5;" width="205.1211" x="1668.0977" y="949.5576"/><text fill="#000000" font-family="sans-serif" font-size="12" lengthAdjust="spacing" textLength="185.1211" x="1678.0977" y="970.6963">Aloita vahva tunnistautuminen</text><rect fill="#F1F1F1" height="47.9375" rx="12.5" ry="12.5" style="stroke:#181818;stroke-width:0.5;" width="217.707" x="1661.8047" y="1071.4639"/><text fill="#000000" font-family="sans-serif" font-size="12" lengthAdjust="spacing" textLength="197.707" x="1671.8047" y="1092.6025">K&#228;ytt&#228;j&#228; hyv&#228;ksyy opintotietojen</text><text fill="#000000" font-family="sans-serif" font-size="12" lengthAdjust="spacing" textLength="86.0156" x="1671.8047" y="1106.5713">luovuttamisen</text><rect fill="#F1F1F1" height="89.8438" rx="12.5" ry="12.5" style="stroke:#181818;stroke-width:0.5;" width="243.7402" x="1648.7881" y="1139.4014"/><text fill="#000000" font-family="sans-serif" font-size="12" lengthAdjust="spacing" textLength="55.7813" x="1658.7881" y="1160.54">Backend:</text><text fill="#000000" font-family="sans-serif" font-size="12" lengthAdjust="spacing" textLength="141.5332" x="1658.7881" y="1174.5088">Luo authorization code,</text><text fill="#000000" font-family="sans-serif" font-size="12" lengthAdjust="spacing" textLength="194.3906" x="1658.7881" y="1188.4775">vastaanota ja tallenna k&#228;ytt&#228;j&#228;n</text><text fill="#000000" font-family="sans-serif" font-size="12" lengthAdjust="spacing" textLength="146.9355" x="1658.7881" y="1202.4463">antama suostumus sek&#228;</text><text fill="#000000" font-family="sans-serif" font-size="12" lengthAdjust="spacing" textLength="223.7402" x="1658.7881" y="1216.415">authorization code ja code_challenge</text><path d="M1307.4048,1239.2451 L1307.4048,1415.7061 A0,0 0 0 0 1307.4048,1415.7061 L1613.2051,1415.7061 A0,0 0 0 0 1613.2051,1415.7061 L1613.2051,1331.4756 L1633.2051,1327.4756 L1613.2051,1323.4756 L1613.2051,1249.2451 L1603.2051,1239.2451 L1307.4048,1239.2451 A0,0 0 0 0 1307.4048,1239.2451 " fill="#FEFFDD" style="stroke:#181818;stroke-width:0.5;"/><path d="M1603.2051,1239.2451 L1603.2051,1249.2451 L1613.2051,1249.2451 L1603.2051,1239.2451 " fill="#FEFFDD" style="stroke:#181818;stroke-width:0.5;"/><text fill="#000000" font-family="sans-serif" font-size="13" lengthAdjust="spacing" textLength="112.8867" x="1313.4048" y="1256.312">POST redirect_uri</text><text fill="#000000" font-family="sans-serif" font-size="13" lengthAdjust="spacing" textLength="156.8379" x="1313.4048" y="1271.4448">body=CODE_RESPONSE</text><text fill="#000000" font-family="sans-serif" font-size="13" lengthAdjust="spacing" textLength="4.1323" x="1313.4048" y="1286.5776">&#160;</text><text fill="#000000" font-family="sans-serif" font-size="13" lengthAdjust="spacing" textLength="118.1743" x="1313.4048" y="1301.7104">CODE_RESPONSE:</text><text fill="#000000" font-family="sans-serif" font-size="13" lengthAdjust="spacing" textLength="32.9316" x="1313.4048" y="1316.8433">state</text><text fill="#000000" font-family="sans-serif" font-size="13" lengthAdjust="spacing" textLength="31.3511" x="1313.4048" y="1331.9761">code</text><text fill="#000000" font-family="sans-serif" font-size="13" lengthAdjust="spacing" textLength="276.5356" x="1321.6694" y="1347.1089">Virhetilanteissa code:n sijasta voi sis&#228;lt&#228;&#228;:</text><text fill="#000000" font-family="sans-serif" font-size="13" lengthAdjust="spacing" textLength="31.9858" x="1313.4048" y="1362.2417">error</text><text fill="#000000" font-family="sans-serif" font-size="13" lengthAdjust="spacing" textLength="110.7666" x="1313.4048" y="1377.3745">error_description</text><text fill="#000000" font-family="sans-serif" font-size="13" lengthAdjust="spacing" textLength="55.6816" x="1313.4048" y="1392.5073">error_uri</text><text fill="#000000" font-family="sans-serif" font-size="13" lengthAdjust="spacing" textLength="4.1323" x="1313.4048" y="1407.6401">&#160;</text><rect fill="#F1F1F1" height="47.9375" rx="12.5" ry="12.5" style="stroke:#181818;stroke-width:0.5;" width="274.9063" x="1633.2051" y="1303.5068"/><text fill="#000000" font-family="sans-serif" font-size="12" lengthAdjust="spacing" textLength="40.6699" x="1643.2051" y="1324.6455">Selain:</text><text fill="#000000" font-family="sans-serif" font-size="12" lengthAdjust="spacing" textLength="254.9063" x="1643.2051" y="1338.6143">L&#228;het&#228; OAuth2 authorization code ja state</text><rect fill="#F1F1F1" height="47.9375" rx="12.5" ry="12.5" style="stroke:#181818;stroke-width:0.5;" width="203.0352" x="1669.1406" y="1840.2686"/><text fill="#000000" font-family="sans-serif" font-size="12" lengthAdjust="spacing" textLength="55.7813" x="1679.1406" y="1861.4072">Backend:</text><text fill="#000000" font-family="sans-serif" font-size="12" lengthAdjust="spacing" textLength="183.0352" x="1679.1406" y="1875.376">Tarkista varmenne ja ip-osoite</text><rect fill="#F1F1F1" height="61.9063" rx="12.5" ry="12.5" style="stroke:#181818;stroke-width:0.5;" width="247.0742" x="1647.1211" y="1908.2061"/><text fill="#000000" font-family="sans-serif" font-size="12" lengthAdjust="spacing" textLength="55.7813" x="1657.1211" y="1929.3447">Backend:</text><text fill="#000000" font-family="sans-serif" font-size="12" lengthAdjust="spacing" textLength="227.0742" x="1657.1211" y="1943.3135">Tarkista code_challenge-code_verifier</text><text fill="#000000" font-family="sans-serif" font-size="12" lengthAdjust="spacing" textLength="68.6836" x="1657.1211" y="1957.2822">vastaavuus</text><rect fill="#F1F1F1" height="47.9375" rx="12.5" ry="12.5" style="stroke:#181818;stroke-width:0.5;" width="255.7754" x="1642.7705" y="1990.1123"/><text fill="#000000" font-family="sans-serif" font-size="12" lengthAdjust="spacing" textLength="55.7813" x="1652.7705" y="2011.251">Backend:</text><text fill="#000000" font-family="sans-serif" font-size="12" lengthAdjust="spacing" textLength="235.7754" x="1652.7705" y="2025.2197">Luo, tallenna ja vastaa access tokenilla</text><rect fill="#F1F1F1" height="47.9375" rx="12.5" ry="12.5" style="stroke:#181818;stroke-width:0.5;" width="203.0352" x="1669.1406" y="2274.7764"/><text fill="#000000" font-family="sans-serif" font-size="12" lengthAdjust="spacing" textLength="55.7813" x="1679.1406" y="2295.915">Backend:</text><text fill="#000000" font-family="sans-serif" font-size="12" lengthAdjust="spacing" textLength="183.0352" x="1679.1406" y="2309.8838">Tarkista varmenne ja ip-osoite</text><rect fill="#F1F1F1" height="47.9375" rx="12.5" ry="12.5" style="stroke:#181818;stroke-width:0.5;" width="150.7227" x="1695.2969" y="2342.7139"/><text fill="#000000" font-family="sans-serif" font-size="12" lengthAdjust="spacing" textLength="55.7813" x="1705.2969" y="2363.8525">Backend:</text><text fill="#000000" font-family="sans-serif" font-size="12" lengthAdjust="spacing" textLength="130.7227" x="1705.2969" y="2377.8213">Vastaa opintotiedoilla</text><line style="stroke:#000000;stroke-width:1.5;" x1="1302.4048" x2="1302.4048" y1="66.3389" y2="3032.0264"/><rect fill="#F1F1F1" height="33.9688" rx="12.5" ry="12.5" style="stroke:#181818;stroke-width:0.5;" width="94.6191" x="1972.9434" y="228.167"/><text fill="#000000" font-family="sans-serif" font-size="12" lengthAdjust="spacing" textLength="74.6191" x="1982.9434" y="249.3057">Tunnistaudu</text><rect fill="#F1F1F1" height="47.9375" rx="12.5" ry="12.5" style="stroke:#181818;stroke-width:0.5;" width="204.2832" x="1918.1113" y="1003.5264"/><text fill="#000000" font-family="sans-serif" font-size="12" lengthAdjust="spacing" textLength="170.3438" x="1928.1113" y="1024.665">L&#228;het&#228; tunnistautumistiedot</text><text fill="#000000" font-family="sans-serif" font-size="12" lengthAdjust="spacing" textLength="184.2832" x="1928.1113" y="1038.6338">(k&#228;ytt&#228;j&#228; on jo tunnistautunut)</text><line style="stroke:#000000;stroke-width:1.5;" x1="1912.1113" x2="1912.1113" y1="66.3389" y2="3032.0264"/><line style="stroke:#000000;stroke-width:1.5;" x1="2126.3945" x2="2126.3945" y1="66.3389" y2="3032.0264"/><line style="stroke:#181818;stroke-width:1.0;" x1="219.0894" x2="219.0894" y1="112.292" y2="132.292"/><polygon fill="#181818" points="215.0894,122.292,219.0894,132.292,223.0894,122.292,219.0894,126.292" style="stroke:#181818;stroke-width:1.0;"/><line style="stroke:#181818;stroke-width:1.0;" x1="783.7153" x2="783.7153" y1="411.9795" y2="431.9795"/><polygon fill="#181818" points="779.7153,421.9795,783.7153,431.9795,787.7153,421.9795,783.7153,425.9795" style="stroke:#181818;stroke-width:1.0;"/><line style="stroke:#181818;stroke-width:1.0;" x1="783.7153" x2="783.7153" y1="493.8857" y2="513.8857"/><polygon fill="#181818" points="779.7153,503.8857,783.7153,513.8857,787.7153,503.8857,783.7153,507.8857" style="stroke:#181818;stroke-width:1.0;"/><line style="stroke:#181818;stroke-width:1.0;" x1="783.7153" x2="783.7153" y1="697.6982" y2="780.6904"/><polygon fill="#181818" points="779.7153,770.6904,783.7153,780.6904,787.7153,770.6904,783.7153,774.6904" style="stroke:#181818;stroke-width:1.0;"/><line style="stroke:#181818;stroke-width:1.0;" x1="783.7153" x2="783.7153" y1="1497.6123" y2="1632.9873"/><polygon fill="#181818" points="779.7153,1622.9873,783.7153,1632.9873,787.7153,1622.9873,783.7153,1626.9873" style="stroke:#181818;stroke-width:1.0;"/><line style="stroke:#181818;stroke-width:1.0;" x1="783.7153" x2="783.7153" y1="2458.5889" y2="2478.5889"/><polygon fill="#181818" points="779.7153,2468.5889,783.7153,2478.5889,787.7153,2468.5889,783.7153,2472.5889" style="stroke:#181818;stroke-width:1.0;"/><line style="stroke:#181818;stroke-width:1.0;" x1="1104.9927" x2="1104.9927" y1="2608.4326" y2="2628.4326"/><polygon fill="#181818" points="1100.9927,2618.4326,1104.9927,2628.4326,1108.9927,2618.4326,1104.9927,2622.4326" style="stroke:#181818;stroke-width:1.0;"/><line style="stroke:#181818;stroke-width:1.0;" x1="1104.9927" x2="1104.9927" y1="2690.3389" y2="2710.3389"/><polygon fill="#181818" points="1100.9927,2700.3389,1104.9927,2710.3389,1108.9927,2700.3389,1104.9927,2704.3389" style="stroke:#181818;stroke-width:1.0;"/><line style="stroke:#181818;stroke-width:1.0;" x1="1770.6582" x2="1770.6582" y1="1119.4014" y2="1139.4014"/><polygon fill="#181818" points="1766.6582,1129.4014,1770.6582,1139.4014,1774.6582,1129.4014,1770.6582,1133.4014" style="stroke:#181818;stroke-width:1.0;"/><line style="stroke:#181818;stroke-width:1.0;" x1="1770.6582" x2="1770.6582" y1="1229.2451" y2="1303.5068"/><polygon fill="#181818" points="1766.6582,1293.5068,1770.6582,1303.5068,1774.6582,1293.5068,1770.6582,1297.5068" style="stroke:#181818;stroke-width:1.0;"/><line style="stroke:#181818;stroke-width:1.0;" x1="1770.6582" x2="1770.6582" y1="1888.2061" y2="1908.2061"/><polygon fill="#181818" points="1766.6582,1898.2061,1770.6582,1908.2061,1774.6582,1898.2061,1770.6582,1902.2061" style="stroke:#181818;stroke-width:1.0;"/><line style="stroke:#181818;stroke-width:1.0;" x1="1770.6582" x2="1770.6582" y1="1970.1123" y2="1990.1123"/><polygon fill="#181818" points="1766.6582,1980.1123,1770.6582,1990.1123,1774.6582,1980.1123,1770.6582,1984.1123" style="stroke:#181818;stroke-width:1.0;"/><line style="stroke:#181818;stroke-width:1.0;" x1="1770.6582" x2="1770.6582" y1="2322.7139" y2="2342.7139"/><polygon fill="#181818" points="1766.6582,2332.7139,1770.6582,2342.7139,1774.6582,2332.7139,1770.6582,2336.7139" style="stroke:#181818;stroke-width:1.0;"/><line style="stroke:#181818;stroke-width:1.0;" x1="219.0894" x2="219.0894" y1="208.167" y2="213.167"/><line style="stroke:#181818;stroke-width:1.0;" x1="219.0894" x2="2020.2529" y1="213.167" y2="213.167"/><line style="stroke:#181818;stroke-width:1.0;" x1="2020.2529" x2="2020.2529" y1="213.167" y2="228.167"/><polygon fill="#181818" points="2016.2529,218.167,2020.2529,228.167,2024.2529,218.167,2020.2529,222.167" style="stroke:#181818;stroke-width:1.0;"/><line style="stroke:#181818;stroke-width:1.0;" x1="2020.2529" x2="2020.2529" y1="262.1357" y2="267.1357"/><line style="stroke:#181818;stroke-width:1.0;" x1="2020.2529" x2="219.0894" y1="267.1357" y2="267.1357"/><line style="stroke:#181818;stroke-width:1.0;" x1="219.0894" x2="219.0894" y1="267.1357" y2="282.1357"/><polygon fill="#181818" points="215.0894,272.1357,219.0894,282.1357,223.0894,272.1357,219.0894,276.1357" style="stroke:#181818;stroke-width:1.0;"/><line style="stroke:#181818;stroke-width:1.0;" x1="219.0894" x2="219.0894" y1="344.042" y2="349.042"/><line style="stroke:#181818;stroke-width:1.0;" x1="219.0894" x2="783.7153" y1="349.042" y2="349.042"/><line style="stroke:#181818;stroke-width:1.0;" x1="783.7153" x2="783.7153" y1="349.042" y2="364.042"/><polygon fill="#181818" points="779.7153,354.042,783.7153,364.042,787.7153,354.042,783.7153,358.042" style="stroke:#181818;stroke-width:1.0;"/><line style="stroke:#181818;stroke-width:1.0;" x1="783.7153" x2="783.7153" y1="561.8232" y2="566.8232"/><line style="stroke:#181818;stroke-width:1.0;" x1="783.7153" x2="219.0894" y1="566.8232" y2="566.8232"/><line style="stroke:#181818;stroke-width:1.0;" x1="219.0894" x2="219.0894" y1="566.8232" y2="581.8232"/><polygon fill="#181818" points="215.0894,571.8232,219.0894,581.8232,223.0894,571.8232,219.0894,575.8232" style="stroke:#181818;stroke-width:1.0;"/><line style="stroke:#181818;stroke-width:1.0;" x1="219.0894" x2="219.0894" y1="629.7607" y2="634.7607"/><line style="stroke:#181818;stroke-width:1.0;" x1="219.0894" x2="783.7153" y1="634.7607" y2="634.7607"/><line style="stroke:#181818;stroke-width:1.0;" x1="783.7153" x2="783.7153" y1="634.7607" y2="649.7607"/><polygon fill="#181818" points="779.7153,639.7607,783.7153,649.7607,787.7153,639.7607,783.7153,643.7607" style="stroke:#181818;stroke-width:1.0;"/><line style="stroke:#181818;stroke-width:1.0;" x1="783.7153" x2="783.7153" y1="856.5654" y2="910.5615"/><line style="stroke:#181818;stroke-width:1.0;" x1="783.7153" x2="1770.6582" y1="910.5615" y2="910.5615"/><line style="stroke:#181818;stroke-width:1.0;" x1="1770.6582" x2="1770.6582" y1="910.5615" y2="949.5576"/><polygon fill="#181818" points="1766.6582,939.5576,1770.6582,949.5576,1774.6582,939.5576,1770.6582,943.5576" style="stroke:#181818;stroke-width:1.0;"/><line style="stroke:#181818;stroke-width:1.0;" x1="1770.6582" x2="1770.6582" y1="983.5264" y2="988.5264"/><line style="stroke:#181818;stroke-width:1.0;" x1="1770.6582" x2="2020.2529" y1="988.5264" y2="988.5264"/><line style="stroke:#181818;stroke-width:1.0;" x1="2020.2529" x2="2020.2529" y1="988.5264" y2="1003.5264"/><polygon fill="#181818" points="2016.2529,993.5264,2020.2529,1003.5264,2024.2529,993.5264,2020.2529,997.5264" style="stroke:#181818;stroke-width:1.0;"/><line style="stroke:#181818;stroke-width:1.0;" x1="2020.2529" x2="2020.2529" y1="1051.4639" y2="1056.4639"/><line style="stroke:#181818;stroke-width:1.0;" x1="2020.2529" x2="1770.6582" y1="1056.4639" y2="1056.4639"/><line style="stroke:#181818;stroke-width:1.0;" x1="1770.6582" x2="1770.6582" y1="1056.4639" y2="1071.4639"/><polygon fill="#181818" points="1766.6582,1061.4639,1770.6582,1071.4639,1774.6582,1061.4639,1770.6582,1065.4639" style="stroke:#181818;stroke-width:1.0;"/><line style="stroke:#181818;stroke-width:1.0;" x1="1770.6582" x2="1770.6582" y1="1351.4443" y2="1401.0752"/><line style="stroke:#181818;stroke-width:1.0;" x1="1770.6582" x2="783.7153" y1="1401.0752" y2="1401.0752"/><line style="stroke:#181818;stroke-width:1.0;" x1="783.7153" x2="783.7153" y1="1401.0752" y2="1435.7061"/><polygon fill="#181818" points="779.7153,1425.7061,783.7153,1435.7061,787.7153,1425.7061,783.7153,1429.7061" style="stroke:#181818;stroke-width:1.0;"/><line style="stroke:#181818;stroke-width:1.0;" x1="783.7153" x2="783.7153" y1="1694.8936" y2="1775.0811"/><line style="stroke:#181818;stroke-width:1.0;" x1="783.7153" x2="1770.6582" y1="1775.0811" y2="1775.0811"/><line style="stroke:#181818;stroke-width:1.0;" x1="1770.6582" x2="1770.6582" y1="1775.0811" y2="1840.2686"/><polygon fill="#181818" points="1766.6582,1830.2686,1770.6582,1840.2686,1774.6582,1830.2686,1770.6582,1834.2686" style="stroke:#181818;stroke-width:1.0;"/><line style="stroke:#181818;stroke-width:1.0;" x1="1770.6582" x2="1770.6582" y1="2038.0498" y2="2070.2471"/><line style="stroke:#181818;stroke-width:1.0;" x1="1770.6582" x2="783.7153" y1="2070.2471" y2="2070.2471"/><line style="stroke:#181818;stroke-width:1.0;" x1="783.7153" x2="783.7153" y1="2070.2471" y2="2127.4443"/><polygon fill="#181818" points="779.7153,2117.4443,783.7153,2127.4443,787.7153,2117.4443,783.7153,2121.4443" style="stroke:#181818;stroke-width:1.0;"/><line style="stroke:#181818;stroke-width:1.0;" x1="783.7153" x2="783.7153" y1="2175.3818" y2="2232.5791"/><line style="stroke:#181818;stroke-width:1.0;" x1="783.7153" x2="1770.6582" y1="2232.5791" y2="2232.5791"/><line style="stroke:#181818;stroke-width:1.0;" x1="1770.6582" x2="1770.6582" y1="2232.5791" y2="2274.7764"/><polygon fill="#181818" points="1766.6582,2264.7764,1770.6582,2274.7764,1774.6582,2264.7764,1770.6582,2268.7764" style="stroke:#181818;stroke-width:1.0;"/><line style="stroke:#181818;stroke-width:1.0;" x1="1770.6582" x2="1770.6582" y1="2390.6514" y2="2395.6514"/><line style="stroke:#181818;stroke-width:1.0;" x1="1770.6582" x2="783.7153" y1="2395.6514" y2="2395.6514"/><line style="stroke:#181818;stroke-width:1.0;" x1="783.7153" x2="783.7153" y1="2395.6514" y2="2410.6514"/><polygon fill="#181818" points="779.7153,2400.6514,783.7153,2410.6514,787.7153,2400.6514,783.7153,2404.6514" style="stroke:#181818;stroke-width:1.0;"/><line style="stroke:#181818;stroke-width:1.0;" x1="783.7153" x2="783.7153" y1="2526.5264" y2="2531.5264"/><line style="stroke:#181818;stroke-width:1.0;" x1="783.7153" x2="1104.9927" y1="2531.5264" y2="2531.5264"/><line style="stroke:#181818;stroke-width:1.0;" x1="1104.9927" x2="1104.9927" y1="2531.5264" y2="2546.5264"/><polygon fill="#181818" points="1100.9927,2536.5264,1104.9927,2546.5264,1108.9927,2536.5264,1104.9927,2540.5264" style="stroke:#181818;stroke-width:1.0;"/><line style="stroke:#181818;stroke-width:1.0;" x1="1104.9927" x2="1104.9927" y1="2758.2764" y2="2763.2764"/><line style="stroke:#181818;stroke-width:1.0;" x1="1104.9927" x2="783.7153" y1="2763.2764" y2="2763.2764"/><line style="stroke:#181818;stroke-width:1.0;" x1="783.7153" x2="783.7153" y1="2763.2764" y2="2778.2764"/><polygon fill="#181818" points="779.7153,2768.2764,783.7153,2778.2764,787.7153,2768.2764,783.7153,2772.2764" style="stroke:#181818;stroke-width:1.0;"/><line style="stroke:#181818;stroke-width:1.0;" x1="783.7153" x2="783.7153" y1="2826.2139" y2="2831.2139"/><line style="stroke:#181818;stroke-width:1.0;" x1="783.7153" x2="219.0894" y1="2831.2139" y2="2831.2139"/><line style="stroke:#181818;stroke-width:1.0;" x1="219.0894" x2="219.0894" y1="2831.2139" y2="2846.2139"/><polygon fill="#181818" points="215.0894,2836.2139,219.0894,2846.2139,223.0894,2836.2139,219.0894,2840.2139" style="stroke:#181818;stroke-width:1.0;"/><line style="stroke:#181818;stroke-width:1.0;" x1="219.0894" x2="219.0894" y1="2908.1201" y2="2913.1201"/><line style="stroke:#181818;stroke-width:1.0;" x1="219.0894" x2="783.7153" y1="2913.1201" y2="2913.1201"/><line style="stroke:#181818;stroke-width:1.0;" x1="783.7153" x2="783.7153" y1="2913.1201" y2="2928.1201"/><polygon fill="#181818" points="779.7153,2918.1201,783.7153,2928.1201,787.7153,2918.1201,783.7153,2922.1201" style="stroke:#181818;stroke-width:1.0;"/><line style="stroke:#181818;stroke-width:1.0;" x1="783.7153" x2="783.7153" y1="2990.0264" y2="2995.0264"/><line style="stroke:#181818;stroke-width:1.0;" x1="783.7153" x2="219.0894" y1="2995.0264" y2="2995.0264"/><line style="stroke:#181818;stroke-width:1.0;" x1="219.0894" x2="219.0894" y1="2995.0264" y2="3010.0264"/><polygon fill="#181818" points="215.0894,3000.0264,219.0894,3010.0264,223.0894,3000.0264,219.0894,3004.0264" style="stroke:#181818;stroke-width:1.0;"/><text fill="#000000" font-family="sans-serif" font-size="18" lengthAdjust="spacing" textLength="174.8936" x="74.886" y="83.0469">Hy&#246;dynt&#228;j&#228;-palvelu</text><text fill="#000000" font-family="sans-serif" font-size="18" lengthAdjust="spacing" textLength="345.0322" x="435.1069" y="83.0469">Hy&#246;dynt&#228;j&#228;n KOSKI-integraatiopalvelu</text><text fill="#000000" font-family="sans-serif" font-size="18" lengthAdjust="spacing" textLength="386.8242" x="910.5806" y="83.0469">Hy&#246;dynt&#228;j&#228;n tilaton s&#228;&#228;nt&#246;moottoripalvelu</text><text fill="#000000" font-family="sans-serif" font-size="18" lengthAdjust="spacing" textLength="98.7891" x="1557.8635" y="83.0469">OPH KOSKI</text><text fill="#000000" font-family="sans-serif" font-size="18" lengthAdjust="spacing" textLength="73.4414" x="1982.5322" y="83.0469">Suomi.fi</text><!--SRC=[lLVBRkCs5DtpAuXPEK0Kem7QXOmiFDC02Po9ZTYJLG638zsCQ4ca85vge2AVus-O7z2FzLBoW_8ZRJD5Dt5CYVTr7gHHOWPyEhQONFCW4KLHyq9WmWEHegma0Y3AM8flfSXpoSrtcMT2WSmoyOU2KjROhBbfrirQOVCZrnfHbx8GMGMPPQztTVCZhkdHUjMiWytowy6wufFfV78VI8L0UGHAVVPDb9b0hSwcf1tJsLqNy9MTBS2WA965asPTO_UCYqe8RY0JCWTZ1FiENmCZAwlOId2HQOb8BrGYgOHYQ9MI5CIYpQK1DQ9KSwjpUVKYNrcus3wExUXy4RtqHieIwvfv5UY29g9H0keLA9w8r5fr5E-jwR7mqQLmuNTXUJyiSs5Liqxhl5cFcD88F8CNP8jcxJPk7z6_87dLh3DNCIsu3qvZ99881YhcRYiBFueefMyXUx2QiXeZDQS16c8CS1e9mYMBT0pBA16qfBw1UzokLCId5mdbo8jo9u0de5APDJ-ev5WZ7oI0zkAjkUvspqH648c327wNBfPgsv9O6mP6vbUkPwdsFVshWUzoBzhsb4kEjkjSyJf1g4bKok_nizMnfXSsEcHKSaAC_jD5LfnUAJJbub-UxcbKJ2Shuc6wfuxgmAKFgHJqcaCiJ3WSTeWNEaijyPCDKsrIETIvY0MAG8iswt2R5eQpyTFuyvonxZDaKIP1uLB6h8HObX3XqfQIjJqn4-a2w84fj3AmnBg06mVdVYcdRpSlkioN1RLvWFuo1qeRtyolV_tju17p8V1K7OwT6ZTQv3qfgYCfFZHh0i1HjIVPZWbiuCsHqx1NsdzFMMnvvkVsDPlKH9pKrFMXfZAhAqj-iV66lYZwyBgMBrabAAEWLeLJ0swfuwFCXAA0f2HBGxIvDGGxFMV7uNQ2sasIIfYt7A4AjlFOcFxfxIsqFfLcq_c2zz3_gkFwvjFqzzlbq-ryDdsStpBM-nfk2DAIWVDdML9Yic-IZNG-vDP3nzgLQvvNceuNQPp1EBS96PIbBhk_onXCH1xlQjoik19-LgBENDeQdJTjXaxddMK7TkGxIbt7xh288h8sZffMfRXakKs5EhAn_VXoOfF8WiN3dBj9UifCWbQDGKSPQpPrNftMh2ZEwxP5C31GKW536lWUeAsUlIewupO08HlySi6VjSm5WQ8peEEDKp7eZ96YV1eJHZaDLtMsxzQ4aI8LfX9bJhv0RaPhWyuaU0GbKliHJVM23Qul-4Gw51mczxD06tUEqWvNO417RcbjJFkPLsV823AoczP9UiqjMohj_kmctRUblLkTiG_FeijKjjnhEr4jzMNHLGcZKs_sTHNqo-XKN5bh3ZH_kPVqocLph_KvHFUfqJjPlA6aRq6dWlyVP1oIvsjRHh2X8O4yzW6y-GYYX98lffFRntDyv6yJyYGZJrBoD2VvswJiiVA_8z1pX_aEf5Z_3EJdZAkzQxmtwEvay8f4rz2Pe7z_5JyUr2K7F4onbOt0DfFmnpPpiGaRQfEsc1IoxhGWRZ9_bWw3mOUZIZvSdCR03vJIxUdzIFX3wvKt-WVNqzqLyN3pzaB0fvFt5lQ564pHGPszBp8anKYwDD8zvaIX9tvg-B-VTC7-0W00]--></g></svg>