<svg xmlns="http://www.w3.org/2000/svg" xmlns:xlink="http://www.w3.org/1999/xlink" contentStyleType="text/css" height="2360px" preserveAspectRatio="none" style="width:2037px;height:2360px;background:#FFFFFF;" version="1.1" viewBox="0 0 2037 2360" width="2037px" zoomAndPan="magnify"><title>OAuth2 -happy path -sekvenssi esimerkki-hy&#246;dynt&#228;j&#228;lle</title><defs/><g><text fill="#000000" font-family="sans-serif" font-size="14" font-weight="bold" lengthAdjust="spacing" textLength="442.2715" x="799.0308" y="27.9951">OAuth2 -happy path -sekvenssi esimerkki-hy&#246;dynt&#228;j&#228;lle</text><rect fill="none" height="479.9219" style="stroke:#000000;stroke-width:1.5;" width="969.9351" x="20" y="135.5938"/><rect fill="none" height="779.5156" style="stroke:#000000;stroke-width:1.5;" width="2011.333" x="20" y="629.5156"/><rect fill="none" height="349.9922" style="stroke:#000000;stroke-width:1.5;" width="1721.3848" x="160" y="1423.0313"/><rect fill="none" height="147.7969" style="stroke:#000000;stroke-width:1.5;" width="1561.1865" x="262.3711" y="1787.0234"/><rect fill="none" height="313.4609" style="stroke:#000000;stroke-width:1.5;" width="989.9351" x="10" y="1948.8203"/><rect fill="none" height="108.5313" style="stroke:#000000;stroke-width:1.5;" width="969.9351" x="20" y="2146.75"/><line style="stroke:#181818;stroke-width:0.5;stroke-dasharray:5.0,5.0;" x1="62" x2="62" y1="118.5938" y2="2279.2813"/><line style="stroke:#181818;stroke-width:0.5;stroke-dasharray:5.0,5.0;" x1="183.0713" x2="183.0713" y1="118.5938" y2="2279.2813"/><line style="stroke:#181818;stroke-width:0.5;stroke-dasharray:5.0,5.0;" x1="401.3711" x2="401.3711" y1="118.5938" y2="2279.2813"/><line style="stroke:#181818;stroke-width:0.5;stroke-dasharray:5.0,5.0;" x1="904.9438" x2="904.9438" y1="118.5938" y2="2279.2813"/><line style="stroke:#181818;stroke-width:0.5;stroke-dasharray:5.0,5.0;" x1="1560.4746" x2="1560.4746" y1="118.5938" y2="2279.2813"/><line style="stroke:#181818;stroke-width:0.5;stroke-dasharray:5.0,5.0;" x1="1881.9531" x2="1881.9531" y1="118.5938" y2="2279.2813"/><text fill="#000000" font-family="sans-serif" font-size="14" lengthAdjust="spacing" textLength="58.0713" x="30" y="115.292">K&#228;ytt&#228;j&#228;</text><ellipse cx="62.0356" cy="50.7969" fill="#E2E2F0" rx="8" ry="8" style="stroke:#181818;stroke-width:0.5;"/><path d="M62.0356,58.7969 L62.0356,85.7969 M49.0356,66.7969 L75.0356,66.7969 M62.0356,85.7969 L49.0356,100.7969 M62.0356,85.7969 L75.0356,100.7969 " fill="none" style="stroke:#181818;stroke-width:0.5;"/><text fill="#000000" font-family="sans-serif" font-size="14" lengthAdjust="spacing" textLength="58.0713" x="30" y="2291.2764">K&#228;ytt&#228;j&#228;</text><ellipse cx="62.0356" cy="2303.0781" fill="#E2E2F0" rx="8" ry="8" style="stroke:#181818;stroke-width:0.5;"/><path d="M62.0356,2311.0781 L62.0356,2338.0781 M49.0356,2319.0781 L75.0356,2319.0781 M62.0356,2338.0781 L49.0356,2353.0781 M62.0356,2338.0781 L75.0356,2353.0781 " fill="none" style="stroke:#181818;stroke-width:0.5;"/><rect fill="#E2E2F0" height="30.2969" rx="2.5" ry="2.5" style="stroke:#181818;stroke-width:0.5;" width="158.2998" x="104.0713" y="87.2969"/><text fill="#000000" font-family="sans-serif" font-size="14" lengthAdjust="spacing" textLength="144.2998" x="111.0713" y="107.292">Hy&#246;dynt&#228;j&#228;n palvelu</text><rect fill="#E2E2F0" height="30.2969" rx="2.5" ry="2.5" style="stroke:#181818;stroke-width:0.5;" width="158.2998" x="104.0713" y="2278.2813"/><text fill="#000000" font-family="sans-serif" font-size="14" lengthAdjust="spacing" textLength="144.2998" x="111.0713" y="2298.2764">Hy&#246;dynt&#228;j&#228;n palvelu</text><rect fill="#E2E2F0" height="46.5938" rx="2.5" ry="2.5" style="stroke:#181818;stroke-width:0.5;" width="259.6631" x="272.3711" y="71"/><text fill="#000000" font-family="sans-serif" font-size="14" lengthAdjust="spacing" textLength="245.6631" x="279.3711" y="90.9951">Hy&#246;dynt&#228;j&#228;n OAuth2-alij&#228;rjestelm&#228;</text><text fill="#000000" font-family="sans-serif" font-size="14" lengthAdjust="spacing" textLength="97.7197" x="353.3428" y="107.292">OAuth2 Client</text><rect fill="#E2E2F0" height="46.5938" rx="2.5" ry="2.5" style="stroke:#181818;stroke-width:0.5;" width="259.6631" x="272.3711" y="2278.2813"/><text fill="#000000" font-family="sans-serif" font-size="14" lengthAdjust="spacing" textLength="245.6631" x="279.3711" y="2298.2764">Hy&#246;dynt&#228;j&#228;n OAuth2-alij&#228;rjestelm&#228;</text><text fill="#000000" font-family="sans-serif" font-size="14" lengthAdjust="spacing" textLength="97.7197" x="353.3428" y="2314.5732">OAuth2 Client</text><rect fill="#E2E2F0" height="46.5938" rx="2.5" ry="2.5" style="stroke:#181818;stroke-width:0.5;" width="147.9912" x="831.9438" y="71"/><text fill="#000000" font-family="sans-serif" font-size="14" lengthAdjust="spacing" textLength="77.5332" x="867.1729" y="90.9951">Web-selain</text><text fill="#000000" font-family="sans-serif" font-size="14" lengthAdjust="spacing" textLength="133.9912" x="838.9438" y="107.292">OAuth2 User agent</text><rect fill="#E2E2F0" height="46.5938" rx="2.5" ry="2.5" style="stroke:#181818;stroke-width:0.5;" width="147.9912" x="831.9438" y="2278.2813"/><text fill="#000000" font-family="sans-serif" font-size="14" lengthAdjust="spacing" textLength="77.5332" x="867.1729" y="2298.2764">Web-selain</text><text fill="#000000" font-family="sans-serif" font-size="14" lengthAdjust="spacing" textLength="133.9912" x="838.9438" y="2314.5732">OAuth2 User agent</text><rect fill="#E2E2F0" height="46.5938" rx="2.5" ry="2.5" style="stroke:#181818;stroke-width:0.5;" width="343.4785" x="1389.4746" y="71"/><text fill="#000000" font-family="sans-serif" font-size="14" lengthAdjust="spacing" textLength="42.3965" x="1540.0156" y="90.9951">KOSKI</text><text fill="#000000" font-family="sans-serif" font-size="14" lengthAdjust="spacing" textLength="329.4785" x="1396.4746" y="107.292">OAuth2 Authorization server &amp; resource server</text><rect fill="#E2E2F0" height="46.5938" rx="2.5" ry="2.5" style="stroke:#181818;stroke-width:0.5;" width="343.4785" x="1389.4746" y="2278.2813"/><text fill="#000000" font-family="sans-serif" font-size="14" lengthAdjust="spacing" textLength="42.3965" x="1540.0156" y="2298.2764">KOSKI</text><text fill="#000000" font-family="sans-serif" font-size="14" lengthAdjust="spacing" textLength="329.4785" x="1396.4746" y="2314.5732">OAuth2 Authorization server &amp; resource server</text><rect fill="#E2E2F0" height="30.2969" rx="2.5" ry="2.5" style="stroke:#181818;stroke-width:0.5;" width="278.3799" x="1742.9531" y="87.2969"/><text fill="#000000" font-family="sans-serif" font-size="14" lengthAdjust="spacing" textLength="264.3799" x="1749.9531" y="107.292">Opintopolku &amp; Suomi.fi-kirjautuminen</text><rect fill="#E2E2F0" height="30.2969" rx="2.5" ry="2.5" style="stroke:#181818;stroke-width:0.5;" width="278.3799" x="1742.9531" y="2278.2813"/><text fill="#000000" font-family="sans-serif" font-size="14" lengthAdjust="spacing" textLength="264.3799" x="1749.9531" y="2298.2764">Opintopolku &amp; Suomi.fi-kirjautuminen</text><path d="M20,135.5938 L466.9717,135.5938 L466.9717,188.125 L456.9717,198.125 L20,198.125 L20,135.5938 " fill="#EEEEEE" style="stroke:#000000;stroke-width:1.5;"/><rect fill="none" height="479.9219" style="stroke:#000000;stroke-width:1.5;" width="969.9351" x="20" y="135.5938"/><text fill="#000000" font-family="sans-serif" font-size="13" font-weight="bold" lengthAdjust="spacing" textLength="360.0771" x="35" y="148.6606">Esimerkki hy&#246;dynt&#228;j&#228;n palvelusta, jossa erillinen</text><text fill="#000000" font-family="sans-serif" font-size="13" font-weight="bold" lengthAdjust="spacing" textLength="228.0332" x="39.5259" y="163.7935">alij&#228;rjestelm&#228; OAuth2-clientille</text><text fill="#000000" font-family="sans-serif" font-size="13" font-weight="bold" lengthAdjust="spacing" textLength="397.4458" x="39.5259" y="178.9263">HUOM: Hy&#246;dynt&#228;j&#228;n palveluiden sis&#228;isi&#228; kirjautumisia</text><text fill="#000000" font-family="sans-serif" font-size="13" font-weight="bold" lengthAdjust="spacing" textLength="326.7012" x="44.0518" y="194.0591">ja muita autentikointeja ei ole t&#228;ss&#228; kuvattu</text><polygon fill="#181818" points="893.9395,215.2578,903.9395,219.2578,893.9395,223.2578,897.9395,219.2578" style="stroke:#181818;stroke-width:1.0;"/><line style="stroke:#181818;stroke-width:1.0;" x1="62.0356" x2="899.9395" y1="219.2578" y2="219.2578"/><text fill="#000000" font-family="sans-serif" font-size="13" lengthAdjust="spacing" textLength="126.8262" x="69.0356" y="214.1919">OPEN https://client/</text><polygon fill="#181818" points="194.2212,244.3906,184.2212,248.3906,194.2212,252.3906,190.2212,248.3906" style="stroke:#181818;stroke-width:1.0;"/><line style="stroke:#181818;stroke-width:1.0;" x1="188.2212" x2="904.9395" y1="248.3906" y2="248.3906"/><text fill="#000000" font-family="sans-serif" font-size="13" lengthAdjust="spacing" textLength="34.7407" x="200.2212" y="243.3247">GET /</text><polygon fill="#181818" points="893.9395,273.5234,903.9395,277.5234,893.9395,281.5234,897.9395,277.5234" style="stroke:#181818;stroke-width:1.0;"/><line style="stroke:#181818;stroke-width:1.0;" x1="183.2212" x2="899.9395" y1="277.5234" y2="277.5234"/><text fill="#000000" font-family="sans-serif" font-size="13" lengthAdjust="spacing" textLength="67.1836" x="190.2212" y="272.4575">HTML-sivu</text><polygon fill="#181818" points="893.9395,302.6563,903.9395,306.6563,893.9395,310.6563,897.9395,306.6563" style="stroke:#181818;stroke-width:1.0;"/><line style="stroke:#181818;stroke-width:1.0;" x1="62.0356" x2="899.9395" y1="306.6563" y2="306.6563"/><text fill="#000000" font-family="sans-serif" font-size="13" lengthAdjust="spacing" textLength="331.9507" x="69.0356" y="301.5903">OPEN "Lis&#228;&#228;/k&#228;sittele KOSKI-opintotiedot"-toiminto</text><polygon fill="#181818" points="194.2212,331.7891,184.2212,335.7891,194.2212,339.7891,190.2212,335.7891" style="stroke:#181818;stroke-width:1.0;"/><line style="stroke:#181818;stroke-width:1.0;" x1="188.2212" x2="904.9395" y1="335.7891" y2="335.7891"/><text fill="#000000" font-family="sans-serif" font-size="13" lengthAdjust="spacing" textLength="151.9438" x="200.2212" y="330.7231">GET /koski-opintotiedot</text><polygon fill="#181818" points="893.9395,360.9219,903.9395,364.9219,893.9395,368.9219,897.9395,364.9219" style="stroke:#181818;stroke-width:1.0;"/><line style="stroke:#181818;stroke-width:1.0;" x1="183.2212" x2="899.9395" y1="364.9219" y2="364.9219"/><text fill="#000000" font-family="sans-serif" font-size="13" lengthAdjust="spacing" textLength="323.832" x="190.2212" y="359.856">REDIRECT https://oauth2-client/koski-opintotiedot</text><polygon fill="#181818" points="413.2026,390.0547,403.2026,394.0547,413.2026,398.0547,409.2026,394.0547" style="stroke:#181818;stroke-width:1.0;"/><line style="stroke:#181818;stroke-width:1.0;" x1="407.2026" x2="904.9395" y1="394.0547" y2="394.0547"/><text fill="#000000" font-family="sans-serif" font-size="13" lengthAdjust="spacing" textLength="151.9438" x="419.2026" y="388.9888">GET /koski-opintotiedot</text><line style="stroke:#181818;stroke-width:1.0;" x1="402.2026" x2="444.2026" y1="438.3203" y2="438.3203"/><line style="stroke:#181818;stroke-width:1.0;" x1="444.2026" x2="444.2026" y1="438.3203" y2="451.3203"/><line style="stroke:#181818;stroke-width:1.0;" x1="403.2026" x2="444.2026" y1="451.3203" y2="451.3203"/><polygon fill="#181818" points="413.2026,447.3203,403.2026,451.3203,413.2026,455.3203,409.2026,451.3203" style="stroke:#181818;stroke-width:1.0;"/><text fill="#000000" font-family="sans-serif" font-size="13" lengthAdjust="spacing" textLength="371.23" x="409.2026" y="418.1216">Muodosta state, generoi code_verifier ja code_challenge,</text><text fill="#000000" font-family="sans-serif" font-size="13" lengthAdjust="spacing" textLength="235.5742" x="409.2026" y="433.2544">tallenna code_verifier staten kanssa</text><polygon fill="#181818" points="893.9395,539.9844,903.9395,543.9844,893.9395,547.9844,897.9395,543.9844" style="stroke:#181818;stroke-width:1.0;"/><line style="stroke:#181818;stroke-width:1.0;" x1="402.2026" x2="899.9395" y1="543.9844" y2="543.9844"/><text fill="#000000" font-family="sans-serif" font-size="13" lengthAdjust="spacing" textLength="479.7368" x="409.2026" y="538.9185">REDIRECT https://opintopolku.fi/koski/omadata-oauth2/authorize/PARAMS</text><path d="M174,464.3203 L174,610.3203 L396,610.3203 L396,474.3203 L386,464.3203 L174,464.3203 " fill="#FEFFDD" style="stroke:#181818;stroke-width:0.5;"/><path d="M386,464.3203 L386,474.3203 L396,474.3203 L386,464.3203 " fill="#FEFFDD" style="stroke:#181818;stroke-width:0.5;"/><text fill="#000000" font-family="sans-serif" font-size="13" lengthAdjust="spacing" textLength="58.5063" x="180" y="481.3872">PARAMS:</text><text fill="#000000" font-family="sans-serif" font-size="13" lengthAdjust="spacing" textLength="54.0693" x="180" y="496.52">client_id</text><text fill="#000000" font-family="sans-serif" font-size="13" lengthAdjust="spacing" textLength="74.4897" x="180" y="511.6528">redirect_uri</text><text fill="#000000" font-family="sans-serif" font-size="13" lengthAdjust="spacing" textLength="32.9316" x="180" y="526.7856">state</text><text fill="#000000" font-family="sans-serif" font-size="13" lengthAdjust="spacing" textLength="38.124" x="180" y="541.9185">scope</text><text fill="#000000" font-family="sans-serif" font-size="13" lengthAdjust="spacing" textLength="137.1157" x="180" y="557.0513">response_type=code</text><text fill="#000000" font-family="sans-serif" font-size="13" lengthAdjust="spacing" textLength="178.7056" x="180" y="572.1841">response_mode=form_post</text><text fill="#000000" font-family="sans-serif" font-size="13" lengthAdjust="spacing" textLength="201.5762" x="180" y="587.3169">code_challenge_method=S256</text><text fill="#000000" font-family="sans-serif" font-size="13" lengthAdjust="spacing" textLength="100.915" x="180" y="602.4497">code_challenge</text><path d="M20,629.5156 L363.8477,629.5156 L363.8477,636.6484 L353.8477,646.6484 L20,646.6484 L20,629.5156 " fill="#EEEEEE" style="stroke:#000000;stroke-width:1.5;"/><rect fill="none" height="779.5156" style="stroke:#000000;stroke-width:1.5;" width="2011.333" x="20" y="629.5156"/><text fill="#000000" font-family="sans-serif" font-size="13" font-weight="bold" lengthAdjust="spacing" textLength="298.8477" x="35" y="642.5825">OAuth2 authorization end-pointin k&#228;ytt&#246;</text><polygon fill="#181818" points="1549.2139,663.7813,1559.2139,667.7813,1549.2139,671.7813,1553.2139,667.7813" style="stroke:#181818;stroke-width:1.0;"/><line style="stroke:#181818;stroke-width:1.0;" x1="905.9395" x2="1555.2139" y1="667.7813" y2="667.7813"/><text fill="#000000" font-family="sans-serif" font-size="13" lengthAdjust="spacing" textLength="304.9985" x="912.9395" y="662.7153">GET /koski/omadata-oauth2/authorize/PARAMS</text><polygon fill="#181818" points="916.9395,692.9141,906.9395,696.9141,916.9395,700.9141,912.9395,696.9141" style="stroke:#181818;stroke-width:1.0;"/><line style="stroke:#181818;stroke-width:1.0;" x1="910.9395" x2="1560.2139" y1="696.9141" y2="696.9141"/><text fill="#000000" font-family="sans-serif" font-size="13" lengthAdjust="spacing" textLength="631.2744" x="922.9395" y="691.8481">REDIRECT https://opintopolku.fi/.../login?...onSuccess=/koski/omadata-oauth2/authorize/PARAMS</text><polygon fill="#181818" points="1870.1431,722.0469,1880.1431,726.0469,1870.1431,730.0469,1874.1431,726.0469" style="stroke:#181818;stroke-width:1.0;"/><line style="stroke:#181818;stroke-width:1.0;" x1="905.9395" x2="1876.1431" y1="726.0469" y2="726.0469"/><text fill="#000000" font-family="sans-serif" font-size="13" lengthAdjust="spacing" textLength="592.1475" x="912.9395" y="720.981">GET https://opintopolku.fi/.../login?...onSuccess=/koski/omadata-oauth2/authorize/PARAMS</text><polygon fill="#181818" points="916.9395,751.1797,906.9395,755.1797,916.9395,759.1797,912.9395,755.1797" style="stroke:#181818;stroke-width:1.0;"/><line style="stroke:#181818;stroke-width:1.0;" x1="910.9395" x2="1881.1431" y1="755.1797" y2="755.1797"/><text fill="#000000" font-family="sans-serif" font-size="13" lengthAdjust="spacing" textLength="106.8628" x="922.9395" y="750.1138">HTML:Login-sivu</text><polygon fill="#181818" points="893.9395,780.3125,903.9395,784.3125,893.9395,788.3125,897.9395,784.3125" style="stroke:#181818;stroke-width:1.0;"/><line style="stroke:#181818;stroke-width:1.0;" x1="62.0356" x2="899.9395" y1="784.3125" y2="784.3125"/><text fill="#000000" font-family="sans-serif" font-size="13" lengthAdjust="spacing" textLength="200.9478" x="69.0356" y="779.2466">Suomi.fi &amp; opintopolku.fi -login</text><polygon fill="#181818" points="1870.1431,809.4453,1880.1431,813.4453,1870.1431,817.4453,1874.1431,813.4453" style="stroke:#181818;stroke-width:1.0;"/><line style="stroke:#181818;stroke-width:1.0;" x1="905.9395" x2="1876.1431" y1="813.4453" y2="813.4453"/><text fill="#000000" font-family="sans-serif" font-size="13" lengthAdjust="spacing" textLength="200.9478" x="912.9395" y="808.3794">Suomi.fi &amp; opintopolku.fi -login</text><polygon fill="#181818" points="916.9395,838.5781,906.9395,842.5781,916.9395,846.5781,912.9395,842.5781" style="stroke:#181818;stroke-width:1.0;"/><line style="stroke:#181818;stroke-width:1.0;" x1="910.9395" x2="1881.1431" y1="842.5781" y2="842.5781"/><text fill="#000000" font-family="sans-serif" font-size="13" lengthAdjust="spacing" textLength="344.1255" x="922.9395" y="837.5122">REDIRECT /koski/omadata-oauth2/authorize/PARAMS</text><polygon fill="#181818" points="1549.2139,867.7109,1559.2139,871.7109,1549.2139,875.7109,1553.2139,871.7109" style="stroke:#181818;stroke-width:1.0;"/><line style="stroke:#181818;stroke-width:1.0;" x1="905.9395" x2="1555.2139" y1="871.7109" y2="871.7109"/><text fill="#000000" font-family="sans-serif" font-size="13" lengthAdjust="spacing" textLength="304.9985" x="912.9395" y="866.645">GET /koski/omadata-oauth2/authorize/PARAMS</text><polygon fill="#181818" points="916.9395,896.8438,906.9395,900.8438,916.9395,904.8438,912.9395,900.8438" style="stroke:#181818;stroke-width:1.0;"/><line style="stroke:#181818;stroke-width:1.0;" x1="910.9395" x2="1560.2139" y1="900.8438" y2="900.8438"/><text fill="#000000" font-family="sans-serif" font-size="13" lengthAdjust="spacing" textLength="147.9893" x="922.9395" y="895.7778">HTML:Hyv&#228;ksynt&#228;-sivu</text><polygon fill="#181818" points="893.9395,925.9766,903.9395,929.9766,893.9395,933.9766,897.9395,929.9766" style="stroke:#181818;stroke-width:1.0;"/><line style="stroke:#181818;stroke-width:1.0;" x1="62.0356" x2="899.9395" y1="929.9766" y2="929.9766"/><text fill="#000000" font-family="sans-serif" font-size="13" lengthAdjust="spacing" textLength="120.2119" x="69.0356" y="924.9106">Hyv&#228;ksy valtuutus</text><polygon fill="#181818" points="1549.2139,955.1094,1559.2139,959.1094,1549.2139,963.1094,1553.2139,959.1094" style="stroke:#181818;stroke-width:1.0;"/><line style="stroke:#181818;stroke-width:1.0;" x1="905.9395" x2="1555.2139" y1="959.1094" y2="959.1094"/><text fill="#000000" font-family="sans-serif" font-size="13" lengthAdjust="spacing" textLength="336.1084" x="912.9395" y="954.0435">GET /koski/api/omadata-oauth2/authorize/?PARAMS</text><polygon fill="#181818" points="1870.1431,984.2422,1880.1431,988.2422,1870.1431,992.2422,1874.1431,988.2422" style="stroke:#181818;stroke-width:1.0;"/><line style="stroke:#181818;stroke-width:1.0;" x1="1561.2139" x2="1876.1431" y1="988.2422" y2="988.2422"/><text fill="#000000" font-family="sans-serif" font-size="13" lengthAdjust="spacing" textLength="41.1074" x="1568.2139" y="983.1763">logout</text><line style="stroke:#181818;stroke-width:1.0;" x1="1561.2139" x2="1603.2139" y1="1047.6406" y2="1047.6406"/><line style="stroke:#181818;stroke-width:1.0;" x1="1603.2139" x2="1603.2139" y1="1047.6406" y2="1060.6406"/><line style="stroke:#181818;stroke-width:1.0;" x1="1562.2139" x2="1603.2139" y1="1060.6406" y2="1060.6406"/><polygon fill="#181818" points="1572.2139,1056.6406,1562.2139,1060.6406,1572.2139,1064.6406,1568.2139,1060.6406" style="stroke:#181818;stroke-width:1.0;"/><text fill="#000000" font-family="sans-serif" font-size="13" lengthAdjust="spacing" textLength="221.7681" x="1568.2139" y="1012.3091">Luo ja tallenna authorization code</text><text fill="#000000" font-family="sans-serif" font-size="13" lengthAdjust="spacing" textLength="224.8848" x="1568.2139" y="1027.4419">ja sen yhteyteen muut parametrit,</text><text fill="#000000" font-family="sans-serif" font-size="13" lengthAdjust="spacing" textLength="192.4736" x="1568.2139" y="1042.5747">mm. code_challenge ja scope</text><polygon fill="#181818" points="916.9395,1149.3047,906.9395,1153.3047,916.9395,1157.3047,912.9395,1153.3047" style="stroke:#181818;stroke-width:1.0;"/><line style="stroke:#181818;stroke-width:1.0;" x1="910.9395" x2="1560.2139" y1="1153.3047" y2="1153.3047"/><text fill="#000000" font-family="sans-serif" font-size="13" lengthAdjust="spacing" textLength="300.7329" x="922.9395" y="1148.2388">REDIRECT /post-response/RESPONSE_PARAMS</text><path d="M595,1073.6406 L595,1219.6406 L900,1219.6406 L900,1083.6406 L890,1073.6406 L595,1073.6406 " fill="#FEFFDD" style="stroke:#181818;stroke-width:0.5;"/><path d="M890,1073.6406 L890,1083.6406 L900,1083.6406 L890,1073.6406 " fill="#FEFFDD" style="stroke:#181818;stroke-width:0.5;"/><text fill="#000000" font-family="sans-serif" font-size="13" lengthAdjust="spacing" textLength="134.7671" x="601" y="1090.7075">RESPONSE_PARAMS:</text><text fill="#000000" font-family="sans-serif" font-size="13" lengthAdjust="spacing" textLength="54.0693" x="601" y="1105.8403">client_id</text><text fill="#000000" font-family="sans-serif" font-size="13" lengthAdjust="spacing" textLength="74.4897" x="601" y="1120.9731">redirect_uri</text><text fill="#000000" font-family="sans-serif" font-size="13" lengthAdjust="spacing" textLength="32.9316" x="601" y="1136.106">state</text><text fill="#000000" font-family="sans-serif" font-size="13" lengthAdjust="spacing" textLength="31.3511" x="601" y="1151.2388">code</text><text fill="#000000" font-family="sans-serif" font-size="13" lengthAdjust="spacing" textLength="276.5356" x="609.2646" y="1166.3716">Virhetilanteissa code:n sijasta voi sis&#228;lt&#228;&#228;:</text><text fill="#000000" font-family="sans-serif" font-size="13" lengthAdjust="spacing" textLength="31.9858" x="601" y="1181.5044">error</text><text fill="#000000" font-family="sans-serif" font-size="13" lengthAdjust="spacing" textLength="110.7666" x="601" y="1196.6372">error_description</text><text fill="#000000" font-family="sans-serif" font-size="13" lengthAdjust="spacing" textLength="55.6816" x="601" y="1211.77">error_uri</text><polygon fill="#181818" points="1549.2139,1241.9688,1559.2139,1245.9688,1549.2139,1249.9688,1553.2139,1245.9688" style="stroke:#181818;stroke-width:1.0;"/><line style="stroke:#181818;stroke-width:1.0;" x1="905.9395" x2="1555.2139" y1="1245.9688" y2="1245.9688"/><text fill="#000000" font-family="sans-serif" font-size="13" lengthAdjust="spacing" textLength="261.606" x="912.9395" y="1240.9028">GET /post-response/RESPONSE_PARAMS</text><polygon fill="#181818" points="916.9395,1271.1016,906.9395,1275.1016,916.9395,1279.1016,912.9395,1275.1016" style="stroke:#181818;stroke-width:1.0;"/><line style="stroke:#181818;stroke-width:1.0;" x1="910.9395" x2="1560.2139" y1="1275.1016" y2="1275.1016"/><text fill="#000000" font-family="sans-serif" font-size="13" lengthAdjust="spacing" textLength="371.4712" x="922.9395" y="1270.0356">HTML:Auto-submit web form, jossa RESPONSE inputteina</text><polygon fill="#181818" points="413.2026,1356.1992,403.2026,1360.1992,413.2026,1364.1992,409.2026,1360.1992" style="stroke:#181818;stroke-width:1.0;"/><line style="stroke:#181818;stroke-width:1.0;" x1="407.2026" x2="904.9395" y1="1360.1992" y2="1360.1992"/><text fill="#000000" font-family="sans-serif" font-size="13" lengthAdjust="spacing" textLength="112.8867" x="419.2026" y="1340.0005">POST redirect_uri</text><text fill="#000000" font-family="sans-serif" font-size="13" lengthAdjust="spacing" textLength="156.8379" x="419.2026" y="1355.1333">body=CODE_RESPONSE</text><path d="M91,1288.1016 L91,1403.1016 L396,1403.1016 L396,1298.1016 L386,1288.1016 L91,1288.1016 " fill="#FEFFDD" style="stroke:#181818;stroke-width:0.5;"/><path d="M386,1288.1016 L386,1298.1016 L396,1298.1016 L386,1288.1016 " fill="#FEFFDD" style="stroke:#181818;stroke-width:0.5;"/><text fill="#000000" font-family="sans-serif" font-size="13" lengthAdjust="spacing" textLength="118.1743" x="97" y="1305.1685">CODE_RESPONSE:</text><text fill="#000000" font-family="sans-serif" font-size="13" lengthAdjust="spacing" textLength="32.9316" x="97" y="1320.3013">state</text><text fill="#000000" font-family="sans-serif" font-size="13" lengthAdjust="spacing" textLength="31.3511" x="97" y="1335.4341">code</text><text fill="#000000" font-family="sans-serif" font-size="13" lengthAdjust="spacing" textLength="276.5356" x="105.2646" y="1350.5669">Virhetilanteissa code:n sijasta voi sis&#228;lt&#228;&#228;:</text><text fill="#000000" font-family="sans-serif" font-size="13" lengthAdjust="spacing" textLength="31.9858" x="97" y="1365.6997">error</text><text fill="#000000" font-family="sans-serif" font-size="13" lengthAdjust="spacing" textLength="110.7666" x="97" y="1380.8325">error_description</text><text fill="#000000" font-family="sans-serif" font-size="13" lengthAdjust="spacing" textLength="55.6816" x="97" y="1395.9653">error_uri</text><path d="M160,1423.0313 L442.6943,1423.0313 L442.6943,1430.1641 L432.6943,1440.1641 L160,1440.1641 L160,1423.0313 " fill="#EEEEEE" style="stroke:#000000;stroke-width:1.5;"/><rect fill="none" height="349.9922" style="stroke:#000000;stroke-width:1.5;" width="1721.3848" x="160" y="1423.0313"/><text fill="#000000" font-family="sans-serif" font-size="13" font-weight="bold" lengthAdjust="spacing" textLength="237.6943" x="175" y="1436.0981">OAuth2 token-endpointin k&#228;ytt&#246;</text><line style="stroke:#181818;stroke-width:1.0;" x1="402.2026" x2="444.2026" y1="1461.2969" y2="1461.2969"/><line style="stroke:#181818;stroke-width:1.0;" x1="444.2026" x2="444.2026" y1="1461.2969" y2="1474.2969"/><line style="stroke:#181818;stroke-width:1.0;" x1="403.2026" x2="444.2026" y1="1474.2969" y2="1474.2969"/><polygon fill="#181818" points="413.2026,1470.2969,403.2026,1474.2969,413.2026,1478.2969,409.2026,1474.2969" style="stroke:#181818;stroke-width:1.0;"/><text fill="#000000" font-family="sans-serif" font-size="13" lengthAdjust="spacing" textLength="241.5156" x="409.2026" y="1456.231">Hae statelle tallennettu code_verifier</text><polygon fill="#181818" points="1549.2139,1547.8281,1559.2139,1551.8281,1549.2139,1555.8281,1553.2139,1551.8281" style="stroke:#181818;stroke-width:1.0;"/><line style="stroke:#181818;stroke-width:1.0;" x1="402.2026" x2="1555.2139" y1="1551.8281" y2="1551.8281"/><text fill="#000000" font-family="sans-serif" font-size="13" lengthAdjust="spacing" textLength="742.0918" x="409.2026" y="1531.6294">mutual-TLS POST https://oph-koski-luovutuspalvelu.opintopolku.fi/koski/api/omadata-oauth2/authorization-server/</text><text fill="#000000" font-family="sans-serif" font-size="13" lengthAdjust="spacing" textLength="141.2036" x="417.4673" y="1546.7622">body=CODE_PARAMS</text><path d="M170,1487.2969 L170,1587.2969 L396,1587.2969 L396,1497.2969 L386,1487.2969 L170,1487.2969 " fill="#FEFFDD" style="stroke:#181818;stroke-width:0.5;"/><path d="M386,1487.2969 L386,1497.2969 L396,1497.2969 L386,1487.2969 " fill="#FEFFDD" style="stroke:#181818;stroke-width:0.5;"/><text fill="#000000" font-family="sans-serif" font-size="13" lengthAdjust="spacing" textLength="102.54" x="176" y="1504.3638">CODE_PARAMS:</text><text fill="#000000" font-family="sans-serif" font-size="13" lengthAdjust="spacing" textLength="205.3276" x="176" y="1519.4966">grant_type=authorization_code</text><text fill="#000000" font-family="sans-serif" font-size="13" lengthAdjust="spacing" textLength="31.3511" x="176" y="1534.6294">code</text><text fill="#000000" font-family="sans-serif" font-size="13" lengthAdjust="spacing" textLength="84.0303" x="176" y="1549.7622">code_verifier</text><text fill="#000000" font-family="sans-serif" font-size="13" lengthAdjust="spacing" textLength="74.4897" x="176" y="1564.895">redirect_uri</text><text fill="#000000" font-family="sans-serif" font-size="13" lengthAdjust="spacing" textLength="54.0693" x="176" y="1580.0278">client_id</text><line style="stroke:#181818;stroke-width:1.0;" x1="1561.2139" x2="1603.2139" y1="1629.3594" y2="1629.3594"/><line style="stroke:#181818;stroke-width:1.0;" x1="1603.2139" x2="1603.2139" y1="1629.3594" y2="1642.3594"/><line style="stroke:#181818;stroke-width:1.0;" x1="1562.2139" x2="1603.2139" y1="1642.3594" y2="1642.3594"/><polygon fill="#181818" points="1572.2139,1638.3594,1562.2139,1642.3594,1572.2139,1646.3594,1568.2139,1642.3594" style="stroke:#181818;stroke-width:1.0;"/><text fill="#000000" font-family="sans-serif" font-size="13" lengthAdjust="spacing" textLength="219.0322" x="1568.2139" y="1609.1606">tarkista code ja ett&#228; code_verifier</text><text fill="#000000" font-family="sans-serif" font-size="13" lengthAdjust="spacing" textLength="290.4751" x="1568.2139" y="1624.2935">vastaa codelle tallennettua code_challengea</text><line style="stroke:#181818;stroke-width:1.0;" x1="1561.2139" x2="1603.2139" y1="1671.4922" y2="1671.4922"/><line style="stroke:#181818;stroke-width:1.0;" x1="1603.2139" x2="1603.2139" y1="1671.4922" y2="1684.4922"/><line style="stroke:#181818;stroke-width:1.0;" x1="1562.2139" x2="1603.2139" y1="1684.4922" y2="1684.4922"/><polygon fill="#181818" points="1572.2139,1680.4922,1562.2139,1684.4922,1572.2139,1688.4922,1568.2139,1684.4922" style="stroke:#181818;stroke-width:1.0;"/><text fill="#000000" font-family="sans-serif" font-size="13" lengthAdjust="spacing" textLength="301.1709" x="1568.2139" y="1666.4263">Luo ja tallenna access_token coden yhteyteen</text><polygon fill="#181818" points="413.2026,1735.3242,403.2026,1739.3242,413.2026,1743.3242,409.2026,1739.3242" style="stroke:#181818;stroke-width:1.0;"/><line style="stroke:#181818;stroke-width:1.0;" x1="407.2026" x2="1560.2139" y1="1739.3242" y2="1739.3242"/><text fill="#000000" font-family="sans-serif" font-size="13" lengthAdjust="spacing" textLength="120.8975" x="419.2026" y="1734.2583">TOKEN_RESPONSE</text><path d="M249,1697.4922 L249,1767.4922 L396,1767.4922 L396,1707.4922 L386,1697.4922 L249,1697.4922 " fill="#FEFFDD" style="stroke:#181818;stroke-width:0.5;"/><path d="M386,1697.4922 L386,1707.4922 L396,1707.4922 L386,1697.4922 " fill="#FEFFDD" style="stroke:#181818;stroke-width:0.5;"/><text fill="#000000" font-family="sans-serif" font-size="13" lengthAdjust="spacing" textLength="125.2773" x="255" y="1714.5591">TOKEN_RESPONSE:</text><text fill="#000000" font-family="sans-serif" font-size="13" lengthAdjust="spacing" textLength="87.1216" x="255" y="1729.6919">access_token</text><text fill="#000000" font-family="sans-serif" font-size="13" lengthAdjust="spacing" textLength="126.8198" x="255" y="1744.8247">token_type=Bearer</text><text fill="#000000" font-family="sans-serif" font-size="13" lengthAdjust="spacing" textLength="66.022" x="255" y="1759.9575">expires_in</text><path d="M262.3711,1787.0234 L567.2886,1787.0234 L567.2886,1794.1563 L557.2886,1804.1563 L262.3711,1804.1563 L262.3711,1787.0234 " fill="#EEEEEE" style="stroke:#000000;stroke-width:1.5;"/><rect fill="none" height="147.7969" style="stroke:#000000;stroke-width:1.5;" width="1561.1865" x="262.3711" y="1787.0234"/><text fill="#000000" font-family="sans-serif" font-size="13" font-weight="bold" lengthAdjust="spacing" textLength="259.9175" x="277.3711" y="1800.0903">OAuth2 resource-endpointin k&#228;ytt&#246;</text><polygon fill="#181818" points="1549.2139,1836.4219,1559.2139,1840.4219,1549.2139,1844.4219,1553.2139,1840.4219" style="stroke:#181818;stroke-width:1.0;"/><line style="stroke:#181818;stroke-width:1.0;" x1="402.2026" x2="1555.2139" y1="1840.4219" y2="1840.4219"/><text fill="#000000" font-family="sans-serif" font-size="13" lengthAdjust="spacing" textLength="708.3667" x="409.2026" y="1820.2231">mutual-TLS POST https://oph-koski-luovutuspalvelu.opintopolku.fi/koski/api/omadata-oauth2/resource-server</text><text fill="#000000" font-family="sans-serif" font-size="13" lengthAdjust="spacing" textLength="190.3027" x="417.4673" y="1835.356">Authorization=Bearer TOKEN</text><line style="stroke:#181818;stroke-width:1.0;" x1="1561.2139" x2="1603.2139" y1="1884.6875" y2="1884.6875"/><line style="stroke:#181818;stroke-width:1.0;" x1="1603.2139" x2="1603.2139" y1="1884.6875" y2="1897.6875"/><line style="stroke:#181818;stroke-width:1.0;" x1="1562.2139" x2="1603.2139" y1="1897.6875" y2="1897.6875"/><polygon fill="#181818" points="1572.2139,1893.6875,1562.2139,1897.6875,1572.2139,1901.6875,1568.2139,1897.6875" style="stroke:#181818;stroke-width:1.0;"/><text fill="#000000" font-family="sans-serif" font-size="13" lengthAdjust="spacing" textLength="243.3438" x="1568.2139" y="1864.4888">Hae ja muotoile opiskeluoikeus-DATA</text><text fill="#000000" font-family="sans-serif" font-size="13" lengthAdjust="spacing" textLength="242.2012" x="1568.2139" y="1879.6216">access_tokenin ja scopen perusteella</text><polygon fill="#181818" points="413.2026,1922.8203,403.2026,1926.8203,413.2026,1930.8203,409.2026,1926.8203" style="stroke:#181818;stroke-width:1.0;"/><line style="stroke:#181818;stroke-width:1.0;" x1="407.2026" x2="1560.2139" y1="1926.8203" y2="1926.8203"/><text fill="#000000" font-family="sans-serif" font-size="13" lengthAdjust="spacing" textLength="35.7373" x="419.2026" y="1921.7544">DATA</text><path d="M10,1948.8203 L415.0771,1948.8203 L415.0771,1971.0859 L405.0771,1981.0859 L10,1981.0859 L10,1948.8203 " fill="#EEEEEE" style="stroke:#000000;stroke-width:1.5;"/><rect fill="none" height="313.4609" style="stroke:#000000;stroke-width:1.5;" width="989.9351" x="10" y="1948.8203"/><text fill="#000000" font-family="sans-serif" font-size="13" font-weight="bold" lengthAdjust="spacing" textLength="360.0771" x="25" y="1961.8872">Esimerkki hy&#246;dynt&#228;j&#228;n palvelusta, jossa erillinen</text><text fill="#000000" font-family="sans-serif" font-size="13" font-weight="bold" lengthAdjust="spacing" textLength="228.0332" x="29.5259" y="1977.02">alij&#228;rjestelm&#228; OAuth2-clientille</text><line style="stroke:#181818;stroke-width:1.0;" x1="402.2026" x2="444.2026" y1="2002.2188" y2="2002.2188"/><line style="stroke:#181818;stroke-width:1.0;" x1="444.2026" x2="444.2026" y1="2002.2188" y2="2015.2188"/><line style="stroke:#181818;stroke-width:1.0;" x1="403.2026" x2="444.2026" y1="2015.2188" y2="2015.2188"/><polygon fill="#181818" points="413.2026,2011.2188,403.2026,2015.2188,413.2026,2019.2188,409.2026,2015.2188" style="stroke:#181818;stroke-width:1.0;"/><text fill="#000000" font-family="sans-serif" font-size="13" lengthAdjust="spacing" textLength="299.3237" x="409.2026" y="1997.1528">Analysoi/muunna DATA hy&#246;dynt&#228;j&#228;n k&#228;ytt&#246;&#246;n</text><polygon fill="#181818" points="194.2212,2040.3516,184.2212,2044.3516,194.2212,2048.3516,190.2212,2044.3516" style="stroke:#181818;stroke-width:1.0;"/><line style="stroke:#181818;stroke-width:1.0;" x1="188.2212" x2="401.2026" y1="2044.3516" y2="2044.3516"/><text fill="#000000" font-family="sans-serif" font-size="13" lengthAdjust="spacing" textLength="138.8232" x="200.2212" y="2039.2856">Tallenna opintotiedot</text><polygon fill="#181818" points="893.9395,2069.4844,903.9395,2073.4844,893.9395,2077.4844,897.9395,2073.4844" style="stroke:#181818;stroke-width:1.0;"/><line style="stroke:#181818;stroke-width:1.0;" x1="402.2026" x2="899.9395" y1="2073.4844" y2="2073.4844"/><text fill="#000000" font-family="sans-serif" font-size="13" lengthAdjust="spacing" textLength="156.1714" x="409.2026" y="2068.4185">REDIRECT https://client/</text><polygon fill="#181818" points="194.2212,2098.6172,184.2212,2102.6172,194.2212,2106.6172,190.2212,2102.6172" style="stroke:#181818;stroke-width:1.0;"/><line style="stroke:#181818;stroke-width:1.0;" x1="188.2212" x2="904.9395" y1="2102.6172" y2="2102.6172"/><text fill="#000000" font-family="sans-serif" font-size="13" lengthAdjust="spacing" textLength="34.7407" x="200.2212" y="2097.5513">GET /</text><polygon fill="#181818" points="893.9395,2127.75,903.9395,2131.75,893.9395,2135.75,897.9395,2131.75" style="stroke:#181818;stroke-width:1.0;"/><line style="stroke:#181818;stroke-width:1.0;" x1="183.2212" x2="899.9395" y1="2131.75" y2="2131.75"/><text fill="#000000" font-family="sans-serif" font-size="13" lengthAdjust="spacing" textLength="248.5107" x="190.2212" y="2126.6841">HTML-sivu, jossa opintotiedot mukana</text><path d="M20,2146.75 L84.4429,2146.75 L84.4429,2153.8828 L74.4429,2163.8828 L20,2163.8828 L20,2146.75 " fill="#EEEEEE" style="stroke:#000000;stroke-width:1.5;"/><rect fill="none" height="108.5313" style="stroke:#000000;stroke-width:1.5;" width="969.9351" x="20" y="2146.75"/><text fill="#000000" font-family="sans-serif" font-size="13" font-weight="bold" lengthAdjust="spacing" textLength="19.4429" x="35" y="2159.8169">alt</text><polygon fill="#181818" points="893.9395,2181.0156,903.9395,2185.0156,893.9395,2189.0156,897.9395,2185.0156" style="stroke:#181818;stroke-width:1.0;"/><line style="stroke:#181818;stroke-width:1.0;" x1="62.0356" x2="899.9395" y1="2185.0156" y2="2185.0156"/><text fill="#000000" font-family="sans-serif" font-size="13" lengthAdjust="spacing" textLength="308.5596" x="69.0356" y="2179.9497">Hyv&#228;ksy/katsele/filtter&#246;i/muokkaa opintotietoja</text><line style="stroke:#000000;stroke-width:1.0;stroke-dasharray:2.0,2.0;" x1="20" x2="989.9351" y1="2194.0156" y2="2194.0156"/><polygon fill="#181818" points="893.9395,2212.1484,903.9395,2216.1484,893.9395,2220.1484,897.9395,2216.1484" style="stroke:#181818;stroke-width:1.0;"/><line style="stroke:#181818;stroke-width:1.0;" x1="62.0356" x2="899.9395" y1="2216.1484" y2="2216.1484"/><text fill="#000000" font-family="sans-serif" font-size="13" lengthAdjust="spacing" textLength="233.251" x="69.0356" y="2211.0825">Tee ostoksia opiskelija-alennuksella</text><line style="stroke:#000000;stroke-width:1.0;stroke-dasharray:2.0,2.0;" x1="20" x2="989.9351" y1="2225.1484" y2="2225.1484"/><polygon fill="#181818" points="893.9395,2243.2813,903.9395,2247.2813,893.9395,2251.2813,897.9395,2247.2813" style="stroke:#181818;stroke-width:1.0;"/><line style="stroke:#181818;stroke-width:1.0;" x1="62.0356" x2="899.9395" y1="2247.2813" y2="2247.2813"/><text fill="#000000" font-family="sans-serif" font-size="13" lengthAdjust="spacing" textLength="12.397" x="69.0356" y="2242.2153">...</text><!--SRC=[lLV1RkD63BthAmPxQ2yh2rYWFHX80pThD8iawo3sjeUc42Os4zEIPeIPaLllz_WRyWF-iP8QovPanNQBRWyMP6h8uJoIZno7BWKn6XHk_a64SvddAv5BDnUXXMG9obeKO343aoGOpbURrzbAkSrwiLcdAGI1d3fjnCrclN9UAgGLXGKJ1Baq3gUOI-N4D4LGBYRv4gSWVW-4kAxRKhHfkeIq2FxeKknIy3w7CaNwQnPW7QJPPaqBjwUvAbNR1jctMBvKHd-39pffAb7j5R_G4b4kOUNlHPHecs2aCpcJJePQygg8dzhWL-WtxD_msjBqpMXyysblTR1TBnrg9HW9skKxOS3gmX0cNk9td3kNstuK5SeLIwbpL4xdEasAtZD6Ksb3dUUua56gNr159BlS8dlHw_KQxbmDngKpexqDsdHSw0p9LfYWMT11YWmLADxxnUWY5yCgucBU6INhv7knqDPA0GRJbBKVbMZ7eegH3oAj0rfq_MLqrtyZ-ZW3WWRjPeqMIN_ldaL9kc8XHLQWauAaR3BHT2mWAQ3GbCXaprfM9DYSAuA0mot2d-fXxulH_V3p3cFlN1JKLj3wLiBsnI_3YOY2bhXj-7foTnjQN1P7zdrto-VRhAE4V4L7I85FbT37sI7Cj7iNEeqP_p_BiJ936mPEkVem_FZfONWrsU7WqteRgow3NNwStB-nzAxGCqsv8-ZduBqWMs0qYgcUGKp9Zyz8g54qIy5qBYbZr0kyVrIkV5MojRIqeqGYYQTaRSSJ9stMq_7gZku73uExSQ2q0v72imkye5y1ZBF0m0mDJ5rS60nAdm8xrJdG1vjhPI5sgnmksFUzAAD_5y_QP75Ec0JD8ySPqFwpY_677tviVGf0pGHxmozLmMuvHZOuXhw7EHS84aIUeL-3LXWzNTMZU1A9mElyKvY9cJnVNTARLkDYEWLhByxTjEasqvft-jlinlQxYhj_opPzYNVNU4MjnB9DbqHO-jDzajDQNHxj8Fzt8FvtiI-XkLujD-l4bgH-3A5gdLZAr1N4xlOCnsH-nBdB0-yygWITBbnDN1c-BJJJp8vLcdN3zVQewBibRbdD7QmSq5j6lbAZCf9gqw0ZLigoNekgsAel_LDL4d7LXnKRH0_3yVteytWO7z1Dwyi9tYavHeXVqSo1EYwD083SfbdUvzwwa4p0IsBTii-cZdjHFm1ZjF7FU0PsQZ1dBBOIjh-ZdMF1EdweOzb31AP3MpnbwCIVy2IO6QiPex8ZKEK5TKnKCdYh7TsFnXDH1-PHFUdPwk9gz74OLuPgy3Ra_VyHnKFsTZe15PByaBGxckcr1D__KfvxV2O3pJpD5bbNhIALKSt9D9pSZZrQUmgTXxwHfuLUSc5knx9UPySyKf9b7OL-eeruRjk7u22_Qz8-uK5O-sxPi1MN4TazziThbC2-ClOm7zI-aoP1ZXuRude5lhaqKNjKImwmNzF2jpsTo7FufUm-SHdWKht6ApNrNMmdevlXvwviRNxe1tN3GVdquFqCqX0wy5TEwDYO6iYHgQ6wWfnAlM-VFpjFVEfmvZIkJTjpUNmwSEUQAAy8cgPd2XljQnDoG6C2XGq_3YQ3HrN7Z4vQCJPTGi3GpGOeuB8hAApTADjlTalghFU1akdAQeoe3t5EiJljZQkeRLxLeOtQdM5I9MPZOZzxWAwkJEVTcSw-D5LWrPsYMD9qJ_6WMU74F14bqj5L7kW-d5AJC9jNnaedYQoPT7f1nY2ry8Qr2L3QM4eEkd5M-KDq7qe6h4YipuuZ1lW6xhE47ty3]--></g></svg>