<?xml version="1.0" encoding="UTF-8" standalone="no"?>
<!DOCTYPE svg PUBLIC "-//W3C//DTD SVG 1.1//EN"
 "http://www.w3.org/Graphics/SVG/1.1/DTD/svg11.dtd">
<!-- Generated by graphviz version 2.40.1 (20161225.0304)
 -->
<!-- Title: compactRelationshipsDiagram Pages: 1 -->
<svg width="742pt" height="1101pt"
 viewBox="0.00 0.00 741.69 1101.20" xmlns="http://www.w3.org/2000/svg" xmlns:xlink="http://www.w3.org/1999/xlink">
<g id="graph0" class="graph" transform="scale(1 1) rotate(0) translate(4 1097.2)">
<title>compactRelationshipsDiagram</title>
<polygon fill="#ffffff" stroke="transparent" points="-4,4 -4,-1097.2 737.6857,-1097.2 737.6857,4 -4,4"/>
<text text-anchor="middle" x="72.4936" y="-7.3" font-family="Helvetica,sans-Serif" font-size="11.00" fill="#000000">Generated by SchemaSpy</text>
<!-- perustiedot_sync -->
<g id="node1" class="node">
<title>perustiedot_sync</title>
<g id="a_node1"><a xlink:href="../../tables/perustiedot_sync.html" xlink:title="perustiedot_sync" target="_top">
<polygon fill="#ffffff" stroke="transparent" points="538.6857,-792.2 538.6857,-897.2 678.6857,-897.2 678.6857,-792.2 538.6857,-792.2"/>
<polygon fill="#f5f5f5" stroke="transparent" points="538.6857,-873.7 538.6857,-896.7 678.6857,-896.7 678.6857,-873.7 538.6857,-873.7"/>
<polygon fill="none" stroke="#000000" points="538.6857,-873.7 538.6857,-896.7 678.6857,-896.7 678.6857,-873.7 538.6857,-873.7"/>
<text text-anchor="start" x="543.6857" y="-882.3" font-family="Helvetica,sans-Serif" font-weight="bold" font-size="11.00" fill="#000000">perustiedot_sync</text>
<text text-anchor="start" x="644.2076" y="-881.8" font-family="Helvetica,sans-Serif" font-size="11.00" fill="#000000">[table]</text>
<polygon fill="none" stroke="#000000" points="538.6857,-851.7 538.6857,-873.7 678.6857,-873.7 678.6857,-851.7 538.6857,-851.7"/>
<image xlink:href="../../images/primaryKeys.png" width="11px" height="12px" preserveAspectRatio="xMinYMin meet" x="543.686" y="-868.7"/>
<text text-anchor="start" x="565.6857" y="-858.8" font-family="Helvetica,sans-Serif" font-size="11.00" fill="#000000">id</text>
<polygon fill="none" stroke="#000000" points="538.6857,-829.7 538.6857,-851.7 678.6857,-851.7 678.6857,-829.7 538.6857,-829.7"/>
<image xlink:href="../../images/foreignKeys.png" width="11px" height="12px" preserveAspectRatio="xMinYMin meet" x="543.686" y="-846.7"/>
<text text-anchor="start" x="565.6857" y="-836.8" font-family="Helvetica,sans-Serif" font-size="11.00" fill="#000000">opiskeluoikeus_id</text>
<polygon fill="none" stroke="#000000" points="538.6857,-810.7 538.6857,-829.7 678.6857,-829.7 678.6857,-810.7 538.6857,-810.7"/>
<text text-anchor="start" x="541.6857" y="-816.8" font-family="Helvetica,sans-Serif" font-size="11.00" fill="#000000">...</text>
<polygon fill="#ffffff" stroke="transparent" points="538.6857,-791.7 538.6857,-810.7 606.6857,-810.7 606.6857,-791.7 538.6857,-791.7"/>
<polygon fill="none" stroke="#000000" points="538.6857,-791.7 538.6857,-810.7 606.6857,-810.7 606.6857,-791.7 538.6857,-791.7"/>
<text text-anchor="start" x="541.6857" y="-797.8" font-family="Helvetica,sans-Serif" font-size="11.00" fill="#000000">&lt; 1</text>
<polygon fill="#ffffff" stroke="transparent" points="606.6857,-791.7 606.6857,-810.7 642.6857,-810.7 642.6857,-791.7 606.6857,-791.7"/>
<polygon fill="none" stroke="#000000" points="606.6857,-791.7 606.6857,-810.7 642.6857,-810.7 642.6857,-791.7 606.6857,-791.7"/>
<text text-anchor="start" x="633.5719" y="-797.8" font-family="Helvetica,sans-Serif" font-size="11.00" fill="#000000"> &#160;</text>
<polygon fill="#ffffff" stroke="transparent" points="642.6857,-791.7 642.6857,-810.7 678.6857,-810.7 678.6857,-791.7 642.6857,-791.7"/>
<polygon fill="none" stroke="#000000" points="642.6857,-791.7 642.6857,-810.7 678.6857,-810.7 678.6857,-791.7 642.6857,-791.7"/>
<text text-anchor="start" x="669.5719" y="-797.8" font-family="Helvetica,sans-Serif" font-size="11.00" fill="#000000"> &#160;</text>
</a>
</g>
</g>
<!-- opiskeluoikeus -->
<g id="node7" class="node">
<title>opiskeluoikeus</title>
<g id="a_node7"><a xlink:href="../../tables/opiskeluoikeus.html" xlink:title="opiskeluoikeus" target="_top">
<polygon fill="#ffffff" stroke="transparent" points="186.6857,-424.2 186.6857,-771.2 442.6857,-771.2 442.6857,-424.2 186.6857,-424.2"/>
<polygon fill="#f5f5f5" stroke="transparent" points="186.6857,-747.7 186.6857,-770.7 442.6857,-770.7 442.6857,-747.7 186.6857,-747.7"/>
<polygon fill="none" stroke="#000000" points="186.6857,-747.7 186.6857,-770.7 442.6857,-770.7 442.6857,-747.7 186.6857,-747.7"/>
<text text-anchor="start" x="191.6857" y="-756.3" font-family="Helvetica,sans-Serif" font-weight="bold" font-size="11.00" fill="#000000">opiskeluoikeus</text>
<text text-anchor="start" x="407.7294" y="-755.8" font-family="Helvetica,sans-Serif" font-size="11.00" fill="#000000">[table]</text>
<polygon fill="none" stroke="#000000" points="186.6857,-725.7 186.6857,-747.7 442.6857,-747.7 442.6857,-725.7 186.6857,-725.7"/>
<image xlink:href="../../images/primaryKeys.png" width="11px" height="12px" preserveAspectRatio="xMinYMin meet" x="191.686" y="-742.7"/>
<text text-anchor="start" x="206.6857" y="-732.8" font-family="Helvetica,sans-Serif" font-size="11.00" fill="#000000">id</text>
<polygon fill="#ffffff" stroke="transparent" points="186.6857,-703.7 186.6857,-725.7 442.6857,-725.7 442.6857,-703.7 186.6857,-703.7"/>
<polygon fill="none" stroke="#000000" points="186.6857,-703.7 186.6857,-725.7 442.6857,-725.7 442.6857,-703.7 186.6857,-703.7"/>
<image xlink:href="../../images/foreignKeys.png" width="11px" height="12px" preserveAspectRatio="xMinYMin meet" x="191.686" y="-720.7"/>
<text text-anchor="start" x="206.6857" y="-710.8" font-family="Helvetica,sans-Serif" font-size="11.00" fill="#000000">oppija_oid</text>
<polygon fill="#ffffff" stroke="transparent" points="186.6857,-681.7 186.6857,-703.7 442.6857,-703.7 442.6857,-681.7 186.6857,-681.7"/>
<polygon fill="none" stroke="#000000" points="186.6857,-681.7 186.6857,-703.7 442.6857,-703.7 442.6857,-681.7 186.6857,-681.7"/>
<text text-anchor="start" x="206.6857" y="-688.8" font-family="Helvetica,sans-Serif" font-size="11.00" fill="#000000">aikaleima</text>
<polygon fill="#ffffff" stroke="transparent" points="186.6857,-659.7 186.6857,-681.7 442.6857,-681.7 442.6857,-659.7 186.6857,-659.7"/>
<polygon fill="none" stroke="#000000" points="186.6857,-659.7 186.6857,-681.7 442.6857,-681.7 442.6857,-659.7 186.6857,-659.7"/>
<text text-anchor="start" x="206.6857" y="-666.8" font-family="Helvetica,sans-Serif" font-size="11.00" fill="#000000">oppilaitos_oid</text>
<polygon fill="#ffffff" stroke="transparent" points="186.6857,-637.7 186.6857,-659.7 442.6857,-659.7 442.6857,-637.7 186.6857,-637.7"/>
<polygon fill="none" stroke="#000000" points="186.6857,-637.7 186.6857,-659.7 442.6857,-659.7 442.6857,-637.7 186.6857,-637.7"/>
<text text-anchor="start" x="206.6857" y="-644.8" font-family="Helvetica,sans-Serif" font-size="11.00" fill="#000000">sisaltava_opiskeluoikeus_oppilaitos_oid</text>
<polygon fill="#ffffff" stroke="transparent" points="186.6857,-615.7 186.6857,-637.7 442.6857,-637.7 442.6857,-615.7 186.6857,-615.7"/>
<polygon fill="none" stroke="#000000" points="186.6857,-615.7 186.6857,-637.7 442.6857,-637.7 442.6857,-615.7 186.6857,-615.7"/>
<text text-anchor="start" x="206.6857" y="-622.8" font-family="Helvetica,sans-Serif" font-size="11.00" fill="#000000">oid</text>
<polygon fill="none" stroke="#000000" points="186.6857,-593.7 186.6857,-615.7 442.6857,-615.7 442.6857,-593.7 186.6857,-593.7"/>
<image xlink:href="../../images/foreignKeys.png" width="11px" height="12px" preserveAspectRatio="xMinYMin meet" x="191.686" y="-610.7"/>
<text text-anchor="start" x="206.6857" y="-600.8" font-family="Helvetica,sans-Serif" font-size="11.00" fill="#000000">sisaltava_opiskeluoikeus_oid</text>
<polygon fill="#ffffff" stroke="transparent" points="186.6857,-571.7 186.6857,-593.7 442.6857,-593.7 442.6857,-571.7 186.6857,-571.7"/>
<polygon fill="none" stroke="#000000" points="186.6857,-571.7 186.6857,-593.7 442.6857,-593.7 442.6857,-571.7 186.6857,-571.7"/>
<text text-anchor="start" x="206.6857" y="-578.8" font-family="Helvetica,sans-Serif" font-size="11.00" fill="#000000">mitatoity</text>
<polygon fill="#ffffff" stroke="transparent" points="186.6857,-549.7 186.6857,-571.7 442.6857,-571.7 442.6857,-549.7 186.6857,-549.7"/>
<polygon fill="none" stroke="#000000" points="186.6857,-549.7 186.6857,-571.7 442.6857,-571.7 442.6857,-549.7 186.6857,-549.7"/>
<text text-anchor="start" x="206.6857" y="-556.8" font-family="Helvetica,sans-Serif" font-size="11.00" fill="#000000">koulutusmuoto</text>
<polygon fill="#ffffff" stroke="transparent" points="186.6857,-527.7 186.6857,-549.7 442.6857,-549.7 442.6857,-527.7 186.6857,-527.7"/>
<polygon fill="none" stroke="#000000" points="186.6857,-527.7 186.6857,-549.7 442.6857,-549.7 442.6857,-527.7 186.6857,-527.7"/>
<text text-anchor="start" x="206.6857" y="-534.8" font-family="Helvetica,sans-Serif" font-size="11.00" fill="#000000">alkamispaiva</text>
<polygon fill="#ffffff" stroke="transparent" points="186.6857,-505.7 186.6857,-527.7 442.6857,-527.7 442.6857,-505.7 186.6857,-505.7"/>
<polygon fill="none" stroke="#000000" points="186.6857,-505.7 186.6857,-527.7 442.6857,-527.7 442.6857,-505.7 186.6857,-505.7"/>
<text text-anchor="start" x="206.6857" y="-512.8" font-family="Helvetica,sans-Serif" font-size="11.00" fill="#000000">paattymispaiva</text>
<polygon fill="#ffffff" stroke="transparent" points="186.6857,-483.7 186.6857,-505.7 442.6857,-505.7 442.6857,-483.7 186.6857,-483.7"/>
<polygon fill="none" stroke="#000000" points="186.6857,-483.7 186.6857,-505.7 442.6857,-505.7 442.6857,-483.7 186.6857,-483.7"/>
<text text-anchor="start" x="206.6857" y="-490.8" font-family="Helvetica,sans-Serif" font-size="11.00" fill="#000000">suoritustyypit</text>
<polygon fill="#ffffff" stroke="transparent" points="186.6857,-461.7 186.6857,-483.7 442.6857,-483.7 442.6857,-461.7 186.6857,-461.7"/>
<polygon fill="none" stroke="#000000" points="186.6857,-461.7 186.6857,-483.7 442.6857,-483.7 442.6857,-461.7 186.6857,-461.7"/>
<text text-anchor="start" x="206.6857" y="-468.8" font-family="Helvetica,sans-Serif" font-size="11.00" fill="#000000">poistettu</text>
<polygon fill="none" stroke="#000000" points="186.6857,-442.7 186.6857,-461.7 442.6857,-461.7 442.6857,-442.7 186.6857,-442.7"/>
<text text-anchor="start" x="189.6857" y="-448.8" font-family="Helvetica,sans-Serif" font-size="11.00" fill="#000000">...</text>
<polygon fill="#ffffff" stroke="transparent" points="186.6857,-423.7 186.6857,-442.7 308.6857,-442.7 308.6857,-423.7 186.6857,-423.7"/>
<polygon fill="none" stroke="#000000" points="186.6857,-423.7 186.6857,-442.7 308.6857,-442.7 308.6857,-423.7 186.6857,-423.7"/>
<text text-anchor="start" x="189.6857" y="-429.8" font-family="Helvetica,sans-Serif" font-size="11.00" fill="#000000">&lt; 2</text>
<polygon fill="#ffffff" stroke="transparent" points="308.6857,-423.7 308.6857,-442.7 370.6857,-442.7 370.6857,-423.7 308.6857,-423.7"/>
<polygon fill="none" stroke="#000000" points="308.6857,-423.7 308.6857,-442.7 370.6857,-442.7 370.6857,-423.7 308.6857,-423.7"/>
<text text-anchor="start" x="361.5719" y="-429.8" font-family="Helvetica,sans-Serif" font-size="11.00" fill="#000000"> &#160;</text>
<polygon fill="#ffffff" stroke="transparent" points="370.6857,-423.7 370.6857,-442.7 442.6857,-442.7 442.6857,-423.7 370.6857,-423.7"/>
<polygon fill="none" stroke="#000000" points="370.6857,-423.7 370.6857,-442.7 442.6857,-442.7 442.6857,-423.7 370.6857,-423.7"/>
<text text-anchor="start" x="424.091" y="-429.8" font-family="Helvetica,sans-Serif" font-size="11.00" fill="#000000">4 &gt;</text>
</a>
</g>
</g>
<!-- perustiedot_sync&#45;&gt;opiskeluoikeus -->
<g id="edge7" class="edge">
<title>perustiedot_sync:w&#45;&gt;opiskeluoikeus:e</title>
<path fill="none" stroke="#000000" d="M524.3265,-838.3483C503.7293,-830.4064 504.0893,-803.8393 483.6857,-781.7 465.3498,-761.8042 469.7422,-736.7 442.6857,-736.7"/>
<polygon fill="#000000" stroke="#000000" points="530.7909,-839.407 538.1039,-844.2527 534.7383,-840.0535 538.6857,-840.7 538.6857,-840.7 538.6857,-840.7 534.7383,-840.0535 539.2676,-837.1473 530.7909,-839.407 530.7909,-839.407"/>
<ellipse fill="none" stroke="#000000" cx="527.633" cy="-838.8898" rx="3.2" ry="3.2"/>
</g>
<!-- opiskeluoikeushistoria -->
<g id="node2" class="node">
<title>opiskeluoikeushistoria</title>
<g id="a_node2"><a xlink:href="../../tables/opiskeluoikeushistoria.html" xlink:title="opiskeluoikeushistoria" target="_top">
<polygon fill="#ffffff" stroke="transparent" points="521.1857,-666.2 521.1857,-771.2 696.1857,-771.2 696.1857,-666.2 521.1857,-666.2"/>
<polygon fill="#f5f5f5" stroke="transparent" points="521.6857,-747.7 521.6857,-770.7 696.6857,-770.7 696.6857,-747.7 521.6857,-747.7"/>
<polygon fill="none" stroke="#000000" points="521.6857,-747.7 521.6857,-770.7 696.6857,-770.7 696.6857,-747.7 521.6857,-747.7"/>
<text text-anchor="start" x="526.6857" y="-756.3" font-family="Helvetica,sans-Serif" font-weight="bold" font-size="11.00" fill="#000000">opiskeluoikeushistoria</text>
<text text-anchor="start" x="662.2076" y="-755.8" font-family="Helvetica,sans-Serif" font-size="11.00" fill="#000000">[table]</text>
<polygon fill="none" stroke="#000000" points="521.6857,-725.7 521.6857,-747.7 696.6857,-747.7 696.6857,-725.7 521.6857,-725.7"/>
<image xlink:href="../../images/primaryKeys.png" width="11px" height="12px" preserveAspectRatio="xMinYMin meet" x="526.686" y="-742.7"/>
<text text-anchor="start" x="550.6857" y="-732.8" font-family="Helvetica,sans-Serif" font-size="11.00" fill="#000000">opiskeluoikeus_id</text>
<polygon fill="none" stroke="#000000" points="521.6857,-703.7 521.6857,-725.7 696.6857,-725.7 696.6857,-703.7 521.6857,-703.7"/>
<image xlink:href="../../images/primaryKeys.png" width="11px" height="12px" preserveAspectRatio="xMinYMin meet" x="526.686" y="-720.7"/>
<text text-anchor="start" x="550.6857" y="-710.8" font-family="Helvetica,sans-Serif" font-size="11.00" fill="#000000">versionumero</text>
<polygon fill="none" stroke="#000000" points="521.6857,-684.7 521.6857,-703.7 696.6857,-703.7 696.6857,-684.7 521.6857,-684.7"/>
<text text-anchor="start" x="524.6857" y="-690.8" font-family="Helvetica,sans-Serif" font-size="11.00" fill="#000000">...</text>
<polygon fill="#ffffff" stroke="transparent" points="521.6857,-665.7 521.6857,-684.7 607.6857,-684.7 607.6857,-665.7 521.6857,-665.7"/>
<polygon fill="none" stroke="#000000" points="521.6857,-665.7 521.6857,-684.7 607.6857,-684.7 607.6857,-665.7 521.6857,-665.7"/>
<text text-anchor="start" x="524.6857" y="-671.8" font-family="Helvetica,sans-Serif" font-size="11.00" fill="#000000">&lt; 1</text>
<polygon fill="#ffffff" stroke="transparent" points="607.6857,-665.7 607.6857,-684.7 651.6857,-684.7 651.6857,-665.7 607.6857,-665.7"/>
<polygon fill="none" stroke="#000000" points="607.6857,-665.7 607.6857,-684.7 651.6857,-684.7 651.6857,-665.7 607.6857,-665.7"/>
<text text-anchor="start" x="642.5719" y="-671.8" font-family="Helvetica,sans-Serif" font-size="11.00" fill="#000000"> &#160;</text>
<polygon fill="#ffffff" stroke="transparent" points="651.6857,-665.7 651.6857,-684.7 696.6857,-684.7 696.6857,-665.7 651.6857,-665.7"/>
<polygon fill="none" stroke="#000000" points="651.6857,-665.7 651.6857,-684.7 696.6857,-684.7 696.6857,-665.7 651.6857,-665.7"/>
<text text-anchor="start" x="687.5719" y="-671.8" font-family="Helvetica,sans-Serif" font-size="11.00" fill="#000000"> &#160;</text>
</a>
</g>
</g>
<!-- opiskeluoikeushistoria&#45;&gt;opiskeluoikeus -->
<g id="edge5" class="edge">
<title>opiskeluoikeushistoria:w&#45;&gt;opiskeluoikeus:e</title>
<path fill="none" stroke="#000000" d="M506.9552,-736.7C483.1887,-736.7 472.3107,-736.7 442.6857,-736.7"/>
<polygon fill="#000000" stroke="#000000" points="513.6857,-736.7001 521.6858,-740.3 517.6857,-736.7 521.6857,-736.7 521.6857,-736.7 521.6857,-736.7 517.6857,-736.7 521.6857,-733.1 513.6857,-736.7001 513.6857,-736.7001"/>
<ellipse fill="none" stroke="#000000" cx="510.4857" cy="-736.7001" rx="3.2" ry="3.2"/>
</g>
<!-- perustiedot_manual_sync -->
<g id="node3" class="node">
<title>perustiedot_manual_sync</title>
<g id="a_node3"><a xlink:href="../../tables/perustiedot_manual_sync.html" xlink:title="perustiedot_manual_sync" target="_top">
<polygon fill="#ffffff" stroke="transparent" points="513.1857,-540.2 513.1857,-645.2 704.1857,-645.2 704.1857,-540.2 513.1857,-540.2"/>
<polygon fill="#f5f5f5" stroke="transparent" points="513.6857,-621.7 513.6857,-644.7 704.6857,-644.7 704.6857,-621.7 513.6857,-621.7"/>
<polygon fill="none" stroke="#000000" points="513.6857,-621.7 513.6857,-644.7 704.6857,-644.7 704.6857,-621.7 513.6857,-621.7"/>
<text text-anchor="start" x="518.6857" y="-630.3" font-family="Helvetica,sans-Serif" font-weight="bold" font-size="11.00" fill="#000000">perustiedot_manual_sync</text>
<text text-anchor="start" x="670.2076" y="-629.8" font-family="Helvetica,sans-Serif" font-size="11.00" fill="#000000">[table]</text>
<polygon fill="none" stroke="#000000" points="513.6857,-599.7 513.6857,-621.7 704.6857,-621.7 704.6857,-599.7 513.6857,-599.7"/>
<image xlink:href="../../images/primaryKeys.png" width="11px" height="12px" preserveAspectRatio="xMinYMin meet" x="518.686" y="-616.7"/>
<text text-anchor="start" x="542.6857" y="-606.8" font-family="Helvetica,sans-Serif" font-size="11.00" fill="#000000">id</text>
<polygon fill="none" stroke="#000000" points="513.6857,-577.7 513.6857,-599.7 704.6857,-599.7 704.6857,-577.7 513.6857,-577.7"/>
<image xlink:href="../../images/foreignKeys.png" width="11px" height="12px" preserveAspectRatio="xMinYMin meet" x="518.686" y="-594.7"/>
<text text-anchor="start" x="542.6857" y="-584.8" font-family="Helvetica,sans-Serif" font-size="11.00" fill="#000000">opiskeluoikeus_oid</text>
<polygon fill="none" stroke="#000000" points="513.6857,-558.7 513.6857,-577.7 704.6857,-577.7 704.6857,-558.7 513.6857,-558.7"/>
<text text-anchor="start" x="516.6857" y="-564.8" font-family="Helvetica,sans-Serif" font-size="11.00" fill="#000000">...</text>
<polygon fill="#ffffff" stroke="transparent" points="513.6857,-539.7 513.6857,-558.7 607.6857,-558.7 607.6857,-539.7 513.6857,-539.7"/>
<polygon fill="none" stroke="#000000" points="513.6857,-539.7 513.6857,-558.7 607.6857,-558.7 607.6857,-539.7 513.6857,-539.7"/>
<text text-anchor="start" x="516.6857" y="-545.8" font-family="Helvetica,sans-Serif" font-size="11.00" fill="#000000">&lt; 1</text>
<polygon fill="#ffffff" stroke="transparent" points="607.6857,-539.7 607.6857,-558.7 655.6857,-558.7 655.6857,-539.7 607.6857,-539.7"/>
<polygon fill="none" stroke="#000000" points="607.6857,-539.7 607.6857,-558.7 655.6857,-558.7 655.6857,-539.7 607.6857,-539.7"/>
<text text-anchor="start" x="646.5719" y="-545.8" font-family="Helvetica,sans-Serif" font-size="11.00" fill="#000000"> &#160;</text>
<polygon fill="#ffffff" stroke="transparent" points="655.6857,-539.7 655.6857,-558.7 704.6857,-558.7 704.6857,-539.7 655.6857,-539.7"/>
<polygon fill="none" stroke="#000000" points="655.6857,-539.7 655.6857,-558.7 704.6857,-558.7 704.6857,-539.7 655.6857,-539.7"/>
<text text-anchor="start" x="695.5719" y="-545.8" font-family="Helvetica,sans-Serif" font-size="11.00" fill="#000000"> &#160;</text>
</a>
</g>
</g>
<!-- perustiedot_manual_sync&#45;&gt;opiskeluoikeus -->
<g id="edge6" class="edge">
<title>perustiedot_manual_sync:w&#45;&gt;opiskeluoikeus:e</title>
<path fill="none" stroke="#000000" d="M499.2953,-591.1933C477.1887,-599.6473 472.8843,-626.7 442.6857,-626.7"/>
<polygon fill="#000000" stroke="#000000" points="505.8032,-590.0658 514.3003,-592.2472 509.7445,-589.3829 513.6857,-588.7 513.6857,-588.7 513.6857,-588.7 509.7445,-589.3829 513.0711,-585.1528 505.8032,-590.0658 505.8032,-590.0658"/>
<ellipse fill="none" stroke="#000000" cx="502.6502" cy="-590.6121" rx="3.2" ry="3.2"/>
</g>
<!-- ytr_opiskeluoikeushistoria -->
<g id="node4" class="node">
<title>ytr_opiskeluoikeushistoria</title>
<g id="a_node4"><a xlink:href="../../tables/ytr_opiskeluoikeushistoria.html" xlink:title="ytr_opiskeluoikeushistoria" target="_top">
<polygon fill="#ffffff" stroke="transparent" points="510.1857,-280.2 510.1857,-385.2 707.1857,-385.2 707.1857,-280.2 510.1857,-280.2"/>
<polygon fill="#f5f5f5" stroke="transparent" points="510.6857,-361.7 510.6857,-384.7 707.6857,-384.7 707.6857,-361.7 510.6857,-361.7"/>
<polygon fill="none" stroke="#000000" points="510.6857,-361.7 510.6857,-384.7 707.6857,-384.7 707.6857,-361.7 510.6857,-361.7"/>
<text text-anchor="start" x="515.6857" y="-370.3" font-family="Helvetica,sans-Serif" font-weight="bold" font-size="11.00" fill="#000000">ytr_opiskeluoikeushistoria</text>
<text text-anchor="start" x="673.2076" y="-369.8" font-family="Helvetica,sans-Serif" font-size="11.00" fill="#000000">[table]</text>
<polygon fill="none" stroke="#000000" points="510.6857,-339.7 510.6857,-361.7 707.6857,-361.7 707.6857,-339.7 510.6857,-339.7"/>
<image xlink:href="../../images/primaryKeys.png" width="11px" height="12px" preserveAspectRatio="xMinYMin meet" x="515.686" y="-356.7"/>
<text text-anchor="start" x="539.6857" y="-346.8" font-family="Helvetica,sans-Serif" font-size="11.00" fill="#000000">opiskeluoikeus_id</text>
<polygon fill="none" stroke="#000000" points="510.6857,-317.7 510.6857,-339.7 707.6857,-339.7 707.6857,-317.7 510.6857,-317.7"/>
<image xlink:href="../../images/primaryKeys.png" width="11px" height="12px" preserveAspectRatio="xMinYMin meet" x="515.686" y="-334.7"/>
<text text-anchor="start" x="539.6857" y="-324.8" font-family="Helvetica,sans-Serif" font-size="11.00" fill="#000000">versionumero</text>
<polygon fill="none" stroke="#000000" points="510.6857,-298.7 510.6857,-317.7 707.6857,-317.7 707.6857,-298.7 510.6857,-298.7"/>
<text text-anchor="start" x="513.6857" y="-304.8" font-family="Helvetica,sans-Serif" font-size="11.00" fill="#000000">...</text>
<polygon fill="#ffffff" stroke="transparent" points="510.6857,-279.7 510.6857,-298.7 607.6857,-298.7 607.6857,-279.7 510.6857,-279.7"/>
<polygon fill="none" stroke="#000000" points="510.6857,-279.7 510.6857,-298.7 607.6857,-298.7 607.6857,-279.7 510.6857,-279.7"/>
<text text-anchor="start" x="513.6857" y="-285.8" font-family="Helvetica,sans-Serif" font-size="11.00" fill="#000000">&lt; 1</text>
<polygon fill="#ffffff" stroke="transparent" points="607.6857,-279.7 607.6857,-298.7 657.6857,-298.7 657.6857,-279.7 607.6857,-279.7"/>
<polygon fill="none" stroke="#000000" points="607.6857,-279.7 607.6857,-298.7 657.6857,-298.7 657.6857,-279.7 607.6857,-279.7"/>
<text text-anchor="start" x="648.5719" y="-285.8" font-family="Helvetica,sans-Serif" font-size="11.00" fill="#000000"> &#160;</text>
<polygon fill="#ffffff" stroke="transparent" points="657.6857,-279.7 657.6857,-298.7 707.6857,-298.7 707.6857,-279.7 657.6857,-279.7"/>
<polygon fill="none" stroke="#000000" points="657.6857,-279.7 657.6857,-298.7 707.6857,-298.7 707.6857,-279.7 657.6857,-279.7"/>
<text text-anchor="start" x="698.5719" y="-285.8" font-family="Helvetica,sans-Serif" font-size="11.00" fill="#000000"> &#160;</text>
</a>
</g>
</g>
<!-- ytr_opiskeluoikeus -->
<g id="node8" class="node">
<title>ytr_opiskeluoikeus</title>
<g id="a_node8"><a xlink:href="../../tables/ytr_opiskeluoikeus.html" xlink:title="ytr_opiskeluoikeus" target="_top">
<polygon fill="#ffffff" stroke="transparent" points="186.6857,-38.2 186.6857,-385.2 442.6857,-385.2 442.6857,-38.2 186.6857,-38.2"/>
<polygon fill="#f5f5f5" stroke="transparent" points="186.6857,-361.7 186.6857,-384.7 442.6857,-384.7 442.6857,-361.7 186.6857,-361.7"/>
<polygon fill="none" stroke="#000000" points="186.6857,-361.7 186.6857,-384.7 442.6857,-384.7 442.6857,-361.7 186.6857,-361.7"/>
<text text-anchor="start" x="191.6857" y="-370.3" font-family="Helvetica,sans-Serif" font-weight="bold" font-size="11.00" fill="#000000">ytr_opiskeluoikeus</text>
<text text-anchor="start" x="407.7294" y="-369.8" font-family="Helvetica,sans-Serif" font-size="11.00" fill="#000000">[table]</text>
<polygon fill="none" stroke="#000000" points="186.6857,-339.7 186.6857,-361.7 442.6857,-361.7 442.6857,-339.7 186.6857,-339.7"/>
<image xlink:href="../../images/primaryKeys.png" width="11px" height="12px" preserveAspectRatio="xMinYMin meet" x="191.686" y="-356.7"/>
<text text-anchor="start" x="206.6857" y="-346.8" font-family="Helvetica,sans-Serif" font-size="11.00" fill="#000000">id</text>
<polygon fill="#ffffff" stroke="transparent" points="186.6857,-317.7 186.6857,-339.7 442.6857,-339.7 442.6857,-317.7 186.6857,-317.7"/>
<polygon fill="none" stroke="#000000" points="186.6857,-317.7 186.6857,-339.7 442.6857,-339.7 442.6857,-317.7 186.6857,-317.7"/>
<image xlink:href="../../images/foreignKeys.png" width="11px" height="12px" preserveAspectRatio="xMinYMin meet" x="191.686" y="-334.7"/>
<text text-anchor="start" x="206.6857" y="-324.8" font-family="Helvetica,sans-Serif" font-size="11.00" fill="#000000">oppija_oid</text>
<polygon fill="#ffffff" stroke="transparent" points="186.6857,-295.7 186.6857,-317.7 442.6857,-317.7 442.6857,-295.7 186.6857,-295.7"/>
<polygon fill="none" stroke="#000000" points="186.6857,-295.7 186.6857,-317.7 442.6857,-317.7 442.6857,-295.7 186.6857,-295.7"/>
<text text-anchor="start" x="206.6857" y="-302.8" font-family="Helvetica,sans-Serif" font-size="11.00" fill="#000000">aikaleima</text>
<polygon fill="#ffffff" stroke="transparent" points="186.6857,-273.7 186.6857,-295.7 442.6857,-295.7 442.6857,-273.7 186.6857,-273.7"/>
<polygon fill="none" stroke="#000000" points="186.6857,-273.7 186.6857,-295.7 442.6857,-295.7 442.6857,-273.7 186.6857,-273.7"/>
<text text-anchor="start" x="206.6857" y="-280.8" font-family="Helvetica,sans-Serif" font-size="11.00" fill="#000000">oppilaitos_oid</text>
<polygon fill="#ffffff" stroke="transparent" points="186.6857,-251.7 186.6857,-273.7 442.6857,-273.7 442.6857,-251.7 186.6857,-251.7"/>
<polygon fill="none" stroke="#000000" points="186.6857,-251.7 186.6857,-273.7 442.6857,-273.7 442.6857,-251.7 186.6857,-251.7"/>
<text text-anchor="start" x="206.6857" y="-258.8" font-family="Helvetica,sans-Serif" font-size="11.00" fill="#000000">sisaltava_opiskeluoikeus_oppilaitos_oid</text>
<polygon fill="#ffffff" stroke="transparent" points="186.6857,-229.7 186.6857,-251.7 442.6857,-251.7 442.6857,-229.7 186.6857,-229.7"/>
<polygon fill="none" stroke="#000000" points="186.6857,-229.7 186.6857,-251.7 442.6857,-251.7 442.6857,-229.7 186.6857,-229.7"/>
<text text-anchor="start" x="206.6857" y="-236.8" font-family="Helvetica,sans-Serif" font-size="11.00" fill="#000000">oid</text>
<polygon fill="none" stroke="#000000" points="186.6857,-207.7 186.6857,-229.7 442.6857,-229.7 442.6857,-207.7 186.6857,-207.7"/>
<image xlink:href="../../images/foreignKeys.png" width="11px" height="12px" preserveAspectRatio="xMinYMin meet" x="191.686" y="-224.7"/>
<text text-anchor="start" x="206.6857" y="-214.8" font-family="Helvetica,sans-Serif" font-size="11.00" fill="#000000">sisaltava_opiskeluoikeus_oid</text>
<polygon fill="#ffffff" stroke="transparent" points="186.6857,-185.7 186.6857,-207.7 442.6857,-207.7 442.6857,-185.7 186.6857,-185.7"/>
<polygon fill="none" stroke="#000000" points="186.6857,-185.7 186.6857,-207.7 442.6857,-207.7 442.6857,-185.7 186.6857,-185.7"/>
<text text-anchor="start" x="206.6857" y="-192.8" font-family="Helvetica,sans-Serif" font-size="11.00" fill="#000000">mitatoity</text>
<polygon fill="#ffffff" stroke="transparent" points="186.6857,-163.7 186.6857,-185.7 442.6857,-185.7 442.6857,-163.7 186.6857,-163.7"/>
<polygon fill="none" stroke="#000000" points="186.6857,-163.7 186.6857,-185.7 442.6857,-185.7 442.6857,-163.7 186.6857,-163.7"/>
<text text-anchor="start" x="206.6857" y="-170.8" font-family="Helvetica,sans-Serif" font-size="11.00" fill="#000000">koulutusmuoto</text>
<polygon fill="#ffffff" stroke="transparent" points="186.6857,-141.7 186.6857,-163.7 442.6857,-163.7 442.6857,-141.7 186.6857,-141.7"/>
<polygon fill="none" stroke="#000000" points="186.6857,-141.7 186.6857,-163.7 442.6857,-163.7 442.6857,-141.7 186.6857,-141.7"/>
<text text-anchor="start" x="206.6857" y="-148.8" font-family="Helvetica,sans-Serif" font-size="11.00" fill="#000000">alkamispaiva</text>
<polygon fill="#ffffff" stroke="transparent" points="186.6857,-119.7 186.6857,-141.7 442.6857,-141.7 442.6857,-119.7 186.6857,-119.7"/>
<polygon fill="none" stroke="#000000" points="186.6857,-119.7 186.6857,-141.7 442.6857,-141.7 442.6857,-119.7 186.6857,-119.7"/>
<text text-anchor="start" x="206.6857" y="-126.8" font-family="Helvetica,sans-Serif" font-size="11.00" fill="#000000">paattymispaiva</text>
<polygon fill="#ffffff" stroke="transparent" points="186.6857,-97.7 186.6857,-119.7 442.6857,-119.7 442.6857,-97.7 186.6857,-97.7"/>
<polygon fill="none" stroke="#000000" points="186.6857,-97.7 186.6857,-119.7 442.6857,-119.7 442.6857,-97.7 186.6857,-97.7"/>
<text text-anchor="start" x="206.6857" y="-104.8" font-family="Helvetica,sans-Serif" font-size="11.00" fill="#000000">suoritustyypit</text>
<polygon fill="#ffffff" stroke="transparent" points="186.6857,-75.7 186.6857,-97.7 442.6857,-97.7 442.6857,-75.7 186.6857,-75.7"/>
<polygon fill="none" stroke="#000000" points="186.6857,-75.7 186.6857,-97.7 442.6857,-97.7 442.6857,-75.7 186.6857,-75.7"/>
<text text-anchor="start" x="206.6857" y="-82.8" font-family="Helvetica,sans-Serif" font-size="11.00" fill="#000000">poistettu</text>
<polygon fill="none" stroke="#000000" points="186.6857,-56.7 186.6857,-75.7 442.6857,-75.7 442.6857,-56.7 186.6857,-56.7"/>
<text text-anchor="start" x="189.6857" y="-62.8" font-family="Helvetica,sans-Serif" font-size="11.00" fill="#000000">...</text>
<polygon fill="#ffffff" stroke="transparent" points="186.6857,-37.7 186.6857,-56.7 308.6857,-56.7 308.6857,-37.7 186.6857,-37.7"/>
<polygon fill="none" stroke="#000000" points="186.6857,-37.7 186.6857,-56.7 308.6857,-56.7 308.6857,-37.7 186.6857,-37.7"/>
<text text-anchor="start" x="189.6857" y="-43.8" font-family="Helvetica,sans-Serif" font-size="11.00" fill="#000000">&lt; 2</text>
<polygon fill="#ffffff" stroke="transparent" points="308.6857,-37.7 308.6857,-56.7 370.6857,-56.7 370.6857,-37.7 308.6857,-37.7"/>
<polygon fill="none" stroke="#000000" points="308.6857,-37.7 308.6857,-56.7 370.6857,-56.7 370.6857,-37.7 308.6857,-37.7"/>
<text text-anchor="start" x="361.5719" y="-43.8" font-family="Helvetica,sans-Serif" font-size="11.00" fill="#000000"> &#160;</text>
<polygon fill="#ffffff" stroke="transparent" points="370.6857,-37.7 370.6857,-56.7 442.6857,-56.7 442.6857,-37.7 370.6857,-37.7"/>
<polygon fill="none" stroke="#000000" points="370.6857,-37.7 370.6857,-56.7 442.6857,-56.7 442.6857,-37.7 370.6857,-37.7"/>
<text text-anchor="start" x="424.091" y="-43.8" font-family="Helvetica,sans-Serif" font-size="11.00" fill="#000000">2 &gt;</text>
</a>
</g>
</g>
<!-- ytr_opiskeluoikeushistoria&#45;&gt;ytr_opiskeluoikeus -->
<g id="edge10" class="edge">
<title>ytr_opiskeluoikeushistoria:w&#45;&gt;ytr_opiskeluoikeus:e</title>
<path fill="none" stroke="#000000" d="M496.0514,-350.7C476.9252,-350.7 467.3594,-350.7 442.6857,-350.7"/>
<polygon fill="#000000" stroke="#000000" points="502.6857,-350.7001 510.6858,-354.3 506.6857,-350.7 510.6857,-350.7 510.6857,-350.7 510.6857,-350.7 506.6857,-350.7 510.6857,-347.1 502.6857,-350.7001 502.6857,-350.7001"/>
<ellipse fill="none" stroke="#000000" cx="499.4857" cy="-350.7001" rx="3.2" ry="3.2"/>
</g>
<!-- kielitutkintotodistus_tiedote_job -->
<g id="node5" class="node">
<title>kielitutkintotodistus_tiedote_job</title>
<g id="a_node5"><a xlink:href="../../tables/kielitutkintotodistus_tiedote_job.html" xlink:title="kielitutkintotodistus_tiedote_job" target="_top">
<polygon fill="#ffffff" stroke="transparent" points="491.6857,-918.2 491.6857,-1089.2 725.6857,-1089.2 725.6857,-918.2 491.6857,-918.2"/>
<polygon fill="#f5f5f5" stroke="transparent" points="491.6857,-1065.7 491.6857,-1088.7 725.6857,-1088.7 725.6857,-1065.7 491.6857,-1065.7"/>
<polygon fill="none" stroke="#000000" points="491.6857,-1065.7 491.6857,-1088.7 725.6857,-1088.7 725.6857,-1065.7 491.6857,-1065.7"/>
<text text-anchor="start" x="496.6857" y="-1074.3" font-family="Helvetica,sans-Serif" font-weight="bold" font-size="11.00" fill="#000000">kielitutkintotodistus_tiedote_job</text>
<text text-anchor="start" x="691.2076" y="-1073.8" font-family="Helvetica,sans-Serif" font-size="11.00" fill="#000000">[table]</text>
<polygon fill="none" stroke="#000000" points="491.6857,-1043.7 491.6857,-1065.7 725.6857,-1065.7 725.6857,-1043.7 491.6857,-1043.7"/>
<image xlink:href="../../images/primaryKeys.png" width="11px" height="12px" preserveAspectRatio="xMinYMin meet" x="496.686" y="-1060.7"/>
<text text-anchor="start" x="520.6857" y="-1050.8" font-family="Helvetica,sans-Serif" font-size="11.00" fill="#000000">id</text>
<polygon fill="#ffffff" stroke="transparent" points="491.6857,-1021.7 491.6857,-1043.7 725.6857,-1043.7 725.6857,-1021.7 491.6857,-1021.7"/>
<polygon fill="none" stroke="#000000" points="491.6857,-1021.7 491.6857,-1043.7 725.6857,-1043.7 725.6857,-1021.7 491.6857,-1021.7"/>
<text text-anchor="start" x="520.6857" y="-1028.8" font-family="Helvetica,sans-Serif" font-size="11.00" fill="#000000">opiskeluoikeus_oid</text>
<polygon fill="#ffffff" stroke="transparent" points="491.6857,-999.7 491.6857,-1021.7 725.6857,-1021.7 725.6857,-999.7 491.6857,-999.7"/>
<polygon fill="none" stroke="#000000" points="491.6857,-999.7 491.6857,-1021.7 725.6857,-1021.7 725.6857,-999.7 491.6857,-999.7"/>
<text text-anchor="start" x="520.6857" y="-1006.8" font-family="Helvetica,sans-Serif" font-size="11.00" fill="#000000">state</text>
<polygon fill="#ffffff" stroke="transparent" points="491.6857,-977.7 491.6857,-999.7 725.6857,-999.7 725.6857,-977.7 491.6857,-977.7"/>
<polygon fill="none" stroke="#000000" points="491.6857,-977.7 491.6857,-999.7 725.6857,-999.7 725.6857,-977.7 491.6857,-977.7"/>
<text text-anchor="start" x="520.6857" y="-984.8" font-family="Helvetica,sans-Serif" font-size="11.00" fill="#000000">created_at</text>
<polygon fill="none" stroke="#000000" points="491.6857,-955.7 491.6857,-977.7 725.6857,-977.7 725.6857,-955.7 491.6857,-955.7"/>
<image xlink:href="../../images/foreignKeys.png" width="11px" height="12px" preserveAspectRatio="xMinYMin meet" x="496.686" y="-972.7"/>
<text text-anchor="start" x="520.6857" y="-962.8" font-family="Helvetica,sans-Serif" font-size="11.00" fill="#000000">todistus_job_id</text>
<polygon fill="none" stroke="#000000" points="491.6857,-936.7 491.6857,-955.7 725.6857,-955.7 725.6857,-936.7 491.6857,-936.7"/>
<text text-anchor="start" x="494.6857" y="-942.8" font-family="Helvetica,sans-Serif" font-size="11.00" fill="#000000">...</text>
<polygon fill="#ffffff" stroke="transparent" points="491.6857,-917.7 491.6857,-936.7 606.6857,-936.7 606.6857,-917.7 491.6857,-917.7"/>
<polygon fill="none" stroke="#000000" points="491.6857,-917.7 491.6857,-936.7 606.6857,-936.7 606.6857,-917.7 491.6857,-917.7"/>
<text text-anchor="start" x="494.6857" y="-923.8" font-family="Helvetica,sans-Serif" font-size="11.00" fill="#000000">&lt; 1</text>
<polygon fill="#ffffff" stroke="transparent" points="606.6857,-917.7 606.6857,-936.7 665.6857,-936.7 665.6857,-917.7 606.6857,-917.7"/>
<polygon fill="none" stroke="#000000" points="606.6857,-917.7 606.6857,-936.7 665.6857,-936.7 665.6857,-917.7 606.6857,-917.7"/>
<text text-anchor="start" x="656.5719" y="-923.8" font-family="Helvetica,sans-Serif" font-size="11.00" fill="#000000"> &#160;</text>
<polygon fill="#ffffff" stroke="transparent" points="665.6857,-917.7 665.6857,-936.7 725.6857,-936.7 725.6857,-917.7 665.6857,-917.7"/>
<polygon fill="none" stroke="#000000" points="665.6857,-917.7 665.6857,-936.7 725.6857,-936.7 725.6857,-917.7 665.6857,-917.7"/>
<text text-anchor="start" x="716.5719" y="-923.8" font-family="Helvetica,sans-Serif" font-size="11.00" fill="#000000"> &#160;</text>
</a>
</g>
</g>
<!-- todistus_job -->
<g id="node6" class="node">
<title>todistus_job</title>
<g id="a_node6"><a xlink:href="../../tables/todistus_job.html" xlink:title="todistus_job" target="_top">
<polygon fill="#ffffff" stroke="transparent" points="215.1857,-852.2 215.1857,-1001.2 414.1857,-1001.2 414.1857,-852.2 215.1857,-852.2"/>
<polygon fill="#f5f5f5" stroke="transparent" points="215.6857,-977.7 215.6857,-1000.7 414.6857,-1000.7 414.6857,-977.7 215.6857,-977.7"/>
<polygon fill="none" stroke="#000000" points="215.6857,-977.7 215.6857,-1000.7 414.6857,-1000.7 414.6857,-977.7 215.6857,-977.7"/>
<text text-anchor="start" x="220.6857" y="-986.3" font-family="Helvetica,sans-Serif" font-weight="bold" font-size="11.00" fill="#000000">todistus_job</text>
<text text-anchor="start" x="379.7294" y="-985.8" font-family="Helvetica,sans-Serif" font-size="11.00" fill="#000000">[table]</text>
<polygon fill="none" stroke="#000000" points="215.6857,-955.7 215.6857,-977.7 414.6857,-977.7 414.6857,-955.7 215.6857,-955.7"/>
<image xlink:href="../../images/primaryKeys.png" width="11px" height="12px" preserveAspectRatio="xMinYMin meet" x="220.686" y="-972.7"/>
<text text-anchor="start" x="235.6857" y="-962.8" font-family="Helvetica,sans-Serif" font-size="11.00" fill="#000000">id</text>
<polygon fill="#ffffff" stroke="transparent" points="215.6857,-933.7 215.6857,-955.7 414.6857,-955.7 414.6857,-933.7 215.6857,-933.7"/>
<polygon fill="none" stroke="#000000" points="215.6857,-933.7 215.6857,-955.7 414.6857,-955.7 414.6857,-933.7 215.6857,-933.7"/>
<text text-anchor="start" x="235.6857" y="-940.8" font-family="Helvetica,sans-Serif" font-size="11.00" fill="#000000">opiskeluoikeus_oid</text>
<polygon fill="#ffffff" stroke="transparent" points="215.6857,-911.7 215.6857,-933.7 414.6857,-933.7 414.6857,-911.7 215.6857,-911.7"/>
<polygon fill="none" stroke="#000000" points="215.6857,-911.7 215.6857,-933.7 414.6857,-933.7 414.6857,-911.7 215.6857,-911.7"/>
<text text-anchor="start" x="235.6857" y="-918.8" font-family="Helvetica,sans-Serif" font-size="11.00" fill="#000000">template_variant</text>
<polygon fill="#ffffff" stroke="transparent" points="215.6857,-889.7 215.6857,-911.7 414.6857,-911.7 414.6857,-889.7 215.6857,-889.7"/>
<polygon fill="none" stroke="#000000" points="215.6857,-889.7 215.6857,-911.7 414.6857,-911.7 414.6857,-889.7 215.6857,-889.7"/>
<text text-anchor="start" x="235.6857" y="-896.8" font-family="Helvetica,sans-Serif" font-size="11.00" fill="#000000">state</text>
<polygon fill="none" stroke="#000000" points="215.6857,-870.7 215.6857,-889.7 414.6857,-889.7 414.6857,-870.7 215.6857,-870.7"/>
<text text-anchor="start" x="218.6857" y="-876.8" font-family="Helvetica,sans-Serif" font-size="11.00" fill="#000000">...</text>
<polygon fill="#ffffff" stroke="transparent" points="215.6857,-851.7 215.6857,-870.7 304.6857,-870.7 304.6857,-851.7 215.6857,-851.7"/>
<polygon fill="none" stroke="#000000" points="215.6857,-851.7 215.6857,-870.7 304.6857,-870.7 304.6857,-851.7 215.6857,-851.7"/>
<text text-anchor="start" x="218.6857" y="-857.8" font-family="Helvetica,sans-Serif" font-size="11.00" fill="#000000"> &#160;</text>
<polygon fill="#ffffff" stroke="transparent" points="304.6857,-851.7 304.6857,-870.7 354.6857,-870.7 354.6857,-851.7 304.6857,-851.7"/>
<polygon fill="none" stroke="#000000" points="304.6857,-851.7 304.6857,-870.7 354.6857,-870.7 354.6857,-851.7 304.6857,-851.7"/>
<text text-anchor="start" x="345.5719" y="-857.8" font-family="Helvetica,sans-Serif" font-size="11.00" fill="#000000"> &#160;</text>
<polygon fill="#ffffff" stroke="transparent" points="354.6857,-851.7 354.6857,-870.7 414.6857,-870.7 414.6857,-851.7 354.6857,-851.7"/>
<polygon fill="none" stroke="#000000" points="354.6857,-851.7 354.6857,-870.7 414.6857,-870.7 414.6857,-851.7 354.6857,-851.7"/>
<text text-anchor="start" x="396.091" y="-857.8" font-family="Helvetica,sans-Serif" font-size="11.00" fill="#000000">1 &gt;</text>
</a>
</g>
</g>
<!-- kielitutkintotodistus_tiedote_job&#45;&gt;todistus_job -->
<g id="edge2" class="edge">
<title>kielitutkintotodistus_tiedote_job:w&#45;&gt;todistus_job:e</title>
<path fill="none" stroke="#000000" d="M477.0072,-966.7C454.0647,-966.7 443.4271,-966.7 414.6857,-966.7"/>
<polygon fill="#000000" stroke="#000000" points="483.6857,-966.7001 491.6858,-970.3 487.6857,-966.7 491.6857,-966.7 491.6857,-966.7 491.6857,-966.7 487.6857,-966.7 491.6857,-963.1 483.6857,-966.7001 483.6857,-966.7001"/>
<ellipse fill="none" stroke="#000000" cx="480.4857" cy="-966.7001" rx="3.2" ry="3.2"/>
</g>
<!-- opiskeluoikeus&#45;&gt;opiskeluoikeus -->
<g id="edge4" class="edge">
<title>opiskeluoikeus:w&#45;&gt;opiskeluoikeus:e</title>
<path fill="none" stroke="#000000" d="M177.6522,-616.0018C130.7777,-681.4088 140.6359,-788.2 314.6857,-788.2 499.1857,-788.2 499.1857,-690.2 442.6857,-626.7"/>
<polygon fill="#000000" stroke="#000000" points="181.6908,-610.9491 189.4978,-606.9477 184.1883,-607.8245 186.6857,-604.7 186.6857,-604.7 186.6857,-604.7 184.1883,-607.8245 183.8737,-602.4523 181.6908,-610.9491 181.6908,-610.9491"/>
<ellipse fill="none" stroke="#000000" cx="179.6928" cy="-613.4487" rx="3.2" ry="3.2"/>
</g>
<!-- henkilo -->
<g id="node9" class="node">
<title>henkilo</title>
<g id="a_node9"><a xlink:href="../../tables/henkilo.html" xlink:title="henkilo" target="_top">
<polygon fill="#ffffff" stroke="transparent" points="37.6857,-451.2 37.6857,-556.2 137.6857,-556.2 137.6857,-451.2 37.6857,-451.2"/>
<polygon fill="#f5f5f5" stroke="transparent" points="37.6857,-532.7 37.6857,-555.7 137.6857,-555.7 137.6857,-532.7 37.6857,-532.7"/>
<polygon fill="none" stroke="#000000" points="37.6857,-532.7 37.6857,-555.7 137.6857,-555.7 137.6857,-532.7 37.6857,-532.7"/>
<text text-anchor="start" x="42.6857" y="-541.3" font-family="Helvetica,sans-Serif" font-weight="bold" font-size="11.00" fill="#000000">henkilo</text>
<text text-anchor="start" x="102.7294" y="-540.8" font-family="Helvetica,sans-Serif" font-size="11.00" fill="#000000">[table]</text>
<polygon fill="none" stroke="#000000" points="37.6857,-510.7 37.6857,-532.7 137.6857,-532.7 137.6857,-510.7 37.6857,-510.7"/>
<image xlink:href="../../images/primaryKeys.png" width="11px" height="12px" preserveAspectRatio="xMinYMin meet" x="42.6857" y="-527.7"/>
<text text-anchor="start" x="57.6857" y="-517.8" font-family="Helvetica,sans-Serif" font-size="11.00" fill="#000000">oid</text>
<polygon fill="#ffffff" stroke="transparent" points="37.6857,-488.7 37.6857,-510.7 137.6857,-510.7 137.6857,-488.7 37.6857,-488.7"/>
<polygon fill="none" stroke="#000000" points="37.6857,-488.7 37.6857,-510.7 137.6857,-510.7 137.6857,-488.7 37.6857,-488.7"/>
<image xlink:href="../../images/foreignKeys.png" width="11px" height="12px" preserveAspectRatio="xMinYMin meet" x="42.6857" y="-505.7"/>
<text text-anchor="start" x="57.6857" y="-495.8" font-family="Helvetica,sans-Serif" font-size="11.00" fill="#000000">master_oid</text>
<polygon fill="none" stroke="#000000" points="37.6857,-469.7 37.6857,-488.7 137.6857,-488.7 137.6857,-469.7 37.6857,-469.7"/>
<text text-anchor="start" x="40.6857" y="-475.8" font-family="Helvetica,sans-Serif" font-size="11.00" fill="#000000">...</text>
<polygon fill="#ffffff" stroke="transparent" points="37.6857,-450.7 37.6857,-469.7 81.6857,-469.7 81.6857,-450.7 37.6857,-450.7"/>
<polygon fill="none" stroke="#000000" points="37.6857,-450.7 37.6857,-469.7 81.6857,-469.7 81.6857,-450.7 37.6857,-450.7"/>
<text text-anchor="start" x="40.6857" y="-456.8" font-family="Helvetica,sans-Serif" font-size="11.00" fill="#000000">&lt; 1</text>
<polygon fill="#ffffff" stroke="transparent" points="81.6857,-450.7 81.6857,-469.7 104.6857,-469.7 104.6857,-450.7 81.6857,-450.7"/>
<polygon fill="none" stroke="#000000" points="81.6857,-450.7 81.6857,-469.7 104.6857,-469.7 104.6857,-450.7 81.6857,-450.7"/>
<text text-anchor="start" x="95.5719" y="-456.8" font-family="Helvetica,sans-Serif" font-size="11.00" fill="#000000"> &#160;</text>
<polygon fill="#ffffff" stroke="transparent" points="104.6857,-450.7 104.6857,-469.7 137.6857,-469.7 137.6857,-450.7 104.6857,-450.7"/>
<polygon fill="none" stroke="#000000" points="104.6857,-450.7 104.6857,-469.7 137.6857,-469.7 137.6857,-450.7 104.6857,-450.7"/>
<text text-anchor="start" x="119.091" y="-456.8" font-family="Helvetica,sans-Serif" font-size="11.00" fill="#000000">3 &gt;</text>
</a>
</g>
</g>
<!-- opiskeluoikeus&#45;&gt;henkilo -->
<g id="edge3" class="edge">
<title>opiskeluoikeus:w&#45;&gt;henkilo:e</title>
<path fill="none" stroke="#000000" d="M176.0305,-713.5666C109.2496,-697.7496 222.2093,-521.7 137.6857,-521.7"/>
<polygon fill="#000000" stroke="#000000" points="186.3134,-710.6378 185.4671,-718.5929 183.8761,-718.4237 184.7223,-710.4686 186.3134,-710.6378"/>
<polyline fill="none" stroke="#000000" points="186.6857,-714.7 182.7082,-714.2769 "/>
<ellipse fill="none" stroke="#000000" cx="179.5261" cy="-713.9384" rx="3.2" ry="3.2"/>
</g>
<!-- ytr_opiskeluoikeus&#45;&gt;ytr_opiskeluoikeus -->
<g id="edge9" class="edge">
<title>ytr_opiskeluoikeus:w&#45;&gt;ytr_opiskeluoikeus:e</title>
<path fill="none" stroke="#000000" d="M177.6522,-230.0018C130.7777,-295.4088 140.6359,-402.2 314.6857,-402.2 499.1857,-402.2 499.1857,-304.2 442.6857,-240.7"/>
<polygon fill="#000000" stroke="#000000" points="181.6908,-224.9491 189.4978,-220.9477 184.1883,-221.8245 186.6857,-218.7 186.6857,-218.7 186.6857,-218.7 184.1883,-221.8245 183.8737,-216.4523 181.6908,-224.9491 181.6908,-224.9491"/>
<ellipse fill="none" stroke="#000000" cx="179.6928" cy="-227.4487" rx="3.2" ry="3.2"/>
</g>
<!-- ytr_opiskeluoikeus&#45;&gt;henkilo -->
<g id="edge8" class="edge">
<title>ytr_opiskeluoikeus:w&#45;&gt;henkilo:e</title>
<path fill="none" stroke="#000000" d="M176.0305,-329.8334C109.2496,-345.6504 222.2093,-521.7 137.6857,-521.7"/>
<polygon fill="#000000" stroke="#000000" points="185.4671,-324.8071 186.3134,-332.7622 184.7223,-332.9314 183.8761,-324.9763 185.4671,-324.8071"/>
<polyline fill="none" stroke="#000000" points="186.6857,-328.7 182.7082,-329.1231 "/>
<ellipse fill="none" stroke="#000000" cx="179.5261" cy="-329.4616" rx="3.2" ry="3.2"/>
</g>
<!-- henkilo&#45;&gt;henkilo -->
<g id="edge1" class="edge">
<title>henkilo:w&#45;&gt;henkilo:e</title>
<path fill="none" stroke="#000000" d="M24.6756,-506.0659C-18.0631,-530.9661 -9.8699,-573.2 87.6857,-573.2 194.1857,-573.2 194.1857,-544.8667 137.6857,-521.7"/>
<polygon fill="#000000" stroke="#000000" points="30.4998,-503.2161 39.268,-502.9337 34.0928,-501.458 37.6857,-499.7 37.6857,-499.7 37.6857,-499.7 34.0928,-501.458 36.1035,-496.4663 30.4998,-503.2161 30.4998,-503.2161"/>
<ellipse fill="none" stroke="#000000" cx="27.6255" cy="-504.6225" rx="3.2" ry="3.2"/>
</g>
</g>
</svg>
