<?xml version="1.0" encoding="UTF-8" standalone="no"?>
<!DOCTYPE svg PUBLIC "-//W3C//DTD SVG 1.1//EN"
 "http://www.w3.org/Graphics/SVG/1.1/DTD/svg11.dtd">
<!-- Generated by graphviz version 2.40.1 (20161225.0304)
 -->
<!-- Title: largeRelationshipsDiagram Pages: 1 -->
<svg width="768pt" height="1136pt"
 viewBox="0.00 0.00 767.98 1136.20" xmlns="http://www.w3.org/2000/svg" xmlns:xlink="http://www.w3.org/1999/xlink">
<g id="graph0" class="graph" transform="scale(1 1) rotate(0) translate(4 1132.2)">
<title>largeRelationshipsDiagram</title>
<polygon fill="#ffffff" stroke="transparent" points="-4,4 -4,-1132.2 763.9768,-1132.2 763.9768,4 -4,4"/>
<text text-anchor="middle" x="72.4936" y="-7.3" font-family="Helvetica,sans-Serif" font-size="11.00" fill="#000000">Generated by SchemaSpy</text>
<!-- perustiedot_sync -->
<g id="node1" class="node">
<title>perustiedot_sync</title>
<g id="a_node1"><a xlink:href="../../tables/perustiedot_sync.html" xlink:title="perustiedot_sync" target="_top">
<polygon fill="#ffffff" stroke="transparent" points="566.4768,-972.2 566.4768,-1124.2 720.4768,-1124.2 720.4768,-972.2 566.4768,-972.2"/>
<polygon fill="#f5f5f5" stroke="transparent" points="566.4768,-1101.2 566.4768,-1124.2 720.4768,-1124.2 720.4768,-1101.2 566.4768,-1101.2"/>
<polygon fill="none" stroke="#000000" points="566.4768,-1101.2 566.4768,-1124.2 720.4768,-1124.2 720.4768,-1101.2 566.4768,-1101.2"/>
<text text-anchor="start" x="571.4768" y="-1109.8" font-family="Helvetica,sans-Serif" font-weight="bold" font-size="11.00" fill="#000000">perustiedot_sync</text>
<text text-anchor="start" x="685.9987" y="-1109.3" font-family="Helvetica,sans-Serif" font-size="11.00" fill="#000000">[table]</text>
<polygon fill="none" stroke="#000000" points="566.4768,-1079.2 566.4768,-1101.2 720.4768,-1101.2 720.4768,-1079.2 566.4768,-1079.2"/>
<image xlink:href="../../images/primaryKeys.png" width="11px" height="12px" preserveAspectRatio="xMinYMin meet" x="571.477" y="-1096.2"/>
<text text-anchor="start" x="593.4768" y="-1086.3" font-family="Helvetica,sans-Serif" font-size="11.00" fill="#000000">id</text>
<polygon fill="none" stroke="#000000" points="566.4768,-1057.2 566.4768,-1079.2 720.4768,-1079.2 720.4768,-1057.2 566.4768,-1057.2"/>
<image xlink:href="../../images/foreignKeys.png" width="11px" height="12px" preserveAspectRatio="xMinYMin meet" x="571.477" y="-1074.2"/>
<text text-anchor="start" x="593.4768" y="-1064.3" font-family="Helvetica,sans-Serif" font-size="11.00" fill="#000000">opiskeluoikeus_id</text>
<polygon fill="none" stroke="#000000" points="566.4768,-1035.2 566.4768,-1057.2 720.4768,-1057.2 720.4768,-1035.2 566.4768,-1035.2"/>
<text text-anchor="start" x="593.4768" y="-1042.3" font-family="Helvetica,sans-Serif" font-size="11.00" fill="#000000">aikaleima</text>
<polygon fill="none" stroke="#000000" points="566.4768,-1013.2 566.4768,-1035.2 720.4768,-1035.2 720.4768,-1013.2 566.4768,-1013.2"/>
<text text-anchor="start" x="593.4768" y="-1020.3" font-family="Helvetica,sans-Serif" font-size="11.00" fill="#000000">upsert</text>
<polygon fill="none" stroke="#000000" points="566.4768,-991.2 566.4768,-1013.2 720.4768,-1013.2 720.4768,-991.2 566.4768,-991.2"/>
<text text-anchor="start" x="593.4768" y="-998.3" font-family="Helvetica,sans-Serif" font-size="11.00" fill="#000000">data</text>
<polygon fill="#ffffff" stroke="transparent" points="566.4768,-972.2 566.4768,-991.2 628.4768,-991.2 628.4768,-972.2 566.4768,-972.2"/>
<polygon fill="none" stroke="#000000" points="566.4768,-972.2 566.4768,-991.2 628.4768,-991.2 628.4768,-972.2 566.4768,-972.2"/>
<text text-anchor="start" x="569.4768" y="-978.3" font-family="Helvetica,sans-Serif" font-size="11.00" fill="#000000">&lt; 1</text>
<polygon fill="#ffffff" stroke="transparent" points="628.4768,-972.2 628.4768,-991.2 687.4768,-991.2 687.4768,-972.2 628.4768,-972.2"/>
<polygon fill="none" stroke="#000000" points="628.4768,-972.2 628.4768,-991.2 687.4768,-991.2 687.4768,-972.2 628.4768,-972.2"/>
<text text-anchor="start" x="652.0873" y="-978.3" font-family="Helvetica,sans-Serif" font-size="11.00" fill="#000000">0 rows</text>
<polygon fill="#ffffff" stroke="transparent" points="687.4768,-972.2 687.4768,-991.2 720.4768,-991.2 720.4768,-972.2 687.4768,-972.2"/>
<polygon fill="none" stroke="#000000" points="687.4768,-972.2 687.4768,-991.2 720.4768,-991.2 720.4768,-972.2 687.4768,-972.2"/>
<text text-anchor="start" x="711.363" y="-978.3" font-family="Helvetica,sans-Serif" font-size="11.00" fill="#000000"> &#160;</text>
</a>
</g>
</g>
<!-- opiskeluoikeus -->
<g id="node5" class="node">
<title>opiskeluoikeus</title>
<g id="a_node5"><a xlink:href="../../tables/opiskeluoikeus.html" xlink:title="opiskeluoikeus" target="_top">
<polygon fill="#ffffff" stroke="transparent" points="197.9768,-515.2 197.9768,-953.2 485.9768,-953.2 485.9768,-515.2 197.9768,-515.2"/>
<polygon fill="#f5f5f5" stroke="transparent" points="197.9768,-930.2 197.9768,-953.2 485.9768,-953.2 485.9768,-930.2 197.9768,-930.2"/>
<polygon fill="none" stroke="#000000" points="197.9768,-930.2 197.9768,-953.2 485.9768,-953.2 485.9768,-930.2 197.9768,-930.2"/>
<text text-anchor="start" x="202.9768" y="-938.8" font-family="Helvetica,sans-Serif" font-weight="bold" font-size="11.00" fill="#000000">opiskeluoikeus</text>
<text text-anchor="start" x="451.0205" y="-938.3" font-family="Helvetica,sans-Serif" font-size="11.00" fill="#000000">[table]</text>
<polygon fill="none" stroke="#000000" points="197.9768,-908.2 197.9768,-930.2 485.9768,-930.2 485.9768,-908.2 197.9768,-908.2"/>
<image xlink:href="../../images/primaryKeys.png" width="11px" height="12px" preserveAspectRatio="xMinYMin meet" x="202.977" y="-925.2"/>
<text text-anchor="start" x="217.9768" y="-915.3" font-family="Helvetica,sans-Serif" font-size="11.00" fill="#000000">id</text>
<polygon fill="none" stroke="#000000" points="197.9768,-886.2 197.9768,-908.2 485.9768,-908.2 485.9768,-886.2 197.9768,-886.2"/>
<text text-anchor="start" x="217.9768" y="-893.3" font-family="Helvetica,sans-Serif" font-size="11.00" fill="#000000">data</text>
<polygon fill="#ffffff" stroke="transparent" points="197.9768,-864.2 197.9768,-886.2 485.9768,-886.2 485.9768,-864.2 197.9768,-864.2"/>
<polygon fill="none" stroke="#000000" points="197.9768,-864.2 197.9768,-886.2 485.9768,-886.2 485.9768,-864.2 197.9768,-864.2"/>
<image xlink:href="../../images/foreignKeys.png" width="11px" height="12px" preserveAspectRatio="xMinYMin meet" x="202.977" y="-881.2"/>
<text text-anchor="start" x="217.9768" y="-871.3" font-family="Helvetica,sans-Serif" font-size="11.00" fill="#000000">oppija_oid</text>
<polygon fill="#ffffff" stroke="transparent" points="197.9768,-842.2 197.9768,-864.2 485.9768,-864.2 485.9768,-842.2 197.9768,-842.2"/>
<polygon fill="none" stroke="#000000" points="197.9768,-842.2 197.9768,-864.2 485.9768,-864.2 485.9768,-842.2 197.9768,-842.2"/>
<text text-anchor="start" x="217.9768" y="-849.3" font-family="Helvetica,sans-Serif" font-size="11.00" fill="#000000">aikaleima</text>
<polygon fill="none" stroke="#000000" points="197.9768,-820.2 197.9768,-842.2 485.9768,-842.2 485.9768,-820.2 197.9768,-820.2"/>
<text text-anchor="start" x="217.9768" y="-827.3" font-family="Helvetica,sans-Serif" font-size="11.00" fill="#000000">versionumero</text>
<polygon fill="#ffffff" stroke="transparent" points="197.9768,-798.2 197.9768,-820.2 485.9768,-820.2 485.9768,-798.2 197.9768,-798.2"/>
<polygon fill="none" stroke="#000000" points="197.9768,-798.2 197.9768,-820.2 485.9768,-820.2 485.9768,-798.2 197.9768,-798.2"/>
<text text-anchor="start" x="217.9768" y="-805.3" font-family="Helvetica,sans-Serif" font-size="11.00" fill="#000000">oppilaitos_oid</text>
<polygon fill="none" stroke="#000000" points="197.9768,-776.2 197.9768,-798.2 485.9768,-798.2 485.9768,-776.2 197.9768,-776.2"/>
<text text-anchor="start" x="217.9768" y="-783.3" font-family="Helvetica,sans-Serif" font-size="11.00" fill="#000000">koulutustoimija_oid</text>
<polygon fill="none" stroke="#000000" points="197.9768,-754.2 197.9768,-776.2 485.9768,-776.2 485.9768,-754.2 197.9768,-754.2"/>
<text text-anchor="start" x="217.9768" y="-761.3" font-family="Helvetica,sans-Serif" font-size="11.00" fill="#000000">luokka</text>
<polygon fill="#ffffff" stroke="transparent" points="197.9768,-732.2 197.9768,-754.2 485.9768,-754.2 485.9768,-732.2 197.9768,-732.2"/>
<polygon fill="none" stroke="#000000" points="197.9768,-732.2 197.9768,-754.2 485.9768,-754.2 485.9768,-732.2 197.9768,-732.2"/>
<text text-anchor="start" x="217.9768" y="-739.3" font-family="Helvetica,sans-Serif" font-size="11.00" fill="#000000">sisaltava_opiskeluoikeus_oppilaitos_oid</text>
<polygon fill="#ffffff" stroke="transparent" points="197.9768,-710.2 197.9768,-732.2 485.9768,-732.2 485.9768,-710.2 197.9768,-710.2"/>
<polygon fill="none" stroke="#000000" points="197.9768,-710.2 197.9768,-732.2 485.9768,-732.2 485.9768,-710.2 197.9768,-710.2"/>
<text text-anchor="start" x="217.9768" y="-717.3" font-family="Helvetica,sans-Serif" font-size="11.00" fill="#000000">oid</text>
<polygon fill="none" stroke="#000000" points="197.9768,-688.2 197.9768,-710.2 485.9768,-710.2 485.9768,-688.2 197.9768,-688.2"/>
<image xlink:href="../../images/foreignKeys.png" width="11px" height="12px" preserveAspectRatio="xMinYMin meet" x="202.977" y="-705.2"/>
<text text-anchor="start" x="217.9768" y="-695.3" font-family="Helvetica,sans-Serif" font-size="11.00" fill="#000000">sisaltava_opiskeluoikeus_oid</text>
<polygon fill="#ffffff" stroke="transparent" points="197.9768,-666.2 197.9768,-688.2 485.9768,-688.2 485.9768,-666.2 197.9768,-666.2"/>
<polygon fill="none" stroke="#000000" points="197.9768,-666.2 197.9768,-688.2 485.9768,-688.2 485.9768,-666.2 197.9768,-666.2"/>
<text text-anchor="start" x="217.9768" y="-673.3" font-family="Helvetica,sans-Serif" font-size="11.00" fill="#000000">mitatoity</text>
<polygon fill="#ffffff" stroke="transparent" points="197.9768,-644.2 197.9768,-666.2 485.9768,-666.2 485.9768,-644.2 197.9768,-644.2"/>
<polygon fill="none" stroke="#000000" points="197.9768,-644.2 197.9768,-666.2 485.9768,-666.2 485.9768,-644.2 197.9768,-644.2"/>
<text text-anchor="start" x="217.9768" y="-651.3" font-family="Helvetica,sans-Serif" font-size="11.00" fill="#000000">koulutusmuoto</text>
<polygon fill="#ffffff" stroke="transparent" points="197.9768,-622.2 197.9768,-644.2 485.9768,-644.2 485.9768,-622.2 197.9768,-622.2"/>
<polygon fill="none" stroke="#000000" points="197.9768,-622.2 197.9768,-644.2 485.9768,-644.2 485.9768,-622.2 197.9768,-622.2"/>
<text text-anchor="start" x="217.9768" y="-629.3" font-family="Helvetica,sans-Serif" font-size="11.00" fill="#000000">alkamispaiva</text>
<polygon fill="#ffffff" stroke="transparent" points="197.9768,-600.2 197.9768,-622.2 485.9768,-622.2 485.9768,-600.2 197.9768,-600.2"/>
<polygon fill="none" stroke="#000000" points="197.9768,-600.2 197.9768,-622.2 485.9768,-622.2 485.9768,-600.2 197.9768,-600.2"/>
<text text-anchor="start" x="217.9768" y="-607.3" font-family="Helvetica,sans-Serif" font-size="11.00" fill="#000000">paattymispaiva</text>
<polygon fill="none" stroke="#000000" points="197.9768,-578.2 197.9768,-600.2 485.9768,-600.2 485.9768,-578.2 197.9768,-578.2"/>
<text text-anchor="start" x="217.9768" y="-585.3" font-family="Helvetica,sans-Serif" font-size="11.00" fill="#000000">suoritusjako_tehty_rajapaivan_jalkeen</text>
<polygon fill="#ffffff" stroke="transparent" points="197.9768,-556.2 197.9768,-578.2 485.9768,-578.2 485.9768,-556.2 197.9768,-556.2"/>
<polygon fill="none" stroke="#000000" points="197.9768,-556.2 197.9768,-578.2 485.9768,-578.2 485.9768,-556.2 197.9768,-556.2"/>
<text text-anchor="start" x="217.9768" y="-563.3" font-family="Helvetica,sans-Serif" font-size="11.00" fill="#000000">suoritustyypit</text>
<polygon fill="#ffffff" stroke="transparent" points="197.9768,-534.2 197.9768,-556.2 485.9768,-556.2 485.9768,-534.2 197.9768,-534.2"/>
<polygon fill="none" stroke="#000000" points="197.9768,-534.2 197.9768,-556.2 485.9768,-556.2 485.9768,-534.2 197.9768,-534.2"/>
<text text-anchor="start" x="217.9768" y="-541.3" font-family="Helvetica,sans-Serif" font-size="11.00" fill="#000000">poistettu</text>
<polygon fill="#ffffff" stroke="transparent" points="197.9768,-515.2 197.9768,-534.2 316.9768,-534.2 316.9768,-515.2 197.9768,-515.2"/>
<polygon fill="none" stroke="#000000" points="197.9768,-515.2 197.9768,-534.2 316.9768,-534.2 316.9768,-515.2 197.9768,-515.2"/>
<text text-anchor="start" x="200.9768" y="-521.3" font-family="Helvetica,sans-Serif" font-size="11.00" fill="#000000">&lt; 2</text>
<polygon fill="#ffffff" stroke="transparent" points="316.9768,-515.2 316.9768,-534.2 415.9768,-534.2 415.9768,-515.2 316.9768,-515.2"/>
<polygon fill="none" stroke="#000000" points="316.9768,-515.2 316.9768,-534.2 415.9768,-534.2 415.9768,-515.2 316.9768,-515.2"/>
<text text-anchor="start" x="368.3575" y="-521.3" font-family="Helvetica,sans-Serif" font-size="11.00" fill="#000000">188 rows</text>
<polygon fill="#ffffff" stroke="transparent" points="415.9768,-515.2 415.9768,-534.2 485.9768,-534.2 485.9768,-515.2 415.9768,-515.2"/>
<polygon fill="none" stroke="#000000" points="415.9768,-515.2 415.9768,-534.2 485.9768,-534.2 485.9768,-515.2 415.9768,-515.2"/>
<text text-anchor="start" x="467.3821" y="-521.3" font-family="Helvetica,sans-Serif" font-size="11.00" fill="#000000">4 &gt;</text>
</a>
</g>
</g>
<!-- perustiedot_sync&#45;&gt;opiskeluoikeus -->
<g id="edge6" class="edge">
<title>perustiedot_sync:w&#45;&gt;opiskeluoikeus:e</title>
<path fill="none" stroke="#000000" d="M552.0001,-1065.8596C500.8036,-1046.9036 555.6595,-919.2 485.9768,-919.2"/>
<polygon fill="#000000" stroke="#000000" points="558.5794,-1066.9232 565.9022,-1071.7539 562.5281,-1067.5616 566.4768,-1068.2 566.4768,-1068.2 566.4768,-1068.2 562.5281,-1067.5616 567.0514,-1064.6461 558.5794,-1066.9232 558.5794,-1066.9232"/>
<ellipse fill="none" stroke="#000000" cx="555.4204" cy="-1066.4125" rx="3.2" ry="3.2"/>
</g>
<!-- opiskeluoikeushistoria -->
<g id="node2" class="node">
<title>opiskeluoikeushistoria</title>
<g id="a_node2"><a xlink:href="../../tables/opiskeluoikeushistoria.html" xlink:title="opiskeluoikeushistoria" target="_top">
<polygon fill="#ffffff" stroke="transparent" points="547.9768,-799.2 547.9768,-951.2 738.9768,-951.2 738.9768,-799.2 547.9768,-799.2"/>
<polygon fill="#f5f5f5" stroke="transparent" points="548.4768,-928.2 548.4768,-951.2 739.4768,-951.2 739.4768,-928.2 548.4768,-928.2"/>
<polygon fill="none" stroke="#000000" points="548.4768,-928.2 548.4768,-951.2 739.4768,-951.2 739.4768,-928.2 548.4768,-928.2"/>
<text text-anchor="start" x="553.4768" y="-936.8" font-family="Helvetica,sans-Serif" font-weight="bold" font-size="11.00" fill="#000000">opiskeluoikeushistoria</text>
<text text-anchor="start" x="704.9987" y="-936.3" font-family="Helvetica,sans-Serif" font-size="11.00" fill="#000000">[table]</text>
<polygon fill="none" stroke="#000000" points="548.4768,-906.2 548.4768,-928.2 739.4768,-928.2 739.4768,-906.2 548.4768,-906.2"/>
<image xlink:href="../../images/primaryKeys.png" width="11px" height="12px" preserveAspectRatio="xMinYMin meet" x="553.477" y="-923.2"/>
<text text-anchor="start" x="577.4768" y="-913.3" font-family="Helvetica,sans-Serif" font-size="11.00" fill="#000000">opiskeluoikeus_id</text>
<polygon fill="none" stroke="#000000" points="548.4768,-884.2 548.4768,-906.2 739.4768,-906.2 739.4768,-884.2 548.4768,-884.2"/>
<text text-anchor="start" x="577.4768" y="-891.3" font-family="Helvetica,sans-Serif" font-size="11.00" fill="#000000">aikaleima</text>
<polygon fill="none" stroke="#000000" points="548.4768,-862.2 548.4768,-884.2 739.4768,-884.2 739.4768,-862.2 548.4768,-862.2"/>
<text text-anchor="start" x="577.4768" y="-869.3" font-family="Helvetica,sans-Serif" font-size="11.00" fill="#000000">kayttaja_oid</text>
<polygon fill="none" stroke="#000000" points="548.4768,-840.2 548.4768,-862.2 739.4768,-862.2 739.4768,-840.2 548.4768,-840.2"/>
<text text-anchor="start" x="577.4768" y="-847.3" font-family="Helvetica,sans-Serif" font-size="11.00" fill="#000000">muutos</text>
<polygon fill="none" stroke="#000000" points="548.4768,-818.2 548.4768,-840.2 739.4768,-840.2 739.4768,-818.2 548.4768,-818.2"/>
<image xlink:href="../../images/primaryKeys.png" width="11px" height="12px" preserveAspectRatio="xMinYMin meet" x="553.477" y="-835.2"/>
<text text-anchor="start" x="577.4768" y="-825.3" font-family="Helvetica,sans-Serif" font-size="11.00" fill="#000000">versionumero</text>
<polygon fill="#ffffff" stroke="transparent" points="548.4768,-799.2 548.4768,-818.2 623.4768,-818.2 623.4768,-799.2 548.4768,-799.2"/>
<polygon fill="none" stroke="#000000" points="548.4768,-799.2 548.4768,-818.2 623.4768,-818.2 623.4768,-799.2 548.4768,-799.2"/>
<text text-anchor="start" x="551.4768" y="-805.3" font-family="Helvetica,sans-Serif" font-size="11.00" fill="#000000">&lt; 1</text>
<polygon fill="#ffffff" stroke="transparent" points="623.4768,-799.2 623.4768,-818.2 700.4768,-818.2 700.4768,-799.2 623.4768,-799.2"/>
<polygon fill="none" stroke="#000000" points="623.4768,-799.2 623.4768,-818.2 700.4768,-818.2 700.4768,-799.2 623.4768,-799.2"/>
<text text-anchor="start" x="652.8575" y="-805.3" font-family="Helvetica,sans-Serif" font-size="11.00" fill="#000000">190 rows</text>
<polygon fill="#ffffff" stroke="transparent" points="700.4768,-799.2 700.4768,-818.2 739.4768,-818.2 739.4768,-799.2 700.4768,-799.2"/>
<polygon fill="none" stroke="#000000" points="700.4768,-799.2 700.4768,-818.2 739.4768,-818.2 739.4768,-799.2 700.4768,-799.2"/>
<text text-anchor="start" x="730.363" y="-805.3" font-family="Helvetica,sans-Serif" font-size="11.00" fill="#000000"> &#160;</text>
</a>
</g>
</g>
<!-- opiskeluoikeushistoria&#45;&gt;opiskeluoikeus -->
<g id="edge4" class="edge">
<title>opiskeluoikeushistoria:w&#45;&gt;opiskeluoikeus:e</title>
<path fill="none" stroke="#000000" d="M533.7752,-917.414C517.0139,-917.93 508.1236,-919.2 485.9768,-919.2"/>
<polygon fill="#000000" stroke="#000000" points="540.4777,-917.3165 548.5292,-920.7996 544.4772,-917.2583 548.4768,-917.2 548.4768,-917.2 548.4768,-917.2 544.4772,-917.2583 548.4244,-913.6004 540.4777,-917.3165 540.4777,-917.3165"/>
<ellipse fill="none" stroke="#000000" cx="537.278" cy="-917.3631" rx="3.2" ry="3.2"/>
</g>
<!-- perustiedot_manual_sync -->
<g id="node3" class="node">
<title>perustiedot_manual_sync</title>
<g id="a_node3"><a xlink:href="../../tables/perustiedot_manual_sync.html" xlink:title="perustiedot_manual_sync" target="_top">
<polygon fill="#ffffff" stroke="transparent" points="538.4768,-647.2 538.4768,-777.2 748.4768,-777.2 748.4768,-647.2 538.4768,-647.2"/>
<polygon fill="#f5f5f5" stroke="transparent" points="538.4768,-754.2 538.4768,-777.2 748.4768,-777.2 748.4768,-754.2 538.4768,-754.2"/>
<polygon fill="none" stroke="#000000" points="538.4768,-754.2 538.4768,-777.2 748.4768,-777.2 748.4768,-754.2 538.4768,-754.2"/>
<text text-anchor="start" x="543.4768" y="-762.8" font-family="Helvetica,sans-Serif" font-weight="bold" font-size="11.00" fill="#000000">perustiedot_manual_sync</text>
<text text-anchor="start" x="713.9987" y="-762.3" font-family="Helvetica,sans-Serif" font-size="11.00" fill="#000000">[table]</text>
<polygon fill="none" stroke="#000000" points="538.4768,-732.2 538.4768,-754.2 748.4768,-754.2 748.4768,-732.2 538.4768,-732.2"/>
<image xlink:href="../../images/primaryKeys.png" width="11px" height="12px" preserveAspectRatio="xMinYMin meet" x="543.477" y="-749.2"/>
<text text-anchor="start" x="567.4768" y="-739.3" font-family="Helvetica,sans-Serif" font-size="11.00" fill="#000000">id</text>
<polygon fill="none" stroke="#000000" points="538.4768,-710.2 538.4768,-732.2 748.4768,-732.2 748.4768,-710.2 538.4768,-710.2"/>
<image xlink:href="../../images/foreignKeys.png" width="11px" height="12px" preserveAspectRatio="xMinYMin meet" x="543.477" y="-727.2"/>
<text text-anchor="start" x="567.4768" y="-717.3" font-family="Helvetica,sans-Serif" font-size="11.00" fill="#000000">opiskeluoikeus_oid</text>
<polygon fill="none" stroke="#000000" points="538.4768,-688.2 538.4768,-710.2 748.4768,-710.2 748.4768,-688.2 538.4768,-688.2"/>
<text text-anchor="start" x="567.4768" y="-695.3" font-family="Helvetica,sans-Serif" font-size="11.00" fill="#000000">upsert</text>
<polygon fill="none" stroke="#000000" points="538.4768,-666.2 538.4768,-688.2 748.4768,-688.2 748.4768,-666.2 538.4768,-666.2"/>
<text text-anchor="start" x="567.4768" y="-673.3" font-family="Helvetica,sans-Serif" font-size="11.00" fill="#000000">aikaleima</text>
<polygon fill="#ffffff" stroke="transparent" points="538.4768,-647.2 538.4768,-666.2 641.4768,-666.2 641.4768,-647.2 538.4768,-647.2"/>
<polygon fill="none" stroke="#000000" points="538.4768,-647.2 538.4768,-666.2 641.4768,-666.2 641.4768,-647.2 538.4768,-647.2"/>
<text text-anchor="start" x="541.4768" y="-653.3" font-family="Helvetica,sans-Serif" font-size="11.00" fill="#000000">&lt; 1</text>
<polygon fill="#ffffff" stroke="transparent" points="641.4768,-647.2 641.4768,-666.2 694.4768,-666.2 694.4768,-647.2 641.4768,-647.2"/>
<polygon fill="none" stroke="#000000" points="641.4768,-647.2 641.4768,-666.2 694.4768,-666.2 694.4768,-647.2 641.4768,-647.2"/>
<text text-anchor="start" x="685.363" y="-653.3" font-family="Helvetica,sans-Serif" font-size="11.00" fill="#000000"> &#160;</text>
<polygon fill="#ffffff" stroke="transparent" points="694.4768,-647.2 694.4768,-666.2 748.4768,-666.2 748.4768,-647.2 694.4768,-647.2"/>
<polygon fill="none" stroke="#000000" points="694.4768,-647.2 694.4768,-666.2 748.4768,-666.2 748.4768,-647.2 694.4768,-647.2"/>
<text text-anchor="start" x="739.363" y="-653.3" font-family="Helvetica,sans-Serif" font-size="11.00" fill="#000000"> &#160;</text>
</a>
</g>
</g>
<!-- perustiedot_manual_sync&#45;&gt;opiskeluoikeus -->
<g id="edge5" class="edge">
<title>perustiedot_manual_sync:w&#45;&gt;opiskeluoikeus:e</title>
<path fill="none" stroke="#000000" d="M523.7112,-721.2C511.1331,-721.2 503.4768,-721.2 485.9768,-721.2"/>
<polygon fill="#000000" stroke="#000000" points="530.4768,-721.2001 538.4768,-724.8 534.4768,-721.2 538.4768,-721.2 538.4768,-721.2 538.4768,-721.2 534.4768,-721.2 538.4768,-717.6 530.4768,-721.2001 530.4768,-721.2001"/>
<ellipse fill="none" stroke="#000000" cx="527.2768" cy="-721.2001" rx="3.2" ry="3.2"/>
</g>
<!-- ytr_opiskeluoikeushistoria -->
<g id="node4" class="node">
<title>ytr_opiskeluoikeushistoria</title>
<g id="a_node4"><a xlink:href="../../tables/ytr_opiskeluoikeushistoria.html" xlink:title="ytr_opiskeluoikeushistoria" target="_top">
<polygon fill="#ffffff" stroke="transparent" points="534.9768,-324.2 534.9768,-476.2 751.9768,-476.2 751.9768,-324.2 534.9768,-324.2"/>
<polygon fill="#f5f5f5" stroke="transparent" points="535.4768,-453.2 535.4768,-476.2 752.4768,-476.2 752.4768,-453.2 535.4768,-453.2"/>
<polygon fill="none" stroke="#000000" points="535.4768,-453.2 535.4768,-476.2 752.4768,-476.2 752.4768,-453.2 535.4768,-453.2"/>
<text text-anchor="start" x="540.4768" y="-461.8" font-family="Helvetica,sans-Serif" font-weight="bold" font-size="11.00" fill="#000000">ytr_opiskeluoikeushistoria</text>
<text text-anchor="start" x="717.9987" y="-461.3" font-family="Helvetica,sans-Serif" font-size="11.00" fill="#000000">[table]</text>
<polygon fill="none" stroke="#000000" points="535.4768,-431.2 535.4768,-453.2 752.4768,-453.2 752.4768,-431.2 535.4768,-431.2"/>
<image xlink:href="../../images/primaryKeys.png" width="11px" height="12px" preserveAspectRatio="xMinYMin meet" x="540.477" y="-448.2"/>
<text text-anchor="start" x="564.4768" y="-438.3" font-family="Helvetica,sans-Serif" font-size="11.00" fill="#000000">opiskeluoikeus_id</text>
<polygon fill="none" stroke="#000000" points="535.4768,-409.2 535.4768,-431.2 752.4768,-431.2 752.4768,-409.2 535.4768,-409.2"/>
<text text-anchor="start" x="564.4768" y="-416.3" font-family="Helvetica,sans-Serif" font-size="11.00" fill="#000000">aikaleima</text>
<polygon fill="none" stroke="#000000" points="535.4768,-387.2 535.4768,-409.2 752.4768,-409.2 752.4768,-387.2 535.4768,-387.2"/>
<text text-anchor="start" x="564.4768" y="-394.3" font-family="Helvetica,sans-Serif" font-size="11.00" fill="#000000">kayttaja_oid</text>
<polygon fill="none" stroke="#000000" points="535.4768,-365.2 535.4768,-387.2 752.4768,-387.2 752.4768,-365.2 535.4768,-365.2"/>
<text text-anchor="start" x="564.4768" y="-372.3" font-family="Helvetica,sans-Serif" font-size="11.00" fill="#000000">muutos</text>
<polygon fill="none" stroke="#000000" points="535.4768,-343.2 535.4768,-365.2 752.4768,-365.2 752.4768,-343.2 535.4768,-343.2"/>
<image xlink:href="../../images/primaryKeys.png" width="11px" height="12px" preserveAspectRatio="xMinYMin meet" x="540.477" y="-360.2"/>
<text text-anchor="start" x="564.4768" y="-350.3" font-family="Helvetica,sans-Serif" font-size="11.00" fill="#000000">versionumero</text>
<polygon fill="#ffffff" stroke="transparent" points="535.4768,-324.2 535.4768,-343.2 629.4768,-343.2 629.4768,-324.2 535.4768,-324.2"/>
<polygon fill="none" stroke="#000000" points="535.4768,-324.2 535.4768,-343.2 629.4768,-343.2 629.4768,-324.2 535.4768,-324.2"/>
<text text-anchor="start" x="538.4768" y="-330.3" font-family="Helvetica,sans-Serif" font-size="11.00" fill="#000000">&lt; 1</text>
<polygon fill="#ffffff" stroke="transparent" points="629.4768,-324.2 629.4768,-343.2 703.4768,-343.2 703.4768,-324.2 629.4768,-324.2"/>
<polygon fill="none" stroke="#000000" points="629.4768,-324.2 629.4768,-343.2 703.4768,-343.2 703.4768,-324.2 629.4768,-324.2"/>
<text text-anchor="start" x="668.0873" y="-330.3" font-family="Helvetica,sans-Serif" font-size="11.00" fill="#000000">0 rows</text>
<polygon fill="#ffffff" stroke="transparent" points="703.4768,-324.2 703.4768,-343.2 752.4768,-343.2 752.4768,-324.2 703.4768,-324.2"/>
<polygon fill="none" stroke="#000000" points="703.4768,-324.2 703.4768,-343.2 752.4768,-343.2 752.4768,-324.2 703.4768,-324.2"/>
<text text-anchor="start" x="743.363" y="-330.3" font-family="Helvetica,sans-Serif" font-size="11.00" fill="#000000"> &#160;</text>
</a>
</g>
</g>
<!-- ytr_opiskeluoikeus -->
<g id="node6" class="node">
<title>ytr_opiskeluoikeus</title>
<g id="a_node6"><a xlink:href="../../tables/ytr_opiskeluoikeus.html" xlink:title="ytr_opiskeluoikeus" target="_top">
<polygon fill="#ffffff" stroke="transparent" points="197.9768,-38.2 197.9768,-476.2 485.9768,-476.2 485.9768,-38.2 197.9768,-38.2"/>
<polygon fill="#f5f5f5" stroke="transparent" points="197.9768,-453.2 197.9768,-476.2 485.9768,-476.2 485.9768,-453.2 197.9768,-453.2"/>
<polygon fill="none" stroke="#000000" points="197.9768,-453.2 197.9768,-476.2 485.9768,-476.2 485.9768,-453.2 197.9768,-453.2"/>
<text text-anchor="start" x="202.9768" y="-461.8" font-family="Helvetica,sans-Serif" font-weight="bold" font-size="11.00" fill="#000000">ytr_opiskeluoikeus</text>
<text text-anchor="start" x="451.0205" y="-461.3" font-family="Helvetica,sans-Serif" font-size="11.00" fill="#000000">[table]</text>
<polygon fill="none" stroke="#000000" points="197.9768,-431.2 197.9768,-453.2 485.9768,-453.2 485.9768,-431.2 197.9768,-431.2"/>
<image xlink:href="../../images/primaryKeys.png" width="11px" height="12px" preserveAspectRatio="xMinYMin meet" x="202.977" y="-448.2"/>
<text text-anchor="start" x="217.9768" y="-438.3" font-family="Helvetica,sans-Serif" font-size="11.00" fill="#000000">id</text>
<polygon fill="none" stroke="#000000" points="197.9768,-409.2 197.9768,-431.2 485.9768,-431.2 485.9768,-409.2 197.9768,-409.2"/>
<text text-anchor="start" x="217.9768" y="-416.3" font-family="Helvetica,sans-Serif" font-size="11.00" fill="#000000">data</text>
<polygon fill="#ffffff" stroke="transparent" points="197.9768,-387.2 197.9768,-409.2 485.9768,-409.2 485.9768,-387.2 197.9768,-387.2"/>
<polygon fill="none" stroke="#000000" points="197.9768,-387.2 197.9768,-409.2 485.9768,-409.2 485.9768,-387.2 197.9768,-387.2"/>
<image xlink:href="../../images/foreignKeys.png" width="11px" height="12px" preserveAspectRatio="xMinYMin meet" x="202.977" y="-404.2"/>
<text text-anchor="start" x="217.9768" y="-394.3" font-family="Helvetica,sans-Serif" font-size="11.00" fill="#000000">oppija_oid</text>
<polygon fill="#ffffff" stroke="transparent" points="197.9768,-365.2 197.9768,-387.2 485.9768,-387.2 485.9768,-365.2 197.9768,-365.2"/>
<polygon fill="none" stroke="#000000" points="197.9768,-365.2 197.9768,-387.2 485.9768,-387.2 485.9768,-365.2 197.9768,-365.2"/>
<text text-anchor="start" x="217.9768" y="-372.3" font-family="Helvetica,sans-Serif" font-size="11.00" fill="#000000">aikaleima</text>
<polygon fill="none" stroke="#000000" points="197.9768,-343.2 197.9768,-365.2 485.9768,-365.2 485.9768,-343.2 197.9768,-343.2"/>
<text text-anchor="start" x="217.9768" y="-350.3" font-family="Helvetica,sans-Serif" font-size="11.00" fill="#000000">versionumero</text>
<polygon fill="#ffffff" stroke="transparent" points="197.9768,-321.2 197.9768,-343.2 485.9768,-343.2 485.9768,-321.2 197.9768,-321.2"/>
<polygon fill="none" stroke="#000000" points="197.9768,-321.2 197.9768,-343.2 485.9768,-343.2 485.9768,-321.2 197.9768,-321.2"/>
<text text-anchor="start" x="217.9768" y="-328.3" font-family="Helvetica,sans-Serif" font-size="11.00" fill="#000000">oppilaitos_oid</text>
<polygon fill="none" stroke="#000000" points="197.9768,-299.2 197.9768,-321.2 485.9768,-321.2 485.9768,-299.2 197.9768,-299.2"/>
<text text-anchor="start" x="217.9768" y="-306.3" font-family="Helvetica,sans-Serif" font-size="11.00" fill="#000000">koulutustoimija_oid</text>
<polygon fill="none" stroke="#000000" points="197.9768,-277.2 197.9768,-299.2 485.9768,-299.2 485.9768,-277.2 197.9768,-277.2"/>
<text text-anchor="start" x="217.9768" y="-284.3" font-family="Helvetica,sans-Serif" font-size="11.00" fill="#000000">luokka</text>
<polygon fill="#ffffff" stroke="transparent" points="197.9768,-255.2 197.9768,-277.2 485.9768,-277.2 485.9768,-255.2 197.9768,-255.2"/>
<polygon fill="none" stroke="#000000" points="197.9768,-255.2 197.9768,-277.2 485.9768,-277.2 485.9768,-255.2 197.9768,-255.2"/>
<text text-anchor="start" x="217.9768" y="-262.3" font-family="Helvetica,sans-Serif" font-size="11.00" fill="#000000">sisaltava_opiskeluoikeus_oppilaitos_oid</text>
<polygon fill="#ffffff" stroke="transparent" points="197.9768,-233.2 197.9768,-255.2 485.9768,-255.2 485.9768,-233.2 197.9768,-233.2"/>
<polygon fill="none" stroke="#000000" points="197.9768,-233.2 197.9768,-255.2 485.9768,-255.2 485.9768,-233.2 197.9768,-233.2"/>
<text text-anchor="start" x="217.9768" y="-240.3" font-family="Helvetica,sans-Serif" font-size="11.00" fill="#000000">oid</text>
<polygon fill="none" stroke="#000000" points="197.9768,-211.2 197.9768,-233.2 485.9768,-233.2 485.9768,-211.2 197.9768,-211.2"/>
<image xlink:href="../../images/foreignKeys.png" width="11px" height="12px" preserveAspectRatio="xMinYMin meet" x="202.977" y="-228.2"/>
<text text-anchor="start" x="217.9768" y="-218.3" font-family="Helvetica,sans-Serif" font-size="11.00" fill="#000000">sisaltava_opiskeluoikeus_oid</text>
<polygon fill="#ffffff" stroke="transparent" points="197.9768,-189.2 197.9768,-211.2 485.9768,-211.2 485.9768,-189.2 197.9768,-189.2"/>
<polygon fill="none" stroke="#000000" points="197.9768,-189.2 197.9768,-211.2 485.9768,-211.2 485.9768,-189.2 197.9768,-189.2"/>
<text text-anchor="start" x="217.9768" y="-196.3" font-family="Helvetica,sans-Serif" font-size="11.00" fill="#000000">mitatoity</text>
<polygon fill="#ffffff" stroke="transparent" points="197.9768,-167.2 197.9768,-189.2 485.9768,-189.2 485.9768,-167.2 197.9768,-167.2"/>
<polygon fill="none" stroke="#000000" points="197.9768,-167.2 197.9768,-189.2 485.9768,-189.2 485.9768,-167.2 197.9768,-167.2"/>
<text text-anchor="start" x="217.9768" y="-174.3" font-family="Helvetica,sans-Serif" font-size="11.00" fill="#000000">koulutusmuoto</text>
<polygon fill="#ffffff" stroke="transparent" points="197.9768,-145.2 197.9768,-167.2 485.9768,-167.2 485.9768,-145.2 197.9768,-145.2"/>
<polygon fill="none" stroke="#000000" points="197.9768,-145.2 197.9768,-167.2 485.9768,-167.2 485.9768,-145.2 197.9768,-145.2"/>
<text text-anchor="start" x="217.9768" y="-152.3" font-family="Helvetica,sans-Serif" font-size="11.00" fill="#000000">alkamispaiva</text>
<polygon fill="#ffffff" stroke="transparent" points="197.9768,-123.2 197.9768,-145.2 485.9768,-145.2 485.9768,-123.2 197.9768,-123.2"/>
<polygon fill="none" stroke="#000000" points="197.9768,-123.2 197.9768,-145.2 485.9768,-145.2 485.9768,-123.2 197.9768,-123.2"/>
<text text-anchor="start" x="217.9768" y="-130.3" font-family="Helvetica,sans-Serif" font-size="11.00" fill="#000000">paattymispaiva</text>
<polygon fill="none" stroke="#000000" points="197.9768,-101.2 197.9768,-123.2 485.9768,-123.2 485.9768,-101.2 197.9768,-101.2"/>
<text text-anchor="start" x="217.9768" y="-108.3" font-family="Helvetica,sans-Serif" font-size="11.00" fill="#000000">suoritusjako_tehty_rajapaivan_jalkeen</text>
<polygon fill="#ffffff" stroke="transparent" points="197.9768,-79.2 197.9768,-101.2 485.9768,-101.2 485.9768,-79.2 197.9768,-79.2"/>
<polygon fill="none" stroke="#000000" points="197.9768,-79.2 197.9768,-101.2 485.9768,-101.2 485.9768,-79.2 197.9768,-79.2"/>
<text text-anchor="start" x="217.9768" y="-86.3" font-family="Helvetica,sans-Serif" font-size="11.00" fill="#000000">suoritustyypit</text>
<polygon fill="#ffffff" stroke="transparent" points="197.9768,-57.2 197.9768,-79.2 485.9768,-79.2 485.9768,-57.2 197.9768,-57.2"/>
<polygon fill="none" stroke="#000000" points="197.9768,-57.2 197.9768,-79.2 485.9768,-79.2 485.9768,-57.2 197.9768,-57.2"/>
<text text-anchor="start" x="217.9768" y="-64.3" font-family="Helvetica,sans-Serif" font-size="11.00" fill="#000000">poistettu</text>
<polygon fill="#ffffff" stroke="transparent" points="197.9768,-38.2 197.9768,-57.2 322.9768,-57.2 322.9768,-38.2 197.9768,-38.2"/>
<polygon fill="none" stroke="#000000" points="197.9768,-38.2 197.9768,-57.2 322.9768,-57.2 322.9768,-38.2 197.9768,-38.2"/>
<text text-anchor="start" x="200.9768" y="-44.3" font-family="Helvetica,sans-Serif" font-size="11.00" fill="#000000">&lt; 2</text>
<polygon fill="#ffffff" stroke="transparent" points="322.9768,-38.2 322.9768,-57.2 412.9768,-57.2 412.9768,-38.2 322.9768,-38.2"/>
<polygon fill="none" stroke="#000000" points="322.9768,-38.2 322.9768,-57.2 412.9768,-57.2 412.9768,-38.2 322.9768,-38.2"/>
<text text-anchor="start" x="377.5873" y="-44.3" font-family="Helvetica,sans-Serif" font-size="11.00" fill="#000000">0 rows</text>
<polygon fill="#ffffff" stroke="transparent" points="412.9768,-38.2 412.9768,-57.2 485.9768,-57.2 485.9768,-38.2 412.9768,-38.2"/>
<polygon fill="none" stroke="#000000" points="412.9768,-38.2 412.9768,-57.2 485.9768,-57.2 485.9768,-38.2 412.9768,-38.2"/>
<text text-anchor="start" x="467.3821" y="-44.3" font-family="Helvetica,sans-Serif" font-size="11.00" fill="#000000">2 &gt;</text>
</a>
</g>
</g>
<!-- ytr_opiskeluoikeushistoria&#45;&gt;ytr_opiskeluoikeus -->
<g id="edge9" class="edge">
<title>ytr_opiskeluoikeushistoria:w&#45;&gt;ytr_opiskeluoikeus:e</title>
<path fill="none" stroke="#000000" d="M520.8196,-442.2C509.3908,-442.2 502.1331,-442.2 485.9768,-442.2"/>
<polygon fill="#000000" stroke="#000000" points="527.4768,-442.2001 535.4768,-445.8 531.4768,-442.2 535.4768,-442.2 535.4768,-442.2 535.4768,-442.2 531.4768,-442.2 535.4768,-438.6 527.4768,-442.2001 527.4768,-442.2001"/>
<ellipse fill="none" stroke="#000000" cx="524.2768" cy="-442.2001" rx="3.2" ry="3.2"/>
</g>
<!-- opiskeluoikeus&#45;&gt;opiskeluoikeus -->
<g id="edge3" class="edge">
<title>opiskeluoikeus:w&#45;&gt;opiskeluoikeus:e</title>
<path fill="none" stroke="#000000" d="M189.5864,-711.2403C136.9474,-795.8332 146.3103,-970.2 341.9768,-970.2 547.4768,-970.2 547.4768,-799.8667 485.9768,-721.2"/>
<polygon fill="#000000" stroke="#000000" points="193.4029,-705.7635 200.9304,-701.2582 195.6899,-702.4818 197.9768,-699.2 197.9768,-699.2 197.9768,-699.2 195.6899,-702.4818 195.0232,-697.1418 193.4029,-705.7635 193.4029,-705.7635"/>
<ellipse fill="none" stroke="#000000" cx="191.5734" cy="-708.3889" rx="3.2" ry="3.2"/>
</g>
<!-- henkilo -->
<g id="node7" class="node">
<title>henkilo</title>
<g id="a_node7"><a xlink:href="../../tables/henkilo.html" xlink:title="henkilo" target="_top">
<polygon fill="#ffffff" stroke="transparent" points="40.9768,-518.2 40.9768,-670.2 148.9768,-670.2 148.9768,-518.2 40.9768,-518.2"/>
<polygon fill="#f5f5f5" stroke="transparent" points="40.9768,-647.2 40.9768,-670.2 148.9768,-670.2 148.9768,-647.2 40.9768,-647.2"/>
<polygon fill="none" stroke="#000000" points="40.9768,-647.2 40.9768,-670.2 148.9768,-670.2 148.9768,-647.2 40.9768,-647.2"/>
<text text-anchor="start" x="45.9768" y="-655.8" font-family="Helvetica,sans-Serif" font-weight="bold" font-size="11.00" fill="#000000">henkilo</text>
<text text-anchor="start" x="114.0205" y="-655.3" font-family="Helvetica,sans-Serif" font-size="11.00" fill="#000000">[table]</text>
<polygon fill="none" stroke="#000000" points="40.9768,-625.2 40.9768,-647.2 148.9768,-647.2 148.9768,-625.2 40.9768,-625.2"/>
<image xlink:href="../../images/primaryKeys.png" width="11px" height="12px" preserveAspectRatio="xMinYMin meet" x="45.9768" y="-642.2"/>
<text text-anchor="start" x="60.9768" y="-632.3" font-family="Helvetica,sans-Serif" font-size="11.00" fill="#000000">oid</text>
<polygon fill="none" stroke="#000000" points="40.9768,-603.2 40.9768,-625.2 148.9768,-625.2 148.9768,-603.2 40.9768,-603.2"/>
<text text-anchor="start" x="60.9768" y="-610.3" font-family="Helvetica,sans-Serif" font-size="11.00" fill="#000000">sukunimi</text>
<polygon fill="none" stroke="#000000" points="40.9768,-581.2 40.9768,-603.2 148.9768,-603.2 148.9768,-581.2 40.9768,-581.2"/>
<text text-anchor="start" x="60.9768" y="-588.3" font-family="Helvetica,sans-Serif" font-size="11.00" fill="#000000">etunimet</text>
<polygon fill="none" stroke="#000000" points="40.9768,-559.2 40.9768,-581.2 148.9768,-581.2 148.9768,-559.2 40.9768,-559.2"/>
<text text-anchor="start" x="60.9768" y="-566.3" font-family="Helvetica,sans-Serif" font-size="11.00" fill="#000000">kutsumanimi</text>
<polygon fill="#ffffff" stroke="transparent" points="40.9768,-537.2 40.9768,-559.2 148.9768,-559.2 148.9768,-537.2 40.9768,-537.2"/>
<polygon fill="none" stroke="#000000" points="40.9768,-537.2 40.9768,-559.2 148.9768,-559.2 148.9768,-537.2 40.9768,-537.2"/>
<image xlink:href="../../images/foreignKeys.png" width="11px" height="12px" preserveAspectRatio="xMinYMin meet" x="45.9768" y="-554.2"/>
<text text-anchor="start" x="60.9768" y="-544.3" font-family="Helvetica,sans-Serif" font-size="11.00" fill="#000000">master_oid</text>
<polygon fill="#ffffff" stroke="transparent" points="40.9768,-518.2 40.9768,-537.2 69.9768,-537.2 69.9768,-518.2 40.9768,-518.2"/>
<polygon fill="none" stroke="#000000" points="40.9768,-518.2 40.9768,-537.2 69.9768,-537.2 69.9768,-518.2 40.9768,-518.2"/>
<text text-anchor="start" x="43.9768" y="-524.3" font-family="Helvetica,sans-Serif" font-size="11.00" fill="#000000">&lt; 1</text>
<polygon fill="#ffffff" stroke="transparent" points="69.9768,-518.2 69.9768,-537.2 123.9768,-537.2 123.9768,-518.2 69.9768,-518.2"/>
<polygon fill="none" stroke="#000000" points="69.9768,-518.2 69.9768,-537.2 123.9768,-537.2 123.9768,-518.2 69.9768,-518.2"/>
<text text-anchor="start" x="76.3575" y="-524.3" font-family="Helvetica,sans-Serif" font-size="11.00" fill="#000000">206 rows</text>
<polygon fill="#ffffff" stroke="transparent" points="123.9768,-518.2 123.9768,-537.2 148.9768,-537.2 148.9768,-518.2 123.9768,-518.2"/>
<polygon fill="none" stroke="#000000" points="123.9768,-518.2 123.9768,-537.2 148.9768,-537.2 148.9768,-518.2 123.9768,-518.2"/>
<text text-anchor="start" x="130.3821" y="-524.3" font-family="Helvetica,sans-Serif" font-size="11.00" fill="#000000">3 &gt;</text>
</a>
</g>
</g>
<!-- opiskeluoikeus&#45;&gt;henkilo -->
<g id="edge2" class="edge">
<title>opiskeluoikeus:w&#45;&gt;henkilo:e</title>
<path fill="none" stroke="#000000" d="M187.5411,-874.3346C101.0065,-858.6907 253.5965,-636.2 148.9768,-636.2"/>
<polygon fill="#000000" stroke="#000000" points="197.5102,-871.1476 196.8489,-879.1202 195.2544,-878.9879 195.9156,-871.0153 197.5102,-871.1476"/>
<polyline fill="none" stroke="#000000" points="197.9768,-875.2 193.9905,-874.8694 "/>
<ellipse fill="none" stroke="#000000" cx="190.8014" cy="-874.6049" rx="3.2" ry="3.2"/>
</g>
<!-- ytr_opiskeluoikeus&#45;&gt;ytr_opiskeluoikeus -->
<g id="edge8" class="edge">
<title>ytr_opiskeluoikeus:w&#45;&gt;ytr_opiskeluoikeus:e</title>
<path fill="none" stroke="#000000" d="M189.5864,-234.2403C136.9474,-318.8332 146.3103,-493.2 341.9768,-493.2 547.4768,-493.2 547.4768,-322.8667 485.9768,-244.2"/>
<polygon fill="#000000" stroke="#000000" points="193.4029,-228.7635 200.9304,-224.2582 195.6899,-225.4818 197.9768,-222.2 197.9768,-222.2 197.9768,-222.2 195.6899,-225.4818 195.0232,-220.1418 193.4029,-228.7635 193.4029,-228.7635"/>
<ellipse fill="none" stroke="#000000" cx="191.5734" cy="-231.3889" rx="3.2" ry="3.2"/>
</g>
<!-- ytr_opiskeluoikeus&#45;&gt;henkilo -->
<g id="edge7" class="edge">
<title>ytr_opiskeluoikeus:w&#45;&gt;henkilo:e</title>
<path fill="none" stroke="#000000" d="M187.5823,-399.0618C101.3823,-414.6402 253.1764,-636.2 148.9768,-636.2"/>
<polygon fill="#000000" stroke="#000000" points="196.849,-394.2798 197.5101,-402.2524 195.9156,-402.3846 195.2545,-394.412 196.849,-394.2798"/>
<polyline fill="none" stroke="#000000" points="197.9768,-398.2 193.9905,-398.5305 "/>
<ellipse fill="none" stroke="#000000" cx="190.8014" cy="-398.795" rx="3.2" ry="3.2"/>
</g>
<!-- henkilo&#45;&gt;henkilo -->
<g id="edge1" class="edge">
<title>henkilo:w&#45;&gt;henkilo:e</title>
<path fill="none" stroke="#000000" d="M28.6277,-556.0572C-19.92,-594.2454 -12.1765,-687.2 94.9768,-687.2 210.4768,-687.2 210.4768,-667.2 148.9768,-636.2"/>
<polygon fill="#000000" stroke="#000000" points="34.2272,-552.4945 42.9094,-551.2373 37.602,-550.3473 40.9768,-548.2 40.9768,-548.2 40.9768,-548.2 37.602,-550.3473 39.0443,-545.1627 34.2272,-552.4945 34.2272,-552.4945"/>
<ellipse fill="none" stroke="#000000" cx="31.5274" cy="-554.2123" rx="3.2" ry="3.2"/>
</g>
</g>
</svg>
