<?xml version="1.0" encoding="UTF-8" standalone="no"?>
<!DOCTYPE svg PUBLIC "-//W3C//DTD SVG 1.1//EN"
 "http://www.w3.org/Graphics/SVG/1.1/DTD/svg11.dtd">
<!-- Generated by graphviz version 2.40.1 (20161225.0304)
 -->
<!-- Title: compactRelationshipsDiagram Pages: 1 -->
<svg width="708pt" height="909pt"
 viewBox="0.00 0.00 707.52 909.20" xmlns="http://www.w3.org/2000/svg" xmlns:xlink="http://www.w3.org/1999/xlink">
<g id="graph0" class="graph" transform="scale(1 1) rotate(0) translate(4 905.2)">
<title>compactRelationshipsDiagram</title>
<polygon fill="#ffffff" stroke="transparent" points="-4,4 -4,-905.2 703.516,-905.2 703.516,4 -4,4"/>
<text text-anchor="middle" x="72.4936" y="-7.3" font-family="Helvetica,sans-Serif" font-size="11.00" fill="#000000">Generated by SchemaSpy</text>
<!-- perustiedot_sync -->
<g id="node1" class="node">
<title>perustiedot_sync</title>
<g id="a_node1"><a xlink:href="../../tables/perustiedot_sync.html" xlink:title="perustiedot_sync" target="_top">
<polygon fill="#ffffff" stroke="transparent" points="522.516,-792.2 522.516,-897.2 662.516,-897.2 662.516,-792.2 522.516,-792.2"/>
<polygon fill="#f5f5f5" stroke="transparent" points="522.516,-873.7 522.516,-896.7 662.516,-896.7 662.516,-873.7 522.516,-873.7"/>
<polygon fill="none" stroke="#000000" points="522.516,-873.7 522.516,-896.7 662.516,-896.7 662.516,-873.7 522.516,-873.7"/>
<text text-anchor="start" x="527.516" y="-882.3" font-family="Helvetica,sans-Serif" font-weight="bold" font-size="11.00" fill="#000000">perustiedot_sync</text>
<text text-anchor="start" x="628.0378" y="-881.8" font-family="Helvetica,sans-Serif" font-size="11.00" fill="#000000">[table]</text>
<polygon fill="none" stroke="#000000" points="522.516,-851.7 522.516,-873.7 662.516,-873.7 662.516,-851.7 522.516,-851.7"/>
<image xlink:href="../../images/primaryKeys.png" width="11px" height="12px" preserveAspectRatio="xMinYMin meet" x="527.516" y="-868.7"/>
<text text-anchor="start" x="549.516" y="-858.8" font-family="Helvetica,sans-Serif" font-size="11.00" fill="#000000">id</text>
<polygon fill="none" stroke="#000000" points="522.516,-829.7 522.516,-851.7 662.516,-851.7 662.516,-829.7 522.516,-829.7"/>
<image xlink:href="../../images/foreignKeys.png" width="11px" height="12px" preserveAspectRatio="xMinYMin meet" x="527.516" y="-846.7"/>
<text text-anchor="start" x="549.516" y="-836.8" font-family="Helvetica,sans-Serif" font-size="11.00" fill="#000000">opiskeluoikeus_id</text>
<polygon fill="none" stroke="#000000" points="522.516,-810.7 522.516,-829.7 662.516,-829.7 662.516,-810.7 522.516,-810.7"/>
<text text-anchor="start" x="525.516" y="-816.8" font-family="Helvetica,sans-Serif" font-size="11.00" fill="#000000">...</text>
<polygon fill="#ffffff" stroke="transparent" points="522.516,-791.7 522.516,-810.7 577.516,-810.7 577.516,-791.7 522.516,-791.7"/>
<polygon fill="none" stroke="#000000" points="522.516,-791.7 522.516,-810.7 577.516,-810.7 577.516,-791.7 522.516,-791.7"/>
<text text-anchor="start" x="525.516" y="-797.8" font-family="Helvetica,sans-Serif" font-size="11.00" fill="#000000">&lt; 1</text>
<polygon fill="#ffffff" stroke="transparent" points="577.516,-791.7 577.516,-810.7 632.516,-810.7 632.516,-791.7 577.516,-791.7"/>
<polygon fill="none" stroke="#000000" points="577.516,-791.7 577.516,-810.7 632.516,-810.7 632.516,-791.7 577.516,-791.7"/>
<text text-anchor="start" x="597.1265" y="-797.8" font-family="Helvetica,sans-Serif" font-size="11.00" fill="#000000">0 rows</text>
<polygon fill="#ffffff" stroke="transparent" points="632.516,-791.7 632.516,-810.7 662.516,-810.7 662.516,-791.7 632.516,-791.7"/>
<polygon fill="none" stroke="#000000" points="632.516,-791.7 632.516,-810.7 662.516,-810.7 662.516,-791.7 632.516,-791.7"/>
<text text-anchor="start" x="653.4022" y="-797.8" font-family="Helvetica,sans-Serif" font-size="11.00" fill="#000000"> &#160;</text>
</a>
</g>
</g>
<!-- opiskeluoikeus -->
<g id="node5" class="node">
<title>opiskeluoikeus</title>
<g id="a_node5"><a xlink:href="../../tables/opiskeluoikeus.html" xlink:title="opiskeluoikeus" target="_top">
<polygon fill="#ffffff" stroke="transparent" points="187.516,-424.2 187.516,-771.2 444.516,-771.2 444.516,-424.2 187.516,-424.2"/>
<polygon fill="#f5f5f5" stroke="transparent" points="188.016,-747.7 188.016,-770.7 445.016,-770.7 445.016,-747.7 188.016,-747.7"/>
<polygon fill="none" stroke="#000000" points="188.016,-747.7 188.016,-770.7 445.016,-770.7 445.016,-747.7 188.016,-747.7"/>
<text text-anchor="start" x="193.016" y="-756.3" font-family="Helvetica,sans-Serif" font-weight="bold" font-size="11.00" fill="#000000">opiskeluoikeus</text>
<text text-anchor="start" x="410.0597" y="-755.8" font-family="Helvetica,sans-Serif" font-size="11.00" fill="#000000">[table]</text>
<polygon fill="none" stroke="#000000" points="188.016,-725.7 188.016,-747.7 445.016,-747.7 445.016,-725.7 188.016,-725.7"/>
<image xlink:href="../../images/primaryKeys.png" width="11px" height="12px" preserveAspectRatio="xMinYMin meet" x="193.016" y="-742.7"/>
<text text-anchor="start" x="208.016" y="-732.8" font-family="Helvetica,sans-Serif" font-size="11.00" fill="#000000">id</text>
<polygon fill="#ffffff" stroke="transparent" points="188.016,-703.7 188.016,-725.7 445.016,-725.7 445.016,-703.7 188.016,-703.7"/>
<polygon fill="none" stroke="#000000" points="188.016,-703.7 188.016,-725.7 445.016,-725.7 445.016,-703.7 188.016,-703.7"/>
<image xlink:href="../../images/foreignKeys.png" width="11px" height="12px" preserveAspectRatio="xMinYMin meet" x="193.016" y="-720.7"/>
<text text-anchor="start" x="208.016" y="-710.8" font-family="Helvetica,sans-Serif" font-size="11.00" fill="#000000">oppija_oid</text>
<polygon fill="#ffffff" stroke="transparent" points="188.016,-681.7 188.016,-703.7 445.016,-703.7 445.016,-681.7 188.016,-681.7"/>
<polygon fill="none" stroke="#000000" points="188.016,-681.7 188.016,-703.7 445.016,-703.7 445.016,-681.7 188.016,-681.7"/>
<text text-anchor="start" x="208.016" y="-688.8" font-family="Helvetica,sans-Serif" font-size="11.00" fill="#000000">aikaleima</text>
<polygon fill="#ffffff" stroke="transparent" points="188.016,-659.7 188.016,-681.7 445.016,-681.7 445.016,-659.7 188.016,-659.7"/>
<polygon fill="none" stroke="#000000" points="188.016,-659.7 188.016,-681.7 445.016,-681.7 445.016,-659.7 188.016,-659.7"/>
<text text-anchor="start" x="208.016" y="-666.8" font-family="Helvetica,sans-Serif" font-size="11.00" fill="#000000">oppilaitos_oid</text>
<polygon fill="#ffffff" stroke="transparent" points="188.016,-637.7 188.016,-659.7 445.016,-659.7 445.016,-637.7 188.016,-637.7"/>
<polygon fill="none" stroke="#000000" points="188.016,-637.7 188.016,-659.7 445.016,-659.7 445.016,-637.7 188.016,-637.7"/>
<text text-anchor="start" x="208.016" y="-644.8" font-family="Helvetica,sans-Serif" font-size="11.00" fill="#000000">sisaltava_opiskeluoikeus_oppilaitos_oid</text>
<polygon fill="#ffffff" stroke="transparent" points="188.016,-615.7 188.016,-637.7 445.016,-637.7 445.016,-615.7 188.016,-615.7"/>
<polygon fill="none" stroke="#000000" points="188.016,-615.7 188.016,-637.7 445.016,-637.7 445.016,-615.7 188.016,-615.7"/>
<text text-anchor="start" x="208.016" y="-622.8" font-family="Helvetica,sans-Serif" font-size="11.00" fill="#000000">oid</text>
<polygon fill="none" stroke="#000000" points="188.016,-593.7 188.016,-615.7 445.016,-615.7 445.016,-593.7 188.016,-593.7"/>
<image xlink:href="../../images/foreignKeys.png" width="11px" height="12px" preserveAspectRatio="xMinYMin meet" x="193.016" y="-610.7"/>
<text text-anchor="start" x="208.016" y="-600.8" font-family="Helvetica,sans-Serif" font-size="11.00" fill="#000000">sisaltava_opiskeluoikeus_oid</text>
<polygon fill="#ffffff" stroke="transparent" points="188.016,-571.7 188.016,-593.7 445.016,-593.7 445.016,-571.7 188.016,-571.7"/>
<polygon fill="none" stroke="#000000" points="188.016,-571.7 188.016,-593.7 445.016,-593.7 445.016,-571.7 188.016,-571.7"/>
<text text-anchor="start" x="208.016" y="-578.8" font-family="Helvetica,sans-Serif" font-size="11.00" fill="#000000">mitatoity</text>
<polygon fill="#ffffff" stroke="transparent" points="188.016,-549.7 188.016,-571.7 445.016,-571.7 445.016,-549.7 188.016,-549.7"/>
<polygon fill="none" stroke="#000000" points="188.016,-549.7 188.016,-571.7 445.016,-571.7 445.016,-549.7 188.016,-549.7"/>
<text text-anchor="start" x="208.016" y="-556.8" font-family="Helvetica,sans-Serif" font-size="11.00" fill="#000000">koulutusmuoto</text>
<polygon fill="#ffffff" stroke="transparent" points="188.016,-527.7 188.016,-549.7 445.016,-549.7 445.016,-527.7 188.016,-527.7"/>
<polygon fill="none" stroke="#000000" points="188.016,-527.7 188.016,-549.7 445.016,-549.7 445.016,-527.7 188.016,-527.7"/>
<text text-anchor="start" x="208.016" y="-534.8" font-family="Helvetica,sans-Serif" font-size="11.00" fill="#000000">alkamispaiva</text>
<polygon fill="#ffffff" stroke="transparent" points="188.016,-505.7 188.016,-527.7 445.016,-527.7 445.016,-505.7 188.016,-505.7"/>
<polygon fill="none" stroke="#000000" points="188.016,-505.7 188.016,-527.7 445.016,-527.7 445.016,-505.7 188.016,-505.7"/>
<text text-anchor="start" x="208.016" y="-512.8" font-family="Helvetica,sans-Serif" font-size="11.00" fill="#000000">paattymispaiva</text>
<polygon fill="#ffffff" stroke="transparent" points="188.016,-483.7 188.016,-505.7 445.016,-505.7 445.016,-483.7 188.016,-483.7"/>
<polygon fill="none" stroke="#000000" points="188.016,-483.7 188.016,-505.7 445.016,-505.7 445.016,-483.7 188.016,-483.7"/>
<text text-anchor="start" x="208.016" y="-490.8" font-family="Helvetica,sans-Serif" font-size="11.00" fill="#000000">suoritustyypit</text>
<polygon fill="#ffffff" stroke="transparent" points="188.016,-461.7 188.016,-483.7 445.016,-483.7 445.016,-461.7 188.016,-461.7"/>
<polygon fill="none" stroke="#000000" points="188.016,-461.7 188.016,-483.7 445.016,-483.7 445.016,-461.7 188.016,-461.7"/>
<text text-anchor="start" x="208.016" y="-468.8" font-family="Helvetica,sans-Serif" font-size="11.00" fill="#000000">poistettu</text>
<polygon fill="none" stroke="#000000" points="188.016,-442.7 188.016,-461.7 445.016,-461.7 445.016,-442.7 188.016,-442.7"/>
<text text-anchor="start" x="191.016" y="-448.8" font-family="Helvetica,sans-Serif" font-size="11.00" fill="#000000">...</text>
<polygon fill="#ffffff" stroke="transparent" points="188.016,-423.7 188.016,-442.7 291.016,-442.7 291.016,-423.7 188.016,-423.7"/>
<polygon fill="none" stroke="#000000" points="188.016,-423.7 188.016,-442.7 291.016,-442.7 291.016,-423.7 188.016,-423.7"/>
<text text-anchor="start" x="191.016" y="-429.8" font-family="Helvetica,sans-Serif" font-size="11.00" fill="#000000">&lt; 2</text>
<polygon fill="#ffffff" stroke="transparent" points="291.016,-423.7 291.016,-442.7 382.016,-442.7 382.016,-423.7 291.016,-423.7"/>
<polygon fill="none" stroke="#000000" points="291.016,-423.7 291.016,-442.7 382.016,-442.7 382.016,-423.7 291.016,-423.7"/>
<text text-anchor="start" x="334.3967" y="-429.8" font-family="Helvetica,sans-Serif" font-size="11.00" fill="#000000">241 rows</text>
<polygon fill="#ffffff" stroke="transparent" points="382.016,-423.7 382.016,-442.7 445.016,-442.7 445.016,-423.7 382.016,-423.7"/>
<polygon fill="none" stroke="#000000" points="382.016,-423.7 382.016,-442.7 445.016,-442.7 445.016,-423.7 382.016,-423.7"/>
<text text-anchor="start" x="426.4213" y="-429.8" font-family="Helvetica,sans-Serif" font-size="11.00" fill="#000000">4 &gt;</text>
</a>
</g>
</g>
<!-- perustiedot_sync&#45;&gt;opiskeluoikeus -->
<g id="edge6" class="edge">
<title>perustiedot_sync:w&#45;&gt;opiskeluoikeus:e</title>
<path fill="none" stroke="#000000" d="M508.1805,-837.9183C471.3419,-821.3793 497.0313,-736.7 445.016,-736.7"/>
<polygon fill="#000000" stroke="#000000" points="514.6624,-839.176 521.8302,-844.2341 518.5892,-839.938 522.516,-840.7 522.516,-840.7 522.516,-840.7 518.5892,-839.938 523.2018,-837.1659 514.6624,-839.176 514.6624,-839.176"/>
<ellipse fill="none" stroke="#000000" cx="511.521" cy="-838.5664" rx="3.2" ry="3.2"/>
</g>
<!-- opiskeluoikeushistoria -->
<g id="node2" class="node">
<title>opiskeluoikeushistoria</title>
<g id="a_node2"><a xlink:href="../../tables/opiskeluoikeushistoria.html" xlink:title="opiskeluoikeushistoria" target="_top">
<polygon fill="#ffffff" stroke="transparent" points="505.016,-666.2 505.016,-771.2 680.016,-771.2 680.016,-666.2 505.016,-666.2"/>
<polygon fill="#f5f5f5" stroke="transparent" points="505.516,-747.7 505.516,-770.7 680.516,-770.7 680.516,-747.7 505.516,-747.7"/>
<polygon fill="none" stroke="#000000" points="505.516,-747.7 505.516,-770.7 680.516,-770.7 680.516,-747.7 505.516,-747.7"/>
<text text-anchor="start" x="510.516" y="-756.3" font-family="Helvetica,sans-Serif" font-weight="bold" font-size="11.00" fill="#000000">opiskeluoikeushistoria</text>
<text text-anchor="start" x="646.0378" y="-755.8" font-family="Helvetica,sans-Serif" font-size="11.00" fill="#000000">[table]</text>
<polygon fill="none" stroke="#000000" points="505.516,-725.7 505.516,-747.7 680.516,-747.7 680.516,-725.7 505.516,-725.7"/>
<image xlink:href="../../images/primaryKeys.png" width="11px" height="12px" preserveAspectRatio="xMinYMin meet" x="510.516" y="-742.7"/>
<text text-anchor="start" x="534.516" y="-732.8" font-family="Helvetica,sans-Serif" font-size="11.00" fill="#000000">opiskeluoikeus_id</text>
<polygon fill="none" stroke="#000000" points="505.516,-703.7 505.516,-725.7 680.516,-725.7 680.516,-703.7 505.516,-703.7"/>
<image xlink:href="../../images/primaryKeys.png" width="11px" height="12px" preserveAspectRatio="xMinYMin meet" x="510.516" y="-720.7"/>
<text text-anchor="start" x="534.516" y="-710.8" font-family="Helvetica,sans-Serif" font-size="11.00" fill="#000000">versionumero</text>
<polygon fill="none" stroke="#000000" points="505.516,-684.7 505.516,-703.7 680.516,-703.7 680.516,-684.7 505.516,-684.7"/>
<text text-anchor="start" x="508.516" y="-690.8" font-family="Helvetica,sans-Serif" font-size="11.00" fill="#000000">...</text>
<polygon fill="#ffffff" stroke="transparent" points="505.516,-665.7 505.516,-684.7 572.516,-684.7 572.516,-665.7 505.516,-665.7"/>
<polygon fill="none" stroke="#000000" points="505.516,-665.7 505.516,-684.7 572.516,-684.7 572.516,-665.7 505.516,-665.7"/>
<text text-anchor="start" x="508.516" y="-671.8" font-family="Helvetica,sans-Serif" font-size="11.00" fill="#000000">&lt; 1</text>
<polygon fill="#ffffff" stroke="transparent" points="572.516,-665.7 572.516,-684.7 645.516,-684.7 645.516,-665.7 572.516,-665.7"/>
<polygon fill="none" stroke="#000000" points="572.516,-665.7 572.516,-684.7 645.516,-684.7 645.516,-665.7 572.516,-665.7"/>
<text text-anchor="start" x="597.8967" y="-671.8" font-family="Helvetica,sans-Serif" font-size="11.00" fill="#000000">241 rows</text>
<polygon fill="#ffffff" stroke="transparent" points="645.516,-665.7 645.516,-684.7 680.516,-684.7 680.516,-665.7 645.516,-665.7"/>
<polygon fill="none" stroke="#000000" points="645.516,-665.7 645.516,-684.7 680.516,-684.7 680.516,-665.7 645.516,-665.7"/>
<text text-anchor="start" x="671.4022" y="-671.8" font-family="Helvetica,sans-Serif" font-size="11.00" fill="#000000"> &#160;</text>
</a>
</g>
</g>
<!-- opiskeluoikeushistoria&#45;&gt;opiskeluoikeus -->
<g id="edge4" class="edge">
<title>opiskeluoikeushistoria:w&#45;&gt;opiskeluoikeus:e</title>
<path fill="none" stroke="#000000" d="M490.8137,-736.7C474.8938,-736.7 466.233,-736.7 445.016,-736.7"/>
<polygon fill="#000000" stroke="#000000" points="497.516,-736.7001 505.516,-740.3 501.516,-736.7 505.516,-736.7 505.516,-736.7 505.516,-736.7 501.516,-736.7 505.5159,-733.1 497.516,-736.7001 497.516,-736.7001"/>
<ellipse fill="none" stroke="#000000" cx="494.316" cy="-736.7001" rx="3.2" ry="3.2"/>
</g>
<!-- perustiedot_manual_sync -->
<g id="node3" class="node">
<title>perustiedot_manual_sync</title>
<g id="a_node3"><a xlink:href="../../tables/perustiedot_manual_sync.html" xlink:title="perustiedot_manual_sync" target="_top">
<polygon fill="#ffffff" stroke="transparent" points="497.016,-540.2 497.016,-645.2 688.016,-645.2 688.016,-540.2 497.016,-540.2"/>
<polygon fill="#f5f5f5" stroke="transparent" points="497.516,-621.7 497.516,-644.7 688.516,-644.7 688.516,-621.7 497.516,-621.7"/>
<polygon fill="none" stroke="#000000" points="497.516,-621.7 497.516,-644.7 688.516,-644.7 688.516,-621.7 497.516,-621.7"/>
<text text-anchor="start" x="502.516" y="-630.3" font-family="Helvetica,sans-Serif" font-weight="bold" font-size="11.00" fill="#000000">perustiedot_manual_sync</text>
<text text-anchor="start" x="654.0378" y="-629.8" font-family="Helvetica,sans-Serif" font-size="11.00" fill="#000000">[table]</text>
<polygon fill="none" stroke="#000000" points="497.516,-599.7 497.516,-621.7 688.516,-621.7 688.516,-599.7 497.516,-599.7"/>
<image xlink:href="../../images/primaryKeys.png" width="11px" height="12px" preserveAspectRatio="xMinYMin meet" x="502.516" y="-616.7"/>
<text text-anchor="start" x="526.516" y="-606.8" font-family="Helvetica,sans-Serif" font-size="11.00" fill="#000000">id</text>
<polygon fill="none" stroke="#000000" points="497.516,-577.7 497.516,-599.7 688.516,-599.7 688.516,-577.7 497.516,-577.7"/>
<image xlink:href="../../images/foreignKeys.png" width="11px" height="12px" preserveAspectRatio="xMinYMin meet" x="502.516" y="-594.7"/>
<text text-anchor="start" x="526.516" y="-584.8" font-family="Helvetica,sans-Serif" font-size="11.00" fill="#000000">opiskeluoikeus_oid</text>
<polygon fill="none" stroke="#000000" points="497.516,-558.7 497.516,-577.7 688.516,-577.7 688.516,-558.7 497.516,-558.7"/>
<text text-anchor="start" x="500.516" y="-564.8" font-family="Helvetica,sans-Serif" font-size="11.00" fill="#000000">...</text>
<polygon fill="#ffffff" stroke="transparent" points="497.516,-539.7 497.516,-558.7 591.516,-558.7 591.516,-539.7 497.516,-539.7"/>
<polygon fill="none" stroke="#000000" points="497.516,-539.7 497.516,-558.7 591.516,-558.7 591.516,-539.7 497.516,-539.7"/>
<text text-anchor="start" x="500.516" y="-545.8" font-family="Helvetica,sans-Serif" font-size="11.00" fill="#000000">&lt; 1</text>
<polygon fill="#ffffff" stroke="transparent" points="591.516,-539.7 591.516,-558.7 639.516,-558.7 639.516,-539.7 591.516,-539.7"/>
<polygon fill="none" stroke="#000000" points="591.516,-539.7 591.516,-558.7 639.516,-558.7 639.516,-539.7 591.516,-539.7"/>
<text text-anchor="start" x="630.4022" y="-545.8" font-family="Helvetica,sans-Serif" font-size="11.00" fill="#000000"> &#160;</text>
<polygon fill="#ffffff" stroke="transparent" points="639.516,-539.7 639.516,-558.7 688.516,-558.7 688.516,-539.7 639.516,-539.7"/>
<polygon fill="none" stroke="#000000" points="639.516,-539.7 639.516,-558.7 688.516,-558.7 688.516,-539.7 639.516,-539.7"/>
<text text-anchor="start" x="679.4022" y="-545.8" font-family="Helvetica,sans-Serif" font-size="11.00" fill="#000000"> &#160;</text>
</a>
</g>
</g>
<!-- perustiedot_manual_sync&#45;&gt;opiskeluoikeus -->
<g id="edge5" class="edge">
<title>perustiedot_manual_sync:w&#45;&gt;opiskeluoikeus:e</title>
<path fill="none" stroke="#000000" d="M483.5927,-592.7667C469.3878,-602.5696 467.9693,-626.7 445.016,-626.7"/>
<polygon fill="#000000" stroke="#000000" points="489.8368,-590.9429 498.5253,-592.1556 493.6764,-589.8215 497.516,-588.7 497.516,-588.7 497.516,-588.7 493.6764,-589.8215 496.5066,-585.2444 489.8368,-590.9429 489.8368,-590.9429"/>
<ellipse fill="none" stroke="#000000" cx="486.7651" cy="-591.8401" rx="3.2" ry="3.2"/>
</g>
<!-- ytr_opiskeluoikeushistoria -->
<g id="node4" class="node">
<title>ytr_opiskeluoikeushistoria</title>
<g id="a_node4"><a xlink:href="../../tables/ytr_opiskeluoikeushistoria.html" xlink:title="ytr_opiskeluoikeushistoria" target="_top">
<polygon fill="#ffffff" stroke="transparent" points="493.516,-280.2 493.516,-385.2 691.516,-385.2 691.516,-280.2 493.516,-280.2"/>
<polygon fill="#f5f5f5" stroke="transparent" points="493.516,-361.7 493.516,-384.7 691.516,-384.7 691.516,-361.7 493.516,-361.7"/>
<polygon fill="none" stroke="#000000" points="493.516,-361.7 493.516,-384.7 691.516,-384.7 691.516,-361.7 493.516,-361.7"/>
<text text-anchor="start" x="498.516" y="-370.3" font-family="Helvetica,sans-Serif" font-weight="bold" font-size="11.00" fill="#000000">ytr_opiskeluoikeushistoria</text>
<text text-anchor="start" x="657.0378" y="-369.8" font-family="Helvetica,sans-Serif" font-size="11.00" fill="#000000">[table]</text>
<polygon fill="none" stroke="#000000" points="493.516,-339.7 493.516,-361.7 691.516,-361.7 691.516,-339.7 493.516,-339.7"/>
<image xlink:href="../../images/primaryKeys.png" width="11px" height="12px" preserveAspectRatio="xMinYMin meet" x="498.516" y="-356.7"/>
<text text-anchor="start" x="522.516" y="-346.8" font-family="Helvetica,sans-Serif" font-size="11.00" fill="#000000">opiskeluoikeus_id</text>
<polygon fill="none" stroke="#000000" points="493.516,-317.7 493.516,-339.7 691.516,-339.7 691.516,-317.7 493.516,-317.7"/>
<image xlink:href="../../images/primaryKeys.png" width="11px" height="12px" preserveAspectRatio="xMinYMin meet" x="498.516" y="-334.7"/>
<text text-anchor="start" x="522.516" y="-324.8" font-family="Helvetica,sans-Serif" font-size="11.00" fill="#000000">versionumero</text>
<polygon fill="none" stroke="#000000" points="493.516,-298.7 493.516,-317.7 691.516,-317.7 691.516,-298.7 493.516,-298.7"/>
<text text-anchor="start" x="496.516" y="-304.8" font-family="Helvetica,sans-Serif" font-size="11.00" fill="#000000">...</text>
<polygon fill="#ffffff" stroke="transparent" points="493.516,-279.7 493.516,-298.7 577.516,-298.7 577.516,-279.7 493.516,-279.7"/>
<polygon fill="none" stroke="#000000" points="493.516,-279.7 493.516,-298.7 577.516,-298.7 577.516,-279.7 493.516,-279.7"/>
<text text-anchor="start" x="496.516" y="-285.8" font-family="Helvetica,sans-Serif" font-size="11.00" fill="#000000">&lt; 1</text>
<polygon fill="#ffffff" stroke="transparent" points="577.516,-279.7 577.516,-298.7 647.516,-298.7 647.516,-279.7 577.516,-279.7"/>
<polygon fill="none" stroke="#000000" points="577.516,-279.7 577.516,-298.7 647.516,-298.7 647.516,-279.7 577.516,-279.7"/>
<text text-anchor="start" x="612.1265" y="-285.8" font-family="Helvetica,sans-Serif" font-size="11.00" fill="#000000">6 rows</text>
<polygon fill="#ffffff" stroke="transparent" points="647.516,-279.7 647.516,-298.7 691.516,-298.7 691.516,-279.7 647.516,-279.7"/>
<polygon fill="none" stroke="#000000" points="647.516,-279.7 647.516,-298.7 691.516,-298.7 691.516,-279.7 647.516,-279.7"/>
<text text-anchor="start" x="682.4022" y="-285.8" font-family="Helvetica,sans-Serif" font-size="11.00" fill="#000000"> &#160;</text>
</a>
</g>
</g>
<!-- ytr_opiskeluoikeus -->
<g id="node6" class="node">
<title>ytr_opiskeluoikeus</title>
<g id="a_node6"><a xlink:href="../../tables/ytr_opiskeluoikeus.html" xlink:title="ytr_opiskeluoikeus" target="_top">
<polygon fill="#ffffff" stroke="transparent" points="187.516,-38.2 187.516,-385.2 444.516,-385.2 444.516,-38.2 187.516,-38.2"/>
<polygon fill="#f5f5f5" stroke="transparent" points="188.016,-361.7 188.016,-384.7 445.016,-384.7 445.016,-361.7 188.016,-361.7"/>
<polygon fill="none" stroke="#000000" points="188.016,-361.7 188.016,-384.7 445.016,-384.7 445.016,-361.7 188.016,-361.7"/>
<text text-anchor="start" x="193.016" y="-370.3" font-family="Helvetica,sans-Serif" font-weight="bold" font-size="11.00" fill="#000000">ytr_opiskeluoikeus</text>
<text text-anchor="start" x="410.0597" y="-369.8" font-family="Helvetica,sans-Serif" font-size="11.00" fill="#000000">[table]</text>
<polygon fill="none" stroke="#000000" points="188.016,-339.7 188.016,-361.7 445.016,-361.7 445.016,-339.7 188.016,-339.7"/>
<image xlink:href="../../images/primaryKeys.png" width="11px" height="12px" preserveAspectRatio="xMinYMin meet" x="193.016" y="-356.7"/>
<text text-anchor="start" x="208.016" y="-346.8" font-family="Helvetica,sans-Serif" font-size="11.00" fill="#000000">id</text>
<polygon fill="#ffffff" stroke="transparent" points="188.016,-317.7 188.016,-339.7 445.016,-339.7 445.016,-317.7 188.016,-317.7"/>
<polygon fill="none" stroke="#000000" points="188.016,-317.7 188.016,-339.7 445.016,-339.7 445.016,-317.7 188.016,-317.7"/>
<image xlink:href="../../images/foreignKeys.png" width="11px" height="12px" preserveAspectRatio="xMinYMin meet" x="193.016" y="-334.7"/>
<text text-anchor="start" x="208.016" y="-324.8" font-family="Helvetica,sans-Serif" font-size="11.00" fill="#000000">oppija_oid</text>
<polygon fill="#ffffff" stroke="transparent" points="188.016,-295.7 188.016,-317.7 445.016,-317.7 445.016,-295.7 188.016,-295.7"/>
<polygon fill="none" stroke="#000000" points="188.016,-295.7 188.016,-317.7 445.016,-317.7 445.016,-295.7 188.016,-295.7"/>
<text text-anchor="start" x="208.016" y="-302.8" font-family="Helvetica,sans-Serif" font-size="11.00" fill="#000000">aikaleima</text>
<polygon fill="#ffffff" stroke="transparent" points="188.016,-273.7 188.016,-295.7 445.016,-295.7 445.016,-273.7 188.016,-273.7"/>
<polygon fill="none" stroke="#000000" points="188.016,-273.7 188.016,-295.7 445.016,-295.7 445.016,-273.7 188.016,-273.7"/>
<text text-anchor="start" x="208.016" y="-280.8" font-family="Helvetica,sans-Serif" font-size="11.00" fill="#000000">oppilaitos_oid</text>
<polygon fill="#ffffff" stroke="transparent" points="188.016,-251.7 188.016,-273.7 445.016,-273.7 445.016,-251.7 188.016,-251.7"/>
<polygon fill="none" stroke="#000000" points="188.016,-251.7 188.016,-273.7 445.016,-273.7 445.016,-251.7 188.016,-251.7"/>
<text text-anchor="start" x="208.016" y="-258.8" font-family="Helvetica,sans-Serif" font-size="11.00" fill="#000000">sisaltava_opiskeluoikeus_oppilaitos_oid</text>
<polygon fill="#ffffff" stroke="transparent" points="188.016,-229.7 188.016,-251.7 445.016,-251.7 445.016,-229.7 188.016,-229.7"/>
<polygon fill="none" stroke="#000000" points="188.016,-229.7 188.016,-251.7 445.016,-251.7 445.016,-229.7 188.016,-229.7"/>
<text text-anchor="start" x="208.016" y="-236.8" font-family="Helvetica,sans-Serif" font-size="11.00" fill="#000000">oid</text>
<polygon fill="none" stroke="#000000" points="188.016,-207.7 188.016,-229.7 445.016,-229.7 445.016,-207.7 188.016,-207.7"/>
<image xlink:href="../../images/foreignKeys.png" width="11px" height="12px" preserveAspectRatio="xMinYMin meet" x="193.016" y="-224.7"/>
<text text-anchor="start" x="208.016" y="-214.8" font-family="Helvetica,sans-Serif" font-size="11.00" fill="#000000">sisaltava_opiskeluoikeus_oid</text>
<polygon fill="#ffffff" stroke="transparent" points="188.016,-185.7 188.016,-207.7 445.016,-207.7 445.016,-185.7 188.016,-185.7"/>
<polygon fill="none" stroke="#000000" points="188.016,-185.7 188.016,-207.7 445.016,-207.7 445.016,-185.7 188.016,-185.7"/>
<text text-anchor="start" x="208.016" y="-192.8" font-family="Helvetica,sans-Serif" font-size="11.00" fill="#000000">mitatoity</text>
<polygon fill="#ffffff" stroke="transparent" points="188.016,-163.7 188.016,-185.7 445.016,-185.7 445.016,-163.7 188.016,-163.7"/>
<polygon fill="none" stroke="#000000" points="188.016,-163.7 188.016,-185.7 445.016,-185.7 445.016,-163.7 188.016,-163.7"/>
<text text-anchor="start" x="208.016" y="-170.8" font-family="Helvetica,sans-Serif" font-size="11.00" fill="#000000">koulutusmuoto</text>
<polygon fill="#ffffff" stroke="transparent" points="188.016,-141.7 188.016,-163.7 445.016,-163.7 445.016,-141.7 188.016,-141.7"/>
<polygon fill="none" stroke="#000000" points="188.016,-141.7 188.016,-163.7 445.016,-163.7 445.016,-141.7 188.016,-141.7"/>
<text text-anchor="start" x="208.016" y="-148.8" font-family="Helvetica,sans-Serif" font-size="11.00" fill="#000000">alkamispaiva</text>
<polygon fill="#ffffff" stroke="transparent" points="188.016,-119.7 188.016,-141.7 445.016,-141.7 445.016,-119.7 188.016,-119.7"/>
<polygon fill="none" stroke="#000000" points="188.016,-119.7 188.016,-141.7 445.016,-141.7 445.016,-119.7 188.016,-119.7"/>
<text text-anchor="start" x="208.016" y="-126.8" font-family="Helvetica,sans-Serif" font-size="11.00" fill="#000000">paattymispaiva</text>
<polygon fill="#ffffff" stroke="transparent" points="188.016,-97.7 188.016,-119.7 445.016,-119.7 445.016,-97.7 188.016,-97.7"/>
<polygon fill="none" stroke="#000000" points="188.016,-97.7 188.016,-119.7 445.016,-119.7 445.016,-97.7 188.016,-97.7"/>
<text text-anchor="start" x="208.016" y="-104.8" font-family="Helvetica,sans-Serif" font-size="11.00" fill="#000000">suoritustyypit</text>
<polygon fill="#ffffff" stroke="transparent" points="188.016,-75.7 188.016,-97.7 445.016,-97.7 445.016,-75.7 188.016,-75.7"/>
<polygon fill="none" stroke="#000000" points="188.016,-75.7 188.016,-97.7 445.016,-97.7 445.016,-75.7 188.016,-75.7"/>
<text text-anchor="start" x="208.016" y="-82.8" font-family="Helvetica,sans-Serif" font-size="11.00" fill="#000000">poistettu</text>
<polygon fill="none" stroke="#000000" points="188.016,-56.7 188.016,-75.7 445.016,-75.7 445.016,-56.7 188.016,-56.7"/>
<text text-anchor="start" x="191.016" y="-62.8" font-family="Helvetica,sans-Serif" font-size="11.00" fill="#000000">...</text>
<polygon fill="#ffffff" stroke="transparent" points="188.016,-37.7 188.016,-56.7 297.016,-56.7 297.016,-37.7 188.016,-37.7"/>
<polygon fill="none" stroke="#000000" points="188.016,-37.7 188.016,-56.7 297.016,-56.7 297.016,-37.7 188.016,-37.7"/>
<text text-anchor="start" x="191.016" y="-43.8" font-family="Helvetica,sans-Serif" font-size="11.00" fill="#000000">&lt; 2</text>
<polygon fill="#ffffff" stroke="transparent" points="297.016,-37.7 297.016,-56.7 379.016,-56.7 379.016,-37.7 297.016,-37.7"/>
<polygon fill="none" stroke="#000000" points="297.016,-37.7 297.016,-56.7 379.016,-56.7 379.016,-37.7 297.016,-37.7"/>
<text text-anchor="start" x="343.6265" y="-43.8" font-family="Helvetica,sans-Serif" font-size="11.00" fill="#000000">6 rows</text>
<polygon fill="#ffffff" stroke="transparent" points="379.016,-37.7 379.016,-56.7 445.016,-56.7 445.016,-37.7 379.016,-37.7"/>
<polygon fill="none" stroke="#000000" points="379.016,-37.7 379.016,-56.7 445.016,-56.7 445.016,-37.7 379.016,-37.7"/>
<text text-anchor="start" x="426.4213" y="-43.8" font-family="Helvetica,sans-Serif" font-size="11.00" fill="#000000">2 &gt;</text>
</a>
</g>
</g>
<!-- ytr_opiskeluoikeushistoria&#45;&gt;ytr_opiskeluoikeus -->
<g id="edge9" class="edge">
<title>ytr_opiskeluoikeushistoria:w&#45;&gt;ytr_opiskeluoikeus:e</title>
<path fill="none" stroke="#000000" d="M478.7989,-350.7C467.8046,-350.7 460.6774,-350.7 445.016,-350.7"/>
<polygon fill="#000000" stroke="#000000" points="485.516,-350.7001 493.516,-354.3 489.516,-350.7 493.516,-350.7 493.516,-350.7 493.516,-350.7 489.516,-350.7 493.5159,-347.1 485.516,-350.7001 485.516,-350.7001"/>
<ellipse fill="none" stroke="#000000" cx="482.316" cy="-350.7001" rx="3.2" ry="3.2"/>
</g>
<!-- opiskeluoikeus&#45;&gt;opiskeluoikeus -->
<g id="edge3" class="edge">
<title>opiskeluoikeus:w&#45;&gt;opiskeluoikeus:e</title>
<path fill="none" stroke="#000000" d="M178.9024,-616.0018C131.6111,-681.4088 141.5228,-788.2 316.516,-788.2 502.016,-788.2 502.016,-690.2 445.016,-626.7"/>
<polygon fill="#000000" stroke="#000000" points="182.9942,-610.9275 190.8183,-606.9598 185.5051,-607.8138 188.016,-604.7 188.016,-604.7 188.016,-604.7 185.5051,-607.8138 185.2136,-602.4402 182.9942,-610.9275 182.9942,-610.9275"/>
<ellipse fill="none" stroke="#000000" cx="180.9854" cy="-613.4185" rx="3.2" ry="3.2"/>
</g>
<!-- henkilo -->
<g id="node7" class="node">
<title>henkilo</title>
<g id="a_node7"><a xlink:href="../../tables/henkilo.html" xlink:title="henkilo" target="_top">
<polygon fill="#ffffff" stroke="transparent" points="37.516,-451.2 37.516,-556.2 138.516,-556.2 138.516,-451.2 37.516,-451.2"/>
<polygon fill="#f5f5f5" stroke="transparent" points="38.016,-532.7 38.016,-555.7 139.016,-555.7 139.016,-532.7 38.016,-532.7"/>
<polygon fill="none" stroke="#000000" points="38.016,-532.7 38.016,-555.7 139.016,-555.7 139.016,-532.7 38.016,-532.7"/>
<text text-anchor="start" x="43.016" y="-541.3" font-family="Helvetica,sans-Serif" font-weight="bold" font-size="11.00" fill="#000000">henkilo</text>
<text text-anchor="start" x="104.0597" y="-540.8" font-family="Helvetica,sans-Serif" font-size="11.00" fill="#000000">[table]</text>
<polygon fill="none" stroke="#000000" points="38.016,-510.7 38.016,-532.7 139.016,-532.7 139.016,-510.7 38.016,-510.7"/>
<image xlink:href="../../images/primaryKeys.png" width="11px" height="12px" preserveAspectRatio="xMinYMin meet" x="43.016" y="-527.7"/>
<text text-anchor="start" x="58.016" y="-517.8" font-family="Helvetica,sans-Serif" font-size="11.00" fill="#000000">oid</text>
<polygon fill="#ffffff" stroke="transparent" points="38.016,-488.7 38.016,-510.7 139.016,-510.7 139.016,-488.7 38.016,-488.7"/>
<polygon fill="none" stroke="#000000" points="38.016,-488.7 38.016,-510.7 139.016,-510.7 139.016,-488.7 38.016,-488.7"/>
<image xlink:href="../../images/foreignKeys.png" width="11px" height="12px" preserveAspectRatio="xMinYMin meet" x="43.016" y="-505.7"/>
<text text-anchor="start" x="58.016" y="-495.8" font-family="Helvetica,sans-Serif" font-size="11.00" fill="#000000">master_oid</text>
<polygon fill="none" stroke="#000000" points="38.016,-469.7 38.016,-488.7 139.016,-488.7 139.016,-469.7 38.016,-469.7"/>
<text text-anchor="start" x="41.016" y="-475.8" font-family="Helvetica,sans-Serif" font-size="11.00" fill="#000000">...</text>
<polygon fill="#ffffff" stroke="transparent" points="38.016,-450.7 38.016,-469.7 63.016,-469.7 63.016,-450.7 38.016,-450.7"/>
<polygon fill="none" stroke="#000000" points="38.016,-450.7 38.016,-469.7 63.016,-469.7 63.016,-450.7 38.016,-450.7"/>
<text text-anchor="start" x="41.016" y="-456.8" font-family="Helvetica,sans-Serif" font-size="11.00" fill="#000000">&lt; 1</text>
<polygon fill="#ffffff" stroke="transparent" points="63.016,-450.7 63.016,-469.7 115.016,-469.7 115.016,-450.7 63.016,-450.7"/>
<polygon fill="none" stroke="#000000" points="63.016,-450.7 63.016,-469.7 115.016,-469.7 115.016,-450.7 63.016,-450.7"/>
<text text-anchor="start" x="67.3967" y="-456.8" font-family="Helvetica,sans-Serif" font-size="11.00" fill="#000000">186 rows</text>
<polygon fill="#ffffff" stroke="transparent" points="115.016,-450.7 115.016,-469.7 139.016,-469.7 139.016,-450.7 115.016,-450.7"/>
<polygon fill="none" stroke="#000000" points="115.016,-450.7 115.016,-469.7 139.016,-469.7 139.016,-450.7 115.016,-450.7"/>
<text text-anchor="start" x="120.4213" y="-456.8" font-family="Helvetica,sans-Serif" font-size="11.00" fill="#000000">3 &gt;</text>
</a>
</g>
</g>
<!-- opiskeluoikeus&#45;&gt;henkilo -->
<g id="edge2" class="edge">
<title>opiskeluoikeus:w&#45;&gt;henkilo:e</title>
<path fill="none" stroke="#000000" d="M177.3607,-713.5666C110.5798,-697.7496 223.5396,-521.7 139.016,-521.7"/>
<polygon fill="#000000" stroke="#000000" points="187.6436,-710.6378 186.7973,-718.5929 185.2063,-718.4237 186.0526,-710.4686 187.6436,-710.6378"/>
<polyline fill="none" stroke="#000000" points="188.016,-714.7 184.0384,-714.2769 "/>
<ellipse fill="none" stroke="#000000" cx="180.8563" cy="-713.9384" rx="3.2" ry="3.2"/>
</g>
<!-- ytr_opiskeluoikeus&#45;&gt;ytr_opiskeluoikeus -->
<g id="edge8" class="edge">
<title>ytr_opiskeluoikeus:w&#45;&gt;ytr_opiskeluoikeus:e</title>
<path fill="none" stroke="#000000" d="M178.9024,-230.0018C131.6111,-295.4088 141.5228,-402.2 316.516,-402.2 502.016,-402.2 502.016,-304.2 445.016,-240.7"/>
<polygon fill="#000000" stroke="#000000" points="182.9942,-224.9275 190.8183,-220.9598 185.5051,-221.8138 188.016,-218.7 188.016,-218.7 188.016,-218.7 185.5051,-221.8138 185.2136,-216.4402 182.9942,-224.9275 182.9942,-224.9275"/>
<ellipse fill="none" stroke="#000000" cx="180.9854" cy="-227.4185" rx="3.2" ry="3.2"/>
</g>
<!-- ytr_opiskeluoikeus&#45;&gt;henkilo -->
<g id="edge7" class="edge">
<title>ytr_opiskeluoikeus:w&#45;&gt;henkilo:e</title>
<path fill="none" stroke="#000000" d="M177.3607,-329.8334C110.5798,-345.6504 223.5396,-521.7 139.016,-521.7"/>
<polygon fill="#000000" stroke="#000000" points="186.7973,-324.8071 187.6436,-332.7622 186.0526,-332.9314 185.2063,-324.9763 186.7973,-324.8071"/>
<polyline fill="none" stroke="#000000" points="188.016,-328.7 184.0384,-329.1231 "/>
<ellipse fill="none" stroke="#000000" cx="180.8563" cy="-329.4616" rx="3.2" ry="3.2"/>
</g>
<!-- henkilo&#45;&gt;henkilo -->
<g id="edge1" class="edge">
<title>henkilo:w&#45;&gt;henkilo:e</title>
<path fill="none" stroke="#000000" d="M24.8907,-506.0659C-18.2258,-530.9661 -9.9557,-573.2 88.516,-573.2 196.016,-573.2 196.016,-544.8667 139.016,-521.7"/>
<polygon fill="#000000" stroke="#000000" points="30.8179,-503.1911 39.587,-502.9391 34.4169,-501.4456 38.016,-499.7 38.016,-499.7 38.016,-499.7 34.4169,-501.4456 36.4449,-496.4609 30.8179,-503.1911 30.8179,-503.1911"/>
<ellipse fill="none" stroke="#000000" cx="27.9387" cy="-504.5876" rx="3.2" ry="3.2"/>
</g>
</g>
</svg>
