<?xml version="1.0" encoding="UTF-8" standalone="no"?>
<!DOCTYPE svg PUBLIC "-//W3C//DTD SVG 1.1//EN"
 "http://www.w3.org/Graphics/SVG/1.1/DTD/svg11.dtd">
<!-- Generated by graphviz version 2.40.1 (20161225.0304)
 -->
<!-- Title: compactRelationshipsDiagram Pages: 1 -->
<svg width="705pt" height="909pt"
 viewBox="0.00 0.00 704.69 909.20" xmlns="http://www.w3.org/2000/svg" xmlns:xlink="http://www.w3.org/1999/xlink">
<g id="graph0" class="graph" transform="scale(1 1) rotate(0) translate(4 905.2)">
<title>compactRelationshipsDiagram</title>
<polygon fill="#ffffff" stroke="transparent" points="-4,4 -4,-905.2 700.6857,-905.2 700.6857,4 -4,4"/>
<text text-anchor="middle" x="72.4936" y="-7.3" font-family="Helvetica,sans-Serif" font-size="11.00" fill="#000000">Generated by SchemaSpy</text>
<!-- perustiedot_sync -->
<g id="node1" class="node">
<title>perustiedot_sync</title>
<g id="a_node1"><a xlink:href="../../tables/perustiedot_sync.html" xlink:title="perustiedot_sync" target="_top">
<polygon fill="#ffffff" stroke="transparent" points="520.1857,-792.2 520.1857,-897.2 660.1857,-897.2 660.1857,-792.2 520.1857,-792.2"/>
<polygon fill="#f5f5f5" stroke="transparent" points="520.1857,-873.7 520.1857,-896.7 660.1857,-896.7 660.1857,-873.7 520.1857,-873.7"/>
<polygon fill="none" stroke="#000000" points="520.1857,-873.7 520.1857,-896.7 660.1857,-896.7 660.1857,-873.7 520.1857,-873.7"/>
<text text-anchor="start" x="525.1857" y="-882.3" font-family="Helvetica,sans-Serif" font-weight="bold" font-size="11.00" fill="#000000">perustiedot_sync</text>
<text text-anchor="start" x="625.7076" y="-881.8" font-family="Helvetica,sans-Serif" font-size="11.00" fill="#000000">[table]</text>
<polygon fill="none" stroke="#000000" points="520.1857,-851.7 520.1857,-873.7 660.1857,-873.7 660.1857,-851.7 520.1857,-851.7"/>
<image xlink:href="../../images/primaryKeys.png" width="11px" height="12px" preserveAspectRatio="xMinYMin meet" x="525.186" y="-868.7"/>
<text text-anchor="start" x="547.1857" y="-858.8" font-family="Helvetica,sans-Serif" font-size="11.00" fill="#000000">id</text>
<polygon fill="none" stroke="#000000" points="520.1857,-829.7 520.1857,-851.7 660.1857,-851.7 660.1857,-829.7 520.1857,-829.7"/>
<image xlink:href="../../images/foreignKeys.png" width="11px" height="12px" preserveAspectRatio="xMinYMin meet" x="525.186" y="-846.7"/>
<text text-anchor="start" x="547.1857" y="-836.8" font-family="Helvetica,sans-Serif" font-size="11.00" fill="#000000">opiskeluoikeus_id</text>
<polygon fill="none" stroke="#000000" points="520.1857,-810.7 520.1857,-829.7 660.1857,-829.7 660.1857,-810.7 520.1857,-810.7"/>
<text text-anchor="start" x="523.1857" y="-816.8" font-family="Helvetica,sans-Serif" font-size="11.00" fill="#000000">...</text>
<polygon fill="#ffffff" stroke="transparent" points="520.1857,-791.7 520.1857,-810.7 575.1857,-810.7 575.1857,-791.7 520.1857,-791.7"/>
<polygon fill="none" stroke="#000000" points="520.1857,-791.7 520.1857,-810.7 575.1857,-810.7 575.1857,-791.7 520.1857,-791.7"/>
<text text-anchor="start" x="523.1857" y="-797.8" font-family="Helvetica,sans-Serif" font-size="11.00" fill="#000000">&lt; 1</text>
<polygon fill="#ffffff" stroke="transparent" points="575.1857,-791.7 575.1857,-810.7 630.1857,-810.7 630.1857,-791.7 575.1857,-791.7"/>
<polygon fill="none" stroke="#000000" points="575.1857,-791.7 575.1857,-810.7 630.1857,-810.7 630.1857,-791.7 575.1857,-791.7"/>
<text text-anchor="start" x="594.7962" y="-797.8" font-family="Helvetica,sans-Serif" font-size="11.00" fill="#000000">0 rows</text>
<polygon fill="#ffffff" stroke="transparent" points="630.1857,-791.7 630.1857,-810.7 660.1857,-810.7 660.1857,-791.7 630.1857,-791.7"/>
<polygon fill="none" stroke="#000000" points="630.1857,-791.7 630.1857,-810.7 660.1857,-810.7 660.1857,-791.7 630.1857,-791.7"/>
<text text-anchor="start" x="651.0719" y="-797.8" font-family="Helvetica,sans-Serif" font-size="11.00" fill="#000000"> &#160;</text>
</a>
</g>
</g>
<!-- opiskeluoikeus -->
<g id="node5" class="node">
<title>opiskeluoikeus</title>
<g id="a_node5"><a xlink:href="../../tables/opiskeluoikeus.html" xlink:title="opiskeluoikeus" target="_top">
<polygon fill="#ffffff" stroke="transparent" points="186.6857,-424.2 186.6857,-771.2 442.6857,-771.2 442.6857,-424.2 186.6857,-424.2"/>
<polygon fill="#f5f5f5" stroke="transparent" points="186.6857,-747.7 186.6857,-770.7 442.6857,-770.7 442.6857,-747.7 186.6857,-747.7"/>
<polygon fill="none" stroke="#000000" points="186.6857,-747.7 186.6857,-770.7 442.6857,-770.7 442.6857,-747.7 186.6857,-747.7"/>
<text text-anchor="start" x="191.6857" y="-756.3" font-family="Helvetica,sans-Serif" font-weight="bold" font-size="11.00" fill="#000000">opiskeluoikeus</text>
<text text-anchor="start" x="407.7294" y="-755.8" font-family="Helvetica,sans-Serif" font-size="11.00" fill="#000000">[table]</text>
<polygon fill="none" stroke="#000000" points="186.6857,-725.7 186.6857,-747.7 442.6857,-747.7 442.6857,-725.7 186.6857,-725.7"/>
<image xlink:href="../../images/primaryKeys.png" width="11px" height="12px" preserveAspectRatio="xMinYMin meet" x="191.686" y="-742.7"/>
<text text-anchor="start" x="206.6857" y="-732.8" font-family="Helvetica,sans-Serif" font-size="11.00" fill="#000000">id</text>
<polygon fill="#ffffff" stroke="transparent" points="186.6857,-703.7 186.6857,-725.7 442.6857,-725.7 442.6857,-703.7 186.6857,-703.7"/>
<polygon fill="none" stroke="#000000" points="186.6857,-703.7 186.6857,-725.7 442.6857,-725.7 442.6857,-703.7 186.6857,-703.7"/>
<image xlink:href="../../images/foreignKeys.png" width="11px" height="12px" preserveAspectRatio="xMinYMin meet" x="191.686" y="-720.7"/>
<text text-anchor="start" x="206.6857" y="-710.8" font-family="Helvetica,sans-Serif" font-size="11.00" fill="#000000">oppija_oid</text>
<polygon fill="#ffffff" stroke="transparent" points="186.6857,-681.7 186.6857,-703.7 442.6857,-703.7 442.6857,-681.7 186.6857,-681.7"/>
<polygon fill="none" stroke="#000000" points="186.6857,-681.7 186.6857,-703.7 442.6857,-703.7 442.6857,-681.7 186.6857,-681.7"/>
<text text-anchor="start" x="206.6857" y="-688.8" font-family="Helvetica,sans-Serif" font-size="11.00" fill="#000000">aikaleima</text>
<polygon fill="#ffffff" stroke="transparent" points="186.6857,-659.7 186.6857,-681.7 442.6857,-681.7 442.6857,-659.7 186.6857,-659.7"/>
<polygon fill="none" stroke="#000000" points="186.6857,-659.7 186.6857,-681.7 442.6857,-681.7 442.6857,-659.7 186.6857,-659.7"/>
<text text-anchor="start" x="206.6857" y="-666.8" font-family="Helvetica,sans-Serif" font-size="11.00" fill="#000000">oppilaitos_oid</text>
<polygon fill="#ffffff" stroke="transparent" points="186.6857,-637.7 186.6857,-659.7 442.6857,-659.7 442.6857,-637.7 186.6857,-637.7"/>
<polygon fill="none" stroke="#000000" points="186.6857,-637.7 186.6857,-659.7 442.6857,-659.7 442.6857,-637.7 186.6857,-637.7"/>
<text text-anchor="start" x="206.6857" y="-644.8" font-family="Helvetica,sans-Serif" font-size="11.00" fill="#000000">sisaltava_opiskeluoikeus_oppilaitos_oid</text>
<polygon fill="#ffffff" stroke="transparent" points="186.6857,-615.7 186.6857,-637.7 442.6857,-637.7 442.6857,-615.7 186.6857,-615.7"/>
<polygon fill="none" stroke="#000000" points="186.6857,-615.7 186.6857,-637.7 442.6857,-637.7 442.6857,-615.7 186.6857,-615.7"/>
<text text-anchor="start" x="206.6857" y="-622.8" font-family="Helvetica,sans-Serif" font-size="11.00" fill="#000000">oid</text>
<polygon fill="none" stroke="#000000" points="186.6857,-593.7 186.6857,-615.7 442.6857,-615.7 442.6857,-593.7 186.6857,-593.7"/>
<image xlink:href="../../images/foreignKeys.png" width="11px" height="12px" preserveAspectRatio="xMinYMin meet" x="191.686" y="-610.7"/>
<text text-anchor="start" x="206.6857" y="-600.8" font-family="Helvetica,sans-Serif" font-size="11.00" fill="#000000">sisaltava_opiskeluoikeus_oid</text>
<polygon fill="#ffffff" stroke="transparent" points="186.6857,-571.7 186.6857,-593.7 442.6857,-593.7 442.6857,-571.7 186.6857,-571.7"/>
<polygon fill="none" stroke="#000000" points="186.6857,-571.7 186.6857,-593.7 442.6857,-593.7 442.6857,-571.7 186.6857,-571.7"/>
<text text-anchor="start" x="206.6857" y="-578.8" font-family="Helvetica,sans-Serif" font-size="11.00" fill="#000000">mitatoity</text>
<polygon fill="#ffffff" stroke="transparent" points="186.6857,-549.7 186.6857,-571.7 442.6857,-571.7 442.6857,-549.7 186.6857,-549.7"/>
<polygon fill="none" stroke="#000000" points="186.6857,-549.7 186.6857,-571.7 442.6857,-571.7 442.6857,-549.7 186.6857,-549.7"/>
<text text-anchor="start" x="206.6857" y="-556.8" font-family="Helvetica,sans-Serif" font-size="11.00" fill="#000000">koulutusmuoto</text>
<polygon fill="#ffffff" stroke="transparent" points="186.6857,-527.7 186.6857,-549.7 442.6857,-549.7 442.6857,-527.7 186.6857,-527.7"/>
<polygon fill="none" stroke="#000000" points="186.6857,-527.7 186.6857,-549.7 442.6857,-549.7 442.6857,-527.7 186.6857,-527.7"/>
<text text-anchor="start" x="206.6857" y="-534.8" font-family="Helvetica,sans-Serif" font-size="11.00" fill="#000000">alkamispaiva</text>
<polygon fill="#ffffff" stroke="transparent" points="186.6857,-505.7 186.6857,-527.7 442.6857,-527.7 442.6857,-505.7 186.6857,-505.7"/>
<polygon fill="none" stroke="#000000" points="186.6857,-505.7 186.6857,-527.7 442.6857,-527.7 442.6857,-505.7 186.6857,-505.7"/>
<text text-anchor="start" x="206.6857" y="-512.8" font-family="Helvetica,sans-Serif" font-size="11.00" fill="#000000">paattymispaiva</text>
<polygon fill="#ffffff" stroke="transparent" points="186.6857,-483.7 186.6857,-505.7 442.6857,-505.7 442.6857,-483.7 186.6857,-483.7"/>
<polygon fill="none" stroke="#000000" points="186.6857,-483.7 186.6857,-505.7 442.6857,-505.7 442.6857,-483.7 186.6857,-483.7"/>
<text text-anchor="start" x="206.6857" y="-490.8" font-family="Helvetica,sans-Serif" font-size="11.00" fill="#000000">suoritustyypit</text>
<polygon fill="#ffffff" stroke="transparent" points="186.6857,-461.7 186.6857,-483.7 442.6857,-483.7 442.6857,-461.7 186.6857,-461.7"/>
<polygon fill="none" stroke="#000000" points="186.6857,-461.7 186.6857,-483.7 442.6857,-483.7 442.6857,-461.7 186.6857,-461.7"/>
<text text-anchor="start" x="206.6857" y="-468.8" font-family="Helvetica,sans-Serif" font-size="11.00" fill="#000000">poistettu</text>
<polygon fill="none" stroke="#000000" points="186.6857,-442.7 186.6857,-461.7 442.6857,-461.7 442.6857,-442.7 186.6857,-442.7"/>
<text text-anchor="start" x="189.6857" y="-448.8" font-family="Helvetica,sans-Serif" font-size="11.00" fill="#000000">...</text>
<polygon fill="#ffffff" stroke="transparent" points="186.6857,-423.7 186.6857,-442.7 289.6857,-442.7 289.6857,-423.7 186.6857,-423.7"/>
<polygon fill="none" stroke="#000000" points="186.6857,-423.7 186.6857,-442.7 289.6857,-442.7 289.6857,-423.7 186.6857,-423.7"/>
<text text-anchor="start" x="189.6857" y="-429.8" font-family="Helvetica,sans-Serif" font-size="11.00" fill="#000000">&lt; 2</text>
<polygon fill="#ffffff" stroke="transparent" points="289.6857,-423.7 289.6857,-442.7 380.6857,-442.7 380.6857,-423.7 289.6857,-423.7"/>
<polygon fill="none" stroke="#000000" points="289.6857,-423.7 289.6857,-442.7 380.6857,-442.7 380.6857,-423.7 289.6857,-423.7"/>
<text text-anchor="start" x="333.0664" y="-429.8" font-family="Helvetica,sans-Serif" font-size="11.00" fill="#000000">186 rows</text>
<polygon fill="#ffffff" stroke="transparent" points="380.6857,-423.7 380.6857,-442.7 442.6857,-442.7 442.6857,-423.7 380.6857,-423.7"/>
<polygon fill="none" stroke="#000000" points="380.6857,-423.7 380.6857,-442.7 442.6857,-442.7 442.6857,-423.7 380.6857,-423.7"/>
<text text-anchor="start" x="424.091" y="-429.8" font-family="Helvetica,sans-Serif" font-size="11.00" fill="#000000">4 &gt;</text>
</a>
</g>
</g>
<!-- perustiedot_sync&#45;&gt;opiskeluoikeus -->
<g id="edge6" class="edge">
<title>perustiedot_sync:w&#45;&gt;opiskeluoikeus:e</title>
<path fill="none" stroke="#000000" d="M505.8503,-837.9183C469.0116,-821.3793 494.7011,-736.7 442.6857,-736.7"/>
<polygon fill="#000000" stroke="#000000" points="512.3322,-839.176 519.4999,-844.2341 516.259,-839.938 520.1857,-840.7 520.1857,-840.7 520.1857,-840.7 516.259,-839.938 520.8715,-837.1659 512.3322,-839.176 512.3322,-839.176"/>
<ellipse fill="none" stroke="#000000" cx="509.1908" cy="-838.5664" rx="3.2" ry="3.2"/>
</g>
<!-- opiskeluoikeushistoria -->
<g id="node2" class="node">
<title>opiskeluoikeushistoria</title>
<g id="a_node2"><a xlink:href="../../tables/opiskeluoikeushistoria.html" xlink:title="opiskeluoikeushistoria" target="_top">
<polygon fill="#ffffff" stroke="transparent" points="502.6857,-666.2 502.6857,-771.2 677.6857,-771.2 677.6857,-666.2 502.6857,-666.2"/>
<polygon fill="#f5f5f5" stroke="transparent" points="503.1857,-747.7 503.1857,-770.7 678.1857,-770.7 678.1857,-747.7 503.1857,-747.7"/>
<polygon fill="none" stroke="#000000" points="503.1857,-747.7 503.1857,-770.7 678.1857,-770.7 678.1857,-747.7 503.1857,-747.7"/>
<text text-anchor="start" x="508.1857" y="-756.3" font-family="Helvetica,sans-Serif" font-weight="bold" font-size="11.00" fill="#000000">opiskeluoikeushistoria</text>
<text text-anchor="start" x="643.7076" y="-755.8" font-family="Helvetica,sans-Serif" font-size="11.00" fill="#000000">[table]</text>
<polygon fill="none" stroke="#000000" points="503.1857,-725.7 503.1857,-747.7 678.1857,-747.7 678.1857,-725.7 503.1857,-725.7"/>
<image xlink:href="../../images/primaryKeys.png" width="11px" height="12px" preserveAspectRatio="xMinYMin meet" x="508.186" y="-742.7"/>
<text text-anchor="start" x="532.1857" y="-732.8" font-family="Helvetica,sans-Serif" font-size="11.00" fill="#000000">opiskeluoikeus_id</text>
<polygon fill="none" stroke="#000000" points="503.1857,-703.7 503.1857,-725.7 678.1857,-725.7 678.1857,-703.7 503.1857,-703.7"/>
<image xlink:href="../../images/primaryKeys.png" width="11px" height="12px" preserveAspectRatio="xMinYMin meet" x="508.186" y="-720.7"/>
<text text-anchor="start" x="532.1857" y="-710.8" font-family="Helvetica,sans-Serif" font-size="11.00" fill="#000000">versionumero</text>
<polygon fill="none" stroke="#000000" points="503.1857,-684.7 503.1857,-703.7 678.1857,-703.7 678.1857,-684.7 503.1857,-684.7"/>
<text text-anchor="start" x="506.1857" y="-690.8" font-family="Helvetica,sans-Serif" font-size="11.00" fill="#000000">...</text>
<polygon fill="#ffffff" stroke="transparent" points="503.1857,-665.7 503.1857,-684.7 570.1857,-684.7 570.1857,-665.7 503.1857,-665.7"/>
<polygon fill="none" stroke="#000000" points="503.1857,-665.7 503.1857,-684.7 570.1857,-684.7 570.1857,-665.7 503.1857,-665.7"/>
<text text-anchor="start" x="506.1857" y="-671.8" font-family="Helvetica,sans-Serif" font-size="11.00" fill="#000000">&lt; 1</text>
<polygon fill="#ffffff" stroke="transparent" points="570.1857,-665.7 570.1857,-684.7 643.1857,-684.7 643.1857,-665.7 570.1857,-665.7"/>
<polygon fill="none" stroke="#000000" points="570.1857,-665.7 570.1857,-684.7 643.1857,-684.7 643.1857,-665.7 570.1857,-665.7"/>
<text text-anchor="start" x="595.5664" y="-671.8" font-family="Helvetica,sans-Serif" font-size="11.00" fill="#000000">188 rows</text>
<polygon fill="#ffffff" stroke="transparent" points="643.1857,-665.7 643.1857,-684.7 678.1857,-684.7 678.1857,-665.7 643.1857,-665.7"/>
<polygon fill="none" stroke="#000000" points="643.1857,-665.7 643.1857,-684.7 678.1857,-684.7 678.1857,-665.7 643.1857,-665.7"/>
<text text-anchor="start" x="669.0719" y="-671.8" font-family="Helvetica,sans-Serif" font-size="11.00" fill="#000000"> &#160;</text>
</a>
</g>
</g>
<!-- opiskeluoikeushistoria&#45;&gt;opiskeluoikeus -->
<g id="edge4" class="edge">
<title>opiskeluoikeushistoria:w&#45;&gt;opiskeluoikeus:e</title>
<path fill="none" stroke="#000000" d="M488.4835,-736.7C472.5636,-736.7 463.9028,-736.7 442.6857,-736.7"/>
<polygon fill="#000000" stroke="#000000" points="495.1857,-736.7001 503.1858,-740.3 499.1857,-736.7 503.1857,-736.7 503.1857,-736.7 503.1857,-736.7 499.1857,-736.7 503.1857,-733.1 495.1857,-736.7001 495.1857,-736.7001"/>
<ellipse fill="none" stroke="#000000" cx="491.9857" cy="-736.7001" rx="3.2" ry="3.2"/>
</g>
<!-- perustiedot_manual_sync -->
<g id="node3" class="node">
<title>perustiedot_manual_sync</title>
<g id="a_node3"><a xlink:href="../../tables/perustiedot_manual_sync.html" xlink:title="perustiedot_manual_sync" target="_top">
<polygon fill="#ffffff" stroke="transparent" points="494.6857,-540.2 494.6857,-645.2 685.6857,-645.2 685.6857,-540.2 494.6857,-540.2"/>
<polygon fill="#f5f5f5" stroke="transparent" points="495.1857,-621.7 495.1857,-644.7 686.1857,-644.7 686.1857,-621.7 495.1857,-621.7"/>
<polygon fill="none" stroke="#000000" points="495.1857,-621.7 495.1857,-644.7 686.1857,-644.7 686.1857,-621.7 495.1857,-621.7"/>
<text text-anchor="start" x="500.1857" y="-630.3" font-family="Helvetica,sans-Serif" font-weight="bold" font-size="11.00" fill="#000000">perustiedot_manual_sync</text>
<text text-anchor="start" x="651.7076" y="-629.8" font-family="Helvetica,sans-Serif" font-size="11.00" fill="#000000">[table]</text>
<polygon fill="none" stroke="#000000" points="495.1857,-599.7 495.1857,-621.7 686.1857,-621.7 686.1857,-599.7 495.1857,-599.7"/>
<image xlink:href="../../images/primaryKeys.png" width="11px" height="12px" preserveAspectRatio="xMinYMin meet" x="500.186" y="-616.7"/>
<text text-anchor="start" x="524.1857" y="-606.8" font-family="Helvetica,sans-Serif" font-size="11.00" fill="#000000">id</text>
<polygon fill="none" stroke="#000000" points="495.1857,-577.7 495.1857,-599.7 686.1857,-599.7 686.1857,-577.7 495.1857,-577.7"/>
<image xlink:href="../../images/foreignKeys.png" width="11px" height="12px" preserveAspectRatio="xMinYMin meet" x="500.186" y="-594.7"/>
<text text-anchor="start" x="524.1857" y="-584.8" font-family="Helvetica,sans-Serif" font-size="11.00" fill="#000000">opiskeluoikeus_oid</text>
<polygon fill="none" stroke="#000000" points="495.1857,-558.7 495.1857,-577.7 686.1857,-577.7 686.1857,-558.7 495.1857,-558.7"/>
<text text-anchor="start" x="498.1857" y="-564.8" font-family="Helvetica,sans-Serif" font-size="11.00" fill="#000000">...</text>
<polygon fill="#ffffff" stroke="transparent" points="495.1857,-539.7 495.1857,-558.7 589.1857,-558.7 589.1857,-539.7 495.1857,-539.7"/>
<polygon fill="none" stroke="#000000" points="495.1857,-539.7 495.1857,-558.7 589.1857,-558.7 589.1857,-539.7 495.1857,-539.7"/>
<text text-anchor="start" x="498.1857" y="-545.8" font-family="Helvetica,sans-Serif" font-size="11.00" fill="#000000">&lt; 1</text>
<polygon fill="#ffffff" stroke="transparent" points="589.1857,-539.7 589.1857,-558.7 637.1857,-558.7 637.1857,-539.7 589.1857,-539.7"/>
<polygon fill="none" stroke="#000000" points="589.1857,-539.7 589.1857,-558.7 637.1857,-558.7 637.1857,-539.7 589.1857,-539.7"/>
<text text-anchor="start" x="628.0719" y="-545.8" font-family="Helvetica,sans-Serif" font-size="11.00" fill="#000000"> &#160;</text>
<polygon fill="#ffffff" stroke="transparent" points="637.1857,-539.7 637.1857,-558.7 686.1857,-558.7 686.1857,-539.7 637.1857,-539.7"/>
<polygon fill="none" stroke="#000000" points="637.1857,-539.7 637.1857,-558.7 686.1857,-558.7 686.1857,-539.7 637.1857,-539.7"/>
<text text-anchor="start" x="677.0719" y="-545.8" font-family="Helvetica,sans-Serif" font-size="11.00" fill="#000000"> &#160;</text>
</a>
</g>
</g>
<!-- perustiedot_manual_sync&#45;&gt;opiskeluoikeus -->
<g id="edge5" class="edge">
<title>perustiedot_manual_sync:w&#45;&gt;opiskeluoikeus:e</title>
<path fill="none" stroke="#000000" d="M481.2624,-592.7667C467.0576,-602.5696 465.6391,-626.7 442.6857,-626.7"/>
<polygon fill="#000000" stroke="#000000" points="487.5066,-590.9429 496.1951,-592.1556 491.3462,-589.8215 495.1857,-588.7 495.1857,-588.7 495.1857,-588.7 491.3462,-589.8215 494.1764,-585.2444 487.5066,-590.9429 487.5066,-590.9429"/>
<ellipse fill="none" stroke="#000000" cx="484.4349" cy="-591.8401" rx="3.2" ry="3.2"/>
</g>
<!-- ytr_opiskeluoikeushistoria -->
<g id="node4" class="node">
<title>ytr_opiskeluoikeushistoria</title>
<g id="a_node4"><a xlink:href="../../tables/ytr_opiskeluoikeushistoria.html" xlink:title="ytr_opiskeluoikeushistoria" target="_top">
<polygon fill="#ffffff" stroke="transparent" points="491.6857,-280.2 491.6857,-385.2 688.6857,-385.2 688.6857,-280.2 491.6857,-280.2"/>
<polygon fill="#f5f5f5" stroke="transparent" points="492.1857,-361.7 492.1857,-384.7 689.1857,-384.7 689.1857,-361.7 492.1857,-361.7"/>
<polygon fill="none" stroke="#000000" points="492.1857,-361.7 492.1857,-384.7 689.1857,-384.7 689.1857,-361.7 492.1857,-361.7"/>
<text text-anchor="start" x="497.1857" y="-370.3" font-family="Helvetica,sans-Serif" font-weight="bold" font-size="11.00" fill="#000000">ytr_opiskeluoikeushistoria</text>
<text text-anchor="start" x="654.7076" y="-369.8" font-family="Helvetica,sans-Serif" font-size="11.00" fill="#000000">[table]</text>
<polygon fill="none" stroke="#000000" points="492.1857,-339.7 492.1857,-361.7 689.1857,-361.7 689.1857,-339.7 492.1857,-339.7"/>
<image xlink:href="../../images/primaryKeys.png" width="11px" height="12px" preserveAspectRatio="xMinYMin meet" x="497.186" y="-356.7"/>
<text text-anchor="start" x="521.1857" y="-346.8" font-family="Helvetica,sans-Serif" font-size="11.00" fill="#000000">opiskeluoikeus_id</text>
<polygon fill="none" stroke="#000000" points="492.1857,-317.7 492.1857,-339.7 689.1857,-339.7 689.1857,-317.7 492.1857,-317.7"/>
<image xlink:href="../../images/primaryKeys.png" width="11px" height="12px" preserveAspectRatio="xMinYMin meet" x="497.186" y="-334.7"/>
<text text-anchor="start" x="521.1857" y="-324.8" font-family="Helvetica,sans-Serif" font-size="11.00" fill="#000000">versionumero</text>
<polygon fill="none" stroke="#000000" points="492.1857,-298.7 492.1857,-317.7 689.1857,-317.7 689.1857,-298.7 492.1857,-298.7"/>
<text text-anchor="start" x="495.1857" y="-304.8" font-family="Helvetica,sans-Serif" font-size="11.00" fill="#000000">...</text>
<polygon fill="#ffffff" stroke="transparent" points="492.1857,-279.7 492.1857,-298.7 576.1857,-298.7 576.1857,-279.7 492.1857,-279.7"/>
<polygon fill="none" stroke="#000000" points="492.1857,-279.7 492.1857,-298.7 576.1857,-298.7 576.1857,-279.7 492.1857,-279.7"/>
<text text-anchor="start" x="495.1857" y="-285.8" font-family="Helvetica,sans-Serif" font-size="11.00" fill="#000000">&lt; 1</text>
<polygon fill="#ffffff" stroke="transparent" points="576.1857,-279.7 576.1857,-298.7 645.1857,-298.7 645.1857,-279.7 576.1857,-279.7"/>
<polygon fill="none" stroke="#000000" points="576.1857,-279.7 576.1857,-298.7 645.1857,-298.7 645.1857,-279.7 576.1857,-279.7"/>
<text text-anchor="start" x="609.7962" y="-285.8" font-family="Helvetica,sans-Serif" font-size="11.00" fill="#000000">9 rows</text>
<polygon fill="#ffffff" stroke="transparent" points="645.1857,-279.7 645.1857,-298.7 689.1857,-298.7 689.1857,-279.7 645.1857,-279.7"/>
<polygon fill="none" stroke="#000000" points="645.1857,-279.7 645.1857,-298.7 689.1857,-298.7 689.1857,-279.7 645.1857,-279.7"/>
<text text-anchor="start" x="680.0719" y="-285.8" font-family="Helvetica,sans-Serif" font-size="11.00" fill="#000000"> &#160;</text>
</a>
</g>
</g>
<!-- ytr_opiskeluoikeus -->
<g id="node6" class="node">
<title>ytr_opiskeluoikeus</title>
<g id="a_node6"><a xlink:href="../../tables/ytr_opiskeluoikeus.html" xlink:title="ytr_opiskeluoikeus" target="_top">
<polygon fill="#ffffff" stroke="transparent" points="186.6857,-38.2 186.6857,-385.2 442.6857,-385.2 442.6857,-38.2 186.6857,-38.2"/>
<polygon fill="#f5f5f5" stroke="transparent" points="186.6857,-361.7 186.6857,-384.7 442.6857,-384.7 442.6857,-361.7 186.6857,-361.7"/>
<polygon fill="none" stroke="#000000" points="186.6857,-361.7 186.6857,-384.7 442.6857,-384.7 442.6857,-361.7 186.6857,-361.7"/>
<text text-anchor="start" x="191.6857" y="-370.3" font-family="Helvetica,sans-Serif" font-weight="bold" font-size="11.00" fill="#000000">ytr_opiskeluoikeus</text>
<text text-anchor="start" x="407.7294" y="-369.8" font-family="Helvetica,sans-Serif" font-size="11.00" fill="#000000">[table]</text>
<polygon fill="none" stroke="#000000" points="186.6857,-339.7 186.6857,-361.7 442.6857,-361.7 442.6857,-339.7 186.6857,-339.7"/>
<image xlink:href="../../images/primaryKeys.png" width="11px" height="12px" preserveAspectRatio="xMinYMin meet" x="191.686" y="-356.7"/>
<text text-anchor="start" x="206.6857" y="-346.8" font-family="Helvetica,sans-Serif" font-size="11.00" fill="#000000">id</text>
<polygon fill="#ffffff" stroke="transparent" points="186.6857,-317.7 186.6857,-339.7 442.6857,-339.7 442.6857,-317.7 186.6857,-317.7"/>
<polygon fill="none" stroke="#000000" points="186.6857,-317.7 186.6857,-339.7 442.6857,-339.7 442.6857,-317.7 186.6857,-317.7"/>
<image xlink:href="../../images/foreignKeys.png" width="11px" height="12px" preserveAspectRatio="xMinYMin meet" x="191.686" y="-334.7"/>
<text text-anchor="start" x="206.6857" y="-324.8" font-family="Helvetica,sans-Serif" font-size="11.00" fill="#000000">oppija_oid</text>
<polygon fill="#ffffff" stroke="transparent" points="186.6857,-295.7 186.6857,-317.7 442.6857,-317.7 442.6857,-295.7 186.6857,-295.7"/>
<polygon fill="none" stroke="#000000" points="186.6857,-295.7 186.6857,-317.7 442.6857,-317.7 442.6857,-295.7 186.6857,-295.7"/>
<text text-anchor="start" x="206.6857" y="-302.8" font-family="Helvetica,sans-Serif" font-size="11.00" fill="#000000">aikaleima</text>
<polygon fill="#ffffff" stroke="transparent" points="186.6857,-273.7 186.6857,-295.7 442.6857,-295.7 442.6857,-273.7 186.6857,-273.7"/>
<polygon fill="none" stroke="#000000" points="186.6857,-273.7 186.6857,-295.7 442.6857,-295.7 442.6857,-273.7 186.6857,-273.7"/>
<text text-anchor="start" x="206.6857" y="-280.8" font-family="Helvetica,sans-Serif" font-size="11.00" fill="#000000">oppilaitos_oid</text>
<polygon fill="#ffffff" stroke="transparent" points="186.6857,-251.7 186.6857,-273.7 442.6857,-273.7 442.6857,-251.7 186.6857,-251.7"/>
<polygon fill="none" stroke="#000000" points="186.6857,-251.7 186.6857,-273.7 442.6857,-273.7 442.6857,-251.7 186.6857,-251.7"/>
<text text-anchor="start" x="206.6857" y="-258.8" font-family="Helvetica,sans-Serif" font-size="11.00" fill="#000000">sisaltava_opiskeluoikeus_oppilaitos_oid</text>
<polygon fill="#ffffff" stroke="transparent" points="186.6857,-229.7 186.6857,-251.7 442.6857,-251.7 442.6857,-229.7 186.6857,-229.7"/>
<polygon fill="none" stroke="#000000" points="186.6857,-229.7 186.6857,-251.7 442.6857,-251.7 442.6857,-229.7 186.6857,-229.7"/>
<text text-anchor="start" x="206.6857" y="-236.8" font-family="Helvetica,sans-Serif" font-size="11.00" fill="#000000">oid</text>
<polygon fill="none" stroke="#000000" points="186.6857,-207.7 186.6857,-229.7 442.6857,-229.7 442.6857,-207.7 186.6857,-207.7"/>
<image xlink:href="../../images/foreignKeys.png" width="11px" height="12px" preserveAspectRatio="xMinYMin meet" x="191.686" y="-224.7"/>
<text text-anchor="start" x="206.6857" y="-214.8" font-family="Helvetica,sans-Serif" font-size="11.00" fill="#000000">sisaltava_opiskeluoikeus_oid</text>
<polygon fill="#ffffff" stroke="transparent" points="186.6857,-185.7 186.6857,-207.7 442.6857,-207.7 442.6857,-185.7 186.6857,-185.7"/>
<polygon fill="none" stroke="#000000" points="186.6857,-185.7 186.6857,-207.7 442.6857,-207.7 442.6857,-185.7 186.6857,-185.7"/>
<text text-anchor="start" x="206.6857" y="-192.8" font-family="Helvetica,sans-Serif" font-size="11.00" fill="#000000">mitatoity</text>
<polygon fill="#ffffff" stroke="transparent" points="186.6857,-163.7 186.6857,-185.7 442.6857,-185.7 442.6857,-163.7 186.6857,-163.7"/>
<polygon fill="none" stroke="#000000" points="186.6857,-163.7 186.6857,-185.7 442.6857,-185.7 442.6857,-163.7 186.6857,-163.7"/>
<text text-anchor="start" x="206.6857" y="-170.8" font-family="Helvetica,sans-Serif" font-size="11.00" fill="#000000">koulutusmuoto</text>
<polygon fill="#ffffff" stroke="transparent" points="186.6857,-141.7 186.6857,-163.7 442.6857,-163.7 442.6857,-141.7 186.6857,-141.7"/>
<polygon fill="none" stroke="#000000" points="186.6857,-141.7 186.6857,-163.7 442.6857,-163.7 442.6857,-141.7 186.6857,-141.7"/>
<text text-anchor="start" x="206.6857" y="-148.8" font-family="Helvetica,sans-Serif" font-size="11.00" fill="#000000">alkamispaiva</text>
<polygon fill="#ffffff" stroke="transparent" points="186.6857,-119.7 186.6857,-141.7 442.6857,-141.7 442.6857,-119.7 186.6857,-119.7"/>
<polygon fill="none" stroke="#000000" points="186.6857,-119.7 186.6857,-141.7 442.6857,-141.7 442.6857,-119.7 186.6857,-119.7"/>
<text text-anchor="start" x="206.6857" y="-126.8" font-family="Helvetica,sans-Serif" font-size="11.00" fill="#000000">paattymispaiva</text>
<polygon fill="#ffffff" stroke="transparent" points="186.6857,-97.7 186.6857,-119.7 442.6857,-119.7 442.6857,-97.7 186.6857,-97.7"/>
<polygon fill="none" stroke="#000000" points="186.6857,-97.7 186.6857,-119.7 442.6857,-119.7 442.6857,-97.7 186.6857,-97.7"/>
<text text-anchor="start" x="206.6857" y="-104.8" font-family="Helvetica,sans-Serif" font-size="11.00" fill="#000000">suoritustyypit</text>
<polygon fill="#ffffff" stroke="transparent" points="186.6857,-75.7 186.6857,-97.7 442.6857,-97.7 442.6857,-75.7 186.6857,-75.7"/>
<polygon fill="none" stroke="#000000" points="186.6857,-75.7 186.6857,-97.7 442.6857,-97.7 442.6857,-75.7 186.6857,-75.7"/>
<text text-anchor="start" x="206.6857" y="-82.8" font-family="Helvetica,sans-Serif" font-size="11.00" fill="#000000">poistettu</text>
<polygon fill="none" stroke="#000000" points="186.6857,-56.7 186.6857,-75.7 442.6857,-75.7 442.6857,-56.7 186.6857,-56.7"/>
<text text-anchor="start" x="189.6857" y="-62.8" font-family="Helvetica,sans-Serif" font-size="11.00" fill="#000000">...</text>
<polygon fill="#ffffff" stroke="transparent" points="186.6857,-37.7 186.6857,-56.7 295.6857,-56.7 295.6857,-37.7 186.6857,-37.7"/>
<polygon fill="none" stroke="#000000" points="186.6857,-37.7 186.6857,-56.7 295.6857,-56.7 295.6857,-37.7 186.6857,-37.7"/>
<text text-anchor="start" x="189.6857" y="-43.8" font-family="Helvetica,sans-Serif" font-size="11.00" fill="#000000">&lt; 2</text>
<polygon fill="#ffffff" stroke="transparent" points="295.6857,-37.7 295.6857,-56.7 377.6857,-56.7 377.6857,-37.7 295.6857,-37.7"/>
<polygon fill="none" stroke="#000000" points="295.6857,-37.7 295.6857,-56.7 377.6857,-56.7 377.6857,-37.7 295.6857,-37.7"/>
<text text-anchor="start" x="342.2962" y="-43.8" font-family="Helvetica,sans-Serif" font-size="11.00" fill="#000000">9 rows</text>
<polygon fill="#ffffff" stroke="transparent" points="377.6857,-37.7 377.6857,-56.7 442.6857,-56.7 442.6857,-37.7 377.6857,-37.7"/>
<polygon fill="none" stroke="#000000" points="377.6857,-37.7 377.6857,-56.7 442.6857,-56.7 442.6857,-37.7 377.6857,-37.7"/>
<text text-anchor="start" x="424.091" y="-43.8" font-family="Helvetica,sans-Serif" font-size="11.00" fill="#000000">2 &gt;</text>
</a>
</g>
</g>
<!-- ytr_opiskeluoikeushistoria&#45;&gt;ytr_opiskeluoikeus -->
<g id="edge9" class="edge">
<title>ytr_opiskeluoikeushistoria:w&#45;&gt;ytr_opiskeluoikeus:e</title>
<path fill="none" stroke="#000000" d="M477.5286,-350.7C466.0997,-350.7 458.842,-350.7 442.6857,-350.7"/>
<polygon fill="#000000" stroke="#000000" points="484.1857,-350.7001 492.1858,-354.3 488.1857,-350.7 492.1857,-350.7 492.1857,-350.7 492.1857,-350.7 488.1857,-350.7 492.1857,-347.1 484.1857,-350.7001 484.1857,-350.7001"/>
<ellipse fill="none" stroke="#000000" cx="480.9857" cy="-350.7001" rx="3.2" ry="3.2"/>
</g>
<!-- opiskeluoikeus&#45;&gt;opiskeluoikeus -->
<g id="edge3" class="edge">
<title>opiskeluoikeus:w&#45;&gt;opiskeluoikeus:e</title>
<path fill="none" stroke="#000000" d="M177.6522,-616.0018C130.7777,-681.4088 140.6359,-788.2 314.6857,-788.2 499.1857,-788.2 499.1857,-690.2 442.6857,-626.7"/>
<polygon fill="#000000" stroke="#000000" points="181.6908,-610.9491 189.4978,-606.9477 184.1883,-607.8245 186.6857,-604.7 186.6857,-604.7 186.6857,-604.7 184.1883,-607.8245 183.8737,-602.4523 181.6908,-610.9491 181.6908,-610.9491"/>
<ellipse fill="none" stroke="#000000" cx="179.6928" cy="-613.4487" rx="3.2" ry="3.2"/>
</g>
<!-- henkilo -->
<g id="node7" class="node">
<title>henkilo</title>
<g id="a_node7"><a xlink:href="../../tables/henkilo.html" xlink:title="henkilo" target="_top">
<polygon fill="#ffffff" stroke="transparent" points="37.6857,-451.2 37.6857,-556.2 137.6857,-556.2 137.6857,-451.2 37.6857,-451.2"/>
<polygon fill="#f5f5f5" stroke="transparent" points="37.6857,-532.7 37.6857,-555.7 137.6857,-555.7 137.6857,-532.7 37.6857,-532.7"/>
<polygon fill="none" stroke="#000000" points="37.6857,-532.7 37.6857,-555.7 137.6857,-555.7 137.6857,-532.7 37.6857,-532.7"/>
<text text-anchor="start" x="42.6857" y="-541.3" font-family="Helvetica,sans-Serif" font-weight="bold" font-size="11.00" fill="#000000">henkilo</text>
<text text-anchor="start" x="102.7294" y="-540.8" font-family="Helvetica,sans-Serif" font-size="11.00" fill="#000000">[table]</text>
<polygon fill="none" stroke="#000000" points="37.6857,-510.7 37.6857,-532.7 137.6857,-532.7 137.6857,-510.7 37.6857,-510.7"/>
<image xlink:href="../../images/primaryKeys.png" width="11px" height="12px" preserveAspectRatio="xMinYMin meet" x="42.6857" y="-527.7"/>
<text text-anchor="start" x="57.6857" y="-517.8" font-family="Helvetica,sans-Serif" font-size="11.00" fill="#000000">oid</text>
<polygon fill="#ffffff" stroke="transparent" points="37.6857,-488.7 37.6857,-510.7 137.6857,-510.7 137.6857,-488.7 37.6857,-488.7"/>
<polygon fill="none" stroke="#000000" points="37.6857,-488.7 37.6857,-510.7 137.6857,-510.7 137.6857,-488.7 37.6857,-488.7"/>
<image xlink:href="../../images/foreignKeys.png" width="11px" height="12px" preserveAspectRatio="xMinYMin meet" x="42.6857" y="-505.7"/>
<text text-anchor="start" x="57.6857" y="-495.8" font-family="Helvetica,sans-Serif" font-size="11.00" fill="#000000">master_oid</text>
<polygon fill="none" stroke="#000000" points="37.6857,-469.7 37.6857,-488.7 137.6857,-488.7 137.6857,-469.7 37.6857,-469.7"/>
<text text-anchor="start" x="40.6857" y="-475.8" font-family="Helvetica,sans-Serif" font-size="11.00" fill="#000000">...</text>
<polygon fill="#ffffff" stroke="transparent" points="37.6857,-450.7 37.6857,-469.7 62.6857,-469.7 62.6857,-450.7 37.6857,-450.7"/>
<polygon fill="none" stroke="#000000" points="37.6857,-450.7 37.6857,-469.7 62.6857,-469.7 62.6857,-450.7 37.6857,-450.7"/>
<text text-anchor="start" x="40.6857" y="-456.8" font-family="Helvetica,sans-Serif" font-size="11.00" fill="#000000">&lt; 1</text>
<polygon fill="#ffffff" stroke="transparent" points="62.6857,-450.7 62.6857,-469.7 114.6857,-469.7 114.6857,-450.7 62.6857,-450.7"/>
<polygon fill="none" stroke="#000000" points="62.6857,-450.7 62.6857,-469.7 114.6857,-469.7 114.6857,-450.7 62.6857,-450.7"/>
<text text-anchor="start" x="67.0664" y="-456.8" font-family="Helvetica,sans-Serif" font-size="11.00" fill="#000000">203 rows</text>
<polygon fill="#ffffff" stroke="transparent" points="114.6857,-450.7 114.6857,-469.7 137.6857,-469.7 137.6857,-450.7 114.6857,-450.7"/>
<polygon fill="none" stroke="#000000" points="114.6857,-450.7 114.6857,-469.7 137.6857,-469.7 137.6857,-450.7 114.6857,-450.7"/>
<text text-anchor="start" x="119.091" y="-456.8" font-family="Helvetica,sans-Serif" font-size="11.00" fill="#000000">3 &gt;</text>
</a>
</g>
</g>
<!-- opiskeluoikeus&#45;&gt;henkilo -->
<g id="edge2" class="edge">
<title>opiskeluoikeus:w&#45;&gt;henkilo:e</title>
<path fill="none" stroke="#000000" d="M176.0305,-713.5666C109.2496,-697.7496 222.2093,-521.7 137.6857,-521.7"/>
<polygon fill="#000000" stroke="#000000" points="186.3134,-710.6378 185.4671,-718.5929 183.8761,-718.4237 184.7223,-710.4686 186.3134,-710.6378"/>
<polyline fill="none" stroke="#000000" points="186.6857,-714.7 182.7082,-714.2769 "/>
<ellipse fill="none" stroke="#000000" cx="179.5261" cy="-713.9384" rx="3.2" ry="3.2"/>
</g>
<!-- ytr_opiskeluoikeus&#45;&gt;ytr_opiskeluoikeus -->
<g id="edge8" class="edge">
<title>ytr_opiskeluoikeus:w&#45;&gt;ytr_opiskeluoikeus:e</title>
<path fill="none" stroke="#000000" d="M177.6522,-230.0018C130.7777,-295.4088 140.6359,-402.2 314.6857,-402.2 499.1857,-402.2 499.1857,-304.2 442.6857,-240.7"/>
<polygon fill="#000000" stroke="#000000" points="181.6908,-224.9491 189.4978,-220.9477 184.1883,-221.8245 186.6857,-218.7 186.6857,-218.7 186.6857,-218.7 184.1883,-221.8245 183.8737,-216.4523 181.6908,-224.9491 181.6908,-224.9491"/>
<ellipse fill="none" stroke="#000000" cx="179.6928" cy="-227.4487" rx="3.2" ry="3.2"/>
</g>
<!-- ytr_opiskeluoikeus&#45;&gt;henkilo -->
<g id="edge7" class="edge">
<title>ytr_opiskeluoikeus:w&#45;&gt;henkilo:e</title>
<path fill="none" stroke="#000000" d="M176.0305,-329.8334C109.2496,-345.6504 222.2093,-521.7 137.6857,-521.7"/>
<polygon fill="#000000" stroke="#000000" points="185.4671,-324.8071 186.3134,-332.7622 184.7223,-332.9314 183.8761,-324.9763 185.4671,-324.8071"/>
<polyline fill="none" stroke="#000000" points="186.6857,-328.7 182.7082,-329.1231 "/>
<ellipse fill="none" stroke="#000000" cx="179.5261" cy="-329.4616" rx="3.2" ry="3.2"/>
</g>
<!-- henkilo&#45;&gt;henkilo -->
<g id="edge1" class="edge">
<title>henkilo:w&#45;&gt;henkilo:e</title>
<path fill="none" stroke="#000000" d="M24.6756,-506.0659C-18.0631,-530.9661 -9.8699,-573.2 87.6857,-573.2 194.1857,-573.2 194.1857,-544.8667 137.6857,-521.7"/>
<polygon fill="#000000" stroke="#000000" points="30.4998,-503.2161 39.268,-502.9337 34.0928,-501.458 37.6857,-499.7 37.6857,-499.7 37.6857,-499.7 34.0928,-501.458 36.1035,-496.4663 30.4998,-503.2161 30.4998,-503.2161"/>
<ellipse fill="none" stroke="#000000" cx="27.6255" cy="-504.6225" rx="3.2" ry="3.2"/>
</g>
</g>
</svg>
