<?xml version="1.0" encoding="UTF-8" standalone="no"?>
<!DOCTYPE svg PUBLIC "-//W3C//DTD SVG 1.1//EN"
 "http://www.w3.org/Graphics/SVG/1.1/DTD/svg11.dtd">
<!-- Generated by graphviz version 2.40.1 (20161225.0304)
 -->
<!-- Title: largeRelationshipsDiagram Pages: 1 -->
<svg width="707pt" height="1136pt"
 viewBox="0.00 0.00 707.44 1136.20" xmlns="http://www.w3.org/2000/svg" xmlns:xlink="http://www.w3.org/1999/xlink">
<g id="graph0" class="graph" transform="scale(1 1) rotate(0) translate(4 1132.2)">
<title>largeRelationshipsDiagram</title>
<polygon fill="#ffffff" stroke="transparent" points="-4,4 -4,-1132.2 703.4369,-1132.2 703.4369,4 -4,4"/>
<text text-anchor="middle" x="72.4936" y="-7.3" font-family="Helvetica,sans-Serif" font-size="11.00" fill="#000000">Generated by SchemaSpy</text>
<!-- perustiedot_sync -->
<g id="node1" class="node">
<title>perustiedot_sync</title>
<g id="a_node1"><a xlink:href="../../tables/perustiedot_sync.html" xlink:title="perustiedot_sync" target="_top">
<polygon fill="#ffffff" stroke="transparent" points="522.4369,-972.2 522.4369,-1124.2 662.4369,-1124.2 662.4369,-972.2 522.4369,-972.2"/>
<polygon fill="#f5f5f5" stroke="transparent" points="522.4369,-1101.2 522.4369,-1124.2 662.4369,-1124.2 662.4369,-1101.2 522.4369,-1101.2"/>
<polygon fill="none" stroke="#000000" points="522.4369,-1101.2 522.4369,-1124.2 662.4369,-1124.2 662.4369,-1101.2 522.4369,-1101.2"/>
<text text-anchor="start" x="527.4369" y="-1109.8" font-family="Helvetica,sans-Serif" font-weight="bold" font-size="11.00" fill="#000000">perustiedot_sync</text>
<text text-anchor="start" x="627.9587" y="-1109.3" font-family="Helvetica,sans-Serif" font-size="11.00" fill="#000000">[table]</text>
<polygon fill="none" stroke="#000000" points="522.4369,-1079.2 522.4369,-1101.2 662.4369,-1101.2 662.4369,-1079.2 522.4369,-1079.2"/>
<image xlink:href="../../images/primaryKeys.png" width="11px" height="12px" preserveAspectRatio="xMinYMin meet" x="527.437" y="-1096.2"/>
<text text-anchor="start" x="549.4369" y="-1086.3" font-family="Helvetica,sans-Serif" font-size="11.00" fill="#000000">id</text>
<polygon fill="none" stroke="#000000" points="522.4369,-1057.2 522.4369,-1079.2 662.4369,-1079.2 662.4369,-1057.2 522.4369,-1057.2"/>
<image xlink:href="../../images/foreignKeys.png" width="11px" height="12px" preserveAspectRatio="xMinYMin meet" x="527.437" y="-1074.2"/>
<text text-anchor="start" x="549.4369" y="-1064.3" font-family="Helvetica,sans-Serif" font-size="11.00" fill="#000000">opiskeluoikeus_id</text>
<polygon fill="none" stroke="#000000" points="522.4369,-1035.2 522.4369,-1057.2 662.4369,-1057.2 662.4369,-1035.2 522.4369,-1035.2"/>
<text text-anchor="start" x="549.4369" y="-1042.3" font-family="Helvetica,sans-Serif" font-size="11.00" fill="#000000">aikaleima</text>
<polygon fill="none" stroke="#000000" points="522.4369,-1013.2 522.4369,-1035.2 662.4369,-1035.2 662.4369,-1013.2 522.4369,-1013.2"/>
<text text-anchor="start" x="549.4369" y="-1020.3" font-family="Helvetica,sans-Serif" font-size="11.00" fill="#000000">upsert</text>
<polygon fill="none" stroke="#000000" points="522.4369,-991.2 522.4369,-1013.2 662.4369,-1013.2 662.4369,-991.2 522.4369,-991.2"/>
<text text-anchor="start" x="549.4369" y="-998.3" font-family="Helvetica,sans-Serif" font-size="11.00" fill="#000000">data</text>
<polygon fill="#ffffff" stroke="transparent" points="522.4369,-972.2 522.4369,-991.2 577.4369,-991.2 577.4369,-972.2 522.4369,-972.2"/>
<polygon fill="none" stroke="#000000" points="522.4369,-972.2 522.4369,-991.2 577.4369,-991.2 577.4369,-972.2 522.4369,-972.2"/>
<text text-anchor="start" x="525.4369" y="-978.3" font-family="Helvetica,sans-Serif" font-size="11.00" fill="#000000">&lt; 1</text>
<polygon fill="#ffffff" stroke="transparent" points="577.4369,-972.2 577.4369,-991.2 632.4369,-991.2 632.4369,-972.2 577.4369,-972.2"/>
<polygon fill="none" stroke="#000000" points="577.4369,-972.2 577.4369,-991.2 632.4369,-991.2 632.4369,-972.2 577.4369,-972.2"/>
<text text-anchor="start" x="597.0474" y="-978.3" font-family="Helvetica,sans-Serif" font-size="11.00" fill="#000000">0 rows</text>
<polygon fill="#ffffff" stroke="transparent" points="632.4369,-972.2 632.4369,-991.2 662.4369,-991.2 662.4369,-972.2 632.4369,-972.2"/>
<polygon fill="none" stroke="#000000" points="632.4369,-972.2 632.4369,-991.2 662.4369,-991.2 662.4369,-972.2 632.4369,-972.2"/>
<text text-anchor="start" x="653.3231" y="-978.3" font-family="Helvetica,sans-Serif" font-size="11.00" fill="#000000"> &#160;</text>
</a>
</g>
</g>
<!-- opiskeluoikeus -->
<g id="node5" class="node">
<title>opiskeluoikeus</title>
<g id="a_node5"><a xlink:href="../../tables/opiskeluoikeus.html" xlink:title="opiskeluoikeus" target="_top">
<polygon fill="#ffffff" stroke="transparent" points="187.4369,-515.2 187.4369,-953.2 444.4369,-953.2 444.4369,-515.2 187.4369,-515.2"/>
<polygon fill="#f5f5f5" stroke="transparent" points="187.9369,-930.2 187.9369,-953.2 444.9369,-953.2 444.9369,-930.2 187.9369,-930.2"/>
<polygon fill="none" stroke="#000000" points="187.9369,-930.2 187.9369,-953.2 444.9369,-953.2 444.9369,-930.2 187.9369,-930.2"/>
<text text-anchor="start" x="192.9369" y="-938.8" font-family="Helvetica,sans-Serif" font-weight="bold" font-size="11.00" fill="#000000">opiskeluoikeus</text>
<text text-anchor="start" x="409.9806" y="-938.3" font-family="Helvetica,sans-Serif" font-size="11.00" fill="#000000">[table]</text>
<polygon fill="none" stroke="#000000" points="187.9369,-908.2 187.9369,-930.2 444.9369,-930.2 444.9369,-908.2 187.9369,-908.2"/>
<image xlink:href="../../images/primaryKeys.png" width="11px" height="12px" preserveAspectRatio="xMinYMin meet" x="192.937" y="-925.2"/>
<text text-anchor="start" x="207.9369" y="-915.3" font-family="Helvetica,sans-Serif" font-size="11.00" fill="#000000">id</text>
<polygon fill="none" stroke="#000000" points="187.9369,-886.2 187.9369,-908.2 444.9369,-908.2 444.9369,-886.2 187.9369,-886.2"/>
<text text-anchor="start" x="207.9369" y="-893.3" font-family="Helvetica,sans-Serif" font-size="11.00" fill="#000000">data</text>
<polygon fill="#ffffff" stroke="transparent" points="187.9369,-864.2 187.9369,-886.2 444.9369,-886.2 444.9369,-864.2 187.9369,-864.2"/>
<polygon fill="none" stroke="#000000" points="187.9369,-864.2 187.9369,-886.2 444.9369,-886.2 444.9369,-864.2 187.9369,-864.2"/>
<image xlink:href="../../images/foreignKeys.png" width="11px" height="12px" preserveAspectRatio="xMinYMin meet" x="192.937" y="-881.2"/>
<text text-anchor="start" x="207.9369" y="-871.3" font-family="Helvetica,sans-Serif" font-size="11.00" fill="#000000">oppija_oid</text>
<polygon fill="#ffffff" stroke="transparent" points="187.9369,-842.2 187.9369,-864.2 444.9369,-864.2 444.9369,-842.2 187.9369,-842.2"/>
<polygon fill="none" stroke="#000000" points="187.9369,-842.2 187.9369,-864.2 444.9369,-864.2 444.9369,-842.2 187.9369,-842.2"/>
<text text-anchor="start" x="207.9369" y="-849.3" font-family="Helvetica,sans-Serif" font-size="11.00" fill="#000000">aikaleima</text>
<polygon fill="none" stroke="#000000" points="187.9369,-820.2 187.9369,-842.2 444.9369,-842.2 444.9369,-820.2 187.9369,-820.2"/>
<text text-anchor="start" x="207.9369" y="-827.3" font-family="Helvetica,sans-Serif" font-size="11.00" fill="#000000">versionumero</text>
<polygon fill="#ffffff" stroke="transparent" points="187.9369,-798.2 187.9369,-820.2 444.9369,-820.2 444.9369,-798.2 187.9369,-798.2"/>
<polygon fill="none" stroke="#000000" points="187.9369,-798.2 187.9369,-820.2 444.9369,-820.2 444.9369,-798.2 187.9369,-798.2"/>
<text text-anchor="start" x="207.9369" y="-805.3" font-family="Helvetica,sans-Serif" font-size="11.00" fill="#000000">oppilaitos_oid</text>
<polygon fill="none" stroke="#000000" points="187.9369,-776.2 187.9369,-798.2 444.9369,-798.2 444.9369,-776.2 187.9369,-776.2"/>
<text text-anchor="start" x="207.9369" y="-783.3" font-family="Helvetica,sans-Serif" font-size="11.00" fill="#000000">koulutustoimija_oid</text>
<polygon fill="none" stroke="#000000" points="187.9369,-754.2 187.9369,-776.2 444.9369,-776.2 444.9369,-754.2 187.9369,-754.2"/>
<text text-anchor="start" x="207.9369" y="-761.3" font-family="Helvetica,sans-Serif" font-size="11.00" fill="#000000">luokka</text>
<polygon fill="#ffffff" stroke="transparent" points="187.9369,-732.2 187.9369,-754.2 444.9369,-754.2 444.9369,-732.2 187.9369,-732.2"/>
<polygon fill="none" stroke="#000000" points="187.9369,-732.2 187.9369,-754.2 444.9369,-754.2 444.9369,-732.2 187.9369,-732.2"/>
<text text-anchor="start" x="207.9369" y="-739.3" font-family="Helvetica,sans-Serif" font-size="11.00" fill="#000000">sisaltava_opiskeluoikeus_oppilaitos_oid</text>
<polygon fill="#ffffff" stroke="transparent" points="187.9369,-710.2 187.9369,-732.2 444.9369,-732.2 444.9369,-710.2 187.9369,-710.2"/>
<polygon fill="none" stroke="#000000" points="187.9369,-710.2 187.9369,-732.2 444.9369,-732.2 444.9369,-710.2 187.9369,-710.2"/>
<text text-anchor="start" x="207.9369" y="-717.3" font-family="Helvetica,sans-Serif" font-size="11.00" fill="#000000">oid</text>
<polygon fill="none" stroke="#000000" points="187.9369,-688.2 187.9369,-710.2 444.9369,-710.2 444.9369,-688.2 187.9369,-688.2"/>
<image xlink:href="../../images/foreignKeys.png" width="11px" height="12px" preserveAspectRatio="xMinYMin meet" x="192.937" y="-705.2"/>
<text text-anchor="start" x="207.9369" y="-695.3" font-family="Helvetica,sans-Serif" font-size="11.00" fill="#000000">sisaltava_opiskeluoikeus_oid</text>
<polygon fill="#ffffff" stroke="transparent" points="187.9369,-666.2 187.9369,-688.2 444.9369,-688.2 444.9369,-666.2 187.9369,-666.2"/>
<polygon fill="none" stroke="#000000" points="187.9369,-666.2 187.9369,-688.2 444.9369,-688.2 444.9369,-666.2 187.9369,-666.2"/>
<text text-anchor="start" x="207.9369" y="-673.3" font-family="Helvetica,sans-Serif" font-size="11.00" fill="#000000">mitatoity</text>
<polygon fill="#ffffff" stroke="transparent" points="187.9369,-644.2 187.9369,-666.2 444.9369,-666.2 444.9369,-644.2 187.9369,-644.2"/>
<polygon fill="none" stroke="#000000" points="187.9369,-644.2 187.9369,-666.2 444.9369,-666.2 444.9369,-644.2 187.9369,-644.2"/>
<text text-anchor="start" x="207.9369" y="-651.3" font-family="Helvetica,sans-Serif" font-size="11.00" fill="#000000">koulutusmuoto</text>
<polygon fill="#ffffff" stroke="transparent" points="187.9369,-622.2 187.9369,-644.2 444.9369,-644.2 444.9369,-622.2 187.9369,-622.2"/>
<polygon fill="none" stroke="#000000" points="187.9369,-622.2 187.9369,-644.2 444.9369,-644.2 444.9369,-622.2 187.9369,-622.2"/>
<text text-anchor="start" x="207.9369" y="-629.3" font-family="Helvetica,sans-Serif" font-size="11.00" fill="#000000">alkamispaiva</text>
<polygon fill="#ffffff" stroke="transparent" points="187.9369,-600.2 187.9369,-622.2 444.9369,-622.2 444.9369,-600.2 187.9369,-600.2"/>
<polygon fill="none" stroke="#000000" points="187.9369,-600.2 187.9369,-622.2 444.9369,-622.2 444.9369,-600.2 187.9369,-600.2"/>
<text text-anchor="start" x="207.9369" y="-607.3" font-family="Helvetica,sans-Serif" font-size="11.00" fill="#000000">paattymispaiva</text>
<polygon fill="none" stroke="#000000" points="187.9369,-578.2 187.9369,-600.2 444.9369,-600.2 444.9369,-578.2 187.9369,-578.2"/>
<text text-anchor="start" x="207.9369" y="-585.3" font-family="Helvetica,sans-Serif" font-size="11.00" fill="#000000">suoritusjako_tehty_rajapaivan_jalkeen</text>
<polygon fill="#ffffff" stroke="transparent" points="187.9369,-556.2 187.9369,-578.2 444.9369,-578.2 444.9369,-556.2 187.9369,-556.2"/>
<polygon fill="none" stroke="#000000" points="187.9369,-556.2 187.9369,-578.2 444.9369,-578.2 444.9369,-556.2 187.9369,-556.2"/>
<text text-anchor="start" x="207.9369" y="-563.3" font-family="Helvetica,sans-Serif" font-size="11.00" fill="#000000">suoritustyypit</text>
<polygon fill="#ffffff" stroke="transparent" points="187.9369,-534.2 187.9369,-556.2 444.9369,-556.2 444.9369,-534.2 187.9369,-534.2"/>
<polygon fill="none" stroke="#000000" points="187.9369,-534.2 187.9369,-556.2 444.9369,-556.2 444.9369,-534.2 187.9369,-534.2"/>
<text text-anchor="start" x="207.9369" y="-541.3" font-family="Helvetica,sans-Serif" font-size="11.00" fill="#000000">poistettu</text>
<polygon fill="#ffffff" stroke="transparent" points="187.9369,-515.2 187.9369,-534.2 290.9369,-534.2 290.9369,-515.2 187.9369,-515.2"/>
<polygon fill="none" stroke="#000000" points="187.9369,-515.2 187.9369,-534.2 290.9369,-534.2 290.9369,-515.2 187.9369,-515.2"/>
<text text-anchor="start" x="190.9369" y="-521.3" font-family="Helvetica,sans-Serif" font-size="11.00" fill="#000000">&lt; 2</text>
<polygon fill="#ffffff" stroke="transparent" points="290.9369,-515.2 290.9369,-534.2 381.9369,-534.2 381.9369,-515.2 290.9369,-515.2"/>
<polygon fill="none" stroke="#000000" points="290.9369,-515.2 290.9369,-534.2 381.9369,-534.2 381.9369,-515.2 290.9369,-515.2"/>
<text text-anchor="start" x="334.3176" y="-521.3" font-family="Helvetica,sans-Serif" font-size="11.00" fill="#000000">241 rows</text>
<polygon fill="#ffffff" stroke="transparent" points="381.9369,-515.2 381.9369,-534.2 444.9369,-534.2 444.9369,-515.2 381.9369,-515.2"/>
<polygon fill="none" stroke="#000000" points="381.9369,-515.2 381.9369,-534.2 444.9369,-534.2 444.9369,-515.2 381.9369,-515.2"/>
<text text-anchor="start" x="426.3422" y="-521.3" font-family="Helvetica,sans-Serif" font-size="11.00" fill="#000000">4 &gt;</text>
</a>
</g>
</g>
<!-- perustiedot_sync&#45;&gt;opiskeluoikeus -->
<g id="edge6" class="edge">
<title>perustiedot_sync:w&#45;&gt;opiskeluoikeus:e</title>
<path fill="none" stroke="#000000" d="M508.117,-1065.8596C457.642,-1046.9036 514.0414,-919.2 444.9369,-919.2"/>
<polygon fill="#000000" stroke="#000000" points="514.5417,-1066.9096 521.8562,-1071.7529 518.4893,-1067.5548 522.4369,-1068.2 522.4369,-1068.2 522.4369,-1068.2 518.4893,-1067.5548 523.0176,-1064.6471 514.5417,-1066.9096 514.5417,-1066.9096"/>
<ellipse fill="none" stroke="#000000" cx="511.3836" cy="-1066.3934" rx="3.2" ry="3.2"/>
</g>
<!-- opiskeluoikeushistoria -->
<g id="node2" class="node">
<title>opiskeluoikeushistoria</title>
<g id="a_node2"><a xlink:href="../../tables/opiskeluoikeushistoria.html" xlink:title="opiskeluoikeushistoria" target="_top">
<polygon fill="#ffffff" stroke="transparent" points="504.9369,-799.2 504.9369,-951.2 679.9369,-951.2 679.9369,-799.2 504.9369,-799.2"/>
<polygon fill="#f5f5f5" stroke="transparent" points="505.4369,-928.2 505.4369,-951.2 680.4369,-951.2 680.4369,-928.2 505.4369,-928.2"/>
<polygon fill="none" stroke="#000000" points="505.4369,-928.2 505.4369,-951.2 680.4369,-951.2 680.4369,-928.2 505.4369,-928.2"/>
<text text-anchor="start" x="510.4369" y="-936.8" font-family="Helvetica,sans-Serif" font-weight="bold" font-size="11.00" fill="#000000">opiskeluoikeushistoria</text>
<text text-anchor="start" x="645.9587" y="-936.3" font-family="Helvetica,sans-Serif" font-size="11.00" fill="#000000">[table]</text>
<polygon fill="none" stroke="#000000" points="505.4369,-906.2 505.4369,-928.2 680.4369,-928.2 680.4369,-906.2 505.4369,-906.2"/>
<image xlink:href="../../images/primaryKeys.png" width="11px" height="12px" preserveAspectRatio="xMinYMin meet" x="510.437" y="-923.2"/>
<text text-anchor="start" x="534.4369" y="-913.3" font-family="Helvetica,sans-Serif" font-size="11.00" fill="#000000">opiskeluoikeus_id</text>
<polygon fill="none" stroke="#000000" points="505.4369,-884.2 505.4369,-906.2 680.4369,-906.2 680.4369,-884.2 505.4369,-884.2"/>
<text text-anchor="start" x="534.4369" y="-891.3" font-family="Helvetica,sans-Serif" font-size="11.00" fill="#000000">aikaleima</text>
<polygon fill="none" stroke="#000000" points="505.4369,-862.2 505.4369,-884.2 680.4369,-884.2 680.4369,-862.2 505.4369,-862.2"/>
<text text-anchor="start" x="534.4369" y="-869.3" font-family="Helvetica,sans-Serif" font-size="11.00" fill="#000000">kayttaja_oid</text>
<polygon fill="none" stroke="#000000" points="505.4369,-840.2 505.4369,-862.2 680.4369,-862.2 680.4369,-840.2 505.4369,-840.2"/>
<text text-anchor="start" x="534.4369" y="-847.3" font-family="Helvetica,sans-Serif" font-size="11.00" fill="#000000">muutos</text>
<polygon fill="none" stroke="#000000" points="505.4369,-818.2 505.4369,-840.2 680.4369,-840.2 680.4369,-818.2 505.4369,-818.2"/>
<image xlink:href="../../images/primaryKeys.png" width="11px" height="12px" preserveAspectRatio="xMinYMin meet" x="510.437" y="-835.2"/>
<text text-anchor="start" x="534.4369" y="-825.3" font-family="Helvetica,sans-Serif" font-size="11.00" fill="#000000">versionumero</text>
<polygon fill="#ffffff" stroke="transparent" points="505.4369,-799.2 505.4369,-818.2 572.4369,-818.2 572.4369,-799.2 505.4369,-799.2"/>
<polygon fill="none" stroke="#000000" points="505.4369,-799.2 505.4369,-818.2 572.4369,-818.2 572.4369,-799.2 505.4369,-799.2"/>
<text text-anchor="start" x="508.4369" y="-805.3" font-family="Helvetica,sans-Serif" font-size="11.00" fill="#000000">&lt; 1</text>
<polygon fill="#ffffff" stroke="transparent" points="572.4369,-799.2 572.4369,-818.2 645.4369,-818.2 645.4369,-799.2 572.4369,-799.2"/>
<polygon fill="none" stroke="#000000" points="572.4369,-799.2 572.4369,-818.2 645.4369,-818.2 645.4369,-799.2 572.4369,-799.2"/>
<text text-anchor="start" x="597.8176" y="-805.3" font-family="Helvetica,sans-Serif" font-size="11.00" fill="#000000">241 rows</text>
<polygon fill="#ffffff" stroke="transparent" points="645.4369,-799.2 645.4369,-818.2 680.4369,-818.2 680.4369,-799.2 645.4369,-799.2"/>
<polygon fill="none" stroke="#000000" points="645.4369,-799.2 645.4369,-818.2 680.4369,-818.2 680.4369,-799.2 645.4369,-799.2"/>
<text text-anchor="start" x="671.3231" y="-805.3" font-family="Helvetica,sans-Serif" font-size="11.00" fill="#000000"> &#160;</text>
</a>
</g>
</g>
<!-- opiskeluoikeushistoria&#45;&gt;opiskeluoikeus -->
<g id="edge4" class="edge">
<title>opiskeluoikeushistoria:w&#45;&gt;opiskeluoikeus:e</title>
<path fill="none" stroke="#000000" d="M490.7304,-917.4294C474.8105,-917.9548 466.1655,-919.2 444.9369,-919.2"/>
<polygon fill="#000000" stroke="#000000" points="497.4379,-917.3248 505.4931,-920.7996 501.4374,-917.2624 505.4369,-917.2 505.4369,-917.2 505.4369,-917.2 501.4374,-917.2624 505.3807,-913.6004 497.4379,-917.3248 497.4379,-917.3248"/>
<ellipse fill="none" stroke="#000000" cx="494.2383" cy="-917.3748" rx="3.2" ry="3.2"/>
</g>
<!-- perustiedot_manual_sync -->
<g id="node3" class="node">
<title>perustiedot_manual_sync</title>
<g id="a_node3"><a xlink:href="../../tables/perustiedot_manual_sync.html" xlink:title="perustiedot_manual_sync" target="_top">
<polygon fill="#ffffff" stroke="transparent" points="496.9369,-647.2 496.9369,-777.2 687.9369,-777.2 687.9369,-647.2 496.9369,-647.2"/>
<polygon fill="#f5f5f5" stroke="transparent" points="497.4369,-754.2 497.4369,-777.2 688.4369,-777.2 688.4369,-754.2 497.4369,-754.2"/>
<polygon fill="none" stroke="#000000" points="497.4369,-754.2 497.4369,-777.2 688.4369,-777.2 688.4369,-754.2 497.4369,-754.2"/>
<text text-anchor="start" x="502.4369" y="-762.8" font-family="Helvetica,sans-Serif" font-weight="bold" font-size="11.00" fill="#000000">perustiedot_manual_sync</text>
<text text-anchor="start" x="653.9587" y="-762.3" font-family="Helvetica,sans-Serif" font-size="11.00" fill="#000000">[table]</text>
<polygon fill="none" stroke="#000000" points="497.4369,-732.2 497.4369,-754.2 688.4369,-754.2 688.4369,-732.2 497.4369,-732.2"/>
<image xlink:href="../../images/primaryKeys.png" width="11px" height="12px" preserveAspectRatio="xMinYMin meet" x="502.437" y="-749.2"/>
<text text-anchor="start" x="526.4369" y="-739.3" font-family="Helvetica,sans-Serif" font-size="11.00" fill="#000000">id</text>
<polygon fill="none" stroke="#000000" points="497.4369,-710.2 497.4369,-732.2 688.4369,-732.2 688.4369,-710.2 497.4369,-710.2"/>
<image xlink:href="../../images/foreignKeys.png" width="11px" height="12px" preserveAspectRatio="xMinYMin meet" x="502.437" y="-727.2"/>
<text text-anchor="start" x="526.4369" y="-717.3" font-family="Helvetica,sans-Serif" font-size="11.00" fill="#000000">opiskeluoikeus_oid</text>
<polygon fill="none" stroke="#000000" points="497.4369,-688.2 497.4369,-710.2 688.4369,-710.2 688.4369,-688.2 497.4369,-688.2"/>
<text text-anchor="start" x="526.4369" y="-695.3" font-family="Helvetica,sans-Serif" font-size="11.00" fill="#000000">upsert</text>
<polygon fill="none" stroke="#000000" points="497.4369,-666.2 497.4369,-688.2 688.4369,-688.2 688.4369,-666.2 497.4369,-666.2"/>
<text text-anchor="start" x="526.4369" y="-673.3" font-family="Helvetica,sans-Serif" font-size="11.00" fill="#000000">aikaleima</text>
<polygon fill="#ffffff" stroke="transparent" points="497.4369,-647.2 497.4369,-666.2 591.4369,-666.2 591.4369,-647.2 497.4369,-647.2"/>
<polygon fill="none" stroke="#000000" points="497.4369,-647.2 497.4369,-666.2 591.4369,-666.2 591.4369,-647.2 497.4369,-647.2"/>
<text text-anchor="start" x="500.4369" y="-653.3" font-family="Helvetica,sans-Serif" font-size="11.00" fill="#000000">&lt; 1</text>
<polygon fill="#ffffff" stroke="transparent" points="591.4369,-647.2 591.4369,-666.2 639.4369,-666.2 639.4369,-647.2 591.4369,-647.2"/>
<polygon fill="none" stroke="#000000" points="591.4369,-647.2 591.4369,-666.2 639.4369,-666.2 639.4369,-647.2 591.4369,-647.2"/>
<text text-anchor="start" x="630.3231" y="-653.3" font-family="Helvetica,sans-Serif" font-size="11.00" fill="#000000"> &#160;</text>
<polygon fill="#ffffff" stroke="transparent" points="639.4369,-647.2 639.4369,-666.2 688.4369,-666.2 688.4369,-647.2 639.4369,-647.2"/>
<polygon fill="none" stroke="#000000" points="639.4369,-647.2 639.4369,-666.2 688.4369,-666.2 688.4369,-647.2 639.4369,-647.2"/>
<text text-anchor="start" x="679.3231" y="-653.3" font-family="Helvetica,sans-Serif" font-size="11.00" fill="#000000"> &#160;</text>
</a>
</g>
</g>
<!-- perustiedot_manual_sync&#45;&gt;opiskeluoikeus -->
<g id="edge5" class="edge">
<title>perustiedot_manual_sync:w&#45;&gt;opiskeluoikeus:e</title>
<path fill="none" stroke="#000000" d="M482.6713,-721.2C470.0931,-721.2 462.4369,-721.2 444.9369,-721.2"/>
<polygon fill="#000000" stroke="#000000" points="489.4369,-721.2001 497.4369,-724.8 493.4369,-721.2 497.4369,-721.2 497.4369,-721.2 497.4369,-721.2 493.4369,-721.2 497.4369,-717.6 489.4369,-721.2001 489.4369,-721.2001"/>
<ellipse fill="none" stroke="#000000" cx="486.2369" cy="-721.2001" rx="3.2" ry="3.2"/>
</g>
<!-- ytr_opiskeluoikeushistoria -->
<g id="node4" class="node">
<title>ytr_opiskeluoikeushistoria</title>
<g id="a_node4"><a xlink:href="../../tables/ytr_opiskeluoikeushistoria.html" xlink:title="ytr_opiskeluoikeushistoria" target="_top">
<polygon fill="#ffffff" stroke="transparent" points="493.4369,-324.2 493.4369,-476.2 691.4369,-476.2 691.4369,-324.2 493.4369,-324.2"/>
<polygon fill="#f5f5f5" stroke="transparent" points="493.4369,-453.2 493.4369,-476.2 691.4369,-476.2 691.4369,-453.2 493.4369,-453.2"/>
<polygon fill="none" stroke="#000000" points="493.4369,-453.2 493.4369,-476.2 691.4369,-476.2 691.4369,-453.2 493.4369,-453.2"/>
<text text-anchor="start" x="498.4369" y="-461.8" font-family="Helvetica,sans-Serif" font-weight="bold" font-size="11.00" fill="#000000">ytr_opiskeluoikeushistoria</text>
<text text-anchor="start" x="656.9587" y="-461.3" font-family="Helvetica,sans-Serif" font-size="11.00" fill="#000000">[table]</text>
<polygon fill="none" stroke="#000000" points="493.4369,-431.2 493.4369,-453.2 691.4369,-453.2 691.4369,-431.2 493.4369,-431.2"/>
<image xlink:href="../../images/primaryKeys.png" width="11px" height="12px" preserveAspectRatio="xMinYMin meet" x="498.437" y="-448.2"/>
<text text-anchor="start" x="522.4369" y="-438.3" font-family="Helvetica,sans-Serif" font-size="11.00" fill="#000000">opiskeluoikeus_id</text>
<polygon fill="none" stroke="#000000" points="493.4369,-409.2 493.4369,-431.2 691.4369,-431.2 691.4369,-409.2 493.4369,-409.2"/>
<text text-anchor="start" x="522.4369" y="-416.3" font-family="Helvetica,sans-Serif" font-size="11.00" fill="#000000">aikaleima</text>
<polygon fill="none" stroke="#000000" points="493.4369,-387.2 493.4369,-409.2 691.4369,-409.2 691.4369,-387.2 493.4369,-387.2"/>
<text text-anchor="start" x="522.4369" y="-394.3" font-family="Helvetica,sans-Serif" font-size="11.00" fill="#000000">kayttaja_oid</text>
<polygon fill="none" stroke="#000000" points="493.4369,-365.2 493.4369,-387.2 691.4369,-387.2 691.4369,-365.2 493.4369,-365.2"/>
<text text-anchor="start" x="522.4369" y="-372.3" font-family="Helvetica,sans-Serif" font-size="11.00" fill="#000000">muutos</text>
<polygon fill="none" stroke="#000000" points="493.4369,-343.2 493.4369,-365.2 691.4369,-365.2 691.4369,-343.2 493.4369,-343.2"/>
<image xlink:href="../../images/primaryKeys.png" width="11px" height="12px" preserveAspectRatio="xMinYMin meet" x="498.437" y="-360.2"/>
<text text-anchor="start" x="522.4369" y="-350.3" font-family="Helvetica,sans-Serif" font-size="11.00" fill="#000000">versionumero</text>
<polygon fill="#ffffff" stroke="transparent" points="493.4369,-324.2 493.4369,-343.2 577.4369,-343.2 577.4369,-324.2 493.4369,-324.2"/>
<polygon fill="none" stroke="#000000" points="493.4369,-324.2 493.4369,-343.2 577.4369,-343.2 577.4369,-324.2 493.4369,-324.2"/>
<text text-anchor="start" x="496.4369" y="-330.3" font-family="Helvetica,sans-Serif" font-size="11.00" fill="#000000">&lt; 1</text>
<polygon fill="#ffffff" stroke="transparent" points="577.4369,-324.2 577.4369,-343.2 647.4369,-343.2 647.4369,-324.2 577.4369,-324.2"/>
<polygon fill="none" stroke="#000000" points="577.4369,-324.2 577.4369,-343.2 647.4369,-343.2 647.4369,-324.2 577.4369,-324.2"/>
<text text-anchor="start" x="612.0474" y="-330.3" font-family="Helvetica,sans-Serif" font-size="11.00" fill="#000000">6 rows</text>
<polygon fill="#ffffff" stroke="transparent" points="647.4369,-324.2 647.4369,-343.2 691.4369,-343.2 691.4369,-324.2 647.4369,-324.2"/>
<polygon fill="none" stroke="#000000" points="647.4369,-324.2 647.4369,-343.2 691.4369,-343.2 691.4369,-324.2 647.4369,-324.2"/>
<text text-anchor="start" x="682.3231" y="-330.3" font-family="Helvetica,sans-Serif" font-size="11.00" fill="#000000"> &#160;</text>
</a>
</g>
</g>
<!-- ytr_opiskeluoikeus -->
<g id="node6" class="node">
<title>ytr_opiskeluoikeus</title>
<g id="a_node6"><a xlink:href="../../tables/ytr_opiskeluoikeus.html" xlink:title="ytr_opiskeluoikeus" target="_top">
<polygon fill="#ffffff" stroke="transparent" points="187.4369,-38.2 187.4369,-476.2 444.4369,-476.2 444.4369,-38.2 187.4369,-38.2"/>
<polygon fill="#f5f5f5" stroke="transparent" points="187.9369,-453.2 187.9369,-476.2 444.9369,-476.2 444.9369,-453.2 187.9369,-453.2"/>
<polygon fill="none" stroke="#000000" points="187.9369,-453.2 187.9369,-476.2 444.9369,-476.2 444.9369,-453.2 187.9369,-453.2"/>
<text text-anchor="start" x="192.9369" y="-461.8" font-family="Helvetica,sans-Serif" font-weight="bold" font-size="11.00" fill="#000000">ytr_opiskeluoikeus</text>
<text text-anchor="start" x="409.9806" y="-461.3" font-family="Helvetica,sans-Serif" font-size="11.00" fill="#000000">[table]</text>
<polygon fill="none" stroke="#000000" points="187.9369,-431.2 187.9369,-453.2 444.9369,-453.2 444.9369,-431.2 187.9369,-431.2"/>
<image xlink:href="../../images/primaryKeys.png" width="11px" height="12px" preserveAspectRatio="xMinYMin meet" x="192.937" y="-448.2"/>
<text text-anchor="start" x="207.9369" y="-438.3" font-family="Helvetica,sans-Serif" font-size="11.00" fill="#000000">id</text>
<polygon fill="none" stroke="#000000" points="187.9369,-409.2 187.9369,-431.2 444.9369,-431.2 444.9369,-409.2 187.9369,-409.2"/>
<text text-anchor="start" x="207.9369" y="-416.3" font-family="Helvetica,sans-Serif" font-size="11.00" fill="#000000">data</text>
<polygon fill="#ffffff" stroke="transparent" points="187.9369,-387.2 187.9369,-409.2 444.9369,-409.2 444.9369,-387.2 187.9369,-387.2"/>
<polygon fill="none" stroke="#000000" points="187.9369,-387.2 187.9369,-409.2 444.9369,-409.2 444.9369,-387.2 187.9369,-387.2"/>
<image xlink:href="../../images/foreignKeys.png" width="11px" height="12px" preserveAspectRatio="xMinYMin meet" x="192.937" y="-404.2"/>
<text text-anchor="start" x="207.9369" y="-394.3" font-family="Helvetica,sans-Serif" font-size="11.00" fill="#000000">oppija_oid</text>
<polygon fill="#ffffff" stroke="transparent" points="187.9369,-365.2 187.9369,-387.2 444.9369,-387.2 444.9369,-365.2 187.9369,-365.2"/>
<polygon fill="none" stroke="#000000" points="187.9369,-365.2 187.9369,-387.2 444.9369,-387.2 444.9369,-365.2 187.9369,-365.2"/>
<text text-anchor="start" x="207.9369" y="-372.3" font-family="Helvetica,sans-Serif" font-size="11.00" fill="#000000">aikaleima</text>
<polygon fill="none" stroke="#000000" points="187.9369,-343.2 187.9369,-365.2 444.9369,-365.2 444.9369,-343.2 187.9369,-343.2"/>
<text text-anchor="start" x="207.9369" y="-350.3" font-family="Helvetica,sans-Serif" font-size="11.00" fill="#000000">versionumero</text>
<polygon fill="#ffffff" stroke="transparent" points="187.9369,-321.2 187.9369,-343.2 444.9369,-343.2 444.9369,-321.2 187.9369,-321.2"/>
<polygon fill="none" stroke="#000000" points="187.9369,-321.2 187.9369,-343.2 444.9369,-343.2 444.9369,-321.2 187.9369,-321.2"/>
<text text-anchor="start" x="207.9369" y="-328.3" font-family="Helvetica,sans-Serif" font-size="11.00" fill="#000000">oppilaitos_oid</text>
<polygon fill="none" stroke="#000000" points="187.9369,-299.2 187.9369,-321.2 444.9369,-321.2 444.9369,-299.2 187.9369,-299.2"/>
<text text-anchor="start" x="207.9369" y="-306.3" font-family="Helvetica,sans-Serif" font-size="11.00" fill="#000000">koulutustoimija_oid</text>
<polygon fill="none" stroke="#000000" points="187.9369,-277.2 187.9369,-299.2 444.9369,-299.2 444.9369,-277.2 187.9369,-277.2"/>
<text text-anchor="start" x="207.9369" y="-284.3" font-family="Helvetica,sans-Serif" font-size="11.00" fill="#000000">luokka</text>
<polygon fill="#ffffff" stroke="transparent" points="187.9369,-255.2 187.9369,-277.2 444.9369,-277.2 444.9369,-255.2 187.9369,-255.2"/>
<polygon fill="none" stroke="#000000" points="187.9369,-255.2 187.9369,-277.2 444.9369,-277.2 444.9369,-255.2 187.9369,-255.2"/>
<text text-anchor="start" x="207.9369" y="-262.3" font-family="Helvetica,sans-Serif" font-size="11.00" fill="#000000">sisaltava_opiskeluoikeus_oppilaitos_oid</text>
<polygon fill="#ffffff" stroke="transparent" points="187.9369,-233.2 187.9369,-255.2 444.9369,-255.2 444.9369,-233.2 187.9369,-233.2"/>
<polygon fill="none" stroke="#000000" points="187.9369,-233.2 187.9369,-255.2 444.9369,-255.2 444.9369,-233.2 187.9369,-233.2"/>
<text text-anchor="start" x="207.9369" y="-240.3" font-family="Helvetica,sans-Serif" font-size="11.00" fill="#000000">oid</text>
<polygon fill="none" stroke="#000000" points="187.9369,-211.2 187.9369,-233.2 444.9369,-233.2 444.9369,-211.2 187.9369,-211.2"/>
<image xlink:href="../../images/foreignKeys.png" width="11px" height="12px" preserveAspectRatio="xMinYMin meet" x="192.937" y="-228.2"/>
<text text-anchor="start" x="207.9369" y="-218.3" font-family="Helvetica,sans-Serif" font-size="11.00" fill="#000000">sisaltava_opiskeluoikeus_oid</text>
<polygon fill="#ffffff" stroke="transparent" points="187.9369,-189.2 187.9369,-211.2 444.9369,-211.2 444.9369,-189.2 187.9369,-189.2"/>
<polygon fill="none" stroke="#000000" points="187.9369,-189.2 187.9369,-211.2 444.9369,-211.2 444.9369,-189.2 187.9369,-189.2"/>
<text text-anchor="start" x="207.9369" y="-196.3" font-family="Helvetica,sans-Serif" font-size="11.00" fill="#000000">mitatoity</text>
<polygon fill="#ffffff" stroke="transparent" points="187.9369,-167.2 187.9369,-189.2 444.9369,-189.2 444.9369,-167.2 187.9369,-167.2"/>
<polygon fill="none" stroke="#000000" points="187.9369,-167.2 187.9369,-189.2 444.9369,-189.2 444.9369,-167.2 187.9369,-167.2"/>
<text text-anchor="start" x="207.9369" y="-174.3" font-family="Helvetica,sans-Serif" font-size="11.00" fill="#000000">koulutusmuoto</text>
<polygon fill="#ffffff" stroke="transparent" points="187.9369,-145.2 187.9369,-167.2 444.9369,-167.2 444.9369,-145.2 187.9369,-145.2"/>
<polygon fill="none" stroke="#000000" points="187.9369,-145.2 187.9369,-167.2 444.9369,-167.2 444.9369,-145.2 187.9369,-145.2"/>
<text text-anchor="start" x="207.9369" y="-152.3" font-family="Helvetica,sans-Serif" font-size="11.00" fill="#000000">alkamispaiva</text>
<polygon fill="#ffffff" stroke="transparent" points="187.9369,-123.2 187.9369,-145.2 444.9369,-145.2 444.9369,-123.2 187.9369,-123.2"/>
<polygon fill="none" stroke="#000000" points="187.9369,-123.2 187.9369,-145.2 444.9369,-145.2 444.9369,-123.2 187.9369,-123.2"/>
<text text-anchor="start" x="207.9369" y="-130.3" font-family="Helvetica,sans-Serif" font-size="11.00" fill="#000000">paattymispaiva</text>
<polygon fill="none" stroke="#000000" points="187.9369,-101.2 187.9369,-123.2 444.9369,-123.2 444.9369,-101.2 187.9369,-101.2"/>
<text text-anchor="start" x="207.9369" y="-108.3" font-family="Helvetica,sans-Serif" font-size="11.00" fill="#000000">suoritusjako_tehty_rajapaivan_jalkeen</text>
<polygon fill="#ffffff" stroke="transparent" points="187.9369,-79.2 187.9369,-101.2 444.9369,-101.2 444.9369,-79.2 187.9369,-79.2"/>
<polygon fill="none" stroke="#000000" points="187.9369,-79.2 187.9369,-101.2 444.9369,-101.2 444.9369,-79.2 187.9369,-79.2"/>
<text text-anchor="start" x="207.9369" y="-86.3" font-family="Helvetica,sans-Serif" font-size="11.00" fill="#000000">suoritustyypit</text>
<polygon fill="#ffffff" stroke="transparent" points="187.9369,-57.2 187.9369,-79.2 444.9369,-79.2 444.9369,-57.2 187.9369,-57.2"/>
<polygon fill="none" stroke="#000000" points="187.9369,-57.2 187.9369,-79.2 444.9369,-79.2 444.9369,-57.2 187.9369,-57.2"/>
<text text-anchor="start" x="207.9369" y="-64.3" font-family="Helvetica,sans-Serif" font-size="11.00" fill="#000000">poistettu</text>
<polygon fill="#ffffff" stroke="transparent" points="187.9369,-38.2 187.9369,-57.2 296.9369,-57.2 296.9369,-38.2 187.9369,-38.2"/>
<polygon fill="none" stroke="#000000" points="187.9369,-38.2 187.9369,-57.2 296.9369,-57.2 296.9369,-38.2 187.9369,-38.2"/>
<text text-anchor="start" x="190.9369" y="-44.3" font-family="Helvetica,sans-Serif" font-size="11.00" fill="#000000">&lt; 2</text>
<polygon fill="#ffffff" stroke="transparent" points="296.9369,-38.2 296.9369,-57.2 378.9369,-57.2 378.9369,-38.2 296.9369,-38.2"/>
<polygon fill="none" stroke="#000000" points="296.9369,-38.2 296.9369,-57.2 378.9369,-57.2 378.9369,-38.2 296.9369,-38.2"/>
<text text-anchor="start" x="343.5474" y="-44.3" font-family="Helvetica,sans-Serif" font-size="11.00" fill="#000000">6 rows</text>
<polygon fill="#ffffff" stroke="transparent" points="378.9369,-38.2 378.9369,-57.2 444.9369,-57.2 444.9369,-38.2 378.9369,-38.2"/>
<polygon fill="none" stroke="#000000" points="378.9369,-38.2 378.9369,-57.2 444.9369,-57.2 444.9369,-38.2 378.9369,-38.2"/>
<text text-anchor="start" x="426.3422" y="-44.3" font-family="Helvetica,sans-Serif" font-size="11.00" fill="#000000">2 &gt;</text>
</a>
</g>
</g>
<!-- ytr_opiskeluoikeushistoria&#45;&gt;ytr_opiskeluoikeus -->
<g id="edge9" class="edge">
<title>ytr_opiskeluoikeushistoria:w&#45;&gt;ytr_opiskeluoikeus:e</title>
<path fill="none" stroke="#000000" d="M478.7198,-442.2C467.7255,-442.2 460.5984,-442.2 444.9369,-442.2"/>
<polygon fill="#000000" stroke="#000000" points="485.4369,-442.2001 493.4369,-445.8 489.4369,-442.2 493.4369,-442.2 493.4369,-442.2 493.4369,-442.2 489.4369,-442.2 493.4369,-438.6 485.4369,-442.2001 485.4369,-442.2001"/>
<ellipse fill="none" stroke="#000000" cx="482.2369" cy="-442.2001" rx="3.2" ry="3.2"/>
</g>
<!-- opiskeluoikeus&#45;&gt;opiskeluoikeus -->
<g id="edge3" class="edge">
<title>opiskeluoikeus:w&#45;&gt;opiskeluoikeus:e</title>
<path fill="none" stroke="#000000" d="M180.0099,-711.5008C131.3792,-796.1907 139.9945,-970.2 316.4369,-970.2 501.9369,-970.2 501.9369,-799.8667 444.9369,-721.2"/>
<polygon fill="#000000" stroke="#000000" points="183.6034,-705.9246 190.963,-701.1501 185.7701,-702.5623 187.9369,-699.2 187.9369,-699.2 187.9369,-699.2 185.7701,-702.5623 184.9108,-697.2499 183.6034,-705.9246 183.6034,-705.9246"/>
<ellipse fill="none" stroke="#000000" cx="181.8699" cy="-708.6145" rx="3.2" ry="3.2"/>
</g>
<!-- henkilo -->
<g id="node7" class="node">
<title>henkilo</title>
<g id="a_node7"><a xlink:href="../../tables/henkilo.html" xlink:title="henkilo" target="_top">
<polygon fill="#ffffff" stroke="transparent" points="37.4369,-518.2 37.4369,-670.2 138.4369,-670.2 138.4369,-518.2 37.4369,-518.2"/>
<polygon fill="#f5f5f5" stroke="transparent" points="37.9369,-647.2 37.9369,-670.2 138.9369,-670.2 138.9369,-647.2 37.9369,-647.2"/>
<polygon fill="none" stroke="#000000" points="37.9369,-647.2 37.9369,-670.2 138.9369,-670.2 138.9369,-647.2 37.9369,-647.2"/>
<text text-anchor="start" x="42.9369" y="-655.8" font-family="Helvetica,sans-Serif" font-weight="bold" font-size="11.00" fill="#000000">henkilo</text>
<text text-anchor="start" x="103.9806" y="-655.3" font-family="Helvetica,sans-Serif" font-size="11.00" fill="#000000">[table]</text>
<polygon fill="none" stroke="#000000" points="37.9369,-625.2 37.9369,-647.2 138.9369,-647.2 138.9369,-625.2 37.9369,-625.2"/>
<image xlink:href="../../images/primaryKeys.png" width="11px" height="12px" preserveAspectRatio="xMinYMin meet" x="42.9369" y="-642.2"/>
<text text-anchor="start" x="57.9369" y="-632.3" font-family="Helvetica,sans-Serif" font-size="11.00" fill="#000000">oid</text>
<polygon fill="none" stroke="#000000" points="37.9369,-603.2 37.9369,-625.2 138.9369,-625.2 138.9369,-603.2 37.9369,-603.2"/>
<text text-anchor="start" x="57.9369" y="-610.3" font-family="Helvetica,sans-Serif" font-size="11.00" fill="#000000">sukunimi</text>
<polygon fill="none" stroke="#000000" points="37.9369,-581.2 37.9369,-603.2 138.9369,-603.2 138.9369,-581.2 37.9369,-581.2"/>
<text text-anchor="start" x="57.9369" y="-588.3" font-family="Helvetica,sans-Serif" font-size="11.00" fill="#000000">etunimet</text>
<polygon fill="none" stroke="#000000" points="37.9369,-559.2 37.9369,-581.2 138.9369,-581.2 138.9369,-559.2 37.9369,-559.2"/>
<text text-anchor="start" x="57.9369" y="-566.3" font-family="Helvetica,sans-Serif" font-size="11.00" fill="#000000">kutsumanimi</text>
<polygon fill="#ffffff" stroke="transparent" points="37.9369,-537.2 37.9369,-559.2 138.9369,-559.2 138.9369,-537.2 37.9369,-537.2"/>
<polygon fill="none" stroke="#000000" points="37.9369,-537.2 37.9369,-559.2 138.9369,-559.2 138.9369,-537.2 37.9369,-537.2"/>
<image xlink:href="../../images/foreignKeys.png" width="11px" height="12px" preserveAspectRatio="xMinYMin meet" x="42.9369" y="-554.2"/>
<text text-anchor="start" x="57.9369" y="-544.3" font-family="Helvetica,sans-Serif" font-size="11.00" fill="#000000">master_oid</text>
<polygon fill="#ffffff" stroke="transparent" points="37.9369,-518.2 37.9369,-537.2 62.9369,-537.2 62.9369,-518.2 37.9369,-518.2"/>
<polygon fill="none" stroke="#000000" points="37.9369,-518.2 37.9369,-537.2 62.9369,-537.2 62.9369,-518.2 37.9369,-518.2"/>
<text text-anchor="start" x="40.9369" y="-524.3" font-family="Helvetica,sans-Serif" font-size="11.00" fill="#000000">&lt; 1</text>
<polygon fill="#ffffff" stroke="transparent" points="62.9369,-518.2 62.9369,-537.2 114.9369,-537.2 114.9369,-518.2 62.9369,-518.2"/>
<polygon fill="none" stroke="#000000" points="62.9369,-518.2 62.9369,-537.2 114.9369,-537.2 114.9369,-518.2 62.9369,-518.2"/>
<text text-anchor="start" x="67.3176" y="-524.3" font-family="Helvetica,sans-Serif" font-size="11.00" fill="#000000">186 rows</text>
<polygon fill="#ffffff" stroke="transparent" points="114.9369,-518.2 114.9369,-537.2 138.9369,-537.2 138.9369,-518.2 114.9369,-518.2"/>
<polygon fill="none" stroke="#000000" points="114.9369,-518.2 114.9369,-537.2 138.9369,-537.2 138.9369,-518.2 114.9369,-518.2"/>
<text text-anchor="start" x="120.3422" y="-524.3" font-family="Helvetica,sans-Serif" font-size="11.00" fill="#000000">3 &gt;</text>
</a>
</g>
</g>
<!-- opiskeluoikeus&#45;&gt;henkilo -->
<g id="edge2" class="edge">
<title>opiskeluoikeus:w&#45;&gt;henkilo:e</title>
<path fill="none" stroke="#000000" d="M177.5012,-874.3346C90.9666,-858.6907 243.5565,-636.2 138.9369,-636.2"/>
<polygon fill="#000000" stroke="#000000" points="187.4702,-871.1476 186.809,-879.1202 185.2145,-878.9879 185.8757,-871.0153 187.4702,-871.1476"/>
<polyline fill="none" stroke="#000000" points="187.9369,-875.2 183.9506,-874.8694 "/>
<ellipse fill="none" stroke="#000000" cx="180.7615" cy="-874.6049" rx="3.2" ry="3.2"/>
</g>
<!-- ytr_opiskeluoikeus&#45;&gt;ytr_opiskeluoikeus -->
<g id="edge8" class="edge">
<title>ytr_opiskeluoikeus:w&#45;&gt;ytr_opiskeluoikeus:e</title>
<path fill="none" stroke="#000000" d="M180.0099,-234.5008C131.3792,-319.1907 139.9945,-493.2 316.4369,-493.2 501.9369,-493.2 501.9369,-322.8667 444.9369,-244.2"/>
<polygon fill="#000000" stroke="#000000" points="183.6034,-228.9246 190.963,-224.1501 185.7701,-225.5623 187.9369,-222.2 187.9369,-222.2 187.9369,-222.2 185.7701,-225.5623 184.9108,-220.2499 183.6034,-228.9246 183.6034,-228.9246"/>
<ellipse fill="none" stroke="#000000" cx="181.8699" cy="-231.6145" rx="3.2" ry="3.2"/>
</g>
<!-- ytr_opiskeluoikeus&#45;&gt;henkilo -->
<g id="edge7" class="edge">
<title>ytr_opiskeluoikeus:w&#45;&gt;henkilo:e</title>
<path fill="none" stroke="#000000" d="M177.5424,-399.0618C91.3424,-414.6402 243.1365,-636.2 138.9369,-636.2"/>
<polygon fill="#000000" stroke="#000000" points="186.8091,-394.2798 187.4702,-402.2524 185.8756,-402.3846 185.2146,-394.412 186.8091,-394.2798"/>
<polyline fill="none" stroke="#000000" points="187.9369,-398.2 183.9506,-398.5305 "/>
<ellipse fill="none" stroke="#000000" cx="180.7615" cy="-398.795" rx="3.2" ry="3.2"/>
</g>
<!-- henkilo&#45;&gt;henkilo -->
<g id="edge1" class="edge">
<title>henkilo:w&#45;&gt;henkilo:e</title>
<path fill="none" stroke="#000000" d="M25.926,-556.5425C-18.4394,-595.0265 -10.8746,-687.2 88.4369,-687.2 195.9369,-687.2 195.9369,-667.2 138.9369,-636.2"/>
<polygon fill="#000000" stroke="#000000" points="31.3663,-552.7638 39.9906,-551.1568 34.6516,-550.4819 37.9369,-548.2 37.9369,-548.2 37.9369,-548.2 34.6516,-550.4819 35.8832,-545.2432 31.3663,-552.7638 31.3663,-552.7638"/>
<ellipse fill="none" stroke="#000000" cx="28.7381" cy="-554.5893" rx="3.2" ry="3.2"/>
</g>
</g>
</svg>
