<?xml version="1.0" encoding="UTF-8" standalone="no"?>
<!DOCTYPE svg PUBLIC "-//W3C//DTD SVG 1.1//EN"
 "http://www.w3.org/Graphics/SVG/1.1/DTD/svg11.dtd">
<!-- Generated by graphviz version 2.40.1 (20161225.0304)
 -->
<!-- Title: largeRelationshipsDiagram Pages: 1 -->
<svg width="705pt" height="1136pt"
 viewBox="0.00 0.00 704.61 1136.20" xmlns="http://www.w3.org/2000/svg" xmlns:xlink="http://www.w3.org/1999/xlink">
<g id="graph0" class="graph" transform="scale(1 1) rotate(0) translate(4 1132.2)">
<title>largeRelationshipsDiagram</title>
<polygon fill="#ffffff" stroke="transparent" points="-4,4 -4,-1132.2 700.6072,-1132.2 700.6072,4 -4,4"/>
<text text-anchor="middle" x="72.4936" y="-7.3" font-family="Helvetica,sans-Serif" font-size="11.00" fill="#000000">Generated by SchemaSpy</text>
<!-- perustiedot_sync -->
<g id="node1" class="node">
<title>perustiedot_sync</title>
<g id="a_node1"><a xlink:href="../../tables/perustiedot_sync.html" xlink:title="perustiedot_sync" target="_top">
<polygon fill="#ffffff" stroke="transparent" points="520.1072,-972.2 520.1072,-1124.2 660.1072,-1124.2 660.1072,-972.2 520.1072,-972.2"/>
<polygon fill="#f5f5f5" stroke="transparent" points="520.1072,-1101.2 520.1072,-1124.2 660.1072,-1124.2 660.1072,-1101.2 520.1072,-1101.2"/>
<polygon fill="none" stroke="#000000" points="520.1072,-1101.2 520.1072,-1124.2 660.1072,-1124.2 660.1072,-1101.2 520.1072,-1101.2"/>
<text text-anchor="start" x="525.1072" y="-1109.8" font-family="Helvetica,sans-Serif" font-weight="bold" font-size="11.00" fill="#000000">perustiedot_sync</text>
<text text-anchor="start" x="625.6291" y="-1109.3" font-family="Helvetica,sans-Serif" font-size="11.00" fill="#000000">[table]</text>
<polygon fill="none" stroke="#000000" points="520.1072,-1079.2 520.1072,-1101.2 660.1072,-1101.2 660.1072,-1079.2 520.1072,-1079.2"/>
<image xlink:href="../../images/primaryKeys.png" width="11px" height="12px" preserveAspectRatio="xMinYMin meet" x="525.107" y="-1096.2"/>
<text text-anchor="start" x="547.1072" y="-1086.3" font-family="Helvetica,sans-Serif" font-size="11.00" fill="#000000">id</text>
<polygon fill="none" stroke="#000000" points="520.1072,-1057.2 520.1072,-1079.2 660.1072,-1079.2 660.1072,-1057.2 520.1072,-1057.2"/>
<image xlink:href="../../images/foreignKeys.png" width="11px" height="12px" preserveAspectRatio="xMinYMin meet" x="525.107" y="-1074.2"/>
<text text-anchor="start" x="547.1072" y="-1064.3" font-family="Helvetica,sans-Serif" font-size="11.00" fill="#000000">opiskeluoikeus_id</text>
<polygon fill="none" stroke="#000000" points="520.1072,-1035.2 520.1072,-1057.2 660.1072,-1057.2 660.1072,-1035.2 520.1072,-1035.2"/>
<text text-anchor="start" x="547.1072" y="-1042.3" font-family="Helvetica,sans-Serif" font-size="11.00" fill="#000000">aikaleima</text>
<polygon fill="none" stroke="#000000" points="520.1072,-1013.2 520.1072,-1035.2 660.1072,-1035.2 660.1072,-1013.2 520.1072,-1013.2"/>
<text text-anchor="start" x="547.1072" y="-1020.3" font-family="Helvetica,sans-Serif" font-size="11.00" fill="#000000">upsert</text>
<polygon fill="none" stroke="#000000" points="520.1072,-991.2 520.1072,-1013.2 660.1072,-1013.2 660.1072,-991.2 520.1072,-991.2"/>
<text text-anchor="start" x="547.1072" y="-998.3" font-family="Helvetica,sans-Serif" font-size="11.00" fill="#000000">data</text>
<polygon fill="#ffffff" stroke="transparent" points="520.1072,-972.2 520.1072,-991.2 575.1072,-991.2 575.1072,-972.2 520.1072,-972.2"/>
<polygon fill="none" stroke="#000000" points="520.1072,-972.2 520.1072,-991.2 575.1072,-991.2 575.1072,-972.2 520.1072,-972.2"/>
<text text-anchor="start" x="523.1072" y="-978.3" font-family="Helvetica,sans-Serif" font-size="11.00" fill="#000000">&lt; 1</text>
<polygon fill="#ffffff" stroke="transparent" points="575.1072,-972.2 575.1072,-991.2 630.1072,-991.2 630.1072,-972.2 575.1072,-972.2"/>
<polygon fill="none" stroke="#000000" points="575.1072,-972.2 575.1072,-991.2 630.1072,-991.2 630.1072,-972.2 575.1072,-972.2"/>
<text text-anchor="start" x="594.7177" y="-978.3" font-family="Helvetica,sans-Serif" font-size="11.00" fill="#000000">0 rows</text>
<polygon fill="#ffffff" stroke="transparent" points="630.1072,-972.2 630.1072,-991.2 660.1072,-991.2 660.1072,-972.2 630.1072,-972.2"/>
<polygon fill="none" stroke="#000000" points="630.1072,-972.2 630.1072,-991.2 660.1072,-991.2 660.1072,-972.2 630.1072,-972.2"/>
<text text-anchor="start" x="650.9934" y="-978.3" font-family="Helvetica,sans-Serif" font-size="11.00" fill="#000000"> &#160;</text>
</a>
</g>
</g>
<!-- opiskeluoikeus -->
<g id="node5" class="node">
<title>opiskeluoikeus</title>
<g id="a_node5"><a xlink:href="../../tables/opiskeluoikeus.html" xlink:title="opiskeluoikeus" target="_top">
<polygon fill="#ffffff" stroke="transparent" points="186.6072,-515.2 186.6072,-953.2 442.6072,-953.2 442.6072,-515.2 186.6072,-515.2"/>
<polygon fill="#f5f5f5" stroke="transparent" points="186.6072,-930.2 186.6072,-953.2 442.6072,-953.2 442.6072,-930.2 186.6072,-930.2"/>
<polygon fill="none" stroke="#000000" points="186.6072,-930.2 186.6072,-953.2 442.6072,-953.2 442.6072,-930.2 186.6072,-930.2"/>
<text text-anchor="start" x="191.6072" y="-938.8" font-family="Helvetica,sans-Serif" font-weight="bold" font-size="11.00" fill="#000000">opiskeluoikeus</text>
<text text-anchor="start" x="407.6509" y="-938.3" font-family="Helvetica,sans-Serif" font-size="11.00" fill="#000000">[table]</text>
<polygon fill="none" stroke="#000000" points="186.6072,-908.2 186.6072,-930.2 442.6072,-930.2 442.6072,-908.2 186.6072,-908.2"/>
<image xlink:href="../../images/primaryKeys.png" width="11px" height="12px" preserveAspectRatio="xMinYMin meet" x="191.607" y="-925.2"/>
<text text-anchor="start" x="206.6072" y="-915.3" font-family="Helvetica,sans-Serif" font-size="11.00" fill="#000000">id</text>
<polygon fill="none" stroke="#000000" points="186.6072,-886.2 186.6072,-908.2 442.6072,-908.2 442.6072,-886.2 186.6072,-886.2"/>
<text text-anchor="start" x="206.6072" y="-893.3" font-family="Helvetica,sans-Serif" font-size="11.00" fill="#000000">data</text>
<polygon fill="#ffffff" stroke="transparent" points="186.6072,-864.2 186.6072,-886.2 442.6072,-886.2 442.6072,-864.2 186.6072,-864.2"/>
<polygon fill="none" stroke="#000000" points="186.6072,-864.2 186.6072,-886.2 442.6072,-886.2 442.6072,-864.2 186.6072,-864.2"/>
<image xlink:href="../../images/foreignKeys.png" width="11px" height="12px" preserveAspectRatio="xMinYMin meet" x="191.607" y="-881.2"/>
<text text-anchor="start" x="206.6072" y="-871.3" font-family="Helvetica,sans-Serif" font-size="11.00" fill="#000000">oppija_oid</text>
<polygon fill="#ffffff" stroke="transparent" points="186.6072,-842.2 186.6072,-864.2 442.6072,-864.2 442.6072,-842.2 186.6072,-842.2"/>
<polygon fill="none" stroke="#000000" points="186.6072,-842.2 186.6072,-864.2 442.6072,-864.2 442.6072,-842.2 186.6072,-842.2"/>
<text text-anchor="start" x="206.6072" y="-849.3" font-family="Helvetica,sans-Serif" font-size="11.00" fill="#000000">aikaleima</text>
<polygon fill="none" stroke="#000000" points="186.6072,-820.2 186.6072,-842.2 442.6072,-842.2 442.6072,-820.2 186.6072,-820.2"/>
<text text-anchor="start" x="206.6072" y="-827.3" font-family="Helvetica,sans-Serif" font-size="11.00" fill="#000000">versionumero</text>
<polygon fill="#ffffff" stroke="transparent" points="186.6072,-798.2 186.6072,-820.2 442.6072,-820.2 442.6072,-798.2 186.6072,-798.2"/>
<polygon fill="none" stroke="#000000" points="186.6072,-798.2 186.6072,-820.2 442.6072,-820.2 442.6072,-798.2 186.6072,-798.2"/>
<text text-anchor="start" x="206.6072" y="-805.3" font-family="Helvetica,sans-Serif" font-size="11.00" fill="#000000">oppilaitos_oid</text>
<polygon fill="none" stroke="#000000" points="186.6072,-776.2 186.6072,-798.2 442.6072,-798.2 442.6072,-776.2 186.6072,-776.2"/>
<text text-anchor="start" x="206.6072" y="-783.3" font-family="Helvetica,sans-Serif" font-size="11.00" fill="#000000">koulutustoimija_oid</text>
<polygon fill="none" stroke="#000000" points="186.6072,-754.2 186.6072,-776.2 442.6072,-776.2 442.6072,-754.2 186.6072,-754.2"/>
<text text-anchor="start" x="206.6072" y="-761.3" font-family="Helvetica,sans-Serif" font-size="11.00" fill="#000000">luokka</text>
<polygon fill="#ffffff" stroke="transparent" points="186.6072,-732.2 186.6072,-754.2 442.6072,-754.2 442.6072,-732.2 186.6072,-732.2"/>
<polygon fill="none" stroke="#000000" points="186.6072,-732.2 186.6072,-754.2 442.6072,-754.2 442.6072,-732.2 186.6072,-732.2"/>
<text text-anchor="start" x="206.6072" y="-739.3" font-family="Helvetica,sans-Serif" font-size="11.00" fill="#000000">sisaltava_opiskeluoikeus_oppilaitos_oid</text>
<polygon fill="#ffffff" stroke="transparent" points="186.6072,-710.2 186.6072,-732.2 442.6072,-732.2 442.6072,-710.2 186.6072,-710.2"/>
<polygon fill="none" stroke="#000000" points="186.6072,-710.2 186.6072,-732.2 442.6072,-732.2 442.6072,-710.2 186.6072,-710.2"/>
<text text-anchor="start" x="206.6072" y="-717.3" font-family="Helvetica,sans-Serif" font-size="11.00" fill="#000000">oid</text>
<polygon fill="none" stroke="#000000" points="186.6072,-688.2 186.6072,-710.2 442.6072,-710.2 442.6072,-688.2 186.6072,-688.2"/>
<image xlink:href="../../images/foreignKeys.png" width="11px" height="12px" preserveAspectRatio="xMinYMin meet" x="191.607" y="-705.2"/>
<text text-anchor="start" x="206.6072" y="-695.3" font-family="Helvetica,sans-Serif" font-size="11.00" fill="#000000">sisaltava_opiskeluoikeus_oid</text>
<polygon fill="#ffffff" stroke="transparent" points="186.6072,-666.2 186.6072,-688.2 442.6072,-688.2 442.6072,-666.2 186.6072,-666.2"/>
<polygon fill="none" stroke="#000000" points="186.6072,-666.2 186.6072,-688.2 442.6072,-688.2 442.6072,-666.2 186.6072,-666.2"/>
<text text-anchor="start" x="206.6072" y="-673.3" font-family="Helvetica,sans-Serif" font-size="11.00" fill="#000000">mitatoity</text>
<polygon fill="#ffffff" stroke="transparent" points="186.6072,-644.2 186.6072,-666.2 442.6072,-666.2 442.6072,-644.2 186.6072,-644.2"/>
<polygon fill="none" stroke="#000000" points="186.6072,-644.2 186.6072,-666.2 442.6072,-666.2 442.6072,-644.2 186.6072,-644.2"/>
<text text-anchor="start" x="206.6072" y="-651.3" font-family="Helvetica,sans-Serif" font-size="11.00" fill="#000000">koulutusmuoto</text>
<polygon fill="#ffffff" stroke="transparent" points="186.6072,-622.2 186.6072,-644.2 442.6072,-644.2 442.6072,-622.2 186.6072,-622.2"/>
<polygon fill="none" stroke="#000000" points="186.6072,-622.2 186.6072,-644.2 442.6072,-644.2 442.6072,-622.2 186.6072,-622.2"/>
<text text-anchor="start" x="206.6072" y="-629.3" font-family="Helvetica,sans-Serif" font-size="11.00" fill="#000000">alkamispaiva</text>
<polygon fill="#ffffff" stroke="transparent" points="186.6072,-600.2 186.6072,-622.2 442.6072,-622.2 442.6072,-600.2 186.6072,-600.2"/>
<polygon fill="none" stroke="#000000" points="186.6072,-600.2 186.6072,-622.2 442.6072,-622.2 442.6072,-600.2 186.6072,-600.2"/>
<text text-anchor="start" x="206.6072" y="-607.3" font-family="Helvetica,sans-Serif" font-size="11.00" fill="#000000">paattymispaiva</text>
<polygon fill="none" stroke="#000000" points="186.6072,-578.2 186.6072,-600.2 442.6072,-600.2 442.6072,-578.2 186.6072,-578.2"/>
<text text-anchor="start" x="206.6072" y="-585.3" font-family="Helvetica,sans-Serif" font-size="11.00" fill="#000000">suoritusjako_tehty_rajapaivan_jalkeen</text>
<polygon fill="#ffffff" stroke="transparent" points="186.6072,-556.2 186.6072,-578.2 442.6072,-578.2 442.6072,-556.2 186.6072,-556.2"/>
<polygon fill="none" stroke="#000000" points="186.6072,-556.2 186.6072,-578.2 442.6072,-578.2 442.6072,-556.2 186.6072,-556.2"/>
<text text-anchor="start" x="206.6072" y="-563.3" font-family="Helvetica,sans-Serif" font-size="11.00" fill="#000000">suoritustyypit</text>
<polygon fill="#ffffff" stroke="transparent" points="186.6072,-534.2 186.6072,-556.2 442.6072,-556.2 442.6072,-534.2 186.6072,-534.2"/>
<polygon fill="none" stroke="#000000" points="186.6072,-534.2 186.6072,-556.2 442.6072,-556.2 442.6072,-534.2 186.6072,-534.2"/>
<text text-anchor="start" x="206.6072" y="-541.3" font-family="Helvetica,sans-Serif" font-size="11.00" fill="#000000">poistettu</text>
<polygon fill="#ffffff" stroke="transparent" points="186.6072,-515.2 186.6072,-534.2 289.6072,-534.2 289.6072,-515.2 186.6072,-515.2"/>
<polygon fill="none" stroke="#000000" points="186.6072,-515.2 186.6072,-534.2 289.6072,-534.2 289.6072,-515.2 186.6072,-515.2"/>
<text text-anchor="start" x="189.6072" y="-521.3" font-family="Helvetica,sans-Serif" font-size="11.00" fill="#000000">&lt; 2</text>
<polygon fill="#ffffff" stroke="transparent" points="289.6072,-515.2 289.6072,-534.2 380.6072,-534.2 380.6072,-515.2 289.6072,-515.2"/>
<polygon fill="none" stroke="#000000" points="289.6072,-515.2 289.6072,-534.2 380.6072,-534.2 380.6072,-515.2 289.6072,-515.2"/>
<text text-anchor="start" x="332.9879" y="-521.3" font-family="Helvetica,sans-Serif" font-size="11.00" fill="#000000">177 rows</text>
<polygon fill="#ffffff" stroke="transparent" points="380.6072,-515.2 380.6072,-534.2 442.6072,-534.2 442.6072,-515.2 380.6072,-515.2"/>
<polygon fill="none" stroke="#000000" points="380.6072,-515.2 380.6072,-534.2 442.6072,-534.2 442.6072,-515.2 380.6072,-515.2"/>
<text text-anchor="start" x="424.0125" y="-521.3" font-family="Helvetica,sans-Serif" font-size="11.00" fill="#000000">4 &gt;</text>
</a>
</g>
</g>
<!-- perustiedot_sync&#45;&gt;opiskeluoikeus -->
<g id="edge6" class="edge">
<title>perustiedot_sync:w&#45;&gt;opiskeluoikeus:e</title>
<path fill="none" stroke="#000000" d="M505.7873,-1065.8596C455.3123,-1046.9036 511.7117,-919.2 442.6072,-919.2"/>
<polygon fill="#000000" stroke="#000000" points="512.212,-1066.9096 519.5265,-1071.7529 516.1596,-1067.5548 520.1072,-1068.2 520.1072,-1068.2 520.1072,-1068.2 516.1596,-1067.5548 520.6879,-1064.6471 512.212,-1066.9096 512.212,-1066.9096"/>
<ellipse fill="none" stroke="#000000" cx="509.0539" cy="-1066.3934" rx="3.2" ry="3.2"/>
</g>
<!-- opiskeluoikeushistoria -->
<g id="node2" class="node">
<title>opiskeluoikeushistoria</title>
<g id="a_node2"><a xlink:href="../../tables/opiskeluoikeushistoria.html" xlink:title="opiskeluoikeushistoria" target="_top">
<polygon fill="#ffffff" stroke="transparent" points="502.6072,-799.2 502.6072,-951.2 677.6072,-951.2 677.6072,-799.2 502.6072,-799.2"/>
<polygon fill="#f5f5f5" stroke="transparent" points="503.1072,-928.2 503.1072,-951.2 678.1072,-951.2 678.1072,-928.2 503.1072,-928.2"/>
<polygon fill="none" stroke="#000000" points="503.1072,-928.2 503.1072,-951.2 678.1072,-951.2 678.1072,-928.2 503.1072,-928.2"/>
<text text-anchor="start" x="508.1072" y="-936.8" font-family="Helvetica,sans-Serif" font-weight="bold" font-size="11.00" fill="#000000">opiskeluoikeushistoria</text>
<text text-anchor="start" x="643.6291" y="-936.3" font-family="Helvetica,sans-Serif" font-size="11.00" fill="#000000">[table]</text>
<polygon fill="none" stroke="#000000" points="503.1072,-906.2 503.1072,-928.2 678.1072,-928.2 678.1072,-906.2 503.1072,-906.2"/>
<image xlink:href="../../images/primaryKeys.png" width="11px" height="12px" preserveAspectRatio="xMinYMin meet" x="508.107" y="-923.2"/>
<text text-anchor="start" x="532.1072" y="-913.3" font-family="Helvetica,sans-Serif" font-size="11.00" fill="#000000">opiskeluoikeus_id</text>
<polygon fill="none" stroke="#000000" points="503.1072,-884.2 503.1072,-906.2 678.1072,-906.2 678.1072,-884.2 503.1072,-884.2"/>
<text text-anchor="start" x="532.1072" y="-891.3" font-family="Helvetica,sans-Serif" font-size="11.00" fill="#000000">aikaleima</text>
<polygon fill="none" stroke="#000000" points="503.1072,-862.2 503.1072,-884.2 678.1072,-884.2 678.1072,-862.2 503.1072,-862.2"/>
<text text-anchor="start" x="532.1072" y="-869.3" font-family="Helvetica,sans-Serif" font-size="11.00" fill="#000000">kayttaja_oid</text>
<polygon fill="none" stroke="#000000" points="503.1072,-840.2 503.1072,-862.2 678.1072,-862.2 678.1072,-840.2 503.1072,-840.2"/>
<text text-anchor="start" x="532.1072" y="-847.3" font-family="Helvetica,sans-Serif" font-size="11.00" fill="#000000">muutos</text>
<polygon fill="none" stroke="#000000" points="503.1072,-818.2 503.1072,-840.2 678.1072,-840.2 678.1072,-818.2 503.1072,-818.2"/>
<image xlink:href="../../images/primaryKeys.png" width="11px" height="12px" preserveAspectRatio="xMinYMin meet" x="508.107" y="-835.2"/>
<text text-anchor="start" x="532.1072" y="-825.3" font-family="Helvetica,sans-Serif" font-size="11.00" fill="#000000">versionumero</text>
<polygon fill="#ffffff" stroke="transparent" points="503.1072,-799.2 503.1072,-818.2 570.1072,-818.2 570.1072,-799.2 503.1072,-799.2"/>
<polygon fill="none" stroke="#000000" points="503.1072,-799.2 503.1072,-818.2 570.1072,-818.2 570.1072,-799.2 503.1072,-799.2"/>
<text text-anchor="start" x="506.1072" y="-805.3" font-family="Helvetica,sans-Serif" font-size="11.00" fill="#000000">&lt; 1</text>
<polygon fill="#ffffff" stroke="transparent" points="570.1072,-799.2 570.1072,-818.2 643.1072,-818.2 643.1072,-799.2 570.1072,-799.2"/>
<polygon fill="none" stroke="#000000" points="570.1072,-799.2 570.1072,-818.2 643.1072,-818.2 643.1072,-799.2 570.1072,-799.2"/>
<text text-anchor="start" x="595.4879" y="-805.3" font-family="Helvetica,sans-Serif" font-size="11.00" fill="#000000">179 rows</text>
<polygon fill="#ffffff" stroke="transparent" points="643.1072,-799.2 643.1072,-818.2 678.1072,-818.2 678.1072,-799.2 643.1072,-799.2"/>
<polygon fill="none" stroke="#000000" points="643.1072,-799.2 643.1072,-818.2 678.1072,-818.2 678.1072,-799.2 643.1072,-799.2"/>
<text text-anchor="start" x="668.9934" y="-805.3" font-family="Helvetica,sans-Serif" font-size="11.00" fill="#000000"> &#160;</text>
</a>
</g>
</g>
<!-- opiskeluoikeushistoria&#45;&gt;opiskeluoikeus -->
<g id="edge4" class="edge">
<title>opiskeluoikeushistoria:w&#45;&gt;opiskeluoikeus:e</title>
<path fill="none" stroke="#000000" d="M488.4008,-917.4294C472.4809,-917.9548 463.8358,-919.2 442.6072,-919.2"/>
<polygon fill="#000000" stroke="#000000" points="495.1082,-917.3248 503.1634,-920.7996 499.1077,-917.2624 503.1072,-917.2 503.1072,-917.2 503.1072,-917.2 499.1077,-917.2624 503.0511,-913.6004 495.1082,-917.3248 495.1082,-917.3248"/>
<ellipse fill="none" stroke="#000000" cx="491.9086" cy="-917.3748" rx="3.2" ry="3.2"/>
</g>
<!-- perustiedot_manual_sync -->
<g id="node3" class="node">
<title>perustiedot_manual_sync</title>
<g id="a_node3"><a xlink:href="../../tables/perustiedot_manual_sync.html" xlink:title="perustiedot_manual_sync" target="_top">
<polygon fill="#ffffff" stroke="transparent" points="494.6072,-647.2 494.6072,-777.2 685.6072,-777.2 685.6072,-647.2 494.6072,-647.2"/>
<polygon fill="#f5f5f5" stroke="transparent" points="495.1072,-754.2 495.1072,-777.2 686.1072,-777.2 686.1072,-754.2 495.1072,-754.2"/>
<polygon fill="none" stroke="#000000" points="495.1072,-754.2 495.1072,-777.2 686.1072,-777.2 686.1072,-754.2 495.1072,-754.2"/>
<text text-anchor="start" x="500.1072" y="-762.8" font-family="Helvetica,sans-Serif" font-weight="bold" font-size="11.00" fill="#000000">perustiedot_manual_sync</text>
<text text-anchor="start" x="651.6291" y="-762.3" font-family="Helvetica,sans-Serif" font-size="11.00" fill="#000000">[table]</text>
<polygon fill="none" stroke="#000000" points="495.1072,-732.2 495.1072,-754.2 686.1072,-754.2 686.1072,-732.2 495.1072,-732.2"/>
<image xlink:href="../../images/primaryKeys.png" width="11px" height="12px" preserveAspectRatio="xMinYMin meet" x="500.107" y="-749.2"/>
<text text-anchor="start" x="524.1072" y="-739.3" font-family="Helvetica,sans-Serif" font-size="11.00" fill="#000000">id</text>
<polygon fill="none" stroke="#000000" points="495.1072,-710.2 495.1072,-732.2 686.1072,-732.2 686.1072,-710.2 495.1072,-710.2"/>
<image xlink:href="../../images/foreignKeys.png" width="11px" height="12px" preserveAspectRatio="xMinYMin meet" x="500.107" y="-727.2"/>
<text text-anchor="start" x="524.1072" y="-717.3" font-family="Helvetica,sans-Serif" font-size="11.00" fill="#000000">opiskeluoikeus_oid</text>
<polygon fill="none" stroke="#000000" points="495.1072,-688.2 495.1072,-710.2 686.1072,-710.2 686.1072,-688.2 495.1072,-688.2"/>
<text text-anchor="start" x="524.1072" y="-695.3" font-family="Helvetica,sans-Serif" font-size="11.00" fill="#000000">upsert</text>
<polygon fill="none" stroke="#000000" points="495.1072,-666.2 495.1072,-688.2 686.1072,-688.2 686.1072,-666.2 495.1072,-666.2"/>
<text text-anchor="start" x="524.1072" y="-673.3" font-family="Helvetica,sans-Serif" font-size="11.00" fill="#000000">aikaleima</text>
<polygon fill="#ffffff" stroke="transparent" points="495.1072,-647.2 495.1072,-666.2 589.1072,-666.2 589.1072,-647.2 495.1072,-647.2"/>
<polygon fill="none" stroke="#000000" points="495.1072,-647.2 495.1072,-666.2 589.1072,-666.2 589.1072,-647.2 495.1072,-647.2"/>
<text text-anchor="start" x="498.1072" y="-653.3" font-family="Helvetica,sans-Serif" font-size="11.00" fill="#000000">&lt; 1</text>
<polygon fill="#ffffff" stroke="transparent" points="589.1072,-647.2 589.1072,-666.2 637.1072,-666.2 637.1072,-647.2 589.1072,-647.2"/>
<polygon fill="none" stroke="#000000" points="589.1072,-647.2 589.1072,-666.2 637.1072,-666.2 637.1072,-647.2 589.1072,-647.2"/>
<text text-anchor="start" x="627.9934" y="-653.3" font-family="Helvetica,sans-Serif" font-size="11.00" fill="#000000"> &#160;</text>
<polygon fill="#ffffff" stroke="transparent" points="637.1072,-647.2 637.1072,-666.2 686.1072,-666.2 686.1072,-647.2 637.1072,-647.2"/>
<polygon fill="none" stroke="#000000" points="637.1072,-647.2 637.1072,-666.2 686.1072,-666.2 686.1072,-647.2 637.1072,-647.2"/>
<text text-anchor="start" x="676.9934" y="-653.3" font-family="Helvetica,sans-Serif" font-size="11.00" fill="#000000"> &#160;</text>
</a>
</g>
</g>
<!-- perustiedot_manual_sync&#45;&gt;opiskeluoikeus -->
<g id="edge5" class="edge">
<title>perustiedot_manual_sync:w&#45;&gt;opiskeluoikeus:e</title>
<path fill="none" stroke="#000000" d="M480.3416,-721.2C467.7635,-721.2 460.1072,-721.2 442.6072,-721.2"/>
<polygon fill="#000000" stroke="#000000" points="487.1072,-721.2001 495.1073,-724.8 491.1072,-721.2 495.1072,-721.2 495.1072,-721.2 495.1072,-721.2 491.1072,-721.2 495.1072,-717.6 487.1072,-721.2001 487.1072,-721.2001"/>
<ellipse fill="none" stroke="#000000" cx="483.9072" cy="-721.2001" rx="3.2" ry="3.2"/>
</g>
<!-- ytr_opiskeluoikeushistoria -->
<g id="node4" class="node">
<title>ytr_opiskeluoikeushistoria</title>
<g id="a_node4"><a xlink:href="../../tables/ytr_opiskeluoikeushistoria.html" xlink:title="ytr_opiskeluoikeushistoria" target="_top">
<polygon fill="#ffffff" stroke="transparent" points="491.6072,-324.2 491.6072,-476.2 688.6072,-476.2 688.6072,-324.2 491.6072,-324.2"/>
<polygon fill="#f5f5f5" stroke="transparent" points="492.1072,-453.2 492.1072,-476.2 689.1072,-476.2 689.1072,-453.2 492.1072,-453.2"/>
<polygon fill="none" stroke="#000000" points="492.1072,-453.2 492.1072,-476.2 689.1072,-476.2 689.1072,-453.2 492.1072,-453.2"/>
<text text-anchor="start" x="497.1072" y="-461.8" font-family="Helvetica,sans-Serif" font-weight="bold" font-size="11.00" fill="#000000">ytr_opiskeluoikeushistoria</text>
<text text-anchor="start" x="654.6291" y="-461.3" font-family="Helvetica,sans-Serif" font-size="11.00" fill="#000000">[table]</text>
<polygon fill="none" stroke="#000000" points="492.1072,-431.2 492.1072,-453.2 689.1072,-453.2 689.1072,-431.2 492.1072,-431.2"/>
<image xlink:href="../../images/primaryKeys.png" width="11px" height="12px" preserveAspectRatio="xMinYMin meet" x="497.107" y="-448.2"/>
<text text-anchor="start" x="521.1072" y="-438.3" font-family="Helvetica,sans-Serif" font-size="11.00" fill="#000000">opiskeluoikeus_id</text>
<polygon fill="none" stroke="#000000" points="492.1072,-409.2 492.1072,-431.2 689.1072,-431.2 689.1072,-409.2 492.1072,-409.2"/>
<text text-anchor="start" x="521.1072" y="-416.3" font-family="Helvetica,sans-Serif" font-size="11.00" fill="#000000">aikaleima</text>
<polygon fill="none" stroke="#000000" points="492.1072,-387.2 492.1072,-409.2 689.1072,-409.2 689.1072,-387.2 492.1072,-387.2"/>
<text text-anchor="start" x="521.1072" y="-394.3" font-family="Helvetica,sans-Serif" font-size="11.00" fill="#000000">kayttaja_oid</text>
<polygon fill="none" stroke="#000000" points="492.1072,-365.2 492.1072,-387.2 689.1072,-387.2 689.1072,-365.2 492.1072,-365.2"/>
<text text-anchor="start" x="521.1072" y="-372.3" font-family="Helvetica,sans-Serif" font-size="11.00" fill="#000000">muutos</text>
<polygon fill="none" stroke="#000000" points="492.1072,-343.2 492.1072,-365.2 689.1072,-365.2 689.1072,-343.2 492.1072,-343.2"/>
<image xlink:href="../../images/primaryKeys.png" width="11px" height="12px" preserveAspectRatio="xMinYMin meet" x="497.107" y="-360.2"/>
<text text-anchor="start" x="521.1072" y="-350.3" font-family="Helvetica,sans-Serif" font-size="11.00" fill="#000000">versionumero</text>
<polygon fill="#ffffff" stroke="transparent" points="492.1072,-324.2 492.1072,-343.2 576.1072,-343.2 576.1072,-324.2 492.1072,-324.2"/>
<polygon fill="none" stroke="#000000" points="492.1072,-324.2 492.1072,-343.2 576.1072,-343.2 576.1072,-324.2 492.1072,-324.2"/>
<text text-anchor="start" x="495.1072" y="-330.3" font-family="Helvetica,sans-Serif" font-size="11.00" fill="#000000">&lt; 1</text>
<polygon fill="#ffffff" stroke="transparent" points="576.1072,-324.2 576.1072,-343.2 645.1072,-343.2 645.1072,-324.2 576.1072,-324.2"/>
<polygon fill="none" stroke="#000000" points="576.1072,-324.2 576.1072,-343.2 645.1072,-343.2 645.1072,-324.2 576.1072,-324.2"/>
<text text-anchor="start" x="609.7177" y="-330.3" font-family="Helvetica,sans-Serif" font-size="11.00" fill="#000000">9 rows</text>
<polygon fill="#ffffff" stroke="transparent" points="645.1072,-324.2 645.1072,-343.2 689.1072,-343.2 689.1072,-324.2 645.1072,-324.2"/>
<polygon fill="none" stroke="#000000" points="645.1072,-324.2 645.1072,-343.2 689.1072,-343.2 689.1072,-324.2 645.1072,-324.2"/>
<text text-anchor="start" x="679.9934" y="-330.3" font-family="Helvetica,sans-Serif" font-size="11.00" fill="#000000"> &#160;</text>
</a>
</g>
</g>
<!-- ytr_opiskeluoikeus -->
<g id="node6" class="node">
<title>ytr_opiskeluoikeus</title>
<g id="a_node6"><a xlink:href="../../tables/ytr_opiskeluoikeus.html" xlink:title="ytr_opiskeluoikeus" target="_top">
<polygon fill="#ffffff" stroke="transparent" points="186.6072,-38.2 186.6072,-476.2 442.6072,-476.2 442.6072,-38.2 186.6072,-38.2"/>
<polygon fill="#f5f5f5" stroke="transparent" points="186.6072,-453.2 186.6072,-476.2 442.6072,-476.2 442.6072,-453.2 186.6072,-453.2"/>
<polygon fill="none" stroke="#000000" points="186.6072,-453.2 186.6072,-476.2 442.6072,-476.2 442.6072,-453.2 186.6072,-453.2"/>
<text text-anchor="start" x="191.6072" y="-461.8" font-family="Helvetica,sans-Serif" font-weight="bold" font-size="11.00" fill="#000000">ytr_opiskeluoikeus</text>
<text text-anchor="start" x="407.6509" y="-461.3" font-family="Helvetica,sans-Serif" font-size="11.00" fill="#000000">[table]</text>
<polygon fill="none" stroke="#000000" points="186.6072,-431.2 186.6072,-453.2 442.6072,-453.2 442.6072,-431.2 186.6072,-431.2"/>
<image xlink:href="../../images/primaryKeys.png" width="11px" height="12px" preserveAspectRatio="xMinYMin meet" x="191.607" y="-448.2"/>
<text text-anchor="start" x="206.6072" y="-438.3" font-family="Helvetica,sans-Serif" font-size="11.00" fill="#000000">id</text>
<polygon fill="none" stroke="#000000" points="186.6072,-409.2 186.6072,-431.2 442.6072,-431.2 442.6072,-409.2 186.6072,-409.2"/>
<text text-anchor="start" x="206.6072" y="-416.3" font-family="Helvetica,sans-Serif" font-size="11.00" fill="#000000">data</text>
<polygon fill="#ffffff" stroke="transparent" points="186.6072,-387.2 186.6072,-409.2 442.6072,-409.2 442.6072,-387.2 186.6072,-387.2"/>
<polygon fill="none" stroke="#000000" points="186.6072,-387.2 186.6072,-409.2 442.6072,-409.2 442.6072,-387.2 186.6072,-387.2"/>
<image xlink:href="../../images/foreignKeys.png" width="11px" height="12px" preserveAspectRatio="xMinYMin meet" x="191.607" y="-404.2"/>
<text text-anchor="start" x="206.6072" y="-394.3" font-family="Helvetica,sans-Serif" font-size="11.00" fill="#000000">oppija_oid</text>
<polygon fill="#ffffff" stroke="transparent" points="186.6072,-365.2 186.6072,-387.2 442.6072,-387.2 442.6072,-365.2 186.6072,-365.2"/>
<polygon fill="none" stroke="#000000" points="186.6072,-365.2 186.6072,-387.2 442.6072,-387.2 442.6072,-365.2 186.6072,-365.2"/>
<text text-anchor="start" x="206.6072" y="-372.3" font-family="Helvetica,sans-Serif" font-size="11.00" fill="#000000">aikaleima</text>
<polygon fill="none" stroke="#000000" points="186.6072,-343.2 186.6072,-365.2 442.6072,-365.2 442.6072,-343.2 186.6072,-343.2"/>
<text text-anchor="start" x="206.6072" y="-350.3" font-family="Helvetica,sans-Serif" font-size="11.00" fill="#000000">versionumero</text>
<polygon fill="#ffffff" stroke="transparent" points="186.6072,-321.2 186.6072,-343.2 442.6072,-343.2 442.6072,-321.2 186.6072,-321.2"/>
<polygon fill="none" stroke="#000000" points="186.6072,-321.2 186.6072,-343.2 442.6072,-343.2 442.6072,-321.2 186.6072,-321.2"/>
<text text-anchor="start" x="206.6072" y="-328.3" font-family="Helvetica,sans-Serif" font-size="11.00" fill="#000000">oppilaitos_oid</text>
<polygon fill="none" stroke="#000000" points="186.6072,-299.2 186.6072,-321.2 442.6072,-321.2 442.6072,-299.2 186.6072,-299.2"/>
<text text-anchor="start" x="206.6072" y="-306.3" font-family="Helvetica,sans-Serif" font-size="11.00" fill="#000000">koulutustoimija_oid</text>
<polygon fill="none" stroke="#000000" points="186.6072,-277.2 186.6072,-299.2 442.6072,-299.2 442.6072,-277.2 186.6072,-277.2"/>
<text text-anchor="start" x="206.6072" y="-284.3" font-family="Helvetica,sans-Serif" font-size="11.00" fill="#000000">luokka</text>
<polygon fill="#ffffff" stroke="transparent" points="186.6072,-255.2 186.6072,-277.2 442.6072,-277.2 442.6072,-255.2 186.6072,-255.2"/>
<polygon fill="none" stroke="#000000" points="186.6072,-255.2 186.6072,-277.2 442.6072,-277.2 442.6072,-255.2 186.6072,-255.2"/>
<text text-anchor="start" x="206.6072" y="-262.3" font-family="Helvetica,sans-Serif" font-size="11.00" fill="#000000">sisaltava_opiskeluoikeus_oppilaitos_oid</text>
<polygon fill="#ffffff" stroke="transparent" points="186.6072,-233.2 186.6072,-255.2 442.6072,-255.2 442.6072,-233.2 186.6072,-233.2"/>
<polygon fill="none" stroke="#000000" points="186.6072,-233.2 186.6072,-255.2 442.6072,-255.2 442.6072,-233.2 186.6072,-233.2"/>
<text text-anchor="start" x="206.6072" y="-240.3" font-family="Helvetica,sans-Serif" font-size="11.00" fill="#000000">oid</text>
<polygon fill="none" stroke="#000000" points="186.6072,-211.2 186.6072,-233.2 442.6072,-233.2 442.6072,-211.2 186.6072,-211.2"/>
<image xlink:href="../../images/foreignKeys.png" width="11px" height="12px" preserveAspectRatio="xMinYMin meet" x="191.607" y="-228.2"/>
<text text-anchor="start" x="206.6072" y="-218.3" font-family="Helvetica,sans-Serif" font-size="11.00" fill="#000000">sisaltava_opiskeluoikeus_oid</text>
<polygon fill="#ffffff" stroke="transparent" points="186.6072,-189.2 186.6072,-211.2 442.6072,-211.2 442.6072,-189.2 186.6072,-189.2"/>
<polygon fill="none" stroke="#000000" points="186.6072,-189.2 186.6072,-211.2 442.6072,-211.2 442.6072,-189.2 186.6072,-189.2"/>
<text text-anchor="start" x="206.6072" y="-196.3" font-family="Helvetica,sans-Serif" font-size="11.00" fill="#000000">mitatoity</text>
<polygon fill="#ffffff" stroke="transparent" points="186.6072,-167.2 186.6072,-189.2 442.6072,-189.2 442.6072,-167.2 186.6072,-167.2"/>
<polygon fill="none" stroke="#000000" points="186.6072,-167.2 186.6072,-189.2 442.6072,-189.2 442.6072,-167.2 186.6072,-167.2"/>
<text text-anchor="start" x="206.6072" y="-174.3" font-family="Helvetica,sans-Serif" font-size="11.00" fill="#000000">koulutusmuoto</text>
<polygon fill="#ffffff" stroke="transparent" points="186.6072,-145.2 186.6072,-167.2 442.6072,-167.2 442.6072,-145.2 186.6072,-145.2"/>
<polygon fill="none" stroke="#000000" points="186.6072,-145.2 186.6072,-167.2 442.6072,-167.2 442.6072,-145.2 186.6072,-145.2"/>
<text text-anchor="start" x="206.6072" y="-152.3" font-family="Helvetica,sans-Serif" font-size="11.00" fill="#000000">alkamispaiva</text>
<polygon fill="#ffffff" stroke="transparent" points="186.6072,-123.2 186.6072,-145.2 442.6072,-145.2 442.6072,-123.2 186.6072,-123.2"/>
<polygon fill="none" stroke="#000000" points="186.6072,-123.2 186.6072,-145.2 442.6072,-145.2 442.6072,-123.2 186.6072,-123.2"/>
<text text-anchor="start" x="206.6072" y="-130.3" font-family="Helvetica,sans-Serif" font-size="11.00" fill="#000000">paattymispaiva</text>
<polygon fill="none" stroke="#000000" points="186.6072,-101.2 186.6072,-123.2 442.6072,-123.2 442.6072,-101.2 186.6072,-101.2"/>
<text text-anchor="start" x="206.6072" y="-108.3" font-family="Helvetica,sans-Serif" font-size="11.00" fill="#000000">suoritusjako_tehty_rajapaivan_jalkeen</text>
<polygon fill="#ffffff" stroke="transparent" points="186.6072,-79.2 186.6072,-101.2 442.6072,-101.2 442.6072,-79.2 186.6072,-79.2"/>
<polygon fill="none" stroke="#000000" points="186.6072,-79.2 186.6072,-101.2 442.6072,-101.2 442.6072,-79.2 186.6072,-79.2"/>
<text text-anchor="start" x="206.6072" y="-86.3" font-family="Helvetica,sans-Serif" font-size="11.00" fill="#000000">suoritustyypit</text>
<polygon fill="#ffffff" stroke="transparent" points="186.6072,-57.2 186.6072,-79.2 442.6072,-79.2 442.6072,-57.2 186.6072,-57.2"/>
<polygon fill="none" stroke="#000000" points="186.6072,-57.2 186.6072,-79.2 442.6072,-79.2 442.6072,-57.2 186.6072,-57.2"/>
<text text-anchor="start" x="206.6072" y="-64.3" font-family="Helvetica,sans-Serif" font-size="11.00" fill="#000000">poistettu</text>
<polygon fill="#ffffff" stroke="transparent" points="186.6072,-38.2 186.6072,-57.2 295.6072,-57.2 295.6072,-38.2 186.6072,-38.2"/>
<polygon fill="none" stroke="#000000" points="186.6072,-38.2 186.6072,-57.2 295.6072,-57.2 295.6072,-38.2 186.6072,-38.2"/>
<text text-anchor="start" x="189.6072" y="-44.3" font-family="Helvetica,sans-Serif" font-size="11.00" fill="#000000">&lt; 2</text>
<polygon fill="#ffffff" stroke="transparent" points="295.6072,-38.2 295.6072,-57.2 377.6072,-57.2 377.6072,-38.2 295.6072,-38.2"/>
<polygon fill="none" stroke="#000000" points="295.6072,-38.2 295.6072,-57.2 377.6072,-57.2 377.6072,-38.2 295.6072,-38.2"/>
<text text-anchor="start" x="342.2177" y="-44.3" font-family="Helvetica,sans-Serif" font-size="11.00" fill="#000000">9 rows</text>
<polygon fill="#ffffff" stroke="transparent" points="377.6072,-38.2 377.6072,-57.2 442.6072,-57.2 442.6072,-38.2 377.6072,-38.2"/>
<polygon fill="none" stroke="#000000" points="377.6072,-38.2 377.6072,-57.2 442.6072,-57.2 442.6072,-38.2 377.6072,-38.2"/>
<text text-anchor="start" x="424.0125" y="-44.3" font-family="Helvetica,sans-Serif" font-size="11.00" fill="#000000">2 &gt;</text>
</a>
</g>
</g>
<!-- ytr_opiskeluoikeushistoria&#45;&gt;ytr_opiskeluoikeus -->
<g id="edge9" class="edge">
<title>ytr_opiskeluoikeushistoria:w&#45;&gt;ytr_opiskeluoikeus:e</title>
<path fill="none" stroke="#000000" d="M477.4501,-442.2C466.0212,-442.2 458.7635,-442.2 442.6072,-442.2"/>
<polygon fill="#000000" stroke="#000000" points="484.1072,-442.2001 492.1073,-445.8 488.1072,-442.2 492.1072,-442.2 492.1072,-442.2 492.1072,-442.2 488.1072,-442.2 492.1072,-438.6 484.1072,-442.2001 484.1072,-442.2001"/>
<ellipse fill="none" stroke="#000000" cx="480.9072" cy="-442.2001" rx="3.2" ry="3.2"/>
</g>
<!-- opiskeluoikeus&#45;&gt;opiskeluoikeus -->
<g id="edge3" class="edge">
<title>opiskeluoikeus:w&#45;&gt;opiskeluoikeus:e</title>
<path fill="none" stroke="#000000" d="M178.7499,-711.5008C130.5471,-796.1907 139.116,-970.2 314.6072,-970.2 499.1072,-970.2 499.1072,-799.8667 442.6072,-721.2"/>
<polygon fill="#000000" stroke="#000000" points="182.3007,-705.942 189.6411,-701.1379 184.454,-702.571 186.6072,-699.2 186.6072,-699.2 186.6072,-699.2 184.454,-702.571 183.5734,-697.2621 182.3007,-705.942 182.3007,-705.942"/>
<ellipse fill="none" stroke="#000000" cx="180.5781" cy="-708.6387" rx="3.2" ry="3.2"/>
</g>
<!-- henkilo -->
<g id="node7" class="node">
<title>henkilo</title>
<g id="a_node7"><a xlink:href="../../tables/henkilo.html" xlink:title="henkilo" target="_top">
<polygon fill="#ffffff" stroke="transparent" points="37.6072,-518.2 37.6072,-670.2 137.6072,-670.2 137.6072,-518.2 37.6072,-518.2"/>
<polygon fill="#f5f5f5" stroke="transparent" points="37.6072,-647.2 37.6072,-670.2 137.6072,-670.2 137.6072,-647.2 37.6072,-647.2"/>
<polygon fill="none" stroke="#000000" points="37.6072,-647.2 37.6072,-670.2 137.6072,-670.2 137.6072,-647.2 37.6072,-647.2"/>
<text text-anchor="start" x="42.6072" y="-655.8" font-family="Helvetica,sans-Serif" font-weight="bold" font-size="11.00" fill="#000000">henkilo</text>
<text text-anchor="start" x="102.6509" y="-655.3" font-family="Helvetica,sans-Serif" font-size="11.00" fill="#000000">[table]</text>
<polygon fill="none" stroke="#000000" points="37.6072,-625.2 37.6072,-647.2 137.6072,-647.2 137.6072,-625.2 37.6072,-625.2"/>
<image xlink:href="../../images/primaryKeys.png" width="11px" height="12px" preserveAspectRatio="xMinYMin meet" x="42.6072" y="-642.2"/>
<text text-anchor="start" x="57.6072" y="-632.3" font-family="Helvetica,sans-Serif" font-size="11.00" fill="#000000">oid</text>
<polygon fill="none" stroke="#000000" points="37.6072,-603.2 37.6072,-625.2 137.6072,-625.2 137.6072,-603.2 37.6072,-603.2"/>
<text text-anchor="start" x="57.6072" y="-610.3" font-family="Helvetica,sans-Serif" font-size="11.00" fill="#000000">sukunimi</text>
<polygon fill="none" stroke="#000000" points="37.6072,-581.2 37.6072,-603.2 137.6072,-603.2 137.6072,-581.2 37.6072,-581.2"/>
<text text-anchor="start" x="57.6072" y="-588.3" font-family="Helvetica,sans-Serif" font-size="11.00" fill="#000000">etunimet</text>
<polygon fill="none" stroke="#000000" points="37.6072,-559.2 37.6072,-581.2 137.6072,-581.2 137.6072,-559.2 37.6072,-559.2"/>
<text text-anchor="start" x="57.6072" y="-566.3" font-family="Helvetica,sans-Serif" font-size="11.00" fill="#000000">kutsumanimi</text>
<polygon fill="#ffffff" stroke="transparent" points="37.6072,-537.2 37.6072,-559.2 137.6072,-559.2 137.6072,-537.2 37.6072,-537.2"/>
<polygon fill="none" stroke="#000000" points="37.6072,-537.2 37.6072,-559.2 137.6072,-559.2 137.6072,-537.2 37.6072,-537.2"/>
<image xlink:href="../../images/foreignKeys.png" width="11px" height="12px" preserveAspectRatio="xMinYMin meet" x="42.6072" y="-554.2"/>
<text text-anchor="start" x="57.6072" y="-544.3" font-family="Helvetica,sans-Serif" font-size="11.00" fill="#000000">master_oid</text>
<polygon fill="#ffffff" stroke="transparent" points="37.6072,-518.2 37.6072,-537.2 62.6072,-537.2 62.6072,-518.2 37.6072,-518.2"/>
<polygon fill="none" stroke="#000000" points="37.6072,-518.2 37.6072,-537.2 62.6072,-537.2 62.6072,-518.2 37.6072,-518.2"/>
<text text-anchor="start" x="40.6072" y="-524.3" font-family="Helvetica,sans-Serif" font-size="11.00" fill="#000000">&lt; 1</text>
<polygon fill="#ffffff" stroke="transparent" points="62.6072,-518.2 62.6072,-537.2 114.6072,-537.2 114.6072,-518.2 62.6072,-518.2"/>
<polygon fill="none" stroke="#000000" points="62.6072,-518.2 62.6072,-537.2 114.6072,-537.2 114.6072,-518.2 62.6072,-518.2"/>
<text text-anchor="start" x="66.9879" y="-524.3" font-family="Helvetica,sans-Serif" font-size="11.00" fill="#000000">197 rows</text>
<polygon fill="#ffffff" stroke="transparent" points="114.6072,-518.2 114.6072,-537.2 137.6072,-537.2 137.6072,-518.2 114.6072,-518.2"/>
<polygon fill="none" stroke="#000000" points="114.6072,-518.2 114.6072,-537.2 137.6072,-537.2 137.6072,-518.2 114.6072,-518.2"/>
<text text-anchor="start" x="119.0125" y="-524.3" font-family="Helvetica,sans-Serif" font-size="11.00" fill="#000000">3 &gt;</text>
</a>
</g>
</g>
<!-- opiskeluoikeus&#45;&gt;henkilo -->
<g id="edge2" class="edge">
<title>opiskeluoikeus:w&#45;&gt;henkilo:e</title>
<path fill="none" stroke="#000000" d="M176.1715,-874.3346C89.637,-858.6907 242.2269,-636.2 137.6072,-636.2"/>
<polygon fill="#000000" stroke="#000000" points="186.1406,-871.1476 185.4794,-879.1202 183.8848,-878.9879 184.5461,-871.0153 186.1406,-871.1476"/>
<polyline fill="none" stroke="#000000" points="186.6072,-875.2 182.6209,-874.8694 "/>
<ellipse fill="none" stroke="#000000" cx="179.4319" cy="-874.6049" rx="3.2" ry="3.2"/>
</g>
<!-- ytr_opiskeluoikeus&#45;&gt;ytr_opiskeluoikeus -->
<g id="edge8" class="edge">
<title>ytr_opiskeluoikeus:w&#45;&gt;ytr_opiskeluoikeus:e</title>
<path fill="none" stroke="#000000" d="M178.7499,-234.5008C130.5471,-319.1907 139.116,-493.2 314.6072,-493.2 499.1072,-493.2 499.1072,-322.8667 442.6072,-244.2"/>
<polygon fill="#000000" stroke="#000000" points="182.3007,-228.942 189.6411,-224.1379 184.454,-225.571 186.6072,-222.2 186.6072,-222.2 186.6072,-222.2 184.454,-225.571 183.5734,-220.2621 182.3007,-228.942 182.3007,-228.942"/>
<ellipse fill="none" stroke="#000000" cx="180.5781" cy="-231.6387" rx="3.2" ry="3.2"/>
</g>
<!-- ytr_opiskeluoikeus&#45;&gt;henkilo -->
<g id="edge7" class="edge">
<title>ytr_opiskeluoikeus:w&#45;&gt;henkilo:e</title>
<path fill="none" stroke="#000000" d="M176.2127,-399.0618C90.0127,-414.6402 241.8068,-636.2 137.6072,-636.2"/>
<polygon fill="#000000" stroke="#000000" points="185.4794,-394.2798 186.1405,-402.2524 184.546,-402.3846 183.8849,-394.412 185.4794,-394.2798"/>
<polyline fill="none" stroke="#000000" points="186.6072,-398.2 182.6209,-398.5305 "/>
<ellipse fill="none" stroke="#000000" cx="179.4319" cy="-398.795" rx="3.2" ry="3.2"/>
</g>
<!-- henkilo&#45;&gt;henkilo -->
<g id="edge1" class="edge">
<title>henkilo:w&#45;&gt;henkilo:e</title>
<path fill="none" stroke="#000000" d="M25.7017,-556.5425C-18.2748,-595.0265 -10.7805,-687.2 87.6072,-687.2 194.1072,-687.2 194.1072,-667.2 137.6072,-636.2"/>
<polygon fill="#000000" stroke="#000000" points="31.0556,-552.7909 39.6732,-551.1482 34.3314,-550.4955 37.6072,-548.2 37.6072,-548.2 37.6072,-548.2 34.3314,-550.4955 35.5413,-545.2518 31.0556,-552.7909 31.0556,-552.7909"/>
<ellipse fill="none" stroke="#000000" cx="28.435" cy="-554.6273" rx="3.2" ry="3.2"/>
</g>
</g>
</svg>
