<?xml version="1.0" encoding="UTF-8" standalone="no"?>
<!DOCTYPE svg PUBLIC "-//W3C//DTD SVG 1.1//EN"
 "http://www.w3.org/Graphics/SVG/1.1/DTD/svg11.dtd">
<!-- Generated by graphviz version 2.40.1 (20161225.0304)
 -->
<!-- Title: compactRelationshipsDiagram Pages: 1 -->
<svg width="690pt" height="909pt"
 viewBox="0.00 0.00 689.63 909.20" xmlns="http://www.w3.org/2000/svg" xmlns:xlink="http://www.w3.org/1999/xlink">
<g id="graph0" class="graph" transform="scale(1 1) rotate(0) translate(4 905.2)">
<title>compactRelationshipsDiagram</title>
<polygon fill="#ffffff" stroke="transparent" points="-4,4 -4,-905.2 685.6295,-905.2 685.6295,4 -4,4"/>
<text text-anchor="middle" x="72.4936" y="-7.3" font-family="Helvetica,sans-Serif" font-size="11.00" fill="#000000">Generated by SchemaSpy</text>
<!-- perustiedot_sync -->
<g id="node1" class="node">
<title>perustiedot_sync</title>
<g id="a_node1"><a xlink:href="../../tables/perustiedot_sync.html" xlink:title="perustiedot_sync" target="_top">
<polygon fill="#ffffff" stroke="transparent" points="509.1295,-792.2 509.1295,-897.2 647.1295,-897.2 647.1295,-792.2 509.1295,-792.2"/>
<polygon fill="#f5f5f5" stroke="transparent" points="509.1295,-873.7 509.1295,-896.7 647.1295,-896.7 647.1295,-873.7 509.1295,-873.7"/>
<polygon fill="none" stroke="#000000" points="509.1295,-873.7 509.1295,-896.7 647.1295,-896.7 647.1295,-873.7 509.1295,-873.7"/>
<text text-anchor="start" x="514.1295" y="-882.3" font-family="Helvetica,sans-Serif" font-weight="bold" font-size="11.00" fill="#000000">perustiedot_sync</text>
<text text-anchor="start" x="612.6513" y="-881.8" font-family="Helvetica,sans-Serif" font-size="11.00" fill="#000000">[table]</text>
<polygon fill="none" stroke="#000000" points="509.1295,-851.7 509.1295,-873.7 647.1295,-873.7 647.1295,-851.7 509.1295,-851.7"/>
<image xlink:href="../../images/primaryKeys.png" width="11px" height="12px" preserveAspectRatio="xMinYMin meet" x="514.129" y="-868.7"/>
<text text-anchor="start" x="536.1295" y="-858.8" font-family="Helvetica,sans-Serif" font-size="11.00" fill="#000000">id</text>
<polygon fill="none" stroke="#000000" points="509.1295,-829.7 509.1295,-851.7 647.1295,-851.7 647.1295,-829.7 509.1295,-829.7"/>
<image xlink:href="../../images/foreignKeys.png" width="11px" height="12px" preserveAspectRatio="xMinYMin meet" x="514.129" y="-846.7"/>
<text text-anchor="start" x="536.1295" y="-836.8" font-family="Helvetica,sans-Serif" font-size="11.00" fill="#000000">opiskeluoikeus_id</text>
<polygon fill="none" stroke="#000000" points="509.1295,-810.7 509.1295,-829.7 647.1295,-829.7 647.1295,-810.7 509.1295,-810.7"/>
<text text-anchor="start" x="512.1295" y="-816.8" font-family="Helvetica,sans-Serif" font-size="11.00" fill="#000000">...</text>
<polygon fill="#ffffff" stroke="transparent" points="509.1295,-791.7 509.1295,-810.7 563.1295,-810.7 563.1295,-791.7 509.1295,-791.7"/>
<polygon fill="none" stroke="#000000" points="509.1295,-791.7 509.1295,-810.7 563.1295,-810.7 563.1295,-791.7 509.1295,-791.7"/>
<text text-anchor="start" x="512.1295" y="-797.8" font-family="Helvetica,sans-Serif" font-size="11.00" fill="#000000">&lt; 1</text>
<polygon fill="#ffffff" stroke="transparent" points="563.1295,-791.7 563.1295,-810.7 618.1295,-810.7 618.1295,-791.7 563.1295,-791.7"/>
<polygon fill="none" stroke="#000000" points="563.1295,-791.7 563.1295,-810.7 618.1295,-810.7 618.1295,-791.7 563.1295,-791.7"/>
<text text-anchor="start" x="582.74" y="-797.8" font-family="Helvetica,sans-Serif" font-size="11.00" fill="#000000">0 rows</text>
<polygon fill="#ffffff" stroke="transparent" points="618.1295,-791.7 618.1295,-810.7 647.1295,-810.7 647.1295,-791.7 618.1295,-791.7"/>
<polygon fill="none" stroke="#000000" points="618.1295,-791.7 618.1295,-810.7 647.1295,-810.7 647.1295,-791.7 618.1295,-791.7"/>
<text text-anchor="start" x="638.0157" y="-797.8" font-family="Helvetica,sans-Serif" font-size="11.00" fill="#000000"> &#160;</text>
</a>
</g>
</g>
<!-- opiskeluoikeus -->
<g id="node5" class="node">
<title>opiskeluoikeus</title>
<g id="a_node5"><a xlink:href="../../tables/opiskeluoikeus.html" xlink:title="opiskeluoikeus" target="_top">
<polygon fill="#ffffff" stroke="transparent" points="180.6295,-424.2 180.6295,-771.2 433.6295,-771.2 433.6295,-424.2 180.6295,-424.2"/>
<polygon fill="#f5f5f5" stroke="transparent" points="181.1295,-747.7 181.1295,-770.7 434.1295,-770.7 434.1295,-747.7 181.1295,-747.7"/>
<polygon fill="none" stroke="#000000" points="181.1295,-747.7 181.1295,-770.7 434.1295,-770.7 434.1295,-747.7 181.1295,-747.7"/>
<text text-anchor="start" x="186.1295" y="-756.3" font-family="Helvetica,sans-Serif" font-weight="bold" font-size="11.00" fill="#000000">opiskeluoikeus</text>
<text text-anchor="start" x="399.1732" y="-755.8" font-family="Helvetica,sans-Serif" font-size="11.00" fill="#000000">[table]</text>
<polygon fill="none" stroke="#000000" points="181.1295,-725.7 181.1295,-747.7 434.1295,-747.7 434.1295,-725.7 181.1295,-725.7"/>
<image xlink:href="../../images/primaryKeys.png" width="11px" height="12px" preserveAspectRatio="xMinYMin meet" x="186.129" y="-742.7"/>
<text text-anchor="start" x="201.1295" y="-732.8" font-family="Helvetica,sans-Serif" font-size="11.00" fill="#000000">id</text>
<polygon fill="#ffffff" stroke="transparent" points="181.1295,-703.7 181.1295,-725.7 434.1295,-725.7 434.1295,-703.7 181.1295,-703.7"/>
<polygon fill="none" stroke="#000000" points="181.1295,-703.7 181.1295,-725.7 434.1295,-725.7 434.1295,-703.7 181.1295,-703.7"/>
<image xlink:href="../../images/foreignKeys.png" width="11px" height="12px" preserveAspectRatio="xMinYMin meet" x="186.129" y="-720.7"/>
<text text-anchor="start" x="201.1295" y="-710.8" font-family="Helvetica,sans-Serif" font-size="11.00" fill="#000000">oppija_oid</text>
<polygon fill="#ffffff" stroke="transparent" points="181.1295,-681.7 181.1295,-703.7 434.1295,-703.7 434.1295,-681.7 181.1295,-681.7"/>
<polygon fill="none" stroke="#000000" points="181.1295,-681.7 181.1295,-703.7 434.1295,-703.7 434.1295,-681.7 181.1295,-681.7"/>
<text text-anchor="start" x="201.1295" y="-688.8" font-family="Helvetica,sans-Serif" font-size="11.00" fill="#000000">aikaleima</text>
<polygon fill="#ffffff" stroke="transparent" points="181.1295,-659.7 181.1295,-681.7 434.1295,-681.7 434.1295,-659.7 181.1295,-659.7"/>
<polygon fill="none" stroke="#000000" points="181.1295,-659.7 181.1295,-681.7 434.1295,-681.7 434.1295,-659.7 181.1295,-659.7"/>
<text text-anchor="start" x="201.1295" y="-666.8" font-family="Helvetica,sans-Serif" font-size="11.00" fill="#000000">oppilaitos_oid</text>
<polygon fill="#ffffff" stroke="transparent" points="181.1295,-637.7 181.1295,-659.7 434.1295,-659.7 434.1295,-637.7 181.1295,-637.7"/>
<polygon fill="none" stroke="#000000" points="181.1295,-637.7 181.1295,-659.7 434.1295,-659.7 434.1295,-637.7 181.1295,-637.7"/>
<text text-anchor="start" x="201.1295" y="-644.8" font-family="Helvetica,sans-Serif" font-size="11.00" fill="#000000">sisaltava_opiskeluoikeus_oppilaitos_oid</text>
<polygon fill="#ffffff" stroke="transparent" points="181.1295,-615.7 181.1295,-637.7 434.1295,-637.7 434.1295,-615.7 181.1295,-615.7"/>
<polygon fill="none" stroke="#000000" points="181.1295,-615.7 181.1295,-637.7 434.1295,-637.7 434.1295,-615.7 181.1295,-615.7"/>
<text text-anchor="start" x="201.1295" y="-622.8" font-family="Helvetica,sans-Serif" font-size="11.00" fill="#000000">oid</text>
<polygon fill="none" stroke="#000000" points="181.1295,-593.7 181.1295,-615.7 434.1295,-615.7 434.1295,-593.7 181.1295,-593.7"/>
<image xlink:href="../../images/foreignKeys.png" width="11px" height="12px" preserveAspectRatio="xMinYMin meet" x="186.129" y="-610.7"/>
<text text-anchor="start" x="201.1295" y="-600.8" font-family="Helvetica,sans-Serif" font-size="11.00" fill="#000000">sisaltava_opiskeluoikeus_oid</text>
<polygon fill="#ffffff" stroke="transparent" points="181.1295,-571.7 181.1295,-593.7 434.1295,-593.7 434.1295,-571.7 181.1295,-571.7"/>
<polygon fill="none" stroke="#000000" points="181.1295,-571.7 181.1295,-593.7 434.1295,-593.7 434.1295,-571.7 181.1295,-571.7"/>
<text text-anchor="start" x="201.1295" y="-578.8" font-family="Helvetica,sans-Serif" font-size="11.00" fill="#000000">mitatoity</text>
<polygon fill="#ffffff" stroke="transparent" points="181.1295,-549.7 181.1295,-571.7 434.1295,-571.7 434.1295,-549.7 181.1295,-549.7"/>
<polygon fill="none" stroke="#000000" points="181.1295,-549.7 181.1295,-571.7 434.1295,-571.7 434.1295,-549.7 181.1295,-549.7"/>
<text text-anchor="start" x="201.1295" y="-556.8" font-family="Helvetica,sans-Serif" font-size="11.00" fill="#000000">koulutusmuoto</text>
<polygon fill="#ffffff" stroke="transparent" points="181.1295,-527.7 181.1295,-549.7 434.1295,-549.7 434.1295,-527.7 181.1295,-527.7"/>
<polygon fill="none" stroke="#000000" points="181.1295,-527.7 181.1295,-549.7 434.1295,-549.7 434.1295,-527.7 181.1295,-527.7"/>
<text text-anchor="start" x="201.1295" y="-534.8" font-family="Helvetica,sans-Serif" font-size="11.00" fill="#000000">alkamispaiva</text>
<polygon fill="#ffffff" stroke="transparent" points="181.1295,-505.7 181.1295,-527.7 434.1295,-527.7 434.1295,-505.7 181.1295,-505.7"/>
<polygon fill="none" stroke="#000000" points="181.1295,-505.7 181.1295,-527.7 434.1295,-527.7 434.1295,-505.7 181.1295,-505.7"/>
<text text-anchor="start" x="201.1295" y="-512.8" font-family="Helvetica,sans-Serif" font-size="11.00" fill="#000000">paattymispaiva</text>
<polygon fill="#ffffff" stroke="transparent" points="181.1295,-483.7 181.1295,-505.7 434.1295,-505.7 434.1295,-483.7 181.1295,-483.7"/>
<polygon fill="none" stroke="#000000" points="181.1295,-483.7 181.1295,-505.7 434.1295,-505.7 434.1295,-483.7 181.1295,-483.7"/>
<text text-anchor="start" x="201.1295" y="-490.8" font-family="Helvetica,sans-Serif" font-size="11.00" fill="#000000">suoritustyypit</text>
<polygon fill="#ffffff" stroke="transparent" points="181.1295,-461.7 181.1295,-483.7 434.1295,-483.7 434.1295,-461.7 181.1295,-461.7"/>
<polygon fill="none" stroke="#000000" points="181.1295,-461.7 181.1295,-483.7 434.1295,-483.7 434.1295,-461.7 181.1295,-461.7"/>
<text text-anchor="start" x="201.1295" y="-468.8" font-family="Helvetica,sans-Serif" font-size="11.00" fill="#000000">poistettu</text>
<polygon fill="none" stroke="#000000" points="181.1295,-442.7 181.1295,-461.7 434.1295,-461.7 434.1295,-442.7 181.1295,-442.7"/>
<text text-anchor="start" x="184.1295" y="-448.8" font-family="Helvetica,sans-Serif" font-size="11.00" fill="#000000">...</text>
<polygon fill="#ffffff" stroke="transparent" points="181.1295,-423.7 181.1295,-442.7 282.1295,-442.7 282.1295,-423.7 181.1295,-423.7"/>
<polygon fill="none" stroke="#000000" points="181.1295,-423.7 181.1295,-442.7 282.1295,-442.7 282.1295,-423.7 181.1295,-423.7"/>
<text text-anchor="start" x="184.1295" y="-429.8" font-family="Helvetica,sans-Serif" font-size="11.00" fill="#000000">&lt; 2</text>
<polygon fill="#ffffff" stroke="transparent" points="282.1295,-423.7 282.1295,-442.7 372.1295,-442.7 372.1295,-423.7 282.1295,-423.7"/>
<polygon fill="none" stroke="#000000" points="282.1295,-423.7 282.1295,-442.7 372.1295,-442.7 372.1295,-423.7 282.1295,-423.7"/>
<text text-anchor="start" x="324.5102" y="-429.8" font-family="Helvetica,sans-Serif" font-size="11.00" fill="#000000">148 rows</text>
<polygon fill="#ffffff" stroke="transparent" points="372.1295,-423.7 372.1295,-442.7 434.1295,-442.7 434.1295,-423.7 372.1295,-423.7"/>
<polygon fill="none" stroke="#000000" points="372.1295,-423.7 372.1295,-442.7 434.1295,-442.7 434.1295,-423.7 372.1295,-423.7"/>
<text text-anchor="start" x="415.5348" y="-429.8" font-family="Helvetica,sans-Serif" font-size="11.00" fill="#000000">4 &gt;</text>
</a>
</g>
</g>
<!-- perustiedot_sync&#45;&gt;opiskeluoikeus -->
<g id="edge6" class="edge">
<title>perustiedot_sync:w&#45;&gt;opiskeluoikeus:e</title>
<path fill="none" stroke="#000000" d="M495.0006,-837.9183C458.8389,-821.3793 485.552,-736.7 434.1295,-736.7"/>
<polygon fill="#000000" stroke="#000000" points="501.2801,-839.1545 508.434,-844.2322 505.2048,-839.9273 509.1295,-840.7 509.1295,-840.7 509.1295,-840.7 505.2048,-839.9273 509.8249,-837.1678 501.2801,-839.1545 501.2801,-839.1545"/>
<ellipse fill="none" stroke="#000000" cx="498.1404" cy="-838.5364" rx="3.2" ry="3.2"/>
</g>
<!-- opiskeluoikeushistoria -->
<g id="node2" class="node">
<title>opiskeluoikeushistoria</title>
<g id="a_node2"><a xlink:href="../../tables/opiskeluoikeushistoria.html" xlink:title="opiskeluoikeushistoria" target="_top">
<polygon fill="#ffffff" stroke="transparent" points="493.6295,-666.2 493.6295,-771.2 662.6295,-771.2 662.6295,-666.2 493.6295,-666.2"/>
<polygon fill="#f5f5f5" stroke="transparent" points="494.1295,-747.7 494.1295,-770.7 663.1295,-770.7 663.1295,-747.7 494.1295,-747.7"/>
<polygon fill="none" stroke="#000000" points="494.1295,-747.7 494.1295,-770.7 663.1295,-770.7 663.1295,-747.7 494.1295,-747.7"/>
<text text-anchor="start" x="499.1295" y="-756.3" font-family="Helvetica,sans-Serif" font-weight="bold" font-size="11.00" fill="#000000">opiskeluoikeushistoria</text>
<text text-anchor="start" x="628.6513" y="-755.8" font-family="Helvetica,sans-Serif" font-size="11.00" fill="#000000">[table]</text>
<polygon fill="none" stroke="#000000" points="494.1295,-725.7 494.1295,-747.7 663.1295,-747.7 663.1295,-725.7 494.1295,-725.7"/>
<image xlink:href="../../images/primaryKeys.png" width="11px" height="12px" preserveAspectRatio="xMinYMin meet" x="499.129" y="-742.7"/>
<text text-anchor="start" x="523.1295" y="-732.8" font-family="Helvetica,sans-Serif" font-size="11.00" fill="#000000">opiskeluoikeus_id</text>
<polygon fill="none" stroke="#000000" points="494.1295,-703.7 494.1295,-725.7 663.1295,-725.7 663.1295,-703.7 494.1295,-703.7"/>
<image xlink:href="../../images/primaryKeys.png" width="11px" height="12px" preserveAspectRatio="xMinYMin meet" x="499.129" y="-720.7"/>
<text text-anchor="start" x="523.1295" y="-710.8" font-family="Helvetica,sans-Serif" font-size="11.00" fill="#000000">versionumero</text>
<polygon fill="none" stroke="#000000" points="494.1295,-684.7 494.1295,-703.7 663.1295,-703.7 663.1295,-684.7 494.1295,-684.7"/>
<text text-anchor="start" x="497.1295" y="-690.8" font-family="Helvetica,sans-Serif" font-size="11.00" fill="#000000">...</text>
<polygon fill="#ffffff" stroke="transparent" points="494.1295,-665.7 494.1295,-684.7 558.1295,-684.7 558.1295,-665.7 494.1295,-665.7"/>
<polygon fill="none" stroke="#000000" points="494.1295,-665.7 494.1295,-684.7 558.1295,-684.7 558.1295,-665.7 494.1295,-665.7"/>
<text text-anchor="start" x="497.1295" y="-671.8" font-family="Helvetica,sans-Serif" font-size="11.00" fill="#000000">&lt; 1</text>
<polygon fill="#ffffff" stroke="transparent" points="558.1295,-665.7 558.1295,-684.7 629.1295,-684.7 629.1295,-665.7 558.1295,-665.7"/>
<polygon fill="none" stroke="#000000" points="558.1295,-665.7 558.1295,-684.7 629.1295,-684.7 629.1295,-665.7 558.1295,-665.7"/>
<text text-anchor="start" x="581.5102" y="-671.8" font-family="Helvetica,sans-Serif" font-size="11.00" fill="#000000">147 rows</text>
<polygon fill="#ffffff" stroke="transparent" points="629.1295,-665.7 629.1295,-684.7 663.1295,-684.7 663.1295,-665.7 629.1295,-665.7"/>
<polygon fill="none" stroke="#000000" points="629.1295,-665.7 629.1295,-684.7 663.1295,-684.7 663.1295,-665.7 629.1295,-665.7"/>
<text text-anchor="start" x="654.0157" y="-671.8" font-family="Helvetica,sans-Serif" font-size="11.00" fill="#000000"> &#160;</text>
</a>
</g>
</g>
<!-- opiskeluoikeushistoria&#45;&gt;opiskeluoikeus -->
<g id="edge4" class="edge">
<title>opiskeluoikeushistoria:w&#45;&gt;opiskeluoikeus:e</title>
<path fill="none" stroke="#000000" d="M479.5487,-736.7C463.7604,-736.7 455.1711,-736.7 434.1295,-736.7"/>
<polygon fill="#000000" stroke="#000000" points="486.1295,-736.7001 494.1295,-740.3 490.1295,-736.7 494.1295,-736.7 494.1295,-736.7 494.1295,-736.7 490.1295,-736.7 494.1294,-733.1 486.1295,-736.7001 486.1295,-736.7001"/>
<ellipse fill="none" stroke="#000000" cx="482.9295" cy="-736.7001" rx="3.2" ry="3.2"/>
</g>
<!-- perustiedot_manual_sync -->
<g id="node3" class="node">
<title>perustiedot_manual_sync</title>
<g id="a_node3"><a xlink:href="../../tables/perustiedot_manual_sync.html" xlink:title="perustiedot_manual_sync" target="_top">
<polygon fill="#ffffff" stroke="transparent" points="484.6295,-540.2 484.6295,-645.2 671.6295,-645.2 671.6295,-540.2 484.6295,-540.2"/>
<polygon fill="#f5f5f5" stroke="transparent" points="485.1295,-621.7 485.1295,-644.7 672.1295,-644.7 672.1295,-621.7 485.1295,-621.7"/>
<polygon fill="none" stroke="#000000" points="485.1295,-621.7 485.1295,-644.7 672.1295,-644.7 672.1295,-621.7 485.1295,-621.7"/>
<text text-anchor="start" x="490.1295" y="-630.3" font-family="Helvetica,sans-Serif" font-weight="bold" font-size="11.00" fill="#000000">perustiedot_manual_sync</text>
<text text-anchor="start" x="637.6513" y="-629.8" font-family="Helvetica,sans-Serif" font-size="11.00" fill="#000000">[table]</text>
<polygon fill="none" stroke="#000000" points="485.1295,-599.7 485.1295,-621.7 672.1295,-621.7 672.1295,-599.7 485.1295,-599.7"/>
<image xlink:href="../../images/primaryKeys.png" width="11px" height="12px" preserveAspectRatio="xMinYMin meet" x="490.129" y="-616.7"/>
<text text-anchor="start" x="514.1295" y="-606.8" font-family="Helvetica,sans-Serif" font-size="11.00" fill="#000000">id</text>
<polygon fill="none" stroke="#000000" points="485.1295,-577.7 485.1295,-599.7 672.1295,-599.7 672.1295,-577.7 485.1295,-577.7"/>
<image xlink:href="../../images/foreignKeys.png" width="11px" height="12px" preserveAspectRatio="xMinYMin meet" x="490.129" y="-594.7"/>
<text text-anchor="start" x="514.1295" y="-584.8" font-family="Helvetica,sans-Serif" font-size="11.00" fill="#000000">opiskeluoikeus_oid</text>
<polygon fill="none" stroke="#000000" points="485.1295,-558.7 485.1295,-577.7 672.1295,-577.7 672.1295,-558.7 485.1295,-558.7"/>
<text text-anchor="start" x="488.1295" y="-564.8" font-family="Helvetica,sans-Serif" font-size="11.00" fill="#000000">...</text>
<polygon fill="#ffffff" stroke="transparent" points="485.1295,-539.7 485.1295,-558.7 564.1295,-558.7 564.1295,-539.7 485.1295,-539.7"/>
<polygon fill="none" stroke="#000000" points="485.1295,-539.7 485.1295,-558.7 564.1295,-558.7 564.1295,-539.7 485.1295,-539.7"/>
<text text-anchor="start" x="488.1295" y="-545.8" font-family="Helvetica,sans-Serif" font-size="11.00" fill="#000000">&lt; 1</text>
<polygon fill="#ffffff" stroke="transparent" points="564.1295,-539.7 564.1295,-558.7 631.1295,-558.7 631.1295,-539.7 564.1295,-539.7"/>
<polygon fill="none" stroke="#000000" points="564.1295,-539.7 564.1295,-558.7 631.1295,-558.7 631.1295,-539.7 564.1295,-539.7"/>
<text text-anchor="start" x="595.74" y="-545.8" font-family="Helvetica,sans-Serif" font-size="11.00" fill="#000000">0 rows</text>
<polygon fill="#ffffff" stroke="transparent" points="631.1295,-539.7 631.1295,-558.7 672.1295,-558.7 672.1295,-539.7 631.1295,-539.7"/>
<polygon fill="none" stroke="#000000" points="631.1295,-539.7 631.1295,-558.7 672.1295,-558.7 672.1295,-539.7 631.1295,-539.7"/>
<text text-anchor="start" x="663.0157" y="-545.8" font-family="Helvetica,sans-Serif" font-size="11.00" fill="#000000"> &#160;</text>
</a>
</g>
</g>
<!-- perustiedot_manual_sync&#45;&gt;opiskeluoikeus -->
<g id="edge5" class="edge">
<title>perustiedot_manual_sync:w&#45;&gt;opiskeluoikeus:e</title>
<path fill="none" stroke="#000000" d="M471.1192,-593.0591C457.6932,-603.0405 456.4337,-626.7 434.1295,-626.7"/>
<polygon fill="#000000" stroke="#000000" points="477.4907,-591.0767 486.199,-592.1375 481.3101,-589.8884 485.1295,-588.7 485.1295,-588.7 485.1295,-588.7 481.3101,-589.8884 484.0599,-585.2625 477.4907,-591.0767 477.4907,-591.0767"/>
<ellipse fill="none" stroke="#000000" cx="474.4351" cy="-592.0274" rx="3.2" ry="3.2"/>
</g>
<!-- ytr_opiskeluoikeushistoria -->
<g id="node4" class="node">
<title>ytr_opiskeluoikeushistoria</title>
<g id="a_node4"><a xlink:href="../../tables/ytr_opiskeluoikeushistoria.html" xlink:title="ytr_opiskeluoikeushistoria" target="_top">
<polygon fill="#ffffff" stroke="transparent" points="482.6295,-280.2 482.6295,-385.2 673.6295,-385.2 673.6295,-280.2 482.6295,-280.2"/>
<polygon fill="#f5f5f5" stroke="transparent" points="483.1295,-361.7 483.1295,-384.7 674.1295,-384.7 674.1295,-361.7 483.1295,-361.7"/>
<polygon fill="none" stroke="#000000" points="483.1295,-361.7 483.1295,-384.7 674.1295,-384.7 674.1295,-361.7 483.1295,-361.7"/>
<text text-anchor="start" x="488.1295" y="-370.3" font-family="Helvetica,sans-Serif" font-weight="bold" font-size="11.00" fill="#000000">ytr_opiskeluoikeushistoria</text>
<text text-anchor="start" x="639.6513" y="-369.8" font-family="Helvetica,sans-Serif" font-size="11.00" fill="#000000">[table]</text>
<polygon fill="none" stroke="#000000" points="483.1295,-339.7 483.1295,-361.7 674.1295,-361.7 674.1295,-339.7 483.1295,-339.7"/>
<image xlink:href="../../images/primaryKeys.png" width="11px" height="12px" preserveAspectRatio="xMinYMin meet" x="488.129" y="-356.7"/>
<text text-anchor="start" x="512.1295" y="-346.8" font-family="Helvetica,sans-Serif" font-size="11.00" fill="#000000">opiskeluoikeus_id</text>
<polygon fill="none" stroke="#000000" points="483.1295,-317.7 483.1295,-339.7 674.1295,-339.7 674.1295,-317.7 483.1295,-317.7"/>
<image xlink:href="../../images/primaryKeys.png" width="11px" height="12px" preserveAspectRatio="xMinYMin meet" x="488.129" y="-334.7"/>
<text text-anchor="start" x="512.1295" y="-324.8" font-family="Helvetica,sans-Serif" font-size="11.00" fill="#000000">versionumero</text>
<polygon fill="none" stroke="#000000" points="483.1295,-298.7 483.1295,-317.7 674.1295,-317.7 674.1295,-298.7 483.1295,-298.7"/>
<text text-anchor="start" x="486.1295" y="-304.8" font-family="Helvetica,sans-Serif" font-size="11.00" fill="#000000">...</text>
<polygon fill="#ffffff" stroke="transparent" points="483.1295,-279.7 483.1295,-298.7 564.1295,-298.7 564.1295,-279.7 483.1295,-279.7"/>
<polygon fill="none" stroke="#000000" points="483.1295,-279.7 483.1295,-298.7 564.1295,-298.7 564.1295,-279.7 483.1295,-279.7"/>
<text text-anchor="start" x="486.1295" y="-285.8" font-family="Helvetica,sans-Serif" font-size="11.00" fill="#000000">&lt; 1</text>
<polygon fill="#ffffff" stroke="transparent" points="564.1295,-279.7 564.1295,-298.7 632.1295,-298.7 632.1295,-279.7 564.1295,-279.7"/>
<polygon fill="none" stroke="#000000" points="564.1295,-279.7 564.1295,-298.7 632.1295,-298.7 632.1295,-279.7 564.1295,-279.7"/>
<text text-anchor="start" x="596.74" y="-285.8" font-family="Helvetica,sans-Serif" font-size="11.00" fill="#000000">5 rows</text>
<polygon fill="#ffffff" stroke="transparent" points="632.1295,-279.7 632.1295,-298.7 674.1295,-298.7 674.1295,-279.7 632.1295,-279.7"/>
<polygon fill="none" stroke="#000000" points="632.1295,-279.7 632.1295,-298.7 674.1295,-298.7 674.1295,-279.7 632.1295,-279.7"/>
<text text-anchor="start" x="665.0157" y="-285.8" font-family="Helvetica,sans-Serif" font-size="11.00" fill="#000000"> &#160;</text>
</a>
</g>
</g>
<!-- ytr_opiskeluoikeus -->
<g id="node6" class="node">
<title>ytr_opiskeluoikeus</title>
<g id="a_node6"><a xlink:href="../../tables/ytr_opiskeluoikeus.html" xlink:title="ytr_opiskeluoikeus" target="_top">
<polygon fill="#ffffff" stroke="transparent" points="180.6295,-38.2 180.6295,-385.2 433.6295,-385.2 433.6295,-38.2 180.6295,-38.2"/>
<polygon fill="#f5f5f5" stroke="transparent" points="181.1295,-361.7 181.1295,-384.7 434.1295,-384.7 434.1295,-361.7 181.1295,-361.7"/>
<polygon fill="none" stroke="#000000" points="181.1295,-361.7 181.1295,-384.7 434.1295,-384.7 434.1295,-361.7 181.1295,-361.7"/>
<text text-anchor="start" x="186.1295" y="-370.3" font-family="Helvetica,sans-Serif" font-weight="bold" font-size="11.00" fill="#000000">ytr_opiskeluoikeus</text>
<text text-anchor="start" x="399.1732" y="-369.8" font-family="Helvetica,sans-Serif" font-size="11.00" fill="#000000">[table]</text>
<polygon fill="none" stroke="#000000" points="181.1295,-339.7 181.1295,-361.7 434.1295,-361.7 434.1295,-339.7 181.1295,-339.7"/>
<image xlink:href="../../images/primaryKeys.png" width="11px" height="12px" preserveAspectRatio="xMinYMin meet" x="186.129" y="-356.7"/>
<text text-anchor="start" x="201.1295" y="-346.8" font-family="Helvetica,sans-Serif" font-size="11.00" fill="#000000">id</text>
<polygon fill="#ffffff" stroke="transparent" points="181.1295,-317.7 181.1295,-339.7 434.1295,-339.7 434.1295,-317.7 181.1295,-317.7"/>
<polygon fill="none" stroke="#000000" points="181.1295,-317.7 181.1295,-339.7 434.1295,-339.7 434.1295,-317.7 181.1295,-317.7"/>
<image xlink:href="../../images/foreignKeys.png" width="11px" height="12px" preserveAspectRatio="xMinYMin meet" x="186.129" y="-334.7"/>
<text text-anchor="start" x="201.1295" y="-324.8" font-family="Helvetica,sans-Serif" font-size="11.00" fill="#000000">oppija_oid</text>
<polygon fill="#ffffff" stroke="transparent" points="181.1295,-295.7 181.1295,-317.7 434.1295,-317.7 434.1295,-295.7 181.1295,-295.7"/>
<polygon fill="none" stroke="#000000" points="181.1295,-295.7 181.1295,-317.7 434.1295,-317.7 434.1295,-295.7 181.1295,-295.7"/>
<text text-anchor="start" x="201.1295" y="-302.8" font-family="Helvetica,sans-Serif" font-size="11.00" fill="#000000">aikaleima</text>
<polygon fill="#ffffff" stroke="transparent" points="181.1295,-273.7 181.1295,-295.7 434.1295,-295.7 434.1295,-273.7 181.1295,-273.7"/>
<polygon fill="none" stroke="#000000" points="181.1295,-273.7 181.1295,-295.7 434.1295,-295.7 434.1295,-273.7 181.1295,-273.7"/>
<text text-anchor="start" x="201.1295" y="-280.8" font-family="Helvetica,sans-Serif" font-size="11.00" fill="#000000">oppilaitos_oid</text>
<polygon fill="#ffffff" stroke="transparent" points="181.1295,-251.7 181.1295,-273.7 434.1295,-273.7 434.1295,-251.7 181.1295,-251.7"/>
<polygon fill="none" stroke="#000000" points="181.1295,-251.7 181.1295,-273.7 434.1295,-273.7 434.1295,-251.7 181.1295,-251.7"/>
<text text-anchor="start" x="201.1295" y="-258.8" font-family="Helvetica,sans-Serif" font-size="11.00" fill="#000000">sisaltava_opiskeluoikeus_oppilaitos_oid</text>
<polygon fill="#ffffff" stroke="transparent" points="181.1295,-229.7 181.1295,-251.7 434.1295,-251.7 434.1295,-229.7 181.1295,-229.7"/>
<polygon fill="none" stroke="#000000" points="181.1295,-229.7 181.1295,-251.7 434.1295,-251.7 434.1295,-229.7 181.1295,-229.7"/>
<text text-anchor="start" x="201.1295" y="-236.8" font-family="Helvetica,sans-Serif" font-size="11.00" fill="#000000">oid</text>
<polygon fill="none" stroke="#000000" points="181.1295,-207.7 181.1295,-229.7 434.1295,-229.7 434.1295,-207.7 181.1295,-207.7"/>
<image xlink:href="../../images/foreignKeys.png" width="11px" height="12px" preserveAspectRatio="xMinYMin meet" x="186.129" y="-224.7"/>
<text text-anchor="start" x="201.1295" y="-214.8" font-family="Helvetica,sans-Serif" font-size="11.00" fill="#000000">sisaltava_opiskeluoikeus_oid</text>
<polygon fill="#ffffff" stroke="transparent" points="181.1295,-185.7 181.1295,-207.7 434.1295,-207.7 434.1295,-185.7 181.1295,-185.7"/>
<polygon fill="none" stroke="#000000" points="181.1295,-185.7 181.1295,-207.7 434.1295,-207.7 434.1295,-185.7 181.1295,-185.7"/>
<text text-anchor="start" x="201.1295" y="-192.8" font-family="Helvetica,sans-Serif" font-size="11.00" fill="#000000">mitatoity</text>
<polygon fill="#ffffff" stroke="transparent" points="181.1295,-163.7 181.1295,-185.7 434.1295,-185.7 434.1295,-163.7 181.1295,-163.7"/>
<polygon fill="none" stroke="#000000" points="181.1295,-163.7 181.1295,-185.7 434.1295,-185.7 434.1295,-163.7 181.1295,-163.7"/>
<text text-anchor="start" x="201.1295" y="-170.8" font-family="Helvetica,sans-Serif" font-size="11.00" fill="#000000">koulutusmuoto</text>
<polygon fill="#ffffff" stroke="transparent" points="181.1295,-141.7 181.1295,-163.7 434.1295,-163.7 434.1295,-141.7 181.1295,-141.7"/>
<polygon fill="none" stroke="#000000" points="181.1295,-141.7 181.1295,-163.7 434.1295,-163.7 434.1295,-141.7 181.1295,-141.7"/>
<text text-anchor="start" x="201.1295" y="-148.8" font-family="Helvetica,sans-Serif" font-size="11.00" fill="#000000">alkamispaiva</text>
<polygon fill="#ffffff" stroke="transparent" points="181.1295,-119.7 181.1295,-141.7 434.1295,-141.7 434.1295,-119.7 181.1295,-119.7"/>
<polygon fill="none" stroke="#000000" points="181.1295,-119.7 181.1295,-141.7 434.1295,-141.7 434.1295,-119.7 181.1295,-119.7"/>
<text text-anchor="start" x="201.1295" y="-126.8" font-family="Helvetica,sans-Serif" font-size="11.00" fill="#000000">paattymispaiva</text>
<polygon fill="#ffffff" stroke="transparent" points="181.1295,-97.7 181.1295,-119.7 434.1295,-119.7 434.1295,-97.7 181.1295,-97.7"/>
<polygon fill="none" stroke="#000000" points="181.1295,-97.7 181.1295,-119.7 434.1295,-119.7 434.1295,-97.7 181.1295,-97.7"/>
<text text-anchor="start" x="201.1295" y="-104.8" font-family="Helvetica,sans-Serif" font-size="11.00" fill="#000000">suoritustyypit</text>
<polygon fill="#ffffff" stroke="transparent" points="181.1295,-75.7 181.1295,-97.7 434.1295,-97.7 434.1295,-75.7 181.1295,-75.7"/>
<polygon fill="none" stroke="#000000" points="181.1295,-75.7 181.1295,-97.7 434.1295,-97.7 434.1295,-75.7 181.1295,-75.7"/>
<text text-anchor="start" x="201.1295" y="-82.8" font-family="Helvetica,sans-Serif" font-size="11.00" fill="#000000">poistettu</text>
<polygon fill="none" stroke="#000000" points="181.1295,-56.7 181.1295,-75.7 434.1295,-75.7 434.1295,-56.7 181.1295,-56.7"/>
<text text-anchor="start" x="184.1295" y="-62.8" font-family="Helvetica,sans-Serif" font-size="11.00" fill="#000000">...</text>
<polygon fill="#ffffff" stroke="transparent" points="181.1295,-37.7 181.1295,-56.7 288.1295,-56.7 288.1295,-37.7 181.1295,-37.7"/>
<polygon fill="none" stroke="#000000" points="181.1295,-37.7 181.1295,-56.7 288.1295,-56.7 288.1295,-37.7 181.1295,-37.7"/>
<text text-anchor="start" x="184.1295" y="-43.8" font-family="Helvetica,sans-Serif" font-size="11.00" fill="#000000">&lt; 2</text>
<polygon fill="#ffffff" stroke="transparent" points="288.1295,-37.7 288.1295,-56.7 369.1295,-56.7 369.1295,-37.7 288.1295,-37.7"/>
<polygon fill="none" stroke="#000000" points="288.1295,-37.7 288.1295,-56.7 369.1295,-56.7 369.1295,-37.7 288.1295,-37.7"/>
<text text-anchor="start" x="333.74" y="-43.8" font-family="Helvetica,sans-Serif" font-size="11.00" fill="#000000">5 rows</text>
<polygon fill="#ffffff" stroke="transparent" points="369.1295,-37.7 369.1295,-56.7 434.1295,-56.7 434.1295,-37.7 369.1295,-37.7"/>
<polygon fill="none" stroke="#000000" points="369.1295,-37.7 369.1295,-56.7 434.1295,-56.7 434.1295,-37.7 369.1295,-37.7"/>
<text text-anchor="start" x="415.5348" y="-43.8" font-family="Helvetica,sans-Serif" font-size="11.00" fill="#000000">2 &gt;</text>
</a>
</g>
</g>
<!-- ytr_opiskeluoikeushistoria&#45;&gt;ytr_opiskeluoikeus -->
<g id="edge9" class="edge">
<title>ytr_opiskeluoikeushistoria:w&#45;&gt;ytr_opiskeluoikeus:e</title>
<path fill="none" stroke="#000000" d="M468.6203,-350.7C457.3069,-350.7 450.1225,-350.7 434.1295,-350.7"/>
<polygon fill="#000000" stroke="#000000" points="475.1295,-350.7001 483.1295,-354.3 479.1295,-350.7 483.1295,-350.7 483.1295,-350.7 483.1295,-350.7 479.1295,-350.7 483.1294,-347.1 475.1295,-350.7001 475.1295,-350.7001"/>
<ellipse fill="none" stroke="#000000" cx="471.9295" cy="-350.7001" rx="3.2" ry="3.2"/>
</g>
<!-- opiskeluoikeus&#45;&gt;opiskeluoikeus -->
<g id="edge3" class="edge">
<title>opiskeluoikeus:w&#45;&gt;opiskeluoikeus:e</title>
<path fill="none" stroke="#000000" d="M171.9707,-616.4085C126.2543,-681.8505 136.2935,-788.2 307.6295,-788.2 489.6295,-788.2 489.6295,-690.2 434.1295,-626.7"/>
<polygon fill="#000000" stroke="#000000" points="176.2005,-611.0012 183.965,-606.9181 178.665,-607.8506 181.1295,-604.7 181.1295,-604.7 181.1295,-604.7 178.665,-607.8506 178.2939,-602.4819 176.2005,-611.0012 176.2005,-611.0012"/>
<ellipse fill="none" stroke="#000000" cx="174.2288" cy="-613.5217" rx="3.2" ry="3.2"/>
</g>
<!-- henkilo -->
<g id="node7" class="node">
<title>henkilo</title>
<g id="a_node7"><a xlink:href="../../tables/henkilo.html" xlink:title="henkilo" target="_top">
<polygon fill="#ffffff" stroke="transparent" points="36.6295,-451.2 36.6295,-556.2 131.6295,-556.2 131.6295,-451.2 36.6295,-451.2"/>
<polygon fill="#f5f5f5" stroke="transparent" points="37.1295,-532.7 37.1295,-555.7 132.1295,-555.7 132.1295,-532.7 37.1295,-532.7"/>
<polygon fill="none" stroke="#000000" points="37.1295,-532.7 37.1295,-555.7 132.1295,-555.7 132.1295,-532.7 37.1295,-532.7"/>
<text text-anchor="start" x="42.1295" y="-541.3" font-family="Helvetica,sans-Serif" font-weight="bold" font-size="11.00" fill="#000000">henkilo</text>
<text text-anchor="start" x="97.1732" y="-540.8" font-family="Helvetica,sans-Serif" font-size="11.00" fill="#000000">[table]</text>
<polygon fill="none" stroke="#000000" points="37.1295,-510.7 37.1295,-532.7 132.1295,-532.7 132.1295,-510.7 37.1295,-510.7"/>
<image xlink:href="../../images/primaryKeys.png" width="11px" height="12px" preserveAspectRatio="xMinYMin meet" x="42.1295" y="-527.7"/>
<text text-anchor="start" x="57.1295" y="-517.8" font-family="Helvetica,sans-Serif" font-size="11.00" fill="#000000">oid</text>
<polygon fill="#ffffff" stroke="transparent" points="37.1295,-488.7 37.1295,-510.7 132.1295,-510.7 132.1295,-488.7 37.1295,-488.7"/>
<polygon fill="none" stroke="#000000" points="37.1295,-488.7 37.1295,-510.7 132.1295,-510.7 132.1295,-488.7 37.1295,-488.7"/>
<image xlink:href="../../images/foreignKeys.png" width="11px" height="12px" preserveAspectRatio="xMinYMin meet" x="42.1295" y="-505.7"/>
<text text-anchor="start" x="57.1295" y="-495.8" font-family="Helvetica,sans-Serif" font-size="11.00" fill="#000000">master_oid</text>
<polygon fill="none" stroke="#000000" points="37.1295,-469.7 37.1295,-488.7 132.1295,-488.7 132.1295,-469.7 37.1295,-469.7"/>
<text text-anchor="start" x="40.1295" y="-475.8" font-family="Helvetica,sans-Serif" font-size="11.00" fill="#000000">...</text>
<polygon fill="#ffffff" stroke="transparent" points="37.1295,-450.7 37.1295,-469.7 59.1295,-469.7 59.1295,-450.7 37.1295,-450.7"/>
<polygon fill="none" stroke="#000000" points="37.1295,-450.7 37.1295,-469.7 59.1295,-469.7 59.1295,-450.7 37.1295,-450.7"/>
<text text-anchor="start" x="40.1295" y="-456.8" font-family="Helvetica,sans-Serif" font-size="11.00" fill="#000000">&lt; 1</text>
<polygon fill="#ffffff" stroke="transparent" points="59.1295,-450.7 59.1295,-469.7 110.1295,-469.7 110.1295,-450.7 59.1295,-450.7"/>
<polygon fill="none" stroke="#000000" points="59.1295,-450.7 59.1295,-469.7 110.1295,-469.7 110.1295,-450.7 59.1295,-450.7"/>
<text text-anchor="start" x="62.5102" y="-456.8" font-family="Helvetica,sans-Serif" font-size="11.00" fill="#000000">175 rows</text>
<polygon fill="#ffffff" stroke="transparent" points="110.1295,-450.7 110.1295,-469.7 132.1295,-469.7 132.1295,-450.7 110.1295,-450.7"/>
<polygon fill="none" stroke="#000000" points="110.1295,-450.7 110.1295,-469.7 132.1295,-469.7 132.1295,-450.7 110.1295,-450.7"/>
<text text-anchor="start" x="113.5348" y="-456.8" font-family="Helvetica,sans-Serif" font-size="11.00" fill="#000000">3 &gt;</text>
</a>
</g>
</g>
<!-- opiskeluoikeus&#45;&gt;henkilo -->
<g id="edge2" class="edge">
<title>opiskeluoikeus:w&#45;&gt;henkilo:e</title>
<path fill="none" stroke="#000000" d="M170.4742,-713.5666C103.6933,-697.7496 216.6531,-521.7 132.1295,-521.7"/>
<polygon fill="#000000" stroke="#000000" points="180.7571,-710.6378 179.9108,-718.5929 178.3198,-718.4237 179.1661,-710.4686 180.7571,-710.6378"/>
<polyline fill="none" stroke="#000000" points="181.1295,-714.7 177.1519,-714.2769 "/>
<ellipse fill="none" stroke="#000000" cx="173.9699" cy="-713.9384" rx="3.2" ry="3.2"/>
</g>
<!-- ytr_opiskeluoikeus&#45;&gt;ytr_opiskeluoikeus -->
<g id="edge8" class="edge">
<title>ytr_opiskeluoikeus:w&#45;&gt;ytr_opiskeluoikeus:e</title>
<path fill="none" stroke="#000000" d="M171.9707,-230.4085C126.2543,-295.8505 136.2935,-402.2 307.6295,-402.2 489.6295,-402.2 489.6295,-304.2 434.1295,-240.7"/>
<polygon fill="#000000" stroke="#000000" points="176.2005,-225.0012 183.965,-220.9181 178.665,-221.8506 181.1295,-218.7 181.1295,-218.7 181.1295,-218.7 178.665,-221.8506 178.2939,-216.4819 176.2005,-225.0012 176.2005,-225.0012"/>
<ellipse fill="none" stroke="#000000" cx="174.2288" cy="-227.5217" rx="3.2" ry="3.2"/>
</g>
<!-- ytr_opiskeluoikeus&#45;&gt;henkilo -->
<g id="edge7" class="edge">
<title>ytr_opiskeluoikeus:w&#45;&gt;henkilo:e</title>
<path fill="none" stroke="#000000" d="M170.4742,-329.8334C103.6933,-345.6504 216.6531,-521.7 132.1295,-521.7"/>
<polygon fill="#000000" stroke="#000000" points="179.9108,-324.8071 180.7571,-332.7622 179.1661,-332.9314 178.3198,-324.9763 179.9108,-324.8071"/>
<polyline fill="none" stroke="#000000" points="181.1295,-328.7 177.1519,-329.1231 "/>
<ellipse fill="none" stroke="#000000" cx="173.9699" cy="-329.4616" rx="3.2" ry="3.2"/>
</g>
<!-- henkilo&#45;&gt;henkilo -->
<g id="edge1" class="edge">
<title>henkilo:w&#45;&gt;henkilo:e</title>
<path fill="none" stroke="#000000" d="M24.0807,-506.2254C-17.6099,-531.146 -9.519,-573.2 84.6295,-573.2 187.6295,-573.2 187.6295,-544.8667 132.1295,-521.7"/>
<polygon fill="#000000" stroke="#000000" points="29.9743,-503.2782 38.7396,-502.9198 33.5519,-501.4891 37.1295,-499.7 37.1295,-499.7 37.1295,-499.7 33.5519,-501.4891 35.5193,-496.4802 29.9743,-503.2782 29.9743,-503.2782"/>
<ellipse fill="none" stroke="#000000" cx="27.1122" cy="-504.7094" rx="3.2" ry="3.2"/>
</g>
</g>
</svg>
