<?xml version="1.0" encoding="UTF-8" standalone="no"?>
<!DOCTYPE svg PUBLIC "-//W3C//DTD SVG 1.1//EN"
 "http://www.w3.org/Graphics/SVG/1.1/DTD/svg11.dtd">
<!-- Generated by graphviz version 2.40.1 (20161225.0304)
 -->
<!-- Title: compactImpliedRelationshipsDiagram Pages: 1 -->
<svg width="417pt" height="155pt"
 viewBox="0.00 0.00 417.00 155.20" xmlns="http://www.w3.org/2000/svg" xmlns:xlink="http://www.w3.org/1999/xlink">
<g id="graph0" class="graph" transform="scale(1 1) rotate(0) translate(4 151.2)">
<title>compactImpliedRelationshipsDiagram</title>
<polygon fill="#ffffff" stroke="transparent" points="-4,4 -4,-151.2 413,-151.2 413,4 -4,4"/>
<text text-anchor="middle" x="72.4936" y="-7.3" font-family="Helvetica,sans-Serif" font-size="11.00" fill="#000000">Generated by SchemaSpy</text>
<!-- r_organisaatio_kieli -->
<g id="node1" class="node">
<title>r_organisaatio_kieli</title>
<g id="a_node1"><a xlink:href="../../tables/r_organisaatio_kieli.html" xlink:title="r_organisaatio_kieli" target="_top">
<polygon fill="#ffffff" stroke="transparent" points="250,-60.2 250,-143.2 401,-143.2 401,-60.2 250,-60.2"/>
<polygon fill="#f5f5f5" stroke="transparent" points="250.5,-119.7 250.5,-142.7 401.5,-142.7 401.5,-119.7 250.5,-119.7"/>
<polygon fill="none" stroke="#000000" points="250.5,-119.7 250.5,-142.7 401.5,-142.7 401.5,-119.7 250.5,-119.7"/>
<text text-anchor="start" x="255.5" y="-128.3" font-family="Helvetica,sans-Serif" font-weight="bold" font-size="11.00" fill="#000000">r_organisaatio_kieli</text>
<text text-anchor="start" x="367.0219" y="-127.8" font-family="Helvetica,sans-Serif" font-size="11.00" fill="#000000">[table]</text>
<polygon fill="none" stroke="#000000" points="250.5,-97.7 250.5,-119.7 401.5,-119.7 401.5,-97.7 250.5,-97.7"/>
<image xlink:href="../../images/foreignKeys.png" width="11px" height="12px" preserveAspectRatio="xMinYMin meet" x="255.5" y="-114.7"/>
<text text-anchor="start" x="279.5" y="-104.8" font-family="Helvetica,sans-Serif" font-size="11.00" fill="#000000">organisaatio_oid</text>
<polygon fill="none" stroke="#000000" points="250.5,-78.7 250.5,-97.7 401.5,-97.7 401.5,-78.7 250.5,-78.7"/>
<text text-anchor="start" x="253.5" y="-84.8" font-family="Helvetica,sans-Serif" font-size="11.00" fill="#000000">...</text>
<polygon fill="#ffffff" stroke="transparent" points="250.5,-59.7 250.5,-78.7 294.5,-78.7 294.5,-59.7 250.5,-59.7"/>
<polygon fill="none" stroke="#000000" points="250.5,-59.7 250.5,-78.7 294.5,-78.7 294.5,-59.7 250.5,-59.7"/>
<text text-anchor="start" x="253.5" y="-65.8" font-family="Helvetica,sans-Serif" font-size="11.00" fill="#000000"> &#160;</text>
<polygon fill="#ffffff" stroke="transparent" points="294.5,-59.7 294.5,-78.7 373.5,-78.7 373.5,-59.7 294.5,-59.7"/>
<polygon fill="none" stroke="#000000" points="294.5,-59.7 294.5,-78.7 373.5,-78.7 373.5,-59.7 294.5,-59.7"/>
<text text-anchor="start" x="313.047" y="-65.8" font-family="Helvetica,sans-Serif" font-size="11.00" fill="#000000">1 056 rows</text>
<polygon fill="#ffffff" stroke="transparent" points="373.5,-59.7 373.5,-78.7 401.5,-78.7 401.5,-59.7 373.5,-59.7"/>
<polygon fill="none" stroke="#000000" points="373.5,-59.7 373.5,-78.7 401.5,-78.7 401.5,-59.7 373.5,-59.7"/>
<text text-anchor="start" x="392.3862" y="-65.8" font-family="Helvetica,sans-Serif" font-size="11.00" fill="#000000"> &#160;</text>
</a>
</g>
</g>
<!-- r_organisaatio -->
<g id="node2" class="node">
<title>r_organisaatio</title>
<g id="a_node2"><a xlink:href="../../tables/r_organisaatio.html" xlink:title="r_organisaatio" target="_top">
<polygon fill="#ffffff" stroke="transparent" points="8,-38.2 8,-143.2 201,-143.2 201,-38.2 8,-38.2"/>
<polygon fill="#f5f5f5" stroke="transparent" points="8.5,-119.7 8.5,-142.7 201.5,-142.7 201.5,-119.7 8.5,-119.7"/>
<polygon fill="none" stroke="#000000" points="8.5,-119.7 8.5,-142.7 201.5,-142.7 201.5,-119.7 8.5,-119.7"/>
<text text-anchor="start" x="13.5" y="-128.3" font-family="Helvetica,sans-Serif" font-weight="bold" font-size="11.00" fill="#000000">r_organisaatio</text>
<text text-anchor="start" x="166.5437" y="-127.8" font-family="Helvetica,sans-Serif" font-size="11.00" fill="#000000">[table]</text>
<polygon fill="none" stroke="#000000" points="8.5,-97.7 8.5,-119.7 201.5,-119.7 201.5,-97.7 8.5,-97.7"/>
<image xlink:href="../../images/primaryKeys.png" width="11px" height="12px" preserveAspectRatio="xMinYMin meet" x="13.5" y="-114.7"/>
<text text-anchor="start" x="28.5" y="-104.8" font-family="Helvetica,sans-Serif" font-size="11.00" fill="#000000">organisaatio_oid</text>
<polygon fill="#ffffff" stroke="transparent" points="8.5,-75.7 8.5,-97.7 201.5,-97.7 201.5,-75.7 8.5,-75.7"/>
<polygon fill="none" stroke="#000000" points="8.5,-75.7 8.5,-97.7 201.5,-97.7 201.5,-75.7 8.5,-75.7"/>
<text text-anchor="start" x="28.5" y="-82.8" font-family="Helvetica,sans-Serif" font-size="11.00" fill="#000000">oppilaitosnumero</text>
<polygon fill="none" stroke="#000000" points="8.5,-56.7 8.5,-75.7 201.5,-75.7 201.5,-56.7 8.5,-56.7"/>
<text text-anchor="start" x="11.5" y="-62.8" font-family="Helvetica,sans-Serif" font-size="11.00" fill="#000000">...</text>
<polygon fill="#ffffff" stroke="transparent" points="8.5,-37.7 8.5,-56.7 79.5,-56.7 79.5,-37.7 8.5,-37.7"/>
<polygon fill="none" stroke="#000000" points="8.5,-37.7 8.5,-56.7 79.5,-56.7 79.5,-37.7 8.5,-37.7"/>
<text text-anchor="start" x="11.5" y="-43.8" font-family="Helvetica,sans-Serif" font-size="11.00" fill="#000000"> &#160;</text>
<polygon fill="#ffffff" stroke="transparent" points="79.5,-37.7 79.5,-56.7 159.5,-56.7 159.5,-37.7 79.5,-37.7"/>
<polygon fill="none" stroke="#000000" points="79.5,-37.7 79.5,-56.7 159.5,-56.7 159.5,-37.7 79.5,-37.7"/>
<text text-anchor="start" x="111.8807" y="-43.8" font-family="Helvetica,sans-Serif" font-size="11.00" fill="#000000">988 rows</text>
<polygon fill="#ffffff" stroke="transparent" points="159.5,-37.7 159.5,-56.7 201.5,-56.7 201.5,-37.7 159.5,-37.7"/>
<polygon fill="none" stroke="#000000" points="159.5,-37.7 159.5,-56.7 201.5,-56.7 201.5,-37.7 159.5,-37.7"/>
<text text-anchor="start" x="192.3862" y="-43.8" font-family="Helvetica,sans-Serif" font-size="11.00" fill="#000000"> &#160;</text>
</a>
</g>
</g>
<!-- r_organisaatio_kieli&#45;&gt;r_organisaatio -->
<g id="edge1" class="edge">
<title>r_organisaatio_kieli:w&#45;&gt;r_organisaatio:e</title>
<path fill="none" stroke="#000000" stroke-dasharray="5,2" d="M235.9909,-108.7C224.6774,-108.7 217.4931,-108.7 201.5,-108.7"/>
<polygon fill="#000000" stroke="#000000" points="242.5,-108.7001 250.5,-112.3 246.5,-108.7 250.5,-108.7 250.5,-108.7 250.5,-108.7 246.5,-108.7 250.5,-105.1 242.5,-108.7001 242.5,-108.7001"/>
<ellipse fill="none" stroke="#000000" cx="239.3" cy="-108.7001" rx="3.2" ry="3.2"/>
</g>
</g>
</svg>
