<?xml version="1.0" encoding="UTF-8" standalone="no"?>
<!DOCTYPE svg PUBLIC "-//W3C//DTD SVG 1.1//EN"
 "http://www.w3.org/Graphics/SVG/1.1/DTD/svg11.dtd">
<!-- Generated by graphviz version 2.40.1 (20161225.0304)
 -->
<!-- Title: compactImpliedRelationshipsDiagram Pages: 1 -->
<svg width="348pt" height="155pt"
 viewBox="0.00 0.00 348.00 155.20" xmlns="http://www.w3.org/2000/svg" xmlns:xlink="http://www.w3.org/1999/xlink">
<g id="graph0" class="graph" transform="scale(1 1) rotate(0) translate(4 151.2)">
<title>compactImpliedRelationshipsDiagram</title>
<polygon fill="#ffffff" stroke="transparent" points="-4,4 -4,-151.2 344,-151.2 344,4 -4,4"/>
<text text-anchor="middle" x="72.4936" y="-7.3" font-family="Helvetica,sans-Serif" font-size="11.00" fill="#000000">Generated by SchemaSpy</text>
<!-- r_organisaatio_kieli -->
<g id="node1" class="node">
<title>r_organisaatio_kieli</title>
<g id="a_node1"><a xlink:href="../../tables/r_organisaatio_kieli.html" xlink:title="r_organisaatio_kieli" target="_top">
<polygon fill="#ffffff" stroke="transparent" points="181,-60.2 181,-143.2 332,-143.2 332,-60.2 181,-60.2"/>
<polygon fill="#f5f5f5" stroke="transparent" points="181.5,-119.7 181.5,-142.7 332.5,-142.7 332.5,-119.7 181.5,-119.7"/>
<polygon fill="none" stroke="#000000" points="181.5,-119.7 181.5,-142.7 332.5,-142.7 332.5,-119.7 181.5,-119.7"/>
<text text-anchor="start" x="186.5" y="-128.3" font-family="Helvetica,sans-Serif" font-weight="bold" font-size="11.00" fill="#000000">r_organisaatio_kieli</text>
<text text-anchor="start" x="298.0219" y="-127.8" font-family="Helvetica,sans-Serif" font-size="11.00" fill="#000000">[table]</text>
<polygon fill="none" stroke="#000000" points="181.5,-97.7 181.5,-119.7 332.5,-119.7 332.5,-97.7 181.5,-97.7"/>
<image xlink:href="../../images/foreignKeys.png" width="11px" height="12px" preserveAspectRatio="xMinYMin meet" x="186.5" y="-114.7"/>
<text text-anchor="start" x="210.5" y="-104.8" font-family="Helvetica,sans-Serif" font-size="11.00" fill="#000000">organisaatio_oid</text>
<polygon fill="none" stroke="#000000" points="181.5,-78.7 181.5,-97.7 332.5,-97.7 332.5,-78.7 181.5,-78.7"/>
<text text-anchor="start" x="184.5" y="-84.8" font-family="Helvetica,sans-Serif" font-size="11.00" fill="#000000">...</text>
<polygon fill="#ffffff" stroke="transparent" points="181.5,-59.7 181.5,-78.7 225.5,-78.7 225.5,-59.7 181.5,-59.7"/>
<polygon fill="none" stroke="#000000" points="181.5,-59.7 181.5,-78.7 225.5,-78.7 225.5,-59.7 181.5,-59.7"/>
<text text-anchor="start" x="184.5" y="-65.8" font-family="Helvetica,sans-Serif" font-size="11.00" fill="#000000"> &#160;</text>
<polygon fill="#ffffff" stroke="transparent" points="225.5,-59.7 225.5,-78.7 304.5,-78.7 304.5,-59.7 225.5,-59.7"/>
<polygon fill="none" stroke="#000000" points="225.5,-59.7 225.5,-78.7 304.5,-78.7 304.5,-59.7 225.5,-59.7"/>
<text text-anchor="start" x="244.047" y="-65.8" font-family="Helvetica,sans-Serif" font-size="11.00" fill="#000000">1 056 rows</text>
<polygon fill="#ffffff" stroke="transparent" points="304.5,-59.7 304.5,-78.7 332.5,-78.7 332.5,-59.7 304.5,-59.7"/>
<polygon fill="none" stroke="#000000" points="304.5,-59.7 304.5,-78.7 332.5,-78.7 332.5,-59.7 304.5,-59.7"/>
<text text-anchor="start" x="323.3862" y="-65.8" font-family="Helvetica,sans-Serif" font-size="11.00" fill="#000000"> &#160;</text>
</a>
</g>
</g>
<!-- r_organisaatio -->
<g id="node2" class="node">
<title>r_organisaatio</title>
<g id="a_node2"><a xlink:href="../../tables/r_organisaatio.html" xlink:title="r_organisaatio" target="_top">
<polygon fill="#ffffff" stroke="transparent" points="8,-38.2 8,-143.2 132,-143.2 132,-38.2 8,-38.2"/>
<polygon fill="#f5f5f5" stroke="transparent" points="8,-119.7 8,-142.7 132,-142.7 132,-119.7 8,-119.7"/>
<polygon fill="none" stroke="#000000" points="8,-119.7 8,-142.7 132,-142.7 132,-119.7 8,-119.7"/>
<text text-anchor="start" x="13" y="-128.3" font-family="Helvetica,sans-Serif" font-weight="bold" font-size="11.00" fill="#000000">r_organisaatio</text>
<text text-anchor="start" x="97.0437" y="-127.8" font-family="Helvetica,sans-Serif" font-size="11.00" fill="#000000">[table]</text>
<polygon fill="none" stroke="#000000" points="8,-97.7 8,-119.7 132,-119.7 132,-97.7 8,-97.7"/>
<image xlink:href="../../images/primaryKeys.png" width="11px" height="12px" preserveAspectRatio="xMinYMin meet" x="13" y="-114.7"/>
<text text-anchor="start" x="28" y="-104.8" font-family="Helvetica,sans-Serif" font-size="11.00" fill="#000000">organisaatio_oid</text>
<polygon fill="#ffffff" stroke="transparent" points="8,-75.7 8,-97.7 132,-97.7 132,-75.7 8,-75.7"/>
<polygon fill="none" stroke="#000000" points="8,-75.7 8,-97.7 132,-97.7 132,-75.7 8,-75.7"/>
<text text-anchor="start" x="28" y="-82.8" font-family="Helvetica,sans-Serif" font-size="11.00" fill="#000000">oppilaitosnumero</text>
<polygon fill="none" stroke="#000000" points="8,-56.7 8,-75.7 132,-75.7 132,-56.7 8,-56.7"/>
<text text-anchor="start" x="11" y="-62.8" font-family="Helvetica,sans-Serif" font-size="11.00" fill="#000000">...</text>
<polygon fill="#ffffff" stroke="transparent" points="8,-37.7 8,-56.7 45,-56.7 45,-37.7 8,-37.7"/>
<polygon fill="none" stroke="#000000" points="8,-37.7 8,-56.7 45,-56.7 45,-37.7 8,-37.7"/>
<text text-anchor="start" x="11" y="-43.8" font-family="Helvetica,sans-Serif" font-size="11.00" fill="#000000"> &#160;</text>
<polygon fill="#ffffff" stroke="transparent" points="45,-37.7 45,-56.7 107,-56.7 107,-37.7 45,-37.7"/>
<polygon fill="none" stroke="#000000" points="45,-37.7 45,-56.7 107,-56.7 107,-37.7 45,-37.7"/>
<text text-anchor="start" x="59.3807" y="-43.8" font-family="Helvetica,sans-Serif" font-size="11.00" fill="#000000">988 rows</text>
<polygon fill="#ffffff" stroke="transparent" points="107,-37.7 107,-56.7 132,-56.7 132,-37.7 107,-37.7"/>
<polygon fill="none" stroke="#000000" points="107,-37.7 107,-56.7 132,-56.7 132,-37.7 107,-37.7"/>
<text text-anchor="start" x="122.8862" y="-43.8" font-family="Helvetica,sans-Serif" font-size="11.00" fill="#000000"> &#160;</text>
</a>
</g>
</g>
<!-- r_organisaatio_kieli&#45;&gt;r_organisaatio -->
<g id="edge1" class="edge">
<title>r_organisaatio_kieli:w&#45;&gt;r_organisaatio:e</title>
<path fill="none" stroke="#000000" stroke-dasharray="5,2" d="M166.8428,-108.7C155.4139,-108.7 148.1563,-108.7 132,-108.7"/>
<polygon fill="#000000" stroke="#000000" points="173.5,-108.7001 181.5,-112.3 177.5,-108.7 181.5,-108.7 181.5,-108.7 181.5,-108.7 177.5,-108.7 181.5,-105.1 173.5,-108.7001 173.5,-108.7001"/>
<ellipse fill="none" stroke="#000000" cx="170.3" cy="-108.7001" rx="3.2" ry="3.2"/>
</g>
</g>
</svg>
