<?xml version="1.0" encoding="UTF-8" standalone="no"?>
<!DOCTYPE svg PUBLIC "-//W3C//DTD SVG 1.1//EN"
 "http://www.w3.org/Graphics/SVG/1.1/DTD/svg11.dtd">
<!-- Generated by graphviz version 2.40.1 (20161225.0304)
 -->
<!-- Title: largeImpliedRelationshipsDiagram Pages: 1 -->
<svg width="388pt" height="312pt"
 viewBox="0.00 0.00 388.00 312.20" xmlns="http://www.w3.org/2000/svg" xmlns:xlink="http://www.w3.org/1999/xlink">
<g id="graph0" class="graph" transform="scale(1 1) rotate(0) translate(4 308.2)">
<title>largeImpliedRelationshipsDiagram</title>
<polygon fill="#ffffff" stroke="transparent" points="-4,4 -4,-308.2 384,-308.2 384,4 -4,4"/>
<text text-anchor="middle" x="72.4936" y="-7.3" font-family="Helvetica,sans-Serif" font-size="11.00" fill="#000000">Generated by SchemaSpy</text>
<!-- r_organisaatio_kieli -->
<g id="node1" class="node">
<title>r_organisaatio_kieli</title>
<g id="a_node1"><a xlink:href="../../tables/r_organisaatio_kieli.html" xlink:title="r_organisaatio_kieli" target="_top">
<polygon fill="#ffffff" stroke="transparent" points="202,-214.2 202,-300.2 372,-300.2 372,-214.2 202,-214.2"/>
<polygon fill="#f5f5f5" stroke="transparent" points="202,-277.2 202,-300.2 372,-300.2 372,-277.2 202,-277.2"/>
<polygon fill="none" stroke="#000000" points="202,-277.2 202,-300.2 372,-300.2 372,-277.2 202,-277.2"/>
<text text-anchor="start" x="207" y="-285.8" font-family="Helvetica,sans-Serif" font-weight="bold" font-size="11.00" fill="#000000">r_organisaatio_kieli</text>
<text text-anchor="start" x="337.5219" y="-285.3" font-family="Helvetica,sans-Serif" font-size="11.00" fill="#000000">[table]</text>
<polygon fill="none" stroke="#000000" points="202,-255.2 202,-277.2 372,-277.2 372,-255.2 202,-255.2"/>
<image xlink:href="../../images/foreignKeys.png" width="11px" height="12px" preserveAspectRatio="xMinYMin meet" x="207" y="-272.2"/>
<text text-anchor="start" x="231" y="-262.3" font-family="Helvetica,sans-Serif" font-size="11.00" fill="#000000">organisaatio_oid</text>
<polygon fill="none" stroke="#000000" points="202,-233.2 202,-255.2 372,-255.2 372,-233.2 202,-233.2"/>
<text text-anchor="start" x="231" y="-240.3" font-family="Helvetica,sans-Serif" font-size="11.00" fill="#000000">kielikoodi</text>
<polygon fill="#ffffff" stroke="transparent" points="202,-214.2 202,-233.2 257,-233.2 257,-214.2 202,-214.2"/>
<polygon fill="none" stroke="#000000" points="202,-214.2 202,-233.2 257,-233.2 257,-214.2 202,-214.2"/>
<text text-anchor="start" x="205" y="-220.3" font-family="Helvetica,sans-Serif" font-size="11.00" fill="#000000"> &#160;</text>
<polygon fill="#ffffff" stroke="transparent" points="257,-214.2 257,-233.2 338,-233.2 338,-214.2 257,-214.2"/>
<polygon fill="none" stroke="#000000" points="257,-214.2 257,-233.2 338,-233.2 338,-214.2 257,-214.2"/>
<text text-anchor="start" x="281.2089" y="-220.3" font-family="Helvetica,sans-Serif" font-size="11.00" fill="#000000">1,064 rows</text>
<polygon fill="#ffffff" stroke="transparent" points="338,-214.2 338,-233.2 372,-233.2 372,-214.2 338,-214.2"/>
<polygon fill="none" stroke="#000000" points="338,-214.2 338,-233.2 372,-233.2 372,-214.2 338,-214.2"/>
<text text-anchor="start" x="362.8862" y="-220.3" font-family="Helvetica,sans-Serif" font-size="11.00" fill="#000000"> &#160;</text>
</a>
</g>
</g>
<!-- r_organisaatio -->
<g id="node2" class="node">
<title>r_organisaatio</title>
<g id="a_node2"><a xlink:href="../../tables/r_organisaatio.html" xlink:title="r_organisaatio" target="_top">
<polygon fill="#ffffff" stroke="transparent" points="8,-38.2 8,-300.2 153,-300.2 153,-38.2 8,-38.2"/>
<polygon fill="#f5f5f5" stroke="transparent" points="8.5,-277.2 8.5,-300.2 153.5,-300.2 153.5,-277.2 8.5,-277.2"/>
<polygon fill="none" stroke="#000000" points="8.5,-277.2 8.5,-300.2 153.5,-300.2 153.5,-277.2 8.5,-277.2"/>
<text text-anchor="start" x="13.5" y="-285.8" font-family="Helvetica,sans-Serif" font-weight="bold" font-size="11.00" fill="#000000">r_organisaatio</text>
<text text-anchor="start" x="118.5437" y="-285.3" font-family="Helvetica,sans-Serif" font-size="11.00" fill="#000000">[table]</text>
<polygon fill="none" stroke="#000000" points="8.5,-255.2 8.5,-277.2 153.5,-277.2 153.5,-255.2 8.5,-255.2"/>
<image xlink:href="../../images/primaryKeys.png" width="11px" height="12px" preserveAspectRatio="xMinYMin meet" x="13.5" y="-272.2"/>
<text text-anchor="start" x="28.5" y="-262.3" font-family="Helvetica,sans-Serif" font-size="11.00" fill="#000000">organisaatio_oid</text>
<polygon fill="none" stroke="#000000" points="8.5,-233.2 8.5,-255.2 153.5,-255.2 153.5,-233.2 8.5,-233.2"/>
<text text-anchor="start" x="28.5" y="-240.3" font-family="Helvetica,sans-Serif" font-size="11.00" fill="#000000">nimi</text>
<polygon fill="none" stroke="#000000" points="8.5,-211.2 8.5,-233.2 153.5,-233.2 153.5,-211.2 8.5,-211.2"/>
<text text-anchor="start" x="28.5" y="-218.3" font-family="Helvetica,sans-Serif" font-size="11.00" fill="#000000">nimi_sv</text>
<polygon fill="none" stroke="#000000" points="8.5,-189.2 8.5,-211.2 153.5,-211.2 153.5,-189.2 8.5,-189.2"/>
<text text-anchor="start" x="28.5" y="-196.3" font-family="Helvetica,sans-Serif" font-size="11.00" fill="#000000">organisaatiotyypit</text>
<polygon fill="none" stroke="#000000" points="8.5,-167.2 8.5,-189.2 153.5,-189.2 153.5,-167.2 8.5,-167.2"/>
<text text-anchor="start" x="28.5" y="-174.3" font-family="Helvetica,sans-Serif" font-size="11.00" fill="#000000">oppilaitostyyppi</text>
<polygon fill="#ffffff" stroke="transparent" points="8.5,-145.2 8.5,-167.2 153.5,-167.2 153.5,-145.2 8.5,-145.2"/>
<polygon fill="none" stroke="#000000" points="8.5,-145.2 8.5,-167.2 153.5,-167.2 153.5,-145.2 8.5,-145.2"/>
<text text-anchor="start" x="28.5" y="-152.3" font-family="Helvetica,sans-Serif" font-size="11.00" fill="#000000">oppilaitosnumero</text>
<polygon fill="none" stroke="#000000" points="8.5,-123.2 8.5,-145.2 153.5,-145.2 153.5,-123.2 8.5,-123.2"/>
<text text-anchor="start" x="28.5" y="-130.3" font-family="Helvetica,sans-Serif" font-size="11.00" fill="#000000">kotipaikka</text>
<polygon fill="none" stroke="#000000" points="8.5,-101.2 8.5,-123.2 153.5,-123.2 153.5,-101.2 8.5,-101.2"/>
<text text-anchor="start" x="28.5" y="-108.3" font-family="Helvetica,sans-Serif" font-size="11.00" fill="#000000">y_tunnus</text>
<polygon fill="none" stroke="#000000" points="8.5,-79.2 8.5,-101.2 153.5,-101.2 153.5,-79.2 8.5,-79.2"/>
<text text-anchor="start" x="28.5" y="-86.3" font-family="Helvetica,sans-Serif" font-size="11.00" fill="#000000">koulutustoimija</text>
<polygon fill="none" stroke="#000000" points="8.5,-57.2 8.5,-79.2 153.5,-79.2 153.5,-57.2 8.5,-57.2"/>
<text text-anchor="start" x="28.5" y="-64.3" font-family="Helvetica,sans-Serif" font-size="11.00" fill="#000000">oppilaitos</text>
<polygon fill="#ffffff" stroke="transparent" points="8.5,-38.2 8.5,-57.2 55.5,-57.2 55.5,-38.2 8.5,-38.2"/>
<polygon fill="none" stroke="#000000" points="8.5,-38.2 8.5,-57.2 55.5,-57.2 55.5,-38.2 8.5,-38.2"/>
<text text-anchor="start" x="11.5" y="-44.3" font-family="Helvetica,sans-Serif" font-size="11.00" fill="#000000"> &#160;</text>
<polygon fill="#ffffff" stroke="transparent" points="55.5,-38.2 55.5,-57.2 123.5,-57.2 123.5,-38.2 55.5,-38.2"/>
<polygon fill="none" stroke="#000000" points="55.5,-38.2 55.5,-57.2 123.5,-57.2 123.5,-38.2 55.5,-38.2"/>
<text text-anchor="start" x="75.8807" y="-44.3" font-family="Helvetica,sans-Serif" font-size="11.00" fill="#000000">991 rows</text>
<polygon fill="#ffffff" stroke="transparent" points="123.5,-38.2 123.5,-57.2 153.5,-57.2 153.5,-38.2 123.5,-38.2"/>
<polygon fill="none" stroke="#000000" points="123.5,-38.2 123.5,-57.2 153.5,-57.2 153.5,-38.2 123.5,-38.2"/>
<text text-anchor="start" x="144.3862" y="-44.3" font-family="Helvetica,sans-Serif" font-size="11.00" fill="#000000"> &#160;</text>
</a>
</g>
</g>
<!-- r_organisaatio_kieli&#45;&gt;r_organisaatio -->
<g id="edge1" class="edge">
<title>r_organisaatio_kieli:w&#45;&gt;r_organisaatio:e</title>
<path fill="none" stroke="#000000" stroke-dasharray="5,2" d="M187.2829,-266.2C176.2886,-266.2 169.1615,-266.2 153.5,-266.2"/>
<polygon fill="#000000" stroke="#000000" points="194,-266.2001 202,-269.8 198,-266.2 202,-266.2 202,-266.2 202,-266.2 198,-266.2 202,-262.6 194,-266.2001 194,-266.2001"/>
<ellipse fill="none" stroke="#000000" cx="190.8" cy="-266.2001" rx="3.2" ry="3.2"/>
</g>
</g>
</svg>
