<?xml version="1.0" encoding="UTF-8" standalone="no"?>
<!DOCTYPE svg PUBLIC "-//W3C//DTD SVG 1.1//EN"
 "http://www.w3.org/Graphics/SVG/1.1/DTD/svg11.dtd">
<!-- Generated by graphviz version 2.40.1 (20161225.0304)
 -->
<!-- Title: compactImpliedRelationshipsDiagram Pages: 1 -->
<svg width="360pt" height="155pt"
 viewBox="0.00 0.00 360.00 155.20" xmlns="http://www.w3.org/2000/svg" xmlns:xlink="http://www.w3.org/1999/xlink">
<g id="graph0" class="graph" transform="scale(1 1) rotate(0) translate(4 151.2)">
<title>compactImpliedRelationshipsDiagram</title>
<polygon fill="#ffffff" stroke="transparent" points="-4,4 -4,-151.2 356,-151.2 356,4 -4,4"/>
<text text-anchor="middle" x="72.4936" y="-7.3" font-family="Helvetica,sans-Serif" font-size="11.00" fill="#000000">Generated by SchemaSpy</text>
<!-- r_organisaatio_kieli -->
<g id="node1" class="node">
<title>r_organisaatio_kieli</title>
<g id="a_node1"><a xlink:href="../../tables/r_organisaatio_kieli.html" xlink:title="r_organisaatio_kieli" target="_top">
<polygon fill="#ffffff" stroke="transparent" points="189,-60.2 189,-143.2 344,-143.2 344,-60.2 189,-60.2"/>
<polygon fill="#f5f5f5" stroke="transparent" points="189.5,-119.7 189.5,-142.7 344.5,-142.7 344.5,-119.7 189.5,-119.7"/>
<polygon fill="none" stroke="#000000" points="189.5,-119.7 189.5,-142.7 344.5,-142.7 344.5,-119.7 189.5,-119.7"/>
<text text-anchor="start" x="194.5" y="-128.3" font-family="Helvetica,sans-Serif" font-weight="bold" font-size="11.00" fill="#000000">r_organisaatio_kieli</text>
<text text-anchor="start" x="310.0219" y="-127.8" font-family="Helvetica,sans-Serif" font-size="11.00" fill="#000000">[table]</text>
<polygon fill="none" stroke="#000000" points="189.5,-97.7 189.5,-119.7 344.5,-119.7 344.5,-97.7 189.5,-97.7"/>
<image xlink:href="../../images/foreignKeys.png" width="11px" height="12px" preserveAspectRatio="xMinYMin meet" x="194.5" y="-114.7"/>
<text text-anchor="start" x="218.5" y="-104.8" font-family="Helvetica,sans-Serif" font-size="11.00" fill="#000000">organisaatio_oid</text>
<polygon fill="none" stroke="#000000" points="189.5,-78.7 189.5,-97.7 344.5,-97.7 344.5,-78.7 189.5,-78.7"/>
<text text-anchor="start" x="192.5" y="-84.8" font-family="Helvetica,sans-Serif" font-size="11.00" fill="#000000">...</text>
<polygon fill="#ffffff" stroke="transparent" points="189.5,-59.7 189.5,-78.7 237.5,-78.7 237.5,-59.7 189.5,-59.7"/>
<polygon fill="none" stroke="#000000" points="189.5,-59.7 189.5,-78.7 237.5,-78.7 237.5,-59.7 189.5,-59.7"/>
<text text-anchor="start" x="192.5" y="-65.8" font-family="Helvetica,sans-Serif" font-size="11.00" fill="#000000"> &#160;</text>
<polygon fill="#ffffff" stroke="transparent" points="237.5,-59.7 237.5,-78.7 314.5,-78.7 314.5,-59.7 237.5,-59.7"/>
<polygon fill="none" stroke="#000000" points="237.5,-59.7 237.5,-78.7 314.5,-78.7 314.5,-59.7 237.5,-59.7"/>
<text text-anchor="start" x="257.7089" y="-65.8" font-family="Helvetica,sans-Serif" font-size="11.00" fill="#000000">1,059 rows</text>
<polygon fill="#ffffff" stroke="transparent" points="314.5,-59.7 314.5,-78.7 344.5,-78.7 344.5,-59.7 314.5,-59.7"/>
<polygon fill="none" stroke="#000000" points="314.5,-59.7 314.5,-78.7 344.5,-78.7 344.5,-59.7 314.5,-59.7"/>
<text text-anchor="start" x="335.3862" y="-65.8" font-family="Helvetica,sans-Serif" font-size="11.00" fill="#000000"> &#160;</text>
</a>
</g>
</g>
<!-- r_organisaatio -->
<g id="node2" class="node">
<title>r_organisaatio</title>
<g id="a_node2"><a xlink:href="../../tables/r_organisaatio.html" xlink:title="r_organisaatio" target="_top">
<polygon fill="#ffffff" stroke="transparent" points="8,-38.2 8,-143.2 140,-143.2 140,-38.2 8,-38.2"/>
<polygon fill="#f5f5f5" stroke="transparent" points="8,-119.7 8,-142.7 140,-142.7 140,-119.7 8,-119.7"/>
<polygon fill="none" stroke="#000000" points="8,-119.7 8,-142.7 140,-142.7 140,-119.7 8,-119.7"/>
<text text-anchor="start" x="13" y="-128.3" font-family="Helvetica,sans-Serif" font-weight="bold" font-size="11.00" fill="#000000">r_organisaatio</text>
<text text-anchor="start" x="105.0437" y="-127.8" font-family="Helvetica,sans-Serif" font-size="11.00" fill="#000000">[table]</text>
<polygon fill="none" stroke="#000000" points="8,-97.7 8,-119.7 140,-119.7 140,-97.7 8,-97.7"/>
<image xlink:href="../../images/primaryKeys.png" width="11px" height="12px" preserveAspectRatio="xMinYMin meet" x="13" y="-114.7"/>
<text text-anchor="start" x="28" y="-104.8" font-family="Helvetica,sans-Serif" font-size="11.00" fill="#000000">organisaatio_oid</text>
<polygon fill="#ffffff" stroke="transparent" points="8,-75.7 8,-97.7 140,-97.7 140,-75.7 8,-75.7"/>
<polygon fill="none" stroke="#000000" points="8,-75.7 8,-97.7 140,-97.7 140,-75.7 8,-75.7"/>
<text text-anchor="start" x="28" y="-82.8" font-family="Helvetica,sans-Serif" font-size="11.00" fill="#000000">oppilaitosnumero</text>
<polygon fill="none" stroke="#000000" points="8,-56.7 8,-75.7 140,-75.7 140,-56.7 8,-56.7"/>
<text text-anchor="start" x="11" y="-62.8" font-family="Helvetica,sans-Serif" font-size="11.00" fill="#000000">...</text>
<polygon fill="#ffffff" stroke="transparent" points="8,-37.7 8,-56.7 49,-56.7 49,-37.7 8,-37.7"/>
<polygon fill="none" stroke="#000000" points="8,-37.7 8,-56.7 49,-56.7 49,-37.7 8,-37.7"/>
<text text-anchor="start" x="11" y="-43.8" font-family="Helvetica,sans-Serif" font-size="11.00" fill="#000000"> &#160;</text>
<polygon fill="#ffffff" stroke="transparent" points="49,-37.7 49,-56.7 113,-56.7 113,-37.7 49,-37.7"/>
<polygon fill="none" stroke="#000000" points="49,-37.7 49,-56.7 113,-56.7 113,-37.7 49,-37.7"/>
<text text-anchor="start" x="65.3807" y="-43.8" font-family="Helvetica,sans-Serif" font-size="11.00" fill="#000000">988 rows</text>
<polygon fill="#ffffff" stroke="transparent" points="113,-37.7 113,-56.7 140,-56.7 140,-37.7 113,-37.7"/>
<polygon fill="none" stroke="#000000" points="113,-37.7 113,-56.7 140,-56.7 140,-37.7 113,-37.7"/>
<text text-anchor="start" x="130.8862" y="-43.8" font-family="Helvetica,sans-Serif" font-size="11.00" fill="#000000"> &#160;</text>
</a>
</g>
</g>
<!-- r_organisaatio_kieli&#45;&gt;r_organisaatio -->
<g id="edge1" class="edge">
<title>r_organisaatio_kieli:w&#45;&gt;r_organisaatio:e</title>
<path fill="none" stroke="#000000" stroke-dasharray="5,2" d="M174.8428,-108.7C163.4139,-108.7 156.1563,-108.7 140,-108.7"/>
<polygon fill="#000000" stroke="#000000" points="181.5,-108.7001 189.5,-112.3 185.5,-108.7 189.5,-108.7 189.5,-108.7 189.5,-108.7 185.5,-108.7 189.5,-105.1 181.5,-108.7001 181.5,-108.7001"/>
<ellipse fill="none" stroke="#000000" cx="178.3" cy="-108.7001" rx="3.2" ry="3.2"/>
</g>
</g>
</svg>
