<?xml version="1.0" encoding="UTF-8" standalone="no"?>
<!DOCTYPE svg PUBLIC "-//W3C//DTD SVG 1.1//EN"
 "http://www.w3.org/Graphics/SVG/1.1/DTD/svg11.dtd">
<!-- Generated by graphviz version 2.40.1 (20161225.0304)
 -->
<!-- Title: largeImpliedRelationshipsDiagram Pages: 1 -->
<svg width="348pt" height="312pt"
 viewBox="0.00 0.00 348.00 312.20" xmlns="http://www.w3.org/2000/svg" xmlns:xlink="http://www.w3.org/1999/xlink">
<g id="graph0" class="graph" transform="scale(1 1) rotate(0) translate(4 308.2)">
<title>largeImpliedRelationshipsDiagram</title>
<polygon fill="#ffffff" stroke="transparent" points="-4,4 -4,-308.2 344,-308.2 344,4 -4,4"/>
<text text-anchor="middle" x="72.4936" y="-7.3" font-family="Helvetica,sans-Serif" font-size="11.00" fill="#000000">Generated by SchemaSpy</text>
<!-- r_organisaatio_kieli -->
<g id="node1" class="node">
<title>r_organisaatio_kieli</title>
<g id="a_node1"><a xlink:href="../../tables/r_organisaatio_kieli.html" xlink:title="r_organisaatio_kieli" target="_top">
<polygon fill="#ffffff" stroke="transparent" points="181,-214.2 181,-300.2 332,-300.2 332,-214.2 181,-214.2"/>
<polygon fill="#f5f5f5" stroke="transparent" points="181.5,-277.2 181.5,-300.2 332.5,-300.2 332.5,-277.2 181.5,-277.2"/>
<polygon fill="none" stroke="#000000" points="181.5,-277.2 181.5,-300.2 332.5,-300.2 332.5,-277.2 181.5,-277.2"/>
<text text-anchor="start" x="186.5" y="-285.8" font-family="Helvetica,sans-Serif" font-weight="bold" font-size="11.00" fill="#000000">r_organisaatio_kieli</text>
<text text-anchor="start" x="298.0219" y="-285.3" font-family="Helvetica,sans-Serif" font-size="11.00" fill="#000000">[table]</text>
<polygon fill="none" stroke="#000000" points="181.5,-255.2 181.5,-277.2 332.5,-277.2 332.5,-255.2 181.5,-255.2"/>
<image xlink:href="../../images/foreignKeys.png" width="11px" height="12px" preserveAspectRatio="xMinYMin meet" x="186.5" y="-272.2"/>
<text text-anchor="start" x="210.5" y="-262.3" font-family="Helvetica,sans-Serif" font-size="11.00" fill="#000000">organisaatio_oid</text>
<polygon fill="none" stroke="#000000" points="181.5,-233.2 181.5,-255.2 332.5,-255.2 332.5,-233.2 181.5,-233.2"/>
<text text-anchor="start" x="210.5" y="-240.3" font-family="Helvetica,sans-Serif" font-size="11.00" fill="#000000">kielikoodi</text>
<polygon fill="#ffffff" stroke="transparent" points="181.5,-214.2 181.5,-233.2 225.5,-233.2 225.5,-214.2 181.5,-214.2"/>
<polygon fill="none" stroke="#000000" points="181.5,-214.2 181.5,-233.2 225.5,-233.2 225.5,-214.2 181.5,-214.2"/>
<text text-anchor="start" x="184.5" y="-220.3" font-family="Helvetica,sans-Serif" font-size="11.00" fill="#000000"> &#160;</text>
<polygon fill="#ffffff" stroke="transparent" points="225.5,-214.2 225.5,-233.2 304.5,-233.2 304.5,-214.2 225.5,-214.2"/>
<polygon fill="none" stroke="#000000" points="225.5,-214.2 225.5,-233.2 304.5,-233.2 304.5,-214.2 225.5,-214.2"/>
<text text-anchor="start" x="244.047" y="-220.3" font-family="Helvetica,sans-Serif" font-size="11.00" fill="#000000">1 059 rows</text>
<polygon fill="#ffffff" stroke="transparent" points="304.5,-214.2 304.5,-233.2 332.5,-233.2 332.5,-214.2 304.5,-214.2"/>
<polygon fill="none" stroke="#000000" points="304.5,-214.2 304.5,-233.2 332.5,-233.2 332.5,-214.2 304.5,-214.2"/>
<text text-anchor="start" x="323.3862" y="-220.3" font-family="Helvetica,sans-Serif" font-size="11.00" fill="#000000"> &#160;</text>
</a>
</g>
</g>
<!-- r_organisaatio -->
<g id="node2" class="node">
<title>r_organisaatio</title>
<g id="a_node2"><a xlink:href="../../tables/r_organisaatio.html" xlink:title="r_organisaatio" target="_top">
<polygon fill="#ffffff" stroke="transparent" points="8,-38.2 8,-300.2 132,-300.2 132,-38.2 8,-38.2"/>
<polygon fill="#f5f5f5" stroke="transparent" points="8,-277.2 8,-300.2 132,-300.2 132,-277.2 8,-277.2"/>
<polygon fill="none" stroke="#000000" points="8,-277.2 8,-300.2 132,-300.2 132,-277.2 8,-277.2"/>
<text text-anchor="start" x="13" y="-285.8" font-family="Helvetica,sans-Serif" font-weight="bold" font-size="11.00" fill="#000000">r_organisaatio</text>
<text text-anchor="start" x="97.0437" y="-285.3" font-family="Helvetica,sans-Serif" font-size="11.00" fill="#000000">[table]</text>
<polygon fill="none" stroke="#000000" points="8,-255.2 8,-277.2 132,-277.2 132,-255.2 8,-255.2"/>
<image xlink:href="../../images/primaryKeys.png" width="11px" height="12px" preserveAspectRatio="xMinYMin meet" x="13" y="-272.2"/>
<text text-anchor="start" x="28" y="-262.3" font-family="Helvetica,sans-Serif" font-size="11.00" fill="#000000">organisaatio_oid</text>
<polygon fill="none" stroke="#000000" points="8,-233.2 8,-255.2 132,-255.2 132,-233.2 8,-233.2"/>
<text text-anchor="start" x="28" y="-240.3" font-family="Helvetica,sans-Serif" font-size="11.00" fill="#000000">nimi</text>
<polygon fill="none" stroke="#000000" points="8,-211.2 8,-233.2 132,-233.2 132,-211.2 8,-211.2"/>
<text text-anchor="start" x="28" y="-218.3" font-family="Helvetica,sans-Serif" font-size="11.00" fill="#000000">nimi_sv</text>
<polygon fill="none" stroke="#000000" points="8,-189.2 8,-211.2 132,-211.2 132,-189.2 8,-189.2"/>
<text text-anchor="start" x="28" y="-196.3" font-family="Helvetica,sans-Serif" font-size="11.00" fill="#000000">organisaatiotyypit</text>
<polygon fill="none" stroke="#000000" points="8,-167.2 8,-189.2 132,-189.2 132,-167.2 8,-167.2"/>
<text text-anchor="start" x="28" y="-174.3" font-family="Helvetica,sans-Serif" font-size="11.00" fill="#000000">oppilaitostyyppi</text>
<polygon fill="#ffffff" stroke="transparent" points="8,-145.2 8,-167.2 132,-167.2 132,-145.2 8,-145.2"/>
<polygon fill="none" stroke="#000000" points="8,-145.2 8,-167.2 132,-167.2 132,-145.2 8,-145.2"/>
<text text-anchor="start" x="28" y="-152.3" font-family="Helvetica,sans-Serif" font-size="11.00" fill="#000000">oppilaitosnumero</text>
<polygon fill="none" stroke="#000000" points="8,-123.2 8,-145.2 132,-145.2 132,-123.2 8,-123.2"/>
<text text-anchor="start" x="28" y="-130.3" font-family="Helvetica,sans-Serif" font-size="11.00" fill="#000000">kotipaikka</text>
<polygon fill="none" stroke="#000000" points="8,-101.2 8,-123.2 132,-123.2 132,-101.2 8,-101.2"/>
<text text-anchor="start" x="28" y="-108.3" font-family="Helvetica,sans-Serif" font-size="11.00" fill="#000000">y_tunnus</text>
<polygon fill="none" stroke="#000000" points="8,-79.2 8,-101.2 132,-101.2 132,-79.2 8,-79.2"/>
<text text-anchor="start" x="28" y="-86.3" font-family="Helvetica,sans-Serif" font-size="11.00" fill="#000000">koulutustoimija</text>
<polygon fill="none" stroke="#000000" points="8,-57.2 8,-79.2 132,-79.2 132,-57.2 8,-57.2"/>
<text text-anchor="start" x="28" y="-64.3" font-family="Helvetica,sans-Serif" font-size="11.00" fill="#000000">oppilaitos</text>
<polygon fill="#ffffff" stroke="transparent" points="8,-38.2 8,-57.2 45,-57.2 45,-38.2 8,-38.2"/>
<polygon fill="none" stroke="#000000" points="8,-38.2 8,-57.2 45,-57.2 45,-38.2 8,-38.2"/>
<text text-anchor="start" x="11" y="-44.3" font-family="Helvetica,sans-Serif" font-size="11.00" fill="#000000"> &#160;</text>
<polygon fill="#ffffff" stroke="transparent" points="45,-38.2 45,-57.2 107,-57.2 107,-38.2 45,-38.2"/>
<polygon fill="none" stroke="#000000" points="45,-38.2 45,-57.2 107,-57.2 107,-38.2 45,-38.2"/>
<text text-anchor="start" x="59.3807" y="-44.3" font-family="Helvetica,sans-Serif" font-size="11.00" fill="#000000">988 rows</text>
<polygon fill="#ffffff" stroke="transparent" points="107,-38.2 107,-57.2 132,-57.2 132,-38.2 107,-38.2"/>
<polygon fill="none" stroke="#000000" points="107,-38.2 107,-57.2 132,-57.2 132,-38.2 107,-38.2"/>
<text text-anchor="start" x="122.8862" y="-44.3" font-family="Helvetica,sans-Serif" font-size="11.00" fill="#000000"> &#160;</text>
</a>
</g>
</g>
<!-- r_organisaatio_kieli&#45;&gt;r_organisaatio -->
<g id="edge1" class="edge">
<title>r_organisaatio_kieli:w&#45;&gt;r_organisaatio:e</title>
<path fill="none" stroke="#000000" stroke-dasharray="5,2" d="M166.8428,-266.2C155.4139,-266.2 148.1563,-266.2 132,-266.2"/>
<polygon fill="#000000" stroke="#000000" points="173.5,-266.2001 181.5,-269.8 177.5,-266.2 181.5,-266.2 181.5,-266.2 181.5,-266.2 177.5,-266.2 181.5,-262.6 173.5,-266.2001 173.5,-266.2001"/>
<ellipse fill="none" stroke="#000000" cx="170.3" cy="-266.2001" rx="3.2" ry="3.2"/>
</g>
</g>
</svg>
