<?xml version="1.0" encoding="UTF-8" standalone="no"?>
<!DOCTYPE svg PUBLIC "-//W3C//DTD SVG 1.1//EN"
 "http://www.w3.org/Graphics/SVG/1.1/DTD/svg11.dtd">
<!-- Generated by graphviz version 2.40.1 (20161225.0304)
 -->
<!-- Title: largeImpliedRelationshipsDiagram Pages: 1 -->
<svg width="417pt" height="312pt"
 viewBox="0.00 0.00 417.00 312.20" xmlns="http://www.w3.org/2000/svg" xmlns:xlink="http://www.w3.org/1999/xlink">
<g id="graph0" class="graph" transform="scale(1 1) rotate(0) translate(4 308.2)">
<title>largeImpliedRelationshipsDiagram</title>
<polygon fill="#ffffff" stroke="transparent" points="-4,4 -4,-308.2 413,-308.2 413,4 -4,4"/>
<text text-anchor="middle" x="72.4936" y="-7.3" font-family="Helvetica,sans-Serif" font-size="11.00" fill="#000000">Generated by SchemaSpy</text>
<!-- r_organisaatio_kieli -->
<g id="node1" class="node">
<title>r_organisaatio_kieli</title>
<g id="a_node1"><a xlink:href="../../tables/r_organisaatio_kieli.html" xlink:title="r_organisaatio_kieli" target="_top">
<polygon fill="#ffffff" stroke="transparent" points="250,-214.2 250,-300.2 401,-300.2 401,-214.2 250,-214.2"/>
<polygon fill="#f5f5f5" stroke="transparent" points="250.5,-277.2 250.5,-300.2 401.5,-300.2 401.5,-277.2 250.5,-277.2"/>
<polygon fill="none" stroke="#000000" points="250.5,-277.2 250.5,-300.2 401.5,-300.2 401.5,-277.2 250.5,-277.2"/>
<text text-anchor="start" x="255.5" y="-285.8" font-family="Helvetica,sans-Serif" font-weight="bold" font-size="11.00" fill="#000000">r_organisaatio_kieli</text>
<text text-anchor="start" x="367.0219" y="-285.3" font-family="Helvetica,sans-Serif" font-size="11.00" fill="#000000">[table]</text>
<polygon fill="none" stroke="#000000" points="250.5,-255.2 250.5,-277.2 401.5,-277.2 401.5,-255.2 250.5,-255.2"/>
<image xlink:href="../../images/foreignKeys.png" width="11px" height="12px" preserveAspectRatio="xMinYMin meet" x="255.5" y="-272.2"/>
<text text-anchor="start" x="279.5" y="-262.3" font-family="Helvetica,sans-Serif" font-size="11.00" fill="#000000">organisaatio_oid</text>
<polygon fill="none" stroke="#000000" points="250.5,-233.2 250.5,-255.2 401.5,-255.2 401.5,-233.2 250.5,-233.2"/>
<text text-anchor="start" x="279.5" y="-240.3" font-family="Helvetica,sans-Serif" font-size="11.00" fill="#000000">kielikoodi</text>
<polygon fill="#ffffff" stroke="transparent" points="250.5,-214.2 250.5,-233.2 294.5,-233.2 294.5,-214.2 250.5,-214.2"/>
<polygon fill="none" stroke="#000000" points="250.5,-214.2 250.5,-233.2 294.5,-233.2 294.5,-214.2 250.5,-214.2"/>
<text text-anchor="start" x="253.5" y="-220.3" font-family="Helvetica,sans-Serif" font-size="11.00" fill="#000000"> &#160;</text>
<polygon fill="#ffffff" stroke="transparent" points="294.5,-214.2 294.5,-233.2 373.5,-233.2 373.5,-214.2 294.5,-214.2"/>
<polygon fill="none" stroke="#000000" points="294.5,-214.2 294.5,-233.2 373.5,-233.2 373.5,-214.2 294.5,-214.2"/>
<text text-anchor="start" x="313.047" y="-220.3" font-family="Helvetica,sans-Serif" font-size="11.00" fill="#000000">1 056 rows</text>
<polygon fill="#ffffff" stroke="transparent" points="373.5,-214.2 373.5,-233.2 401.5,-233.2 401.5,-214.2 373.5,-214.2"/>
<polygon fill="none" stroke="#000000" points="373.5,-214.2 373.5,-233.2 401.5,-233.2 401.5,-214.2 373.5,-214.2"/>
<text text-anchor="start" x="392.3862" y="-220.3" font-family="Helvetica,sans-Serif" font-size="11.00" fill="#000000"> &#160;</text>
</a>
</g>
</g>
<!-- r_organisaatio -->
<g id="node2" class="node">
<title>r_organisaatio</title>
<g id="a_node2"><a xlink:href="../../tables/r_organisaatio.html" xlink:title="r_organisaatio" target="_top">
<polygon fill="#ffffff" stroke="transparent" points="8,-38.2 8,-300.2 201,-300.2 201,-38.2 8,-38.2"/>
<polygon fill="#f5f5f5" stroke="transparent" points="8.5,-277.2 8.5,-300.2 201.5,-300.2 201.5,-277.2 8.5,-277.2"/>
<polygon fill="none" stroke="#000000" points="8.5,-277.2 8.5,-300.2 201.5,-300.2 201.5,-277.2 8.5,-277.2"/>
<text text-anchor="start" x="13.5" y="-285.8" font-family="Helvetica,sans-Serif" font-weight="bold" font-size="11.00" fill="#000000">r_organisaatio</text>
<text text-anchor="start" x="166.5437" y="-285.3" font-family="Helvetica,sans-Serif" font-size="11.00" fill="#000000">[table]</text>
<polygon fill="none" stroke="#000000" points="8.5,-255.2 8.5,-277.2 201.5,-277.2 201.5,-255.2 8.5,-255.2"/>
<image xlink:href="../../images/primaryKeys.png" width="11px" height="12px" preserveAspectRatio="xMinYMin meet" x="13.5" y="-272.2"/>
<text text-anchor="start" x="28.5" y="-262.3" font-family="Helvetica,sans-Serif" font-size="11.00" fill="#000000">organisaatio_oid</text>
<polygon fill="none" stroke="#000000" points="8.5,-233.2 8.5,-255.2 201.5,-255.2 201.5,-233.2 8.5,-233.2"/>
<text text-anchor="start" x="28.5" y="-240.3" font-family="Helvetica,sans-Serif" font-size="11.00" fill="#000000">nimi</text>
<polygon fill="none" stroke="#000000" points="8.5,-211.2 8.5,-233.2 201.5,-233.2 201.5,-211.2 8.5,-211.2"/>
<text text-anchor="start" x="28.5" y="-218.3" font-family="Helvetica,sans-Serif" font-size="11.00" fill="#000000">nimi_sv</text>
<polygon fill="none" stroke="#000000" points="8.5,-189.2 8.5,-211.2 201.5,-211.2 201.5,-189.2 8.5,-189.2"/>
<text text-anchor="start" x="28.5" y="-196.3" font-family="Helvetica,sans-Serif" font-size="11.00" fill="#000000">organisaatiotyypit</text>
<polygon fill="none" stroke="#000000" points="8.5,-167.2 8.5,-189.2 201.5,-189.2 201.5,-167.2 8.5,-167.2"/>
<text text-anchor="start" x="28.5" y="-174.3" font-family="Helvetica,sans-Serif" font-size="11.00" fill="#000000">oppilaitostyyppi</text>
<polygon fill="#ffffff" stroke="transparent" points="8.5,-145.2 8.5,-167.2 201.5,-167.2 201.5,-145.2 8.5,-145.2"/>
<polygon fill="none" stroke="#000000" points="8.5,-145.2 8.5,-167.2 201.5,-167.2 201.5,-145.2 8.5,-145.2"/>
<text text-anchor="start" x="28.5" y="-152.3" font-family="Helvetica,sans-Serif" font-size="11.00" fill="#000000">oppilaitosnumero</text>
<polygon fill="none" stroke="#000000" points="8.5,-123.2 8.5,-145.2 201.5,-145.2 201.5,-123.2 8.5,-123.2"/>
<text text-anchor="start" x="28.5" y="-130.3" font-family="Helvetica,sans-Serif" font-size="11.00" fill="#000000">kotipaikka</text>
<polygon fill="none" stroke="#000000" points="8.5,-101.2 8.5,-123.2 201.5,-123.2 201.5,-101.2 8.5,-101.2"/>
<text text-anchor="start" x="28.5" y="-108.3" font-family="Helvetica,sans-Serif" font-size="11.00" fill="#000000">y_tunnus</text>
<polygon fill="none" stroke="#000000" points="8.5,-79.2 8.5,-101.2 201.5,-101.2 201.5,-79.2 8.5,-79.2"/>
<text text-anchor="start" x="28.5" y="-86.3" font-family="Helvetica,sans-Serif" font-size="11.00" fill="#000000">oppilaitoksen_koulutustoimija</text>
<polygon fill="none" stroke="#000000" points="8.5,-57.2 8.5,-79.2 201.5,-79.2 201.5,-57.2 8.5,-57.2"/>
<text text-anchor="start" x="28.5" y="-64.3" font-family="Helvetica,sans-Serif" font-size="11.00" fill="#000000">toimipisteen_oppilaitos</text>
<polygon fill="#ffffff" stroke="transparent" points="8.5,-38.2 8.5,-57.2 79.5,-57.2 79.5,-38.2 8.5,-38.2"/>
<polygon fill="none" stroke="#000000" points="8.5,-38.2 8.5,-57.2 79.5,-57.2 79.5,-38.2 8.5,-38.2"/>
<text text-anchor="start" x="11.5" y="-44.3" font-family="Helvetica,sans-Serif" font-size="11.00" fill="#000000"> &#160;</text>
<polygon fill="#ffffff" stroke="transparent" points="79.5,-38.2 79.5,-57.2 159.5,-57.2 159.5,-38.2 79.5,-38.2"/>
<polygon fill="none" stroke="#000000" points="79.5,-38.2 79.5,-57.2 159.5,-57.2 159.5,-38.2 79.5,-38.2"/>
<text text-anchor="start" x="111.8807" y="-44.3" font-family="Helvetica,sans-Serif" font-size="11.00" fill="#000000">988 rows</text>
<polygon fill="#ffffff" stroke="transparent" points="159.5,-38.2 159.5,-57.2 201.5,-57.2 201.5,-38.2 159.5,-38.2"/>
<polygon fill="none" stroke="#000000" points="159.5,-38.2 159.5,-57.2 201.5,-57.2 201.5,-38.2 159.5,-38.2"/>
<text text-anchor="start" x="192.3862" y="-44.3" font-family="Helvetica,sans-Serif" font-size="11.00" fill="#000000"> &#160;</text>
</a>
</g>
</g>
<!-- r_organisaatio_kieli&#45;&gt;r_organisaatio -->
<g id="edge1" class="edge">
<title>r_organisaatio_kieli:w&#45;&gt;r_organisaatio:e</title>
<path fill="none" stroke="#000000" stroke-dasharray="5,2" d="M235.9909,-266.2C224.6774,-266.2 217.4931,-266.2 201.5,-266.2"/>
<polygon fill="#000000" stroke="#000000" points="242.5,-266.2001 250.5,-269.8 246.5,-266.2 250.5,-266.2 250.5,-266.2 250.5,-266.2 246.5,-266.2 250.5,-262.6 242.5,-266.2001 242.5,-266.2001"/>
<ellipse fill="none" stroke="#000000" cx="239.3" cy="-266.2001" rx="3.2" ry="3.2"/>
</g>
</g>
</svg>
