<?xml version="1.0" encoding="UTF-8" standalone="no"?>
<!DOCTYPE svg PUBLIC "-//W3C//DTD SVG 1.1//EN"
 "http://www.w3.org/Graphics/SVG/1.1/DTD/svg11.dtd">
<!-- Generated by graphviz version 2.40.1 (20161225.0304)
 -->
<!-- Title: orphans Pages: 1 -->
<svg width="334pt" height="658pt"
 viewBox="0.00 0.00 334.00 658.00" xmlns="http://www.w3.org/2000/svg" xmlns:xlink="http://www.w3.org/1999/xlink">
<g id="graph0" class="graph" transform="scale(1 1) rotate(0) translate(4 654)">
<title>orphans</title>
<polygon fill="#ffffff" stroke="transparent" points="-4,4 -4,-654 330,-654 330,4 -4,4"/>
<!-- opiskeluoikeus_lis채tiedot -->
<g id="node1" class="node">
<title>opiskeluoikeus_lis채tiedot</title>
<g id="a_node1"><a xlink:href="../../tables/opiskeluoikeus_lis_tiedot_2c99566.html" xlink:title="opiskeluoikeus_lis채tiedot" target="_top">
<polygon fill="#ffffff" stroke="transparent" points="30,-4 30,-138 296,-138 296,-4 30,-4"/>
<polygon fill="#f5f5f5" stroke="transparent" points="32,-113 32,-136 294,-136 294,-113 32,-113"/>
<polygon fill="none" stroke="#000000" points="32,-113 32,-136 294,-136 294,-113 32,-113"/>
<text text-anchor="start" x="37" y="-121.6" font-family="Helvetica,sans-Serif" font-weight="bold" font-size="11.00" fill="#000000">opiskeluoikeus_lis채tiedot</text>
<text text-anchor="start" x="259.0437" y="-121.1" font-family="Helvetica,sans-Serif" font-size="11.00" fill="#000000">[table]</text>
<polygon fill="none" stroke="#000000" points="32,-91 32,-113 204,-113 204,-91 32,-91"/>
<image xlink:href="../../images/primaryKeys.png" width="11px" height="12px" preserveAspectRatio="xMinYMin meet" x="37" y="-108"/>
<text text-anchor="start" x="52" y="-98.1" font-family="Helvetica,sans-Serif" font-size="11.00" fill="#000000">oppija_oid</text>
<polygon fill="none" stroke="#000000" points="204,-91 204,-113 294,-113 294,-91 204,-91"/>
<text text-anchor="start" x="206.5042" y="-98.7" font-family="Helvetica,sans-Serif" font-size="11.00" fill="#000000">text[2147483647]</text>
<polygon fill="none" stroke="#000000" points="32,-69 32,-91 204,-91 204,-69 32,-69"/>
<image xlink:href="../../images/primaryKeys.png" width="11px" height="12px" preserveAspectRatio="xMinYMin meet" x="37" y="-86"/>
<text text-anchor="start" x="52" y="-76.1" font-family="Helvetica,sans-Serif" font-size="11.00" fill="#000000">opiskeluoikeus_oid</text>
<polygon fill="none" stroke="#000000" points="204,-69 204,-91 294,-91 294,-69 204,-69"/>
<text text-anchor="start" x="206.5042" y="-76.7" font-family="Helvetica,sans-Serif" font-size="11.00" fill="#000000">text[2147483647]</text>
<polygon fill="none" stroke="#000000" points="32,-47 32,-69 204,-69 204,-47 32,-47"/>
<image xlink:href="../../images/primaryKeys.png" width="11px" height="12px" preserveAspectRatio="xMinYMin meet" x="37" y="-64"/>
<text text-anchor="start" x="52" y="-54.1" font-family="Helvetica,sans-Serif" font-size="11.00" fill="#000000">oppilaitos_oid</text>
<polygon fill="none" stroke="#000000" points="204,-47 204,-69 294,-69 294,-47 204,-47"/>
<text text-anchor="start" x="206.5042" y="-54.7" font-family="Helvetica,sans-Serif" font-size="11.00" fill="#000000">text[2147483647]</text>
<polygon fill="none" stroke="#000000" points="32,-25 32,-47 204,-47 204,-25 32,-25"/>
<text text-anchor="start" x="52" y="-32.1" font-family="Helvetica,sans-Serif" font-size="11.00" fill="#000000">muu_haku</text>
<polygon fill="none" stroke="#000000" points="204,-25 204,-47 294,-47 294,-25 204,-25"/>
<text text-anchor="start" x="207" y="-32.7" font-family="Helvetica,sans-Serif" font-size="11.00" fill="#000000">bool[1]</text>
<polygon fill="#ffffff" stroke="transparent" points="32,-6 32,-25 122,-25 122,-6 32,-6"/>
<polygon fill="none" stroke="#000000" points="32,-6 32,-25 122,-25 122,-6 32,-6"/>
<text text-anchor="start" x="35" y="-12.1" font-family="Helvetica,sans-Serif" font-size="11.00" fill="#000000">&lt; 0</text>
<polygon fill="#ffffff" stroke="transparent" points="122,-6 122,-25 204,-25 204,-6 122,-6"/>
<polygon fill="none" stroke="#000000" points="122,-6 122,-25 204,-25 204,-6 122,-6"/>
<text text-anchor="start" x="194.8862" y="-12.1" font-family="Helvetica,sans-Serif" font-size="11.00" fill="#000000"> &#160;</text>
<polygon fill="#ffffff" stroke="transparent" points="204,-6 204,-25 294,-25 294,-6 204,-6"/>
<polygon fill="none" stroke="#000000" points="204,-6 204,-25 294,-25 294,-6 204,-6"/>
<text text-anchor="start" x="275.4053" y="-12.1" font-family="Helvetica,sans-Serif" font-size="11.00" fill="#000000">0 &gt;</text>
<polygon fill="none" stroke="#000000" stroke-width="2" points="31,-5 31,-137 295,-137 295,-5 31,-5"/>
</a>
</g>
</g>
<!-- oppivelvollisuudesta_vapautetut -->
<g id="node2" class="node">
<title>oppivelvollisuudesta_vapautetut</title>
<g id="a_node2"><a xlink:href="../../tables/oppivelvollisuudesta_vapautetut.html" xlink:title="oppivelvollisuudesta_vapautetut" target="_top">
<polygon fill="#ffffff" stroke="transparent" points="8,-159 8,-337 318,-337 318,-159 8,-159"/>
<polygon fill="#f5f5f5" stroke="transparent" points="10,-312 10,-335 316,-335 316,-312 10,-312"/>
<polygon fill="none" stroke="#000000" points="10,-312 10,-335 316,-335 316,-312 10,-312"/>
<text text-anchor="start" x="15" y="-320.6" font-family="Helvetica,sans-Serif" font-weight="bold" font-size="11.00" fill="#000000">oppivelvollisuudesta_vapautetut</text>
<text text-anchor="start" x="281.0437" y="-320.1" font-family="Helvetica,sans-Serif" font-size="11.00" fill="#000000">[table]</text>
<polygon fill="#ffffff" stroke="transparent" points="10,-290 10,-312 226,-312 226,-290 10,-290"/>
<polygon fill="none" stroke="#000000" points="10,-290 10,-312 226,-312 226,-290 10,-290"/>
<text text-anchor="start" x="30" y="-297.1" font-family="Helvetica,sans-Serif" font-size="11.00" fill="#000000">oppija_oid</text>
<polygon fill="none" stroke="#000000" points="226,-290 226,-312 316,-312 316,-290 226,-290"/>
<text text-anchor="start" x="228.5043" y="-297.7" font-family="Helvetica,sans-Serif" font-size="11.00" fill="#000000">text[2147483647]</text>
<polygon fill="none" stroke="#000000" points="10,-268 10,-290 226,-290 226,-268 10,-268"/>
<text text-anchor="start" x="30" y="-275.1" font-family="Helvetica,sans-Serif" font-size="11.00" fill="#000000">virkailija_oid</text>
<polygon fill="none" stroke="#000000" points="226,-268 226,-290 316,-290 316,-268 226,-268"/>
<text text-anchor="start" x="228.5043" y="-275.7" font-family="Helvetica,sans-Serif" font-size="11.00" fill="#000000">text[2147483647]</text>
<polygon fill="none" stroke="#000000" points="10,-246 10,-268 226,-268 226,-246 10,-246"/>
<text text-anchor="start" x="30" y="-253.1" font-family="Helvetica,sans-Serif" font-size="11.00" fill="#000000">kunta_koodiarvo</text>
<polygon fill="none" stroke="#000000" points="226,-246 226,-268 316,-268 316,-246 226,-246"/>
<text text-anchor="start" x="228.5043" y="-253.7" font-family="Helvetica,sans-Serif" font-size="11.00" fill="#000000">text[2147483647]</text>
<polygon fill="none" stroke="#000000" points="10,-224 10,-246 226,-246 226,-224 10,-224"/>
<text text-anchor="start" x="30" y="-231.1" font-family="Helvetica,sans-Serif" font-size="11.00" fill="#000000">vapautettu</text>
<polygon fill="none" stroke="#000000" points="226,-224 226,-246 316,-246 316,-224 226,-224"/>
<text text-anchor="start" x="229" y="-231.7" font-family="Helvetica,sans-Serif" font-size="11.00" fill="#000000">date[13]</text>
<polygon fill="none" stroke="#000000" points="10,-202 10,-224 226,-224 226,-202 10,-202"/>
<text text-anchor="start" x="30" y="-209.1" font-family="Helvetica,sans-Serif" font-size="11.00" fill="#000000">aikaleima</text>
<polygon fill="none" stroke="#000000" points="226,-202 226,-224 316,-224 316,-202 226,-202"/>
<text text-anchor="start" x="229" y="-209.7" font-family="Helvetica,sans-Serif" font-size="11.00" fill="#000000">timestamp[29,6]</text>
<polygon fill="#ffffff" stroke="transparent" points="10,-180 10,-202 226,-202 226,-180 10,-180"/>
<polygon fill="none" stroke="#000000" points="10,-180 10,-202 226,-202 226,-180 10,-180"/>
<text text-anchor="start" x="30" y="-187.1" font-family="Helvetica,sans-Serif" font-size="11.00" fill="#000000">mitatoity</text>
<polygon fill="none" stroke="#000000" points="226,-180 226,-202 316,-202 316,-180 226,-180"/>
<text text-anchor="start" x="229" y="-187.7" font-family="Helvetica,sans-Serif" font-size="11.00" fill="#000000">timestamp[29,6]</text>
<polygon fill="#ffffff" stroke="transparent" points="10,-161 10,-180 122,-180 122,-161 10,-161"/>
<polygon fill="none" stroke="#000000" points="10,-161 10,-180 122,-180 122,-161 10,-161"/>
<text text-anchor="start" x="13" y="-167.1" font-family="Helvetica,sans-Serif" font-size="11.00" fill="#000000">&lt; 0</text>
<polygon fill="#ffffff" stroke="transparent" points="122,-161 122,-180 226,-180 226,-161 122,-161"/>
<polygon fill="none" stroke="#000000" points="122,-161 122,-180 226,-180 226,-161 122,-161"/>
<text text-anchor="start" x="216.8862" y="-167.1" font-family="Helvetica,sans-Serif" font-size="11.00" fill="#000000"> &#160;</text>
<polygon fill="#ffffff" stroke="transparent" points="226,-161 226,-180 316,-180 316,-161 226,-161"/>
<polygon fill="none" stroke="#000000" points="226,-161 226,-180 316,-180 316,-161 226,-161"/>
<text text-anchor="start" x="297.4053" y="-167.1" font-family="Helvetica,sans-Serif" font-size="11.00" fill="#000000">0 &gt;</text>
<polygon fill="none" stroke="#000000" stroke-width="2" points="9,-160 9,-336 317,-336 317,-160 9,-160"/>
</a>
</g>
</g>
<!-- schema_version -->
<g id="node3" class="node">
<title>schema_version</title>
<g id="a_node3"><a xlink:href="../../tables/schema_version.html" xlink:title="schema_version" target="_top">
<polygon fill="#ffffff" stroke="transparent" points="61,-358 61,-646 265,-646 265,-358 61,-358"/>
<polygon fill="#f5f5f5" stroke="transparent" points="63,-621 63,-644 263,-644 263,-621 63,-621"/>
<polygon fill="none" stroke="#000000" points="63,-621 63,-644 263,-644 263,-621 63,-621"/>
<text text-anchor="start" x="68" y="-629.6" font-family="Helvetica,sans-Serif" font-weight="bold" font-size="11.00" fill="#000000">schema_version</text>
<text text-anchor="start" x="228.0437" y="-629.1" font-family="Helvetica,sans-Serif" font-size="11.00" fill="#000000">[table]</text>
<polygon fill="#ffffff" stroke="transparent" points="63,-599 63,-621 179,-621 179,-599 63,-599"/>
<polygon fill="none" stroke="#000000" points="63,-599 63,-621 179,-621 179,-599 63,-599"/>
<text text-anchor="start" x="83" y="-606.1" font-family="Helvetica,sans-Serif" font-size="11.00" fill="#000000">version_rank</text>
<polygon fill="none" stroke="#000000" points="179,-599 179,-621 263,-621 263,-599 179,-599"/>
<text text-anchor="start" x="182" y="-606.7" font-family="Helvetica,sans-Serif" font-size="11.00" fill="#000000">int4[10]</text>
<polygon fill="#ffffff" stroke="transparent" points="63,-577 63,-599 179,-599 179,-577 63,-577"/>
<polygon fill="none" stroke="#000000" points="63,-577 63,-599 179,-599 179,-577 63,-577"/>
<text text-anchor="start" x="83" y="-584.1" font-family="Helvetica,sans-Serif" font-size="11.00" fill="#000000">installed_rank</text>
<polygon fill="none" stroke="#000000" points="179,-577 179,-599 263,-599 263,-577 179,-577"/>
<text text-anchor="start" x="182" y="-584.7" font-family="Helvetica,sans-Serif" font-size="11.00" fill="#000000">int4[10]</text>
<polygon fill="none" stroke="#000000" points="63,-555 63,-577 179,-577 179,-555 63,-555"/>
<image xlink:href="../../images/primaryKeys.png" width="11px" height="12px" preserveAspectRatio="xMinYMin meet" x="68" y="-572"/>
<text text-anchor="start" x="83" y="-562.1" font-family="Helvetica,sans-Serif" font-size="11.00" fill="#000000">version</text>
<polygon fill="none" stroke="#000000" points="179,-555 179,-577 263,-577 263,-555 179,-555"/>
<text text-anchor="start" x="182" y="-562.7" font-family="Helvetica,sans-Serif" font-size="11.00" fill="#000000">varchar[50]</text>
<polygon fill="none" stroke="#000000" points="63,-533 63,-555 179,-555 179,-533 63,-533"/>
<text text-anchor="start" x="83" y="-540.1" font-family="Helvetica,sans-Serif" font-size="11.00" fill="#000000">description</text>
<polygon fill="none" stroke="#000000" points="179,-533 179,-555 263,-555 263,-533 179,-533"/>
<text text-anchor="start" x="182" y="-540.7" font-family="Helvetica,sans-Serif" font-size="11.00" fill="#000000">varchar[200]</text>
<polygon fill="none" stroke="#000000" points="63,-511 63,-533 179,-533 179,-511 63,-511"/>
<text text-anchor="start" x="83" y="-518.1" font-family="Helvetica,sans-Serif" font-size="11.00" fill="#000000">type</text>
<polygon fill="none" stroke="#000000" points="179,-511 179,-533 263,-533 263,-511 179,-511"/>
<text text-anchor="start" x="182" y="-518.7" font-family="Helvetica,sans-Serif" font-size="11.00" fill="#000000">varchar[20]</text>
<polygon fill="none" stroke="#000000" points="63,-489 63,-511 179,-511 179,-489 63,-489"/>
<text text-anchor="start" x="83" y="-496.1" font-family="Helvetica,sans-Serif" font-size="11.00" fill="#000000">script</text>
<polygon fill="none" stroke="#000000" points="179,-489 179,-511 263,-511 263,-489 179,-489"/>
<text text-anchor="start" x="182" y="-496.7" font-family="Helvetica,sans-Serif" font-size="11.00" fill="#000000">varchar[1000]</text>
<polygon fill="none" stroke="#000000" points="63,-467 63,-489 179,-489 179,-467 63,-467"/>
<text text-anchor="start" x="83" y="-474.1" font-family="Helvetica,sans-Serif" font-size="11.00" fill="#000000">checksum</text>
<polygon fill="none" stroke="#000000" points="179,-467 179,-489 263,-489 263,-467 179,-467"/>
<text text-anchor="start" x="182" y="-474.7" font-family="Helvetica,sans-Serif" font-size="11.00" fill="#000000">int4[10]</text>
<polygon fill="none" stroke="#000000" points="63,-445 63,-467 179,-467 179,-445 63,-445"/>
<text text-anchor="start" x="83" y="-452.1" font-family="Helvetica,sans-Serif" font-size="11.00" fill="#000000">installed_by</text>
<polygon fill="none" stroke="#000000" points="179,-445 179,-467 263,-467 263,-445 179,-445"/>
<text text-anchor="start" x="182" y="-452.7" font-family="Helvetica,sans-Serif" font-size="11.00" fill="#000000">varchar[100]</text>
<polygon fill="none" stroke="#000000" points="63,-423 63,-445 179,-445 179,-423 63,-423"/>
<text text-anchor="start" x="83" y="-430.1" font-family="Helvetica,sans-Serif" font-size="11.00" fill="#000000">installed_on</text>
<polygon fill="none" stroke="#000000" points="179,-423 179,-445 263,-445 263,-423 179,-423"/>
<text text-anchor="start" x="181.8807" y="-430.7" font-family="Helvetica,sans-Serif" font-size="11.00" fill="#000000">timestamp[29,6]</text>
<polygon fill="none" stroke="#000000" points="63,-401 63,-423 179,-423 179,-401 63,-401"/>
<text text-anchor="start" x="83" y="-408.1" font-family="Helvetica,sans-Serif" font-size="11.00" fill="#000000">execution_time</text>
<polygon fill="none" stroke="#000000" points="179,-401 179,-423 263,-423 263,-401 179,-401"/>
<text text-anchor="start" x="182" y="-408.7" font-family="Helvetica,sans-Serif" font-size="11.00" fill="#000000">int4[10]</text>
<polygon fill="#ffffff" stroke="transparent" points="63,-379 63,-401 179,-401 179,-379 63,-379"/>
<polygon fill="none" stroke="#000000" points="63,-379 63,-401 179,-401 179,-379 63,-379"/>
<text text-anchor="start" x="83" y="-386.1" font-family="Helvetica,sans-Serif" font-size="11.00" fill="#000000">success</text>
<polygon fill="none" stroke="#000000" points="179,-379 179,-401 263,-401 263,-379 179,-379"/>
<text text-anchor="start" x="182" y="-386.7" font-family="Helvetica,sans-Serif" font-size="11.00" fill="#000000">bool[1]</text>
<polygon fill="#ffffff" stroke="transparent" points="63,-360 63,-379 125,-379 125,-360 63,-360"/>
<polygon fill="none" stroke="#000000" points="63,-360 63,-379 125,-379 125,-360 63,-360"/>
<text text-anchor="start" x="66" y="-366.1" font-family="Helvetica,sans-Serif" font-size="11.00" fill="#000000">&lt; 0</text>
<polygon fill="#ffffff" stroke="transparent" points="125,-360 125,-379 179,-379 179,-360 125,-360"/>
<polygon fill="none" stroke="#000000" points="125,-360 125,-379 179,-379 179,-360 125,-360"/>
<text text-anchor="start" x="169.8862" y="-366.1" font-family="Helvetica,sans-Serif" font-size="11.00" fill="#000000"> &#160;</text>
<polygon fill="#ffffff" stroke="transparent" points="179,-360 179,-379 263,-379 263,-360 179,-360"/>
<polygon fill="none" stroke="#000000" points="179,-360 179,-379 263,-379 263,-360 179,-360"/>
<text text-anchor="start" x="244.4053" y="-366.1" font-family="Helvetica,sans-Serif" font-size="11.00" fill="#000000">0 &gt;</text>
<polygon fill="none" stroke="#000000" stroke-width="2" points="62,-359 62,-645 264,-645 264,-359 62,-359"/>
</a>
</g>
</g>
</g>
</svg>
