<?xml version="1.0" encoding="UTF-8" standalone="no"?>
<!DOCTYPE svg PUBLIC "-//W3C//DTD SVG 1.1//EN"
 "http://www.w3.org/Graphics/SVG/1.1/DTD/svg11.dtd">
<!-- Generated by graphviz version 2.40.1 (20161225.0304)
 -->
<!-- Title: orphans Pages: 1 -->
<svg width="335pt" height="658pt"
 viewBox="0.00 0.00 335.00 658.00" xmlns="http://www.w3.org/2000/svg" xmlns:xlink="http://www.w3.org/1999/xlink">
<g id="graph0" class="graph" transform="scale(1 1) rotate(0) translate(4 654)">
<title>orphans</title>
<polygon fill="#ffffff" stroke="transparent" points="-4,4 -4,-654 331,-654 331,4 -4,4"/>
<!-- opiskeluoikeus_lis채tiedot -->
<g id="node1" class="node">
<title>opiskeluoikeus_lis채tiedot</title>
<g id="a_node1"><a xlink:href="../../tables/opiskeluoikeus_lis_tiedot_2c99566.html" xlink:title="opiskeluoikeus_lis채tiedot" target="_top">
<polygon fill="#ffffff" stroke="transparent" points="30.5,-4 30.5,-138 296.5,-138 296.5,-4 30.5,-4"/>
<polygon fill="#f5f5f5" stroke="transparent" points="32.5,-113 32.5,-136 294.5,-136 294.5,-113 32.5,-113"/>
<polygon fill="none" stroke="#000000" points="32.5,-113 32.5,-136 294.5,-136 294.5,-113 32.5,-113"/>
<text text-anchor="start" x="37.5" y="-121.6" font-family="Helvetica,sans-Serif" font-weight="bold" font-size="11.00" fill="#000000">opiskeluoikeus_lis채tiedot</text>
<text text-anchor="start" x="259.5437" y="-121.1" font-family="Helvetica,sans-Serif" font-size="11.00" fill="#000000">[table]</text>
<polygon fill="none" stroke="#000000" points="32.5,-91 32.5,-113 204.5,-113 204.5,-91 32.5,-91"/>
<image xlink:href="../../images/primaryKeys.png" width="11px" height="12px" preserveAspectRatio="xMinYMin meet" x="37.5" y="-108"/>
<text text-anchor="start" x="52.5" y="-98.1" font-family="Helvetica,sans-Serif" font-size="11.00" fill="#000000">oppija_oid</text>
<polygon fill="none" stroke="#000000" points="204.5,-91 204.5,-113 294.5,-113 294.5,-91 204.5,-91"/>
<text text-anchor="start" x="207.0042" y="-98.7" font-family="Helvetica,sans-Serif" font-size="11.00" fill="#000000">text[2147483647]</text>
<polygon fill="none" stroke="#000000" points="32.5,-69 32.5,-91 204.5,-91 204.5,-69 32.5,-69"/>
<image xlink:href="../../images/primaryKeys.png" width="11px" height="12px" preserveAspectRatio="xMinYMin meet" x="37.5" y="-86"/>
<text text-anchor="start" x="52.5" y="-76.1" font-family="Helvetica,sans-Serif" font-size="11.00" fill="#000000">opiskeluoikeus_oid</text>
<polygon fill="none" stroke="#000000" points="204.5,-69 204.5,-91 294.5,-91 294.5,-69 204.5,-69"/>
<text text-anchor="start" x="207.0042" y="-76.7" font-family="Helvetica,sans-Serif" font-size="11.00" fill="#000000">text[2147483647]</text>
<polygon fill="none" stroke="#000000" points="32.5,-47 32.5,-69 204.5,-69 204.5,-47 32.5,-47"/>
<image xlink:href="../../images/primaryKeys.png" width="11px" height="12px" preserveAspectRatio="xMinYMin meet" x="37.5" y="-64"/>
<text text-anchor="start" x="52.5" y="-54.1" font-family="Helvetica,sans-Serif" font-size="11.00" fill="#000000">oppilaitos_oid</text>
<polygon fill="none" stroke="#000000" points="204.5,-47 204.5,-69 294.5,-69 294.5,-47 204.5,-47"/>
<text text-anchor="start" x="207.0042" y="-54.7" font-family="Helvetica,sans-Serif" font-size="11.00" fill="#000000">text[2147483647]</text>
<polygon fill="none" stroke="#000000" points="32.5,-25 32.5,-47 204.5,-47 204.5,-25 32.5,-25"/>
<text text-anchor="start" x="52.5" y="-32.1" font-family="Helvetica,sans-Serif" font-size="11.00" fill="#000000">muu_haku</text>
<polygon fill="none" stroke="#000000" points="204.5,-25 204.5,-47 294.5,-47 294.5,-25 204.5,-25"/>
<text text-anchor="start" x="207.5" y="-32.7" font-family="Helvetica,sans-Serif" font-size="11.00" fill="#000000">bool[1]</text>
<polygon fill="#ffffff" stroke="transparent" points="32.5,-6 32.5,-25 122.5,-25 122.5,-6 32.5,-6"/>
<polygon fill="none" stroke="#000000" points="32.5,-6 32.5,-25 122.5,-25 122.5,-6 32.5,-6"/>
<text text-anchor="start" x="35.5" y="-12.1" font-family="Helvetica,sans-Serif" font-size="11.00" fill="#000000">&lt; 0</text>
<polygon fill="#ffffff" stroke="transparent" points="122.5,-6 122.5,-25 204.5,-25 204.5,-6 122.5,-6"/>
<polygon fill="none" stroke="#000000" points="122.5,-6 122.5,-25 204.5,-25 204.5,-6 122.5,-6"/>
<text text-anchor="start" x="195.3862" y="-12.1" font-family="Helvetica,sans-Serif" font-size="11.00" fill="#000000"> &#160;</text>
<polygon fill="#ffffff" stroke="transparent" points="204.5,-6 204.5,-25 294.5,-25 294.5,-6 204.5,-6"/>
<polygon fill="none" stroke="#000000" points="204.5,-6 204.5,-25 294.5,-25 294.5,-6 204.5,-6"/>
<text text-anchor="start" x="275.9053" y="-12.1" font-family="Helvetica,sans-Serif" font-size="11.00" fill="#000000">0 &gt;</text>
<polygon fill="none" stroke="#000000" stroke-width="2" points="31.5,-5 31.5,-137 295.5,-137 295.5,-5 31.5,-5"/>
</a>
</g>
</g>
<!-- oppivelvollisuudesta_vapautetut -->
<g id="node2" class="node">
<title>oppivelvollisuudesta_vapautetut</title>
<g id="a_node2"><a xlink:href="../../tables/oppivelvollisuudesta_vapautetut.html" xlink:title="oppivelvollisuudesta_vapautetut" target="_top">
<polygon fill="#ffffff" stroke="transparent" points="8,-159 8,-337 319,-337 319,-159 8,-159"/>
<polygon fill="#f5f5f5" stroke="transparent" points="10.5,-312 10.5,-335 317.5,-335 317.5,-312 10.5,-312"/>
<polygon fill="none" stroke="#000000" points="10.5,-312 10.5,-335 317.5,-335 317.5,-312 10.5,-312"/>
<text text-anchor="start" x="15.5" y="-320.6" font-family="Helvetica,sans-Serif" font-weight="bold" font-size="11.00" fill="#000000">oppivelvollisuudesta_vapautetut</text>
<text text-anchor="start" x="282.5437" y="-320.1" font-family="Helvetica,sans-Serif" font-size="11.00" fill="#000000">[table]</text>
<polygon fill="#ffffff" stroke="transparent" points="10.5,-290 10.5,-312 227.5,-312 227.5,-290 10.5,-290"/>
<polygon fill="none" stroke="#000000" points="10.5,-290 10.5,-312 227.5,-312 227.5,-290 10.5,-290"/>
<text text-anchor="start" x="30.5" y="-297.1" font-family="Helvetica,sans-Serif" font-size="11.00" fill="#000000">oppija_oid</text>
<polygon fill="none" stroke="#000000" points="227.5,-290 227.5,-312 317.5,-312 317.5,-290 227.5,-290"/>
<text text-anchor="start" x="230.0043" y="-297.7" font-family="Helvetica,sans-Serif" font-size="11.00" fill="#000000">text[2147483647]</text>
<polygon fill="none" stroke="#000000" points="10.5,-268 10.5,-290 227.5,-290 227.5,-268 10.5,-268"/>
<text text-anchor="start" x="30.5" y="-275.1" font-family="Helvetica,sans-Serif" font-size="11.00" fill="#000000">virkailija_oid</text>
<polygon fill="none" stroke="#000000" points="227.5,-268 227.5,-290 317.5,-290 317.5,-268 227.5,-268"/>
<text text-anchor="start" x="230.0043" y="-275.7" font-family="Helvetica,sans-Serif" font-size="11.00" fill="#000000">text[2147483647]</text>
<polygon fill="none" stroke="#000000" points="10.5,-246 10.5,-268 227.5,-268 227.5,-246 10.5,-246"/>
<text text-anchor="start" x="30.5" y="-253.1" font-family="Helvetica,sans-Serif" font-size="11.00" fill="#000000">kunta_koodiarvo</text>
<polygon fill="none" stroke="#000000" points="227.5,-246 227.5,-268 317.5,-268 317.5,-246 227.5,-246"/>
<text text-anchor="start" x="230.0043" y="-253.7" font-family="Helvetica,sans-Serif" font-size="11.00" fill="#000000">text[2147483647]</text>
<polygon fill="none" stroke="#000000" points="10.5,-224 10.5,-246 227.5,-246 227.5,-224 10.5,-224"/>
<text text-anchor="start" x="30.5" y="-231.1" font-family="Helvetica,sans-Serif" font-size="11.00" fill="#000000">vapautettu</text>
<polygon fill="none" stroke="#000000" points="227.5,-224 227.5,-246 317.5,-246 317.5,-224 227.5,-224"/>
<text text-anchor="start" x="230.5" y="-231.7" font-family="Helvetica,sans-Serif" font-size="11.00" fill="#000000">date[13]</text>
<polygon fill="none" stroke="#000000" points="10.5,-202 10.5,-224 227.5,-224 227.5,-202 10.5,-202"/>
<text text-anchor="start" x="30.5" y="-209.1" font-family="Helvetica,sans-Serif" font-size="11.00" fill="#000000">aikaleima</text>
<polygon fill="none" stroke="#000000" points="227.5,-202 227.5,-224 317.5,-224 317.5,-202 227.5,-202"/>
<text text-anchor="start" x="230.5" y="-209.7" font-family="Helvetica,sans-Serif" font-size="11.00" fill="#000000">timestamp[29,6]</text>
<polygon fill="#ffffff" stroke="transparent" points="10.5,-180 10.5,-202 227.5,-202 227.5,-180 10.5,-180"/>
<polygon fill="none" stroke="#000000" points="10.5,-180 10.5,-202 227.5,-202 227.5,-180 10.5,-180"/>
<text text-anchor="start" x="30.5" y="-187.1" font-family="Helvetica,sans-Serif" font-size="11.00" fill="#000000">mitatoity</text>
<polygon fill="none" stroke="#000000" points="227.5,-180 227.5,-202 317.5,-202 317.5,-180 227.5,-180"/>
<text text-anchor="start" x="230.5" y="-187.7" font-family="Helvetica,sans-Serif" font-size="11.00" fill="#000000">timestamp[29,6]</text>
<polygon fill="#ffffff" stroke="transparent" points="10.5,-161 10.5,-180 123.5,-180 123.5,-161 10.5,-161"/>
<polygon fill="none" stroke="#000000" points="10.5,-161 10.5,-180 123.5,-180 123.5,-161 10.5,-161"/>
<text text-anchor="start" x="13.5" y="-167.1" font-family="Helvetica,sans-Serif" font-size="11.00" fill="#000000">&lt; 0</text>
<polygon fill="#ffffff" stroke="transparent" points="123.5,-161 123.5,-180 227.5,-180 227.5,-161 123.5,-161"/>
<polygon fill="none" stroke="#000000" points="123.5,-161 123.5,-180 227.5,-180 227.5,-161 123.5,-161"/>
<text text-anchor="start" x="218.3862" y="-167.1" font-family="Helvetica,sans-Serif" font-size="11.00" fill="#000000"> &#160;</text>
<polygon fill="#ffffff" stroke="transparent" points="227.5,-161 227.5,-180 317.5,-180 317.5,-161 227.5,-161"/>
<polygon fill="none" stroke="#000000" points="227.5,-161 227.5,-180 317.5,-180 317.5,-161 227.5,-161"/>
<text text-anchor="start" x="298.9053" y="-167.1" font-family="Helvetica,sans-Serif" font-size="11.00" fill="#000000">0 &gt;</text>
<polygon fill="none" stroke="#000000" stroke-width="2" points="9,-160 9,-336 318,-336 318,-160 9,-160"/>
</a>
</g>
</g>
<!-- schema_version -->
<g id="node3" class="node">
<title>schema_version</title>
<g id="a_node3"><a xlink:href="../../tables/schema_version.html" xlink:title="schema_version" target="_top">
<polygon fill="#ffffff" stroke="transparent" points="61.5,-358 61.5,-646 265.5,-646 265.5,-358 61.5,-358"/>
<polygon fill="#f5f5f5" stroke="transparent" points="63.5,-621 63.5,-644 263.5,-644 263.5,-621 63.5,-621"/>
<polygon fill="none" stroke="#000000" points="63.5,-621 63.5,-644 263.5,-644 263.5,-621 63.5,-621"/>
<text text-anchor="start" x="68.5" y="-629.6" font-family="Helvetica,sans-Serif" font-weight="bold" font-size="11.00" fill="#000000">schema_version</text>
<text text-anchor="start" x="228.5437" y="-629.1" font-family="Helvetica,sans-Serif" font-size="11.00" fill="#000000">[table]</text>
<polygon fill="#ffffff" stroke="transparent" points="63.5,-599 63.5,-621 179.5,-621 179.5,-599 63.5,-599"/>
<polygon fill="none" stroke="#000000" points="63.5,-599 63.5,-621 179.5,-621 179.5,-599 63.5,-599"/>
<text text-anchor="start" x="83.5" y="-606.1" font-family="Helvetica,sans-Serif" font-size="11.00" fill="#000000">version_rank</text>
<polygon fill="none" stroke="#000000" points="179.5,-599 179.5,-621 263.5,-621 263.5,-599 179.5,-599"/>
<text text-anchor="start" x="182.5" y="-606.7" font-family="Helvetica,sans-Serif" font-size="11.00" fill="#000000">int4[10]</text>
<polygon fill="#ffffff" stroke="transparent" points="63.5,-577 63.5,-599 179.5,-599 179.5,-577 63.5,-577"/>
<polygon fill="none" stroke="#000000" points="63.5,-577 63.5,-599 179.5,-599 179.5,-577 63.5,-577"/>
<text text-anchor="start" x="83.5" y="-584.1" font-family="Helvetica,sans-Serif" font-size="11.00" fill="#000000">installed_rank</text>
<polygon fill="none" stroke="#000000" points="179.5,-577 179.5,-599 263.5,-599 263.5,-577 179.5,-577"/>
<text text-anchor="start" x="182.5" y="-584.7" font-family="Helvetica,sans-Serif" font-size="11.00" fill="#000000">int4[10]</text>
<polygon fill="none" stroke="#000000" points="63.5,-555 63.5,-577 179.5,-577 179.5,-555 63.5,-555"/>
<image xlink:href="../../images/primaryKeys.png" width="11px" height="12px" preserveAspectRatio="xMinYMin meet" x="68.5" y="-572"/>
<text text-anchor="start" x="83.5" y="-562.1" font-family="Helvetica,sans-Serif" font-size="11.00" fill="#000000">version</text>
<polygon fill="none" stroke="#000000" points="179.5,-555 179.5,-577 263.5,-577 263.5,-555 179.5,-555"/>
<text text-anchor="start" x="182.5" y="-562.7" font-family="Helvetica,sans-Serif" font-size="11.00" fill="#000000">varchar[50]</text>
<polygon fill="none" stroke="#000000" points="63.5,-533 63.5,-555 179.5,-555 179.5,-533 63.5,-533"/>
<text text-anchor="start" x="83.5" y="-540.1" font-family="Helvetica,sans-Serif" font-size="11.00" fill="#000000">description</text>
<polygon fill="none" stroke="#000000" points="179.5,-533 179.5,-555 263.5,-555 263.5,-533 179.5,-533"/>
<text text-anchor="start" x="182.5" y="-540.7" font-family="Helvetica,sans-Serif" font-size="11.00" fill="#000000">varchar[200]</text>
<polygon fill="none" stroke="#000000" points="63.5,-511 63.5,-533 179.5,-533 179.5,-511 63.5,-511"/>
<text text-anchor="start" x="83.5" y="-518.1" font-family="Helvetica,sans-Serif" font-size="11.00" fill="#000000">type</text>
<polygon fill="none" stroke="#000000" points="179.5,-511 179.5,-533 263.5,-533 263.5,-511 179.5,-511"/>
<text text-anchor="start" x="182.5" y="-518.7" font-family="Helvetica,sans-Serif" font-size="11.00" fill="#000000">varchar[20]</text>
<polygon fill="none" stroke="#000000" points="63.5,-489 63.5,-511 179.5,-511 179.5,-489 63.5,-489"/>
<text text-anchor="start" x="83.5" y="-496.1" font-family="Helvetica,sans-Serif" font-size="11.00" fill="#000000">script</text>
<polygon fill="none" stroke="#000000" points="179.5,-489 179.5,-511 263.5,-511 263.5,-489 179.5,-489"/>
<text text-anchor="start" x="182.5" y="-496.7" font-family="Helvetica,sans-Serif" font-size="11.00" fill="#000000">varchar[1000]</text>
<polygon fill="none" stroke="#000000" points="63.5,-467 63.5,-489 179.5,-489 179.5,-467 63.5,-467"/>
<text text-anchor="start" x="83.5" y="-474.1" font-family="Helvetica,sans-Serif" font-size="11.00" fill="#000000">checksum</text>
<polygon fill="none" stroke="#000000" points="179.5,-467 179.5,-489 263.5,-489 263.5,-467 179.5,-467"/>
<text text-anchor="start" x="182.5" y="-474.7" font-family="Helvetica,sans-Serif" font-size="11.00" fill="#000000">int4[10]</text>
<polygon fill="none" stroke="#000000" points="63.5,-445 63.5,-467 179.5,-467 179.5,-445 63.5,-445"/>
<text text-anchor="start" x="83.5" y="-452.1" font-family="Helvetica,sans-Serif" font-size="11.00" fill="#000000">installed_by</text>
<polygon fill="none" stroke="#000000" points="179.5,-445 179.5,-467 263.5,-467 263.5,-445 179.5,-445"/>
<text text-anchor="start" x="182.5" y="-452.7" font-family="Helvetica,sans-Serif" font-size="11.00" fill="#000000">varchar[100]</text>
<polygon fill="none" stroke="#000000" points="63.5,-423 63.5,-445 179.5,-445 179.5,-423 63.5,-423"/>
<text text-anchor="start" x="83.5" y="-430.1" font-family="Helvetica,sans-Serif" font-size="11.00" fill="#000000">installed_on</text>
<polygon fill="none" stroke="#000000" points="179.5,-423 179.5,-445 263.5,-445 263.5,-423 179.5,-423"/>
<text text-anchor="start" x="182.3807" y="-430.7" font-family="Helvetica,sans-Serif" font-size="11.00" fill="#000000">timestamp[29,6]</text>
<polygon fill="none" stroke="#000000" points="63.5,-401 63.5,-423 179.5,-423 179.5,-401 63.5,-401"/>
<text text-anchor="start" x="83.5" y="-408.1" font-family="Helvetica,sans-Serif" font-size="11.00" fill="#000000">execution_time</text>
<polygon fill="none" stroke="#000000" points="179.5,-401 179.5,-423 263.5,-423 263.5,-401 179.5,-401"/>
<text text-anchor="start" x="182.5" y="-408.7" font-family="Helvetica,sans-Serif" font-size="11.00" fill="#000000">int4[10]</text>
<polygon fill="#ffffff" stroke="transparent" points="63.5,-379 63.5,-401 179.5,-401 179.5,-379 63.5,-379"/>
<polygon fill="none" stroke="#000000" points="63.5,-379 63.5,-401 179.5,-401 179.5,-379 63.5,-379"/>
<text text-anchor="start" x="83.5" y="-386.1" font-family="Helvetica,sans-Serif" font-size="11.00" fill="#000000">success</text>
<polygon fill="none" stroke="#000000" points="179.5,-379 179.5,-401 263.5,-401 263.5,-379 179.5,-379"/>
<text text-anchor="start" x="182.5" y="-386.7" font-family="Helvetica,sans-Serif" font-size="11.00" fill="#000000">bool[1]</text>
<polygon fill="#ffffff" stroke="transparent" points="63.5,-360 63.5,-379 125.5,-379 125.5,-360 63.5,-360"/>
<polygon fill="none" stroke="#000000" points="63.5,-360 63.5,-379 125.5,-379 125.5,-360 63.5,-360"/>
<text text-anchor="start" x="66.5" y="-366.1" font-family="Helvetica,sans-Serif" font-size="11.00" fill="#000000">&lt; 0</text>
<polygon fill="#ffffff" stroke="transparent" points="125.5,-360 125.5,-379 179.5,-379 179.5,-360 125.5,-360"/>
<polygon fill="none" stroke="#000000" points="125.5,-360 125.5,-379 179.5,-379 179.5,-360 125.5,-360"/>
<text text-anchor="start" x="170.3862" y="-366.1" font-family="Helvetica,sans-Serif" font-size="11.00" fill="#000000"> &#160;</text>
<polygon fill="#ffffff" stroke="transparent" points="179.5,-360 179.5,-379 263.5,-379 263.5,-360 179.5,-360"/>
<polygon fill="none" stroke="#000000" points="179.5,-360 179.5,-379 263.5,-379 263.5,-360 179.5,-360"/>
<text text-anchor="start" x="244.9053" y="-366.1" font-family="Helvetica,sans-Serif" font-size="11.00" fill="#000000">0 &gt;</text>
<polygon fill="none" stroke="#000000" stroke-width="2" points="62.5,-359 62.5,-645 264.5,-645 264.5,-359 62.5,-359"/>
</a>
</g>
</g>
</g>
</svg>
