<?xml version="1.0" encoding="UTF-8" standalone="no"?>
<!DOCTYPE svg PUBLIC "-//W3C//DTD SVG 1.1//EN"
 "http://www.w3.org/Graphics/SVG/1.1/DTD/svg11.dtd">
<!-- Generated by graphviz version 2.40.1 (20161225.0304)
 -->
<!-- Title: orphans Pages: 1 -->
<svg width="359pt" height="658pt"
 viewBox="0.00 0.00 359.00 658.00" xmlns="http://www.w3.org/2000/svg" xmlns:xlink="http://www.w3.org/1999/xlink">
<g id="graph0" class="graph" transform="scale(1 1) rotate(0) translate(4 654)">
<title>orphans</title>
<polygon fill="#ffffff" stroke="transparent" points="-4,4 -4,-654 355,-654 355,4 -4,4"/>
<!-- opiskeluoikeus_lisätiedot -->
<g id="node1" class="node">
<title>opiskeluoikeus_lisätiedot</title>
<g id="a_node1"><a xlink:href="../../tables/opiskeluoikeus_lis_tiedot_2c99566.html" xlink:title="opiskeluoikeus_lisätiedot" target="_top">
<polygon fill="#ffffff" stroke="transparent" points="32.5,-4 32.5,-138 318.5,-138 318.5,-4 32.5,-4"/>
<polygon fill="#f5f5f5" stroke="transparent" points="34.5,-113 34.5,-136 316.5,-136 316.5,-113 34.5,-113"/>
<polygon fill="none" stroke="#000000" points="34.5,-113 34.5,-136 316.5,-136 316.5,-113 34.5,-113"/>
<text text-anchor="start" x="39.5" y="-121.6" font-family="Helvetica,sans-Serif" font-weight="bold" font-size="11.00" fill="#000000">opiskeluoikeus_lisätiedot</text>
<text text-anchor="start" x="281.5437" y="-121.1" font-family="Helvetica,sans-Serif" font-size="11.00" fill="#000000">[table]</text>
<polygon fill="none" stroke="#000000" points="34.5,-91 34.5,-113 226.5,-113 226.5,-91 34.5,-91"/>
<image xlink:href="../../images/primaryKeys.png" width="11px" height="12px" preserveAspectRatio="xMinYMin meet" x="39.5" y="-108"/>
<text text-anchor="start" x="54.5" y="-98.1" font-family="Helvetica,sans-Serif" font-size="11.00" fill="#000000">oppija_oid</text>
<polygon fill="none" stroke="#000000" points="226.5,-91 226.5,-113 316.5,-113 316.5,-91 226.5,-91"/>
<text text-anchor="start" x="229.0043" y="-98.7" font-family="Helvetica,sans-Serif" font-size="11.00" fill="#000000">text[2147483647]</text>
<polygon fill="none" stroke="#000000" points="34.5,-69 34.5,-91 226.5,-91 226.5,-69 34.5,-69"/>
<image xlink:href="../../images/primaryKeys.png" width="11px" height="12px" preserveAspectRatio="xMinYMin meet" x="39.5" y="-86"/>
<text text-anchor="start" x="54.5" y="-76.1" font-family="Helvetica,sans-Serif" font-size="11.00" fill="#000000">opiskeluoikeus_oid</text>
<polygon fill="none" stroke="#000000" points="226.5,-69 226.5,-91 316.5,-91 316.5,-69 226.5,-69"/>
<text text-anchor="start" x="229.0043" y="-76.7" font-family="Helvetica,sans-Serif" font-size="11.00" fill="#000000">text[2147483647]</text>
<polygon fill="none" stroke="#000000" points="34.5,-47 34.5,-69 226.5,-69 226.5,-47 34.5,-47"/>
<image xlink:href="../../images/primaryKeys.png" width="11px" height="12px" preserveAspectRatio="xMinYMin meet" x="39.5" y="-64"/>
<text text-anchor="start" x="54.5" y="-54.1" font-family="Helvetica,sans-Serif" font-size="11.00" fill="#000000">oppilaitos_oid</text>
<polygon fill="none" stroke="#000000" points="226.5,-47 226.5,-69 316.5,-69 316.5,-47 226.5,-47"/>
<text text-anchor="start" x="229.0043" y="-54.7" font-family="Helvetica,sans-Serif" font-size="11.00" fill="#000000">text[2147483647]</text>
<polygon fill="none" stroke="#000000" points="34.5,-25 34.5,-47 226.5,-47 226.5,-25 34.5,-25"/>
<text text-anchor="start" x="54.5" y="-32.1" font-family="Helvetica,sans-Serif" font-size="11.00" fill="#000000">muu_haku</text>
<polygon fill="none" stroke="#000000" points="226.5,-25 226.5,-47 316.5,-47 316.5,-25 226.5,-25"/>
<text text-anchor="start" x="229.5" y="-32.7" font-family="Helvetica,sans-Serif" font-size="11.00" fill="#000000">bool[1]</text>
<polygon fill="#ffffff" stroke="transparent" points="34.5,-6 34.5,-25 134.5,-25 134.5,-6 34.5,-6"/>
<polygon fill="none" stroke="#000000" points="34.5,-6 34.5,-25 134.5,-25 134.5,-6 34.5,-6"/>
<text text-anchor="start" x="37.5" y="-12.1" font-family="Helvetica,sans-Serif" font-size="11.00" fill="#000000">&lt; 0</text>
<polygon fill="#ffffff" stroke="transparent" points="134.5,-6 134.5,-25 226.5,-25 226.5,-6 134.5,-6"/>
<polygon fill="none" stroke="#000000" points="134.5,-6 134.5,-25 226.5,-25 226.5,-6 134.5,-6"/>
<text text-anchor="start" x="217.3862" y="-12.1" font-family="Helvetica,sans-Serif" font-size="11.00" fill="#000000"> &#160;</text>
<polygon fill="#ffffff" stroke="transparent" points="226.5,-6 226.5,-25 316.5,-25 316.5,-6 226.5,-6"/>
<polygon fill="none" stroke="#000000" points="226.5,-6 226.5,-25 316.5,-25 316.5,-6 226.5,-6"/>
<text text-anchor="start" x="297.9053" y="-12.1" font-family="Helvetica,sans-Serif" font-size="11.00" fill="#000000">0 &gt;</text>
<polygon fill="none" stroke="#000000" stroke-width="2" points="33.5,-5 33.5,-137 317.5,-137 317.5,-5 33.5,-5"/>
</a>
</g>
</g>
<!-- oppivelvollisuudesta_vapautetut -->
<g id="node2" class="node">
<title>oppivelvollisuudesta_vapautetut</title>
<g id="a_node2"><a xlink:href="../../tables/oppivelvollisuudesta_vapautetut.html" xlink:title="oppivelvollisuudesta_vapautetut" target="_top">
<polygon fill="#ffffff" stroke="transparent" points="8,-159 8,-337 343,-337 343,-159 8,-159"/>
<polygon fill="#f5f5f5" stroke="transparent" points="10.5,-312 10.5,-335 341.5,-335 341.5,-312 10.5,-312"/>
<polygon fill="none" stroke="#000000" points="10.5,-312 10.5,-335 341.5,-335 341.5,-312 10.5,-312"/>
<text text-anchor="start" x="15.5" y="-320.6" font-family="Helvetica,sans-Serif" font-weight="bold" font-size="11.00" fill="#000000">oppivelvollisuudesta_vapautetut</text>
<text text-anchor="start" x="306.5437" y="-320.1" font-family="Helvetica,sans-Serif" font-size="11.00" fill="#000000">[table]</text>
<polygon fill="#ffffff" stroke="transparent" points="10.5,-290 10.5,-312 251.5,-312 251.5,-290 10.5,-290"/>
<polygon fill="none" stroke="#000000" points="10.5,-290 10.5,-312 251.5,-312 251.5,-290 10.5,-290"/>
<text text-anchor="start" x="30.5" y="-297.1" font-family="Helvetica,sans-Serif" font-size="11.00" fill="#000000">oppija_oid</text>
<polygon fill="none" stroke="#000000" points="251.5,-290 251.5,-312 341.5,-312 341.5,-290 251.5,-290"/>
<text text-anchor="start" x="254.0043" y="-297.7" font-family="Helvetica,sans-Serif" font-size="11.00" fill="#000000">text[2147483647]</text>
<polygon fill="none" stroke="#000000" points="10.5,-268 10.5,-290 251.5,-290 251.5,-268 10.5,-268"/>
<text text-anchor="start" x="30.5" y="-275.1" font-family="Helvetica,sans-Serif" font-size="11.00" fill="#000000">virkailija_oid</text>
<polygon fill="none" stroke="#000000" points="251.5,-268 251.5,-290 341.5,-290 341.5,-268 251.5,-268"/>
<text text-anchor="start" x="254.0043" y="-275.7" font-family="Helvetica,sans-Serif" font-size="11.00" fill="#000000">text[2147483647]</text>
<polygon fill="none" stroke="#000000" points="10.5,-246 10.5,-268 251.5,-268 251.5,-246 10.5,-246"/>
<text text-anchor="start" x="30.5" y="-253.1" font-family="Helvetica,sans-Serif" font-size="11.00" fill="#000000">kunta_koodiarvo</text>
<polygon fill="none" stroke="#000000" points="251.5,-246 251.5,-268 341.5,-268 341.5,-246 251.5,-246"/>
<text text-anchor="start" x="254.0043" y="-253.7" font-family="Helvetica,sans-Serif" font-size="11.00" fill="#000000">text[2147483647]</text>
<polygon fill="none" stroke="#000000" points="10.5,-224 10.5,-246 251.5,-246 251.5,-224 10.5,-224"/>
<text text-anchor="start" x="30.5" y="-231.1" font-family="Helvetica,sans-Serif" font-size="11.00" fill="#000000">vapautettu</text>
<polygon fill="none" stroke="#000000" points="251.5,-224 251.5,-246 341.5,-246 341.5,-224 251.5,-224"/>
<text text-anchor="start" x="254.5" y="-231.7" font-family="Helvetica,sans-Serif" font-size="11.00" fill="#000000">date[13]</text>
<polygon fill="none" stroke="#000000" points="10.5,-202 10.5,-224 251.5,-224 251.5,-202 10.5,-202"/>
<text text-anchor="start" x="30.5" y="-209.1" font-family="Helvetica,sans-Serif" font-size="11.00" fill="#000000">aikaleima</text>
<polygon fill="none" stroke="#000000" points="251.5,-202 251.5,-224 341.5,-224 341.5,-202 251.5,-202"/>
<text text-anchor="start" x="254.5" y="-209.7" font-family="Helvetica,sans-Serif" font-size="11.00" fill="#000000">timestamp[29,6]</text>
<polygon fill="#ffffff" stroke="transparent" points="10.5,-180 10.5,-202 251.5,-202 251.5,-180 10.5,-180"/>
<polygon fill="none" stroke="#000000" points="10.5,-180 10.5,-202 251.5,-202 251.5,-180 10.5,-180"/>
<text text-anchor="start" x="30.5" y="-187.1" font-family="Helvetica,sans-Serif" font-size="11.00" fill="#000000">mitatoity</text>
<polygon fill="none" stroke="#000000" points="251.5,-180 251.5,-202 341.5,-202 341.5,-180 251.5,-180"/>
<text text-anchor="start" x="254.5" y="-187.7" font-family="Helvetica,sans-Serif" font-size="11.00" fill="#000000">timestamp[29,6]</text>
<polygon fill="#ffffff" stroke="transparent" points="10.5,-161 10.5,-180 135.5,-180 135.5,-161 10.5,-161"/>
<polygon fill="none" stroke="#000000" points="10.5,-161 10.5,-180 135.5,-180 135.5,-161 10.5,-161"/>
<text text-anchor="start" x="13.5" y="-167.1" font-family="Helvetica,sans-Serif" font-size="11.00" fill="#000000">&lt; 0</text>
<polygon fill="#ffffff" stroke="transparent" points="135.5,-161 135.5,-180 251.5,-180 251.5,-161 135.5,-161"/>
<polygon fill="none" stroke="#000000" points="135.5,-161 135.5,-180 251.5,-180 251.5,-161 135.5,-161"/>
<text text-anchor="start" x="242.3862" y="-167.1" font-family="Helvetica,sans-Serif" font-size="11.00" fill="#000000"> &#160;</text>
<polygon fill="#ffffff" stroke="transparent" points="251.5,-161 251.5,-180 341.5,-180 341.5,-161 251.5,-161"/>
<polygon fill="none" stroke="#000000" points="251.5,-161 251.5,-180 341.5,-180 341.5,-161 251.5,-161"/>
<text text-anchor="start" x="322.9053" y="-167.1" font-family="Helvetica,sans-Serif" font-size="11.00" fill="#000000">0 &gt;</text>
<polygon fill="none" stroke="#000000" stroke-width="2" points="9,-160 9,-336 342,-336 342,-160 9,-160"/>
</a>
</g>
</g>
<!-- schema_version -->
<g id="node3" class="node">
<title>schema_version</title>
<g id="a_node3"><a xlink:href="../../tables/schema_version.html" xlink:title="schema_version" target="_top">
<polygon fill="#ffffff" stroke="transparent" points="67.5,-358 67.5,-646 283.5,-646 283.5,-358 67.5,-358"/>
<polygon fill="#f5f5f5" stroke="transparent" points="69.5,-621 69.5,-644 281.5,-644 281.5,-621 69.5,-621"/>
<polygon fill="none" stroke="#000000" points="69.5,-621 69.5,-644 281.5,-644 281.5,-621 69.5,-621"/>
<text text-anchor="start" x="74.5" y="-629.6" font-family="Helvetica,sans-Serif" font-weight="bold" font-size="11.00" fill="#000000">schema_version</text>
<text text-anchor="start" x="246.5437" y="-629.1" font-family="Helvetica,sans-Serif" font-size="11.00" fill="#000000">[table]</text>
<polygon fill="#ffffff" stroke="transparent" points="69.5,-599 69.5,-621 197.5,-621 197.5,-599 69.5,-599"/>
<polygon fill="none" stroke="#000000" points="69.5,-599 69.5,-621 197.5,-621 197.5,-599 69.5,-599"/>
<text text-anchor="start" x="89.5" y="-606.1" font-family="Helvetica,sans-Serif" font-size="11.00" fill="#000000">version_rank</text>
<polygon fill="none" stroke="#000000" points="197.5,-599 197.5,-621 281.5,-621 281.5,-599 197.5,-599"/>
<text text-anchor="start" x="200.5" y="-606.7" font-family="Helvetica,sans-Serif" font-size="11.00" fill="#000000">int4[10]</text>
<polygon fill="#ffffff" stroke="transparent" points="69.5,-577 69.5,-599 197.5,-599 197.5,-577 69.5,-577"/>
<polygon fill="none" stroke="#000000" points="69.5,-577 69.5,-599 197.5,-599 197.5,-577 69.5,-577"/>
<text text-anchor="start" x="89.5" y="-584.1" font-family="Helvetica,sans-Serif" font-size="11.00" fill="#000000">installed_rank</text>
<polygon fill="none" stroke="#000000" points="197.5,-577 197.5,-599 281.5,-599 281.5,-577 197.5,-577"/>
<text text-anchor="start" x="200.5" y="-584.7" font-family="Helvetica,sans-Serif" font-size="11.00" fill="#000000">int4[10]</text>
<polygon fill="none" stroke="#000000" points="69.5,-555 69.5,-577 197.5,-577 197.5,-555 69.5,-555"/>
<image xlink:href="../../images/primaryKeys.png" width="11px" height="12px" preserveAspectRatio="xMinYMin meet" x="74.5" y="-572"/>
<text text-anchor="start" x="89.5" y="-562.1" font-family="Helvetica,sans-Serif" font-size="11.00" fill="#000000">version</text>
<polygon fill="none" stroke="#000000" points="197.5,-555 197.5,-577 281.5,-577 281.5,-555 197.5,-555"/>
<text text-anchor="start" x="200.5" y="-562.7" font-family="Helvetica,sans-Serif" font-size="11.00" fill="#000000">varchar[50]</text>
<polygon fill="none" stroke="#000000" points="69.5,-533 69.5,-555 197.5,-555 197.5,-533 69.5,-533"/>
<text text-anchor="start" x="89.5" y="-540.1" font-family="Helvetica,sans-Serif" font-size="11.00" fill="#000000">description</text>
<polygon fill="none" stroke="#000000" points="197.5,-533 197.5,-555 281.5,-555 281.5,-533 197.5,-533"/>
<text text-anchor="start" x="200.5" y="-540.7" font-family="Helvetica,sans-Serif" font-size="11.00" fill="#000000">varchar[200]</text>
<polygon fill="none" stroke="#000000" points="69.5,-511 69.5,-533 197.5,-533 197.5,-511 69.5,-511"/>
<text text-anchor="start" x="89.5" y="-518.1" font-family="Helvetica,sans-Serif" font-size="11.00" fill="#000000">type</text>
<polygon fill="none" stroke="#000000" points="197.5,-511 197.5,-533 281.5,-533 281.5,-511 197.5,-511"/>
<text text-anchor="start" x="200.5" y="-518.7" font-family="Helvetica,sans-Serif" font-size="11.00" fill="#000000">varchar[20]</text>
<polygon fill="none" stroke="#000000" points="69.5,-489 69.5,-511 197.5,-511 197.5,-489 69.5,-489"/>
<text text-anchor="start" x="89.5" y="-496.1" font-family="Helvetica,sans-Serif" font-size="11.00" fill="#000000">script</text>
<polygon fill="none" stroke="#000000" points="197.5,-489 197.5,-511 281.5,-511 281.5,-489 197.5,-489"/>
<text text-anchor="start" x="200.5" y="-496.7" font-family="Helvetica,sans-Serif" font-size="11.00" fill="#000000">varchar[1000]</text>
<polygon fill="none" stroke="#000000" points="69.5,-467 69.5,-489 197.5,-489 197.5,-467 69.5,-467"/>
<text text-anchor="start" x="89.5" y="-474.1" font-family="Helvetica,sans-Serif" font-size="11.00" fill="#000000">checksum</text>
<polygon fill="none" stroke="#000000" points="197.5,-467 197.5,-489 281.5,-489 281.5,-467 197.5,-467"/>
<text text-anchor="start" x="200.5" y="-474.7" font-family="Helvetica,sans-Serif" font-size="11.00" fill="#000000">int4[10]</text>
<polygon fill="none" stroke="#000000" points="69.5,-445 69.5,-467 197.5,-467 197.5,-445 69.5,-445"/>
<text text-anchor="start" x="89.5" y="-452.1" font-family="Helvetica,sans-Serif" font-size="11.00" fill="#000000">installed_by</text>
<polygon fill="none" stroke="#000000" points="197.5,-445 197.5,-467 281.5,-467 281.5,-445 197.5,-445"/>
<text text-anchor="start" x="200.5" y="-452.7" font-family="Helvetica,sans-Serif" font-size="11.00" fill="#000000">varchar[100]</text>
<polygon fill="none" stroke="#000000" points="69.5,-423 69.5,-445 197.5,-445 197.5,-423 69.5,-423"/>
<text text-anchor="start" x="89.5" y="-430.1" font-family="Helvetica,sans-Serif" font-size="11.00" fill="#000000">installed_on</text>
<polygon fill="none" stroke="#000000" points="197.5,-423 197.5,-445 281.5,-445 281.5,-423 197.5,-423"/>
<text text-anchor="start" x="200.3807" y="-430.7" font-family="Helvetica,sans-Serif" font-size="11.00" fill="#000000">timestamp[29,6]</text>
<polygon fill="none" stroke="#000000" points="69.5,-401 69.5,-423 197.5,-423 197.5,-401 69.5,-401"/>
<text text-anchor="start" x="89.5" y="-408.1" font-family="Helvetica,sans-Serif" font-size="11.00" fill="#000000">execution_time</text>
<polygon fill="none" stroke="#000000" points="197.5,-401 197.5,-423 281.5,-423 281.5,-401 197.5,-401"/>
<text text-anchor="start" x="200.5" y="-408.7" font-family="Helvetica,sans-Serif" font-size="11.00" fill="#000000">int4[10]</text>
<polygon fill="#ffffff" stroke="transparent" points="69.5,-379 69.5,-401 197.5,-401 197.5,-379 69.5,-379"/>
<polygon fill="none" stroke="#000000" points="69.5,-379 69.5,-401 197.5,-401 197.5,-379 69.5,-379"/>
<text text-anchor="start" x="89.5" y="-386.1" font-family="Helvetica,sans-Serif" font-size="11.00" fill="#000000">success</text>
<polygon fill="none" stroke="#000000" points="197.5,-379 197.5,-401 281.5,-401 281.5,-379 197.5,-379"/>
<text text-anchor="start" x="200.5" y="-386.7" font-family="Helvetica,sans-Serif" font-size="11.00" fill="#000000">bool[1]</text>
<polygon fill="#ffffff" stroke="transparent" points="69.5,-360 69.5,-379 137.5,-379 137.5,-360 69.5,-360"/>
<polygon fill="none" stroke="#000000" points="69.5,-360 69.5,-379 137.5,-379 137.5,-360 69.5,-360"/>
<text text-anchor="start" x="72.5" y="-366.1" font-family="Helvetica,sans-Serif" font-size="11.00" fill="#000000">&lt; 0</text>
<polygon fill="#ffffff" stroke="transparent" points="137.5,-360 137.5,-379 197.5,-379 197.5,-360 137.5,-360"/>
<polygon fill="none" stroke="#000000" points="137.5,-360 137.5,-379 197.5,-379 197.5,-360 137.5,-360"/>
<text text-anchor="start" x="188.3862" y="-366.1" font-family="Helvetica,sans-Serif" font-size="11.00" fill="#000000"> &#160;</text>
<polygon fill="#ffffff" stroke="transparent" points="197.5,-360 197.5,-379 281.5,-379 281.5,-360 197.5,-360"/>
<polygon fill="none" stroke="#000000" points="197.5,-360 197.5,-379 281.5,-379 281.5,-360 197.5,-360"/>
<text text-anchor="start" x="262.9053" y="-366.1" font-family="Helvetica,sans-Serif" font-size="11.00" fill="#000000">0 &gt;</text>
<polygon fill="none" stroke="#000000" stroke-width="2" points="68.5,-359 68.5,-645 282.5,-645 282.5,-359 68.5,-359"/>
</a>
</g>
</g>
</g>
</svg>
