<?xml version="1.0" encoding="UTF-8"?>
<svg width="14px" height="15px" viewBox="0 0 14 15" version="1.1" xmlns="http://www.w3.org/2000/svg" xmlns:xlink="http://www.w3.org/1999/xlink">
    <g stroke="none" stroke-width="1" fill="none" fill-rule="evenodd">
        <g transform="translate(-801.000000, -1644.000000)" fill="#000000" fill-rule="nonzero">
            <g transform="translate(801.000000, 1643.000000)">
                <path d="M10.6666667,14.6648207 L10.6666667,9.5 L12,9.5 L12,15.9794304 L11.8314873,15.9794304 L11.8314873,15.998154 L0.168512658,15.998154 L0.168512658,15.9794304 L0,15.9794304 L0,4.3164557 L0.0936181435,4.3164557 L0.0936181435,3.00184599 L6.57304852,3.00184599 L6.57304852,4.33517932 L1.33333333,4.33517932 L1.33333333,14.6648207 L10.6666667,14.6648207 Z" id="Combined-Shape"></path>
                <path d="M7.87944174,5.2 L6,5.2 L8.5,0 L11,5.2 L9.12944174,5.2 L9.12944174,13 L7.87944174,13 L7.87944174,5.2 Z" id="Combined-Shape" transform="translate(8.500000, 6.500000) rotate(45.000000) translate(-8.500000, -6.500000) "></path>
            </g>
        </g>
    </g>
</svg>
