<svg id="Layer_1" data-name="Layer 1" xmlns="http://www.w3.org/2000/svg" viewBox="0 0 100 100"><defs><style>.cls-1{fill:#fff;}</style></defs><title>omaopintopolku_ikoni</title><path class="cls-1" d="M49.9981,0A50,50,0,1,0,100,50,50.0563,50.0563,0,0,0,49.9981,0Zm.5677,3.9305V9.3389H28.323A45.7954,45.7954,0,0,1,49.9981,3.9017C50.19,3.9017,50.3748,3.9281,50.5658,3.9305Zm18.7388,21.442v49.255H30.6954V25.3725Zm-9.2589-3.9017H26.7937V62.6367H21.4212v-48.74c.286-.2267.5856-.436.8769-.6561H60.0457ZM17.52,17.3269V52.6081h-5.58v-28.57A46.434,46.434,0,0,1,17.52,17.3269ZM49.9981,96.0983a46.0116,46.0116,0,0,1-41.96-65.0774V56.51H17.52V66.5384h9.2742V78.5292H73.2063V21.4708H63.9474V9.3389h-9.48V4.1282a46.0933,46.0933,0,0,1-4.4694,91.97Z"/></svg>