<svg id="Layer_1" data-name="Layer 1" xmlns="http://www.w3.org/2000/svg" xmlns:xlink="http://www.w3.org/1999/xlink" viewBox="0 0 582.65 411.95"><defs><style>.cls-1{fill:none;}.cls-2{clip-path:url(#clip-path);}.cls-3{fill:#5bca13;}.cls-4{fill:#0041dc;}.cls-5{fill:#1d1d1b;}</style><clipPath id="clip-path" transform="translate(-1.45 -2.76)"><rect class="cls-1" x="-131" y="-130" width="847.56" height="677.48"/></clipPath></defs><title>oph_logo_pysty</title><g class="cls-2"><path class="cls-3" d="M236.16,76.77C256.36,36.1,286.76.56,266.58,2.87A100.4,100.4,0,0,0,233.67,13,116.29,116.29,0,0,1,248,7.14s-41.88,17.23-57.52,66.42a127.87,127.87,0,0,1,20.72-16.17c34.74-22-.61,22-8.37,77.66,7-9,15.81-23,25.84-38.3a110.24,110.24,0,0,1,7.45-20m109.56-5.64c-8.1-2.33-16.52,2.4-25,11.45-3,7.3-6.08,15.53-9.3,24.87-13.52,39.26-30.36,112-55,103a30.51,30.51,0,0,1-6.12-3.05c-3.68,6.11-7.11,10.92-10.21,13.87a32.86,32.86,0,0,1-9.28,6.34c46.68,45.94,132.65,44,127.76-13.09-6-69.91-5.39-98.11-4.85-140.18a30.39,30.39,0,0,0-8-3.22m78.77,59a137.6,137.6,0,0,0-3.42-29.26C413,65.22,381.66,23.23,364,26c-3.7.58-10.19,1.79-19,12.2,3.17,3.95,6.41,8.3,9.68,12.91,6.45-64.24,45.69,15.84,56.06,84a12,12,0,0,0,5.61,2.62c6.87,1.43,8-6.29,8.1-7.6" transform="translate(-1.45 -2.76)"/><path class="cls-4" d="M327.45,20.85C267.95-15.38,192.22,188.25,186.55,137,171.93,38.38,248,7.14,248,7.14c-48.91,16.18-87.4,65.94-86.53,123.39,0.88,57.75,33.11,90.86,44.73,96.61,14.71,7.27,27.56.37,33.9-5.86,24.39-23.19,68.45-160.81,105.59-150.15,41.56,10,36.05,97.61,38.06,114.41,4,33.48,13.37,29.49,26.42,4.89,8.75-16.49,14.44-35.5,14.31-60.55,0,0-.62,9.37-8.12,7.81-6.73-1.4-9.25-5.25-26.19-31.76-17.73-27.74-44.86-74.17-62.76-85.08" transform="translate(-1.45 -2.76)"/><path class="cls-5" d="M584.1,414.45v-32h-3.42V408l-17-25.6h-3.24v32h3.42V388.75l17,25.69h3.24Zm-34.15,0v-3.06H533.48V399.82h14v-3.06h-14V385.47H550v-3.06H530.06v32H550Zm-30.42-8.82a8,8,0,0,0-2.7-6.34c-1.35-1.17-2.83-1.8-5.85-2.25l-3.51-.54a9.22,9.22,0,0,1-4.32-1.75,4.63,4.63,0,0,1-1.44-3.69c0-3.56,2.48-5.94,6.75-5.94a10.1,10.1,0,0,1,7.47,2.75l2.2-2.2a12.86,12.86,0,0,0-9.54-3.51c-6.34,0-10.26,3.6-10.26,9a7.57,7.57,0,0,0,2.43,6,11.65,11.65,0,0,0,5.89,2.43l3.73,0.58c2.34,0.36,3.15.63,4.18,1.53a5.16,5.16,0,0,1,1.53,4c0,3.73-2.88,5.94-7.56,5.94a11,11,0,0,1-8.73-3.51l-2.34,2.34c3,3,6.16,4.23,11,4.23,6.66,0,11.07-3.47,11.07-9.09m-26.86,8.82v-3.06H476.29v-29h-3.42v32h19.8Zm-30.28,0v-3.06H445.91V399.82h14v-3.06h-14V385.47h16.47v-3.06H442.49v32h19.89ZM428,391.36c0,3.92-2.65,5.85-6.39,5.85H413V385.47h8.55c3.73,0,6.39,2,6.39,5.89m4,23.08-7.6-14.53a8.31,8.31,0,0,0,7-8.6c0-5.53-3.91-8.91-9.49-8.91H409.6v32H413V400.23h7.69L428,414.45h4Zm-30.78-32h-3.69l-7.47,15.34-7.56-15.34h-3.69l9.54,18.81v13.23h3.42V401.22Zm-28.17,3.06v-3.06h-22v3.06h9.27v29h3.42v-29h9.27Zm-27,20.16a8,8,0,0,0-2.7-6.34c-1.35-1.17-2.83-1.8-5.85-2.25l-3.51-.54a9.22,9.22,0,0,1-4.32-1.75,4.63,4.63,0,0,1-1.44-3.69c0-3.56,2.47-5.94,6.75-5.94a10.1,10.1,0,0,1,7.47,2.75l2.2-2.2a12.86,12.86,0,0,0-9.54-3.51c-6.34,0-10.26,3.6-10.26,9a7.57,7.57,0,0,0,2.43,6,11.65,11.65,0,0,0,5.89,2.43l3.73,0.58c2.34,0.36,3.15.63,4.18,1.53a5.16,5.16,0,0,1,1.53,4c0,3.73-2.88,5.94-7.56,5.94a11,11,0,0,1-8.73-3.51l-2.34,2.34c3,3,6.16,4.23,11,4.23,6.66,0,11.07-3.47,11.07-9.09m-29.11,0a8,8,0,0,0-2.7-6.34c-1.35-1.17-2.84-1.8-5.85-2.25l-3.51-.54a9.22,9.22,0,0,1-4.32-1.75,4.63,4.63,0,0,1-1.44-3.69c0-3.56,2.48-5.94,6.75-5.94a10.1,10.1,0,0,1,7.47,2.75l2.2-2.2a12.86,12.86,0,0,0-9.54-3.51c-6.34,0-10.26,3.6-10.26,9a7.57,7.57,0,0,0,2.43,6,11.65,11.65,0,0,0,5.89,2.43l3.73,0.58c2.34,0.36,3.15.63,4.18,1.53a5.16,5.16,0,0,1,1.53,4c0,3.73-2.88,5.94-7.56,5.94a11,11,0,0,1-8.73-3.51l-2.34,2.34c3,3,6.16,4.23,11,4.23,6.66,0,11.07-3.47,11.07-9.09m-30.64-2.88v-5.08H275.05v3h7.87v2.43a8.4,8.4,0,0,1-1.8,5.81,7.81,7.81,0,0,1-6.07,2.75,7.71,7.71,0,0,1-5.53-2.25c-2-2.07-2.25-4.28-2.25-11s0.22-8.87,2.25-10.94a7.75,7.75,0,0,1,5.53-2.3c4,0,6.88,2.48,7.78,6.53h3.42c-0.94-5.62-5.08-9.59-11.2-9.59a11.34,11.34,0,0,0-8.19,3.33c-3,3-3,6.16-3,13s0,9.94,3,13A11.74,11.74,0,0,0,283.6,411c2-2.12,2.75-4.59,2.75-8.28m-33.93,11.7v-32H249V408l-17-25.6h-3.24v32h3.42V388.75l17,25.69h3.24Zm-36.31-32h-3.42v32h3.42v-32Zm-16.06,32v-32h-3.42V408l-17-25.6h-3.24v32h3.42V388.75l17,25.69H200Zm-38.52-16.38c0,3.92.09,8.69-2.11,11a8.34,8.34,0,0,1-6.3,2.34h-7V385.47h7a8.34,8.34,0,0,1,6.3,2.34c2.2,2.3,2.11,6.35,2.11,10.26m3.42,0c0-4.45.18-9.36-3.15-12.69a11.2,11.2,0,0,0-8.1-3h-11v32h11a11.2,11.2,0,0,0,8.1-3c3.33-3.33,3.15-9,3.15-13.41m-31.59,16.38v-3.06H117v-29h-3.42v32h19.8Zm-32.44-32H97.48v32h3.42v-32ZM82.63,405.49c0,3.6-2.47,5.89-6.43,5.89H67.47V399.64H76.2c4,0,6.43,2.25,6.43,5.85M82.14,391c0,3.82-2.74,5.58-6.3,5.58H67.47V385.47h8.37c3.55,0,6.3,1.71,6.3,5.53m3.91,14.58a7.75,7.75,0,0,0-5.22-7.6,7.34,7.34,0,0,0,4.72-7c0-5.35-3.87-8.55-9.45-8.55H64v32H76.51c5.67,0,9.54-3.06,9.54-8.87M54.69,385.47v-3.06h-22v3.06H42v29h3.42v-29h9.27Zm-30.87,18.4V382.41H20.4V403.6c0,4.86-3.1,8.06-7.78,8.06s-7.74-3.19-7.74-8.06V382.41H1.45v21.46c0,6.39,4.68,10.85,11.16,10.85s11.2-4.46,11.2-10.85" transform="translate(-1.45 -2.76)"/><path class="cls-5" d="M498.11,339.63a8,8,0,0,0-2.7-6.34c-1.35-1.17-2.84-1.8-5.85-2.25l-3.51-.54a9.22,9.22,0,0,1-4.32-1.75,4.63,4.63,0,0,1-1.44-3.69c0-3.56,2.47-5.94,6.75-5.94a10.1,10.1,0,0,1,7.47,2.75l2.21-2.2a12.86,12.86,0,0,0-9.54-3.51c-6.34,0-10.26,3.6-10.26,9a7.57,7.57,0,0,0,2.43,6,11.65,11.65,0,0,0,5.89,2.43l3.74,0.58c2.34,0.36,3.15.63,4.19,1.53a5.16,5.16,0,0,1,1.53,4c0,3.73-2.88,5.94-7.56,5.94a11,11,0,0,1-8.73-3.51l-2.34,2.34c3,3,6.17,4.23,11,4.23,6.66,0,11.07-3.47,11.07-9.09m-31.5-1.75V316.41h-3.42V337.6c0,4.86-3.1,8.06-7.78,8.06s-7.74-3.19-7.74-8.06V316.41h-3.42v21.46c0,6.39,4.68,10.85,11.16,10.85s11.2-4.46,11.2-10.85m-31.27-18.4v-3.06h-22v3.06h9.27v29h3.42v-29h9.27ZM404,316.41H400.6v32H404v-32Zm-12.78,32v-3.06H374.86v-29h-3.42v32h19.8Zm-29.16,0v-3.06H345.7v-29h-3.42v32h19.8Zm-35.55-10.21h-12l6-16.92Zm7.2,10.21-11.75-32H319.1l-11.79,32H311l2.56-7.25h14l2.56,7.25h3.64Zm-35,0v-32h-3.42v14.35H280.13V316.41h-3.42v32h3.42V333.82h15.21v14.63h3.42Zm-32.58-8.82a8,8,0,0,0-2.7-6.34c-1.35-1.17-2.83-1.8-5.85-2.25l-3.51-.54a9.22,9.22,0,0,1-4.32-1.75,4.63,4.63,0,0,1-1.44-3.69c0-3.56,2.47-5.94,6.75-5.94a10.1,10.1,0,0,1,7.47,2.75l2.2-2.2a12.86,12.86,0,0,0-9.54-3.51c-6.34,0-10.26,3.6-10.26,9a7.57,7.57,0,0,0,2.43,6,11.65,11.65,0,0,0,5.89,2.43l3.73,0.58c2.34,0.36,3.15.63,4.19,1.53a5.16,5.16,0,0,1,1.53,4c0,3.73-2.88,5.94-7.56,5.94a11,11,0,0,1-8.73-3.51l-2.34,2.34c3,3,6.17,4.23,11,4.23,6.66,0,11.07-3.47,11.07-9.09m-31.5-1.75V316.41h-3.42V337.6c0,4.86-3.11,8.06-7.78,8.06s-7.74-3.19-7.74-8.06V316.41h-3.42v21.46c0,6.39,4.68,10.85,11.16,10.85s11.2-4.46,11.2-10.85m-31.27-18.4v-3.06h-22v3.06h9.27v29h3.42v-29h9.27Zm-29.16,29v-3.06H157.78V333.82h14v-3.06h-14V319.47h16.47v-3.06H154.36v32h19.89ZM141,325.81c0,4.23-2.79,6.39-6.79,6.39h-8.19V319.47h8.19c4,0,6.79,2.11,6.79,6.34m3.42,0c0-5.76-4.05-9.4-9.9-9.4H122.64v32h3.42V335.26h8.51c5.85,0,9.9-3.69,9.9-9.45m-36.68,6.62c0,6.7-.22,8.87-2.25,10.94a7.82,7.82,0,0,1-11.07,0c-2-2.07-2.25-4.23-2.25-10.94s0.23-8.87,2.25-10.94a7.82,7.82,0,0,1,11.07,0c2,2.07,2.25,4.23,2.25,10.94m3.42,0c0-6.8,0-9.94-3-13a11.74,11.74,0,0,0-16.38,0c-3,3-3,6.16-3,13s0,9.94,3,13a11.74,11.74,0,0,0,16.38,0c3-3,3-6.16,3-13" transform="translate(-1.45 -2.76)"/></g></svg>