<?xml version="1.0" encoding="UTF-8"?>
<svg width="44px" height="44px" viewBox="0 0 44 44" version="1.1" xmlns="http://www.w3.org/2000/svg" xmlns:xlink="http://www.w3.org/1999/xlink">
    <!-- Generator: Sketch 50.2 (55047) - http://www.bohemiancoding.com/sketch -->
    <title>Page 1</title>
    <desc>Created with Sketch.</desc>
    <defs>
        <polygon id="path-1" points="0 0 44 0 44 44 0 44"></polygon>
    </defs>
    <g id="OHP-Visutetut" stroke="none" stroke-width="1" fill="none" fill-rule="evenodd">
        <g id="MyData_onnistui" transform="translate(-109.000000, -17.000000)">
            <g id="Elements/Header-laaja">
                <g id="Page-1" transform="translate(109.000000, 17.000000)">
                    <mask id="mask-2" fill="white">
                        <use xlink:href="#path-1"></use>
                    </mask>
                    <g id="Clip-2"></g>
                    <path d="M21.9982831,42.2832618 C10.8128609,42.2832618 1.71687217,33.1828326 1.71687217,22 C1.71687217,19.0214592 2.37615108,16.1991416 3.5350398,13.6480687 L3.5350398,24.8652361 L7.70703918,24.8652361 L7.70703918,29.2772532 L11.7880443,29.2772532 L11.7880443,34.5527897 L32.2102388,34.5527897 L32.2102388,9.4472103 L28.1361011,9.4472103 L28.1361011,4.10987124 L23.9658186,4.10987124 L23.9658186,1.81630901 C34.2309973,2.80858369 42.2831278,11.4798283 42.2831278,22 C42.2831278,33.1828326 33.1837053,42.2832618 21.9982831,42.2832618 Z M7.70703918,7.62403433 L7.70703918,23.1484979 L5.25191197,23.1484979 L5.25191197,10.576824 C5.9781489,9.51587983 6.7988138,8.52703863 7.70703918,7.62403433 Z M26.419229,9.4472103 L11.7880443,9.4472103 L11.7880443,27.560515 L9.42391135,27.560515 L9.42391135,6.11502146 C9.55095989,6.01545064 9.68144217,5.92274678 9.81020759,5.82660944 L26.419229,5.82660944 L26.419229,9.4472103 Z M13.5031996,32.8360515 L30.4933666,32.8360515 L30.4933666,11.1639485 L13.5031996,11.1639485 L13.5031996,32.8360515 Z M22.2489465,1.72875536 L22.2489465,4.10987124 L12.4610582,4.10987124 C15.3076323,2.58540773 18.5525207,1.7167382 21.9982831,1.7167382 C22.0841267,1.7167382 22.1648197,1.72703863 22.2489465,1.72875536 Z M21.9982831,0 C9.86858124,0 0,9.86781116 0,22 C0,34.1304721 9.86858124,44 21.9982831,44 C34.1297019,44 44,34.1304721 44,22 C44,9.86781116 34.1297019,0 21.9982831,0 Z" id="Fill-1" fill="#FFFFFF" mask="url(#mask-2)"></path>
                </g>
            </g>
        </g>
    </g>
</svg>