<?xml version="1.0" encoding="UTF-8" standalone="no"?>
<!DOCTYPE svg PUBLIC "-//W3C//DTD SVG 1.1//EN"
 "http://www.w3.org/Graphics/SVG/1.1/DTD/svg11.dtd">
<!-- Generated by graphviz version 2.40.1 (20161225.0304)
 -->
<!-- Title: largeRelationshipsDiagram Pages: 1 -->
<svg width="553pt" height="592pt"
 viewBox="0.00 0.00 553.00 592.20" xmlns="http://www.w3.org/2000/svg" xmlns:xlink="http://www.w3.org/1999/xlink">
<g id="graph0" class="graph" transform="scale(1 1) rotate(0) translate(4 588.2)">
<title>largeRelationshipsDiagram</title>
<polygon fill="#ffffff" stroke="transparent" points="-4,4 -4,-588.2 549,-588.2 549,4 -4,4"/>
<text text-anchor="middle" x="72.4936" y="-7.3" font-family="Helvetica,sans-Serif" font-size="11.00" fill="#000000">Generated by SchemaSpy</text>
<!-- oppivelvollisuuden_keskeytys -->
<g id="node1" class="node">
<title>oppivelvollisuuden_keskeytys</title>
<g id="a_node1"><a xlink:href="../../tables/oppivelvollisuuden_keskeytys.html" xlink:title="oppivelvollisuuden_keskeytys" target="_top">
<polygon fill="#ffffff" stroke="transparent" points="8,-82.2 8,-300.2 225,-300.2 225,-82.2 8,-82.2"/>
<polygon fill="#f5f5f5" stroke="transparent" points="8.5,-277.2 8.5,-300.2 225.5,-300.2 225.5,-277.2 8.5,-277.2"/>
<polygon fill="none" stroke="#000000" points="8.5,-277.2 8.5,-300.2 225.5,-300.2 225.5,-277.2 8.5,-277.2"/>
<text text-anchor="start" x="13.5" y="-285.8" font-family="Helvetica,sans-Serif" font-weight="bold" font-size="11.00" fill="#000000">oppivelvollisuuden_keskeytys</text>
<text text-anchor="start" x="191.0219" y="-285.3" font-family="Helvetica,sans-Serif" font-size="11.00" fill="#000000">[table]</text>
<polygon fill="none" stroke="#000000" points="8.5,-255.2 8.5,-277.2 225.5,-277.2 225.5,-255.2 8.5,-255.2"/>
<image xlink:href="../../images/primaryKeys.png" width="11px" height="12px" preserveAspectRatio="xMinYMin meet" x="13.5" y="-272.2"/>
<text text-anchor="start" x="37.5" y="-262.3" font-family="Helvetica,sans-Serif" font-size="11.00" fill="#000000">uuid</text>
<polygon fill="none" stroke="#000000" points="8.5,-233.2 8.5,-255.2 225.5,-255.2 225.5,-233.2 8.5,-233.2"/>
<text text-anchor="start" x="37.5" y="-240.3" font-family="Helvetica,sans-Serif" font-size="11.00" fill="#000000">oppija_oid</text>
<polygon fill="none" stroke="#000000" points="8.5,-211.2 8.5,-233.2 225.5,-233.2 225.5,-211.2 8.5,-211.2"/>
<text text-anchor="start" x="37.5" y="-218.3" font-family="Helvetica,sans-Serif" font-size="11.00" fill="#000000">alku</text>
<polygon fill="none" stroke="#000000" points="8.5,-189.2 8.5,-211.2 225.5,-211.2 225.5,-189.2 8.5,-189.2"/>
<text text-anchor="start" x="37.5" y="-196.3" font-family="Helvetica,sans-Serif" font-size="11.00" fill="#000000">loppu</text>
<polygon fill="none" stroke="#000000" points="8.5,-167.2 8.5,-189.2 225.5,-189.2 225.5,-167.2 8.5,-167.2"/>
<text text-anchor="start" x="37.5" y="-174.3" font-family="Helvetica,sans-Serif" font-size="11.00" fill="#000000">luotu</text>
<polygon fill="none" stroke="#000000" points="8.5,-145.2 8.5,-167.2 225.5,-167.2 225.5,-145.2 8.5,-145.2"/>
<text text-anchor="start" x="37.5" y="-152.3" font-family="Helvetica,sans-Serif" font-size="11.00" fill="#000000">tekijä_oid</text>
<polygon fill="none" stroke="#000000" points="8.5,-123.2 8.5,-145.2 225.5,-145.2 225.5,-123.2 8.5,-123.2"/>
<text text-anchor="start" x="37.5" y="-130.3" font-family="Helvetica,sans-Serif" font-size="11.00" fill="#000000">tekijä_organisaatio_oid</text>
<polygon fill="none" stroke="#000000" points="8.5,-101.2 8.5,-123.2 225.5,-123.2 225.5,-101.2 8.5,-101.2"/>
<text text-anchor="start" x="37.5" y="-108.3" font-family="Helvetica,sans-Serif" font-size="11.00" fill="#000000">peruttu</text>
<polygon fill="#ffffff" stroke="transparent" points="8.5,-82.2 8.5,-101.2 93.5,-101.2 93.5,-82.2 8.5,-82.2"/>
<polygon fill="none" stroke="#000000" points="8.5,-82.2 8.5,-101.2 93.5,-101.2 93.5,-82.2 8.5,-82.2"/>
<text text-anchor="start" x="11.5" y="-88.3" font-family="Helvetica,sans-Serif" font-size="11.00" fill="#000000"> &#160;</text>
<polygon fill="#ffffff" stroke="transparent" points="93.5,-82.2 93.5,-101.2 167.5,-101.2 167.5,-82.2 93.5,-82.2"/>
<polygon fill="none" stroke="#000000" points="93.5,-82.2 93.5,-101.2 167.5,-101.2 167.5,-82.2 93.5,-82.2"/>
<text text-anchor="start" x="132.1105" y="-88.3" font-family="Helvetica,sans-Serif" font-size="11.00" fill="#000000">8 rows</text>
<polygon fill="#ffffff" stroke="transparent" points="167.5,-82.2 167.5,-101.2 225.5,-101.2 225.5,-82.2 167.5,-82.2"/>
<polygon fill="none" stroke="#000000" points="167.5,-82.2 167.5,-101.2 225.5,-101.2 225.5,-82.2 167.5,-82.2"/>
<text text-anchor="start" x="206.9053" y="-88.3" font-family="Helvetica,sans-Serif" font-size="11.00" fill="#000000">1 &gt;</text>
</a>
</g>
</g>
<!-- ilmoitus_opiskeluoikeus_konteksti -->
<g id="node2" class="node">
<title>ilmoitus_opiskeluoikeus_konteksti</title>
<g id="a_node2"><a xlink:href="../../tables/ilmoitus_opiskeluoikeus_konteksti.html" xlink:title="ilmoitus_opiskeluoikeus_konteksti" target="_top">
<polygon fill="#ffffff" stroke="transparent" points="283,-494.2 283,-580.2 528,-580.2 528,-494.2 283,-494.2"/>
<polygon fill="#f5f5f5" stroke="transparent" points="283.5,-557.2 283.5,-580.2 528.5,-580.2 528.5,-557.2 283.5,-557.2"/>
<polygon fill="none" stroke="#000000" points="283.5,-557.2 283.5,-580.2 528.5,-580.2 528.5,-557.2 283.5,-557.2"/>
<text text-anchor="start" x="288.5" y="-565.8" font-family="Helvetica,sans-Serif" font-weight="bold" font-size="11.00" fill="#000000">ilmoitus_opiskeluoikeus_konteksti</text>
<text text-anchor="start" x="494.0219" y="-565.3" font-family="Helvetica,sans-Serif" font-size="11.00" fill="#000000">[table]</text>
<polygon fill="none" stroke="#000000" points="283.5,-535.2 283.5,-557.2 528.5,-557.2 528.5,-535.2 283.5,-535.2"/>
<image xlink:href="../../images/primaryKeys.png" width="11px" height="12px" preserveAspectRatio="xMinYMin meet" x="288.5" y="-552.2"/>
<text text-anchor="start" x="312.5" y="-542.3" font-family="Helvetica,sans-Serif" font-size="11.00" fill="#000000">ilmoitus_uuid</text>
<polygon fill="none" stroke="#000000" points="283.5,-513.2 283.5,-535.2 528.5,-535.2 528.5,-513.2 283.5,-513.2"/>
<image xlink:href="../../images/primaryKeys.png" width="11px" height="12px" preserveAspectRatio="xMinYMin meet" x="288.5" y="-530.2"/>
<text text-anchor="start" x="312.5" y="-520.3" font-family="Helvetica,sans-Serif" font-size="11.00" fill="#000000">opiskeluoikeus_oid</text>
<polygon fill="#ffffff" stroke="transparent" points="283.5,-494.2 283.5,-513.2 391.5,-513.2 391.5,-494.2 283.5,-494.2"/>
<polygon fill="none" stroke="#000000" points="283.5,-494.2 283.5,-513.2 391.5,-513.2 391.5,-494.2 283.5,-494.2"/>
<text text-anchor="start" x="286.5" y="-500.3" font-family="Helvetica,sans-Serif" font-size="11.00" fill="#000000">&lt; 1</text>
<polygon fill="#ffffff" stroke="transparent" points="391.5,-494.2 391.5,-513.2 472.5,-513.2 472.5,-494.2 391.5,-494.2"/>
<polygon fill="none" stroke="#000000" points="391.5,-494.2 391.5,-513.2 472.5,-513.2 472.5,-494.2 391.5,-494.2"/>
<text text-anchor="start" x="437.1105" y="-500.3" font-family="Helvetica,sans-Serif" font-size="11.00" fill="#000000">0 rows</text>
<polygon fill="#ffffff" stroke="transparent" points="472.5,-494.2 472.5,-513.2 528.5,-513.2 528.5,-494.2 472.5,-494.2"/>
<polygon fill="none" stroke="#000000" points="472.5,-494.2 472.5,-513.2 528.5,-513.2 528.5,-494.2 472.5,-494.2"/>
<text text-anchor="start" x="519.3862" y="-500.3" font-family="Helvetica,sans-Serif" font-size="11.00" fill="#000000"> &#160;</text>
</a>
</g>
</g>
<!-- ilmoitus -->
<g id="node4" class="node">
<title>ilmoitus</title>
<g id="a_node4"><a xlink:href="../../tables/ilmoitus.html" xlink:title="ilmoitus" target="_top">
<polygon fill="#ffffff" stroke="transparent" points="37,-352.2 37,-548.2 196,-548.2 196,-352.2 37,-352.2"/>
<polygon fill="#f5f5f5" stroke="transparent" points="37.5,-525.2 37.5,-548.2 196.5,-548.2 196.5,-525.2 37.5,-525.2"/>
<polygon fill="none" stroke="#000000" points="37.5,-525.2 37.5,-548.2 196.5,-548.2 196.5,-525.2 37.5,-525.2"/>
<text text-anchor="start" x="42.5" y="-533.8" font-family="Helvetica,sans-Serif" font-weight="bold" font-size="11.00" fill="#000000">ilmoitus</text>
<text text-anchor="start" x="161.5437" y="-533.3" font-family="Helvetica,sans-Serif" font-size="11.00" fill="#000000">[table]</text>
<polygon fill="none" stroke="#000000" points="37.5,-503.2 37.5,-525.2 196.5,-525.2 196.5,-503.2 37.5,-503.2"/>
<image xlink:href="../../images/primaryKeys.png" width="11px" height="12px" preserveAspectRatio="xMinYMin meet" x="42.5" y="-520.2"/>
<text text-anchor="start" x="57.5" y="-510.3" font-family="Helvetica,sans-Serif" font-size="11.00" fill="#000000">uuid</text>
<polygon fill="none" stroke="#000000" points="37.5,-481.2 37.5,-503.2 196.5,-503.2 196.5,-481.2 37.5,-481.2"/>
<text text-anchor="start" x="57.5" y="-488.3" font-family="Helvetica,sans-Serif" font-size="11.00" fill="#000000">luotu</text>
<polygon fill="none" stroke="#000000" points="37.5,-459.2 37.5,-481.2 196.5,-481.2 196.5,-459.2 37.5,-459.2"/>
<text text-anchor="start" x="57.5" y="-466.3" font-family="Helvetica,sans-Serif" font-size="11.00" fill="#000000">oppija_oid</text>
<polygon fill="none" stroke="#000000" points="37.5,-437.2 37.5,-459.2 196.5,-459.2 196.5,-437.2 37.5,-437.2"/>
<text text-anchor="start" x="57.5" y="-444.3" font-family="Helvetica,sans-Serif" font-size="11.00" fill="#000000">kunta_oid</text>
<polygon fill="none" stroke="#000000" points="37.5,-415.2 37.5,-437.2 196.5,-437.2 196.5,-415.2 37.5,-415.2"/>
<text text-anchor="start" x="57.5" y="-422.3" font-family="Helvetica,sans-Serif" font-size="11.00" fill="#000000">tekijä_organisaatio_oid</text>
<polygon fill="none" stroke="#000000" points="37.5,-393.2 37.5,-415.2 196.5,-415.2 196.5,-393.2 37.5,-393.2"/>
<text text-anchor="start" x="57.5" y="-400.3" font-family="Helvetica,sans-Serif" font-size="11.00" fill="#000000">tekijä_oid</text>
<polygon fill="none" stroke="#000000" points="37.5,-371.2 37.5,-393.2 196.5,-393.2 196.5,-371.2 37.5,-371.2"/>
<text text-anchor="start" x="57.5" y="-378.3" font-family="Helvetica,sans-Serif" font-size="11.00" fill="#000000">mitätöity</text>
<polygon fill="#ffffff" stroke="transparent" points="37.5,-352.2 37.5,-371.2 90.5,-371.2 90.5,-352.2 37.5,-352.2"/>
<polygon fill="none" stroke="#000000" points="37.5,-352.2 37.5,-371.2 90.5,-371.2 90.5,-352.2 37.5,-352.2"/>
<text text-anchor="start" x="40.5" y="-358.3" font-family="Helvetica,sans-Serif" font-size="11.00" fill="#000000"> &#160;</text>
<polygon fill="#ffffff" stroke="transparent" points="90.5,-352.2 90.5,-371.2 154.5,-371.2 154.5,-352.2 90.5,-352.2"/>
<polygon fill="none" stroke="#000000" points="90.5,-352.2 90.5,-371.2 154.5,-371.2 154.5,-352.2 90.5,-352.2"/>
<text text-anchor="start" x="112.9956" y="-358.3" font-family="Helvetica,sans-Serif" font-size="11.00" fill="#000000">18 rows</text>
<polygon fill="#ffffff" stroke="transparent" points="154.5,-352.2 154.5,-371.2 196.5,-371.2 196.5,-352.2 154.5,-352.2"/>
<polygon fill="none" stroke="#000000" points="154.5,-352.2 154.5,-371.2 196.5,-371.2 196.5,-352.2 154.5,-352.2"/>
<text text-anchor="start" x="177.9053" y="-358.3" font-family="Helvetica,sans-Serif" font-size="11.00" fill="#000000">2 &gt;</text>
</a>
</g>
</g>
<!-- ilmoitus_opiskeluoikeus_konteksti&#45;&gt;ilmoitus -->
<g id="edge2" class="edge">
<title>ilmoitus_opiskeluoikeus_konteksti:w&#45;&gt;ilmoitus:e</title>
<path fill="none" stroke="#000000" d="M268.8498,-544.6566C240.4329,-538.2645 232.2275,-514.2 196.5,-514.2"/>
<polygon fill="#000000" stroke="#000000" points="275.544,-545.3618 283.1228,-549.7802 279.522,-545.7809 283.5,-546.2 283.5,-546.2 283.5,-546.2 279.522,-545.7809 283.8772,-542.6198 275.544,-545.3618 275.544,-545.3618"/>
<ellipse fill="none" stroke="#000000" cx="272.3616" cy="-545.0265" rx="3.2" ry="3.2"/>
</g>
<!-- ilmoitus_lisätiedot -->
<g id="node3" class="node">
<title>ilmoitus_lisätiedot</title>
<g id="a_node3"><a xlink:href="../../tables/ilmoitus_lis_tiedot_cc362998.html" xlink:title="ilmoitus_lisätiedot" target="_top">
<polygon fill="#ffffff" stroke="transparent" points="331,-387.2 331,-473.2 480,-473.2 480,-387.2 331,-387.2"/>
<polygon fill="#f5f5f5" stroke="transparent" points="331.5,-450.2 331.5,-473.2 480.5,-473.2 480.5,-450.2 331.5,-450.2"/>
<polygon fill="none" stroke="#000000" points="331.5,-450.2 331.5,-473.2 480.5,-473.2 480.5,-450.2 331.5,-450.2"/>
<text text-anchor="start" x="336.5" y="-458.8" font-family="Helvetica,sans-Serif" font-weight="bold" font-size="11.00" fill="#000000">ilmoitus_lisätiedot</text>
<text text-anchor="start" x="446.0219" y="-458.3" font-family="Helvetica,sans-Serif" font-size="11.00" fill="#000000">[table]</text>
<polygon fill="none" stroke="#000000" points="331.5,-428.2 331.5,-450.2 480.5,-450.2 480.5,-428.2 331.5,-428.2"/>
<image xlink:href="../../images/primaryKeys.png" width="11px" height="12px" preserveAspectRatio="xMinYMin meet" x="336.5" y="-445.2"/>
<text text-anchor="start" x="360.5" y="-435.3" font-family="Helvetica,sans-Serif" font-size="11.00" fill="#000000">ilmoitus_uuid</text>
<polygon fill="none" stroke="#000000" points="331.5,-406.2 331.5,-428.2 480.5,-428.2 480.5,-406.2 331.5,-406.2"/>
<text text-anchor="start" x="360.5" y="-413.3" font-family="Helvetica,sans-Serif" font-size="11.00" fill="#000000">data</text>
<polygon fill="#ffffff" stroke="transparent" points="331.5,-387.2 331.5,-406.2 388.5,-406.2 388.5,-387.2 331.5,-387.2"/>
<polygon fill="none" stroke="#000000" points="331.5,-387.2 331.5,-406.2 388.5,-406.2 388.5,-387.2 331.5,-387.2"/>
<text text-anchor="start" x="334.5" y="-393.3" font-family="Helvetica,sans-Serif" font-size="11.00" fill="#000000">&lt; 1</text>
<polygon fill="#ffffff" stroke="transparent" points="388.5,-387.2 388.5,-406.2 450.5,-406.2 450.5,-387.2 388.5,-387.2"/>
<polygon fill="none" stroke="#000000" points="388.5,-387.2 388.5,-406.2 450.5,-406.2 450.5,-387.2 388.5,-387.2"/>
<text text-anchor="start" x="408.9956" y="-393.3" font-family="Helvetica,sans-Serif" font-size="11.00" fill="#000000">17 rows</text>
<polygon fill="#ffffff" stroke="transparent" points="450.5,-387.2 450.5,-406.2 480.5,-406.2 480.5,-387.2 450.5,-387.2"/>
<polygon fill="none" stroke="#000000" points="450.5,-387.2 450.5,-406.2 480.5,-406.2 480.5,-387.2 450.5,-387.2"/>
<text text-anchor="start" x="471.3862" y="-393.3" font-family="Helvetica,sans-Serif" font-size="11.00" fill="#000000"> &#160;</text>
</a>
</g>
</g>
<!-- ilmoitus_lisätiedot&#45;&gt;ilmoitus -->
<g id="edge1" class="edge">
<title>ilmoitus_lisätiedot:w&#45;&gt;ilmoitus:e</title>
<path fill="none" stroke="#000000" d="M320.8522,-439.8484C262.8992,-447.1788 261.3839,-514.2 196.5,-514.2"/>
<polygon fill="#000000" stroke="#000000" points="330.4583,-435.256 330.9446,-443.2412 329.3476,-443.3385 328.8613,-435.3533 330.4583,-435.256"/>
<polyline fill="none" stroke="#000000" points="331.5,-439.2 327.5074,-439.4432 "/>
<ellipse fill="none" stroke="#000000" cx="324.3133" cy="-439.6377" rx="3.2" ry="3.2"/>
</g>
<!-- oppivelvollisuuden_keskeytyshistoria -->
<g id="node5" class="node">
<title>oppivelvollisuuden_keskeytyshistoria</title>
<g id="a_node5"><a xlink:href="../../tables/oppivelvollisuuden_keskeytyshistoria.html" xlink:title="oppivelvollisuuden_keskeytyshistoria" target="_top">
<polygon fill="#ffffff" stroke="transparent" points="274,-38.2 274,-322.2 537,-322.2 537,-38.2 274,-38.2"/>
<polygon fill="#f5f5f5" stroke="transparent" points="274.5,-299.2 274.5,-322.2 537.5,-322.2 537.5,-299.2 274.5,-299.2"/>
<polygon fill="none" stroke="#000000" points="274.5,-299.2 274.5,-322.2 537.5,-322.2 537.5,-299.2 274.5,-299.2"/>
<text text-anchor="start" x="279.5" y="-307.8" font-family="Helvetica,sans-Serif" font-weight="bold" font-size="11.00" fill="#000000">oppivelvollisuuden_keskeytyshistoria</text>
<text text-anchor="start" x="503.0219" y="-307.3" font-family="Helvetica,sans-Serif" font-size="11.00" fill="#000000">[table]</text>
<polygon fill="none" stroke="#000000" points="274.5,-277.2 274.5,-299.2 537.5,-299.2 537.5,-277.2 274.5,-277.2"/>
<image xlink:href="../../images/primaryKeys.png" width="11px" height="12px" preserveAspectRatio="xMinYMin meet" x="279.5" y="-294.2"/>
<text text-anchor="start" x="303.5" y="-284.3" font-family="Helvetica,sans-Serif" font-size="11.00" fill="#000000">id</text>
<polygon fill="none" stroke="#000000" points="274.5,-255.2 274.5,-277.2 537.5,-277.2 537.5,-255.2 274.5,-255.2"/>
<image xlink:href="../../images/foreignKeys.png" width="11px" height="12px" preserveAspectRatio="xMinYMin meet" x="279.5" y="-272.2"/>
<text text-anchor="start" x="303.5" y="-262.3" font-family="Helvetica,sans-Serif" font-size="11.00" fill="#000000">ov_keskeytys_uuid</text>
<polygon fill="none" stroke="#000000" points="274.5,-233.2 274.5,-255.2 537.5,-255.2 537.5,-233.2 274.5,-233.2"/>
<text text-anchor="start" x="303.5" y="-240.3" font-family="Helvetica,sans-Serif" font-size="11.00" fill="#000000">muutos_tehty</text>
<polygon fill="none" stroke="#000000" points="274.5,-211.2 274.5,-233.2 537.5,-233.2 537.5,-211.2 274.5,-211.2"/>
<text text-anchor="start" x="303.5" y="-218.3" font-family="Helvetica,sans-Serif" font-size="11.00" fill="#000000">muutoksen_tekija</text>
<polygon fill="none" stroke="#000000" points="274.5,-189.2 274.5,-211.2 537.5,-211.2 537.5,-189.2 274.5,-189.2"/>
<text text-anchor="start" x="303.5" y="-196.3" font-family="Helvetica,sans-Serif" font-size="11.00" fill="#000000">oppija_oid</text>
<polygon fill="none" stroke="#000000" points="274.5,-167.2 274.5,-189.2 537.5,-189.2 537.5,-167.2 274.5,-167.2"/>
<text text-anchor="start" x="303.5" y="-174.3" font-family="Helvetica,sans-Serif" font-size="11.00" fill="#000000">alku</text>
<polygon fill="none" stroke="#000000" points="274.5,-145.2 274.5,-167.2 537.5,-167.2 537.5,-145.2 274.5,-145.2"/>
<text text-anchor="start" x="303.5" y="-152.3" font-family="Helvetica,sans-Serif" font-size="11.00" fill="#000000">loppu</text>
<polygon fill="none" stroke="#000000" points="274.5,-123.2 274.5,-145.2 537.5,-145.2 537.5,-123.2 274.5,-123.2"/>
<text text-anchor="start" x="303.5" y="-130.3" font-family="Helvetica,sans-Serif" font-size="11.00" fill="#000000">luotu</text>
<polygon fill="none" stroke="#000000" points="274.5,-101.2 274.5,-123.2 537.5,-123.2 537.5,-101.2 274.5,-101.2"/>
<text text-anchor="start" x="303.5" y="-108.3" font-family="Helvetica,sans-Serif" font-size="11.00" fill="#000000">tekijä_oid</text>
<polygon fill="none" stroke="#000000" points="274.5,-79.2 274.5,-101.2 537.5,-101.2 537.5,-79.2 274.5,-79.2"/>
<text text-anchor="start" x="303.5" y="-86.3" font-family="Helvetica,sans-Serif" font-size="11.00" fill="#000000">tekijä_organisaatio_oid</text>
<polygon fill="none" stroke="#000000" points="274.5,-57.2 274.5,-79.2 537.5,-79.2 537.5,-57.2 274.5,-57.2"/>
<text text-anchor="start" x="303.5" y="-64.3" font-family="Helvetica,sans-Serif" font-size="11.00" fill="#000000">peruttu</text>
<polygon fill="#ffffff" stroke="transparent" points="274.5,-38.2 274.5,-57.2 404.5,-57.2 404.5,-38.2 274.5,-38.2"/>
<polygon fill="none" stroke="#000000" points="274.5,-38.2 274.5,-57.2 404.5,-57.2 404.5,-38.2 274.5,-38.2"/>
<text text-anchor="start" x="277.5" y="-44.3" font-family="Helvetica,sans-Serif" font-size="11.00" fill="#000000">&lt; 1</text>
<polygon fill="#ffffff" stroke="transparent" points="404.5,-38.2 404.5,-57.2 470.5,-57.2 470.5,-38.2 404.5,-38.2"/>
<polygon fill="none" stroke="#000000" points="404.5,-38.2 404.5,-57.2 470.5,-57.2 470.5,-38.2 404.5,-38.2"/>
<text text-anchor="start" x="461.3862" y="-44.3" font-family="Helvetica,sans-Serif" font-size="11.00" fill="#000000"> &#160;</text>
<polygon fill="#ffffff" stroke="transparent" points="470.5,-38.2 470.5,-57.2 537.5,-57.2 537.5,-38.2 470.5,-38.2"/>
<polygon fill="none" stroke="#000000" points="470.5,-38.2 470.5,-57.2 537.5,-57.2 537.5,-38.2 470.5,-38.2"/>
<text text-anchor="start" x="528.3862" y="-44.3" font-family="Helvetica,sans-Serif" font-size="11.00" fill="#000000"> &#160;</text>
</a>
</g>
</g>
<!-- oppivelvollisuuden_keskeytyshistoria&#45;&gt;oppivelvollisuuden_keskeytys -->
<g id="edge3" class="edge">
<title>oppivelvollisuuden_keskeytyshistoria:w&#45;&gt;oppivelvollisuuden_keskeytys:e</title>
<path fill="none" stroke="#000000" d="M259.9909,-266.2C248.6774,-266.2 241.4931,-266.2 225.5,-266.2"/>
<polygon fill="#000000" stroke="#000000" points="266.5,-266.2001 274.5,-269.8 270.5,-266.2 274.5,-266.2 274.5,-266.2 274.5,-266.2 270.5,-266.2 274.5,-262.6 266.5,-266.2001 266.5,-266.2001"/>
<ellipse fill="none" stroke="#000000" cx="263.3" cy="-266.2001" rx="3.2" ry="3.2"/>
</g>
</g>
</svg>
