<?xml version="1.0" encoding="UTF-8" standalone="no"?>
<!DOCTYPE svg PUBLIC "-//W3C//DTD SVG 1.1//EN"
 "http://www.w3.org/Graphics/SVG/1.1/DTD/svg11.dtd">
<!-- Generated by graphviz version 2.40.1 (20161225.0304)
 -->
<!-- Title: largeRelationshipsDiagram Pages: 1 -->
<svg width="539pt" height="581pt"
 viewBox="0.00 0.00 539.00 581.20" xmlns="http://www.w3.org/2000/svg" xmlns:xlink="http://www.w3.org/1999/xlink">
<g id="graph0" class="graph" transform="scale(1 1) rotate(0) translate(4 577.2)">
<title>largeRelationshipsDiagram</title>
<polygon fill="#ffffff" stroke="transparent" points="-4,4 -4,-577.2 535,-577.2 535,4 -4,4"/>
<text text-anchor="middle" x="72.4936" y="-7.3" font-family="Helvetica,sans-Serif" font-size="11.00" fill="#000000">Generated by SchemaSpy</text>
<!-- oppivelvollisuuden_keskeytys -->
<g id="node1" class="node">
<title>oppivelvollisuuden_keskeytys</title>
<g id="a_node1"><a xlink:href="../../tables/oppivelvollisuuden_keskeytys.html" xlink:title="oppivelvollisuuden_keskeytys" target="_top">
<polygon fill="#ffffff" stroke="transparent" points="8,-82.2 8,-300.2 219,-300.2 219,-82.2 8,-82.2"/>
<polygon fill="#f5f5f5" stroke="transparent" points="8.5,-277.2 8.5,-300.2 219.5,-300.2 219.5,-277.2 8.5,-277.2"/>
<polygon fill="none" stroke="#000000" points="8.5,-277.2 8.5,-300.2 219.5,-300.2 219.5,-277.2 8.5,-277.2"/>
<text text-anchor="start" x="13.5" y="-285.8" font-family="Helvetica,sans-Serif" font-weight="bold" font-size="11.00" fill="#000000">oppivelvollisuuden_keskeytys</text>
<text text-anchor="start" x="185.0219" y="-285.3" font-family="Helvetica,sans-Serif" font-size="11.00" fill="#000000">[table]</text>
<polygon fill="none" stroke="#000000" points="8.5,-255.2 8.5,-277.2 219.5,-277.2 219.5,-255.2 8.5,-255.2"/>
<image xlink:href="../../images/primaryKeys.png" width="11px" height="12px" preserveAspectRatio="xMinYMin meet" x="13.5" y="-272.2"/>
<text text-anchor="start" x="37.5" y="-262.3" font-family="Helvetica,sans-Serif" font-size="11.00" fill="#000000">uuid</text>
<polygon fill="none" stroke="#000000" points="8.5,-233.2 8.5,-255.2 219.5,-255.2 219.5,-233.2 8.5,-233.2"/>
<text text-anchor="start" x="37.5" y="-240.3" font-family="Helvetica,sans-Serif" font-size="11.00" fill="#000000">oppija_oid</text>
<polygon fill="none" stroke="#000000" points="8.5,-211.2 8.5,-233.2 219.5,-233.2 219.5,-211.2 8.5,-211.2"/>
<text text-anchor="start" x="37.5" y="-218.3" font-family="Helvetica,sans-Serif" font-size="11.00" fill="#000000">alku</text>
<polygon fill="none" stroke="#000000" points="8.5,-189.2 8.5,-211.2 219.5,-211.2 219.5,-189.2 8.5,-189.2"/>
<text text-anchor="start" x="37.5" y="-196.3" font-family="Helvetica,sans-Serif" font-size="11.00" fill="#000000">loppu</text>
<polygon fill="none" stroke="#000000" points="8.5,-167.2 8.5,-189.2 219.5,-189.2 219.5,-167.2 8.5,-167.2"/>
<text text-anchor="start" x="37.5" y="-174.3" font-family="Helvetica,sans-Serif" font-size="11.00" fill="#000000">luotu</text>
<polygon fill="none" stroke="#000000" points="8.5,-145.2 8.5,-167.2 219.5,-167.2 219.5,-145.2 8.5,-145.2"/>
<text text-anchor="start" x="37.5" y="-152.3" font-family="Helvetica,sans-Serif" font-size="11.00" fill="#000000">tekijä_oid</text>
<polygon fill="none" stroke="#000000" points="8.5,-123.2 8.5,-145.2 219.5,-145.2 219.5,-123.2 8.5,-123.2"/>
<text text-anchor="start" x="37.5" y="-130.3" font-family="Helvetica,sans-Serif" font-size="11.00" fill="#000000">tekijä_organisaatio_oid</text>
<polygon fill="none" stroke="#000000" points="8.5,-101.2 8.5,-123.2 219.5,-123.2 219.5,-101.2 8.5,-101.2"/>
<text text-anchor="start" x="37.5" y="-108.3" font-family="Helvetica,sans-Serif" font-size="11.00" fill="#000000">peruttu</text>
<polygon fill="#ffffff" stroke="transparent" points="8.5,-82.2 8.5,-101.2 90.5,-101.2 90.5,-82.2 8.5,-82.2"/>
<polygon fill="none" stroke="#000000" points="8.5,-82.2 8.5,-101.2 90.5,-101.2 90.5,-82.2 8.5,-82.2"/>
<text text-anchor="start" x="11.5" y="-88.3" font-family="Helvetica,sans-Serif" font-size="11.00" fill="#000000"> &#160;</text>
<polygon fill="#ffffff" stroke="transparent" points="90.5,-82.2 90.5,-101.2 163.5,-101.2 163.5,-82.2 90.5,-82.2"/>
<polygon fill="none" stroke="#000000" points="90.5,-82.2 90.5,-101.2 163.5,-101.2 163.5,-82.2 90.5,-82.2"/>
<text text-anchor="start" x="128.1105" y="-88.3" font-family="Helvetica,sans-Serif" font-size="11.00" fill="#000000">0 rows</text>
<polygon fill="#ffffff" stroke="transparent" points="163.5,-82.2 163.5,-101.2 219.5,-101.2 219.5,-82.2 163.5,-82.2"/>
<polygon fill="none" stroke="#000000" points="163.5,-82.2 163.5,-101.2 219.5,-101.2 219.5,-82.2 163.5,-82.2"/>
<text text-anchor="start" x="200.9053" y="-88.3" font-family="Helvetica,sans-Serif" font-size="11.00" fill="#000000">1 &gt;</text>
</a>
</g>
</g>
<!-- ilmoitus_opiskeluoikeus_konteksti -->
<g id="node2" class="node">
<title>ilmoitus_opiskeluoikeus_konteksti</title>
<g id="a_node2"><a xlink:href="../../tables/ilmoitus_opiskeluoikeus_konteksti.html" xlink:title="ilmoitus_opiskeluoikeus_konteksti" target="_top">
<polygon fill="#ffffff" stroke="transparent" points="277,-483.2 277,-569.2 514,-569.2 514,-483.2 277,-483.2"/>
<polygon fill="#f5f5f5" stroke="transparent" points="277.5,-546.2 277.5,-569.2 514.5,-569.2 514.5,-546.2 277.5,-546.2"/>
<polygon fill="none" stroke="#000000" points="277.5,-546.2 277.5,-569.2 514.5,-569.2 514.5,-546.2 277.5,-546.2"/>
<text text-anchor="start" x="282.5" y="-554.8" font-family="Helvetica,sans-Serif" font-weight="bold" font-size="11.00" fill="#000000">ilmoitus_opiskeluoikeus_konteksti</text>
<text text-anchor="start" x="480.0219" y="-554.3" font-family="Helvetica,sans-Serif" font-size="11.00" fill="#000000">[table]</text>
<polygon fill="none" stroke="#000000" points="277.5,-524.2 277.5,-546.2 514.5,-546.2 514.5,-524.2 277.5,-524.2"/>
<image xlink:href="../../images/primaryKeys.png" width="11px" height="12px" preserveAspectRatio="xMinYMin meet" x="282.5" y="-541.2"/>
<text text-anchor="start" x="306.5" y="-531.3" font-family="Helvetica,sans-Serif" font-size="11.00" fill="#000000">ilmoitus_uuid</text>
<polygon fill="none" stroke="#000000" points="277.5,-502.2 277.5,-524.2 514.5,-524.2 514.5,-502.2 277.5,-502.2"/>
<image xlink:href="../../images/primaryKeys.png" width="11px" height="12px" preserveAspectRatio="xMinYMin meet" x="282.5" y="-519.2"/>
<text text-anchor="start" x="306.5" y="-509.3" font-family="Helvetica,sans-Serif" font-size="11.00" fill="#000000">opiskeluoikeus_oid</text>
<polygon fill="#ffffff" stroke="transparent" points="277.5,-483.2 277.5,-502.2 381.5,-502.2 381.5,-483.2 277.5,-483.2"/>
<polygon fill="none" stroke="#000000" points="277.5,-483.2 277.5,-502.2 381.5,-502.2 381.5,-483.2 277.5,-483.2"/>
<text text-anchor="start" x="280.5" y="-489.3" font-family="Helvetica,sans-Serif" font-size="11.00" fill="#000000">&lt; 1</text>
<polygon fill="#ffffff" stroke="transparent" points="381.5,-483.2 381.5,-502.2 460.5,-502.2 460.5,-483.2 381.5,-483.2"/>
<polygon fill="none" stroke="#000000" points="381.5,-483.2 381.5,-502.2 460.5,-502.2 460.5,-483.2 381.5,-483.2"/>
<text text-anchor="start" x="425.1105" y="-489.3" font-family="Helvetica,sans-Serif" font-size="11.00" fill="#000000">0 rows</text>
<polygon fill="#ffffff" stroke="transparent" points="460.5,-483.2 460.5,-502.2 514.5,-502.2 514.5,-483.2 460.5,-483.2"/>
<polygon fill="none" stroke="#000000" points="460.5,-483.2 460.5,-502.2 514.5,-502.2 514.5,-483.2 460.5,-483.2"/>
<text text-anchor="start" x="505.3862" y="-489.3" font-family="Helvetica,sans-Serif" font-size="11.00" fill="#000000"> &#160;</text>
</a>
</g>
</g>
<!-- ilmoitus -->
<g id="node4" class="node">
<title>ilmoitus</title>
<g id="a_node4"><a xlink:href="../../tables/ilmoitus.html" xlink:title="ilmoitus" target="_top">
<polygon fill="#ffffff" stroke="transparent" points="36.5,-358.2 36.5,-532.2 190.5,-532.2 190.5,-358.2 36.5,-358.2"/>
<polygon fill="#f5f5f5" stroke="transparent" points="36.5,-509.2 36.5,-532.2 190.5,-532.2 190.5,-509.2 36.5,-509.2"/>
<polygon fill="none" stroke="#000000" points="36.5,-509.2 36.5,-532.2 190.5,-532.2 190.5,-509.2 36.5,-509.2"/>
<text text-anchor="start" x="41.5" y="-517.8" font-family="Helvetica,sans-Serif" font-weight="bold" font-size="11.00" fill="#000000">ilmoitus</text>
<text text-anchor="start" x="155.5437" y="-517.3" font-family="Helvetica,sans-Serif" font-size="11.00" fill="#000000">[table]</text>
<polygon fill="none" stroke="#000000" points="36.5,-487.2 36.5,-509.2 190.5,-509.2 190.5,-487.2 36.5,-487.2"/>
<image xlink:href="../../images/primaryKeys.png" width="11px" height="12px" preserveAspectRatio="xMinYMin meet" x="41.5" y="-504.2"/>
<text text-anchor="start" x="56.5" y="-494.3" font-family="Helvetica,sans-Serif" font-size="11.00" fill="#000000">uuid</text>
<polygon fill="none" stroke="#000000" points="36.5,-465.2 36.5,-487.2 190.5,-487.2 190.5,-465.2 36.5,-465.2"/>
<text text-anchor="start" x="56.5" y="-472.3" font-family="Helvetica,sans-Serif" font-size="11.00" fill="#000000">luotu</text>
<polygon fill="none" stroke="#000000" points="36.5,-443.2 36.5,-465.2 190.5,-465.2 190.5,-443.2 36.5,-443.2"/>
<text text-anchor="start" x="56.5" y="-450.3" font-family="Helvetica,sans-Serif" font-size="11.00" fill="#000000">oppija_oid</text>
<polygon fill="none" stroke="#000000" points="36.5,-421.2 36.5,-443.2 190.5,-443.2 190.5,-421.2 36.5,-421.2"/>
<text text-anchor="start" x="56.5" y="-428.3" font-family="Helvetica,sans-Serif" font-size="11.00" fill="#000000">kunta_oid</text>
<polygon fill="none" stroke="#000000" points="36.5,-399.2 36.5,-421.2 190.5,-421.2 190.5,-399.2 36.5,-399.2"/>
<text text-anchor="start" x="56.5" y="-406.3" font-family="Helvetica,sans-Serif" font-size="11.00" fill="#000000">tekijä_organisaatio_oid</text>
<polygon fill="none" stroke="#000000" points="36.5,-377.2 36.5,-399.2 190.5,-399.2 190.5,-377.2 36.5,-377.2"/>
<text text-anchor="start" x="56.5" y="-384.3" font-family="Helvetica,sans-Serif" font-size="11.00" fill="#000000">tekijä_oid</text>
<polygon fill="#ffffff" stroke="transparent" points="36.5,-358.2 36.5,-377.2 89.5,-377.2 89.5,-358.2 36.5,-358.2"/>
<polygon fill="none" stroke="#000000" points="36.5,-358.2 36.5,-377.2 89.5,-377.2 89.5,-358.2 36.5,-358.2"/>
<text text-anchor="start" x="39.5" y="-364.3" font-family="Helvetica,sans-Serif" font-size="11.00" fill="#000000"> &#160;</text>
<polygon fill="#ffffff" stroke="transparent" points="89.5,-358.2 89.5,-377.2 148.5,-377.2 148.5,-358.2 89.5,-358.2"/>
<polygon fill="none" stroke="#000000" points="89.5,-358.2 89.5,-377.2 148.5,-377.2 148.5,-358.2 89.5,-358.2"/>
<text text-anchor="start" x="113.1105" y="-364.3" font-family="Helvetica,sans-Serif" font-size="11.00" fill="#000000">0 rows</text>
<polygon fill="#ffffff" stroke="transparent" points="148.5,-358.2 148.5,-377.2 190.5,-377.2 190.5,-358.2 148.5,-358.2"/>
<polygon fill="none" stroke="#000000" points="148.5,-358.2 148.5,-377.2 190.5,-377.2 190.5,-358.2 148.5,-358.2"/>
<text text-anchor="start" x="171.9053" y="-364.3" font-family="Helvetica,sans-Serif" font-size="11.00" fill="#000000">2 &gt;</text>
</a>
</g>
</g>
<!-- ilmoitus_opiskeluoikeus_konteksti&#45;&gt;ilmoitus -->
<g id="edge2" class="edge">
<title>ilmoitus_opiskeluoikeus_konteksti:w&#45;&gt;ilmoitus:e</title>
<path fill="none" stroke="#000000" d="M263.0303,-533.514C234.0688,-526.2758 227.1018,-498.2 190.5,-498.2"/>
<polygon fill="#000000" stroke="#000000" points="269.5538,-534.2741 277.0833,-538.7758 273.5269,-534.737 277.5,-535.2 277.5,-535.2 277.5,-535.2 273.5269,-534.737 277.9167,-531.6242 269.5538,-534.2741 269.5538,-534.2741"/>
<ellipse fill="none" stroke="#000000" cx="266.3753" cy="-533.9037" rx="3.2" ry="3.2"/>
</g>
<!-- ilmoitus_lisätiedot -->
<g id="node3" class="node">
<title>ilmoitus_lisätiedot</title>
<g id="a_node3"><a xlink:href="../../tables/ilmoitus_lis_tiedot_cc362998.html" xlink:title="ilmoitus_lisätiedot" target="_top">
<polygon fill="#ffffff" stroke="transparent" points="323.5,-376.2 323.5,-462.2 467.5,-462.2 467.5,-376.2 323.5,-376.2"/>
<polygon fill="#f5f5f5" stroke="transparent" points="323.5,-439.2 323.5,-462.2 467.5,-462.2 467.5,-439.2 323.5,-439.2"/>
<polygon fill="none" stroke="#000000" points="323.5,-439.2 323.5,-462.2 467.5,-462.2 467.5,-439.2 323.5,-439.2"/>
<text text-anchor="start" x="328.5" y="-447.8" font-family="Helvetica,sans-Serif" font-weight="bold" font-size="11.00" fill="#000000">ilmoitus_lisätiedot</text>
<text text-anchor="start" x="433.0219" y="-447.3" font-family="Helvetica,sans-Serif" font-size="11.00" fill="#000000">[table]</text>
<polygon fill="none" stroke="#000000" points="323.5,-417.2 323.5,-439.2 467.5,-439.2 467.5,-417.2 323.5,-417.2"/>
<image xlink:href="../../images/primaryKeys.png" width="11px" height="12px" preserveAspectRatio="xMinYMin meet" x="328.5" y="-434.2"/>
<text text-anchor="start" x="352.5" y="-424.3" font-family="Helvetica,sans-Serif" font-size="11.00" fill="#000000">ilmoitus_uuid</text>
<polygon fill="none" stroke="#000000" points="323.5,-395.2 323.5,-417.2 467.5,-417.2 467.5,-395.2 323.5,-395.2"/>
<text text-anchor="start" x="352.5" y="-402.3" font-family="Helvetica,sans-Serif" font-size="11.00" fill="#000000">data</text>
<polygon fill="#ffffff" stroke="transparent" points="323.5,-376.2 323.5,-395.2 380.5,-395.2 380.5,-376.2 323.5,-376.2"/>
<polygon fill="none" stroke="#000000" points="323.5,-376.2 323.5,-395.2 380.5,-395.2 380.5,-376.2 323.5,-376.2"/>
<text text-anchor="start" x="326.5" y="-382.3" font-family="Helvetica,sans-Serif" font-size="11.00" fill="#000000">&lt; 1</text>
<polygon fill="#ffffff" stroke="transparent" points="380.5,-376.2 380.5,-395.2 436.5,-395.2 436.5,-376.2 380.5,-376.2"/>
<polygon fill="none" stroke="#000000" points="380.5,-376.2 380.5,-395.2 436.5,-395.2 436.5,-376.2 380.5,-376.2"/>
<text text-anchor="start" x="401.1105" y="-382.3" font-family="Helvetica,sans-Serif" font-size="11.00" fill="#000000">0 rows</text>
<polygon fill="#ffffff" stroke="transparent" points="436.5,-376.2 436.5,-395.2 467.5,-395.2 467.5,-376.2 436.5,-376.2"/>
<polygon fill="none" stroke="#000000" points="436.5,-376.2 436.5,-395.2 467.5,-395.2 467.5,-376.2 436.5,-376.2"/>
<text text-anchor="start" x="458.3862" y="-382.3" font-family="Helvetica,sans-Serif" font-size="11.00" fill="#000000"> &#160;</text>
</a>
</g>
</g>
<!-- ilmoitus_lisätiedot&#45;&gt;ilmoitus -->
<g id="edge1" class="edge">
<title>ilmoitus_lisätiedot:w&#45;&gt;ilmoitus:e</title>
<path fill="none" stroke="#000000" d="M312.7736,-428.8483C256.553,-435.9051 253.5149,-498.2 190.5,-498.2"/>
<polygon fill="#000000" stroke="#000000" points="322.4601,-424.2556 322.9428,-432.241 321.3457,-432.3375 320.863,-424.3521 322.4601,-424.2556"/>
<polyline fill="none" stroke="#000000" points="323.5,-428.2 319.5073,-428.4413 "/>
<ellipse fill="none" stroke="#000000" cx="316.3131" cy="-428.6344" rx="3.2" ry="3.2"/>
</g>
<!-- oppivelvollisuuden_keskeytyshistoria -->
<g id="node5" class="node">
<title>oppivelvollisuuden_keskeytyshistoria</title>
<g id="a_node5"><a xlink:href="../../tables/oppivelvollisuuden_keskeytyshistoria.html" xlink:title="oppivelvollisuuden_keskeytyshistoria" target="_top">
<polygon fill="#ffffff" stroke="transparent" points="268,-38.2 268,-322.2 523,-322.2 523,-38.2 268,-38.2"/>
<polygon fill="#f5f5f5" stroke="transparent" points="268.5,-299.2 268.5,-322.2 523.5,-322.2 523.5,-299.2 268.5,-299.2"/>
<polygon fill="none" stroke="#000000" points="268.5,-299.2 268.5,-322.2 523.5,-322.2 523.5,-299.2 268.5,-299.2"/>
<text text-anchor="start" x="273.5" y="-307.8" font-family="Helvetica,sans-Serif" font-weight="bold" font-size="11.00" fill="#000000">oppivelvollisuuden_keskeytyshistoria</text>
<text text-anchor="start" x="489.0219" y="-307.3" font-family="Helvetica,sans-Serif" font-size="11.00" fill="#000000">[table]</text>
<polygon fill="none" stroke="#000000" points="268.5,-277.2 268.5,-299.2 523.5,-299.2 523.5,-277.2 268.5,-277.2"/>
<image xlink:href="../../images/primaryKeys.png" width="11px" height="12px" preserveAspectRatio="xMinYMin meet" x="273.5" y="-294.2"/>
<text text-anchor="start" x="297.5" y="-284.3" font-family="Helvetica,sans-Serif" font-size="11.00" fill="#000000">id</text>
<polygon fill="none" stroke="#000000" points="268.5,-255.2 268.5,-277.2 523.5,-277.2 523.5,-255.2 268.5,-255.2"/>
<image xlink:href="../../images/foreignKeys.png" width="11px" height="12px" preserveAspectRatio="xMinYMin meet" x="273.5" y="-272.2"/>
<text text-anchor="start" x="297.5" y="-262.3" font-family="Helvetica,sans-Serif" font-size="11.00" fill="#000000">ov_keskeytys_uuid</text>
<polygon fill="none" stroke="#000000" points="268.5,-233.2 268.5,-255.2 523.5,-255.2 523.5,-233.2 268.5,-233.2"/>
<text text-anchor="start" x="297.5" y="-240.3" font-family="Helvetica,sans-Serif" font-size="11.00" fill="#000000">muutos_tehty</text>
<polygon fill="none" stroke="#000000" points="268.5,-211.2 268.5,-233.2 523.5,-233.2 523.5,-211.2 268.5,-211.2"/>
<text text-anchor="start" x="297.5" y="-218.3" font-family="Helvetica,sans-Serif" font-size="11.00" fill="#000000">muutoksen_tekija</text>
<polygon fill="none" stroke="#000000" points="268.5,-189.2 268.5,-211.2 523.5,-211.2 523.5,-189.2 268.5,-189.2"/>
<text text-anchor="start" x="297.5" y="-196.3" font-family="Helvetica,sans-Serif" font-size="11.00" fill="#000000">oppija_oid</text>
<polygon fill="none" stroke="#000000" points="268.5,-167.2 268.5,-189.2 523.5,-189.2 523.5,-167.2 268.5,-167.2"/>
<text text-anchor="start" x="297.5" y="-174.3" font-family="Helvetica,sans-Serif" font-size="11.00" fill="#000000">alku</text>
<polygon fill="none" stroke="#000000" points="268.5,-145.2 268.5,-167.2 523.5,-167.2 523.5,-145.2 268.5,-145.2"/>
<text text-anchor="start" x="297.5" y="-152.3" font-family="Helvetica,sans-Serif" font-size="11.00" fill="#000000">loppu</text>
<polygon fill="none" stroke="#000000" points="268.5,-123.2 268.5,-145.2 523.5,-145.2 523.5,-123.2 268.5,-123.2"/>
<text text-anchor="start" x="297.5" y="-130.3" font-family="Helvetica,sans-Serif" font-size="11.00" fill="#000000">luotu</text>
<polygon fill="none" stroke="#000000" points="268.5,-101.2 268.5,-123.2 523.5,-123.2 523.5,-101.2 268.5,-101.2"/>
<text text-anchor="start" x="297.5" y="-108.3" font-family="Helvetica,sans-Serif" font-size="11.00" fill="#000000">tekijä_oid</text>
<polygon fill="none" stroke="#000000" points="268.5,-79.2 268.5,-101.2 523.5,-101.2 523.5,-79.2 268.5,-79.2"/>
<text text-anchor="start" x="297.5" y="-86.3" font-family="Helvetica,sans-Serif" font-size="11.00" fill="#000000">tekijä_organisaatio_oid</text>
<polygon fill="none" stroke="#000000" points="268.5,-57.2 268.5,-79.2 523.5,-79.2 523.5,-57.2 268.5,-57.2"/>
<text text-anchor="start" x="297.5" y="-64.3" font-family="Helvetica,sans-Serif" font-size="11.00" fill="#000000">peruttu</text>
<polygon fill="#ffffff" stroke="transparent" points="268.5,-38.2 268.5,-57.2 381.5,-57.2 381.5,-38.2 268.5,-38.2"/>
<polygon fill="none" stroke="#000000" points="268.5,-38.2 268.5,-57.2 381.5,-57.2 381.5,-38.2 268.5,-38.2"/>
<text text-anchor="start" x="271.5" y="-44.3" font-family="Helvetica,sans-Serif" font-size="11.00" fill="#000000">&lt; 1</text>
<polygon fill="#ffffff" stroke="transparent" points="381.5,-38.2 381.5,-57.2 465.5,-57.2 465.5,-38.2 381.5,-38.2"/>
<polygon fill="none" stroke="#000000" points="381.5,-38.2 381.5,-57.2 465.5,-57.2 465.5,-38.2 381.5,-38.2"/>
<text text-anchor="start" x="430.1105" y="-44.3" font-family="Helvetica,sans-Serif" font-size="11.00" fill="#000000">0 rows</text>
<polygon fill="#ffffff" stroke="transparent" points="465.5,-38.2 465.5,-57.2 523.5,-57.2 523.5,-38.2 465.5,-38.2"/>
<polygon fill="none" stroke="#000000" points="465.5,-38.2 465.5,-57.2 523.5,-57.2 523.5,-38.2 465.5,-38.2"/>
<text text-anchor="start" x="514.3862" y="-44.3" font-family="Helvetica,sans-Serif" font-size="11.00" fill="#000000"> &#160;</text>
</a>
</g>
</g>
<!-- oppivelvollisuuden_keskeytyshistoria&#45;&gt;oppivelvollisuuden_keskeytys -->
<g id="edge3" class="edge">
<title>oppivelvollisuuden_keskeytyshistoria:w&#45;&gt;oppivelvollisuuden_keskeytys:e</title>
<path fill="none" stroke="#000000" d="M253.9909,-266.2C242.6774,-266.2 235.4931,-266.2 219.5,-266.2"/>
<polygon fill="#000000" stroke="#000000" points="260.5,-266.2001 268.5,-269.8 264.5,-266.2 268.5,-266.2 268.5,-266.2 268.5,-266.2 264.5,-266.2 268.5,-262.6 260.5,-266.2001 260.5,-266.2001"/>
<ellipse fill="none" stroke="#000000" cx="257.3" cy="-266.2001" rx="3.2" ry="3.2"/>
</g>
</g>
</svg>
