<?xml version="1.0" encoding="UTF-8" standalone="no"?>
<!DOCTYPE svg PUBLIC "-//W3C//DTD SVG 1.1//EN"
 "http://www.w3.org/Graphics/SVG/1.1/DTD/svg11.dtd">
<!-- Generated by graphviz version 2.40.1 (20161225.0304)
 -->
<!-- Title: compactRelationshipsDiagram Pages: 1 -->
<svg width="553pt" height="367pt"
 viewBox="0.00 0.00 553.00 366.70" xmlns="http://www.w3.org/2000/svg" xmlns:xlink="http://www.w3.org/1999/xlink">
<g id="graph0" class="graph" transform="scale(1 1) rotate(0) translate(4 362.7)">
<title>compactRelationshipsDiagram</title>
<polygon fill="#ffffff" stroke="transparent" points="-4,4 -4,-362.7 549,-362.7 549,4 -4,4"/>
<text text-anchor="middle" x="72.4936" y="-7.3" font-family="Helvetica,sans-Serif" font-size="11.00" fill="#000000">Generated by SchemaSpy</text>
<!-- oppivelvollisuuden_keskeytys -->
<g id="node1" class="node">
<title>oppivelvollisuuden_keskeytys</title>
<g id="a_node1"><a xlink:href="../../tables/oppivelvollisuuden_keskeytys.html" xlink:title="oppivelvollisuuden_keskeytys" target="_top">
<polygon fill="#ffffff" stroke="transparent" points="8,-38.2 8,-121.2 225,-121.2 225,-38.2 8,-38.2"/>
<polygon fill="#f5f5f5" stroke="transparent" points="8.5,-97.7 8.5,-120.7 225.5,-120.7 225.5,-97.7 8.5,-97.7"/>
<polygon fill="none" stroke="#000000" points="8.5,-97.7 8.5,-120.7 225.5,-120.7 225.5,-97.7 8.5,-97.7"/>
<text text-anchor="start" x="13.5" y="-106.3" font-family="Helvetica,sans-Serif" font-weight="bold" font-size="11.00" fill="#000000">oppivelvollisuuden_keskeytys</text>
<text text-anchor="start" x="191.0219" y="-105.8" font-family="Helvetica,sans-Serif" font-size="11.00" fill="#000000">[table]</text>
<polygon fill="none" stroke="#000000" points="8.5,-75.7 8.5,-97.7 225.5,-97.7 225.5,-75.7 8.5,-75.7"/>
<image xlink:href="../../images/primaryKeys.png" width="11px" height="12px" preserveAspectRatio="xMinYMin meet" x="13.5" y="-92.7"/>
<text text-anchor="start" x="37.5" y="-82.8" font-family="Helvetica,sans-Serif" font-size="11.00" fill="#000000">uuid</text>
<polygon fill="none" stroke="#000000" points="8.5,-56.7 8.5,-75.7 225.5,-75.7 225.5,-56.7 8.5,-56.7"/>
<text text-anchor="start" x="11.5" y="-62.8" font-family="Helvetica,sans-Serif" font-size="11.00" fill="#000000">...</text>
<polygon fill="#ffffff" stroke="transparent" points="8.5,-37.7 8.5,-56.7 93.5,-56.7 93.5,-37.7 8.5,-37.7"/>
<polygon fill="none" stroke="#000000" points="8.5,-37.7 8.5,-56.7 93.5,-56.7 93.5,-37.7 8.5,-37.7"/>
<text text-anchor="start" x="11.5" y="-43.8" font-family="Helvetica,sans-Serif" font-size="11.00" fill="#000000"> &#160;</text>
<polygon fill="#ffffff" stroke="transparent" points="93.5,-37.7 93.5,-56.7 167.5,-56.7 167.5,-37.7 93.5,-37.7"/>
<polygon fill="none" stroke="#000000" points="93.5,-37.7 93.5,-56.7 167.5,-56.7 167.5,-37.7 93.5,-37.7"/>
<text text-anchor="start" x="132.1105" y="-43.8" font-family="Helvetica,sans-Serif" font-size="11.00" fill="#000000">8 rows</text>
<polygon fill="#ffffff" stroke="transparent" points="167.5,-37.7 167.5,-56.7 225.5,-56.7 225.5,-37.7 167.5,-37.7"/>
<polygon fill="none" stroke="#000000" points="167.5,-37.7 167.5,-56.7 225.5,-56.7 225.5,-37.7 167.5,-37.7"/>
<text text-anchor="start" x="206.9053" y="-43.8" font-family="Helvetica,sans-Serif" font-size="11.00" fill="#000000">1 &gt;</text>
</a>
</g>
</g>
<!-- ilmoitus_opiskeluoikeus_konteksti -->
<g id="node2" class="node">
<title>ilmoitus_opiskeluoikeus_konteksti</title>
<g id="a_node2"><a xlink:href="../../tables/ilmoitus_opiskeluoikeus_konteksti.html" xlink:title="ilmoitus_opiskeluoikeus_konteksti" target="_top">
<polygon fill="#ffffff" stroke="transparent" points="283,-268.7 283,-354.7 528,-354.7 528,-268.7 283,-268.7"/>
<polygon fill="#f5f5f5" stroke="transparent" points="283.5,-331.7 283.5,-354.7 528.5,-354.7 528.5,-331.7 283.5,-331.7"/>
<polygon fill="none" stroke="#000000" points="283.5,-331.7 283.5,-354.7 528.5,-354.7 528.5,-331.7 283.5,-331.7"/>
<text text-anchor="start" x="288.5" y="-340.3" font-family="Helvetica,sans-Serif" font-weight="bold" font-size="11.00" fill="#000000">ilmoitus_opiskeluoikeus_konteksti</text>
<text text-anchor="start" x="494.0219" y="-339.8" font-family="Helvetica,sans-Serif" font-size="11.00" fill="#000000">[table]</text>
<polygon fill="none" stroke="#000000" points="283.5,-309.7 283.5,-331.7 528.5,-331.7 528.5,-309.7 283.5,-309.7"/>
<image xlink:href="../../images/primaryKeys.png" width="11px" height="12px" preserveAspectRatio="xMinYMin meet" x="288.5" y="-326.7"/>
<text text-anchor="start" x="312.5" y="-316.8" font-family="Helvetica,sans-Serif" font-size="11.00" fill="#000000">ilmoitus_uuid</text>
<polygon fill="none" stroke="#000000" points="283.5,-287.7 283.5,-309.7 528.5,-309.7 528.5,-287.7 283.5,-287.7"/>
<image xlink:href="../../images/primaryKeys.png" width="11px" height="12px" preserveAspectRatio="xMinYMin meet" x="288.5" y="-304.7"/>
<text text-anchor="start" x="312.5" y="-294.8" font-family="Helvetica,sans-Serif" font-size="11.00" fill="#000000">opiskeluoikeus_oid</text>
<polygon fill="#ffffff" stroke="transparent" points="283.5,-268.7 283.5,-287.7 391.5,-287.7 391.5,-268.7 283.5,-268.7"/>
<polygon fill="none" stroke="#000000" points="283.5,-268.7 283.5,-287.7 391.5,-287.7 391.5,-268.7 283.5,-268.7"/>
<text text-anchor="start" x="286.5" y="-274.8" font-family="Helvetica,sans-Serif" font-size="11.00" fill="#000000">&lt; 1</text>
<polygon fill="#ffffff" stroke="transparent" points="391.5,-268.7 391.5,-287.7 472.5,-287.7 472.5,-268.7 391.5,-268.7"/>
<polygon fill="none" stroke="#000000" points="391.5,-268.7 391.5,-287.7 472.5,-287.7 472.5,-268.7 391.5,-268.7"/>
<text text-anchor="start" x="437.1105" y="-274.8" font-family="Helvetica,sans-Serif" font-size="11.00" fill="#000000">0 rows</text>
<polygon fill="#ffffff" stroke="transparent" points="472.5,-268.7 472.5,-287.7 528.5,-287.7 528.5,-268.7 472.5,-268.7"/>
<polygon fill="none" stroke="#000000" points="472.5,-268.7 472.5,-287.7 528.5,-287.7 528.5,-268.7 472.5,-268.7"/>
<text text-anchor="start" x="519.3862" y="-274.8" font-family="Helvetica,sans-Serif" font-size="11.00" fill="#000000"> &#160;</text>
</a>
</g>
</g>
<!-- ilmoitus -->
<g id="node4" class="node">
<title>ilmoitus</title>
<g id="a_node4"><a xlink:href="../../tables/ilmoitus.html" xlink:title="ilmoitus" target="_top">
<polygon fill="#ffffff" stroke="transparent" points="37,-218.2 37,-301.2 196,-301.2 196,-218.2 37,-218.2"/>
<polygon fill="#f5f5f5" stroke="transparent" points="37.5,-277.7 37.5,-300.7 196.5,-300.7 196.5,-277.7 37.5,-277.7"/>
<polygon fill="none" stroke="#000000" points="37.5,-277.7 37.5,-300.7 196.5,-300.7 196.5,-277.7 37.5,-277.7"/>
<text text-anchor="start" x="42.5" y="-286.3" font-family="Helvetica,sans-Serif" font-weight="bold" font-size="11.00" fill="#000000">ilmoitus</text>
<text text-anchor="start" x="161.5437" y="-285.8" font-family="Helvetica,sans-Serif" font-size="11.00" fill="#000000">[table]</text>
<polygon fill="none" stroke="#000000" points="37.5,-255.7 37.5,-277.7 196.5,-277.7 196.5,-255.7 37.5,-255.7"/>
<image xlink:href="../../images/primaryKeys.png" width="11px" height="12px" preserveAspectRatio="xMinYMin meet" x="42.5" y="-272.7"/>
<text text-anchor="start" x="57.5" y="-262.8" font-family="Helvetica,sans-Serif" font-size="11.00" fill="#000000">uuid</text>
<polygon fill="none" stroke="#000000" points="37.5,-236.7 37.5,-255.7 196.5,-255.7 196.5,-236.7 37.5,-236.7"/>
<text text-anchor="start" x="40.5" y="-242.8" font-family="Helvetica,sans-Serif" font-size="11.00" fill="#000000">...</text>
<polygon fill="#ffffff" stroke="transparent" points="37.5,-217.7 37.5,-236.7 90.5,-236.7 90.5,-217.7 37.5,-217.7"/>
<polygon fill="none" stroke="#000000" points="37.5,-217.7 37.5,-236.7 90.5,-236.7 90.5,-217.7 37.5,-217.7"/>
<text text-anchor="start" x="40.5" y="-223.8" font-family="Helvetica,sans-Serif" font-size="11.00" fill="#000000"> &#160;</text>
<polygon fill="#ffffff" stroke="transparent" points="90.5,-217.7 90.5,-236.7 154.5,-236.7 154.5,-217.7 90.5,-217.7"/>
<polygon fill="none" stroke="#000000" points="90.5,-217.7 90.5,-236.7 154.5,-236.7 154.5,-217.7 90.5,-217.7"/>
<text text-anchor="start" x="112.9956" y="-223.8" font-family="Helvetica,sans-Serif" font-size="11.00" fill="#000000">18 rows</text>
<polygon fill="#ffffff" stroke="transparent" points="154.5,-217.7 154.5,-236.7 196.5,-236.7 196.5,-217.7 154.5,-217.7"/>
<polygon fill="none" stroke="#000000" points="154.5,-217.7 154.5,-236.7 196.5,-236.7 196.5,-217.7 154.5,-217.7"/>
<text text-anchor="start" x="177.9053" y="-223.8" font-family="Helvetica,sans-Serif" font-size="11.00" fill="#000000">2 &gt;</text>
</a>
</g>
</g>
<!-- ilmoitus_opiskeluoikeus_konteksti&#45;&gt;ilmoitus -->
<g id="edge2" class="edge">
<title>ilmoitus_opiskeluoikeus_konteksti:w&#45;&gt;ilmoitus:e</title>
<path fill="none" stroke="#000000" d="M268.9702,-318.5163C238.2376,-308.4137 236.4986,-266.7 196.5,-266.7"/>
<polygon fill="#000000" stroke="#000000" points="275.5889,-319.511 282.9649,-324.26 279.5444,-320.1055 283.5,-320.7 283.5,-320.7 283.5,-320.7 279.5444,-320.1055 284.0351,-317.14 275.5889,-319.511 275.5889,-319.511"/>
<ellipse fill="none" stroke="#000000" cx="272.4244" cy="-319.0353" rx="3.2" ry="3.2"/>
</g>
<!-- ilmoitus_lisätiedot -->
<g id="node3" class="node">
<title>ilmoitus_lisätiedot</title>
<g id="a_node3"><a xlink:href="../../tables/ilmoitus_lis_tiedot_cc362998.html" xlink:title="ilmoitus_lisätiedot" target="_top">
<polygon fill="#ffffff" stroke="transparent" points="331,-164.2 331,-247.2 480,-247.2 480,-164.2 331,-164.2"/>
<polygon fill="#f5f5f5" stroke="transparent" points="331.5,-223.7 331.5,-246.7 480.5,-246.7 480.5,-223.7 331.5,-223.7"/>
<polygon fill="none" stroke="#000000" points="331.5,-223.7 331.5,-246.7 480.5,-246.7 480.5,-223.7 331.5,-223.7"/>
<text text-anchor="start" x="336.5" y="-232.3" font-family="Helvetica,sans-Serif" font-weight="bold" font-size="11.00" fill="#000000">ilmoitus_lisätiedot</text>
<text text-anchor="start" x="446.0219" y="-231.8" font-family="Helvetica,sans-Serif" font-size="11.00" fill="#000000">[table]</text>
<polygon fill="none" stroke="#000000" points="331.5,-201.7 331.5,-223.7 480.5,-223.7 480.5,-201.7 331.5,-201.7"/>
<image xlink:href="../../images/primaryKeys.png" width="11px" height="12px" preserveAspectRatio="xMinYMin meet" x="336.5" y="-218.7"/>
<text text-anchor="start" x="360.5" y="-208.8" font-family="Helvetica,sans-Serif" font-size="11.00" fill="#000000">ilmoitus_uuid</text>
<polygon fill="none" stroke="#000000" points="331.5,-182.7 331.5,-201.7 480.5,-201.7 480.5,-182.7 331.5,-182.7"/>
<text text-anchor="start" x="334.5" y="-188.8" font-family="Helvetica,sans-Serif" font-size="11.00" fill="#000000">...</text>
<polygon fill="#ffffff" stroke="transparent" points="331.5,-163.7 331.5,-182.7 388.5,-182.7 388.5,-163.7 331.5,-163.7"/>
<polygon fill="none" stroke="#000000" points="331.5,-163.7 331.5,-182.7 388.5,-182.7 388.5,-163.7 331.5,-163.7"/>
<text text-anchor="start" x="334.5" y="-169.8" font-family="Helvetica,sans-Serif" font-size="11.00" fill="#000000">&lt; 1</text>
<polygon fill="#ffffff" stroke="transparent" points="388.5,-163.7 388.5,-182.7 450.5,-182.7 450.5,-163.7 388.5,-163.7"/>
<polygon fill="none" stroke="#000000" points="388.5,-163.7 388.5,-182.7 450.5,-182.7 450.5,-163.7 388.5,-163.7"/>
<text text-anchor="start" x="408.9956" y="-169.8" font-family="Helvetica,sans-Serif" font-size="11.00" fill="#000000">17 rows</text>
<polygon fill="#ffffff" stroke="transparent" points="450.5,-163.7 450.5,-182.7 480.5,-182.7 480.5,-163.7 450.5,-163.7"/>
<polygon fill="none" stroke="#000000" points="450.5,-163.7 450.5,-182.7 480.5,-182.7 480.5,-163.7 450.5,-163.7"/>
<text text-anchor="start" x="471.3862" y="-169.8" font-family="Helvetica,sans-Serif" font-size="11.00" fill="#000000"> &#160;</text>
</a>
</g>
</g>
<!-- ilmoitus_lisätiedot&#45;&gt;ilmoitus -->
<g id="edge1" class="edge">
<title>ilmoitus_lisätiedot:w&#45;&gt;ilmoitus:e</title>
<path fill="none" stroke="#000000" d="M321.0645,-213.2001C266.0371,-218.6439 257.4617,-266.7 196.5,-266.7"/>
<polygon fill="#000000" stroke="#000000" points="330.5094,-208.7429 330.8924,-216.7337 329.2943,-216.8103 328.9112,-208.8195 330.5094,-208.7429"/>
<polyline fill="none" stroke="#000000" points="331.5,-212.7 327.5046,-212.8915 "/>
<ellipse fill="none" stroke="#000000" cx="324.3083" cy="-213.0447" rx="3.2" ry="3.2"/>
</g>
<!-- oppivelvollisuuden_keskeytyshistoria -->
<g id="node5" class="node">
<title>oppivelvollisuuden_keskeytyshistoria</title>
<g id="a_node5"><a xlink:href="../../tables/oppivelvollisuuden_keskeytyshistoria.html" xlink:title="oppivelvollisuuden_keskeytyshistoria" target="_top">
<polygon fill="#ffffff" stroke="transparent" points="274,-38.2 274,-143.2 537,-143.2 537,-38.2 274,-38.2"/>
<polygon fill="#f5f5f5" stroke="transparent" points="274.5,-119.7 274.5,-142.7 537.5,-142.7 537.5,-119.7 274.5,-119.7"/>
<polygon fill="none" stroke="#000000" points="274.5,-119.7 274.5,-142.7 537.5,-142.7 537.5,-119.7 274.5,-119.7"/>
<text text-anchor="start" x="279.5" y="-128.3" font-family="Helvetica,sans-Serif" font-weight="bold" font-size="11.00" fill="#000000">oppivelvollisuuden_keskeytyshistoria</text>
<text text-anchor="start" x="503.0219" y="-127.8" font-family="Helvetica,sans-Serif" font-size="11.00" fill="#000000">[table]</text>
<polygon fill="none" stroke="#000000" points="274.5,-97.7 274.5,-119.7 537.5,-119.7 537.5,-97.7 274.5,-97.7"/>
<image xlink:href="../../images/primaryKeys.png" width="11px" height="12px" preserveAspectRatio="xMinYMin meet" x="279.5" y="-114.7"/>
<text text-anchor="start" x="303.5" y="-104.8" font-family="Helvetica,sans-Serif" font-size="11.00" fill="#000000">id</text>
<polygon fill="none" stroke="#000000" points="274.5,-75.7 274.5,-97.7 537.5,-97.7 537.5,-75.7 274.5,-75.7"/>
<image xlink:href="../../images/foreignKeys.png" width="11px" height="12px" preserveAspectRatio="xMinYMin meet" x="279.5" y="-92.7"/>
<text text-anchor="start" x="303.5" y="-82.8" font-family="Helvetica,sans-Serif" font-size="11.00" fill="#000000">ov_keskeytys_uuid</text>
<polygon fill="none" stroke="#000000" points="274.5,-56.7 274.5,-75.7 537.5,-75.7 537.5,-56.7 274.5,-56.7"/>
<text text-anchor="start" x="277.5" y="-62.8" font-family="Helvetica,sans-Serif" font-size="11.00" fill="#000000">...</text>
<polygon fill="#ffffff" stroke="transparent" points="274.5,-37.7 274.5,-56.7 404.5,-56.7 404.5,-37.7 274.5,-37.7"/>
<polygon fill="none" stroke="#000000" points="274.5,-37.7 274.5,-56.7 404.5,-56.7 404.5,-37.7 274.5,-37.7"/>
<text text-anchor="start" x="277.5" y="-43.8" font-family="Helvetica,sans-Serif" font-size="11.00" fill="#000000">&lt; 1</text>
<polygon fill="#ffffff" stroke="transparent" points="404.5,-37.7 404.5,-56.7 470.5,-56.7 470.5,-37.7 404.5,-37.7"/>
<polygon fill="none" stroke="#000000" points="404.5,-37.7 404.5,-56.7 470.5,-56.7 470.5,-37.7 404.5,-37.7"/>
<text text-anchor="start" x="461.3862" y="-43.8" font-family="Helvetica,sans-Serif" font-size="11.00" fill="#000000"> &#160;</text>
<polygon fill="#ffffff" stroke="transparent" points="470.5,-37.7 470.5,-56.7 537.5,-56.7 537.5,-37.7 470.5,-37.7"/>
<polygon fill="none" stroke="#000000" points="470.5,-37.7 470.5,-56.7 537.5,-56.7 537.5,-37.7 470.5,-37.7"/>
<text text-anchor="start" x="528.3862" y="-43.8" font-family="Helvetica,sans-Serif" font-size="11.00" fill="#000000"> &#160;</text>
</a>
</g>
</g>
<!-- oppivelvollisuuden_keskeytyshistoria&#45;&gt;oppivelvollisuuden_keskeytys -->
<g id="edge3" class="edge">
<title>oppivelvollisuuden_keskeytyshistoria:w&#45;&gt;oppivelvollisuuden_keskeytys:e</title>
<path fill="none" stroke="#000000" d="M259.9909,-86.7C248.6774,-86.7 241.4931,-86.7 225.5,-86.7"/>
<polygon fill="#000000" stroke="#000000" points="266.5,-86.7001 274.5,-90.3 270.5,-86.7 274.5,-86.7 274.5,-86.7 274.5,-86.7 270.5,-86.7 274.5,-83.1 266.5,-86.7001 266.5,-86.7001"/>
<ellipse fill="none" stroke="#000000" cx="263.3" cy="-86.7001" rx="3.2" ry="3.2"/>
</g>
</g>
</svg>
