<?xml version="1.0" encoding="UTF-8" standalone="no"?>
<!DOCTYPE svg PUBLIC "-//W3C//DTD SVG 1.1//EN"
 "http://www.w3.org/Graphics/SVG/1.1/DTD/svg11.dtd">
<!-- Generated by graphviz version 2.40.1 (20161225.0304)
 -->
<!-- Title: compactRelationshipsDiagram Pages: 1 -->
<svg width="605pt" height="367pt"
 viewBox="0.00 0.00 605.00 366.70" xmlns="http://www.w3.org/2000/svg" xmlns:xlink="http://www.w3.org/1999/xlink">
<g id="graph0" class="graph" transform="scale(1 1) rotate(0) translate(4 362.7)">
<title>compactRelationshipsDiagram</title>
<polygon fill="#ffffff" stroke="transparent" points="-4,4 -4,-362.7 601,-362.7 601,4 -4,4"/>
<text text-anchor="middle" x="72.4936" y="-7.3" font-family="Helvetica,sans-Serif" font-size="11.00" fill="#000000">Generated by SchemaSpy</text>
<!-- oppivelvollisuuden_keskeytys -->
<g id="node1" class="node">
<title>oppivelvollisuuden_keskeytys</title>
<g id="a_node1"><a xlink:href="../../tables/oppivelvollisuuden_keskeytys.html" xlink:title="oppivelvollisuuden_keskeytys" target="_top">
<polygon fill="#ffffff" stroke="transparent" points="8,-38.2 8,-121.2 248,-121.2 248,-38.2 8,-38.2"/>
<polygon fill="#f5f5f5" stroke="transparent" points="8,-97.7 8,-120.7 248,-120.7 248,-97.7 8,-97.7"/>
<polygon fill="none" stroke="#000000" points="8,-97.7 8,-120.7 248,-120.7 248,-97.7 8,-97.7"/>
<text text-anchor="start" x="13" y="-106.3" font-family="Helvetica,sans-Serif" font-weight="bold" font-size="11.00" fill="#000000">oppivelvollisuuden_keskeytys</text>
<text text-anchor="start" x="213.5219" y="-105.8" font-family="Helvetica,sans-Serif" font-size="11.00" fill="#000000">[table]</text>
<polygon fill="none" stroke="#000000" points="8,-75.7 8,-97.7 248,-97.7 248,-75.7 8,-75.7"/>
<image xlink:href="../../images/primaryKeys.png" width="11px" height="12px" preserveAspectRatio="xMinYMin meet" x="13" y="-92.7"/>
<text text-anchor="start" x="37" y="-82.8" font-family="Helvetica,sans-Serif" font-size="11.00" fill="#000000">uuid</text>
<polygon fill="none" stroke="#000000" points="8,-56.7 8,-75.7 248,-75.7 248,-56.7 8,-56.7"/>
<text text-anchor="start" x="11" y="-62.8" font-family="Helvetica,sans-Serif" font-size="11.00" fill="#000000">...</text>
<polygon fill="#ffffff" stroke="transparent" points="8,-37.7 8,-56.7 117,-56.7 117,-37.7 8,-37.7"/>
<polygon fill="none" stroke="#000000" points="8,-37.7 8,-56.7 117,-56.7 117,-37.7 8,-37.7"/>
<text text-anchor="start" x="11" y="-43.8" font-family="Helvetica,sans-Serif" font-size="11.00" fill="#000000"> &#160;</text>
<polygon fill="#ffffff" stroke="transparent" points="117,-37.7 117,-56.7 178,-56.7 178,-37.7 117,-37.7"/>
<polygon fill="none" stroke="#000000" points="117,-37.7 117,-56.7 178,-56.7 178,-37.7 117,-37.7"/>
<text text-anchor="start" x="168.8862" y="-43.8" font-family="Helvetica,sans-Serif" font-size="11.00" fill="#000000"> &#160;</text>
<polygon fill="#ffffff" stroke="transparent" points="178,-37.7 178,-56.7 248,-56.7 248,-37.7 178,-37.7"/>
<polygon fill="none" stroke="#000000" points="178,-37.7 178,-56.7 248,-56.7 248,-37.7 178,-37.7"/>
<text text-anchor="start" x="229.4053" y="-43.8" font-family="Helvetica,sans-Serif" font-size="11.00" fill="#000000">1 &gt;</text>
</a>
</g>
</g>
<!-- ilmoitus_opiskeluoikeus_konteksti -->
<g id="node2" class="node">
<title>ilmoitus_opiskeluoikeus_konteksti</title>
<g id="a_node2"><a xlink:href="../../tables/ilmoitus_opiskeluoikeus_konteksti.html" xlink:title="ilmoitus_opiskeluoikeus_konteksti" target="_top">
<polygon fill="#ffffff" stroke="transparent" points="308,-268.7 308,-354.7 578,-354.7 578,-268.7 308,-268.7"/>
<polygon fill="#f5f5f5" stroke="transparent" points="308,-331.7 308,-354.7 578,-354.7 578,-331.7 308,-331.7"/>
<polygon fill="none" stroke="#000000" points="308,-331.7 308,-354.7 578,-354.7 578,-331.7 308,-331.7"/>
<text text-anchor="start" x="313" y="-340.3" font-family="Helvetica,sans-Serif" font-weight="bold" font-size="11.00" fill="#000000">ilmoitus_opiskeluoikeus_konteksti</text>
<text text-anchor="start" x="543.5219" y="-339.8" font-family="Helvetica,sans-Serif" font-size="11.00" fill="#000000">[table]</text>
<polygon fill="none" stroke="#000000" points="308,-309.7 308,-331.7 578,-331.7 578,-309.7 308,-309.7"/>
<image xlink:href="../../images/primaryKeys.png" width="11px" height="12px" preserveAspectRatio="xMinYMin meet" x="313" y="-326.7"/>
<text text-anchor="start" x="337" y="-316.8" font-family="Helvetica,sans-Serif" font-size="11.00" fill="#000000">ilmoitus_uuid</text>
<polygon fill="none" stroke="#000000" points="308,-287.7 308,-309.7 578,-309.7 578,-287.7 308,-287.7"/>
<image xlink:href="../../images/primaryKeys.png" width="11px" height="12px" preserveAspectRatio="xMinYMin meet" x="313" y="-304.7"/>
<text text-anchor="start" x="337" y="-294.8" font-family="Helvetica,sans-Serif" font-size="11.00" fill="#000000">opiskeluoikeus_oid</text>
<polygon fill="#ffffff" stroke="transparent" points="308,-268.7 308,-287.7 441,-287.7 441,-268.7 308,-268.7"/>
<polygon fill="none" stroke="#000000" points="308,-268.7 308,-287.7 441,-287.7 441,-268.7 308,-268.7"/>
<text text-anchor="start" x="311" y="-274.8" font-family="Helvetica,sans-Serif" font-size="11.00" fill="#000000">&lt; 1</text>
<polygon fill="#ffffff" stroke="transparent" points="441,-268.7 441,-287.7 509,-287.7 509,-268.7 441,-268.7"/>
<polygon fill="none" stroke="#000000" points="441,-268.7 441,-287.7 509,-287.7 509,-268.7 441,-268.7"/>
<text text-anchor="start" x="499.8862" y="-274.8" font-family="Helvetica,sans-Serif" font-size="11.00" fill="#000000"> &#160;</text>
<polygon fill="#ffffff" stroke="transparent" points="509,-268.7 509,-287.7 578,-287.7 578,-268.7 509,-268.7"/>
<polygon fill="none" stroke="#000000" points="509,-268.7 509,-287.7 578,-287.7 578,-268.7 509,-268.7"/>
<text text-anchor="start" x="568.8862" y="-274.8" font-family="Helvetica,sans-Serif" font-size="11.00" fill="#000000"> &#160;</text>
</a>
</g>
</g>
<!-- ilmoitus -->
<g id="node4" class="node">
<title>ilmoitus</title>
<g id="a_node4"><a xlink:href="../../tables/ilmoitus.html" xlink:title="ilmoitus" target="_top">
<polygon fill="#ffffff" stroke="transparent" points="39.5,-218.2 39.5,-301.2 216.5,-301.2 216.5,-218.2 39.5,-218.2"/>
<polygon fill="#f5f5f5" stroke="transparent" points="40,-277.7 40,-300.7 217,-300.7 217,-277.7 40,-277.7"/>
<polygon fill="none" stroke="#000000" points="40,-277.7 40,-300.7 217,-300.7 217,-277.7 40,-277.7"/>
<text text-anchor="start" x="45" y="-286.3" font-family="Helvetica,sans-Serif" font-weight="bold" font-size="11.00" fill="#000000">ilmoitus</text>
<text text-anchor="start" x="182.0437" y="-285.8" font-family="Helvetica,sans-Serif" font-size="11.00" fill="#000000">[table]</text>
<polygon fill="none" stroke="#000000" points="40,-255.7 40,-277.7 217,-277.7 217,-255.7 40,-255.7"/>
<image xlink:href="../../images/primaryKeys.png" width="11px" height="12px" preserveAspectRatio="xMinYMin meet" x="45" y="-272.7"/>
<text text-anchor="start" x="60" y="-262.8" font-family="Helvetica,sans-Serif" font-size="11.00" fill="#000000">uuid</text>
<polygon fill="none" stroke="#000000" points="40,-236.7 40,-255.7 217,-255.7 217,-236.7 40,-236.7"/>
<text text-anchor="start" x="43" y="-242.8" font-family="Helvetica,sans-Serif" font-size="11.00" fill="#000000">...</text>
<polygon fill="#ffffff" stroke="transparent" points="40,-217.7 40,-236.7 118,-236.7 118,-217.7 40,-217.7"/>
<polygon fill="none" stroke="#000000" points="40,-217.7 40,-236.7 118,-236.7 118,-217.7 40,-217.7"/>
<text text-anchor="start" x="43" y="-223.8" font-family="Helvetica,sans-Serif" font-size="11.00" fill="#000000"> &#160;</text>
<polygon fill="#ffffff" stroke="transparent" points="118,-217.7 118,-236.7 163,-236.7 163,-217.7 118,-217.7"/>
<polygon fill="none" stroke="#000000" points="118,-217.7 118,-236.7 163,-236.7 163,-217.7 118,-217.7"/>
<text text-anchor="start" x="153.8862" y="-223.8" font-family="Helvetica,sans-Serif" font-size="11.00" fill="#000000"> &#160;</text>
<polygon fill="#ffffff" stroke="transparent" points="163,-217.7 163,-236.7 217,-236.7 217,-217.7 163,-217.7"/>
<polygon fill="none" stroke="#000000" points="163,-217.7 163,-236.7 217,-236.7 217,-217.7 163,-217.7"/>
<text text-anchor="start" x="198.4053" y="-223.8" font-family="Helvetica,sans-Serif" font-size="11.00" fill="#000000">2 &gt;</text>
</a>
</g>
</g>
<!-- ilmoitus_opiskeluoikeus_konteksti&#45;&gt;ilmoitus -->
<g id="edge2" class="edge">
<title>ilmoitus_opiskeluoikeus_konteksti:w&#45;&gt;ilmoitus:e</title>
<path fill="none" stroke="#000000" d="M293.3686,-318.6491C260.9997,-308.7853 258.518,-266.7 217,-266.7"/>
<polygon fill="#000000" stroke="#000000" points="300.0775,-319.5894 307.5002,-324.2651 304.0387,-320.1447 308,-320.7 308,-320.7 308,-320.7 304.0387,-320.1447 308.4998,-317.1349 300.0775,-319.5894 300.0775,-319.5894"/>
<ellipse fill="none" stroke="#000000" cx="296.9084" cy="-319.1452" rx="3.2" ry="3.2"/>
</g>
<!-- ilmoitus_lisätiedot -->
<g id="node3" class="node">
<title>ilmoitus_lisätiedot</title>
<g id="a_node3"><a xlink:href="../../tables/ilmoitus_lis_tiedot_cc362998.html" xlink:title="ilmoitus_lisätiedot" target="_top">
<polygon fill="#ffffff" stroke="transparent" points="361.5,-164.2 361.5,-247.2 524.5,-247.2 524.5,-164.2 361.5,-164.2"/>
<polygon fill="#f5f5f5" stroke="transparent" points="362,-223.7 362,-246.7 525,-246.7 525,-223.7 362,-223.7"/>
<polygon fill="none" stroke="#000000" points="362,-223.7 362,-246.7 525,-246.7 525,-223.7 362,-223.7"/>
<text text-anchor="start" x="367" y="-232.3" font-family="Helvetica,sans-Serif" font-weight="bold" font-size="11.00" fill="#000000">ilmoitus_lisätiedot</text>
<text text-anchor="start" x="490.5219" y="-231.8" font-family="Helvetica,sans-Serif" font-size="11.00" fill="#000000">[table]</text>
<polygon fill="none" stroke="#000000" points="362,-201.7 362,-223.7 525,-223.7 525,-201.7 362,-201.7"/>
<image xlink:href="../../images/primaryKeys.png" width="11px" height="12px" preserveAspectRatio="xMinYMin meet" x="367" y="-218.7"/>
<text text-anchor="start" x="391" y="-208.8" font-family="Helvetica,sans-Serif" font-size="11.00" fill="#000000">ilmoitus_uuid</text>
<polygon fill="none" stroke="#000000" points="362,-182.7 362,-201.7 525,-201.7 525,-182.7 362,-182.7"/>
<text text-anchor="start" x="365" y="-188.8" font-family="Helvetica,sans-Serif" font-size="11.00" fill="#000000">...</text>
<polygon fill="#ffffff" stroke="transparent" points="362,-163.7 362,-182.7 442,-182.7 442,-163.7 362,-163.7"/>
<polygon fill="none" stroke="#000000" points="362,-163.7 362,-182.7 442,-182.7 442,-163.7 362,-163.7"/>
<text text-anchor="start" x="365" y="-169.8" font-family="Helvetica,sans-Serif" font-size="11.00" fill="#000000">&lt; 1</text>
<polygon fill="#ffffff" stroke="transparent" points="442,-163.7 442,-182.7 483,-182.7 483,-163.7 442,-163.7"/>
<polygon fill="none" stroke="#000000" points="442,-163.7 442,-182.7 483,-182.7 483,-163.7 442,-163.7"/>
<text text-anchor="start" x="473.8862" y="-169.8" font-family="Helvetica,sans-Serif" font-size="11.00" fill="#000000"> &#160;</text>
<polygon fill="#ffffff" stroke="transparent" points="483,-163.7 483,-182.7 525,-182.7 525,-163.7 483,-163.7"/>
<polygon fill="none" stroke="#000000" points="483,-163.7 483,-182.7 525,-182.7 525,-163.7 483,-163.7"/>
<text text-anchor="start" x="515.8862" y="-169.8" font-family="Helvetica,sans-Serif" font-size="11.00" fill="#000000"> &#160;</text>
</a>
</g>
</g>
<!-- ilmoitus_lisätiedot&#45;&gt;ilmoitus -->
<g id="edge1" class="edge">
<title>ilmoitus_lisätiedot:w&#45;&gt;ilmoitus:e</title>
<path fill="none" stroke="#000000" d="M351.2477,-213.1668C292.232,-218.4448 282.0076,-266.7 217,-266.7"/>
<polygon fill="#000000" stroke="#000000" points="361.0272,-208.7385 361.3743,-216.7309 359.7758,-216.8004 359.4287,-208.8079 361.0272,-208.7385"/>
<polyline fill="none" stroke="#000000" points="362,-212.7 358.0038,-212.8735 "/>
<ellipse fill="none" stroke="#000000" cx="354.8068" cy="-213.0124" rx="3.2" ry="3.2"/>
</g>
<!-- oppivelvollisuuden_keskeytyshistoria -->
<g id="node5" class="node">
<title>oppivelvollisuuden_keskeytyshistoria</title>
<g id="a_node5"><a xlink:href="../../tables/oppivelvollisuuden_keskeytyshistoria.html" xlink:title="oppivelvollisuuden_keskeytyshistoria" target="_top">
<polygon fill="#ffffff" stroke="transparent" points="297,-38.2 297,-143.2 589,-143.2 589,-38.2 297,-38.2"/>
<polygon fill="#f5f5f5" stroke="transparent" points="297,-119.7 297,-142.7 589,-142.7 589,-119.7 297,-119.7"/>
<polygon fill="none" stroke="#000000" points="297,-119.7 297,-142.7 589,-142.7 589,-119.7 297,-119.7"/>
<text text-anchor="start" x="302" y="-128.3" font-family="Helvetica,sans-Serif" font-weight="bold" font-size="11.00" fill="#000000">oppivelvollisuuden_keskeytyshistoria</text>
<text text-anchor="start" x="554.5219" y="-127.8" font-family="Helvetica,sans-Serif" font-size="11.00" fill="#000000">[table]</text>
<polygon fill="none" stroke="#000000" points="297,-97.7 297,-119.7 589,-119.7 589,-97.7 297,-97.7"/>
<image xlink:href="../../images/primaryKeys.png" width="11px" height="12px" preserveAspectRatio="xMinYMin meet" x="302" y="-114.7"/>
<text text-anchor="start" x="326" y="-104.8" font-family="Helvetica,sans-Serif" font-size="11.00" fill="#000000">id</text>
<polygon fill="none" stroke="#000000" points="297,-75.7 297,-97.7 589,-97.7 589,-75.7 297,-75.7"/>
<image xlink:href="../../images/foreignKeys.png" width="11px" height="12px" preserveAspectRatio="xMinYMin meet" x="302" y="-92.7"/>
<text text-anchor="start" x="326" y="-82.8" font-family="Helvetica,sans-Serif" font-size="11.00" fill="#000000">ov_keskeytys_uuid</text>
<polygon fill="none" stroke="#000000" points="297,-56.7 297,-75.7 589,-75.7 589,-56.7 297,-56.7"/>
<text text-anchor="start" x="300" y="-62.8" font-family="Helvetica,sans-Serif" font-size="11.00" fill="#000000">...</text>
<polygon fill="#ffffff" stroke="transparent" points="297,-37.7 297,-56.7 441,-56.7 441,-37.7 297,-37.7"/>
<polygon fill="none" stroke="#000000" points="297,-37.7 297,-56.7 441,-56.7 441,-37.7 297,-37.7"/>
<text text-anchor="start" x="300" y="-43.8" font-family="Helvetica,sans-Serif" font-size="11.00" fill="#000000">&lt; 1</text>
<polygon fill="#ffffff" stroke="transparent" points="441,-37.7 441,-56.7 515,-56.7 515,-37.7 441,-37.7"/>
<polygon fill="none" stroke="#000000" points="441,-37.7 441,-56.7 515,-56.7 515,-37.7 441,-37.7"/>
<text text-anchor="start" x="505.8862" y="-43.8" font-family="Helvetica,sans-Serif" font-size="11.00" fill="#000000"> &#160;</text>
<polygon fill="#ffffff" stroke="transparent" points="515,-37.7 515,-56.7 589,-56.7 589,-37.7 515,-37.7"/>
<polygon fill="none" stroke="#000000" points="515,-37.7 515,-56.7 589,-56.7 589,-37.7 515,-37.7"/>
<text text-anchor="start" x="579.8862" y="-43.8" font-family="Helvetica,sans-Serif" font-size="11.00" fill="#000000"> &#160;</text>
</a>
</g>
</g>
<!-- oppivelvollisuuden_keskeytyshistoria&#45;&gt;oppivelvollisuuden_keskeytys -->
<g id="edge3" class="edge">
<title>oppivelvollisuuden_keskeytyshistoria:w&#45;&gt;oppivelvollisuuden_keskeytys:e</title>
<path fill="none" stroke="#000000" d="M282.4909,-86.7C271.1774,-86.7 263.9931,-86.7 248,-86.7"/>
<polygon fill="#000000" stroke="#000000" points="289,-86.7001 297,-90.3 293,-86.7 297,-86.7 297,-86.7 297,-86.7 293,-86.7 297,-83.1 289,-86.7001 289,-86.7001"/>
<ellipse fill="none" stroke="#000000" cx="285.8" cy="-86.7001" rx="3.2" ry="3.2"/>
</g>
</g>
</svg>
