<?xml version="1.0" encoding="UTF-8" standalone="no"?>
<!DOCTYPE svg PUBLIC "-//W3C//DTD SVG 1.1//EN"
 "http://www.w3.org/Graphics/SVG/1.1/DTD/svg11.dtd">
<!-- Generated by graphviz version 2.40.1 (20161225.0304)
 -->
<!-- Title: compactRelationshipsDiagram Pages: 1 -->
<svg width="539pt" height="367pt"
 viewBox="0.00 0.00 539.00 366.70" xmlns="http://www.w3.org/2000/svg" xmlns:xlink="http://www.w3.org/1999/xlink">
<g id="graph0" class="graph" transform="scale(1 1) rotate(0) translate(4 362.7)">
<title>compactRelationshipsDiagram</title>
<polygon fill="#ffffff" stroke="transparent" points="-4,4 -4,-362.7 535,-362.7 535,4 -4,4"/>
<text text-anchor="middle" x="72.4936" y="-7.3" font-family="Helvetica,sans-Serif" font-size="11.00" fill="#000000">Generated by SchemaSpy</text>
<!-- oppivelvollisuuden_keskeytys -->
<g id="node1" class="node">
<title>oppivelvollisuuden_keskeytys</title>
<g id="a_node1"><a xlink:href="../../tables/oppivelvollisuuden_keskeytys.html" xlink:title="oppivelvollisuuden_keskeytys" target="_top">
<polygon fill="#ffffff" stroke="transparent" points="8,-38.2 8,-121.2 219,-121.2 219,-38.2 8,-38.2"/>
<polygon fill="#f5f5f5" stroke="transparent" points="8.5,-97.7 8.5,-120.7 219.5,-120.7 219.5,-97.7 8.5,-97.7"/>
<polygon fill="none" stroke="#000000" points="8.5,-97.7 8.5,-120.7 219.5,-120.7 219.5,-97.7 8.5,-97.7"/>
<text text-anchor="start" x="13.5" y="-106.3" font-family="Helvetica,sans-Serif" font-weight="bold" font-size="11.00" fill="#000000">oppivelvollisuuden_keskeytys</text>
<text text-anchor="start" x="185.0219" y="-105.8" font-family="Helvetica,sans-Serif" font-size="11.00" fill="#000000">[table]</text>
<polygon fill="none" stroke="#000000" points="8.5,-75.7 8.5,-97.7 219.5,-97.7 219.5,-75.7 8.5,-75.7"/>
<image xlink:href="../../images/primaryKeys.png" width="11px" height="12px" preserveAspectRatio="xMinYMin meet" x="13.5" y="-92.7"/>
<text text-anchor="start" x="37.5" y="-82.8" font-family="Helvetica,sans-Serif" font-size="11.00" fill="#000000">uuid</text>
<polygon fill="none" stroke="#000000" points="8.5,-56.7 8.5,-75.7 219.5,-75.7 219.5,-56.7 8.5,-56.7"/>
<text text-anchor="start" x="11.5" y="-62.8" font-family="Helvetica,sans-Serif" font-size="11.00" fill="#000000">...</text>
<polygon fill="#ffffff" stroke="transparent" points="8.5,-37.7 8.5,-56.7 90.5,-56.7 90.5,-37.7 8.5,-37.7"/>
<polygon fill="none" stroke="#000000" points="8.5,-37.7 8.5,-56.7 90.5,-56.7 90.5,-37.7 8.5,-37.7"/>
<text text-anchor="start" x="11.5" y="-43.8" font-family="Helvetica,sans-Serif" font-size="11.00" fill="#000000"> &#160;</text>
<polygon fill="#ffffff" stroke="transparent" points="90.5,-37.7 90.5,-56.7 163.5,-56.7 163.5,-37.7 90.5,-37.7"/>
<polygon fill="none" stroke="#000000" points="90.5,-37.7 90.5,-56.7 163.5,-56.7 163.5,-37.7 90.5,-37.7"/>
<text text-anchor="start" x="128.1105" y="-43.8" font-family="Helvetica,sans-Serif" font-size="11.00" fill="#000000">0 rows</text>
<polygon fill="#ffffff" stroke="transparent" points="163.5,-37.7 163.5,-56.7 219.5,-56.7 219.5,-37.7 163.5,-37.7"/>
<polygon fill="none" stroke="#000000" points="163.5,-37.7 163.5,-56.7 219.5,-56.7 219.5,-37.7 163.5,-37.7"/>
<text text-anchor="start" x="200.9053" y="-43.8" font-family="Helvetica,sans-Serif" font-size="11.00" fill="#000000">1 &gt;</text>
</a>
</g>
</g>
<!-- ilmoitus_opiskeluoikeus_konteksti -->
<g id="node2" class="node">
<title>ilmoitus_opiskeluoikeus_konteksti</title>
<g id="a_node2"><a xlink:href="../../tables/ilmoitus_opiskeluoikeus_konteksti.html" xlink:title="ilmoitus_opiskeluoikeus_konteksti" target="_top">
<polygon fill="#ffffff" stroke="transparent" points="277,-268.7 277,-354.7 514,-354.7 514,-268.7 277,-268.7"/>
<polygon fill="#f5f5f5" stroke="transparent" points="277.5,-331.7 277.5,-354.7 514.5,-354.7 514.5,-331.7 277.5,-331.7"/>
<polygon fill="none" stroke="#000000" points="277.5,-331.7 277.5,-354.7 514.5,-354.7 514.5,-331.7 277.5,-331.7"/>
<text text-anchor="start" x="282.5" y="-340.3" font-family="Helvetica,sans-Serif" font-weight="bold" font-size="11.00" fill="#000000">ilmoitus_opiskeluoikeus_konteksti</text>
<text text-anchor="start" x="480.0219" y="-339.8" font-family="Helvetica,sans-Serif" font-size="11.00" fill="#000000">[table]</text>
<polygon fill="none" stroke="#000000" points="277.5,-309.7 277.5,-331.7 514.5,-331.7 514.5,-309.7 277.5,-309.7"/>
<image xlink:href="../../images/primaryKeys.png" width="11px" height="12px" preserveAspectRatio="xMinYMin meet" x="282.5" y="-326.7"/>
<text text-anchor="start" x="306.5" y="-316.8" font-family="Helvetica,sans-Serif" font-size="11.00" fill="#000000">ilmoitus_uuid</text>
<polygon fill="none" stroke="#000000" points="277.5,-287.7 277.5,-309.7 514.5,-309.7 514.5,-287.7 277.5,-287.7"/>
<image xlink:href="../../images/primaryKeys.png" width="11px" height="12px" preserveAspectRatio="xMinYMin meet" x="282.5" y="-304.7"/>
<text text-anchor="start" x="306.5" y="-294.8" font-family="Helvetica,sans-Serif" font-size="11.00" fill="#000000">opiskeluoikeus_oid</text>
<polygon fill="#ffffff" stroke="transparent" points="277.5,-268.7 277.5,-287.7 381.5,-287.7 381.5,-268.7 277.5,-268.7"/>
<polygon fill="none" stroke="#000000" points="277.5,-268.7 277.5,-287.7 381.5,-287.7 381.5,-268.7 277.5,-268.7"/>
<text text-anchor="start" x="280.5" y="-274.8" font-family="Helvetica,sans-Serif" font-size="11.00" fill="#000000">&lt; 1</text>
<polygon fill="#ffffff" stroke="transparent" points="381.5,-268.7 381.5,-287.7 460.5,-287.7 460.5,-268.7 381.5,-268.7"/>
<polygon fill="none" stroke="#000000" points="381.5,-268.7 381.5,-287.7 460.5,-287.7 460.5,-268.7 381.5,-268.7"/>
<text text-anchor="start" x="425.1105" y="-274.8" font-family="Helvetica,sans-Serif" font-size="11.00" fill="#000000">0 rows</text>
<polygon fill="#ffffff" stroke="transparent" points="460.5,-268.7 460.5,-287.7 514.5,-287.7 514.5,-268.7 460.5,-268.7"/>
<polygon fill="none" stroke="#000000" points="460.5,-268.7 460.5,-287.7 514.5,-287.7 514.5,-268.7 460.5,-268.7"/>
<text text-anchor="start" x="505.3862" y="-274.8" font-family="Helvetica,sans-Serif" font-size="11.00" fill="#000000"> &#160;</text>
</a>
</g>
</g>
<!-- ilmoitus -->
<g id="node4" class="node">
<title>ilmoitus</title>
<g id="a_node4"><a xlink:href="../../tables/ilmoitus.html" xlink:title="ilmoitus" target="_top">
<polygon fill="#ffffff" stroke="transparent" points="36.5,-218.2 36.5,-301.2 190.5,-301.2 190.5,-218.2 36.5,-218.2"/>
<polygon fill="#f5f5f5" stroke="transparent" points="36.5,-277.7 36.5,-300.7 190.5,-300.7 190.5,-277.7 36.5,-277.7"/>
<polygon fill="none" stroke="#000000" points="36.5,-277.7 36.5,-300.7 190.5,-300.7 190.5,-277.7 36.5,-277.7"/>
<text text-anchor="start" x="41.5" y="-286.3" font-family="Helvetica,sans-Serif" font-weight="bold" font-size="11.00" fill="#000000">ilmoitus</text>
<text text-anchor="start" x="155.5437" y="-285.8" font-family="Helvetica,sans-Serif" font-size="11.00" fill="#000000">[table]</text>
<polygon fill="none" stroke="#000000" points="36.5,-255.7 36.5,-277.7 190.5,-277.7 190.5,-255.7 36.5,-255.7"/>
<image xlink:href="../../images/primaryKeys.png" width="11px" height="12px" preserveAspectRatio="xMinYMin meet" x="41.5" y="-272.7"/>
<text text-anchor="start" x="56.5" y="-262.8" font-family="Helvetica,sans-Serif" font-size="11.00" fill="#000000">uuid</text>
<polygon fill="none" stroke="#000000" points="36.5,-236.7 36.5,-255.7 190.5,-255.7 190.5,-236.7 36.5,-236.7"/>
<text text-anchor="start" x="39.5" y="-242.8" font-family="Helvetica,sans-Serif" font-size="11.00" fill="#000000">...</text>
<polygon fill="#ffffff" stroke="transparent" points="36.5,-217.7 36.5,-236.7 89.5,-236.7 89.5,-217.7 36.5,-217.7"/>
<polygon fill="none" stroke="#000000" points="36.5,-217.7 36.5,-236.7 89.5,-236.7 89.5,-217.7 36.5,-217.7"/>
<text text-anchor="start" x="39.5" y="-223.8" font-family="Helvetica,sans-Serif" font-size="11.00" fill="#000000"> &#160;</text>
<polygon fill="#ffffff" stroke="transparent" points="89.5,-217.7 89.5,-236.7 148.5,-236.7 148.5,-217.7 89.5,-217.7"/>
<polygon fill="none" stroke="#000000" points="89.5,-217.7 89.5,-236.7 148.5,-236.7 148.5,-217.7 89.5,-217.7"/>
<text text-anchor="start" x="113.1105" y="-223.8" font-family="Helvetica,sans-Serif" font-size="11.00" fill="#000000">0 rows</text>
<polygon fill="#ffffff" stroke="transparent" points="148.5,-217.7 148.5,-236.7 190.5,-236.7 190.5,-217.7 148.5,-217.7"/>
<polygon fill="none" stroke="#000000" points="148.5,-217.7 148.5,-236.7 190.5,-236.7 190.5,-217.7 148.5,-217.7"/>
<text text-anchor="start" x="171.9053" y="-223.8" font-family="Helvetica,sans-Serif" font-size="11.00" fill="#000000">2 &gt;</text>
</a>
</g>
</g>
<!-- ilmoitus_opiskeluoikeus_konteksti&#45;&gt;ilmoitus -->
<g id="edge2" class="edge">
<title>ilmoitus_opiskeluoikeus_konteksti:w&#45;&gt;ilmoitus:e</title>
<path fill="none" stroke="#000000" d="M262.9702,-318.5163C232.2376,-308.4137 230.4986,-266.7 190.5,-266.7"/>
<polygon fill="#000000" stroke="#000000" points="269.5889,-319.511 276.9649,-324.26 273.5444,-320.1055 277.5,-320.7 277.5,-320.7 277.5,-320.7 273.5444,-320.1055 278.0351,-317.14 269.5889,-319.511 269.5889,-319.511"/>
<ellipse fill="none" stroke="#000000" cx="266.4244" cy="-319.0353" rx="3.2" ry="3.2"/>
</g>
<!-- ilmoitus_lisätiedot -->
<g id="node3" class="node">
<title>ilmoitus_lisätiedot</title>
<g id="a_node3"><a xlink:href="../../tables/ilmoitus_lis_tiedot_cc362998.html" xlink:title="ilmoitus_lisätiedot" target="_top">
<polygon fill="#ffffff" stroke="transparent" points="323.5,-164.2 323.5,-247.2 467.5,-247.2 467.5,-164.2 323.5,-164.2"/>
<polygon fill="#f5f5f5" stroke="transparent" points="323.5,-223.7 323.5,-246.7 467.5,-246.7 467.5,-223.7 323.5,-223.7"/>
<polygon fill="none" stroke="#000000" points="323.5,-223.7 323.5,-246.7 467.5,-246.7 467.5,-223.7 323.5,-223.7"/>
<text text-anchor="start" x="328.5" y="-232.3" font-family="Helvetica,sans-Serif" font-weight="bold" font-size="11.00" fill="#000000">ilmoitus_lisätiedot</text>
<text text-anchor="start" x="433.0219" y="-231.8" font-family="Helvetica,sans-Serif" font-size="11.00" fill="#000000">[table]</text>
<polygon fill="none" stroke="#000000" points="323.5,-201.7 323.5,-223.7 467.5,-223.7 467.5,-201.7 323.5,-201.7"/>
<image xlink:href="../../images/primaryKeys.png" width="11px" height="12px" preserveAspectRatio="xMinYMin meet" x="328.5" y="-218.7"/>
<text text-anchor="start" x="352.5" y="-208.8" font-family="Helvetica,sans-Serif" font-size="11.00" fill="#000000">ilmoitus_uuid</text>
<polygon fill="none" stroke="#000000" points="323.5,-182.7 323.5,-201.7 467.5,-201.7 467.5,-182.7 323.5,-182.7"/>
<text text-anchor="start" x="326.5" y="-188.8" font-family="Helvetica,sans-Serif" font-size="11.00" fill="#000000">...</text>
<polygon fill="#ffffff" stroke="transparent" points="323.5,-163.7 323.5,-182.7 380.5,-182.7 380.5,-163.7 323.5,-163.7"/>
<polygon fill="none" stroke="#000000" points="323.5,-163.7 323.5,-182.7 380.5,-182.7 380.5,-163.7 323.5,-163.7"/>
<text text-anchor="start" x="326.5" y="-169.8" font-family="Helvetica,sans-Serif" font-size="11.00" fill="#000000">&lt; 1</text>
<polygon fill="#ffffff" stroke="transparent" points="380.5,-163.7 380.5,-182.7 436.5,-182.7 436.5,-163.7 380.5,-163.7"/>
<polygon fill="none" stroke="#000000" points="380.5,-163.7 380.5,-182.7 436.5,-182.7 436.5,-163.7 380.5,-163.7"/>
<text text-anchor="start" x="401.1105" y="-169.8" font-family="Helvetica,sans-Serif" font-size="11.00" fill="#000000">0 rows</text>
<polygon fill="#ffffff" stroke="transparent" points="436.5,-163.7 436.5,-182.7 467.5,-182.7 467.5,-163.7 436.5,-163.7"/>
<polygon fill="none" stroke="#000000" points="436.5,-163.7 436.5,-182.7 467.5,-182.7 467.5,-163.7 436.5,-163.7"/>
<text text-anchor="start" x="458.3862" y="-169.8" font-family="Helvetica,sans-Serif" font-size="11.00" fill="#000000"> &#160;</text>
</a>
</g>
</g>
<!-- ilmoitus_lisätiedot&#45;&gt;ilmoitus -->
<g id="edge1" class="edge">
<title>ilmoitus_lisätiedot:w&#45;&gt;ilmoitus:e</title>
<path fill="none" stroke="#000000" d="M312.8635,-213.2345C258.8686,-218.8427 250.5594,-266.7 190.5,-266.7"/>
<polygon fill="#000000" stroke="#000000" points="322.5002,-208.7452 322.9018,-216.7351 321.3038,-216.8154 320.9023,-208.8255 322.5002,-208.7452"/>
<polyline fill="none" stroke="#000000" points="323.5,-212.7 319.505,-212.9008 "/>
<ellipse fill="none" stroke="#000000" cx="316.3091" cy="-213.0614" rx="3.2" ry="3.2"/>
</g>
<!-- oppivelvollisuuden_keskeytyshistoria -->
<g id="node5" class="node">
<title>oppivelvollisuuden_keskeytyshistoria</title>
<g id="a_node5"><a xlink:href="../../tables/oppivelvollisuuden_keskeytyshistoria.html" xlink:title="oppivelvollisuuden_keskeytyshistoria" target="_top">
<polygon fill="#ffffff" stroke="transparent" points="268,-38.2 268,-143.2 523,-143.2 523,-38.2 268,-38.2"/>
<polygon fill="#f5f5f5" stroke="transparent" points="268.5,-119.7 268.5,-142.7 523.5,-142.7 523.5,-119.7 268.5,-119.7"/>
<polygon fill="none" stroke="#000000" points="268.5,-119.7 268.5,-142.7 523.5,-142.7 523.5,-119.7 268.5,-119.7"/>
<text text-anchor="start" x="273.5" y="-128.3" font-family="Helvetica,sans-Serif" font-weight="bold" font-size="11.00" fill="#000000">oppivelvollisuuden_keskeytyshistoria</text>
<text text-anchor="start" x="489.0219" y="-127.8" font-family="Helvetica,sans-Serif" font-size="11.00" fill="#000000">[table]</text>
<polygon fill="none" stroke="#000000" points="268.5,-97.7 268.5,-119.7 523.5,-119.7 523.5,-97.7 268.5,-97.7"/>
<image xlink:href="../../images/primaryKeys.png" width="11px" height="12px" preserveAspectRatio="xMinYMin meet" x="273.5" y="-114.7"/>
<text text-anchor="start" x="297.5" y="-104.8" font-family="Helvetica,sans-Serif" font-size="11.00" fill="#000000">id</text>
<polygon fill="none" stroke="#000000" points="268.5,-75.7 268.5,-97.7 523.5,-97.7 523.5,-75.7 268.5,-75.7"/>
<image xlink:href="../../images/foreignKeys.png" width="11px" height="12px" preserveAspectRatio="xMinYMin meet" x="273.5" y="-92.7"/>
<text text-anchor="start" x="297.5" y="-82.8" font-family="Helvetica,sans-Serif" font-size="11.00" fill="#000000">ov_keskeytys_uuid</text>
<polygon fill="none" stroke="#000000" points="268.5,-56.7 268.5,-75.7 523.5,-75.7 523.5,-56.7 268.5,-56.7"/>
<text text-anchor="start" x="271.5" y="-62.8" font-family="Helvetica,sans-Serif" font-size="11.00" fill="#000000">...</text>
<polygon fill="#ffffff" stroke="transparent" points="268.5,-37.7 268.5,-56.7 381.5,-56.7 381.5,-37.7 268.5,-37.7"/>
<polygon fill="none" stroke="#000000" points="268.5,-37.7 268.5,-56.7 381.5,-56.7 381.5,-37.7 268.5,-37.7"/>
<text text-anchor="start" x="271.5" y="-43.8" font-family="Helvetica,sans-Serif" font-size="11.00" fill="#000000">&lt; 1</text>
<polygon fill="#ffffff" stroke="transparent" points="381.5,-37.7 381.5,-56.7 465.5,-56.7 465.5,-37.7 381.5,-37.7"/>
<polygon fill="none" stroke="#000000" points="381.5,-37.7 381.5,-56.7 465.5,-56.7 465.5,-37.7 381.5,-37.7"/>
<text text-anchor="start" x="430.1105" y="-43.8" font-family="Helvetica,sans-Serif" font-size="11.00" fill="#000000">0 rows</text>
<polygon fill="#ffffff" stroke="transparent" points="465.5,-37.7 465.5,-56.7 523.5,-56.7 523.5,-37.7 465.5,-37.7"/>
<polygon fill="none" stroke="#000000" points="465.5,-37.7 465.5,-56.7 523.5,-56.7 523.5,-37.7 465.5,-37.7"/>
<text text-anchor="start" x="514.3862" y="-43.8" font-family="Helvetica,sans-Serif" font-size="11.00" fill="#000000"> &#160;</text>
</a>
</g>
</g>
<!-- oppivelvollisuuden_keskeytyshistoria&#45;&gt;oppivelvollisuuden_keskeytys -->
<g id="edge3" class="edge">
<title>oppivelvollisuuden_keskeytyshistoria:w&#45;&gt;oppivelvollisuuden_keskeytys:e</title>
<path fill="none" stroke="#000000" d="M253.9909,-86.7C242.6774,-86.7 235.4931,-86.7 219.5,-86.7"/>
<polygon fill="#000000" stroke="#000000" points="260.5,-86.7001 268.5,-90.3 264.5,-86.7 268.5,-86.7 268.5,-86.7 268.5,-86.7 264.5,-86.7 268.5,-83.1 260.5,-86.7001 260.5,-86.7001"/>
<ellipse fill="none" stroke="#000000" cx="257.3" cy="-86.7001" rx="3.2" ry="3.2"/>
</g>
</g>
</svg>
