<?xml version="1.0" encoding="UTF-8" standalone="no"?>
<!DOCTYPE svg PUBLIC "-//W3C//DTD SVG 1.1//EN"
 "http://www.w3.org/Graphics/SVG/1.1/DTD/svg11.dtd">
<!-- Generated by graphviz version 2.40.1 (20161225.0304)
 -->
<!-- Title: largeRelationshipsDiagram Pages: 1 -->
<svg width="605pt" height="592pt"
 viewBox="0.00 0.00 605.00 592.20" xmlns="http://www.w3.org/2000/svg" xmlns:xlink="http://www.w3.org/1999/xlink">
<g id="graph0" class="graph" transform="scale(1 1) rotate(0) translate(4 588.2)">
<title>largeRelationshipsDiagram</title>
<polygon fill="#ffffff" stroke="transparent" points="-4,4 -4,-588.2 601,-588.2 601,4 -4,4"/>
<text text-anchor="middle" x="72.4936" y="-7.3" font-family="Helvetica,sans-Serif" font-size="11.00" fill="#000000">Generated by SchemaSpy</text>
<!-- oppivelvollisuuden_keskeytys -->
<g id="node1" class="node">
<title>oppivelvollisuuden_keskeytys</title>
<g id="a_node1"><a xlink:href="../../tables/oppivelvollisuuden_keskeytys.html" xlink:title="oppivelvollisuuden_keskeytys" target="_top">
<polygon fill="#ffffff" stroke="transparent" points="8,-82.2 8,-300.2 248,-300.2 248,-82.2 8,-82.2"/>
<polygon fill="#f5f5f5" stroke="transparent" points="8,-277.2 8,-300.2 248,-300.2 248,-277.2 8,-277.2"/>
<polygon fill="none" stroke="#000000" points="8,-277.2 8,-300.2 248,-300.2 248,-277.2 8,-277.2"/>
<text text-anchor="start" x="13" y="-285.8" font-family="Helvetica,sans-Serif" font-weight="bold" font-size="11.00" fill="#000000">oppivelvollisuuden_keskeytys</text>
<text text-anchor="start" x="213.5219" y="-285.3" font-family="Helvetica,sans-Serif" font-size="11.00" fill="#000000">[table]</text>
<polygon fill="none" stroke="#000000" points="8,-255.2 8,-277.2 248,-277.2 248,-255.2 8,-255.2"/>
<image xlink:href="../../images/primaryKeys.png" width="11px" height="12px" preserveAspectRatio="xMinYMin meet" x="13" y="-272.2"/>
<text text-anchor="start" x="37" y="-262.3" font-family="Helvetica,sans-Serif" font-size="11.00" fill="#000000">uuid</text>
<polygon fill="none" stroke="#000000" points="8,-233.2 8,-255.2 248,-255.2 248,-233.2 8,-233.2"/>
<text text-anchor="start" x="37" y="-240.3" font-family="Helvetica,sans-Serif" font-size="11.00" fill="#000000">oppija_oid</text>
<polygon fill="none" stroke="#000000" points="8,-211.2 8,-233.2 248,-233.2 248,-211.2 8,-211.2"/>
<text text-anchor="start" x="37" y="-218.3" font-family="Helvetica,sans-Serif" font-size="11.00" fill="#000000">alku</text>
<polygon fill="none" stroke="#000000" points="8,-189.2 8,-211.2 248,-211.2 248,-189.2 8,-189.2"/>
<text text-anchor="start" x="37" y="-196.3" font-family="Helvetica,sans-Serif" font-size="11.00" fill="#000000">loppu</text>
<polygon fill="none" stroke="#000000" points="8,-167.2 8,-189.2 248,-189.2 248,-167.2 8,-167.2"/>
<text text-anchor="start" x="37" y="-174.3" font-family="Helvetica,sans-Serif" font-size="11.00" fill="#000000">luotu</text>
<polygon fill="none" stroke="#000000" points="8,-145.2 8,-167.2 248,-167.2 248,-145.2 8,-145.2"/>
<text text-anchor="start" x="37" y="-152.3" font-family="Helvetica,sans-Serif" font-size="11.00" fill="#000000">tekijä_oid</text>
<polygon fill="none" stroke="#000000" points="8,-123.2 8,-145.2 248,-145.2 248,-123.2 8,-123.2"/>
<text text-anchor="start" x="37" y="-130.3" font-family="Helvetica,sans-Serif" font-size="11.00" fill="#000000">tekijä_organisaatio_oid</text>
<polygon fill="none" stroke="#000000" points="8,-101.2 8,-123.2 248,-123.2 248,-101.2 8,-101.2"/>
<text text-anchor="start" x="37" y="-108.3" font-family="Helvetica,sans-Serif" font-size="11.00" fill="#000000">peruttu</text>
<polygon fill="#ffffff" stroke="transparent" points="8,-82.2 8,-101.2 117,-101.2 117,-82.2 8,-82.2"/>
<polygon fill="none" stroke="#000000" points="8,-82.2 8,-101.2 117,-101.2 117,-82.2 8,-82.2"/>
<text text-anchor="start" x="11" y="-88.3" font-family="Helvetica,sans-Serif" font-size="11.00" fill="#000000"> &#160;</text>
<polygon fill="#ffffff" stroke="transparent" points="117,-82.2 117,-101.2 178,-101.2 178,-82.2 117,-82.2"/>
<polygon fill="none" stroke="#000000" points="117,-82.2 117,-101.2 178,-101.2 178,-82.2 117,-82.2"/>
<text text-anchor="start" x="168.8862" y="-88.3" font-family="Helvetica,sans-Serif" font-size="11.00" fill="#000000"> &#160;</text>
<polygon fill="#ffffff" stroke="transparent" points="178,-82.2 178,-101.2 248,-101.2 248,-82.2 178,-82.2"/>
<polygon fill="none" stroke="#000000" points="178,-82.2 178,-101.2 248,-101.2 248,-82.2 178,-82.2"/>
<text text-anchor="start" x="229.4053" y="-88.3" font-family="Helvetica,sans-Serif" font-size="11.00" fill="#000000">1 &gt;</text>
</a>
</g>
</g>
<!-- ilmoitus_opiskeluoikeus_konteksti -->
<g id="node2" class="node">
<title>ilmoitus_opiskeluoikeus_konteksti</title>
<g id="a_node2"><a xlink:href="../../tables/ilmoitus_opiskeluoikeus_konteksti.html" xlink:title="ilmoitus_opiskeluoikeus_konteksti" target="_top">
<polygon fill="#ffffff" stroke="transparent" points="308,-494.2 308,-580.2 578,-580.2 578,-494.2 308,-494.2"/>
<polygon fill="#f5f5f5" stroke="transparent" points="308,-557.2 308,-580.2 578,-580.2 578,-557.2 308,-557.2"/>
<polygon fill="none" stroke="#000000" points="308,-557.2 308,-580.2 578,-580.2 578,-557.2 308,-557.2"/>
<text text-anchor="start" x="313" y="-565.8" font-family="Helvetica,sans-Serif" font-weight="bold" font-size="11.00" fill="#000000">ilmoitus_opiskeluoikeus_konteksti</text>
<text text-anchor="start" x="543.5219" y="-565.3" font-family="Helvetica,sans-Serif" font-size="11.00" fill="#000000">[table]</text>
<polygon fill="none" stroke="#000000" points="308,-535.2 308,-557.2 578,-557.2 578,-535.2 308,-535.2"/>
<image xlink:href="../../images/primaryKeys.png" width="11px" height="12px" preserveAspectRatio="xMinYMin meet" x="313" y="-552.2"/>
<text text-anchor="start" x="337" y="-542.3" font-family="Helvetica,sans-Serif" font-size="11.00" fill="#000000">ilmoitus_uuid</text>
<polygon fill="none" stroke="#000000" points="308,-513.2 308,-535.2 578,-535.2 578,-513.2 308,-513.2"/>
<image xlink:href="../../images/primaryKeys.png" width="11px" height="12px" preserveAspectRatio="xMinYMin meet" x="313" y="-530.2"/>
<text text-anchor="start" x="337" y="-520.3" font-family="Helvetica,sans-Serif" font-size="11.00" fill="#000000">opiskeluoikeus_oid</text>
<polygon fill="#ffffff" stroke="transparent" points="308,-494.2 308,-513.2 441,-513.2 441,-494.2 308,-494.2"/>
<polygon fill="none" stroke="#000000" points="308,-494.2 308,-513.2 441,-513.2 441,-494.2 308,-494.2"/>
<text text-anchor="start" x="311" y="-500.3" font-family="Helvetica,sans-Serif" font-size="11.00" fill="#000000">&lt; 1</text>
<polygon fill="#ffffff" stroke="transparent" points="441,-494.2 441,-513.2 509,-513.2 509,-494.2 441,-494.2"/>
<polygon fill="none" stroke="#000000" points="441,-494.2 441,-513.2 509,-513.2 509,-494.2 441,-494.2"/>
<text text-anchor="start" x="499.8862" y="-500.3" font-family="Helvetica,sans-Serif" font-size="11.00" fill="#000000"> &#160;</text>
<polygon fill="#ffffff" stroke="transparent" points="509,-494.2 509,-513.2 578,-513.2 578,-494.2 509,-494.2"/>
<polygon fill="none" stroke="#000000" points="509,-494.2 509,-513.2 578,-513.2 578,-494.2 509,-494.2"/>
<text text-anchor="start" x="568.8862" y="-500.3" font-family="Helvetica,sans-Serif" font-size="11.00" fill="#000000"> &#160;</text>
</a>
</g>
</g>
<!-- ilmoitus -->
<g id="node4" class="node">
<title>ilmoitus</title>
<g id="a_node4"><a xlink:href="../../tables/ilmoitus.html" xlink:title="ilmoitus" target="_top">
<polygon fill="#ffffff" stroke="transparent" points="39.5,-352.2 39.5,-548.2 216.5,-548.2 216.5,-352.2 39.5,-352.2"/>
<polygon fill="#f5f5f5" stroke="transparent" points="40,-525.2 40,-548.2 217,-548.2 217,-525.2 40,-525.2"/>
<polygon fill="none" stroke="#000000" points="40,-525.2 40,-548.2 217,-548.2 217,-525.2 40,-525.2"/>
<text text-anchor="start" x="45" y="-533.8" font-family="Helvetica,sans-Serif" font-weight="bold" font-size="11.00" fill="#000000">ilmoitus</text>
<text text-anchor="start" x="182.0437" y="-533.3" font-family="Helvetica,sans-Serif" font-size="11.00" fill="#000000">[table]</text>
<polygon fill="none" stroke="#000000" points="40,-503.2 40,-525.2 217,-525.2 217,-503.2 40,-503.2"/>
<image xlink:href="../../images/primaryKeys.png" width="11px" height="12px" preserveAspectRatio="xMinYMin meet" x="45" y="-520.2"/>
<text text-anchor="start" x="60" y="-510.3" font-family="Helvetica,sans-Serif" font-size="11.00" fill="#000000">uuid</text>
<polygon fill="none" stroke="#000000" points="40,-481.2 40,-503.2 217,-503.2 217,-481.2 40,-481.2"/>
<text text-anchor="start" x="60" y="-488.3" font-family="Helvetica,sans-Serif" font-size="11.00" fill="#000000">luotu</text>
<polygon fill="none" stroke="#000000" points="40,-459.2 40,-481.2 217,-481.2 217,-459.2 40,-459.2"/>
<text text-anchor="start" x="60" y="-466.3" font-family="Helvetica,sans-Serif" font-size="11.00" fill="#000000">oppija_oid</text>
<polygon fill="none" stroke="#000000" points="40,-437.2 40,-459.2 217,-459.2 217,-437.2 40,-437.2"/>
<text text-anchor="start" x="60" y="-444.3" font-family="Helvetica,sans-Serif" font-size="11.00" fill="#000000">kunta_oid</text>
<polygon fill="none" stroke="#000000" points="40,-415.2 40,-437.2 217,-437.2 217,-415.2 40,-415.2"/>
<text text-anchor="start" x="60" y="-422.3" font-family="Helvetica,sans-Serif" font-size="11.00" fill="#000000">tekijä_organisaatio_oid</text>
<polygon fill="none" stroke="#000000" points="40,-393.2 40,-415.2 217,-415.2 217,-393.2 40,-393.2"/>
<text text-anchor="start" x="60" y="-400.3" font-family="Helvetica,sans-Serif" font-size="11.00" fill="#000000">tekijä_oid</text>
<polygon fill="none" stroke="#000000" points="40,-371.2 40,-393.2 217,-393.2 217,-371.2 40,-371.2"/>
<text text-anchor="start" x="60" y="-378.3" font-family="Helvetica,sans-Serif" font-size="11.00" fill="#000000">mitätöity</text>
<polygon fill="#ffffff" stroke="transparent" points="40,-352.2 40,-371.2 118,-371.2 118,-352.2 40,-352.2"/>
<polygon fill="none" stroke="#000000" points="40,-352.2 40,-371.2 118,-371.2 118,-352.2 40,-352.2"/>
<text text-anchor="start" x="43" y="-358.3" font-family="Helvetica,sans-Serif" font-size="11.00" fill="#000000"> &#160;</text>
<polygon fill="#ffffff" stroke="transparent" points="118,-352.2 118,-371.2 163,-371.2 163,-352.2 118,-352.2"/>
<polygon fill="none" stroke="#000000" points="118,-352.2 118,-371.2 163,-371.2 163,-352.2 118,-352.2"/>
<text text-anchor="start" x="153.8862" y="-358.3" font-family="Helvetica,sans-Serif" font-size="11.00" fill="#000000"> &#160;</text>
<polygon fill="#ffffff" stroke="transparent" points="163,-352.2 163,-371.2 217,-371.2 217,-352.2 163,-352.2"/>
<polygon fill="none" stroke="#000000" points="163,-352.2 163,-371.2 217,-371.2 217,-352.2 163,-352.2"/>
<text text-anchor="start" x="198.4053" y="-358.3" font-family="Helvetica,sans-Serif" font-size="11.00" fill="#000000">2 &gt;</text>
</a>
</g>
</g>
<!-- ilmoitus_opiskeluoikeus_konteksti&#45;&gt;ilmoitus -->
<g id="edge2" class="edge">
<title>ilmoitus_opiskeluoikeus_konteksti:w&#45;&gt;ilmoitus:e</title>
<path fill="none" stroke="#000000" d="M293.5393,-544.825C263.2261,-538.7 254.5132,-514.2 217,-514.2"/>
<polygon fill="#000000" stroke="#000000" points="300.0359,-545.4427 307.6592,-549.7838 304.018,-545.8213 308,-546.2 308,-546.2 308,-546.2 304.018,-545.8213 308.3408,-542.6162 300.0359,-545.4427 300.0359,-545.4427"/>
<ellipse fill="none" stroke="#000000" cx="296.8503" cy="-545.1398" rx="3.2" ry="3.2"/>
</g>
<!-- ilmoitus_lisätiedot -->
<g id="node3" class="node">
<title>ilmoitus_lisätiedot</title>
<g id="a_node3"><a xlink:href="../../tables/ilmoitus_lis_tiedot_cc362998.html" xlink:title="ilmoitus_lisätiedot" target="_top">
<polygon fill="#ffffff" stroke="transparent" points="361.5,-387.2 361.5,-473.2 524.5,-473.2 524.5,-387.2 361.5,-387.2"/>
<polygon fill="#f5f5f5" stroke="transparent" points="362,-450.2 362,-473.2 525,-473.2 525,-450.2 362,-450.2"/>
<polygon fill="none" stroke="#000000" points="362,-450.2 362,-473.2 525,-473.2 525,-450.2 362,-450.2"/>
<text text-anchor="start" x="367" y="-458.8" font-family="Helvetica,sans-Serif" font-weight="bold" font-size="11.00" fill="#000000">ilmoitus_lisätiedot</text>
<text text-anchor="start" x="490.5219" y="-458.3" font-family="Helvetica,sans-Serif" font-size="11.00" fill="#000000">[table]</text>
<polygon fill="none" stroke="#000000" points="362,-428.2 362,-450.2 525,-450.2 525,-428.2 362,-428.2"/>
<image xlink:href="../../images/primaryKeys.png" width="11px" height="12px" preserveAspectRatio="xMinYMin meet" x="367" y="-445.2"/>
<text text-anchor="start" x="391" y="-435.3" font-family="Helvetica,sans-Serif" font-size="11.00" fill="#000000">ilmoitus_uuid</text>
<polygon fill="none" stroke="#000000" points="362,-406.2 362,-428.2 525,-428.2 525,-406.2 362,-406.2"/>
<text text-anchor="start" x="391" y="-413.3" font-family="Helvetica,sans-Serif" font-size="11.00" fill="#000000">data</text>
<polygon fill="#ffffff" stroke="transparent" points="362,-387.2 362,-406.2 442,-406.2 442,-387.2 362,-387.2"/>
<polygon fill="none" stroke="#000000" points="362,-387.2 362,-406.2 442,-406.2 442,-387.2 362,-387.2"/>
<text text-anchor="start" x="365" y="-393.3" font-family="Helvetica,sans-Serif" font-size="11.00" fill="#000000">&lt; 1</text>
<polygon fill="#ffffff" stroke="transparent" points="442,-387.2 442,-406.2 483,-406.2 483,-387.2 442,-387.2"/>
<polygon fill="none" stroke="#000000" points="442,-387.2 442,-406.2 483,-406.2 483,-387.2 442,-387.2"/>
<text text-anchor="start" x="473.8862" y="-393.3" font-family="Helvetica,sans-Serif" font-size="11.00" fill="#000000"> &#160;</text>
<polygon fill="#ffffff" stroke="transparent" points="483,-387.2 483,-406.2 525,-406.2 525,-387.2 483,-387.2"/>
<polygon fill="none" stroke="#000000" points="483,-387.2 483,-406.2 525,-406.2 525,-387.2 483,-387.2"/>
<text text-anchor="start" x="515.8862" y="-393.3" font-family="Helvetica,sans-Serif" font-size="11.00" fill="#000000"> &#160;</text>
</a>
</g>
</g>
<!-- ilmoitus_lisätiedot&#45;&gt;ilmoitus -->
<g id="edge1" class="edge">
<title>ilmoitus_lisätiedot:w&#45;&gt;ilmoitus:e</title>
<path fill="none" stroke="#000000" d="M351.4898,-439.7606C289.269,-446.6238 285.8704,-514.2 217,-514.2"/>
<polygon fill="#000000" stroke="#000000" points="360.9881,-435.2483 361.4142,-443.2369 359.8165,-443.3222 359.3903,-435.3335 360.9881,-435.2483"/>
<polyline fill="none" stroke="#000000" points="362,-439.2 358.0057,-439.4131 "/>
<ellipse fill="none" stroke="#000000" cx="354.8102" cy="-439.5835" rx="3.2" ry="3.2"/>
</g>
<!-- oppivelvollisuuden_keskeytyshistoria -->
<g id="node5" class="node">
<title>oppivelvollisuuden_keskeytyshistoria</title>
<g id="a_node5"><a xlink:href="../../tables/oppivelvollisuuden_keskeytyshistoria.html" xlink:title="oppivelvollisuuden_keskeytyshistoria" target="_top">
<polygon fill="#ffffff" stroke="transparent" points="297,-38.2 297,-322.2 589,-322.2 589,-38.2 297,-38.2"/>
<polygon fill="#f5f5f5" stroke="transparent" points="297,-299.2 297,-322.2 589,-322.2 589,-299.2 297,-299.2"/>
<polygon fill="none" stroke="#000000" points="297,-299.2 297,-322.2 589,-322.2 589,-299.2 297,-299.2"/>
<text text-anchor="start" x="302" y="-307.8" font-family="Helvetica,sans-Serif" font-weight="bold" font-size="11.00" fill="#000000">oppivelvollisuuden_keskeytyshistoria</text>
<text text-anchor="start" x="554.5219" y="-307.3" font-family="Helvetica,sans-Serif" font-size="11.00" fill="#000000">[table]</text>
<polygon fill="none" stroke="#000000" points="297,-277.2 297,-299.2 589,-299.2 589,-277.2 297,-277.2"/>
<image xlink:href="../../images/primaryKeys.png" width="11px" height="12px" preserveAspectRatio="xMinYMin meet" x="302" y="-294.2"/>
<text text-anchor="start" x="326" y="-284.3" font-family="Helvetica,sans-Serif" font-size="11.00" fill="#000000">id</text>
<polygon fill="none" stroke="#000000" points="297,-255.2 297,-277.2 589,-277.2 589,-255.2 297,-255.2"/>
<image xlink:href="../../images/foreignKeys.png" width="11px" height="12px" preserveAspectRatio="xMinYMin meet" x="302" y="-272.2"/>
<text text-anchor="start" x="326" y="-262.3" font-family="Helvetica,sans-Serif" font-size="11.00" fill="#000000">ov_keskeytys_uuid</text>
<polygon fill="none" stroke="#000000" points="297,-233.2 297,-255.2 589,-255.2 589,-233.2 297,-233.2"/>
<text text-anchor="start" x="326" y="-240.3" font-family="Helvetica,sans-Serif" font-size="11.00" fill="#000000">muutos_tehty</text>
<polygon fill="none" stroke="#000000" points="297,-211.2 297,-233.2 589,-233.2 589,-211.2 297,-211.2"/>
<text text-anchor="start" x="326" y="-218.3" font-family="Helvetica,sans-Serif" font-size="11.00" fill="#000000">muutoksen_tekija</text>
<polygon fill="none" stroke="#000000" points="297,-189.2 297,-211.2 589,-211.2 589,-189.2 297,-189.2"/>
<text text-anchor="start" x="326" y="-196.3" font-family="Helvetica,sans-Serif" font-size="11.00" fill="#000000">oppija_oid</text>
<polygon fill="none" stroke="#000000" points="297,-167.2 297,-189.2 589,-189.2 589,-167.2 297,-167.2"/>
<text text-anchor="start" x="326" y="-174.3" font-family="Helvetica,sans-Serif" font-size="11.00" fill="#000000">alku</text>
<polygon fill="none" stroke="#000000" points="297,-145.2 297,-167.2 589,-167.2 589,-145.2 297,-145.2"/>
<text text-anchor="start" x="326" y="-152.3" font-family="Helvetica,sans-Serif" font-size="11.00" fill="#000000">loppu</text>
<polygon fill="none" stroke="#000000" points="297,-123.2 297,-145.2 589,-145.2 589,-123.2 297,-123.2"/>
<text text-anchor="start" x="326" y="-130.3" font-family="Helvetica,sans-Serif" font-size="11.00" fill="#000000">luotu</text>
<polygon fill="none" stroke="#000000" points="297,-101.2 297,-123.2 589,-123.2 589,-101.2 297,-101.2"/>
<text text-anchor="start" x="326" y="-108.3" font-family="Helvetica,sans-Serif" font-size="11.00" fill="#000000">tekijä_oid</text>
<polygon fill="none" stroke="#000000" points="297,-79.2 297,-101.2 589,-101.2 589,-79.2 297,-79.2"/>
<text text-anchor="start" x="326" y="-86.3" font-family="Helvetica,sans-Serif" font-size="11.00" fill="#000000">tekijä_organisaatio_oid</text>
<polygon fill="none" stroke="#000000" points="297,-57.2 297,-79.2 589,-79.2 589,-57.2 297,-57.2"/>
<text text-anchor="start" x="326" y="-64.3" font-family="Helvetica,sans-Serif" font-size="11.00" fill="#000000">peruttu</text>
<polygon fill="#ffffff" stroke="transparent" points="297,-38.2 297,-57.2 441,-57.2 441,-38.2 297,-38.2"/>
<polygon fill="none" stroke="#000000" points="297,-38.2 297,-57.2 441,-57.2 441,-38.2 297,-38.2"/>
<text text-anchor="start" x="300" y="-44.3" font-family="Helvetica,sans-Serif" font-size="11.00" fill="#000000">&lt; 1</text>
<polygon fill="#ffffff" stroke="transparent" points="441,-38.2 441,-57.2 515,-57.2 515,-38.2 441,-38.2"/>
<polygon fill="none" stroke="#000000" points="441,-38.2 441,-57.2 515,-57.2 515,-38.2 441,-38.2"/>
<text text-anchor="start" x="505.8862" y="-44.3" font-family="Helvetica,sans-Serif" font-size="11.00" fill="#000000"> &#160;</text>
<polygon fill="#ffffff" stroke="transparent" points="515,-38.2 515,-57.2 589,-57.2 589,-38.2 515,-38.2"/>
<polygon fill="none" stroke="#000000" points="515,-38.2 515,-57.2 589,-57.2 589,-38.2 515,-38.2"/>
<text text-anchor="start" x="579.8862" y="-44.3" font-family="Helvetica,sans-Serif" font-size="11.00" fill="#000000"> &#160;</text>
</a>
</g>
</g>
<!-- oppivelvollisuuden_keskeytyshistoria&#45;&gt;oppivelvollisuuden_keskeytys -->
<g id="edge3" class="edge">
<title>oppivelvollisuuden_keskeytyshistoria:w&#45;&gt;oppivelvollisuuden_keskeytys:e</title>
<path fill="none" stroke="#000000" d="M282.4909,-266.2C271.1774,-266.2 263.9931,-266.2 248,-266.2"/>
<polygon fill="#000000" stroke="#000000" points="289,-266.2001 297,-269.8 293,-266.2 297,-266.2 297,-266.2 297,-266.2 293,-266.2 297,-262.6 289,-266.2001 289,-266.2001"/>
<ellipse fill="none" stroke="#000000" cx="285.8" cy="-266.2001" rx="3.2" ry="3.2"/>
</g>
</g>
</svg>
