<?xml version="1.0" encoding="UTF-8" standalone="no"?>
<!DOCTYPE svg PUBLIC "-//W3C//DTD SVG 1.1//EN"
 "http://www.w3.org/Graphics/SVG/1.1/DTD/svg11.dtd">
<!-- Generated by graphviz version 2.40.1 (20161225.0304)
 -->
<!-- Title: oneDegreeRelationshipsDiagram Pages: 1 -->
<svg width="471pt" height="492pt"
 viewBox="0.00 0.00 471.00 492.20" xmlns="http://www.w3.org/2000/svg" xmlns:xlink="http://www.w3.org/1999/xlink">
<g id="graph0" class="graph" transform="scale(1 1) rotate(0) translate(4 488.2)">
<title>oneDegreeRelationshipsDiagram</title>
<polygon fill="#ffffff" stroke="transparent" points="-4,4 -4,-488.2 467,-488.2 467,4 -4,4"/>
<text text-anchor="middle" x="72.4936" y="-7.3" font-family="Helvetica,sans-Serif" font-size="11.00" fill="#000000">Generated by SchemaSpy</text>
<!-- esiopetus_opiskeluoik_aikajakso -->
<g id="node1" class="node">
<title>esiopetus_opiskeluoik_aikajakso</title>
<g id="a_node1"><a xlink:href="../../tables/esiopetus_opiskeluoik_aikajakso.html" xlink:title="esiopetus_opiskeluoik_aikajakso" target="_top">
<polygon fill="#ffffff" stroke="transparent" points="8,-38.2 8,-480.2 455,-480.2 455,-38.2 8,-38.2"/>
<polygon fill="#f5f5f5" stroke="transparent" points="10.5,-455.2 10.5,-478.2 453.5,-478.2 453.5,-455.2 10.5,-455.2"/>
<polygon fill="none" stroke="#000000" points="10.5,-455.2 10.5,-478.2 453.5,-478.2 453.5,-455.2 10.5,-455.2"/>
<text text-anchor="start" x="15.5" y="-463.8" font-family="Helvetica,sans-Serif" font-weight="bold" font-size="11.00" fill="#000000">esiopetus_opiskeluoik_aikajakso</text>
<text text-anchor="start" x="418.5437" y="-463.3" font-family="Helvetica,sans-Serif" font-size="11.00" fill="#000000">[table]</text>
<polygon fill="#ffffff" stroke="transparent" points="10.5,-433.2 10.5,-455.2 344.5,-455.2 344.5,-433.2 10.5,-433.2"/>
<polygon fill="none" stroke="#000000" points="10.5,-433.2 10.5,-455.2 344.5,-455.2 344.5,-433.2 10.5,-433.2"/>
<text text-anchor="start" x="30.5" y="-440.3" font-family="Helvetica,sans-Serif" font-size="11.00" fill="#000000">opiskeluoikeus_oid</text>
<polygon fill="none" stroke="#000000" points="344.5,-433.2 344.5,-455.2 453.5,-455.2 453.5,-433.2 344.5,-433.2"/>
<text text-anchor="start" x="347.0344" y="-440.9" font-family="Helvetica,sans-Serif" font-size="11.00" fill="#000000">varchar[2147483647]</text>
<polygon fill="none" stroke="#000000" points="10.5,-411.2 10.5,-433.2 344.5,-433.2 344.5,-411.2 10.5,-411.2"/>
<text text-anchor="start" x="30.5" y="-418.3" font-family="Helvetica,sans-Serif" font-size="11.00" fill="#000000">alku</text>
<polygon fill="none" stroke="#000000" points="344.5,-411.2 344.5,-433.2 453.5,-433.2 453.5,-411.2 344.5,-411.2"/>
<text text-anchor="start" x="347.5" y="-418.9" font-family="Helvetica,sans-Serif" font-size="11.00" fill="#000000">date[13]</text>
<polygon fill="none" stroke="#000000" points="10.5,-389.2 10.5,-411.2 344.5,-411.2 344.5,-389.2 10.5,-389.2"/>
<text text-anchor="start" x="30.5" y="-396.3" font-family="Helvetica,sans-Serif" font-size="11.00" fill="#000000">loppu</text>
<polygon fill="none" stroke="#000000" points="344.5,-389.2 344.5,-411.2 453.5,-411.2 453.5,-389.2 344.5,-389.2"/>
<text text-anchor="start" x="347.5" y="-396.9" font-family="Helvetica,sans-Serif" font-size="11.00" fill="#000000">date[13]</text>
<polygon fill="none" stroke="#000000" points="10.5,-367.2 10.5,-389.2 344.5,-389.2 344.5,-367.2 10.5,-367.2"/>
<text text-anchor="start" x="30.5" y="-374.3" font-family="Helvetica,sans-Serif" font-size="11.00" fill="#000000">tila</text>
<polygon fill="none" stroke="#000000" points="344.5,-367.2 344.5,-389.2 453.5,-389.2 453.5,-367.2 344.5,-367.2"/>
<text text-anchor="start" x="347.0344" y="-374.9" font-family="Helvetica,sans-Serif" font-size="11.00" fill="#000000">varchar[2147483647]</text>
<polygon fill="none" stroke="#000000" points="10.5,-345.2 10.5,-367.2 344.5,-367.2 344.5,-345.2 10.5,-345.2"/>
<text text-anchor="start" x="30.5" y="-352.3" font-family="Helvetica,sans-Serif" font-size="11.00" fill="#000000">tila_alkanut</text>
<polygon fill="none" stroke="#000000" points="344.5,-345.2 344.5,-367.2 453.5,-367.2 453.5,-345.2 344.5,-345.2"/>
<text text-anchor="start" x="347.5" y="-352.9" font-family="Helvetica,sans-Serif" font-size="11.00" fill="#000000">date[13]</text>
<polygon fill="none" stroke="#000000" points="10.5,-323.2 10.5,-345.2 344.5,-345.2 344.5,-323.2 10.5,-323.2"/>
<text text-anchor="start" x="30.5" y="-330.3" font-family="Helvetica,sans-Serif" font-size="11.00" fill="#000000">opiskeluoikeus_paattynyt</text>
<polygon fill="none" stroke="#000000" points="344.5,-323.2 344.5,-345.2 453.5,-345.2 453.5,-323.2 344.5,-323.2"/>
<text text-anchor="start" x="347.5" y="-330.9" font-family="Helvetica,sans-Serif" font-size="11.00" fill="#000000">bool[1]</text>
<polygon fill="none" stroke="#000000" points="10.5,-301.2 10.5,-323.2 344.5,-323.2 344.5,-301.2 10.5,-301.2"/>
<text text-anchor="start" x="30.5" y="-308.3" font-family="Helvetica,sans-Serif" font-size="11.00" fill="#000000">pidennetty_oppivelvollisuus</text>
<polygon fill="none" stroke="#000000" points="344.5,-301.2 344.5,-323.2 453.5,-323.2 453.5,-301.2 344.5,-301.2"/>
<text text-anchor="start" x="347.5" y="-308.9" font-family="Helvetica,sans-Serif" font-size="11.00" fill="#000000">bool[1]</text>
<polygon fill="none" stroke="#000000" points="10.5,-279.2 10.5,-301.2 344.5,-301.2 344.5,-279.2 10.5,-279.2"/>
<text text-anchor="start" x="30.5" y="-286.3" font-family="Helvetica,sans-Serif" font-size="11.00" fill="#000000">tukimuodot</text>
<polygon fill="none" stroke="#000000" points="344.5,-279.2 344.5,-301.2 453.5,-301.2 453.5,-279.2 344.5,-279.2"/>
<text text-anchor="start" x="347.0344" y="-286.9" font-family="Helvetica,sans-Serif" font-size="11.00" fill="#000000">varchar[2147483647]</text>
<polygon fill="none" stroke="#000000" points="10.5,-257.2 10.5,-279.2 344.5,-279.2 344.5,-257.2 10.5,-257.2"/>
<text text-anchor="start" x="30.5" y="-264.3" font-family="Helvetica,sans-Serif" font-size="11.00" fill="#000000">erityisen_tuen_paatos</text>
<polygon fill="none" stroke="#000000" points="344.5,-257.2 344.5,-279.2 453.5,-279.2 453.5,-257.2 344.5,-257.2"/>
<text text-anchor="start" x="347.5" y="-264.9" font-family="Helvetica,sans-Serif" font-size="11.00" fill="#000000">bool[1]</text>
<polygon fill="none" stroke="#000000" points="10.5,-235.2 10.5,-257.2 344.5,-257.2 344.5,-235.2 10.5,-235.2"/>
<text text-anchor="start" x="30.5" y="-242.3" font-family="Helvetica,sans-Serif" font-size="11.00" fill="#000000">erityisen_tuen_paatos_opiskelee_toiminta_alueittain</text>
<polygon fill="none" stroke="#000000" points="344.5,-235.2 344.5,-257.2 453.5,-257.2 453.5,-235.2 344.5,-235.2"/>
<text text-anchor="start" x="347.5" y="-242.9" font-family="Helvetica,sans-Serif" font-size="11.00" fill="#000000">bool[1]</text>
<polygon fill="none" stroke="#000000" points="10.5,-213.2 10.5,-235.2 344.5,-235.2 344.5,-213.2 10.5,-213.2"/>
<text text-anchor="start" x="30.5" y="-220.3" font-family="Helvetica,sans-Serif" font-size="11.00" fill="#000000">erityisen_tuen_paatos_erityisryhmassa</text>
<polygon fill="none" stroke="#000000" points="344.5,-213.2 344.5,-235.2 453.5,-235.2 453.5,-213.2 344.5,-213.2"/>
<text text-anchor="start" x="347.5" y="-220.9" font-family="Helvetica,sans-Serif" font-size="11.00" fill="#000000">bool[1]</text>
<polygon fill="none" stroke="#000000" points="10.5,-191.2 10.5,-213.2 344.5,-213.2 344.5,-191.2 10.5,-191.2"/>
<text text-anchor="start" x="30.5" y="-198.3" font-family="Helvetica,sans-Serif" font-size="11.00" fill="#000000">erityisen_tuen_paatos_toteutuspaikka</text>
<polygon fill="none" stroke="#000000" points="344.5,-191.2 344.5,-213.2 453.5,-213.2 453.5,-191.2 344.5,-191.2"/>
<text text-anchor="start" x="347.0344" y="-198.9" font-family="Helvetica,sans-Serif" font-size="11.00" fill="#000000">varchar[2147483647]</text>
<polygon fill="none" stroke="#000000" points="10.5,-169.2 10.5,-191.2 344.5,-191.2 344.5,-169.2 10.5,-169.2"/>
<text text-anchor="start" x="30.5" y="-176.3" font-family="Helvetica,sans-Serif" font-size="11.00" fill="#000000">vammainen</text>
<polygon fill="none" stroke="#000000" points="344.5,-169.2 344.5,-191.2 453.5,-191.2 453.5,-169.2 344.5,-169.2"/>
<text text-anchor="start" x="347.5" y="-176.9" font-family="Helvetica,sans-Serif" font-size="11.00" fill="#000000">bool[1]</text>
<polygon fill="none" stroke="#000000" points="10.5,-147.2 10.5,-169.2 344.5,-169.2 344.5,-147.2 10.5,-147.2"/>
<text text-anchor="start" x="30.5" y="-154.3" font-family="Helvetica,sans-Serif" font-size="11.00" fill="#000000">vaikeasti_vammainen</text>
<polygon fill="none" stroke="#000000" points="344.5,-147.2 344.5,-169.2 453.5,-169.2 453.5,-147.2 344.5,-147.2"/>
<text text-anchor="start" x="347.5" y="-154.9" font-family="Helvetica,sans-Serif" font-size="11.00" fill="#000000">bool[1]</text>
<polygon fill="none" stroke="#000000" points="10.5,-125.2 10.5,-147.2 344.5,-147.2 344.5,-125.2 10.5,-125.2"/>
<text text-anchor="start" x="30.5" y="-132.3" font-family="Helvetica,sans-Serif" font-size="11.00" fill="#000000">majoitusetu</text>
<polygon fill="none" stroke="#000000" points="344.5,-125.2 344.5,-147.2 453.5,-147.2 453.5,-125.2 344.5,-125.2"/>
<text text-anchor="start" x="347.5" y="-132.9" font-family="Helvetica,sans-Serif" font-size="11.00" fill="#000000">bool[1]</text>
<polygon fill="none" stroke="#000000" points="10.5,-103.2 10.5,-125.2 344.5,-125.2 344.5,-103.2 10.5,-103.2"/>
<text text-anchor="start" x="30.5" y="-110.3" font-family="Helvetica,sans-Serif" font-size="11.00" fill="#000000">kuljetusetu</text>
<polygon fill="none" stroke="#000000" points="344.5,-103.2 344.5,-125.2 453.5,-125.2 453.5,-103.2 344.5,-103.2"/>
<text text-anchor="start" x="347.5" y="-110.9" font-family="Helvetica,sans-Serif" font-size="11.00" fill="#000000">bool[1]</text>
<polygon fill="none" stroke="#000000" points="10.5,-81.2 10.5,-103.2 344.5,-103.2 344.5,-81.2 10.5,-81.2"/>
<text text-anchor="start" x="30.5" y="-88.3" font-family="Helvetica,sans-Serif" font-size="11.00" fill="#000000">sisaoppilaitosmainen_majoitus</text>
<polygon fill="none" stroke="#000000" points="344.5,-81.2 344.5,-103.2 453.5,-103.2 453.5,-81.2 344.5,-81.2"/>
<text text-anchor="start" x="347.5" y="-88.9" font-family="Helvetica,sans-Serif" font-size="11.00" fill="#000000">bool[1]</text>
<polygon fill="none" stroke="#000000" points="10.5,-59.2 10.5,-81.2 344.5,-81.2 344.5,-59.2 10.5,-59.2"/>
<text text-anchor="start" x="30.5" y="-66.3" font-family="Helvetica,sans-Serif" font-size="11.00" fill="#000000">koulukoti</text>
<polygon fill="none" stroke="#000000" points="344.5,-59.2 344.5,-81.2 453.5,-81.2 453.5,-59.2 344.5,-59.2"/>
<text text-anchor="start" x="347.5" y="-66.9" font-family="Helvetica,sans-Serif" font-size="11.00" fill="#000000">bool[1]</text>
<polygon fill="#ffffff" stroke="transparent" points="10.5,-40.2 10.5,-59.2 165.5,-59.2 165.5,-40.2 10.5,-40.2"/>
<polygon fill="none" stroke="#000000" points="10.5,-40.2 10.5,-59.2 165.5,-59.2 165.5,-40.2 10.5,-40.2"/>
<text text-anchor="start" x="13.5" y="-46.3" font-family="Helvetica,sans-Serif" font-size="11.00" fill="#000000">&lt; 0</text>
<polygon fill="#ffffff" stroke="transparent" points="165.5,-40.2 165.5,-59.2 344.5,-59.2 344.5,-40.2 165.5,-40.2"/>
<polygon fill="none" stroke="#000000" points="165.5,-40.2 165.5,-59.2 344.5,-59.2 344.5,-40.2 165.5,-40.2"/>
<text text-anchor="start" x="302.9956" y="-46.3" font-family="Helvetica,sans-Serif" font-size="11.00" fill="#000000">21 rows</text>
<polygon fill="#ffffff" stroke="transparent" points="344.5,-40.2 344.5,-59.2 453.5,-59.2 453.5,-40.2 344.5,-40.2"/>
<polygon fill="none" stroke="#000000" points="344.5,-40.2 344.5,-59.2 453.5,-59.2 453.5,-40.2 344.5,-40.2"/>
<text text-anchor="start" x="434.9053" y="-46.3" font-family="Helvetica,sans-Serif" font-size="11.00" fill="#000000">0 &gt;</text>
<polygon fill="none" stroke="#000000" stroke-width="2" points="9,-39.2 9,-479.2 454,-479.2 454,-39.2 9,-39.2"/>
</a>
</g>
</g>
</g>
</svg>
