<?xml version="1.0" encoding="UTF-8" standalone="no"?>
<!DOCTYPE svg PUBLIC "-//W3C//DTD SVG 1.1//EN"
 "http://www.w3.org/Graphics/SVG/1.1/DTD/svg11.dtd">
<!-- Generated by graphviz version 2.40.1 (20161225.0304)
 -->
<!-- Title: oneDegreeRelationshipsDiagram Pages: 1 -->
<svg width="472pt" height="492pt"
 viewBox="0.00 0.00 472.00 492.20" xmlns="http://www.w3.org/2000/svg" xmlns:xlink="http://www.w3.org/1999/xlink">
<g id="graph0" class="graph" transform="scale(1 1) rotate(0) translate(4 488.2)">
<title>oneDegreeRelationshipsDiagram</title>
<polygon fill="#ffffff" stroke="transparent" points="-4,4 -4,-488.2 468,-488.2 468,4 -4,4"/>
<text text-anchor="middle" x="72.4936" y="-7.3" font-family="Helvetica,sans-Serif" font-size="11.00" fill="#000000">Generated by SchemaSpy</text>
<!-- esiopetus_opiskeluoik_aikajakso -->
<g id="node1" class="node">
<title>esiopetus_opiskeluoik_aikajakso</title>
<g id="a_node1"><a xlink:href="../../tables/esiopetus_opiskeluoik_aikajakso.html" xlink:title="esiopetus_opiskeluoik_aikajakso" target="_top">
<polygon fill="#ffffff" stroke="transparent" points="8,-38.2 8,-480.2 456,-480.2 456,-38.2 8,-38.2"/>
<polygon fill="#f5f5f5" stroke="transparent" points="10,-455.2 10,-478.2 454,-478.2 454,-455.2 10,-455.2"/>
<polygon fill="none" stroke="#000000" points="10,-455.2 10,-478.2 454,-478.2 454,-455.2 10,-455.2"/>
<text text-anchor="start" x="15" y="-463.8" font-family="Helvetica,sans-Serif" font-weight="bold" font-size="11.00" fill="#000000">esiopetus_opiskeluoik_aikajakso</text>
<text text-anchor="start" x="419.0437" y="-463.3" font-family="Helvetica,sans-Serif" font-size="11.00" fill="#000000">[table]</text>
<polygon fill="#ffffff" stroke="transparent" points="10,-433.2 10,-455.2 345,-455.2 345,-433.2 10,-433.2"/>
<polygon fill="none" stroke="#000000" points="10,-433.2 10,-455.2 345,-455.2 345,-433.2 10,-433.2"/>
<text text-anchor="start" x="30" y="-440.3" font-family="Helvetica,sans-Serif" font-size="11.00" fill="#000000">opiskeluoikeus_oid</text>
<polygon fill="none" stroke="#000000" points="345,-433.2 345,-455.2 454,-455.2 454,-433.2 345,-433.2"/>
<text text-anchor="start" x="347.5344" y="-440.9" font-family="Helvetica,sans-Serif" font-size="11.00" fill="#000000">varchar[2147483647]</text>
<polygon fill="none" stroke="#000000" points="10,-411.2 10,-433.2 345,-433.2 345,-411.2 10,-411.2"/>
<text text-anchor="start" x="30" y="-418.3" font-family="Helvetica,sans-Serif" font-size="11.00" fill="#000000">alku</text>
<polygon fill="none" stroke="#000000" points="345,-411.2 345,-433.2 454,-433.2 454,-411.2 345,-411.2"/>
<text text-anchor="start" x="348" y="-418.9" font-family="Helvetica,sans-Serif" font-size="11.00" fill="#000000">date[13]</text>
<polygon fill="none" stroke="#000000" points="10,-389.2 10,-411.2 345,-411.2 345,-389.2 10,-389.2"/>
<text text-anchor="start" x="30" y="-396.3" font-family="Helvetica,sans-Serif" font-size="11.00" fill="#000000">loppu</text>
<polygon fill="none" stroke="#000000" points="345,-389.2 345,-411.2 454,-411.2 454,-389.2 345,-389.2"/>
<text text-anchor="start" x="348" y="-396.9" font-family="Helvetica,sans-Serif" font-size="11.00" fill="#000000">date[13]</text>
<polygon fill="none" stroke="#000000" points="10,-367.2 10,-389.2 345,-389.2 345,-367.2 10,-367.2"/>
<text text-anchor="start" x="30" y="-374.3" font-family="Helvetica,sans-Serif" font-size="11.00" fill="#000000">tila</text>
<polygon fill="none" stroke="#000000" points="345,-367.2 345,-389.2 454,-389.2 454,-367.2 345,-367.2"/>
<text text-anchor="start" x="347.5344" y="-374.9" font-family="Helvetica,sans-Serif" font-size="11.00" fill="#000000">varchar[2147483647]</text>
<polygon fill="none" stroke="#000000" points="10,-345.2 10,-367.2 345,-367.2 345,-345.2 10,-345.2"/>
<text text-anchor="start" x="30" y="-352.3" font-family="Helvetica,sans-Serif" font-size="11.00" fill="#000000">tila_alkanut</text>
<polygon fill="none" stroke="#000000" points="345,-345.2 345,-367.2 454,-367.2 454,-345.2 345,-345.2"/>
<text text-anchor="start" x="348" y="-352.9" font-family="Helvetica,sans-Serif" font-size="11.00" fill="#000000">date[13]</text>
<polygon fill="none" stroke="#000000" points="10,-323.2 10,-345.2 345,-345.2 345,-323.2 10,-323.2"/>
<text text-anchor="start" x="30" y="-330.3" font-family="Helvetica,sans-Serif" font-size="11.00" fill="#000000">opiskeluoikeus_paattynyt</text>
<polygon fill="none" stroke="#000000" points="345,-323.2 345,-345.2 454,-345.2 454,-323.2 345,-323.2"/>
<text text-anchor="start" x="348" y="-330.9" font-family="Helvetica,sans-Serif" font-size="11.00" fill="#000000">bool[1]</text>
<polygon fill="none" stroke="#000000" points="10,-301.2 10,-323.2 345,-323.2 345,-301.2 10,-301.2"/>
<text text-anchor="start" x="30" y="-308.3" font-family="Helvetica,sans-Serif" font-size="11.00" fill="#000000">pidennetty_oppivelvollisuus</text>
<polygon fill="none" stroke="#000000" points="345,-301.2 345,-323.2 454,-323.2 454,-301.2 345,-301.2"/>
<text text-anchor="start" x="348" y="-308.9" font-family="Helvetica,sans-Serif" font-size="11.00" fill="#000000">bool[1]</text>
<polygon fill="none" stroke="#000000" points="10,-279.2 10,-301.2 345,-301.2 345,-279.2 10,-279.2"/>
<text text-anchor="start" x="30" y="-286.3" font-family="Helvetica,sans-Serif" font-size="11.00" fill="#000000">tukimuodot</text>
<polygon fill="none" stroke="#000000" points="345,-279.2 345,-301.2 454,-301.2 454,-279.2 345,-279.2"/>
<text text-anchor="start" x="347.5344" y="-286.9" font-family="Helvetica,sans-Serif" font-size="11.00" fill="#000000">varchar[2147483647]</text>
<polygon fill="none" stroke="#000000" points="10,-257.2 10,-279.2 345,-279.2 345,-257.2 10,-257.2"/>
<text text-anchor="start" x="30" y="-264.3" font-family="Helvetica,sans-Serif" font-size="11.00" fill="#000000">erityisen_tuen_paatos</text>
<polygon fill="none" stroke="#000000" points="345,-257.2 345,-279.2 454,-279.2 454,-257.2 345,-257.2"/>
<text text-anchor="start" x="348" y="-264.9" font-family="Helvetica,sans-Serif" font-size="11.00" fill="#000000">bool[1]</text>
<polygon fill="none" stroke="#000000" points="10,-235.2 10,-257.2 345,-257.2 345,-235.2 10,-235.2"/>
<text text-anchor="start" x="30" y="-242.3" font-family="Helvetica,sans-Serif" font-size="11.00" fill="#000000">erityisen_tuen_paatos_opiskelee_toiminta_alueittain</text>
<polygon fill="none" stroke="#000000" points="345,-235.2 345,-257.2 454,-257.2 454,-235.2 345,-235.2"/>
<text text-anchor="start" x="348" y="-242.9" font-family="Helvetica,sans-Serif" font-size="11.00" fill="#000000">bool[1]</text>
<polygon fill="none" stroke="#000000" points="10,-213.2 10,-235.2 345,-235.2 345,-213.2 10,-213.2"/>
<text text-anchor="start" x="30" y="-220.3" font-family="Helvetica,sans-Serif" font-size="11.00" fill="#000000">erityisen_tuen_paatos_erityisryhmassa</text>
<polygon fill="none" stroke="#000000" points="345,-213.2 345,-235.2 454,-235.2 454,-213.2 345,-213.2"/>
<text text-anchor="start" x="348" y="-220.9" font-family="Helvetica,sans-Serif" font-size="11.00" fill="#000000">bool[1]</text>
<polygon fill="none" stroke="#000000" points="10,-191.2 10,-213.2 345,-213.2 345,-191.2 10,-191.2"/>
<text text-anchor="start" x="30" y="-198.3" font-family="Helvetica,sans-Serif" font-size="11.00" fill="#000000">erityisen_tuen_paatos_toteutuspaikka</text>
<polygon fill="none" stroke="#000000" points="345,-191.2 345,-213.2 454,-213.2 454,-191.2 345,-191.2"/>
<text text-anchor="start" x="347.5344" y="-198.9" font-family="Helvetica,sans-Serif" font-size="11.00" fill="#000000">varchar[2147483647]</text>
<polygon fill="none" stroke="#000000" points="10,-169.2 10,-191.2 345,-191.2 345,-169.2 10,-169.2"/>
<text text-anchor="start" x="30" y="-176.3" font-family="Helvetica,sans-Serif" font-size="11.00" fill="#000000">vammainen</text>
<polygon fill="none" stroke="#000000" points="345,-169.2 345,-191.2 454,-191.2 454,-169.2 345,-169.2"/>
<text text-anchor="start" x="348" y="-176.9" font-family="Helvetica,sans-Serif" font-size="11.00" fill="#000000">bool[1]</text>
<polygon fill="none" stroke="#000000" points="10,-147.2 10,-169.2 345,-169.2 345,-147.2 10,-147.2"/>
<text text-anchor="start" x="30" y="-154.3" font-family="Helvetica,sans-Serif" font-size="11.00" fill="#000000">vaikeasti_vammainen</text>
<polygon fill="none" stroke="#000000" points="345,-147.2 345,-169.2 454,-169.2 454,-147.2 345,-147.2"/>
<text text-anchor="start" x="348" y="-154.9" font-family="Helvetica,sans-Serif" font-size="11.00" fill="#000000">bool[1]</text>
<polygon fill="none" stroke="#000000" points="10,-125.2 10,-147.2 345,-147.2 345,-125.2 10,-125.2"/>
<text text-anchor="start" x="30" y="-132.3" font-family="Helvetica,sans-Serif" font-size="11.00" fill="#000000">majoitusetu</text>
<polygon fill="none" stroke="#000000" points="345,-125.2 345,-147.2 454,-147.2 454,-125.2 345,-125.2"/>
<text text-anchor="start" x="348" y="-132.9" font-family="Helvetica,sans-Serif" font-size="11.00" fill="#000000">bool[1]</text>
<polygon fill="none" stroke="#000000" points="10,-103.2 10,-125.2 345,-125.2 345,-103.2 10,-103.2"/>
<text text-anchor="start" x="30" y="-110.3" font-family="Helvetica,sans-Serif" font-size="11.00" fill="#000000">kuljetusetu</text>
<polygon fill="none" stroke="#000000" points="345,-103.2 345,-125.2 454,-125.2 454,-103.2 345,-103.2"/>
<text text-anchor="start" x="348" y="-110.9" font-family="Helvetica,sans-Serif" font-size="11.00" fill="#000000">bool[1]</text>
<polygon fill="none" stroke="#000000" points="10,-81.2 10,-103.2 345,-103.2 345,-81.2 10,-81.2"/>
<text text-anchor="start" x="30" y="-88.3" font-family="Helvetica,sans-Serif" font-size="11.00" fill="#000000">sisaoppilaitosmainen_majoitus</text>
<polygon fill="none" stroke="#000000" points="345,-81.2 345,-103.2 454,-103.2 454,-81.2 345,-81.2"/>
<text text-anchor="start" x="348" y="-88.9" font-family="Helvetica,sans-Serif" font-size="11.00" fill="#000000">bool[1]</text>
<polygon fill="none" stroke="#000000" points="10,-59.2 10,-81.2 345,-81.2 345,-59.2 10,-59.2"/>
<text text-anchor="start" x="30" y="-66.3" font-family="Helvetica,sans-Serif" font-size="11.00" fill="#000000">koulukoti</text>
<polygon fill="none" stroke="#000000" points="345,-59.2 345,-81.2 454,-81.2 454,-59.2 345,-59.2"/>
<text text-anchor="start" x="348" y="-66.9" font-family="Helvetica,sans-Serif" font-size="11.00" fill="#000000">bool[1]</text>
<polygon fill="#ffffff" stroke="transparent" points="10,-40.2 10,-59.2 166,-59.2 166,-40.2 10,-40.2"/>
<polygon fill="none" stroke="#000000" points="10,-40.2 10,-59.2 166,-59.2 166,-40.2 10,-40.2"/>
<text text-anchor="start" x="13" y="-46.3" font-family="Helvetica,sans-Serif" font-size="11.00" fill="#000000">&lt; 0</text>
<polygon fill="#ffffff" stroke="transparent" points="166,-40.2 166,-59.2 345,-59.2 345,-40.2 166,-40.2"/>
<polygon fill="none" stroke="#000000" points="166,-40.2 166,-59.2 345,-59.2 345,-40.2 166,-40.2"/>
<text text-anchor="start" x="303.4956" y="-46.3" font-family="Helvetica,sans-Serif" font-size="11.00" fill="#000000">16 rows</text>
<polygon fill="#ffffff" stroke="transparent" points="345,-40.2 345,-59.2 454,-59.2 454,-40.2 345,-40.2"/>
<polygon fill="none" stroke="#000000" points="345,-40.2 345,-59.2 454,-59.2 454,-40.2 345,-40.2"/>
<text text-anchor="start" x="435.4053" y="-46.3" font-family="Helvetica,sans-Serif" font-size="11.00" fill="#000000">0 &gt;</text>
<polygon fill="none" stroke="#000000" stroke-width="2" points="9,-39.2 9,-479.2 455,-479.2 455,-39.2 9,-39.2"/>
</a>
</g>
</g>
</g>
</svg>
