<?xml version="1.0" encoding="UTF-8" standalone="no"?>
<!DOCTYPE svg PUBLIC "-//W3C//DTD SVG 1.1//EN"
 "http://www.w3.org/Graphics/SVG/1.1/DTD/svg11.dtd">
<!-- Generated by graphviz version 2.40.1 (20161225.0304)
 -->
<!-- Title: oneDegreeRelationshipsDiagram Pages: 1 -->
<svg width="458pt" height="492pt"
 viewBox="0.00 0.00 458.00 492.20" xmlns="http://www.w3.org/2000/svg" xmlns:xlink="http://www.w3.org/1999/xlink">
<g id="graph0" class="graph" transform="scale(1 1) rotate(0) translate(4 488.2)">
<title>oneDegreeRelationshipsDiagram</title>
<polygon fill="#ffffff" stroke="transparent" points="-4,4 -4,-488.2 454,-488.2 454,4 -4,4"/>
<text text-anchor="middle" x="72.4936" y="-7.3" font-family="Helvetica,sans-Serif" font-size="11.00" fill="#000000">Generated by SchemaSpy</text>
<!-- esiopetus_opiskeluoik_aikajakso -->
<g id="node1" class="node">
<title>esiopetus_opiskeluoik_aikajakso</title>
<g id="a_node1"><a xlink:href="../../tables/esiopetus_opiskeluoik_aikajakso.html" xlink:title="esiopetus_opiskeluoik_aikajakso" target="_top">
<polygon fill="#ffffff" stroke="transparent" points="8,-38.2 8,-480.2 442,-480.2 442,-38.2 8,-38.2"/>
<polygon fill="#f5f5f5" stroke="transparent" points="10,-455.2 10,-478.2 440,-478.2 440,-455.2 10,-455.2"/>
<polygon fill="none" stroke="#000000" points="10,-455.2 10,-478.2 440,-478.2 440,-455.2 10,-455.2"/>
<text text-anchor="start" x="15" y="-463.8" font-family="Helvetica,sans-Serif" font-weight="bold" font-size="11.00" fill="#000000">esiopetus_opiskeluoik_aikajakso</text>
<text text-anchor="start" x="405.0437" y="-463.3" font-family="Helvetica,sans-Serif" font-size="11.00" fill="#000000">[table]</text>
<polygon fill="#ffffff" stroke="transparent" points="10,-433.2 10,-455.2 331,-455.2 331,-433.2 10,-433.2"/>
<polygon fill="none" stroke="#000000" points="10,-433.2 10,-455.2 331,-455.2 331,-433.2 10,-433.2"/>
<text text-anchor="start" x="30" y="-440.3" font-family="Helvetica,sans-Serif" font-size="11.00" fill="#000000">opiskeluoikeus_oid</text>
<polygon fill="none" stroke="#000000" points="331,-433.2 331,-455.2 440,-455.2 440,-433.2 331,-433.2"/>
<text text-anchor="start" x="333.5344" y="-440.9" font-family="Helvetica,sans-Serif" font-size="11.00" fill="#000000">varchar[2147483647]</text>
<polygon fill="none" stroke="#000000" points="10,-411.2 10,-433.2 331,-433.2 331,-411.2 10,-411.2"/>
<text text-anchor="start" x="30" y="-418.3" font-family="Helvetica,sans-Serif" font-size="11.00" fill="#000000">alku</text>
<polygon fill="none" stroke="#000000" points="331,-411.2 331,-433.2 440,-433.2 440,-411.2 331,-411.2"/>
<text text-anchor="start" x="334" y="-418.9" font-family="Helvetica,sans-Serif" font-size="11.00" fill="#000000">date[13]</text>
<polygon fill="none" stroke="#000000" points="10,-389.2 10,-411.2 331,-411.2 331,-389.2 10,-389.2"/>
<text text-anchor="start" x="30" y="-396.3" font-family="Helvetica,sans-Serif" font-size="11.00" fill="#000000">loppu</text>
<polygon fill="none" stroke="#000000" points="331,-389.2 331,-411.2 440,-411.2 440,-389.2 331,-389.2"/>
<text text-anchor="start" x="334" y="-396.9" font-family="Helvetica,sans-Serif" font-size="11.00" fill="#000000">date[13]</text>
<polygon fill="none" stroke="#000000" points="10,-367.2 10,-389.2 331,-389.2 331,-367.2 10,-367.2"/>
<text text-anchor="start" x="30" y="-374.3" font-family="Helvetica,sans-Serif" font-size="11.00" fill="#000000">tila</text>
<polygon fill="none" stroke="#000000" points="331,-367.2 331,-389.2 440,-389.2 440,-367.2 331,-367.2"/>
<text text-anchor="start" x="333.5344" y="-374.9" font-family="Helvetica,sans-Serif" font-size="11.00" fill="#000000">varchar[2147483647]</text>
<polygon fill="none" stroke="#000000" points="10,-345.2 10,-367.2 331,-367.2 331,-345.2 10,-345.2"/>
<text text-anchor="start" x="30" y="-352.3" font-family="Helvetica,sans-Serif" font-size="11.00" fill="#000000">tila_alkanut</text>
<polygon fill="none" stroke="#000000" points="331,-345.2 331,-367.2 440,-367.2 440,-345.2 331,-345.2"/>
<text text-anchor="start" x="334" y="-352.9" font-family="Helvetica,sans-Serif" font-size="11.00" fill="#000000">date[13]</text>
<polygon fill="none" stroke="#000000" points="10,-323.2 10,-345.2 331,-345.2 331,-323.2 10,-323.2"/>
<text text-anchor="start" x="30" y="-330.3" font-family="Helvetica,sans-Serif" font-size="11.00" fill="#000000">opiskeluoikeus_paattynyt</text>
<polygon fill="none" stroke="#000000" points="331,-323.2 331,-345.2 440,-345.2 440,-323.2 331,-323.2"/>
<text text-anchor="start" x="334" y="-330.9" font-family="Helvetica,sans-Serif" font-size="11.00" fill="#000000">bool[1]</text>
<polygon fill="none" stroke="#000000" points="10,-301.2 10,-323.2 331,-323.2 331,-301.2 10,-301.2"/>
<text text-anchor="start" x="30" y="-308.3" font-family="Helvetica,sans-Serif" font-size="11.00" fill="#000000">pidennetty_oppivelvollisuus</text>
<polygon fill="none" stroke="#000000" points="331,-301.2 331,-323.2 440,-323.2 440,-301.2 331,-301.2"/>
<text text-anchor="start" x="334" y="-308.9" font-family="Helvetica,sans-Serif" font-size="11.00" fill="#000000">bool[1]</text>
<polygon fill="none" stroke="#000000" points="10,-279.2 10,-301.2 331,-301.2 331,-279.2 10,-279.2"/>
<text text-anchor="start" x="30" y="-286.3" font-family="Helvetica,sans-Serif" font-size="11.00" fill="#000000">tukimuodot</text>
<polygon fill="none" stroke="#000000" points="331,-279.2 331,-301.2 440,-301.2 440,-279.2 331,-279.2"/>
<text text-anchor="start" x="333.5344" y="-286.9" font-family="Helvetica,sans-Serif" font-size="11.00" fill="#000000">varchar[2147483647]</text>
<polygon fill="none" stroke="#000000" points="10,-257.2 10,-279.2 331,-279.2 331,-257.2 10,-257.2"/>
<text text-anchor="start" x="30" y="-264.3" font-family="Helvetica,sans-Serif" font-size="11.00" fill="#000000">erityisen_tuen_paatos</text>
<polygon fill="none" stroke="#000000" points="331,-257.2 331,-279.2 440,-279.2 440,-257.2 331,-257.2"/>
<text text-anchor="start" x="334" y="-264.9" font-family="Helvetica,sans-Serif" font-size="11.00" fill="#000000">bool[1]</text>
<polygon fill="none" stroke="#000000" points="10,-235.2 10,-257.2 331,-257.2 331,-235.2 10,-235.2"/>
<text text-anchor="start" x="30" y="-242.3" font-family="Helvetica,sans-Serif" font-size="11.00" fill="#000000">erityisen_tuen_paatos_opiskelee_toiminta_alueittain</text>
<polygon fill="none" stroke="#000000" points="331,-235.2 331,-257.2 440,-257.2 440,-235.2 331,-235.2"/>
<text text-anchor="start" x="334" y="-242.9" font-family="Helvetica,sans-Serif" font-size="11.00" fill="#000000">bool[1]</text>
<polygon fill="none" stroke="#000000" points="10,-213.2 10,-235.2 331,-235.2 331,-213.2 10,-213.2"/>
<text text-anchor="start" x="30" y="-220.3" font-family="Helvetica,sans-Serif" font-size="11.00" fill="#000000">erityisen_tuen_paatos_erityisryhmassa</text>
<polygon fill="none" stroke="#000000" points="331,-213.2 331,-235.2 440,-235.2 440,-213.2 331,-213.2"/>
<text text-anchor="start" x="334" y="-220.9" font-family="Helvetica,sans-Serif" font-size="11.00" fill="#000000">bool[1]</text>
<polygon fill="none" stroke="#000000" points="10,-191.2 10,-213.2 331,-213.2 331,-191.2 10,-191.2"/>
<text text-anchor="start" x="30" y="-198.3" font-family="Helvetica,sans-Serif" font-size="11.00" fill="#000000">erityisen_tuen_paatos_toteutuspaikka</text>
<polygon fill="none" stroke="#000000" points="331,-191.2 331,-213.2 440,-213.2 440,-191.2 331,-191.2"/>
<text text-anchor="start" x="333.5344" y="-198.9" font-family="Helvetica,sans-Serif" font-size="11.00" fill="#000000">varchar[2147483647]</text>
<polygon fill="none" stroke="#000000" points="10,-169.2 10,-191.2 331,-191.2 331,-169.2 10,-169.2"/>
<text text-anchor="start" x="30" y="-176.3" font-family="Helvetica,sans-Serif" font-size="11.00" fill="#000000">vammainen</text>
<polygon fill="none" stroke="#000000" points="331,-169.2 331,-191.2 440,-191.2 440,-169.2 331,-169.2"/>
<text text-anchor="start" x="334" y="-176.9" font-family="Helvetica,sans-Serif" font-size="11.00" fill="#000000">bool[1]</text>
<polygon fill="none" stroke="#000000" points="10,-147.2 10,-169.2 331,-169.2 331,-147.2 10,-147.2"/>
<text text-anchor="start" x="30" y="-154.3" font-family="Helvetica,sans-Serif" font-size="11.00" fill="#000000">vaikeasti_vammainen</text>
<polygon fill="none" stroke="#000000" points="331,-147.2 331,-169.2 440,-169.2 440,-147.2 331,-147.2"/>
<text text-anchor="start" x="334" y="-154.9" font-family="Helvetica,sans-Serif" font-size="11.00" fill="#000000">bool[1]</text>
<polygon fill="none" stroke="#000000" points="10,-125.2 10,-147.2 331,-147.2 331,-125.2 10,-125.2"/>
<text text-anchor="start" x="30" y="-132.3" font-family="Helvetica,sans-Serif" font-size="11.00" fill="#000000">majoitusetu</text>
<polygon fill="none" stroke="#000000" points="331,-125.2 331,-147.2 440,-147.2 440,-125.2 331,-125.2"/>
<text text-anchor="start" x="334" y="-132.9" font-family="Helvetica,sans-Serif" font-size="11.00" fill="#000000">bool[1]</text>
<polygon fill="none" stroke="#000000" points="10,-103.2 10,-125.2 331,-125.2 331,-103.2 10,-103.2"/>
<text text-anchor="start" x="30" y="-110.3" font-family="Helvetica,sans-Serif" font-size="11.00" fill="#000000">kuljetusetu</text>
<polygon fill="none" stroke="#000000" points="331,-103.2 331,-125.2 440,-125.2 440,-103.2 331,-103.2"/>
<text text-anchor="start" x="334" y="-110.9" font-family="Helvetica,sans-Serif" font-size="11.00" fill="#000000">bool[1]</text>
<polygon fill="none" stroke="#000000" points="10,-81.2 10,-103.2 331,-103.2 331,-81.2 10,-81.2"/>
<text text-anchor="start" x="30" y="-88.3" font-family="Helvetica,sans-Serif" font-size="11.00" fill="#000000">sisaoppilaitosmainen_majoitus</text>
<polygon fill="none" stroke="#000000" points="331,-81.2 331,-103.2 440,-103.2 440,-81.2 331,-81.2"/>
<text text-anchor="start" x="334" y="-88.9" font-family="Helvetica,sans-Serif" font-size="11.00" fill="#000000">bool[1]</text>
<polygon fill="none" stroke="#000000" points="10,-59.2 10,-81.2 331,-81.2 331,-59.2 10,-59.2"/>
<text text-anchor="start" x="30" y="-66.3" font-family="Helvetica,sans-Serif" font-size="11.00" fill="#000000">koulukoti</text>
<polygon fill="none" stroke="#000000" points="331,-59.2 331,-81.2 440,-81.2 440,-59.2 331,-59.2"/>
<text text-anchor="start" x="334" y="-66.9" font-family="Helvetica,sans-Serif" font-size="11.00" fill="#000000">bool[1]</text>
<polygon fill="#ffffff" stroke="transparent" points="10,-40.2 10,-59.2 159,-59.2 159,-40.2 10,-40.2"/>
<polygon fill="none" stroke="#000000" points="10,-40.2 10,-59.2 159,-59.2 159,-40.2 10,-40.2"/>
<text text-anchor="start" x="13" y="-46.3" font-family="Helvetica,sans-Serif" font-size="11.00" fill="#000000">&lt; 0</text>
<polygon fill="#ffffff" stroke="transparent" points="159,-40.2 159,-59.2 331,-59.2 331,-40.2 159,-40.2"/>
<polygon fill="none" stroke="#000000" points="159,-40.2 159,-59.2 331,-59.2 331,-40.2 159,-40.2"/>
<text text-anchor="start" x="289.4956" y="-46.3" font-family="Helvetica,sans-Serif" font-size="11.00" fill="#000000">16 rows</text>
<polygon fill="#ffffff" stroke="transparent" points="331,-40.2 331,-59.2 440,-59.2 440,-40.2 331,-40.2"/>
<polygon fill="none" stroke="#000000" points="331,-40.2 331,-59.2 440,-59.2 440,-40.2 331,-40.2"/>
<text text-anchor="start" x="421.4053" y="-46.3" font-family="Helvetica,sans-Serif" font-size="11.00" fill="#000000">0 &gt;</text>
<polygon fill="none" stroke="#000000" stroke-width="2" points="9,-39.2 9,-479.2 441,-479.2 441,-39.2 9,-39.2"/>
</a>
</g>
</g>
</g>
</svg>
