<?xml version="1.0" encoding="UTF-8" standalone="no"?>
<!DOCTYPE svg PUBLIC "-//W3C//DTD SVG 1.1//EN"
 "http://www.w3.org/Graphics/SVG/1.1/DTD/svg11.dtd">
<!-- Generated by graphviz version 2.40.1 (20161225.0304)
 -->
<!-- Title: oneDegreeRelationshipsDiagram Pages: 1 -->
<svg width="521pt" height="536pt"
 viewBox="0.00 0.00 521.00 536.20" xmlns="http://www.w3.org/2000/svg" xmlns:xlink="http://www.w3.org/1999/xlink">
<g id="graph0" class="graph" transform="scale(1 1) rotate(0) translate(4 532.2)">
<title>oneDegreeRelationshipsDiagram</title>
<polygon fill="#ffffff" stroke="transparent" points="-4,4 -4,-532.2 517,-532.2 517,4 -4,4"/>
<text text-anchor="middle" x="72.4936" y="-7.3" font-family="Helvetica,sans-Serif" font-size="11.00" fill="#000000">Generated by SchemaSpy</text>
<!-- lukion_oppiaineen_oppimaaran_kurssikertyma -->
<g id="node1" class="node">
<title>lukion_oppiaineen_oppimaaran_kurssikertyma</title>
<g id="a_node1"><a xlink:href="../../tables/lukion_oppiaineen_oppimaaran_ku_922d7fe1.html" xlink:title="lukion_oppiaineen_oppimaaran_kurssikertyma" target="_top">
<polygon fill="#ffffff" stroke="transparent" points="8,-38.2 8,-524.2 505,-524.2 505,-38.2 8,-38.2"/>
<polygon fill="#f5f5f5" stroke="transparent" points="10.5,-499.2 10.5,-522.2 503.5,-522.2 503.5,-499.2 10.5,-499.2"/>
<polygon fill="none" stroke="#000000" points="10.5,-499.2 10.5,-522.2 503.5,-522.2 503.5,-499.2 10.5,-499.2"/>
<text text-anchor="start" x="15.5" y="-507.8" font-family="Helvetica,sans-Serif" font-weight="bold" font-size="11.00" fill="#000000">lukion_oppiaineen_oppimaaran_kurssikertyma</text>
<text text-anchor="start" x="468.5437" y="-507.3" font-family="Helvetica,sans-Serif" font-size="11.00" fill="#000000">[table]</text>
<polygon fill="#ffffff" stroke="transparent" points="10.5,-477.2 10.5,-499.2 394.5,-499.2 394.5,-477.2 10.5,-477.2"/>
<polygon fill="none" stroke="#000000" points="10.5,-477.2 10.5,-499.2 394.5,-499.2 394.5,-477.2 10.5,-477.2"/>
<text text-anchor="start" x="30.5" y="-484.3" font-family="Helvetica,sans-Serif" font-size="11.00" fill="#000000">oppilaitos_oid</text>
<polygon fill="none" stroke="#000000" points="394.5,-477.2 394.5,-499.2 503.5,-499.2 503.5,-477.2 394.5,-477.2"/>
<text text-anchor="start" x="397.0344" y="-484.9" font-family="Helvetica,sans-Serif" font-size="11.00" fill="#000000">varchar[2147483647]</text>
<polygon fill="#ffffff" stroke="transparent" points="10.5,-455.2 10.5,-477.2 394.5,-477.2 394.5,-455.2 10.5,-455.2"/>
<polygon fill="none" stroke="#000000" points="10.5,-455.2 10.5,-477.2 394.5,-477.2 394.5,-455.2 10.5,-455.2"/>
<text text-anchor="start" x="30.5" y="-462.3" font-family="Helvetica,sans-Serif" font-size="11.00" fill="#000000">arviointi_paiva</text>
<polygon fill="none" stroke="#000000" points="394.5,-455.2 394.5,-477.2 503.5,-477.2 503.5,-455.2 394.5,-455.2"/>
<text text-anchor="start" x="397.5" y="-462.9" font-family="Helvetica,sans-Serif" font-size="11.00" fill="#000000">date[13]</text>
<polygon fill="none" stroke="#000000" points="10.5,-433.2 10.5,-455.2 394.5,-455.2 394.5,-433.2 10.5,-433.2"/>
<text text-anchor="start" x="30.5" y="-440.3" font-family="Helvetica,sans-Serif" font-size="11.00" fill="#000000">perusteen_diaarinumero</text>
<polygon fill="none" stroke="#000000" points="394.5,-433.2 394.5,-455.2 503.5,-455.2 503.5,-433.2 394.5,-433.2"/>
<text text-anchor="start" x="397.5" y="-440.9" font-family="Helvetica,sans-Serif" font-size="11.00" fill="#000000">text[2147483647]</text>
<polygon fill="none" stroke="#000000" points="10.5,-411.2 10.5,-433.2 394.5,-433.2 394.5,-411.2 10.5,-411.2"/>
<text text-anchor="start" x="30.5" y="-418.3" font-family="Helvetica,sans-Serif" font-size="11.00" fill="#000000">yhteensa</text>
<polygon fill="none" stroke="#000000" points="394.5,-411.2 394.5,-433.2 503.5,-433.2 503.5,-411.2 394.5,-411.2"/>
<text text-anchor="start" x="397.5" y="-418.9" font-family="Helvetica,sans-Serif" font-size="11.00" fill="#000000">int8[19]</text>
<polygon fill="none" stroke="#000000" points="10.5,-389.2 10.5,-411.2 394.5,-411.2 394.5,-389.2 10.5,-389.2"/>
<text text-anchor="start" x="30.5" y="-396.3" font-family="Helvetica,sans-Serif" font-size="11.00" fill="#000000">suoritettuja</text>
<polygon fill="none" stroke="#000000" points="394.5,-389.2 394.5,-411.2 503.5,-411.2 503.5,-389.2 394.5,-389.2"/>
<text text-anchor="start" x="397.5" y="-396.9" font-family="Helvetica,sans-Serif" font-size="11.00" fill="#000000">int8[19]</text>
<polygon fill="none" stroke="#000000" points="10.5,-367.2 10.5,-389.2 394.5,-389.2 394.5,-367.2 10.5,-367.2"/>
<text text-anchor="start" x="30.5" y="-374.3" font-family="Helvetica,sans-Serif" font-size="11.00" fill="#000000">tunnustettuja</text>
<polygon fill="none" stroke="#000000" points="394.5,-367.2 394.5,-389.2 503.5,-389.2 503.5,-367.2 394.5,-367.2"/>
<text text-anchor="start" x="397.5" y="-374.9" font-family="Helvetica,sans-Serif" font-size="11.00" fill="#000000">int8[19]</text>
<polygon fill="none" stroke="#000000" points="10.5,-345.2 10.5,-367.2 394.5,-367.2 394.5,-345.2 10.5,-345.2"/>
<text text-anchor="start" x="30.5" y="-352.3" font-family="Helvetica,sans-Serif" font-size="11.00" fill="#000000">tunnustettuja_rahoituksen_piirissa</text>
<polygon fill="none" stroke="#000000" points="394.5,-345.2 394.5,-367.2 503.5,-367.2 503.5,-345.2 394.5,-345.2"/>
<text text-anchor="start" x="397.5" y="-352.9" font-family="Helvetica,sans-Serif" font-size="11.00" fill="#000000">int8[19]</text>
<polygon fill="none" stroke="#000000" points="10.5,-323.2 10.5,-345.2 394.5,-345.2 394.5,-323.2 10.5,-323.2"/>
<text text-anchor="start" x="30.5" y="-330.3" font-family="Helvetica,sans-Serif" font-size="11.00" fill="#000000">pakollisia_tai_valtakunnallisia_syventavia</text>
<polygon fill="none" stroke="#000000" points="394.5,-323.2 394.5,-345.2 503.5,-345.2 503.5,-323.2 394.5,-323.2"/>
<text text-anchor="start" x="397.5" y="-330.9" font-family="Helvetica,sans-Serif" font-size="11.00" fill="#000000">int8[19]</text>
<polygon fill="none" stroke="#000000" points="10.5,-301.2 10.5,-323.2 394.5,-323.2 394.5,-301.2 10.5,-301.2"/>
<text text-anchor="start" x="30.5" y="-308.3" font-family="Helvetica,sans-Serif" font-size="11.00" fill="#000000">pakollisia</text>
<polygon fill="none" stroke="#000000" points="394.5,-301.2 394.5,-323.2 503.5,-323.2 503.5,-301.2 394.5,-301.2"/>
<text text-anchor="start" x="397.5" y="-308.9" font-family="Helvetica,sans-Serif" font-size="11.00" fill="#000000">int8[19]</text>
<polygon fill="none" stroke="#000000" points="10.5,-279.2 10.5,-301.2 394.5,-301.2 394.5,-279.2 10.5,-279.2"/>
<text text-anchor="start" x="30.5" y="-286.3" font-family="Helvetica,sans-Serif" font-size="11.00" fill="#000000">valtakunnallisia_syventavia</text>
<polygon fill="none" stroke="#000000" points="394.5,-279.2 394.5,-301.2 503.5,-301.2 503.5,-279.2 394.5,-279.2"/>
<text text-anchor="start" x="397.5" y="-286.9" font-family="Helvetica,sans-Serif" font-size="11.00" fill="#000000">int8[19]</text>
<polygon fill="none" stroke="#000000" points="10.5,-257.2 10.5,-279.2 394.5,-279.2 394.5,-257.2 10.5,-257.2"/>
<text text-anchor="start" x="30.5" y="-264.3" font-family="Helvetica,sans-Serif" font-size="11.00" fill="#000000">suoritettuja_pakollisia_ja_valtakunnallisia_syventavia</text>
<polygon fill="none" stroke="#000000" points="394.5,-257.2 394.5,-279.2 503.5,-279.2 503.5,-257.2 394.5,-257.2"/>
<text text-anchor="start" x="397.5" y="-264.9" font-family="Helvetica,sans-Serif" font-size="11.00" fill="#000000">int8[19]</text>
<polygon fill="none" stroke="#000000" points="10.5,-235.2 10.5,-257.2 394.5,-257.2 394.5,-235.2 10.5,-235.2"/>
<text text-anchor="start" x="30.5" y="-242.3" font-family="Helvetica,sans-Serif" font-size="11.00" fill="#000000">suoritettuja_pakollisia</text>
<polygon fill="none" stroke="#000000" points="394.5,-235.2 394.5,-257.2 503.5,-257.2 503.5,-235.2 394.5,-235.2"/>
<text text-anchor="start" x="397.5" y="-242.9" font-family="Helvetica,sans-Serif" font-size="11.00" fill="#000000">int8[19]</text>
<polygon fill="none" stroke="#000000" points="10.5,-213.2 10.5,-235.2 394.5,-235.2 394.5,-213.2 10.5,-213.2"/>
<text text-anchor="start" x="30.5" y="-220.3" font-family="Helvetica,sans-Serif" font-size="11.00" fill="#000000">suoritettuja_valtakunnallisia_syventavia</text>
<polygon fill="none" stroke="#000000" points="394.5,-213.2 394.5,-235.2 503.5,-235.2 503.5,-213.2 394.5,-213.2"/>
<text text-anchor="start" x="397.5" y="-220.9" font-family="Helvetica,sans-Serif" font-size="11.00" fill="#000000">int8[19]</text>
<polygon fill="none" stroke="#000000" points="10.5,-191.2 10.5,-213.2 394.5,-213.2 394.5,-191.2 10.5,-191.2"/>
<text text-anchor="start" x="30.5" y="-198.3" font-family="Helvetica,sans-Serif" font-size="11.00" fill="#000000">tunnustettuja_pakollisia_ja_valtakunnallisia_syventavia</text>
<polygon fill="none" stroke="#000000" points="394.5,-191.2 394.5,-213.2 503.5,-213.2 503.5,-191.2 394.5,-191.2"/>
<text text-anchor="start" x="397.5" y="-198.9" font-family="Helvetica,sans-Serif" font-size="11.00" fill="#000000">int8[19]</text>
<polygon fill="none" stroke="#000000" points="10.5,-169.2 10.5,-191.2 394.5,-191.2 394.5,-169.2 10.5,-169.2"/>
<text text-anchor="start" x="30.5" y="-176.3" font-family="Helvetica,sans-Serif" font-size="11.00" fill="#000000">tunnustettuja_pakollisia</text>
<polygon fill="none" stroke="#000000" points="394.5,-169.2 394.5,-191.2 503.5,-191.2 503.5,-169.2 394.5,-169.2"/>
<text text-anchor="start" x="397.5" y="-176.9" font-family="Helvetica,sans-Serif" font-size="11.00" fill="#000000">int8[19]</text>
<polygon fill="none" stroke="#000000" points="10.5,-147.2 10.5,-169.2 394.5,-169.2 394.5,-147.2 10.5,-147.2"/>
<text text-anchor="start" x="30.5" y="-154.3" font-family="Helvetica,sans-Serif" font-size="11.00" fill="#000000">tunnustettuja_valtakunnallisia_syventavia</text>
<polygon fill="none" stroke="#000000" points="394.5,-147.2 394.5,-169.2 503.5,-169.2 503.5,-147.2 394.5,-147.2"/>
<text text-anchor="start" x="397.5" y="-154.9" font-family="Helvetica,sans-Serif" font-size="11.00" fill="#000000">int8[19]</text>
<polygon fill="none" stroke="#000000" points="10.5,-125.2 10.5,-147.2 394.5,-147.2 394.5,-125.2 10.5,-125.2"/>
<text text-anchor="start" x="30.5" y="-132.3" font-family="Helvetica,sans-Serif" font-size="11.00" fill="#000000">tunnustut_pakolliset_ja_valtakunnalliset_syventavat_rahoitus</text>
<polygon fill="none" stroke="#000000" points="394.5,-125.2 394.5,-147.2 503.5,-147.2 503.5,-125.2 394.5,-125.2"/>
<text text-anchor="start" x="397.5" y="-132.9" font-family="Helvetica,sans-Serif" font-size="11.00" fill="#000000">int8[19]</text>
<polygon fill="none" stroke="#000000" points="10.5,-103.2 10.5,-125.2 394.5,-125.2 394.5,-103.2 10.5,-103.2"/>
<text text-anchor="start" x="30.5" y="-110.3" font-family="Helvetica,sans-Serif" font-size="11.00" fill="#000000">pakollisia_tunnustettuja_rahoituksen_piirissa</text>
<polygon fill="none" stroke="#000000" points="394.5,-103.2 394.5,-125.2 503.5,-125.2 503.5,-103.2 394.5,-103.2"/>
<text text-anchor="start" x="397.5" y="-110.9" font-family="Helvetica,sans-Serif" font-size="11.00" fill="#000000">int8[19]</text>
<polygon fill="none" stroke="#000000" points="10.5,-81.2 10.5,-103.2 394.5,-103.2 394.5,-81.2 10.5,-81.2"/>
<text text-anchor="start" x="30.5" y="-88.3" font-family="Helvetica,sans-Serif" font-size="11.00" fill="#000000">valtakunnallisia_syventavia_tunnustettuja_rahoituksen_piirissa</text>
<polygon fill="none" stroke="#000000" points="394.5,-81.2 394.5,-103.2 503.5,-103.2 503.5,-81.2 394.5,-81.2"/>
<text text-anchor="start" x="397.5" y="-88.9" font-family="Helvetica,sans-Serif" font-size="11.00" fill="#000000">int8[19]</text>
<polygon fill="none" stroke="#000000" points="10.5,-59.2 10.5,-81.2 394.5,-81.2 394.5,-59.2 10.5,-59.2"/>
<text text-anchor="start" x="30.5" y="-66.3" font-family="Helvetica,sans-Serif" font-size="11.00" fill="#000000">eri_vuonna_korotettuja</text>
<polygon fill="none" stroke="#000000" points="394.5,-59.2 394.5,-81.2 503.5,-81.2 503.5,-59.2 394.5,-59.2"/>
<text text-anchor="start" x="397.5" y="-66.9" font-family="Helvetica,sans-Serif" font-size="11.00" fill="#000000">int8[19]</text>
<polygon fill="#ffffff" stroke="transparent" points="10.5,-40.2 10.5,-59.2 193.5,-59.2 193.5,-40.2 10.5,-40.2"/>
<polygon fill="none" stroke="#000000" points="10.5,-40.2 10.5,-59.2 193.5,-59.2 193.5,-40.2 10.5,-40.2"/>
<text text-anchor="start" x="13.5" y="-46.3" font-family="Helvetica,sans-Serif" font-size="11.00" fill="#000000">&lt; 0</text>
<polygon fill="#ffffff" stroke="transparent" points="193.5,-40.2 193.5,-59.2 394.5,-59.2 394.5,-40.2 193.5,-40.2"/>
<polygon fill="none" stroke="#000000" points="193.5,-40.2 193.5,-59.2 394.5,-59.2 394.5,-40.2 193.5,-40.2"/>
<text text-anchor="start" x="359.1105" y="-46.3" font-family="Helvetica,sans-Serif" font-size="11.00" fill="#000000">7 rows</text>
<polygon fill="#ffffff" stroke="transparent" points="394.5,-40.2 394.5,-59.2 503.5,-59.2 503.5,-40.2 394.5,-40.2"/>
<polygon fill="none" stroke="#000000" points="394.5,-40.2 394.5,-59.2 503.5,-59.2 503.5,-40.2 394.5,-40.2"/>
<text text-anchor="start" x="484.9053" y="-46.3" font-family="Helvetica,sans-Serif" font-size="11.00" fill="#000000">0 &gt;</text>
<polygon fill="none" stroke="#000000" stroke-width="2" points="9,-39.2 9,-523.2 504,-523.2 504,-39.2 9,-39.2"/>
</a>
</g>
</g>
</g>
</svg>
