<?xml version="1.0" encoding="UTF-8" standalone="no"?>
<!DOCTYPE svg PUBLIC "-//W3C//DTD SVG 1.1//EN"
 "http://www.w3.org/Graphics/SVG/1.1/DTD/svg11.dtd">
<!-- Generated by graphviz version 2.40.1 (20161225.0304)
 -->
<!-- Title: oneDegreeRelationshipsDiagram Pages: 1 -->
<svg width="398pt" height="228pt"
 viewBox="0.00 0.00 398.00 228.20" xmlns="http://www.w3.org/2000/svg" xmlns:xlink="http://www.w3.org/1999/xlink">
<g id="graph0" class="graph" transform="scale(1 1) rotate(0) translate(4 224.2)">
<title>oneDegreeRelationshipsDiagram</title>
<polygon fill="#ffffff" stroke="transparent" points="-4,4 -4,-224.2 394,-224.2 394,4 -4,4"/>
<text text-anchor="middle" x="72.4936" y="-7.3" font-family="Helvetica,sans-Serif" font-size="11.00" fill="#000000">Generated by SchemaSpy</text>
<!-- lukion_oppimaaran_opintopistekertyma -->
<g id="node1" class="node">
<title>lukion_oppimaaran_opintopistekertyma</title>
<g id="a_node1"><a xlink:href="../../tables/lukion_oppimaaran_opintopistekertyma.html" xlink:title="lukion_oppimaaran_opintopistekertyma" target="_top">
<polygon fill="#ffffff" stroke="transparent" points="8,-38.2 8,-216.2 382,-216.2 382,-38.2 8,-38.2"/>
<polygon fill="#f5f5f5" stroke="transparent" points="10,-191.2 10,-214.2 380,-214.2 380,-191.2 10,-191.2"/>
<polygon fill="none" stroke="#000000" points="10,-191.2 10,-214.2 380,-214.2 380,-191.2 10,-191.2"/>
<text text-anchor="start" x="15" y="-199.8" font-family="Helvetica,sans-Serif" font-weight="bold" font-size="11.00" fill="#000000">lukion_oppimaaran_opintopistekertyma</text>
<text text-anchor="start" x="345.0437" y="-199.3" font-family="Helvetica,sans-Serif" font-size="11.00" fill="#000000">[table]</text>
<polygon fill="#ffffff" stroke="transparent" points="10,-169.2 10,-191.2 271,-191.2 271,-169.2 10,-169.2"/>
<polygon fill="none" stroke="#000000" points="10,-169.2 10,-191.2 271,-191.2 271,-169.2 10,-169.2"/>
<text text-anchor="start" x="30" y="-176.3" font-family="Helvetica,sans-Serif" font-size="11.00" fill="#000000">oppilaitos_oid</text>
<polygon fill="none" stroke="#000000" points="271,-169.2 271,-191.2 380,-191.2 380,-169.2 271,-169.2"/>
<text text-anchor="start" x="273.5344" y="-176.9" font-family="Helvetica,sans-Serif" font-size="11.00" fill="#000000">varchar[2147483647]</text>
<polygon fill="#ffffff" stroke="transparent" points="10,-147.2 10,-169.2 271,-169.2 271,-147.2 10,-147.2"/>
<polygon fill="none" stroke="#000000" points="10,-147.2 10,-169.2 271,-169.2 271,-147.2 10,-147.2"/>
<text text-anchor="start" x="30" y="-154.3" font-family="Helvetica,sans-Serif" font-size="11.00" fill="#000000">arviointi_paiva</text>
<polygon fill="none" stroke="#000000" points="271,-147.2 271,-169.2 380,-169.2 380,-147.2 271,-147.2"/>
<text text-anchor="start" x="274" y="-154.9" font-family="Helvetica,sans-Serif" font-size="11.00" fill="#000000">date[13]</text>
<polygon fill="none" stroke="#000000" points="10,-125.2 10,-147.2 271,-147.2 271,-125.2 10,-125.2"/>
<text text-anchor="start" x="30" y="-132.3" font-family="Helvetica,sans-Serif" font-size="11.00" fill="#000000">suoritettuja</text>
<polygon fill="none" stroke="#000000" points="271,-125.2 271,-147.2 380,-147.2 380,-125.2 271,-125.2"/>
<text text-anchor="start" x="274" y="-132.9" font-family="Helvetica,sans-Serif" font-size="11.00" fill="#000000">numeric[0]</text>
<polygon fill="none" stroke="#000000" points="10,-103.2 10,-125.2 271,-125.2 271,-103.2 10,-103.2"/>
<text text-anchor="start" x="30" y="-110.3" font-family="Helvetica,sans-Serif" font-size="11.00" fill="#000000">tunnustettuja</text>
<polygon fill="none" stroke="#000000" points="271,-103.2 271,-125.2 380,-125.2 380,-103.2 271,-103.2"/>
<text text-anchor="start" x="274" y="-110.9" font-family="Helvetica,sans-Serif" font-size="11.00" fill="#000000">numeric[0]</text>
<polygon fill="none" stroke="#000000" points="10,-81.2 10,-103.2 271,-103.2 271,-81.2 10,-81.2"/>
<text text-anchor="start" x="30" y="-88.3" font-family="Helvetica,sans-Serif" font-size="11.00" fill="#000000">yhteensa</text>
<polygon fill="none" stroke="#000000" points="271,-81.2 271,-103.2 380,-103.2 380,-81.2 271,-81.2"/>
<text text-anchor="start" x="274" y="-88.9" font-family="Helvetica,sans-Serif" font-size="11.00" fill="#000000">numeric[0]</text>
<polygon fill="none" stroke="#000000" points="10,-59.2 10,-81.2 271,-81.2 271,-59.2 10,-59.2"/>
<text text-anchor="start" x="30" y="-66.3" font-family="Helvetica,sans-Serif" font-size="11.00" fill="#000000">tunnustettuja_rahoituksen_piirissa</text>
<polygon fill="none" stroke="#000000" points="271,-59.2 271,-81.2 380,-81.2 380,-59.2 271,-59.2"/>
<text text-anchor="start" x="274" y="-66.9" font-family="Helvetica,sans-Serif" font-size="11.00" fill="#000000">numeric[0]</text>
<polygon fill="#ffffff" stroke="transparent" points="10,-40.2 10,-59.2 135,-59.2 135,-40.2 10,-40.2"/>
<polygon fill="none" stroke="#000000" points="10,-40.2 10,-59.2 135,-59.2 135,-40.2 10,-40.2"/>
<text text-anchor="start" x="13" y="-46.3" font-family="Helvetica,sans-Serif" font-size="11.00" fill="#000000">&lt; 0</text>
<polygon fill="#ffffff" stroke="transparent" points="135,-40.2 135,-59.2 271,-59.2 271,-40.2 135,-40.2"/>
<polygon fill="none" stroke="#000000" points="135,-40.2 135,-59.2 271,-59.2 271,-40.2 135,-40.2"/>
<text text-anchor="start" x="241.1105" y="-46.3" font-family="Helvetica,sans-Serif" font-size="11.00" fill="#000000">1 row</text>
<polygon fill="#ffffff" stroke="transparent" points="271,-40.2 271,-59.2 380,-59.2 380,-40.2 271,-40.2"/>
<polygon fill="none" stroke="#000000" points="271,-40.2 271,-59.2 380,-59.2 380,-40.2 271,-40.2"/>
<text text-anchor="start" x="361.4053" y="-46.3" font-family="Helvetica,sans-Serif" font-size="11.00" fill="#000000">0 &gt;</text>
<polygon fill="none" stroke="#000000" stroke-width="2" points="9,-39.2 9,-215.2 381,-215.2 381,-39.2 9,-39.2"/>
</a>
</g>
</g>
</g>
</svg>
