<?xml version="1.0" encoding="UTF-8" standalone="no"?>
<!DOCTYPE svg PUBLIC "-//W3C//DTD SVG 1.1//EN"
 "http://www.w3.org/Graphics/SVG/1.1/DTD/svg11.dtd">
<!-- Generated by graphviz version 2.40.1 (20161225.0304)
 -->
<!-- Title: oneDegreeRelationshipsDiagram Pages: 1 -->
<svg width="467pt" height="272pt"
 viewBox="0.00 0.00 467.00 272.20" xmlns="http://www.w3.org/2000/svg" xmlns:xlink="http://www.w3.org/1999/xlink">
<g id="graph0" class="graph" transform="scale(1 1) rotate(0) translate(4 268.2)">
<title>oneDegreeRelationshipsDiagram</title>
<polygon fill="#ffffff" stroke="transparent" points="-4,4 -4,-268.2 463,-268.2 463,4 -4,4"/>
<text text-anchor="middle" x="72.4936" y="-7.3" font-family="Helvetica,sans-Serif" font-size="11.00" fill="#000000">Generated by SchemaSpy</text>
<!-- lukion_oppiaineen_oppimaaran_eri_vuonna_korotetut -->
<g id="node1" class="node">
<title>lukion_oppiaineen_oppimaaran_eri_vuonna_korotetut</title>
<g id="a_node1"><a xlink:href="../../tables/lukion_oppiaineen_oppimaaran_er_a8537125.html" xlink:title="lukion_oppiaineen_oppimaaran_eri_vuonna_korotetut" target="_top">
<polygon fill="#ffffff" stroke="transparent" points="8,-38.2 8,-260.2 451,-260.2 451,-38.2 8,-38.2"/>
<polygon fill="#f5f5f5" stroke="transparent" points="10.5,-235.2 10.5,-258.2 449.5,-258.2 449.5,-235.2 10.5,-235.2"/>
<polygon fill="none" stroke="#000000" points="10.5,-235.2 10.5,-258.2 449.5,-258.2 449.5,-235.2 10.5,-235.2"/>
<text text-anchor="start" x="15.5" y="-243.8" font-family="Helvetica,sans-Serif" font-weight="bold" font-size="11.00" fill="#000000">lukion_oppiaineen_oppimaaran_eri_vuonna_korotetut</text>
<text text-anchor="start" x="414.5437" y="-243.3" font-family="Helvetica,sans-Serif" font-size="11.00" fill="#000000">[table]</text>
<polygon fill="#ffffff" stroke="transparent" points="10.5,-213.2 10.5,-235.2 340.5,-235.2 340.5,-213.2 10.5,-213.2"/>
<polygon fill="none" stroke="#000000" points="10.5,-213.2 10.5,-235.2 340.5,-235.2 340.5,-213.2 10.5,-213.2"/>
<text text-anchor="start" x="30.5" y="-220.3" font-family="Helvetica,sans-Serif" font-size="11.00" fill="#000000">oppilaitos_oid</text>
<polygon fill="none" stroke="#000000" points="340.5,-213.2 340.5,-235.2 449.5,-235.2 449.5,-213.2 340.5,-213.2"/>
<text text-anchor="start" x="343.0344" y="-220.9" font-family="Helvetica,sans-Serif" font-size="11.00" fill="#000000">varchar[2147483647]</text>
<polygon fill="none" stroke="#000000" points="10.5,-191.2 10.5,-213.2 340.5,-213.2 340.5,-191.2 10.5,-191.2"/>
<text text-anchor="start" x="30.5" y="-198.3" font-family="Helvetica,sans-Serif" font-size="11.00" fill="#000000">opiskeluoikeus_oid</text>
<polygon fill="none" stroke="#000000" points="340.5,-191.2 340.5,-213.2 449.5,-213.2 449.5,-191.2 340.5,-191.2"/>
<text text-anchor="start" x="343.0344" y="-198.9" font-family="Helvetica,sans-Serif" font-size="11.00" fill="#000000">varchar[2147483647]</text>
<polygon fill="none" stroke="#000000" points="10.5,-169.2 10.5,-191.2 340.5,-191.2 340.5,-169.2 10.5,-169.2"/>
<text text-anchor="start" x="30.5" y="-176.3" font-family="Helvetica,sans-Serif" font-size="11.00" fill="#000000">oppija_oid</text>
<polygon fill="none" stroke="#000000" points="340.5,-169.2 340.5,-191.2 449.5,-191.2 449.5,-169.2 340.5,-169.2"/>
<text text-anchor="start" x="343.0344" y="-176.9" font-family="Helvetica,sans-Serif" font-size="11.00" fill="#000000">varchar[2147483647]</text>
<polygon fill="none" stroke="#000000" points="10.5,-147.2 10.5,-169.2 340.5,-169.2 340.5,-147.2 10.5,-147.2"/>
<text text-anchor="start" x="30.5" y="-154.3" font-family="Helvetica,sans-Serif" font-size="11.00" fill="#000000">koulutusmoduuli_koodiarvo</text>
<polygon fill="none" stroke="#000000" points="340.5,-147.2 340.5,-169.2 449.5,-169.2 449.5,-147.2 340.5,-147.2"/>
<text text-anchor="start" x="343.0344" y="-154.9" font-family="Helvetica,sans-Serif" font-size="11.00" fill="#000000">varchar[2147483647]</text>
<polygon fill="none" stroke="#000000" points="10.5,-125.2 10.5,-147.2 340.5,-147.2 340.5,-125.2 10.5,-125.2"/>
<text text-anchor="start" x="30.5" y="-132.3" font-family="Helvetica,sans-Serif" font-size="11.00" fill="#000000">koulutusmoduuli_nimi</text>
<polygon fill="none" stroke="#000000" points="340.5,-125.2 340.5,-147.2 449.5,-147.2 449.5,-125.2 340.5,-125.2"/>
<text text-anchor="start" x="343.0344" y="-132.9" font-family="Helvetica,sans-Serif" font-size="11.00" fill="#000000">varchar[2147483647]</text>
<polygon fill="none" stroke="#000000" points="10.5,-103.2 10.5,-125.2 340.5,-125.2 340.5,-103.2 10.5,-103.2"/>
<text text-anchor="start" x="30.5" y="-110.3" font-family="Helvetica,sans-Serif" font-size="11.00" fill="#000000">koulutusmoduuli_nimi_sv</text>
<polygon fill="none" stroke="#000000" points="340.5,-103.2 340.5,-125.2 449.5,-125.2 449.5,-103.2 340.5,-103.2"/>
<text text-anchor="start" x="343.5" y="-110.9" font-family="Helvetica,sans-Serif" font-size="11.00" fill="#000000">text[2147483647]</text>
<polygon fill="none" stroke="#000000" points="10.5,-81.2 10.5,-103.2 340.5,-103.2 340.5,-81.2 10.5,-81.2"/>
<text text-anchor="start" x="30.5" y="-88.3" font-family="Helvetica,sans-Serif" font-size="11.00" fill="#000000">arviointi_paiva</text>
<polygon fill="none" stroke="#000000" points="340.5,-81.2 340.5,-103.2 449.5,-103.2 449.5,-81.2 340.5,-81.2"/>
<text text-anchor="start" x="343.5" y="-88.9" font-family="Helvetica,sans-Serif" font-size="11.00" fill="#000000">date[13]</text>
<polygon fill="none" stroke="#000000" points="10.5,-59.2 10.5,-81.2 340.5,-81.2 340.5,-59.2 10.5,-59.2"/>
<text text-anchor="start" x="30.5" y="-66.3" font-family="Helvetica,sans-Serif" font-size="11.00" fill="#000000">korotettu_eri_vuonna</text>
<polygon fill="none" stroke="#000000" points="340.5,-59.2 340.5,-81.2 449.5,-81.2 449.5,-59.2 340.5,-59.2"/>
<text text-anchor="start" x="343.5" y="-66.9" font-family="Helvetica,sans-Serif" font-size="11.00" fill="#000000">bool[1]</text>
<polygon fill="#ffffff" stroke="transparent" points="10.5,-40.2 10.5,-59.2 166.5,-59.2 166.5,-40.2 10.5,-40.2"/>
<polygon fill="none" stroke="#000000" points="10.5,-40.2 10.5,-59.2 166.5,-59.2 166.5,-40.2 10.5,-40.2"/>
<text text-anchor="start" x="13.5" y="-46.3" font-family="Helvetica,sans-Serif" font-size="11.00" fill="#000000">&lt; 0</text>
<polygon fill="#ffffff" stroke="transparent" points="166.5,-40.2 166.5,-59.2 340.5,-59.2 340.5,-40.2 166.5,-40.2"/>
<polygon fill="none" stroke="#000000" points="166.5,-40.2 166.5,-59.2 340.5,-59.2 340.5,-40.2 166.5,-40.2"/>
<text text-anchor="start" x="305.1105" y="-46.3" font-family="Helvetica,sans-Serif" font-size="11.00" fill="#000000">0 rows</text>
<polygon fill="#ffffff" stroke="transparent" points="340.5,-40.2 340.5,-59.2 449.5,-59.2 449.5,-40.2 340.5,-40.2"/>
<polygon fill="none" stroke="#000000" points="340.5,-40.2 340.5,-59.2 449.5,-59.2 449.5,-40.2 340.5,-40.2"/>
<text text-anchor="start" x="430.9053" y="-46.3" font-family="Helvetica,sans-Serif" font-size="11.00" fill="#000000">0 &gt;</text>
<polygon fill="none" stroke="#000000" stroke-width="2" points="9,-39.2 9,-259.2 450,-259.2 450,-39.2 9,-39.2"/>
</a>
</g>
</g>
</g>
</svg>
