<?xml version="1.0" encoding="UTF-8" standalone="no"?>
<!DOCTYPE svg PUBLIC "-//W3C//DTD SVG 1.1//EN"
 "http://www.w3.org/Graphics/SVG/1.1/DTD/svg11.dtd">
<!-- Generated by graphviz version 2.40.1 (20161225.0304)
 -->
<!-- Title: oneDegreeRelationshipsDiagram Pages: 1 -->
<svg width="357pt" height="228pt"
 viewBox="0.00 0.00 357.00 228.20" xmlns="http://www.w3.org/2000/svg" xmlns:xlink="http://www.w3.org/1999/xlink">
<g id="graph0" class="graph" transform="scale(1 1) rotate(0) translate(4 224.2)">
<title>oneDegreeRelationshipsDiagram</title>
<polygon fill="#ffffff" stroke="transparent" points="-4,4 -4,-224.2 353,-224.2 353,4 -4,4"/>
<text text-anchor="middle" x="72.4936" y="-7.3" font-family="Helvetica,sans-Serif" font-size="11.00" fill="#000000">Generated by SchemaSpy</text>
<!-- lukion_oppimaaran_kurssikertyma -->
<g id="node1" class="node">
<title>lukion_oppimaaran_kurssikertyma</title>
<g id="a_node1"><a xlink:href="../../tables/lukion_oppimaaran_kurssikertyma.html" xlink:title="lukion_oppimaaran_kurssikertyma" target="_top">
<polygon fill="#ffffff" stroke="transparent" points="8,-38.2 8,-216.2 341,-216.2 341,-38.2 8,-38.2"/>
<polygon fill="#f5f5f5" stroke="transparent" points="10.5,-191.2 10.5,-214.2 339.5,-214.2 339.5,-191.2 10.5,-191.2"/>
<polygon fill="none" stroke="#000000" points="10.5,-191.2 10.5,-214.2 339.5,-214.2 339.5,-191.2 10.5,-191.2"/>
<text text-anchor="start" x="15.5" y="-199.8" font-family="Helvetica,sans-Serif" font-weight="bold" font-size="11.00" fill="#000000">lukion_oppimaaran_kurssikertyma</text>
<text text-anchor="start" x="304.5437" y="-199.3" font-family="Helvetica,sans-Serif" font-size="11.00" fill="#000000">[table]</text>
<polygon fill="#ffffff" stroke="transparent" points="10.5,-169.2 10.5,-191.2 230.5,-191.2 230.5,-169.2 10.5,-169.2"/>
<polygon fill="none" stroke="#000000" points="10.5,-169.2 10.5,-191.2 230.5,-191.2 230.5,-169.2 10.5,-169.2"/>
<text text-anchor="start" x="30.5" y="-176.3" font-family="Helvetica,sans-Serif" font-size="11.00" fill="#000000">oppilaitos_oid</text>
<polygon fill="none" stroke="#000000" points="230.5,-169.2 230.5,-191.2 339.5,-191.2 339.5,-169.2 230.5,-169.2"/>
<text text-anchor="start" x="233.0344" y="-176.9" font-family="Helvetica,sans-Serif" font-size="11.00" fill="#000000">varchar[2147483647]</text>
<polygon fill="#ffffff" stroke="transparent" points="10.5,-147.2 10.5,-169.2 230.5,-169.2 230.5,-147.2 10.5,-147.2"/>
<polygon fill="none" stroke="#000000" points="10.5,-147.2 10.5,-169.2 230.5,-169.2 230.5,-147.2 10.5,-147.2"/>
<text text-anchor="start" x="30.5" y="-154.3" font-family="Helvetica,sans-Serif" font-size="11.00" fill="#000000">arviointi_paiva</text>
<polygon fill="none" stroke="#000000" points="230.5,-147.2 230.5,-169.2 339.5,-169.2 339.5,-147.2 230.5,-147.2"/>
<text text-anchor="start" x="233.5" y="-154.9" font-family="Helvetica,sans-Serif" font-size="11.00" fill="#000000">date[13]</text>
<polygon fill="none" stroke="#000000" points="10.5,-125.2 10.5,-147.2 230.5,-147.2 230.5,-125.2 10.5,-125.2"/>
<text text-anchor="start" x="30.5" y="-132.3" font-family="Helvetica,sans-Serif" font-size="11.00" fill="#000000">suoritettuja</text>
<polygon fill="none" stroke="#000000" points="230.5,-125.2 230.5,-147.2 339.5,-147.2 339.5,-125.2 230.5,-125.2"/>
<text text-anchor="start" x="233.5" y="-132.9" font-family="Helvetica,sans-Serif" font-size="11.00" fill="#000000">int8[19]</text>
<polygon fill="none" stroke="#000000" points="10.5,-103.2 10.5,-125.2 230.5,-125.2 230.5,-103.2 10.5,-103.2"/>
<text text-anchor="start" x="30.5" y="-110.3" font-family="Helvetica,sans-Serif" font-size="11.00" fill="#000000">tunnustettuja</text>
<polygon fill="none" stroke="#000000" points="230.5,-103.2 230.5,-125.2 339.5,-125.2 339.5,-103.2 230.5,-103.2"/>
<text text-anchor="start" x="233.5" y="-110.9" font-family="Helvetica,sans-Serif" font-size="11.00" fill="#000000">int8[19]</text>
<polygon fill="none" stroke="#000000" points="10.5,-81.2 10.5,-103.2 230.5,-103.2 230.5,-81.2 10.5,-81.2"/>
<text text-anchor="start" x="30.5" y="-88.3" font-family="Helvetica,sans-Serif" font-size="11.00" fill="#000000">yhteensa</text>
<polygon fill="none" stroke="#000000" points="230.5,-81.2 230.5,-103.2 339.5,-103.2 339.5,-81.2 230.5,-81.2"/>
<text text-anchor="start" x="233.5" y="-88.9" font-family="Helvetica,sans-Serif" font-size="11.00" fill="#000000">int8[19]</text>
<polygon fill="none" stroke="#000000" points="10.5,-59.2 10.5,-81.2 230.5,-81.2 230.5,-59.2 10.5,-59.2"/>
<text text-anchor="start" x="30.5" y="-66.3" font-family="Helvetica,sans-Serif" font-size="11.00" fill="#000000">tunnustettuja_rahoituksen_piirissa</text>
<polygon fill="none" stroke="#000000" points="230.5,-59.2 230.5,-81.2 339.5,-81.2 339.5,-59.2 230.5,-59.2"/>
<text text-anchor="start" x="233.5" y="-66.9" font-family="Helvetica,sans-Serif" font-size="11.00" fill="#000000">int8[19]</text>
<polygon fill="#ffffff" stroke="transparent" points="10.5,-40.2 10.5,-59.2 111.5,-59.2 111.5,-40.2 10.5,-40.2"/>
<polygon fill="none" stroke="#000000" points="10.5,-40.2 10.5,-59.2 111.5,-59.2 111.5,-40.2 10.5,-40.2"/>
<text text-anchor="start" x="13.5" y="-46.3" font-family="Helvetica,sans-Serif" font-size="11.00" fill="#000000">&lt; 0</text>
<polygon fill="#ffffff" stroke="transparent" points="111.5,-40.2 111.5,-59.2 230.5,-59.2 230.5,-40.2 111.5,-40.2"/>
<polygon fill="none" stroke="#000000" points="111.5,-40.2 111.5,-59.2 230.5,-59.2 230.5,-40.2 111.5,-40.2"/>
<text text-anchor="start" x="195.1105" y="-46.3" font-family="Helvetica,sans-Serif" font-size="11.00" fill="#000000">6 rows</text>
<polygon fill="#ffffff" stroke="transparent" points="230.5,-40.2 230.5,-59.2 339.5,-59.2 339.5,-40.2 230.5,-40.2"/>
<polygon fill="none" stroke="#000000" points="230.5,-40.2 230.5,-59.2 339.5,-59.2 339.5,-40.2 230.5,-40.2"/>
<text text-anchor="start" x="320.9053" y="-46.3" font-family="Helvetica,sans-Serif" font-size="11.00" fill="#000000">0 &gt;</text>
<polygon fill="none" stroke="#000000" stroke-width="2" points="9,-39.2 9,-215.2 340,-215.2 340,-39.2 9,-39.2"/>
</a>
</g>
</g>
</g>
</svg>
