<?xml version="1.0" encoding="UTF-8" standalone="no"?>
<!DOCTYPE svg PUBLIC "-//W3C//DTD SVG 1.1//EN"
 "http://www.w3.org/Graphics/SVG/1.1/DTD/svg11.dtd">
<!-- Generated by graphviz version 2.40.1 (20161225.0304)
 -->
<!-- Title: oneDegreeRelationshipsDiagram Pages: 1 -->
<svg width="490pt" height="338pt"
 viewBox="0.00 0.00 490.00 338.20" xmlns="http://www.w3.org/2000/svg" xmlns:xlink="http://www.w3.org/1999/xlink">
<g id="graph0" class="graph" transform="scale(1 1) rotate(0) translate(4 334.2)">
<title>oneDegreeRelationshipsDiagram</title>
<polygon fill="#ffffff" stroke="transparent" points="-4,4 -4,-334.2 486,-334.2 486,4 -4,4"/>
<text text-anchor="middle" x="72.4936" y="-7.3" font-family="Helvetica,sans-Serif" font-size="11.00" fill="#000000">Generated by SchemaSpy</text>
<!-- lukion_aineopintojen_moduulien_rahoitusmuodot -->
<g id="node1" class="node">
<title>lukion_aineopintojen_moduulien_rahoitusmuodot</title>
<g id="a_node1"><a xlink:href="../../tables/lukion_aineopintojen_moduulien__90dfe69d.html" xlink:title="lukion_aineopintojen_moduulien_rahoitusmuodot" target="_top">
<polygon fill="#ffffff" stroke="transparent" points="8,-38.2 8,-326.2 474,-326.2 474,-38.2 8,-38.2"/>
<polygon fill="#f5f5f5" stroke="transparent" points="10,-301.2 10,-324.2 472,-324.2 472,-301.2 10,-301.2"/>
<polygon fill="none" stroke="#000000" points="10,-301.2 10,-324.2 472,-324.2 472,-301.2 10,-301.2"/>
<text text-anchor="start" x="15" y="-309.8" font-family="Helvetica,sans-Serif" font-weight="bold" font-size="11.00" fill="#000000">lukion_aineopintojen_moduulien_rahoitusmuodot</text>
<text text-anchor="start" x="437.0437" y="-309.3" font-family="Helvetica,sans-Serif" font-size="11.00" fill="#000000">[table]</text>
<polygon fill="#ffffff" stroke="transparent" points="10,-279.2 10,-301.2 363,-301.2 363,-279.2 10,-279.2"/>
<polygon fill="none" stroke="#000000" points="10,-279.2 10,-301.2 363,-301.2 363,-279.2 10,-279.2"/>
<text text-anchor="start" x="30" y="-286.3" font-family="Helvetica,sans-Serif" font-size="11.00" fill="#000000">oppilaitos_oid</text>
<polygon fill="none" stroke="#000000" points="363,-279.2 363,-301.2 472,-301.2 472,-279.2 363,-279.2"/>
<text text-anchor="start" x="365.5344" y="-286.9" font-family="Helvetica,sans-Serif" font-size="11.00" fill="#000000">varchar[2147483647]</text>
<polygon fill="none" stroke="#000000" points="10,-257.2 10,-279.2 363,-279.2 363,-257.2 10,-257.2"/>
<text text-anchor="start" x="30" y="-264.3" font-family="Helvetica,sans-Serif" font-size="11.00" fill="#000000">opiskeluoikeus_oid</text>
<polygon fill="none" stroke="#000000" points="363,-257.2 363,-279.2 472,-279.2 472,-257.2 363,-257.2"/>
<text text-anchor="start" x="365.5344" y="-264.9" font-family="Helvetica,sans-Serif" font-size="11.00" fill="#000000">varchar[2147483647]</text>
<polygon fill="none" stroke="#000000" points="10,-235.2 10,-257.2 363,-257.2 363,-235.2 10,-235.2"/>
<text text-anchor="start" x="30" y="-242.3" font-family="Helvetica,sans-Serif" font-size="11.00" fill="#000000">oppija_oid</text>
<polygon fill="none" stroke="#000000" points="363,-235.2 363,-257.2 472,-257.2 472,-235.2 363,-235.2"/>
<text text-anchor="start" x="365.5344" y="-242.9" font-family="Helvetica,sans-Serif" font-size="11.00" fill="#000000">varchar[2147483647]</text>
<polygon fill="none" stroke="#000000" points="10,-213.2 10,-235.2 363,-235.2 363,-213.2 10,-213.2"/>
<text text-anchor="start" x="30" y="-220.3" font-family="Helvetica,sans-Serif" font-size="11.00" fill="#000000">oppija_master_oid</text>
<polygon fill="none" stroke="#000000" points="363,-213.2 363,-235.2 472,-235.2 472,-213.2 363,-213.2"/>
<text text-anchor="start" x="365.5344" y="-220.9" font-family="Helvetica,sans-Serif" font-size="11.00" fill="#000000">varchar[2147483647]</text>
<polygon fill="none" stroke="#000000" points="10,-191.2 10,-213.2 363,-213.2 363,-191.2 10,-191.2"/>
<text text-anchor="start" x="30" y="-198.3" font-family="Helvetica,sans-Serif" font-size="11.00" fill="#000000">koulutusmoduuli_koodiarvo</text>
<polygon fill="none" stroke="#000000" points="363,-191.2 363,-213.2 472,-213.2 472,-191.2 363,-191.2"/>
<text text-anchor="start" x="365.5344" y="-198.9" font-family="Helvetica,sans-Serif" font-size="11.00" fill="#000000">varchar[2147483647]</text>
<polygon fill="none" stroke="#000000" points="10,-169.2 10,-191.2 363,-191.2 363,-169.2 10,-169.2"/>
<text text-anchor="start" x="30" y="-176.3" font-family="Helvetica,sans-Serif" font-size="11.00" fill="#000000">koulutusmoduuli_nimi</text>
<polygon fill="none" stroke="#000000" points="363,-169.2 363,-191.2 472,-191.2 472,-169.2 363,-169.2"/>
<text text-anchor="start" x="365.5344" y="-176.9" font-family="Helvetica,sans-Serif" font-size="11.00" fill="#000000">varchar[2147483647]</text>
<polygon fill="none" stroke="#000000" points="10,-147.2 10,-169.2 363,-169.2 363,-147.2 10,-147.2"/>
<text text-anchor="start" x="30" y="-154.3" font-family="Helvetica,sans-Serif" font-size="11.00" fill="#000000">arviointi_paiva</text>
<polygon fill="none" stroke="#000000" points="363,-147.2 363,-169.2 472,-169.2 472,-147.2 363,-147.2"/>
<text text-anchor="start" x="366" y="-154.9" font-family="Helvetica,sans-Serif" font-size="11.00" fill="#000000">date[13]</text>
<polygon fill="none" stroke="#000000" points="10,-125.2 10,-147.2 363,-147.2 363,-125.2 10,-125.2"/>
<text text-anchor="start" x="30" y="-132.3" font-family="Helvetica,sans-Serif" font-size="11.00" fill="#000000">osasuorituksen_tyyppi</text>
<polygon fill="none" stroke="#000000" points="363,-125.2 363,-147.2 472,-147.2 472,-125.2 363,-125.2"/>
<text text-anchor="start" x="365.5344" y="-132.9" font-family="Helvetica,sans-Serif" font-size="11.00" fill="#000000">varchar[2147483647]</text>
<polygon fill="none" stroke="#000000" points="10,-103.2 10,-125.2 363,-125.2 363,-103.2 10,-103.2"/>
<text text-anchor="start" x="30" y="-110.3" font-family="Helvetica,sans-Serif" font-size="11.00" fill="#000000">opintojen_rahoitus</text>
<polygon fill="none" stroke="#000000" points="363,-103.2 363,-125.2 472,-125.2 472,-103.2 363,-103.2"/>
<text text-anchor="start" x="365.5344" y="-110.9" font-family="Helvetica,sans-Serif" font-size="11.00" fill="#000000">varchar[2147483647]</text>
<polygon fill="none" stroke="#000000" points="10,-81.2 10,-103.2 363,-103.2 363,-81.2 10,-81.2"/>
<text text-anchor="start" x="30" y="-88.3" font-family="Helvetica,sans-Serif" font-size="11.00" fill="#000000">koulutusmoduuli_laajuus_arvo</text>
<polygon fill="none" stroke="#000000" points="363,-81.2 363,-103.2 472,-103.2 472,-81.2 363,-81.2"/>
<text text-anchor="start" x="366" y="-88.9" font-family="Helvetica,sans-Serif" font-size="11.00" fill="#000000">numeric[0]</text>
<polygon fill="none" stroke="#000000" points="10,-59.2 10,-81.2 363,-81.2 363,-59.2 10,-59.2"/>
<text text-anchor="start" x="30" y="-66.3" font-family="Helvetica,sans-Serif" font-size="11.00" fill="#000000">oppimaara_koodiarvo</text>
<polygon fill="none" stroke="#000000" points="363,-59.2 363,-81.2 472,-81.2 472,-59.2 363,-59.2"/>
<text text-anchor="start" x="365.5344" y="-66.9" font-family="Helvetica,sans-Serif" font-size="11.00" fill="#000000">varchar[2147483647]</text>
<polygon fill="#ffffff" stroke="transparent" points="10,-40.2 10,-59.2 178,-59.2 178,-40.2 10,-40.2"/>
<polygon fill="none" stroke="#000000" points="10,-40.2 10,-59.2 178,-59.2 178,-40.2 10,-40.2"/>
<text text-anchor="start" x="13" y="-46.3" font-family="Helvetica,sans-Serif" font-size="11.00" fill="#000000">&lt; 0</text>
<polygon fill="#ffffff" stroke="transparent" points="178,-40.2 178,-59.2 363,-59.2 363,-40.2 178,-40.2"/>
<polygon fill="none" stroke="#000000" points="178,-40.2 178,-59.2 363,-59.2 363,-40.2 178,-40.2"/>
<text text-anchor="start" x="327.6105" y="-46.3" font-family="Helvetica,sans-Serif" font-size="11.00" fill="#000000">3 rows</text>
<polygon fill="#ffffff" stroke="transparent" points="363,-40.2 363,-59.2 472,-59.2 472,-40.2 363,-40.2"/>
<polygon fill="none" stroke="#000000" points="363,-40.2 363,-59.2 472,-59.2 472,-40.2 363,-40.2"/>
<text text-anchor="start" x="453.4053" y="-46.3" font-family="Helvetica,sans-Serif" font-size="11.00" fill="#000000">0 &gt;</text>
<polygon fill="none" stroke="#000000" stroke-width="2" points="9,-39.2 9,-325.2 473,-325.2 473,-39.2 9,-39.2"/>
</a>
</g>
</g>
</g>
</svg>
