<?xml version="1.0" encoding="UTF-8" standalone="no"?>
<!DOCTYPE svg PUBLIC "-//W3C//DTD SVG 1.1//EN"
 "http://www.w3.org/Graphics/SVG/1.1/DTD/svg11.dtd">
<!-- Generated by graphviz version 2.40.1 (20161225.0304)
 -->
<!-- Title: oneDegreeRelationshipsDiagram Pages: 1 -->
<svg width="506pt" height="536pt"
 viewBox="0.00 0.00 506.00 536.20" xmlns="http://www.w3.org/2000/svg" xmlns:xlink="http://www.w3.org/1999/xlink">
<g id="graph0" class="graph" transform="scale(1 1) rotate(0) translate(4 532.2)">
<title>oneDegreeRelationshipsDiagram</title>
<polygon fill="#ffffff" stroke="transparent" points="-4,4 -4,-532.2 502,-532.2 502,4 -4,4"/>
<text text-anchor="middle" x="72.4936" y="-7.3" font-family="Helvetica,sans-Serif" font-size="11.00" fill="#000000">Generated by SchemaSpy</text>
<!-- lukion_aineopintojen_opintopistekertyma -->
<g id="node1" class="node">
<title>lukion_aineopintojen_opintopistekertyma</title>
<g id="a_node1"><a xlink:href="../../tables/lukion_aineopintojen_opintopistekertyma.html" xlink:title="lukion_aineopintojen_opintopistekertyma" target="_top">
<polygon fill="#ffffff" stroke="transparent" points="8,-38.2 8,-524.2 490,-524.2 490,-38.2 8,-38.2"/>
<polygon fill="#f5f5f5" stroke="transparent" points="10,-499.2 10,-522.2 488,-522.2 488,-499.2 10,-499.2"/>
<polygon fill="none" stroke="#000000" points="10,-499.2 10,-522.2 488,-522.2 488,-499.2 10,-499.2"/>
<text text-anchor="start" x="15" y="-507.8" font-family="Helvetica,sans-Serif" font-weight="bold" font-size="11.00" fill="#000000">lukion_aineopintojen_opintopistekertyma</text>
<text text-anchor="start" x="453.0437" y="-507.3" font-family="Helvetica,sans-Serif" font-size="11.00" fill="#000000">[table]</text>
<polygon fill="#ffffff" stroke="transparent" points="10,-477.2 10,-499.2 379,-499.2 379,-477.2 10,-477.2"/>
<polygon fill="none" stroke="#000000" points="10,-477.2 10,-499.2 379,-499.2 379,-477.2 10,-477.2"/>
<text text-anchor="start" x="30" y="-484.3" font-family="Helvetica,sans-Serif" font-size="11.00" fill="#000000">oppilaitos_oid</text>
<polygon fill="none" stroke="#000000" points="379,-477.2 379,-499.2 488,-499.2 488,-477.2 379,-477.2"/>
<text text-anchor="start" x="381.5344" y="-484.9" font-family="Helvetica,sans-Serif" font-size="11.00" fill="#000000">varchar[2147483647]</text>
<polygon fill="#ffffff" stroke="transparent" points="10,-455.2 10,-477.2 379,-477.2 379,-455.2 10,-455.2"/>
<polygon fill="none" stroke="#000000" points="10,-455.2 10,-477.2 379,-477.2 379,-455.2 10,-455.2"/>
<text text-anchor="start" x="30" y="-462.3" font-family="Helvetica,sans-Serif" font-size="11.00" fill="#000000">arviointi_paiva</text>
<polygon fill="none" stroke="#000000" points="379,-455.2 379,-477.2 488,-477.2 488,-455.2 379,-455.2"/>
<text text-anchor="start" x="382" y="-462.9" font-family="Helvetica,sans-Serif" font-size="11.00" fill="#000000">date[13]</text>
<polygon fill="none" stroke="#000000" points="10,-433.2 10,-455.2 379,-455.2 379,-433.2 10,-433.2"/>
<text text-anchor="start" x="30" y="-440.3" font-family="Helvetica,sans-Serif" font-size="11.00" fill="#000000">oppimaara_koodiarvo</text>
<polygon fill="none" stroke="#000000" points="379,-433.2 379,-455.2 488,-455.2 488,-433.2 379,-433.2"/>
<text text-anchor="start" x="381.5344" y="-440.9" font-family="Helvetica,sans-Serif" font-size="11.00" fill="#000000">varchar[2147483647]</text>
<polygon fill="none" stroke="#000000" points="10,-411.2 10,-433.2 379,-433.2 379,-411.2 10,-411.2"/>
<text text-anchor="start" x="30" y="-418.3" font-family="Helvetica,sans-Serif" font-size="11.00" fill="#000000">yhteensa</text>
<polygon fill="none" stroke="#000000" points="379,-411.2 379,-433.2 488,-433.2 488,-411.2 379,-411.2"/>
<text text-anchor="start" x="382" y="-418.9" font-family="Helvetica,sans-Serif" font-size="11.00" fill="#000000">numeric[0]</text>
<polygon fill="none" stroke="#000000" points="10,-389.2 10,-411.2 379,-411.2 379,-389.2 10,-389.2"/>
<text text-anchor="start" x="30" y="-396.3" font-family="Helvetica,sans-Serif" font-size="11.00" fill="#000000">suoritettuja</text>
<polygon fill="none" stroke="#000000" points="379,-389.2 379,-411.2 488,-411.2 488,-389.2 379,-389.2"/>
<text text-anchor="start" x="382" y="-396.9" font-family="Helvetica,sans-Serif" font-size="11.00" fill="#000000">numeric[0]</text>
<polygon fill="none" stroke="#000000" points="10,-367.2 10,-389.2 379,-389.2 379,-367.2 10,-367.2"/>
<text text-anchor="start" x="30" y="-374.3" font-family="Helvetica,sans-Serif" font-size="11.00" fill="#000000">tunnustettuja</text>
<polygon fill="none" stroke="#000000" points="379,-367.2 379,-389.2 488,-389.2 488,-367.2 379,-367.2"/>
<text text-anchor="start" x="382" y="-374.9" font-family="Helvetica,sans-Serif" font-size="11.00" fill="#000000">numeric[0]</text>
<polygon fill="none" stroke="#000000" points="10,-345.2 10,-367.2 379,-367.2 379,-345.2 10,-345.2"/>
<text text-anchor="start" x="30" y="-352.3" font-family="Helvetica,sans-Serif" font-size="11.00" fill="#000000">tunnustettuja_rahoituksen_piirissa</text>
<polygon fill="none" stroke="#000000" points="379,-345.2 379,-367.2 488,-367.2 488,-345.2 379,-345.2"/>
<text text-anchor="start" x="382" y="-352.9" font-family="Helvetica,sans-Serif" font-size="11.00" fill="#000000">numeric[0]</text>
<polygon fill="none" stroke="#000000" points="10,-323.2 10,-345.2 379,-345.2 379,-323.2 10,-323.2"/>
<text text-anchor="start" x="30" y="-330.3" font-family="Helvetica,sans-Serif" font-size="11.00" fill="#000000">pakollisia_tai_valtakunnallisia</text>
<polygon fill="none" stroke="#000000" points="379,-323.2 379,-345.2 488,-345.2 488,-323.2 379,-323.2"/>
<text text-anchor="start" x="382" y="-330.9" font-family="Helvetica,sans-Serif" font-size="11.00" fill="#000000">numeric[0]</text>
<polygon fill="none" stroke="#000000" points="10,-301.2 10,-323.2 379,-323.2 379,-301.2 10,-301.2"/>
<text text-anchor="start" x="30" y="-308.3" font-family="Helvetica,sans-Serif" font-size="11.00" fill="#000000">pakollisia</text>
<polygon fill="none" stroke="#000000" points="379,-301.2 379,-323.2 488,-323.2 488,-301.2 379,-301.2"/>
<text text-anchor="start" x="382" y="-308.9" font-family="Helvetica,sans-Serif" font-size="11.00" fill="#000000">numeric[0]</text>
<polygon fill="none" stroke="#000000" points="10,-279.2 10,-301.2 379,-301.2 379,-279.2 10,-279.2"/>
<text text-anchor="start" x="30" y="-286.3" font-family="Helvetica,sans-Serif" font-size="11.00" fill="#000000">valtakunnallisia</text>
<polygon fill="none" stroke="#000000" points="379,-279.2 379,-301.2 488,-301.2 488,-279.2 379,-279.2"/>
<text text-anchor="start" x="382" y="-286.9" font-family="Helvetica,sans-Serif" font-size="11.00" fill="#000000">numeric[0]</text>
<polygon fill="none" stroke="#000000" points="10,-257.2 10,-279.2 379,-279.2 379,-257.2 10,-257.2"/>
<text text-anchor="start" x="30" y="-264.3" font-family="Helvetica,sans-Serif" font-size="11.00" fill="#000000">suoritettuja_pakollisia_ja_valtakunnallisia</text>
<polygon fill="none" stroke="#000000" points="379,-257.2 379,-279.2 488,-279.2 488,-257.2 379,-257.2"/>
<text text-anchor="start" x="382" y="-264.9" font-family="Helvetica,sans-Serif" font-size="11.00" fill="#000000">numeric[0]</text>
<polygon fill="none" stroke="#000000" points="10,-235.2 10,-257.2 379,-257.2 379,-235.2 10,-235.2"/>
<text text-anchor="start" x="30" y="-242.3" font-family="Helvetica,sans-Serif" font-size="11.00" fill="#000000">suoritettuja_pakollisia</text>
<polygon fill="none" stroke="#000000" points="379,-235.2 379,-257.2 488,-257.2 488,-235.2 379,-235.2"/>
<text text-anchor="start" x="382" y="-242.9" font-family="Helvetica,sans-Serif" font-size="11.00" fill="#000000">numeric[0]</text>
<polygon fill="none" stroke="#000000" points="10,-213.2 10,-235.2 379,-235.2 379,-213.2 10,-213.2"/>
<text text-anchor="start" x="30" y="-220.3" font-family="Helvetica,sans-Serif" font-size="11.00" fill="#000000">suoritettuja_valtakunnallisia</text>
<polygon fill="none" stroke="#000000" points="379,-213.2 379,-235.2 488,-235.2 488,-213.2 379,-213.2"/>
<text text-anchor="start" x="382" y="-220.9" font-family="Helvetica,sans-Serif" font-size="11.00" fill="#000000">numeric[0]</text>
<polygon fill="none" stroke="#000000" points="10,-191.2 10,-213.2 379,-213.2 379,-191.2 10,-191.2"/>
<text text-anchor="start" x="30" y="-198.3" font-family="Helvetica,sans-Serif" font-size="11.00" fill="#000000">tunnustettuja_pakollisia_ja_valtakunnallisia</text>
<polygon fill="none" stroke="#000000" points="379,-191.2 379,-213.2 488,-213.2 488,-191.2 379,-191.2"/>
<text text-anchor="start" x="382" y="-198.9" font-family="Helvetica,sans-Serif" font-size="11.00" fill="#000000">numeric[0]</text>
<polygon fill="none" stroke="#000000" points="10,-169.2 10,-191.2 379,-191.2 379,-169.2 10,-169.2"/>
<text text-anchor="start" x="30" y="-176.3" font-family="Helvetica,sans-Serif" font-size="11.00" fill="#000000">tunnustettuja_pakollisia</text>
<polygon fill="none" stroke="#000000" points="379,-169.2 379,-191.2 488,-191.2 488,-169.2 379,-169.2"/>
<text text-anchor="start" x="382" y="-176.9" font-family="Helvetica,sans-Serif" font-size="11.00" fill="#000000">numeric[0]</text>
<polygon fill="none" stroke="#000000" points="10,-147.2 10,-169.2 379,-169.2 379,-147.2 10,-147.2"/>
<text text-anchor="start" x="30" y="-154.3" font-family="Helvetica,sans-Serif" font-size="11.00" fill="#000000">tunnustettuja_valtakunnallisia</text>
<polygon fill="none" stroke="#000000" points="379,-147.2 379,-169.2 488,-169.2 488,-147.2 379,-147.2"/>
<text text-anchor="start" x="382" y="-154.9" font-family="Helvetica,sans-Serif" font-size="11.00" fill="#000000">numeric[0]</text>
<polygon fill="none" stroke="#000000" points="10,-125.2 10,-147.2 379,-147.2 379,-125.2 10,-125.2"/>
<text text-anchor="start" x="30" y="-132.3" font-family="Helvetica,sans-Serif" font-size="11.00" fill="#000000">tunnustut_pakolliset_ja_valtakunnalliset_rahoitus</text>
<polygon fill="none" stroke="#000000" points="379,-125.2 379,-147.2 488,-147.2 488,-125.2 379,-125.2"/>
<text text-anchor="start" x="382" y="-132.9" font-family="Helvetica,sans-Serif" font-size="11.00" fill="#000000">numeric[0]</text>
<polygon fill="none" stroke="#000000" points="10,-103.2 10,-125.2 379,-125.2 379,-103.2 10,-103.2"/>
<text text-anchor="start" x="30" y="-110.3" font-family="Helvetica,sans-Serif" font-size="11.00" fill="#000000">pakollisia_tunnustettuja_rahoituksen_piirissa</text>
<polygon fill="none" stroke="#000000" points="379,-103.2 379,-125.2 488,-125.2 488,-103.2 379,-103.2"/>
<text text-anchor="start" x="382" y="-110.9" font-family="Helvetica,sans-Serif" font-size="11.00" fill="#000000">numeric[0]</text>
<polygon fill="none" stroke="#000000" points="10,-81.2 10,-103.2 379,-103.2 379,-81.2 10,-81.2"/>
<text text-anchor="start" x="30" y="-88.3" font-family="Helvetica,sans-Serif" font-size="11.00" fill="#000000">valtakunnallisia_tunnustettuja_rahoituksen_piirissa</text>
<polygon fill="none" stroke="#000000" points="379,-81.2 379,-103.2 488,-103.2 488,-81.2 379,-81.2"/>
<text text-anchor="start" x="382" y="-88.9" font-family="Helvetica,sans-Serif" font-size="11.00" fill="#000000">numeric[0]</text>
<polygon fill="none" stroke="#000000" points="10,-59.2 10,-81.2 379,-81.2 379,-59.2 10,-59.2"/>
<text text-anchor="start" x="30" y="-66.3" font-family="Helvetica,sans-Serif" font-size="11.00" fill="#000000">eri_vuonna_korotettuja</text>
<polygon fill="none" stroke="#000000" points="379,-59.2 379,-81.2 488,-81.2 488,-59.2 379,-59.2"/>
<text text-anchor="start" x="382" y="-66.9" font-family="Helvetica,sans-Serif" font-size="11.00" fill="#000000">numeric[0]</text>
<polygon fill="#ffffff" stroke="transparent" points="10,-40.2 10,-59.2 186,-59.2 186,-40.2 10,-40.2"/>
<polygon fill="none" stroke="#000000" points="10,-40.2 10,-59.2 186,-59.2 186,-40.2 10,-40.2"/>
<text text-anchor="start" x="13" y="-46.3" font-family="Helvetica,sans-Serif" font-size="11.00" fill="#000000">&lt; 0</text>
<polygon fill="#ffffff" stroke="transparent" points="186,-40.2 186,-59.2 379,-59.2 379,-40.2 186,-40.2"/>
<polygon fill="none" stroke="#000000" points="186,-40.2 186,-59.2 379,-59.2 379,-40.2 186,-40.2"/>
<text text-anchor="start" x="343.6105" y="-46.3" font-family="Helvetica,sans-Serif" font-size="11.00" fill="#000000">2 rows</text>
<polygon fill="#ffffff" stroke="transparent" points="379,-40.2 379,-59.2 488,-59.2 488,-40.2 379,-40.2"/>
<polygon fill="none" stroke="#000000" points="379,-40.2 379,-59.2 488,-59.2 488,-40.2 379,-40.2"/>
<text text-anchor="start" x="469.4053" y="-46.3" font-family="Helvetica,sans-Serif" font-size="11.00" fill="#000000">0 &gt;</text>
<polygon fill="none" stroke="#000000" stroke-width="2" points="9,-39.2 9,-523.2 489,-523.2 489,-39.2 9,-39.2"/>
</a>
</g>
</g>
</g>
</svg>
