<?xml version="1.0" encoding="UTF-8" standalone="no"?>
<!DOCTYPE svg PUBLIC "-//W3C//DTD SVG 1.1//EN"
 "http://www.w3.org/Graphics/SVG/1.1/DTD/svg11.dtd">
<!-- Generated by graphviz version 2.40.1 (20161225.0304)
 -->
<!-- Title: oneDegreeRelationshipsDiagram Pages: 1 -->
<svg width="418pt" height="250pt"
 viewBox="0.00 0.00 418.00 250.20" xmlns="http://www.w3.org/2000/svg" xmlns:xlink="http://www.w3.org/1999/xlink">
<g id="graph0" class="graph" transform="scale(1 1) rotate(0) translate(4 246.2)">
<title>oneDegreeRelationshipsDiagram</title>
<polygon fill="#ffffff" stroke="transparent" points="-4,4 -4,-246.2 414,-246.2 414,4 -4,4"/>
<text text-anchor="middle" x="72.4936" y="-7.3" font-family="Helvetica,sans-Serif" font-size="11.00" fill="#000000">Generated by SchemaSpy</text>
<!-- lukion_aineopintojen_eri_vuonna_korotetut -->
<g id="node1" class="node">
<title>lukion_aineopintojen_eri_vuonna_korotetut</title>
<g id="a_node1"><a xlink:href="../../tables/lukion_aineopintojen_eri_vuonna_f8cfe17b.html" xlink:title="lukion_aineopintojen_eri_vuonna_korotetut" target="_top">
<polygon fill="#ffffff" stroke="transparent" points="8,-38.2 8,-238.2 402,-238.2 402,-38.2 8,-38.2"/>
<polygon fill="#f5f5f5" stroke="transparent" points="10,-213.2 10,-236.2 400,-236.2 400,-213.2 10,-213.2"/>
<polygon fill="none" stroke="#000000" points="10,-213.2 10,-236.2 400,-236.2 400,-213.2 10,-213.2"/>
<text text-anchor="start" x="15" y="-221.8" font-family="Helvetica,sans-Serif" font-weight="bold" font-size="11.00" fill="#000000">lukion_aineopintojen_eri_vuonna_korotetut</text>
<text text-anchor="start" x="365.0437" y="-221.3" font-family="Helvetica,sans-Serif" font-size="11.00" fill="#000000">[table]</text>
<polygon fill="#ffffff" stroke="transparent" points="10,-191.2 10,-213.2 291,-213.2 291,-191.2 10,-191.2"/>
<polygon fill="none" stroke="#000000" points="10,-191.2 10,-213.2 291,-213.2 291,-191.2 10,-191.2"/>
<text text-anchor="start" x="30" y="-198.3" font-family="Helvetica,sans-Serif" font-size="11.00" fill="#000000">oppilaitos_oid</text>
<polygon fill="none" stroke="#000000" points="291,-191.2 291,-213.2 400,-213.2 400,-191.2 291,-191.2"/>
<text text-anchor="start" x="293.5344" y="-198.9" font-family="Helvetica,sans-Serif" font-size="11.00" fill="#000000">varchar[2147483647]</text>
<polygon fill="none" stroke="#000000" points="10,-169.2 10,-191.2 291,-191.2 291,-169.2 10,-169.2"/>
<text text-anchor="start" x="30" y="-176.3" font-family="Helvetica,sans-Serif" font-size="11.00" fill="#000000">opiskeluoikeus_oid</text>
<polygon fill="none" stroke="#000000" points="291,-169.2 291,-191.2 400,-191.2 400,-169.2 291,-169.2"/>
<text text-anchor="start" x="293.5344" y="-176.9" font-family="Helvetica,sans-Serif" font-size="11.00" fill="#000000">varchar[2147483647]</text>
<polygon fill="none" stroke="#000000" points="10,-147.2 10,-169.2 291,-169.2 291,-147.2 10,-147.2"/>
<text text-anchor="start" x="30" y="-154.3" font-family="Helvetica,sans-Serif" font-size="11.00" fill="#000000">oppija_oid</text>
<polygon fill="none" stroke="#000000" points="291,-147.2 291,-169.2 400,-169.2 400,-147.2 291,-147.2"/>
<text text-anchor="start" x="293.5344" y="-154.9" font-family="Helvetica,sans-Serif" font-size="11.00" fill="#000000">varchar[2147483647]</text>
<polygon fill="none" stroke="#000000" points="10,-125.2 10,-147.2 291,-147.2 291,-125.2 10,-125.2"/>
<text text-anchor="start" x="30" y="-132.3" font-family="Helvetica,sans-Serif" font-size="11.00" fill="#000000">koulutusmoduuli_koodiarvo</text>
<polygon fill="none" stroke="#000000" points="291,-125.2 291,-147.2 400,-147.2 400,-125.2 291,-125.2"/>
<text text-anchor="start" x="293.5344" y="-132.9" font-family="Helvetica,sans-Serif" font-size="11.00" fill="#000000">varchar[2147483647]</text>
<polygon fill="none" stroke="#000000" points="10,-103.2 10,-125.2 291,-125.2 291,-103.2 10,-103.2"/>
<text text-anchor="start" x="30" y="-110.3" font-family="Helvetica,sans-Serif" font-size="11.00" fill="#000000">koulutusmoduuli_nimi</text>
<polygon fill="none" stroke="#000000" points="291,-103.2 291,-125.2 400,-125.2 400,-103.2 291,-103.2"/>
<text text-anchor="start" x="293.5344" y="-110.9" font-family="Helvetica,sans-Serif" font-size="11.00" fill="#000000">varchar[2147483647]</text>
<polygon fill="none" stroke="#000000" points="10,-81.2 10,-103.2 291,-103.2 291,-81.2 10,-81.2"/>
<text text-anchor="start" x="30" y="-88.3" font-family="Helvetica,sans-Serif" font-size="11.00" fill="#000000">arviointi_paiva</text>
<polygon fill="none" stroke="#000000" points="291,-81.2 291,-103.2 400,-103.2 400,-81.2 291,-81.2"/>
<text text-anchor="start" x="294" y="-88.9" font-family="Helvetica,sans-Serif" font-size="11.00" fill="#000000">date[13]</text>
<polygon fill="none" stroke="#000000" points="10,-59.2 10,-81.2 291,-81.2 291,-59.2 10,-59.2"/>
<text text-anchor="start" x="30" y="-66.3" font-family="Helvetica,sans-Serif" font-size="11.00" fill="#000000">korotettu_eri_vuonna</text>
<polygon fill="none" stroke="#000000" points="291,-59.2 291,-81.2 400,-81.2 400,-59.2 291,-59.2"/>
<text text-anchor="start" x="294" y="-66.9" font-family="Helvetica,sans-Serif" font-size="11.00" fill="#000000">bool[1]</text>
<polygon fill="#ffffff" stroke="transparent" points="10,-40.2 10,-59.2 142,-59.2 142,-40.2 10,-40.2"/>
<polygon fill="none" stroke="#000000" points="10,-40.2 10,-59.2 142,-59.2 142,-40.2 10,-40.2"/>
<text text-anchor="start" x="13" y="-46.3" font-family="Helvetica,sans-Serif" font-size="11.00" fill="#000000">&lt; 0</text>
<polygon fill="#ffffff" stroke="transparent" points="142,-40.2 142,-59.2 291,-59.2 291,-40.2 142,-40.2"/>
<polygon fill="none" stroke="#000000" points="142,-40.2 142,-59.2 291,-59.2 291,-40.2 142,-40.2"/>
<text text-anchor="start" x="255.6105" y="-46.3" font-family="Helvetica,sans-Serif" font-size="11.00" fill="#000000">3 rows</text>
<polygon fill="#ffffff" stroke="transparent" points="291,-40.2 291,-59.2 400,-59.2 400,-40.2 291,-40.2"/>
<polygon fill="none" stroke="#000000" points="291,-40.2 291,-59.2 400,-59.2 400,-40.2 291,-40.2"/>
<text text-anchor="start" x="381.4053" y="-46.3" font-family="Helvetica,sans-Serif" font-size="11.00" fill="#000000">0 &gt;</text>
<polygon fill="none" stroke="#000000" stroke-width="2" points="9,-39.2 9,-237.2 401,-237.2 401,-39.2 9,-39.2"/>
</a>
</g>
</g>
</g>
</svg>
