<?xml version="1.0" encoding="UTF-8" standalone="no"?>
<!DOCTYPE svg PUBLIC "-//W3C//DTD SVG 1.1//EN"
 "http://www.w3.org/Graphics/SVG/1.1/DTD/svg11.dtd">
<!-- Generated by graphviz version 2.40.1 (20161225.0304)
 -->
<!-- Title: oneDegreeRelationshipsDiagram Pages: 1 -->
<svg width="545pt" height="294pt"
 viewBox="0.00 0.00 545.00 294.20" xmlns="http://www.w3.org/2000/svg" xmlns:xlink="http://www.w3.org/1999/xlink">
<g id="graph0" class="graph" transform="scale(1 1) rotate(0) translate(4 290.2)">
<title>oneDegreeRelationshipsDiagram</title>
<polygon fill="#ffffff" stroke="transparent" points="-4,4 -4,-290.2 541,-290.2 541,4 -4,4"/>
<text text-anchor="middle" x="72.4936" y="-7.3" font-family="Helvetica,sans-Serif" font-size="11.00" fill="#000000">Generated by SchemaSpy</text>
<!-- lukion_oppiaineen_oppimaaran_kurssien_rahoitusmuodot -->
<g id="node1" class="node">
<title>lukion_oppiaineen_oppimaaran_kurssien_rahoitusmuodot</title>
<g id="a_node1"><a xlink:href="../../tables/lukion_oppiaineen_oppimaaran_ku_6b9ab367.html" xlink:title="lukion_oppiaineen_oppimaaran_kurssien_rahoitusmuodot" target="_top">
<polygon fill="#ffffff" stroke="transparent" points="8,-38.2 8,-282.2 529,-282.2 529,-38.2 8,-38.2"/>
<polygon fill="#f5f5f5" stroke="transparent" points="10.5,-257.2 10.5,-280.2 527.5,-280.2 527.5,-257.2 10.5,-257.2"/>
<polygon fill="none" stroke="#000000" points="10.5,-257.2 10.5,-280.2 527.5,-280.2 527.5,-257.2 10.5,-257.2"/>
<text text-anchor="start" x="15.5" y="-265.8" font-family="Helvetica,sans-Serif" font-weight="bold" font-size="11.00" fill="#000000">lukion_oppiaineen_oppimaaran_kurssien_rahoitusmuodot</text>
<text text-anchor="start" x="492.5437" y="-265.3" font-family="Helvetica,sans-Serif" font-size="11.00" fill="#000000">[table]</text>
<polygon fill="#ffffff" stroke="transparent" points="10.5,-235.2 10.5,-257.2 418.5,-257.2 418.5,-235.2 10.5,-235.2"/>
<polygon fill="none" stroke="#000000" points="10.5,-235.2 10.5,-257.2 418.5,-257.2 418.5,-235.2 10.5,-235.2"/>
<text text-anchor="start" x="30.5" y="-242.3" font-family="Helvetica,sans-Serif" font-size="11.00" fill="#000000">oppilaitos_oid</text>
<polygon fill="none" stroke="#000000" points="418.5,-235.2 418.5,-257.2 527.5,-257.2 527.5,-235.2 418.5,-235.2"/>
<text text-anchor="start" x="421.0344" y="-242.9" font-family="Helvetica,sans-Serif" font-size="11.00" fill="#000000">varchar[2147483647]</text>
<polygon fill="none" stroke="#000000" points="10.5,-213.2 10.5,-235.2 418.5,-235.2 418.5,-213.2 10.5,-213.2"/>
<text text-anchor="start" x="30.5" y="-220.3" font-family="Helvetica,sans-Serif" font-size="11.00" fill="#000000">opiskeluoikeus_oid</text>
<polygon fill="none" stroke="#000000" points="418.5,-213.2 418.5,-235.2 527.5,-235.2 527.5,-213.2 418.5,-213.2"/>
<text text-anchor="start" x="421.0344" y="-220.9" font-family="Helvetica,sans-Serif" font-size="11.00" fill="#000000">varchar[2147483647]</text>
<polygon fill="none" stroke="#000000" points="10.5,-191.2 10.5,-213.2 418.5,-213.2 418.5,-191.2 10.5,-191.2"/>
<text text-anchor="start" x="30.5" y="-198.3" font-family="Helvetica,sans-Serif" font-size="11.00" fill="#000000">oppija_oid</text>
<polygon fill="none" stroke="#000000" points="418.5,-191.2 418.5,-213.2 527.5,-213.2 527.5,-191.2 418.5,-191.2"/>
<text text-anchor="start" x="421.0344" y="-198.9" font-family="Helvetica,sans-Serif" font-size="11.00" fill="#000000">varchar[2147483647]</text>
<polygon fill="none" stroke="#000000" points="10.5,-169.2 10.5,-191.2 418.5,-191.2 418.5,-169.2 10.5,-169.2"/>
<text text-anchor="start" x="30.5" y="-176.3" font-family="Helvetica,sans-Serif" font-size="11.00" fill="#000000">oppija_master_oid</text>
<polygon fill="none" stroke="#000000" points="418.5,-169.2 418.5,-191.2 527.5,-191.2 527.5,-169.2 418.5,-169.2"/>
<text text-anchor="start" x="421.0344" y="-176.9" font-family="Helvetica,sans-Serif" font-size="11.00" fill="#000000">varchar[2147483647]</text>
<polygon fill="none" stroke="#000000" points="10.5,-147.2 10.5,-169.2 418.5,-169.2 418.5,-147.2 10.5,-147.2"/>
<text text-anchor="start" x="30.5" y="-154.3" font-family="Helvetica,sans-Serif" font-size="11.00" fill="#000000">koulutusmoduuli_koodiarvo</text>
<polygon fill="none" stroke="#000000" points="418.5,-147.2 418.5,-169.2 527.5,-169.2 527.5,-147.2 418.5,-147.2"/>
<text text-anchor="start" x="421.0344" y="-154.9" font-family="Helvetica,sans-Serif" font-size="11.00" fill="#000000">varchar[2147483647]</text>
<polygon fill="none" stroke="#000000" points="10.5,-125.2 10.5,-147.2 418.5,-147.2 418.5,-125.2 10.5,-125.2"/>
<text text-anchor="start" x="30.5" y="-132.3" font-family="Helvetica,sans-Serif" font-size="11.00" fill="#000000">koulutusmoduuli_nimi</text>
<polygon fill="none" stroke="#000000" points="418.5,-125.2 418.5,-147.2 527.5,-147.2 527.5,-125.2 418.5,-125.2"/>
<text text-anchor="start" x="421.0344" y="-132.9" font-family="Helvetica,sans-Serif" font-size="11.00" fill="#000000">varchar[2147483647]</text>
<polygon fill="none" stroke="#000000" points="10.5,-103.2 10.5,-125.2 418.5,-125.2 418.5,-103.2 10.5,-103.2"/>
<text text-anchor="start" x="30.5" y="-110.3" font-family="Helvetica,sans-Serif" font-size="11.00" fill="#000000">koulutusmoduuli_nimi_sv</text>
<polygon fill="none" stroke="#000000" points="418.5,-103.2 418.5,-125.2 527.5,-125.2 527.5,-103.2 418.5,-103.2"/>
<text text-anchor="start" x="421.5" y="-110.9" font-family="Helvetica,sans-Serif" font-size="11.00" fill="#000000">text[2147483647]</text>
<polygon fill="none" stroke="#000000" points="10.5,-81.2 10.5,-103.2 418.5,-103.2 418.5,-81.2 10.5,-81.2"/>
<text text-anchor="start" x="30.5" y="-88.3" font-family="Helvetica,sans-Serif" font-size="11.00" fill="#000000">arviointi_paiva</text>
<polygon fill="none" stroke="#000000" points="418.5,-81.2 418.5,-103.2 527.5,-103.2 527.5,-81.2 418.5,-81.2"/>
<text text-anchor="start" x="421.5" y="-88.9" font-family="Helvetica,sans-Serif" font-size="11.00" fill="#000000">date[13]</text>
<polygon fill="none" stroke="#000000" points="10.5,-59.2 10.5,-81.2 418.5,-81.2 418.5,-59.2 10.5,-59.2"/>
<text text-anchor="start" x="30.5" y="-66.3" font-family="Helvetica,sans-Serif" font-size="11.00" fill="#000000">opintojen_rahoitus</text>
<polygon fill="none" stroke="#000000" points="418.5,-59.2 418.5,-81.2 527.5,-81.2 527.5,-59.2 418.5,-59.2"/>
<text text-anchor="start" x="421.0344" y="-66.9" font-family="Helvetica,sans-Serif" font-size="11.00" fill="#000000">varchar[2147483647]</text>
<polygon fill="#ffffff" stroke="transparent" points="10.5,-40.2 10.5,-59.2 202.5,-59.2 202.5,-40.2 10.5,-40.2"/>
<polygon fill="none" stroke="#000000" points="10.5,-40.2 10.5,-59.2 202.5,-59.2 202.5,-40.2 10.5,-40.2"/>
<text text-anchor="start" x="13.5" y="-46.3" font-family="Helvetica,sans-Serif" font-size="11.00" fill="#000000">&lt; 0</text>
<polygon fill="#ffffff" stroke="transparent" points="202.5,-40.2 202.5,-59.2 418.5,-59.2 418.5,-40.2 202.5,-40.2"/>
<polygon fill="none" stroke="#000000" points="202.5,-40.2 202.5,-59.2 418.5,-59.2 418.5,-40.2 202.5,-40.2"/>
<text text-anchor="start" x="376.9956" y="-46.3" font-family="Helvetica,sans-Serif" font-size="11.00" fill="#000000">23 rows</text>
<polygon fill="#ffffff" stroke="transparent" points="418.5,-40.2 418.5,-59.2 527.5,-59.2 527.5,-40.2 418.5,-40.2"/>
<polygon fill="none" stroke="#000000" points="418.5,-40.2 418.5,-59.2 527.5,-59.2 527.5,-40.2 418.5,-40.2"/>
<text text-anchor="start" x="508.9053" y="-46.3" font-family="Helvetica,sans-Serif" font-size="11.00" fill="#000000">0 &gt;</text>
<polygon fill="none" stroke="#000000" stroke-width="2" points="9,-39.2 9,-281.2 528,-281.2 528,-39.2 9,-39.2"/>
</a>
</g>
</g>
</g>
</svg>
