<?xml version="1.0" encoding="UTF-8" standalone="no"?>
<!DOCTYPE svg PUBLIC "-//W3C//DTD SVG 1.1//EN"
 "http://www.w3.org/Graphics/SVG/1.1/DTD/svg11.dtd">
<!-- Generated by graphviz version 2.40.1 (20161225.0304)
 -->
<!-- Title: oneDegreeRelationshipsDiagram Pages: 1 -->
<svg width="453pt" height="536pt"
 viewBox="0.00 0.00 453.00 536.20" xmlns="http://www.w3.org/2000/svg" xmlns:xlink="http://www.w3.org/1999/xlink">
<g id="graph0" class="graph" transform="scale(1 1) rotate(0) translate(4 532.2)">
<title>oneDegreeRelationshipsDiagram</title>
<polygon fill="#ffffff" stroke="transparent" points="-4,4 -4,-532.2 449,-532.2 449,4 -4,4"/>
<text text-anchor="middle" x="72.4936" y="-7.3" font-family="Helvetica,sans-Serif" font-size="11.00" fill="#000000">Generated by SchemaSpy</text>
<!-- lukion_aineopintojen_opintopistekertyma -->
<g id="node1" class="node">
<title>lukion_aineopintojen_opintopistekertyma</title>
<g id="a_node1"><a xlink:href="../../tables/lukion_aineopintojen_opintopistekertyma.html" xlink:title="lukion_aineopintojen_opintopistekertyma" target="_top">
<polygon fill="#ffffff" stroke="transparent" points="8,-38.2 8,-524.2 437,-524.2 437,-38.2 8,-38.2"/>
<polygon fill="#f5f5f5" stroke="transparent" points="10.5,-499.2 10.5,-522.2 435.5,-522.2 435.5,-499.2 10.5,-499.2"/>
<polygon fill="none" stroke="#000000" points="10.5,-499.2 10.5,-522.2 435.5,-522.2 435.5,-499.2 10.5,-499.2"/>
<text text-anchor="start" x="15.5" y="-507.8" font-family="Helvetica,sans-Serif" font-weight="bold" font-size="11.00" fill="#000000">lukion_aineopintojen_opintopistekertyma</text>
<text text-anchor="start" x="400.5437" y="-507.3" font-family="Helvetica,sans-Serif" font-size="11.00" fill="#000000">[table]</text>
<polygon fill="#ffffff" stroke="transparent" points="10.5,-477.2 10.5,-499.2 326.5,-499.2 326.5,-477.2 10.5,-477.2"/>
<polygon fill="none" stroke="#000000" points="10.5,-477.2 10.5,-499.2 326.5,-499.2 326.5,-477.2 10.5,-477.2"/>
<text text-anchor="start" x="30.5" y="-484.3" font-family="Helvetica,sans-Serif" font-size="11.00" fill="#000000">oppilaitos_oid</text>
<polygon fill="none" stroke="#000000" points="326.5,-477.2 326.5,-499.2 435.5,-499.2 435.5,-477.2 326.5,-477.2"/>
<text text-anchor="start" x="329.0344" y="-484.9" font-family="Helvetica,sans-Serif" font-size="11.00" fill="#000000">varchar[2147483647]</text>
<polygon fill="#ffffff" stroke="transparent" points="10.5,-455.2 10.5,-477.2 326.5,-477.2 326.5,-455.2 10.5,-455.2"/>
<polygon fill="none" stroke="#000000" points="10.5,-455.2 10.5,-477.2 326.5,-477.2 326.5,-455.2 10.5,-455.2"/>
<text text-anchor="start" x="30.5" y="-462.3" font-family="Helvetica,sans-Serif" font-size="11.00" fill="#000000">arviointi_paiva</text>
<polygon fill="none" stroke="#000000" points="326.5,-455.2 326.5,-477.2 435.5,-477.2 435.5,-455.2 326.5,-455.2"/>
<text text-anchor="start" x="329.5" y="-462.9" font-family="Helvetica,sans-Serif" font-size="11.00" fill="#000000">date[13]</text>
<polygon fill="none" stroke="#000000" points="10.5,-433.2 10.5,-455.2 326.5,-455.2 326.5,-433.2 10.5,-433.2"/>
<text text-anchor="start" x="30.5" y="-440.3" font-family="Helvetica,sans-Serif" font-size="11.00" fill="#000000">oppimaara_koodiarvo</text>
<polygon fill="none" stroke="#000000" points="326.5,-433.2 326.5,-455.2 435.5,-455.2 435.5,-433.2 326.5,-433.2"/>
<text text-anchor="start" x="329.0344" y="-440.9" font-family="Helvetica,sans-Serif" font-size="11.00" fill="#000000">varchar[2147483647]</text>
<polygon fill="none" stroke="#000000" points="10.5,-411.2 10.5,-433.2 326.5,-433.2 326.5,-411.2 10.5,-411.2"/>
<text text-anchor="start" x="30.5" y="-418.3" font-family="Helvetica,sans-Serif" font-size="11.00" fill="#000000">yhteensa</text>
<polygon fill="none" stroke="#000000" points="326.5,-411.2 326.5,-433.2 435.5,-433.2 435.5,-411.2 326.5,-411.2"/>
<text text-anchor="start" x="329.5" y="-418.9" font-family="Helvetica,sans-Serif" font-size="11.00" fill="#000000">numeric[0]</text>
<polygon fill="none" stroke="#000000" points="10.5,-389.2 10.5,-411.2 326.5,-411.2 326.5,-389.2 10.5,-389.2"/>
<text text-anchor="start" x="30.5" y="-396.3" font-family="Helvetica,sans-Serif" font-size="11.00" fill="#000000">suoritettuja</text>
<polygon fill="none" stroke="#000000" points="326.5,-389.2 326.5,-411.2 435.5,-411.2 435.5,-389.2 326.5,-389.2"/>
<text text-anchor="start" x="329.5" y="-396.9" font-family="Helvetica,sans-Serif" font-size="11.00" fill="#000000">numeric[0]</text>
<polygon fill="none" stroke="#000000" points="10.5,-367.2 10.5,-389.2 326.5,-389.2 326.5,-367.2 10.5,-367.2"/>
<text text-anchor="start" x="30.5" y="-374.3" font-family="Helvetica,sans-Serif" font-size="11.00" fill="#000000">tunnustettuja</text>
<polygon fill="none" stroke="#000000" points="326.5,-367.2 326.5,-389.2 435.5,-389.2 435.5,-367.2 326.5,-367.2"/>
<text text-anchor="start" x="329.5" y="-374.9" font-family="Helvetica,sans-Serif" font-size="11.00" fill="#000000">numeric[0]</text>
<polygon fill="none" stroke="#000000" points="10.5,-345.2 10.5,-367.2 326.5,-367.2 326.5,-345.2 10.5,-345.2"/>
<text text-anchor="start" x="30.5" y="-352.3" font-family="Helvetica,sans-Serif" font-size="11.00" fill="#000000">tunnustettuja_rahoituksen_piirissa</text>
<polygon fill="none" stroke="#000000" points="326.5,-345.2 326.5,-367.2 435.5,-367.2 435.5,-345.2 326.5,-345.2"/>
<text text-anchor="start" x="329.5" y="-352.9" font-family="Helvetica,sans-Serif" font-size="11.00" fill="#000000">numeric[0]</text>
<polygon fill="none" stroke="#000000" points="10.5,-323.2 10.5,-345.2 326.5,-345.2 326.5,-323.2 10.5,-323.2"/>
<text text-anchor="start" x="30.5" y="-330.3" font-family="Helvetica,sans-Serif" font-size="11.00" fill="#000000">pakollisia_tai_valtakunnallisia</text>
<polygon fill="none" stroke="#000000" points="326.5,-323.2 326.5,-345.2 435.5,-345.2 435.5,-323.2 326.5,-323.2"/>
<text text-anchor="start" x="329.5" y="-330.9" font-family="Helvetica,sans-Serif" font-size="11.00" fill="#000000">numeric[0]</text>
<polygon fill="none" stroke="#000000" points="10.5,-301.2 10.5,-323.2 326.5,-323.2 326.5,-301.2 10.5,-301.2"/>
<text text-anchor="start" x="30.5" y="-308.3" font-family="Helvetica,sans-Serif" font-size="11.00" fill="#000000">pakollisia</text>
<polygon fill="none" stroke="#000000" points="326.5,-301.2 326.5,-323.2 435.5,-323.2 435.5,-301.2 326.5,-301.2"/>
<text text-anchor="start" x="329.5" y="-308.9" font-family="Helvetica,sans-Serif" font-size="11.00" fill="#000000">numeric[0]</text>
<polygon fill="none" stroke="#000000" points="10.5,-279.2 10.5,-301.2 326.5,-301.2 326.5,-279.2 10.5,-279.2"/>
<text text-anchor="start" x="30.5" y="-286.3" font-family="Helvetica,sans-Serif" font-size="11.00" fill="#000000">valtakunnallisia</text>
<polygon fill="none" stroke="#000000" points="326.5,-279.2 326.5,-301.2 435.5,-301.2 435.5,-279.2 326.5,-279.2"/>
<text text-anchor="start" x="329.5" y="-286.9" font-family="Helvetica,sans-Serif" font-size="11.00" fill="#000000">numeric[0]</text>
<polygon fill="none" stroke="#000000" points="10.5,-257.2 10.5,-279.2 326.5,-279.2 326.5,-257.2 10.5,-257.2"/>
<text text-anchor="start" x="30.5" y="-264.3" font-family="Helvetica,sans-Serif" font-size="11.00" fill="#000000">suoritettuja_pakollisia_ja_valtakunnallisia</text>
<polygon fill="none" stroke="#000000" points="326.5,-257.2 326.5,-279.2 435.5,-279.2 435.5,-257.2 326.5,-257.2"/>
<text text-anchor="start" x="329.5" y="-264.9" font-family="Helvetica,sans-Serif" font-size="11.00" fill="#000000">numeric[0]</text>
<polygon fill="none" stroke="#000000" points="10.5,-235.2 10.5,-257.2 326.5,-257.2 326.5,-235.2 10.5,-235.2"/>
<text text-anchor="start" x="30.5" y="-242.3" font-family="Helvetica,sans-Serif" font-size="11.00" fill="#000000">suoritettuja_pakollisia</text>
<polygon fill="none" stroke="#000000" points="326.5,-235.2 326.5,-257.2 435.5,-257.2 435.5,-235.2 326.5,-235.2"/>
<text text-anchor="start" x="329.5" y="-242.9" font-family="Helvetica,sans-Serif" font-size="11.00" fill="#000000">numeric[0]</text>
<polygon fill="none" stroke="#000000" points="10.5,-213.2 10.5,-235.2 326.5,-235.2 326.5,-213.2 10.5,-213.2"/>
<text text-anchor="start" x="30.5" y="-220.3" font-family="Helvetica,sans-Serif" font-size="11.00" fill="#000000">suoritettuja_valtakunnallisia</text>
<polygon fill="none" stroke="#000000" points="326.5,-213.2 326.5,-235.2 435.5,-235.2 435.5,-213.2 326.5,-213.2"/>
<text text-anchor="start" x="329.5" y="-220.9" font-family="Helvetica,sans-Serif" font-size="11.00" fill="#000000">numeric[0]</text>
<polygon fill="none" stroke="#000000" points="10.5,-191.2 10.5,-213.2 326.5,-213.2 326.5,-191.2 10.5,-191.2"/>
<text text-anchor="start" x="30.5" y="-198.3" font-family="Helvetica,sans-Serif" font-size="11.00" fill="#000000">tunnustettuja_pakollisia_ja_valtakunnallisia</text>
<polygon fill="none" stroke="#000000" points="326.5,-191.2 326.5,-213.2 435.5,-213.2 435.5,-191.2 326.5,-191.2"/>
<text text-anchor="start" x="329.5" y="-198.9" font-family="Helvetica,sans-Serif" font-size="11.00" fill="#000000">numeric[0]</text>
<polygon fill="none" stroke="#000000" points="10.5,-169.2 10.5,-191.2 326.5,-191.2 326.5,-169.2 10.5,-169.2"/>
<text text-anchor="start" x="30.5" y="-176.3" font-family="Helvetica,sans-Serif" font-size="11.00" fill="#000000">tunnustettuja_pakollisia</text>
<polygon fill="none" stroke="#000000" points="326.5,-169.2 326.5,-191.2 435.5,-191.2 435.5,-169.2 326.5,-169.2"/>
<text text-anchor="start" x="329.5" y="-176.9" font-family="Helvetica,sans-Serif" font-size="11.00" fill="#000000">numeric[0]</text>
<polygon fill="none" stroke="#000000" points="10.5,-147.2 10.5,-169.2 326.5,-169.2 326.5,-147.2 10.5,-147.2"/>
<text text-anchor="start" x="30.5" y="-154.3" font-family="Helvetica,sans-Serif" font-size="11.00" fill="#000000">tunnustettuja_valtakunnallisia</text>
<polygon fill="none" stroke="#000000" points="326.5,-147.2 326.5,-169.2 435.5,-169.2 435.5,-147.2 326.5,-147.2"/>
<text text-anchor="start" x="329.5" y="-154.9" font-family="Helvetica,sans-Serif" font-size="11.00" fill="#000000">numeric[0]</text>
<polygon fill="none" stroke="#000000" points="10.5,-125.2 10.5,-147.2 326.5,-147.2 326.5,-125.2 10.5,-125.2"/>
<text text-anchor="start" x="30.5" y="-132.3" font-family="Helvetica,sans-Serif" font-size="11.00" fill="#000000">tunnustut_pakolliset_ja_valtakunnalliset_rahoitus</text>
<polygon fill="none" stroke="#000000" points="326.5,-125.2 326.5,-147.2 435.5,-147.2 435.5,-125.2 326.5,-125.2"/>
<text text-anchor="start" x="329.5" y="-132.9" font-family="Helvetica,sans-Serif" font-size="11.00" fill="#000000">numeric[0]</text>
<polygon fill="none" stroke="#000000" points="10.5,-103.2 10.5,-125.2 326.5,-125.2 326.5,-103.2 10.5,-103.2"/>
<text text-anchor="start" x="30.5" y="-110.3" font-family="Helvetica,sans-Serif" font-size="11.00" fill="#000000">pakollisia_tunnustettuja_rahoituksen_piirissa</text>
<polygon fill="none" stroke="#000000" points="326.5,-103.2 326.5,-125.2 435.5,-125.2 435.5,-103.2 326.5,-103.2"/>
<text text-anchor="start" x="329.5" y="-110.9" font-family="Helvetica,sans-Serif" font-size="11.00" fill="#000000">numeric[0]</text>
<polygon fill="none" stroke="#000000" points="10.5,-81.2 10.5,-103.2 326.5,-103.2 326.5,-81.2 10.5,-81.2"/>
<text text-anchor="start" x="30.5" y="-88.3" font-family="Helvetica,sans-Serif" font-size="11.00" fill="#000000">valtakunnallisia_tunnustettuja_rahoituksen_piirissa</text>
<polygon fill="none" stroke="#000000" points="326.5,-81.2 326.5,-103.2 435.5,-103.2 435.5,-81.2 326.5,-81.2"/>
<text text-anchor="start" x="329.5" y="-88.9" font-family="Helvetica,sans-Serif" font-size="11.00" fill="#000000">numeric[0]</text>
<polygon fill="none" stroke="#000000" points="10.5,-59.2 10.5,-81.2 326.5,-81.2 326.5,-59.2 10.5,-59.2"/>
<text text-anchor="start" x="30.5" y="-66.3" font-family="Helvetica,sans-Serif" font-size="11.00" fill="#000000">eri_vuonna_korotettuja</text>
<polygon fill="none" stroke="#000000" points="326.5,-59.2 326.5,-81.2 435.5,-81.2 435.5,-59.2 326.5,-59.2"/>
<text text-anchor="start" x="329.5" y="-66.9" font-family="Helvetica,sans-Serif" font-size="11.00" fill="#000000">numeric[0]</text>
<polygon fill="#ffffff" stroke="transparent" points="10.5,-40.2 10.5,-59.2 159.5,-59.2 159.5,-40.2 10.5,-40.2"/>
<polygon fill="none" stroke="#000000" points="10.5,-40.2 10.5,-59.2 159.5,-59.2 159.5,-40.2 10.5,-40.2"/>
<text text-anchor="start" x="13.5" y="-46.3" font-family="Helvetica,sans-Serif" font-size="11.00" fill="#000000">&lt; 0</text>
<polygon fill="#ffffff" stroke="transparent" points="159.5,-40.2 159.5,-59.2 326.5,-59.2 326.5,-40.2 159.5,-40.2"/>
<polygon fill="none" stroke="#000000" points="159.5,-40.2 159.5,-59.2 326.5,-59.2 326.5,-40.2 159.5,-40.2"/>
<text text-anchor="start" x="291.1105" y="-46.3" font-family="Helvetica,sans-Serif" font-size="11.00" fill="#000000">2 rows</text>
<polygon fill="#ffffff" stroke="transparent" points="326.5,-40.2 326.5,-59.2 435.5,-59.2 435.5,-40.2 326.5,-40.2"/>
<polygon fill="none" stroke="#000000" points="326.5,-40.2 326.5,-59.2 435.5,-59.2 435.5,-40.2 326.5,-40.2"/>
<text text-anchor="start" x="416.9053" y="-46.3" font-family="Helvetica,sans-Serif" font-size="11.00" fill="#000000">0 &gt;</text>
<polygon fill="none" stroke="#000000" stroke-width="2" points="9,-39.2 9,-523.2 436,-523.2 436,-39.2 9,-39.2"/>
</a>
</g>
</g>
</g>
</svg>
