<?xml version="1.0" encoding="UTF-8" standalone="no"?>
<!DOCTYPE svg PUBLIC "-//W3C//DTD SVG 1.1//EN"
 "http://www.w3.org/Graphics/SVG/1.1/DTD/svg11.dtd">
<!-- Generated by graphviz version 2.40.1 (20161225.0304)
 -->
<!-- Title: oneDegreeRelationshipsDiagram Pages: 1 -->
<svg width="383pt" height="228pt"
 viewBox="0.00 0.00 383.00 228.20" xmlns="http://www.w3.org/2000/svg" xmlns:xlink="http://www.w3.org/1999/xlink">
<g id="graph0" class="graph" transform="scale(1 1) rotate(0) translate(4 224.2)">
<title>oneDegreeRelationshipsDiagram</title>
<polygon fill="#ffffff" stroke="transparent" points="-4,4 -4,-224.2 379,-224.2 379,4 -4,4"/>
<text text-anchor="middle" x="72.4936" y="-7.3" font-family="Helvetica,sans-Serif" font-size="11.00" fill="#000000">Generated by SchemaSpy</text>
<!-- muu_ammatillinen_raportointi -->
<g id="node1" class="node">
<title>muu_ammatillinen_raportointi</title>
<g id="a_node1"><a xlink:href="../../tables/muu_ammatillinen_raportointi.html" xlink:title="muu_ammatillinen_raportointi" target="_top">
<polygon fill="#ffffff" stroke="transparent" points="8,-38.2 8,-216.2 367,-216.2 367,-38.2 8,-38.2"/>
<polygon fill="#f5f5f5" stroke="transparent" points="10.5,-191.2 10.5,-214.2 365.5,-214.2 365.5,-191.2 10.5,-191.2"/>
<polygon fill="none" stroke="#000000" points="10.5,-191.2 10.5,-214.2 365.5,-214.2 365.5,-191.2 10.5,-191.2"/>
<text text-anchor="start" x="15.5" y="-199.8" font-family="Helvetica,sans-Serif" font-weight="bold" font-size="11.00" fill="#000000">muu_ammatillinen_raportointi</text>
<text text-anchor="start" x="330.5437" y="-199.3" font-family="Helvetica,sans-Serif" font-size="11.00" fill="#000000">[table]</text>
<polygon fill="none" stroke="#000000" points="10.5,-169.2 10.5,-191.2 256.5,-191.2 256.5,-169.2 10.5,-169.2"/>
<text text-anchor="start" x="30.5" y="-176.3" font-family="Helvetica,sans-Serif" font-size="11.00" fill="#000000">opiskeluoikeus_oid</text>
<polygon fill="none" stroke="#000000" points="256.5,-169.2 256.5,-191.2 365.5,-191.2 365.5,-169.2 256.5,-169.2"/>
<text text-anchor="start" x="259.0344" y="-176.9" font-family="Helvetica,sans-Serif" font-size="11.00" fill="#000000">varchar[2147483647]</text>
<polygon fill="none" stroke="#000000" points="10.5,-147.2 10.5,-169.2 256.5,-169.2 256.5,-147.2 10.5,-147.2"/>
<text text-anchor="start" x="30.5" y="-154.3" font-family="Helvetica,sans-Serif" font-size="11.00" fill="#000000">paatason_suoritus_id</text>
<polygon fill="none" stroke="#000000" points="256.5,-147.2 256.5,-169.2 365.5,-169.2 365.5,-147.2 256.5,-147.2"/>
<text text-anchor="start" x="259.5" y="-154.9" font-family="Helvetica,sans-Serif" font-size="11.00" fill="#000000">int8[19]</text>
<polygon fill="none" stroke="#000000" points="10.5,-125.2 10.5,-147.2 256.5,-147.2 256.5,-125.2 10.5,-125.2"/>
<text text-anchor="start" x="30.5" y="-132.3" font-family="Helvetica,sans-Serif" font-size="11.00" fill="#000000">toteuttavan_luokan_nimi</text>
<polygon fill="none" stroke="#000000" points="256.5,-125.2 256.5,-147.2 365.5,-147.2 365.5,-125.2 256.5,-125.2"/>
<text text-anchor="start" x="259.0344" y="-132.9" font-family="Helvetica,sans-Serif" font-size="11.00" fill="#000000">varchar[2147483647]</text>
<polygon fill="none" stroke="#000000" points="10.5,-103.2 10.5,-125.2 256.5,-125.2 256.5,-103.2 10.5,-103.2"/>
<text text-anchor="start" x="30.5" y="-110.3" font-family="Helvetica,sans-Serif" font-size="11.00" fill="#000000">koulutusmoduuli_laajuus_arvo</text>
<polygon fill="none" stroke="#000000" points="256.5,-103.2 256.5,-125.2 365.5,-125.2 365.5,-103.2 256.5,-103.2"/>
<text text-anchor="start" x="259.5" y="-110.9" font-family="Helvetica,sans-Serif" font-size="11.00" fill="#000000">numeric[0]</text>
<polygon fill="none" stroke="#000000" points="10.5,-81.2 10.5,-103.2 256.5,-103.2 256.5,-81.2 10.5,-81.2"/>
<text text-anchor="start" x="30.5" y="-88.3" font-family="Helvetica,sans-Serif" font-size="11.00" fill="#000000">koulutusmoduuli_laajuus_yksikko</text>
<polygon fill="none" stroke="#000000" points="256.5,-81.2 256.5,-103.2 365.5,-103.2 365.5,-81.2 256.5,-81.2"/>
<text text-anchor="start" x="259.0344" y="-88.9" font-family="Helvetica,sans-Serif" font-size="11.00" fill="#000000">varchar[2147483647]</text>
<polygon fill="none" stroke="#000000" points="10.5,-59.2 10.5,-81.2 256.5,-81.2 256.5,-59.2 10.5,-59.2"/>
<text text-anchor="start" x="30.5" y="-66.3" font-family="Helvetica,sans-Serif" font-size="11.00" fill="#000000">arviointi_hyvaksytty</text>
<polygon fill="none" stroke="#000000" points="256.5,-59.2 256.5,-81.2 365.5,-81.2 365.5,-59.2 256.5,-59.2"/>
<text text-anchor="start" x="259.5" y="-66.9" font-family="Helvetica,sans-Serif" font-size="11.00" fill="#000000">bool[1]</text>
<polygon fill="#ffffff" stroke="transparent" points="10.5,-40.2 10.5,-59.2 121.5,-59.2 121.5,-40.2 10.5,-40.2"/>
<polygon fill="none" stroke="#000000" points="10.5,-40.2 10.5,-59.2 121.5,-59.2 121.5,-40.2 10.5,-40.2"/>
<text text-anchor="start" x="13.5" y="-46.3" font-family="Helvetica,sans-Serif" font-size="11.00" fill="#000000">&lt; 0</text>
<polygon fill="#ffffff" stroke="transparent" points="121.5,-40.2 121.5,-59.2 256.5,-59.2 256.5,-40.2 121.5,-40.2"/>
<polygon fill="none" stroke="#000000" points="121.5,-40.2 121.5,-59.2 256.5,-59.2 256.5,-40.2 121.5,-40.2"/>
<text text-anchor="start" x="214.9956" y="-46.3" font-family="Helvetica,sans-Serif" font-size="11.00" fill="#000000">25 rows</text>
<polygon fill="#ffffff" stroke="transparent" points="256.5,-40.2 256.5,-59.2 365.5,-59.2 365.5,-40.2 256.5,-40.2"/>
<polygon fill="none" stroke="#000000" points="256.5,-40.2 256.5,-59.2 365.5,-59.2 365.5,-40.2 256.5,-40.2"/>
<text text-anchor="start" x="346.9053" y="-46.3" font-family="Helvetica,sans-Serif" font-size="11.00" fill="#000000">0 &gt;</text>
<polygon fill="none" stroke="#000000" stroke-width="2" points="9,-39.2 9,-215.2 366,-215.2 366,-39.2 9,-39.2"/>
</a>
</g>
</g>
</g>
</svg>
