<?xml version="1.0" encoding="UTF-8" standalone="no"?>
<!DOCTYPE svg PUBLIC "-//W3C//DTD SVG 1.1//EN"
 "http://www.w3.org/Graphics/SVG/1.1/DTD/svg11.dtd">
<!-- Generated by graphviz version 2.40.1 (20161225.0304)
 -->
<!-- Title: oneDegreeRelationshipsDiagram Pages: 1 -->
<svg width="498pt" height="206pt"
 viewBox="0.00 0.00 498.00 206.20" xmlns="http://www.w3.org/2000/svg" xmlns:xlink="http://www.w3.org/1999/xlink">
<g id="graph0" class="graph" transform="scale(1 1) rotate(0) translate(4 202.2)">
<title>oneDegreeRelationshipsDiagram</title>
<polygon fill="#ffffff" stroke="transparent" points="-4,4 -4,-202.2 494,-202.2 494,4 -4,4"/>
<text text-anchor="middle" x="72.4936" y="-7.3" font-family="Helvetica,sans-Serif" font-size="11.00" fill="#000000">Generated by SchemaSpy</text>
<!-- oppivelvollisuustiedot -->
<g id="node1" class="node">
<title>oppivelvollisuustiedot</title>
<g id="a_node1"><a xlink:href="../../tables/oppivelvollisuustiedot.html" xlink:title="oppivelvollisuustiedot" target="_top">
<polygon fill="#ffffff" stroke="transparent" points="8,-38.2 8,-194.2 482,-194.2 482,-38.2 8,-38.2"/>
<polygon fill="#f5f5f5" stroke="transparent" points="10,-169.2 10,-192.2 480,-192.2 480,-169.2 10,-169.2"/>
<polygon fill="none" stroke="#000000" points="10,-169.2 10,-192.2 480,-192.2 480,-169.2 10,-169.2"/>
<text text-anchor="start" x="15" y="-177.8" font-family="Helvetica,sans-Serif" font-weight="bold" font-size="11.00" fill="#000000">oppivelvollisuustiedot</text>
<text text-anchor="start" x="445.0437" y="-177.3" font-family="Helvetica,sans-Serif" font-size="11.00" fill="#000000">[table]</text>
<polygon fill="#ffffff" stroke="transparent" points="10,-147.2 10,-169.2 371,-169.2 371,-147.2 10,-147.2"/>
<polygon fill="none" stroke="#000000" points="10,-147.2 10,-169.2 371,-169.2 371,-147.2 10,-147.2"/>
<text text-anchor="start" x="30" y="-154.3" font-family="Helvetica,sans-Serif" font-size="11.00" fill="#000000">oppija_oid</text>
<polygon fill="none" stroke="#000000" points="371,-147.2 371,-169.2 480,-169.2 480,-147.2 371,-147.2"/>
<text text-anchor="start" x="373.5344" y="-154.9" font-family="Helvetica,sans-Serif" font-size="11.00" fill="#000000">varchar[2147483647]</text>
<polygon fill="none" stroke="#000000" points="10,-125.2 10,-147.2 371,-147.2 371,-125.2 10,-125.2"/>
<text text-anchor="start" x="30" y="-132.3" font-family="Helvetica,sans-Serif" font-size="11.00" fill="#000000">oppivelvollisuusvoimassaalkaen</text>
<polygon fill="none" stroke="#000000" points="371,-125.2 371,-147.2 480,-147.2 480,-125.2 371,-125.2"/>
<text text-anchor="start" x="374" y="-132.9" font-family="Helvetica,sans-Serif" font-size="11.00" fill="#000000">date[13]</text>
<polygon fill="#ffffff" stroke="transparent" points="10,-103.2 10,-125.2 371,-125.2 371,-103.2 10,-103.2"/>
<polygon fill="none" stroke="#000000" points="10,-103.2 10,-125.2 371,-125.2 371,-103.2 10,-103.2"/>
<text text-anchor="start" x="30" y="-110.3" font-family="Helvetica,sans-Serif" font-size="11.00" fill="#000000">oppivelvollisuusvoimassaasti</text>
<polygon fill="none" stroke="#000000" points="371,-103.2 371,-125.2 480,-125.2 480,-103.2 371,-103.2"/>
<text text-anchor="start" x="374" y="-110.9" font-family="Helvetica,sans-Serif" font-size="11.00" fill="#000000">date[13]</text>
<polygon fill="#ffffff" stroke="transparent" points="10,-81.2 10,-103.2 371,-103.2 371,-81.2 10,-81.2"/>
<polygon fill="none" stroke="#000000" points="10,-81.2 10,-103.2 371,-103.2 371,-81.2 10,-81.2"/>
<text text-anchor="start" x="30" y="-88.3" font-family="Helvetica,sans-Serif" font-size="11.00" fill="#000000">oikeuskoulutuksenmaksuttomuuteenvoimassaasti</text>
<polygon fill="none" stroke="#000000" points="371,-81.2 371,-103.2 480,-103.2 480,-81.2 371,-81.2"/>
<text text-anchor="start" x="374" y="-88.9" font-family="Helvetica,sans-Serif" font-size="11.00" fill="#000000">date[13]</text>
<polygon fill="none" stroke="#000000" points="10,-59.2 10,-81.2 371,-81.2 371,-59.2 10,-59.2"/>
<text text-anchor="start" x="30" y="-66.3" font-family="Helvetica,sans-Serif" font-size="11.00" fill="#000000">kotikuntasuomessaalkaen</text>
<polygon fill="none" stroke="#000000" points="371,-59.2 371,-81.2 480,-81.2 480,-59.2 371,-59.2"/>
<text text-anchor="start" x="374" y="-66.9" font-family="Helvetica,sans-Serif" font-size="11.00" fill="#000000">date[13]</text>
<polygon fill="#ffffff" stroke="transparent" points="10,-40.2 10,-59.2 179,-59.2 179,-40.2 10,-40.2"/>
<polygon fill="none" stroke="#000000" points="10,-40.2 10,-59.2 179,-59.2 179,-40.2 10,-40.2"/>
<text text-anchor="start" x="13" y="-46.3" font-family="Helvetica,sans-Serif" font-size="11.00" fill="#000000">&lt; 0</text>
<polygon fill="#ffffff" stroke="transparent" points="179,-40.2 179,-59.2 371,-59.2 371,-40.2 179,-40.2"/>
<polygon fill="none" stroke="#000000" points="179,-40.2 179,-59.2 371,-59.2 371,-40.2 179,-40.2"/>
<text text-anchor="start" x="329.4956" y="-46.3" font-family="Helvetica,sans-Serif" font-size="11.00" fill="#000000">14 rows</text>
<polygon fill="#ffffff" stroke="transparent" points="371,-40.2 371,-59.2 480,-59.2 480,-40.2 371,-40.2"/>
<polygon fill="none" stroke="#000000" points="371,-40.2 371,-59.2 480,-59.2 480,-40.2 371,-40.2"/>
<text text-anchor="start" x="461.4053" y="-46.3" font-family="Helvetica,sans-Serif" font-size="11.00" fill="#000000">0 &gt;</text>
<polygon fill="none" stroke="#000000" stroke-width="2" points="9,-39.2 9,-193.2 481,-193.2 481,-39.2 9,-39.2"/>
</a>
</g>
</g>
</g>
</svg>
