<?xml version="1.0" encoding="UTF-8" standalone="no"?>
<!DOCTYPE svg PUBLIC "-//W3C//DTD SVG 1.1//EN"
 "http://www.w3.org/Graphics/SVG/1.1/DTD/svg11.dtd">
<!-- Generated by graphviz version 2.40.1 (20161225.0304)
 -->
<!-- Title: oneDegreeRelationshipsDiagram Pages: 1 -->
<svg width="470pt" height="250pt"
 viewBox="0.00 0.00 470.00 250.20" xmlns="http://www.w3.org/2000/svg" xmlns:xlink="http://www.w3.org/1999/xlink">
<g id="graph0" class="graph" transform="scale(1 1) rotate(0) translate(4 246.2)">
<title>oneDegreeRelationshipsDiagram</title>
<polygon fill="#ffffff" stroke="transparent" points="-4,4 -4,-246.2 466,-246.2 466,4 -4,4"/>
<text text-anchor="middle" x="72.4936" y="-7.3" font-family="Helvetica,sans-Serif" font-size="11.00" fill="#000000">Generated by SchemaSpy</text>
<!-- osasuoritus_arvioitu_opiskeluoikeuden_ulkopuolella -->
<g id="node1" class="node">
<title>osasuoritus_arvioitu_opiskeluoikeuden_ulkopuolella</title>
<g id="a_node1"><a xlink:href="../../tables/osasuoritus_arvioitu_opiskeluoi_6ab95832.html" xlink:title="osasuoritus_arvioitu_opiskeluoikeuden_ulkopuolella" target="_top">
<polygon fill="#ffffff" stroke="transparent" points="8,-38.2 8,-238.2 454,-238.2 454,-38.2 8,-38.2"/>
<polygon fill="#f5f5f5" stroke="transparent" points="10,-213.2 10,-236.2 452,-236.2 452,-213.2 10,-213.2"/>
<polygon fill="none" stroke="#000000" points="10,-213.2 10,-236.2 452,-236.2 452,-213.2 10,-213.2"/>
<text text-anchor="start" x="15" y="-221.8" font-family="Helvetica,sans-Serif" font-weight="bold" font-size="11.00" fill="#000000">osasuoritus_arvioitu_opiskeluoikeuden_ulkopuolella</text>
<text text-anchor="start" x="417.0437" y="-221.3" font-family="Helvetica,sans-Serif" font-size="11.00" fill="#000000">[table]</text>
<polygon fill="none" stroke="#000000" points="10,-191.2 10,-213.2 343,-213.2 343,-191.2 10,-191.2"/>
<text text-anchor="start" x="30" y="-198.3" font-family="Helvetica,sans-Serif" font-size="11.00" fill="#000000">opiskeluoikeus_oid</text>
<polygon fill="none" stroke="#000000" points="343,-191.2 343,-213.2 452,-213.2 452,-191.2 343,-191.2"/>
<text text-anchor="start" x="345.5344" y="-198.9" font-family="Helvetica,sans-Serif" font-size="11.00" fill="#000000">varchar[2147483647]</text>
<polygon fill="#ffffff" stroke="transparent" points="10,-169.2 10,-191.2 343,-191.2 343,-169.2 10,-169.2"/>
<polygon fill="none" stroke="#000000" points="10,-169.2 10,-191.2 343,-191.2 343,-169.2 10,-169.2"/>
<text text-anchor="start" x="30" y="-176.3" font-family="Helvetica,sans-Serif" font-size="11.00" fill="#000000">oppilaitos_oid</text>
<polygon fill="none" stroke="#000000" points="343,-169.2 343,-191.2 452,-191.2 452,-169.2 343,-169.2"/>
<text text-anchor="start" x="345.5344" y="-176.9" font-family="Helvetica,sans-Serif" font-size="11.00" fill="#000000">varchar[2147483647]</text>
<polygon fill="none" stroke="#000000" points="10,-147.2 10,-169.2 343,-169.2 343,-147.2 10,-147.2"/>
<text text-anchor="start" x="30" y="-154.3" font-family="Helvetica,sans-Serif" font-size="11.00" fill="#000000">osasuoritus_id</text>
<polygon fill="none" stroke="#000000" points="343,-147.2 343,-169.2 452,-169.2 452,-147.2 343,-147.2"/>
<text text-anchor="start" x="346" y="-154.9" font-family="Helvetica,sans-Serif" font-size="11.00" fill="#000000">int8[19]</text>
<polygon fill="none" stroke="#000000" points="10,-125.2 10,-147.2 343,-147.2 343,-125.2 10,-125.2"/>
<text text-anchor="start" x="30" y="-132.3" font-family="Helvetica,sans-Serif" font-size="11.00" fill="#000000">osasuorituksen_arviointi_paiva</text>
<polygon fill="none" stroke="#000000" points="343,-125.2 343,-147.2 452,-147.2 452,-125.2 343,-125.2"/>
<text text-anchor="start" x="346" y="-132.9" font-family="Helvetica,sans-Serif" font-size="11.00" fill="#000000">date[13]</text>
<polygon fill="none" stroke="#000000" points="10,-103.2 10,-125.2 343,-125.2 343,-103.2 10,-103.2"/>
<text text-anchor="start" x="30" y="-110.3" font-family="Helvetica,sans-Serif" font-size="11.00" fill="#000000">osasuorituksen_tyyppi</text>
<polygon fill="none" stroke="#000000" points="343,-103.2 343,-125.2 452,-125.2 452,-103.2 343,-103.2"/>
<text text-anchor="start" x="345.5344" y="-110.9" font-family="Helvetica,sans-Serif" font-size="11.00" fill="#000000">varchar[2147483647]</text>
<polygon fill="none" stroke="#000000" points="10,-81.2 10,-103.2 343,-103.2 343,-81.2 10,-81.2"/>
<text text-anchor="start" x="30" y="-88.3" font-family="Helvetica,sans-Serif" font-size="11.00" fill="#000000">paatason_suorituksen_tyyppi</text>
<polygon fill="none" stroke="#000000" points="343,-81.2 343,-103.2 452,-103.2 452,-81.2 343,-81.2"/>
<text text-anchor="start" x="345.5344" y="-88.9" font-family="Helvetica,sans-Serif" font-size="11.00" fill="#000000">varchar[2147483647]</text>
<polygon fill="none" stroke="#000000" points="10,-59.2 10,-81.2 343,-81.2 343,-59.2 10,-59.2"/>
<text text-anchor="start" x="30" y="-66.3" font-family="Helvetica,sans-Serif" font-size="11.00" fill="#000000">oppimaara_koodiarvo</text>
<polygon fill="none" stroke="#000000" points="343,-59.2 343,-81.2 452,-81.2 452,-59.2 343,-59.2"/>
<text text-anchor="start" x="345.5344" y="-66.9" font-family="Helvetica,sans-Serif" font-size="11.00" fill="#000000">varchar[2147483647]</text>
<polygon fill="#ffffff" stroke="transparent" points="10,-40.2 10,-59.2 162,-59.2 162,-40.2 10,-40.2"/>
<polygon fill="none" stroke="#000000" points="10,-40.2 10,-59.2 162,-59.2 162,-40.2 10,-40.2"/>
<text text-anchor="start" x="13" y="-46.3" font-family="Helvetica,sans-Serif" font-size="11.00" fill="#000000">&lt; 0</text>
<polygon fill="#ffffff" stroke="transparent" points="162,-40.2 162,-59.2 343,-59.2 343,-40.2 162,-40.2"/>
<polygon fill="none" stroke="#000000" points="162,-40.2 162,-59.2 343,-59.2 343,-40.2 162,-40.2"/>
<text text-anchor="start" x="295.3807" y="-46.3" font-family="Helvetica,sans-Serif" font-size="11.00" fill="#000000">430 rows</text>
<polygon fill="#ffffff" stroke="transparent" points="343,-40.2 343,-59.2 452,-59.2 452,-40.2 343,-40.2"/>
<polygon fill="none" stroke="#000000" points="343,-40.2 343,-59.2 452,-59.2 452,-40.2 343,-40.2"/>
<text text-anchor="start" x="433.4053" y="-46.3" font-family="Helvetica,sans-Serif" font-size="11.00" fill="#000000">0 &gt;</text>
<polygon fill="none" stroke="#000000" stroke-width="2" points="9,-39.2 9,-237.2 453,-237.2 453,-39.2 9,-39.2"/>
</a>
</g>
</g>
</g>
</svg>
