<?xml version="1.0" encoding="UTF-8" standalone="no"?>
<!DOCTYPE svg PUBLIC "-//W3C//DTD SVG 1.1//EN"
 "http://www.w3.org/Graphics/SVG/1.1/DTD/svg11.dtd">
<!-- Generated by graphviz version 2.40.1 (20161225.0304)
 -->
<!-- Title: oneDegreeRelationshipsDiagram Pages: 1 -->
<svg width="460pt" height="250pt"
 viewBox="0.00 0.00 460.00 250.20" xmlns="http://www.w3.org/2000/svg" xmlns:xlink="http://www.w3.org/1999/xlink">
<g id="graph0" class="graph" transform="scale(1 1) rotate(0) translate(4 246.2)">
<title>oneDegreeRelationshipsDiagram</title>
<polygon fill="#ffffff" stroke="transparent" points="-4,4 -4,-246.2 456,-246.2 456,4 -4,4"/>
<text text-anchor="middle" x="72.4936" y="-7.3" font-family="Helvetica,sans-Serif" font-size="11.00" fill="#000000">Generated by SchemaSpy</text>
<!-- osasuoritus_arvioitu_opiskeluoikeuden_ulkopuolella -->
<g id="node1" class="node">
<title>osasuoritus_arvioitu_opiskeluoikeuden_ulkopuolella</title>
<g id="a_node1"><a xlink:href="../../tables/osasuoritus_arvioitu_opiskeluoi_6ab95832.html" xlink:title="osasuoritus_arvioitu_opiskeluoikeuden_ulkopuolella" target="_top">
<polygon fill="#ffffff" stroke="transparent" points="8,-38.2 8,-238.2 444,-238.2 444,-38.2 8,-38.2"/>
<polygon fill="#f5f5f5" stroke="transparent" points="10,-213.2 10,-236.2 442,-236.2 442,-213.2 10,-213.2"/>
<polygon fill="none" stroke="#000000" points="10,-213.2 10,-236.2 442,-236.2 442,-213.2 10,-213.2"/>
<text text-anchor="start" x="15" y="-221.8" font-family="Helvetica,sans-Serif" font-weight="bold" font-size="11.00" fill="#000000">osasuoritus_arvioitu_opiskeluoikeuden_ulkopuolella</text>
<text text-anchor="start" x="407.0437" y="-221.3" font-family="Helvetica,sans-Serif" font-size="11.00" fill="#000000">[table]</text>
<polygon fill="none" stroke="#000000" points="10,-191.2 10,-213.2 333,-213.2 333,-191.2 10,-191.2"/>
<text text-anchor="start" x="30" y="-198.3" font-family="Helvetica,sans-Serif" font-size="11.00" fill="#000000">opiskeluoikeus_oid</text>
<polygon fill="none" stroke="#000000" points="333,-191.2 333,-213.2 442,-213.2 442,-191.2 333,-191.2"/>
<text text-anchor="start" x="335.5344" y="-198.9" font-family="Helvetica,sans-Serif" font-size="11.00" fill="#000000">varchar[2147483647]</text>
<polygon fill="#ffffff" stroke="transparent" points="10,-169.2 10,-191.2 333,-191.2 333,-169.2 10,-169.2"/>
<polygon fill="none" stroke="#000000" points="10,-169.2 10,-191.2 333,-191.2 333,-169.2 10,-169.2"/>
<text text-anchor="start" x="30" y="-176.3" font-family="Helvetica,sans-Serif" font-size="11.00" fill="#000000">oppilaitos_oid</text>
<polygon fill="none" stroke="#000000" points="333,-169.2 333,-191.2 442,-191.2 442,-169.2 333,-169.2"/>
<text text-anchor="start" x="335.5344" y="-176.9" font-family="Helvetica,sans-Serif" font-size="11.00" fill="#000000">varchar[2147483647]</text>
<polygon fill="none" stroke="#000000" points="10,-147.2 10,-169.2 333,-169.2 333,-147.2 10,-147.2"/>
<text text-anchor="start" x="30" y="-154.3" font-family="Helvetica,sans-Serif" font-size="11.00" fill="#000000">osasuoritus_id</text>
<polygon fill="none" stroke="#000000" points="333,-147.2 333,-169.2 442,-169.2 442,-147.2 333,-147.2"/>
<text text-anchor="start" x="336" y="-154.9" font-family="Helvetica,sans-Serif" font-size="11.00" fill="#000000">int8[19]</text>
<polygon fill="none" stroke="#000000" points="10,-125.2 10,-147.2 333,-147.2 333,-125.2 10,-125.2"/>
<text text-anchor="start" x="30" y="-132.3" font-family="Helvetica,sans-Serif" font-size="11.00" fill="#000000">osasuorituksen_arviointi_paiva</text>
<polygon fill="none" stroke="#000000" points="333,-125.2 333,-147.2 442,-147.2 442,-125.2 333,-125.2"/>
<text text-anchor="start" x="336" y="-132.9" font-family="Helvetica,sans-Serif" font-size="11.00" fill="#000000">date[13]</text>
<polygon fill="none" stroke="#000000" points="10,-103.2 10,-125.2 333,-125.2 333,-103.2 10,-103.2"/>
<text text-anchor="start" x="30" y="-110.3" font-family="Helvetica,sans-Serif" font-size="11.00" fill="#000000">osasuorituksen_tyyppi</text>
<polygon fill="none" stroke="#000000" points="333,-103.2 333,-125.2 442,-125.2 442,-103.2 333,-103.2"/>
<text text-anchor="start" x="335.5344" y="-110.9" font-family="Helvetica,sans-Serif" font-size="11.00" fill="#000000">varchar[2147483647]</text>
<polygon fill="none" stroke="#000000" points="10,-81.2 10,-103.2 333,-103.2 333,-81.2 10,-81.2"/>
<text text-anchor="start" x="30" y="-88.3" font-family="Helvetica,sans-Serif" font-size="11.00" fill="#000000">paatason_suorituksen_tyyppi</text>
<polygon fill="none" stroke="#000000" points="333,-81.2 333,-103.2 442,-103.2 442,-81.2 333,-81.2"/>
<text text-anchor="start" x="335.5344" y="-88.9" font-family="Helvetica,sans-Serif" font-size="11.00" fill="#000000">varchar[2147483647]</text>
<polygon fill="none" stroke="#000000" points="10,-59.2 10,-81.2 333,-81.2 333,-59.2 10,-59.2"/>
<text text-anchor="start" x="30" y="-66.3" font-family="Helvetica,sans-Serif" font-size="11.00" fill="#000000">oppimaara_koodiarvo</text>
<polygon fill="none" stroke="#000000" points="333,-59.2 333,-81.2 442,-81.2 442,-59.2 333,-59.2"/>
<text text-anchor="start" x="335.5344" y="-66.9" font-family="Helvetica,sans-Serif" font-size="11.00" fill="#000000">varchar[2147483647]</text>
<polygon fill="#ffffff" stroke="transparent" points="10,-40.2 10,-59.2 157,-59.2 157,-40.2 10,-40.2"/>
<polygon fill="none" stroke="#000000" points="10,-40.2 10,-59.2 157,-59.2 157,-40.2 10,-40.2"/>
<text text-anchor="start" x="13" y="-46.3" font-family="Helvetica,sans-Serif" font-size="11.00" fill="#000000">&lt; 0</text>
<polygon fill="#ffffff" stroke="transparent" points="157,-40.2 157,-59.2 333,-59.2 333,-40.2 157,-40.2"/>
<polygon fill="none" stroke="#000000" points="157,-40.2 157,-59.2 333,-59.2 333,-40.2 157,-40.2"/>
<text text-anchor="start" x="285.3807" y="-46.3" font-family="Helvetica,sans-Serif" font-size="11.00" fill="#000000">427 rows</text>
<polygon fill="#ffffff" stroke="transparent" points="333,-40.2 333,-59.2 442,-59.2 442,-40.2 333,-40.2"/>
<polygon fill="none" stroke="#000000" points="333,-40.2 333,-59.2 442,-59.2 442,-40.2 333,-40.2"/>
<text text-anchor="start" x="423.4053" y="-46.3" font-family="Helvetica,sans-Serif" font-size="11.00" fill="#000000">0 &gt;</text>
<polygon fill="none" stroke="#000000" stroke-width="2" points="9,-39.2 9,-237.2 443,-237.2 443,-39.2 9,-39.2"/>
</a>
</g>
</g>
</g>
</svg>
