<?xml version="1.0" encoding="UTF-8" standalone="no"?>
<!DOCTYPE svg PUBLIC "-//W3C//DTD SVG 1.1//EN"
 "http://www.w3.org/Graphics/SVG/1.1/DTD/svg11.dtd">
<!-- Generated by graphviz version 2.40.1 (20161225.0304)
 -->
<!-- Title: oneDegreeRelationshipsDiagram Pages: 1 -->
<svg width="392pt" height="558pt"
 viewBox="0.00 0.00 392.00 558.20" xmlns="http://www.w3.org/2000/svg" xmlns:xlink="http://www.w3.org/1999/xlink">
<g id="graph0" class="graph" transform="scale(1 1) rotate(0) translate(4 554.2)">
<title>oneDegreeRelationshipsDiagram</title>
<polygon fill="#ffffff" stroke="transparent" points="-4,4 -4,-554.2 388,-554.2 388,4 -4,4"/>
<text text-anchor="middle" x="72.4936" y="-7.3" font-family="Helvetica,sans-Serif" font-size="11.00" fill="#000000">Generated by SchemaSpy</text>
<!-- paallekkaiset_opiskeluoikeudet -->
<g id="node1" class="node">
<title>paallekkaiset_opiskeluoikeudet</title>
<g id="a_node1"><a xlink:href="../../tables/paallekkaiset_opiskeluoikeudet.html" xlink:title="paallekkaiset_opiskeluoikeudet" target="_top">
<polygon fill="#ffffff" stroke="transparent" points="8,-38.2 8,-546.2 376,-546.2 376,-38.2 8,-38.2"/>
<polygon fill="#f5f5f5" stroke="transparent" points="10,-521.2 10,-544.2 374,-544.2 374,-521.2 10,-521.2"/>
<polygon fill="none" stroke="#000000" points="10,-521.2 10,-544.2 374,-544.2 374,-521.2 10,-521.2"/>
<text text-anchor="start" x="15" y="-529.8" font-family="Helvetica,sans-Serif" font-weight="bold" font-size="11.00" fill="#000000">paallekkaiset_opiskeluoikeudet</text>
<text text-anchor="start" x="339.0437" y="-529.3" font-family="Helvetica,sans-Serif" font-size="11.00" fill="#000000">[table]</text>
<polygon fill="none" stroke="#000000" points="10,-499.2 10,-521.2 265,-521.2 265,-499.2 10,-499.2"/>
<text text-anchor="start" x="30" y="-506.3" font-family="Helvetica,sans-Serif" font-size="11.00" fill="#000000">oppija_oid</text>
<polygon fill="none" stroke="#000000" points="265,-499.2 265,-521.2 374,-521.2 374,-499.2 265,-499.2"/>
<text text-anchor="start" x="267.5344" y="-506.9" font-family="Helvetica,sans-Serif" font-size="11.00" fill="#000000">varchar[2147483647]</text>
<polygon fill="none" stroke="#000000" points="10,-477.2 10,-499.2 265,-499.2 265,-477.2 10,-477.2"/>
<text text-anchor="start" x="30" y="-484.3" font-family="Helvetica,sans-Serif" font-size="11.00" fill="#000000">sukunimi</text>
<polygon fill="none" stroke="#000000" points="265,-477.2 265,-499.2 374,-499.2 374,-477.2 265,-477.2"/>
<text text-anchor="start" x="267.5344" y="-484.9" font-family="Helvetica,sans-Serif" font-size="11.00" fill="#000000">varchar[2147483647]</text>
<polygon fill="none" stroke="#000000" points="10,-455.2 10,-477.2 265,-477.2 265,-455.2 10,-455.2"/>
<text text-anchor="start" x="30" y="-462.3" font-family="Helvetica,sans-Serif" font-size="11.00" fill="#000000">etunimet</text>
<polygon fill="none" stroke="#000000" points="265,-455.2 265,-477.2 374,-477.2 374,-455.2 265,-455.2"/>
<text text-anchor="start" x="267.5344" y="-462.9" font-family="Helvetica,sans-Serif" font-size="11.00" fill="#000000">varchar[2147483647]</text>
<polygon fill="#ffffff" stroke="transparent" points="10,-433.2 10,-455.2 265,-455.2 265,-433.2 10,-433.2"/>
<polygon fill="none" stroke="#000000" points="10,-433.2 10,-455.2 265,-455.2 265,-433.2 10,-433.2"/>
<text text-anchor="start" x="30" y="-440.3" font-family="Helvetica,sans-Serif" font-size="11.00" fill="#000000">opiskeluoikeus_oid</text>
<polygon fill="none" stroke="#000000" points="265,-433.2 265,-455.2 374,-455.2 374,-433.2 265,-433.2"/>
<text text-anchor="start" x="267.5344" y="-440.9" font-family="Helvetica,sans-Serif" font-size="11.00" fill="#000000">varchar[2147483647]</text>
<polygon fill="none" stroke="#000000" points="10,-411.2 10,-433.2 265,-433.2 265,-411.2 10,-411.2"/>
<text text-anchor="start" x="30" y="-418.3" font-family="Helvetica,sans-Serif" font-size="11.00" fill="#000000">oppilaitos_nimi</text>
<polygon fill="none" stroke="#000000" points="265,-411.2 265,-433.2 374,-433.2 374,-411.2 265,-411.2"/>
<text text-anchor="start" x="267.5344" y="-418.9" font-family="Helvetica,sans-Serif" font-size="11.00" fill="#000000">varchar[2147483647]</text>
<polygon fill="none" stroke="#000000" points="10,-389.2 10,-411.2 265,-411.2 265,-389.2 10,-389.2"/>
<text text-anchor="start" x="30" y="-396.3" font-family="Helvetica,sans-Serif" font-size="11.00" fill="#000000">oppilaitos_nimi_sv</text>
<polygon fill="none" stroke="#000000" points="265,-389.2 265,-411.2 374,-411.2 374,-389.2 265,-389.2"/>
<text text-anchor="start" x="267.5344" y="-396.9" font-family="Helvetica,sans-Serif" font-size="11.00" fill="#000000">varchar[2147483647]</text>
<polygon fill="none" stroke="#000000" points="10,-367.2 10,-389.2 265,-389.2 265,-367.2 10,-367.2"/>
<text text-anchor="start" x="30" y="-374.3" font-family="Helvetica,sans-Serif" font-size="11.00" fill="#000000">koulutusmuoto</text>
<polygon fill="none" stroke="#000000" points="265,-367.2 265,-389.2 374,-389.2 374,-367.2 265,-367.2"/>
<text text-anchor="start" x="267.5344" y="-374.9" font-family="Helvetica,sans-Serif" font-size="11.00" fill="#000000">varchar[2147483647]</text>
<polygon fill="none" stroke="#000000" points="10,-345.2 10,-367.2 265,-367.2 265,-345.2 10,-345.2"/>
<text text-anchor="start" x="30" y="-352.3" font-family="Helvetica,sans-Serif" font-size="11.00" fill="#000000">alkamispaiva</text>
<polygon fill="none" stroke="#000000" points="265,-345.2 265,-367.2 374,-367.2 374,-345.2 265,-345.2"/>
<text text-anchor="start" x="268" y="-352.9" font-family="Helvetica,sans-Serif" font-size="11.00" fill="#000000">date[13]</text>
<polygon fill="none" stroke="#000000" points="10,-323.2 10,-345.2 265,-345.2 265,-323.2 10,-323.2"/>
<text text-anchor="start" x="30" y="-330.3" font-family="Helvetica,sans-Serif" font-size="11.00" fill="#000000">viimeisin_tila</text>
<polygon fill="none" stroke="#000000" points="265,-323.2 265,-345.2 374,-345.2 374,-323.2 265,-323.2"/>
<text text-anchor="start" x="267.5344" y="-330.9" font-family="Helvetica,sans-Serif" font-size="11.00" fill="#000000">varchar[2147483647]</text>
<polygon fill="none" stroke="#000000" points="10,-301.2 10,-323.2 265,-323.2 265,-301.2 10,-301.2"/>
<text text-anchor="start" x="30" y="-308.3" font-family="Helvetica,sans-Serif" font-size="11.00" fill="#000000">paattymispaiva</text>
<polygon fill="none" stroke="#000000" points="265,-301.2 265,-323.2 374,-323.2 374,-301.2 265,-301.2"/>
<text text-anchor="start" x="268" y="-308.9" font-family="Helvetica,sans-Serif" font-size="11.00" fill="#000000">date[13]</text>
<polygon fill="none" stroke="#000000" points="10,-279.2 10,-301.2 265,-301.2 265,-279.2 10,-279.2"/>
<text text-anchor="start" x="30" y="-286.3" font-family="Helvetica,sans-Serif" font-size="11.00" fill="#000000">opiskeluoikeus_diaarit</text>
<polygon fill="none" stroke="#000000" points="265,-279.2 265,-301.2 374,-301.2 374,-279.2 265,-279.2"/>
<text text-anchor="start" x="268" y="-286.9" font-family="Helvetica,sans-Serif" font-size="11.00" fill="#000000">text[2147483647]</text>
<polygon fill="none" stroke="#000000" points="10,-257.2 10,-279.2 265,-279.2 265,-257.2 10,-257.2"/>
<text text-anchor="start" x="30" y="-264.3" font-family="Helvetica,sans-Serif" font-size="11.00" fill="#000000">paallekkainen_opiskeluoikeus_oid</text>
<polygon fill="none" stroke="#000000" points="265,-257.2 265,-279.2 374,-279.2 374,-257.2 265,-257.2"/>
<text text-anchor="start" x="267.5344" y="-264.9" font-family="Helvetica,sans-Serif" font-size="11.00" fill="#000000">varchar[2147483647]</text>
<polygon fill="none" stroke="#000000" points="10,-235.2 10,-257.2 265,-257.2 265,-235.2 10,-235.2"/>
<text text-anchor="start" x="30" y="-242.3" font-family="Helvetica,sans-Serif" font-size="11.00" fill="#000000">paallekkainen_koulutustoimija_nimi</text>
<polygon fill="none" stroke="#000000" points="265,-235.2 265,-257.2 374,-257.2 374,-235.2 265,-235.2"/>
<text text-anchor="start" x="267.5344" y="-242.9" font-family="Helvetica,sans-Serif" font-size="11.00" fill="#000000">varchar[2147483647]</text>
<polygon fill="none" stroke="#000000" points="10,-213.2 10,-235.2 265,-235.2 265,-213.2 10,-213.2"/>
<text text-anchor="start" x="30" y="-220.3" font-family="Helvetica,sans-Serif" font-size="11.00" fill="#000000">paallekkainen_koulutustoimija_nimi_sv</text>
<polygon fill="none" stroke="#000000" points="265,-213.2 265,-235.2 374,-235.2 374,-213.2 265,-213.2"/>
<text text-anchor="start" x="267.5344" y="-220.9" font-family="Helvetica,sans-Serif" font-size="11.00" fill="#000000">varchar[2147483647]</text>
<polygon fill="none" stroke="#000000" points="10,-191.2 10,-213.2 265,-213.2 265,-191.2 10,-191.2"/>
<text text-anchor="start" x="30" y="-198.3" font-family="Helvetica,sans-Serif" font-size="11.00" fill="#000000">paallekkainen_oppilaitos_oid</text>
<polygon fill="none" stroke="#000000" points="265,-191.2 265,-213.2 374,-213.2 374,-191.2 265,-191.2"/>
<text text-anchor="start" x="267.5344" y="-198.9" font-family="Helvetica,sans-Serif" font-size="11.00" fill="#000000">varchar[2147483647]</text>
<polygon fill="none" stroke="#000000" points="10,-169.2 10,-191.2 265,-191.2 265,-169.2 10,-169.2"/>
<text text-anchor="start" x="30" y="-176.3" font-family="Helvetica,sans-Serif" font-size="11.00" fill="#000000">paallekkainen_oppilaitos_nimi</text>
<polygon fill="none" stroke="#000000" points="265,-169.2 265,-191.2 374,-191.2 374,-169.2 265,-169.2"/>
<text text-anchor="start" x="267.5344" y="-176.9" font-family="Helvetica,sans-Serif" font-size="11.00" fill="#000000">varchar[2147483647]</text>
<polygon fill="none" stroke="#000000" points="10,-147.2 10,-169.2 265,-169.2 265,-147.2 10,-147.2"/>
<text text-anchor="start" x="30" y="-154.3" font-family="Helvetica,sans-Serif" font-size="11.00" fill="#000000">paallekkainen_oppilaitos_nimi_sv</text>
<polygon fill="none" stroke="#000000" points="265,-147.2 265,-169.2 374,-169.2 374,-147.2 265,-147.2"/>
<text text-anchor="start" x="267.5344" y="-154.9" font-family="Helvetica,sans-Serif" font-size="11.00" fill="#000000">varchar[2147483647]</text>
<polygon fill="none" stroke="#000000" points="10,-125.2 10,-147.2 265,-147.2 265,-125.2 10,-125.2"/>
<text text-anchor="start" x="30" y="-132.3" font-family="Helvetica,sans-Serif" font-size="11.00" fill="#000000">paallekkainen_koulutusmuoto</text>
<polygon fill="none" stroke="#000000" points="265,-125.2 265,-147.2 374,-147.2 374,-125.2 265,-125.2"/>
<text text-anchor="start" x="267.5344" y="-132.9" font-family="Helvetica,sans-Serif" font-size="11.00" fill="#000000">varchar[2147483647]</text>
<polygon fill="none" stroke="#000000" points="10,-103.2 10,-125.2 265,-125.2 265,-103.2 10,-103.2"/>
<text text-anchor="start" x="30" y="-110.3" font-family="Helvetica,sans-Serif" font-size="11.00" fill="#000000">paallekkainen_viimeisin_tila</text>
<polygon fill="none" stroke="#000000" points="265,-103.2 265,-125.2 374,-125.2 374,-103.2 265,-103.2"/>
<text text-anchor="start" x="267.5344" y="-110.9" font-family="Helvetica,sans-Serif" font-size="11.00" fill="#000000">varchar[2147483647]</text>
<polygon fill="none" stroke="#000000" points="10,-81.2 10,-103.2 265,-103.2 265,-81.2 10,-81.2"/>
<text text-anchor="start" x="30" y="-88.3" font-family="Helvetica,sans-Serif" font-size="11.00" fill="#000000">paallekkainen_alkamispaiva</text>
<polygon fill="none" stroke="#000000" points="265,-81.2 265,-103.2 374,-103.2 374,-81.2 265,-81.2"/>
<text text-anchor="start" x="268" y="-88.9" font-family="Helvetica,sans-Serif" font-size="11.00" fill="#000000">date[13]</text>
<polygon fill="none" stroke="#000000" points="10,-59.2 10,-81.2 265,-81.2 265,-59.2 10,-59.2"/>
<text text-anchor="start" x="30" y="-66.3" font-family="Helvetica,sans-Serif" font-size="11.00" fill="#000000">paallekkainen_paattymispaiva</text>
<polygon fill="none" stroke="#000000" points="265,-59.2 265,-81.2 374,-81.2 374,-59.2 265,-59.2"/>
<text text-anchor="start" x="268" y="-66.9" font-family="Helvetica,sans-Serif" font-size="11.00" fill="#000000">date[13]</text>
<polygon fill="#ffffff" stroke="transparent" points="10,-40.2 10,-59.2 126,-59.2 126,-40.2 10,-40.2"/>
<polygon fill="none" stroke="#000000" points="10,-40.2 10,-59.2 126,-59.2 126,-40.2 10,-40.2"/>
<text text-anchor="start" x="13" y="-46.3" font-family="Helvetica,sans-Serif" font-size="11.00" fill="#000000">&lt; 0</text>
<polygon fill="#ffffff" stroke="transparent" points="126,-40.2 126,-59.2 265,-59.2 265,-40.2 126,-40.2"/>
<polygon fill="none" stroke="#000000" points="126,-40.2 126,-59.2 265,-59.2 265,-40.2 126,-40.2"/>
<text text-anchor="start" x="223.4956" y="-46.3" font-family="Helvetica,sans-Serif" font-size="11.00" fill="#000000">56 rows</text>
<polygon fill="#ffffff" stroke="transparent" points="265,-40.2 265,-59.2 374,-59.2 374,-40.2 265,-40.2"/>
<polygon fill="none" stroke="#000000" points="265,-40.2 265,-59.2 374,-59.2 374,-40.2 265,-40.2"/>
<text text-anchor="start" x="355.4053" y="-46.3" font-family="Helvetica,sans-Serif" font-size="11.00" fill="#000000">0 &gt;</text>
<polygon fill="none" stroke="#000000" stroke-width="2" points="9,-39.2 9,-545.2 375,-545.2 375,-39.2 9,-39.2"/>
</a>
</g>
</g>
</g>
</svg>
