<?xml version="1.0" encoding="UTF-8" standalone="no"?>
<!DOCTYPE svg PUBLIC "-//W3C//DTD SVG 1.1//EN"
 "http://www.w3.org/Graphics/SVG/1.1/DTD/svg11.dtd">
<!-- Generated by graphviz version 2.40.1 (20161225.0304)
 -->
<!-- Title: oneDegreeRelationshipsDiagram Pages: 1 -->
<svg width="383pt" height="558pt"
 viewBox="0.00 0.00 383.00 558.20" xmlns="http://www.w3.org/2000/svg" xmlns:xlink="http://www.w3.org/1999/xlink">
<g id="graph0" class="graph" transform="scale(1 1) rotate(0) translate(4 554.2)">
<title>oneDegreeRelationshipsDiagram</title>
<polygon fill="#ffffff" stroke="transparent" points="-4,4 -4,-554.2 379,-554.2 379,4 -4,4"/>
<text text-anchor="middle" x="72.4936" y="-7.3" font-family="Helvetica,sans-Serif" font-size="11.00" fill="#000000">Generated by SchemaSpy</text>
<!-- paallekkaiset_opiskeluoikeudet -->
<g id="node1" class="node">
<title>paallekkaiset_opiskeluoikeudet</title>
<g id="a_node1"><a xlink:href="../../tables/paallekkaiset_opiskeluoikeudet.html" xlink:title="paallekkaiset_opiskeluoikeudet" target="_top">
<polygon fill="#ffffff" stroke="transparent" points="8,-38.2 8,-546.2 367,-546.2 367,-38.2 8,-38.2"/>
<polygon fill="#f5f5f5" stroke="transparent" points="10.5,-521.2 10.5,-544.2 365.5,-544.2 365.5,-521.2 10.5,-521.2"/>
<polygon fill="none" stroke="#000000" points="10.5,-521.2 10.5,-544.2 365.5,-544.2 365.5,-521.2 10.5,-521.2"/>
<text text-anchor="start" x="15.5" y="-529.8" font-family="Helvetica,sans-Serif" font-weight="bold" font-size="11.00" fill="#000000">paallekkaiset_opiskeluoikeudet</text>
<text text-anchor="start" x="330.5437" y="-529.3" font-family="Helvetica,sans-Serif" font-size="11.00" fill="#000000">[table]</text>
<polygon fill="none" stroke="#000000" points="10.5,-499.2 10.5,-521.2 256.5,-521.2 256.5,-499.2 10.5,-499.2"/>
<text text-anchor="start" x="30.5" y="-506.3" font-family="Helvetica,sans-Serif" font-size="11.00" fill="#000000">oppija_oid</text>
<polygon fill="none" stroke="#000000" points="256.5,-499.2 256.5,-521.2 365.5,-521.2 365.5,-499.2 256.5,-499.2"/>
<text text-anchor="start" x="259.0344" y="-506.9" font-family="Helvetica,sans-Serif" font-size="11.00" fill="#000000">varchar[2147483647]</text>
<polygon fill="none" stroke="#000000" points="10.5,-477.2 10.5,-499.2 256.5,-499.2 256.5,-477.2 10.5,-477.2"/>
<text text-anchor="start" x="30.5" y="-484.3" font-family="Helvetica,sans-Serif" font-size="11.00" fill="#000000">sukunimi</text>
<polygon fill="none" stroke="#000000" points="256.5,-477.2 256.5,-499.2 365.5,-499.2 365.5,-477.2 256.5,-477.2"/>
<text text-anchor="start" x="259.0344" y="-484.9" font-family="Helvetica,sans-Serif" font-size="11.00" fill="#000000">varchar[2147483647]</text>
<polygon fill="none" stroke="#000000" points="10.5,-455.2 10.5,-477.2 256.5,-477.2 256.5,-455.2 10.5,-455.2"/>
<text text-anchor="start" x="30.5" y="-462.3" font-family="Helvetica,sans-Serif" font-size="11.00" fill="#000000">etunimet</text>
<polygon fill="none" stroke="#000000" points="256.5,-455.2 256.5,-477.2 365.5,-477.2 365.5,-455.2 256.5,-455.2"/>
<text text-anchor="start" x="259.0344" y="-462.9" font-family="Helvetica,sans-Serif" font-size="11.00" fill="#000000">varchar[2147483647]</text>
<polygon fill="#ffffff" stroke="transparent" points="10.5,-433.2 10.5,-455.2 256.5,-455.2 256.5,-433.2 10.5,-433.2"/>
<polygon fill="none" stroke="#000000" points="10.5,-433.2 10.5,-455.2 256.5,-455.2 256.5,-433.2 10.5,-433.2"/>
<text text-anchor="start" x="30.5" y="-440.3" font-family="Helvetica,sans-Serif" font-size="11.00" fill="#000000">opiskeluoikeus_oid</text>
<polygon fill="none" stroke="#000000" points="256.5,-433.2 256.5,-455.2 365.5,-455.2 365.5,-433.2 256.5,-433.2"/>
<text text-anchor="start" x="259.0344" y="-440.9" font-family="Helvetica,sans-Serif" font-size="11.00" fill="#000000">varchar[2147483647]</text>
<polygon fill="none" stroke="#000000" points="10.5,-411.2 10.5,-433.2 256.5,-433.2 256.5,-411.2 10.5,-411.2"/>
<text text-anchor="start" x="30.5" y="-418.3" font-family="Helvetica,sans-Serif" font-size="11.00" fill="#000000">oppilaitos_nimi</text>
<polygon fill="none" stroke="#000000" points="256.5,-411.2 256.5,-433.2 365.5,-433.2 365.5,-411.2 256.5,-411.2"/>
<text text-anchor="start" x="259.0344" y="-418.9" font-family="Helvetica,sans-Serif" font-size="11.00" fill="#000000">varchar[2147483647]</text>
<polygon fill="none" stroke="#000000" points="10.5,-389.2 10.5,-411.2 256.5,-411.2 256.5,-389.2 10.5,-389.2"/>
<text text-anchor="start" x="30.5" y="-396.3" font-family="Helvetica,sans-Serif" font-size="11.00" fill="#000000">oppilaitos_nimi_sv</text>
<polygon fill="none" stroke="#000000" points="256.5,-389.2 256.5,-411.2 365.5,-411.2 365.5,-389.2 256.5,-389.2"/>
<text text-anchor="start" x="259.0344" y="-396.9" font-family="Helvetica,sans-Serif" font-size="11.00" fill="#000000">varchar[2147483647]</text>
<polygon fill="none" stroke="#000000" points="10.5,-367.2 10.5,-389.2 256.5,-389.2 256.5,-367.2 10.5,-367.2"/>
<text text-anchor="start" x="30.5" y="-374.3" font-family="Helvetica,sans-Serif" font-size="11.00" fill="#000000">koulutusmuoto</text>
<polygon fill="none" stroke="#000000" points="256.5,-367.2 256.5,-389.2 365.5,-389.2 365.5,-367.2 256.5,-367.2"/>
<text text-anchor="start" x="259.0344" y="-374.9" font-family="Helvetica,sans-Serif" font-size="11.00" fill="#000000">varchar[2147483647]</text>
<polygon fill="none" stroke="#000000" points="10.5,-345.2 10.5,-367.2 256.5,-367.2 256.5,-345.2 10.5,-345.2"/>
<text text-anchor="start" x="30.5" y="-352.3" font-family="Helvetica,sans-Serif" font-size="11.00" fill="#000000">alkamispaiva</text>
<polygon fill="none" stroke="#000000" points="256.5,-345.2 256.5,-367.2 365.5,-367.2 365.5,-345.2 256.5,-345.2"/>
<text text-anchor="start" x="259.5" y="-352.9" font-family="Helvetica,sans-Serif" font-size="11.00" fill="#000000">date[13]</text>
<polygon fill="none" stroke="#000000" points="10.5,-323.2 10.5,-345.2 256.5,-345.2 256.5,-323.2 10.5,-323.2"/>
<text text-anchor="start" x="30.5" y="-330.3" font-family="Helvetica,sans-Serif" font-size="11.00" fill="#000000">viimeisin_tila</text>
<polygon fill="none" stroke="#000000" points="256.5,-323.2 256.5,-345.2 365.5,-345.2 365.5,-323.2 256.5,-323.2"/>
<text text-anchor="start" x="259.0344" y="-330.9" font-family="Helvetica,sans-Serif" font-size="11.00" fill="#000000">varchar[2147483647]</text>
<polygon fill="none" stroke="#000000" points="10.5,-301.2 10.5,-323.2 256.5,-323.2 256.5,-301.2 10.5,-301.2"/>
<text text-anchor="start" x="30.5" y="-308.3" font-family="Helvetica,sans-Serif" font-size="11.00" fill="#000000">paattymispaiva</text>
<polygon fill="none" stroke="#000000" points="256.5,-301.2 256.5,-323.2 365.5,-323.2 365.5,-301.2 256.5,-301.2"/>
<text text-anchor="start" x="259.5" y="-308.9" font-family="Helvetica,sans-Serif" font-size="11.00" fill="#000000">date[13]</text>
<polygon fill="none" stroke="#000000" points="10.5,-279.2 10.5,-301.2 256.5,-301.2 256.5,-279.2 10.5,-279.2"/>
<text text-anchor="start" x="30.5" y="-286.3" font-family="Helvetica,sans-Serif" font-size="11.00" fill="#000000">opiskeluoikeus_diaarit</text>
<polygon fill="none" stroke="#000000" points="256.5,-279.2 256.5,-301.2 365.5,-301.2 365.5,-279.2 256.5,-279.2"/>
<text text-anchor="start" x="259.5" y="-286.9" font-family="Helvetica,sans-Serif" font-size="11.00" fill="#000000">text[2147483647]</text>
<polygon fill="none" stroke="#000000" points="10.5,-257.2 10.5,-279.2 256.5,-279.2 256.5,-257.2 10.5,-257.2"/>
<text text-anchor="start" x="30.5" y="-264.3" font-family="Helvetica,sans-Serif" font-size="11.00" fill="#000000">paallekkainen_opiskeluoikeus_oid</text>
<polygon fill="none" stroke="#000000" points="256.5,-257.2 256.5,-279.2 365.5,-279.2 365.5,-257.2 256.5,-257.2"/>
<text text-anchor="start" x="259.0344" y="-264.9" font-family="Helvetica,sans-Serif" font-size="11.00" fill="#000000">varchar[2147483647]</text>
<polygon fill="none" stroke="#000000" points="10.5,-235.2 10.5,-257.2 256.5,-257.2 256.5,-235.2 10.5,-235.2"/>
<text text-anchor="start" x="30.5" y="-242.3" font-family="Helvetica,sans-Serif" font-size="11.00" fill="#000000">paallekkainen_koulutustoimija_nimi</text>
<polygon fill="none" stroke="#000000" points="256.5,-235.2 256.5,-257.2 365.5,-257.2 365.5,-235.2 256.5,-235.2"/>
<text text-anchor="start" x="259.0344" y="-242.9" font-family="Helvetica,sans-Serif" font-size="11.00" fill="#000000">varchar[2147483647]</text>
<polygon fill="none" stroke="#000000" points="10.5,-213.2 10.5,-235.2 256.5,-235.2 256.5,-213.2 10.5,-213.2"/>
<text text-anchor="start" x="30.5" y="-220.3" font-family="Helvetica,sans-Serif" font-size="11.00" fill="#000000">paallekkainen_koulutustoimija_nimi_sv</text>
<polygon fill="none" stroke="#000000" points="256.5,-213.2 256.5,-235.2 365.5,-235.2 365.5,-213.2 256.5,-213.2"/>
<text text-anchor="start" x="259.0344" y="-220.9" font-family="Helvetica,sans-Serif" font-size="11.00" fill="#000000">varchar[2147483647]</text>
<polygon fill="none" stroke="#000000" points="10.5,-191.2 10.5,-213.2 256.5,-213.2 256.5,-191.2 10.5,-191.2"/>
<text text-anchor="start" x="30.5" y="-198.3" font-family="Helvetica,sans-Serif" font-size="11.00" fill="#000000">paallekkainen_oppilaitos_oid</text>
<polygon fill="none" stroke="#000000" points="256.5,-191.2 256.5,-213.2 365.5,-213.2 365.5,-191.2 256.5,-191.2"/>
<text text-anchor="start" x="259.0344" y="-198.9" font-family="Helvetica,sans-Serif" font-size="11.00" fill="#000000">varchar[2147483647]</text>
<polygon fill="none" stroke="#000000" points="10.5,-169.2 10.5,-191.2 256.5,-191.2 256.5,-169.2 10.5,-169.2"/>
<text text-anchor="start" x="30.5" y="-176.3" font-family="Helvetica,sans-Serif" font-size="11.00" fill="#000000">paallekkainen_oppilaitos_nimi</text>
<polygon fill="none" stroke="#000000" points="256.5,-169.2 256.5,-191.2 365.5,-191.2 365.5,-169.2 256.5,-169.2"/>
<text text-anchor="start" x="259.0344" y="-176.9" font-family="Helvetica,sans-Serif" font-size="11.00" fill="#000000">varchar[2147483647]</text>
<polygon fill="none" stroke="#000000" points="10.5,-147.2 10.5,-169.2 256.5,-169.2 256.5,-147.2 10.5,-147.2"/>
<text text-anchor="start" x="30.5" y="-154.3" font-family="Helvetica,sans-Serif" font-size="11.00" fill="#000000">paallekkainen_oppilaitos_nimi_sv</text>
<polygon fill="none" stroke="#000000" points="256.5,-147.2 256.5,-169.2 365.5,-169.2 365.5,-147.2 256.5,-147.2"/>
<text text-anchor="start" x="259.0344" y="-154.9" font-family="Helvetica,sans-Serif" font-size="11.00" fill="#000000">varchar[2147483647]</text>
<polygon fill="none" stroke="#000000" points="10.5,-125.2 10.5,-147.2 256.5,-147.2 256.5,-125.2 10.5,-125.2"/>
<text text-anchor="start" x="30.5" y="-132.3" font-family="Helvetica,sans-Serif" font-size="11.00" fill="#000000">paallekkainen_koulutusmuoto</text>
<polygon fill="none" stroke="#000000" points="256.5,-125.2 256.5,-147.2 365.5,-147.2 365.5,-125.2 256.5,-125.2"/>
<text text-anchor="start" x="259.0344" y="-132.9" font-family="Helvetica,sans-Serif" font-size="11.00" fill="#000000">varchar[2147483647]</text>
<polygon fill="none" stroke="#000000" points="10.5,-103.2 10.5,-125.2 256.5,-125.2 256.5,-103.2 10.5,-103.2"/>
<text text-anchor="start" x="30.5" y="-110.3" font-family="Helvetica,sans-Serif" font-size="11.00" fill="#000000">paallekkainen_viimeisin_tila</text>
<polygon fill="none" stroke="#000000" points="256.5,-103.2 256.5,-125.2 365.5,-125.2 365.5,-103.2 256.5,-103.2"/>
<text text-anchor="start" x="259.0344" y="-110.9" font-family="Helvetica,sans-Serif" font-size="11.00" fill="#000000">varchar[2147483647]</text>
<polygon fill="none" stroke="#000000" points="10.5,-81.2 10.5,-103.2 256.5,-103.2 256.5,-81.2 10.5,-81.2"/>
<text text-anchor="start" x="30.5" y="-88.3" font-family="Helvetica,sans-Serif" font-size="11.00" fill="#000000">paallekkainen_alkamispaiva</text>
<polygon fill="none" stroke="#000000" points="256.5,-81.2 256.5,-103.2 365.5,-103.2 365.5,-81.2 256.5,-81.2"/>
<text text-anchor="start" x="259.5" y="-88.9" font-family="Helvetica,sans-Serif" font-size="11.00" fill="#000000">date[13]</text>
<polygon fill="none" stroke="#000000" points="10.5,-59.2 10.5,-81.2 256.5,-81.2 256.5,-59.2 10.5,-59.2"/>
<text text-anchor="start" x="30.5" y="-66.3" font-family="Helvetica,sans-Serif" font-size="11.00" fill="#000000">paallekkainen_paattymispaiva</text>
<polygon fill="none" stroke="#000000" points="256.5,-59.2 256.5,-81.2 365.5,-81.2 365.5,-59.2 256.5,-59.2"/>
<text text-anchor="start" x="259.5" y="-66.9" font-family="Helvetica,sans-Serif" font-size="11.00" fill="#000000">date[13]</text>
<polygon fill="#ffffff" stroke="transparent" points="10.5,-40.2 10.5,-59.2 121.5,-59.2 121.5,-40.2 10.5,-40.2"/>
<polygon fill="none" stroke="#000000" points="10.5,-40.2 10.5,-59.2 121.5,-59.2 121.5,-40.2 10.5,-40.2"/>
<text text-anchor="start" x="13.5" y="-46.3" font-family="Helvetica,sans-Serif" font-size="11.00" fill="#000000">&lt; 0</text>
<polygon fill="#ffffff" stroke="transparent" points="121.5,-40.2 121.5,-59.2 256.5,-59.2 256.5,-40.2 121.5,-40.2"/>
<polygon fill="none" stroke="#000000" points="121.5,-40.2 121.5,-59.2 256.5,-59.2 256.5,-40.2 121.5,-40.2"/>
<text text-anchor="start" x="214.9956" y="-46.3" font-family="Helvetica,sans-Serif" font-size="11.00" fill="#000000">72 rows</text>
<polygon fill="#ffffff" stroke="transparent" points="256.5,-40.2 256.5,-59.2 365.5,-59.2 365.5,-40.2 256.5,-40.2"/>
<polygon fill="none" stroke="#000000" points="256.5,-40.2 256.5,-59.2 365.5,-59.2 365.5,-40.2 256.5,-40.2"/>
<text text-anchor="start" x="346.9053" y="-46.3" font-family="Helvetica,sans-Serif" font-size="11.00" fill="#000000">0 &gt;</text>
<polygon fill="none" stroke="#000000" stroke-width="2" points="9,-39.2 9,-545.2 366,-545.2 366,-39.2 9,-39.2"/>
</a>
</g>
</g>
</g>
</svg>
