<?xml version="1.0" encoding="UTF-8" standalone="no"?>
<!DOCTYPE svg PUBLIC "-//W3C//DTD SVG 1.1//EN"
 "http://www.w3.org/Graphics/SVG/1.1/DTD/svg11.dtd">
<!-- Generated by graphviz version 2.40.1 (20161225.0304)
 -->
<!-- Title: oneDegreeRelationshipsDiagram Pages: 1 -->
<svg width="262pt" height="426pt"
 viewBox="0.00 0.00 262.00 426.20" xmlns="http://www.w3.org/2000/svg" xmlns:xlink="http://www.w3.org/1999/xlink">
<g id="graph0" class="graph" transform="scale(1 1) rotate(0) translate(4 422.2)">
<title>oneDegreeRelationshipsDiagram</title>
<polygon fill="#ffffff" stroke="transparent" points="-4,4 -4,-422.2 258,-422.2 258,4 -4,4"/>
<text text-anchor="middle" x="72.4936" y="-7.3" font-family="Helvetica,sans-Serif" font-size="11.00" fill="#000000">Generated by SchemaSpy</text>
<!-- r_henkilo -->
<g id="node1" class="node">
<title>r_henkilo</title>
<g id="a_node1"><a xlink:href="../../tables/r_henkilo.html" xlink:title="r_henkilo" target="_top">
<polygon fill="#ffffff" stroke="transparent" points="8,-38.2 8,-414.2 246,-414.2 246,-38.2 8,-38.2"/>
<polygon fill="#f5f5f5" stroke="transparent" points="10,-389.2 10,-412.2 244,-412.2 244,-389.2 10,-389.2"/>
<polygon fill="none" stroke="#000000" points="10,-389.2 10,-412.2 244,-412.2 244,-389.2 10,-389.2"/>
<text text-anchor="start" x="15" y="-397.8" font-family="Helvetica,sans-Serif" font-weight="bold" font-size="11.00" fill="#000000">r_henkilo</text>
<text text-anchor="start" x="209.0437" y="-397.3" font-family="Helvetica,sans-Serif" font-size="11.00" fill="#000000">[table]</text>
<polygon fill="none" stroke="#000000" points="10,-367.2 10,-389.2 135,-389.2 135,-367.2 10,-367.2"/>
<image xlink:href="../../images/primaryKeys.png" width="11px" height="12px" preserveAspectRatio="xMinYMin meet" x="15" y="-384.2"/>
<text text-anchor="start" x="30" y="-374.3" font-family="Helvetica,sans-Serif" font-size="11.00" fill="#000000">oppija_oid</text>
<polygon fill="none" stroke="#000000" points="135,-367.2 135,-389.2 244,-389.2 244,-367.2 135,-367.2"/>
<text text-anchor="start" x="137.5344" y="-374.9" font-family="Helvetica,sans-Serif" font-size="11.00" fill="#000000">varchar[2147483647]</text>
<polygon fill="#ffffff" stroke="transparent" points="10,-345.2 10,-367.2 135,-367.2 135,-345.2 10,-345.2"/>
<polygon fill="none" stroke="#000000" points="10,-345.2 10,-367.2 135,-367.2 135,-345.2 10,-345.2"/>
<text text-anchor="start" x="30" y="-352.3" font-family="Helvetica,sans-Serif" font-size="11.00" fill="#000000">master_oid</text>
<polygon fill="none" stroke="#000000" points="135,-345.2 135,-367.2 244,-367.2 244,-345.2 135,-345.2"/>
<text text-anchor="start" x="137.5344" y="-352.9" font-family="Helvetica,sans-Serif" font-size="11.00" fill="#000000">varchar[2147483647]</text>
<polygon fill="#ffffff" stroke="transparent" points="10,-323.2 10,-345.2 135,-345.2 135,-323.2 10,-323.2"/>
<polygon fill="none" stroke="#000000" points="10,-323.2 10,-345.2 135,-345.2 135,-323.2 10,-323.2"/>
<text text-anchor="start" x="30" y="-330.3" font-family="Helvetica,sans-Serif" font-size="11.00" fill="#000000">linkitetyt_oidit</text>
<polygon fill="none" stroke="#000000" points="135,-323.2 135,-345.2 244,-345.2 244,-323.2 135,-323.2"/>
<text text-anchor="start" x="138" y="-330.9" font-family="Helvetica,sans-Serif" font-size="11.00" fill="#000000">_text[2147483647]</text>
<polygon fill="#ffffff" stroke="transparent" points="10,-301.2 10,-323.2 135,-323.2 135,-301.2 10,-301.2"/>
<polygon fill="none" stroke="#000000" points="10,-301.2 10,-323.2 135,-323.2 135,-301.2 10,-301.2"/>
<text text-anchor="start" x="30" y="-308.3" font-family="Helvetica,sans-Serif" font-size="11.00" fill="#000000">hetu</text>
<polygon fill="none" stroke="#000000" points="135,-301.2 135,-323.2 244,-323.2 244,-301.2 135,-301.2"/>
<text text-anchor="start" x="137.5344" y="-308.9" font-family="Helvetica,sans-Serif" font-size="11.00" fill="#000000">varchar[2147483647]</text>
<polygon fill="none" stroke="#000000" points="10,-279.2 10,-301.2 135,-301.2 135,-279.2 10,-279.2"/>
<text text-anchor="start" x="30" y="-286.3" font-family="Helvetica,sans-Serif" font-size="11.00" fill="#000000">sukupuoli</text>
<polygon fill="none" stroke="#000000" points="135,-279.2 135,-301.2 244,-301.2 244,-279.2 135,-279.2"/>
<text text-anchor="start" x="137.5344" y="-286.9" font-family="Helvetica,sans-Serif" font-size="11.00" fill="#000000">varchar[2147483647]</text>
<polygon fill="none" stroke="#000000" points="10,-257.2 10,-279.2 135,-279.2 135,-257.2 10,-257.2"/>
<text text-anchor="start" x="30" y="-264.3" font-family="Helvetica,sans-Serif" font-size="11.00" fill="#000000">syntymaaika</text>
<polygon fill="none" stroke="#000000" points="135,-257.2 135,-279.2 244,-279.2 244,-257.2 135,-257.2"/>
<text text-anchor="start" x="138" y="-264.9" font-family="Helvetica,sans-Serif" font-size="11.00" fill="#000000">date[13]</text>
<polygon fill="none" stroke="#000000" points="10,-235.2 10,-257.2 135,-257.2 135,-235.2 10,-235.2"/>
<text text-anchor="start" x="30" y="-242.3" font-family="Helvetica,sans-Serif" font-size="11.00" fill="#000000">sukunimi</text>
<polygon fill="none" stroke="#000000" points="135,-235.2 135,-257.2 244,-257.2 244,-235.2 135,-235.2"/>
<text text-anchor="start" x="137.5344" y="-242.9" font-family="Helvetica,sans-Serif" font-size="11.00" fill="#000000">varchar[2147483647]</text>
<polygon fill="none" stroke="#000000" points="10,-213.2 10,-235.2 135,-235.2 135,-213.2 10,-213.2"/>
<text text-anchor="start" x="30" y="-220.3" font-family="Helvetica,sans-Serif" font-size="11.00" fill="#000000">etunimet</text>
<polygon fill="none" stroke="#000000" points="135,-213.2 135,-235.2 244,-235.2 244,-213.2 135,-213.2"/>
<text text-anchor="start" x="137.5344" y="-220.9" font-family="Helvetica,sans-Serif" font-size="11.00" fill="#000000">varchar[2147483647]</text>
<polygon fill="#ffffff" stroke="transparent" points="10,-191.2 10,-213.2 135,-213.2 135,-191.2 10,-191.2"/>
<polygon fill="none" stroke="#000000" points="10,-191.2 10,-213.2 135,-213.2 135,-191.2 10,-191.2"/>
<text text-anchor="start" x="30" y="-198.3" font-family="Helvetica,sans-Serif" font-size="11.00" fill="#000000">aidinkieli</text>
<polygon fill="none" stroke="#000000" points="135,-191.2 135,-213.2 244,-213.2 244,-191.2 135,-191.2"/>
<text text-anchor="start" x="137.5344" y="-198.9" font-family="Helvetica,sans-Serif" font-size="11.00" fill="#000000">varchar[2147483647]</text>
<polygon fill="none" stroke="#000000" points="10,-169.2 10,-191.2 135,-191.2 135,-169.2 10,-169.2"/>
<text text-anchor="start" x="30" y="-176.3" font-family="Helvetica,sans-Serif" font-size="11.00" fill="#000000">kansalaisuus</text>
<polygon fill="none" stroke="#000000" points="135,-169.2 135,-191.2 244,-191.2 244,-169.2 135,-169.2"/>
<text text-anchor="start" x="137.5344" y="-176.9" font-family="Helvetica,sans-Serif" font-size="11.00" fill="#000000">varchar[2147483647]</text>
<polygon fill="none" stroke="#000000" points="10,-147.2 10,-169.2 135,-169.2 135,-147.2 10,-147.2"/>
<text text-anchor="start" x="30" y="-154.3" font-family="Helvetica,sans-Serif" font-size="11.00" fill="#000000">turvakielto</text>
<polygon fill="none" stroke="#000000" points="135,-147.2 135,-169.2 244,-169.2 244,-147.2 135,-147.2"/>
<text text-anchor="start" x="138" y="-154.9" font-family="Helvetica,sans-Serif" font-size="11.00" fill="#000000">bool[1]</text>
<polygon fill="none" stroke="#000000" points="10,-125.2 10,-147.2 135,-147.2 135,-125.2 10,-125.2"/>
<text text-anchor="start" x="30" y="-132.3" font-family="Helvetica,sans-Serif" font-size="11.00" fill="#000000">kotikunta</text>
<polygon fill="none" stroke="#000000" points="135,-125.2 135,-147.2 244,-147.2 244,-125.2 135,-125.2"/>
<text text-anchor="start" x="137.5344" y="-132.9" font-family="Helvetica,sans-Serif" font-size="11.00" fill="#000000">varchar[2147483647]</text>
<polygon fill="none" stroke="#000000" points="10,-103.2 10,-125.2 135,-125.2 135,-103.2 10,-103.2"/>
<text text-anchor="start" x="30" y="-110.3" font-family="Helvetica,sans-Serif" font-size="11.00" fill="#000000">kotikunta_nimi_fi</text>
<polygon fill="none" stroke="#000000" points="135,-103.2 135,-125.2 244,-125.2 244,-103.2 135,-103.2"/>
<text text-anchor="start" x="137.5344" y="-110.9" font-family="Helvetica,sans-Serif" font-size="11.00" fill="#000000">varchar[2147483647]</text>
<polygon fill="none" stroke="#000000" points="10,-81.2 10,-103.2 135,-103.2 135,-81.2 10,-81.2"/>
<text text-anchor="start" x="30" y="-88.3" font-family="Helvetica,sans-Serif" font-size="11.00" fill="#000000">kotikunta_nimi_sv</text>
<polygon fill="none" stroke="#000000" points="135,-81.2 135,-103.2 244,-103.2 244,-81.2 135,-81.2"/>
<text text-anchor="start" x="137.5344" y="-88.9" font-family="Helvetica,sans-Serif" font-size="11.00" fill="#000000">varchar[2147483647]</text>
<polygon fill="none" stroke="#000000" points="10,-59.2 10,-81.2 135,-81.2 135,-59.2 10,-59.2"/>
<text text-anchor="start" x="30" y="-66.3" font-family="Helvetica,sans-Serif" font-size="11.00" fill="#000000">yksiloity</text>
<polygon fill="none" stroke="#000000" points="135,-59.2 135,-81.2 244,-81.2 244,-59.2 135,-59.2"/>
<text text-anchor="start" x="138" y="-66.9" font-family="Helvetica,sans-Serif" font-size="11.00" fill="#000000">bool[1]</text>
<polygon fill="#ffffff" stroke="transparent" points="10,-40.2 10,-59.2 58,-59.2 58,-40.2 10,-40.2"/>
<polygon fill="none" stroke="#000000" points="10,-40.2 10,-59.2 58,-59.2 58,-40.2 10,-40.2"/>
<text text-anchor="start" x="13" y="-46.3" font-family="Helvetica,sans-Serif" font-size="11.00" fill="#000000">&lt; 0</text>
<polygon fill="#ffffff" stroke="transparent" points="58,-40.2 58,-59.2 135,-59.2 135,-40.2 58,-40.2"/>
<polygon fill="none" stroke="#000000" points="58,-40.2 58,-59.2 135,-59.2 135,-40.2 58,-40.2"/>
<text text-anchor="start" x="87.3807" y="-46.3" font-family="Helvetica,sans-Serif" font-size="11.00" fill="#000000">133 rows</text>
<polygon fill="#ffffff" stroke="transparent" points="135,-40.2 135,-59.2 244,-59.2 244,-40.2 135,-40.2"/>
<polygon fill="none" stroke="#000000" points="135,-40.2 135,-59.2 244,-59.2 244,-40.2 135,-40.2"/>
<text text-anchor="start" x="225.4053" y="-46.3" font-family="Helvetica,sans-Serif" font-size="11.00" fill="#000000">0 &gt;</text>
<polygon fill="none" stroke="#000000" stroke-width="2" points="9,-39.2 9,-413.2 245,-413.2 245,-39.2 9,-39.2"/>
</a>
</g>
</g>
</g>
</svg>
