<?xml version="1.0" encoding="UTF-8" standalone="no"?>
<!DOCTYPE svg PUBLIC "-//W3C//DTD SVG 1.1//EN"
 "http://www.w3.org/Graphics/SVG/1.1/DTD/svg11.dtd">
<!-- Generated by graphviz version 2.40.1 (20161225.0304)
 -->
<!-- Title: oneDegreeRelationshipsDiagram Pages: 1 -->
<svg width="267pt" height="360pt"
 viewBox="0.00 0.00 267.00 360.20" xmlns="http://www.w3.org/2000/svg" xmlns:xlink="http://www.w3.org/1999/xlink">
<g id="graph0" class="graph" transform="scale(1 1) rotate(0) translate(4 356.2)">
<title>oneDegreeRelationshipsDiagram</title>
<polygon fill="#ffffff" stroke="transparent" points="-4,4 -4,-356.2 263,-356.2 263,4 -4,4"/>
<text text-anchor="middle" x="72.4936" y="-7.3" font-family="Helvetica,sans-Serif" font-size="11.00" fill="#000000">Generated by SchemaSpy</text>
<!-- r_henkilo_vipunen -->
<g id="node1" class="node">
<title>r_henkilo_vipunen</title>
<g id="a_node1"><a xlink:href="../../tables/r_henkilo_vipunen.html" xlink:title="r_henkilo_vipunen" target="_top">
<polygon fill="#ffffff" stroke="transparent" points="8,-38.2 8,-348.2 251,-348.2 251,-38.2 8,-38.2"/>
<polygon fill="#f5f5f5" stroke="transparent" points="10.5,-323.2 10.5,-346.2 249.5,-346.2 249.5,-323.2 10.5,-323.2"/>
<polygon fill="none" stroke="#000000" points="10.5,-323.2 10.5,-346.2 249.5,-346.2 249.5,-323.2 10.5,-323.2"/>
<text text-anchor="start" x="15.5" y="-331.8" font-family="Helvetica,sans-Serif" font-weight="bold" font-size="11.00" fill="#000000">r_henkilo_vipunen</text>
<text text-anchor="start" x="214.5437" y="-331.3" font-family="Helvetica,sans-Serif" font-size="11.00" fill="#000000">[table]</text>
<polygon fill="none" stroke="#000000" points="10.5,-301.2 10.5,-323.2 140.5,-323.2 140.5,-301.2 10.5,-301.2"/>
<text text-anchor="start" x="30.5" y="-308.3" font-family="Helvetica,sans-Serif" font-size="11.00" fill="#000000">oppija_oid</text>
<polygon fill="none" stroke="#000000" points="140.5,-301.2 140.5,-323.2 249.5,-323.2 249.5,-301.2 140.5,-301.2"/>
<text text-anchor="start" x="143.0344" y="-308.9" font-family="Helvetica,sans-Serif" font-size="11.00" fill="#000000">varchar[2147483647]</text>
<polygon fill="none" stroke="#000000" points="10.5,-279.2 10.5,-301.2 140.5,-301.2 140.5,-279.2 10.5,-279.2"/>
<text text-anchor="start" x="30.5" y="-286.3" font-family="Helvetica,sans-Serif" font-size="11.00" fill="#000000">master_oid</text>
<polygon fill="none" stroke="#000000" points="140.5,-279.2 140.5,-301.2 249.5,-301.2 249.5,-279.2 140.5,-279.2"/>
<text text-anchor="start" x="143.0344" y="-286.9" font-family="Helvetica,sans-Serif" font-size="11.00" fill="#000000">varchar[2147483647]</text>
<polygon fill="none" stroke="#000000" points="10.5,-257.2 10.5,-279.2 140.5,-279.2 140.5,-257.2 10.5,-257.2"/>
<text text-anchor="start" x="30.5" y="-264.3" font-family="Helvetica,sans-Serif" font-size="11.00" fill="#000000">linkitetyt_oidit</text>
<polygon fill="none" stroke="#000000" points="140.5,-257.2 140.5,-279.2 249.5,-279.2 249.5,-257.2 140.5,-257.2"/>
<text text-anchor="start" x="143.5" y="-264.9" font-family="Helvetica,sans-Serif" font-size="11.00" fill="#000000">_text[2147483647]</text>
<polygon fill="none" stroke="#000000" points="10.5,-235.2 10.5,-257.2 140.5,-257.2 140.5,-235.2 10.5,-235.2"/>
<text text-anchor="start" x="30.5" y="-242.3" font-family="Helvetica,sans-Serif" font-size="11.00" fill="#000000">sukupuoli</text>
<polygon fill="none" stroke="#000000" points="140.5,-235.2 140.5,-257.2 249.5,-257.2 249.5,-235.2 140.5,-235.2"/>
<text text-anchor="start" x="143.0344" y="-242.9" font-family="Helvetica,sans-Serif" font-size="11.00" fill="#000000">varchar[2147483647]</text>
<polygon fill="none" stroke="#000000" points="10.5,-213.2 10.5,-235.2 140.5,-235.2 140.5,-213.2 10.5,-213.2"/>
<text text-anchor="start" x="30.5" y="-220.3" font-family="Helvetica,sans-Serif" font-size="11.00" fill="#000000">syntymaaika</text>
<polygon fill="none" stroke="#000000" points="140.5,-213.2 140.5,-235.2 249.5,-235.2 249.5,-213.2 140.5,-213.2"/>
<text text-anchor="start" x="143.5" y="-220.9" font-family="Helvetica,sans-Serif" font-size="11.00" fill="#000000">date[13]</text>
<polygon fill="none" stroke="#000000" points="10.5,-191.2 10.5,-213.2 140.5,-213.2 140.5,-191.2 10.5,-191.2"/>
<text text-anchor="start" x="30.5" y="-198.3" font-family="Helvetica,sans-Serif" font-size="11.00" fill="#000000">aidinkieli</text>
<polygon fill="none" stroke="#000000" points="140.5,-191.2 140.5,-213.2 249.5,-213.2 249.5,-191.2 140.5,-191.2"/>
<text text-anchor="start" x="143.0344" y="-198.9" font-family="Helvetica,sans-Serif" font-size="11.00" fill="#000000">varchar[2147483647]</text>
<polygon fill="none" stroke="#000000" points="10.5,-169.2 10.5,-191.2 140.5,-191.2 140.5,-169.2 10.5,-169.2"/>
<text text-anchor="start" x="30.5" y="-176.3" font-family="Helvetica,sans-Serif" font-size="11.00" fill="#000000">kansalaisuus</text>
<polygon fill="none" stroke="#000000" points="140.5,-169.2 140.5,-191.2 249.5,-191.2 249.5,-169.2 140.5,-169.2"/>
<text text-anchor="start" x="143.0344" y="-176.9" font-family="Helvetica,sans-Serif" font-size="11.00" fill="#000000">varchar[2147483647]</text>
<polygon fill="none" stroke="#000000" points="10.5,-147.2 10.5,-169.2 140.5,-169.2 140.5,-147.2 10.5,-147.2"/>
<text text-anchor="start" x="30.5" y="-154.3" font-family="Helvetica,sans-Serif" font-size="11.00" fill="#000000">turvakielto</text>
<polygon fill="none" stroke="#000000" points="140.5,-147.2 140.5,-169.2 249.5,-169.2 249.5,-147.2 140.5,-147.2"/>
<text text-anchor="start" x="143.5" y="-154.9" font-family="Helvetica,sans-Serif" font-size="11.00" fill="#000000">bool[1]</text>
<polygon fill="none" stroke="#000000" points="10.5,-125.2 10.5,-147.2 140.5,-147.2 140.5,-125.2 10.5,-125.2"/>
<text text-anchor="start" x="30.5" y="-132.3" font-family="Helvetica,sans-Serif" font-size="11.00" fill="#000000">kotikunta</text>
<polygon fill="none" stroke="#000000" points="140.5,-125.2 140.5,-147.2 249.5,-147.2 249.5,-125.2 140.5,-125.2"/>
<text text-anchor="start" x="143.0344" y="-132.9" font-family="Helvetica,sans-Serif" font-size="11.00" fill="#000000">varchar[2147483647]</text>
<polygon fill="none" stroke="#000000" points="10.5,-103.2 10.5,-125.2 140.5,-125.2 140.5,-103.2 10.5,-103.2"/>
<text text-anchor="start" x="30.5" y="-110.3" font-family="Helvetica,sans-Serif" font-size="11.00" fill="#000000">kotikunta_nimi_fi</text>
<polygon fill="none" stroke="#000000" points="140.5,-103.2 140.5,-125.2 249.5,-125.2 249.5,-103.2 140.5,-103.2"/>
<text text-anchor="start" x="143.0344" y="-110.9" font-family="Helvetica,sans-Serif" font-size="11.00" fill="#000000">varchar[2147483647]</text>
<polygon fill="none" stroke="#000000" points="10.5,-81.2 10.5,-103.2 140.5,-103.2 140.5,-81.2 10.5,-81.2"/>
<text text-anchor="start" x="30.5" y="-88.3" font-family="Helvetica,sans-Serif" font-size="11.00" fill="#000000">kotikunta_nimi_sv</text>
<polygon fill="none" stroke="#000000" points="140.5,-81.2 140.5,-103.2 249.5,-103.2 249.5,-81.2 140.5,-81.2"/>
<text text-anchor="start" x="143.0344" y="-88.9" font-family="Helvetica,sans-Serif" font-size="11.00" fill="#000000">varchar[2147483647]</text>
<polygon fill="none" stroke="#000000" points="10.5,-59.2 10.5,-81.2 140.5,-81.2 140.5,-59.2 10.5,-59.2"/>
<text text-anchor="start" x="30.5" y="-66.3" font-family="Helvetica,sans-Serif" font-size="11.00" fill="#000000">yksiloity</text>
<polygon fill="none" stroke="#000000" points="140.5,-59.2 140.5,-81.2 249.5,-81.2 249.5,-59.2 140.5,-59.2"/>
<text text-anchor="start" x="143.5" y="-66.9" font-family="Helvetica,sans-Serif" font-size="11.00" fill="#000000">bool[1]</text>
<polygon fill="#ffffff" stroke="transparent" points="10.5,-40.2 10.5,-59.2 60.5,-59.2 60.5,-40.2 10.5,-40.2"/>
<polygon fill="none" stroke="#000000" points="10.5,-40.2 10.5,-59.2 60.5,-59.2 60.5,-40.2 10.5,-40.2"/>
<text text-anchor="start" x="13.5" y="-46.3" font-family="Helvetica,sans-Serif" font-size="11.00" fill="#000000">&lt; 0</text>
<polygon fill="#ffffff" stroke="transparent" points="60.5,-40.2 60.5,-59.2 140.5,-59.2 140.5,-40.2 60.5,-40.2"/>
<polygon fill="none" stroke="#000000" points="60.5,-40.2 60.5,-59.2 140.5,-59.2 140.5,-40.2 60.5,-40.2"/>
<text text-anchor="start" x="92.8807" y="-46.3" font-family="Helvetica,sans-Serif" font-size="11.00" fill="#000000">172 rows</text>
<polygon fill="#ffffff" stroke="transparent" points="140.5,-40.2 140.5,-59.2 249.5,-59.2 249.5,-40.2 140.5,-40.2"/>
<polygon fill="none" stroke="#000000" points="140.5,-40.2 140.5,-59.2 249.5,-59.2 249.5,-40.2 140.5,-40.2"/>
<text text-anchor="start" x="230.9053" y="-46.3" font-family="Helvetica,sans-Serif" font-size="11.00" fill="#000000">0 &gt;</text>
<polygon fill="none" stroke="#000000" stroke-width="2" points="9,-39.2 9,-347.2 250,-347.2 250,-39.2 9,-39.2"/>
</a>
</g>
</g>
</g>
</svg>
