<?xml version="1.0" encoding="UTF-8" standalone="no"?>
<!DOCTYPE svg PUBLIC "-//W3C//DTD SVG 1.1//EN"
 "http://www.w3.org/Graphics/SVG/1.1/DTD/svg11.dtd">
<!-- Generated by graphviz version 2.40.1 (20161225.0304)
 -->
<!-- Title: oneDegreeRelationshipsDiagram Pages: 1 -->
<svg width="266pt" height="426pt"
 viewBox="0.00 0.00 266.00 426.20" xmlns="http://www.w3.org/2000/svg" xmlns:xlink="http://www.w3.org/1999/xlink">
<g id="graph0" class="graph" transform="scale(1 1) rotate(0) translate(4 422.2)">
<title>oneDegreeRelationshipsDiagram</title>
<polygon fill="#ffffff" stroke="transparent" points="-4,4 -4,-422.2 262,-422.2 262,4 -4,4"/>
<text text-anchor="middle" x="72.4936" y="-7.3" font-family="Helvetica,sans-Serif" font-size="11.00" fill="#000000">Generated by SchemaSpy</text>
<!-- r_henkilo -->
<g id="node1" class="node">
<title>r_henkilo</title>
<g id="a_node1"><a xlink:href="../../tables/r_henkilo.html" xlink:title="r_henkilo" target="_top">
<polygon fill="#ffffff" stroke="transparent" points="8,-38.2 8,-414.2 250,-414.2 250,-38.2 8,-38.2"/>
<polygon fill="#f5f5f5" stroke="transparent" points="10,-389.2 10,-412.2 248,-412.2 248,-389.2 10,-389.2"/>
<polygon fill="none" stroke="#000000" points="10,-389.2 10,-412.2 248,-412.2 248,-389.2 10,-389.2"/>
<text text-anchor="start" x="15" y="-397.8" font-family="Helvetica,sans-Serif" font-weight="bold" font-size="11.00" fill="#000000">r_henkilo</text>
<text text-anchor="start" x="213.0437" y="-397.3" font-family="Helvetica,sans-Serif" font-size="11.00" fill="#000000">[table]</text>
<polygon fill="none" stroke="#000000" points="10,-367.2 10,-389.2 139,-389.2 139,-367.2 10,-367.2"/>
<image xlink:href="../../images/primaryKeys.png" width="11px" height="12px" preserveAspectRatio="xMinYMin meet" x="15" y="-384.2"/>
<text text-anchor="start" x="30" y="-374.3" font-family="Helvetica,sans-Serif" font-size="11.00" fill="#000000">oppija_oid</text>
<polygon fill="none" stroke="#000000" points="139,-367.2 139,-389.2 248,-389.2 248,-367.2 139,-367.2"/>
<text text-anchor="start" x="141.5344" y="-374.9" font-family="Helvetica,sans-Serif" font-size="11.00" fill="#000000">varchar[2147483647]</text>
<polygon fill="#ffffff" stroke="transparent" points="10,-345.2 10,-367.2 139,-367.2 139,-345.2 10,-345.2"/>
<polygon fill="none" stroke="#000000" points="10,-345.2 10,-367.2 139,-367.2 139,-345.2 10,-345.2"/>
<text text-anchor="start" x="30" y="-352.3" font-family="Helvetica,sans-Serif" font-size="11.00" fill="#000000">master_oid</text>
<polygon fill="none" stroke="#000000" points="139,-345.2 139,-367.2 248,-367.2 248,-345.2 139,-345.2"/>
<text text-anchor="start" x="141.5344" y="-352.9" font-family="Helvetica,sans-Serif" font-size="11.00" fill="#000000">varchar[2147483647]</text>
<polygon fill="#ffffff" stroke="transparent" points="10,-323.2 10,-345.2 139,-345.2 139,-323.2 10,-323.2"/>
<polygon fill="none" stroke="#000000" points="10,-323.2 10,-345.2 139,-345.2 139,-323.2 10,-323.2"/>
<text text-anchor="start" x="30" y="-330.3" font-family="Helvetica,sans-Serif" font-size="11.00" fill="#000000">linkitetyt_oidit</text>
<polygon fill="none" stroke="#000000" points="139,-323.2 139,-345.2 248,-345.2 248,-323.2 139,-323.2"/>
<text text-anchor="start" x="142" y="-330.9" font-family="Helvetica,sans-Serif" font-size="11.00" fill="#000000">_text[2147483647]</text>
<polygon fill="#ffffff" stroke="transparent" points="10,-301.2 10,-323.2 139,-323.2 139,-301.2 10,-301.2"/>
<polygon fill="none" stroke="#000000" points="10,-301.2 10,-323.2 139,-323.2 139,-301.2 10,-301.2"/>
<text text-anchor="start" x="30" y="-308.3" font-family="Helvetica,sans-Serif" font-size="11.00" fill="#000000">hetu</text>
<polygon fill="none" stroke="#000000" points="139,-301.2 139,-323.2 248,-323.2 248,-301.2 139,-301.2"/>
<text text-anchor="start" x="141.5344" y="-308.9" font-family="Helvetica,sans-Serif" font-size="11.00" fill="#000000">varchar[2147483647]</text>
<polygon fill="none" stroke="#000000" points="10,-279.2 10,-301.2 139,-301.2 139,-279.2 10,-279.2"/>
<text text-anchor="start" x="30" y="-286.3" font-family="Helvetica,sans-Serif" font-size="11.00" fill="#000000">sukupuoli</text>
<polygon fill="none" stroke="#000000" points="139,-279.2 139,-301.2 248,-301.2 248,-279.2 139,-279.2"/>
<text text-anchor="start" x="141.5344" y="-286.9" font-family="Helvetica,sans-Serif" font-size="11.00" fill="#000000">varchar[2147483647]</text>
<polygon fill="none" stroke="#000000" points="10,-257.2 10,-279.2 139,-279.2 139,-257.2 10,-257.2"/>
<text text-anchor="start" x="30" y="-264.3" font-family="Helvetica,sans-Serif" font-size="11.00" fill="#000000">syntymaaika</text>
<polygon fill="none" stroke="#000000" points="139,-257.2 139,-279.2 248,-279.2 248,-257.2 139,-257.2"/>
<text text-anchor="start" x="142" y="-264.9" font-family="Helvetica,sans-Serif" font-size="11.00" fill="#000000">date[13]</text>
<polygon fill="none" stroke="#000000" points="10,-235.2 10,-257.2 139,-257.2 139,-235.2 10,-235.2"/>
<text text-anchor="start" x="30" y="-242.3" font-family="Helvetica,sans-Serif" font-size="11.00" fill="#000000">sukunimi</text>
<polygon fill="none" stroke="#000000" points="139,-235.2 139,-257.2 248,-257.2 248,-235.2 139,-235.2"/>
<text text-anchor="start" x="141.5344" y="-242.9" font-family="Helvetica,sans-Serif" font-size="11.00" fill="#000000">varchar[2147483647]</text>
<polygon fill="none" stroke="#000000" points="10,-213.2 10,-235.2 139,-235.2 139,-213.2 10,-213.2"/>
<text text-anchor="start" x="30" y="-220.3" font-family="Helvetica,sans-Serif" font-size="11.00" fill="#000000">etunimet</text>
<polygon fill="none" stroke="#000000" points="139,-213.2 139,-235.2 248,-235.2 248,-213.2 139,-213.2"/>
<text text-anchor="start" x="141.5344" y="-220.9" font-family="Helvetica,sans-Serif" font-size="11.00" fill="#000000">varchar[2147483647]</text>
<polygon fill="#ffffff" stroke="transparent" points="10,-191.2 10,-213.2 139,-213.2 139,-191.2 10,-191.2"/>
<polygon fill="none" stroke="#000000" points="10,-191.2 10,-213.2 139,-213.2 139,-191.2 10,-191.2"/>
<text text-anchor="start" x="30" y="-198.3" font-family="Helvetica,sans-Serif" font-size="11.00" fill="#000000">aidinkieli</text>
<polygon fill="none" stroke="#000000" points="139,-191.2 139,-213.2 248,-213.2 248,-191.2 139,-191.2"/>
<text text-anchor="start" x="141.5344" y="-198.9" font-family="Helvetica,sans-Serif" font-size="11.00" fill="#000000">varchar[2147483647]</text>
<polygon fill="none" stroke="#000000" points="10,-169.2 10,-191.2 139,-191.2 139,-169.2 10,-169.2"/>
<text text-anchor="start" x="30" y="-176.3" font-family="Helvetica,sans-Serif" font-size="11.00" fill="#000000">kansalaisuus</text>
<polygon fill="none" stroke="#000000" points="139,-169.2 139,-191.2 248,-191.2 248,-169.2 139,-169.2"/>
<text text-anchor="start" x="141.5344" y="-176.9" font-family="Helvetica,sans-Serif" font-size="11.00" fill="#000000">varchar[2147483647]</text>
<polygon fill="none" stroke="#000000" points="10,-147.2 10,-169.2 139,-169.2 139,-147.2 10,-147.2"/>
<text text-anchor="start" x="30" y="-154.3" font-family="Helvetica,sans-Serif" font-size="11.00" fill="#000000">turvakielto</text>
<polygon fill="none" stroke="#000000" points="139,-147.2 139,-169.2 248,-169.2 248,-147.2 139,-147.2"/>
<text text-anchor="start" x="142" y="-154.9" font-family="Helvetica,sans-Serif" font-size="11.00" fill="#000000">bool[1]</text>
<polygon fill="none" stroke="#000000" points="10,-125.2 10,-147.2 139,-147.2 139,-125.2 10,-125.2"/>
<text text-anchor="start" x="30" y="-132.3" font-family="Helvetica,sans-Serif" font-size="11.00" fill="#000000">kotikunta</text>
<polygon fill="none" stroke="#000000" points="139,-125.2 139,-147.2 248,-147.2 248,-125.2 139,-125.2"/>
<text text-anchor="start" x="141.5344" y="-132.9" font-family="Helvetica,sans-Serif" font-size="11.00" fill="#000000">varchar[2147483647]</text>
<polygon fill="none" stroke="#000000" points="10,-103.2 10,-125.2 139,-125.2 139,-103.2 10,-103.2"/>
<text text-anchor="start" x="30" y="-110.3" font-family="Helvetica,sans-Serif" font-size="11.00" fill="#000000">kotikunta_nimi_fi</text>
<polygon fill="none" stroke="#000000" points="139,-103.2 139,-125.2 248,-125.2 248,-103.2 139,-103.2"/>
<text text-anchor="start" x="141.5344" y="-110.9" font-family="Helvetica,sans-Serif" font-size="11.00" fill="#000000">varchar[2147483647]</text>
<polygon fill="none" stroke="#000000" points="10,-81.2 10,-103.2 139,-103.2 139,-81.2 10,-81.2"/>
<text text-anchor="start" x="30" y="-88.3" font-family="Helvetica,sans-Serif" font-size="11.00" fill="#000000">kotikunta_nimi_sv</text>
<polygon fill="none" stroke="#000000" points="139,-81.2 139,-103.2 248,-103.2 248,-81.2 139,-81.2"/>
<text text-anchor="start" x="141.5344" y="-88.9" font-family="Helvetica,sans-Serif" font-size="11.00" fill="#000000">varchar[2147483647]</text>
<polygon fill="none" stroke="#000000" points="10,-59.2 10,-81.2 139,-81.2 139,-59.2 10,-59.2"/>
<text text-anchor="start" x="30" y="-66.3" font-family="Helvetica,sans-Serif" font-size="11.00" fill="#000000">yksiloity</text>
<polygon fill="none" stroke="#000000" points="139,-59.2 139,-81.2 248,-81.2 248,-59.2 139,-59.2"/>
<text text-anchor="start" x="142" y="-66.9" font-family="Helvetica,sans-Serif" font-size="11.00" fill="#000000">bool[1]</text>
<polygon fill="#ffffff" stroke="transparent" points="10,-40.2 10,-59.2 60,-59.2 60,-40.2 10,-40.2"/>
<polygon fill="none" stroke="#000000" points="10,-40.2 10,-59.2 60,-59.2 60,-40.2 10,-40.2"/>
<text text-anchor="start" x="13" y="-46.3" font-family="Helvetica,sans-Serif" font-size="11.00" fill="#000000">&lt; 0</text>
<polygon fill="#ffffff" stroke="transparent" points="60,-40.2 60,-59.2 139,-59.2 139,-40.2 60,-40.2"/>
<polygon fill="none" stroke="#000000" points="60,-40.2 60,-59.2 139,-59.2 139,-40.2 60,-40.2"/>
<text text-anchor="start" x="91.3807" y="-46.3" font-family="Helvetica,sans-Serif" font-size="11.00" fill="#000000">151 rows</text>
<polygon fill="#ffffff" stroke="transparent" points="139,-40.2 139,-59.2 248,-59.2 248,-40.2 139,-40.2"/>
<polygon fill="none" stroke="#000000" points="139,-40.2 139,-59.2 248,-59.2 248,-40.2 139,-40.2"/>
<text text-anchor="start" x="229.4053" y="-46.3" font-family="Helvetica,sans-Serif" font-size="11.00" fill="#000000">0 &gt;</text>
<polygon fill="none" stroke="#000000" stroke-width="2" points="9,-39.2 9,-413.2 249,-413.2 249,-39.2 9,-39.2"/>
</a>
</g>
</g>
</g>
</svg>
