<?xml version="1.0" encoding="UTF-8" standalone="no"?>
<!DOCTYPE svg PUBLIC "-//W3C//DTD SVG 1.1//EN"
 "http://www.w3.org/Graphics/SVG/1.1/DTD/svg11.dtd">
<!-- Generated by graphviz version 2.40.1 (20161225.0304)
 -->
<!-- Title: oneDegreeRelationshipsDiagram Pages: 1 -->
<svg width="440pt" height="250pt"
 viewBox="0.00 0.00 440.00 250.20" xmlns="http://www.w3.org/2000/svg" xmlns:xlink="http://www.w3.org/1999/xlink">
<g id="graph0" class="graph" transform="scale(1 1) rotate(0) translate(4 246.2)">
<title>oneDegreeRelationshipsDiagram</title>
<polygon fill="#ffffff" stroke="transparent" points="-4,4 -4,-246.2 436,-246.2 436,4 -4,4"/>
<text text-anchor="middle" x="72.4936" y="-7.3" font-family="Helvetica,sans-Serif" font-size="11.00" fill="#000000">Generated by SchemaSpy</text>
<!-- r_koulutuksen_jarjestamismuoto_ammatillinen -->
<g id="node1" class="node">
<title>r_koulutuksen_jarjestamismuoto_ammatillinen</title>
<g id="a_node1"><a xlink:href="../../tables/r_koulutuksen_jarjestamismuoto__e7f45a0d.html" xlink:title="r_koulutuksen_jarjestamismuoto_ammatillinen" target="_top">
<polygon fill="#ffffff" stroke="transparent" points="8,-38.2 8,-238.2 424,-238.2 424,-38.2 8,-38.2"/>
<polygon fill="#f5f5f5" stroke="transparent" points="10,-213.2 10,-236.2 422,-236.2 422,-213.2 10,-213.2"/>
<polygon fill="none" stroke="#000000" points="10,-213.2 10,-236.2 422,-236.2 422,-213.2 10,-213.2"/>
<text text-anchor="start" x="15" y="-221.8" font-family="Helvetica,sans-Serif" font-weight="bold" font-size="11.00" fill="#000000">r_koulutuksen_jarjestamismuoto_ammatillinen</text>
<text text-anchor="start" x="387.0437" y="-221.3" font-family="Helvetica,sans-Serif" font-size="11.00" fill="#000000">[table]</text>
<polygon fill="#ffffff" stroke="transparent" points="10,-191.2 10,-213.2 313,-213.2 313,-191.2 10,-191.2"/>
<polygon fill="none" stroke="#000000" points="10,-191.2 10,-213.2 313,-213.2 313,-191.2 10,-191.2"/>
<text text-anchor="start" x="30" y="-198.3" font-family="Helvetica,sans-Serif" font-size="11.00" fill="#000000">opiskeluoikeus_oid</text>
<polygon fill="none" stroke="#000000" points="313,-191.2 313,-213.2 422,-213.2 422,-191.2 313,-191.2"/>
<text text-anchor="start" x="315.5344" y="-198.9" font-family="Helvetica,sans-Serif" font-size="11.00" fill="#000000">varchar[2147483647]</text>
<polygon fill="#ffffff" stroke="transparent" points="10,-169.2 10,-191.2 313,-191.2 313,-169.2 10,-169.2"/>
<polygon fill="none" stroke="#000000" points="10,-169.2 10,-191.2 313,-191.2 313,-169.2 10,-169.2"/>
<text text-anchor="start" x="30" y="-176.3" font-family="Helvetica,sans-Serif" font-size="11.00" fill="#000000">aikajakso_tyyppi</text>
<polygon fill="none" stroke="#000000" points="313,-169.2 313,-191.2 422,-191.2 422,-169.2 313,-169.2"/>
<text text-anchor="start" x="315.5344" y="-176.9" font-family="Helvetica,sans-Serif" font-size="11.00" fill="#000000">varchar[2147483647]</text>
<polygon fill="#ffffff" stroke="transparent" points="10,-147.2 10,-169.2 313,-169.2 313,-147.2 10,-147.2"/>
<polygon fill="none" stroke="#000000" points="10,-147.2 10,-169.2 313,-169.2 313,-147.2 10,-147.2"/>
<text text-anchor="start" x="30" y="-154.3" font-family="Helvetica,sans-Serif" font-size="11.00" fill="#000000">alku</text>
<polygon fill="none" stroke="#000000" points="313,-147.2 313,-169.2 422,-169.2 422,-147.2 313,-147.2"/>
<text text-anchor="start" x="316" y="-154.9" font-family="Helvetica,sans-Serif" font-size="11.00" fill="#000000">date[13]</text>
<polygon fill="#ffffff" stroke="transparent" points="10,-125.2 10,-147.2 313,-147.2 313,-125.2 10,-125.2"/>
<polygon fill="none" stroke="#000000" points="10,-125.2 10,-147.2 313,-147.2 313,-125.2 10,-125.2"/>
<text text-anchor="start" x="30" y="-132.3" font-family="Helvetica,sans-Serif" font-size="11.00" fill="#000000">loppu</text>
<polygon fill="none" stroke="#000000" points="313,-125.2 313,-147.2 422,-147.2 422,-125.2 313,-125.2"/>
<text text-anchor="start" x="316" y="-132.9" font-family="Helvetica,sans-Serif" font-size="11.00" fill="#000000">date[13]</text>
<polygon fill="none" stroke="#000000" points="10,-103.2 10,-125.2 313,-125.2 313,-103.2 10,-103.2"/>
<text text-anchor="start" x="30" y="-110.3" font-family="Helvetica,sans-Serif" font-size="11.00" fill="#000000">oppisopimus_oppimispaikan_y_tunnus</text>
<polygon fill="none" stroke="#000000" points="313,-103.2 313,-125.2 422,-125.2 422,-103.2 313,-103.2"/>
<text text-anchor="start" x="315.5344" y="-110.9" font-family="Helvetica,sans-Serif" font-size="11.00" fill="#000000">varchar[2147483647]</text>
<polygon fill="none" stroke="#000000" points="10,-81.2 10,-103.2 313,-103.2 313,-81.2 10,-81.2"/>
<text text-anchor="start" x="30" y="-88.3" font-family="Helvetica,sans-Serif" font-size="11.00" fill="#000000">oppisopimus_purkamisen_paiva</text>
<polygon fill="none" stroke="#000000" points="313,-81.2 313,-103.2 422,-103.2 422,-81.2 313,-81.2"/>
<text text-anchor="start" x="316" y="-88.9" font-family="Helvetica,sans-Serif" font-size="11.00" fill="#000000">date[13]</text>
<polygon fill="none" stroke="#000000" points="10,-59.2 10,-81.2 313,-81.2 313,-59.2 10,-59.2"/>
<text text-anchor="start" x="30" y="-66.3" font-family="Helvetica,sans-Serif" font-size="11.00" fill="#000000">oppisopimus_purettu_koeajalla</text>
<polygon fill="none" stroke="#000000" points="313,-59.2 313,-81.2 422,-81.2 422,-59.2 313,-59.2"/>
<text text-anchor="start" x="316" y="-66.9" font-family="Helvetica,sans-Serif" font-size="11.00" fill="#000000">bool[1]</text>
<polygon fill="#ffffff" stroke="transparent" points="10,-40.2 10,-59.2 150,-59.2 150,-40.2 10,-40.2"/>
<polygon fill="none" stroke="#000000" points="10,-40.2 10,-59.2 150,-59.2 150,-40.2 10,-40.2"/>
<text text-anchor="start" x="13" y="-46.3" font-family="Helvetica,sans-Serif" font-size="11.00" fill="#000000">&lt; 0</text>
<polygon fill="#ffffff" stroke="transparent" points="150,-40.2 150,-59.2 313,-59.2 313,-40.2 150,-40.2"/>
<polygon fill="none" stroke="#000000" points="150,-40.2 150,-59.2 313,-59.2 313,-40.2 150,-40.2"/>
<text text-anchor="start" x="271.4956" y="-46.3" font-family="Helvetica,sans-Serif" font-size="11.00" fill="#000000">24 rows</text>
<polygon fill="#ffffff" stroke="transparent" points="313,-40.2 313,-59.2 422,-59.2 422,-40.2 313,-40.2"/>
<polygon fill="none" stroke="#000000" points="313,-40.2 313,-59.2 422,-59.2 422,-40.2 313,-40.2"/>
<text text-anchor="start" x="403.4053" y="-46.3" font-family="Helvetica,sans-Serif" font-size="11.00" fill="#000000">0 &gt;</text>
<polygon fill="none" stroke="#000000" stroke-width="2" points="9,-39.2 9,-237.2 423,-237.2 423,-39.2 9,-39.2"/>
</a>
</g>
</g>
</g>
</svg>
