<?xml version="1.0" encoding="UTF-8" standalone="no"?>
<!DOCTYPE svg PUBLIC "-//W3C//DTD SVG 1.1//EN"
 "http://www.w3.org/Graphics/SVG/1.1/DTD/svg11.dtd">
<!-- Generated by graphviz version 2.40.1 (20161225.0304)
 -->
<!-- Title: oneDegreeRelationshipsDiagram Pages: 1 -->
<svg width="259pt" height="184pt"
 viewBox="0.00 0.00 259.00 184.20" xmlns="http://www.w3.org/2000/svg" xmlns:xlink="http://www.w3.org/1999/xlink">
<g id="graph0" class="graph" transform="scale(1 1) rotate(0) translate(4 180.2)">
<title>oneDegreeRelationshipsDiagram</title>
<polygon fill="#ffffff" stroke="transparent" points="-4,4 -4,-180.2 255,-180.2 255,4 -4,4"/>
<text text-anchor="middle" x="72.4936" y="-7.3" font-family="Helvetica,sans-Serif" font-size="11.00" fill="#000000">Generated by SchemaSpy</text>
<!-- r_koodisto_koodi -->
<g id="node1" class="node">
<title>r_koodisto_koodi</title>
<g id="a_node1"><a xlink:href="../../tables/r_koodisto_koodi.html" xlink:title="r_koodisto_koodi" target="_top">
<polygon fill="#ffffff" stroke="transparent" points="8,-38.2 8,-172.2 243,-172.2 243,-38.2 8,-38.2"/>
<polygon fill="#f5f5f5" stroke="transparent" points="10.5,-147.2 10.5,-170.2 241.5,-170.2 241.5,-147.2 10.5,-147.2"/>
<polygon fill="none" stroke="#000000" points="10.5,-147.2 10.5,-170.2 241.5,-170.2 241.5,-147.2 10.5,-147.2"/>
<text text-anchor="start" x="15.5" y="-155.8" font-family="Helvetica,sans-Serif" font-weight="bold" font-size="11.00" fill="#000000">r_koodisto_koodi</text>
<text text-anchor="start" x="206.5437" y="-155.3" font-family="Helvetica,sans-Serif" font-size="11.00" fill="#000000">[table]</text>
<polygon fill="#ffffff" stroke="transparent" points="10.5,-125.2 10.5,-147.2 132.5,-147.2 132.5,-125.2 10.5,-125.2"/>
<polygon fill="none" stroke="#000000" points="10.5,-125.2 10.5,-147.2 132.5,-147.2 132.5,-125.2 10.5,-125.2"/>
<text text-anchor="start" x="30.5" y="-132.3" font-family="Helvetica,sans-Serif" font-size="11.00" fill="#000000">koodisto_uri</text>
<polygon fill="none" stroke="#000000" points="132.5,-125.2 132.5,-147.2 241.5,-147.2 241.5,-125.2 132.5,-125.2"/>
<text text-anchor="start" x="135.0344" y="-132.9" font-family="Helvetica,sans-Serif" font-size="11.00" fill="#000000">varchar[2147483647]</text>
<polygon fill="#ffffff" stroke="transparent" points="10.5,-103.2 10.5,-125.2 132.5,-125.2 132.5,-103.2 10.5,-103.2"/>
<polygon fill="none" stroke="#000000" points="10.5,-103.2 10.5,-125.2 132.5,-125.2 132.5,-103.2 10.5,-103.2"/>
<text text-anchor="start" x="30.5" y="-110.3" font-family="Helvetica,sans-Serif" font-size="11.00" fill="#000000">koodiarvo</text>
<polygon fill="none" stroke="#000000" points="132.5,-103.2 132.5,-125.2 241.5,-125.2 241.5,-103.2 132.5,-103.2"/>
<text text-anchor="start" x="135.0344" y="-110.9" font-family="Helvetica,sans-Serif" font-size="11.00" fill="#000000">varchar[2147483647]</text>
<polygon fill="none" stroke="#000000" points="10.5,-81.2 10.5,-103.2 132.5,-103.2 132.5,-81.2 10.5,-81.2"/>
<text text-anchor="start" x="30.5" y="-88.3" font-family="Helvetica,sans-Serif" font-size="11.00" fill="#000000">nimi</text>
<polygon fill="none" stroke="#000000" points="132.5,-81.2 132.5,-103.2 241.5,-103.2 241.5,-81.2 132.5,-81.2"/>
<text text-anchor="start" x="135.0344" y="-88.9" font-family="Helvetica,sans-Serif" font-size="11.00" fill="#000000">varchar[2147483647]</text>
<polygon fill="none" stroke="#000000" points="10.5,-59.2 10.5,-81.2 132.5,-81.2 132.5,-59.2 10.5,-59.2"/>
<text text-anchor="start" x="30.5" y="-66.3" font-family="Helvetica,sans-Serif" font-size="11.00" fill="#000000">nimi_sv</text>
<polygon fill="none" stroke="#000000" points="132.5,-59.2 132.5,-81.2 241.5,-81.2 241.5,-59.2 132.5,-59.2"/>
<text text-anchor="start" x="135.0344" y="-66.9" font-family="Helvetica,sans-Serif" font-size="11.00" fill="#000000">varchar[2147483647]</text>
<polygon fill="#ffffff" stroke="transparent" points="10.5,-40.2 10.5,-59.2 52.5,-59.2 52.5,-40.2 10.5,-40.2"/>
<polygon fill="none" stroke="#000000" points="10.5,-40.2 10.5,-59.2 52.5,-59.2 52.5,-40.2 10.5,-40.2"/>
<text text-anchor="start" x="13.5" y="-46.3" font-family="Helvetica,sans-Serif" font-size="11.00" fill="#000000">&lt; 0</text>
<polygon fill="#ffffff" stroke="transparent" points="52.5,-40.2 52.5,-59.2 132.5,-59.2 132.5,-40.2 52.5,-40.2"/>
<polygon fill="none" stroke="#000000" points="52.5,-40.2 52.5,-59.2 132.5,-59.2 132.5,-40.2 52.5,-40.2"/>
<text text-anchor="start" x="75.7089" y="-46.3" font-family="Helvetica,sans-Serif" font-size="11.00" fill="#000000">1,046 rows</text>
<polygon fill="#ffffff" stroke="transparent" points="132.5,-40.2 132.5,-59.2 241.5,-59.2 241.5,-40.2 132.5,-40.2"/>
<polygon fill="none" stroke="#000000" points="132.5,-40.2 132.5,-59.2 241.5,-59.2 241.5,-40.2 132.5,-40.2"/>
<text text-anchor="start" x="222.9053" y="-46.3" font-family="Helvetica,sans-Serif" font-size="11.00" fill="#000000">0 &gt;</text>
<polygon fill="none" stroke="#000000" stroke-width="2" points="9,-39.2 9,-171.2 242,-171.2 242,-39.2 9,-39.2"/>
</a>
</g>
</g>
</g>
</svg>
