<?xml version="1.0" encoding="UTF-8" standalone="no"?>
<!DOCTYPE svg PUBLIC "-//W3C//DTD SVG 1.1//EN"
 "http://www.w3.org/Graphics/SVG/1.1/DTD/svg11.dtd">
<!-- Generated by graphviz version 2.40.1 (20161225.0304)
 -->
<!-- Title: oneDegreeRelationshipsDiagram Pages: 1 -->
<svg width="313pt" height="360pt"
 viewBox="0.00 0.00 313.00 360.20" xmlns="http://www.w3.org/2000/svg" xmlns:xlink="http://www.w3.org/1999/xlink">
<g id="graph0" class="graph" transform="scale(1 1) rotate(0) translate(4 356.2)">
<title>oneDegreeRelationshipsDiagram</title>
<polygon fill="#ffffff" stroke="transparent" points="-4,4 -4,-356.2 309,-356.2 309,4 -4,4"/>
<text text-anchor="middle" x="72.4936" y="-7.3" font-family="Helvetica,sans-Serif" font-size="11.00" fill="#000000">Generated by SchemaSpy</text>
<!-- r_mitatoitu_opiskeluoikeus -->
<g id="node1" class="node">
<title>r_mitatoitu_opiskeluoikeus</title>
<g id="a_node1"><a xlink:href="../../tables/r_mitatoitu_opiskeluoikeus.html" xlink:title="r_mitatoitu_opiskeluoikeus" target="_top">
<polygon fill="#ffffff" stroke="transparent" points="8,-38.2 8,-348.2 297,-348.2 297,-38.2 8,-38.2"/>
<polygon fill="#f5f5f5" stroke="transparent" points="10.5,-323.2 10.5,-346.2 295.5,-346.2 295.5,-323.2 10.5,-323.2"/>
<polygon fill="none" stroke="#000000" points="10.5,-323.2 10.5,-346.2 295.5,-346.2 295.5,-323.2 10.5,-323.2"/>
<text text-anchor="start" x="15.5" y="-331.8" font-family="Helvetica,sans-Serif" font-weight="bold" font-size="11.00" fill="#000000">r_mitatoitu_opiskeluoikeus</text>
<text text-anchor="start" x="260.5437" y="-331.3" font-family="Helvetica,sans-Serif" font-size="11.00" fill="#000000">[table]</text>
<polygon fill="none" stroke="#000000" points="10.5,-301.2 10.5,-323.2 186.5,-323.2 186.5,-301.2 10.5,-301.2"/>
<image xlink:href="../../images/primaryKeys.png" width="11px" height="12px" preserveAspectRatio="xMinYMin meet" x="15.5" y="-318.2"/>
<text text-anchor="start" x="30.5" y="-308.3" font-family="Helvetica,sans-Serif" font-size="11.00" fill="#000000">opiskeluoikeus_oid</text>
<polygon fill="none" stroke="#000000" points="186.5,-301.2 186.5,-323.2 295.5,-323.2 295.5,-301.2 186.5,-301.2"/>
<text text-anchor="start" x="189.0344" y="-308.9" font-family="Helvetica,sans-Serif" font-size="11.00" fill="#000000">varchar[2147483647]</text>
<polygon fill="none" stroke="#000000" points="10.5,-279.2 10.5,-301.2 186.5,-301.2 186.5,-279.2 10.5,-279.2"/>
<text text-anchor="start" x="30.5" y="-286.3" font-family="Helvetica,sans-Serif" font-size="11.00" fill="#000000">versionumero</text>
<polygon fill="none" stroke="#000000" points="186.5,-279.2 186.5,-301.2 295.5,-301.2 295.5,-279.2 186.5,-279.2"/>
<text text-anchor="start" x="189.5" y="-286.9" font-family="Helvetica,sans-Serif" font-size="11.00" fill="#000000">int4[10]</text>
<polygon fill="none" stroke="#000000" points="10.5,-257.2 10.5,-279.2 186.5,-279.2 186.5,-257.2 10.5,-257.2"/>
<text text-anchor="start" x="30.5" y="-264.3" font-family="Helvetica,sans-Serif" font-size="11.00" fill="#000000">aikaleima</text>
<polygon fill="none" stroke="#000000" points="186.5,-257.2 186.5,-279.2 295.5,-279.2 295.5,-257.2 186.5,-257.2"/>
<text text-anchor="start" x="189.5" y="-264.9" font-family="Helvetica,sans-Serif" font-size="11.00" fill="#000000">timestamptz[35,6]</text>
<polygon fill="none" stroke="#000000" points="10.5,-235.2 10.5,-257.2 186.5,-257.2 186.5,-235.2 10.5,-235.2"/>
<text text-anchor="start" x="30.5" y="-242.3" font-family="Helvetica,sans-Serif" font-size="11.00" fill="#000000">oppija_oid</text>
<polygon fill="none" stroke="#000000" points="186.5,-235.2 186.5,-257.2 295.5,-257.2 295.5,-235.2 186.5,-235.2"/>
<text text-anchor="start" x="189.0344" y="-242.9" font-family="Helvetica,sans-Serif" font-size="11.00" fill="#000000">varchar[2147483647]</text>
<polygon fill="none" stroke="#000000" points="10.5,-213.2 10.5,-235.2 186.5,-235.2 186.5,-213.2 10.5,-213.2"/>
<text text-anchor="start" x="30.5" y="-220.3" font-family="Helvetica,sans-Serif" font-size="11.00" fill="#000000">mitatoitu</text>
<polygon fill="none" stroke="#000000" points="186.5,-213.2 186.5,-235.2 295.5,-235.2 295.5,-213.2 186.5,-213.2"/>
<text text-anchor="start" x="189.5" y="-220.9" font-family="Helvetica,sans-Serif" font-size="11.00" fill="#000000">date[13]</text>
<polygon fill="none" stroke="#000000" points="10.5,-191.2 10.5,-213.2 186.5,-213.2 186.5,-191.2 10.5,-191.2"/>
<text text-anchor="start" x="30.5" y="-198.3" font-family="Helvetica,sans-Serif" font-size="11.00" fill="#000000">suostumus_peruttu</text>
<polygon fill="none" stroke="#000000" points="186.5,-191.2 186.5,-213.2 295.5,-213.2 295.5,-191.2 186.5,-191.2"/>
<text text-anchor="start" x="189.5" y="-198.9" font-family="Helvetica,sans-Serif" font-size="11.00" fill="#000000">date[13]</text>
<polygon fill="none" stroke="#000000" points="10.5,-169.2 10.5,-191.2 186.5,-191.2 186.5,-169.2 10.5,-169.2"/>
<text text-anchor="start" x="30.5" y="-176.3" font-family="Helvetica,sans-Serif" font-size="11.00" fill="#000000">tyyppi</text>
<polygon fill="none" stroke="#000000" points="186.5,-169.2 186.5,-191.2 295.5,-191.2 295.5,-169.2 186.5,-169.2"/>
<text text-anchor="start" x="189.0344" y="-176.9" font-family="Helvetica,sans-Serif" font-size="11.00" fill="#000000">varchar[2147483647]</text>
<polygon fill="none" stroke="#000000" points="10.5,-147.2 10.5,-169.2 186.5,-169.2 186.5,-147.2 10.5,-147.2"/>
<text text-anchor="start" x="30.5" y="-154.3" font-family="Helvetica,sans-Serif" font-size="11.00" fill="#000000">paatason_suoritus_tyypit</text>
<polygon fill="none" stroke="#000000" points="186.5,-147.2 186.5,-169.2 295.5,-169.2 295.5,-147.2 186.5,-147.2"/>
<text text-anchor="start" x="189.5" y="-154.9" font-family="Helvetica,sans-Serif" font-size="11.00" fill="#000000">_text[2147483647]</text>
<polygon fill="none" stroke="#000000" points="10.5,-125.2 10.5,-147.2 186.5,-147.2 186.5,-125.2 10.5,-125.2"/>
<text text-anchor="start" x="30.5" y="-132.3" font-family="Helvetica,sans-Serif" font-size="11.00" fill="#000000">oppilaitos_oid</text>
<polygon fill="none" stroke="#000000" points="186.5,-125.2 186.5,-147.2 295.5,-147.2 295.5,-125.2 186.5,-125.2"/>
<text text-anchor="start" x="189.0344" y="-132.9" font-family="Helvetica,sans-Serif" font-size="11.00" fill="#000000">varchar[2147483647]</text>
<polygon fill="none" stroke="#000000" points="10.5,-103.2 10.5,-125.2 186.5,-125.2 186.5,-103.2 10.5,-103.2"/>
<text text-anchor="start" x="30.5" y="-110.3" font-family="Helvetica,sans-Serif" font-size="11.00" fill="#000000">oppilaitos_nimi</text>
<polygon fill="none" stroke="#000000" points="186.5,-103.2 186.5,-125.2 295.5,-125.2 295.5,-103.2 186.5,-103.2"/>
<text text-anchor="start" x="189.0344" y="-110.9" font-family="Helvetica,sans-Serif" font-size="11.00" fill="#000000">varchar[2147483647]</text>
<polygon fill="none" stroke="#000000" points="10.5,-81.2 10.5,-103.2 186.5,-103.2 186.5,-81.2 10.5,-81.2"/>
<text text-anchor="start" x="30.5" y="-88.3" font-family="Helvetica,sans-Serif" font-size="11.00" fill="#000000">koulutustoimija_oid</text>
<polygon fill="none" stroke="#000000" points="186.5,-81.2 186.5,-103.2 295.5,-103.2 295.5,-81.2 186.5,-81.2"/>
<text text-anchor="start" x="189.0344" y="-88.9" font-family="Helvetica,sans-Serif" font-size="11.00" fill="#000000">varchar[2147483647]</text>
<polygon fill="none" stroke="#000000" points="10.5,-59.2 10.5,-81.2 186.5,-81.2 186.5,-59.2 10.5,-59.2"/>
<text text-anchor="start" x="30.5" y="-66.3" font-family="Helvetica,sans-Serif" font-size="11.00" fill="#000000">koulutustoimija_nimi</text>
<polygon fill="none" stroke="#000000" points="186.5,-59.2 186.5,-81.2 295.5,-81.2 295.5,-59.2 186.5,-59.2"/>
<text text-anchor="start" x="189.0344" y="-66.9" font-family="Helvetica,sans-Serif" font-size="11.00" fill="#000000">varchar[2147483647]</text>
<polygon fill="#ffffff" stroke="transparent" points="10.5,-40.2 10.5,-59.2 89.5,-59.2 89.5,-40.2 10.5,-40.2"/>
<polygon fill="none" stroke="#000000" points="10.5,-40.2 10.5,-59.2 89.5,-59.2 89.5,-40.2 10.5,-40.2"/>
<text text-anchor="start" x="13.5" y="-46.3" font-family="Helvetica,sans-Serif" font-size="11.00" fill="#000000">&lt; 0</text>
<polygon fill="#ffffff" stroke="transparent" points="89.5,-40.2 89.5,-59.2 186.5,-59.2 186.5,-40.2 89.5,-40.2"/>
<polygon fill="none" stroke="#000000" points="89.5,-40.2 89.5,-59.2 186.5,-59.2 186.5,-40.2 89.5,-40.2"/>
<text text-anchor="start" x="151.1105" y="-46.3" font-family="Helvetica,sans-Serif" font-size="11.00" fill="#000000">0 rows</text>
<polygon fill="#ffffff" stroke="transparent" points="186.5,-40.2 186.5,-59.2 295.5,-59.2 295.5,-40.2 186.5,-40.2"/>
<polygon fill="none" stroke="#000000" points="186.5,-40.2 186.5,-59.2 295.5,-59.2 295.5,-40.2 186.5,-40.2"/>
<text text-anchor="start" x="276.9053" y="-46.3" font-family="Helvetica,sans-Serif" font-size="11.00" fill="#000000">0 &gt;</text>
<polygon fill="none" stroke="#000000" stroke-width="2" points="9,-39.2 9,-347.2 296,-347.2 296,-39.2 9,-39.2"/>
</a>
</g>
</g>
</g>
</svg>
