<?xml version="1.0" encoding="UTF-8" standalone="no"?>
<!DOCTYPE svg PUBLIC "-//W3C//DTD SVG 1.1//EN"
 "http://www.w3.org/Graphics/SVG/1.1/DTD/svg11.dtd">
<!-- Generated by graphviz version 2.40.1 (20161225.0304)
 -->
<!-- Title: oneDegreeRelationshipsDiagram Pages: 1 -->
<svg width="320pt" height="360pt"
 viewBox="0.00 0.00 320.00 360.20" xmlns="http://www.w3.org/2000/svg" xmlns:xlink="http://www.w3.org/1999/xlink">
<g id="graph0" class="graph" transform="scale(1 1) rotate(0) translate(4 356.2)">
<title>oneDegreeRelationshipsDiagram</title>
<polygon fill="#ffffff" stroke="transparent" points="-4,4 -4,-356.2 316,-356.2 316,4 -4,4"/>
<text text-anchor="middle" x="72.4936" y="-7.3" font-family="Helvetica,sans-Serif" font-size="11.00" fill="#000000">Generated by SchemaSpy</text>
<!-- r_mitatoitu_opiskeluoikeus -->
<g id="node1" class="node">
<title>r_mitatoitu_opiskeluoikeus</title>
<g id="a_node1"><a xlink:href="../../tables/r_mitatoitu_opiskeluoikeus.html" xlink:title="r_mitatoitu_opiskeluoikeus" target="_top">
<polygon fill="#ffffff" stroke="transparent" points="8,-38.2 8,-348.2 304,-348.2 304,-38.2 8,-38.2"/>
<polygon fill="#f5f5f5" stroke="transparent" points="10,-323.2 10,-346.2 302,-346.2 302,-323.2 10,-323.2"/>
<polygon fill="none" stroke="#000000" points="10,-323.2 10,-346.2 302,-346.2 302,-323.2 10,-323.2"/>
<text text-anchor="start" x="15" y="-331.8" font-family="Helvetica,sans-Serif" font-weight="bold" font-size="11.00" fill="#000000">r_mitatoitu_opiskeluoikeus</text>
<text text-anchor="start" x="267.0437" y="-331.3" font-family="Helvetica,sans-Serif" font-size="11.00" fill="#000000">[table]</text>
<polygon fill="none" stroke="#000000" points="10,-301.2 10,-323.2 193,-323.2 193,-301.2 10,-301.2"/>
<image xlink:href="../../images/primaryKeys.png" width="11px" height="12px" preserveAspectRatio="xMinYMin meet" x="15" y="-318.2"/>
<text text-anchor="start" x="30" y="-308.3" font-family="Helvetica,sans-Serif" font-size="11.00" fill="#000000">opiskeluoikeus_oid</text>
<polygon fill="none" stroke="#000000" points="193,-301.2 193,-323.2 302,-323.2 302,-301.2 193,-301.2"/>
<text text-anchor="start" x="195.5344" y="-308.9" font-family="Helvetica,sans-Serif" font-size="11.00" fill="#000000">varchar[2147483647]</text>
<polygon fill="none" stroke="#000000" points="10,-279.2 10,-301.2 193,-301.2 193,-279.2 10,-279.2"/>
<text text-anchor="start" x="30" y="-286.3" font-family="Helvetica,sans-Serif" font-size="11.00" fill="#000000">versionumero</text>
<polygon fill="none" stroke="#000000" points="193,-279.2 193,-301.2 302,-301.2 302,-279.2 193,-279.2"/>
<text text-anchor="start" x="196" y="-286.9" font-family="Helvetica,sans-Serif" font-size="11.00" fill="#000000">int4[10]</text>
<polygon fill="none" stroke="#000000" points="10,-257.2 10,-279.2 193,-279.2 193,-257.2 10,-257.2"/>
<text text-anchor="start" x="30" y="-264.3" font-family="Helvetica,sans-Serif" font-size="11.00" fill="#000000">aikaleima</text>
<polygon fill="none" stroke="#000000" points="193,-257.2 193,-279.2 302,-279.2 302,-257.2 193,-257.2"/>
<text text-anchor="start" x="196" y="-264.9" font-family="Helvetica,sans-Serif" font-size="11.00" fill="#000000">timestamptz[35,6]</text>
<polygon fill="none" stroke="#000000" points="10,-235.2 10,-257.2 193,-257.2 193,-235.2 10,-235.2"/>
<text text-anchor="start" x="30" y="-242.3" font-family="Helvetica,sans-Serif" font-size="11.00" fill="#000000">oppija_oid</text>
<polygon fill="none" stroke="#000000" points="193,-235.2 193,-257.2 302,-257.2 302,-235.2 193,-235.2"/>
<text text-anchor="start" x="195.5344" y="-242.9" font-family="Helvetica,sans-Serif" font-size="11.00" fill="#000000">varchar[2147483647]</text>
<polygon fill="none" stroke="#000000" points="10,-213.2 10,-235.2 193,-235.2 193,-213.2 10,-213.2"/>
<text text-anchor="start" x="30" y="-220.3" font-family="Helvetica,sans-Serif" font-size="11.00" fill="#000000">mitatoitu</text>
<polygon fill="none" stroke="#000000" points="193,-213.2 193,-235.2 302,-235.2 302,-213.2 193,-213.2"/>
<text text-anchor="start" x="196" y="-220.9" font-family="Helvetica,sans-Serif" font-size="11.00" fill="#000000">date[13]</text>
<polygon fill="none" stroke="#000000" points="10,-191.2 10,-213.2 193,-213.2 193,-191.2 10,-191.2"/>
<text text-anchor="start" x="30" y="-198.3" font-family="Helvetica,sans-Serif" font-size="11.00" fill="#000000">suostumus_peruttu</text>
<polygon fill="none" stroke="#000000" points="193,-191.2 193,-213.2 302,-213.2 302,-191.2 193,-191.2"/>
<text text-anchor="start" x="196" y="-198.9" font-family="Helvetica,sans-Serif" font-size="11.00" fill="#000000">date[13]</text>
<polygon fill="none" stroke="#000000" points="10,-169.2 10,-191.2 193,-191.2 193,-169.2 10,-169.2"/>
<text text-anchor="start" x="30" y="-176.3" font-family="Helvetica,sans-Serif" font-size="11.00" fill="#000000">tyyppi</text>
<polygon fill="none" stroke="#000000" points="193,-169.2 193,-191.2 302,-191.2 302,-169.2 193,-169.2"/>
<text text-anchor="start" x="195.5344" y="-176.9" font-family="Helvetica,sans-Serif" font-size="11.00" fill="#000000">varchar[2147483647]</text>
<polygon fill="none" stroke="#000000" points="10,-147.2 10,-169.2 193,-169.2 193,-147.2 10,-147.2"/>
<text text-anchor="start" x="30" y="-154.3" font-family="Helvetica,sans-Serif" font-size="11.00" fill="#000000">paatason_suoritus_tyypit</text>
<polygon fill="none" stroke="#000000" points="193,-147.2 193,-169.2 302,-169.2 302,-147.2 193,-147.2"/>
<text text-anchor="start" x="196" y="-154.9" font-family="Helvetica,sans-Serif" font-size="11.00" fill="#000000">_text[2147483647]</text>
<polygon fill="none" stroke="#000000" points="10,-125.2 10,-147.2 193,-147.2 193,-125.2 10,-125.2"/>
<text text-anchor="start" x="30" y="-132.3" font-family="Helvetica,sans-Serif" font-size="11.00" fill="#000000">oppilaitos_oid</text>
<polygon fill="none" stroke="#000000" points="193,-125.2 193,-147.2 302,-147.2 302,-125.2 193,-125.2"/>
<text text-anchor="start" x="195.5344" y="-132.9" font-family="Helvetica,sans-Serif" font-size="11.00" fill="#000000">varchar[2147483647]</text>
<polygon fill="none" stroke="#000000" points="10,-103.2 10,-125.2 193,-125.2 193,-103.2 10,-103.2"/>
<text text-anchor="start" x="30" y="-110.3" font-family="Helvetica,sans-Serif" font-size="11.00" fill="#000000">oppilaitos_nimi</text>
<polygon fill="none" stroke="#000000" points="193,-103.2 193,-125.2 302,-125.2 302,-103.2 193,-103.2"/>
<text text-anchor="start" x="195.5344" y="-110.9" font-family="Helvetica,sans-Serif" font-size="11.00" fill="#000000">varchar[2147483647]</text>
<polygon fill="none" stroke="#000000" points="10,-81.2 10,-103.2 193,-103.2 193,-81.2 10,-81.2"/>
<text text-anchor="start" x="30" y="-88.3" font-family="Helvetica,sans-Serif" font-size="11.00" fill="#000000">koulutustoimija_oid</text>
<polygon fill="none" stroke="#000000" points="193,-81.2 193,-103.2 302,-103.2 302,-81.2 193,-81.2"/>
<text text-anchor="start" x="195.5344" y="-88.9" font-family="Helvetica,sans-Serif" font-size="11.00" fill="#000000">varchar[2147483647]</text>
<polygon fill="none" stroke="#000000" points="10,-59.2 10,-81.2 193,-81.2 193,-59.2 10,-59.2"/>
<text text-anchor="start" x="30" y="-66.3" font-family="Helvetica,sans-Serif" font-size="11.00" fill="#000000">koulutustoimija_nimi</text>
<polygon fill="none" stroke="#000000" points="193,-59.2 193,-81.2 302,-81.2 302,-59.2 193,-59.2"/>
<text text-anchor="start" x="195.5344" y="-66.9" font-family="Helvetica,sans-Serif" font-size="11.00" fill="#000000">varchar[2147483647]</text>
<polygon fill="#ffffff" stroke="transparent" points="10,-40.2 10,-59.2 93,-59.2 93,-40.2 10,-40.2"/>
<polygon fill="none" stroke="#000000" points="10,-40.2 10,-59.2 93,-59.2 93,-40.2 10,-40.2"/>
<text text-anchor="start" x="13" y="-46.3" font-family="Helvetica,sans-Serif" font-size="11.00" fill="#000000">&lt; 0</text>
<polygon fill="#ffffff" stroke="transparent" points="93,-40.2 93,-59.2 193,-59.2 193,-40.2 93,-40.2"/>
<polygon fill="none" stroke="#000000" points="93,-40.2 93,-59.2 193,-59.2 193,-40.2 93,-40.2"/>
<text text-anchor="start" x="157.6105" y="-46.3" font-family="Helvetica,sans-Serif" font-size="11.00" fill="#000000">0 rows</text>
<polygon fill="#ffffff" stroke="transparent" points="193,-40.2 193,-59.2 302,-59.2 302,-40.2 193,-40.2"/>
<polygon fill="none" stroke="#000000" points="193,-40.2 193,-59.2 302,-59.2 302,-40.2 193,-40.2"/>
<text text-anchor="start" x="283.4053" y="-46.3" font-family="Helvetica,sans-Serif" font-size="11.00" fill="#000000">0 &gt;</text>
<polygon fill="none" stroke="#000000" stroke-width="2" points="9,-39.2 9,-347.2 303,-347.2 303,-39.2 9,-39.2"/>
</a>
</g>
</g>
</g>
</svg>
