<?xml version="1.0" encoding="UTF-8" standalone="no"?>
<!DOCTYPE svg PUBLIC "-//W3C//DTD SVG 1.1//EN"
 "http://www.w3.org/Graphics/SVG/1.1/DTD/svg11.dtd">
<!-- Generated by graphviz version 2.40.1 (20161225.0304)
 -->
<!-- Title: oneDegreeRelationshipsDiagram Pages: 1 -->
<svg width="427pt" height="624pt"
 viewBox="0.00 0.00 427.00 624.20" xmlns="http://www.w3.org/2000/svg" xmlns:xlink="http://www.w3.org/1999/xlink">
<g id="graph0" class="graph" transform="scale(1 1) rotate(0) translate(4 620.2)">
<title>oneDegreeRelationshipsDiagram</title>
<polygon fill="#ffffff" stroke="transparent" points="-4,4 -4,-620.2 423,-620.2 423,4 -4,4"/>
<text text-anchor="middle" x="72.4936" y="-7.3" font-family="Helvetica,sans-Serif" font-size="11.00" fill="#000000">Generated by SchemaSpy</text>
<!-- r_opiskeluoikeus -->
<g id="node1" class="node">
<title>r_opiskeluoikeus</title>
<g id="a_node1"><a xlink:href="../../tables/r_opiskeluoikeus.html" xlink:title="r_opiskeluoikeus" target="_top">
<polygon fill="#ffffff" stroke="transparent" points="8,-38.2 8,-612.2 411,-612.2 411,-38.2 8,-38.2"/>
<polygon fill="#f5f5f5" stroke="transparent" points="10.5,-587.2 10.5,-610.2 409.5,-610.2 409.5,-587.2 10.5,-587.2"/>
<polygon fill="none" stroke="#000000" points="10.5,-587.2 10.5,-610.2 409.5,-610.2 409.5,-587.2 10.5,-587.2"/>
<text text-anchor="start" x="15.5" y="-595.8" font-family="Helvetica,sans-Serif" font-weight="bold" font-size="11.00" fill="#000000">r_opiskeluoikeus</text>
<text text-anchor="start" x="374.5437" y="-595.3" font-family="Helvetica,sans-Serif" font-size="11.00" fill="#000000">[table]</text>
<polygon fill="none" stroke="#000000" points="10.5,-565.2 10.5,-587.2 300.5,-587.2 300.5,-565.2 10.5,-565.2"/>
<image xlink:href="../../images/primaryKeys.png" width="11px" height="12px" preserveAspectRatio="xMinYMin meet" x="15.5" y="-582.2"/>
<text text-anchor="start" x="30.5" y="-572.3" font-family="Helvetica,sans-Serif" font-size="11.00" fill="#000000">opiskeluoikeus_oid</text>
<polygon fill="none" stroke="#000000" points="300.5,-565.2 300.5,-587.2 409.5,-587.2 409.5,-565.2 300.5,-565.2"/>
<text text-anchor="start" x="303.0344" y="-572.9" font-family="Helvetica,sans-Serif" font-size="11.00" fill="#000000">varchar[2147483647]</text>
<polygon fill="none" stroke="#000000" points="10.5,-543.2 10.5,-565.2 300.5,-565.2 300.5,-543.2 10.5,-543.2"/>
<text text-anchor="start" x="30.5" y="-550.3" font-family="Helvetica,sans-Serif" font-size="11.00" fill="#000000">versionumero</text>
<polygon fill="none" stroke="#000000" points="300.5,-543.2 300.5,-565.2 409.5,-565.2 409.5,-543.2 300.5,-543.2"/>
<text text-anchor="start" x="303.5" y="-550.9" font-family="Helvetica,sans-Serif" font-size="11.00" fill="#000000">int4[10]</text>
<polygon fill="none" stroke="#000000" points="10.5,-521.2 10.5,-543.2 300.5,-543.2 300.5,-521.2 10.5,-521.2"/>
<text text-anchor="start" x="30.5" y="-528.3" font-family="Helvetica,sans-Serif" font-size="11.00" fill="#000000">aikaleima</text>
<polygon fill="none" stroke="#000000" points="300.5,-521.2 300.5,-543.2 409.5,-543.2 409.5,-521.2 300.5,-521.2"/>
<text text-anchor="start" x="303.5" y="-528.9" font-family="Helvetica,sans-Serif" font-size="11.00" fill="#000000">timestamptz[35,6]</text>
<polygon fill="#ffffff" stroke="transparent" points="10.5,-499.2 10.5,-521.2 300.5,-521.2 300.5,-499.2 10.5,-499.2"/>
<polygon fill="none" stroke="#000000" points="10.5,-499.2 10.5,-521.2 300.5,-521.2 300.5,-499.2 10.5,-499.2"/>
<text text-anchor="start" x="30.5" y="-506.3" font-family="Helvetica,sans-Serif" font-size="11.00" fill="#000000">sisaltyy_opiskeluoikeuteen_oid</text>
<polygon fill="none" stroke="#000000" points="300.5,-499.2 300.5,-521.2 409.5,-521.2 409.5,-499.2 300.5,-499.2"/>
<text text-anchor="start" x="303.0344" y="-506.9" font-family="Helvetica,sans-Serif" font-size="11.00" fill="#000000">varchar[2147483647]</text>
<polygon fill="#ffffff" stroke="transparent" points="10.5,-477.2 10.5,-499.2 300.5,-499.2 300.5,-477.2 10.5,-477.2"/>
<polygon fill="none" stroke="#000000" points="10.5,-477.2 10.5,-499.2 300.5,-499.2 300.5,-477.2 10.5,-477.2"/>
<text text-anchor="start" x="30.5" y="-484.3" font-family="Helvetica,sans-Serif" font-size="11.00" fill="#000000">oppija_oid</text>
<polygon fill="none" stroke="#000000" points="300.5,-477.2 300.5,-499.2 409.5,-499.2 409.5,-477.2 300.5,-477.2"/>
<text text-anchor="start" x="303.0344" y="-484.9" font-family="Helvetica,sans-Serif" font-size="11.00" fill="#000000">varchar[2147483647]</text>
<polygon fill="#ffffff" stroke="transparent" points="10.5,-455.2 10.5,-477.2 300.5,-477.2 300.5,-455.2 10.5,-455.2"/>
<polygon fill="none" stroke="#000000" points="10.5,-455.2 10.5,-477.2 300.5,-477.2 300.5,-455.2 10.5,-455.2"/>
<text text-anchor="start" x="30.5" y="-462.3" font-family="Helvetica,sans-Serif" font-size="11.00" fill="#000000">oppilaitos_oid</text>
<polygon fill="none" stroke="#000000" points="300.5,-455.2 300.5,-477.2 409.5,-477.2 409.5,-455.2 300.5,-455.2"/>
<text text-anchor="start" x="303.0344" y="-462.9" font-family="Helvetica,sans-Serif" font-size="11.00" fill="#000000">varchar[2147483647]</text>
<polygon fill="none" stroke="#000000" points="10.5,-433.2 10.5,-455.2 300.5,-455.2 300.5,-433.2 10.5,-433.2"/>
<text text-anchor="start" x="30.5" y="-440.3" font-family="Helvetica,sans-Serif" font-size="11.00" fill="#000000">oppilaitos_nimi</text>
<polygon fill="none" stroke="#000000" points="300.5,-433.2 300.5,-455.2 409.5,-455.2 409.5,-433.2 300.5,-433.2"/>
<text text-anchor="start" x="303.0344" y="-440.9" font-family="Helvetica,sans-Serif" font-size="11.00" fill="#000000">varchar[2147483647]</text>
<polygon fill="none" stroke="#000000" points="10.5,-411.2 10.5,-433.2 300.5,-433.2 300.5,-411.2 10.5,-411.2"/>
<text text-anchor="start" x="30.5" y="-418.3" font-family="Helvetica,sans-Serif" font-size="11.00" fill="#000000">oppilaitos_nimi_sv</text>
<polygon fill="none" stroke="#000000" points="300.5,-411.2 300.5,-433.2 409.5,-433.2 409.5,-411.2 300.5,-411.2"/>
<text text-anchor="start" x="303.0344" y="-418.9" font-family="Helvetica,sans-Serif" font-size="11.00" fill="#000000">varchar[2147483647]</text>
<polygon fill="none" stroke="#000000" points="10.5,-389.2 10.5,-411.2 300.5,-411.2 300.5,-389.2 10.5,-389.2"/>
<text text-anchor="start" x="30.5" y="-396.3" font-family="Helvetica,sans-Serif" font-size="11.00" fill="#000000">oppilaitos_kotipaikka</text>
<polygon fill="none" stroke="#000000" points="300.5,-389.2 300.5,-411.2 409.5,-411.2 409.5,-389.2 300.5,-389.2"/>
<text text-anchor="start" x="303.0344" y="-396.9" font-family="Helvetica,sans-Serif" font-size="11.00" fill="#000000">varchar[2147483647]</text>
<polygon fill="none" stroke="#000000" points="10.5,-367.2 10.5,-389.2 300.5,-389.2 300.5,-367.2 10.5,-367.2"/>
<text text-anchor="start" x="30.5" y="-374.3" font-family="Helvetica,sans-Serif" font-size="11.00" fill="#000000">oppilaitosnumero</text>
<polygon fill="none" stroke="#000000" points="300.5,-367.2 300.5,-389.2 409.5,-389.2 409.5,-367.2 300.5,-367.2"/>
<text text-anchor="start" x="303.0344" y="-374.9" font-family="Helvetica,sans-Serif" font-size="11.00" fill="#000000">varchar[2147483647]</text>
<polygon fill="none" stroke="#000000" points="10.5,-345.2 10.5,-367.2 300.5,-367.2 300.5,-345.2 10.5,-345.2"/>
<text text-anchor="start" x="30.5" y="-352.3" font-family="Helvetica,sans-Serif" font-size="11.00" fill="#000000">koulutustoimija_oid</text>
<polygon fill="none" stroke="#000000" points="300.5,-345.2 300.5,-367.2 409.5,-367.2 409.5,-345.2 300.5,-345.2"/>
<text text-anchor="start" x="303.0344" y="-352.9" font-family="Helvetica,sans-Serif" font-size="11.00" fill="#000000">varchar[2147483647]</text>
<polygon fill="none" stroke="#000000" points="10.5,-323.2 10.5,-345.2 300.5,-345.2 300.5,-323.2 10.5,-323.2"/>
<text text-anchor="start" x="30.5" y="-330.3" font-family="Helvetica,sans-Serif" font-size="11.00" fill="#000000">koulutustoimija_nimi</text>
<polygon fill="none" stroke="#000000" points="300.5,-323.2 300.5,-345.2 409.5,-345.2 409.5,-323.2 300.5,-323.2"/>
<text text-anchor="start" x="303.0344" y="-330.9" font-family="Helvetica,sans-Serif" font-size="11.00" fill="#000000">varchar[2147483647]</text>
<polygon fill="none" stroke="#000000" points="10.5,-301.2 10.5,-323.2 300.5,-323.2 300.5,-301.2 10.5,-301.2"/>
<text text-anchor="start" x="30.5" y="-308.3" font-family="Helvetica,sans-Serif" font-size="11.00" fill="#000000">koulutustoimija_nimi_sv</text>
<polygon fill="none" stroke="#000000" points="300.5,-301.2 300.5,-323.2 409.5,-323.2 409.5,-301.2 300.5,-301.2"/>
<text text-anchor="start" x="303.0344" y="-308.9" font-family="Helvetica,sans-Serif" font-size="11.00" fill="#000000">varchar[2147483647]</text>
<polygon fill="#ffffff" stroke="transparent" points="10.5,-279.2 10.5,-301.2 300.5,-301.2 300.5,-279.2 10.5,-279.2"/>
<polygon fill="none" stroke="#000000" points="10.5,-279.2 10.5,-301.2 300.5,-301.2 300.5,-279.2 10.5,-279.2"/>
<text text-anchor="start" x="30.5" y="-286.3" font-family="Helvetica,sans-Serif" font-size="11.00" fill="#000000">koulutusmuoto</text>
<polygon fill="none" stroke="#000000" points="300.5,-279.2 300.5,-301.2 409.5,-301.2 409.5,-279.2 300.5,-279.2"/>
<text text-anchor="start" x="303.0344" y="-286.9" font-family="Helvetica,sans-Serif" font-size="11.00" fill="#000000">varchar[2147483647]</text>
<polygon fill="none" stroke="#000000" points="10.5,-257.2 10.5,-279.2 300.5,-279.2 300.5,-257.2 10.5,-257.2"/>
<text text-anchor="start" x="30.5" y="-264.3" font-family="Helvetica,sans-Serif" font-size="11.00" fill="#000000">alkamispaiva</text>
<polygon fill="none" stroke="#000000" points="300.5,-257.2 300.5,-279.2 409.5,-279.2 409.5,-257.2 300.5,-257.2"/>
<text text-anchor="start" x="303.5" y="-264.9" font-family="Helvetica,sans-Serif" font-size="11.00" fill="#000000">date[13]</text>
<polygon fill="none" stroke="#000000" points="10.5,-235.2 10.5,-257.2 300.5,-257.2 300.5,-235.2 10.5,-235.2"/>
<text text-anchor="start" x="30.5" y="-242.3" font-family="Helvetica,sans-Serif" font-size="11.00" fill="#000000">paattymispaiva</text>
<polygon fill="none" stroke="#000000" points="300.5,-235.2 300.5,-257.2 409.5,-257.2 409.5,-235.2 300.5,-235.2"/>
<text text-anchor="start" x="303.5" y="-242.9" font-family="Helvetica,sans-Serif" font-size="11.00" fill="#000000">date[13]</text>
<polygon fill="none" stroke="#000000" points="10.5,-213.2 10.5,-235.2 300.5,-235.2 300.5,-213.2 10.5,-213.2"/>
<text text-anchor="start" x="30.5" y="-220.3" font-family="Helvetica,sans-Serif" font-size="11.00" fill="#000000">viimeisin_tila</text>
<polygon fill="none" stroke="#000000" points="300.5,-213.2 300.5,-235.2 409.5,-235.2 409.5,-213.2 300.5,-213.2"/>
<text text-anchor="start" x="303.0344" y="-220.9" font-family="Helvetica,sans-Serif" font-size="11.00" fill="#000000">varchar[2147483647]</text>
<polygon fill="none" stroke="#000000" points="10.5,-191.2 10.5,-213.2 300.5,-213.2 300.5,-191.2 10.5,-191.2"/>
<text text-anchor="start" x="30.5" y="-198.3" font-family="Helvetica,sans-Serif" font-size="11.00" fill="#000000">lisatiedot_henkilostokoulutus</text>
<polygon fill="none" stroke="#000000" points="300.5,-191.2 300.5,-213.2 409.5,-213.2 409.5,-191.2 300.5,-191.2"/>
<text text-anchor="start" x="303.5" y="-198.9" font-family="Helvetica,sans-Serif" font-size="11.00" fill="#000000">bool[1]</text>
<polygon fill="none" stroke="#000000" points="10.5,-169.2 10.5,-191.2 300.5,-191.2 300.5,-169.2 10.5,-169.2"/>
<text text-anchor="start" x="30.5" y="-176.3" font-family="Helvetica,sans-Serif" font-size="11.00" fill="#000000">lisatiedot_koulutusvienti</text>
<polygon fill="none" stroke="#000000" points="300.5,-169.2 300.5,-191.2 409.5,-191.2 409.5,-169.2 300.5,-169.2"/>
<text text-anchor="start" x="303.5" y="-176.9" font-family="Helvetica,sans-Serif" font-size="11.00" fill="#000000">bool[1]</text>
<polygon fill="none" stroke="#000000" points="10.5,-147.2 10.5,-169.2 300.5,-169.2 300.5,-147.2 10.5,-147.2"/>
<text text-anchor="start" x="30.5" y="-154.3" font-family="Helvetica,sans-Serif" font-size="11.00" fill="#000000">tuva_jarjestamislupa</text>
<polygon fill="none" stroke="#000000" points="300.5,-147.2 300.5,-169.2 409.5,-169.2 409.5,-147.2 300.5,-147.2"/>
<text text-anchor="start" x="303.0344" y="-154.9" font-family="Helvetica,sans-Serif" font-size="11.00" fill="#000000">varchar[2147483647]</text>
<polygon fill="none" stroke="#000000" points="10.5,-125.2 10.5,-147.2 300.5,-147.2 300.5,-125.2 10.5,-125.2"/>
<text text-anchor="start" x="30.5" y="-132.3" font-family="Helvetica,sans-Serif" font-size="11.00" fill="#000000">lahdejarjestelma_koodiarvo</text>
<polygon fill="none" stroke="#000000" points="300.5,-125.2 300.5,-147.2 409.5,-147.2 409.5,-125.2 300.5,-125.2"/>
<text text-anchor="start" x="303.0344" y="-132.9" font-family="Helvetica,sans-Serif" font-size="11.00" fill="#000000">varchar[2147483647]</text>
<polygon fill="none" stroke="#000000" points="10.5,-103.2 10.5,-125.2 300.5,-125.2 300.5,-103.2 10.5,-103.2"/>
<text text-anchor="start" x="30.5" y="-110.3" font-family="Helvetica,sans-Serif" font-size="11.00" fill="#000000">lahdejarjestelma_id</text>
<polygon fill="none" stroke="#000000" points="300.5,-103.2 300.5,-125.2 409.5,-125.2 409.5,-103.2 300.5,-103.2"/>
<text text-anchor="start" x="303.0344" y="-110.9" font-family="Helvetica,sans-Serif" font-size="11.00" fill="#000000">varchar[2147483647]</text>
<polygon fill="none" stroke="#000000" points="10.5,-81.2 10.5,-103.2 300.5,-103.2 300.5,-81.2 10.5,-81.2"/>
<text text-anchor="start" x="30.5" y="-88.3" font-family="Helvetica,sans-Serif" font-size="11.00" fill="#000000">oppivelvollisuuden_suorittamiseen_kelpaava</text>
<polygon fill="none" stroke="#000000" points="300.5,-81.2 300.5,-103.2 409.5,-103.2 409.5,-81.2 300.5,-81.2"/>
<text text-anchor="start" x="303.5" y="-88.9" font-family="Helvetica,sans-Serif" font-size="11.00" fill="#000000">bool[1]</text>
<polygon fill="none" stroke="#000000" points="10.5,-59.2 10.5,-81.2 300.5,-81.2 300.5,-59.2 10.5,-59.2"/>
<text text-anchor="start" x="30.5" y="-66.3" font-family="Helvetica,sans-Serif" font-size="11.00" fill="#000000">data</text>
<polygon fill="none" stroke="#000000" points="300.5,-59.2 300.5,-81.2 409.5,-81.2 409.5,-59.2 300.5,-59.2"/>
<text text-anchor="start" x="303.5" y="-66.9" font-family="Helvetica,sans-Serif" font-size="11.00" fill="#000000">jsonb[2147483647]</text>
<polygon fill="#ffffff" stroke="transparent" points="10.5,-40.2 10.5,-59.2 140.5,-59.2 140.5,-40.2 10.5,-40.2"/>
<polygon fill="none" stroke="#000000" points="10.5,-40.2 10.5,-59.2 140.5,-59.2 140.5,-40.2 10.5,-40.2"/>
<text text-anchor="start" x="13.5" y="-46.3" font-family="Helvetica,sans-Serif" font-size="11.00" fill="#000000">&lt; 0</text>
<polygon fill="#ffffff" stroke="transparent" points="140.5,-40.2 140.5,-59.2 300.5,-59.2 300.5,-40.2 140.5,-40.2"/>
<polygon fill="none" stroke="#000000" points="140.5,-40.2 140.5,-59.2 300.5,-59.2 300.5,-40.2 140.5,-40.2"/>
<text text-anchor="start" x="252.8807" y="-46.3" font-family="Helvetica,sans-Serif" font-size="11.00" fill="#000000">247 rows</text>
<polygon fill="#ffffff" stroke="transparent" points="300.5,-40.2 300.5,-59.2 409.5,-59.2 409.5,-40.2 300.5,-40.2"/>
<polygon fill="none" stroke="#000000" points="300.5,-40.2 300.5,-59.2 409.5,-59.2 409.5,-40.2 300.5,-40.2"/>
<text text-anchor="start" x="390.9053" y="-46.3" font-family="Helvetica,sans-Serif" font-size="11.00" fill="#000000">0 &gt;</text>
<polygon fill="none" stroke="#000000" stroke-width="2" points="9,-39.2 9,-611.2 410,-611.2 410,-39.2 9,-39.2"/>
</a>
</g>
</g>
</g>
</svg>
