<?xml version="1.0" encoding="UTF-8" standalone="no"?>
<!DOCTYPE svg PUBLIC "-//W3C//DTD SVG 1.1//EN"
 "http://www.w3.org/Graphics/SVG/1.1/DTD/svg11.dtd">
<!-- Generated by graphviz version 2.40.1 (20161225.0304)
 -->
<!-- Title: oneDegreeRelationshipsDiagram Pages: 1 -->
<svg width="416pt" height="646pt"
 viewBox="0.00 0.00 416.00 646.20" xmlns="http://www.w3.org/2000/svg" xmlns:xlink="http://www.w3.org/1999/xlink">
<g id="graph0" class="graph" transform="scale(1 1) rotate(0) translate(4 642.2)">
<title>oneDegreeRelationshipsDiagram</title>
<polygon fill="#ffffff" stroke="transparent" points="-4,4 -4,-642.2 412,-642.2 412,4 -4,4"/>
<text text-anchor="middle" x="72.4936" y="-7.3" font-family="Helvetica,sans-Serif" font-size="11.00" fill="#000000">Generated by SchemaSpy</text>
<!-- r_opiskeluoikeus -->
<g id="node1" class="node">
<title>r_opiskeluoikeus</title>
<g id="a_node1"><a xlink:href="../../tables/r_opiskeluoikeus.html" xlink:title="r_opiskeluoikeus" target="_top">
<polygon fill="#ffffff" stroke="transparent" points="8,-38.2 8,-634.2 400,-634.2 400,-38.2 8,-38.2"/>
<polygon fill="#f5f5f5" stroke="transparent" points="10,-609.2 10,-632.2 398,-632.2 398,-609.2 10,-609.2"/>
<polygon fill="none" stroke="#000000" points="10,-609.2 10,-632.2 398,-632.2 398,-609.2 10,-609.2"/>
<text text-anchor="start" x="15" y="-617.8" font-family="Helvetica,sans-Serif" font-weight="bold" font-size="11.00" fill="#000000">r_opiskeluoikeus</text>
<text text-anchor="start" x="363.0437" y="-617.3" font-family="Helvetica,sans-Serif" font-size="11.00" fill="#000000">[table]</text>
<polygon fill="none" stroke="#000000" points="10,-587.2 10,-609.2 289,-609.2 289,-587.2 10,-587.2"/>
<image xlink:href="../../images/primaryKeys.png" width="11px" height="12px" preserveAspectRatio="xMinYMin meet" x="15" y="-604.2"/>
<text text-anchor="start" x="30" y="-594.3" font-family="Helvetica,sans-Serif" font-size="11.00" fill="#000000">opiskeluoikeus_oid</text>
<polygon fill="none" stroke="#000000" points="289,-587.2 289,-609.2 398,-609.2 398,-587.2 289,-587.2"/>
<text text-anchor="start" x="291.5344" y="-594.9" font-family="Helvetica,sans-Serif" font-size="11.00" fill="#000000">varchar[2147483647]</text>
<polygon fill="none" stroke="#000000" points="10,-565.2 10,-587.2 289,-587.2 289,-565.2 10,-565.2"/>
<text text-anchor="start" x="30" y="-572.3" font-family="Helvetica,sans-Serif" font-size="11.00" fill="#000000">versionumero</text>
<polygon fill="none" stroke="#000000" points="289,-565.2 289,-587.2 398,-587.2 398,-565.2 289,-565.2"/>
<text text-anchor="start" x="292" y="-572.9" font-family="Helvetica,sans-Serif" font-size="11.00" fill="#000000">int4[10]</text>
<polygon fill="none" stroke="#000000" points="10,-543.2 10,-565.2 289,-565.2 289,-543.2 10,-543.2"/>
<text text-anchor="start" x="30" y="-550.3" font-family="Helvetica,sans-Serif" font-size="11.00" fill="#000000">aikaleima</text>
<polygon fill="none" stroke="#000000" points="289,-543.2 289,-565.2 398,-565.2 398,-543.2 289,-543.2"/>
<text text-anchor="start" x="292" y="-550.9" font-family="Helvetica,sans-Serif" font-size="11.00" fill="#000000">timestamptz[35,6]</text>
<polygon fill="#ffffff" stroke="transparent" points="10,-521.2 10,-543.2 289,-543.2 289,-521.2 10,-521.2"/>
<polygon fill="none" stroke="#000000" points="10,-521.2 10,-543.2 289,-543.2 289,-521.2 10,-521.2"/>
<text text-anchor="start" x="30" y="-528.3" font-family="Helvetica,sans-Serif" font-size="11.00" fill="#000000">sisaltyy_opiskeluoikeuteen_oid</text>
<polygon fill="none" stroke="#000000" points="289,-521.2 289,-543.2 398,-543.2 398,-521.2 289,-521.2"/>
<text text-anchor="start" x="291.5344" y="-528.9" font-family="Helvetica,sans-Serif" font-size="11.00" fill="#000000">varchar[2147483647]</text>
<polygon fill="#ffffff" stroke="transparent" points="10,-499.2 10,-521.2 289,-521.2 289,-499.2 10,-499.2"/>
<polygon fill="none" stroke="#000000" points="10,-499.2 10,-521.2 289,-521.2 289,-499.2 10,-499.2"/>
<text text-anchor="start" x="30" y="-506.3" font-family="Helvetica,sans-Serif" font-size="11.00" fill="#000000">oppija_oid</text>
<polygon fill="none" stroke="#000000" points="289,-499.2 289,-521.2 398,-521.2 398,-499.2 289,-499.2"/>
<text text-anchor="start" x="291.5344" y="-506.9" font-family="Helvetica,sans-Serif" font-size="11.00" fill="#000000">varchar[2147483647]</text>
<polygon fill="#ffffff" stroke="transparent" points="10,-477.2 10,-499.2 289,-499.2 289,-477.2 10,-477.2"/>
<polygon fill="none" stroke="#000000" points="10,-477.2 10,-499.2 289,-499.2 289,-477.2 10,-477.2"/>
<text text-anchor="start" x="30" y="-484.3" font-family="Helvetica,sans-Serif" font-size="11.00" fill="#000000">oppilaitos_oid</text>
<polygon fill="none" stroke="#000000" points="289,-477.2 289,-499.2 398,-499.2 398,-477.2 289,-477.2"/>
<text text-anchor="start" x="291.5344" y="-484.9" font-family="Helvetica,sans-Serif" font-size="11.00" fill="#000000">varchar[2147483647]</text>
<polygon fill="none" stroke="#000000" points="10,-455.2 10,-477.2 289,-477.2 289,-455.2 10,-455.2"/>
<text text-anchor="start" x="30" y="-462.3" font-family="Helvetica,sans-Serif" font-size="11.00" fill="#000000">oppilaitos_nimi</text>
<polygon fill="none" stroke="#000000" points="289,-455.2 289,-477.2 398,-477.2 398,-455.2 289,-455.2"/>
<text text-anchor="start" x="291.5344" y="-462.9" font-family="Helvetica,sans-Serif" font-size="11.00" fill="#000000">varchar[2147483647]</text>
<polygon fill="none" stroke="#000000" points="10,-433.2 10,-455.2 289,-455.2 289,-433.2 10,-433.2"/>
<text text-anchor="start" x="30" y="-440.3" font-family="Helvetica,sans-Serif" font-size="11.00" fill="#000000">oppilaitos_nimi_sv</text>
<polygon fill="none" stroke="#000000" points="289,-433.2 289,-455.2 398,-455.2 398,-433.2 289,-433.2"/>
<text text-anchor="start" x="291.5344" y="-440.9" font-family="Helvetica,sans-Serif" font-size="11.00" fill="#000000">varchar[2147483647]</text>
<polygon fill="none" stroke="#000000" points="10,-411.2 10,-433.2 289,-433.2 289,-411.2 10,-411.2"/>
<text text-anchor="start" x="30" y="-418.3" font-family="Helvetica,sans-Serif" font-size="11.00" fill="#000000">oppilaitos_kotipaikka</text>
<polygon fill="none" stroke="#000000" points="289,-411.2 289,-433.2 398,-433.2 398,-411.2 289,-411.2"/>
<text text-anchor="start" x="291.5344" y="-418.9" font-family="Helvetica,sans-Serif" font-size="11.00" fill="#000000">varchar[2147483647]</text>
<polygon fill="none" stroke="#000000" points="10,-389.2 10,-411.2 289,-411.2 289,-389.2 10,-389.2"/>
<text text-anchor="start" x="30" y="-396.3" font-family="Helvetica,sans-Serif" font-size="11.00" fill="#000000">oppilaitosnumero</text>
<polygon fill="none" stroke="#000000" points="289,-389.2 289,-411.2 398,-411.2 398,-389.2 289,-389.2"/>
<text text-anchor="start" x="291.5344" y="-396.9" font-family="Helvetica,sans-Serif" font-size="11.00" fill="#000000">varchar[2147483647]</text>
<polygon fill="none" stroke="#000000" points="10,-367.2 10,-389.2 289,-389.2 289,-367.2 10,-367.2"/>
<text text-anchor="start" x="30" y="-374.3" font-family="Helvetica,sans-Serif" font-size="11.00" fill="#000000">koulutustoimija_oid</text>
<polygon fill="none" stroke="#000000" points="289,-367.2 289,-389.2 398,-389.2 398,-367.2 289,-367.2"/>
<text text-anchor="start" x="291.5344" y="-374.9" font-family="Helvetica,sans-Serif" font-size="11.00" fill="#000000">varchar[2147483647]</text>
<polygon fill="none" stroke="#000000" points="10,-345.2 10,-367.2 289,-367.2 289,-345.2 10,-345.2"/>
<text text-anchor="start" x="30" y="-352.3" font-family="Helvetica,sans-Serif" font-size="11.00" fill="#000000">koulutustoimija_nimi</text>
<polygon fill="none" stroke="#000000" points="289,-345.2 289,-367.2 398,-367.2 398,-345.2 289,-345.2"/>
<text text-anchor="start" x="291.5344" y="-352.9" font-family="Helvetica,sans-Serif" font-size="11.00" fill="#000000">varchar[2147483647]</text>
<polygon fill="none" stroke="#000000" points="10,-323.2 10,-345.2 289,-345.2 289,-323.2 10,-323.2"/>
<text text-anchor="start" x="30" y="-330.3" font-family="Helvetica,sans-Serif" font-size="11.00" fill="#000000">koulutustoimija_nimi_sv</text>
<polygon fill="none" stroke="#000000" points="289,-323.2 289,-345.2 398,-345.2 398,-323.2 289,-323.2"/>
<text text-anchor="start" x="291.5344" y="-330.9" font-family="Helvetica,sans-Serif" font-size="11.00" fill="#000000">varchar[2147483647]</text>
<polygon fill="#ffffff" stroke="transparent" points="10,-301.2 10,-323.2 289,-323.2 289,-301.2 10,-301.2"/>
<polygon fill="none" stroke="#000000" points="10,-301.2 10,-323.2 289,-323.2 289,-301.2 10,-301.2"/>
<text text-anchor="start" x="30" y="-308.3" font-family="Helvetica,sans-Serif" font-size="11.00" fill="#000000">koulutusmuoto</text>
<polygon fill="none" stroke="#000000" points="289,-301.2 289,-323.2 398,-323.2 398,-301.2 289,-301.2"/>
<text text-anchor="start" x="291.5344" y="-308.9" font-family="Helvetica,sans-Serif" font-size="11.00" fill="#000000">varchar[2147483647]</text>
<polygon fill="none" stroke="#000000" points="10,-279.2 10,-301.2 289,-301.2 289,-279.2 10,-279.2"/>
<text text-anchor="start" x="30" y="-286.3" font-family="Helvetica,sans-Serif" font-size="11.00" fill="#000000">alkamispaiva</text>
<polygon fill="none" stroke="#000000" points="289,-279.2 289,-301.2 398,-301.2 398,-279.2 289,-279.2"/>
<text text-anchor="start" x="292" y="-286.9" font-family="Helvetica,sans-Serif" font-size="11.00" fill="#000000">date[13]</text>
<polygon fill="none" stroke="#000000" points="10,-257.2 10,-279.2 289,-279.2 289,-257.2 10,-257.2"/>
<text text-anchor="start" x="30" y="-264.3" font-family="Helvetica,sans-Serif" font-size="11.00" fill="#000000">paattymispaiva</text>
<polygon fill="none" stroke="#000000" points="289,-257.2 289,-279.2 398,-279.2 398,-257.2 289,-257.2"/>
<text text-anchor="start" x="292" y="-264.9" font-family="Helvetica,sans-Serif" font-size="11.00" fill="#000000">date[13]</text>
<polygon fill="none" stroke="#000000" points="10,-235.2 10,-257.2 289,-257.2 289,-235.2 10,-235.2"/>
<text text-anchor="start" x="30" y="-242.3" font-family="Helvetica,sans-Serif" font-size="11.00" fill="#000000">viimeisin_tila</text>
<polygon fill="none" stroke="#000000" points="289,-235.2 289,-257.2 398,-257.2 398,-235.2 289,-235.2"/>
<text text-anchor="start" x="291.5344" y="-242.9" font-family="Helvetica,sans-Serif" font-size="11.00" fill="#000000">varchar[2147483647]</text>
<polygon fill="none" stroke="#000000" points="10,-213.2 10,-235.2 289,-235.2 289,-213.2 10,-213.2"/>
<text text-anchor="start" x="30" y="-220.3" font-family="Helvetica,sans-Serif" font-size="11.00" fill="#000000">lisatiedot_henkilostokoulutus</text>
<polygon fill="none" stroke="#000000" points="289,-213.2 289,-235.2 398,-235.2 398,-213.2 289,-213.2"/>
<text text-anchor="start" x="292" y="-220.9" font-family="Helvetica,sans-Serif" font-size="11.00" fill="#000000">bool[1]</text>
<polygon fill="none" stroke="#000000" points="10,-191.2 10,-213.2 289,-213.2 289,-191.2 10,-191.2"/>
<text text-anchor="start" x="30" y="-198.3" font-family="Helvetica,sans-Serif" font-size="11.00" fill="#000000">lisatiedot_koulutusvienti</text>
<polygon fill="none" stroke="#000000" points="289,-191.2 289,-213.2 398,-213.2 398,-191.2 289,-191.2"/>
<text text-anchor="start" x="292" y="-198.9" font-family="Helvetica,sans-Serif" font-size="11.00" fill="#000000">bool[1]</text>
<polygon fill="none" stroke="#000000" points="10,-169.2 10,-191.2 289,-191.2 289,-169.2 10,-169.2"/>
<text text-anchor="start" x="30" y="-176.3" font-family="Helvetica,sans-Serif" font-size="11.00" fill="#000000">tuva_jarjestamislupa</text>
<polygon fill="none" stroke="#000000" points="289,-169.2 289,-191.2 398,-191.2 398,-169.2 289,-169.2"/>
<text text-anchor="start" x="291.5344" y="-176.9" font-family="Helvetica,sans-Serif" font-size="11.00" fill="#000000">varchar[2147483647]</text>
<polygon fill="none" stroke="#000000" points="10,-147.2 10,-169.2 289,-169.2 289,-147.2 10,-147.2"/>
<text text-anchor="start" x="30" y="-154.3" font-family="Helvetica,sans-Serif" font-size="11.00" fill="#000000">lahdejarjestelma_koodiarvo</text>
<polygon fill="none" stroke="#000000" points="289,-147.2 289,-169.2 398,-169.2 398,-147.2 289,-147.2"/>
<text text-anchor="start" x="291.5344" y="-154.9" font-family="Helvetica,sans-Serif" font-size="11.00" fill="#000000">varchar[2147483647]</text>
<polygon fill="none" stroke="#000000" points="10,-125.2 10,-147.2 289,-147.2 289,-125.2 10,-125.2"/>
<text text-anchor="start" x="30" y="-132.3" font-family="Helvetica,sans-Serif" font-size="11.00" fill="#000000">lahdejarjestelma_id</text>
<polygon fill="none" stroke="#000000" points="289,-125.2 289,-147.2 398,-147.2 398,-125.2 289,-125.2"/>
<text text-anchor="start" x="291.5344" y="-132.9" font-family="Helvetica,sans-Serif" font-size="11.00" fill="#000000">varchar[2147483647]</text>
<polygon fill="none" stroke="#000000" points="10,-103.2 10,-125.2 289,-125.2 289,-103.2 10,-103.2"/>
<text text-anchor="start" x="30" y="-110.3" font-family="Helvetica,sans-Serif" font-size="11.00" fill="#000000">luokka</text>
<polygon fill="none" stroke="#000000" points="289,-103.2 289,-125.2 398,-125.2 398,-103.2 289,-103.2"/>
<text text-anchor="start" x="291.5344" y="-110.9" font-family="Helvetica,sans-Serif" font-size="11.00" fill="#000000">varchar[2147483647]</text>
<polygon fill="none" stroke="#000000" points="10,-81.2 10,-103.2 289,-103.2 289,-81.2 10,-81.2"/>
<text text-anchor="start" x="30" y="-88.3" font-family="Helvetica,sans-Serif" font-size="11.00" fill="#000000">oppivelvollisuuden_suorittamiseen_kelpaava</text>
<polygon fill="none" stroke="#000000" points="289,-81.2 289,-103.2 398,-103.2 398,-81.2 289,-81.2"/>
<text text-anchor="start" x="292" y="-88.9" font-family="Helvetica,sans-Serif" font-size="11.00" fill="#000000">bool[1]</text>
<polygon fill="none" stroke="#000000" points="10,-59.2 10,-81.2 289,-81.2 289,-59.2 10,-59.2"/>
<text text-anchor="start" x="30" y="-66.3" font-family="Helvetica,sans-Serif" font-size="11.00" fill="#000000">data</text>
<polygon fill="none" stroke="#000000" points="289,-59.2 289,-81.2 398,-81.2 398,-59.2 289,-59.2"/>
<text text-anchor="start" x="292" y="-66.9" font-family="Helvetica,sans-Serif" font-size="11.00" fill="#000000">jsonb[2147483647]</text>
<polygon fill="#ffffff" stroke="transparent" points="10,-40.2 10,-59.2 135,-59.2 135,-40.2 10,-40.2"/>
<polygon fill="none" stroke="#000000" points="10,-40.2 10,-59.2 135,-59.2 135,-40.2 10,-40.2"/>
<text text-anchor="start" x="13" y="-46.3" font-family="Helvetica,sans-Serif" font-size="11.00" fill="#000000">&lt; 0</text>
<polygon fill="#ffffff" stroke="transparent" points="135,-40.2 135,-59.2 289,-59.2 289,-40.2 135,-40.2"/>
<polygon fill="none" stroke="#000000" points="135,-40.2 135,-59.2 289,-59.2 289,-40.2 135,-40.2"/>
<text text-anchor="start" x="241.3807" y="-46.3" font-family="Helvetica,sans-Serif" font-size="11.00" fill="#000000">156 rows</text>
<polygon fill="#ffffff" stroke="transparent" points="289,-40.2 289,-59.2 398,-59.2 398,-40.2 289,-40.2"/>
<polygon fill="none" stroke="#000000" points="289,-40.2 289,-59.2 398,-59.2 398,-40.2 289,-40.2"/>
<text text-anchor="start" x="379.4053" y="-46.3" font-family="Helvetica,sans-Serif" font-size="11.00" fill="#000000">0 &gt;</text>
<polygon fill="none" stroke="#000000" stroke-width="2" points="9,-39.2 9,-633.2 399,-633.2 399,-39.2 9,-39.2"/>
</a>
</g>
</g>
</g>
</svg>
