<?xml version="1.0" encoding="UTF-8" standalone="no"?>
<!DOCTYPE svg PUBLIC "-//W3C//DTD SVG 1.1//EN"
 "http://www.w3.org/Graphics/SVG/1.1/DTD/svg11.dtd">
<!-- Generated by graphviz version 2.40.1 (20161225.0304)
 -->
<!-- Title: oneDegreeRelationshipsDiagram Pages: 1 -->
<svg width="559pt" height="954pt"
 viewBox="0.00 0.00 559.00 954.20" xmlns="http://www.w3.org/2000/svg" xmlns:xlink="http://www.w3.org/1999/xlink">
<g id="graph0" class="graph" transform="scale(1 1) rotate(0) translate(4 950.2)">
<title>oneDegreeRelationshipsDiagram</title>
<polygon fill="#ffffff" stroke="transparent" points="-4,4 -4,-950.2 555,-950.2 555,4 -4,4"/>
<text text-anchor="middle" x="72.4936" y="-7.3" font-family="Helvetica,sans-Serif" font-size="11.00" fill="#000000">Generated by SchemaSpy</text>
<!-- r_opiskeluoikeus_aikajakso -->
<g id="node1" class="node">
<title>r_opiskeluoikeus_aikajakso</title>
<g id="a_node1"><a xlink:href="../../tables/r_opiskeluoikeus_aikajakso.html" xlink:title="r_opiskeluoikeus_aikajakso" target="_top">
<polygon fill="#ffffff" stroke="transparent" points="8,-38.2 8,-942.2 543,-942.2 543,-38.2 8,-38.2"/>
<polygon fill="#f5f5f5" stroke="transparent" points="10.5,-917.2 10.5,-940.2 541.5,-940.2 541.5,-917.2 10.5,-917.2"/>
<polygon fill="none" stroke="#000000" points="10.5,-917.2 10.5,-940.2 541.5,-940.2 541.5,-917.2 10.5,-917.2"/>
<text text-anchor="start" x="15.5" y="-925.8" font-family="Helvetica,sans-Serif" font-weight="bold" font-size="11.00" fill="#000000">r_opiskeluoikeus_aikajakso</text>
<text text-anchor="start" x="506.5437" y="-925.3" font-family="Helvetica,sans-Serif" font-size="11.00" fill="#000000">[table]</text>
<polygon fill="#ffffff" stroke="transparent" points="10.5,-895.2 10.5,-917.2 432.5,-917.2 432.5,-895.2 10.5,-895.2"/>
<polygon fill="none" stroke="#000000" points="10.5,-895.2 10.5,-917.2 432.5,-917.2 432.5,-895.2 10.5,-895.2"/>
<text text-anchor="start" x="30.5" y="-902.3" font-family="Helvetica,sans-Serif" font-size="11.00" fill="#000000">opiskeluoikeus_oid</text>
<polygon fill="none" stroke="#000000" points="432.5,-895.2 432.5,-917.2 541.5,-917.2 541.5,-895.2 432.5,-895.2"/>
<text text-anchor="start" x="435.0344" y="-902.9" font-family="Helvetica,sans-Serif" font-size="11.00" fill="#000000">varchar[2147483647]</text>
<polygon fill="#ffffff" stroke="transparent" points="10.5,-873.2 10.5,-895.2 432.5,-895.2 432.5,-873.2 10.5,-873.2"/>
<polygon fill="none" stroke="#000000" points="10.5,-873.2 10.5,-895.2 432.5,-895.2 432.5,-873.2 10.5,-873.2"/>
<text text-anchor="start" x="30.5" y="-880.3" font-family="Helvetica,sans-Serif" font-size="11.00" fill="#000000">alku</text>
<polygon fill="none" stroke="#000000" points="432.5,-873.2 432.5,-895.2 541.5,-895.2 541.5,-873.2 432.5,-873.2"/>
<text text-anchor="start" x="435.5" y="-880.9" font-family="Helvetica,sans-Serif" font-size="11.00" fill="#000000">date[13]</text>
<polygon fill="#ffffff" stroke="transparent" points="10.5,-851.2 10.5,-873.2 432.5,-873.2 432.5,-851.2 10.5,-851.2"/>
<polygon fill="none" stroke="#000000" points="10.5,-851.2 10.5,-873.2 432.5,-873.2 432.5,-851.2 10.5,-851.2"/>
<text text-anchor="start" x="30.5" y="-858.3" font-family="Helvetica,sans-Serif" font-size="11.00" fill="#000000">loppu</text>
<polygon fill="none" stroke="#000000" points="432.5,-851.2 432.5,-873.2 541.5,-873.2 541.5,-851.2 432.5,-851.2"/>
<text text-anchor="start" x="435.5" y="-858.9" font-family="Helvetica,sans-Serif" font-size="11.00" fill="#000000">date[13]</text>
<polygon fill="#ffffff" stroke="transparent" points="10.5,-829.2 10.5,-851.2 432.5,-851.2 432.5,-829.2 10.5,-829.2"/>
<polygon fill="none" stroke="#000000" points="10.5,-829.2 10.5,-851.2 432.5,-851.2 432.5,-829.2 10.5,-829.2"/>
<text text-anchor="start" x="30.5" y="-836.3" font-family="Helvetica,sans-Serif" font-size="11.00" fill="#000000">tila</text>
<polygon fill="none" stroke="#000000" points="432.5,-829.2 432.5,-851.2 541.5,-851.2 541.5,-829.2 432.5,-829.2"/>
<text text-anchor="start" x="435.0344" y="-836.9" font-family="Helvetica,sans-Serif" font-size="11.00" fill="#000000">varchar[2147483647]</text>
<polygon fill="none" stroke="#000000" points="10.5,-807.2 10.5,-829.2 432.5,-829.2 432.5,-807.2 10.5,-807.2"/>
<text text-anchor="start" x="30.5" y="-814.3" font-family="Helvetica,sans-Serif" font-size="11.00" fill="#000000">tila_alkanut</text>
<polygon fill="none" stroke="#000000" points="432.5,-807.2 432.5,-829.2 541.5,-829.2 541.5,-807.2 432.5,-807.2"/>
<text text-anchor="start" x="435.5" y="-814.9" font-family="Helvetica,sans-Serif" font-size="11.00" fill="#000000">date[13]</text>
<polygon fill="none" stroke="#000000" points="10.5,-785.2 10.5,-807.2 432.5,-807.2 432.5,-785.2 10.5,-785.2"/>
<text text-anchor="start" x="30.5" y="-792.3" font-family="Helvetica,sans-Serif" font-size="11.00" fill="#000000">opiskeluoikeus_paattynyt</text>
<polygon fill="none" stroke="#000000" points="432.5,-785.2 432.5,-807.2 541.5,-807.2 541.5,-785.2 432.5,-785.2"/>
<text text-anchor="start" x="435.5" y="-792.9" font-family="Helvetica,sans-Serif" font-size="11.00" fill="#000000">bool[1]</text>
<polygon fill="none" stroke="#000000" points="10.5,-763.2 10.5,-785.2 432.5,-785.2 432.5,-763.2 10.5,-763.2"/>
<text text-anchor="start" x="30.5" y="-770.3" font-family="Helvetica,sans-Serif" font-size="11.00" fill="#000000">opintojen_rahoitus</text>
<polygon fill="none" stroke="#000000" points="432.5,-763.2 432.5,-785.2 541.5,-785.2 541.5,-763.2 432.5,-763.2"/>
<text text-anchor="start" x="435.0344" y="-770.9" font-family="Helvetica,sans-Serif" font-size="11.00" fill="#000000">varchar[2147483647]</text>
<polygon fill="none" stroke="#000000" points="10.5,-741.2 10.5,-763.2 432.5,-763.2 432.5,-741.2 10.5,-741.2"/>
<text text-anchor="start" x="30.5" y="-748.3" font-family="Helvetica,sans-Serif" font-size="11.00" fill="#000000">erityisen_koulutus_tehtävän_jakso_tehtävä_koodiarvo</text>
<polygon fill="none" stroke="#000000" points="432.5,-741.2 432.5,-763.2 541.5,-763.2 541.5,-741.2 432.5,-741.2"/>
<text text-anchor="start" x="435.0344" y="-748.9" font-family="Helvetica,sans-Serif" font-size="11.00" fill="#000000">varchar[2147483647]</text>
<polygon fill="none" stroke="#000000" points="10.5,-719.2 10.5,-741.2 432.5,-741.2 432.5,-719.2 10.5,-719.2"/>
<text text-anchor="start" x="30.5" y="-726.3" font-family="Helvetica,sans-Serif" font-size="11.00" fill="#000000">ulkomainen_vaihto_opiskelija</text>
<polygon fill="none" stroke="#000000" points="432.5,-719.2 432.5,-741.2 541.5,-741.2 541.5,-719.2 432.5,-719.2"/>
<text text-anchor="start" x="435.5" y="-726.9" font-family="Helvetica,sans-Serif" font-size="11.00" fill="#000000">bool[1]</text>
<polygon fill="none" stroke="#000000" points="10.5,-697.2 10.5,-719.2 432.5,-719.2 432.5,-697.2 10.5,-697.2"/>
<text text-anchor="start" x="30.5" y="-704.3" font-family="Helvetica,sans-Serif" font-size="11.00" fill="#000000">majoitus</text>
<polygon fill="none" stroke="#000000" points="432.5,-697.2 432.5,-719.2 541.5,-719.2 541.5,-697.2 432.5,-697.2"/>
<text text-anchor="start" x="435.5" y="-704.9" font-family="Helvetica,sans-Serif" font-size="11.00" fill="#000000">bool[1]</text>
<polygon fill="none" stroke="#000000" points="10.5,-675.2 10.5,-697.2 432.5,-697.2 432.5,-675.2 10.5,-675.2"/>
<text text-anchor="start" x="30.5" y="-682.3" font-family="Helvetica,sans-Serif" font-size="11.00" fill="#000000">majoitusetu</text>
<polygon fill="none" stroke="#000000" points="432.5,-675.2 432.5,-697.2 541.5,-697.2 541.5,-675.2 432.5,-675.2"/>
<text text-anchor="start" x="435.5" y="-682.9" font-family="Helvetica,sans-Serif" font-size="11.00" fill="#000000">bool[1]</text>
<polygon fill="none" stroke="#000000" points="10.5,-653.2 10.5,-675.2 432.5,-675.2 432.5,-653.2 10.5,-653.2"/>
<text text-anchor="start" x="30.5" y="-660.3" font-family="Helvetica,sans-Serif" font-size="11.00" fill="#000000">kuljetusetu</text>
<polygon fill="none" stroke="#000000" points="432.5,-653.2 432.5,-675.2 541.5,-675.2 541.5,-653.2 432.5,-653.2"/>
<text text-anchor="start" x="435.5" y="-660.9" font-family="Helvetica,sans-Serif" font-size="11.00" fill="#000000">bool[1]</text>
<polygon fill="none" stroke="#000000" points="10.5,-631.2 10.5,-653.2 432.5,-653.2 432.5,-631.2 10.5,-631.2"/>
<text text-anchor="start" x="30.5" y="-638.3" font-family="Helvetica,sans-Serif" font-size="11.00" fill="#000000">sisaoppilaitosmainen_majoitus</text>
<polygon fill="none" stroke="#000000" points="432.5,-631.2 432.5,-653.2 541.5,-653.2 541.5,-631.2 432.5,-631.2"/>
<text text-anchor="start" x="435.5" y="-638.9" font-family="Helvetica,sans-Serif" font-size="11.00" fill="#000000">bool[1]</text>
<polygon fill="none" stroke="#000000" points="10.5,-609.2 10.5,-631.2 432.5,-631.2 432.5,-609.2 10.5,-609.2"/>
<text text-anchor="start" x="30.5" y="-616.3" font-family="Helvetica,sans-Serif" font-size="11.00" fill="#000000">vaativan_erityisen_tuen_yhteydessa_jarjestettäva_majoitus</text>
<polygon fill="none" stroke="#000000" points="432.5,-609.2 432.5,-631.2 541.5,-631.2 541.5,-609.2 432.5,-609.2"/>
<text text-anchor="start" x="435.5" y="-616.9" font-family="Helvetica,sans-Serif" font-size="11.00" fill="#000000">bool[1]</text>
<polygon fill="none" stroke="#000000" points="10.5,-587.2 10.5,-609.2 432.5,-609.2 432.5,-587.2 10.5,-587.2"/>
<text text-anchor="start" x="30.5" y="-594.3" font-family="Helvetica,sans-Serif" font-size="11.00" fill="#000000">erityinen_tuki</text>
<polygon fill="none" stroke="#000000" points="432.5,-587.2 432.5,-609.2 541.5,-609.2 541.5,-587.2 432.5,-587.2"/>
<text text-anchor="start" x="435.5" y="-594.9" font-family="Helvetica,sans-Serif" font-size="11.00" fill="#000000">bool[1]</text>
<polygon fill="none" stroke="#000000" points="10.5,-565.2 10.5,-587.2 432.5,-587.2 432.5,-565.2 10.5,-565.2"/>
<text text-anchor="start" x="30.5" y="-572.3" font-family="Helvetica,sans-Serif" font-size="11.00" fill="#000000">vaativan_erityisen_tuen_erityinen_tehtava</text>
<polygon fill="none" stroke="#000000" points="432.5,-565.2 432.5,-587.2 541.5,-587.2 541.5,-565.2 432.5,-565.2"/>
<text text-anchor="start" x="435.5" y="-572.9" font-family="Helvetica,sans-Serif" font-size="11.00" fill="#000000">bool[1]</text>
<polygon fill="none" stroke="#000000" points="10.5,-543.2 10.5,-565.2 432.5,-565.2 432.5,-543.2 10.5,-543.2"/>
<text text-anchor="start" x="30.5" y="-550.3" font-family="Helvetica,sans-Serif" font-size="11.00" fill="#000000">hojks</text>
<polygon fill="none" stroke="#000000" points="432.5,-543.2 432.5,-565.2 541.5,-565.2 541.5,-543.2 432.5,-543.2"/>
<text text-anchor="start" x="435.5" y="-550.9" font-family="Helvetica,sans-Serif" font-size="11.00" fill="#000000">bool[1]</text>
<polygon fill="none" stroke="#000000" points="10.5,-521.2 10.5,-543.2 432.5,-543.2 432.5,-521.2 10.5,-521.2"/>
<text text-anchor="start" x="30.5" y="-528.3" font-family="Helvetica,sans-Serif" font-size="11.00" fill="#000000">vammainen</text>
<polygon fill="none" stroke="#000000" points="432.5,-521.2 432.5,-543.2 541.5,-543.2 541.5,-521.2 432.5,-521.2"/>
<text text-anchor="start" x="435.5" y="-528.9" font-family="Helvetica,sans-Serif" font-size="11.00" fill="#000000">bool[1]</text>
<polygon fill="none" stroke="#000000" points="10.5,-499.2 10.5,-521.2 432.5,-521.2 432.5,-499.2 10.5,-499.2"/>
<text text-anchor="start" x="30.5" y="-506.3" font-family="Helvetica,sans-Serif" font-size="11.00" fill="#000000">vaikeasti_vammainen</text>
<polygon fill="none" stroke="#000000" points="432.5,-499.2 432.5,-521.2 541.5,-521.2 541.5,-499.2 432.5,-499.2"/>
<text text-anchor="start" x="435.5" y="-506.9" font-family="Helvetica,sans-Serif" font-size="11.00" fill="#000000">bool[1]</text>
<polygon fill="none" stroke="#000000" points="10.5,-477.2 10.5,-499.2 432.5,-499.2 432.5,-477.2 10.5,-477.2"/>
<text text-anchor="start" x="30.5" y="-484.3" font-family="Helvetica,sans-Serif" font-size="11.00" fill="#000000">vammainen_ja_avustaja</text>
<polygon fill="none" stroke="#000000" points="432.5,-477.2 432.5,-499.2 541.5,-499.2 541.5,-477.2 432.5,-477.2"/>
<text text-anchor="start" x="435.5" y="-484.9" font-family="Helvetica,sans-Serif" font-size="11.00" fill="#000000">bool[1]</text>
<polygon fill="none" stroke="#000000" points="10.5,-455.2 10.5,-477.2 432.5,-477.2 432.5,-455.2 10.5,-455.2"/>
<text text-anchor="start" x="30.5" y="-462.3" font-family="Helvetica,sans-Serif" font-size="11.00" fill="#000000">osa_aikaisuus</text>
<polygon fill="none" stroke="#000000" points="432.5,-455.2 432.5,-477.2 541.5,-477.2 541.5,-455.2 432.5,-455.2"/>
<text text-anchor="start" x="435.5" y="-462.9" font-family="Helvetica,sans-Serif" font-size="11.00" fill="#000000">int2[5]</text>
<polygon fill="none" stroke="#000000" points="10.5,-433.2 10.5,-455.2 432.5,-455.2 432.5,-433.2 10.5,-433.2"/>
<text text-anchor="start" x="30.5" y="-440.3" font-family="Helvetica,sans-Serif" font-size="11.00" fill="#000000">opiskeluvalmiuksia_tukevat_opinnot</text>
<polygon fill="none" stroke="#000000" points="432.5,-433.2 432.5,-455.2 541.5,-455.2 541.5,-433.2 432.5,-433.2"/>
<text text-anchor="start" x="435.5" y="-440.9" font-family="Helvetica,sans-Serif" font-size="11.00" fill="#000000">bool[1]</text>
<polygon fill="none" stroke="#000000" points="10.5,-411.2 10.5,-433.2 432.5,-433.2 432.5,-411.2 10.5,-411.2"/>
<text text-anchor="start" x="30.5" y="-418.3" font-family="Helvetica,sans-Serif" font-size="11.00" fill="#000000">vankilaopetuksessa</text>
<polygon fill="none" stroke="#000000" points="432.5,-411.2 432.5,-433.2 541.5,-433.2 541.5,-411.2 432.5,-411.2"/>
<text text-anchor="start" x="435.5" y="-418.9" font-family="Helvetica,sans-Serif" font-size="11.00" fill="#000000">bool[1]</text>
<polygon fill="none" stroke="#000000" points="10.5,-389.2 10.5,-411.2 432.5,-411.2 432.5,-389.2 10.5,-389.2"/>
<text text-anchor="start" x="30.5" y="-396.3" font-family="Helvetica,sans-Serif" font-size="11.00" fill="#000000">oppisopimus_jossain_paatason_suorituksessa</text>
<polygon fill="none" stroke="#000000" points="432.5,-389.2 432.5,-411.2 541.5,-411.2 541.5,-389.2 432.5,-389.2"/>
<text text-anchor="start" x="435.5" y="-396.9" font-family="Helvetica,sans-Serif" font-size="11.00" fill="#000000">bool[1]</text>
<polygon fill="none" stroke="#000000" points="10.5,-367.2 10.5,-389.2 432.5,-389.2 432.5,-367.2 10.5,-367.2"/>
<text text-anchor="start" x="30.5" y="-374.3" font-family="Helvetica,sans-Serif" font-size="11.00" fill="#000000">pidennetty_oppivelvollisuus</text>
<polygon fill="none" stroke="#000000" points="432.5,-367.2 432.5,-389.2 541.5,-389.2 541.5,-367.2 432.5,-367.2"/>
<text text-anchor="start" x="435.5" y="-374.9" font-family="Helvetica,sans-Serif" font-size="11.00" fill="#000000">bool[1]</text>
<polygon fill="none" stroke="#000000" points="10.5,-345.2 10.5,-367.2 432.5,-367.2 432.5,-345.2 10.5,-345.2"/>
<text text-anchor="start" x="30.5" y="-352.3" font-family="Helvetica,sans-Serif" font-size="11.00" fill="#000000">joustava_perusopetus</text>
<polygon fill="none" stroke="#000000" points="432.5,-345.2 432.5,-367.2 541.5,-367.2 541.5,-345.2 432.5,-345.2"/>
<text text-anchor="start" x="435.5" y="-352.9" font-family="Helvetica,sans-Serif" font-size="11.00" fill="#000000">bool[1]</text>
<polygon fill="none" stroke="#000000" points="10.5,-323.2 10.5,-345.2 432.5,-345.2 432.5,-323.2 10.5,-323.2"/>
<text text-anchor="start" x="30.5" y="-330.3" font-family="Helvetica,sans-Serif" font-size="11.00" fill="#000000">koulukoti</text>
<polygon fill="none" stroke="#000000" points="432.5,-323.2 432.5,-345.2 541.5,-345.2 541.5,-323.2 432.5,-323.2"/>
<text text-anchor="start" x="435.5" y="-330.9" font-family="Helvetica,sans-Serif" font-size="11.00" fill="#000000">bool[1]</text>
<polygon fill="none" stroke="#000000" points="10.5,-301.2 10.5,-323.2 432.5,-323.2 432.5,-301.2 10.5,-301.2"/>
<text text-anchor="start" x="30.5" y="-308.3" font-family="Helvetica,sans-Serif" font-size="11.00" fill="#000000">oppimaaran_suorittaja</text>
<polygon fill="none" stroke="#000000" points="432.5,-301.2 432.5,-323.2 541.5,-323.2 541.5,-301.2 432.5,-301.2"/>
<text text-anchor="start" x="435.5" y="-308.9" font-family="Helvetica,sans-Serif" font-size="11.00" fill="#000000">bool[1]</text>
<polygon fill="none" stroke="#000000" points="10.5,-279.2 10.5,-301.2 432.5,-301.2 432.5,-279.2 10.5,-279.2"/>
<text text-anchor="start" x="30.5" y="-286.3" font-family="Helvetica,sans-Serif" font-size="11.00" fill="#000000">maksuton</text>
<polygon fill="none" stroke="#000000" points="432.5,-279.2 432.5,-301.2 541.5,-301.2 541.5,-279.2 432.5,-279.2"/>
<text text-anchor="start" x="435.5" y="-286.9" font-family="Helvetica,sans-Serif" font-size="11.00" fill="#000000">bool[1]</text>
<polygon fill="none" stroke="#000000" points="10.5,-257.2 10.5,-279.2 432.5,-279.2 432.5,-257.2 10.5,-257.2"/>
<text text-anchor="start" x="30.5" y="-264.3" font-family="Helvetica,sans-Serif" font-size="11.00" fill="#000000">maksullinen</text>
<polygon fill="none" stroke="#000000" points="432.5,-257.2 432.5,-279.2 541.5,-279.2 541.5,-257.2 432.5,-257.2"/>
<text text-anchor="start" x="435.5" y="-264.9" font-family="Helvetica,sans-Serif" font-size="11.00" fill="#000000">bool[1]</text>
<polygon fill="#ffffff" stroke="transparent" points="10.5,-235.2 10.5,-257.2 432.5,-257.2 432.5,-235.2 10.5,-235.2"/>
<polygon fill="none" stroke="#000000" points="10.5,-235.2 10.5,-257.2 432.5,-257.2 432.5,-235.2 10.5,-235.2"/>
<text text-anchor="start" x="30.5" y="-242.3" font-family="Helvetica,sans-Serif" font-size="11.00" fill="#000000">oikeutta_maksuttomuuteen_pidennetty</text>
<polygon fill="none" stroke="#000000" points="432.5,-235.2 432.5,-257.2 541.5,-257.2 541.5,-235.2 432.5,-235.2"/>
<text text-anchor="start" x="435.5" y="-242.9" font-family="Helvetica,sans-Serif" font-size="11.00" fill="#000000">bool[1]</text>
<polygon fill="none" stroke="#000000" points="10.5,-213.2 10.5,-235.2 432.5,-235.2 432.5,-213.2 10.5,-213.2"/>
<text text-anchor="start" x="30.5" y="-220.3" font-family="Helvetica,sans-Serif" font-size="11.00" fill="#000000">kotiopetus</text>
<polygon fill="none" stroke="#000000" points="432.5,-213.2 432.5,-235.2 541.5,-235.2 541.5,-213.2 432.5,-213.2"/>
<text text-anchor="start" x="435.5" y="-220.9" font-family="Helvetica,sans-Serif" font-size="11.00" fill="#000000">bool[1]</text>
<polygon fill="none" stroke="#000000" points="10.5,-191.2 10.5,-213.2 432.5,-213.2 432.5,-191.2 10.5,-191.2"/>
<text text-anchor="start" x="30.5" y="-198.3" font-family="Helvetica,sans-Serif" font-size="11.00" fill="#000000">ulkomaanjakso</text>
<polygon fill="none" stroke="#000000" points="432.5,-191.2 432.5,-213.2 541.5,-213.2 541.5,-191.2 432.5,-191.2"/>
<text text-anchor="start" x="435.5" y="-198.9" font-family="Helvetica,sans-Serif" font-size="11.00" fill="#000000">bool[1]</text>
<polygon fill="none" stroke="#000000" points="10.5,-169.2 10.5,-191.2 432.5,-191.2 432.5,-169.2 10.5,-169.2"/>
<text text-anchor="start" x="30.5" y="-176.3" font-family="Helvetica,sans-Serif" font-size="11.00" fill="#000000">tuen_paatoksen_jakso</text>
<polygon fill="none" stroke="#000000" points="432.5,-169.2 432.5,-191.2 541.5,-191.2 541.5,-169.2 432.5,-169.2"/>
<text text-anchor="start" x="435.5" y="-176.9" font-family="Helvetica,sans-Serif" font-size="11.00" fill="#000000">bool[1]</text>
<polygon fill="none" stroke="#000000" points="10.5,-147.2 10.5,-169.2 432.5,-169.2 432.5,-147.2 10.5,-147.2"/>
<text text-anchor="start" x="30.5" y="-154.3" font-family="Helvetica,sans-Serif" font-size="11.00" fill="#000000">opetus_vamman_sairauden_tai_rajoitteen_perusteella</text>
<polygon fill="none" stroke="#000000" points="432.5,-147.2 432.5,-169.2 541.5,-169.2 541.5,-147.2 432.5,-147.2"/>
<text text-anchor="start" x="435.5" y="-154.9" font-family="Helvetica,sans-Serif" font-size="11.00" fill="#000000">bool[1]</text>
<polygon fill="none" stroke="#000000" points="10.5,-125.2 10.5,-147.2 432.5,-147.2 432.5,-125.2 10.5,-125.2"/>
<text text-anchor="start" x="30.5" y="-132.3" font-family="Helvetica,sans-Serif" font-size="11.00" fill="#000000">toiminta_alueittain_opiskelu</text>
<polygon fill="none" stroke="#000000" points="432.5,-125.2 432.5,-147.2 541.5,-147.2 541.5,-125.2 432.5,-125.2"/>
<text text-anchor="start" x="435.5" y="-132.9" font-family="Helvetica,sans-Serif" font-size="11.00" fill="#000000">bool[1]</text>
<polygon fill="none" stroke="#000000" points="10.5,-103.2 10.5,-125.2 432.5,-125.2 432.5,-103.2 10.5,-103.2"/>
<text text-anchor="start" x="30.5" y="-110.3" font-family="Helvetica,sans-Serif" font-size="11.00" fill="#000000">tavoitekokonaisuuksittain_opiskelu</text>
<polygon fill="none" stroke="#000000" points="432.5,-103.2 432.5,-125.2 541.5,-125.2 541.5,-103.2 432.5,-103.2"/>
<text text-anchor="start" x="435.5" y="-110.9" font-family="Helvetica,sans-Serif" font-size="11.00" fill="#000000">bool[1]</text>
<polygon fill="none" stroke="#000000" points="10.5,-81.2 10.5,-103.2 432.5,-103.2 432.5,-81.2 10.5,-81.2"/>
<text text-anchor="start" x="30.5" y="-88.3" font-family="Helvetica,sans-Serif" font-size="11.00" fill="#000000">valmistavan_lisaopetus</text>
<polygon fill="none" stroke="#000000" points="432.5,-81.2 432.5,-103.2 541.5,-103.2 541.5,-81.2 432.5,-81.2"/>
<text text-anchor="start" x="435.5" y="-88.9" font-family="Helvetica,sans-Serif" font-size="11.00" fill="#000000">bool[1]</text>
<polygon fill="none" stroke="#000000" points="10.5,-59.2 10.5,-81.2 432.5,-81.2 432.5,-59.2 10.5,-59.2"/>
<image xlink:href="../../images/primaryKeys.png" width="11px" height="12px" preserveAspectRatio="xMinYMin meet" x="15.5" y="-76.2"/>
<text text-anchor="start" x="30.5" y="-66.3" font-family="Helvetica,sans-Serif" font-size="11.00" fill="#000000">id</text>
<polygon fill="none" stroke="#000000" points="432.5,-59.2 432.5,-81.2 541.5,-81.2 541.5,-59.2 432.5,-59.2"/>
<text text-anchor="start" x="435.5" y="-66.9" font-family="Helvetica,sans-Serif" font-size="11.00" fill="#000000">bigserial[19]</text>
<polygon fill="#ffffff" stroke="transparent" points="10.5,-40.2 10.5,-59.2 206.5,-59.2 206.5,-40.2 10.5,-40.2"/>
<polygon fill="none" stroke="#000000" points="10.5,-40.2 10.5,-59.2 206.5,-59.2 206.5,-40.2 10.5,-40.2"/>
<text text-anchor="start" x="13.5" y="-46.3" font-family="Helvetica,sans-Serif" font-size="11.00" fill="#000000">&lt; 0</text>
<polygon fill="#ffffff" stroke="transparent" points="206.5,-40.2 206.5,-59.2 432.5,-59.2 432.5,-40.2 206.5,-40.2"/>
<polygon fill="none" stroke="#000000" points="206.5,-40.2 206.5,-59.2 432.5,-59.2 432.5,-40.2 206.5,-40.2"/>
<text text-anchor="start" x="384.8807" y="-46.3" font-family="Helvetica,sans-Serif" font-size="11.00" fill="#000000">357 rows</text>
<polygon fill="#ffffff" stroke="transparent" points="432.5,-40.2 432.5,-59.2 541.5,-59.2 541.5,-40.2 432.5,-40.2"/>
<polygon fill="none" stroke="#000000" points="432.5,-40.2 432.5,-59.2 541.5,-59.2 541.5,-40.2 432.5,-40.2"/>
<text text-anchor="start" x="522.9053" y="-46.3" font-family="Helvetica,sans-Serif" font-size="11.00" fill="#000000">0 &gt;</text>
<polygon fill="none" stroke="#000000" stroke-width="2" points="9,-39.2 9,-941.2 542,-941.2 542,-39.2 9,-39.2"/>
</a>
</g>
</g>
</g>
</svg>
