<?xml version="1.0" encoding="UTF-8" standalone="no"?>
<!DOCTYPE svg PUBLIC "-//W3C//DTD SVG 1.1//EN"
 "http://www.w3.org/Graphics/SVG/1.1/DTD/svg11.dtd">
<!-- Generated by graphviz version 2.40.1 (20161225.0304)
 -->
<!-- Title: oneDegreeRelationshipsDiagram Pages: 1 -->
<svg width="512pt" height="844pt"
 viewBox="0.00 0.00 512.00 844.20" xmlns="http://www.w3.org/2000/svg" xmlns:xlink="http://www.w3.org/1999/xlink">
<g id="graph0" class="graph" transform="scale(1 1) rotate(0) translate(4 840.2)">
<title>oneDegreeRelationshipsDiagram</title>
<polygon fill="#ffffff" stroke="transparent" points="-4,4 -4,-840.2 508,-840.2 508,4 -4,4"/>
<text text-anchor="middle" x="72.4936" y="-7.3" font-family="Helvetica,sans-Serif" font-size="11.00" fill="#000000">Generated by SchemaSpy</text>
<!-- r_opiskeluoikeus_aikajakso -->
<g id="node1" class="node">
<title>r_opiskeluoikeus_aikajakso</title>
<g id="a_node1"><a xlink:href="../../tables/r_opiskeluoikeus_aikajakso.html" xlink:title="r_opiskeluoikeus_aikajakso" target="_top">
<polygon fill="#ffffff" stroke="transparent" points="8,-38.2 8,-832.2 496,-832.2 496,-38.2 8,-38.2"/>
<polygon fill="#f5f5f5" stroke="transparent" points="10,-807.2 10,-830.2 494,-830.2 494,-807.2 10,-807.2"/>
<polygon fill="none" stroke="#000000" points="10,-807.2 10,-830.2 494,-830.2 494,-807.2 10,-807.2"/>
<text text-anchor="start" x="15" y="-815.8" font-family="Helvetica,sans-Serif" font-weight="bold" font-size="11.00" fill="#000000">r_opiskeluoikeus_aikajakso</text>
<text text-anchor="start" x="459.0437" y="-815.3" font-family="Helvetica,sans-Serif" font-size="11.00" fill="#000000">[table]</text>
<polygon fill="#ffffff" stroke="transparent" points="10,-785.2 10,-807.2 385,-807.2 385,-785.2 10,-785.2"/>
<polygon fill="none" stroke="#000000" points="10,-785.2 10,-807.2 385,-807.2 385,-785.2 10,-785.2"/>
<text text-anchor="start" x="30" y="-792.3" font-family="Helvetica,sans-Serif" font-size="11.00" fill="#000000">opiskeluoikeus_oid</text>
<polygon fill="none" stroke="#000000" points="385,-785.2 385,-807.2 494,-807.2 494,-785.2 385,-785.2"/>
<text text-anchor="start" x="387.5344" y="-792.9" font-family="Helvetica,sans-Serif" font-size="11.00" fill="#000000">varchar[2147483647]</text>
<polygon fill="#ffffff" stroke="transparent" points="10,-763.2 10,-785.2 385,-785.2 385,-763.2 10,-763.2"/>
<polygon fill="none" stroke="#000000" points="10,-763.2 10,-785.2 385,-785.2 385,-763.2 10,-763.2"/>
<text text-anchor="start" x="30" y="-770.3" font-family="Helvetica,sans-Serif" font-size="11.00" fill="#000000">alku</text>
<polygon fill="none" stroke="#000000" points="385,-763.2 385,-785.2 494,-785.2 494,-763.2 385,-763.2"/>
<text text-anchor="start" x="388" y="-770.9" font-family="Helvetica,sans-Serif" font-size="11.00" fill="#000000">date[13]</text>
<polygon fill="#ffffff" stroke="transparent" points="10,-741.2 10,-763.2 385,-763.2 385,-741.2 10,-741.2"/>
<polygon fill="none" stroke="#000000" points="10,-741.2 10,-763.2 385,-763.2 385,-741.2 10,-741.2"/>
<text text-anchor="start" x="30" y="-748.3" font-family="Helvetica,sans-Serif" font-size="11.00" fill="#000000">loppu</text>
<polygon fill="none" stroke="#000000" points="385,-741.2 385,-763.2 494,-763.2 494,-741.2 385,-741.2"/>
<text text-anchor="start" x="388" y="-748.9" font-family="Helvetica,sans-Serif" font-size="11.00" fill="#000000">date[13]</text>
<polygon fill="#ffffff" stroke="transparent" points="10,-719.2 10,-741.2 385,-741.2 385,-719.2 10,-719.2"/>
<polygon fill="none" stroke="#000000" points="10,-719.2 10,-741.2 385,-741.2 385,-719.2 10,-719.2"/>
<text text-anchor="start" x="30" y="-726.3" font-family="Helvetica,sans-Serif" font-size="11.00" fill="#000000">tila</text>
<polygon fill="none" stroke="#000000" points="385,-719.2 385,-741.2 494,-741.2 494,-719.2 385,-719.2"/>
<text text-anchor="start" x="387.5344" y="-726.9" font-family="Helvetica,sans-Serif" font-size="11.00" fill="#000000">varchar[2147483647]</text>
<polygon fill="none" stroke="#000000" points="10,-697.2 10,-719.2 385,-719.2 385,-697.2 10,-697.2"/>
<text text-anchor="start" x="30" y="-704.3" font-family="Helvetica,sans-Serif" font-size="11.00" fill="#000000">tila_alkanut</text>
<polygon fill="none" stroke="#000000" points="385,-697.2 385,-719.2 494,-719.2 494,-697.2 385,-697.2"/>
<text text-anchor="start" x="388" y="-704.9" font-family="Helvetica,sans-Serif" font-size="11.00" fill="#000000">date[13]</text>
<polygon fill="none" stroke="#000000" points="10,-675.2 10,-697.2 385,-697.2 385,-675.2 10,-675.2"/>
<text text-anchor="start" x="30" y="-682.3" font-family="Helvetica,sans-Serif" font-size="11.00" fill="#000000">opiskeluoikeus_paattynyt</text>
<polygon fill="none" stroke="#000000" points="385,-675.2 385,-697.2 494,-697.2 494,-675.2 385,-675.2"/>
<text text-anchor="start" x="388" y="-682.9" font-family="Helvetica,sans-Serif" font-size="11.00" fill="#000000">bool[1]</text>
<polygon fill="none" stroke="#000000" points="10,-653.2 10,-675.2 385,-675.2 385,-653.2 10,-653.2"/>
<text text-anchor="start" x="30" y="-660.3" font-family="Helvetica,sans-Serif" font-size="11.00" fill="#000000">opintojen_rahoitus</text>
<polygon fill="none" stroke="#000000" points="385,-653.2 385,-675.2 494,-675.2 494,-653.2 385,-653.2"/>
<text text-anchor="start" x="387.5344" y="-660.9" font-family="Helvetica,sans-Serif" font-size="11.00" fill="#000000">varchar[2147483647]</text>
<polygon fill="none" stroke="#000000" points="10,-631.2 10,-653.2 385,-653.2 385,-631.2 10,-631.2"/>
<text text-anchor="start" x="30" y="-638.3" font-family="Helvetica,sans-Serif" font-size="11.00" fill="#000000">erityisen_koulutus_tehtävän_jakso_tehtävä_koodiarvo</text>
<polygon fill="none" stroke="#000000" points="385,-631.2 385,-653.2 494,-653.2 494,-631.2 385,-631.2"/>
<text text-anchor="start" x="387.5344" y="-638.9" font-family="Helvetica,sans-Serif" font-size="11.00" fill="#000000">varchar[2147483647]</text>
<polygon fill="none" stroke="#000000" points="10,-609.2 10,-631.2 385,-631.2 385,-609.2 10,-609.2"/>
<text text-anchor="start" x="30" y="-616.3" font-family="Helvetica,sans-Serif" font-size="11.00" fill="#000000">ulkomainen_vaihto_opiskelija</text>
<polygon fill="none" stroke="#000000" points="385,-609.2 385,-631.2 494,-631.2 494,-609.2 385,-609.2"/>
<text text-anchor="start" x="388" y="-616.9" font-family="Helvetica,sans-Serif" font-size="11.00" fill="#000000">bool[1]</text>
<polygon fill="none" stroke="#000000" points="10,-587.2 10,-609.2 385,-609.2 385,-587.2 10,-587.2"/>
<text text-anchor="start" x="30" y="-594.3" font-family="Helvetica,sans-Serif" font-size="11.00" fill="#000000">majoitus</text>
<polygon fill="none" stroke="#000000" points="385,-587.2 385,-609.2 494,-609.2 494,-587.2 385,-587.2"/>
<text text-anchor="start" x="388" y="-594.9" font-family="Helvetica,sans-Serif" font-size="11.00" fill="#000000">bool[1]</text>
<polygon fill="none" stroke="#000000" points="10,-565.2 10,-587.2 385,-587.2 385,-565.2 10,-565.2"/>
<text text-anchor="start" x="30" y="-572.3" font-family="Helvetica,sans-Serif" font-size="11.00" fill="#000000">majoitusetu</text>
<polygon fill="none" stroke="#000000" points="385,-565.2 385,-587.2 494,-587.2 494,-565.2 385,-565.2"/>
<text text-anchor="start" x="388" y="-572.9" font-family="Helvetica,sans-Serif" font-size="11.00" fill="#000000">bool[1]</text>
<polygon fill="none" stroke="#000000" points="10,-543.2 10,-565.2 385,-565.2 385,-543.2 10,-543.2"/>
<text text-anchor="start" x="30" y="-550.3" font-family="Helvetica,sans-Serif" font-size="11.00" fill="#000000">kuljetusetu</text>
<polygon fill="none" stroke="#000000" points="385,-543.2 385,-565.2 494,-565.2 494,-543.2 385,-543.2"/>
<text text-anchor="start" x="388" y="-550.9" font-family="Helvetica,sans-Serif" font-size="11.00" fill="#000000">bool[1]</text>
<polygon fill="none" stroke="#000000" points="10,-521.2 10,-543.2 385,-543.2 385,-521.2 10,-521.2"/>
<text text-anchor="start" x="30" y="-528.3" font-family="Helvetica,sans-Serif" font-size="11.00" fill="#000000">sisaoppilaitosmainen_majoitus</text>
<polygon fill="none" stroke="#000000" points="385,-521.2 385,-543.2 494,-543.2 494,-521.2 385,-521.2"/>
<text text-anchor="start" x="388" y="-528.9" font-family="Helvetica,sans-Serif" font-size="11.00" fill="#000000">bool[1]</text>
<polygon fill="none" stroke="#000000" points="10,-499.2 10,-521.2 385,-521.2 385,-499.2 10,-499.2"/>
<text text-anchor="start" x="30" y="-506.3" font-family="Helvetica,sans-Serif" font-size="11.00" fill="#000000">vaativan_erityisen_tuen_yhteydessa_jarjestettäva_majoitus</text>
<polygon fill="none" stroke="#000000" points="385,-499.2 385,-521.2 494,-521.2 494,-499.2 385,-499.2"/>
<text text-anchor="start" x="388" y="-506.9" font-family="Helvetica,sans-Serif" font-size="11.00" fill="#000000">bool[1]</text>
<polygon fill="none" stroke="#000000" points="10,-477.2 10,-499.2 385,-499.2 385,-477.2 10,-477.2"/>
<text text-anchor="start" x="30" y="-484.3" font-family="Helvetica,sans-Serif" font-size="11.00" fill="#000000">erityinen_tuki</text>
<polygon fill="none" stroke="#000000" points="385,-477.2 385,-499.2 494,-499.2 494,-477.2 385,-477.2"/>
<text text-anchor="start" x="388" y="-484.9" font-family="Helvetica,sans-Serif" font-size="11.00" fill="#000000">bool[1]</text>
<polygon fill="none" stroke="#000000" points="10,-455.2 10,-477.2 385,-477.2 385,-455.2 10,-455.2"/>
<text text-anchor="start" x="30" y="-462.3" font-family="Helvetica,sans-Serif" font-size="11.00" fill="#000000">vaativan_erityisen_tuen_erityinen_tehtava</text>
<polygon fill="none" stroke="#000000" points="385,-455.2 385,-477.2 494,-477.2 494,-455.2 385,-455.2"/>
<text text-anchor="start" x="388" y="-462.9" font-family="Helvetica,sans-Serif" font-size="11.00" fill="#000000">bool[1]</text>
<polygon fill="none" stroke="#000000" points="10,-433.2 10,-455.2 385,-455.2 385,-433.2 10,-433.2"/>
<text text-anchor="start" x="30" y="-440.3" font-family="Helvetica,sans-Serif" font-size="11.00" fill="#000000">hojks</text>
<polygon fill="none" stroke="#000000" points="385,-433.2 385,-455.2 494,-455.2 494,-433.2 385,-433.2"/>
<text text-anchor="start" x="388" y="-440.9" font-family="Helvetica,sans-Serif" font-size="11.00" fill="#000000">bool[1]</text>
<polygon fill="none" stroke="#000000" points="10,-411.2 10,-433.2 385,-433.2 385,-411.2 10,-411.2"/>
<text text-anchor="start" x="30" y="-418.3" font-family="Helvetica,sans-Serif" font-size="11.00" fill="#000000">vammainen</text>
<polygon fill="none" stroke="#000000" points="385,-411.2 385,-433.2 494,-433.2 494,-411.2 385,-411.2"/>
<text text-anchor="start" x="388" y="-418.9" font-family="Helvetica,sans-Serif" font-size="11.00" fill="#000000">bool[1]</text>
<polygon fill="none" stroke="#000000" points="10,-389.2 10,-411.2 385,-411.2 385,-389.2 10,-389.2"/>
<text text-anchor="start" x="30" y="-396.3" font-family="Helvetica,sans-Serif" font-size="11.00" fill="#000000">vaikeasti_vammainen</text>
<polygon fill="none" stroke="#000000" points="385,-389.2 385,-411.2 494,-411.2 494,-389.2 385,-389.2"/>
<text text-anchor="start" x="388" y="-396.9" font-family="Helvetica,sans-Serif" font-size="11.00" fill="#000000">bool[1]</text>
<polygon fill="none" stroke="#000000" points="10,-367.2 10,-389.2 385,-389.2 385,-367.2 10,-367.2"/>
<text text-anchor="start" x="30" y="-374.3" font-family="Helvetica,sans-Serif" font-size="11.00" fill="#000000">vammainen_ja_avustaja</text>
<polygon fill="none" stroke="#000000" points="385,-367.2 385,-389.2 494,-389.2 494,-367.2 385,-367.2"/>
<text text-anchor="start" x="388" y="-374.9" font-family="Helvetica,sans-Serif" font-size="11.00" fill="#000000">bool[1]</text>
<polygon fill="none" stroke="#000000" points="10,-345.2 10,-367.2 385,-367.2 385,-345.2 10,-345.2"/>
<text text-anchor="start" x="30" y="-352.3" font-family="Helvetica,sans-Serif" font-size="11.00" fill="#000000">osa_aikaisuus</text>
<polygon fill="none" stroke="#000000" points="385,-345.2 385,-367.2 494,-367.2 494,-345.2 385,-345.2"/>
<text text-anchor="start" x="388" y="-352.9" font-family="Helvetica,sans-Serif" font-size="11.00" fill="#000000">int2[5]</text>
<polygon fill="none" stroke="#000000" points="10,-323.2 10,-345.2 385,-345.2 385,-323.2 10,-323.2"/>
<text text-anchor="start" x="30" y="-330.3" font-family="Helvetica,sans-Serif" font-size="11.00" fill="#000000">opiskeluvalmiuksia_tukevat_opinnot</text>
<polygon fill="none" stroke="#000000" points="385,-323.2 385,-345.2 494,-345.2 494,-323.2 385,-323.2"/>
<text text-anchor="start" x="388" y="-330.9" font-family="Helvetica,sans-Serif" font-size="11.00" fill="#000000">bool[1]</text>
<polygon fill="none" stroke="#000000" points="10,-301.2 10,-323.2 385,-323.2 385,-301.2 10,-301.2"/>
<text text-anchor="start" x="30" y="-308.3" font-family="Helvetica,sans-Serif" font-size="11.00" fill="#000000">vankilaopetuksessa</text>
<polygon fill="none" stroke="#000000" points="385,-301.2 385,-323.2 494,-323.2 494,-301.2 385,-301.2"/>
<text text-anchor="start" x="388" y="-308.9" font-family="Helvetica,sans-Serif" font-size="11.00" fill="#000000">bool[1]</text>
<polygon fill="none" stroke="#000000" points="10,-279.2 10,-301.2 385,-301.2 385,-279.2 10,-279.2"/>
<text text-anchor="start" x="30" y="-286.3" font-family="Helvetica,sans-Serif" font-size="11.00" fill="#000000">oppisopimus_jossain_paatason_suorituksessa</text>
<polygon fill="none" stroke="#000000" points="385,-279.2 385,-301.2 494,-301.2 494,-279.2 385,-279.2"/>
<text text-anchor="start" x="388" y="-286.9" font-family="Helvetica,sans-Serif" font-size="11.00" fill="#000000">bool[1]</text>
<polygon fill="none" stroke="#000000" points="10,-257.2 10,-279.2 385,-279.2 385,-257.2 10,-257.2"/>
<text text-anchor="start" x="30" y="-264.3" font-family="Helvetica,sans-Serif" font-size="11.00" fill="#000000">pidennetty_oppivelvollisuus</text>
<polygon fill="none" stroke="#000000" points="385,-257.2 385,-279.2 494,-279.2 494,-257.2 385,-257.2"/>
<text text-anchor="start" x="388" y="-264.9" font-family="Helvetica,sans-Serif" font-size="11.00" fill="#000000">bool[1]</text>
<polygon fill="none" stroke="#000000" points="10,-235.2 10,-257.2 385,-257.2 385,-235.2 10,-235.2"/>
<text text-anchor="start" x="30" y="-242.3" font-family="Helvetica,sans-Serif" font-size="11.00" fill="#000000">joustava_perusopetus</text>
<polygon fill="none" stroke="#000000" points="385,-235.2 385,-257.2 494,-257.2 494,-235.2 385,-235.2"/>
<text text-anchor="start" x="388" y="-242.9" font-family="Helvetica,sans-Serif" font-size="11.00" fill="#000000">bool[1]</text>
<polygon fill="none" stroke="#000000" points="10,-213.2 10,-235.2 385,-235.2 385,-213.2 10,-213.2"/>
<text text-anchor="start" x="30" y="-220.3" font-family="Helvetica,sans-Serif" font-size="11.00" fill="#000000">koulukoti</text>
<polygon fill="none" stroke="#000000" points="385,-213.2 385,-235.2 494,-235.2 494,-213.2 385,-213.2"/>
<text text-anchor="start" x="388" y="-220.9" font-family="Helvetica,sans-Serif" font-size="11.00" fill="#000000">bool[1]</text>
<polygon fill="none" stroke="#000000" points="10,-191.2 10,-213.2 385,-213.2 385,-191.2 10,-191.2"/>
<text text-anchor="start" x="30" y="-198.3" font-family="Helvetica,sans-Serif" font-size="11.00" fill="#000000">oppimaaran_suorittaja</text>
<polygon fill="none" stroke="#000000" points="385,-191.2 385,-213.2 494,-213.2 494,-191.2 385,-191.2"/>
<text text-anchor="start" x="388" y="-198.9" font-family="Helvetica,sans-Serif" font-size="11.00" fill="#000000">bool[1]</text>
<polygon fill="none" stroke="#000000" points="10,-169.2 10,-191.2 385,-191.2 385,-169.2 10,-169.2"/>
<text text-anchor="start" x="30" y="-176.3" font-family="Helvetica,sans-Serif" font-size="11.00" fill="#000000">maksuton</text>
<polygon fill="none" stroke="#000000" points="385,-169.2 385,-191.2 494,-191.2 494,-169.2 385,-169.2"/>
<text text-anchor="start" x="388" y="-176.9" font-family="Helvetica,sans-Serif" font-size="11.00" fill="#000000">bool[1]</text>
<polygon fill="none" stroke="#000000" points="10,-147.2 10,-169.2 385,-169.2 385,-147.2 10,-147.2"/>
<text text-anchor="start" x="30" y="-154.3" font-family="Helvetica,sans-Serif" font-size="11.00" fill="#000000">maksullinen</text>
<polygon fill="none" stroke="#000000" points="385,-147.2 385,-169.2 494,-169.2 494,-147.2 385,-147.2"/>
<text text-anchor="start" x="388" y="-154.9" font-family="Helvetica,sans-Serif" font-size="11.00" fill="#000000">bool[1]</text>
<polygon fill="#ffffff" stroke="transparent" points="10,-125.2 10,-147.2 385,-147.2 385,-125.2 10,-125.2"/>
<polygon fill="none" stroke="#000000" points="10,-125.2 10,-147.2 385,-147.2 385,-125.2 10,-125.2"/>
<text text-anchor="start" x="30" y="-132.3" font-family="Helvetica,sans-Serif" font-size="11.00" fill="#000000">oikeutta_maksuttomuuteen_pidennetty</text>
<polygon fill="none" stroke="#000000" points="385,-125.2 385,-147.2 494,-147.2 494,-125.2 385,-125.2"/>
<text text-anchor="start" x="388" y="-132.9" font-family="Helvetica,sans-Serif" font-size="11.00" fill="#000000">bool[1]</text>
<polygon fill="none" stroke="#000000" points="10,-103.2 10,-125.2 385,-125.2 385,-103.2 10,-103.2"/>
<text text-anchor="start" x="30" y="-110.3" font-family="Helvetica,sans-Serif" font-size="11.00" fill="#000000">kotiopetus</text>
<polygon fill="none" stroke="#000000" points="385,-103.2 385,-125.2 494,-125.2 494,-103.2 385,-103.2"/>
<text text-anchor="start" x="388" y="-110.9" font-family="Helvetica,sans-Serif" font-size="11.00" fill="#000000">bool[1]</text>
<polygon fill="none" stroke="#000000" points="10,-81.2 10,-103.2 385,-103.2 385,-81.2 10,-81.2"/>
<text text-anchor="start" x="30" y="-88.3" font-family="Helvetica,sans-Serif" font-size="11.00" fill="#000000">ulkomaanjakso</text>
<polygon fill="none" stroke="#000000" points="385,-81.2 385,-103.2 494,-103.2 494,-81.2 385,-81.2"/>
<text text-anchor="start" x="388" y="-88.9" font-family="Helvetica,sans-Serif" font-size="11.00" fill="#000000">bool[1]</text>
<polygon fill="none" stroke="#000000" points="10,-59.2 10,-81.2 385,-81.2 385,-59.2 10,-59.2"/>
<image xlink:href="../../images/primaryKeys.png" width="11px" height="12px" preserveAspectRatio="xMinYMin meet" x="15" y="-76.2"/>
<text text-anchor="start" x="30" y="-66.3" font-family="Helvetica,sans-Serif" font-size="11.00" fill="#000000">id</text>
<polygon fill="none" stroke="#000000" points="385,-59.2 385,-81.2 494,-81.2 494,-59.2 385,-59.2"/>
<text text-anchor="start" x="388" y="-66.9" font-family="Helvetica,sans-Serif" font-size="11.00" fill="#000000">bigserial[19]</text>
<polygon fill="#ffffff" stroke="transparent" points="10,-40.2 10,-59.2 183,-59.2 183,-40.2 10,-40.2"/>
<polygon fill="none" stroke="#000000" points="10,-40.2 10,-59.2 183,-59.2 183,-40.2 10,-40.2"/>
<text text-anchor="start" x="13" y="-46.3" font-family="Helvetica,sans-Serif" font-size="11.00" fill="#000000">&lt; 0</text>
<polygon fill="#ffffff" stroke="transparent" points="183,-40.2 183,-59.2 385,-59.2 385,-40.2 183,-40.2"/>
<polygon fill="none" stroke="#000000" points="183,-40.2 183,-59.2 385,-59.2 385,-40.2 183,-40.2"/>
<text text-anchor="start" x="337.3807" y="-46.3" font-family="Helvetica,sans-Serif" font-size="11.00" fill="#000000">331 rows</text>
<polygon fill="#ffffff" stroke="transparent" points="385,-40.2 385,-59.2 494,-59.2 494,-40.2 385,-40.2"/>
<polygon fill="none" stroke="#000000" points="385,-40.2 385,-59.2 494,-59.2 494,-40.2 385,-40.2"/>
<text text-anchor="start" x="475.4053" y="-46.3" font-family="Helvetica,sans-Serif" font-size="11.00" fill="#000000">0 &gt;</text>
<polygon fill="none" stroke="#000000" stroke-width="2" points="9,-39.2 9,-831.2 495,-831.2 495,-39.2 9,-39.2"/>
</a>
</g>
</g>
</g>
</svg>
