<?xml version="1.0" encoding="UTF-8" standalone="no"?>
<!DOCTYPE svg PUBLIC "-//W3C//DTD SVG 1.1//EN"
 "http://www.w3.org/Graphics/SVG/1.1/DTD/svg11.dtd">
<!-- Generated by graphviz version 2.40.1 (20161225.0304)
 -->
<!-- Title: oneDegreeRelationshipsDiagram Pages: 1 -->
<svg width="513pt" height="844pt"
 viewBox="0.00 0.00 513.00 844.20" xmlns="http://www.w3.org/2000/svg" xmlns:xlink="http://www.w3.org/1999/xlink">
<g id="graph0" class="graph" transform="scale(1 1) rotate(0) translate(4 840.2)">
<title>oneDegreeRelationshipsDiagram</title>
<polygon fill="#ffffff" stroke="transparent" points="-4,4 -4,-840.2 509,-840.2 509,4 -4,4"/>
<text text-anchor="middle" x="72.4936" y="-7.3" font-family="Helvetica,sans-Serif" font-size="11.00" fill="#000000">Generated by SchemaSpy</text>
<!-- r_opiskeluoikeus_aikajakso -->
<g id="node1" class="node">
<title>r_opiskeluoikeus_aikajakso</title>
<g id="a_node1"><a xlink:href="../../tables/r_opiskeluoikeus_aikajakso.html" xlink:title="r_opiskeluoikeus_aikajakso" target="_top">
<polygon fill="#ffffff" stroke="transparent" points="8,-38.2 8,-832.2 497,-832.2 497,-38.2 8,-38.2"/>
<polygon fill="#f5f5f5" stroke="transparent" points="10.5,-807.2 10.5,-830.2 495.5,-830.2 495.5,-807.2 10.5,-807.2"/>
<polygon fill="none" stroke="#000000" points="10.5,-807.2 10.5,-830.2 495.5,-830.2 495.5,-807.2 10.5,-807.2"/>
<text text-anchor="start" x="15.5" y="-815.8" font-family="Helvetica,sans-Serif" font-weight="bold" font-size="11.00" fill="#000000">r_opiskeluoikeus_aikajakso</text>
<text text-anchor="start" x="460.5437" y="-815.3" font-family="Helvetica,sans-Serif" font-size="11.00" fill="#000000">[table]</text>
<polygon fill="#ffffff" stroke="transparent" points="10.5,-785.2 10.5,-807.2 386.5,-807.2 386.5,-785.2 10.5,-785.2"/>
<polygon fill="none" stroke="#000000" points="10.5,-785.2 10.5,-807.2 386.5,-807.2 386.5,-785.2 10.5,-785.2"/>
<text text-anchor="start" x="30.5" y="-792.3" font-family="Helvetica,sans-Serif" font-size="11.00" fill="#000000">opiskeluoikeus_oid</text>
<polygon fill="none" stroke="#000000" points="386.5,-785.2 386.5,-807.2 495.5,-807.2 495.5,-785.2 386.5,-785.2"/>
<text text-anchor="start" x="389.0344" y="-792.9" font-family="Helvetica,sans-Serif" font-size="11.00" fill="#000000">varchar[2147483647]</text>
<polygon fill="#ffffff" stroke="transparent" points="10.5,-763.2 10.5,-785.2 386.5,-785.2 386.5,-763.2 10.5,-763.2"/>
<polygon fill="none" stroke="#000000" points="10.5,-763.2 10.5,-785.2 386.5,-785.2 386.5,-763.2 10.5,-763.2"/>
<text text-anchor="start" x="30.5" y="-770.3" font-family="Helvetica,sans-Serif" font-size="11.00" fill="#000000">alku</text>
<polygon fill="none" stroke="#000000" points="386.5,-763.2 386.5,-785.2 495.5,-785.2 495.5,-763.2 386.5,-763.2"/>
<text text-anchor="start" x="389.5" y="-770.9" font-family="Helvetica,sans-Serif" font-size="11.00" fill="#000000">date[13]</text>
<polygon fill="#ffffff" stroke="transparent" points="10.5,-741.2 10.5,-763.2 386.5,-763.2 386.5,-741.2 10.5,-741.2"/>
<polygon fill="none" stroke="#000000" points="10.5,-741.2 10.5,-763.2 386.5,-763.2 386.5,-741.2 10.5,-741.2"/>
<text text-anchor="start" x="30.5" y="-748.3" font-family="Helvetica,sans-Serif" font-size="11.00" fill="#000000">loppu</text>
<polygon fill="none" stroke="#000000" points="386.5,-741.2 386.5,-763.2 495.5,-763.2 495.5,-741.2 386.5,-741.2"/>
<text text-anchor="start" x="389.5" y="-748.9" font-family="Helvetica,sans-Serif" font-size="11.00" fill="#000000">date[13]</text>
<polygon fill="#ffffff" stroke="transparent" points="10.5,-719.2 10.5,-741.2 386.5,-741.2 386.5,-719.2 10.5,-719.2"/>
<polygon fill="none" stroke="#000000" points="10.5,-719.2 10.5,-741.2 386.5,-741.2 386.5,-719.2 10.5,-719.2"/>
<text text-anchor="start" x="30.5" y="-726.3" font-family="Helvetica,sans-Serif" font-size="11.00" fill="#000000">tila</text>
<polygon fill="none" stroke="#000000" points="386.5,-719.2 386.5,-741.2 495.5,-741.2 495.5,-719.2 386.5,-719.2"/>
<text text-anchor="start" x="389.0344" y="-726.9" font-family="Helvetica,sans-Serif" font-size="11.00" fill="#000000">varchar[2147483647]</text>
<polygon fill="none" stroke="#000000" points="10.5,-697.2 10.5,-719.2 386.5,-719.2 386.5,-697.2 10.5,-697.2"/>
<text text-anchor="start" x="30.5" y="-704.3" font-family="Helvetica,sans-Serif" font-size="11.00" fill="#000000">tila_alkanut</text>
<polygon fill="none" stroke="#000000" points="386.5,-697.2 386.5,-719.2 495.5,-719.2 495.5,-697.2 386.5,-697.2"/>
<text text-anchor="start" x="389.5" y="-704.9" font-family="Helvetica,sans-Serif" font-size="11.00" fill="#000000">date[13]</text>
<polygon fill="none" stroke="#000000" points="10.5,-675.2 10.5,-697.2 386.5,-697.2 386.5,-675.2 10.5,-675.2"/>
<text text-anchor="start" x="30.5" y="-682.3" font-family="Helvetica,sans-Serif" font-size="11.00" fill="#000000">opiskeluoikeus_paattynyt</text>
<polygon fill="none" stroke="#000000" points="386.5,-675.2 386.5,-697.2 495.5,-697.2 495.5,-675.2 386.5,-675.2"/>
<text text-anchor="start" x="389.5" y="-682.9" font-family="Helvetica,sans-Serif" font-size="11.00" fill="#000000">bool[1]</text>
<polygon fill="none" stroke="#000000" points="10.5,-653.2 10.5,-675.2 386.5,-675.2 386.5,-653.2 10.5,-653.2"/>
<text text-anchor="start" x="30.5" y="-660.3" font-family="Helvetica,sans-Serif" font-size="11.00" fill="#000000">opintojen_rahoitus</text>
<polygon fill="none" stroke="#000000" points="386.5,-653.2 386.5,-675.2 495.5,-675.2 495.5,-653.2 386.5,-653.2"/>
<text text-anchor="start" x="389.0344" y="-660.9" font-family="Helvetica,sans-Serif" font-size="11.00" fill="#000000">varchar[2147483647]</text>
<polygon fill="none" stroke="#000000" points="10.5,-631.2 10.5,-653.2 386.5,-653.2 386.5,-631.2 10.5,-631.2"/>
<text text-anchor="start" x="30.5" y="-638.3" font-family="Helvetica,sans-Serif" font-size="11.00" fill="#000000">erityisen_koulutus_tehtävän_jakso_tehtävä_koodiarvo</text>
<polygon fill="none" stroke="#000000" points="386.5,-631.2 386.5,-653.2 495.5,-653.2 495.5,-631.2 386.5,-631.2"/>
<text text-anchor="start" x="389.0344" y="-638.9" font-family="Helvetica,sans-Serif" font-size="11.00" fill="#000000">varchar[2147483647]</text>
<polygon fill="none" stroke="#000000" points="10.5,-609.2 10.5,-631.2 386.5,-631.2 386.5,-609.2 10.5,-609.2"/>
<text text-anchor="start" x="30.5" y="-616.3" font-family="Helvetica,sans-Serif" font-size="11.00" fill="#000000">ulkomainen_vaihto_opiskelija</text>
<polygon fill="none" stroke="#000000" points="386.5,-609.2 386.5,-631.2 495.5,-631.2 495.5,-609.2 386.5,-609.2"/>
<text text-anchor="start" x="389.5" y="-616.9" font-family="Helvetica,sans-Serif" font-size="11.00" fill="#000000">bool[1]</text>
<polygon fill="none" stroke="#000000" points="10.5,-587.2 10.5,-609.2 386.5,-609.2 386.5,-587.2 10.5,-587.2"/>
<text text-anchor="start" x="30.5" y="-594.3" font-family="Helvetica,sans-Serif" font-size="11.00" fill="#000000">majoitus</text>
<polygon fill="none" stroke="#000000" points="386.5,-587.2 386.5,-609.2 495.5,-609.2 495.5,-587.2 386.5,-587.2"/>
<text text-anchor="start" x="389.5" y="-594.9" font-family="Helvetica,sans-Serif" font-size="11.00" fill="#000000">bool[1]</text>
<polygon fill="none" stroke="#000000" points="10.5,-565.2 10.5,-587.2 386.5,-587.2 386.5,-565.2 10.5,-565.2"/>
<text text-anchor="start" x="30.5" y="-572.3" font-family="Helvetica,sans-Serif" font-size="11.00" fill="#000000">majoitusetu</text>
<polygon fill="none" stroke="#000000" points="386.5,-565.2 386.5,-587.2 495.5,-587.2 495.5,-565.2 386.5,-565.2"/>
<text text-anchor="start" x="389.5" y="-572.9" font-family="Helvetica,sans-Serif" font-size="11.00" fill="#000000">bool[1]</text>
<polygon fill="none" stroke="#000000" points="10.5,-543.2 10.5,-565.2 386.5,-565.2 386.5,-543.2 10.5,-543.2"/>
<text text-anchor="start" x="30.5" y="-550.3" font-family="Helvetica,sans-Serif" font-size="11.00" fill="#000000">kuljetusetu</text>
<polygon fill="none" stroke="#000000" points="386.5,-543.2 386.5,-565.2 495.5,-565.2 495.5,-543.2 386.5,-543.2"/>
<text text-anchor="start" x="389.5" y="-550.9" font-family="Helvetica,sans-Serif" font-size="11.00" fill="#000000">bool[1]</text>
<polygon fill="none" stroke="#000000" points="10.5,-521.2 10.5,-543.2 386.5,-543.2 386.5,-521.2 10.5,-521.2"/>
<text text-anchor="start" x="30.5" y="-528.3" font-family="Helvetica,sans-Serif" font-size="11.00" fill="#000000">sisaoppilaitosmainen_majoitus</text>
<polygon fill="none" stroke="#000000" points="386.5,-521.2 386.5,-543.2 495.5,-543.2 495.5,-521.2 386.5,-521.2"/>
<text text-anchor="start" x="389.5" y="-528.9" font-family="Helvetica,sans-Serif" font-size="11.00" fill="#000000">bool[1]</text>
<polygon fill="none" stroke="#000000" points="10.5,-499.2 10.5,-521.2 386.5,-521.2 386.5,-499.2 10.5,-499.2"/>
<text text-anchor="start" x="30.5" y="-506.3" font-family="Helvetica,sans-Serif" font-size="11.00" fill="#000000">vaativan_erityisen_tuen_yhteydessa_jarjestettäva_majoitus</text>
<polygon fill="none" stroke="#000000" points="386.5,-499.2 386.5,-521.2 495.5,-521.2 495.5,-499.2 386.5,-499.2"/>
<text text-anchor="start" x="389.5" y="-506.9" font-family="Helvetica,sans-Serif" font-size="11.00" fill="#000000">bool[1]</text>
<polygon fill="none" stroke="#000000" points="10.5,-477.2 10.5,-499.2 386.5,-499.2 386.5,-477.2 10.5,-477.2"/>
<text text-anchor="start" x="30.5" y="-484.3" font-family="Helvetica,sans-Serif" font-size="11.00" fill="#000000">erityinen_tuki</text>
<polygon fill="none" stroke="#000000" points="386.5,-477.2 386.5,-499.2 495.5,-499.2 495.5,-477.2 386.5,-477.2"/>
<text text-anchor="start" x="389.5" y="-484.9" font-family="Helvetica,sans-Serif" font-size="11.00" fill="#000000">bool[1]</text>
<polygon fill="none" stroke="#000000" points="10.5,-455.2 10.5,-477.2 386.5,-477.2 386.5,-455.2 10.5,-455.2"/>
<text text-anchor="start" x="30.5" y="-462.3" font-family="Helvetica,sans-Serif" font-size="11.00" fill="#000000">vaativan_erityisen_tuen_erityinen_tehtava</text>
<polygon fill="none" stroke="#000000" points="386.5,-455.2 386.5,-477.2 495.5,-477.2 495.5,-455.2 386.5,-455.2"/>
<text text-anchor="start" x="389.5" y="-462.9" font-family="Helvetica,sans-Serif" font-size="11.00" fill="#000000">bool[1]</text>
<polygon fill="none" stroke="#000000" points="10.5,-433.2 10.5,-455.2 386.5,-455.2 386.5,-433.2 10.5,-433.2"/>
<text text-anchor="start" x="30.5" y="-440.3" font-family="Helvetica,sans-Serif" font-size="11.00" fill="#000000">hojks</text>
<polygon fill="none" stroke="#000000" points="386.5,-433.2 386.5,-455.2 495.5,-455.2 495.5,-433.2 386.5,-433.2"/>
<text text-anchor="start" x="389.5" y="-440.9" font-family="Helvetica,sans-Serif" font-size="11.00" fill="#000000">bool[1]</text>
<polygon fill="none" stroke="#000000" points="10.5,-411.2 10.5,-433.2 386.5,-433.2 386.5,-411.2 10.5,-411.2"/>
<text text-anchor="start" x="30.5" y="-418.3" font-family="Helvetica,sans-Serif" font-size="11.00" fill="#000000">vammainen</text>
<polygon fill="none" stroke="#000000" points="386.5,-411.2 386.5,-433.2 495.5,-433.2 495.5,-411.2 386.5,-411.2"/>
<text text-anchor="start" x="389.5" y="-418.9" font-family="Helvetica,sans-Serif" font-size="11.00" fill="#000000">bool[1]</text>
<polygon fill="none" stroke="#000000" points="10.5,-389.2 10.5,-411.2 386.5,-411.2 386.5,-389.2 10.5,-389.2"/>
<text text-anchor="start" x="30.5" y="-396.3" font-family="Helvetica,sans-Serif" font-size="11.00" fill="#000000">vaikeasti_vammainen</text>
<polygon fill="none" stroke="#000000" points="386.5,-389.2 386.5,-411.2 495.5,-411.2 495.5,-389.2 386.5,-389.2"/>
<text text-anchor="start" x="389.5" y="-396.9" font-family="Helvetica,sans-Serif" font-size="11.00" fill="#000000">bool[1]</text>
<polygon fill="none" stroke="#000000" points="10.5,-367.2 10.5,-389.2 386.5,-389.2 386.5,-367.2 10.5,-367.2"/>
<text text-anchor="start" x="30.5" y="-374.3" font-family="Helvetica,sans-Serif" font-size="11.00" fill="#000000">vammainen_ja_avustaja</text>
<polygon fill="none" stroke="#000000" points="386.5,-367.2 386.5,-389.2 495.5,-389.2 495.5,-367.2 386.5,-367.2"/>
<text text-anchor="start" x="389.5" y="-374.9" font-family="Helvetica,sans-Serif" font-size="11.00" fill="#000000">bool[1]</text>
<polygon fill="none" stroke="#000000" points="10.5,-345.2 10.5,-367.2 386.5,-367.2 386.5,-345.2 10.5,-345.2"/>
<text text-anchor="start" x="30.5" y="-352.3" font-family="Helvetica,sans-Serif" font-size="11.00" fill="#000000">osa_aikaisuus</text>
<polygon fill="none" stroke="#000000" points="386.5,-345.2 386.5,-367.2 495.5,-367.2 495.5,-345.2 386.5,-345.2"/>
<text text-anchor="start" x="389.5" y="-352.9" font-family="Helvetica,sans-Serif" font-size="11.00" fill="#000000">int2[5]</text>
<polygon fill="none" stroke="#000000" points="10.5,-323.2 10.5,-345.2 386.5,-345.2 386.5,-323.2 10.5,-323.2"/>
<text text-anchor="start" x="30.5" y="-330.3" font-family="Helvetica,sans-Serif" font-size="11.00" fill="#000000">opiskeluvalmiuksia_tukevat_opinnot</text>
<polygon fill="none" stroke="#000000" points="386.5,-323.2 386.5,-345.2 495.5,-345.2 495.5,-323.2 386.5,-323.2"/>
<text text-anchor="start" x="389.5" y="-330.9" font-family="Helvetica,sans-Serif" font-size="11.00" fill="#000000">bool[1]</text>
<polygon fill="none" stroke="#000000" points="10.5,-301.2 10.5,-323.2 386.5,-323.2 386.5,-301.2 10.5,-301.2"/>
<text text-anchor="start" x="30.5" y="-308.3" font-family="Helvetica,sans-Serif" font-size="11.00" fill="#000000">vankilaopetuksessa</text>
<polygon fill="none" stroke="#000000" points="386.5,-301.2 386.5,-323.2 495.5,-323.2 495.5,-301.2 386.5,-301.2"/>
<text text-anchor="start" x="389.5" y="-308.9" font-family="Helvetica,sans-Serif" font-size="11.00" fill="#000000">bool[1]</text>
<polygon fill="none" stroke="#000000" points="10.5,-279.2 10.5,-301.2 386.5,-301.2 386.5,-279.2 10.5,-279.2"/>
<text text-anchor="start" x="30.5" y="-286.3" font-family="Helvetica,sans-Serif" font-size="11.00" fill="#000000">oppisopimus_jossain_paatason_suorituksessa</text>
<polygon fill="none" stroke="#000000" points="386.5,-279.2 386.5,-301.2 495.5,-301.2 495.5,-279.2 386.5,-279.2"/>
<text text-anchor="start" x="389.5" y="-286.9" font-family="Helvetica,sans-Serif" font-size="11.00" fill="#000000">bool[1]</text>
<polygon fill="none" stroke="#000000" points="10.5,-257.2 10.5,-279.2 386.5,-279.2 386.5,-257.2 10.5,-257.2"/>
<text text-anchor="start" x="30.5" y="-264.3" font-family="Helvetica,sans-Serif" font-size="11.00" fill="#000000">pidennetty_oppivelvollisuus</text>
<polygon fill="none" stroke="#000000" points="386.5,-257.2 386.5,-279.2 495.5,-279.2 495.5,-257.2 386.5,-257.2"/>
<text text-anchor="start" x="389.5" y="-264.9" font-family="Helvetica,sans-Serif" font-size="11.00" fill="#000000">bool[1]</text>
<polygon fill="none" stroke="#000000" points="10.5,-235.2 10.5,-257.2 386.5,-257.2 386.5,-235.2 10.5,-235.2"/>
<text text-anchor="start" x="30.5" y="-242.3" font-family="Helvetica,sans-Serif" font-size="11.00" fill="#000000">joustava_perusopetus</text>
<polygon fill="none" stroke="#000000" points="386.5,-235.2 386.5,-257.2 495.5,-257.2 495.5,-235.2 386.5,-235.2"/>
<text text-anchor="start" x="389.5" y="-242.9" font-family="Helvetica,sans-Serif" font-size="11.00" fill="#000000">bool[1]</text>
<polygon fill="none" stroke="#000000" points="10.5,-213.2 10.5,-235.2 386.5,-235.2 386.5,-213.2 10.5,-213.2"/>
<text text-anchor="start" x="30.5" y="-220.3" font-family="Helvetica,sans-Serif" font-size="11.00" fill="#000000">koulukoti</text>
<polygon fill="none" stroke="#000000" points="386.5,-213.2 386.5,-235.2 495.5,-235.2 495.5,-213.2 386.5,-213.2"/>
<text text-anchor="start" x="389.5" y="-220.9" font-family="Helvetica,sans-Serif" font-size="11.00" fill="#000000">bool[1]</text>
<polygon fill="none" stroke="#000000" points="10.5,-191.2 10.5,-213.2 386.5,-213.2 386.5,-191.2 10.5,-191.2"/>
<text text-anchor="start" x="30.5" y="-198.3" font-family="Helvetica,sans-Serif" font-size="11.00" fill="#000000">oppimaaran_suorittaja</text>
<polygon fill="none" stroke="#000000" points="386.5,-191.2 386.5,-213.2 495.5,-213.2 495.5,-191.2 386.5,-191.2"/>
<text text-anchor="start" x="389.5" y="-198.9" font-family="Helvetica,sans-Serif" font-size="11.00" fill="#000000">bool[1]</text>
<polygon fill="none" stroke="#000000" points="10.5,-169.2 10.5,-191.2 386.5,-191.2 386.5,-169.2 10.5,-169.2"/>
<text text-anchor="start" x="30.5" y="-176.3" font-family="Helvetica,sans-Serif" font-size="11.00" fill="#000000">maksuton</text>
<polygon fill="none" stroke="#000000" points="386.5,-169.2 386.5,-191.2 495.5,-191.2 495.5,-169.2 386.5,-169.2"/>
<text text-anchor="start" x="389.5" y="-176.9" font-family="Helvetica,sans-Serif" font-size="11.00" fill="#000000">bool[1]</text>
<polygon fill="none" stroke="#000000" points="10.5,-147.2 10.5,-169.2 386.5,-169.2 386.5,-147.2 10.5,-147.2"/>
<text text-anchor="start" x="30.5" y="-154.3" font-family="Helvetica,sans-Serif" font-size="11.00" fill="#000000">maksullinen</text>
<polygon fill="none" stroke="#000000" points="386.5,-147.2 386.5,-169.2 495.5,-169.2 495.5,-147.2 386.5,-147.2"/>
<text text-anchor="start" x="389.5" y="-154.9" font-family="Helvetica,sans-Serif" font-size="11.00" fill="#000000">bool[1]</text>
<polygon fill="#ffffff" stroke="transparent" points="10.5,-125.2 10.5,-147.2 386.5,-147.2 386.5,-125.2 10.5,-125.2"/>
<polygon fill="none" stroke="#000000" points="10.5,-125.2 10.5,-147.2 386.5,-147.2 386.5,-125.2 10.5,-125.2"/>
<text text-anchor="start" x="30.5" y="-132.3" font-family="Helvetica,sans-Serif" font-size="11.00" fill="#000000">oikeutta_maksuttomuuteen_pidennetty</text>
<polygon fill="none" stroke="#000000" points="386.5,-125.2 386.5,-147.2 495.5,-147.2 495.5,-125.2 386.5,-125.2"/>
<text text-anchor="start" x="389.5" y="-132.9" font-family="Helvetica,sans-Serif" font-size="11.00" fill="#000000">bool[1]</text>
<polygon fill="none" stroke="#000000" points="10.5,-103.2 10.5,-125.2 386.5,-125.2 386.5,-103.2 10.5,-103.2"/>
<text text-anchor="start" x="30.5" y="-110.3" font-family="Helvetica,sans-Serif" font-size="11.00" fill="#000000">kotiopetus</text>
<polygon fill="none" stroke="#000000" points="386.5,-103.2 386.5,-125.2 495.5,-125.2 495.5,-103.2 386.5,-103.2"/>
<text text-anchor="start" x="389.5" y="-110.9" font-family="Helvetica,sans-Serif" font-size="11.00" fill="#000000">bool[1]</text>
<polygon fill="none" stroke="#000000" points="10.5,-81.2 10.5,-103.2 386.5,-103.2 386.5,-81.2 10.5,-81.2"/>
<text text-anchor="start" x="30.5" y="-88.3" font-family="Helvetica,sans-Serif" font-size="11.00" fill="#000000">ulkomaanjakso</text>
<polygon fill="none" stroke="#000000" points="386.5,-81.2 386.5,-103.2 495.5,-103.2 495.5,-81.2 386.5,-81.2"/>
<text text-anchor="start" x="389.5" y="-88.9" font-family="Helvetica,sans-Serif" font-size="11.00" fill="#000000">bool[1]</text>
<polygon fill="none" stroke="#000000" points="10.5,-59.2 10.5,-81.2 386.5,-81.2 386.5,-59.2 10.5,-59.2"/>
<image xlink:href="../../images/primaryKeys.png" width="11px" height="12px" preserveAspectRatio="xMinYMin meet" x="15.5" y="-76.2"/>
<text text-anchor="start" x="30.5" y="-66.3" font-family="Helvetica,sans-Serif" font-size="11.00" fill="#000000">id</text>
<polygon fill="none" stroke="#000000" points="386.5,-59.2 386.5,-81.2 495.5,-81.2 495.5,-59.2 386.5,-59.2"/>
<text text-anchor="start" x="389.5" y="-66.9" font-family="Helvetica,sans-Serif" font-size="11.00" fill="#000000">bigserial[19]</text>
<polygon fill="#ffffff" stroke="transparent" points="10.5,-40.2 10.5,-59.2 183.5,-59.2 183.5,-40.2 10.5,-40.2"/>
<polygon fill="none" stroke="#000000" points="10.5,-40.2 10.5,-59.2 183.5,-59.2 183.5,-40.2 10.5,-40.2"/>
<text text-anchor="start" x="13.5" y="-46.3" font-family="Helvetica,sans-Serif" font-size="11.00" fill="#000000">&lt; 0</text>
<polygon fill="#ffffff" stroke="transparent" points="183.5,-40.2 183.5,-59.2 386.5,-59.2 386.5,-40.2 183.5,-40.2"/>
<polygon fill="none" stroke="#000000" points="183.5,-40.2 183.5,-59.2 386.5,-59.2 386.5,-40.2 183.5,-40.2"/>
<text text-anchor="start" x="338.8807" y="-46.3" font-family="Helvetica,sans-Serif" font-size="11.00" fill="#000000">463 rows</text>
<polygon fill="#ffffff" stroke="transparent" points="386.5,-40.2 386.5,-59.2 495.5,-59.2 495.5,-40.2 386.5,-40.2"/>
<polygon fill="none" stroke="#000000" points="386.5,-40.2 386.5,-59.2 495.5,-59.2 495.5,-40.2 386.5,-40.2"/>
<text text-anchor="start" x="476.9053" y="-46.3" font-family="Helvetica,sans-Serif" font-size="11.00" fill="#000000">0 &gt;</text>
<polygon fill="none" stroke="#000000" stroke-width="2" points="9,-39.2 9,-831.2 496,-831.2 496,-39.2 9,-39.2"/>
</a>
</g>
</g>
</g>
</svg>
