<?xml version="1.0" encoding="UTF-8" standalone="no"?>
<!DOCTYPE svg PUBLIC "-//W3C//DTD SVG 1.1//EN"
 "http://www.w3.org/Graphics/SVG/1.1/DTD/svg11.dtd">
<!-- Generated by graphviz version 2.40.1 (20161225.0304)
 -->
<!-- Title: oneDegreeRelationshipsDiagram Pages: 1 -->
<svg width="460pt" height="646pt"
 viewBox="0.00 0.00 460.00 646.20" xmlns="http://www.w3.org/2000/svg" xmlns:xlink="http://www.w3.org/1999/xlink">
<g id="graph0" class="graph" transform="scale(1 1) rotate(0) translate(4 642.2)">
<title>oneDegreeRelationshipsDiagram</title>
<polygon fill="#ffffff" stroke="transparent" points="-4,4 -4,-642.2 456,-642.2 456,4 -4,4"/>
<text text-anchor="middle" x="72.4936" y="-7.3" font-family="Helvetica,sans-Serif" font-size="11.00" fill="#000000">Generated by SchemaSpy</text>
<!-- r_opiskeluoikeus -->
<g id="node1" class="node">
<title>r_opiskeluoikeus</title>
<g id="a_node1"><a xlink:href="../../tables/r_opiskeluoikeus.html" xlink:title="r_opiskeluoikeus" target="_top">
<polygon fill="#ffffff" stroke="transparent" points="8,-38.2 8,-634.2 444,-634.2 444,-38.2 8,-38.2"/>
<polygon fill="#f5f5f5" stroke="transparent" points="10,-609.2 10,-632.2 442,-632.2 442,-609.2 10,-609.2"/>
<polygon fill="none" stroke="#000000" points="10,-609.2 10,-632.2 442,-632.2 442,-609.2 10,-609.2"/>
<text text-anchor="start" x="15" y="-617.8" font-family="Helvetica,sans-Serif" font-weight="bold" font-size="11.00" fill="#000000">r_opiskeluoikeus</text>
<text text-anchor="start" x="407.0437" y="-617.3" font-family="Helvetica,sans-Serif" font-size="11.00" fill="#000000">[table]</text>
<polygon fill="none" stroke="#000000" points="10,-587.2 10,-609.2 333,-609.2 333,-587.2 10,-587.2"/>
<image xlink:href="../../images/primaryKeys.png" width="11px" height="12px" preserveAspectRatio="xMinYMin meet" x="15" y="-604.2"/>
<text text-anchor="start" x="30" y="-594.3" font-family="Helvetica,sans-Serif" font-size="11.00" fill="#000000">opiskeluoikeus_oid</text>
<polygon fill="none" stroke="#000000" points="333,-587.2 333,-609.2 442,-609.2 442,-587.2 333,-587.2"/>
<text text-anchor="start" x="335.5344" y="-594.9" font-family="Helvetica,sans-Serif" font-size="11.00" fill="#000000">varchar[2147483647]</text>
<polygon fill="none" stroke="#000000" points="10,-565.2 10,-587.2 333,-587.2 333,-565.2 10,-565.2"/>
<text text-anchor="start" x="30" y="-572.3" font-family="Helvetica,sans-Serif" font-size="11.00" fill="#000000">versionumero</text>
<polygon fill="none" stroke="#000000" points="333,-565.2 333,-587.2 442,-587.2 442,-565.2 333,-565.2"/>
<text text-anchor="start" x="336" y="-572.9" font-family="Helvetica,sans-Serif" font-size="11.00" fill="#000000">int4[10]</text>
<polygon fill="none" stroke="#000000" points="10,-543.2 10,-565.2 333,-565.2 333,-543.2 10,-543.2"/>
<text text-anchor="start" x="30" y="-550.3" font-family="Helvetica,sans-Serif" font-size="11.00" fill="#000000">aikaleima</text>
<polygon fill="none" stroke="#000000" points="333,-543.2 333,-565.2 442,-565.2 442,-543.2 333,-543.2"/>
<text text-anchor="start" x="336" y="-550.9" font-family="Helvetica,sans-Serif" font-size="11.00" fill="#000000">timestamptz[35,6]</text>
<polygon fill="#ffffff" stroke="transparent" points="10,-521.2 10,-543.2 333,-543.2 333,-521.2 10,-521.2"/>
<polygon fill="none" stroke="#000000" points="10,-521.2 10,-543.2 333,-543.2 333,-521.2 10,-521.2"/>
<text text-anchor="start" x="30" y="-528.3" font-family="Helvetica,sans-Serif" font-size="11.00" fill="#000000">sisaltyy_opiskeluoikeuteen_oid</text>
<polygon fill="none" stroke="#000000" points="333,-521.2 333,-543.2 442,-543.2 442,-521.2 333,-521.2"/>
<text text-anchor="start" x="335.5344" y="-528.9" font-family="Helvetica,sans-Serif" font-size="11.00" fill="#000000">varchar[2147483647]</text>
<polygon fill="#ffffff" stroke="transparent" points="10,-499.2 10,-521.2 333,-521.2 333,-499.2 10,-499.2"/>
<polygon fill="none" stroke="#000000" points="10,-499.2 10,-521.2 333,-521.2 333,-499.2 10,-499.2"/>
<text text-anchor="start" x="30" y="-506.3" font-family="Helvetica,sans-Serif" font-size="11.00" fill="#000000">oppija_oid</text>
<polygon fill="none" stroke="#000000" points="333,-499.2 333,-521.2 442,-521.2 442,-499.2 333,-499.2"/>
<text text-anchor="start" x="335.5344" y="-506.9" font-family="Helvetica,sans-Serif" font-size="11.00" fill="#000000">varchar[2147483647]</text>
<polygon fill="none" stroke="#000000" points="10,-477.2 10,-499.2 333,-499.2 333,-477.2 10,-477.2"/>
<text text-anchor="start" x="30" y="-484.3" font-family="Helvetica,sans-Serif" font-size="11.00" fill="#000000">oppija_master_oid</text>
<polygon fill="none" stroke="#000000" points="333,-477.2 333,-499.2 442,-499.2 442,-477.2 333,-477.2"/>
<text text-anchor="start" x="335.5344" y="-484.9" font-family="Helvetica,sans-Serif" font-size="11.00" fill="#000000">varchar[2147483647]</text>
<polygon fill="#ffffff" stroke="transparent" points="10,-455.2 10,-477.2 333,-477.2 333,-455.2 10,-455.2"/>
<polygon fill="none" stroke="#000000" points="10,-455.2 10,-477.2 333,-477.2 333,-455.2 10,-455.2"/>
<text text-anchor="start" x="30" y="-462.3" font-family="Helvetica,sans-Serif" font-size="11.00" fill="#000000">oppilaitos_oid</text>
<polygon fill="none" stroke="#000000" points="333,-455.2 333,-477.2 442,-477.2 442,-455.2 333,-455.2"/>
<text text-anchor="start" x="335.5344" y="-462.9" font-family="Helvetica,sans-Serif" font-size="11.00" fill="#000000">varchar[2147483647]</text>
<polygon fill="none" stroke="#000000" points="10,-433.2 10,-455.2 333,-455.2 333,-433.2 10,-433.2"/>
<text text-anchor="start" x="30" y="-440.3" font-family="Helvetica,sans-Serif" font-size="11.00" fill="#000000">oppilaitos_nimi</text>
<polygon fill="none" stroke="#000000" points="333,-433.2 333,-455.2 442,-455.2 442,-433.2 333,-433.2"/>
<text text-anchor="start" x="335.5344" y="-440.9" font-family="Helvetica,sans-Serif" font-size="11.00" fill="#000000">varchar[2147483647]</text>
<polygon fill="none" stroke="#000000" points="10,-411.2 10,-433.2 333,-433.2 333,-411.2 10,-411.2"/>
<text text-anchor="start" x="30" y="-418.3" font-family="Helvetica,sans-Serif" font-size="11.00" fill="#000000">oppilaitos_nimi_sv</text>
<polygon fill="none" stroke="#000000" points="333,-411.2 333,-433.2 442,-433.2 442,-411.2 333,-411.2"/>
<text text-anchor="start" x="335.5344" y="-418.9" font-family="Helvetica,sans-Serif" font-size="11.00" fill="#000000">varchar[2147483647]</text>
<polygon fill="none" stroke="#000000" points="10,-389.2 10,-411.2 333,-411.2 333,-389.2 10,-389.2"/>
<text text-anchor="start" x="30" y="-396.3" font-family="Helvetica,sans-Serif" font-size="11.00" fill="#000000">oppilaitos_kotipaikka</text>
<polygon fill="none" stroke="#000000" points="333,-389.2 333,-411.2 442,-411.2 442,-389.2 333,-389.2"/>
<text text-anchor="start" x="335.5344" y="-396.9" font-family="Helvetica,sans-Serif" font-size="11.00" fill="#000000">varchar[2147483647]</text>
<polygon fill="none" stroke="#000000" points="10,-367.2 10,-389.2 333,-389.2 333,-367.2 10,-367.2"/>
<text text-anchor="start" x="30" y="-374.3" font-family="Helvetica,sans-Serif" font-size="11.00" fill="#000000">oppilaitosnumero</text>
<polygon fill="none" stroke="#000000" points="333,-367.2 333,-389.2 442,-389.2 442,-367.2 333,-367.2"/>
<text text-anchor="start" x="335.5344" y="-374.9" font-family="Helvetica,sans-Serif" font-size="11.00" fill="#000000">varchar[2147483647]</text>
<polygon fill="none" stroke="#000000" points="10,-345.2 10,-367.2 333,-367.2 333,-345.2 10,-345.2"/>
<text text-anchor="start" x="30" y="-352.3" font-family="Helvetica,sans-Serif" font-size="11.00" fill="#000000">koulutustoimija_oid</text>
<polygon fill="none" stroke="#000000" points="333,-345.2 333,-367.2 442,-367.2 442,-345.2 333,-345.2"/>
<text text-anchor="start" x="335.5344" y="-352.9" font-family="Helvetica,sans-Serif" font-size="11.00" fill="#000000">varchar[2147483647]</text>
<polygon fill="none" stroke="#000000" points="10,-323.2 10,-345.2 333,-345.2 333,-323.2 10,-323.2"/>
<text text-anchor="start" x="30" y="-330.3" font-family="Helvetica,sans-Serif" font-size="11.00" fill="#000000">koulutustoimija_nimi</text>
<polygon fill="none" stroke="#000000" points="333,-323.2 333,-345.2 442,-345.2 442,-323.2 333,-323.2"/>
<text text-anchor="start" x="335.5344" y="-330.9" font-family="Helvetica,sans-Serif" font-size="11.00" fill="#000000">varchar[2147483647]</text>
<polygon fill="none" stroke="#000000" points="10,-301.2 10,-323.2 333,-323.2 333,-301.2 10,-301.2"/>
<text text-anchor="start" x="30" y="-308.3" font-family="Helvetica,sans-Serif" font-size="11.00" fill="#000000">koulutustoimija_nimi_sv</text>
<polygon fill="none" stroke="#000000" points="333,-301.2 333,-323.2 442,-323.2 442,-301.2 333,-301.2"/>
<text text-anchor="start" x="335.5344" y="-308.9" font-family="Helvetica,sans-Serif" font-size="11.00" fill="#000000">varchar[2147483647]</text>
<polygon fill="#ffffff" stroke="transparent" points="10,-279.2 10,-301.2 333,-301.2 333,-279.2 10,-279.2"/>
<polygon fill="none" stroke="#000000" points="10,-279.2 10,-301.2 333,-301.2 333,-279.2 10,-279.2"/>
<text text-anchor="start" x="30" y="-286.3" font-family="Helvetica,sans-Serif" font-size="11.00" fill="#000000">koulutusmuoto</text>
<polygon fill="none" stroke="#000000" points="333,-279.2 333,-301.2 442,-301.2 442,-279.2 333,-279.2"/>
<text text-anchor="start" x="335.5344" y="-286.9" font-family="Helvetica,sans-Serif" font-size="11.00" fill="#000000">varchar[2147483647]</text>
<polygon fill="none" stroke="#000000" points="10,-257.2 10,-279.2 333,-279.2 333,-257.2 10,-257.2"/>
<text text-anchor="start" x="30" y="-264.3" font-family="Helvetica,sans-Serif" font-size="11.00" fill="#000000">alkamispaiva</text>
<polygon fill="none" stroke="#000000" points="333,-257.2 333,-279.2 442,-279.2 442,-257.2 333,-257.2"/>
<text text-anchor="start" x="336" y="-264.9" font-family="Helvetica,sans-Serif" font-size="11.00" fill="#000000">date[13]</text>
<polygon fill="none" stroke="#000000" points="10,-235.2 10,-257.2 333,-257.2 333,-235.2 10,-235.2"/>
<text text-anchor="start" x="30" y="-242.3" font-family="Helvetica,sans-Serif" font-size="11.00" fill="#000000">paattymispaiva</text>
<polygon fill="none" stroke="#000000" points="333,-235.2 333,-257.2 442,-257.2 442,-235.2 333,-235.2"/>
<text text-anchor="start" x="336" y="-242.9" font-family="Helvetica,sans-Serif" font-size="11.00" fill="#000000">date[13]</text>
<polygon fill="none" stroke="#000000" points="10,-213.2 10,-235.2 333,-235.2 333,-213.2 10,-213.2"/>
<text text-anchor="start" x="30" y="-220.3" font-family="Helvetica,sans-Serif" font-size="11.00" fill="#000000">viimeisin_tila</text>
<polygon fill="none" stroke="#000000" points="333,-213.2 333,-235.2 442,-235.2 442,-213.2 333,-213.2"/>
<text text-anchor="start" x="335.5344" y="-220.9" font-family="Helvetica,sans-Serif" font-size="11.00" fill="#000000">varchar[2147483647]</text>
<polygon fill="none" stroke="#000000" points="10,-191.2 10,-213.2 333,-213.2 333,-191.2 10,-191.2"/>
<text text-anchor="start" x="30" y="-198.3" font-family="Helvetica,sans-Serif" font-size="11.00" fill="#000000">lisatiedot_henkilostokoulutus</text>
<polygon fill="none" stroke="#000000" points="333,-191.2 333,-213.2 442,-213.2 442,-191.2 333,-191.2"/>
<text text-anchor="start" x="336" y="-198.9" font-family="Helvetica,sans-Serif" font-size="11.00" fill="#000000">bool[1]</text>
<polygon fill="none" stroke="#000000" points="10,-169.2 10,-191.2 333,-191.2 333,-169.2 10,-169.2"/>
<text text-anchor="start" x="30" y="-176.3" font-family="Helvetica,sans-Serif" font-size="11.00" fill="#000000">lisatiedot_koulutusvienti</text>
<polygon fill="none" stroke="#000000" points="333,-169.2 333,-191.2 442,-191.2 442,-169.2 333,-169.2"/>
<text text-anchor="start" x="336" y="-176.9" font-family="Helvetica,sans-Serif" font-size="11.00" fill="#000000">bool[1]</text>
<polygon fill="none" stroke="#000000" points="10,-147.2 10,-169.2 333,-169.2 333,-147.2 10,-147.2"/>
<text text-anchor="start" x="30" y="-154.3" font-family="Helvetica,sans-Serif" font-size="11.00" fill="#000000">tuva_jarjestamislupa</text>
<polygon fill="none" stroke="#000000" points="333,-147.2 333,-169.2 442,-169.2 442,-147.2 333,-147.2"/>
<text text-anchor="start" x="335.5344" y="-154.9" font-family="Helvetica,sans-Serif" font-size="11.00" fill="#000000">varchar[2147483647]</text>
<polygon fill="none" stroke="#000000" points="10,-125.2 10,-147.2 333,-147.2 333,-125.2 10,-125.2"/>
<text text-anchor="start" x="30" y="-132.3" font-family="Helvetica,sans-Serif" font-size="11.00" fill="#000000">lahdejarjestelma_koodiarvo</text>
<polygon fill="none" stroke="#000000" points="333,-125.2 333,-147.2 442,-147.2 442,-125.2 333,-125.2"/>
<text text-anchor="start" x="335.5344" y="-132.9" font-family="Helvetica,sans-Serif" font-size="11.00" fill="#000000">varchar[2147483647]</text>
<polygon fill="none" stroke="#000000" points="10,-103.2 10,-125.2 333,-125.2 333,-103.2 10,-103.2"/>
<text text-anchor="start" x="30" y="-110.3" font-family="Helvetica,sans-Serif" font-size="11.00" fill="#000000">lahdejarjestelma_id</text>
<polygon fill="none" stroke="#000000" points="333,-103.2 333,-125.2 442,-125.2 442,-103.2 333,-103.2"/>
<text text-anchor="start" x="335.5344" y="-110.9" font-family="Helvetica,sans-Serif" font-size="11.00" fill="#000000">varchar[2147483647]</text>
<polygon fill="none" stroke="#000000" points="10,-81.2 10,-103.2 333,-103.2 333,-81.2 10,-81.2"/>
<text text-anchor="start" x="30" y="-88.3" font-family="Helvetica,sans-Serif" font-size="11.00" fill="#000000">oppivelvollisuuden_suorittamiseen_kelpaava</text>
<polygon fill="none" stroke="#000000" points="333,-81.2 333,-103.2 442,-103.2 442,-81.2 333,-81.2"/>
<text text-anchor="start" x="336" y="-88.9" font-family="Helvetica,sans-Serif" font-size="11.00" fill="#000000">bool[1]</text>
<polygon fill="none" stroke="#000000" points="10,-59.2 10,-81.2 333,-81.2 333,-59.2 10,-59.2"/>
<text text-anchor="start" x="30" y="-66.3" font-family="Helvetica,sans-Serif" font-size="11.00" fill="#000000">data</text>
<polygon fill="none" stroke="#000000" points="333,-59.2 333,-81.2 442,-81.2 442,-59.2 333,-59.2"/>
<text text-anchor="start" x="336" y="-66.9" font-family="Helvetica,sans-Serif" font-size="11.00" fill="#000000">jsonb[2147483647]</text>
<polygon fill="#ffffff" stroke="transparent" points="10,-40.2 10,-59.2 157,-59.2 157,-40.2 10,-40.2"/>
<polygon fill="none" stroke="#000000" points="10,-40.2 10,-59.2 157,-59.2 157,-40.2 10,-40.2"/>
<text text-anchor="start" x="13" y="-46.3" font-family="Helvetica,sans-Serif" font-size="11.00" fill="#000000">&lt; 0</text>
<polygon fill="#ffffff" stroke="transparent" points="157,-40.2 157,-59.2 333,-59.2 333,-40.2 157,-40.2"/>
<polygon fill="none" stroke="#000000" points="157,-40.2 157,-59.2 333,-59.2 333,-40.2 157,-40.2"/>
<text text-anchor="start" x="285.3807" y="-46.3" font-family="Helvetica,sans-Serif" font-size="11.00" fill="#000000">193 rows</text>
<polygon fill="#ffffff" stroke="transparent" points="333,-40.2 333,-59.2 442,-59.2 442,-40.2 333,-40.2"/>
<polygon fill="none" stroke="#000000" points="333,-40.2 333,-59.2 442,-59.2 442,-40.2 333,-40.2"/>
<text text-anchor="start" x="423.4053" y="-46.3" font-family="Helvetica,sans-Serif" font-size="11.00" fill="#000000">0 &gt;</text>
<polygon fill="none" stroke="#000000" stroke-width="2" points="9,-39.2 9,-633.2 443,-633.2 443,-39.2 9,-39.2"/>
</a>
</g>
</g>
</g>
</svg>
