<?xml version="1.0" encoding="UTF-8" standalone="no"?>
<!DOCTYPE svg PUBLIC "-//W3C//DTD SVG 1.1//EN"
 "http://www.w3.org/Graphics/SVG/1.1/DTD/svg11.dtd">
<!-- Generated by graphviz version 2.40.1 (20161225.0304)
 -->
<!-- Title: oneDegreeRelationshipsDiagram Pages: 1 -->
<svg width="306pt" height="206pt"
 viewBox="0.00 0.00 306.00 206.20" xmlns="http://www.w3.org/2000/svg" xmlns:xlink="http://www.w3.org/1999/xlink">
<g id="graph0" class="graph" transform="scale(1 1) rotate(0) translate(4 202.2)">
<title>oneDegreeRelationshipsDiagram</title>
<polygon fill="#ffffff" stroke="transparent" points="-4,4 -4,-202.2 302,-202.2 302,4 -4,4"/>
<text text-anchor="middle" x="72.4936" y="-7.3" font-family="Helvetica,sans-Serif" font-size="11.00" fill="#000000">Generated by SchemaSpy</text>
<!-- r_organisaatiohistoria -->
<g id="node1" class="node">
<title>r_organisaatiohistoria</title>
<g id="a_node1"><a xlink:href="../../tables/r_organisaatiohistoria.html" xlink:title="r_organisaatiohistoria" target="_top">
<polygon fill="#ffffff" stroke="transparent" points="8,-38.2 8,-194.2 290,-194.2 290,-38.2 8,-38.2"/>
<polygon fill="#f5f5f5" stroke="transparent" points="10,-169.2 10,-192.2 288,-192.2 288,-169.2 10,-169.2"/>
<polygon fill="none" stroke="#000000" points="10,-169.2 10,-192.2 288,-192.2 288,-169.2 10,-169.2"/>
<text text-anchor="start" x="15" y="-177.8" font-family="Helvetica,sans-Serif" font-weight="bold" font-size="11.00" fill="#000000">r_organisaatiohistoria</text>
<text text-anchor="start" x="253.0437" y="-177.3" font-family="Helvetica,sans-Serif" font-size="11.00" fill="#000000">[table]</text>
<polygon fill="#ffffff" stroke="transparent" points="10,-147.2 10,-169.2 179,-169.2 179,-147.2 10,-147.2"/>
<polygon fill="none" stroke="#000000" points="10,-147.2 10,-169.2 179,-169.2 179,-147.2 10,-147.2"/>
<text text-anchor="start" x="30" y="-154.3" font-family="Helvetica,sans-Serif" font-size="11.00" fill="#000000">opiskeluoikeus_oid</text>
<polygon fill="none" stroke="#000000" points="179,-147.2 179,-169.2 288,-169.2 288,-147.2 179,-147.2"/>
<text text-anchor="start" x="181.5344" y="-154.9" font-family="Helvetica,sans-Serif" font-size="11.00" fill="#000000">varchar[2147483647]</text>
<polygon fill="#ffffff" stroke="transparent" points="10,-125.2 10,-147.2 179,-147.2 179,-125.2 10,-125.2"/>
<polygon fill="none" stroke="#000000" points="10,-125.2 10,-147.2 179,-147.2 179,-125.2 10,-125.2"/>
<text text-anchor="start" x="30" y="-132.3" font-family="Helvetica,sans-Serif" font-size="11.00" fill="#000000">oppilaitos_oid</text>
<polygon fill="none" stroke="#000000" points="179,-125.2 179,-147.2 288,-147.2 288,-125.2 179,-125.2"/>
<text text-anchor="start" x="181.5344" y="-132.9" font-family="Helvetica,sans-Serif" font-size="11.00" fill="#000000">varchar[2147483647]</text>
<polygon fill="#ffffff" stroke="transparent" points="10,-103.2 10,-125.2 179,-125.2 179,-103.2 10,-103.2"/>
<polygon fill="none" stroke="#000000" points="10,-103.2 10,-125.2 179,-125.2 179,-103.2 10,-103.2"/>
<text text-anchor="start" x="30" y="-110.3" font-family="Helvetica,sans-Serif" font-size="11.00" fill="#000000">koulutustoimija_oid</text>
<polygon fill="none" stroke="#000000" points="179,-103.2 179,-125.2 288,-125.2 288,-103.2 179,-103.2"/>
<text text-anchor="start" x="181.5344" y="-110.9" font-family="Helvetica,sans-Serif" font-size="11.00" fill="#000000">varchar[2147483647]</text>
<polygon fill="#ffffff" stroke="transparent" points="10,-81.2 10,-103.2 179,-103.2 179,-81.2 10,-81.2"/>
<polygon fill="none" stroke="#000000" points="10,-81.2 10,-103.2 179,-103.2 179,-81.2 10,-81.2"/>
<text text-anchor="start" x="30" y="-88.3" font-family="Helvetica,sans-Serif" font-size="11.00" fill="#000000">alku</text>
<polygon fill="none" stroke="#000000" points="179,-81.2 179,-103.2 288,-103.2 288,-81.2 179,-81.2"/>
<text text-anchor="start" x="182" y="-88.9" font-family="Helvetica,sans-Serif" font-size="11.00" fill="#000000">date[13]</text>
<polygon fill="#ffffff" stroke="transparent" points="10,-59.2 10,-81.2 179,-81.2 179,-59.2 10,-59.2"/>
<polygon fill="none" stroke="#000000" points="10,-59.2 10,-81.2 179,-81.2 179,-59.2 10,-59.2"/>
<text text-anchor="start" x="30" y="-66.3" font-family="Helvetica,sans-Serif" font-size="11.00" fill="#000000">loppu</text>
<polygon fill="none" stroke="#000000" points="179,-59.2 179,-81.2 288,-81.2 288,-59.2 179,-59.2"/>
<text text-anchor="start" x="182" y="-66.9" font-family="Helvetica,sans-Serif" font-size="11.00" fill="#000000">date[13]</text>
<polygon fill="#ffffff" stroke="transparent" points="10,-40.2 10,-59.2 80,-59.2 80,-40.2 10,-40.2"/>
<polygon fill="none" stroke="#000000" points="10,-40.2 10,-59.2 80,-59.2 80,-40.2 10,-40.2"/>
<text text-anchor="start" x="13" y="-46.3" font-family="Helvetica,sans-Serif" font-size="11.00" fill="#000000">&lt; 0</text>
<polygon fill="#ffffff" stroke="transparent" points="80,-40.2 80,-59.2 179,-59.2 179,-40.2 80,-40.2"/>
<polygon fill="none" stroke="#000000" points="80,-40.2 80,-59.2 179,-59.2 179,-40.2 80,-40.2"/>
<text text-anchor="start" x="131.3807" y="-46.3" font-family="Helvetica,sans-Serif" font-size="11.00" fill="#000000">189 rows</text>
<polygon fill="#ffffff" stroke="transparent" points="179,-40.2 179,-59.2 288,-59.2 288,-40.2 179,-40.2"/>
<polygon fill="none" stroke="#000000" points="179,-40.2 179,-59.2 288,-59.2 288,-40.2 179,-40.2"/>
<text text-anchor="start" x="269.4053" y="-46.3" font-family="Helvetica,sans-Serif" font-size="11.00" fill="#000000">0 &gt;</text>
<polygon fill="none" stroke="#000000" stroke-width="2" points="9,-39.2 9,-193.2 289,-193.2 289,-39.2 9,-39.2"/>
</a>
</g>
</g>
</g>
</svg>
