<?xml version="1.0" encoding="UTF-8" standalone="no"?>
<!DOCTYPE svg PUBLIC "-//W3C//DTD SVG 1.1//EN"
 "http://www.w3.org/Graphics/SVG/1.1/DTD/svg11.dtd">
<!-- Generated by graphviz version 2.40.1 (20161225.0304)
 -->
<!-- Title: oneDegreeRelationshipsDiagramImplied Pages: 1 -->
<svg width="455pt" height="157pt"
 viewBox="0.00 0.00 455.00 156.70" xmlns="http://www.w3.org/2000/svg" xmlns:xlink="http://www.w3.org/1999/xlink">
<g id="graph0" class="graph" transform="scale(1 1) rotate(0) translate(4 152.7)">
<title>oneDegreeRelationshipsDiagramImplied</title>
<polygon fill="#ffffff" stroke="transparent" points="-4,4 -4,-152.7 451,-152.7 451,4 -4,4"/>
<text text-anchor="middle" x="72.4936" y="-7.3" font-family="Helvetica,sans-Serif" font-size="11.00" fill="#000000">Generated by SchemaSpy</text>
<!-- r_organisaatio_kieli -->
<g id="node1" class="node">
<title>r_organisaatio_kieli</title>
<g id="a_node1"><a xlink:href="../../tables/r_organisaatio_kieli.html" xlink:title="r_organisaatio_kieli" target="_top">
<polygon fill="#ffffff" stroke="transparent" points="189,-54.7 189,-144.7 439,-144.7 439,-54.7 189,-54.7"/>
<polygon fill="#f5f5f5" stroke="transparent" points="191,-119.7 191,-142.7 437,-142.7 437,-119.7 191,-119.7"/>
<polygon fill="none" stroke="#000000" points="191,-119.7 191,-142.7 437,-142.7 437,-119.7 191,-119.7"/>
<text text-anchor="start" x="196" y="-128.3" font-family="Helvetica,sans-Serif" font-weight="bold" font-size="11.00" fill="#000000">r_organisaatio_kieli</text>
<text text-anchor="start" x="402.0437" y="-127.8" font-family="Helvetica,sans-Serif" font-size="11.00" fill="#000000">[table]</text>
<polygon fill="none" stroke="#000000" points="191,-97.7 191,-119.7 328,-119.7 328,-97.7 191,-97.7"/>
<image xlink:href="../../images/foreignKeys.png" width="11px" height="12px" preserveAspectRatio="xMinYMin meet" x="196" y="-114.7"/>
<text text-anchor="start" x="211" y="-104.8" font-family="Helvetica,sans-Serif" font-size="11.00" fill="#000000">organisaatio_oid</text>
<polygon fill="none" stroke="#000000" points="328,-97.7 328,-119.7 437,-119.7 437,-97.7 328,-97.7"/>
<text text-anchor="start" x="330.5344" y="-105.4" font-family="Helvetica,sans-Serif" font-size="11.00" fill="#000000">varchar[2147483647]</text>
<polygon fill="none" stroke="#000000" points="191,-75.7 191,-97.7 328,-97.7 328,-75.7 191,-75.7"/>
<text text-anchor="start" x="211" y="-82.8" font-family="Helvetica,sans-Serif" font-size="11.00" fill="#000000">kielikoodi</text>
<polygon fill="none" stroke="#000000" points="328,-75.7 328,-97.7 437,-97.7 437,-75.7 328,-75.7"/>
<text text-anchor="start" x="330.5344" y="-83.4" font-family="Helvetica,sans-Serif" font-size="11.00" fill="#000000">varchar[2147483647]</text>
<polygon fill="#ffffff" stroke="transparent" points="191,-56.7 191,-75.7 240,-75.7 240,-56.7 191,-56.7"/>
<polygon fill="none" stroke="#000000" points="191,-56.7 191,-75.7 240,-75.7 240,-56.7 191,-56.7"/>
<text text-anchor="start" x="194" y="-62.8" font-family="Helvetica,sans-Serif" font-size="11.00" fill="#000000">&lt; 1</text>
<polygon fill="#ffffff" stroke="transparent" points="240,-56.7 240,-75.7 328,-75.7 328,-56.7 240,-56.7"/>
<polygon fill="none" stroke="#000000" points="240,-56.7 240,-75.7 328,-75.7 328,-56.7 240,-56.7"/>
<text text-anchor="start" x="271.2089" y="-62.8" font-family="Helvetica,sans-Serif" font-size="11.00" fill="#000000">1,059 rows</text>
<polygon fill="#ffffff" stroke="transparent" points="328,-56.7 328,-75.7 437,-75.7 437,-56.7 328,-56.7"/>
<polygon fill="none" stroke="#000000" points="328,-56.7 328,-75.7 437,-75.7 437,-56.7 328,-56.7"/>
<text text-anchor="start" x="418.4053" y="-62.8" font-family="Helvetica,sans-Serif" font-size="11.00" fill="#000000">0 &gt;</text>
<polygon fill="none" stroke="#000000" stroke-width="2" points="190,-55.7 190,-143.7 438,-143.7 438,-55.7 190,-55.7"/>
</a>
</g>
</g>
<!-- r_organisaatio -->
<g id="node2" class="node">
<title>r_organisaatio</title>
<g id="a_node2"><a xlink:href="../../tables/r_organisaatio.html" xlink:title="r_organisaatio" target="_top">
<polygon fill="#ffffff" stroke="transparent" points="8,-38.2 8,-143.2 140,-143.2 140,-38.2 8,-38.2"/>
<polygon fill="#f5f5f5" stroke="transparent" points="8,-119.7 8,-142.7 140,-142.7 140,-119.7 8,-119.7"/>
<polygon fill="none" stroke="#000000" points="8,-119.7 8,-142.7 140,-142.7 140,-119.7 8,-119.7"/>
<text text-anchor="start" x="13" y="-128.3" font-family="Helvetica,sans-Serif" font-weight="bold" font-size="11.00" fill="#000000">r_organisaatio</text>
<text text-anchor="start" x="105.0437" y="-127.8" font-family="Helvetica,sans-Serif" font-size="11.00" fill="#000000">[table]</text>
<polygon fill="none" stroke="#000000" points="8,-97.7 8,-119.7 140,-119.7 140,-97.7 8,-97.7"/>
<image xlink:href="../../images/primaryKeys.png" width="11px" height="12px" preserveAspectRatio="xMinYMin meet" x="13" y="-114.7"/>
<text text-anchor="start" x="28" y="-104.8" font-family="Helvetica,sans-Serif" font-size="11.00" fill="#000000">organisaatio_oid</text>
<polygon fill="#ffffff" stroke="transparent" points="8,-75.7 8,-97.7 140,-97.7 140,-75.7 8,-75.7"/>
<polygon fill="none" stroke="#000000" points="8,-75.7 8,-97.7 140,-97.7 140,-75.7 8,-75.7"/>
<text text-anchor="start" x="28" y="-82.8" font-family="Helvetica,sans-Serif" font-size="11.00" fill="#000000">oppilaitosnumero</text>
<polygon fill="none" stroke="#000000" points="8,-56.7 8,-75.7 140,-75.7 140,-56.7 8,-56.7"/>
<text text-anchor="start" x="11" y="-62.8" font-family="Helvetica,sans-Serif" font-size="11.00" fill="#000000">...</text>
<polygon fill="#ffffff" stroke="transparent" points="8,-37.7 8,-56.7 44,-56.7 44,-37.7 8,-37.7"/>
<polygon fill="none" stroke="#000000" points="8,-37.7 8,-56.7 44,-56.7 44,-37.7 8,-37.7"/>
<text text-anchor="start" x="11" y="-43.8" font-family="Helvetica,sans-Serif" font-size="11.00" fill="#000000"> &#160;</text>
<polygon fill="#ffffff" stroke="transparent" points="44,-37.7 44,-56.7 106,-56.7 106,-37.7 44,-37.7"/>
<polygon fill="none" stroke="#000000" points="44,-37.7 44,-56.7 106,-56.7 106,-37.7 44,-37.7"/>
<text text-anchor="start" x="58.3807" y="-43.8" font-family="Helvetica,sans-Serif" font-size="11.00" fill="#000000">988 rows</text>
<polygon fill="#ffffff" stroke="transparent" points="106,-37.7 106,-56.7 140,-56.7 140,-37.7 106,-37.7"/>
<polygon fill="none" stroke="#000000" points="106,-37.7 106,-56.7 140,-56.7 140,-37.7 106,-37.7"/>
<text text-anchor="start" x="121.4053" y="-43.8" font-family="Helvetica,sans-Serif" font-size="11.00" fill="#000000">1 &gt;</text>
</a>
</g>
</g>
<!-- r_organisaatio_kieli&#45;&gt;r_organisaatio -->
<g id="edge1" class="edge">
<title>r_organisaatio_kieli:w&#45;&gt;r_organisaatio:e</title>
<path fill="none" stroke="#000000" stroke-dasharray="5,2" d="M176.276,-108.7C164.2815,-108.7 156.8229,-108.7 140,-108.7"/>
<polygon fill="#000000" stroke="#000000" points="183,-108.7001 191,-112.3 187,-108.7 191,-108.7 191,-108.7 191,-108.7 187,-108.7 191,-105.1 183,-108.7001 183,-108.7001"/>
<ellipse fill="none" stroke="#000000" cx="179.8" cy="-108.7001" rx="3.2" ry="3.2"/>
</g>
</g>
</svg>
