<?xml version="1.0" encoding="UTF-8" standalone="no"?>
<!DOCTYPE svg PUBLIC "-//W3C//DTD SVG 1.1//EN"
 "http://www.w3.org/Graphics/SVG/1.1/DTD/svg11.dtd">
<!-- Generated by graphviz version 2.40.1 (20161225.0304)
 -->
<!-- Title: oneDegreeRelationshipsDiagramImplied Pages: 1 -->
<svg width="512pt" height="157pt"
 viewBox="0.00 0.00 512.00 156.70" xmlns="http://www.w3.org/2000/svg" xmlns:xlink="http://www.w3.org/1999/xlink">
<g id="graph0" class="graph" transform="scale(1 1) rotate(0) translate(4 152.7)">
<title>oneDegreeRelationshipsDiagramImplied</title>
<polygon fill="#ffffff" stroke="transparent" points="-4,4 -4,-152.7 508,-152.7 508,4 -4,4"/>
<text text-anchor="middle" x="72.4936" y="-7.3" font-family="Helvetica,sans-Serif" font-size="11.00" fill="#000000">Generated by SchemaSpy</text>
<!-- r_organisaatio_kieli -->
<g id="node1" class="node">
<title>r_organisaatio_kieli</title>
<g id="a_node1"><a xlink:href="../../tables/r_organisaatio_kieli.html" xlink:title="r_organisaatio_kieli" target="_top">
<polygon fill="#ffffff" stroke="transparent" points="250,-54.7 250,-144.7 496,-144.7 496,-54.7 250,-54.7"/>
<polygon fill="#f5f5f5" stroke="transparent" points="252,-119.7 252,-142.7 494,-142.7 494,-119.7 252,-119.7"/>
<polygon fill="none" stroke="#000000" points="252,-119.7 252,-142.7 494,-142.7 494,-119.7 252,-119.7"/>
<text text-anchor="start" x="257" y="-128.3" font-family="Helvetica,sans-Serif" font-weight="bold" font-size="11.00" fill="#000000">r_organisaatio_kieli</text>
<text text-anchor="start" x="459.0437" y="-127.8" font-family="Helvetica,sans-Serif" font-size="11.00" fill="#000000">[table]</text>
<polygon fill="none" stroke="#000000" points="252,-97.7 252,-119.7 385,-119.7 385,-97.7 252,-97.7"/>
<image xlink:href="../../images/foreignKeys.png" width="11px" height="12px" preserveAspectRatio="xMinYMin meet" x="257" y="-114.7"/>
<text text-anchor="start" x="272" y="-104.8" font-family="Helvetica,sans-Serif" font-size="11.00" fill="#000000">organisaatio_oid</text>
<polygon fill="none" stroke="#000000" points="385,-97.7 385,-119.7 494,-119.7 494,-97.7 385,-97.7"/>
<text text-anchor="start" x="387.5344" y="-105.4" font-family="Helvetica,sans-Serif" font-size="11.00" fill="#000000">varchar[2147483647]</text>
<polygon fill="none" stroke="#000000" points="252,-75.7 252,-97.7 385,-97.7 385,-75.7 252,-75.7"/>
<text text-anchor="start" x="272" y="-82.8" font-family="Helvetica,sans-Serif" font-size="11.00" fill="#000000">kielikoodi</text>
<polygon fill="none" stroke="#000000" points="385,-75.7 385,-97.7 494,-97.7 494,-75.7 385,-75.7"/>
<text text-anchor="start" x="387.5344" y="-83.4" font-family="Helvetica,sans-Serif" font-size="11.00" fill="#000000">varchar[2147483647]</text>
<polygon fill="#ffffff" stroke="transparent" points="252,-56.7 252,-75.7 297,-75.7 297,-56.7 252,-56.7"/>
<polygon fill="none" stroke="#000000" points="252,-56.7 252,-75.7 297,-75.7 297,-56.7 252,-56.7"/>
<text text-anchor="start" x="255" y="-62.8" font-family="Helvetica,sans-Serif" font-size="11.00" fill="#000000">&lt; 1</text>
<polygon fill="#ffffff" stroke="transparent" points="297,-56.7 297,-75.7 385,-75.7 385,-56.7 297,-56.7"/>
<polygon fill="none" stroke="#000000" points="297,-56.7 297,-75.7 385,-75.7 385,-56.7 297,-56.7"/>
<text text-anchor="start" x="324.547" y="-62.8" font-family="Helvetica,sans-Serif" font-size="11.00" fill="#000000">1 056 rows</text>
<polygon fill="#ffffff" stroke="transparent" points="385,-56.7 385,-75.7 494,-75.7 494,-56.7 385,-56.7"/>
<polygon fill="none" stroke="#000000" points="385,-56.7 385,-75.7 494,-75.7 494,-56.7 385,-56.7"/>
<text text-anchor="start" x="475.4053" y="-62.8" font-family="Helvetica,sans-Serif" font-size="11.00" fill="#000000">0 &gt;</text>
<polygon fill="none" stroke="#000000" stroke-width="2" points="251,-55.7 251,-143.7 495,-143.7 495,-55.7 251,-55.7"/>
</a>
</g>
</g>
<!-- r_organisaatio -->
<g id="node2" class="node">
<title>r_organisaatio</title>
<g id="a_node2"><a xlink:href="../../tables/r_organisaatio.html" xlink:title="r_organisaatio" target="_top">
<polygon fill="#ffffff" stroke="transparent" points="8,-38.2 8,-143.2 201,-143.2 201,-38.2 8,-38.2"/>
<polygon fill="#f5f5f5" stroke="transparent" points="8.5,-119.7 8.5,-142.7 201.5,-142.7 201.5,-119.7 8.5,-119.7"/>
<polygon fill="none" stroke="#000000" points="8.5,-119.7 8.5,-142.7 201.5,-142.7 201.5,-119.7 8.5,-119.7"/>
<text text-anchor="start" x="13.5" y="-128.3" font-family="Helvetica,sans-Serif" font-weight="bold" font-size="11.00" fill="#000000">r_organisaatio</text>
<text text-anchor="start" x="166.5437" y="-127.8" font-family="Helvetica,sans-Serif" font-size="11.00" fill="#000000">[table]</text>
<polygon fill="none" stroke="#000000" points="8.5,-97.7 8.5,-119.7 201.5,-119.7 201.5,-97.7 8.5,-97.7"/>
<image xlink:href="../../images/primaryKeys.png" width="11px" height="12px" preserveAspectRatio="xMinYMin meet" x="13.5" y="-114.7"/>
<text text-anchor="start" x="28.5" y="-104.8" font-family="Helvetica,sans-Serif" font-size="11.00" fill="#000000">organisaatio_oid</text>
<polygon fill="#ffffff" stroke="transparent" points="8.5,-75.7 8.5,-97.7 201.5,-97.7 201.5,-75.7 8.5,-75.7"/>
<polygon fill="none" stroke="#000000" points="8.5,-75.7 8.5,-97.7 201.5,-97.7 201.5,-75.7 8.5,-75.7"/>
<text text-anchor="start" x="28.5" y="-82.8" font-family="Helvetica,sans-Serif" font-size="11.00" fill="#000000">oppilaitosnumero</text>
<polygon fill="none" stroke="#000000" points="8.5,-56.7 8.5,-75.7 201.5,-75.7 201.5,-56.7 8.5,-56.7"/>
<text text-anchor="start" x="11.5" y="-62.8" font-family="Helvetica,sans-Serif" font-size="11.00" fill="#000000">...</text>
<polygon fill="#ffffff" stroke="transparent" points="8.5,-37.7 8.5,-56.7 75.5,-56.7 75.5,-37.7 8.5,-37.7"/>
<polygon fill="none" stroke="#000000" points="8.5,-37.7 8.5,-56.7 75.5,-56.7 75.5,-37.7 8.5,-37.7"/>
<text text-anchor="start" x="11.5" y="-43.8" font-family="Helvetica,sans-Serif" font-size="11.00" fill="#000000"> &#160;</text>
<polygon fill="#ffffff" stroke="transparent" points="75.5,-37.7 75.5,-56.7 152.5,-56.7 152.5,-37.7 75.5,-37.7"/>
<polygon fill="none" stroke="#000000" points="75.5,-37.7 75.5,-56.7 152.5,-56.7 152.5,-37.7 75.5,-37.7"/>
<text text-anchor="start" x="104.8807" y="-43.8" font-family="Helvetica,sans-Serif" font-size="11.00" fill="#000000">988 rows</text>
<polygon fill="#ffffff" stroke="transparent" points="152.5,-37.7 152.5,-56.7 201.5,-56.7 201.5,-37.7 152.5,-37.7"/>
<polygon fill="none" stroke="#000000" points="152.5,-37.7 152.5,-56.7 201.5,-56.7 201.5,-37.7 152.5,-37.7"/>
<text text-anchor="start" x="182.9053" y="-43.8" font-family="Helvetica,sans-Serif" font-size="11.00" fill="#000000">1 &gt;</text>
</a>
</g>
</g>
<!-- r_organisaatio_kieli&#45;&gt;r_organisaatio -->
<g id="edge1" class="edge">
<title>r_organisaatio_kieli:w&#45;&gt;r_organisaatio:e</title>
<path fill="none" stroke="#000000" stroke-dasharray="5,2" d="M237.4203,-108.7C225.5435,-108.7 218.158,-108.7 201.5,-108.7"/>
<polygon fill="#000000" stroke="#000000" points="244,-108.7001 252,-112.3 248,-108.7 252,-108.7 252,-108.7 252,-108.7 248,-108.7 252,-105.1 244,-108.7001 244,-108.7001"/>
<ellipse fill="none" stroke="#000000" cx="240.8" cy="-108.7001" rx="3.2" ry="3.2"/>
</g>
</g>
</svg>
