<?xml version="1.0" encoding="UTF-8" standalone="no"?>
<!DOCTYPE svg PUBLIC "-//W3C//DTD SVG 1.1//EN"
 "http://www.w3.org/Graphics/SVG/1.1/DTD/svg11.dtd">
<!-- Generated by graphviz version 2.40.1 (20161225.0304)
 -->
<!-- Title: oneDegreeRelationshipsDiagramImplied Pages: 1 -->
<svg width="461pt" height="272pt"
 viewBox="0.00 0.00 461.00 272.20" xmlns="http://www.w3.org/2000/svg" xmlns:xlink="http://www.w3.org/1999/xlink">
<g id="graph0" class="graph" transform="scale(1 1) rotate(0) translate(4 268.2)">
<title>oneDegreeRelationshipsDiagramImplied</title>
<polygon fill="#ffffff" stroke="transparent" points="-4,4 -4,-268.2 457,-268.2 457,4 -4,4"/>
<text text-anchor="middle" x="72.4936" y="-7.3" font-family="Helvetica,sans-Serif" font-size="11.00" fill="#000000">Generated by SchemaSpy</text>
<!-- r_organisaatio_kieli -->
<g id="node1" class="node">
<title>r_organisaatio_kieli</title>
<g id="a_node1"><a xlink:href="../../tables/r_organisaatio_kieli.html" xlink:title="r_organisaatio_kieli" target="_top">
<polygon fill="#ffffff" stroke="transparent" points="294,-175.7 294,-258.7 445,-258.7 445,-175.7 294,-175.7"/>
<polygon fill="#f5f5f5" stroke="transparent" points="294.5,-235.2 294.5,-258.2 445.5,-258.2 445.5,-235.2 294.5,-235.2"/>
<polygon fill="none" stroke="#000000" points="294.5,-235.2 294.5,-258.2 445.5,-258.2 445.5,-235.2 294.5,-235.2"/>
<text text-anchor="start" x="299.5" y="-243.8" font-family="Helvetica,sans-Serif" font-weight="bold" font-size="11.00" fill="#000000">r_organisaatio_kieli</text>
<text text-anchor="start" x="411.0219" y="-243.3" font-family="Helvetica,sans-Serif" font-size="11.00" fill="#000000">[table]</text>
<polygon fill="none" stroke="#000000" points="294.5,-213.2 294.5,-235.2 445.5,-235.2 445.5,-213.2 294.5,-213.2"/>
<image xlink:href="../../images/foreignKeys.png" width="11px" height="12px" preserveAspectRatio="xMinYMin meet" x="299.5" y="-230.2"/>
<text text-anchor="start" x="323.5" y="-220.3" font-family="Helvetica,sans-Serif" font-size="11.00" fill="#000000">organisaatio_oid</text>
<polygon fill="none" stroke="#000000" points="294.5,-194.2 294.5,-213.2 445.5,-213.2 445.5,-194.2 294.5,-194.2"/>
<text text-anchor="start" x="297.5" y="-200.3" font-family="Helvetica,sans-Serif" font-size="11.00" fill="#000000">...</text>
<polygon fill="#ffffff" stroke="transparent" points="294.5,-175.2 294.5,-194.2 342.5,-194.2 342.5,-175.2 294.5,-175.2"/>
<polygon fill="none" stroke="#000000" points="294.5,-175.2 294.5,-194.2 342.5,-194.2 342.5,-175.2 294.5,-175.2"/>
<text text-anchor="start" x="297.5" y="-181.3" font-family="Helvetica,sans-Serif" font-size="11.00" fill="#000000">&lt; 1</text>
<polygon fill="#ffffff" stroke="transparent" points="342.5,-175.2 342.5,-194.2 419.5,-194.2 419.5,-175.2 342.5,-175.2"/>
<polygon fill="none" stroke="#000000" points="342.5,-175.2 342.5,-194.2 419.5,-194.2 419.5,-175.2 342.5,-175.2"/>
<text text-anchor="start" x="359.047" y="-181.3" font-family="Helvetica,sans-Serif" font-size="11.00" fill="#000000">1 056 rows</text>
<polygon fill="#ffffff" stroke="transparent" points="419.5,-175.2 419.5,-194.2 445.5,-194.2 445.5,-175.2 419.5,-175.2"/>
<polygon fill="none" stroke="#000000" points="419.5,-175.2 419.5,-194.2 445.5,-194.2 445.5,-175.2 419.5,-175.2"/>
<text text-anchor="start" x="436.3862" y="-181.3" font-family="Helvetica,sans-Serif" font-size="11.00" fill="#000000"> &#160;</text>
</a>
</g>
</g>
<!-- r_organisaatio -->
<g id="node2" class="node">
<title>r_organisaatio</title>
<g id="a_node2"><a xlink:href="../../tables/r_organisaatio.html" xlink:title="r_organisaatio" target="_top">
<polygon fill="#ffffff" stroke="transparent" points="8,-38.2 8,-260.2 245,-260.2 245,-38.2 8,-38.2"/>
<polygon fill="#f5f5f5" stroke="transparent" points="10.5,-235.2 10.5,-258.2 243.5,-258.2 243.5,-235.2 10.5,-235.2"/>
<polygon fill="none" stroke="#000000" points="10.5,-235.2 10.5,-258.2 243.5,-258.2 243.5,-235.2 10.5,-235.2"/>
<text text-anchor="start" x="15.5" y="-243.8" font-family="Helvetica,sans-Serif" font-weight="bold" font-size="11.00" fill="#000000">r_organisaatio</text>
<text text-anchor="start" x="208.5437" y="-243.3" font-family="Helvetica,sans-Serif" font-size="11.00" fill="#000000">[table]</text>
<polygon fill="none" stroke="#000000" points="10.5,-213.2 10.5,-235.2 134.5,-235.2 134.5,-213.2 10.5,-213.2"/>
<image xlink:href="../../images/primaryKeys.png" width="11px" height="12px" preserveAspectRatio="xMinYMin meet" x="15.5" y="-230.2"/>
<text text-anchor="start" x="30.5" y="-220.3" font-family="Helvetica,sans-Serif" font-size="11.00" fill="#000000">organisaatio_oid</text>
<polygon fill="none" stroke="#000000" points="134.5,-213.2 134.5,-235.2 243.5,-235.2 243.5,-213.2 134.5,-213.2"/>
<text text-anchor="start" x="137.0344" y="-220.9" font-family="Helvetica,sans-Serif" font-size="11.00" fill="#000000">varchar[2147483647]</text>
<polygon fill="none" stroke="#000000" points="10.5,-191.2 10.5,-213.2 134.5,-213.2 134.5,-191.2 10.5,-191.2"/>
<text text-anchor="start" x="30.5" y="-198.3" font-family="Helvetica,sans-Serif" font-size="11.00" fill="#000000">nimi</text>
<polygon fill="none" stroke="#000000" points="134.5,-191.2 134.5,-213.2 243.5,-213.2 243.5,-191.2 134.5,-191.2"/>
<text text-anchor="start" x="137.0344" y="-198.9" font-family="Helvetica,sans-Serif" font-size="11.00" fill="#000000">varchar[2147483647]</text>
<polygon fill="none" stroke="#000000" points="10.5,-169.2 10.5,-191.2 134.5,-191.2 134.5,-169.2 10.5,-169.2"/>
<text text-anchor="start" x="30.5" y="-176.3" font-family="Helvetica,sans-Serif" font-size="11.00" fill="#000000">nimi_sv</text>
<polygon fill="none" stroke="#000000" points="134.5,-169.2 134.5,-191.2 243.5,-191.2 243.5,-169.2 134.5,-169.2"/>
<text text-anchor="start" x="137.0344" y="-176.9" font-family="Helvetica,sans-Serif" font-size="11.00" fill="#000000">varchar[2147483647]</text>
<polygon fill="none" stroke="#000000" points="10.5,-147.2 10.5,-169.2 134.5,-169.2 134.5,-147.2 10.5,-147.2"/>
<text text-anchor="start" x="30.5" y="-154.3" font-family="Helvetica,sans-Serif" font-size="11.00" fill="#000000">organisaatiotyypit</text>
<polygon fill="none" stroke="#000000" points="134.5,-147.2 134.5,-169.2 243.5,-169.2 243.5,-147.2 134.5,-147.2"/>
<text text-anchor="start" x="137.0344" y="-154.9" font-family="Helvetica,sans-Serif" font-size="11.00" fill="#000000">varchar[2147483647]</text>
<polygon fill="none" stroke="#000000" points="10.5,-125.2 10.5,-147.2 134.5,-147.2 134.5,-125.2 10.5,-125.2"/>
<text text-anchor="start" x="30.5" y="-132.3" font-family="Helvetica,sans-Serif" font-size="11.00" fill="#000000">oppilaitostyyppi</text>
<polygon fill="none" stroke="#000000" points="134.5,-125.2 134.5,-147.2 243.5,-147.2 243.5,-125.2 134.5,-125.2"/>
<text text-anchor="start" x="137.0344" y="-132.9" font-family="Helvetica,sans-Serif" font-size="11.00" fill="#000000">varchar[2147483647]</text>
<polygon fill="#ffffff" stroke="transparent" points="10.5,-103.2 10.5,-125.2 134.5,-125.2 134.5,-103.2 10.5,-103.2"/>
<polygon fill="none" stroke="#000000" points="10.5,-103.2 10.5,-125.2 134.5,-125.2 134.5,-103.2 10.5,-103.2"/>
<text text-anchor="start" x="30.5" y="-110.3" font-family="Helvetica,sans-Serif" font-size="11.00" fill="#000000">oppilaitosnumero</text>
<polygon fill="none" stroke="#000000" points="134.5,-103.2 134.5,-125.2 243.5,-125.2 243.5,-103.2 134.5,-103.2"/>
<text text-anchor="start" x="137.0344" y="-110.9" font-family="Helvetica,sans-Serif" font-size="11.00" fill="#000000">varchar[2147483647]</text>
<polygon fill="none" stroke="#000000" points="10.5,-81.2 10.5,-103.2 134.5,-103.2 134.5,-81.2 10.5,-81.2"/>
<text text-anchor="start" x="30.5" y="-88.3" font-family="Helvetica,sans-Serif" font-size="11.00" fill="#000000">kotipaikka</text>
<polygon fill="none" stroke="#000000" points="134.5,-81.2 134.5,-103.2 243.5,-103.2 243.5,-81.2 134.5,-81.2"/>
<text text-anchor="start" x="137.0344" y="-88.9" font-family="Helvetica,sans-Serif" font-size="11.00" fill="#000000">varchar[2147483647]</text>
<polygon fill="none" stroke="#000000" points="10.5,-59.2 10.5,-81.2 134.5,-81.2 134.5,-59.2 10.5,-59.2"/>
<text text-anchor="start" x="30.5" y="-66.3" font-family="Helvetica,sans-Serif" font-size="11.00" fill="#000000">y_tunnus</text>
<polygon fill="none" stroke="#000000" points="134.5,-59.2 134.5,-81.2 243.5,-81.2 243.5,-59.2 134.5,-59.2"/>
<text text-anchor="start" x="137.0344" y="-66.9" font-family="Helvetica,sans-Serif" font-size="11.00" fill="#000000">varchar[2147483647]</text>
<polygon fill="#ffffff" stroke="transparent" points="10.5,-40.2 10.5,-59.2 57.5,-59.2 57.5,-40.2 10.5,-40.2"/>
<polygon fill="none" stroke="#000000" points="10.5,-40.2 10.5,-59.2 57.5,-59.2 57.5,-40.2 10.5,-40.2"/>
<text text-anchor="start" x="13.5" y="-46.3" font-family="Helvetica,sans-Serif" font-size="11.00" fill="#000000">&lt; 0</text>
<polygon fill="#ffffff" stroke="transparent" points="57.5,-40.2 57.5,-59.2 134.5,-59.2 134.5,-40.2 57.5,-40.2"/>
<polygon fill="none" stroke="#000000" points="57.5,-40.2 57.5,-59.2 134.5,-59.2 134.5,-40.2 57.5,-40.2"/>
<text text-anchor="start" x="86.8807" y="-46.3" font-family="Helvetica,sans-Serif" font-size="11.00" fill="#000000">988 rows</text>
<polygon fill="#ffffff" stroke="transparent" points="134.5,-40.2 134.5,-59.2 243.5,-59.2 243.5,-40.2 134.5,-40.2"/>
<polygon fill="none" stroke="#000000" points="134.5,-40.2 134.5,-59.2 243.5,-59.2 243.5,-40.2 134.5,-40.2"/>
<text text-anchor="start" x="224.9053" y="-46.3" font-family="Helvetica,sans-Serif" font-size="11.00" fill="#000000">1 &gt;</text>
<polygon fill="none" stroke="#000000" stroke-width="2" points="9,-39.2 9,-259.2 244,-259.2 244,-39.2 9,-39.2"/>
</a>
</g>
</g>
<!-- r_organisaatio_kieli&#45;&gt;r_organisaatio -->
<g id="edge1" class="edge">
<title>r_organisaatio_kieli:w&#45;&gt;r_organisaatio:e</title>
<path fill="none" stroke="#000000" stroke-dasharray="5,2" d="M279.776,-224.2C267.7815,-224.2 260.3229,-224.2 243.5,-224.2"/>
<polygon fill="#000000" stroke="#000000" points="286.5,-224.2001 294.5,-227.8 290.5,-224.2 294.5,-224.2 294.5,-224.2 294.5,-224.2 290.5,-224.2 294.5,-220.6 286.5,-224.2001 286.5,-224.2001"/>
<ellipse fill="none" stroke="#000000" cx="283.3" cy="-224.2001" rx="3.2" ry="3.2"/>
</g>
</g>
</svg>
