<?xml version="1.0" encoding="UTF-8" standalone="no"?>
<!DOCTYPE svg PUBLIC "-//W3C//DTD SVG 1.1//EN"
 "http://www.w3.org/Graphics/SVG/1.1/DTD/svg11.dtd">
<!-- Generated by graphviz version 2.40.1 (20161225.0304)
 -->
<!-- Title: oneDegreeRelationshipsDiagramImplied Pages: 1 -->
<svg width="443pt" height="157pt"
 viewBox="0.00 0.00 443.00 156.70" xmlns="http://www.w3.org/2000/svg" xmlns:xlink="http://www.w3.org/1999/xlink">
<g id="graph0" class="graph" transform="scale(1 1) rotate(0) translate(4 152.7)">
<title>oneDegreeRelationshipsDiagramImplied</title>
<polygon fill="#ffffff" stroke="transparent" points="-4,4 -4,-152.7 439,-152.7 439,4 -4,4"/>
<text text-anchor="middle" x="72.4936" y="-7.3" font-family="Helvetica,sans-Serif" font-size="11.00" fill="#000000">Generated by SchemaSpy</text>
<!-- r_organisaatio_kieli -->
<g id="node1" class="node">
<title>r_organisaatio_kieli</title>
<g id="a_node1"><a xlink:href="../../tables/r_organisaatio_kieli.html" xlink:title="r_organisaatio_kieli" target="_top">
<polygon fill="#ffffff" stroke="transparent" points="181,-54.7 181,-144.7 427,-144.7 427,-54.7 181,-54.7"/>
<polygon fill="#f5f5f5" stroke="transparent" points="183,-119.7 183,-142.7 425,-142.7 425,-119.7 183,-119.7"/>
<polygon fill="none" stroke="#000000" points="183,-119.7 183,-142.7 425,-142.7 425,-119.7 183,-119.7"/>
<text text-anchor="start" x="188" y="-128.3" font-family="Helvetica,sans-Serif" font-weight="bold" font-size="11.00" fill="#000000">r_organisaatio_kieli</text>
<text text-anchor="start" x="390.0437" y="-127.8" font-family="Helvetica,sans-Serif" font-size="11.00" fill="#000000">[table]</text>
<polygon fill="none" stroke="#000000" points="183,-97.7 183,-119.7 316,-119.7 316,-97.7 183,-97.7"/>
<image xlink:href="../../images/foreignKeys.png" width="11px" height="12px" preserveAspectRatio="xMinYMin meet" x="188" y="-114.7"/>
<text text-anchor="start" x="203" y="-104.8" font-family="Helvetica,sans-Serif" font-size="11.00" fill="#000000">organisaatio_oid</text>
<polygon fill="none" stroke="#000000" points="316,-97.7 316,-119.7 425,-119.7 425,-97.7 316,-97.7"/>
<text text-anchor="start" x="318.5344" y="-105.4" font-family="Helvetica,sans-Serif" font-size="11.00" fill="#000000">varchar[2147483647]</text>
<polygon fill="none" stroke="#000000" points="183,-75.7 183,-97.7 316,-97.7 316,-75.7 183,-75.7"/>
<text text-anchor="start" x="203" y="-82.8" font-family="Helvetica,sans-Serif" font-size="11.00" fill="#000000">kielikoodi</text>
<polygon fill="none" stroke="#000000" points="316,-75.7 316,-97.7 425,-97.7 425,-75.7 316,-75.7"/>
<text text-anchor="start" x="318.5344" y="-83.4" font-family="Helvetica,sans-Serif" font-size="11.00" fill="#000000">varchar[2147483647]</text>
<polygon fill="#ffffff" stroke="transparent" points="183,-56.7 183,-75.7 228,-75.7 228,-56.7 183,-56.7"/>
<polygon fill="none" stroke="#000000" points="183,-56.7 183,-75.7 228,-75.7 228,-56.7 183,-56.7"/>
<text text-anchor="start" x="186" y="-62.8" font-family="Helvetica,sans-Serif" font-size="11.00" fill="#000000">&lt; 1</text>
<polygon fill="#ffffff" stroke="transparent" points="228,-56.7 228,-75.7 316,-75.7 316,-56.7 228,-56.7"/>
<polygon fill="none" stroke="#000000" points="228,-56.7 228,-75.7 316,-75.7 316,-56.7 228,-56.7"/>
<text text-anchor="start" x="255.547" y="-62.8" font-family="Helvetica,sans-Serif" font-size="11.00" fill="#000000">1 053 rows</text>
<polygon fill="#ffffff" stroke="transparent" points="316,-56.7 316,-75.7 425,-75.7 425,-56.7 316,-56.7"/>
<polygon fill="none" stroke="#000000" points="316,-56.7 316,-75.7 425,-75.7 425,-56.7 316,-56.7"/>
<text text-anchor="start" x="406.4053" y="-62.8" font-family="Helvetica,sans-Serif" font-size="11.00" fill="#000000">0 &gt;</text>
<polygon fill="none" stroke="#000000" stroke-width="2" points="182,-55.7 182,-143.7 426,-143.7 426,-55.7 182,-55.7"/>
</a>
</g>
</g>
<!-- r_organisaatio -->
<g id="node2" class="node">
<title>r_organisaatio</title>
<g id="a_node2"><a xlink:href="../../tables/r_organisaatio.html" xlink:title="r_organisaatio" target="_top">
<polygon fill="#ffffff" stroke="transparent" points="8,-38.2 8,-143.2 132,-143.2 132,-38.2 8,-38.2"/>
<polygon fill="#f5f5f5" stroke="transparent" points="8,-119.7 8,-142.7 132,-142.7 132,-119.7 8,-119.7"/>
<polygon fill="none" stroke="#000000" points="8,-119.7 8,-142.7 132,-142.7 132,-119.7 8,-119.7"/>
<text text-anchor="start" x="13" y="-128.3" font-family="Helvetica,sans-Serif" font-weight="bold" font-size="11.00" fill="#000000">r_organisaatio</text>
<text text-anchor="start" x="97.0437" y="-127.8" font-family="Helvetica,sans-Serif" font-size="11.00" fill="#000000">[table]</text>
<polygon fill="none" stroke="#000000" points="8,-97.7 8,-119.7 132,-119.7 132,-97.7 8,-97.7"/>
<image xlink:href="../../images/primaryKeys.png" width="11px" height="12px" preserveAspectRatio="xMinYMin meet" x="13" y="-114.7"/>
<text text-anchor="start" x="28" y="-104.8" font-family="Helvetica,sans-Serif" font-size="11.00" fill="#000000">organisaatio_oid</text>
<polygon fill="#ffffff" stroke="transparent" points="8,-75.7 8,-97.7 132,-97.7 132,-75.7 8,-75.7"/>
<polygon fill="none" stroke="#000000" points="8,-75.7 8,-97.7 132,-97.7 132,-75.7 8,-75.7"/>
<text text-anchor="start" x="28" y="-82.8" font-family="Helvetica,sans-Serif" font-size="11.00" fill="#000000">oppilaitosnumero</text>
<polygon fill="none" stroke="#000000" points="8,-56.7 8,-75.7 132,-75.7 132,-56.7 8,-56.7"/>
<text text-anchor="start" x="11" y="-62.8" font-family="Helvetica,sans-Serif" font-size="11.00" fill="#000000">...</text>
<polygon fill="#ffffff" stroke="transparent" points="8,-37.7 8,-56.7 40,-56.7 40,-37.7 8,-37.7"/>
<polygon fill="none" stroke="#000000" points="8,-37.7 8,-56.7 40,-56.7 40,-37.7 8,-37.7"/>
<text text-anchor="start" x="11" y="-43.8" font-family="Helvetica,sans-Serif" font-size="11.00" fill="#000000"> &#160;</text>
<polygon fill="#ffffff" stroke="transparent" points="40,-37.7 40,-56.7 100,-56.7 100,-37.7 40,-37.7"/>
<polygon fill="none" stroke="#000000" points="40,-37.7 40,-56.7 100,-56.7 100,-37.7 40,-37.7"/>
<text text-anchor="start" x="52.3807" y="-43.8" font-family="Helvetica,sans-Serif" font-size="11.00" fill="#000000">985 rows</text>
<polygon fill="#ffffff" stroke="transparent" points="100,-37.7 100,-56.7 132,-56.7 132,-37.7 100,-37.7"/>
<polygon fill="none" stroke="#000000" points="100,-37.7 100,-56.7 132,-56.7 132,-37.7 100,-37.7"/>
<text text-anchor="start" x="113.4053" y="-43.8" font-family="Helvetica,sans-Serif" font-size="11.00" fill="#000000">1 &gt;</text>
</a>
</g>
</g>
<!-- r_organisaatio_kieli&#45;&gt;r_organisaatio -->
<g id="edge1" class="edge">
<title>r_organisaatio_kieli:w&#45;&gt;r_organisaatio:e</title>
<path fill="none" stroke="#000000" stroke-dasharray="5,2" d="M168.276,-108.7C156.2815,-108.7 148.8229,-108.7 132,-108.7"/>
<polygon fill="#000000" stroke="#000000" points="175,-108.7001 183,-112.3 179,-108.7 183,-108.7 183,-108.7 183,-108.7 179,-108.7 183,-105.1 175,-108.7001 175,-108.7001"/>
<ellipse fill="none" stroke="#000000" cx="171.8" cy="-108.7001" rx="3.2" ry="3.2"/>
</g>
</g>
</svg>
