<?xml version="1.0" encoding="UTF-8" standalone="no"?>
<!DOCTYPE svg PUBLIC "-//W3C//DTD SVG 1.1//EN"
 "http://www.w3.org/Graphics/SVG/1.1/DTD/svg11.dtd">
<!-- Generated by graphviz version 2.40.1 (20161225.0304)
 -->
<!-- Title: oneDegreeRelationshipsDiagramImplied Pages: 1 -->
<svg width="530pt" height="316pt"
 viewBox="0.00 0.00 530.00 316.20" xmlns="http://www.w3.org/2000/svg" xmlns:xlink="http://www.w3.org/1999/xlink">
<g id="graph0" class="graph" transform="scale(1 1) rotate(0) translate(4 312.2)">
<title>oneDegreeRelationshipsDiagramImplied</title>
<polygon fill="#ffffff" stroke="transparent" points="-4,4 -4,-312.2 526,-312.2 526,4 -4,4"/>
<text text-anchor="middle" x="72.4936" y="-7.3" font-family="Helvetica,sans-Serif" font-size="11.00" fill="#000000">Generated by SchemaSpy</text>
<!-- r_organisaatio_kieli -->
<g id="node1" class="node">
<title>r_organisaatio_kieli</title>
<g id="a_node1"><a xlink:href="../../tables/r_organisaatio_kieli.html" xlink:title="r_organisaatio_kieli" target="_top">
<polygon fill="#ffffff" stroke="transparent" points="363,-219.7 363,-302.7 514,-302.7 514,-219.7 363,-219.7"/>
<polygon fill="#f5f5f5" stroke="transparent" points="363.5,-279.2 363.5,-302.2 514.5,-302.2 514.5,-279.2 363.5,-279.2"/>
<polygon fill="none" stroke="#000000" points="363.5,-279.2 363.5,-302.2 514.5,-302.2 514.5,-279.2 363.5,-279.2"/>
<text text-anchor="start" x="368.5" y="-287.8" font-family="Helvetica,sans-Serif" font-weight="bold" font-size="11.00" fill="#000000">r_organisaatio_kieli</text>
<text text-anchor="start" x="480.0219" y="-287.3" font-family="Helvetica,sans-Serif" font-size="11.00" fill="#000000">[table]</text>
<polygon fill="none" stroke="#000000" points="363.5,-257.2 363.5,-279.2 514.5,-279.2 514.5,-257.2 363.5,-257.2"/>
<image xlink:href="../../images/foreignKeys.png" width="11px" height="12px" preserveAspectRatio="xMinYMin meet" x="368.5" y="-274.2"/>
<text text-anchor="start" x="392.5" y="-264.3" font-family="Helvetica,sans-Serif" font-size="11.00" fill="#000000">organisaatio_oid</text>
<polygon fill="none" stroke="#000000" points="363.5,-238.2 363.5,-257.2 514.5,-257.2 514.5,-238.2 363.5,-238.2"/>
<text text-anchor="start" x="366.5" y="-244.3" font-family="Helvetica,sans-Serif" font-size="11.00" fill="#000000">...</text>
<polygon fill="#ffffff" stroke="transparent" points="363.5,-219.2 363.5,-238.2 411.5,-238.2 411.5,-219.2 363.5,-219.2"/>
<polygon fill="none" stroke="#000000" points="363.5,-219.2 363.5,-238.2 411.5,-238.2 411.5,-219.2 363.5,-219.2"/>
<text text-anchor="start" x="366.5" y="-225.3" font-family="Helvetica,sans-Serif" font-size="11.00" fill="#000000">&lt; 1</text>
<polygon fill="#ffffff" stroke="transparent" points="411.5,-219.2 411.5,-238.2 488.5,-238.2 488.5,-219.2 411.5,-219.2"/>
<polygon fill="none" stroke="#000000" points="411.5,-219.2 411.5,-238.2 488.5,-238.2 488.5,-219.2 411.5,-219.2"/>
<text text-anchor="start" x="428.047" y="-225.3" font-family="Helvetica,sans-Serif" font-size="11.00" fill="#000000">1 056 rows</text>
<polygon fill="#ffffff" stroke="transparent" points="488.5,-219.2 488.5,-238.2 514.5,-238.2 514.5,-219.2 488.5,-219.2"/>
<polygon fill="none" stroke="#000000" points="488.5,-219.2 488.5,-238.2 514.5,-238.2 514.5,-219.2 488.5,-219.2"/>
<text text-anchor="start" x="505.3862" y="-225.3" font-family="Helvetica,sans-Serif" font-size="11.00" fill="#000000"> &#160;</text>
</a>
</g>
</g>
<!-- r_organisaatio -->
<g id="node2" class="node">
<title>r_organisaatio</title>
<g id="a_node2"><a xlink:href="../../tables/r_organisaatio.html" xlink:title="r_organisaatio" target="_top">
<polygon fill="#ffffff" stroke="transparent" points="8,-38.2 8,-304.2 314,-304.2 314,-38.2 8,-38.2"/>
<polygon fill="#f5f5f5" stroke="transparent" points="10,-279.2 10,-302.2 312,-302.2 312,-279.2 10,-279.2"/>
<polygon fill="none" stroke="#000000" points="10,-279.2 10,-302.2 312,-302.2 312,-279.2 10,-279.2"/>
<text text-anchor="start" x="15" y="-287.8" font-family="Helvetica,sans-Serif" font-weight="bold" font-size="11.00" fill="#000000">r_organisaatio</text>
<text text-anchor="start" x="277.0437" y="-287.3" font-family="Helvetica,sans-Serif" font-size="11.00" fill="#000000">[table]</text>
<polygon fill="none" stroke="#000000" points="10,-257.2 10,-279.2 203,-279.2 203,-257.2 10,-257.2"/>
<image xlink:href="../../images/primaryKeys.png" width="11px" height="12px" preserveAspectRatio="xMinYMin meet" x="15" y="-274.2"/>
<text text-anchor="start" x="30" y="-264.3" font-family="Helvetica,sans-Serif" font-size="11.00" fill="#000000">organisaatio_oid</text>
<polygon fill="none" stroke="#000000" points="203,-257.2 203,-279.2 312,-279.2 312,-257.2 203,-257.2"/>
<text text-anchor="start" x="205.5344" y="-264.9" font-family="Helvetica,sans-Serif" font-size="11.00" fill="#000000">varchar[2147483647]</text>
<polygon fill="none" stroke="#000000" points="10,-235.2 10,-257.2 203,-257.2 203,-235.2 10,-235.2"/>
<text text-anchor="start" x="30" y="-242.3" font-family="Helvetica,sans-Serif" font-size="11.00" fill="#000000">nimi</text>
<polygon fill="none" stroke="#000000" points="203,-235.2 203,-257.2 312,-257.2 312,-235.2 203,-235.2"/>
<text text-anchor="start" x="205.5344" y="-242.9" font-family="Helvetica,sans-Serif" font-size="11.00" fill="#000000">varchar[2147483647]</text>
<polygon fill="none" stroke="#000000" points="10,-213.2 10,-235.2 203,-235.2 203,-213.2 10,-213.2"/>
<text text-anchor="start" x="30" y="-220.3" font-family="Helvetica,sans-Serif" font-size="11.00" fill="#000000">nimi_sv</text>
<polygon fill="none" stroke="#000000" points="203,-213.2 203,-235.2 312,-235.2 312,-213.2 203,-213.2"/>
<text text-anchor="start" x="205.5344" y="-220.9" font-family="Helvetica,sans-Serif" font-size="11.00" fill="#000000">varchar[2147483647]</text>
<polygon fill="none" stroke="#000000" points="10,-191.2 10,-213.2 203,-213.2 203,-191.2 10,-191.2"/>
<text text-anchor="start" x="30" y="-198.3" font-family="Helvetica,sans-Serif" font-size="11.00" fill="#000000">organisaatiotyypit</text>
<polygon fill="none" stroke="#000000" points="203,-191.2 203,-213.2 312,-213.2 312,-191.2 203,-191.2"/>
<text text-anchor="start" x="205.5344" y="-198.9" font-family="Helvetica,sans-Serif" font-size="11.00" fill="#000000">varchar[2147483647]</text>
<polygon fill="none" stroke="#000000" points="10,-169.2 10,-191.2 203,-191.2 203,-169.2 10,-169.2"/>
<text text-anchor="start" x="30" y="-176.3" font-family="Helvetica,sans-Serif" font-size="11.00" fill="#000000">oppilaitostyyppi</text>
<polygon fill="none" stroke="#000000" points="203,-169.2 203,-191.2 312,-191.2 312,-169.2 203,-169.2"/>
<text text-anchor="start" x="205.5344" y="-176.9" font-family="Helvetica,sans-Serif" font-size="11.00" fill="#000000">varchar[2147483647]</text>
<polygon fill="#ffffff" stroke="transparent" points="10,-147.2 10,-169.2 203,-169.2 203,-147.2 10,-147.2"/>
<polygon fill="none" stroke="#000000" points="10,-147.2 10,-169.2 203,-169.2 203,-147.2 10,-147.2"/>
<text text-anchor="start" x="30" y="-154.3" font-family="Helvetica,sans-Serif" font-size="11.00" fill="#000000">oppilaitosnumero</text>
<polygon fill="none" stroke="#000000" points="203,-147.2 203,-169.2 312,-169.2 312,-147.2 203,-147.2"/>
<text text-anchor="start" x="205.5344" y="-154.9" font-family="Helvetica,sans-Serif" font-size="11.00" fill="#000000">varchar[2147483647]</text>
<polygon fill="none" stroke="#000000" points="10,-125.2 10,-147.2 203,-147.2 203,-125.2 10,-125.2"/>
<text text-anchor="start" x="30" y="-132.3" font-family="Helvetica,sans-Serif" font-size="11.00" fill="#000000">kotipaikka</text>
<polygon fill="none" stroke="#000000" points="203,-125.2 203,-147.2 312,-147.2 312,-125.2 203,-125.2"/>
<text text-anchor="start" x="205.5344" y="-132.9" font-family="Helvetica,sans-Serif" font-size="11.00" fill="#000000">varchar[2147483647]</text>
<polygon fill="none" stroke="#000000" points="10,-103.2 10,-125.2 203,-125.2 203,-103.2 10,-103.2"/>
<text text-anchor="start" x="30" y="-110.3" font-family="Helvetica,sans-Serif" font-size="11.00" fill="#000000">y_tunnus</text>
<polygon fill="none" stroke="#000000" points="203,-103.2 203,-125.2 312,-125.2 312,-103.2 203,-103.2"/>
<text text-anchor="start" x="205.5344" y="-110.9" font-family="Helvetica,sans-Serif" font-size="11.00" fill="#000000">varchar[2147483647]</text>
<polygon fill="none" stroke="#000000" points="10,-81.2 10,-103.2 203,-103.2 203,-81.2 10,-81.2"/>
<text text-anchor="start" x="30" y="-88.3" font-family="Helvetica,sans-Serif" font-size="11.00" fill="#000000">oppilaitoksen_koulutustoimija</text>
<polygon fill="none" stroke="#000000" points="203,-81.2 203,-103.2 312,-103.2 312,-81.2 203,-81.2"/>
<text text-anchor="start" x="205.5344" y="-88.9" font-family="Helvetica,sans-Serif" font-size="11.00" fill="#000000">varchar[2147483647]</text>
<polygon fill="none" stroke="#000000" points="10,-59.2 10,-81.2 203,-81.2 203,-59.2 10,-59.2"/>
<text text-anchor="start" x="30" y="-66.3" font-family="Helvetica,sans-Serif" font-size="11.00" fill="#000000">toimipisteen_oppilaitos</text>
<polygon fill="none" stroke="#000000" points="203,-59.2 203,-81.2 312,-81.2 312,-59.2 203,-59.2"/>
<text text-anchor="start" x="205.5344" y="-66.9" font-family="Helvetica,sans-Serif" font-size="11.00" fill="#000000">varchar[2147483647]</text>
<polygon fill="#ffffff" stroke="transparent" points="10,-40.2 10,-59.2 92,-59.2 92,-40.2 10,-40.2"/>
<polygon fill="none" stroke="#000000" points="10,-40.2 10,-59.2 92,-59.2 92,-40.2 10,-40.2"/>
<text text-anchor="start" x="13" y="-46.3" font-family="Helvetica,sans-Serif" font-size="11.00" fill="#000000">&lt; 0</text>
<polygon fill="#ffffff" stroke="transparent" points="92,-40.2 92,-59.2 203,-59.2 203,-40.2 92,-40.2"/>
<polygon fill="none" stroke="#000000" points="92,-40.2 92,-59.2 203,-59.2 203,-40.2 92,-40.2"/>
<text text-anchor="start" x="155.3807" y="-46.3" font-family="Helvetica,sans-Serif" font-size="11.00" fill="#000000">988 rows</text>
<polygon fill="#ffffff" stroke="transparent" points="203,-40.2 203,-59.2 312,-59.2 312,-40.2 203,-40.2"/>
<polygon fill="none" stroke="#000000" points="203,-40.2 203,-59.2 312,-59.2 312,-40.2 203,-40.2"/>
<text text-anchor="start" x="293.4053" y="-46.3" font-family="Helvetica,sans-Serif" font-size="11.00" fill="#000000">1 &gt;</text>
<polygon fill="none" stroke="#000000" stroke-width="2" points="9,-39.2 9,-303.2 313,-303.2 313,-39.2 9,-39.2"/>
</a>
</g>
</g>
<!-- r_organisaatio_kieli&#45;&gt;r_organisaatio -->
<g id="edge1" class="edge">
<title>r_organisaatio_kieli:w&#45;&gt;r_organisaatio:e</title>
<path fill="none" stroke="#000000" stroke-dasharray="5,2" d="M349.0156,-268.2C336.6771,-268.2 329.1667,-268.2 312,-268.2"/>
<polygon fill="#000000" stroke="#000000" points="355.5,-268.2001 363.5,-271.8 359.5,-268.2 363.5,-268.2 363.5,-268.2 363.5,-268.2 359.5,-268.2 363.5,-264.6 355.5,-268.2001 355.5,-268.2001"/>
<ellipse fill="none" stroke="#000000" cx="352.3" cy="-268.2001" rx="3.2" ry="3.2"/>
</g>
</g>
</svg>
