<?xml version="1.0" encoding="UTF-8" standalone="no"?>
<!DOCTYPE svg PUBLIC "-//W3C//DTD SVG 1.1//EN"
 "http://www.w3.org/Graphics/SVG/1.1/DTD/svg11.dtd">
<!-- Generated by graphviz version 2.40.1 (20161225.0304)
 -->
<!-- Title: oneDegreeRelationshipsDiagramImplied Pages: 1 -->
<svg width="483pt" height="157pt"
 viewBox="0.00 0.00 483.00 156.70" xmlns="http://www.w3.org/2000/svg" xmlns:xlink="http://www.w3.org/1999/xlink">
<g id="graph0" class="graph" transform="scale(1 1) rotate(0) translate(4 152.7)">
<title>oneDegreeRelationshipsDiagramImplied</title>
<polygon fill="#ffffff" stroke="transparent" points="-4,4 -4,-152.7 479,-152.7 479,4 -4,4"/>
<text text-anchor="middle" x="72.4936" y="-7.3" font-family="Helvetica,sans-Serif" font-size="11.00" fill="#000000">Generated by SchemaSpy</text>
<!-- r_organisaatio_kieli -->
<g id="node1" class="node">
<title>r_organisaatio_kieli</title>
<g id="a_node1"><a xlink:href="../../tables/r_organisaatio_kieli.html" xlink:title="r_organisaatio_kieli" target="_top">
<polygon fill="#ffffff" stroke="transparent" points="202,-54.7 202,-144.7 467,-144.7 467,-54.7 202,-54.7"/>
<polygon fill="#f5f5f5" stroke="transparent" points="204.5,-119.7 204.5,-142.7 465.5,-142.7 465.5,-119.7 204.5,-119.7"/>
<polygon fill="none" stroke="#000000" points="204.5,-119.7 204.5,-142.7 465.5,-142.7 465.5,-119.7 204.5,-119.7"/>
<text text-anchor="start" x="209.5" y="-128.3" font-family="Helvetica,sans-Serif" font-weight="bold" font-size="11.00" fill="#000000">r_organisaatio_kieli</text>
<text text-anchor="start" x="430.5437" y="-127.8" font-family="Helvetica,sans-Serif" font-size="11.00" fill="#000000">[table]</text>
<polygon fill="none" stroke="#000000" points="204.5,-97.7 204.5,-119.7 356.5,-119.7 356.5,-97.7 204.5,-97.7"/>
<image xlink:href="../../images/foreignKeys.png" width="11px" height="12px" preserveAspectRatio="xMinYMin meet" x="209.5" y="-114.7"/>
<text text-anchor="start" x="224.5" y="-104.8" font-family="Helvetica,sans-Serif" font-size="11.00" fill="#000000">organisaatio_oid</text>
<polygon fill="none" stroke="#000000" points="356.5,-97.7 356.5,-119.7 465.5,-119.7 465.5,-97.7 356.5,-97.7"/>
<text text-anchor="start" x="359.0344" y="-105.4" font-family="Helvetica,sans-Serif" font-size="11.00" fill="#000000">varchar[2147483647]</text>
<polygon fill="none" stroke="#000000" points="204.5,-75.7 204.5,-97.7 356.5,-97.7 356.5,-75.7 204.5,-75.7"/>
<text text-anchor="start" x="224.5" y="-82.8" font-family="Helvetica,sans-Serif" font-size="11.00" fill="#000000">kielikoodi</text>
<polygon fill="none" stroke="#000000" points="356.5,-75.7 356.5,-97.7 465.5,-97.7 465.5,-75.7 356.5,-75.7"/>
<text text-anchor="start" x="359.0344" y="-83.4" font-family="Helvetica,sans-Serif" font-size="11.00" fill="#000000">varchar[2147483647]</text>
<polygon fill="#ffffff" stroke="transparent" points="204.5,-56.7 204.5,-75.7 261.5,-75.7 261.5,-56.7 204.5,-56.7"/>
<polygon fill="none" stroke="#000000" points="204.5,-56.7 204.5,-75.7 261.5,-75.7 261.5,-56.7 204.5,-56.7"/>
<text text-anchor="start" x="207.5" y="-62.8" font-family="Helvetica,sans-Serif" font-size="11.00" fill="#000000">&lt; 1</text>
<polygon fill="#ffffff" stroke="transparent" points="261.5,-56.7 261.5,-75.7 356.5,-75.7 356.5,-56.7 261.5,-56.7"/>
<polygon fill="none" stroke="#000000" points="261.5,-56.7 261.5,-75.7 356.5,-75.7 356.5,-56.7 261.5,-56.7"/>
<text text-anchor="start" x="299.7089" y="-62.8" font-family="Helvetica,sans-Serif" font-size="11.00" fill="#000000">1,064 rows</text>
<polygon fill="#ffffff" stroke="transparent" points="356.5,-56.7 356.5,-75.7 465.5,-75.7 465.5,-56.7 356.5,-56.7"/>
<polygon fill="none" stroke="#000000" points="356.5,-56.7 356.5,-75.7 465.5,-75.7 465.5,-56.7 356.5,-56.7"/>
<text text-anchor="start" x="446.9053" y="-62.8" font-family="Helvetica,sans-Serif" font-size="11.00" fill="#000000">0 &gt;</text>
<polygon fill="none" stroke="#000000" stroke-width="2" points="203,-55.7 203,-143.7 466,-143.7 466,-55.7 203,-55.7"/>
</a>
</g>
</g>
<!-- r_organisaatio -->
<g id="node2" class="node">
<title>r_organisaatio</title>
<g id="a_node2"><a xlink:href="../../tables/r_organisaatio.html" xlink:title="r_organisaatio" target="_top">
<polygon fill="#ffffff" stroke="transparent" points="8,-38.2 8,-143.2 153,-143.2 153,-38.2 8,-38.2"/>
<polygon fill="#f5f5f5" stroke="transparent" points="8.5,-119.7 8.5,-142.7 153.5,-142.7 153.5,-119.7 8.5,-119.7"/>
<polygon fill="none" stroke="#000000" points="8.5,-119.7 8.5,-142.7 153.5,-142.7 153.5,-119.7 8.5,-119.7"/>
<text text-anchor="start" x="13.5" y="-128.3" font-family="Helvetica,sans-Serif" font-weight="bold" font-size="11.00" fill="#000000">r_organisaatio</text>
<text text-anchor="start" x="118.5437" y="-127.8" font-family="Helvetica,sans-Serif" font-size="11.00" fill="#000000">[table]</text>
<polygon fill="none" stroke="#000000" points="8.5,-97.7 8.5,-119.7 153.5,-119.7 153.5,-97.7 8.5,-97.7"/>
<image xlink:href="../../images/primaryKeys.png" width="11px" height="12px" preserveAspectRatio="xMinYMin meet" x="13.5" y="-114.7"/>
<text text-anchor="start" x="28.5" y="-104.8" font-family="Helvetica,sans-Serif" font-size="11.00" fill="#000000">organisaatio_oid</text>
<polygon fill="#ffffff" stroke="transparent" points="8.5,-75.7 8.5,-97.7 153.5,-97.7 153.5,-75.7 8.5,-75.7"/>
<polygon fill="none" stroke="#000000" points="8.5,-75.7 8.5,-97.7 153.5,-97.7 153.5,-75.7 8.5,-75.7"/>
<text text-anchor="start" x="28.5" y="-82.8" font-family="Helvetica,sans-Serif" font-size="11.00" fill="#000000">oppilaitosnumero</text>
<polygon fill="none" stroke="#000000" points="8.5,-56.7 8.5,-75.7 153.5,-75.7 153.5,-56.7 8.5,-56.7"/>
<text text-anchor="start" x="11.5" y="-62.8" font-family="Helvetica,sans-Serif" font-size="11.00" fill="#000000">...</text>
<polygon fill="#ffffff" stroke="transparent" points="8.5,-37.7 8.5,-56.7 51.5,-56.7 51.5,-37.7 8.5,-37.7"/>
<polygon fill="none" stroke="#000000" points="8.5,-37.7 8.5,-56.7 51.5,-56.7 51.5,-37.7 8.5,-37.7"/>
<text text-anchor="start" x="11.5" y="-43.8" font-family="Helvetica,sans-Serif" font-size="11.00" fill="#000000"> &#160;</text>
<polygon fill="#ffffff" stroke="transparent" points="51.5,-37.7 51.5,-56.7 116.5,-56.7 116.5,-37.7 51.5,-37.7"/>
<polygon fill="none" stroke="#000000" points="51.5,-37.7 51.5,-56.7 116.5,-56.7 116.5,-37.7 51.5,-37.7"/>
<text text-anchor="start" x="68.8807" y="-43.8" font-family="Helvetica,sans-Serif" font-size="11.00" fill="#000000">991 rows</text>
<polygon fill="#ffffff" stroke="transparent" points="116.5,-37.7 116.5,-56.7 153.5,-56.7 153.5,-37.7 116.5,-37.7"/>
<polygon fill="none" stroke="#000000" points="116.5,-37.7 116.5,-56.7 153.5,-56.7 153.5,-37.7 116.5,-37.7"/>
<text text-anchor="start" x="134.9053" y="-43.8" font-family="Helvetica,sans-Serif" font-size="11.00" fill="#000000">1 &gt;</text>
</a>
</g>
</g>
<!-- r_organisaatio_kieli&#45;&gt;r_organisaatio -->
<g id="edge1" class="edge">
<title>r_organisaatio_kieli:w&#45;&gt;r_organisaatio:e</title>
<path fill="none" stroke="#000000" stroke-dasharray="5,2" d="M189.776,-108.7C177.7815,-108.7 170.3229,-108.7 153.5,-108.7"/>
<polygon fill="#000000" stroke="#000000" points="196.5,-108.7001 204.5,-112.3 200.5,-108.7 204.5,-108.7 204.5,-108.7 204.5,-108.7 200.5,-108.7 204.5,-105.1 196.5,-108.7001 196.5,-108.7001"/>
<ellipse fill="none" stroke="#000000" cx="193.3" cy="-108.7001" rx="3.2" ry="3.2"/>
</g>
</g>
</svg>
