<?xml version="1.0" encoding="UTF-8" standalone="no"?>
<!DOCTYPE svg PUBLIC "-//W3C//DTD SVG 1.1//EN"
 "http://www.w3.org/Graphics/SVG/1.1/DTD/svg11.dtd">
<!-- Generated by graphviz version 2.40.1 (20161225.0304)
 -->
<!-- Title: oneDegreeRelationshipsDiagramImplied Pages: 1 -->
<svg width="501pt" height="316pt"
 viewBox="0.00 0.00 501.00 316.20" xmlns="http://www.w3.org/2000/svg" xmlns:xlink="http://www.w3.org/1999/xlink">
<g id="graph0" class="graph" transform="scale(1 1) rotate(0) translate(4 312.2)">
<title>oneDegreeRelationshipsDiagramImplied</title>
<polygon fill="#ffffff" stroke="transparent" points="-4,4 -4,-312.2 497,-312.2 497,4 -4,4"/>
<text text-anchor="middle" x="72.4936" y="-7.3" font-family="Helvetica,sans-Serif" font-size="11.00" fill="#000000">Generated by SchemaSpy</text>
<!-- r_organisaatio_kieli -->
<g id="node1" class="node">
<title>r_organisaatio_kieli</title>
<g id="a_node1"><a xlink:href="../../tables/r_organisaatio_kieli.html" xlink:title="r_organisaatio_kieli" target="_top">
<polygon fill="#ffffff" stroke="transparent" points="315,-219.7 315,-302.7 485,-302.7 485,-219.7 315,-219.7"/>
<polygon fill="#f5f5f5" stroke="transparent" points="315,-279.2 315,-302.2 485,-302.2 485,-279.2 315,-279.2"/>
<polygon fill="none" stroke="#000000" points="315,-279.2 315,-302.2 485,-302.2 485,-279.2 315,-279.2"/>
<text text-anchor="start" x="320" y="-287.8" font-family="Helvetica,sans-Serif" font-weight="bold" font-size="11.00" fill="#000000">r_organisaatio_kieli</text>
<text text-anchor="start" x="450.5219" y="-287.3" font-family="Helvetica,sans-Serif" font-size="11.00" fill="#000000">[table]</text>
<polygon fill="none" stroke="#000000" points="315,-257.2 315,-279.2 485,-279.2 485,-257.2 315,-257.2"/>
<image xlink:href="../../images/foreignKeys.png" width="11px" height="12px" preserveAspectRatio="xMinYMin meet" x="320" y="-274.2"/>
<text text-anchor="start" x="344" y="-264.3" font-family="Helvetica,sans-Serif" font-size="11.00" fill="#000000">organisaatio_oid</text>
<polygon fill="none" stroke="#000000" points="315,-238.2 315,-257.2 485,-257.2 485,-238.2 315,-238.2"/>
<text text-anchor="start" x="318" y="-244.3" font-family="Helvetica,sans-Serif" font-size="11.00" fill="#000000">...</text>
<polygon fill="#ffffff" stroke="transparent" points="315,-219.2 315,-238.2 375,-238.2 375,-219.2 315,-219.2"/>
<polygon fill="none" stroke="#000000" points="315,-219.2 315,-238.2 375,-238.2 375,-219.2 315,-219.2"/>
<text text-anchor="start" x="318" y="-225.3" font-family="Helvetica,sans-Serif" font-size="11.00" fill="#000000">&lt; 1</text>
<polygon fill="#ffffff" stroke="transparent" points="375,-219.2 375,-238.2 453,-238.2 453,-219.2 375,-219.2"/>
<polygon fill="none" stroke="#000000" points="375,-219.2 375,-238.2 453,-238.2 453,-219.2 375,-219.2"/>
<text text-anchor="start" x="396.2089" y="-225.3" font-family="Helvetica,sans-Serif" font-size="11.00" fill="#000000">1,064 rows</text>
<polygon fill="#ffffff" stroke="transparent" points="453,-219.2 453,-238.2 485,-238.2 485,-219.2 453,-219.2"/>
<polygon fill="none" stroke="#000000" points="453,-219.2 453,-238.2 485,-238.2 485,-219.2 453,-219.2"/>
<text text-anchor="start" x="475.8862" y="-225.3" font-family="Helvetica,sans-Serif" font-size="11.00" fill="#000000"> &#160;</text>
</a>
</g>
</g>
<!-- r_organisaatio -->
<g id="node2" class="node">
<title>r_organisaatio</title>
<g id="a_node2"><a xlink:href="../../tables/r_organisaatio.html" xlink:title="r_organisaatio" target="_top">
<polygon fill="#ffffff" stroke="transparent" points="8,-38.2 8,-304.2 266,-304.2 266,-38.2 8,-38.2"/>
<polygon fill="#f5f5f5" stroke="transparent" points="10,-279.2 10,-302.2 264,-302.2 264,-279.2 10,-279.2"/>
<polygon fill="none" stroke="#000000" points="10,-279.2 10,-302.2 264,-302.2 264,-279.2 10,-279.2"/>
<text text-anchor="start" x="15" y="-287.8" font-family="Helvetica,sans-Serif" font-weight="bold" font-size="11.00" fill="#000000">r_organisaatio</text>
<text text-anchor="start" x="229.0437" y="-287.3" font-family="Helvetica,sans-Serif" font-size="11.00" fill="#000000">[table]</text>
<polygon fill="none" stroke="#000000" points="10,-257.2 10,-279.2 155,-279.2 155,-257.2 10,-257.2"/>
<image xlink:href="../../images/primaryKeys.png" width="11px" height="12px" preserveAspectRatio="xMinYMin meet" x="15" y="-274.2"/>
<text text-anchor="start" x="30" y="-264.3" font-family="Helvetica,sans-Serif" font-size="11.00" fill="#000000">organisaatio_oid</text>
<polygon fill="none" stroke="#000000" points="155,-257.2 155,-279.2 264,-279.2 264,-257.2 155,-257.2"/>
<text text-anchor="start" x="157.5344" y="-264.9" font-family="Helvetica,sans-Serif" font-size="11.00" fill="#000000">varchar[2147483647]</text>
<polygon fill="none" stroke="#000000" points="10,-235.2 10,-257.2 155,-257.2 155,-235.2 10,-235.2"/>
<text text-anchor="start" x="30" y="-242.3" font-family="Helvetica,sans-Serif" font-size="11.00" fill="#000000">nimi</text>
<polygon fill="none" stroke="#000000" points="155,-235.2 155,-257.2 264,-257.2 264,-235.2 155,-235.2"/>
<text text-anchor="start" x="157.5344" y="-242.9" font-family="Helvetica,sans-Serif" font-size="11.00" fill="#000000">varchar[2147483647]</text>
<polygon fill="none" stroke="#000000" points="10,-213.2 10,-235.2 155,-235.2 155,-213.2 10,-213.2"/>
<text text-anchor="start" x="30" y="-220.3" font-family="Helvetica,sans-Serif" font-size="11.00" fill="#000000">nimi_sv</text>
<polygon fill="none" stroke="#000000" points="155,-213.2 155,-235.2 264,-235.2 264,-213.2 155,-213.2"/>
<text text-anchor="start" x="157.5344" y="-220.9" font-family="Helvetica,sans-Serif" font-size="11.00" fill="#000000">varchar[2147483647]</text>
<polygon fill="none" stroke="#000000" points="10,-191.2 10,-213.2 155,-213.2 155,-191.2 10,-191.2"/>
<text text-anchor="start" x="30" y="-198.3" font-family="Helvetica,sans-Serif" font-size="11.00" fill="#000000">organisaatiotyypit</text>
<polygon fill="none" stroke="#000000" points="155,-191.2 155,-213.2 264,-213.2 264,-191.2 155,-191.2"/>
<text text-anchor="start" x="157.5344" y="-198.9" font-family="Helvetica,sans-Serif" font-size="11.00" fill="#000000">varchar[2147483647]</text>
<polygon fill="none" stroke="#000000" points="10,-169.2 10,-191.2 155,-191.2 155,-169.2 10,-169.2"/>
<text text-anchor="start" x="30" y="-176.3" font-family="Helvetica,sans-Serif" font-size="11.00" fill="#000000">oppilaitostyyppi</text>
<polygon fill="none" stroke="#000000" points="155,-169.2 155,-191.2 264,-191.2 264,-169.2 155,-169.2"/>
<text text-anchor="start" x="157.5344" y="-176.9" font-family="Helvetica,sans-Serif" font-size="11.00" fill="#000000">varchar[2147483647]</text>
<polygon fill="#ffffff" stroke="transparent" points="10,-147.2 10,-169.2 155,-169.2 155,-147.2 10,-147.2"/>
<polygon fill="none" stroke="#000000" points="10,-147.2 10,-169.2 155,-169.2 155,-147.2 10,-147.2"/>
<text text-anchor="start" x="30" y="-154.3" font-family="Helvetica,sans-Serif" font-size="11.00" fill="#000000">oppilaitosnumero</text>
<polygon fill="none" stroke="#000000" points="155,-147.2 155,-169.2 264,-169.2 264,-147.2 155,-147.2"/>
<text text-anchor="start" x="157.5344" y="-154.9" font-family="Helvetica,sans-Serif" font-size="11.00" fill="#000000">varchar[2147483647]</text>
<polygon fill="none" stroke="#000000" points="10,-125.2 10,-147.2 155,-147.2 155,-125.2 10,-125.2"/>
<text text-anchor="start" x="30" y="-132.3" font-family="Helvetica,sans-Serif" font-size="11.00" fill="#000000">kotipaikka</text>
<polygon fill="none" stroke="#000000" points="155,-125.2 155,-147.2 264,-147.2 264,-125.2 155,-125.2"/>
<text text-anchor="start" x="157.5344" y="-132.9" font-family="Helvetica,sans-Serif" font-size="11.00" fill="#000000">varchar[2147483647]</text>
<polygon fill="none" stroke="#000000" points="10,-103.2 10,-125.2 155,-125.2 155,-103.2 10,-103.2"/>
<text text-anchor="start" x="30" y="-110.3" font-family="Helvetica,sans-Serif" font-size="11.00" fill="#000000">y_tunnus</text>
<polygon fill="none" stroke="#000000" points="155,-103.2 155,-125.2 264,-125.2 264,-103.2 155,-103.2"/>
<text text-anchor="start" x="157.5344" y="-110.9" font-family="Helvetica,sans-Serif" font-size="11.00" fill="#000000">varchar[2147483647]</text>
<polygon fill="none" stroke="#000000" points="10,-81.2 10,-103.2 155,-103.2 155,-81.2 10,-81.2"/>
<text text-anchor="start" x="30" y="-88.3" font-family="Helvetica,sans-Serif" font-size="11.00" fill="#000000">koulutustoimija</text>
<polygon fill="none" stroke="#000000" points="155,-81.2 155,-103.2 264,-103.2 264,-81.2 155,-81.2"/>
<text text-anchor="start" x="157.5344" y="-88.9" font-family="Helvetica,sans-Serif" font-size="11.00" fill="#000000">varchar[2147483647]</text>
<polygon fill="none" stroke="#000000" points="10,-59.2 10,-81.2 155,-81.2 155,-59.2 10,-59.2"/>
<text text-anchor="start" x="30" y="-66.3" font-family="Helvetica,sans-Serif" font-size="11.00" fill="#000000">oppilaitos</text>
<polygon fill="none" stroke="#000000" points="155,-59.2 155,-81.2 264,-81.2 264,-59.2 155,-59.2"/>
<text text-anchor="start" x="157.5344" y="-66.9" font-family="Helvetica,sans-Serif" font-size="11.00" fill="#000000">varchar[2147483647]</text>
<polygon fill="#ffffff" stroke="transparent" points="10,-40.2 10,-59.2 68,-59.2 68,-40.2 10,-40.2"/>
<polygon fill="none" stroke="#000000" points="10,-40.2 10,-59.2 68,-59.2 68,-40.2 10,-40.2"/>
<text text-anchor="start" x="13" y="-46.3" font-family="Helvetica,sans-Serif" font-size="11.00" fill="#000000">&lt; 0</text>
<polygon fill="#ffffff" stroke="transparent" points="68,-40.2 68,-59.2 155,-59.2 155,-40.2 68,-40.2"/>
<polygon fill="none" stroke="#000000" points="68,-40.2 68,-59.2 155,-59.2 155,-40.2 68,-40.2"/>
<text text-anchor="start" x="107.3807" y="-46.3" font-family="Helvetica,sans-Serif" font-size="11.00" fill="#000000">991 rows</text>
<polygon fill="#ffffff" stroke="transparent" points="155,-40.2 155,-59.2 264,-59.2 264,-40.2 155,-40.2"/>
<polygon fill="none" stroke="#000000" points="155,-40.2 155,-59.2 264,-59.2 264,-40.2 155,-40.2"/>
<text text-anchor="start" x="245.4053" y="-46.3" font-family="Helvetica,sans-Serif" font-size="11.00" fill="#000000">1 &gt;</text>
<polygon fill="none" stroke="#000000" stroke-width="2" points="9,-39.2 9,-303.2 265,-303.2 265,-39.2 9,-39.2"/>
</a>
</g>
</g>
<!-- r_organisaatio_kieli&#45;&gt;r_organisaatio -->
<g id="edge1" class="edge">
<title>r_organisaatio_kieli:w&#45;&gt;r_organisaatio:e</title>
<path fill="none" stroke="#000000" stroke-dasharray="5,2" d="M300.276,-268.2C288.2815,-268.2 280.8229,-268.2 264,-268.2"/>
<polygon fill="#000000" stroke="#000000" points="307,-268.2001 315,-271.8 311,-268.2 315,-268.2 315,-268.2 315,-268.2 311,-268.2 315,-264.6 307,-268.2001 307,-268.2001"/>
<ellipse fill="none" stroke="#000000" cx="303.8" cy="-268.2001" rx="3.2" ry="3.2"/>
</g>
</g>
</svg>
