<?xml version="1.0" encoding="UTF-8" standalone="no"?>
<!DOCTYPE svg PUBLIC "-//W3C//DTD SVG 1.1//EN"
 "http://www.w3.org/Graphics/SVG/1.1/DTD/svg11.dtd">
<!-- Generated by graphviz version 2.40.1 (20161225.0304)
 -->
<!-- Title: oneDegreeRelationshipsDiagram Pages: 1 -->
<svg width="442pt" height="316pt"
 viewBox="0.00 0.00 442.00 316.20" xmlns="http://www.w3.org/2000/svg" xmlns:xlink="http://www.w3.org/1999/xlink">
<g id="graph0" class="graph" transform="scale(1 1) rotate(0) translate(4 312.2)">
<title>oneDegreeRelationshipsDiagram</title>
<polygon fill="#ffffff" stroke="transparent" points="-4,4 -4,-312.2 438,-312.2 438,4 -4,4"/>
<text text-anchor="middle" x="72.4936" y="-7.3" font-family="Helvetica,sans-Serif" font-size="11.00" fill="#000000">Generated by SchemaSpy</text>
<!-- r_osaamisen_hankkimistapa_ammatillinen -->
<g id="node1" class="node">
<title>r_osaamisen_hankkimistapa_ammatillinen</title>
<g id="a_node1"><a xlink:href="../../tables/r_osaamisen_hankkimistapa_ammatillinen.html" xlink:title="r_osaamisen_hankkimistapa_ammatillinen" target="_top">
<polygon fill="#ffffff" stroke="transparent" points="8,-38.2 8,-304.2 426,-304.2 426,-38.2 8,-38.2"/>
<polygon fill="#f5f5f5" stroke="transparent" points="10,-279.2 10,-302.2 424,-302.2 424,-279.2 10,-279.2"/>
<polygon fill="none" stroke="#000000" points="10,-279.2 10,-302.2 424,-302.2 424,-279.2 10,-279.2"/>
<text text-anchor="start" x="15" y="-287.8" font-family="Helvetica,sans-Serif" font-weight="bold" font-size="11.00" fill="#000000">r_osaamisen_hankkimistapa_ammatillinen</text>
<text text-anchor="start" x="389.0437" y="-287.3" font-family="Helvetica,sans-Serif" font-size="11.00" fill="#000000">[table]</text>
<polygon fill="#ffffff" stroke="transparent" points="10,-257.2 10,-279.2 315,-279.2 315,-257.2 10,-257.2"/>
<polygon fill="none" stroke="#000000" points="10,-257.2 10,-279.2 315,-279.2 315,-257.2 10,-257.2"/>
<text text-anchor="start" x="30" y="-264.3" font-family="Helvetica,sans-Serif" font-size="11.00" fill="#000000">opiskeluoikeus_oid</text>
<polygon fill="none" stroke="#000000" points="315,-257.2 315,-279.2 424,-279.2 424,-257.2 315,-257.2"/>
<text text-anchor="start" x="317.5344" y="-264.9" font-family="Helvetica,sans-Serif" font-size="11.00" fill="#000000">varchar[2147483647]</text>
<polygon fill="#ffffff" stroke="transparent" points="10,-235.2 10,-257.2 315,-257.2 315,-235.2 10,-235.2"/>
<polygon fill="none" stroke="#000000" points="10,-235.2 10,-257.2 315,-257.2 315,-235.2 10,-235.2"/>
<text text-anchor="start" x="30" y="-242.3" font-family="Helvetica,sans-Serif" font-size="11.00" fill="#000000">aikajakso_tyyppi</text>
<polygon fill="none" stroke="#000000" points="315,-235.2 315,-257.2 424,-257.2 424,-235.2 315,-235.2"/>
<text text-anchor="start" x="317.5344" y="-242.9" font-family="Helvetica,sans-Serif" font-size="11.00" fill="#000000">varchar[2147483647]</text>
<polygon fill="#ffffff" stroke="transparent" points="10,-213.2 10,-235.2 315,-235.2 315,-213.2 10,-213.2"/>
<polygon fill="none" stroke="#000000" points="10,-213.2 10,-235.2 315,-235.2 315,-213.2 10,-213.2"/>
<text text-anchor="start" x="30" y="-220.3" font-family="Helvetica,sans-Serif" font-size="11.00" fill="#000000">alku</text>
<polygon fill="none" stroke="#000000" points="315,-213.2 315,-235.2 424,-235.2 424,-213.2 315,-213.2"/>
<text text-anchor="start" x="318" y="-220.9" font-family="Helvetica,sans-Serif" font-size="11.00" fill="#000000">date[13]</text>
<polygon fill="#ffffff" stroke="transparent" points="10,-191.2 10,-213.2 315,-213.2 315,-191.2 10,-191.2"/>
<polygon fill="none" stroke="#000000" points="10,-191.2 10,-213.2 315,-213.2 315,-191.2 10,-191.2"/>
<text text-anchor="start" x="30" y="-198.3" font-family="Helvetica,sans-Serif" font-size="11.00" fill="#000000">loppu</text>
<polygon fill="none" stroke="#000000" points="315,-191.2 315,-213.2 424,-213.2 424,-191.2 315,-191.2"/>
<text text-anchor="start" x="318" y="-198.9" font-family="Helvetica,sans-Serif" font-size="11.00" fill="#000000">date[13]</text>
<polygon fill="none" stroke="#000000" points="10,-169.2 10,-191.2 315,-191.2 315,-169.2 10,-169.2"/>
<text text-anchor="start" x="30" y="-176.3" font-family="Helvetica,sans-Serif" font-size="11.00" fill="#000000">oppisopimus_oppimispaikan_y_tunnus</text>
<polygon fill="none" stroke="#000000" points="315,-169.2 315,-191.2 424,-191.2 424,-169.2 315,-169.2"/>
<text text-anchor="start" x="317.5344" y="-176.9" font-family="Helvetica,sans-Serif" font-size="11.00" fill="#000000">varchar[2147483647]</text>
<polygon fill="none" stroke="#000000" points="10,-147.2 10,-169.2 315,-169.2 315,-147.2 10,-147.2"/>
<text text-anchor="start" x="30" y="-154.3" font-family="Helvetica,sans-Serif" font-size="11.00" fill="#000000">oppisopimus_purkamisen_paiva</text>
<polygon fill="none" stroke="#000000" points="315,-147.2 315,-169.2 424,-169.2 424,-147.2 315,-147.2"/>
<text text-anchor="start" x="318" y="-154.9" font-family="Helvetica,sans-Serif" font-size="11.00" fill="#000000">date[13]</text>
<polygon fill="none" stroke="#000000" points="10,-125.2 10,-147.2 315,-147.2 315,-125.2 10,-125.2"/>
<text text-anchor="start" x="30" y="-132.3" font-family="Helvetica,sans-Serif" font-size="11.00" fill="#000000">oppisopimus_purettu_koeajalla</text>
<polygon fill="none" stroke="#000000" points="315,-125.2 315,-147.2 424,-147.2 424,-125.2 315,-125.2"/>
<text text-anchor="start" x="318" y="-132.9" font-family="Helvetica,sans-Serif" font-size="11.00" fill="#000000">bool[1]</text>
<polygon fill="none" stroke="#000000" points="10,-103.2 10,-125.2 315,-125.2 315,-103.2 10,-103.2"/>
<text text-anchor="start" x="30" y="-110.3" font-family="Helvetica,sans-Serif" font-size="11.00" fill="#000000">koulutussopimus_paikkakunta_koodiarvo</text>
<polygon fill="none" stroke="#000000" points="315,-103.2 315,-125.2 424,-125.2 424,-103.2 315,-103.2"/>
<text text-anchor="start" x="317.5344" y="-110.9" font-family="Helvetica,sans-Serif" font-size="11.00" fill="#000000">varchar[2147483647]</text>
<polygon fill="none" stroke="#000000" points="10,-81.2 10,-103.2 315,-103.2 315,-81.2 10,-81.2"/>
<text text-anchor="start" x="30" y="-88.3" font-family="Helvetica,sans-Serif" font-size="11.00" fill="#000000">koulutussopimus_maa_koodiarvo</text>
<polygon fill="none" stroke="#000000" points="315,-81.2 315,-103.2 424,-103.2 424,-81.2 315,-81.2"/>
<text text-anchor="start" x="317.5344" y="-88.9" font-family="Helvetica,sans-Serif" font-size="11.00" fill="#000000">varchar[2147483647]</text>
<polygon fill="none" stroke="#000000" points="10,-59.2 10,-81.2 315,-81.2 315,-59.2 10,-59.2"/>
<text text-anchor="start" x="30" y="-66.3" font-family="Helvetica,sans-Serif" font-size="11.00" fill="#000000">koulutussopimus_y_tunnus</text>
<polygon fill="none" stroke="#000000" points="315,-59.2 315,-81.2 424,-81.2 424,-59.2 315,-59.2"/>
<text text-anchor="start" x="317.5344" y="-66.9" font-family="Helvetica,sans-Serif" font-size="11.00" fill="#000000">varchar[2147483647]</text>
<polygon fill="#ffffff" stroke="transparent" points="10,-40.2 10,-59.2 154,-59.2 154,-40.2 10,-40.2"/>
<polygon fill="none" stroke="#000000" points="10,-40.2 10,-59.2 154,-59.2 154,-40.2 10,-40.2"/>
<text text-anchor="start" x="13" y="-46.3" font-family="Helvetica,sans-Serif" font-size="11.00" fill="#000000">&lt; 0</text>
<polygon fill="#ffffff" stroke="transparent" points="154,-40.2 154,-59.2 315,-59.2 315,-40.2 154,-40.2"/>
<polygon fill="none" stroke="#000000" points="154,-40.2 154,-59.2 315,-59.2 315,-40.2 154,-40.2"/>
<text text-anchor="start" x="279.6105" y="-46.3" font-family="Helvetica,sans-Serif" font-size="11.00" fill="#000000">9 rows</text>
<polygon fill="#ffffff" stroke="transparent" points="315,-40.2 315,-59.2 424,-59.2 424,-40.2 315,-40.2"/>
<polygon fill="none" stroke="#000000" points="315,-40.2 315,-59.2 424,-59.2 424,-40.2 315,-40.2"/>
<text text-anchor="start" x="405.4053" y="-46.3" font-family="Helvetica,sans-Serif" font-size="11.00" fill="#000000">0 &gt;</text>
<polygon fill="none" stroke="#000000" stroke-width="2" points="9,-39.2 9,-303.2 425,-303.2 425,-39.2 9,-39.2"/>
</a>
</g>
</g>
</g>
</svg>
