<?xml version="1.0" encoding="UTF-8" standalone="no"?>
<!DOCTYPE svg PUBLIC "-//W3C//DTD SVG 1.1//EN"
 "http://www.w3.org/Graphics/SVG/1.1/DTD/svg11.dtd">
<!-- Generated by graphviz version 2.40.1 (20161225.0304)
 -->
<!-- Title: oneDegreeRelationshipsDiagram Pages: 1 -->
<svg width="363pt" height="690pt"
 viewBox="0.00 0.00 363.00 690.20" xmlns="http://www.w3.org/2000/svg" xmlns:xlink="http://www.w3.org/1999/xlink">
<g id="graph0" class="graph" transform="scale(1 1) rotate(0) translate(4 686.2)">
<title>oneDegreeRelationshipsDiagram</title>
<polygon fill="#ffffff" stroke="transparent" points="-4,4 -4,-686.2 359,-686.2 359,4 -4,4"/>
<text text-anchor="middle" x="72.4936" y="-7.3" font-family="Helvetica,sans-Serif" font-size="11.00" fill="#000000">Generated by SchemaSpy</text>
<!-- r_osasuoritus -->
<g id="node1" class="node">
<title>r_osasuoritus</title>
<g id="a_node1"><a xlink:href="../../tables/r_osasuoritus.html" xlink:title="r_osasuoritus" target="_top">
<polygon fill="#ffffff" stroke="transparent" points="8,-38.2 8,-678.2 347,-678.2 347,-38.2 8,-38.2"/>
<polygon fill="#f5f5f5" stroke="transparent" points="10.5,-653.2 10.5,-676.2 345.5,-676.2 345.5,-653.2 10.5,-653.2"/>
<polygon fill="none" stroke="#000000" points="10.5,-653.2 10.5,-676.2 345.5,-676.2 345.5,-653.2 10.5,-653.2"/>
<text text-anchor="start" x="15.5" y="-661.8" font-family="Helvetica,sans-Serif" font-weight="bold" font-size="11.00" fill="#000000">r_osasuoritus</text>
<text text-anchor="start" x="310.5437" y="-661.3" font-family="Helvetica,sans-Serif" font-size="11.00" fill="#000000">[table]</text>
<polygon fill="none" stroke="#000000" points="10.5,-631.2 10.5,-653.2 236.5,-653.2 236.5,-631.2 10.5,-631.2"/>
<image xlink:href="../../images/primaryKeys.png" width="11px" height="12px" preserveAspectRatio="xMinYMin meet" x="15.5" y="-648.2"/>
<text text-anchor="start" x="30.5" y="-638.3" font-family="Helvetica,sans-Serif" font-size="11.00" fill="#000000">osasuoritus_id</text>
<polygon fill="none" stroke="#000000" points="236.5,-631.2 236.5,-653.2 345.5,-653.2 345.5,-631.2 236.5,-631.2"/>
<text text-anchor="start" x="239.5" y="-638.9" font-family="Helvetica,sans-Serif" font-size="11.00" fill="#000000">int8[19]</text>
<polygon fill="#ffffff" stroke="transparent" points="10.5,-609.2 10.5,-631.2 236.5,-631.2 236.5,-609.2 10.5,-609.2"/>
<polygon fill="none" stroke="#000000" points="10.5,-609.2 10.5,-631.2 236.5,-631.2 236.5,-609.2 10.5,-609.2"/>
<text text-anchor="start" x="30.5" y="-616.3" font-family="Helvetica,sans-Serif" font-size="11.00" fill="#000000">ylempi_osasuoritus_id</text>
<polygon fill="none" stroke="#000000" points="236.5,-609.2 236.5,-631.2 345.5,-631.2 345.5,-609.2 236.5,-609.2"/>
<text text-anchor="start" x="239.5" y="-616.9" font-family="Helvetica,sans-Serif" font-size="11.00" fill="#000000">int8[19]</text>
<polygon fill="#ffffff" stroke="transparent" points="10.5,-587.2 10.5,-609.2 236.5,-609.2 236.5,-587.2 10.5,-587.2"/>
<polygon fill="none" stroke="#000000" points="10.5,-587.2 10.5,-609.2 236.5,-609.2 236.5,-587.2 10.5,-587.2"/>
<text text-anchor="start" x="30.5" y="-594.3" font-family="Helvetica,sans-Serif" font-size="11.00" fill="#000000">paatason_suoritus_id</text>
<polygon fill="none" stroke="#000000" points="236.5,-587.2 236.5,-609.2 345.5,-609.2 345.5,-587.2 236.5,-587.2"/>
<text text-anchor="start" x="239.5" y="-594.9" font-family="Helvetica,sans-Serif" font-size="11.00" fill="#000000">int8[19]</text>
<polygon fill="#ffffff" stroke="transparent" points="10.5,-565.2 10.5,-587.2 236.5,-587.2 236.5,-565.2 10.5,-565.2"/>
<polygon fill="none" stroke="#000000" points="10.5,-565.2 10.5,-587.2 236.5,-587.2 236.5,-565.2 10.5,-565.2"/>
<text text-anchor="start" x="30.5" y="-572.3" font-family="Helvetica,sans-Serif" font-size="11.00" fill="#000000">opiskeluoikeus_oid</text>
<polygon fill="none" stroke="#000000" points="236.5,-565.2 236.5,-587.2 345.5,-587.2 345.5,-565.2 236.5,-565.2"/>
<text text-anchor="start" x="239.0344" y="-572.9" font-family="Helvetica,sans-Serif" font-size="11.00" fill="#000000">varchar[2147483647]</text>
<polygon fill="#ffffff" stroke="transparent" points="10.5,-543.2 10.5,-565.2 236.5,-565.2 236.5,-543.2 10.5,-543.2"/>
<polygon fill="none" stroke="#000000" points="10.5,-543.2 10.5,-565.2 236.5,-565.2 236.5,-543.2 10.5,-543.2"/>
<text text-anchor="start" x="30.5" y="-550.3" font-family="Helvetica,sans-Serif" font-size="11.00" fill="#000000">suorituksen_tyyppi</text>
<polygon fill="none" stroke="#000000" points="236.5,-543.2 236.5,-565.2 345.5,-565.2 345.5,-543.2 236.5,-543.2"/>
<text text-anchor="start" x="239.0344" y="-550.9" font-family="Helvetica,sans-Serif" font-size="11.00" fill="#000000">varchar[2147483647]</text>
<polygon fill="none" stroke="#000000" points="10.5,-521.2 10.5,-543.2 236.5,-543.2 236.5,-521.2 10.5,-521.2"/>
<text text-anchor="start" x="30.5" y="-528.3" font-family="Helvetica,sans-Serif" font-size="11.00" fill="#000000">koulutusmoduuli_koodisto</text>
<polygon fill="none" stroke="#000000" points="236.5,-521.2 236.5,-543.2 345.5,-543.2 345.5,-521.2 236.5,-521.2"/>
<text text-anchor="start" x="239.0344" y="-528.9" font-family="Helvetica,sans-Serif" font-size="11.00" fill="#000000">varchar[2147483647]</text>
<polygon fill="none" stroke="#000000" points="10.5,-499.2 10.5,-521.2 236.5,-521.2 236.5,-499.2 10.5,-499.2"/>
<text text-anchor="start" x="30.5" y="-506.3" font-family="Helvetica,sans-Serif" font-size="11.00" fill="#000000">koulutusmoduuli_koodiarvo</text>
<polygon fill="none" stroke="#000000" points="236.5,-499.2 236.5,-521.2 345.5,-521.2 345.5,-499.2 236.5,-499.2"/>
<text text-anchor="start" x="239.0344" y="-506.9" font-family="Helvetica,sans-Serif" font-size="11.00" fill="#000000">varchar[2147483647]</text>
<polygon fill="none" stroke="#000000" points="10.5,-477.2 10.5,-499.2 236.5,-499.2 236.5,-477.2 10.5,-477.2"/>
<text text-anchor="start" x="30.5" y="-484.3" font-family="Helvetica,sans-Serif" font-size="11.00" fill="#000000">koulutusmoduuli_laajuus_arvo</text>
<polygon fill="none" stroke="#000000" points="236.5,-477.2 236.5,-499.2 345.5,-499.2 345.5,-477.2 236.5,-477.2"/>
<text text-anchor="start" x="239.5" y="-484.9" font-family="Helvetica,sans-Serif" font-size="11.00" fill="#000000">numeric[0]</text>
<polygon fill="none" stroke="#000000" points="10.5,-455.2 10.5,-477.2 236.5,-477.2 236.5,-455.2 10.5,-455.2"/>
<text text-anchor="start" x="30.5" y="-462.3" font-family="Helvetica,sans-Serif" font-size="11.00" fill="#000000">koulutusmoduuli_laajuus_yksikko</text>
<polygon fill="none" stroke="#000000" points="236.5,-455.2 236.5,-477.2 345.5,-477.2 345.5,-455.2 236.5,-455.2"/>
<text text-anchor="start" x="239.0344" y="-462.9" font-family="Helvetica,sans-Serif" font-size="11.00" fill="#000000">varchar[2147483647]</text>
<polygon fill="none" stroke="#000000" points="10.5,-433.2 10.5,-455.2 236.5,-455.2 236.5,-433.2 10.5,-433.2"/>
<text text-anchor="start" x="30.5" y="-440.3" font-family="Helvetica,sans-Serif" font-size="11.00" fill="#000000">koulutusmoduuli_paikallinen</text>
<polygon fill="none" stroke="#000000" points="236.5,-433.2 236.5,-455.2 345.5,-455.2 345.5,-433.2 236.5,-433.2"/>
<text text-anchor="start" x="239.5" y="-440.9" font-family="Helvetica,sans-Serif" font-size="11.00" fill="#000000">bool[1]</text>
<polygon fill="none" stroke="#000000" points="10.5,-411.2 10.5,-433.2 236.5,-433.2 236.5,-411.2 10.5,-411.2"/>
<text text-anchor="start" x="30.5" y="-418.3" font-family="Helvetica,sans-Serif" font-size="11.00" fill="#000000">koulutusmoduuli_pakollinen</text>
<polygon fill="none" stroke="#000000" points="236.5,-411.2 236.5,-433.2 345.5,-433.2 345.5,-411.2 236.5,-411.2"/>
<text text-anchor="start" x="239.5" y="-418.9" font-family="Helvetica,sans-Serif" font-size="11.00" fill="#000000">bool[1]</text>
<polygon fill="none" stroke="#000000" points="10.5,-389.2 10.5,-411.2 236.5,-411.2 236.5,-389.2 10.5,-389.2"/>
<text text-anchor="start" x="30.5" y="-396.3" font-family="Helvetica,sans-Serif" font-size="11.00" fill="#000000">koulutusmoduuli_nimi</text>
<polygon fill="none" stroke="#000000" points="236.5,-389.2 236.5,-411.2 345.5,-411.2 345.5,-389.2 236.5,-389.2"/>
<text text-anchor="start" x="239.0344" y="-396.9" font-family="Helvetica,sans-Serif" font-size="11.00" fill="#000000">varchar[2147483647]</text>
<polygon fill="none" stroke="#000000" points="10.5,-367.2 10.5,-389.2 236.5,-389.2 236.5,-367.2 10.5,-367.2"/>
<text text-anchor="start" x="30.5" y="-374.3" font-family="Helvetica,sans-Serif" font-size="11.00" fill="#000000">koulutusmoduuli_oppimäärä_nimi</text>
<polygon fill="none" stroke="#000000" points="236.5,-367.2 236.5,-389.2 345.5,-389.2 345.5,-367.2 236.5,-367.2"/>
<text text-anchor="start" x="239.0344" y="-374.9" font-family="Helvetica,sans-Serif" font-size="11.00" fill="#000000">varchar[2147483647]</text>
<polygon fill="none" stroke="#000000" points="10.5,-345.2 10.5,-367.2 236.5,-367.2 236.5,-345.2 10.5,-345.2"/>
<text text-anchor="start" x="30.5" y="-352.3" font-family="Helvetica,sans-Serif" font-size="11.00" fill="#000000">koulutusmoduuli_kieliaine_nimi</text>
<polygon fill="none" stroke="#000000" points="236.5,-345.2 236.5,-367.2 345.5,-367.2 345.5,-345.2 236.5,-345.2"/>
<text text-anchor="start" x="239.0344" y="-352.9" font-family="Helvetica,sans-Serif" font-size="11.00" fill="#000000">varchar[2147483647]</text>
<polygon fill="none" stroke="#000000" points="10.5,-323.2 10.5,-345.2 236.5,-345.2 236.5,-323.2 10.5,-323.2"/>
<text text-anchor="start" x="30.5" y="-330.3" font-family="Helvetica,sans-Serif" font-size="11.00" fill="#000000">koulutusmoduuli_kurssin_tyyppi</text>
<polygon fill="none" stroke="#000000" points="236.5,-323.2 236.5,-345.2 345.5,-345.2 345.5,-323.2 236.5,-323.2"/>
<text text-anchor="start" x="239.0344" y="-330.9" font-family="Helvetica,sans-Serif" font-size="11.00" fill="#000000">varchar[2147483647]</text>
<polygon fill="none" stroke="#000000" points="10.5,-301.2 10.5,-323.2 236.5,-323.2 236.5,-301.2 10.5,-301.2"/>
<text text-anchor="start" x="30.5" y="-308.3" font-family="Helvetica,sans-Serif" font-size="11.00" fill="#000000">vahvistus_paiva</text>
<polygon fill="none" stroke="#000000" points="236.5,-301.2 236.5,-323.2 345.5,-323.2 345.5,-301.2 236.5,-301.2"/>
<text text-anchor="start" x="239.5" y="-308.9" font-family="Helvetica,sans-Serif" font-size="11.00" fill="#000000">date[13]</text>
<polygon fill="none" stroke="#000000" points="10.5,-279.2 10.5,-301.2 236.5,-301.2 236.5,-279.2 10.5,-279.2"/>
<text text-anchor="start" x="30.5" y="-286.3" font-family="Helvetica,sans-Serif" font-size="11.00" fill="#000000">arviointi_arvosana_koodiarvo</text>
<polygon fill="none" stroke="#000000" points="236.5,-279.2 236.5,-301.2 345.5,-301.2 345.5,-279.2 236.5,-279.2"/>
<text text-anchor="start" x="239.0344" y="-286.9" font-family="Helvetica,sans-Serif" font-size="11.00" fill="#000000">varchar[2147483647]</text>
<polygon fill="none" stroke="#000000" points="10.5,-257.2 10.5,-279.2 236.5,-279.2 236.5,-257.2 10.5,-257.2"/>
<text text-anchor="start" x="30.5" y="-264.3" font-family="Helvetica,sans-Serif" font-size="11.00" fill="#000000">arviointi_arvosana_koodisto</text>
<polygon fill="none" stroke="#000000" points="236.5,-257.2 236.5,-279.2 345.5,-279.2 345.5,-257.2 236.5,-257.2"/>
<text text-anchor="start" x="239.0344" y="-264.9" font-family="Helvetica,sans-Serif" font-size="11.00" fill="#000000">varchar[2147483647]</text>
<polygon fill="none" stroke="#000000" points="10.5,-235.2 10.5,-257.2 236.5,-257.2 236.5,-235.2 10.5,-235.2"/>
<text text-anchor="start" x="30.5" y="-242.3" font-family="Helvetica,sans-Serif" font-size="11.00" fill="#000000">arviointi_hyvaksytty</text>
<polygon fill="none" stroke="#000000" points="236.5,-235.2 236.5,-257.2 345.5,-257.2 345.5,-235.2 236.5,-235.2"/>
<text text-anchor="start" x="239.5" y="-242.9" font-family="Helvetica,sans-Serif" font-size="11.00" fill="#000000">bool[1]</text>
<polygon fill="#ffffff" stroke="transparent" points="10.5,-213.2 10.5,-235.2 236.5,-235.2 236.5,-213.2 10.5,-213.2"/>
<polygon fill="none" stroke="#000000" points="10.5,-213.2 10.5,-235.2 236.5,-235.2 236.5,-213.2 10.5,-213.2"/>
<text text-anchor="start" x="30.5" y="-220.3" font-family="Helvetica,sans-Serif" font-size="11.00" fill="#000000">arviointi_paiva</text>
<polygon fill="none" stroke="#000000" points="236.5,-213.2 236.5,-235.2 345.5,-235.2 345.5,-213.2 236.5,-213.2"/>
<text text-anchor="start" x="239.5" y="-220.9" font-family="Helvetica,sans-Serif" font-size="11.00" fill="#000000">date[13]</text>
<polygon fill="none" stroke="#000000" points="10.5,-191.2 10.5,-213.2 236.5,-213.2 236.5,-191.2 10.5,-191.2"/>
<text text-anchor="start" x="30.5" y="-198.3" font-family="Helvetica,sans-Serif" font-size="11.00" fill="#000000">ensimmainen_arviointi_paiva</text>
<polygon fill="none" stroke="#000000" points="236.5,-191.2 236.5,-213.2 345.5,-213.2 345.5,-191.2 236.5,-191.2"/>
<text text-anchor="start" x="239.5" y="-198.9" font-family="Helvetica,sans-Serif" font-size="11.00" fill="#000000">date[13]</text>
<polygon fill="none" stroke="#000000" points="10.5,-169.2 10.5,-191.2 236.5,-191.2 236.5,-169.2 10.5,-169.2"/>
<text text-anchor="start" x="30.5" y="-176.3" font-family="Helvetica,sans-Serif" font-size="11.00" fill="#000000">korotettu_eri_vuonna</text>
<polygon fill="none" stroke="#000000" points="236.5,-169.2 236.5,-191.2 345.5,-191.2 345.5,-169.2 236.5,-169.2"/>
<text text-anchor="start" x="239.5" y="-176.9" font-family="Helvetica,sans-Serif" font-size="11.00" fill="#000000">bool[1]</text>
<polygon fill="none" stroke="#000000" points="10.5,-147.2 10.5,-169.2 236.5,-169.2 236.5,-147.2 10.5,-147.2"/>
<text text-anchor="start" x="30.5" y="-154.3" font-family="Helvetica,sans-Serif" font-size="11.00" fill="#000000">nayton_arviointi_paiva</text>
<polygon fill="none" stroke="#000000" points="236.5,-147.2 236.5,-169.2 345.5,-169.2 345.5,-147.2 236.5,-147.2"/>
<text text-anchor="start" x="239.5" y="-154.9" font-family="Helvetica,sans-Serif" font-size="11.00" fill="#000000">date[13]</text>
<polygon fill="none" stroke="#000000" points="10.5,-125.2 10.5,-147.2 236.5,-147.2 236.5,-125.2 10.5,-125.2"/>
<text text-anchor="start" x="30.5" y="-132.3" font-family="Helvetica,sans-Serif" font-size="11.00" fill="#000000">tunnustettu</text>
<polygon fill="none" stroke="#000000" points="236.5,-125.2 236.5,-147.2 345.5,-147.2 345.5,-125.2 236.5,-125.2"/>
<text text-anchor="start" x="239.5" y="-132.9" font-family="Helvetica,sans-Serif" font-size="11.00" fill="#000000">bool[1]</text>
<polygon fill="none" stroke="#000000" points="10.5,-103.2 10.5,-125.2 236.5,-125.2 236.5,-103.2 10.5,-103.2"/>
<text text-anchor="start" x="30.5" y="-110.3" font-family="Helvetica,sans-Serif" font-size="11.00" fill="#000000">tunnustettu_rahoituksen_piirissa</text>
<polygon fill="none" stroke="#000000" points="236.5,-103.2 236.5,-125.2 345.5,-125.2 345.5,-103.2 236.5,-103.2"/>
<text text-anchor="start" x="239.5" y="-110.9" font-family="Helvetica,sans-Serif" font-size="11.00" fill="#000000">bool[1]</text>
<polygon fill="none" stroke="#000000" points="10.5,-81.2 10.5,-103.2 236.5,-103.2 236.5,-81.2 10.5,-81.2"/>
<text text-anchor="start" x="30.5" y="-88.3" font-family="Helvetica,sans-Serif" font-size="11.00" fill="#000000">data</text>
<polygon fill="none" stroke="#000000" points="236.5,-81.2 236.5,-103.2 345.5,-103.2 345.5,-81.2 236.5,-81.2"/>
<text text-anchor="start" x="239.5" y="-88.9" font-family="Helvetica,sans-Serif" font-size="11.00" fill="#000000">jsonb[2147483647]</text>
<polygon fill="#ffffff" stroke="transparent" points="10.5,-59.2 10.5,-81.2 236.5,-81.2 236.5,-59.2 10.5,-59.2"/>
<polygon fill="none" stroke="#000000" points="10.5,-59.2 10.5,-81.2 236.5,-81.2 236.5,-59.2 10.5,-59.2"/>
<text text-anchor="start" x="30.5" y="-66.3" font-family="Helvetica,sans-Serif" font-size="11.00" fill="#000000">sisaltyy_opiskeluoikeuteen_oid</text>
<polygon fill="none" stroke="#000000" points="236.5,-59.2 236.5,-81.2 345.5,-81.2 345.5,-59.2 236.5,-59.2"/>
<text text-anchor="start" x="239.0344" y="-66.9" font-family="Helvetica,sans-Serif" font-size="11.00" fill="#000000">varchar[2147483647]</text>
<polygon fill="#ffffff" stroke="transparent" points="10.5,-40.2 10.5,-59.2 104.5,-59.2 104.5,-40.2 10.5,-40.2"/>
<polygon fill="none" stroke="#000000" points="10.5,-40.2 10.5,-59.2 104.5,-59.2 104.5,-40.2 10.5,-40.2"/>
<text text-anchor="start" x="13.5" y="-46.3" font-family="Helvetica,sans-Serif" font-size="11.00" fill="#000000">&lt; 0</text>
<polygon fill="#ffffff" stroke="transparent" points="104.5,-40.2 104.5,-59.2 236.5,-59.2 236.5,-40.2 104.5,-40.2"/>
<polygon fill="none" stroke="#000000" points="104.5,-40.2 104.5,-59.2 236.5,-59.2 236.5,-40.2 104.5,-40.2"/>
<text text-anchor="start" x="179.7089" y="-46.3" font-family="Helvetica,sans-Serif" font-size="11.00" fill="#000000">9,008 rows</text>
<polygon fill="#ffffff" stroke="transparent" points="236.5,-40.2 236.5,-59.2 345.5,-59.2 345.5,-40.2 236.5,-40.2"/>
<polygon fill="none" stroke="#000000" points="236.5,-40.2 236.5,-59.2 345.5,-59.2 345.5,-40.2 236.5,-40.2"/>
<text text-anchor="start" x="326.9053" y="-46.3" font-family="Helvetica,sans-Serif" font-size="11.00" fill="#000000">0 &gt;</text>
<polygon fill="none" stroke="#000000" stroke-width="2" points="9,-39.2 9,-677.2 346,-677.2 346,-39.2 9,-39.2"/>
</a>
</g>
</g>
</g>
</svg>
