<?xml version="1.0" encoding="UTF-8" standalone="no"?>
<!DOCTYPE svg PUBLIC "-//W3C//DTD SVG 1.1//EN"
 "http://www.w3.org/Graphics/SVG/1.1/DTD/svg11.dtd">
<!-- Generated by graphviz version 2.40.1 (20161225.0304)
 -->
<!-- Title: oneDegreeRelationshipsDiagram Pages: 1 -->
<svg width="458pt" height="316pt"
 viewBox="0.00 0.00 458.00 316.20" xmlns="http://www.w3.org/2000/svg" xmlns:xlink="http://www.w3.org/1999/xlink">
<g id="graph0" class="graph" transform="scale(1 1) rotate(0) translate(4 312.2)">
<title>oneDegreeRelationshipsDiagram</title>
<polygon fill="#ffffff" stroke="transparent" points="-4,4 -4,-312.2 454,-312.2 454,4 -4,4"/>
<text text-anchor="middle" x="72.4936" y="-7.3" font-family="Helvetica,sans-Serif" font-size="11.00" fill="#000000">Generated by SchemaSpy</text>
<!-- r_osaamisen_hankkimistapa_ammatillinen -->
<g id="node1" class="node">
<title>r_osaamisen_hankkimistapa_ammatillinen</title>
<g id="a_node1"><a xlink:href="../../tables/r_osaamisen_hankkimistapa_ammatillinen.html" xlink:title="r_osaamisen_hankkimistapa_ammatillinen" target="_top">
<polygon fill="#ffffff" stroke="transparent" points="8,-38.2 8,-304.2 442,-304.2 442,-38.2 8,-38.2"/>
<polygon fill="#f5f5f5" stroke="transparent" points="10,-279.2 10,-302.2 440,-302.2 440,-279.2 10,-279.2"/>
<polygon fill="none" stroke="#000000" points="10,-279.2 10,-302.2 440,-302.2 440,-279.2 10,-279.2"/>
<text text-anchor="start" x="15" y="-287.8" font-family="Helvetica,sans-Serif" font-weight="bold" font-size="11.00" fill="#000000">r_osaamisen_hankkimistapa_ammatillinen</text>
<text text-anchor="start" x="405.0437" y="-287.3" font-family="Helvetica,sans-Serif" font-size="11.00" fill="#000000">[table]</text>
<polygon fill="#ffffff" stroke="transparent" points="10,-257.2 10,-279.2 331,-279.2 331,-257.2 10,-257.2"/>
<polygon fill="none" stroke="#000000" points="10,-257.2 10,-279.2 331,-279.2 331,-257.2 10,-257.2"/>
<text text-anchor="start" x="30" y="-264.3" font-family="Helvetica,sans-Serif" font-size="11.00" fill="#000000">opiskeluoikeus_oid</text>
<polygon fill="none" stroke="#000000" points="331,-257.2 331,-279.2 440,-279.2 440,-257.2 331,-257.2"/>
<text text-anchor="start" x="333.5344" y="-264.9" font-family="Helvetica,sans-Serif" font-size="11.00" fill="#000000">varchar[2147483647]</text>
<polygon fill="#ffffff" stroke="transparent" points="10,-235.2 10,-257.2 331,-257.2 331,-235.2 10,-235.2"/>
<polygon fill="none" stroke="#000000" points="10,-235.2 10,-257.2 331,-257.2 331,-235.2 10,-235.2"/>
<text text-anchor="start" x="30" y="-242.3" font-family="Helvetica,sans-Serif" font-size="11.00" fill="#000000">aikajakso_tyyppi</text>
<polygon fill="none" stroke="#000000" points="331,-235.2 331,-257.2 440,-257.2 440,-235.2 331,-235.2"/>
<text text-anchor="start" x="333.5344" y="-242.9" font-family="Helvetica,sans-Serif" font-size="11.00" fill="#000000">varchar[2147483647]</text>
<polygon fill="#ffffff" stroke="transparent" points="10,-213.2 10,-235.2 331,-235.2 331,-213.2 10,-213.2"/>
<polygon fill="none" stroke="#000000" points="10,-213.2 10,-235.2 331,-235.2 331,-213.2 10,-213.2"/>
<text text-anchor="start" x="30" y="-220.3" font-family="Helvetica,sans-Serif" font-size="11.00" fill="#000000">alku</text>
<polygon fill="none" stroke="#000000" points="331,-213.2 331,-235.2 440,-235.2 440,-213.2 331,-213.2"/>
<text text-anchor="start" x="334" y="-220.9" font-family="Helvetica,sans-Serif" font-size="11.00" fill="#000000">date[13]</text>
<polygon fill="#ffffff" stroke="transparent" points="10,-191.2 10,-213.2 331,-213.2 331,-191.2 10,-191.2"/>
<polygon fill="none" stroke="#000000" points="10,-191.2 10,-213.2 331,-213.2 331,-191.2 10,-191.2"/>
<text text-anchor="start" x="30" y="-198.3" font-family="Helvetica,sans-Serif" font-size="11.00" fill="#000000">loppu</text>
<polygon fill="none" stroke="#000000" points="331,-191.2 331,-213.2 440,-213.2 440,-191.2 331,-191.2"/>
<text text-anchor="start" x="334" y="-198.9" font-family="Helvetica,sans-Serif" font-size="11.00" fill="#000000">date[13]</text>
<polygon fill="none" stroke="#000000" points="10,-169.2 10,-191.2 331,-191.2 331,-169.2 10,-169.2"/>
<text text-anchor="start" x="30" y="-176.3" font-family="Helvetica,sans-Serif" font-size="11.00" fill="#000000">oppisopimus_oppimispaikan_y_tunnus</text>
<polygon fill="none" stroke="#000000" points="331,-169.2 331,-191.2 440,-191.2 440,-169.2 331,-169.2"/>
<text text-anchor="start" x="333.5344" y="-176.9" font-family="Helvetica,sans-Serif" font-size="11.00" fill="#000000">varchar[2147483647]</text>
<polygon fill="none" stroke="#000000" points="10,-147.2 10,-169.2 331,-169.2 331,-147.2 10,-147.2"/>
<text text-anchor="start" x="30" y="-154.3" font-family="Helvetica,sans-Serif" font-size="11.00" fill="#000000">oppisopimus_purkamisen_paiva_purettu_koeajalla</text>
<polygon fill="none" stroke="#000000" points="331,-147.2 331,-169.2 440,-169.2 440,-147.2 331,-147.2"/>
<text text-anchor="start" x="334" y="-154.9" font-family="Helvetica,sans-Serif" font-size="11.00" fill="#000000">date[13]</text>
<polygon fill="none" stroke="#000000" points="10,-125.2 10,-147.2 331,-147.2 331,-125.2 10,-125.2"/>
<text text-anchor="start" x="30" y="-132.3" font-family="Helvetica,sans-Serif" font-size="11.00" fill="#000000">oppisopimus_purettu_koeajalla</text>
<polygon fill="none" stroke="#000000" points="331,-125.2 331,-147.2 440,-147.2 440,-125.2 331,-125.2"/>
<text text-anchor="start" x="334" y="-132.9" font-family="Helvetica,sans-Serif" font-size="11.00" fill="#000000">bool[1]</text>
<polygon fill="none" stroke="#000000" points="10,-103.2 10,-125.2 331,-125.2 331,-103.2 10,-103.2"/>
<text text-anchor="start" x="30" y="-110.3" font-family="Helvetica,sans-Serif" font-size="11.00" fill="#000000">koulutussopimus_paikkakunta_koodiarvo</text>
<polygon fill="none" stroke="#000000" points="331,-103.2 331,-125.2 440,-125.2 440,-103.2 331,-103.2"/>
<text text-anchor="start" x="333.5344" y="-110.9" font-family="Helvetica,sans-Serif" font-size="11.00" fill="#000000">varchar[2147483647]</text>
<polygon fill="none" stroke="#000000" points="10,-81.2 10,-103.2 331,-103.2 331,-81.2 10,-81.2"/>
<text text-anchor="start" x="30" y="-88.3" font-family="Helvetica,sans-Serif" font-size="11.00" fill="#000000">koulutussopimus_maa_koodiarvo</text>
<polygon fill="none" stroke="#000000" points="331,-81.2 331,-103.2 440,-103.2 440,-81.2 331,-81.2"/>
<text text-anchor="start" x="333.5344" y="-88.9" font-family="Helvetica,sans-Serif" font-size="11.00" fill="#000000">varchar[2147483647]</text>
<polygon fill="none" stroke="#000000" points="10,-59.2 10,-81.2 331,-81.2 331,-59.2 10,-59.2"/>
<text text-anchor="start" x="30" y="-66.3" font-family="Helvetica,sans-Serif" font-size="11.00" fill="#000000">koulutussopimus_y_tunnus</text>
<polygon fill="none" stroke="#000000" points="331,-59.2 331,-81.2 440,-81.2 440,-59.2 331,-59.2"/>
<text text-anchor="start" x="333.5344" y="-66.9" font-family="Helvetica,sans-Serif" font-size="11.00" fill="#000000">varchar[2147483647]</text>
<polygon fill="#ffffff" stroke="transparent" points="10,-40.2 10,-59.2 162,-59.2 162,-40.2 10,-40.2"/>
<polygon fill="none" stroke="#000000" points="10,-40.2 10,-59.2 162,-59.2 162,-40.2 10,-40.2"/>
<text text-anchor="start" x="13" y="-46.3" font-family="Helvetica,sans-Serif" font-size="11.00" fill="#000000">&lt; 0</text>
<polygon fill="#ffffff" stroke="transparent" points="162,-40.2 162,-59.2 331,-59.2 331,-40.2 162,-40.2"/>
<polygon fill="none" stroke="#000000" points="162,-40.2 162,-59.2 331,-59.2 331,-40.2 162,-40.2"/>
<text text-anchor="start" x="295.6105" y="-46.3" font-family="Helvetica,sans-Serif" font-size="11.00" fill="#000000">9 rows</text>
<polygon fill="#ffffff" stroke="transparent" points="331,-40.2 331,-59.2 440,-59.2 440,-40.2 331,-40.2"/>
<polygon fill="none" stroke="#000000" points="331,-40.2 331,-59.2 440,-59.2 440,-40.2 331,-40.2"/>
<text text-anchor="start" x="421.4053" y="-46.3" font-family="Helvetica,sans-Serif" font-size="11.00" fill="#000000">0 &gt;</text>
<polygon fill="none" stroke="#000000" stroke-width="2" points="9,-39.2 9,-303.2 441,-303.2 441,-39.2 9,-39.2"/>
</a>
</g>
</g>
</g>
</svg>
