<?xml version="1.0" encoding="UTF-8" standalone="no"?>
<!DOCTYPE svg PUBLIC "-//W3C//DTD SVG 1.1//EN"
 "http://www.w3.org/Graphics/SVG/1.1/DTD/svg11.dtd">
<!-- Generated by graphviz version 2.40.1 (20161225.0304)
 -->
<!-- Title: oneDegreeRelationshipsDiagram Pages: 1 -->
<svg width="412pt" height="316pt"
 viewBox="0.00 0.00 412.00 316.20" xmlns="http://www.w3.org/2000/svg" xmlns:xlink="http://www.w3.org/1999/xlink">
<g id="graph0" class="graph" transform="scale(1 1) rotate(0) translate(4 312.2)">
<title>oneDegreeRelationshipsDiagram</title>
<polygon fill="#ffffff" stroke="transparent" points="-4,4 -4,-312.2 408,-312.2 408,4 -4,4"/>
<text text-anchor="middle" x="72.4936" y="-7.3" font-family="Helvetica,sans-Serif" font-size="11.00" fill="#000000">Generated by SchemaSpy</text>
<!-- r_osaamisen_hankkimistapa_ammatillinen -->
<g id="node1" class="node">
<title>r_osaamisen_hankkimistapa_ammatillinen</title>
<g id="a_node1"><a xlink:href="../../tables/r_osaamisen_hankkimistapa_ammatillinen.html" xlink:title="r_osaamisen_hankkimistapa_ammatillinen" target="_top">
<polygon fill="#ffffff" stroke="transparent" points="8,-38.2 8,-304.2 396,-304.2 396,-38.2 8,-38.2"/>
<polygon fill="#f5f5f5" stroke="transparent" points="10,-279.2 10,-302.2 394,-302.2 394,-279.2 10,-279.2"/>
<polygon fill="none" stroke="#000000" points="10,-279.2 10,-302.2 394,-302.2 394,-279.2 10,-279.2"/>
<text text-anchor="start" x="15" y="-287.8" font-family="Helvetica,sans-Serif" font-weight="bold" font-size="11.00" fill="#000000">r_osaamisen_hankkimistapa_ammatillinen</text>
<text text-anchor="start" x="359.0437" y="-287.3" font-family="Helvetica,sans-Serif" font-size="11.00" fill="#000000">[table]</text>
<polygon fill="#ffffff" stroke="transparent" points="10,-257.2 10,-279.2 285,-279.2 285,-257.2 10,-257.2"/>
<polygon fill="none" stroke="#000000" points="10,-257.2 10,-279.2 285,-279.2 285,-257.2 10,-257.2"/>
<text text-anchor="start" x="30" y="-264.3" font-family="Helvetica,sans-Serif" font-size="11.00" fill="#000000">opiskeluoikeus_oid</text>
<polygon fill="none" stroke="#000000" points="285,-257.2 285,-279.2 394,-279.2 394,-257.2 285,-257.2"/>
<text text-anchor="start" x="287.5344" y="-264.9" font-family="Helvetica,sans-Serif" font-size="11.00" fill="#000000">varchar[2147483647]</text>
<polygon fill="#ffffff" stroke="transparent" points="10,-235.2 10,-257.2 285,-257.2 285,-235.2 10,-235.2"/>
<polygon fill="none" stroke="#000000" points="10,-235.2 10,-257.2 285,-257.2 285,-235.2 10,-235.2"/>
<text text-anchor="start" x="30" y="-242.3" font-family="Helvetica,sans-Serif" font-size="11.00" fill="#000000">aikajakso_tyyppi</text>
<polygon fill="none" stroke="#000000" points="285,-235.2 285,-257.2 394,-257.2 394,-235.2 285,-235.2"/>
<text text-anchor="start" x="287.5344" y="-242.9" font-family="Helvetica,sans-Serif" font-size="11.00" fill="#000000">varchar[2147483647]</text>
<polygon fill="#ffffff" stroke="transparent" points="10,-213.2 10,-235.2 285,-235.2 285,-213.2 10,-213.2"/>
<polygon fill="none" stroke="#000000" points="10,-213.2 10,-235.2 285,-235.2 285,-213.2 10,-213.2"/>
<text text-anchor="start" x="30" y="-220.3" font-family="Helvetica,sans-Serif" font-size="11.00" fill="#000000">alku</text>
<polygon fill="none" stroke="#000000" points="285,-213.2 285,-235.2 394,-235.2 394,-213.2 285,-213.2"/>
<text text-anchor="start" x="288" y="-220.9" font-family="Helvetica,sans-Serif" font-size="11.00" fill="#000000">date[13]</text>
<polygon fill="#ffffff" stroke="transparent" points="10,-191.2 10,-213.2 285,-213.2 285,-191.2 10,-191.2"/>
<polygon fill="none" stroke="#000000" points="10,-191.2 10,-213.2 285,-213.2 285,-191.2 10,-191.2"/>
<text text-anchor="start" x="30" y="-198.3" font-family="Helvetica,sans-Serif" font-size="11.00" fill="#000000">loppu</text>
<polygon fill="none" stroke="#000000" points="285,-191.2 285,-213.2 394,-213.2 394,-191.2 285,-191.2"/>
<text text-anchor="start" x="288" y="-198.9" font-family="Helvetica,sans-Serif" font-size="11.00" fill="#000000">date[13]</text>
<polygon fill="none" stroke="#000000" points="10,-169.2 10,-191.2 285,-191.2 285,-169.2 10,-169.2"/>
<text text-anchor="start" x="30" y="-176.3" font-family="Helvetica,sans-Serif" font-size="11.00" fill="#000000">oppisopimus_oppimispaikan_y_tunnus</text>
<polygon fill="none" stroke="#000000" points="285,-169.2 285,-191.2 394,-191.2 394,-169.2 285,-169.2"/>
<text text-anchor="start" x="287.5344" y="-176.9" font-family="Helvetica,sans-Serif" font-size="11.00" fill="#000000">varchar[2147483647]</text>
<polygon fill="none" stroke="#000000" points="10,-147.2 10,-169.2 285,-169.2 285,-147.2 10,-147.2"/>
<text text-anchor="start" x="30" y="-154.3" font-family="Helvetica,sans-Serif" font-size="11.00" fill="#000000">oppisopimus_purkamisen_paiva</text>
<polygon fill="none" stroke="#000000" points="285,-147.2 285,-169.2 394,-169.2 394,-147.2 285,-147.2"/>
<text text-anchor="start" x="288" y="-154.9" font-family="Helvetica,sans-Serif" font-size="11.00" fill="#000000">date[13]</text>
<polygon fill="none" stroke="#000000" points="10,-125.2 10,-147.2 285,-147.2 285,-125.2 10,-125.2"/>
<text text-anchor="start" x="30" y="-132.3" font-family="Helvetica,sans-Serif" font-size="11.00" fill="#000000">oppisopimus_purettu_koeajalla</text>
<polygon fill="none" stroke="#000000" points="285,-125.2 285,-147.2 394,-147.2 394,-125.2 285,-125.2"/>
<text text-anchor="start" x="288" y="-132.9" font-family="Helvetica,sans-Serif" font-size="11.00" fill="#000000">bool[1]</text>
<polygon fill="none" stroke="#000000" points="10,-103.2 10,-125.2 285,-125.2 285,-103.2 10,-103.2"/>
<text text-anchor="start" x="30" y="-110.3" font-family="Helvetica,sans-Serif" font-size="11.00" fill="#000000">koulutussopimus_paikkakunta_koodiarvo</text>
<polygon fill="none" stroke="#000000" points="285,-103.2 285,-125.2 394,-125.2 394,-103.2 285,-103.2"/>
<text text-anchor="start" x="287.5344" y="-110.9" font-family="Helvetica,sans-Serif" font-size="11.00" fill="#000000">varchar[2147483647]</text>
<polygon fill="none" stroke="#000000" points="10,-81.2 10,-103.2 285,-103.2 285,-81.2 10,-81.2"/>
<text text-anchor="start" x="30" y="-88.3" font-family="Helvetica,sans-Serif" font-size="11.00" fill="#000000">koulutussopimus_maa_koodiarvo</text>
<polygon fill="none" stroke="#000000" points="285,-81.2 285,-103.2 394,-103.2 394,-81.2 285,-81.2"/>
<text text-anchor="start" x="287.5344" y="-88.9" font-family="Helvetica,sans-Serif" font-size="11.00" fill="#000000">varchar[2147483647]</text>
<polygon fill="none" stroke="#000000" points="10,-59.2 10,-81.2 285,-81.2 285,-59.2 10,-59.2"/>
<text text-anchor="start" x="30" y="-66.3" font-family="Helvetica,sans-Serif" font-size="11.00" fill="#000000">koulutussopimus_y_tunnus</text>
<polygon fill="none" stroke="#000000" points="285,-59.2 285,-81.2 394,-81.2 394,-59.2 285,-59.2"/>
<text text-anchor="start" x="287.5344" y="-66.9" font-family="Helvetica,sans-Serif" font-size="11.00" fill="#000000">varchar[2147483647]</text>
<polygon fill="#ffffff" stroke="transparent" points="10,-40.2 10,-59.2 139,-59.2 139,-40.2 10,-40.2"/>
<polygon fill="none" stroke="#000000" points="10,-40.2 10,-59.2 139,-59.2 139,-40.2 10,-40.2"/>
<text text-anchor="start" x="13" y="-46.3" font-family="Helvetica,sans-Serif" font-size="11.00" fill="#000000">&lt; 0</text>
<polygon fill="#ffffff" stroke="transparent" points="139,-40.2 139,-59.2 285,-59.2 285,-40.2 139,-40.2"/>
<polygon fill="none" stroke="#000000" points="139,-40.2 139,-59.2 285,-59.2 285,-40.2 139,-40.2"/>
<text text-anchor="start" x="249.6105" y="-46.3" font-family="Helvetica,sans-Serif" font-size="11.00" fill="#000000">9 rows</text>
<polygon fill="#ffffff" stroke="transparent" points="285,-40.2 285,-59.2 394,-59.2 394,-40.2 285,-40.2"/>
<polygon fill="none" stroke="#000000" points="285,-40.2 285,-59.2 394,-59.2 394,-40.2 285,-40.2"/>
<text text-anchor="start" x="375.4053" y="-46.3" font-family="Helvetica,sans-Serif" font-size="11.00" fill="#000000">0 &gt;</text>
<polygon fill="none" stroke="#000000" stroke-width="2" points="9,-39.2 9,-303.2 395,-303.2 395,-39.2 9,-39.2"/>
</a>
</g>
</g>
</g>
</svg>
