<?xml version="1.0" encoding="UTF-8" standalone="no"?>
<!DOCTYPE svg PUBLIC "-//W3C//DTD SVG 1.1//EN"
 "http://www.w3.org/Graphics/SVG/1.1/DTD/svg11.dtd">
<!-- Generated by graphviz version 2.40.1 (20161225.0304)
 -->
<!-- Title: oneDegreeRelationshipsDiagram Pages: 1 -->
<svg width="401pt" height="316pt"
 viewBox="0.00 0.00 401.00 316.20" xmlns="http://www.w3.org/2000/svg" xmlns:xlink="http://www.w3.org/1999/xlink">
<g id="graph0" class="graph" transform="scale(1 1) rotate(0) translate(4 312.2)">
<title>oneDegreeRelationshipsDiagram</title>
<polygon fill="#ffffff" stroke="transparent" points="-4,4 -4,-312.2 397,-312.2 397,4 -4,4"/>
<text text-anchor="middle" x="72.4936" y="-7.3" font-family="Helvetica,sans-Serif" font-size="11.00" fill="#000000">Generated by SchemaSpy</text>
<!-- r_osaamisen_hankkimistapa_ammatillinen -->
<g id="node1" class="node">
<title>r_osaamisen_hankkimistapa_ammatillinen</title>
<g id="a_node1"><a xlink:href="../../tables/r_osaamisen_hankkimistapa_ammatillinen.html" xlink:title="r_osaamisen_hankkimistapa_ammatillinen" target="_top">
<polygon fill="#ffffff" stroke="transparent" points="8,-38.2 8,-304.2 385,-304.2 385,-38.2 8,-38.2"/>
<polygon fill="#f5f5f5" stroke="transparent" points="10.5,-279.2 10.5,-302.2 383.5,-302.2 383.5,-279.2 10.5,-279.2"/>
<polygon fill="none" stroke="#000000" points="10.5,-279.2 10.5,-302.2 383.5,-302.2 383.5,-279.2 10.5,-279.2"/>
<text text-anchor="start" x="15.5" y="-287.8" font-family="Helvetica,sans-Serif" font-weight="bold" font-size="11.00" fill="#000000">r_osaamisen_hankkimistapa_ammatillinen</text>
<text text-anchor="start" x="348.5437" y="-287.3" font-family="Helvetica,sans-Serif" font-size="11.00" fill="#000000">[table]</text>
<polygon fill="#ffffff" stroke="transparent" points="10.5,-257.2 10.5,-279.2 274.5,-279.2 274.5,-257.2 10.5,-257.2"/>
<polygon fill="none" stroke="#000000" points="10.5,-257.2 10.5,-279.2 274.5,-279.2 274.5,-257.2 10.5,-257.2"/>
<text text-anchor="start" x="30.5" y="-264.3" font-family="Helvetica,sans-Serif" font-size="11.00" fill="#000000">opiskeluoikeus_oid</text>
<polygon fill="none" stroke="#000000" points="274.5,-257.2 274.5,-279.2 383.5,-279.2 383.5,-257.2 274.5,-257.2"/>
<text text-anchor="start" x="277.0344" y="-264.9" font-family="Helvetica,sans-Serif" font-size="11.00" fill="#000000">varchar[2147483647]</text>
<polygon fill="#ffffff" stroke="transparent" points="10.5,-235.2 10.5,-257.2 274.5,-257.2 274.5,-235.2 10.5,-235.2"/>
<polygon fill="none" stroke="#000000" points="10.5,-235.2 10.5,-257.2 274.5,-257.2 274.5,-235.2 10.5,-235.2"/>
<text text-anchor="start" x="30.5" y="-242.3" font-family="Helvetica,sans-Serif" font-size="11.00" fill="#000000">aikajakso_tyyppi</text>
<polygon fill="none" stroke="#000000" points="274.5,-235.2 274.5,-257.2 383.5,-257.2 383.5,-235.2 274.5,-235.2"/>
<text text-anchor="start" x="277.0344" y="-242.9" font-family="Helvetica,sans-Serif" font-size="11.00" fill="#000000">varchar[2147483647]</text>
<polygon fill="#ffffff" stroke="transparent" points="10.5,-213.2 10.5,-235.2 274.5,-235.2 274.5,-213.2 10.5,-213.2"/>
<polygon fill="none" stroke="#000000" points="10.5,-213.2 10.5,-235.2 274.5,-235.2 274.5,-213.2 10.5,-213.2"/>
<text text-anchor="start" x="30.5" y="-220.3" font-family="Helvetica,sans-Serif" font-size="11.00" fill="#000000">alku</text>
<polygon fill="none" stroke="#000000" points="274.5,-213.2 274.5,-235.2 383.5,-235.2 383.5,-213.2 274.5,-213.2"/>
<text text-anchor="start" x="277.5" y="-220.9" font-family="Helvetica,sans-Serif" font-size="11.00" fill="#000000">date[13]</text>
<polygon fill="#ffffff" stroke="transparent" points="10.5,-191.2 10.5,-213.2 274.5,-213.2 274.5,-191.2 10.5,-191.2"/>
<polygon fill="none" stroke="#000000" points="10.5,-191.2 10.5,-213.2 274.5,-213.2 274.5,-191.2 10.5,-191.2"/>
<text text-anchor="start" x="30.5" y="-198.3" font-family="Helvetica,sans-Serif" font-size="11.00" fill="#000000">loppu</text>
<polygon fill="none" stroke="#000000" points="274.5,-191.2 274.5,-213.2 383.5,-213.2 383.5,-191.2 274.5,-191.2"/>
<text text-anchor="start" x="277.5" y="-198.9" font-family="Helvetica,sans-Serif" font-size="11.00" fill="#000000">date[13]</text>
<polygon fill="none" stroke="#000000" points="10.5,-169.2 10.5,-191.2 274.5,-191.2 274.5,-169.2 10.5,-169.2"/>
<text text-anchor="start" x="30.5" y="-176.3" font-family="Helvetica,sans-Serif" font-size="11.00" fill="#000000">oppisopimus_oppimispaikan_y_tunnus</text>
<polygon fill="none" stroke="#000000" points="274.5,-169.2 274.5,-191.2 383.5,-191.2 383.5,-169.2 274.5,-169.2"/>
<text text-anchor="start" x="277.0344" y="-176.9" font-family="Helvetica,sans-Serif" font-size="11.00" fill="#000000">varchar[2147483647]</text>
<polygon fill="none" stroke="#000000" points="10.5,-147.2 10.5,-169.2 274.5,-169.2 274.5,-147.2 10.5,-147.2"/>
<text text-anchor="start" x="30.5" y="-154.3" font-family="Helvetica,sans-Serif" font-size="11.00" fill="#000000">oppisopimus_purkamisen_paiva</text>
<polygon fill="none" stroke="#000000" points="274.5,-147.2 274.5,-169.2 383.5,-169.2 383.5,-147.2 274.5,-147.2"/>
<text text-anchor="start" x="277.5" y="-154.9" font-family="Helvetica,sans-Serif" font-size="11.00" fill="#000000">date[13]</text>
<polygon fill="none" stroke="#000000" points="10.5,-125.2 10.5,-147.2 274.5,-147.2 274.5,-125.2 10.5,-125.2"/>
<text text-anchor="start" x="30.5" y="-132.3" font-family="Helvetica,sans-Serif" font-size="11.00" fill="#000000">oppisopimus_purettu_koeajalla</text>
<polygon fill="none" stroke="#000000" points="274.5,-125.2 274.5,-147.2 383.5,-147.2 383.5,-125.2 274.5,-125.2"/>
<text text-anchor="start" x="277.5" y="-132.9" font-family="Helvetica,sans-Serif" font-size="11.00" fill="#000000">bool[1]</text>
<polygon fill="none" stroke="#000000" points="10.5,-103.2 10.5,-125.2 274.5,-125.2 274.5,-103.2 10.5,-103.2"/>
<text text-anchor="start" x="30.5" y="-110.3" font-family="Helvetica,sans-Serif" font-size="11.00" fill="#000000">koulutussopimus_paikkakunta_koodiarvo</text>
<polygon fill="none" stroke="#000000" points="274.5,-103.2 274.5,-125.2 383.5,-125.2 383.5,-103.2 274.5,-103.2"/>
<text text-anchor="start" x="277.0344" y="-110.9" font-family="Helvetica,sans-Serif" font-size="11.00" fill="#000000">varchar[2147483647]</text>
<polygon fill="none" stroke="#000000" points="10.5,-81.2 10.5,-103.2 274.5,-103.2 274.5,-81.2 10.5,-81.2"/>
<text text-anchor="start" x="30.5" y="-88.3" font-family="Helvetica,sans-Serif" font-size="11.00" fill="#000000">koulutussopimus_maa_koodiarvo</text>
<polygon fill="none" stroke="#000000" points="274.5,-81.2 274.5,-103.2 383.5,-103.2 383.5,-81.2 274.5,-81.2"/>
<text text-anchor="start" x="277.0344" y="-88.9" font-family="Helvetica,sans-Serif" font-size="11.00" fill="#000000">varchar[2147483647]</text>
<polygon fill="none" stroke="#000000" points="10.5,-59.2 10.5,-81.2 274.5,-81.2 274.5,-59.2 10.5,-59.2"/>
<text text-anchor="start" x="30.5" y="-66.3" font-family="Helvetica,sans-Serif" font-size="11.00" fill="#000000">koulutussopimus_y_tunnus</text>
<polygon fill="none" stroke="#000000" points="274.5,-59.2 274.5,-81.2 383.5,-81.2 383.5,-59.2 274.5,-59.2"/>
<text text-anchor="start" x="277.0344" y="-66.9" font-family="Helvetica,sans-Serif" font-size="11.00" fill="#000000">varchar[2147483647]</text>
<polygon fill="#ffffff" stroke="transparent" points="10.5,-40.2 10.5,-59.2 133.5,-59.2 133.5,-40.2 10.5,-40.2"/>
<polygon fill="none" stroke="#000000" points="10.5,-40.2 10.5,-59.2 133.5,-59.2 133.5,-40.2 10.5,-40.2"/>
<text text-anchor="start" x="13.5" y="-46.3" font-family="Helvetica,sans-Serif" font-size="11.00" fill="#000000">&lt; 0</text>
<polygon fill="#ffffff" stroke="transparent" points="133.5,-40.2 133.5,-59.2 274.5,-59.2 274.5,-40.2 133.5,-40.2"/>
<polygon fill="none" stroke="#000000" points="133.5,-40.2 133.5,-59.2 274.5,-59.2 274.5,-40.2 133.5,-40.2"/>
<text text-anchor="start" x="239.1105" y="-46.3" font-family="Helvetica,sans-Serif" font-size="11.00" fill="#000000">9 rows</text>
<polygon fill="#ffffff" stroke="transparent" points="274.5,-40.2 274.5,-59.2 383.5,-59.2 383.5,-40.2 274.5,-40.2"/>
<polygon fill="none" stroke="#000000" points="274.5,-40.2 274.5,-59.2 383.5,-59.2 383.5,-40.2 274.5,-40.2"/>
<text text-anchor="start" x="364.9053" y="-46.3" font-family="Helvetica,sans-Serif" font-size="11.00" fill="#000000">0 &gt;</text>
<polygon fill="none" stroke="#000000" stroke-width="2" points="9,-39.2 9,-303.2 384,-303.2 384,-39.2 9,-39.2"/>
</a>
</g>
</g>
</g>
</svg>
