<?xml version="1.0" encoding="UTF-8" standalone="no"?>
<!DOCTYPE svg PUBLIC "-//W3C//DTD SVG 1.1//EN"
 "http://www.w3.org/Graphics/SVG/1.1/DTD/svg11.dtd">
<!-- Generated by graphviz version 2.40.1 (20161225.0304)
 -->
<!-- Title: oneDegreeRelationshipsDiagram Pages: 1 -->
<svg width="362pt" height="712pt"
 viewBox="0.00 0.00 362.00 712.20" xmlns="http://www.w3.org/2000/svg" xmlns:xlink="http://www.w3.org/1999/xlink">
<g id="graph0" class="graph" transform="scale(1 1) rotate(0) translate(4 708.2)">
<title>oneDegreeRelationshipsDiagram</title>
<polygon fill="#ffffff" stroke="transparent" points="-4,4 -4,-708.2 358,-708.2 358,4 -4,4"/>
<text text-anchor="middle" x="72.4936" y="-7.3" font-family="Helvetica,sans-Serif" font-size="11.00" fill="#000000">Generated by SchemaSpy</text>
<!-- r_osasuoritus -->
<g id="node1" class="node">
<title>r_osasuoritus</title>
<g id="a_node1"><a xlink:href="../../tables/r_osasuoritus.html" xlink:title="r_osasuoritus" target="_top">
<polygon fill="#ffffff" stroke="transparent" points="8,-38.2 8,-700.2 346,-700.2 346,-38.2 8,-38.2"/>
<polygon fill="#f5f5f5" stroke="transparent" points="10,-675.2 10,-698.2 344,-698.2 344,-675.2 10,-675.2"/>
<polygon fill="none" stroke="#000000" points="10,-675.2 10,-698.2 344,-698.2 344,-675.2 10,-675.2"/>
<text text-anchor="start" x="15" y="-683.8" font-family="Helvetica,sans-Serif" font-weight="bold" font-size="11.00" fill="#000000">r_osasuoritus</text>
<text text-anchor="start" x="309.0437" y="-683.3" font-family="Helvetica,sans-Serif" font-size="11.00" fill="#000000">[table]</text>
<polygon fill="none" stroke="#000000" points="10,-653.2 10,-675.2 235,-675.2 235,-653.2 10,-653.2"/>
<image xlink:href="../../images/primaryKeys.png" width="11px" height="12px" preserveAspectRatio="xMinYMin meet" x="15" y="-670.2"/>
<text text-anchor="start" x="30" y="-660.3" font-family="Helvetica,sans-Serif" font-size="11.00" fill="#000000">osasuoritus_id</text>
<polygon fill="none" stroke="#000000" points="235,-653.2 235,-675.2 344,-675.2 344,-653.2 235,-653.2"/>
<text text-anchor="start" x="238" y="-660.9" font-family="Helvetica,sans-Serif" font-size="11.00" fill="#000000">int8[19]</text>
<polygon fill="#ffffff" stroke="transparent" points="10,-631.2 10,-653.2 235,-653.2 235,-631.2 10,-631.2"/>
<polygon fill="none" stroke="#000000" points="10,-631.2 10,-653.2 235,-653.2 235,-631.2 10,-631.2"/>
<text text-anchor="start" x="30" y="-638.3" font-family="Helvetica,sans-Serif" font-size="11.00" fill="#000000">ylempi_osasuoritus_id</text>
<polygon fill="none" stroke="#000000" points="235,-631.2 235,-653.2 344,-653.2 344,-631.2 235,-631.2"/>
<text text-anchor="start" x="238" y="-638.9" font-family="Helvetica,sans-Serif" font-size="11.00" fill="#000000">int8[19]</text>
<polygon fill="#ffffff" stroke="transparent" points="10,-609.2 10,-631.2 235,-631.2 235,-609.2 10,-609.2"/>
<polygon fill="none" stroke="#000000" points="10,-609.2 10,-631.2 235,-631.2 235,-609.2 10,-609.2"/>
<text text-anchor="start" x="30" y="-616.3" font-family="Helvetica,sans-Serif" font-size="11.00" fill="#000000">paatason_suoritus_id</text>
<polygon fill="none" stroke="#000000" points="235,-609.2 235,-631.2 344,-631.2 344,-609.2 235,-609.2"/>
<text text-anchor="start" x="238" y="-616.9" font-family="Helvetica,sans-Serif" font-size="11.00" fill="#000000">int8[19]</text>
<polygon fill="#ffffff" stroke="transparent" points="10,-587.2 10,-609.2 235,-609.2 235,-587.2 10,-587.2"/>
<polygon fill="none" stroke="#000000" points="10,-587.2 10,-609.2 235,-609.2 235,-587.2 10,-587.2"/>
<text text-anchor="start" x="30" y="-594.3" font-family="Helvetica,sans-Serif" font-size="11.00" fill="#000000">opiskeluoikeus_oid</text>
<polygon fill="none" stroke="#000000" points="235,-587.2 235,-609.2 344,-609.2 344,-587.2 235,-587.2"/>
<text text-anchor="start" x="237.5344" y="-594.9" font-family="Helvetica,sans-Serif" font-size="11.00" fill="#000000">varchar[2147483647]</text>
<polygon fill="#ffffff" stroke="transparent" points="10,-565.2 10,-587.2 235,-587.2 235,-565.2 10,-565.2"/>
<polygon fill="none" stroke="#000000" points="10,-565.2 10,-587.2 235,-587.2 235,-565.2 10,-565.2"/>
<text text-anchor="start" x="30" y="-572.3" font-family="Helvetica,sans-Serif" font-size="11.00" fill="#000000">suorituksen_tyyppi</text>
<polygon fill="none" stroke="#000000" points="235,-565.2 235,-587.2 344,-587.2 344,-565.2 235,-565.2"/>
<text text-anchor="start" x="237.5344" y="-572.9" font-family="Helvetica,sans-Serif" font-size="11.00" fill="#000000">varchar[2147483647]</text>
<polygon fill="none" stroke="#000000" points="10,-543.2 10,-565.2 235,-565.2 235,-543.2 10,-543.2"/>
<text text-anchor="start" x="30" y="-550.3" font-family="Helvetica,sans-Serif" font-size="11.00" fill="#000000">koulutusmoduuli_koodisto</text>
<polygon fill="none" stroke="#000000" points="235,-543.2 235,-565.2 344,-565.2 344,-543.2 235,-543.2"/>
<text text-anchor="start" x="237.5344" y="-550.9" font-family="Helvetica,sans-Serif" font-size="11.00" fill="#000000">varchar[2147483647]</text>
<polygon fill="none" stroke="#000000" points="10,-521.2 10,-543.2 235,-543.2 235,-521.2 10,-521.2"/>
<text text-anchor="start" x="30" y="-528.3" font-family="Helvetica,sans-Serif" font-size="11.00" fill="#000000">koulutusmoduuli_koodiarvo</text>
<polygon fill="none" stroke="#000000" points="235,-521.2 235,-543.2 344,-543.2 344,-521.2 235,-521.2"/>
<text text-anchor="start" x="237.5344" y="-528.9" font-family="Helvetica,sans-Serif" font-size="11.00" fill="#000000">varchar[2147483647]</text>
<polygon fill="none" stroke="#000000" points="10,-499.2 10,-521.2 235,-521.2 235,-499.2 10,-499.2"/>
<text text-anchor="start" x="30" y="-506.3" font-family="Helvetica,sans-Serif" font-size="11.00" fill="#000000">koulutusmoduuli_laajuus_arvo</text>
<polygon fill="none" stroke="#000000" points="235,-499.2 235,-521.2 344,-521.2 344,-499.2 235,-499.2"/>
<text text-anchor="start" x="238" y="-506.9" font-family="Helvetica,sans-Serif" font-size="11.00" fill="#000000">numeric[0]</text>
<polygon fill="none" stroke="#000000" points="10,-477.2 10,-499.2 235,-499.2 235,-477.2 10,-477.2"/>
<text text-anchor="start" x="30" y="-484.3" font-family="Helvetica,sans-Serif" font-size="11.00" fill="#000000">koulutusmoduuli_laajuus_yksikko</text>
<polygon fill="none" stroke="#000000" points="235,-477.2 235,-499.2 344,-499.2 344,-477.2 235,-477.2"/>
<text text-anchor="start" x="237.5344" y="-484.9" font-family="Helvetica,sans-Serif" font-size="11.00" fill="#000000">varchar[2147483647]</text>
<polygon fill="none" stroke="#000000" points="10,-455.2 10,-477.2 235,-477.2 235,-455.2 10,-455.2"/>
<text text-anchor="start" x="30" y="-462.3" font-family="Helvetica,sans-Serif" font-size="11.00" fill="#000000">koulutusmoduuli_paikallinen</text>
<polygon fill="none" stroke="#000000" points="235,-455.2 235,-477.2 344,-477.2 344,-455.2 235,-455.2"/>
<text text-anchor="start" x="238" y="-462.9" font-family="Helvetica,sans-Serif" font-size="11.00" fill="#000000">bool[1]</text>
<polygon fill="none" stroke="#000000" points="10,-433.2 10,-455.2 235,-455.2 235,-433.2 10,-433.2"/>
<text text-anchor="start" x="30" y="-440.3" font-family="Helvetica,sans-Serif" font-size="11.00" fill="#000000">koulutusmoduuli_pakollinen</text>
<polygon fill="none" stroke="#000000" points="235,-433.2 235,-455.2 344,-455.2 344,-433.2 235,-433.2"/>
<text text-anchor="start" x="238" y="-440.9" font-family="Helvetica,sans-Serif" font-size="11.00" fill="#000000">bool[1]</text>
<polygon fill="none" stroke="#000000" points="10,-411.2 10,-433.2 235,-433.2 235,-411.2 10,-411.2"/>
<text text-anchor="start" x="30" y="-418.3" font-family="Helvetica,sans-Serif" font-size="11.00" fill="#000000">koulutusmoduuli_nimi</text>
<polygon fill="none" stroke="#000000" points="235,-411.2 235,-433.2 344,-433.2 344,-411.2 235,-411.2"/>
<text text-anchor="start" x="237.5344" y="-418.9" font-family="Helvetica,sans-Serif" font-size="11.00" fill="#000000">varchar[2147483647]</text>
<polygon fill="none" stroke="#000000" points="10,-389.2 10,-411.2 235,-411.2 235,-389.2 10,-389.2"/>
<text text-anchor="start" x="30" y="-396.3" font-family="Helvetica,sans-Serif" font-size="11.00" fill="#000000">koulutusmoduuli_oppimäärä_nimi</text>
<polygon fill="none" stroke="#000000" points="235,-389.2 235,-411.2 344,-411.2 344,-389.2 235,-389.2"/>
<text text-anchor="start" x="237.5344" y="-396.9" font-family="Helvetica,sans-Serif" font-size="11.00" fill="#000000">varchar[2147483647]</text>
<polygon fill="none" stroke="#000000" points="10,-367.2 10,-389.2 235,-389.2 235,-367.2 10,-367.2"/>
<text text-anchor="start" x="30" y="-374.3" font-family="Helvetica,sans-Serif" font-size="11.00" fill="#000000">koulutusmoduuli_kieliaine_nimi</text>
<polygon fill="none" stroke="#000000" points="235,-367.2 235,-389.2 344,-389.2 344,-367.2 235,-367.2"/>
<text text-anchor="start" x="237.5344" y="-374.9" font-family="Helvetica,sans-Serif" font-size="11.00" fill="#000000">varchar[2147483647]</text>
<polygon fill="none" stroke="#000000" points="10,-345.2 10,-367.2 235,-367.2 235,-345.2 10,-345.2"/>
<text text-anchor="start" x="30" y="-352.3" font-family="Helvetica,sans-Serif" font-size="11.00" fill="#000000">koulutusmoduuli_kurssin_tyyppi</text>
<polygon fill="none" stroke="#000000" points="235,-345.2 235,-367.2 344,-367.2 344,-345.2 235,-345.2"/>
<text text-anchor="start" x="237.5344" y="-352.9" font-family="Helvetica,sans-Serif" font-size="11.00" fill="#000000">varchar[2147483647]</text>
<polygon fill="none" stroke="#000000" points="10,-323.2 10,-345.2 235,-345.2 235,-323.2 10,-323.2"/>
<text text-anchor="start" x="30" y="-330.3" font-family="Helvetica,sans-Serif" font-size="11.00" fill="#000000">vahvistus_paiva</text>
<polygon fill="none" stroke="#000000" points="235,-323.2 235,-345.2 344,-345.2 344,-323.2 235,-323.2"/>
<text text-anchor="start" x="238" y="-330.9" font-family="Helvetica,sans-Serif" font-size="11.00" fill="#000000">date[13]</text>
<polygon fill="none" stroke="#000000" points="10,-301.2 10,-323.2 235,-323.2 235,-301.2 10,-301.2"/>
<text text-anchor="start" x="30" y="-308.3" font-family="Helvetica,sans-Serif" font-size="11.00" fill="#000000">arviointi_arvosana_koodiarvo</text>
<polygon fill="none" stroke="#000000" points="235,-301.2 235,-323.2 344,-323.2 344,-301.2 235,-301.2"/>
<text text-anchor="start" x="237.5344" y="-308.9" font-family="Helvetica,sans-Serif" font-size="11.00" fill="#000000">varchar[2147483647]</text>
<polygon fill="none" stroke="#000000" points="10,-279.2 10,-301.2 235,-301.2 235,-279.2 10,-279.2"/>
<text text-anchor="start" x="30" y="-286.3" font-family="Helvetica,sans-Serif" font-size="11.00" fill="#000000">arviointi_arvosana_koodisto</text>
<polygon fill="none" stroke="#000000" points="235,-279.2 235,-301.2 344,-301.2 344,-279.2 235,-279.2"/>
<text text-anchor="start" x="237.5344" y="-286.9" font-family="Helvetica,sans-Serif" font-size="11.00" fill="#000000">varchar[2147483647]</text>
<polygon fill="none" stroke="#000000" points="10,-257.2 10,-279.2 235,-279.2 235,-257.2 10,-257.2"/>
<text text-anchor="start" x="30" y="-264.3" font-family="Helvetica,sans-Serif" font-size="11.00" fill="#000000">arviointi_hyvaksytty</text>
<polygon fill="none" stroke="#000000" points="235,-257.2 235,-279.2 344,-279.2 344,-257.2 235,-257.2"/>
<text text-anchor="start" x="238" y="-264.9" font-family="Helvetica,sans-Serif" font-size="11.00" fill="#000000">bool[1]</text>
<polygon fill="#ffffff" stroke="transparent" points="10,-235.2 10,-257.2 235,-257.2 235,-235.2 10,-235.2"/>
<polygon fill="none" stroke="#000000" points="10,-235.2 10,-257.2 235,-257.2 235,-235.2 10,-235.2"/>
<text text-anchor="start" x="30" y="-242.3" font-family="Helvetica,sans-Serif" font-size="11.00" fill="#000000">arviointi_paiva</text>
<polygon fill="none" stroke="#000000" points="235,-235.2 235,-257.2 344,-257.2 344,-235.2 235,-235.2"/>
<text text-anchor="start" x="238" y="-242.9" font-family="Helvetica,sans-Serif" font-size="11.00" fill="#000000">date[13]</text>
<polygon fill="none" stroke="#000000" points="10,-213.2 10,-235.2 235,-235.2 235,-213.2 10,-213.2"/>
<text text-anchor="start" x="30" y="-220.3" font-family="Helvetica,sans-Serif" font-size="11.00" fill="#000000">ensimmainen_arviointi_paiva</text>
<polygon fill="none" stroke="#000000" points="235,-213.2 235,-235.2 344,-235.2 344,-213.2 235,-213.2"/>
<text text-anchor="start" x="238" y="-220.9" font-family="Helvetica,sans-Serif" font-size="11.00" fill="#000000">date[13]</text>
<polygon fill="none" stroke="#000000" points="10,-191.2 10,-213.2 235,-213.2 235,-191.2 10,-191.2"/>
<text text-anchor="start" x="30" y="-198.3" font-family="Helvetica,sans-Serif" font-size="11.00" fill="#000000">korotettu_eri_vuonna</text>
<polygon fill="none" stroke="#000000" points="235,-191.2 235,-213.2 344,-213.2 344,-191.2 235,-191.2"/>
<text text-anchor="start" x="238" y="-198.9" font-family="Helvetica,sans-Serif" font-size="11.00" fill="#000000">bool[1]</text>
<polygon fill="none" stroke="#000000" points="10,-169.2 10,-191.2 235,-191.2 235,-169.2 10,-169.2"/>
<text text-anchor="start" x="30" y="-176.3" font-family="Helvetica,sans-Serif" font-size="11.00" fill="#000000">nayton_arviointi_paiva</text>
<polygon fill="none" stroke="#000000" points="235,-169.2 235,-191.2 344,-191.2 344,-169.2 235,-169.2"/>
<text text-anchor="start" x="238" y="-176.9" font-family="Helvetica,sans-Serif" font-size="11.00" fill="#000000">date[13]</text>
<polygon fill="none" stroke="#000000" points="10,-147.2 10,-169.2 235,-169.2 235,-147.2 10,-147.2"/>
<text text-anchor="start" x="30" y="-154.3" font-family="Helvetica,sans-Serif" font-size="11.00" fill="#000000">tunnustettu</text>
<polygon fill="none" stroke="#000000" points="235,-147.2 235,-169.2 344,-169.2 344,-147.2 235,-147.2"/>
<text text-anchor="start" x="238" y="-154.9" font-family="Helvetica,sans-Serif" font-size="11.00" fill="#000000">bool[1]</text>
<polygon fill="none" stroke="#000000" points="10,-125.2 10,-147.2 235,-147.2 235,-125.2 10,-125.2"/>
<text text-anchor="start" x="30" y="-132.3" font-family="Helvetica,sans-Serif" font-size="11.00" fill="#000000">tunnustettu_rahoituksen_piirissa</text>
<polygon fill="none" stroke="#000000" points="235,-125.2 235,-147.2 344,-147.2 344,-125.2 235,-125.2"/>
<text text-anchor="start" x="238" y="-132.9" font-family="Helvetica,sans-Serif" font-size="11.00" fill="#000000">bool[1]</text>
<polygon fill="none" stroke="#000000" points="10,-103.2 10,-125.2 235,-125.2 235,-103.2 10,-103.2"/>
<text text-anchor="start" x="30" y="-110.3" font-family="Helvetica,sans-Serif" font-size="11.00" fill="#000000">luokka_aste</text>
<polygon fill="none" stroke="#000000" points="235,-103.2 235,-125.2 344,-125.2 344,-103.2 235,-103.2"/>
<text text-anchor="start" x="237.5344" y="-110.9" font-family="Helvetica,sans-Serif" font-size="11.00" fill="#000000">varchar[2147483647]</text>
<polygon fill="none" stroke="#000000" points="10,-81.2 10,-103.2 235,-103.2 235,-81.2 10,-81.2"/>
<text text-anchor="start" x="30" y="-88.3" font-family="Helvetica,sans-Serif" font-size="11.00" fill="#000000">data</text>
<polygon fill="none" stroke="#000000" points="235,-81.2 235,-103.2 344,-103.2 344,-81.2 235,-81.2"/>
<text text-anchor="start" x="238" y="-88.9" font-family="Helvetica,sans-Serif" font-size="11.00" fill="#000000">jsonb[2147483647]</text>
<polygon fill="#ffffff" stroke="transparent" points="10,-59.2 10,-81.2 235,-81.2 235,-59.2 10,-59.2"/>
<polygon fill="none" stroke="#000000" points="10,-59.2 10,-81.2 235,-81.2 235,-59.2 10,-59.2"/>
<text text-anchor="start" x="30" y="-66.3" font-family="Helvetica,sans-Serif" font-size="11.00" fill="#000000">sisaltyy_opiskeluoikeuteen_oid</text>
<polygon fill="none" stroke="#000000" points="235,-59.2 235,-81.2 344,-81.2 344,-59.2 235,-59.2"/>
<text text-anchor="start" x="237.5344" y="-66.9" font-family="Helvetica,sans-Serif" font-size="11.00" fill="#000000">varchar[2147483647]</text>
<polygon fill="#ffffff" stroke="transparent" points="10,-40.2 10,-59.2 103,-59.2 103,-40.2 10,-40.2"/>
<polygon fill="none" stroke="#000000" points="10,-40.2 10,-59.2 103,-59.2 103,-40.2 10,-40.2"/>
<text text-anchor="start" x="13" y="-46.3" font-family="Helvetica,sans-Serif" font-size="11.00" fill="#000000">&lt; 0</text>
<polygon fill="#ffffff" stroke="transparent" points="103,-40.2 103,-59.2 235,-59.2 235,-40.2 103,-40.2"/>
<polygon fill="none" stroke="#000000" points="103,-40.2 103,-59.2 235,-59.2 235,-40.2 103,-40.2"/>
<text text-anchor="start" x="178.2089" y="-46.3" font-family="Helvetica,sans-Serif" font-size="11.00" fill="#000000">4,954 rows</text>
<polygon fill="#ffffff" stroke="transparent" points="235,-40.2 235,-59.2 344,-59.2 344,-40.2 235,-40.2"/>
<polygon fill="none" stroke="#000000" points="235,-40.2 235,-59.2 344,-59.2 344,-40.2 235,-40.2"/>
<text text-anchor="start" x="325.4053" y="-46.3" font-family="Helvetica,sans-Serif" font-size="11.00" fill="#000000">0 &gt;</text>
<polygon fill="none" stroke="#000000" stroke-width="2" points="9,-39.2 9,-699.2 345,-699.2 345,-39.2 9,-39.2"/>
</a>
</g>
</g>
</g>
</svg>
