<?xml version="1.0" encoding="UTF-8" standalone="no"?>
<!DOCTYPE svg PUBLIC "-//W3C//DTD SVG 1.1//EN"
 "http://www.w3.org/Graphics/SVG/1.1/DTD/svg11.dtd">
<!-- Generated by graphviz version 2.40.1 (20161225.0304)
 -->
<!-- Title: oneDegreeRelationshipsDiagram Pages: 1 -->
<svg width="360pt" height="602pt"
 viewBox="0.00 0.00 360.00 602.20" xmlns="http://www.w3.org/2000/svg" xmlns:xlink="http://www.w3.org/1999/xlink">
<g id="graph0" class="graph" transform="scale(1 1) rotate(0) translate(4 598.2)">
<title>oneDegreeRelationshipsDiagram</title>
<polygon fill="#ffffff" stroke="transparent" points="-4,4 -4,-598.2 356,-598.2 356,4 -4,4"/>
<text text-anchor="middle" x="72.4936" y="-7.3" font-family="Helvetica,sans-Serif" font-size="11.00" fill="#000000">Generated by SchemaSpy</text>
<!-- r_paatason_suoritus -->
<g id="node1" class="node">
<title>r_paatason_suoritus</title>
<g id="a_node1"><a xlink:href="../../tables/r_paatason_suoritus.html" xlink:title="r_paatason_suoritus" target="_top">
<polygon fill="#ffffff" stroke="transparent" points="8,-38.2 8,-590.2 344,-590.2 344,-38.2 8,-38.2"/>
<polygon fill="#f5f5f5" stroke="transparent" points="10,-565.2 10,-588.2 342,-588.2 342,-565.2 10,-565.2"/>
<polygon fill="none" stroke="#000000" points="10,-565.2 10,-588.2 342,-588.2 342,-565.2 10,-565.2"/>
<text text-anchor="start" x="15" y="-573.8" font-family="Helvetica,sans-Serif" font-weight="bold" font-size="11.00" fill="#000000">r_paatason_suoritus</text>
<text text-anchor="start" x="307.0437" y="-573.3" font-family="Helvetica,sans-Serif" font-size="11.00" fill="#000000">[table]</text>
<polygon fill="none" stroke="#000000" points="10,-543.2 10,-565.2 233,-565.2 233,-543.2 10,-543.2"/>
<image xlink:href="../../images/primaryKeys.png" width="11px" height="12px" preserveAspectRatio="xMinYMin meet" x="15" y="-560.2"/>
<text text-anchor="start" x="30" y="-550.3" font-family="Helvetica,sans-Serif" font-size="11.00" fill="#000000">paatason_suoritus_id</text>
<polygon fill="none" stroke="#000000" points="233,-543.2 233,-565.2 342,-565.2 342,-543.2 233,-543.2"/>
<text text-anchor="start" x="236" y="-550.9" font-family="Helvetica,sans-Serif" font-size="11.00" fill="#000000">int8[19]</text>
<polygon fill="#ffffff" stroke="transparent" points="10,-521.2 10,-543.2 233,-543.2 233,-521.2 10,-521.2"/>
<polygon fill="none" stroke="#000000" points="10,-521.2 10,-543.2 233,-543.2 233,-521.2 10,-521.2"/>
<text text-anchor="start" x="30" y="-528.3" font-family="Helvetica,sans-Serif" font-size="11.00" fill="#000000">opiskeluoikeus_oid</text>
<polygon fill="none" stroke="#000000" points="233,-521.2 233,-543.2 342,-543.2 342,-521.2 233,-521.2"/>
<text text-anchor="start" x="235.5344" y="-528.9" font-family="Helvetica,sans-Serif" font-size="11.00" fill="#000000">varchar[2147483647]</text>
<polygon fill="#ffffff" stroke="transparent" points="10,-499.2 10,-521.2 233,-521.2 233,-499.2 10,-499.2"/>
<polygon fill="none" stroke="#000000" points="10,-499.2 10,-521.2 233,-521.2 233,-499.2 10,-499.2"/>
<text text-anchor="start" x="30" y="-506.3" font-family="Helvetica,sans-Serif" font-size="11.00" fill="#000000">suorituksen_tyyppi</text>
<polygon fill="none" stroke="#000000" points="233,-499.2 233,-521.2 342,-521.2 342,-499.2 233,-499.2"/>
<text text-anchor="start" x="235.5344" y="-506.9" font-family="Helvetica,sans-Serif" font-size="11.00" fill="#000000">varchar[2147483647]</text>
<polygon fill="none" stroke="#000000" points="10,-477.2 10,-499.2 233,-499.2 233,-477.2 10,-477.2"/>
<text text-anchor="start" x="30" y="-484.3" font-family="Helvetica,sans-Serif" font-size="11.00" fill="#000000">koulutusmoduuli_koodisto</text>
<polygon fill="none" stroke="#000000" points="233,-477.2 233,-499.2 342,-499.2 342,-477.2 233,-477.2"/>
<text text-anchor="start" x="235.5344" y="-484.9" font-family="Helvetica,sans-Serif" font-size="11.00" fill="#000000">varchar[2147483647]</text>
<polygon fill="none" stroke="#000000" points="10,-455.2 10,-477.2 233,-477.2 233,-455.2 10,-455.2"/>
<text text-anchor="start" x="30" y="-462.3" font-family="Helvetica,sans-Serif" font-size="11.00" fill="#000000">koulutusmoduuli_koodiarvo</text>
<polygon fill="none" stroke="#000000" points="233,-455.2 233,-477.2 342,-477.2 342,-455.2 233,-455.2"/>
<text text-anchor="start" x="235.5344" y="-462.9" font-family="Helvetica,sans-Serif" font-size="11.00" fill="#000000">varchar[2147483647]</text>
<polygon fill="#ffffff" stroke="transparent" points="10,-433.2 10,-455.2 233,-455.2 233,-433.2 10,-433.2"/>
<polygon fill="none" stroke="#000000" points="10,-433.2 10,-455.2 233,-455.2 233,-433.2 10,-433.2"/>
<text text-anchor="start" x="30" y="-440.3" font-family="Helvetica,sans-Serif" font-size="11.00" fill="#000000">koulutusmoduuli_koulutustyyppi</text>
<polygon fill="none" stroke="#000000" points="233,-433.2 233,-455.2 342,-455.2 342,-433.2 233,-433.2"/>
<text text-anchor="start" x="235.5344" y="-440.9" font-family="Helvetica,sans-Serif" font-size="11.00" fill="#000000">varchar[2147483647]</text>
<polygon fill="none" stroke="#000000" points="10,-411.2 10,-433.2 233,-433.2 233,-411.2 10,-411.2"/>
<text text-anchor="start" x="30" y="-418.3" font-family="Helvetica,sans-Serif" font-size="11.00" fill="#000000">koulutusmoduuli_laajuus_arvo</text>
<polygon fill="none" stroke="#000000" points="233,-411.2 233,-433.2 342,-433.2 342,-411.2 233,-411.2"/>
<text text-anchor="start" x="236" y="-418.9" font-family="Helvetica,sans-Serif" font-size="11.00" fill="#000000">numeric[0]</text>
<polygon fill="none" stroke="#000000" points="10,-389.2 10,-411.2 233,-411.2 233,-389.2 10,-389.2"/>
<text text-anchor="start" x="30" y="-396.3" font-family="Helvetica,sans-Serif" font-size="11.00" fill="#000000">koulutusmoduuli_laajuus_yksikko</text>
<polygon fill="none" stroke="#000000" points="233,-389.2 233,-411.2 342,-411.2 342,-389.2 233,-389.2"/>
<text text-anchor="start" x="235.5344" y="-396.9" font-family="Helvetica,sans-Serif" font-size="11.00" fill="#000000">varchar[2147483647]</text>
<polygon fill="none" stroke="#000000" points="10,-367.2 10,-389.2 233,-389.2 233,-367.2 10,-367.2"/>
<text text-anchor="start" x="30" y="-374.3" font-family="Helvetica,sans-Serif" font-size="11.00" fill="#000000">koulutusmoduuli_nimi</text>
<polygon fill="none" stroke="#000000" points="233,-367.2 233,-389.2 342,-389.2 342,-367.2 233,-367.2"/>
<text text-anchor="start" x="235.5344" y="-374.9" font-family="Helvetica,sans-Serif" font-size="11.00" fill="#000000">varchar[2147483647]</text>
<polygon fill="none" stroke="#000000" points="10,-345.2 10,-367.2 233,-367.2 233,-345.2 10,-345.2"/>
<text text-anchor="start" x="30" y="-352.3" font-family="Helvetica,sans-Serif" font-size="11.00" fill="#000000">tutkinnon_nimi_perusteessa</text>
<polygon fill="none" stroke="#000000" points="233,-345.2 233,-367.2 342,-367.2 342,-345.2 233,-345.2"/>
<text text-anchor="start" x="235.5344" y="-352.9" font-family="Helvetica,sans-Serif" font-size="11.00" fill="#000000">varchar[2147483647]</text>
<polygon fill="none" stroke="#000000" points="10,-323.2 10,-345.2 233,-345.2 233,-323.2 10,-323.2"/>
<text text-anchor="start" x="30" y="-330.3" font-family="Helvetica,sans-Serif" font-size="11.00" fill="#000000">suorituskieli_koodiarvo</text>
<polygon fill="none" stroke="#000000" points="233,-323.2 233,-345.2 342,-345.2 342,-323.2 233,-323.2"/>
<text text-anchor="start" x="235.5344" y="-330.9" font-family="Helvetica,sans-Serif" font-size="11.00" fill="#000000">varchar[2147483647]</text>
<polygon fill="none" stroke="#000000" points="10,-301.2 10,-323.2 233,-323.2 233,-301.2 10,-301.2"/>
<text text-anchor="start" x="30" y="-308.3" font-family="Helvetica,sans-Serif" font-size="11.00" fill="#000000">oppimaara_koodiarvo</text>
<polygon fill="none" stroke="#000000" points="233,-301.2 233,-323.2 342,-323.2 342,-301.2 233,-301.2"/>
<text text-anchor="start" x="235.5344" y="-308.9" font-family="Helvetica,sans-Serif" font-size="11.00" fill="#000000">varchar[2147483647]</text>
<polygon fill="none" stroke="#000000" points="10,-279.2 10,-301.2 233,-301.2 233,-279.2 10,-279.2"/>
<text text-anchor="start" x="30" y="-286.3" font-family="Helvetica,sans-Serif" font-size="11.00" fill="#000000">alkamispaiva</text>
<polygon fill="none" stroke="#000000" points="233,-279.2 233,-301.2 342,-301.2 342,-279.2 233,-279.2"/>
<text text-anchor="start" x="236" y="-286.9" font-family="Helvetica,sans-Serif" font-size="11.00" fill="#000000">date[13]</text>
<polygon fill="#ffffff" stroke="transparent" points="10,-257.2 10,-279.2 233,-279.2 233,-257.2 10,-257.2"/>
<polygon fill="none" stroke="#000000" points="10,-257.2 10,-279.2 233,-279.2 233,-257.2 10,-257.2"/>
<text text-anchor="start" x="30" y="-264.3" font-family="Helvetica,sans-Serif" font-size="11.00" fill="#000000">vahvistus_paiva</text>
<polygon fill="none" stroke="#000000" points="233,-257.2 233,-279.2 342,-279.2 342,-257.2 233,-257.2"/>
<text text-anchor="start" x="236" y="-264.9" font-family="Helvetica,sans-Serif" font-size="11.00" fill="#000000">date[13]</text>
<polygon fill="none" stroke="#000000" points="10,-235.2 10,-257.2 233,-257.2 233,-235.2 10,-235.2"/>
<text text-anchor="start" x="30" y="-242.3" font-family="Helvetica,sans-Serif" font-size="11.00" fill="#000000">arviointi_arvosana_koodiarvo</text>
<polygon fill="none" stroke="#000000" points="233,-235.2 233,-257.2 342,-257.2 342,-235.2 233,-235.2"/>
<text text-anchor="start" x="235.5344" y="-242.9" font-family="Helvetica,sans-Serif" font-size="11.00" fill="#000000">varchar[2147483647]</text>
<polygon fill="none" stroke="#000000" points="10,-213.2 10,-235.2 233,-235.2 233,-213.2 10,-213.2"/>
<text text-anchor="start" x="30" y="-220.3" font-family="Helvetica,sans-Serif" font-size="11.00" fill="#000000">arviointi_arvosana_koodisto</text>
<polygon fill="none" stroke="#000000" points="233,-213.2 233,-235.2 342,-235.2 342,-213.2 233,-213.2"/>
<text text-anchor="start" x="235.5344" y="-220.9" font-family="Helvetica,sans-Serif" font-size="11.00" fill="#000000">varchar[2147483647]</text>
<polygon fill="none" stroke="#000000" points="10,-191.2 10,-213.2 233,-213.2 233,-191.2 10,-191.2"/>
<text text-anchor="start" x="30" y="-198.3" font-family="Helvetica,sans-Serif" font-size="11.00" fill="#000000">arviointi_hyvaksytty</text>
<polygon fill="none" stroke="#000000" points="233,-191.2 233,-213.2 342,-213.2 342,-191.2 233,-191.2"/>
<text text-anchor="start" x="236" y="-198.9" font-family="Helvetica,sans-Serif" font-size="11.00" fill="#000000">bool[1]</text>
<polygon fill="none" stroke="#000000" points="10,-169.2 10,-191.2 233,-191.2 233,-169.2 10,-169.2"/>
<text text-anchor="start" x="30" y="-176.3" font-family="Helvetica,sans-Serif" font-size="11.00" fill="#000000">arviointi_paiva</text>
<polygon fill="none" stroke="#000000" points="233,-169.2 233,-191.2 342,-191.2 342,-169.2 233,-169.2"/>
<text text-anchor="start" x="236" y="-176.9" font-family="Helvetica,sans-Serif" font-size="11.00" fill="#000000">date[13]</text>
<polygon fill="none" stroke="#000000" points="10,-147.2 10,-169.2 233,-169.2 233,-147.2 10,-147.2"/>
<text text-anchor="start" x="30" y="-154.3" font-family="Helvetica,sans-Serif" font-size="11.00" fill="#000000">toimipiste_oid</text>
<polygon fill="none" stroke="#000000" points="233,-147.2 233,-169.2 342,-169.2 342,-147.2 233,-147.2"/>
<text text-anchor="start" x="235.5344" y="-154.9" font-family="Helvetica,sans-Serif" font-size="11.00" fill="#000000">varchar[2147483647]</text>
<polygon fill="none" stroke="#000000" points="10,-125.2 10,-147.2 233,-147.2 233,-125.2 10,-125.2"/>
<text text-anchor="start" x="30" y="-132.3" font-family="Helvetica,sans-Serif" font-size="11.00" fill="#000000">toimipiste_nimi</text>
<polygon fill="none" stroke="#000000" points="233,-125.2 233,-147.2 342,-147.2 342,-125.2 233,-125.2"/>
<text text-anchor="start" x="235.5344" y="-132.9" font-family="Helvetica,sans-Serif" font-size="11.00" fill="#000000">varchar[2147483647]</text>
<polygon fill="none" stroke="#000000" points="10,-103.2 10,-125.2 233,-125.2 233,-103.2 10,-103.2"/>
<text text-anchor="start" x="30" y="-110.3" font-family="Helvetica,sans-Serif" font-size="11.00" fill="#000000">toimipiste_nimi_sv</text>
<polygon fill="none" stroke="#000000" points="233,-103.2 233,-125.2 342,-125.2 342,-103.2 233,-103.2"/>
<text text-anchor="start" x="235.5344" y="-110.9" font-family="Helvetica,sans-Serif" font-size="11.00" fill="#000000">varchar[2147483647]</text>
<polygon fill="none" stroke="#000000" points="10,-81.2 10,-103.2 233,-103.2 233,-81.2 10,-81.2"/>
<text text-anchor="start" x="30" y="-88.3" font-family="Helvetica,sans-Serif" font-size="11.00" fill="#000000">data</text>
<polygon fill="none" stroke="#000000" points="233,-81.2 233,-103.2 342,-103.2 342,-81.2 233,-81.2"/>
<text text-anchor="start" x="236" y="-88.9" font-family="Helvetica,sans-Serif" font-size="11.00" fill="#000000">jsonb[2147483647]</text>
<polygon fill="none" stroke="#000000" points="10,-59.2 10,-81.2 233,-81.2 233,-59.2 10,-59.2"/>
<text text-anchor="start" x="30" y="-66.3" font-family="Helvetica,sans-Serif" font-size="11.00" fill="#000000">sisaltyy_opiskeluoikeuteen_oid</text>
<polygon fill="none" stroke="#000000" points="233,-59.2 233,-81.2 342,-81.2 342,-59.2 233,-59.2"/>
<text text-anchor="start" x="235.5344" y="-66.9" font-family="Helvetica,sans-Serif" font-size="11.00" fill="#000000">varchar[2147483647]</text>
<polygon fill="#ffffff" stroke="transparent" points="10,-40.2 10,-59.2 107,-59.2 107,-40.2 10,-40.2"/>
<polygon fill="none" stroke="#000000" points="10,-40.2 10,-59.2 107,-59.2 107,-40.2 10,-40.2"/>
<text text-anchor="start" x="13" y="-46.3" font-family="Helvetica,sans-Serif" font-size="11.00" fill="#000000">&lt; 0</text>
<polygon fill="#ffffff" stroke="transparent" points="107,-40.2 107,-59.2 233,-59.2 233,-40.2 107,-40.2"/>
<polygon fill="none" stroke="#000000" points="107,-40.2 107,-59.2 233,-59.2 233,-40.2 107,-40.2"/>
<text text-anchor="start" x="185.3807" y="-46.3" font-family="Helvetica,sans-Serif" font-size="11.00" fill="#000000">677 rows</text>
<polygon fill="#ffffff" stroke="transparent" points="233,-40.2 233,-59.2 342,-59.2 342,-40.2 233,-40.2"/>
<polygon fill="none" stroke="#000000" points="233,-40.2 233,-59.2 342,-59.2 342,-40.2 233,-40.2"/>
<text text-anchor="start" x="323.4053" y="-46.3" font-family="Helvetica,sans-Serif" font-size="11.00" fill="#000000">0 &gt;</text>
<polygon fill="none" stroke="#000000" stroke-width="2" points="9,-39.2 9,-589.2 343,-589.2 343,-39.2 9,-39.2"/>
</a>
</g>
</g>
</g>
</svg>
