<?xml version="1.0" encoding="UTF-8" standalone="no"?>
<!DOCTYPE svg PUBLIC "-//W3C//DTD SVG 1.1//EN"
 "http://www.w3.org/Graphics/SVG/1.1/DTD/svg11.dtd">
<!-- Generated by graphviz version 2.40.1 (20161225.0304)
 -->
<!-- Title: oneDegreeRelationshipsDiagram Pages: 1 -->
<svg width="420pt" height="404pt"
 viewBox="0.00 0.00 420.00 404.20" xmlns="http://www.w3.org/2000/svg" xmlns:xlink="http://www.w3.org/1999/xlink">
<g id="graph0" class="graph" transform="scale(1 1) rotate(0) translate(4 400.2)">
<title>oneDegreeRelationshipsDiagram</title>
<polygon fill="#ffffff" stroke="transparent" points="-4,4 -4,-400.2 416,-400.2 416,4 -4,4"/>
<text text-anchor="middle" x="72.4936" y="-7.3" font-family="Helvetica,sans-Serif" font-size="11.00" fill="#000000">Generated by SchemaSpy</text>
<!-- r_ytr_tutkintokerran_suoritus -->
<g id="node1" class="node">
<title>r_ytr_tutkintokerran_suoritus</title>
<g id="a_node1"><a xlink:href="../../tables/r_ytr_tutkintokerran_suoritus.html" xlink:title="r_ytr_tutkintokerran_suoritus" target="_top">
<polygon fill="#ffffff" stroke="transparent" points="8,-38.2 8,-392.2 404,-392.2 404,-38.2 8,-38.2"/>
<polygon fill="#f5f5f5" stroke="transparent" points="10,-367.2 10,-390.2 402,-390.2 402,-367.2 10,-367.2"/>
<polygon fill="none" stroke="#000000" points="10,-367.2 10,-390.2 402,-390.2 402,-367.2 10,-367.2"/>
<text text-anchor="start" x="15" y="-375.8" font-family="Helvetica,sans-Serif" font-weight="bold" font-size="11.00" fill="#000000">r_ytr_tutkintokerran_suoritus</text>
<text text-anchor="start" x="367.0437" y="-375.3" font-family="Helvetica,sans-Serif" font-size="11.00" fill="#000000">[table]</text>
<polygon fill="none" stroke="#000000" points="10,-345.2 10,-367.2 293,-367.2 293,-345.2 10,-345.2"/>
<image xlink:href="../../images/primaryKeys.png" width="11px" height="12px" preserveAspectRatio="xMinYMin meet" x="15" y="-362.2"/>
<text text-anchor="start" x="30" y="-352.3" font-family="Helvetica,sans-Serif" font-size="11.00" fill="#000000">ytr_tutkintokerran_suoritus_id</text>
<polygon fill="none" stroke="#000000" points="293,-345.2 293,-367.2 402,-367.2 402,-345.2 293,-345.2"/>
<text text-anchor="start" x="296" y="-352.9" font-family="Helvetica,sans-Serif" font-size="11.00" fill="#000000">int8[19]</text>
<polygon fill="#ffffff" stroke="transparent" points="10,-323.2 10,-345.2 293,-345.2 293,-323.2 10,-323.2"/>
<polygon fill="none" stroke="#000000" points="10,-323.2 10,-345.2 293,-345.2 293,-323.2 10,-323.2"/>
<text text-anchor="start" x="30" y="-330.3" font-family="Helvetica,sans-Serif" font-size="11.00" fill="#000000">ytr_tutkintokokonaisuuden_suoritus_id</text>
<polygon fill="none" stroke="#000000" points="293,-323.2 293,-345.2 402,-345.2 402,-323.2 293,-323.2"/>
<text text-anchor="start" x="296" y="-330.9" font-family="Helvetica,sans-Serif" font-size="11.00" fill="#000000">int8[19]</text>
<polygon fill="#ffffff" stroke="transparent" points="10,-301.2 10,-323.2 293,-323.2 293,-301.2 10,-301.2"/>
<polygon fill="none" stroke="#000000" points="10,-301.2 10,-323.2 293,-323.2 293,-301.2 10,-301.2"/>
<text text-anchor="start" x="30" y="-308.3" font-family="Helvetica,sans-Serif" font-size="11.00" fill="#000000">paatason_suoritus_id</text>
<polygon fill="none" stroke="#000000" points="293,-301.2 293,-323.2 402,-323.2 402,-301.2 293,-301.2"/>
<text text-anchor="start" x="296" y="-308.9" font-family="Helvetica,sans-Serif" font-size="11.00" fill="#000000">int8[19]</text>
<polygon fill="none" stroke="#000000" points="10,-279.2 10,-301.2 293,-301.2 293,-279.2 10,-279.2"/>
<text text-anchor="start" x="30" y="-286.3" font-family="Helvetica,sans-Serif" font-size="11.00" fill="#000000">opiskeluoikeus_oid</text>
<polygon fill="none" stroke="#000000" points="293,-279.2 293,-301.2 402,-301.2 402,-279.2 293,-279.2"/>
<text text-anchor="start" x="295.5344" y="-286.9" font-family="Helvetica,sans-Serif" font-size="11.00" fill="#000000">varchar[2147483647]</text>
<polygon fill="none" stroke="#000000" points="10,-257.2 10,-279.2 293,-279.2 293,-257.2 10,-257.2"/>
<text text-anchor="start" x="30" y="-264.3" font-family="Helvetica,sans-Serif" font-size="11.00" fill="#000000">tutkintokerta_koodiarvo</text>
<polygon fill="none" stroke="#000000" points="293,-257.2 293,-279.2 402,-279.2 402,-257.2 293,-257.2"/>
<text text-anchor="start" x="295.5344" y="-264.9" font-family="Helvetica,sans-Serif" font-size="11.00" fill="#000000">varchar[2147483647]</text>
<polygon fill="none" stroke="#000000" points="10,-235.2 10,-257.2 293,-257.2 293,-235.2 10,-235.2"/>
<text text-anchor="start" x="30" y="-242.3" font-family="Helvetica,sans-Serif" font-size="11.00" fill="#000000">vuosi</text>
<polygon fill="none" stroke="#000000" points="293,-235.2 293,-257.2 402,-257.2 402,-235.2 293,-235.2"/>
<text text-anchor="start" x="296" y="-242.9" font-family="Helvetica,sans-Serif" font-size="11.00" fill="#000000">int4[10]</text>
<polygon fill="none" stroke="#000000" points="10,-213.2 10,-235.2 293,-235.2 293,-213.2 10,-213.2"/>
<text text-anchor="start" x="30" y="-220.3" font-family="Helvetica,sans-Serif" font-size="11.00" fill="#000000">vuodenaika_koodiarvo</text>
<polygon fill="none" stroke="#000000" points="293,-213.2 293,-235.2 402,-235.2 402,-213.2 293,-213.2"/>
<text text-anchor="start" x="295.5344" y="-220.9" font-family="Helvetica,sans-Serif" font-size="11.00" fill="#000000">varchar[2147483647]</text>
<polygon fill="none" stroke="#000000" points="10,-191.2 10,-213.2 293,-213.2 293,-191.2 10,-191.2"/>
<text text-anchor="start" x="30" y="-198.3" font-family="Helvetica,sans-Serif" font-size="11.00" fill="#000000">koulutustausta_koodiarvo</text>
<polygon fill="none" stroke="#000000" points="293,-191.2 293,-213.2 402,-213.2 402,-191.2 293,-191.2"/>
<text text-anchor="start" x="295.5344" y="-198.9" font-family="Helvetica,sans-Serif" font-size="11.00" fill="#000000">varchar[2147483647]</text>
<polygon fill="none" stroke="#000000" points="10,-169.2 10,-191.2 293,-191.2 293,-169.2 10,-169.2"/>
<text text-anchor="start" x="30" y="-176.3" font-family="Helvetica,sans-Serif" font-size="11.00" fill="#000000">oppilaitos_oid</text>
<polygon fill="none" stroke="#000000" points="293,-169.2 293,-191.2 402,-191.2 402,-169.2 293,-169.2"/>
<text text-anchor="start" x="295.5344" y="-176.9" font-family="Helvetica,sans-Serif" font-size="11.00" fill="#000000">varchar[2147483647]</text>
<polygon fill="none" stroke="#000000" points="10,-147.2 10,-169.2 293,-169.2 293,-147.2 10,-147.2"/>
<text text-anchor="start" x="30" y="-154.3" font-family="Helvetica,sans-Serif" font-size="11.00" fill="#000000">oppilaitos_nimi</text>
<polygon fill="none" stroke="#000000" points="293,-147.2 293,-169.2 402,-169.2 402,-147.2 293,-147.2"/>
<text text-anchor="start" x="295.5344" y="-154.9" font-family="Helvetica,sans-Serif" font-size="11.00" fill="#000000">varchar[2147483647]</text>
<polygon fill="none" stroke="#000000" points="10,-125.2 10,-147.2 293,-147.2 293,-125.2 10,-125.2"/>
<text text-anchor="start" x="30" y="-132.3" font-family="Helvetica,sans-Serif" font-size="11.00" fill="#000000">oppilaitos_nimi_sv</text>
<polygon fill="none" stroke="#000000" points="293,-125.2 293,-147.2 402,-147.2 402,-125.2 293,-125.2"/>
<text text-anchor="start" x="295.5344" y="-132.9" font-family="Helvetica,sans-Serif" font-size="11.00" fill="#000000">varchar[2147483647]</text>
<polygon fill="none" stroke="#000000" points="10,-103.2 10,-125.2 293,-125.2 293,-103.2 10,-103.2"/>
<text text-anchor="start" x="30" y="-110.3" font-family="Helvetica,sans-Serif" font-size="11.00" fill="#000000">oppilaitos_kotipaikka</text>
<polygon fill="none" stroke="#000000" points="293,-103.2 293,-125.2 402,-125.2 402,-103.2 293,-103.2"/>
<text text-anchor="start" x="295.5344" y="-110.9" font-family="Helvetica,sans-Serif" font-size="11.00" fill="#000000">varchar[2147483647]</text>
<polygon fill="none" stroke="#000000" points="10,-81.2 10,-103.2 293,-103.2 293,-81.2 10,-81.2"/>
<text text-anchor="start" x="30" y="-88.3" font-family="Helvetica,sans-Serif" font-size="11.00" fill="#000000">oppilaitosnumero</text>
<polygon fill="none" stroke="#000000" points="293,-81.2 293,-103.2 402,-103.2 402,-81.2 293,-81.2"/>
<text text-anchor="start" x="295.5344" y="-88.9" font-family="Helvetica,sans-Serif" font-size="11.00" fill="#000000">varchar[2147483647]</text>
<polygon fill="none" stroke="#000000" points="10,-59.2 10,-81.2 293,-81.2 293,-59.2 10,-59.2"/>
<text text-anchor="start" x="30" y="-66.3" font-family="Helvetica,sans-Serif" font-size="11.00" fill="#000000">data</text>
<polygon fill="none" stroke="#000000" points="293,-59.2 293,-81.2 402,-81.2 402,-59.2 293,-59.2"/>
<text text-anchor="start" x="296" y="-66.9" font-family="Helvetica,sans-Serif" font-size="11.00" fill="#000000">jsonb[2147483647]</text>
<polygon fill="#ffffff" stroke="transparent" points="10,-40.2 10,-59.2 140,-59.2 140,-40.2 10,-40.2"/>
<polygon fill="none" stroke="#000000" points="10,-40.2 10,-59.2 140,-59.2 140,-40.2 10,-40.2"/>
<text text-anchor="start" x="13" y="-46.3" font-family="Helvetica,sans-Serif" font-size="11.00" fill="#000000">&lt; 0</text>
<polygon fill="#ffffff" stroke="transparent" points="140,-40.2 140,-59.2 293,-59.2 293,-40.2 140,-40.2"/>
<polygon fill="none" stroke="#000000" points="140,-40.2 140,-59.2 293,-59.2 293,-40.2 140,-40.2"/>
<text text-anchor="start" x="251.4956" y="-46.3" font-family="Helvetica,sans-Serif" font-size="11.00" fill="#000000">20 rows</text>
<polygon fill="#ffffff" stroke="transparent" points="293,-40.2 293,-59.2 402,-59.2 402,-40.2 293,-40.2"/>
<polygon fill="none" stroke="#000000" points="293,-40.2 293,-59.2 402,-59.2 402,-40.2 293,-40.2"/>
<text text-anchor="start" x="383.4053" y="-46.3" font-family="Helvetica,sans-Serif" font-size="11.00" fill="#000000">0 &gt;</text>
<polygon fill="none" stroke="#000000" stroke-width="2" points="9,-39.2 9,-391.2 403,-391.2 403,-39.2 9,-39.2"/>
</a>
</g>
</g>
</g>
</svg>
