<?xml version="1.0" encoding="UTF-8" standalone="no"?>
<!DOCTYPE svg PUBLIC "-//W3C//DTD SVG 1.1//EN"
 "http://www.w3.org/Graphics/SVG/1.1/DTD/svg11.dtd">
<!-- Generated by graphviz version 2.40.1 (20161225.0304)
 -->
<!-- Title: oneDegreeRelationshipsDiagram Pages: 1 -->
<svg width="358pt" height="184pt"
 viewBox="0.00 0.00 358.00 184.20" xmlns="http://www.w3.org/2000/svg" xmlns:xlink="http://www.w3.org/1999/xlink">
<g id="graph0" class="graph" transform="scale(1 1) rotate(0) translate(4 180.2)">
<title>oneDegreeRelationshipsDiagram</title>
<polygon fill="#ffffff" stroke="transparent" points="-4,4 -4,-180.2 354,-180.2 354,4 -4,4"/>
<text text-anchor="middle" x="72.4936" y="-7.3" font-family="Helvetica,sans-Serif" font-size="11.00" fill="#000000">Generated by SchemaSpy</text>
<!-- r_ytr_tutkintokokonaisuuden_kokeen_suoritus -->
<g id="node1" class="node">
<title>r_ytr_tutkintokokonaisuuden_kokeen_suoritus</title>
<g id="a_node1"><a xlink:href="../../tables/r_ytr_tutkintokokonaisuuden_kok_833819e2.html" xlink:title="r_ytr_tutkintokokonaisuuden_kokeen_suoritus" target="_top">
<polygon fill="#ffffff" stroke="transparent" points="8,-38.2 8,-172.2 342,-172.2 342,-38.2 8,-38.2"/>
<polygon fill="#f5f5f5" stroke="transparent" points="10,-147.2 10,-170.2 340,-170.2 340,-147.2 10,-147.2"/>
<polygon fill="none" stroke="#000000" points="10,-147.2 10,-170.2 340,-170.2 340,-147.2 10,-147.2"/>
<text text-anchor="start" x="15" y="-155.8" font-family="Helvetica,sans-Serif" font-weight="bold" font-size="11.00" fill="#000000">r_ytr_tutkintokokonaisuuden_kokeen_suoritus</text>
<text text-anchor="start" x="305.0437" y="-155.3" font-family="Helvetica,sans-Serif" font-size="11.00" fill="#000000">[table]</text>
<polygon fill="none" stroke="#000000" points="10,-125.2 10,-147.2 298,-147.2 298,-125.2 10,-125.2"/>
<image xlink:href="../../images/primaryKeys.png" width="11px" height="12px" preserveAspectRatio="xMinYMin meet" x="15" y="-142.2"/>
<text text-anchor="start" x="30" y="-132.3" font-family="Helvetica,sans-Serif" font-size="11.00" fill="#000000">ytr_tutkintokokonaisuuden_suoritus_id</text>
<polygon fill="none" stroke="#000000" points="298,-125.2 298,-147.2 340,-147.2 340,-125.2 298,-125.2"/>
<text text-anchor="start" x="300.9644" y="-132.9" font-family="Helvetica,sans-Serif" font-size="11.00" fill="#000000">int8[19]</text>
<polygon fill="none" stroke="#000000" points="10,-103.2 10,-125.2 298,-125.2 298,-103.2 10,-103.2"/>
<image xlink:href="../../images/primaryKeys.png" width="11px" height="12px" preserveAspectRatio="xMinYMin meet" x="15" y="-120.2"/>
<text text-anchor="start" x="30" y="-110.3" font-family="Helvetica,sans-Serif" font-size="11.00" fill="#000000">ytr_kokeen_suoritus_id</text>
<polygon fill="none" stroke="#000000" points="298,-103.2 298,-125.2 340,-125.2 340,-103.2 298,-103.2"/>
<text text-anchor="start" x="300.9644" y="-110.9" font-family="Helvetica,sans-Serif" font-size="11.00" fill="#000000">int8[19]</text>
<polygon fill="#ffffff" stroke="transparent" points="10,-81.2 10,-103.2 298,-103.2 298,-81.2 10,-81.2"/>
<polygon fill="none" stroke="#000000" points="10,-81.2 10,-103.2 298,-103.2 298,-81.2 10,-81.2"/>
<text text-anchor="start" x="30" y="-88.3" font-family="Helvetica,sans-Serif" font-size="11.00" fill="#000000">ytr_tutkintokerran_suoritus_id</text>
<polygon fill="none" stroke="#000000" points="298,-81.2 298,-103.2 340,-103.2 340,-81.2 298,-81.2"/>
<text text-anchor="start" x="300.9644" y="-88.9" font-family="Helvetica,sans-Serif" font-size="11.00" fill="#000000">int8[19]</text>
<polygon fill="none" stroke="#000000" points="10,-59.2 10,-81.2 298,-81.2 298,-59.2 10,-59.2"/>
<text text-anchor="start" x="30" y="-66.3" font-family="Helvetica,sans-Serif" font-size="11.00" fill="#000000">sisallytetty</text>
<polygon fill="none" stroke="#000000" points="298,-59.2 298,-81.2 340,-81.2 340,-59.2 298,-59.2"/>
<text text-anchor="start" x="301" y="-66.9" font-family="Helvetica,sans-Serif" font-size="11.00" fill="#000000">bool[1]</text>
<polygon fill="#ffffff" stroke="transparent" points="10,-40.2 10,-59.2 142,-59.2 142,-40.2 10,-40.2"/>
<polygon fill="none" stroke="#000000" points="10,-40.2 10,-59.2 142,-59.2 142,-40.2 10,-40.2"/>
<text text-anchor="start" x="13" y="-46.3" font-family="Helvetica,sans-Serif" font-size="11.00" fill="#000000">&lt; 0</text>
<polygon fill="#ffffff" stroke="transparent" points="142,-40.2 142,-59.2 298,-59.2 298,-40.2 142,-40.2"/>
<polygon fill="none" stroke="#000000" points="142,-40.2 142,-59.2 298,-59.2 298,-40.2 142,-40.2"/>
<text text-anchor="start" x="256.4956" y="-46.3" font-family="Helvetica,sans-Serif" font-size="11.00" fill="#000000">80 rows</text>
<polygon fill="#ffffff" stroke="transparent" points="298,-40.2 298,-59.2 340,-59.2 340,-40.2 298,-40.2"/>
<polygon fill="none" stroke="#000000" points="298,-40.2 298,-59.2 340,-59.2 340,-40.2 298,-40.2"/>
<text text-anchor="start" x="321.4053" y="-46.3" font-family="Helvetica,sans-Serif" font-size="11.00" fill="#000000">0 &gt;</text>
<polygon fill="none" stroke="#000000" stroke-width="2" points="9,-39.2 9,-171.2 341,-171.2 341,-39.2 9,-39.2"/>
</a>
</g>
</g>
</g>
</svg>
