<?xml version="1.0" encoding="UTF-8" standalone="no"?>
<!DOCTYPE svg PUBLIC "-//W3C//DTD SVG 1.1//EN"
 "http://www.w3.org/Graphics/SVG/1.1/DTD/svg11.dtd">
<!-- Generated by graphviz version 2.40.1 (20161225.0304)
 -->
<!-- Title: oneDegreeRelationshipsDiagram Pages: 1 -->
<svg width="393pt" height="448pt"
 viewBox="0.00 0.00 393.00 448.20" xmlns="http://www.w3.org/2000/svg" xmlns:xlink="http://www.w3.org/1999/xlink">
<g id="graph0" class="graph" transform="scale(1 1) rotate(0) translate(4 444.2)">
<title>oneDegreeRelationshipsDiagram</title>
<polygon fill="#ffffff" stroke="transparent" points="-4,4 -4,-444.2 389,-444.2 389,4 -4,4"/>
<text text-anchor="middle" x="72.4936" y="-7.3" font-family="Helvetica,sans-Serif" font-size="11.00" fill="#000000">Generated by SchemaSpy</text>
<!-- r_ytr_kokeen_suoritus -->
<g id="node1" class="node">
<title>r_ytr_kokeen_suoritus</title>
<g id="a_node1"><a xlink:href="../../tables/r_ytr_kokeen_suoritus.html" xlink:title="r_ytr_kokeen_suoritus" target="_top">
<polygon fill="#ffffff" stroke="transparent" points="8,-38.2 8,-436.2 377,-436.2 377,-38.2 8,-38.2"/>
<polygon fill="#f5f5f5" stroke="transparent" points="10.5,-411.2 10.5,-434.2 375.5,-434.2 375.5,-411.2 10.5,-411.2"/>
<polygon fill="none" stroke="#000000" points="10.5,-411.2 10.5,-434.2 375.5,-434.2 375.5,-411.2 10.5,-411.2"/>
<text text-anchor="start" x="15.5" y="-419.8" font-family="Helvetica,sans-Serif" font-weight="bold" font-size="11.00" fill="#000000">r_ytr_kokeen_suoritus</text>
<text text-anchor="start" x="340.5437" y="-419.3" font-family="Helvetica,sans-Serif" font-size="11.00" fill="#000000">[table]</text>
<polygon fill="none" stroke="#000000" points="10.5,-389.2 10.5,-411.2 266.5,-411.2 266.5,-389.2 10.5,-389.2"/>
<image xlink:href="../../images/primaryKeys.png" width="11px" height="12px" preserveAspectRatio="xMinYMin meet" x="15.5" y="-406.2"/>
<text text-anchor="start" x="30.5" y="-396.3" font-family="Helvetica,sans-Serif" font-size="11.00" fill="#000000">ytr_kokeen_suoritus_id</text>
<polygon fill="none" stroke="#000000" points="266.5,-389.2 266.5,-411.2 375.5,-411.2 375.5,-389.2 266.5,-389.2"/>
<text text-anchor="start" x="269.5" y="-396.9" font-family="Helvetica,sans-Serif" font-size="11.00" fill="#000000">int8[19]</text>
<polygon fill="#ffffff" stroke="transparent" points="10.5,-367.2 10.5,-389.2 266.5,-389.2 266.5,-367.2 10.5,-367.2"/>
<polygon fill="none" stroke="#000000" points="10.5,-367.2 10.5,-389.2 266.5,-389.2 266.5,-367.2 10.5,-367.2"/>
<text text-anchor="start" x="30.5" y="-374.3" font-family="Helvetica,sans-Serif" font-size="11.00" fill="#000000">ytr_tutkintokerran_suoritus_id</text>
<polygon fill="none" stroke="#000000" points="266.5,-367.2 266.5,-389.2 375.5,-389.2 375.5,-367.2 266.5,-367.2"/>
<text text-anchor="start" x="269.5" y="-374.9" font-family="Helvetica,sans-Serif" font-size="11.00" fill="#000000">int8[19]</text>
<polygon fill="#ffffff" stroke="transparent" points="10.5,-345.2 10.5,-367.2 266.5,-367.2 266.5,-345.2 10.5,-345.2"/>
<polygon fill="none" stroke="#000000" points="10.5,-345.2 10.5,-367.2 266.5,-367.2 266.5,-345.2 10.5,-345.2"/>
<text text-anchor="start" x="30.5" y="-352.3" font-family="Helvetica,sans-Serif" font-size="11.00" fill="#000000">ytr_tutkintokokonaisuuden_suoritus_id</text>
<polygon fill="none" stroke="#000000" points="266.5,-345.2 266.5,-367.2 375.5,-367.2 375.5,-345.2 266.5,-345.2"/>
<text text-anchor="start" x="269.5" y="-352.9" font-family="Helvetica,sans-Serif" font-size="11.00" fill="#000000">int8[19]</text>
<polygon fill="#ffffff" stroke="transparent" points="10.5,-323.2 10.5,-345.2 266.5,-345.2 266.5,-323.2 10.5,-323.2"/>
<polygon fill="none" stroke="#000000" points="10.5,-323.2 10.5,-345.2 266.5,-345.2 266.5,-323.2 10.5,-323.2"/>
<text text-anchor="start" x="30.5" y="-330.3" font-family="Helvetica,sans-Serif" font-size="11.00" fill="#000000">paatason_suoritus_id</text>
<polygon fill="none" stroke="#000000" points="266.5,-323.2 266.5,-345.2 375.5,-345.2 375.5,-323.2 266.5,-323.2"/>
<text text-anchor="start" x="269.5" y="-330.9" font-family="Helvetica,sans-Serif" font-size="11.00" fill="#000000">int8[19]</text>
<polygon fill="none" stroke="#000000" points="10.5,-301.2 10.5,-323.2 266.5,-323.2 266.5,-301.2 10.5,-301.2"/>
<text text-anchor="start" x="30.5" y="-308.3" font-family="Helvetica,sans-Serif" font-size="11.00" fill="#000000">opiskeluoikeus_oid</text>
<polygon fill="none" stroke="#000000" points="266.5,-301.2 266.5,-323.2 375.5,-323.2 375.5,-301.2 266.5,-301.2"/>
<text text-anchor="start" x="269.0344" y="-308.9" font-family="Helvetica,sans-Serif" font-size="11.00" fill="#000000">varchar[2147483647]</text>
<polygon fill="none" stroke="#000000" points="10.5,-279.2 10.5,-301.2 266.5,-301.2 266.5,-279.2 10.5,-279.2"/>
<text text-anchor="start" x="30.5" y="-286.3" font-family="Helvetica,sans-Serif" font-size="11.00" fill="#000000">suorituksen_tyyppi</text>
<polygon fill="none" stroke="#000000" points="266.5,-279.2 266.5,-301.2 375.5,-301.2 375.5,-279.2 266.5,-279.2"/>
<text text-anchor="start" x="269.0344" y="-286.9" font-family="Helvetica,sans-Serif" font-size="11.00" fill="#000000">varchar[2147483647]</text>
<polygon fill="none" stroke="#000000" points="10.5,-257.2 10.5,-279.2 266.5,-279.2 266.5,-257.2 10.5,-257.2"/>
<text text-anchor="start" x="30.5" y="-264.3" font-family="Helvetica,sans-Serif" font-size="11.00" fill="#000000">koulutusmoduuli_koodisto</text>
<polygon fill="none" stroke="#000000" points="266.5,-257.2 266.5,-279.2 375.5,-279.2 375.5,-257.2 266.5,-257.2"/>
<text text-anchor="start" x="269.0344" y="-264.9" font-family="Helvetica,sans-Serif" font-size="11.00" fill="#000000">varchar[2147483647]</text>
<polygon fill="none" stroke="#000000" points="10.5,-235.2 10.5,-257.2 266.5,-257.2 266.5,-235.2 10.5,-235.2"/>
<text text-anchor="start" x="30.5" y="-242.3" font-family="Helvetica,sans-Serif" font-size="11.00" fill="#000000">koulutusmoduuli_koodiarvo</text>
<polygon fill="none" stroke="#000000" points="266.5,-235.2 266.5,-257.2 375.5,-257.2 375.5,-235.2 266.5,-235.2"/>
<text text-anchor="start" x="269.0344" y="-242.9" font-family="Helvetica,sans-Serif" font-size="11.00" fill="#000000">varchar[2147483647]</text>
<polygon fill="none" stroke="#000000" points="10.5,-213.2 10.5,-235.2 266.5,-235.2 266.5,-213.2 10.5,-213.2"/>
<text text-anchor="start" x="30.5" y="-220.3" font-family="Helvetica,sans-Serif" font-size="11.00" fill="#000000">koulutusmoduuli_nimi</text>
<polygon fill="none" stroke="#000000" points="266.5,-213.2 266.5,-235.2 375.5,-235.2 375.5,-213.2 266.5,-213.2"/>
<text text-anchor="start" x="269.0344" y="-220.9" font-family="Helvetica,sans-Serif" font-size="11.00" fill="#000000">varchar[2147483647]</text>
<polygon fill="none" stroke="#000000" points="10.5,-191.2 10.5,-213.2 266.5,-213.2 266.5,-191.2 10.5,-191.2"/>
<text text-anchor="start" x="30.5" y="-198.3" font-family="Helvetica,sans-Serif" font-size="11.00" fill="#000000">arviointi_arvosana_koodiarvo</text>
<polygon fill="none" stroke="#000000" points="266.5,-191.2 266.5,-213.2 375.5,-213.2 375.5,-191.2 266.5,-191.2"/>
<text text-anchor="start" x="269.0344" y="-198.9" font-family="Helvetica,sans-Serif" font-size="11.00" fill="#000000">varchar[2147483647]</text>
<polygon fill="none" stroke="#000000" points="10.5,-169.2 10.5,-191.2 266.5,-191.2 266.5,-169.2 10.5,-169.2"/>
<text text-anchor="start" x="30.5" y="-176.3" font-family="Helvetica,sans-Serif" font-size="11.00" fill="#000000">arviointi_arvosana_koodisto</text>
<polygon fill="none" stroke="#000000" points="266.5,-169.2 266.5,-191.2 375.5,-191.2 375.5,-169.2 266.5,-169.2"/>
<text text-anchor="start" x="269.0344" y="-176.9" font-family="Helvetica,sans-Serif" font-size="11.00" fill="#000000">varchar[2147483647]</text>
<polygon fill="none" stroke="#000000" points="10.5,-147.2 10.5,-169.2 266.5,-169.2 266.5,-147.2 10.5,-147.2"/>
<text text-anchor="start" x="30.5" y="-154.3" font-family="Helvetica,sans-Serif" font-size="11.00" fill="#000000">arviointi_hyvaksytty</text>
<polygon fill="none" stroke="#000000" points="266.5,-147.2 266.5,-169.2 375.5,-169.2 375.5,-147.2 266.5,-147.2"/>
<text text-anchor="start" x="269.5" y="-154.9" font-family="Helvetica,sans-Serif" font-size="11.00" fill="#000000">bool[1]</text>
<polygon fill="none" stroke="#000000" points="10.5,-125.2 10.5,-147.2 266.5,-147.2 266.5,-125.2 10.5,-125.2"/>
<text text-anchor="start" x="30.5" y="-132.3" font-family="Helvetica,sans-Serif" font-size="11.00" fill="#000000">arviointi_pisteet</text>
<polygon fill="none" stroke="#000000" points="266.5,-125.2 266.5,-147.2 375.5,-147.2 375.5,-125.2 266.5,-125.2"/>
<text text-anchor="start" x="269.5" y="-132.9" font-family="Helvetica,sans-Serif" font-size="11.00" fill="#000000">int4[10]</text>
<polygon fill="none" stroke="#000000" points="10.5,-103.2 10.5,-125.2 266.5,-125.2 266.5,-103.2 10.5,-103.2"/>
<text text-anchor="start" x="30.5" y="-110.3" font-family="Helvetica,sans-Serif" font-size="11.00" fill="#000000">keskeytynyt</text>
<polygon fill="none" stroke="#000000" points="266.5,-103.2 266.5,-125.2 375.5,-125.2 375.5,-103.2 266.5,-103.2"/>
<text text-anchor="start" x="269.5" y="-110.9" font-family="Helvetica,sans-Serif" font-size="11.00" fill="#000000">bool[1]</text>
<polygon fill="none" stroke="#000000" points="10.5,-81.2 10.5,-103.2 266.5,-103.2 266.5,-81.2 10.5,-81.2"/>
<text text-anchor="start" x="30.5" y="-88.3" font-family="Helvetica,sans-Serif" font-size="11.00" fill="#000000">maksuton</text>
<polygon fill="none" stroke="#000000" points="266.5,-81.2 266.5,-103.2 375.5,-103.2 375.5,-81.2 266.5,-81.2"/>
<text text-anchor="start" x="269.5" y="-88.9" font-family="Helvetica,sans-Serif" font-size="11.00" fill="#000000">bool[1]</text>
<polygon fill="none" stroke="#000000" points="10.5,-59.2 10.5,-81.2 266.5,-81.2 266.5,-59.2 10.5,-59.2"/>
<text text-anchor="start" x="30.5" y="-66.3" font-family="Helvetica,sans-Serif" font-size="11.00" fill="#000000">data</text>
<polygon fill="none" stroke="#000000" points="266.5,-59.2 266.5,-81.2 375.5,-81.2 375.5,-59.2 266.5,-59.2"/>
<text text-anchor="start" x="269.5" y="-66.9" font-family="Helvetica,sans-Serif" font-size="11.00" fill="#000000">jsonb[2147483647]</text>
<polygon fill="#ffffff" stroke="transparent" points="10.5,-40.2 10.5,-59.2 126.5,-59.2 126.5,-40.2 10.5,-40.2"/>
<polygon fill="none" stroke="#000000" points="10.5,-40.2 10.5,-59.2 126.5,-59.2 126.5,-40.2 10.5,-40.2"/>
<text text-anchor="start" x="13.5" y="-46.3" font-family="Helvetica,sans-Serif" font-size="11.00" fill="#000000">&lt; 0</text>
<polygon fill="#ffffff" stroke="transparent" points="126.5,-40.2 126.5,-59.2 266.5,-59.2 266.5,-40.2 126.5,-40.2"/>
<polygon fill="none" stroke="#000000" points="126.5,-40.2 126.5,-59.2 266.5,-59.2 266.5,-40.2 126.5,-40.2"/>
<text text-anchor="start" x="224.9956" y="-46.3" font-family="Helvetica,sans-Serif" font-size="11.00" fill="#000000">78 rows</text>
<polygon fill="#ffffff" stroke="transparent" points="266.5,-40.2 266.5,-59.2 375.5,-59.2 375.5,-40.2 266.5,-40.2"/>
<polygon fill="none" stroke="#000000" points="266.5,-40.2 266.5,-59.2 375.5,-59.2 375.5,-40.2 266.5,-40.2"/>
<text text-anchor="start" x="356.9053" y="-46.3" font-family="Helvetica,sans-Serif" font-size="11.00" fill="#000000">0 &gt;</text>
<polygon fill="none" stroke="#000000" stroke-width="2" points="9,-39.2 9,-435.2 376,-435.2 376,-39.2 9,-39.2"/>
</a>
</g>
</g>
</g>
</svg>
