<?xml version="1.0" encoding="UTF-8" standalone="no"?>
<!DOCTYPE svg PUBLIC "-//W3C//DTD SVG 1.1//EN"
 "http://www.w3.org/Graphics/SVG/1.1/DTD/svg11.dtd">
<!-- Generated by graphviz version 2.40.1 (20161225.0304)
 -->
<!-- Title: oneDegreeRelationshipsDiagram Pages: 1 -->
<svg width="383pt" height="404pt"
 viewBox="0.00 0.00 383.00 404.20" xmlns="http://www.w3.org/2000/svg" xmlns:xlink="http://www.w3.org/1999/xlink">
<g id="graph0" class="graph" transform="scale(1 1) rotate(0) translate(4 400.2)">
<title>oneDegreeRelationshipsDiagram</title>
<polygon fill="#ffffff" stroke="transparent" points="-4,4 -4,-400.2 379,-400.2 379,4 -4,4"/>
<text text-anchor="middle" x="72.4936" y="-7.3" font-family="Helvetica,sans-Serif" font-size="11.00" fill="#000000">Generated by SchemaSpy</text>
<!-- r_ytr_tutkintokerran_suoritus -->
<g id="node1" class="node">
<title>r_ytr_tutkintokerran_suoritus</title>
<g id="a_node1"><a xlink:href="../../tables/r_ytr_tutkintokerran_suoritus.html" xlink:title="r_ytr_tutkintokerran_suoritus" target="_top">
<polygon fill="#ffffff" stroke="transparent" points="8,-38.2 8,-392.2 367,-392.2 367,-38.2 8,-38.2"/>
<polygon fill="#f5f5f5" stroke="transparent" points="10.5,-367.2 10.5,-390.2 365.5,-390.2 365.5,-367.2 10.5,-367.2"/>
<polygon fill="none" stroke="#000000" points="10.5,-367.2 10.5,-390.2 365.5,-390.2 365.5,-367.2 10.5,-367.2"/>
<text text-anchor="start" x="15.5" y="-375.8" font-family="Helvetica,sans-Serif" font-weight="bold" font-size="11.00" fill="#000000">r_ytr_tutkintokerran_suoritus</text>
<text text-anchor="start" x="330.5437" y="-375.3" font-family="Helvetica,sans-Serif" font-size="11.00" fill="#000000">[table]</text>
<polygon fill="none" stroke="#000000" points="10.5,-345.2 10.5,-367.2 256.5,-367.2 256.5,-345.2 10.5,-345.2"/>
<image xlink:href="../../images/primaryKeys.png" width="11px" height="12px" preserveAspectRatio="xMinYMin meet" x="15.5" y="-362.2"/>
<text text-anchor="start" x="30.5" y="-352.3" font-family="Helvetica,sans-Serif" font-size="11.00" fill="#000000">ytr_tutkintokerran_suoritus_id</text>
<polygon fill="none" stroke="#000000" points="256.5,-345.2 256.5,-367.2 365.5,-367.2 365.5,-345.2 256.5,-345.2"/>
<text text-anchor="start" x="259.5" y="-352.9" font-family="Helvetica,sans-Serif" font-size="11.00" fill="#000000">int8[19]</text>
<polygon fill="#ffffff" stroke="transparent" points="10.5,-323.2 10.5,-345.2 256.5,-345.2 256.5,-323.2 10.5,-323.2"/>
<polygon fill="none" stroke="#000000" points="10.5,-323.2 10.5,-345.2 256.5,-345.2 256.5,-323.2 10.5,-323.2"/>
<text text-anchor="start" x="30.5" y="-330.3" font-family="Helvetica,sans-Serif" font-size="11.00" fill="#000000">ytr_tutkintokokonaisuuden_suoritus_id</text>
<polygon fill="none" stroke="#000000" points="256.5,-323.2 256.5,-345.2 365.5,-345.2 365.5,-323.2 256.5,-323.2"/>
<text text-anchor="start" x="259.5" y="-330.9" font-family="Helvetica,sans-Serif" font-size="11.00" fill="#000000">int8[19]</text>
<polygon fill="#ffffff" stroke="transparent" points="10.5,-301.2 10.5,-323.2 256.5,-323.2 256.5,-301.2 10.5,-301.2"/>
<polygon fill="none" stroke="#000000" points="10.5,-301.2 10.5,-323.2 256.5,-323.2 256.5,-301.2 10.5,-301.2"/>
<text text-anchor="start" x="30.5" y="-308.3" font-family="Helvetica,sans-Serif" font-size="11.00" fill="#000000">paatason_suoritus_id</text>
<polygon fill="none" stroke="#000000" points="256.5,-301.2 256.5,-323.2 365.5,-323.2 365.5,-301.2 256.5,-301.2"/>
<text text-anchor="start" x="259.5" y="-308.9" font-family="Helvetica,sans-Serif" font-size="11.00" fill="#000000">int8[19]</text>
<polygon fill="none" stroke="#000000" points="10.5,-279.2 10.5,-301.2 256.5,-301.2 256.5,-279.2 10.5,-279.2"/>
<text text-anchor="start" x="30.5" y="-286.3" font-family="Helvetica,sans-Serif" font-size="11.00" fill="#000000">opiskeluoikeus_oid</text>
<polygon fill="none" stroke="#000000" points="256.5,-279.2 256.5,-301.2 365.5,-301.2 365.5,-279.2 256.5,-279.2"/>
<text text-anchor="start" x="259.0344" y="-286.9" font-family="Helvetica,sans-Serif" font-size="11.00" fill="#000000">varchar[2147483647]</text>
<polygon fill="none" stroke="#000000" points="10.5,-257.2 10.5,-279.2 256.5,-279.2 256.5,-257.2 10.5,-257.2"/>
<text text-anchor="start" x="30.5" y="-264.3" font-family="Helvetica,sans-Serif" font-size="11.00" fill="#000000">tutkintokerta_koodiarvo</text>
<polygon fill="none" stroke="#000000" points="256.5,-257.2 256.5,-279.2 365.5,-279.2 365.5,-257.2 256.5,-257.2"/>
<text text-anchor="start" x="259.0344" y="-264.9" font-family="Helvetica,sans-Serif" font-size="11.00" fill="#000000">varchar[2147483647]</text>
<polygon fill="none" stroke="#000000" points="10.5,-235.2 10.5,-257.2 256.5,-257.2 256.5,-235.2 10.5,-235.2"/>
<text text-anchor="start" x="30.5" y="-242.3" font-family="Helvetica,sans-Serif" font-size="11.00" fill="#000000">vuosi</text>
<polygon fill="none" stroke="#000000" points="256.5,-235.2 256.5,-257.2 365.5,-257.2 365.5,-235.2 256.5,-235.2"/>
<text text-anchor="start" x="259.5" y="-242.9" font-family="Helvetica,sans-Serif" font-size="11.00" fill="#000000">int4[10]</text>
<polygon fill="none" stroke="#000000" points="10.5,-213.2 10.5,-235.2 256.5,-235.2 256.5,-213.2 10.5,-213.2"/>
<text text-anchor="start" x="30.5" y="-220.3" font-family="Helvetica,sans-Serif" font-size="11.00" fill="#000000">vuodenaika_koodiarvo</text>
<polygon fill="none" stroke="#000000" points="256.5,-213.2 256.5,-235.2 365.5,-235.2 365.5,-213.2 256.5,-213.2"/>
<text text-anchor="start" x="259.0344" y="-220.9" font-family="Helvetica,sans-Serif" font-size="11.00" fill="#000000">varchar[2147483647]</text>
<polygon fill="none" stroke="#000000" points="10.5,-191.2 10.5,-213.2 256.5,-213.2 256.5,-191.2 10.5,-191.2"/>
<text text-anchor="start" x="30.5" y="-198.3" font-family="Helvetica,sans-Serif" font-size="11.00" fill="#000000">koulutustausta_koodiarvo</text>
<polygon fill="none" stroke="#000000" points="256.5,-191.2 256.5,-213.2 365.5,-213.2 365.5,-191.2 256.5,-191.2"/>
<text text-anchor="start" x="259.0344" y="-198.9" font-family="Helvetica,sans-Serif" font-size="11.00" fill="#000000">varchar[2147483647]</text>
<polygon fill="none" stroke="#000000" points="10.5,-169.2 10.5,-191.2 256.5,-191.2 256.5,-169.2 10.5,-169.2"/>
<text text-anchor="start" x="30.5" y="-176.3" font-family="Helvetica,sans-Serif" font-size="11.00" fill="#000000">oppilaitos_oid</text>
<polygon fill="none" stroke="#000000" points="256.5,-169.2 256.5,-191.2 365.5,-191.2 365.5,-169.2 256.5,-169.2"/>
<text text-anchor="start" x="259.0344" y="-176.9" font-family="Helvetica,sans-Serif" font-size="11.00" fill="#000000">varchar[2147483647]</text>
<polygon fill="none" stroke="#000000" points="10.5,-147.2 10.5,-169.2 256.5,-169.2 256.5,-147.2 10.5,-147.2"/>
<text text-anchor="start" x="30.5" y="-154.3" font-family="Helvetica,sans-Serif" font-size="11.00" fill="#000000">oppilaitos_nimi</text>
<polygon fill="none" stroke="#000000" points="256.5,-147.2 256.5,-169.2 365.5,-169.2 365.5,-147.2 256.5,-147.2"/>
<text text-anchor="start" x="259.0344" y="-154.9" font-family="Helvetica,sans-Serif" font-size="11.00" fill="#000000">varchar[2147483647]</text>
<polygon fill="none" stroke="#000000" points="10.5,-125.2 10.5,-147.2 256.5,-147.2 256.5,-125.2 10.5,-125.2"/>
<text text-anchor="start" x="30.5" y="-132.3" font-family="Helvetica,sans-Serif" font-size="11.00" fill="#000000">oppilaitos_nimi_sv</text>
<polygon fill="none" stroke="#000000" points="256.5,-125.2 256.5,-147.2 365.5,-147.2 365.5,-125.2 256.5,-125.2"/>
<text text-anchor="start" x="259.0344" y="-132.9" font-family="Helvetica,sans-Serif" font-size="11.00" fill="#000000">varchar[2147483647]</text>
<polygon fill="none" stroke="#000000" points="10.5,-103.2 10.5,-125.2 256.5,-125.2 256.5,-103.2 10.5,-103.2"/>
<text text-anchor="start" x="30.5" y="-110.3" font-family="Helvetica,sans-Serif" font-size="11.00" fill="#000000">oppilaitos_kotipaikka</text>
<polygon fill="none" stroke="#000000" points="256.5,-103.2 256.5,-125.2 365.5,-125.2 365.5,-103.2 256.5,-103.2"/>
<text text-anchor="start" x="259.0344" y="-110.9" font-family="Helvetica,sans-Serif" font-size="11.00" fill="#000000">varchar[2147483647]</text>
<polygon fill="none" stroke="#000000" points="10.5,-81.2 10.5,-103.2 256.5,-103.2 256.5,-81.2 10.5,-81.2"/>
<text text-anchor="start" x="30.5" y="-88.3" font-family="Helvetica,sans-Serif" font-size="11.00" fill="#000000">oppilaitosnumero</text>
<polygon fill="none" stroke="#000000" points="256.5,-81.2 256.5,-103.2 365.5,-103.2 365.5,-81.2 256.5,-81.2"/>
<text text-anchor="start" x="259.0344" y="-88.9" font-family="Helvetica,sans-Serif" font-size="11.00" fill="#000000">varchar[2147483647]</text>
<polygon fill="none" stroke="#000000" points="10.5,-59.2 10.5,-81.2 256.5,-81.2 256.5,-59.2 10.5,-59.2"/>
<text text-anchor="start" x="30.5" y="-66.3" font-family="Helvetica,sans-Serif" font-size="11.00" fill="#000000">data</text>
<polygon fill="none" stroke="#000000" points="256.5,-59.2 256.5,-81.2 365.5,-81.2 365.5,-59.2 256.5,-59.2"/>
<text text-anchor="start" x="259.5" y="-66.9" font-family="Helvetica,sans-Serif" font-size="11.00" fill="#000000">jsonb[2147483647]</text>
<polygon fill="#ffffff" stroke="transparent" points="10.5,-40.2 10.5,-59.2 121.5,-59.2 121.5,-40.2 10.5,-40.2"/>
<polygon fill="none" stroke="#000000" points="10.5,-40.2 10.5,-59.2 121.5,-59.2 121.5,-40.2 10.5,-40.2"/>
<text text-anchor="start" x="13.5" y="-46.3" font-family="Helvetica,sans-Serif" font-size="11.00" fill="#000000">&lt; 0</text>
<polygon fill="#ffffff" stroke="transparent" points="121.5,-40.2 121.5,-59.2 256.5,-59.2 256.5,-40.2 121.5,-40.2"/>
<polygon fill="none" stroke="#000000" points="121.5,-40.2 121.5,-59.2 256.5,-59.2 256.5,-40.2 121.5,-40.2"/>
<text text-anchor="start" x="214.9956" y="-46.3" font-family="Helvetica,sans-Serif" font-size="11.00" fill="#000000">16 rows</text>
<polygon fill="#ffffff" stroke="transparent" points="256.5,-40.2 256.5,-59.2 365.5,-59.2 365.5,-40.2 256.5,-40.2"/>
<polygon fill="none" stroke="#000000" points="256.5,-40.2 256.5,-59.2 365.5,-59.2 365.5,-40.2 256.5,-40.2"/>
<text text-anchor="start" x="346.9053" y="-46.3" font-family="Helvetica,sans-Serif" font-size="11.00" fill="#000000">0 &gt;</text>
<polygon fill="none" stroke="#000000" stroke-width="2" points="9,-39.2 9,-391.2 366,-391.2 366,-39.2 9,-39.2"/>
</a>
</g>
</g>
</g>
</svg>
