<?xml version="1.0" encoding="UTF-8" standalone="no"?>
<!DOCTYPE svg PUBLIC "-//W3C//DTD SVG 1.1//EN"
 "http://www.w3.org/Graphics/SVG/1.1/DTD/svg11.dtd">
<!-- Generated by graphviz version 2.40.1 (20161225.0304)
 -->
<!-- Title: oneDegreeRelationshipsDiagram Pages: 1 -->
<svg width="301pt" height="228pt"
 viewBox="0.00 0.00 301.00 228.20" xmlns="http://www.w3.org/2000/svg" xmlns:xlink="http://www.w3.org/1999/xlink">
<g id="graph0" class="graph" transform="scale(1 1) rotate(0) translate(4 224.2)">
<title>oneDegreeRelationshipsDiagram</title>
<polygon fill="#ffffff" stroke="transparent" points="-4,4 -4,-224.2 297,-224.2 297,4 -4,4"/>
<text text-anchor="middle" x="72.4936" y="-7.3" font-family="Helvetica,sans-Serif" font-size="11.00" fill="#000000">Generated by SchemaSpy</text>
<!-- raportointikanta_status -->
<g id="node1" class="node">
<title>raportointikanta_status</title>
<g id="a_node1"><a xlink:href="../../tables/raportointikanta_status.html" xlink:title="raportointikanta_status" target="_top">
<polygon fill="#ffffff" stroke="transparent" points="8,-38.2 8,-216.2 285,-216.2 285,-38.2 8,-38.2"/>
<polygon fill="#f5f5f5" stroke="transparent" points="10.5,-191.2 10.5,-214.2 283.5,-214.2 283.5,-191.2 10.5,-191.2"/>
<polygon fill="none" stroke="#000000" points="10.5,-191.2 10.5,-214.2 283.5,-214.2 283.5,-191.2 10.5,-191.2"/>
<text text-anchor="start" x="15.5" y="-199.8" font-family="Helvetica,sans-Serif" font-weight="bold" font-size="11.00" fill="#000000">raportointikanta_status</text>
<text text-anchor="start" x="248.5437" y="-199.3" font-family="Helvetica,sans-Serif" font-size="11.00" fill="#000000">[table]</text>
<polygon fill="none" stroke="#000000" points="10.5,-169.2 10.5,-191.2 174.5,-191.2 174.5,-169.2 10.5,-169.2"/>
<image xlink:href="../../images/primaryKeys.png" width="11px" height="12px" preserveAspectRatio="xMinYMin meet" x="15.5" y="-186.2"/>
<text text-anchor="start" x="30.5" y="-176.3" font-family="Helvetica,sans-Serif" font-size="11.00" fill="#000000">name</text>
<polygon fill="none" stroke="#000000" points="174.5,-169.2 174.5,-191.2 283.5,-191.2 283.5,-169.2 174.5,-169.2"/>
<text text-anchor="start" x="177.0344" y="-176.9" font-family="Helvetica,sans-Serif" font-size="11.00" fill="#000000">varchar[2147483647]</text>
<polygon fill="none" stroke="#000000" points="10.5,-147.2 10.5,-169.2 174.5,-169.2 174.5,-147.2 10.5,-147.2"/>
<text text-anchor="start" x="30.5" y="-154.3" font-family="Helvetica,sans-Serif" font-size="11.00" fill="#000000">count</text>
<polygon fill="none" stroke="#000000" points="174.5,-147.2 174.5,-169.2 283.5,-169.2 283.5,-147.2 174.5,-147.2"/>
<text text-anchor="start" x="177.5" y="-154.9" font-family="Helvetica,sans-Serif" font-size="11.00" fill="#000000">int4[10]</text>
<polygon fill="none" stroke="#000000" points="10.5,-125.2 10.5,-147.2 174.5,-147.2 174.5,-125.2 10.5,-125.2"/>
<text text-anchor="start" x="30.5" y="-132.3" font-family="Helvetica,sans-Serif" font-size="11.00" fill="#000000">last_update</text>
<polygon fill="none" stroke="#000000" points="174.5,-125.2 174.5,-147.2 283.5,-147.2 283.5,-125.2 174.5,-125.2"/>
<text text-anchor="start" x="177.5" y="-132.9" font-family="Helvetica,sans-Serif" font-size="11.00" fill="#000000">timestamp[29,6]</text>
<polygon fill="none" stroke="#000000" points="10.5,-103.2 10.5,-125.2 174.5,-125.2 174.5,-103.2 10.5,-103.2"/>
<text text-anchor="start" x="30.5" y="-110.3" font-family="Helvetica,sans-Serif" font-size="11.00" fill="#000000">load_started</text>
<polygon fill="none" stroke="#000000" points="174.5,-103.2 174.5,-125.2 283.5,-125.2 283.5,-103.2 174.5,-103.2"/>
<text text-anchor="start" x="177.5" y="-110.9" font-family="Helvetica,sans-Serif" font-size="11.00" fill="#000000">timestamp[29,6]</text>
<polygon fill="none" stroke="#000000" points="10.5,-81.2 10.5,-103.2 174.5,-103.2 174.5,-81.2 10.5,-81.2"/>
<text text-anchor="start" x="30.5" y="-88.3" font-family="Helvetica,sans-Serif" font-size="11.00" fill="#000000">load_completed</text>
<polygon fill="none" stroke="#000000" points="174.5,-81.2 174.5,-103.2 283.5,-103.2 283.5,-81.2 174.5,-81.2"/>
<text text-anchor="start" x="177.5" y="-88.9" font-family="Helvetica,sans-Serif" font-size="11.00" fill="#000000">timestamp[29,6]</text>
<polygon fill="none" stroke="#000000" points="10.5,-59.2 10.5,-81.2 174.5,-81.2 174.5,-59.2 10.5,-59.2"/>
<text text-anchor="start" x="30.5" y="-66.3" font-family="Helvetica,sans-Serif" font-size="11.00" fill="#000000">due_time</text>
<polygon fill="none" stroke="#000000" points="174.5,-59.2 174.5,-81.2 283.5,-81.2 283.5,-59.2 174.5,-59.2"/>
<text text-anchor="start" x="177.5" y="-66.9" font-family="Helvetica,sans-Serif" font-size="11.00" fill="#000000">timestamp[29,6]</text>
<polygon fill="#ffffff" stroke="transparent" points="10.5,-40.2 10.5,-59.2 83.5,-59.2 83.5,-40.2 10.5,-40.2"/>
<polygon fill="none" stroke="#000000" points="10.5,-40.2 10.5,-59.2 83.5,-59.2 83.5,-40.2 10.5,-40.2"/>
<text text-anchor="start" x="13.5" y="-46.3" font-family="Helvetica,sans-Serif" font-size="11.00" fill="#000000">&lt; 0</text>
<polygon fill="#ffffff" stroke="transparent" points="83.5,-40.2 83.5,-59.2 174.5,-59.2 174.5,-40.2 83.5,-40.2"/>
<polygon fill="none" stroke="#000000" points="83.5,-40.2 83.5,-59.2 174.5,-59.2 174.5,-40.2 83.5,-40.2"/>
<text text-anchor="start" x="139.1105" y="-46.3" font-family="Helvetica,sans-Serif" font-size="11.00" fill="#000000">9 rows</text>
<polygon fill="#ffffff" stroke="transparent" points="174.5,-40.2 174.5,-59.2 283.5,-59.2 283.5,-40.2 174.5,-40.2"/>
<polygon fill="none" stroke="#000000" points="174.5,-40.2 174.5,-59.2 283.5,-59.2 283.5,-40.2 174.5,-40.2"/>
<text text-anchor="start" x="264.9053" y="-46.3" font-family="Helvetica,sans-Serif" font-size="11.00" fill="#000000">0 &gt;</text>
<polygon fill="none" stroke="#000000" stroke-width="2" points="9,-39.2 9,-215.2 284,-215.2 284,-39.2 9,-39.2"/>
</a>
</g>
</g>
</g>
</svg>
