<?xml version="1.0" encoding="UTF-8" standalone="no"?>
<!DOCTYPE svg PUBLIC "-//W3C//DTD SVG 1.1//EN"
 "http://www.w3.org/Graphics/SVG/1.1/DTD/svg11.dtd">
<!-- Generated by graphviz version 2.40.1 (20161225.0304)
 -->
<!-- Title: oneDegreeRelationshipsDiagram Pages: 1 -->
<svg width="360pt" height="272pt"
 viewBox="0.00 0.00 360.00 272.20" xmlns="http://www.w3.org/2000/svg" xmlns:xlink="http://www.w3.org/1999/xlink">
<g id="graph0" class="graph" transform="scale(1 1) rotate(0) translate(4 268.2)">
<title>oneDegreeRelationshipsDiagram</title>
<polygon fill="#ffffff" stroke="transparent" points="-4,4 -4,-268.2 356,-268.2 356,4 -4,4"/>
<text text-anchor="middle" x="72.4936" y="-7.3" font-family="Helvetica,sans-Serif" font-size="11.00" fill="#000000">Generated by SchemaSpy</text>
<!-- topks_ammatillinen_raportointi -->
<g id="node1" class="node">
<title>topks_ammatillinen_raportointi</title>
<g id="a_node1"><a xlink:href="../../tables/topks_ammatillinen_raportointi.html" xlink:title="topks_ammatillinen_raportointi" target="_top">
<polygon fill="#ffffff" stroke="transparent" points="8,-38.2 8,-260.2 344,-260.2 344,-38.2 8,-38.2"/>
<polygon fill="#f5f5f5" stroke="transparent" points="10,-235.2 10,-258.2 342,-258.2 342,-235.2 10,-235.2"/>
<polygon fill="none" stroke="#000000" points="10,-235.2 10,-258.2 342,-258.2 342,-235.2 10,-235.2"/>
<text text-anchor="start" x="15" y="-243.8" font-family="Helvetica,sans-Serif" font-weight="bold" font-size="11.00" fill="#000000">topks_ammatillinen_raportointi</text>
<text text-anchor="start" x="307.0437" y="-243.3" font-family="Helvetica,sans-Serif" font-size="11.00" fill="#000000">[table]</text>
<polygon fill="none" stroke="#000000" points="10,-213.2 10,-235.2 233,-235.2 233,-213.2 10,-213.2"/>
<text text-anchor="start" x="30" y="-220.3" font-family="Helvetica,sans-Serif" font-size="11.00" fill="#000000">opiskeluoikeus_oid</text>
<polygon fill="none" stroke="#000000" points="233,-213.2 233,-235.2 342,-235.2 342,-213.2 233,-213.2"/>
<text text-anchor="start" x="235.5344" y="-220.9" font-family="Helvetica,sans-Serif" font-size="11.00" fill="#000000">varchar[2147483647]</text>
<polygon fill="none" stroke="#000000" points="10,-191.2 10,-213.2 233,-213.2 233,-191.2 10,-191.2"/>
<text text-anchor="start" x="30" y="-198.3" font-family="Helvetica,sans-Serif" font-size="11.00" fill="#000000">paatason_suoritus_id</text>
<polygon fill="none" stroke="#000000" points="233,-191.2 233,-213.2 342,-213.2 342,-191.2 233,-191.2"/>
<text text-anchor="start" x="236" y="-198.9" font-family="Helvetica,sans-Serif" font-size="11.00" fill="#000000">int8[19]</text>
<polygon fill="none" stroke="#000000" points="10,-169.2 10,-191.2 233,-191.2 233,-169.2 10,-169.2"/>
<text text-anchor="start" x="30" y="-176.3" font-family="Helvetica,sans-Serif" font-size="11.00" fill="#000000">toteuttavan_luokan_nimi</text>
<polygon fill="none" stroke="#000000" points="233,-169.2 233,-191.2 342,-191.2 342,-169.2 233,-169.2"/>
<text text-anchor="start" x="235.5344" y="-176.9" font-family="Helvetica,sans-Serif" font-size="11.00" fill="#000000">varchar[2147483647]</text>
<polygon fill="none" stroke="#000000" points="10,-147.2 10,-169.2 233,-169.2 233,-147.2 10,-147.2"/>
<text text-anchor="start" x="30" y="-154.3" font-family="Helvetica,sans-Serif" font-size="11.00" fill="#000000">rahoituksen_piirissa</text>
<polygon fill="none" stroke="#000000" points="233,-147.2 233,-169.2 342,-169.2 342,-147.2 233,-147.2"/>
<text text-anchor="start" x="236" y="-154.9" font-family="Helvetica,sans-Serif" font-size="11.00" fill="#000000">bool[1]</text>
<polygon fill="none" stroke="#000000" points="10,-125.2 10,-147.2 233,-147.2 233,-125.2 10,-125.2"/>
<text text-anchor="start" x="30" y="-132.3" font-family="Helvetica,sans-Serif" font-size="11.00" fill="#000000">arviointi_hyvaksytty</text>
<polygon fill="none" stroke="#000000" points="233,-125.2 233,-147.2 342,-147.2 342,-125.2 233,-125.2"/>
<text text-anchor="start" x="236" y="-132.9" font-family="Helvetica,sans-Serif" font-size="11.00" fill="#000000">bool[1]</text>
<polygon fill="none" stroke="#000000" points="10,-103.2 10,-125.2 233,-125.2 233,-103.2 10,-103.2"/>
<text text-anchor="start" x="30" y="-110.3" font-family="Helvetica,sans-Serif" font-size="11.00" fill="#000000">tunnustettu</text>
<polygon fill="none" stroke="#000000" points="233,-103.2 233,-125.2 342,-125.2 342,-103.2 233,-103.2"/>
<text text-anchor="start" x="236" y="-110.9" font-family="Helvetica,sans-Serif" font-size="11.00" fill="#000000">bool[1]</text>
<polygon fill="none" stroke="#000000" points="10,-81.2 10,-103.2 233,-103.2 233,-81.2 10,-81.2"/>
<text text-anchor="start" x="30" y="-88.3" font-family="Helvetica,sans-Serif" font-size="11.00" fill="#000000">koulutusmoduuli_laajuus_arvo</text>
<polygon fill="none" stroke="#000000" points="233,-81.2 233,-103.2 342,-103.2 342,-81.2 233,-81.2"/>
<text text-anchor="start" x="236" y="-88.9" font-family="Helvetica,sans-Serif" font-size="11.00" fill="#000000">float8[17,17]</text>
<polygon fill="none" stroke="#000000" points="10,-59.2 10,-81.2 233,-81.2 233,-59.2 10,-59.2"/>
<text text-anchor="start" x="30" y="-66.3" font-family="Helvetica,sans-Serif" font-size="11.00" fill="#000000">koulutusmoduuli_laajuus_yksikko</text>
<polygon fill="none" stroke="#000000" points="233,-59.2 233,-81.2 342,-81.2 342,-59.2 233,-59.2"/>
<text text-anchor="start" x="235.5344" y="-66.9" font-family="Helvetica,sans-Serif" font-size="11.00" fill="#000000">varchar[2147483647]</text>
<polygon fill="#ffffff" stroke="transparent" points="10,-40.2 10,-59.2 113,-59.2 113,-40.2 10,-40.2"/>
<polygon fill="none" stroke="#000000" points="10,-40.2 10,-59.2 113,-59.2 113,-40.2 10,-40.2"/>
<text text-anchor="start" x="13" y="-46.3" font-family="Helvetica,sans-Serif" font-size="11.00" fill="#000000">&lt; 0</text>
<polygon fill="#ffffff" stroke="transparent" points="113,-40.2 113,-59.2 233,-59.2 233,-40.2 113,-40.2"/>
<polygon fill="none" stroke="#000000" points="113,-40.2 113,-59.2 233,-59.2 233,-40.2 113,-40.2"/>
<text text-anchor="start" x="197.6105" y="-46.3" font-family="Helvetica,sans-Serif" font-size="11.00" fill="#000000">0 rows</text>
<polygon fill="#ffffff" stroke="transparent" points="233,-40.2 233,-59.2 342,-59.2 342,-40.2 233,-40.2"/>
<polygon fill="none" stroke="#000000" points="233,-40.2 233,-59.2 342,-59.2 342,-40.2 233,-40.2"/>
<text text-anchor="start" x="323.4053" y="-46.3" font-family="Helvetica,sans-Serif" font-size="11.00" fill="#000000">0 &gt;</text>
<polygon fill="none" stroke="#000000" stroke-width="2" points="9,-39.2 9,-259.2 343,-259.2 343,-39.2 9,-39.2"/>
</a>
</g>
</g>
</g>
</svg>
