<?xml version="1.0" encoding="UTF-8" standalone="no"?>
<!DOCTYPE svg PUBLIC "-//W3C//DTD SVG 1.1//EN"
 "http://www.w3.org/Graphics/SVG/1.1/DTD/svg11.dtd">
<!-- Generated by graphviz version 2.40.1 (20161225.0304)
 -->
<!-- Title: oneDegreeRelationshipsDiagram Pages: 1 -->
<svg width="353pt" height="272pt"
 viewBox="0.00 0.00 353.00 272.20" xmlns="http://www.w3.org/2000/svg" xmlns:xlink="http://www.w3.org/1999/xlink">
<g id="graph0" class="graph" transform="scale(1 1) rotate(0) translate(4 268.2)">
<title>oneDegreeRelationshipsDiagram</title>
<polygon fill="#ffffff" stroke="transparent" points="-4,4 -4,-268.2 349,-268.2 349,4 -4,4"/>
<text text-anchor="middle" x="72.4936" y="-7.3" font-family="Helvetica,sans-Serif" font-size="11.00" fill="#000000">Generated by SchemaSpy</text>
<!-- topks_ammatillinen_raportointi -->
<g id="node1" class="node">
<title>topks_ammatillinen_raportointi</title>
<g id="a_node1"><a xlink:href="../../tables/topks_ammatillinen_raportointi.html" xlink:title="topks_ammatillinen_raportointi" target="_top">
<polygon fill="#ffffff" stroke="transparent" points="8,-38.2 8,-260.2 337,-260.2 337,-38.2 8,-38.2"/>
<polygon fill="#f5f5f5" stroke="transparent" points="10.5,-235.2 10.5,-258.2 335.5,-258.2 335.5,-235.2 10.5,-235.2"/>
<polygon fill="none" stroke="#000000" points="10.5,-235.2 10.5,-258.2 335.5,-258.2 335.5,-235.2 10.5,-235.2"/>
<text text-anchor="start" x="15.5" y="-243.8" font-family="Helvetica,sans-Serif" font-weight="bold" font-size="11.00" fill="#000000">topks_ammatillinen_raportointi</text>
<text text-anchor="start" x="300.5437" y="-243.3" font-family="Helvetica,sans-Serif" font-size="11.00" fill="#000000">[table]</text>
<polygon fill="none" stroke="#000000" points="10.5,-213.2 10.5,-235.2 226.5,-235.2 226.5,-213.2 10.5,-213.2"/>
<text text-anchor="start" x="30.5" y="-220.3" font-family="Helvetica,sans-Serif" font-size="11.00" fill="#000000">opiskeluoikeus_oid</text>
<polygon fill="none" stroke="#000000" points="226.5,-213.2 226.5,-235.2 335.5,-235.2 335.5,-213.2 226.5,-213.2"/>
<text text-anchor="start" x="229.0344" y="-220.9" font-family="Helvetica,sans-Serif" font-size="11.00" fill="#000000">varchar[2147483647]</text>
<polygon fill="none" stroke="#000000" points="10.5,-191.2 10.5,-213.2 226.5,-213.2 226.5,-191.2 10.5,-191.2"/>
<text text-anchor="start" x="30.5" y="-198.3" font-family="Helvetica,sans-Serif" font-size="11.00" fill="#000000">paatason_suoritus_id</text>
<polygon fill="none" stroke="#000000" points="226.5,-191.2 226.5,-213.2 335.5,-213.2 335.5,-191.2 226.5,-191.2"/>
<text text-anchor="start" x="229.5" y="-198.9" font-family="Helvetica,sans-Serif" font-size="11.00" fill="#000000">int8[19]</text>
<polygon fill="none" stroke="#000000" points="10.5,-169.2 10.5,-191.2 226.5,-191.2 226.5,-169.2 10.5,-169.2"/>
<text text-anchor="start" x="30.5" y="-176.3" font-family="Helvetica,sans-Serif" font-size="11.00" fill="#000000">toteuttavan_luokan_nimi</text>
<polygon fill="none" stroke="#000000" points="226.5,-169.2 226.5,-191.2 335.5,-191.2 335.5,-169.2 226.5,-169.2"/>
<text text-anchor="start" x="229.0344" y="-176.9" font-family="Helvetica,sans-Serif" font-size="11.00" fill="#000000">varchar[2147483647]</text>
<polygon fill="none" stroke="#000000" points="10.5,-147.2 10.5,-169.2 226.5,-169.2 226.5,-147.2 10.5,-147.2"/>
<text text-anchor="start" x="30.5" y="-154.3" font-family="Helvetica,sans-Serif" font-size="11.00" fill="#000000">rahoituksen_piirissa</text>
<polygon fill="none" stroke="#000000" points="226.5,-147.2 226.5,-169.2 335.5,-169.2 335.5,-147.2 226.5,-147.2"/>
<text text-anchor="start" x="229.5" y="-154.9" font-family="Helvetica,sans-Serif" font-size="11.00" fill="#000000">bool[1]</text>
<polygon fill="none" stroke="#000000" points="10.5,-125.2 10.5,-147.2 226.5,-147.2 226.5,-125.2 10.5,-125.2"/>
<text text-anchor="start" x="30.5" y="-132.3" font-family="Helvetica,sans-Serif" font-size="11.00" fill="#000000">arviointi_hyvaksytty</text>
<polygon fill="none" stroke="#000000" points="226.5,-125.2 226.5,-147.2 335.5,-147.2 335.5,-125.2 226.5,-125.2"/>
<text text-anchor="start" x="229.5" y="-132.9" font-family="Helvetica,sans-Serif" font-size="11.00" fill="#000000">bool[1]</text>
<polygon fill="none" stroke="#000000" points="10.5,-103.2 10.5,-125.2 226.5,-125.2 226.5,-103.2 10.5,-103.2"/>
<text text-anchor="start" x="30.5" y="-110.3" font-family="Helvetica,sans-Serif" font-size="11.00" fill="#000000">tunnustettu</text>
<polygon fill="none" stroke="#000000" points="226.5,-103.2 226.5,-125.2 335.5,-125.2 335.5,-103.2 226.5,-103.2"/>
<text text-anchor="start" x="229.5" y="-110.9" font-family="Helvetica,sans-Serif" font-size="11.00" fill="#000000">bool[1]</text>
<polygon fill="none" stroke="#000000" points="10.5,-81.2 10.5,-103.2 226.5,-103.2 226.5,-81.2 10.5,-81.2"/>
<text text-anchor="start" x="30.5" y="-88.3" font-family="Helvetica,sans-Serif" font-size="11.00" fill="#000000">koulutusmoduuli_laajuus_arvo</text>
<polygon fill="none" stroke="#000000" points="226.5,-81.2 226.5,-103.2 335.5,-103.2 335.5,-81.2 226.5,-81.2"/>
<text text-anchor="start" x="229.5" y="-88.9" font-family="Helvetica,sans-Serif" font-size="11.00" fill="#000000">float8[17,17]</text>
<polygon fill="none" stroke="#000000" points="10.5,-59.2 10.5,-81.2 226.5,-81.2 226.5,-59.2 10.5,-59.2"/>
<text text-anchor="start" x="30.5" y="-66.3" font-family="Helvetica,sans-Serif" font-size="11.00" fill="#000000">koulutusmoduuli_laajuus_yksikko</text>
<polygon fill="none" stroke="#000000" points="226.5,-59.2 226.5,-81.2 335.5,-81.2 335.5,-59.2 226.5,-59.2"/>
<text text-anchor="start" x="229.0344" y="-66.9" font-family="Helvetica,sans-Serif" font-size="11.00" fill="#000000">varchar[2147483647]</text>
<polygon fill="#ffffff" stroke="transparent" points="10.5,-40.2 10.5,-59.2 109.5,-59.2 109.5,-40.2 10.5,-40.2"/>
<polygon fill="none" stroke="#000000" points="10.5,-40.2 10.5,-59.2 109.5,-59.2 109.5,-40.2 10.5,-40.2"/>
<text text-anchor="start" x="13.5" y="-46.3" font-family="Helvetica,sans-Serif" font-size="11.00" fill="#000000">&lt; 0</text>
<polygon fill="#ffffff" stroke="transparent" points="109.5,-40.2 109.5,-59.2 226.5,-59.2 226.5,-40.2 109.5,-40.2"/>
<polygon fill="none" stroke="#000000" points="109.5,-40.2 109.5,-59.2 226.5,-59.2 226.5,-40.2 109.5,-40.2"/>
<text text-anchor="start" x="191.1105" y="-46.3" font-family="Helvetica,sans-Serif" font-size="11.00" fill="#000000">0 rows</text>
<polygon fill="#ffffff" stroke="transparent" points="226.5,-40.2 226.5,-59.2 335.5,-59.2 335.5,-40.2 226.5,-40.2"/>
<polygon fill="none" stroke="#000000" points="226.5,-40.2 226.5,-59.2 335.5,-59.2 335.5,-40.2 226.5,-40.2"/>
<text text-anchor="start" x="316.9053" y="-46.3" font-family="Helvetica,sans-Serif" font-size="11.00" fill="#000000">0 &gt;</text>
<polygon fill="none" stroke="#000000" stroke-width="2" points="9,-39.2 9,-259.2 336,-259.2 336,-39.2 9,-39.2"/>
</a>
</g>
</g>
</g>
</svg>
