<?xml version="1.0" encoding="UTF-8" standalone="no"?>
<!DOCTYPE svg PUBLIC "-//W3C//DTD SVG 1.1//EN"
 "http://www.w3.org/Graphics/SVG/1.1/DTD/svg11.dtd">
<!-- Generated by graphviz version 2.40.1 (20161225.0304)
 -->
<!-- Title: oneDegreeRelationshipsDiagram Pages: 1 -->
<svg width="466pt" height="140pt"
 viewBox="0.00 0.00 466.00 140.20" xmlns="http://www.w3.org/2000/svg" xmlns:xlink="http://www.w3.org/1999/xlink">
<g id="graph0" class="graph" transform="scale(1 1) rotate(0) translate(4 136.2)">
<title>oneDegreeRelationshipsDiagram</title>
<polygon fill="#ffffff" stroke="transparent" points="-4,4 -4,-136.2 462,-136.2 462,4 -4,4"/>
<text text-anchor="middle" x="72.4936" y="-7.3" font-family="Helvetica,sans-Serif" font-size="11.00" fill="#000000">Generated by SchemaSpy</text>
<!-- ilmoitus_lisätiedot -->
<g id="node1" class="node">
<title>ilmoitus_lisätiedot</title>
<g id="a_node1"><a xlink:href="../../tables/ilmoitus_lis_tiedot_cc362998.html" xlink:title="ilmoitus_lisätiedot" target="_top">
<polygon fill="#ffffff" stroke="transparent" points="216,-38.2 216,-128.2 450,-128.2 450,-38.2 216,-38.2"/>
<polygon fill="#f5f5f5" stroke="transparent" points="218,-103.2 218,-126.2 448,-126.2 448,-103.2 218,-103.2"/>
<polygon fill="none" stroke="#000000" points="218,-103.2 218,-126.2 448,-126.2 448,-103.2 218,-103.2"/>
<text text-anchor="start" x="223" y="-111.8" font-family="Helvetica,sans-Serif" font-weight="bold" font-size="11.00" fill="#000000">ilmoitus_lisätiedot</text>
<text text-anchor="start" x="413.0437" y="-111.3" font-family="Helvetica,sans-Serif" font-size="11.00" fill="#000000">[table]</text>
<polygon fill="none" stroke="#000000" points="218,-81.2 218,-103.2 349,-103.2 349,-81.2 218,-81.2"/>
<image xlink:href="../../images/primaryKeys.png" width="11px" height="12px" preserveAspectRatio="xMinYMin meet" x="223" y="-98.2"/>
<text text-anchor="start" x="238" y="-88.3" font-family="Helvetica,sans-Serif" font-size="11.00" fill="#000000">ilmoitus_uuid</text>
<polygon fill="none" stroke="#000000" points="349,-81.2 349,-103.2 448,-103.2 448,-81.2 349,-81.2"/>
<text text-anchor="start" x="352" y="-88.9" font-family="Helvetica,sans-Serif" font-size="11.00" fill="#000000">uuid[2147483647]</text>
<polygon fill="none" stroke="#000000" points="218,-59.2 218,-81.2 349,-81.2 349,-59.2 218,-59.2"/>
<text text-anchor="start" x="238" y="-66.3" font-family="Helvetica,sans-Serif" font-size="11.00" fill="#000000">data</text>
<polygon fill="none" stroke="#000000" points="349,-59.2 349,-81.2 448,-81.2 448,-59.2 349,-59.2"/>
<text text-anchor="start" x="351.7258" y="-66.9" font-family="Helvetica,sans-Serif" font-size="11.00" fill="#000000">jsonb[2147483647]</text>
<polygon fill="#ffffff" stroke="transparent" points="218,-40.2 218,-59.2 272,-59.2 272,-40.2 218,-40.2"/>
<polygon fill="none" stroke="#000000" points="218,-40.2 218,-59.2 272,-59.2 272,-40.2 218,-40.2"/>
<text text-anchor="start" x="221" y="-46.3" font-family="Helvetica,sans-Serif" font-size="11.00" fill="#000000">&lt; 1</text>
<polygon fill="#ffffff" stroke="transparent" points="272,-40.2 272,-59.2 349,-59.2 349,-40.2 272,-40.2"/>
<polygon fill="none" stroke="#000000" points="272,-40.2 272,-59.2 349,-59.2 349,-40.2 272,-40.2"/>
<text text-anchor="start" x="307.4956" y="-46.3" font-family="Helvetica,sans-Serif" font-size="11.00" fill="#000000">17 rows</text>
<polygon fill="#ffffff" stroke="transparent" points="349,-40.2 349,-59.2 448,-59.2 448,-40.2 349,-40.2"/>
<polygon fill="none" stroke="#000000" points="349,-40.2 349,-59.2 448,-59.2 448,-40.2 349,-40.2"/>
<text text-anchor="start" x="429.4053" y="-46.3" font-family="Helvetica,sans-Serif" font-size="11.00" fill="#000000">0 &gt;</text>
<polygon fill="none" stroke="#000000" stroke-width="2" points="217,-39.2 217,-127.2 449,-127.2 449,-39.2 217,-39.2"/>
</a>
</g>
</g>
<!-- ilmoitus -->
<g id="node2" class="node">
<title>ilmoitus</title>
<g id="a_node2"><a xlink:href="../../tables/ilmoitus.html" xlink:title="ilmoitus" target="_top">
<polygon fill="#ffffff" stroke="transparent" points="8,-43.7 8,-126.7 167,-126.7 167,-43.7 8,-43.7"/>
<polygon fill="#f5f5f5" stroke="transparent" points="8.5,-103.2 8.5,-126.2 167.5,-126.2 167.5,-103.2 8.5,-103.2"/>
<polygon fill="none" stroke="#000000" points="8.5,-103.2 8.5,-126.2 167.5,-126.2 167.5,-103.2 8.5,-103.2"/>
<text text-anchor="start" x="13.5" y="-111.8" font-family="Helvetica,sans-Serif" font-weight="bold" font-size="11.00" fill="#000000">ilmoitus</text>
<text text-anchor="start" x="132.5437" y="-111.3" font-family="Helvetica,sans-Serif" font-size="11.00" fill="#000000">[table]</text>
<polygon fill="none" stroke="#000000" points="8.5,-81.2 8.5,-103.2 167.5,-103.2 167.5,-81.2 8.5,-81.2"/>
<image xlink:href="../../images/primaryKeys.png" width="11px" height="12px" preserveAspectRatio="xMinYMin meet" x="13.5" y="-98.2"/>
<text text-anchor="start" x="28.5" y="-88.3" font-family="Helvetica,sans-Serif" font-size="11.00" fill="#000000">uuid</text>
<polygon fill="none" stroke="#000000" points="8.5,-62.2 8.5,-81.2 167.5,-81.2 167.5,-62.2 8.5,-62.2"/>
<text text-anchor="start" x="11.5" y="-68.3" font-family="Helvetica,sans-Serif" font-size="11.00" fill="#000000">...</text>
<polygon fill="#ffffff" stroke="transparent" points="8.5,-43.2 8.5,-62.2 61.5,-62.2 61.5,-43.2 8.5,-43.2"/>
<polygon fill="none" stroke="#000000" points="8.5,-43.2 8.5,-62.2 61.5,-62.2 61.5,-43.2 8.5,-43.2"/>
<text text-anchor="start" x="11.5" y="-49.3" font-family="Helvetica,sans-Serif" font-size="11.00" fill="#000000"> &#160;</text>
<polygon fill="#ffffff" stroke="transparent" points="61.5,-43.2 61.5,-62.2 125.5,-62.2 125.5,-43.2 61.5,-43.2"/>
<polygon fill="none" stroke="#000000" points="61.5,-43.2 61.5,-62.2 125.5,-62.2 125.5,-43.2 61.5,-43.2"/>
<text text-anchor="start" x="83.9956" y="-49.3" font-family="Helvetica,sans-Serif" font-size="11.00" fill="#000000">18 rows</text>
<polygon fill="#ffffff" stroke="transparent" points="125.5,-43.2 125.5,-62.2 167.5,-62.2 167.5,-43.2 125.5,-43.2"/>
<polygon fill="none" stroke="#000000" points="125.5,-43.2 125.5,-62.2 167.5,-62.2 167.5,-43.2 125.5,-43.2"/>
<text text-anchor="start" x="148.9053" y="-49.3" font-family="Helvetica,sans-Serif" font-size="11.00" fill="#000000">2 &gt;</text>
</a>
</g>
</g>
<!-- ilmoitus_lisätiedot&#45;&gt;ilmoitus -->
<g id="edge1" class="edge">
<title>ilmoitus_lisätiedot:w&#45;&gt;ilmoitus:e</title>
<path fill="none" stroke="#000000" d="M207.3362,-92.2C192.9956,-92.2 185.9115,-92.2 167.5,-92.2"/>
<polygon fill="#000000" stroke="#000000" points="217.2,-88.2 217.2,-96.2 215.6,-96.2 215.6,-88.2 217.2,-88.2"/>
<polyline fill="none" stroke="#000000" points="218,-92.2 214,-92.2 "/>
<ellipse fill="none" stroke="#000000" cx="210.8" cy="-92.2001" rx="3.2" ry="3.2"/>
</g>
</g>
</svg>
