<?xml version="1.0" encoding="UTF-8" standalone="no"?>
<!DOCTYPE svg PUBLIC "-//W3C//DTD SVG 1.1//EN"
 "http://www.w3.org/Graphics/SVG/1.1/DTD/svg11.dtd">
<!-- Generated by graphviz version 2.40.1 (20161225.0304)
 -->
<!-- Title: twoDegreesRelationshipsDiagram Pages: 1 -->
<svg width="544pt" height="223pt"
 viewBox="0.00 0.00 544.00 222.70" xmlns="http://www.w3.org/2000/svg" xmlns:xlink="http://www.w3.org/1999/xlink">
<g id="graph0" class="graph" transform="scale(1 1) rotate(0) translate(4 218.7)">
<title>twoDegreesRelationshipsDiagram</title>
<polygon fill="#ffffff" stroke="transparent" points="-4,4 -4,-218.7 540,-218.7 540,4 -4,4"/>
<text text-anchor="middle" x="72.4936" y="-7.3" font-family="Helvetica,sans-Serif" font-size="11.00" fill="#000000">Generated by SchemaSpy</text>
<!-- ilmoitus_lisätiedot -->
<g id="node1" class="node">
<title>ilmoitus_lisätiedot</title>
<g id="a_node1"><a xlink:href="../../tables/ilmoitus_lis_tiedot_cc362998.html" xlink:title="ilmoitus_lisätiedot" target="_top">
<polygon fill="#ffffff" stroke="transparent" points="297.5,-149.7 297.5,-210.7 441.5,-210.7 441.5,-149.7 297.5,-149.7"/>
<polygon fill="#f5f5f5" stroke="transparent" points="297.5,-187.2 297.5,-210.2 441.5,-210.2 441.5,-187.2 297.5,-187.2"/>
<polygon fill="none" stroke="#000000" points="297.5,-187.2 297.5,-210.2 441.5,-210.2 441.5,-187.2 297.5,-187.2"/>
<text text-anchor="start" x="302.5" y="-195.8" font-family="Helvetica,sans-Serif" font-weight="bold" font-size="11.00" fill="#000000">ilmoitus_lisätiedot</text>
<text text-anchor="start" x="407.0219" y="-195.3" font-family="Helvetica,sans-Serif" font-size="11.00" fill="#000000">[table]</text>
<polygon fill="none" stroke="#000000" points="297.5,-168.2 297.5,-187.2 441.5,-187.2 441.5,-168.2 297.5,-168.2"/>
<text text-anchor="start" x="300.5" y="-174.3" font-family="Helvetica,sans-Serif" font-size="11.00" fill="#000000">...</text>
<polygon fill="#ffffff" stroke="transparent" points="297.5,-149.2 297.5,-168.2 351.5,-168.2 351.5,-149.2 297.5,-149.2"/>
<polygon fill="none" stroke="#000000" points="297.5,-149.2 297.5,-168.2 351.5,-168.2 351.5,-149.2 297.5,-149.2"/>
<text text-anchor="start" x="300.5" y="-155.3" font-family="Helvetica,sans-Serif" font-size="11.00" fill="#000000">&lt; 1</text>
<polygon fill="#ffffff" stroke="transparent" points="351.5,-149.2 351.5,-168.2 412.5,-168.2 412.5,-149.2 351.5,-149.2"/>
<polygon fill="none" stroke="#000000" points="351.5,-149.2 351.5,-168.2 412.5,-168.2 412.5,-149.2 351.5,-149.2"/>
<text text-anchor="start" x="370.9956" y="-155.3" font-family="Helvetica,sans-Serif" font-size="11.00" fill="#000000">17 rows</text>
<polygon fill="#ffffff" stroke="transparent" points="412.5,-149.2 412.5,-168.2 441.5,-168.2 441.5,-149.2 412.5,-149.2"/>
<polygon fill="none" stroke="#000000" points="412.5,-149.2 412.5,-168.2 441.5,-168.2 441.5,-149.2 412.5,-149.2"/>
<text text-anchor="start" x="432.3862" y="-155.3" font-family="Helvetica,sans-Serif" font-size="11.00" fill="#000000"> &#160;</text>
</a>
</g>
</g>
<!-- ilmoitus -->
<g id="node2" class="node">
<title>ilmoitus</title>
<g id="a_node2"><a xlink:href="../../tables/ilmoitus.html" xlink:title="ilmoitus" target="_top">
<polygon fill="#ffffff" stroke="transparent" points="8,-85.7 8,-168.7 162,-168.7 162,-85.7 8,-85.7"/>
<polygon fill="#f5f5f5" stroke="transparent" points="8,-145.2 8,-168.2 162,-168.2 162,-145.2 8,-145.2"/>
<polygon fill="none" stroke="#000000" points="8,-145.2 8,-168.2 162,-168.2 162,-145.2 8,-145.2"/>
<text text-anchor="start" x="13" y="-153.8" font-family="Helvetica,sans-Serif" font-weight="bold" font-size="11.00" fill="#000000">ilmoitus</text>
<text text-anchor="start" x="127.0437" y="-153.3" font-family="Helvetica,sans-Serif" font-size="11.00" fill="#000000">[table]</text>
<polygon fill="none" stroke="#000000" points="8,-123.2 8,-145.2 162,-145.2 162,-123.2 8,-123.2"/>
<image xlink:href="../../images/primaryKeys.png" width="11px" height="12px" preserveAspectRatio="xMinYMin meet" x="13" y="-140.2"/>
<text text-anchor="start" x="28" y="-130.3" font-family="Helvetica,sans-Serif" font-size="11.00" fill="#000000">uuid</text>
<polygon fill="none" stroke="#000000" points="8,-104.2 8,-123.2 162,-123.2 162,-104.2 8,-104.2"/>
<text text-anchor="start" x="11" y="-110.3" font-family="Helvetica,sans-Serif" font-size="11.00" fill="#000000">...</text>
<polygon fill="#ffffff" stroke="transparent" points="8,-85.2 8,-104.2 58,-104.2 58,-85.2 8,-85.2"/>
<polygon fill="none" stroke="#000000" points="8,-85.2 8,-104.2 58,-104.2 58,-85.2 8,-85.2"/>
<text text-anchor="start" x="11" y="-91.3" font-family="Helvetica,sans-Serif" font-size="11.00" fill="#000000"> &#160;</text>
<polygon fill="#ffffff" stroke="transparent" points="58,-85.2 58,-104.2 121,-104.2 121,-85.2 58,-85.2"/>
<polygon fill="none" stroke="#000000" points="58,-85.2 58,-104.2 121,-104.2 121,-85.2 58,-85.2"/>
<text text-anchor="start" x="79.4956" y="-91.3" font-family="Helvetica,sans-Serif" font-size="11.00" fill="#000000">18 rows</text>
<polygon fill="#ffffff" stroke="transparent" points="121,-85.2 121,-104.2 162,-104.2 162,-85.2 121,-85.2"/>
<polygon fill="none" stroke="#000000" points="121,-85.2 121,-104.2 162,-104.2 162,-85.2 121,-85.2"/>
<text text-anchor="start" x="143.4053" y="-91.3" font-family="Helvetica,sans-Serif" font-size="11.00" fill="#000000">2 &gt;</text>
</a>
</g>
</g>
<!-- ilmoitus_lisätiedot&#45;&gt;ilmoitus -->
<g id="edge1" class="edge">
<title>ilmoitus_lisätiedot:w&#45;&gt;ilmoitus:e</title>
<path fill="none" stroke="#000000" d="M286.9287,-176.7744C233.0619,-172.3086 221.4798,-134.2 162,-134.2"/>
<polygon fill="#000000" stroke="#000000" points="296.8616,-173.171 296.5397,-181.1646 294.941,-181.1002 295.2629,-173.1067 296.8616,-173.171"/>
<polyline fill="none" stroke="#000000" points="297.5,-177.2 293.5032,-177.0391 "/>
<ellipse fill="none" stroke="#000000" cx="290.3058" cy="-176.9103" rx="3.2" ry="3.2"/>
</g>
<!-- ilmoitus_opiskeluoikeus_konteksti -->
<g id="node3" class="node">
<title>ilmoitus_opiskeluoikeus_konteksti</title>
<g id="a_node3"><a xlink:href="../../tables/ilmoitus_opiskeluoikeus_konteksti.html" xlink:title="ilmoitus_opiskeluoikeus_konteksti" target="_top">
<polygon fill="#ffffff" stroke="transparent" points="211,-38.2 211,-128.2 528,-128.2 528,-38.2 211,-38.2"/>
<polygon fill="#f5f5f5" stroke="transparent" points="213.5,-103.2 213.5,-126.2 526.5,-126.2 526.5,-103.2 213.5,-103.2"/>
<polygon fill="none" stroke="#000000" points="213.5,-103.2 213.5,-126.2 526.5,-126.2 526.5,-103.2 213.5,-103.2"/>
<text text-anchor="start" x="218.5" y="-111.8" font-family="Helvetica,sans-Serif" font-weight="bold" font-size="11.00" fill="#000000">ilmoitus_opiskeluoikeus_konteksti</text>
<text text-anchor="start" x="491.5437" y="-111.3" font-family="Helvetica,sans-Serif" font-size="11.00" fill="#000000">[table]</text>
<polygon fill="none" stroke="#000000" points="213.5,-81.2 213.5,-103.2 432.5,-103.2 432.5,-81.2 213.5,-81.2"/>
<image xlink:href="../../images/primaryKeys.png" width="11px" height="12px" preserveAspectRatio="xMinYMin meet" x="218.5" y="-98.2"/>
<text text-anchor="start" x="233.5" y="-88.3" font-family="Helvetica,sans-Serif" font-size="11.00" fill="#000000">ilmoitus_uuid</text>
<polygon fill="none" stroke="#000000" points="432.5,-81.2 432.5,-103.2 526.5,-103.2 526.5,-81.2 432.5,-81.2"/>
<text text-anchor="start" x="435.4758" y="-88.9" font-family="Helvetica,sans-Serif" font-size="11.00" fill="#000000">uuid[2147483647]</text>
<polygon fill="none" stroke="#000000" points="213.5,-59.2 213.5,-81.2 432.5,-81.2 432.5,-59.2 213.5,-59.2"/>
<image xlink:href="../../images/primaryKeys.png" width="11px" height="12px" preserveAspectRatio="xMinYMin meet" x="218.5" y="-76.2"/>
<text text-anchor="start" x="233.5" y="-66.3" font-family="Helvetica,sans-Serif" font-size="11.00" fill="#000000">opiskeluoikeus_oid</text>
<polygon fill="none" stroke="#000000" points="432.5,-59.2 432.5,-81.2 526.5,-81.2 526.5,-59.2 432.5,-59.2"/>
<text text-anchor="start" x="435.5" y="-66.9" font-family="Helvetica,sans-Serif" font-size="11.00" fill="#000000">text[2147483647]</text>
<polygon fill="#ffffff" stroke="transparent" points="213.5,-40.2 213.5,-59.2 327.5,-59.2 327.5,-40.2 213.5,-40.2"/>
<polygon fill="none" stroke="#000000" points="213.5,-40.2 213.5,-59.2 327.5,-59.2 327.5,-40.2 213.5,-40.2"/>
<text text-anchor="start" x="216.5" y="-46.3" font-family="Helvetica,sans-Serif" font-size="11.00" fill="#000000">&lt; 1</text>
<polygon fill="#ffffff" stroke="transparent" points="327.5,-40.2 327.5,-59.2 432.5,-59.2 432.5,-40.2 327.5,-40.2"/>
<polygon fill="none" stroke="#000000" points="327.5,-40.2 327.5,-59.2 432.5,-59.2 432.5,-40.2 327.5,-40.2"/>
<text text-anchor="start" x="423.3862" y="-46.3" font-family="Helvetica,sans-Serif" font-size="11.00" fill="#000000"> &#160;</text>
<polygon fill="#ffffff" stroke="transparent" points="432.5,-40.2 432.5,-59.2 526.5,-59.2 526.5,-40.2 432.5,-40.2"/>
<polygon fill="none" stroke="#000000" points="432.5,-40.2 432.5,-59.2 526.5,-59.2 526.5,-40.2 432.5,-40.2"/>
<text text-anchor="start" x="507.9053" y="-46.3" font-family="Helvetica,sans-Serif" font-size="11.00" fill="#000000">0 &gt;</text>
<polygon fill="none" stroke="#000000" stroke-width="2" points="212,-39.2 212,-127.2 527,-127.2 527,-39.2 212,-39.2"/>
</a>
</g>
</g>
<!-- ilmoitus_opiskeluoikeus_konteksti&#45;&gt;ilmoitus -->
<g id="edge2" class="edge">
<title>ilmoitus_opiskeluoikeus_konteksti:w&#45;&gt;ilmoitus:e</title>
<path fill="none" stroke="#000000" d="M199.4729,-96.6947C185.5092,-107.5296 185.5361,-134.2 162,-134.2"/>
<polygon fill="#000000" stroke="#000000" points="205.8816,-94.6412 214.5986,-95.6283 209.6908,-93.4206 213.5,-92.2 213.5,-92.2 213.5,-92.2 209.6908,-93.4206 212.4014,-88.7717 205.8816,-94.6412 205.8816,-94.6412"/>
<ellipse fill="none" stroke="#000000" cx="202.8342" cy="-95.6177" rx="3.2" ry="3.2"/>
</g>
</g>
</svg>
