<?xml version="1.0" encoding="UTF-8" standalone="no"?>
<!DOCTYPE svg PUBLIC "-//W3C//DTD SVG 1.1//EN"
 "http://www.w3.org/Graphics/SVG/1.1/DTD/svg11.dtd">
<!-- Generated by graphviz version 2.40.1 (20161225.0304)
 -->
<!-- Title: twoDegreesRelationshipsDiagram Pages: 1 -->
<svg width="464pt" height="223pt"
 viewBox="0.00 0.00 464.00 222.70" xmlns="http://www.w3.org/2000/svg" xmlns:xlink="http://www.w3.org/1999/xlink">
<g id="graph0" class="graph" transform="scale(1 1) rotate(0) translate(4 218.7)">
<title>twoDegreesRelationshipsDiagram</title>
<polygon fill="#ffffff" stroke="transparent" points="-4,4 -4,-218.7 460,-218.7 460,4 -4,4"/>
<text text-anchor="middle" x="72.4936" y="-7.3" font-family="Helvetica,sans-Serif" font-size="11.00" fill="#000000">Generated by SchemaSpy</text>
<!-- ilmoitus_lisätiedot -->
<g id="node1" class="node">
<title>ilmoitus_lisätiedot</title>
<g id="a_node1"><a xlink:href="../../tables/ilmoitus_lis_tiedot_cc362998.html" xlink:title="ilmoitus_lisätiedot" target="_top">
<polygon fill="#ffffff" stroke="transparent" points="215,-120.7 215,-210.7 444,-210.7 444,-120.7 215,-120.7"/>
<polygon fill="#f5f5f5" stroke="transparent" points="217.5,-185.7 217.5,-208.7 442.5,-208.7 442.5,-185.7 217.5,-185.7"/>
<polygon fill="none" stroke="#000000" points="217.5,-185.7 217.5,-208.7 442.5,-208.7 442.5,-185.7 217.5,-185.7"/>
<text text-anchor="start" x="222.5" y="-194.3" font-family="Helvetica,sans-Serif" font-weight="bold" font-size="11.00" fill="#000000">ilmoitus_lisätiedot</text>
<text text-anchor="start" x="407.5437" y="-193.8" font-family="Helvetica,sans-Serif" font-size="11.00" fill="#000000">[table]</text>
<polygon fill="none" stroke="#000000" points="217.5,-163.7 217.5,-185.7 343.5,-185.7 343.5,-163.7 217.5,-163.7"/>
<image xlink:href="../../images/primaryKeys.png" width="11px" height="12px" preserveAspectRatio="xMinYMin meet" x="222.5" y="-180.7"/>
<text text-anchor="start" x="237.5" y="-170.8" font-family="Helvetica,sans-Serif" font-size="11.00" fill="#000000">ilmoitus_uuid</text>
<polygon fill="none" stroke="#000000" points="343.5,-163.7 343.5,-185.7 442.5,-185.7 442.5,-163.7 343.5,-163.7"/>
<text text-anchor="start" x="346.5" y="-171.4" font-family="Helvetica,sans-Serif" font-size="11.00" fill="#000000">uuid[2147483647]</text>
<polygon fill="none" stroke="#000000" points="217.5,-141.7 217.5,-163.7 343.5,-163.7 343.5,-141.7 217.5,-141.7"/>
<text text-anchor="start" x="237.5" y="-148.8" font-family="Helvetica,sans-Serif" font-size="11.00" fill="#000000">data</text>
<polygon fill="none" stroke="#000000" points="343.5,-141.7 343.5,-163.7 442.5,-163.7 442.5,-141.7 343.5,-141.7"/>
<text text-anchor="start" x="346.2258" y="-149.4" font-family="Helvetica,sans-Serif" font-size="11.00" fill="#000000">jsonb[2147483647]</text>
<polygon fill="#ffffff" stroke="transparent" points="217.5,-122.7 217.5,-141.7 284.5,-141.7 284.5,-122.7 217.5,-122.7"/>
<polygon fill="none" stroke="#000000" points="217.5,-122.7 217.5,-141.7 284.5,-141.7 284.5,-122.7 217.5,-122.7"/>
<text text-anchor="start" x="220.5" y="-128.8" font-family="Helvetica,sans-Serif" font-size="11.00" fill="#000000">&lt; 1</text>
<polygon fill="#ffffff" stroke="transparent" points="284.5,-122.7 284.5,-141.7 343.5,-141.7 343.5,-122.7 284.5,-122.7"/>
<polygon fill="none" stroke="#000000" points="284.5,-122.7 284.5,-141.7 343.5,-141.7 343.5,-122.7 284.5,-122.7"/>
<text text-anchor="start" x="334.3862" y="-128.8" font-family="Helvetica,sans-Serif" font-size="11.00" fill="#000000"> &#160;</text>
<polygon fill="#ffffff" stroke="transparent" points="343.5,-122.7 343.5,-141.7 442.5,-141.7 442.5,-122.7 343.5,-122.7"/>
<polygon fill="none" stroke="#000000" points="343.5,-122.7 343.5,-141.7 442.5,-141.7 442.5,-122.7 343.5,-122.7"/>
<text text-anchor="start" x="423.9053" y="-128.8" font-family="Helvetica,sans-Serif" font-size="11.00" fill="#000000">0 &gt;</text>
<polygon fill="none" stroke="#000000" stroke-width="2" points="216,-121.7 216,-209.7 443,-209.7 443,-121.7 216,-121.7"/>
</a>
</g>
</g>
<!-- ilmoitus -->
<g id="node2" class="node">
<title>ilmoitus</title>
<g id="a_node2"><a xlink:href="../../tables/ilmoitus.html" xlink:title="ilmoitus" target="_top">
<polygon fill="#ffffff" stroke="transparent" points="8,-71.2 8,-154.2 162,-154.2 162,-71.2 8,-71.2"/>
<polygon fill="#f5f5f5" stroke="transparent" points="8,-130.7 8,-153.7 162,-153.7 162,-130.7 8,-130.7"/>
<polygon fill="none" stroke="#000000" points="8,-130.7 8,-153.7 162,-153.7 162,-130.7 8,-130.7"/>
<text text-anchor="start" x="13" y="-139.3" font-family="Helvetica,sans-Serif" font-weight="bold" font-size="11.00" fill="#000000">ilmoitus</text>
<text text-anchor="start" x="127.0437" y="-138.8" font-family="Helvetica,sans-Serif" font-size="11.00" fill="#000000">[table]</text>
<polygon fill="none" stroke="#000000" points="8,-108.7 8,-130.7 162,-130.7 162,-108.7 8,-108.7"/>
<image xlink:href="../../images/primaryKeys.png" width="11px" height="12px" preserveAspectRatio="xMinYMin meet" x="13" y="-125.7"/>
<text text-anchor="start" x="28" y="-115.8" font-family="Helvetica,sans-Serif" font-size="11.00" fill="#000000">uuid</text>
<polygon fill="none" stroke="#000000" points="8,-89.7 8,-108.7 162,-108.7 162,-89.7 8,-89.7"/>
<text text-anchor="start" x="11" y="-95.8" font-family="Helvetica,sans-Serif" font-size="11.00" fill="#000000">...</text>
<polygon fill="#ffffff" stroke="transparent" points="8,-70.7 8,-89.7 74,-89.7 74,-70.7 8,-70.7"/>
<polygon fill="none" stroke="#000000" points="8,-70.7 8,-89.7 74,-89.7 74,-70.7 8,-70.7"/>
<text text-anchor="start" x="11" y="-76.8" font-family="Helvetica,sans-Serif" font-size="11.00" fill="#000000"> &#160;</text>
<polygon fill="#ffffff" stroke="transparent" points="74,-70.7 74,-89.7 113,-89.7 113,-70.7 74,-70.7"/>
<polygon fill="none" stroke="#000000" points="74,-70.7 74,-89.7 113,-89.7 113,-70.7 74,-70.7"/>
<text text-anchor="start" x="103.8862" y="-76.8" font-family="Helvetica,sans-Serif" font-size="11.00" fill="#000000"> &#160;</text>
<polygon fill="#ffffff" stroke="transparent" points="113,-70.7 113,-89.7 162,-89.7 162,-70.7 113,-70.7"/>
<polygon fill="none" stroke="#000000" points="113,-70.7 113,-89.7 162,-89.7 162,-70.7 113,-70.7"/>
<text text-anchor="start" x="143.4053" y="-76.8" font-family="Helvetica,sans-Serif" font-size="11.00" fill="#000000">2 &gt;</text>
</a>
</g>
</g>
<!-- ilmoitus_lisätiedot&#45;&gt;ilmoitus -->
<g id="edge1" class="edge">
<title>ilmoitus_lisätiedot:w&#45;&gt;ilmoitus:e</title>
<path fill="none" stroke="#000000" d="M207.1402,-172.6111C185.3748,-162.5647 192.6576,-119.7 162,-119.7"/>
<polygon fill="#000000" stroke="#000000" points="217.5064,-170.6208 215.9251,-178.463 214.3567,-178.1467 215.938,-170.3045 217.5064,-170.6208"/>
<polyline fill="none" stroke="#000000" points="217.5,-174.7 213.5789,-173.9093 "/>
<ellipse fill="none" stroke="#000000" cx="210.442" cy="-173.2768" rx="3.2" ry="3.2"/>
</g>
<!-- ilmoitus_opiskeluoikeus_konteksti -->
<g id="node3" class="node">
<title>ilmoitus_opiskeluoikeus_konteksti</title>
<g id="a_node3"><a xlink:href="../../tables/ilmoitus_opiskeluoikeus_konteksti.html" xlink:title="ilmoitus_opiskeluoikeus_konteksti" target="_top">
<polygon fill="#ffffff" stroke="transparent" points="211,-38.2 211,-99.2 448,-99.2 448,-38.2 211,-38.2"/>
<polygon fill="#f5f5f5" stroke="transparent" points="211.5,-75.7 211.5,-98.7 448.5,-98.7 448.5,-75.7 211.5,-75.7"/>
<polygon fill="none" stroke="#000000" points="211.5,-75.7 211.5,-98.7 448.5,-98.7 448.5,-75.7 211.5,-75.7"/>
<text text-anchor="start" x="216.5" y="-84.3" font-family="Helvetica,sans-Serif" font-weight="bold" font-size="11.00" fill="#000000">ilmoitus_opiskeluoikeus_konteksti</text>
<text text-anchor="start" x="414.0219" y="-83.8" font-family="Helvetica,sans-Serif" font-size="11.00" fill="#000000">[table]</text>
<polygon fill="none" stroke="#000000" points="211.5,-56.7 211.5,-75.7 448.5,-75.7 448.5,-56.7 211.5,-56.7"/>
<text text-anchor="start" x="214.5" y="-62.8" font-family="Helvetica,sans-Serif" font-size="11.00" fill="#000000">...</text>
<polygon fill="#ffffff" stroke="transparent" points="211.5,-37.7 211.5,-56.7 328.5,-56.7 328.5,-37.7 211.5,-37.7"/>
<polygon fill="none" stroke="#000000" points="211.5,-37.7 211.5,-56.7 328.5,-56.7 328.5,-37.7 211.5,-37.7"/>
<text text-anchor="start" x="214.5" y="-43.8" font-family="Helvetica,sans-Serif" font-size="11.00" fill="#000000">&lt; 1</text>
<polygon fill="#ffffff" stroke="transparent" points="328.5,-37.7 328.5,-56.7 388.5,-56.7 388.5,-37.7 328.5,-37.7"/>
<polygon fill="none" stroke="#000000" points="328.5,-37.7 328.5,-56.7 388.5,-56.7 388.5,-37.7 328.5,-37.7"/>
<text text-anchor="start" x="379.3862" y="-43.8" font-family="Helvetica,sans-Serif" font-size="11.00" fill="#000000"> &#160;</text>
<polygon fill="#ffffff" stroke="transparent" points="388.5,-37.7 388.5,-56.7 448.5,-56.7 448.5,-37.7 388.5,-37.7"/>
<polygon fill="none" stroke="#000000" points="388.5,-37.7 388.5,-56.7 448.5,-56.7 448.5,-37.7 388.5,-37.7"/>
<text text-anchor="start" x="439.3862" y="-43.8" font-family="Helvetica,sans-Serif" font-size="11.00" fill="#000000"> &#160;</text>
</a>
</g>
</g>
<!-- ilmoitus_opiskeluoikeus_konteksti&#45;&gt;ilmoitus -->
<g id="edge2" class="edge">
<title>ilmoitus_opiskeluoikeus_konteksti:w&#45;&gt;ilmoitus:e</title>
<path fill="none" stroke="#000000" d="M197.632,-70.6834C183.1045,-84.0516 188.4531,-119.7 162,-119.7"/>
<polygon fill="#000000" stroke="#000000" points="203.9713,-68.4054 212.7174,-69.0879 207.7357,-67.0527 211.5,-65.7 211.5,-65.7 211.5,-65.7 207.7357,-67.0527 210.2826,-62.3121 203.9713,-68.4054 203.9713,-68.4054"/>
<ellipse fill="none" stroke="#000000" cx="200.9599" cy="-69.4876" rx="3.2" ry="3.2"/>
</g>
</g>
</svg>
