<?xml version="1.0" encoding="UTF-8" standalone="no"?>
<!DOCTYPE svg PUBLIC "-//W3C//DTD SVG 1.1//EN"
 "http://www.w3.org/Graphics/SVG/1.1/DTD/svg11.dtd">
<!-- Generated by graphviz version 2.40.1 (20161225.0304)
 -->
<!-- Title: oneDegreeRelationshipsDiagram Pages: 1 -->
<svg width="456pt" height="140pt"
 viewBox="0.00 0.00 456.00 140.20" xmlns="http://www.w3.org/2000/svg" xmlns:xlink="http://www.w3.org/1999/xlink">
<g id="graph0" class="graph" transform="scale(1 1) rotate(0) translate(4 136.2)">
<title>oneDegreeRelationshipsDiagram</title>
<polygon fill="#ffffff" stroke="transparent" points="-4,4 -4,-136.2 452,-136.2 452,4 -4,4"/>
<text text-anchor="middle" x="72.4936" y="-7.3" font-family="Helvetica,sans-Serif" font-size="11.00" fill="#000000">Generated by SchemaSpy</text>
<!-- ilmoitus_lisätiedot -->
<g id="node1" class="node">
<title>ilmoitus_lisätiedot</title>
<g id="a_node1"><a xlink:href="../../tables/ilmoitus_lis_tiedot_cc362998.html" xlink:title="ilmoitus_lisätiedot" target="_top">
<polygon fill="#ffffff" stroke="transparent" points="211,-38.2 211,-128.2 440,-128.2 440,-38.2 211,-38.2"/>
<polygon fill="#f5f5f5" stroke="transparent" points="213.5,-103.2 213.5,-126.2 438.5,-126.2 438.5,-103.2 213.5,-103.2"/>
<polygon fill="none" stroke="#000000" points="213.5,-103.2 213.5,-126.2 438.5,-126.2 438.5,-103.2 213.5,-103.2"/>
<text text-anchor="start" x="218.5" y="-111.8" font-family="Helvetica,sans-Serif" font-weight="bold" font-size="11.00" fill="#000000">ilmoitus_lisätiedot</text>
<text text-anchor="start" x="403.5437" y="-111.3" font-family="Helvetica,sans-Serif" font-size="11.00" fill="#000000">[table]</text>
<polygon fill="none" stroke="#000000" points="213.5,-81.2 213.5,-103.2 339.5,-103.2 339.5,-81.2 213.5,-81.2"/>
<image xlink:href="../../images/primaryKeys.png" width="11px" height="12px" preserveAspectRatio="xMinYMin meet" x="218.5" y="-98.2"/>
<text text-anchor="start" x="233.5" y="-88.3" font-family="Helvetica,sans-Serif" font-size="11.00" fill="#000000">ilmoitus_uuid</text>
<polygon fill="none" stroke="#000000" points="339.5,-81.2 339.5,-103.2 438.5,-103.2 438.5,-81.2 339.5,-81.2"/>
<text text-anchor="start" x="342.5" y="-88.9" font-family="Helvetica,sans-Serif" font-size="11.00" fill="#000000">uuid[2147483647]</text>
<polygon fill="none" stroke="#000000" points="213.5,-59.2 213.5,-81.2 339.5,-81.2 339.5,-59.2 213.5,-59.2"/>
<text text-anchor="start" x="233.5" y="-66.3" font-family="Helvetica,sans-Serif" font-size="11.00" fill="#000000">data</text>
<polygon fill="none" stroke="#000000" points="339.5,-59.2 339.5,-81.2 438.5,-81.2 438.5,-59.2 339.5,-59.2"/>
<text text-anchor="start" x="342.2258" y="-66.9" font-family="Helvetica,sans-Serif" font-size="11.00" fill="#000000">jsonb[2147483647]</text>
<polygon fill="#ffffff" stroke="transparent" points="213.5,-40.2 213.5,-59.2 264.5,-59.2 264.5,-40.2 213.5,-40.2"/>
<polygon fill="none" stroke="#000000" points="213.5,-40.2 213.5,-59.2 264.5,-59.2 264.5,-40.2 213.5,-40.2"/>
<text text-anchor="start" x="216.5" y="-46.3" font-family="Helvetica,sans-Serif" font-size="11.00" fill="#000000">&lt; 1</text>
<polygon fill="#ffffff" stroke="transparent" points="264.5,-40.2 264.5,-59.2 339.5,-59.2 339.5,-40.2 264.5,-40.2"/>
<polygon fill="none" stroke="#000000" points="264.5,-40.2 264.5,-59.2 339.5,-59.2 339.5,-40.2 264.5,-40.2"/>
<text text-anchor="start" x="297.9956" y="-46.3" font-family="Helvetica,sans-Serif" font-size="11.00" fill="#000000">16 rows</text>
<polygon fill="#ffffff" stroke="transparent" points="339.5,-40.2 339.5,-59.2 438.5,-59.2 438.5,-40.2 339.5,-40.2"/>
<polygon fill="none" stroke="#000000" points="339.5,-40.2 339.5,-59.2 438.5,-59.2 438.5,-40.2 339.5,-40.2"/>
<text text-anchor="start" x="419.9053" y="-46.3" font-family="Helvetica,sans-Serif" font-size="11.00" fill="#000000">0 &gt;</text>
<polygon fill="none" stroke="#000000" stroke-width="2" points="212,-39.2 212,-127.2 439,-127.2 439,-39.2 212,-39.2"/>
</a>
</g>
</g>
<!-- ilmoitus -->
<g id="node2" class="node">
<title>ilmoitus</title>
<g id="a_node2"><a xlink:href="../../tables/ilmoitus.html" xlink:title="ilmoitus" target="_top">
<polygon fill="#ffffff" stroke="transparent" points="8,-43.7 8,-126.7 162,-126.7 162,-43.7 8,-43.7"/>
<polygon fill="#f5f5f5" stroke="transparent" points="8,-103.2 8,-126.2 162,-126.2 162,-103.2 8,-103.2"/>
<polygon fill="none" stroke="#000000" points="8,-103.2 8,-126.2 162,-126.2 162,-103.2 8,-103.2"/>
<text text-anchor="start" x="13" y="-111.8" font-family="Helvetica,sans-Serif" font-weight="bold" font-size="11.00" fill="#000000">ilmoitus</text>
<text text-anchor="start" x="127.0437" y="-111.3" font-family="Helvetica,sans-Serif" font-size="11.00" fill="#000000">[table]</text>
<polygon fill="none" stroke="#000000" points="8,-81.2 8,-103.2 162,-103.2 162,-81.2 8,-81.2"/>
<image xlink:href="../../images/primaryKeys.png" width="11px" height="12px" preserveAspectRatio="xMinYMin meet" x="13" y="-98.2"/>
<text text-anchor="start" x="28" y="-88.3" font-family="Helvetica,sans-Serif" font-size="11.00" fill="#000000">uuid</text>
<polygon fill="none" stroke="#000000" points="8,-62.2 8,-81.2 162,-81.2 162,-62.2 8,-62.2"/>
<text text-anchor="start" x="11" y="-68.3" font-family="Helvetica,sans-Serif" font-size="11.00" fill="#000000">...</text>
<polygon fill="#ffffff" stroke="transparent" points="8,-43.2 8,-62.2 58,-62.2 58,-43.2 8,-43.2"/>
<polygon fill="none" stroke="#000000" points="8,-43.2 8,-62.2 58,-62.2 58,-43.2 8,-43.2"/>
<text text-anchor="start" x="11" y="-49.3" font-family="Helvetica,sans-Serif" font-size="11.00" fill="#000000"> &#160;</text>
<polygon fill="#ffffff" stroke="transparent" points="58,-43.2 58,-62.2 121,-62.2 121,-43.2 58,-43.2"/>
<polygon fill="none" stroke="#000000" points="58,-43.2 58,-62.2 121,-62.2 121,-43.2 58,-43.2"/>
<text text-anchor="start" x="79.4956" y="-49.3" font-family="Helvetica,sans-Serif" font-size="11.00" fill="#000000">17 rows</text>
<polygon fill="#ffffff" stroke="transparent" points="121,-43.2 121,-62.2 162,-62.2 162,-43.2 121,-43.2"/>
<polygon fill="none" stroke="#000000" points="121,-43.2 121,-62.2 162,-62.2 162,-43.2 121,-43.2"/>
<text text-anchor="start" x="143.4053" y="-49.3" font-family="Helvetica,sans-Serif" font-size="11.00" fill="#000000">2 &gt;</text>
</a>
</g>
</g>
<!-- ilmoitus_lisätiedot&#45;&gt;ilmoitus -->
<g id="edge1" class="edge">
<title>ilmoitus_lisätiedot:w&#45;&gt;ilmoitus:e</title>
<path fill="none" stroke="#000000" d="M203.045,-92.2C188.137,-92.2 180.9549,-92.2 162,-92.2"/>
<polygon fill="#000000" stroke="#000000" points="212.7,-88.2 212.7,-96.2 211.1,-96.2 211.1,-88.2 212.7,-88.2"/>
<polyline fill="none" stroke="#000000" points="213.5,-92.2 209.5,-92.2 "/>
<ellipse fill="none" stroke="#000000" cx="206.3" cy="-92.2001" rx="3.2" ry="3.2"/>
</g>
</g>
</svg>
