<?xml version="1.0" encoding="UTF-8" standalone="no"?>
<!DOCTYPE svg PUBLIC "-//W3C//DTD SVG 1.1//EN"
 "http://www.w3.org/Graphics/SVG/1.1/DTD/svg11.dtd">
<!-- Generated by graphviz version 2.40.1 (20161225.0304)
 -->
<!-- Title: oneDegreeRelationshipsDiagram Pages: 1 -->
<svg width="562pt" height="279pt"
 viewBox="0.00 0.00 562.00 278.70" xmlns="http://www.w3.org/2000/svg" xmlns:xlink="http://www.w3.org/1999/xlink">
<g id="graph0" class="graph" transform="scale(1 1) rotate(0) translate(4 274.7)">
<title>oneDegreeRelationshipsDiagram</title>
<polygon fill="#ffffff" stroke="transparent" points="-4,4 -4,-274.7 558,-274.7 558,4 -4,4"/>
<text text-anchor="middle" x="72.4936" y="-7.3" font-family="Helvetica,sans-Serif" font-size="11.00" fill="#000000">Generated by SchemaSpy</text>
<!-- ilmoitus_lisätiedot -->
<g id="node1" class="node">
<title>ilmoitus_lisätiedot</title>
<g id="a_node1"><a xlink:href="../../tables/ilmoitus_lis_tiedot_cc362998.html" xlink:title="ilmoitus_lisätiedot" target="_top">
<polygon fill="#ffffff" stroke="transparent" points="355.5,-183.7 355.5,-266.7 499.5,-266.7 499.5,-183.7 355.5,-183.7"/>
<polygon fill="#f5f5f5" stroke="transparent" points="355.5,-243.2 355.5,-266.2 499.5,-266.2 499.5,-243.2 355.5,-243.2"/>
<polygon fill="none" stroke="#000000" points="355.5,-243.2 355.5,-266.2 499.5,-266.2 499.5,-243.2 355.5,-243.2"/>
<text text-anchor="start" x="360.5" y="-251.8" font-family="Helvetica,sans-Serif" font-weight="bold" font-size="11.00" fill="#000000">ilmoitus_lisätiedot</text>
<text text-anchor="start" x="465.0219" y="-251.3" font-family="Helvetica,sans-Serif" font-size="11.00" fill="#000000">[table]</text>
<polygon fill="none" stroke="#000000" points="355.5,-221.2 355.5,-243.2 499.5,-243.2 499.5,-221.2 355.5,-221.2"/>
<image xlink:href="../../images/primaryKeys.png" width="11px" height="12px" preserveAspectRatio="xMinYMin meet" x="360.5" y="-238.2"/>
<text text-anchor="start" x="384.5" y="-228.3" font-family="Helvetica,sans-Serif" font-size="11.00" fill="#000000">ilmoitus_uuid</text>
<polygon fill="none" stroke="#000000" points="355.5,-202.2 355.5,-221.2 499.5,-221.2 499.5,-202.2 355.5,-202.2"/>
<text text-anchor="start" x="358.5" y="-208.3" font-family="Helvetica,sans-Serif" font-size="11.00" fill="#000000">...</text>
<polygon fill="#ffffff" stroke="transparent" points="355.5,-183.2 355.5,-202.2 425.5,-202.2 425.5,-183.2 355.5,-183.2"/>
<polygon fill="none" stroke="#000000" points="355.5,-183.2 355.5,-202.2 425.5,-202.2 425.5,-183.2 355.5,-183.2"/>
<text text-anchor="start" x="358.5" y="-189.3" font-family="Helvetica,sans-Serif" font-size="11.00" fill="#000000">&lt; 1</text>
<polygon fill="#ffffff" stroke="transparent" points="425.5,-183.2 425.5,-202.2 462.5,-202.2 462.5,-183.2 425.5,-183.2"/>
<polygon fill="none" stroke="#000000" points="425.5,-183.2 425.5,-202.2 462.5,-202.2 462.5,-183.2 425.5,-183.2"/>
<text text-anchor="start" x="453.3862" y="-189.3" font-family="Helvetica,sans-Serif" font-size="11.00" fill="#000000"> &#160;</text>
<polygon fill="#ffffff" stroke="transparent" points="462.5,-183.2 462.5,-202.2 499.5,-202.2 499.5,-183.2 462.5,-183.2"/>
<polygon fill="none" stroke="#000000" points="462.5,-183.2 462.5,-202.2 499.5,-202.2 499.5,-183.2 462.5,-183.2"/>
<text text-anchor="start" x="490.3862" y="-189.3" font-family="Helvetica,sans-Serif" font-size="11.00" fill="#000000"> &#160;</text>
</a>
</g>
</g>
<!-- ilmoitus -->
<g id="node2" class="node">
<title>ilmoitus</title>
<g id="a_node2"><a xlink:href="../../tables/ilmoitus.html" xlink:title="ilmoitus" target="_top">
<polygon fill="#ffffff" stroke="transparent" points="8,-38.2 8,-216.2 260,-216.2 260,-38.2 8,-38.2"/>
<polygon fill="#f5f5f5" stroke="transparent" points="10,-191.2 10,-214.2 258,-214.2 258,-191.2 10,-191.2"/>
<polygon fill="none" stroke="#000000" points="10,-191.2 10,-214.2 258,-214.2 258,-191.2 10,-191.2"/>
<text text-anchor="start" x="15" y="-199.8" font-family="Helvetica,sans-Serif" font-weight="bold" font-size="11.00" fill="#000000">ilmoitus</text>
<text text-anchor="start" x="223.0437" y="-199.3" font-family="Helvetica,sans-Serif" font-size="11.00" fill="#000000">[table]</text>
<polygon fill="none" stroke="#000000" points="10,-169.2 10,-191.2 164,-191.2 164,-169.2 10,-169.2"/>
<image xlink:href="../../images/primaryKeys.png" width="11px" height="12px" preserveAspectRatio="xMinYMin meet" x="15" y="-186.2"/>
<text text-anchor="start" x="30" y="-176.3" font-family="Helvetica,sans-Serif" font-size="11.00" fill="#000000">uuid</text>
<polygon fill="none" stroke="#000000" points="164,-169.2 164,-191.2 258,-191.2 258,-169.2 164,-169.2"/>
<text text-anchor="start" x="166.9758" y="-176.9" font-family="Helvetica,sans-Serif" font-size="11.00" fill="#000000">uuid[2147483647]</text>
<polygon fill="none" stroke="#000000" points="10,-147.2 10,-169.2 164,-169.2 164,-147.2 10,-147.2"/>
<text text-anchor="start" x="30" y="-154.3" font-family="Helvetica,sans-Serif" font-size="11.00" fill="#000000">luotu</text>
<polygon fill="none" stroke="#000000" points="164,-147.2 164,-169.2 258,-169.2 258,-147.2 164,-147.2"/>
<text text-anchor="start" x="167" y="-154.9" font-family="Helvetica,sans-Serif" font-size="11.00" fill="#000000">timestamp[29,6]</text>
<polygon fill="none" stroke="#000000" points="10,-125.2 10,-147.2 164,-147.2 164,-125.2 10,-125.2"/>
<text text-anchor="start" x="30" y="-132.3" font-family="Helvetica,sans-Serif" font-size="11.00" fill="#000000">oppija_oid</text>
<polygon fill="none" stroke="#000000" points="164,-125.2 164,-147.2 258,-147.2 258,-125.2 164,-125.2"/>
<text text-anchor="start" x="167" y="-132.9" font-family="Helvetica,sans-Serif" font-size="11.00" fill="#000000">text[2147483647]</text>
<polygon fill="none" stroke="#000000" points="10,-103.2 10,-125.2 164,-125.2 164,-103.2 10,-103.2"/>
<text text-anchor="start" x="30" y="-110.3" font-family="Helvetica,sans-Serif" font-size="11.00" fill="#000000">kunta_oid</text>
<polygon fill="none" stroke="#000000" points="164,-103.2 164,-125.2 258,-125.2 258,-103.2 164,-103.2"/>
<text text-anchor="start" x="167" y="-110.9" font-family="Helvetica,sans-Serif" font-size="11.00" fill="#000000">text[2147483647]</text>
<polygon fill="none" stroke="#000000" points="10,-81.2 10,-103.2 164,-103.2 164,-81.2 10,-81.2"/>
<text text-anchor="start" x="30" y="-88.3" font-family="Helvetica,sans-Serif" font-size="11.00" fill="#000000">tekijä_organisaatio_oid</text>
<polygon fill="none" stroke="#000000" points="164,-81.2 164,-103.2 258,-103.2 258,-81.2 164,-81.2"/>
<text text-anchor="start" x="167" y="-88.9" font-family="Helvetica,sans-Serif" font-size="11.00" fill="#000000">text[2147483647]</text>
<polygon fill="none" stroke="#000000" points="10,-59.2 10,-81.2 164,-81.2 164,-59.2 10,-59.2"/>
<text text-anchor="start" x="30" y="-66.3" font-family="Helvetica,sans-Serif" font-size="11.00" fill="#000000">tekijä_oid</text>
<polygon fill="none" stroke="#000000" points="164,-59.2 164,-81.2 258,-81.2 258,-59.2 164,-59.2"/>
<text text-anchor="start" x="167" y="-66.9" font-family="Helvetica,sans-Serif" font-size="11.00" fill="#000000">text[2147483647]</text>
<polygon fill="#ffffff" stroke="transparent" points="10,-40.2 10,-59.2 91,-59.2 91,-40.2 10,-40.2"/>
<polygon fill="none" stroke="#000000" points="10,-40.2 10,-59.2 91,-59.2 91,-40.2 10,-40.2"/>
<text text-anchor="start" x="13" y="-46.3" font-family="Helvetica,sans-Serif" font-size="11.00" fill="#000000">&lt; 0</text>
<polygon fill="#ffffff" stroke="transparent" points="91,-40.2 91,-59.2 164,-59.2 164,-40.2 91,-40.2"/>
<polygon fill="none" stroke="#000000" points="91,-40.2 91,-59.2 164,-59.2 164,-40.2 91,-40.2"/>
<text text-anchor="start" x="154.8862" y="-46.3" font-family="Helvetica,sans-Serif" font-size="11.00" fill="#000000"> &#160;</text>
<polygon fill="#ffffff" stroke="transparent" points="164,-40.2 164,-59.2 258,-59.2 258,-40.2 164,-40.2"/>
<polygon fill="none" stroke="#000000" points="164,-40.2 164,-59.2 258,-59.2 258,-40.2 164,-40.2"/>
<text text-anchor="start" x="239.4053" y="-46.3" font-family="Helvetica,sans-Serif" font-size="11.00" fill="#000000">2 &gt;</text>
<polygon fill="none" stroke="#000000" stroke-width="2" points="9,-39.2 9,-215.2 259,-215.2 259,-39.2 9,-39.2"/>
</a>
</g>
</g>
<!-- ilmoitus_lisätiedot&#45;&gt;ilmoitus -->
<g id="edge1" class="edge">
<title>ilmoitus_lisätiedot:w&#45;&gt;ilmoitus:e</title>
<path fill="none" stroke="#000000" d="M344.8545,-231.2974C306.1976,-224.3924 303.2743,-180.2 258,-180.2"/>
<polygon fill="#000000" stroke="#000000" points="355.0408,-228.1467 354.3649,-236.1181 352.7706,-235.9829 353.4465,-228.0115 355.0408,-228.1467"/>
<polyline fill="none" stroke="#000000" points="355.5,-232.2 351.5143,-231.862 "/>
<ellipse fill="none" stroke="#000000" cx="348.3257" cy="-231.5917" rx="3.2" ry="3.2"/>
</g>
<!-- ilmoitus_opiskeluoikeus_konteksti -->
<g id="node3" class="node">
<title>ilmoitus_opiskeluoikeus_konteksti</title>
<g id="a_node3"><a xlink:href="../../tables/ilmoitus_opiskeluoikeus_konteksti.html" xlink:title="ilmoitus_opiskeluoikeus_konteksti" target="_top">
<polygon fill="#ffffff" stroke="transparent" points="309,-76.2 309,-162.2 546,-162.2 546,-76.2 309,-76.2"/>
<polygon fill="#f5f5f5" stroke="transparent" points="309.5,-139.2 309.5,-162.2 546.5,-162.2 546.5,-139.2 309.5,-139.2"/>
<polygon fill="none" stroke="#000000" points="309.5,-139.2 309.5,-162.2 546.5,-162.2 546.5,-139.2 309.5,-139.2"/>
<text text-anchor="start" x="314.5" y="-147.8" font-family="Helvetica,sans-Serif" font-weight="bold" font-size="11.00" fill="#000000">ilmoitus_opiskeluoikeus_konteksti</text>
<text text-anchor="start" x="512.0219" y="-147.3" font-family="Helvetica,sans-Serif" font-size="11.00" fill="#000000">[table]</text>
<polygon fill="none" stroke="#000000" points="309.5,-117.2 309.5,-139.2 546.5,-139.2 546.5,-117.2 309.5,-117.2"/>
<image xlink:href="../../images/primaryKeys.png" width="11px" height="12px" preserveAspectRatio="xMinYMin meet" x="314.5" y="-134.2"/>
<text text-anchor="start" x="338.5" y="-124.3" font-family="Helvetica,sans-Serif" font-size="11.00" fill="#000000">ilmoitus_uuid</text>
<polygon fill="none" stroke="#000000" points="309.5,-95.2 309.5,-117.2 546.5,-117.2 546.5,-95.2 309.5,-95.2"/>
<image xlink:href="../../images/primaryKeys.png" width="11px" height="12px" preserveAspectRatio="xMinYMin meet" x="314.5" y="-112.2"/>
<text text-anchor="start" x="338.5" y="-102.3" font-family="Helvetica,sans-Serif" font-size="11.00" fill="#000000">opiskeluoikeus_oid</text>
<polygon fill="#ffffff" stroke="transparent" points="309.5,-76.2 309.5,-95.2 426.5,-95.2 426.5,-76.2 309.5,-76.2"/>
<polygon fill="none" stroke="#000000" points="309.5,-76.2 309.5,-95.2 426.5,-95.2 426.5,-76.2 309.5,-76.2"/>
<text text-anchor="start" x="312.5" y="-82.3" font-family="Helvetica,sans-Serif" font-size="11.00" fill="#000000">&lt; 1</text>
<polygon fill="#ffffff" stroke="transparent" points="426.5,-76.2 426.5,-95.2 486.5,-95.2 486.5,-76.2 426.5,-76.2"/>
<polygon fill="none" stroke="#000000" points="426.5,-76.2 426.5,-95.2 486.5,-95.2 486.5,-76.2 426.5,-76.2"/>
<text text-anchor="start" x="477.3862" y="-82.3" font-family="Helvetica,sans-Serif" font-size="11.00" fill="#000000"> &#160;</text>
<polygon fill="#ffffff" stroke="transparent" points="486.5,-76.2 486.5,-95.2 546.5,-95.2 546.5,-76.2 486.5,-76.2"/>
<polygon fill="none" stroke="#000000" points="486.5,-76.2 486.5,-95.2 546.5,-95.2 546.5,-76.2 486.5,-76.2"/>
<text text-anchor="start" x="537.3862" y="-82.3" font-family="Helvetica,sans-Serif" font-size="11.00" fill="#000000"> &#160;</text>
</a>
</g>
</g>
<!-- ilmoitus_opiskeluoikeus_konteksti&#45;&gt;ilmoitus -->
<g id="edge2" class="edge">
<title>ilmoitus_opiskeluoikeus_konteksti:w&#45;&gt;ilmoitus:e</title>
<path fill="none" stroke="#000000" d="M295.4561,-132.9988C280.4356,-145.8719 284.4284,-180.2 258,-180.2"/>
<polygon fill="#000000" stroke="#000000" points="301.9297,-130.7868 310.6641,-131.6066 305.7149,-129.4934 309.5,-128.2 309.5,-128.2 309.5,-128.2 305.7149,-129.4934 308.3359,-124.7934 301.9297,-130.7868 301.9297,-130.7868"/>
<ellipse fill="none" stroke="#000000" cx="298.9016" cy="-131.8215" rx="3.2" ry="3.2"/>
</g>
</g>
</svg>
