<?xml version="1.0" encoding="UTF-8" standalone="no"?>
<!DOCTYPE svg PUBLIC "-//W3C//DTD SVG 1.1//EN"
 "http://www.w3.org/Graphics/SVG/1.1/DTD/svg11.dtd">
<!-- Generated by graphviz version 2.40.1 (20161225.0304)
 -->
<!-- Title: oneDegreeRelationshipsDiagram Pages: 1 -->
<svg width="498pt" height="140pt"
 viewBox="0.00 0.00 498.00 140.20" xmlns="http://www.w3.org/2000/svg" xmlns:xlink="http://www.w3.org/1999/xlink">
<g id="graph0" class="graph" transform="scale(1 1) rotate(0) translate(4 136.2)">
<title>oneDegreeRelationshipsDiagram</title>
<polygon fill="#ffffff" stroke="transparent" points="-4,4 -4,-136.2 494,-136.2 494,4 -4,4"/>
<text text-anchor="middle" x="72.4936" y="-7.3" font-family="Helvetica,sans-Serif" font-size="11.00" fill="#000000">Generated by SchemaSpy</text>
<!-- ilmoitus_lisätiedot -->
<g id="node1" class="node">
<title>ilmoitus_lisätiedot</title>
<g id="a_node1"><a xlink:href="../../tables/ilmoitus_lis_tiedot_cc362998.html" xlink:title="ilmoitus_lisätiedot" target="_top">
<polygon fill="#ffffff" stroke="transparent" points="234,-38.2 234,-128.2 482,-128.2 482,-38.2 234,-38.2"/>
<polygon fill="#f5f5f5" stroke="transparent" points="236,-103.2 236,-126.2 480,-126.2 480,-103.2 236,-103.2"/>
<polygon fill="none" stroke="#000000" points="236,-103.2 236,-126.2 480,-126.2 480,-103.2 236,-103.2"/>
<text text-anchor="start" x="241" y="-111.8" font-family="Helvetica,sans-Serif" font-weight="bold" font-size="11.00" fill="#000000">ilmoitus_lisätiedot</text>
<text text-anchor="start" x="445.0437" y="-111.3" font-family="Helvetica,sans-Serif" font-size="11.00" fill="#000000">[table]</text>
<polygon fill="none" stroke="#000000" points="236,-81.2 236,-103.2 381,-103.2 381,-81.2 236,-81.2"/>
<image xlink:href="../../images/primaryKeys.png" width="11px" height="12px" preserveAspectRatio="xMinYMin meet" x="241" y="-98.2"/>
<text text-anchor="start" x="256" y="-88.3" font-family="Helvetica,sans-Serif" font-size="11.00" fill="#000000">ilmoitus_uuid</text>
<polygon fill="none" stroke="#000000" points="381,-81.2 381,-103.2 480,-103.2 480,-81.2 381,-81.2"/>
<text text-anchor="start" x="384" y="-88.9" font-family="Helvetica,sans-Serif" font-size="11.00" fill="#000000">uuid[2147483647]</text>
<polygon fill="none" stroke="#000000" points="236,-59.2 236,-81.2 381,-81.2 381,-59.2 236,-59.2"/>
<text text-anchor="start" x="256" y="-66.3" font-family="Helvetica,sans-Serif" font-size="11.00" fill="#000000">data</text>
<polygon fill="none" stroke="#000000" points="381,-59.2 381,-81.2 480,-81.2 480,-59.2 381,-59.2"/>
<text text-anchor="start" x="383.7258" y="-66.9" font-family="Helvetica,sans-Serif" font-size="11.00" fill="#000000">jsonb[2147483647]</text>
<polygon fill="#ffffff" stroke="transparent" points="236,-40.2 236,-59.2 313,-59.2 313,-40.2 236,-40.2"/>
<polygon fill="none" stroke="#000000" points="236,-40.2 236,-59.2 313,-59.2 313,-40.2 236,-40.2"/>
<text text-anchor="start" x="239" y="-46.3" font-family="Helvetica,sans-Serif" font-size="11.00" fill="#000000">&lt; 1</text>
<polygon fill="#ffffff" stroke="transparent" points="313,-40.2 313,-59.2 381,-59.2 381,-40.2 313,-40.2"/>
<polygon fill="none" stroke="#000000" points="313,-40.2 313,-59.2 381,-59.2 381,-40.2 313,-40.2"/>
<text text-anchor="start" x="371.8862" y="-46.3" font-family="Helvetica,sans-Serif" font-size="11.00" fill="#000000"> &#160;</text>
<polygon fill="#ffffff" stroke="transparent" points="381,-40.2 381,-59.2 480,-59.2 480,-40.2 381,-40.2"/>
<polygon fill="none" stroke="#000000" points="381,-40.2 381,-59.2 480,-59.2 480,-40.2 381,-40.2"/>
<text text-anchor="start" x="461.4053" y="-46.3" font-family="Helvetica,sans-Serif" font-size="11.00" fill="#000000">0 &gt;</text>
<polygon fill="none" stroke="#000000" stroke-width="2" points="235,-39.2 235,-127.2 481,-127.2 481,-39.2 235,-39.2"/>
</a>
</g>
</g>
<!-- ilmoitus -->
<g id="node2" class="node">
<title>ilmoitus</title>
<g id="a_node2"><a xlink:href="../../tables/ilmoitus.html" xlink:title="ilmoitus" target="_top">
<polygon fill="#ffffff" stroke="transparent" points="8,-43.7 8,-126.7 185,-126.7 185,-43.7 8,-43.7"/>
<polygon fill="#f5f5f5" stroke="transparent" points="8.5,-103.2 8.5,-126.2 185.5,-126.2 185.5,-103.2 8.5,-103.2"/>
<polygon fill="none" stroke="#000000" points="8.5,-103.2 8.5,-126.2 185.5,-126.2 185.5,-103.2 8.5,-103.2"/>
<text text-anchor="start" x="13.5" y="-111.8" font-family="Helvetica,sans-Serif" font-weight="bold" font-size="11.00" fill="#000000">ilmoitus</text>
<text text-anchor="start" x="150.5437" y="-111.3" font-family="Helvetica,sans-Serif" font-size="11.00" fill="#000000">[table]</text>
<polygon fill="none" stroke="#000000" points="8.5,-81.2 8.5,-103.2 185.5,-103.2 185.5,-81.2 8.5,-81.2"/>
<image xlink:href="../../images/primaryKeys.png" width="11px" height="12px" preserveAspectRatio="xMinYMin meet" x="13.5" y="-98.2"/>
<text text-anchor="start" x="28.5" y="-88.3" font-family="Helvetica,sans-Serif" font-size="11.00" fill="#000000">uuid</text>
<polygon fill="none" stroke="#000000" points="8.5,-62.2 8.5,-81.2 185.5,-81.2 185.5,-62.2 8.5,-62.2"/>
<text text-anchor="start" x="11.5" y="-68.3" font-family="Helvetica,sans-Serif" font-size="11.00" fill="#000000">...</text>
<polygon fill="#ffffff" stroke="transparent" points="8.5,-43.2 8.5,-62.2 86.5,-62.2 86.5,-43.2 8.5,-43.2"/>
<polygon fill="none" stroke="#000000" points="8.5,-43.2 8.5,-62.2 86.5,-62.2 86.5,-43.2 8.5,-43.2"/>
<text text-anchor="start" x="11.5" y="-49.3" font-family="Helvetica,sans-Serif" font-size="11.00" fill="#000000"> &#160;</text>
<polygon fill="#ffffff" stroke="transparent" points="86.5,-43.2 86.5,-62.2 131.5,-62.2 131.5,-43.2 86.5,-43.2"/>
<polygon fill="none" stroke="#000000" points="86.5,-43.2 86.5,-62.2 131.5,-62.2 131.5,-43.2 86.5,-43.2"/>
<text text-anchor="start" x="122.3862" y="-49.3" font-family="Helvetica,sans-Serif" font-size="11.00" fill="#000000"> &#160;</text>
<polygon fill="#ffffff" stroke="transparent" points="131.5,-43.2 131.5,-62.2 185.5,-62.2 185.5,-43.2 131.5,-43.2"/>
<polygon fill="none" stroke="#000000" points="131.5,-43.2 131.5,-62.2 185.5,-62.2 185.5,-43.2 131.5,-43.2"/>
<text text-anchor="start" x="166.9053" y="-49.3" font-family="Helvetica,sans-Serif" font-size="11.00" fill="#000000">2 &gt;</text>
</a>
</g>
</g>
<!-- ilmoitus_lisätiedot&#45;&gt;ilmoitus -->
<g id="edge1" class="edge">
<title>ilmoitus_lisätiedot:w&#45;&gt;ilmoitus:e</title>
<path fill="none" stroke="#000000" d="M225.3362,-92.2C210.9956,-92.2 203.9115,-92.2 185.5,-92.2"/>
<polygon fill="#000000" stroke="#000000" points="235.2,-88.2 235.2,-96.2 233.6,-96.2 233.6,-88.2 235.2,-88.2"/>
<polyline fill="none" stroke="#000000" points="236,-92.2 232,-92.2 "/>
<ellipse fill="none" stroke="#000000" cx="228.8" cy="-92.2001" rx="3.2" ry="3.2"/>
</g>
</g>
</svg>
