<?xml version="1.0" encoding="UTF-8" standalone="no"?>
<!DOCTYPE svg PUBLIC "-//W3C//DTD SVG 1.1//EN"
 "http://www.w3.org/Graphics/SVG/1.1/DTD/svg11.dtd">
<!-- Generated by graphviz version 2.40.1 (20161225.0304)
 -->
<!-- Title: twoDegreesRelationshipsDiagram Pages: 1 -->
<svg width="600pt" height="223pt"
 viewBox="0.00 0.00 600.00 222.70" xmlns="http://www.w3.org/2000/svg" xmlns:xlink="http://www.w3.org/1999/xlink">
<g id="graph0" class="graph" transform="scale(1 1) rotate(0) translate(4 218.7)">
<title>twoDegreesRelationshipsDiagram</title>
<polygon fill="#ffffff" stroke="transparent" points="-4,4 -4,-218.7 596,-218.7 596,4 -4,4"/>
<text text-anchor="middle" x="72.4936" y="-7.3" font-family="Helvetica,sans-Serif" font-size="11.00" fill="#000000">Generated by SchemaSpy</text>
<!-- ilmoitus_lisätiedot -->
<g id="node1" class="node">
<title>ilmoitus_lisätiedot</title>
<g id="a_node1"><a xlink:href="../../tables/ilmoitus_lis_tiedot_cc362998.html" xlink:title="ilmoitus_lisätiedot" target="_top">
<polygon fill="#ffffff" stroke="transparent" points="327.5,-149.7 327.5,-210.7 490.5,-210.7 490.5,-149.7 327.5,-149.7"/>
<polygon fill="#f5f5f5" stroke="transparent" points="328,-187.2 328,-210.2 491,-210.2 491,-187.2 328,-187.2"/>
<polygon fill="none" stroke="#000000" points="328,-187.2 328,-210.2 491,-210.2 491,-187.2 328,-187.2"/>
<text text-anchor="start" x="333" y="-195.8" font-family="Helvetica,sans-Serif" font-weight="bold" font-size="11.00" fill="#000000">ilmoitus_lisätiedot</text>
<text text-anchor="start" x="456.5219" y="-195.3" font-family="Helvetica,sans-Serif" font-size="11.00" fill="#000000">[table]</text>
<polygon fill="none" stroke="#000000" points="328,-168.2 328,-187.2 491,-187.2 491,-168.2 328,-168.2"/>
<text text-anchor="start" x="331" y="-174.3" font-family="Helvetica,sans-Serif" font-size="11.00" fill="#000000">...</text>
<polygon fill="#ffffff" stroke="transparent" points="328,-149.2 328,-168.2 408,-168.2 408,-149.2 328,-149.2"/>
<polygon fill="none" stroke="#000000" points="328,-149.2 328,-168.2 408,-168.2 408,-149.2 328,-149.2"/>
<text text-anchor="start" x="331" y="-155.3" font-family="Helvetica,sans-Serif" font-size="11.00" fill="#000000">&lt; 1</text>
<polygon fill="#ffffff" stroke="transparent" points="408,-149.2 408,-168.2 449,-168.2 449,-149.2 408,-149.2"/>
<polygon fill="none" stroke="#000000" points="408,-149.2 408,-168.2 449,-168.2 449,-149.2 408,-149.2"/>
<text text-anchor="start" x="439.8862" y="-155.3" font-family="Helvetica,sans-Serif" font-size="11.00" fill="#000000"> &#160;</text>
<polygon fill="#ffffff" stroke="transparent" points="449,-149.2 449,-168.2 491,-168.2 491,-149.2 449,-149.2"/>
<polygon fill="none" stroke="#000000" points="449,-149.2 449,-168.2 491,-168.2 491,-149.2 449,-149.2"/>
<text text-anchor="start" x="481.8862" y="-155.3" font-family="Helvetica,sans-Serif" font-size="11.00" fill="#000000"> &#160;</text>
</a>
</g>
</g>
<!-- ilmoitus -->
<g id="node2" class="node">
<title>ilmoitus</title>
<g id="a_node2"><a xlink:href="../../tables/ilmoitus.html" xlink:title="ilmoitus" target="_top">
<polygon fill="#ffffff" stroke="transparent" points="8,-85.7 8,-168.7 185,-168.7 185,-85.7 8,-85.7"/>
<polygon fill="#f5f5f5" stroke="transparent" points="8.5,-145.2 8.5,-168.2 185.5,-168.2 185.5,-145.2 8.5,-145.2"/>
<polygon fill="none" stroke="#000000" points="8.5,-145.2 8.5,-168.2 185.5,-168.2 185.5,-145.2 8.5,-145.2"/>
<text text-anchor="start" x="13.5" y="-153.8" font-family="Helvetica,sans-Serif" font-weight="bold" font-size="11.00" fill="#000000">ilmoitus</text>
<text text-anchor="start" x="150.5437" y="-153.3" font-family="Helvetica,sans-Serif" font-size="11.00" fill="#000000">[table]</text>
<polygon fill="none" stroke="#000000" points="8.5,-123.2 8.5,-145.2 185.5,-145.2 185.5,-123.2 8.5,-123.2"/>
<image xlink:href="../../images/primaryKeys.png" width="11px" height="12px" preserveAspectRatio="xMinYMin meet" x="13.5" y="-140.2"/>
<text text-anchor="start" x="28.5" y="-130.3" font-family="Helvetica,sans-Serif" font-size="11.00" fill="#000000">uuid</text>
<polygon fill="none" stroke="#000000" points="8.5,-104.2 8.5,-123.2 185.5,-123.2 185.5,-104.2 8.5,-104.2"/>
<text text-anchor="start" x="11.5" y="-110.3" font-family="Helvetica,sans-Serif" font-size="11.00" fill="#000000">...</text>
<polygon fill="#ffffff" stroke="transparent" points="8.5,-85.2 8.5,-104.2 86.5,-104.2 86.5,-85.2 8.5,-85.2"/>
<polygon fill="none" stroke="#000000" points="8.5,-85.2 8.5,-104.2 86.5,-104.2 86.5,-85.2 8.5,-85.2"/>
<text text-anchor="start" x="11.5" y="-91.3" font-family="Helvetica,sans-Serif" font-size="11.00" fill="#000000"> &#160;</text>
<polygon fill="#ffffff" stroke="transparent" points="86.5,-85.2 86.5,-104.2 131.5,-104.2 131.5,-85.2 86.5,-85.2"/>
<polygon fill="none" stroke="#000000" points="86.5,-85.2 86.5,-104.2 131.5,-104.2 131.5,-85.2 86.5,-85.2"/>
<text text-anchor="start" x="122.3862" y="-91.3" font-family="Helvetica,sans-Serif" font-size="11.00" fill="#000000"> &#160;</text>
<polygon fill="#ffffff" stroke="transparent" points="131.5,-85.2 131.5,-104.2 185.5,-104.2 185.5,-85.2 131.5,-85.2"/>
<polygon fill="none" stroke="#000000" points="131.5,-85.2 131.5,-104.2 185.5,-104.2 185.5,-85.2 131.5,-85.2"/>
<text text-anchor="start" x="166.9053" y="-91.3" font-family="Helvetica,sans-Serif" font-size="11.00" fill="#000000">2 &gt;</text>
</a>
</g>
</g>
<!-- ilmoitus_lisätiedot&#45;&gt;ilmoitus -->
<g id="edge1" class="edge">
<title>ilmoitus_lisätiedot:w&#45;&gt;ilmoitus:e</title>
<path fill="none" stroke="#000000" d="M317.2773,-176.8018C260.5119,-172.4669 247.907,-134.2 185.5,-134.2"/>
<polygon fill="#000000" stroke="#000000" points="327.349,-173.1731 327.0521,-181.1675 325.4532,-181.1082 325.7501,-173.1137 327.349,-173.1731"/>
<polyline fill="none" stroke="#000000" points="328,-177.2 324.0028,-177.0515 "/>
<ellipse fill="none" stroke="#000000" cx="320.805" cy="-176.9327" rx="3.2" ry="3.2"/>
</g>
<!-- ilmoitus_opiskeluoikeus_konteksti -->
<g id="node3" class="node">
<title>ilmoitus_opiskeluoikeus_konteksti</title>
<g id="a_node3"><a xlink:href="../../tables/ilmoitus_opiskeluoikeus_konteksti.html" xlink:title="ilmoitus_opiskeluoikeus_konteksti" target="_top">
<polygon fill="#ffffff" stroke="transparent" points="234,-38.2 234,-128.2 584,-128.2 584,-38.2 234,-38.2"/>
<polygon fill="#f5f5f5" stroke="transparent" points="236,-103.2 236,-126.2 582,-126.2 582,-103.2 236,-103.2"/>
<polygon fill="none" stroke="#000000" points="236,-103.2 236,-126.2 582,-126.2 582,-103.2 236,-103.2"/>
<text text-anchor="start" x="241" y="-111.8" font-family="Helvetica,sans-Serif" font-weight="bold" font-size="11.00" fill="#000000">ilmoitus_opiskeluoikeus_konteksti</text>
<text text-anchor="start" x="547.0437" y="-111.3" font-family="Helvetica,sans-Serif" font-size="11.00" fill="#000000">[table]</text>
<polygon fill="none" stroke="#000000" points="236,-81.2 236,-103.2 488,-103.2 488,-81.2 236,-81.2"/>
<image xlink:href="../../images/primaryKeys.png" width="11px" height="12px" preserveAspectRatio="xMinYMin meet" x="241" y="-98.2"/>
<text text-anchor="start" x="256" y="-88.3" font-family="Helvetica,sans-Serif" font-size="11.00" fill="#000000">ilmoitus_uuid</text>
<polygon fill="none" stroke="#000000" points="488,-81.2 488,-103.2 582,-103.2 582,-81.2 488,-81.2"/>
<text text-anchor="start" x="490.9758" y="-88.9" font-family="Helvetica,sans-Serif" font-size="11.00" fill="#000000">uuid[2147483647]</text>
<polygon fill="none" stroke="#000000" points="236,-59.2 236,-81.2 488,-81.2 488,-59.2 236,-59.2"/>
<image xlink:href="../../images/primaryKeys.png" width="11px" height="12px" preserveAspectRatio="xMinYMin meet" x="241" y="-76.2"/>
<text text-anchor="start" x="256" y="-66.3" font-family="Helvetica,sans-Serif" font-size="11.00" fill="#000000">opiskeluoikeus_oid</text>
<polygon fill="none" stroke="#000000" points="488,-59.2 488,-81.2 582,-81.2 582,-59.2 488,-59.2"/>
<text text-anchor="start" x="491" y="-66.9" font-family="Helvetica,sans-Serif" font-size="11.00" fill="#000000">text[2147483647]</text>
<polygon fill="#ffffff" stroke="transparent" points="236,-40.2 236,-59.2 366,-59.2 366,-40.2 236,-40.2"/>
<polygon fill="none" stroke="#000000" points="236,-40.2 236,-59.2 366,-59.2 366,-40.2 236,-40.2"/>
<text text-anchor="start" x="239" y="-46.3" font-family="Helvetica,sans-Serif" font-size="11.00" fill="#000000">&lt; 1</text>
<polygon fill="#ffffff" stroke="transparent" points="366,-40.2 366,-59.2 488,-59.2 488,-40.2 366,-40.2"/>
<polygon fill="none" stroke="#000000" points="366,-40.2 366,-59.2 488,-59.2 488,-40.2 366,-40.2"/>
<text text-anchor="start" x="478.8862" y="-46.3" font-family="Helvetica,sans-Serif" font-size="11.00" fill="#000000"> &#160;</text>
<polygon fill="#ffffff" stroke="transparent" points="488,-40.2 488,-59.2 582,-59.2 582,-40.2 488,-40.2"/>
<polygon fill="none" stroke="#000000" points="488,-40.2 488,-59.2 582,-59.2 582,-40.2 488,-40.2"/>
<text text-anchor="start" x="563.4053" y="-46.3" font-family="Helvetica,sans-Serif" font-size="11.00" fill="#000000">0 &gt;</text>
<polygon fill="none" stroke="#000000" stroke-width="2" points="235,-39.2 235,-127.2 583,-127.2 583,-39.2 235,-39.2"/>
</a>
</g>
</g>
<!-- ilmoitus_opiskeluoikeus_konteksti&#45;&gt;ilmoitus -->
<g id="edge2" class="edge">
<title>ilmoitus_opiskeluoikeus_konteksti:w&#45;&gt;ilmoitus:e</title>
<path fill="none" stroke="#000000" d="M222.1788,-96.6947C208.481,-107.5296 208.7627,-134.2 185.5,-134.2"/>
<polygon fill="#000000" stroke="#000000" points="228.3922,-94.6741 237.1134,-95.6235 232.1961,-93.4371 236,-92.2 236,-92.2 236,-92.2 232.1961,-93.4371 234.8866,-88.7765 228.3922,-94.6741 228.3922,-94.6741"/>
<ellipse fill="none" stroke="#000000" cx="225.3491" cy="-95.6638" rx="3.2" ry="3.2"/>
</g>
</g>
</svg>
