<?xml version="1.0" encoding="UTF-8" standalone="no"?>
<!DOCTYPE svg PUBLIC "-//W3C//DTD SVG 1.1//EN"
 "http://www.w3.org/Graphics/SVG/1.1/DTD/svg11.dtd">
<!-- Generated by graphviz version 2.40.1 (20161225.0304)
 -->
<!-- Title: oneDegreeRelationshipsDiagram Pages: 1 -->
<svg width="618pt" height="301pt"
 viewBox="0.00 0.00 618.00 300.70" xmlns="http://www.w3.org/2000/svg" xmlns:xlink="http://www.w3.org/1999/xlink">
<g id="graph0" class="graph" transform="scale(1 1) rotate(0) translate(4 296.7)">
<title>oneDegreeRelationshipsDiagram</title>
<polygon fill="#ffffff" stroke="transparent" points="-4,4 -4,-296.7 614,-296.7 614,4 -4,4"/>
<text text-anchor="middle" x="72.4936" y="-7.3" font-family="Helvetica,sans-Serif" font-size="11.00" fill="#000000">Generated by SchemaSpy</text>
<!-- ilmoitus_lisätiedot -->
<g id="node1" class="node">
<title>ilmoitus_lisätiedot</title>
<g id="a_node1"><a xlink:href="../../tables/ilmoitus_lis_tiedot_cc362998.html" xlink:title="ilmoitus_lisätiedot" target="_top">
<polygon fill="#ffffff" stroke="transparent" points="385.5,-205.7 385.5,-288.7 548.5,-288.7 548.5,-205.7 385.5,-205.7"/>
<polygon fill="#f5f5f5" stroke="transparent" points="386,-265.2 386,-288.2 549,-288.2 549,-265.2 386,-265.2"/>
<polygon fill="none" stroke="#000000" points="386,-265.2 386,-288.2 549,-288.2 549,-265.2 386,-265.2"/>
<text text-anchor="start" x="391" y="-273.8" font-family="Helvetica,sans-Serif" font-weight="bold" font-size="11.00" fill="#000000">ilmoitus_lisätiedot</text>
<text text-anchor="start" x="514.5219" y="-273.3" font-family="Helvetica,sans-Serif" font-size="11.00" fill="#000000">[table]</text>
<polygon fill="none" stroke="#000000" points="386,-243.2 386,-265.2 549,-265.2 549,-243.2 386,-243.2"/>
<image xlink:href="../../images/primaryKeys.png" width="11px" height="12px" preserveAspectRatio="xMinYMin meet" x="391" y="-260.2"/>
<text text-anchor="start" x="415" y="-250.3" font-family="Helvetica,sans-Serif" font-size="11.00" fill="#000000">ilmoitus_uuid</text>
<polygon fill="none" stroke="#000000" points="386,-224.2 386,-243.2 549,-243.2 549,-224.2 386,-224.2"/>
<text text-anchor="start" x="389" y="-230.3" font-family="Helvetica,sans-Serif" font-size="11.00" fill="#000000">...</text>
<polygon fill="#ffffff" stroke="transparent" points="386,-205.2 386,-224.2 466,-224.2 466,-205.2 386,-205.2"/>
<polygon fill="none" stroke="#000000" points="386,-205.2 386,-224.2 466,-224.2 466,-205.2 386,-205.2"/>
<text text-anchor="start" x="389" y="-211.3" font-family="Helvetica,sans-Serif" font-size="11.00" fill="#000000">&lt; 1</text>
<polygon fill="#ffffff" stroke="transparent" points="466,-205.2 466,-224.2 507,-224.2 507,-205.2 466,-205.2"/>
<polygon fill="none" stroke="#000000" points="466,-205.2 466,-224.2 507,-224.2 507,-205.2 466,-205.2"/>
<text text-anchor="start" x="497.8862" y="-211.3" font-family="Helvetica,sans-Serif" font-size="11.00" fill="#000000"> &#160;</text>
<polygon fill="#ffffff" stroke="transparent" points="507,-205.2 507,-224.2 549,-224.2 549,-205.2 507,-205.2"/>
<polygon fill="none" stroke="#000000" points="507,-205.2 507,-224.2 549,-224.2 549,-205.2 507,-205.2"/>
<text text-anchor="start" x="539.8862" y="-211.3" font-family="Helvetica,sans-Serif" font-size="11.00" fill="#000000"> &#160;</text>
</a>
</g>
</g>
<!-- ilmoitus -->
<g id="node2" class="node">
<title>ilmoitus</title>
<g id="a_node2"><a xlink:href="../../tables/ilmoitus.html" xlink:title="ilmoitus" target="_top">
<polygon fill="#ffffff" stroke="transparent" points="8,-38.2 8,-238.2 283,-238.2 283,-38.2 8,-38.2"/>
<polygon fill="#f5f5f5" stroke="transparent" points="10.5,-213.2 10.5,-236.2 281.5,-236.2 281.5,-213.2 10.5,-213.2"/>
<polygon fill="none" stroke="#000000" points="10.5,-213.2 10.5,-236.2 281.5,-236.2 281.5,-213.2 10.5,-213.2"/>
<text text-anchor="start" x="15.5" y="-221.8" font-family="Helvetica,sans-Serif" font-weight="bold" font-size="11.00" fill="#000000">ilmoitus</text>
<text text-anchor="start" x="246.5437" y="-221.3" font-family="Helvetica,sans-Serif" font-size="11.00" fill="#000000">[table]</text>
<polygon fill="none" stroke="#000000" points="10.5,-191.2 10.5,-213.2 187.5,-213.2 187.5,-191.2 10.5,-191.2"/>
<image xlink:href="../../images/primaryKeys.png" width="11px" height="12px" preserveAspectRatio="xMinYMin meet" x="15.5" y="-208.2"/>
<text text-anchor="start" x="30.5" y="-198.3" font-family="Helvetica,sans-Serif" font-size="11.00" fill="#000000">uuid</text>
<polygon fill="none" stroke="#000000" points="187.5,-191.2 187.5,-213.2 281.5,-213.2 281.5,-191.2 187.5,-191.2"/>
<text text-anchor="start" x="190.4758" y="-198.9" font-family="Helvetica,sans-Serif" font-size="11.00" fill="#000000">uuid[2147483647]</text>
<polygon fill="none" stroke="#000000" points="10.5,-169.2 10.5,-191.2 187.5,-191.2 187.5,-169.2 10.5,-169.2"/>
<text text-anchor="start" x="30.5" y="-176.3" font-family="Helvetica,sans-Serif" font-size="11.00" fill="#000000">luotu</text>
<polygon fill="none" stroke="#000000" points="187.5,-169.2 187.5,-191.2 281.5,-191.2 281.5,-169.2 187.5,-169.2"/>
<text text-anchor="start" x="190.5" y="-176.9" font-family="Helvetica,sans-Serif" font-size="11.00" fill="#000000">timestamp[29,6]</text>
<polygon fill="none" stroke="#000000" points="10.5,-147.2 10.5,-169.2 187.5,-169.2 187.5,-147.2 10.5,-147.2"/>
<text text-anchor="start" x="30.5" y="-154.3" font-family="Helvetica,sans-Serif" font-size="11.00" fill="#000000">oppija_oid</text>
<polygon fill="none" stroke="#000000" points="187.5,-147.2 187.5,-169.2 281.5,-169.2 281.5,-147.2 187.5,-147.2"/>
<text text-anchor="start" x="190.5" y="-154.9" font-family="Helvetica,sans-Serif" font-size="11.00" fill="#000000">text[2147483647]</text>
<polygon fill="none" stroke="#000000" points="10.5,-125.2 10.5,-147.2 187.5,-147.2 187.5,-125.2 10.5,-125.2"/>
<text text-anchor="start" x="30.5" y="-132.3" font-family="Helvetica,sans-Serif" font-size="11.00" fill="#000000">kunta_oid</text>
<polygon fill="none" stroke="#000000" points="187.5,-125.2 187.5,-147.2 281.5,-147.2 281.5,-125.2 187.5,-125.2"/>
<text text-anchor="start" x="190.5" y="-132.9" font-family="Helvetica,sans-Serif" font-size="11.00" fill="#000000">text[2147483647]</text>
<polygon fill="none" stroke="#000000" points="10.5,-103.2 10.5,-125.2 187.5,-125.2 187.5,-103.2 10.5,-103.2"/>
<text text-anchor="start" x="30.5" y="-110.3" font-family="Helvetica,sans-Serif" font-size="11.00" fill="#000000">tekijä_organisaatio_oid</text>
<polygon fill="none" stroke="#000000" points="187.5,-103.2 187.5,-125.2 281.5,-125.2 281.5,-103.2 187.5,-103.2"/>
<text text-anchor="start" x="190.5" y="-110.9" font-family="Helvetica,sans-Serif" font-size="11.00" fill="#000000">text[2147483647]</text>
<polygon fill="none" stroke="#000000" points="10.5,-81.2 10.5,-103.2 187.5,-103.2 187.5,-81.2 10.5,-81.2"/>
<text text-anchor="start" x="30.5" y="-88.3" font-family="Helvetica,sans-Serif" font-size="11.00" fill="#000000">tekijä_oid</text>
<polygon fill="none" stroke="#000000" points="187.5,-81.2 187.5,-103.2 281.5,-103.2 281.5,-81.2 187.5,-81.2"/>
<text text-anchor="start" x="190.5" y="-88.9" font-family="Helvetica,sans-Serif" font-size="11.00" fill="#000000">text[2147483647]</text>
<polygon fill="none" stroke="#000000" points="10.5,-59.2 10.5,-81.2 187.5,-81.2 187.5,-59.2 10.5,-59.2"/>
<text text-anchor="start" x="30.5" y="-66.3" font-family="Helvetica,sans-Serif" font-size="11.00" fill="#000000">mitätöity</text>
<polygon fill="none" stroke="#000000" points="187.5,-59.2 187.5,-81.2 281.5,-81.2 281.5,-59.2 187.5,-59.2"/>
<text text-anchor="start" x="190.5" y="-66.9" font-family="Helvetica,sans-Serif" font-size="11.00" fill="#000000">timestamp[29,6]</text>
<polygon fill="#ffffff" stroke="transparent" points="10.5,-40.2 10.5,-59.2 103.5,-59.2 103.5,-40.2 10.5,-40.2"/>
<polygon fill="none" stroke="#000000" points="10.5,-40.2 10.5,-59.2 103.5,-59.2 103.5,-40.2 10.5,-40.2"/>
<text text-anchor="start" x="13.5" y="-46.3" font-family="Helvetica,sans-Serif" font-size="11.00" fill="#000000">&lt; 0</text>
<polygon fill="#ffffff" stroke="transparent" points="103.5,-40.2 103.5,-59.2 187.5,-59.2 187.5,-40.2 103.5,-40.2"/>
<polygon fill="none" stroke="#000000" points="103.5,-40.2 103.5,-59.2 187.5,-59.2 187.5,-40.2 103.5,-40.2"/>
<text text-anchor="start" x="178.3862" y="-46.3" font-family="Helvetica,sans-Serif" font-size="11.00" fill="#000000"> &#160;</text>
<polygon fill="#ffffff" stroke="transparent" points="187.5,-40.2 187.5,-59.2 281.5,-59.2 281.5,-40.2 187.5,-40.2"/>
<polygon fill="none" stroke="#000000" points="187.5,-40.2 187.5,-59.2 281.5,-59.2 281.5,-40.2 187.5,-40.2"/>
<text text-anchor="start" x="262.9053" y="-46.3" font-family="Helvetica,sans-Serif" font-size="11.00" fill="#000000">2 &gt;</text>
<polygon fill="none" stroke="#000000" stroke-width="2" points="9,-39.2 9,-237.2 282,-237.2 282,-39.2 9,-39.2"/>
</a>
</g>
</g>
<!-- ilmoitus_lisätiedot&#45;&gt;ilmoitus -->
<g id="edge1" class="edge">
<title>ilmoitus_lisätiedot:w&#45;&gt;ilmoitus:e</title>
<path fill="none" stroke="#000000" d="M375.5157,-253.4246C333.7483,-246.9559 329.628,-202.2 281.5,-202.2"/>
<polygon fill="#000000" stroke="#000000" points="385.4973,-250.1519 384.9071,-258.1301 383.3115,-258.0121 383.9016,-250.0339 385.4973,-250.1519"/>
<polyline fill="none" stroke="#000000" points="386,-254.2 382.0109,-253.9049 "/>
<ellipse fill="none" stroke="#000000" cx="378.8196" cy="-253.6689" rx="3.2" ry="3.2"/>
</g>
<!-- ilmoitus_opiskeluoikeus_konteksti -->
<g id="node3" class="node">
<title>ilmoitus_opiskeluoikeus_konteksti</title>
<g id="a_node3"><a xlink:href="../../tables/ilmoitus_opiskeluoikeus_konteksti.html" xlink:title="ilmoitus_opiskeluoikeus_konteksti" target="_top">
<polygon fill="#ffffff" stroke="transparent" points="332,-98.2 332,-184.2 602,-184.2 602,-98.2 332,-98.2"/>
<polygon fill="#f5f5f5" stroke="transparent" points="332,-161.2 332,-184.2 602,-184.2 602,-161.2 332,-161.2"/>
<polygon fill="none" stroke="#000000" points="332,-161.2 332,-184.2 602,-184.2 602,-161.2 332,-161.2"/>
<text text-anchor="start" x="337" y="-169.8" font-family="Helvetica,sans-Serif" font-weight="bold" font-size="11.00" fill="#000000">ilmoitus_opiskeluoikeus_konteksti</text>
<text text-anchor="start" x="567.5219" y="-169.3" font-family="Helvetica,sans-Serif" font-size="11.00" fill="#000000">[table]</text>
<polygon fill="none" stroke="#000000" points="332,-139.2 332,-161.2 602,-161.2 602,-139.2 332,-139.2"/>
<image xlink:href="../../images/primaryKeys.png" width="11px" height="12px" preserveAspectRatio="xMinYMin meet" x="337" y="-156.2"/>
<text text-anchor="start" x="361" y="-146.3" font-family="Helvetica,sans-Serif" font-size="11.00" fill="#000000">ilmoitus_uuid</text>
<polygon fill="none" stroke="#000000" points="332,-117.2 332,-139.2 602,-139.2 602,-117.2 332,-117.2"/>
<image xlink:href="../../images/primaryKeys.png" width="11px" height="12px" preserveAspectRatio="xMinYMin meet" x="337" y="-134.2"/>
<text text-anchor="start" x="361" y="-124.3" font-family="Helvetica,sans-Serif" font-size="11.00" fill="#000000">opiskeluoikeus_oid</text>
<polygon fill="#ffffff" stroke="transparent" points="332,-98.2 332,-117.2 465,-117.2 465,-98.2 332,-98.2"/>
<polygon fill="none" stroke="#000000" points="332,-98.2 332,-117.2 465,-117.2 465,-98.2 332,-98.2"/>
<text text-anchor="start" x="335" y="-104.3" font-family="Helvetica,sans-Serif" font-size="11.00" fill="#000000">&lt; 1</text>
<polygon fill="#ffffff" stroke="transparent" points="465,-98.2 465,-117.2 533,-117.2 533,-98.2 465,-98.2"/>
<polygon fill="none" stroke="#000000" points="465,-98.2 465,-117.2 533,-117.2 533,-98.2 465,-98.2"/>
<text text-anchor="start" x="523.8862" y="-104.3" font-family="Helvetica,sans-Serif" font-size="11.00" fill="#000000"> &#160;</text>
<polygon fill="#ffffff" stroke="transparent" points="533,-98.2 533,-117.2 602,-117.2 602,-98.2 533,-98.2"/>
<polygon fill="none" stroke="#000000" points="533,-98.2 533,-117.2 602,-117.2 602,-98.2 533,-98.2"/>
<text text-anchor="start" x="592.8862" y="-104.3" font-family="Helvetica,sans-Serif" font-size="11.00" fill="#000000"> &#160;</text>
</a>
</g>
</g>
<!-- ilmoitus_opiskeluoikeus_konteksti&#45;&gt;ilmoitus -->
<g id="edge2" class="edge">
<title>ilmoitus_opiskeluoikeus_konteksti:w&#45;&gt;ilmoitus:e</title>
<path fill="none" stroke="#000000" d="M318.1372,-154.9988C303.3861,-167.8719 307.6756,-202.2 281.5,-202.2"/>
<polygon fill="#000000" stroke="#000000" points="324.4401,-152.817 333.1777,-153.6019 328.2201,-151.5085 332,-150.2 332,-150.2 332,-150.2 328.2201,-151.5085 330.8223,-146.7981 324.4401,-152.817 324.4401,-152.817"/>
<ellipse fill="none" stroke="#000000" cx="321.4162" cy="-153.8638" rx="3.2" ry="3.2"/>
</g>
</g>
</svg>
