<?xml version="1.0" encoding="UTF-8" standalone="no"?>
<!DOCTYPE svg PUBLIC "-//W3C//DTD SVG 1.1//EN"
 "http://www.w3.org/Graphics/SVG/1.1/DTD/svg11.dtd">
<!-- Generated by graphviz version 2.40.1 (20161225.0304)
 -->
<!-- Title: oneDegreeRelationshipsDiagram Pages: 1 -->
<svg width="557pt" height="140pt"
 viewBox="0.00 0.00 557.00 140.20" xmlns="http://www.w3.org/2000/svg" xmlns:xlink="http://www.w3.org/1999/xlink">
<g id="graph0" class="graph" transform="scale(1 1) rotate(0) translate(4 136.2)">
<title>oneDegreeRelationshipsDiagram</title>
<polygon fill="#ffffff" stroke="transparent" points="-4,4 -4,-136.2 553,-136.2 553,4 -4,4"/>
<text text-anchor="middle" x="72.4936" y="-7.3" font-family="Helvetica,sans-Serif" font-size="11.00" fill="#000000">Generated by SchemaSpy</text>
<!-- ilmoitus_opiskeluoikeus_konteksti -->
<g id="node1" class="node">
<title>ilmoitus_opiskeluoikeus_konteksti</title>
<g id="a_node1"><a xlink:href="../../tables/ilmoitus_opiskeluoikeus_konteksti.html" xlink:title="ilmoitus_opiskeluoikeus_konteksti" target="_top">
<polygon fill="#ffffff" stroke="transparent" points="216,-38.2 216,-128.2 541,-128.2 541,-38.2 216,-38.2"/>
<polygon fill="#f5f5f5" stroke="transparent" points="218.5,-103.2 218.5,-126.2 539.5,-126.2 539.5,-103.2 218.5,-103.2"/>
<polygon fill="none" stroke="#000000" points="218.5,-103.2 218.5,-126.2 539.5,-126.2 539.5,-103.2 218.5,-103.2"/>
<text text-anchor="start" x="223.5" y="-111.8" font-family="Helvetica,sans-Serif" font-weight="bold" font-size="11.00" fill="#000000">ilmoitus_opiskeluoikeus_konteksti</text>
<text text-anchor="start" x="504.5437" y="-111.3" font-family="Helvetica,sans-Serif" font-size="11.00" fill="#000000">[table]</text>
<polygon fill="none" stroke="#000000" points="218.5,-81.2 218.5,-103.2 445.5,-103.2 445.5,-81.2 218.5,-81.2"/>
<image xlink:href="../../images/primaryKeys.png" width="11px" height="12px" preserveAspectRatio="xMinYMin meet" x="223.5" y="-98.2"/>
<text text-anchor="start" x="238.5" y="-88.3" font-family="Helvetica,sans-Serif" font-size="11.00" fill="#000000">ilmoitus_uuid</text>
<polygon fill="none" stroke="#000000" points="445.5,-81.2 445.5,-103.2 539.5,-103.2 539.5,-81.2 445.5,-81.2"/>
<text text-anchor="start" x="448.4758" y="-88.9" font-family="Helvetica,sans-Serif" font-size="11.00" fill="#000000">uuid[2147483647]</text>
<polygon fill="none" stroke="#000000" points="218.5,-59.2 218.5,-81.2 445.5,-81.2 445.5,-59.2 218.5,-59.2"/>
<image xlink:href="../../images/primaryKeys.png" width="11px" height="12px" preserveAspectRatio="xMinYMin meet" x="223.5" y="-76.2"/>
<text text-anchor="start" x="238.5" y="-66.3" font-family="Helvetica,sans-Serif" font-size="11.00" fill="#000000">opiskeluoikeus_oid</text>
<polygon fill="none" stroke="#000000" points="445.5,-59.2 445.5,-81.2 539.5,-81.2 539.5,-59.2 445.5,-59.2"/>
<text text-anchor="start" x="448.5" y="-66.9" font-family="Helvetica,sans-Serif" font-size="11.00" fill="#000000">text[2147483647]</text>
<polygon fill="#ffffff" stroke="transparent" points="218.5,-40.2 218.5,-59.2 323.5,-59.2 323.5,-40.2 218.5,-40.2"/>
<polygon fill="none" stroke="#000000" points="218.5,-40.2 218.5,-59.2 323.5,-59.2 323.5,-40.2 218.5,-40.2"/>
<text text-anchor="start" x="221.5" y="-46.3" font-family="Helvetica,sans-Serif" font-size="11.00" fill="#000000">&lt; 1</text>
<polygon fill="#ffffff" stroke="transparent" points="323.5,-40.2 323.5,-59.2 445.5,-59.2 445.5,-40.2 323.5,-40.2"/>
<polygon fill="none" stroke="#000000" points="323.5,-40.2 323.5,-59.2 445.5,-59.2 445.5,-40.2 323.5,-40.2"/>
<text text-anchor="start" x="410.1105" y="-46.3" font-family="Helvetica,sans-Serif" font-size="11.00" fill="#000000">0 rows</text>
<polygon fill="#ffffff" stroke="transparent" points="445.5,-40.2 445.5,-59.2 539.5,-59.2 539.5,-40.2 445.5,-40.2"/>
<polygon fill="none" stroke="#000000" points="445.5,-40.2 445.5,-59.2 539.5,-59.2 539.5,-40.2 445.5,-40.2"/>
<text text-anchor="start" x="520.9053" y="-46.3" font-family="Helvetica,sans-Serif" font-size="11.00" fill="#000000">0 &gt;</text>
<polygon fill="none" stroke="#000000" stroke-width="2" points="217,-39.2 217,-127.2 540,-127.2 540,-39.2 217,-39.2"/>
</a>
</g>
</g>
<!-- ilmoitus -->
<g id="node2" class="node">
<title>ilmoitus</title>
<g id="a_node2"><a xlink:href="../../tables/ilmoitus.html" xlink:title="ilmoitus" target="_top">
<polygon fill="#ffffff" stroke="transparent" points="8,-43.7 8,-126.7 167,-126.7 167,-43.7 8,-43.7"/>
<polygon fill="#f5f5f5" stroke="transparent" points="8.5,-103.2 8.5,-126.2 167.5,-126.2 167.5,-103.2 8.5,-103.2"/>
<polygon fill="none" stroke="#000000" points="8.5,-103.2 8.5,-126.2 167.5,-126.2 167.5,-103.2 8.5,-103.2"/>
<text text-anchor="start" x="13.5" y="-111.8" font-family="Helvetica,sans-Serif" font-weight="bold" font-size="11.00" fill="#000000">ilmoitus</text>
<text text-anchor="start" x="132.5437" y="-111.3" font-family="Helvetica,sans-Serif" font-size="11.00" fill="#000000">[table]</text>
<polygon fill="none" stroke="#000000" points="8.5,-81.2 8.5,-103.2 167.5,-103.2 167.5,-81.2 8.5,-81.2"/>
<image xlink:href="../../images/primaryKeys.png" width="11px" height="12px" preserveAspectRatio="xMinYMin meet" x="13.5" y="-98.2"/>
<text text-anchor="start" x="28.5" y="-88.3" font-family="Helvetica,sans-Serif" font-size="11.00" fill="#000000">uuid</text>
<polygon fill="none" stroke="#000000" points="8.5,-62.2 8.5,-81.2 167.5,-81.2 167.5,-62.2 8.5,-62.2"/>
<text text-anchor="start" x="11.5" y="-68.3" font-family="Helvetica,sans-Serif" font-size="11.00" fill="#000000">...</text>
<polygon fill="#ffffff" stroke="transparent" points="8.5,-43.2 8.5,-62.2 61.5,-62.2 61.5,-43.2 8.5,-43.2"/>
<polygon fill="none" stroke="#000000" points="8.5,-43.2 8.5,-62.2 61.5,-62.2 61.5,-43.2 8.5,-43.2"/>
<text text-anchor="start" x="11.5" y="-49.3" font-family="Helvetica,sans-Serif" font-size="11.00" fill="#000000"> &#160;</text>
<polygon fill="#ffffff" stroke="transparent" points="61.5,-43.2 61.5,-62.2 125.5,-62.2 125.5,-43.2 61.5,-43.2"/>
<polygon fill="none" stroke="#000000" points="61.5,-43.2 61.5,-62.2 125.5,-62.2 125.5,-43.2 61.5,-43.2"/>
<text text-anchor="start" x="83.9956" y="-49.3" font-family="Helvetica,sans-Serif" font-size="11.00" fill="#000000">18 rows</text>
<polygon fill="#ffffff" stroke="transparent" points="125.5,-43.2 125.5,-62.2 167.5,-62.2 167.5,-43.2 125.5,-43.2"/>
<polygon fill="none" stroke="#000000" points="125.5,-43.2 125.5,-62.2 167.5,-62.2 167.5,-43.2 125.5,-43.2"/>
<text text-anchor="start" x="148.9053" y="-49.3" font-family="Helvetica,sans-Serif" font-size="11.00" fill="#000000">2 &gt;</text>
</a>
</g>
</g>
<!-- ilmoitus_opiskeluoikeus_konteksti&#45;&gt;ilmoitus -->
<g id="edge1" class="edge">
<title>ilmoitus_opiskeluoikeus_konteksti:w&#45;&gt;ilmoitus:e</title>
<path fill="none" stroke="#000000" d="M203.776,-92.2C191.7815,-92.2 184.3229,-92.2 167.5,-92.2"/>
<polygon fill="#000000" stroke="#000000" points="210.5,-92.2001 218.5,-95.8 214.5,-92.2 218.5,-92.2 218.5,-92.2 218.5,-92.2 214.5,-92.2 218.5,-88.6 210.5,-92.2001 210.5,-92.2001"/>
<ellipse fill="none" stroke="#000000" cx="207.3" cy="-92.2001" rx="3.2" ry="3.2"/>
</g>
</g>
</svg>
