<?xml version="1.0" encoding="UTF-8" standalone="no"?>
<!DOCTYPE svg PUBLIC "-//W3C//DTD SVG 1.1//EN"
 "http://www.w3.org/Graphics/SVG/1.1/DTD/svg11.dtd">
<!-- Generated by graphviz version 2.40.1 (20161225.0304)
 -->
<!-- Title: oneDegreeRelationshipsDiagram Pages: 1 -->
<svg width="544pt" height="140pt"
 viewBox="0.00 0.00 544.00 140.20" xmlns="http://www.w3.org/2000/svg" xmlns:xlink="http://www.w3.org/1999/xlink">
<g id="graph0" class="graph" transform="scale(1 1) rotate(0) translate(4 136.2)">
<title>oneDegreeRelationshipsDiagram</title>
<polygon fill="#ffffff" stroke="transparent" points="-4,4 -4,-136.2 540,-136.2 540,4 -4,4"/>
<text text-anchor="middle" x="72.4936" y="-7.3" font-family="Helvetica,sans-Serif" font-size="11.00" fill="#000000">Generated by SchemaSpy</text>
<!-- ilmoitus_opiskeluoikeus_konteksti -->
<g id="node1" class="node">
<title>ilmoitus_opiskeluoikeus_konteksti</title>
<g id="a_node1"><a xlink:href="../../tables/ilmoitus_opiskeluoikeus_konteksti.html" xlink:title="ilmoitus_opiskeluoikeus_konteksti" target="_top">
<polygon fill="#ffffff" stroke="transparent" points="211,-38.2 211,-128.2 528,-128.2 528,-38.2 211,-38.2"/>
<polygon fill="#f5f5f5" stroke="transparent" points="213.5,-103.2 213.5,-126.2 526.5,-126.2 526.5,-103.2 213.5,-103.2"/>
<polygon fill="none" stroke="#000000" points="213.5,-103.2 213.5,-126.2 526.5,-126.2 526.5,-103.2 213.5,-103.2"/>
<text text-anchor="start" x="218.5" y="-111.8" font-family="Helvetica,sans-Serif" font-weight="bold" font-size="11.00" fill="#000000">ilmoitus_opiskeluoikeus_konteksti</text>
<text text-anchor="start" x="491.5437" y="-111.3" font-family="Helvetica,sans-Serif" font-size="11.00" fill="#000000">[table]</text>
<polygon fill="none" stroke="#000000" points="213.5,-81.2 213.5,-103.2 432.5,-103.2 432.5,-81.2 213.5,-81.2"/>
<image xlink:href="../../images/primaryKeys.png" width="11px" height="12px" preserveAspectRatio="xMinYMin meet" x="218.5" y="-98.2"/>
<text text-anchor="start" x="233.5" y="-88.3" font-family="Helvetica,sans-Serif" font-size="11.00" fill="#000000">ilmoitus_uuid</text>
<polygon fill="none" stroke="#000000" points="432.5,-81.2 432.5,-103.2 526.5,-103.2 526.5,-81.2 432.5,-81.2"/>
<text text-anchor="start" x="435.4758" y="-88.9" font-family="Helvetica,sans-Serif" font-size="11.00" fill="#000000">uuid[2147483647]</text>
<polygon fill="none" stroke="#000000" points="213.5,-59.2 213.5,-81.2 432.5,-81.2 432.5,-59.2 213.5,-59.2"/>
<image xlink:href="../../images/primaryKeys.png" width="11px" height="12px" preserveAspectRatio="xMinYMin meet" x="218.5" y="-76.2"/>
<text text-anchor="start" x="233.5" y="-66.3" font-family="Helvetica,sans-Serif" font-size="11.00" fill="#000000">opiskeluoikeus_oid</text>
<polygon fill="none" stroke="#000000" points="432.5,-59.2 432.5,-81.2 526.5,-81.2 526.5,-59.2 432.5,-59.2"/>
<text text-anchor="start" x="435.5" y="-66.9" font-family="Helvetica,sans-Serif" font-size="11.00" fill="#000000">text[2147483647]</text>
<polygon fill="#ffffff" stroke="transparent" points="213.5,-40.2 213.5,-59.2 314.5,-59.2 314.5,-40.2 213.5,-40.2"/>
<polygon fill="none" stroke="#000000" points="213.5,-40.2 213.5,-59.2 314.5,-59.2 314.5,-40.2 213.5,-40.2"/>
<text text-anchor="start" x="216.5" y="-46.3" font-family="Helvetica,sans-Serif" font-size="11.00" fill="#000000">&lt; 1</text>
<polygon fill="#ffffff" stroke="transparent" points="314.5,-40.2 314.5,-59.2 432.5,-59.2 432.5,-40.2 314.5,-40.2"/>
<polygon fill="none" stroke="#000000" points="314.5,-40.2 314.5,-59.2 432.5,-59.2 432.5,-40.2 314.5,-40.2"/>
<text text-anchor="start" x="397.1105" y="-46.3" font-family="Helvetica,sans-Serif" font-size="11.00" fill="#000000">0 rows</text>
<polygon fill="#ffffff" stroke="transparent" points="432.5,-40.2 432.5,-59.2 526.5,-59.2 526.5,-40.2 432.5,-40.2"/>
<polygon fill="none" stroke="#000000" points="432.5,-40.2 432.5,-59.2 526.5,-59.2 526.5,-40.2 432.5,-40.2"/>
<text text-anchor="start" x="507.9053" y="-46.3" font-family="Helvetica,sans-Serif" font-size="11.00" fill="#000000">0 &gt;</text>
<polygon fill="none" stroke="#000000" stroke-width="2" points="212,-39.2 212,-127.2 527,-127.2 527,-39.2 212,-39.2"/>
</a>
</g>
</g>
<!-- ilmoitus -->
<g id="node2" class="node">
<title>ilmoitus</title>
<g id="a_node2"><a xlink:href="../../tables/ilmoitus.html" xlink:title="ilmoitus" target="_top">
<polygon fill="#ffffff" stroke="transparent" points="8,-43.7 8,-126.7 162,-126.7 162,-43.7 8,-43.7"/>
<polygon fill="#f5f5f5" stroke="transparent" points="8,-103.2 8,-126.2 162,-126.2 162,-103.2 8,-103.2"/>
<polygon fill="none" stroke="#000000" points="8,-103.2 8,-126.2 162,-126.2 162,-103.2 8,-103.2"/>
<text text-anchor="start" x="13" y="-111.8" font-family="Helvetica,sans-Serif" font-weight="bold" font-size="11.00" fill="#000000">ilmoitus</text>
<text text-anchor="start" x="127.0437" y="-111.3" font-family="Helvetica,sans-Serif" font-size="11.00" fill="#000000">[table]</text>
<polygon fill="none" stroke="#000000" points="8,-81.2 8,-103.2 162,-103.2 162,-81.2 8,-81.2"/>
<image xlink:href="../../images/primaryKeys.png" width="11px" height="12px" preserveAspectRatio="xMinYMin meet" x="13" y="-98.2"/>
<text text-anchor="start" x="28" y="-88.3" font-family="Helvetica,sans-Serif" font-size="11.00" fill="#000000">uuid</text>
<polygon fill="none" stroke="#000000" points="8,-62.2 8,-81.2 162,-81.2 162,-62.2 8,-62.2"/>
<text text-anchor="start" x="11" y="-68.3" font-family="Helvetica,sans-Serif" font-size="11.00" fill="#000000">...</text>
<polygon fill="#ffffff" stroke="transparent" points="8,-43.2 8,-62.2 58,-62.2 58,-43.2 8,-43.2"/>
<polygon fill="none" stroke="#000000" points="8,-43.2 8,-62.2 58,-62.2 58,-43.2 8,-43.2"/>
<text text-anchor="start" x="11" y="-49.3" font-family="Helvetica,sans-Serif" font-size="11.00" fill="#000000"> &#160;</text>
<polygon fill="#ffffff" stroke="transparent" points="58,-43.2 58,-62.2 121,-62.2 121,-43.2 58,-43.2"/>
<polygon fill="none" stroke="#000000" points="58,-43.2 58,-62.2 121,-62.2 121,-43.2 58,-43.2"/>
<text text-anchor="start" x="79.4956" y="-49.3" font-family="Helvetica,sans-Serif" font-size="11.00" fill="#000000">17 rows</text>
<polygon fill="#ffffff" stroke="transparent" points="121,-43.2 121,-62.2 162,-62.2 162,-43.2 121,-43.2"/>
<polygon fill="none" stroke="#000000" points="121,-43.2 121,-62.2 162,-62.2 162,-43.2 121,-43.2"/>
<text text-anchor="start" x="143.4053" y="-49.3" font-family="Helvetica,sans-Serif" font-size="11.00" fill="#000000">2 &gt;</text>
</a>
</g>
</g>
<!-- ilmoitus_opiskeluoikeus_konteksti&#45;&gt;ilmoitus -->
<g id="edge1" class="edge">
<title>ilmoitus_opiskeluoikeus_konteksti:w&#45;&gt;ilmoitus:e</title>
<path fill="none" stroke="#000000" d="M199.0156,-92.2C186.6771,-92.2 179.1667,-92.2 162,-92.2"/>
<polygon fill="#000000" stroke="#000000" points="205.5,-92.2001 213.5,-95.8 209.5,-92.2 213.5,-92.2 213.5,-92.2 213.5,-92.2 209.5,-92.2 213.5,-88.6 205.5,-92.2001 205.5,-92.2001"/>
<ellipse fill="none" stroke="#000000" cx="202.3" cy="-92.2001" rx="3.2" ry="3.2"/>
</g>
</g>
</svg>
