<?xml version="1.0" encoding="UTF-8" standalone="no"?>
<!DOCTYPE svg PUBLIC "-//W3C//DTD SVG 1.1//EN"
 "http://www.w3.org/Graphics/SVG/1.1/DTD/svg11.dtd">
<!-- Generated by graphviz version 2.40.1 (20161225.0304)
 -->
<!-- Title: twoDegreesRelationshipsDiagram Pages: 1 -->
<svg width="477pt" height="223pt"
 viewBox="0.00 0.00 477.00 222.70" xmlns="http://www.w3.org/2000/svg" xmlns:xlink="http://www.w3.org/1999/xlink">
<g id="graph0" class="graph" transform="scale(1 1) rotate(0) translate(4 218.7)">
<title>twoDegreesRelationshipsDiagram</title>
<polygon fill="#ffffff" stroke="transparent" points="-4,4 -4,-218.7 473,-218.7 473,4 -4,4"/>
<text text-anchor="middle" x="72.4936" y="-7.3" font-family="Helvetica,sans-Serif" font-size="11.00" fill="#000000">Generated by SchemaSpy</text>
<!-- ilmoitus_lisätiedot -->
<g id="node1" class="node">
<title>ilmoitus_lisätiedot</title>
<g id="a_node1"><a xlink:href="../../tables/ilmoitus_lis_tiedot_cc362998.html" xlink:title="ilmoitus_lisätiedot" target="_top">
<polygon fill="#ffffff" stroke="transparent" points="221.5,-120.7 221.5,-210.7 455.5,-210.7 455.5,-120.7 221.5,-120.7"/>
<polygon fill="#f5f5f5" stroke="transparent" points="223.5,-185.7 223.5,-208.7 453.5,-208.7 453.5,-185.7 223.5,-185.7"/>
<polygon fill="none" stroke="#000000" points="223.5,-185.7 223.5,-208.7 453.5,-208.7 453.5,-185.7 223.5,-185.7"/>
<text text-anchor="start" x="228.5" y="-194.3" font-family="Helvetica,sans-Serif" font-weight="bold" font-size="11.00" fill="#000000">ilmoitus_lisätiedot</text>
<text text-anchor="start" x="418.5437" y="-193.8" font-family="Helvetica,sans-Serif" font-size="11.00" fill="#000000">[table]</text>
<polygon fill="none" stroke="#000000" points="223.5,-163.7 223.5,-185.7 354.5,-185.7 354.5,-163.7 223.5,-163.7"/>
<image xlink:href="../../images/primaryKeys.png" width="11px" height="12px" preserveAspectRatio="xMinYMin meet" x="228.5" y="-180.7"/>
<text text-anchor="start" x="243.5" y="-170.8" font-family="Helvetica,sans-Serif" font-size="11.00" fill="#000000">ilmoitus_uuid</text>
<polygon fill="none" stroke="#000000" points="354.5,-163.7 354.5,-185.7 453.5,-185.7 453.5,-163.7 354.5,-163.7"/>
<text text-anchor="start" x="357.5" y="-171.4" font-family="Helvetica,sans-Serif" font-size="11.00" fill="#000000">uuid[2147483647]</text>
<polygon fill="none" stroke="#000000" points="223.5,-141.7 223.5,-163.7 354.5,-163.7 354.5,-141.7 223.5,-141.7"/>
<text text-anchor="start" x="243.5" y="-148.8" font-family="Helvetica,sans-Serif" font-size="11.00" fill="#000000">data</text>
<polygon fill="none" stroke="#000000" points="354.5,-141.7 354.5,-163.7 453.5,-163.7 453.5,-141.7 354.5,-141.7"/>
<text text-anchor="start" x="357.2258" y="-149.4" font-family="Helvetica,sans-Serif" font-size="11.00" fill="#000000">jsonb[2147483647]</text>
<polygon fill="#ffffff" stroke="transparent" points="223.5,-122.7 223.5,-141.7 277.5,-141.7 277.5,-122.7 223.5,-122.7"/>
<polygon fill="none" stroke="#000000" points="223.5,-122.7 223.5,-141.7 277.5,-141.7 277.5,-122.7 223.5,-122.7"/>
<text text-anchor="start" x="226.5" y="-128.8" font-family="Helvetica,sans-Serif" font-size="11.00" fill="#000000">&lt; 1</text>
<polygon fill="#ffffff" stroke="transparent" points="277.5,-122.7 277.5,-141.7 354.5,-141.7 354.5,-122.7 277.5,-122.7"/>
<polygon fill="none" stroke="#000000" points="277.5,-122.7 277.5,-141.7 354.5,-141.7 354.5,-122.7 277.5,-122.7"/>
<text text-anchor="start" x="312.9956" y="-128.8" font-family="Helvetica,sans-Serif" font-size="11.00" fill="#000000">17 rows</text>
<polygon fill="#ffffff" stroke="transparent" points="354.5,-122.7 354.5,-141.7 453.5,-141.7 453.5,-122.7 354.5,-122.7"/>
<polygon fill="none" stroke="#000000" points="354.5,-122.7 354.5,-141.7 453.5,-141.7 453.5,-122.7 354.5,-122.7"/>
<text text-anchor="start" x="434.9053" y="-128.8" font-family="Helvetica,sans-Serif" font-size="11.00" fill="#000000">0 &gt;</text>
<polygon fill="none" stroke="#000000" stroke-width="2" points="222.5,-121.7 222.5,-209.7 454.5,-209.7 454.5,-121.7 222.5,-121.7"/>
</a>
</g>
</g>
<!-- ilmoitus -->
<g id="node2" class="node">
<title>ilmoitus</title>
<g id="a_node2"><a xlink:href="../../tables/ilmoitus.html" xlink:title="ilmoitus" target="_top">
<polygon fill="#ffffff" stroke="transparent" points="8,-71.2 8,-154.2 167,-154.2 167,-71.2 8,-71.2"/>
<polygon fill="#f5f5f5" stroke="transparent" points="8.5,-130.7 8.5,-153.7 167.5,-153.7 167.5,-130.7 8.5,-130.7"/>
<polygon fill="none" stroke="#000000" points="8.5,-130.7 8.5,-153.7 167.5,-153.7 167.5,-130.7 8.5,-130.7"/>
<text text-anchor="start" x="13.5" y="-139.3" font-family="Helvetica,sans-Serif" font-weight="bold" font-size="11.00" fill="#000000">ilmoitus</text>
<text text-anchor="start" x="132.5437" y="-138.8" font-family="Helvetica,sans-Serif" font-size="11.00" fill="#000000">[table]</text>
<polygon fill="none" stroke="#000000" points="8.5,-108.7 8.5,-130.7 167.5,-130.7 167.5,-108.7 8.5,-108.7"/>
<image xlink:href="../../images/primaryKeys.png" width="11px" height="12px" preserveAspectRatio="xMinYMin meet" x="13.5" y="-125.7"/>
<text text-anchor="start" x="28.5" y="-115.8" font-family="Helvetica,sans-Serif" font-size="11.00" fill="#000000">uuid</text>
<polygon fill="none" stroke="#000000" points="8.5,-89.7 8.5,-108.7 167.5,-108.7 167.5,-89.7 8.5,-89.7"/>
<text text-anchor="start" x="11.5" y="-95.8" font-family="Helvetica,sans-Serif" font-size="11.00" fill="#000000">...</text>
<polygon fill="#ffffff" stroke="transparent" points="8.5,-70.7 8.5,-89.7 61.5,-89.7 61.5,-70.7 8.5,-70.7"/>
<polygon fill="none" stroke="#000000" points="8.5,-70.7 8.5,-89.7 61.5,-89.7 61.5,-70.7 8.5,-70.7"/>
<text text-anchor="start" x="11.5" y="-76.8" font-family="Helvetica,sans-Serif" font-size="11.00" fill="#000000"> &#160;</text>
<polygon fill="#ffffff" stroke="transparent" points="61.5,-70.7 61.5,-89.7 125.5,-89.7 125.5,-70.7 61.5,-70.7"/>
<polygon fill="none" stroke="#000000" points="61.5,-70.7 61.5,-89.7 125.5,-89.7 125.5,-70.7 61.5,-70.7"/>
<text text-anchor="start" x="83.9956" y="-76.8" font-family="Helvetica,sans-Serif" font-size="11.00" fill="#000000">18 rows</text>
<polygon fill="#ffffff" stroke="transparent" points="125.5,-70.7 125.5,-89.7 167.5,-89.7 167.5,-70.7 125.5,-70.7"/>
<polygon fill="none" stroke="#000000" points="125.5,-70.7 125.5,-89.7 167.5,-89.7 167.5,-70.7 125.5,-70.7"/>
<text text-anchor="start" x="148.9053" y="-76.8" font-family="Helvetica,sans-Serif" font-size="11.00" fill="#000000">2 &gt;</text>
</a>
</g>
</g>
<!-- ilmoitus_lisätiedot&#45;&gt;ilmoitus -->
<g id="edge1" class="edge">
<title>ilmoitus_lisätiedot:w&#45;&gt;ilmoitus:e</title>
<path fill="none" stroke="#000000" d="M213.0836,-172.6111C191.174,-162.5647 198.2972,-119.7 167.5,-119.7"/>
<polygon fill="#000000" stroke="#000000" points="223.5021,-170.6208 221.9291,-178.4646 220.3603,-178.15 221.9334,-170.3062 223.5021,-170.6208"/>
<polyline fill="none" stroke="#000000" points="223.5,-174.7 219.5781,-173.9135 "/>
<ellipse fill="none" stroke="#000000" cx="216.4406" cy="-173.2842" rx="3.2" ry="3.2"/>
</g>
<!-- ilmoitus_opiskeluoikeus_konteksti -->
<g id="node3" class="node">
<title>ilmoitus_opiskeluoikeus_konteksti</title>
<g id="a_node3"><a xlink:href="../../tables/ilmoitus_opiskeluoikeus_konteksti.html" xlink:title="ilmoitus_opiskeluoikeus_konteksti" target="_top">
<polygon fill="#ffffff" stroke="transparent" points="216,-38.2 216,-99.2 461,-99.2 461,-38.2 216,-38.2"/>
<polygon fill="#f5f5f5" stroke="transparent" points="216.5,-75.7 216.5,-98.7 461.5,-98.7 461.5,-75.7 216.5,-75.7"/>
<polygon fill="none" stroke="#000000" points="216.5,-75.7 216.5,-98.7 461.5,-98.7 461.5,-75.7 216.5,-75.7"/>
<text text-anchor="start" x="221.5" y="-84.3" font-family="Helvetica,sans-Serif" font-weight="bold" font-size="11.00" fill="#000000">ilmoitus_opiskeluoikeus_konteksti</text>
<text text-anchor="start" x="427.0219" y="-83.8" font-family="Helvetica,sans-Serif" font-size="11.00" fill="#000000">[table]</text>
<polygon fill="none" stroke="#000000" points="216.5,-56.7 216.5,-75.7 461.5,-75.7 461.5,-56.7 216.5,-56.7"/>
<text text-anchor="start" x="219.5" y="-62.8" font-family="Helvetica,sans-Serif" font-size="11.00" fill="#000000">...</text>
<polygon fill="#ffffff" stroke="transparent" points="216.5,-37.7 216.5,-56.7 324.5,-56.7 324.5,-37.7 216.5,-37.7"/>
<polygon fill="none" stroke="#000000" points="216.5,-37.7 216.5,-56.7 324.5,-56.7 324.5,-37.7 216.5,-37.7"/>
<text text-anchor="start" x="219.5" y="-43.8" font-family="Helvetica,sans-Serif" font-size="11.00" fill="#000000">&lt; 1</text>
<polygon fill="#ffffff" stroke="transparent" points="324.5,-37.7 324.5,-56.7 405.5,-56.7 405.5,-37.7 324.5,-37.7"/>
<polygon fill="none" stroke="#000000" points="324.5,-37.7 324.5,-56.7 405.5,-56.7 405.5,-37.7 324.5,-37.7"/>
<text text-anchor="start" x="370.1105" y="-43.8" font-family="Helvetica,sans-Serif" font-size="11.00" fill="#000000">0 rows</text>
<polygon fill="#ffffff" stroke="transparent" points="405.5,-37.7 405.5,-56.7 461.5,-56.7 461.5,-37.7 405.5,-37.7"/>
<polygon fill="none" stroke="#000000" points="405.5,-37.7 405.5,-56.7 461.5,-56.7 461.5,-37.7 405.5,-37.7"/>
<text text-anchor="start" x="452.3862" y="-43.8" font-family="Helvetica,sans-Serif" font-size="11.00" fill="#000000"> &#160;</text>
</a>
</g>
</g>
<!-- ilmoitus_opiskeluoikeus_konteksti&#45;&gt;ilmoitus -->
<g id="edge2" class="edge">
<title>ilmoitus_opiskeluoikeus_konteksti:w&#45;&gt;ilmoitus:e</title>
<path fill="none" stroke="#000000" d="M202.7209,-70.6834C188.3277,-84.0516 193.8314,-119.7 167.5,-119.7"/>
<polygon fill="#000000" stroke="#000000" points="208.9769,-68.4209 217.7244,-69.0854 212.7384,-67.0604 216.5,-65.7 216.5,-65.7 216.5,-65.7 212.7384,-67.0604 215.2756,-62.3146 208.9769,-68.4209 208.9769,-68.4209"/>
<ellipse fill="none" stroke="#000000" cx="205.9677" cy="-69.5092" rx="3.2" ry="3.2"/>
</g>
</g>
</svg>
