<?xml version="1.0" encoding="UTF-8" standalone="no"?>
<!DOCTYPE svg PUBLIC "-//W3C//DTD SVG 1.1//EN"
 "http://www.w3.org/Graphics/SVG/1.1/DTD/svg11.dtd">
<!-- Generated by graphviz version 2.40.1 (20161225.0304)
 -->
<!-- Title: twoDegreesRelationshipsDiagram Pages: 1 -->
<svg width="520pt" height="223pt"
 viewBox="0.00 0.00 520.00 222.70" xmlns="http://www.w3.org/2000/svg" xmlns:xlink="http://www.w3.org/1999/xlink">
<g id="graph0" class="graph" transform="scale(1 1) rotate(0) translate(4 218.7)">
<title>twoDegreesRelationshipsDiagram</title>
<polygon fill="#ffffff" stroke="transparent" points="-4,4 -4,-218.7 516,-218.7 516,4 -4,4"/>
<text text-anchor="middle" x="72.4936" y="-7.3" font-family="Helvetica,sans-Serif" font-size="11.00" fill="#000000">Generated by SchemaSpy</text>
<!-- ilmoitus_lisätiedot -->
<g id="node1" class="node">
<title>ilmoitus_lisätiedot</title>
<g id="a_node1"><a xlink:href="../../tables/ilmoitus_lis_tiedot_cc362998.html" xlink:title="ilmoitus_lisätiedot" target="_top">
<polygon fill="#ffffff" stroke="transparent" points="245,-120.7 245,-210.7 493,-210.7 493,-120.7 245,-120.7"/>
<polygon fill="#f5f5f5" stroke="transparent" points="247,-185.7 247,-208.7 491,-208.7 491,-185.7 247,-185.7"/>
<polygon fill="none" stroke="#000000" points="247,-185.7 247,-208.7 491,-208.7 491,-185.7 247,-185.7"/>
<text text-anchor="start" x="252" y="-194.3" font-family="Helvetica,sans-Serif" font-weight="bold" font-size="11.00" fill="#000000">ilmoitus_lisätiedot</text>
<text text-anchor="start" x="456.0437" y="-193.8" font-family="Helvetica,sans-Serif" font-size="11.00" fill="#000000">[table]</text>
<polygon fill="none" stroke="#000000" points="247,-163.7 247,-185.7 392,-185.7 392,-163.7 247,-163.7"/>
<image xlink:href="../../images/primaryKeys.png" width="11px" height="12px" preserveAspectRatio="xMinYMin meet" x="252" y="-180.7"/>
<text text-anchor="start" x="267" y="-170.8" font-family="Helvetica,sans-Serif" font-size="11.00" fill="#000000">ilmoitus_uuid</text>
<polygon fill="none" stroke="#000000" points="392,-163.7 392,-185.7 491,-185.7 491,-163.7 392,-163.7"/>
<text text-anchor="start" x="395" y="-171.4" font-family="Helvetica,sans-Serif" font-size="11.00" fill="#000000">uuid[2147483647]</text>
<polygon fill="none" stroke="#000000" points="247,-141.7 247,-163.7 392,-163.7 392,-141.7 247,-141.7"/>
<text text-anchor="start" x="267" y="-148.8" font-family="Helvetica,sans-Serif" font-size="11.00" fill="#000000">data</text>
<polygon fill="none" stroke="#000000" points="392,-141.7 392,-163.7 491,-163.7 491,-141.7 392,-141.7"/>
<text text-anchor="start" x="394.7258" y="-149.4" font-family="Helvetica,sans-Serif" font-size="11.00" fill="#000000">jsonb[2147483647]</text>
<polygon fill="#ffffff" stroke="transparent" points="247,-122.7 247,-141.7 324,-141.7 324,-122.7 247,-122.7"/>
<polygon fill="none" stroke="#000000" points="247,-122.7 247,-141.7 324,-141.7 324,-122.7 247,-122.7"/>
<text text-anchor="start" x="250" y="-128.8" font-family="Helvetica,sans-Serif" font-size="11.00" fill="#000000">&lt; 1</text>
<polygon fill="#ffffff" stroke="transparent" points="324,-122.7 324,-141.7 392,-141.7 392,-122.7 324,-122.7"/>
<polygon fill="none" stroke="#000000" points="324,-122.7 324,-141.7 392,-141.7 392,-122.7 324,-122.7"/>
<text text-anchor="start" x="382.8862" y="-128.8" font-family="Helvetica,sans-Serif" font-size="11.00" fill="#000000"> &#160;</text>
<polygon fill="#ffffff" stroke="transparent" points="392,-122.7 392,-141.7 491,-141.7 491,-122.7 392,-122.7"/>
<polygon fill="none" stroke="#000000" points="392,-122.7 392,-141.7 491,-141.7 491,-122.7 392,-122.7"/>
<text text-anchor="start" x="472.4053" y="-128.8" font-family="Helvetica,sans-Serif" font-size="11.00" fill="#000000">0 &gt;</text>
<polygon fill="none" stroke="#000000" stroke-width="2" points="246,-121.7 246,-209.7 492,-209.7 492,-121.7 246,-121.7"/>
</a>
</g>
</g>
<!-- ilmoitus -->
<g id="node2" class="node">
<title>ilmoitus</title>
<g id="a_node2"><a xlink:href="../../tables/ilmoitus.html" xlink:title="ilmoitus" target="_top">
<polygon fill="#ffffff" stroke="transparent" points="8,-71.2 8,-154.2 185,-154.2 185,-71.2 8,-71.2"/>
<polygon fill="#f5f5f5" stroke="transparent" points="8.5,-130.7 8.5,-153.7 185.5,-153.7 185.5,-130.7 8.5,-130.7"/>
<polygon fill="none" stroke="#000000" points="8.5,-130.7 8.5,-153.7 185.5,-153.7 185.5,-130.7 8.5,-130.7"/>
<text text-anchor="start" x="13.5" y="-139.3" font-family="Helvetica,sans-Serif" font-weight="bold" font-size="11.00" fill="#000000">ilmoitus</text>
<text text-anchor="start" x="150.5437" y="-138.8" font-family="Helvetica,sans-Serif" font-size="11.00" fill="#000000">[table]</text>
<polygon fill="none" stroke="#000000" points="8.5,-108.7 8.5,-130.7 185.5,-130.7 185.5,-108.7 8.5,-108.7"/>
<image xlink:href="../../images/primaryKeys.png" width="11px" height="12px" preserveAspectRatio="xMinYMin meet" x="13.5" y="-125.7"/>
<text text-anchor="start" x="28.5" y="-115.8" font-family="Helvetica,sans-Serif" font-size="11.00" fill="#000000">uuid</text>
<polygon fill="none" stroke="#000000" points="8.5,-89.7 8.5,-108.7 185.5,-108.7 185.5,-89.7 8.5,-89.7"/>
<text text-anchor="start" x="11.5" y="-95.8" font-family="Helvetica,sans-Serif" font-size="11.00" fill="#000000">...</text>
<polygon fill="#ffffff" stroke="transparent" points="8.5,-70.7 8.5,-89.7 86.5,-89.7 86.5,-70.7 8.5,-70.7"/>
<polygon fill="none" stroke="#000000" points="8.5,-70.7 8.5,-89.7 86.5,-89.7 86.5,-70.7 8.5,-70.7"/>
<text text-anchor="start" x="11.5" y="-76.8" font-family="Helvetica,sans-Serif" font-size="11.00" fill="#000000"> &#160;</text>
<polygon fill="#ffffff" stroke="transparent" points="86.5,-70.7 86.5,-89.7 131.5,-89.7 131.5,-70.7 86.5,-70.7"/>
<polygon fill="none" stroke="#000000" points="86.5,-70.7 86.5,-89.7 131.5,-89.7 131.5,-70.7 86.5,-70.7"/>
<text text-anchor="start" x="122.3862" y="-76.8" font-family="Helvetica,sans-Serif" font-size="11.00" fill="#000000"> &#160;</text>
<polygon fill="#ffffff" stroke="transparent" points="131.5,-70.7 131.5,-89.7 185.5,-89.7 185.5,-70.7 131.5,-70.7"/>
<polygon fill="none" stroke="#000000" points="131.5,-70.7 131.5,-89.7 185.5,-89.7 185.5,-70.7 131.5,-70.7"/>
<text text-anchor="start" x="166.9053" y="-76.8" font-family="Helvetica,sans-Serif" font-size="11.00" fill="#000000">2 &gt;</text>
</a>
</g>
</g>
<!-- ilmoitus_lisätiedot&#45;&gt;ilmoitus -->
<g id="edge1" class="edge">
<title>ilmoitus_lisätiedot:w&#45;&gt;ilmoitus:e</title>
<path fill="none" stroke="#000000" d="M236.5818,-172.8701C212.3401,-163.3267 218.1586,-119.7 185.5,-119.7"/>
<polygon fill="#000000" stroke="#000000" points="246.9041,-170.6219 245.52,-178.5013 243.9442,-178.2245 245.3282,-170.3451 246.9041,-170.6219"/>
<polyline fill="none" stroke="#000000" points="247,-174.7 243.0603,-174.008 "/>
<ellipse fill="none" stroke="#000000" cx="239.9086" cy="-173.4543" rx="3.2" ry="3.2"/>
</g>
<!-- ilmoitus_opiskeluoikeus_konteksti -->
<g id="node3" class="node">
<title>ilmoitus_opiskeluoikeus_konteksti</title>
<g id="a_node3"><a xlink:href="../../tables/ilmoitus_opiskeluoikeus_konteksti.html" xlink:title="ilmoitus_opiskeluoikeus_konteksti" target="_top">
<polygon fill="#ffffff" stroke="transparent" points="234,-38.2 234,-99.2 504,-99.2 504,-38.2 234,-38.2"/>
<polygon fill="#f5f5f5" stroke="transparent" points="234,-75.7 234,-98.7 504,-98.7 504,-75.7 234,-75.7"/>
<polygon fill="none" stroke="#000000" points="234,-75.7 234,-98.7 504,-98.7 504,-75.7 234,-75.7"/>
<text text-anchor="start" x="239" y="-84.3" font-family="Helvetica,sans-Serif" font-weight="bold" font-size="11.00" fill="#000000">ilmoitus_opiskeluoikeus_konteksti</text>
<text text-anchor="start" x="469.5219" y="-83.8" font-family="Helvetica,sans-Serif" font-size="11.00" fill="#000000">[table]</text>
<polygon fill="none" stroke="#000000" points="234,-56.7 234,-75.7 504,-75.7 504,-56.7 234,-56.7"/>
<text text-anchor="start" x="237" y="-62.8" font-family="Helvetica,sans-Serif" font-size="11.00" fill="#000000">...</text>
<polygon fill="#ffffff" stroke="transparent" points="234,-37.7 234,-56.7 367,-56.7 367,-37.7 234,-37.7"/>
<polygon fill="none" stroke="#000000" points="234,-37.7 234,-56.7 367,-56.7 367,-37.7 234,-37.7"/>
<text text-anchor="start" x="237" y="-43.8" font-family="Helvetica,sans-Serif" font-size="11.00" fill="#000000">&lt; 1</text>
<polygon fill="#ffffff" stroke="transparent" points="367,-37.7 367,-56.7 435,-56.7 435,-37.7 367,-37.7"/>
<polygon fill="none" stroke="#000000" points="367,-37.7 367,-56.7 435,-56.7 435,-37.7 367,-37.7"/>
<text text-anchor="start" x="425.8862" y="-43.8" font-family="Helvetica,sans-Serif" font-size="11.00" fill="#000000"> &#160;</text>
<polygon fill="#ffffff" stroke="transparent" points="435,-37.7 435,-56.7 504,-56.7 504,-37.7 435,-37.7"/>
<polygon fill="none" stroke="#000000" points="435,-37.7 435,-56.7 504,-56.7 504,-37.7 435,-37.7"/>
<text text-anchor="start" x="494.8862" y="-43.8" font-family="Helvetica,sans-Serif" font-size="11.00" fill="#000000"> &#160;</text>
</a>
</g>
</g>
<!-- ilmoitus_opiskeluoikeus_konteksti&#45;&gt;ilmoitus -->
<g id="edge2" class="edge">
<title>ilmoitus_opiskeluoikeus_konteksti:w&#45;&gt;ilmoitus:e</title>
<path fill="none" stroke="#000000" d="M220.3096,-70.6834C206.0505,-84.0516 211.7104,-119.7 185.5,-119.7"/>
<polygon fill="#000000" stroke="#000000" points="226.4825,-68.4364 235.2314,-69.0829 230.2413,-67.0682 234,-65.7 234,-65.7 234,-65.7 230.2413,-67.0682 232.7686,-62.3171 226.4825,-68.4364 226.4825,-68.4364"/>
<ellipse fill="none" stroke="#000000" cx="223.4756" cy="-69.531" rx="3.2" ry="3.2"/>
</g>
</g>
</svg>
