<?xml version="1.0" encoding="UTF-8" standalone="no"?>
<!DOCTYPE svg PUBLIC "-//W3C//DTD SVG 1.1//EN"
 "http://www.w3.org/Graphics/SVG/1.1/DTD/svg11.dtd">
<!-- Generated by graphviz version 2.40.1 (20161225.0304)
 -->
<!-- Title: oneDegreeRelationshipsDiagram Pages: 1 -->
<svg width="575pt" height="301pt"
 viewBox="0.00 0.00 575.00 300.70" xmlns="http://www.w3.org/2000/svg" xmlns:xlink="http://www.w3.org/1999/xlink">
<g id="graph0" class="graph" transform="scale(1 1) rotate(0) translate(4 296.7)">
<title>oneDegreeRelationshipsDiagram</title>
<polygon fill="#ffffff" stroke="transparent" points="-4,4 -4,-296.7 571,-296.7 571,4 -4,4"/>
<text text-anchor="middle" x="72.4936" y="-7.3" font-family="Helvetica,sans-Serif" font-size="11.00" fill="#000000">Generated by SchemaSpy</text>
<!-- ilmoitus_lisätiedot -->
<g id="node1" class="node">
<title>ilmoitus_lisätiedot</title>
<g id="a_node1"><a xlink:href="../../tables/ilmoitus_lis_tiedot_cc362998.html" xlink:title="ilmoitus_lisätiedot" target="_top">
<polygon fill="#ffffff" stroke="transparent" points="362,-205.7 362,-288.7 511,-288.7 511,-205.7 362,-205.7"/>
<polygon fill="#f5f5f5" stroke="transparent" points="362.5,-265.2 362.5,-288.2 511.5,-288.2 511.5,-265.2 362.5,-265.2"/>
<polygon fill="none" stroke="#000000" points="362.5,-265.2 362.5,-288.2 511.5,-288.2 511.5,-265.2 362.5,-265.2"/>
<text text-anchor="start" x="367.5" y="-273.8" font-family="Helvetica,sans-Serif" font-weight="bold" font-size="11.00" fill="#000000">ilmoitus_lisätiedot</text>
<text text-anchor="start" x="477.0219" y="-273.3" font-family="Helvetica,sans-Serif" font-size="11.00" fill="#000000">[table]</text>
<polygon fill="none" stroke="#000000" points="362.5,-243.2 362.5,-265.2 511.5,-265.2 511.5,-243.2 362.5,-243.2"/>
<image xlink:href="../../images/primaryKeys.png" width="11px" height="12px" preserveAspectRatio="xMinYMin meet" x="367.5" y="-260.2"/>
<text text-anchor="start" x="391.5" y="-250.3" font-family="Helvetica,sans-Serif" font-size="11.00" fill="#000000">ilmoitus_uuid</text>
<polygon fill="none" stroke="#000000" points="362.5,-224.2 362.5,-243.2 511.5,-243.2 511.5,-224.2 362.5,-224.2"/>
<text text-anchor="start" x="365.5" y="-230.3" font-family="Helvetica,sans-Serif" font-size="11.00" fill="#000000">...</text>
<polygon fill="#ffffff" stroke="transparent" points="362.5,-205.2 362.5,-224.2 419.5,-224.2 419.5,-205.2 362.5,-205.2"/>
<polygon fill="none" stroke="#000000" points="362.5,-205.2 362.5,-224.2 419.5,-224.2 419.5,-205.2 362.5,-205.2"/>
<text text-anchor="start" x="365.5" y="-211.3" font-family="Helvetica,sans-Serif" font-size="11.00" fill="#000000">&lt; 1</text>
<polygon fill="#ffffff" stroke="transparent" points="419.5,-205.2 419.5,-224.2 481.5,-224.2 481.5,-205.2 419.5,-205.2"/>
<polygon fill="none" stroke="#000000" points="419.5,-205.2 419.5,-224.2 481.5,-224.2 481.5,-205.2 419.5,-205.2"/>
<text text-anchor="start" x="439.9956" y="-211.3" font-family="Helvetica,sans-Serif" font-size="11.00" fill="#000000">17 rows</text>
<polygon fill="#ffffff" stroke="transparent" points="481.5,-205.2 481.5,-224.2 511.5,-224.2 511.5,-205.2 481.5,-205.2"/>
<polygon fill="none" stroke="#000000" points="481.5,-205.2 481.5,-224.2 511.5,-224.2 511.5,-205.2 481.5,-205.2"/>
<text text-anchor="start" x="502.3862" y="-211.3" font-family="Helvetica,sans-Serif" font-size="11.00" fill="#000000"> &#160;</text>
</a>
</g>
</g>
<!-- ilmoitus -->
<g id="node2" class="node">
<title>ilmoitus</title>
<g id="a_node2"><a xlink:href="../../tables/ilmoitus.html" xlink:title="ilmoitus" target="_top">
<polygon fill="#ffffff" stroke="transparent" points="8,-38.2 8,-238.2 265,-238.2 265,-38.2 8,-38.2"/>
<polygon fill="#f5f5f5" stroke="transparent" points="10.5,-213.2 10.5,-236.2 263.5,-236.2 263.5,-213.2 10.5,-213.2"/>
<polygon fill="none" stroke="#000000" points="10.5,-213.2 10.5,-236.2 263.5,-236.2 263.5,-213.2 10.5,-213.2"/>
<text text-anchor="start" x="15.5" y="-221.8" font-family="Helvetica,sans-Serif" font-weight="bold" font-size="11.00" fill="#000000">ilmoitus</text>
<text text-anchor="start" x="228.5437" y="-221.3" font-family="Helvetica,sans-Serif" font-size="11.00" fill="#000000">[table]</text>
<polygon fill="none" stroke="#000000" points="10.5,-191.2 10.5,-213.2 169.5,-213.2 169.5,-191.2 10.5,-191.2"/>
<image xlink:href="../../images/primaryKeys.png" width="11px" height="12px" preserveAspectRatio="xMinYMin meet" x="15.5" y="-208.2"/>
<text text-anchor="start" x="30.5" y="-198.3" font-family="Helvetica,sans-Serif" font-size="11.00" fill="#000000">uuid</text>
<polygon fill="none" stroke="#000000" points="169.5,-191.2 169.5,-213.2 263.5,-213.2 263.5,-191.2 169.5,-191.2"/>
<text text-anchor="start" x="172.4758" y="-198.9" font-family="Helvetica,sans-Serif" font-size="11.00" fill="#000000">uuid[2147483647]</text>
<polygon fill="none" stroke="#000000" points="10.5,-169.2 10.5,-191.2 169.5,-191.2 169.5,-169.2 10.5,-169.2"/>
<text text-anchor="start" x="30.5" y="-176.3" font-family="Helvetica,sans-Serif" font-size="11.00" fill="#000000">luotu</text>
<polygon fill="none" stroke="#000000" points="169.5,-169.2 169.5,-191.2 263.5,-191.2 263.5,-169.2 169.5,-169.2"/>
<text text-anchor="start" x="172.5" y="-176.9" font-family="Helvetica,sans-Serif" font-size="11.00" fill="#000000">timestamp[29,6]</text>
<polygon fill="none" stroke="#000000" points="10.5,-147.2 10.5,-169.2 169.5,-169.2 169.5,-147.2 10.5,-147.2"/>
<text text-anchor="start" x="30.5" y="-154.3" font-family="Helvetica,sans-Serif" font-size="11.00" fill="#000000">oppija_oid</text>
<polygon fill="none" stroke="#000000" points="169.5,-147.2 169.5,-169.2 263.5,-169.2 263.5,-147.2 169.5,-147.2"/>
<text text-anchor="start" x="172.5" y="-154.9" font-family="Helvetica,sans-Serif" font-size="11.00" fill="#000000">text[2147483647]</text>
<polygon fill="none" stroke="#000000" points="10.5,-125.2 10.5,-147.2 169.5,-147.2 169.5,-125.2 10.5,-125.2"/>
<text text-anchor="start" x="30.5" y="-132.3" font-family="Helvetica,sans-Serif" font-size="11.00" fill="#000000">kunta_oid</text>
<polygon fill="none" stroke="#000000" points="169.5,-125.2 169.5,-147.2 263.5,-147.2 263.5,-125.2 169.5,-125.2"/>
<text text-anchor="start" x="172.5" y="-132.9" font-family="Helvetica,sans-Serif" font-size="11.00" fill="#000000">text[2147483647]</text>
<polygon fill="none" stroke="#000000" points="10.5,-103.2 10.5,-125.2 169.5,-125.2 169.5,-103.2 10.5,-103.2"/>
<text text-anchor="start" x="30.5" y="-110.3" font-family="Helvetica,sans-Serif" font-size="11.00" fill="#000000">tekijä_organisaatio_oid</text>
<polygon fill="none" stroke="#000000" points="169.5,-103.2 169.5,-125.2 263.5,-125.2 263.5,-103.2 169.5,-103.2"/>
<text text-anchor="start" x="172.5" y="-110.9" font-family="Helvetica,sans-Serif" font-size="11.00" fill="#000000">text[2147483647]</text>
<polygon fill="none" stroke="#000000" points="10.5,-81.2 10.5,-103.2 169.5,-103.2 169.5,-81.2 10.5,-81.2"/>
<text text-anchor="start" x="30.5" y="-88.3" font-family="Helvetica,sans-Serif" font-size="11.00" fill="#000000">tekijä_oid</text>
<polygon fill="none" stroke="#000000" points="169.5,-81.2 169.5,-103.2 263.5,-103.2 263.5,-81.2 169.5,-81.2"/>
<text text-anchor="start" x="172.5" y="-88.9" font-family="Helvetica,sans-Serif" font-size="11.00" fill="#000000">text[2147483647]</text>
<polygon fill="none" stroke="#000000" points="10.5,-59.2 10.5,-81.2 169.5,-81.2 169.5,-59.2 10.5,-59.2"/>
<text text-anchor="start" x="30.5" y="-66.3" font-family="Helvetica,sans-Serif" font-size="11.00" fill="#000000">mitätöity</text>
<polygon fill="none" stroke="#000000" points="169.5,-59.2 169.5,-81.2 263.5,-81.2 263.5,-59.2 169.5,-59.2"/>
<text text-anchor="start" x="172.5" y="-66.9" font-family="Helvetica,sans-Serif" font-size="11.00" fill="#000000">timestamp[29,6]</text>
<polygon fill="#ffffff" stroke="transparent" points="10.5,-40.2 10.5,-59.2 78.5,-59.2 78.5,-40.2 10.5,-40.2"/>
<polygon fill="none" stroke="#000000" points="10.5,-40.2 10.5,-59.2 78.5,-59.2 78.5,-40.2 10.5,-40.2"/>
<text text-anchor="start" x="13.5" y="-46.3" font-family="Helvetica,sans-Serif" font-size="11.00" fill="#000000">&lt; 0</text>
<polygon fill="#ffffff" stroke="transparent" points="78.5,-40.2 78.5,-59.2 169.5,-59.2 169.5,-40.2 78.5,-40.2"/>
<polygon fill="none" stroke="#000000" points="78.5,-40.2 78.5,-59.2 169.5,-59.2 169.5,-40.2 78.5,-40.2"/>
<text text-anchor="start" x="127.9956" y="-46.3" font-family="Helvetica,sans-Serif" font-size="11.00" fill="#000000">18 rows</text>
<polygon fill="#ffffff" stroke="transparent" points="169.5,-40.2 169.5,-59.2 263.5,-59.2 263.5,-40.2 169.5,-40.2"/>
<polygon fill="none" stroke="#000000" points="169.5,-40.2 169.5,-59.2 263.5,-59.2 263.5,-40.2 169.5,-40.2"/>
<text text-anchor="start" x="244.9053" y="-46.3" font-family="Helvetica,sans-Serif" font-size="11.00" fill="#000000">2 &gt;</text>
<polygon fill="none" stroke="#000000" stroke-width="2" points="9,-39.2 9,-237.2 264,-237.2 264,-39.2 9,-39.2"/>
</a>
</g>
</g>
<!-- ilmoitus_lisätiedot&#45;&gt;ilmoitus -->
<g id="edge1" class="edge">
<title>ilmoitus_lisätiedot:w&#45;&gt;ilmoitus:e</title>
<path fill="none" stroke="#000000" d="M351.9705,-253.3408C312.57,-246.5798 309.4146,-202.2 263.5,-202.2"/>
<polygon fill="#000000" stroke="#000000" points="362.028,-250.1482 361.3773,-258.1217 359.7826,-257.9915 360.4333,-250.018 362.028,-250.1482"/>
<polyline fill="none" stroke="#000000" points="362.5,-254.2 358.5132,-253.8747 "/>
<ellipse fill="none" stroke="#000000" cx="355.3238" cy="-253.6144" rx="3.2" ry="3.2"/>
</g>
<!-- ilmoitus_opiskeluoikeus_konteksti -->
<g id="node3" class="node">
<title>ilmoitus_opiskeluoikeus_konteksti</title>
<g id="a_node3"><a xlink:href="../../tables/ilmoitus_opiskeluoikeus_konteksti.html" xlink:title="ilmoitus_opiskeluoikeus_konteksti" target="_top">
<polygon fill="#ffffff" stroke="transparent" points="314,-98.2 314,-184.2 559,-184.2 559,-98.2 314,-98.2"/>
<polygon fill="#f5f5f5" stroke="transparent" points="314.5,-161.2 314.5,-184.2 559.5,-184.2 559.5,-161.2 314.5,-161.2"/>
<polygon fill="none" stroke="#000000" points="314.5,-161.2 314.5,-184.2 559.5,-184.2 559.5,-161.2 314.5,-161.2"/>
<text text-anchor="start" x="319.5" y="-169.8" font-family="Helvetica,sans-Serif" font-weight="bold" font-size="11.00" fill="#000000">ilmoitus_opiskeluoikeus_konteksti</text>
<text text-anchor="start" x="525.0219" y="-169.3" font-family="Helvetica,sans-Serif" font-size="11.00" fill="#000000">[table]</text>
<polygon fill="none" stroke="#000000" points="314.5,-139.2 314.5,-161.2 559.5,-161.2 559.5,-139.2 314.5,-139.2"/>
<image xlink:href="../../images/primaryKeys.png" width="11px" height="12px" preserveAspectRatio="xMinYMin meet" x="319.5" y="-156.2"/>
<text text-anchor="start" x="343.5" y="-146.3" font-family="Helvetica,sans-Serif" font-size="11.00" fill="#000000">ilmoitus_uuid</text>
<polygon fill="none" stroke="#000000" points="314.5,-117.2 314.5,-139.2 559.5,-139.2 559.5,-117.2 314.5,-117.2"/>
<image xlink:href="../../images/primaryKeys.png" width="11px" height="12px" preserveAspectRatio="xMinYMin meet" x="319.5" y="-134.2"/>
<text text-anchor="start" x="343.5" y="-124.3" font-family="Helvetica,sans-Serif" font-size="11.00" fill="#000000">opiskeluoikeus_oid</text>
<polygon fill="#ffffff" stroke="transparent" points="314.5,-98.2 314.5,-117.2 422.5,-117.2 422.5,-98.2 314.5,-98.2"/>
<polygon fill="none" stroke="#000000" points="314.5,-98.2 314.5,-117.2 422.5,-117.2 422.5,-98.2 314.5,-98.2"/>
<text text-anchor="start" x="317.5" y="-104.3" font-family="Helvetica,sans-Serif" font-size="11.00" fill="#000000">&lt; 1</text>
<polygon fill="#ffffff" stroke="transparent" points="422.5,-98.2 422.5,-117.2 503.5,-117.2 503.5,-98.2 422.5,-98.2"/>
<polygon fill="none" stroke="#000000" points="422.5,-98.2 422.5,-117.2 503.5,-117.2 503.5,-98.2 422.5,-98.2"/>
<text text-anchor="start" x="468.1105" y="-104.3" font-family="Helvetica,sans-Serif" font-size="11.00" fill="#000000">0 rows</text>
<polygon fill="#ffffff" stroke="transparent" points="503.5,-98.2 503.5,-117.2 559.5,-117.2 559.5,-98.2 503.5,-98.2"/>
<polygon fill="none" stroke="#000000" points="503.5,-98.2 503.5,-117.2 559.5,-117.2 559.5,-98.2 503.5,-98.2"/>
<text text-anchor="start" x="550.3862" y="-104.3" font-family="Helvetica,sans-Serif" font-size="11.00" fill="#000000"> &#160;</text>
</a>
</g>
</g>
<!-- ilmoitus_opiskeluoikeus_konteksti&#45;&gt;ilmoitus -->
<g id="edge2" class="edge">
<title>ilmoitus_opiskeluoikeus_konteksti:w&#45;&gt;ilmoitus:e</title>
<path fill="none" stroke="#000000" d="M300.5468,-154.9988C285.661,-167.8719 289.8017,-202.2 263.5,-202.2"/>
<polygon fill="#000000" stroke="#000000" points="306.9349,-152.8018 315.6708,-153.6043 310.7175,-151.5009 314.5,-150.2 314.5,-150.2 314.5,-150.2 310.7175,-151.5009 313.3292,-146.7957 306.9349,-152.8018 306.9349,-152.8018"/>
<ellipse fill="none" stroke="#000000" cx="303.9089" cy="-153.8426" rx="3.2" ry="3.2"/>
</g>
</g>
</svg>
