<?xml version="1.0" encoding="UTF-8" standalone="no"?>
<!DOCTYPE svg PUBLIC "-//W3C//DTD SVG 1.1//EN"
 "http://www.w3.org/Graphics/SVG/1.1/DTD/svg11.dtd">
<!-- Generated by graphviz version 2.40.1 (20161225.0304)
 -->
<!-- Title: oneDegreeRelationshipsDiagram Pages: 1 -->
<svg width="634pt" height="338pt"
 viewBox="0.00 0.00 634.00 338.20" xmlns="http://www.w3.org/2000/svg" xmlns:xlink="http://www.w3.org/1999/xlink">
<g id="graph0" class="graph" transform="scale(1 1) rotate(0) translate(4 334.2)">
<title>oneDegreeRelationshipsDiagram</title>
<polygon fill="#ffffff" stroke="transparent" points="-4,4 -4,-334.2 630,-334.2 630,4 -4,4"/>
<text text-anchor="middle" x="72.4936" y="-7.3" font-family="Helvetica,sans-Serif" font-size="11.00" fill="#000000">Generated by SchemaSpy</text>
<!-- oppivelvollisuuden_keskeytyshistoria -->
<g id="node1" class="node">
<title>oppivelvollisuuden_keskeytyshistoria</title>
<g id="a_node1"><a xlink:href="../../tables/oppivelvollisuuden_keskeytyshistoria.html" xlink:title="oppivelvollisuuden_keskeytyshistoria" target="_top">
<polygon fill="#ffffff" stroke="transparent" points="268,-38.2 268,-326.2 618,-326.2 618,-38.2 268,-38.2"/>
<polygon fill="#f5f5f5" stroke="transparent" points="270,-301.2 270,-324.2 616,-324.2 616,-301.2 270,-301.2"/>
<polygon fill="none" stroke="#000000" points="270,-301.2 270,-324.2 616,-324.2 616,-301.2 270,-301.2"/>
<text text-anchor="start" x="275" y="-309.8" font-family="Helvetica,sans-Serif" font-weight="bold" font-size="11.00" fill="#000000">oppivelvollisuuden_keskeytyshistoria</text>
<text text-anchor="start" x="581.0437" y="-309.3" font-family="Helvetica,sans-Serif" font-size="11.00" fill="#000000">[table]</text>
<polygon fill="none" stroke="#000000" points="270,-279.2 270,-301.2 507,-301.2 507,-279.2 270,-279.2"/>
<image xlink:href="../../images/primaryKeys.png" width="11px" height="12px" preserveAspectRatio="xMinYMin meet" x="275" y="-296.2"/>
<text text-anchor="start" x="290" y="-286.3" font-family="Helvetica,sans-Serif" font-size="11.00" fill="#000000">id</text>
<polygon fill="none" stroke="#000000" points="507,-279.2 507,-301.2 616,-301.2 616,-279.2 507,-279.2"/>
<text text-anchor="start" x="510" y="-286.9" font-family="Helvetica,sans-Serif" font-size="11.00" fill="#000000">serial[10]</text>
<polygon fill="none" stroke="#000000" points="270,-257.2 270,-279.2 507,-279.2 507,-257.2 270,-257.2"/>
<image xlink:href="../../images/foreignKeys.png" width="11px" height="12px" preserveAspectRatio="xMinYMin meet" x="275" y="-274.2"/>
<text text-anchor="start" x="290" y="-264.3" font-family="Helvetica,sans-Serif" font-size="11.00" fill="#000000">ov_keskeytys_uuid</text>
<polygon fill="none" stroke="#000000" points="507,-257.2 507,-279.2 616,-279.2 616,-257.2 507,-257.2"/>
<text text-anchor="start" x="510" y="-264.9" font-family="Helvetica,sans-Serif" font-size="11.00" fill="#000000">uuid[2147483647]</text>
<polygon fill="none" stroke="#000000" points="270,-235.2 270,-257.2 507,-257.2 507,-235.2 270,-235.2"/>
<text text-anchor="start" x="290" y="-242.3" font-family="Helvetica,sans-Serif" font-size="11.00" fill="#000000">muutos_tehty</text>
<polygon fill="none" stroke="#000000" points="507,-235.2 507,-257.2 616,-257.2 616,-235.2 507,-235.2"/>
<text text-anchor="start" x="510" y="-242.9" font-family="Helvetica,sans-Serif" font-size="11.00" fill="#000000">timestamp[29,6]</text>
<polygon fill="none" stroke="#000000" points="270,-213.2 270,-235.2 507,-235.2 507,-213.2 270,-213.2"/>
<text text-anchor="start" x="290" y="-220.3" font-family="Helvetica,sans-Serif" font-size="11.00" fill="#000000">muutoksen_tekija</text>
<polygon fill="none" stroke="#000000" points="507,-213.2 507,-235.2 616,-235.2 616,-213.2 507,-213.2"/>
<text text-anchor="start" x="510" y="-220.9" font-family="Helvetica,sans-Serif" font-size="11.00" fill="#000000">text[2147483647]</text>
<polygon fill="none" stroke="#000000" points="270,-191.2 270,-213.2 507,-213.2 507,-191.2 270,-191.2"/>
<text text-anchor="start" x="290" y="-198.3" font-family="Helvetica,sans-Serif" font-size="11.00" fill="#000000">oppija_oid</text>
<polygon fill="none" stroke="#000000" points="507,-191.2 507,-213.2 616,-213.2 616,-191.2 507,-191.2"/>
<text text-anchor="start" x="509.5344" y="-198.9" font-family="Helvetica,sans-Serif" font-size="11.00" fill="#000000">varchar[2147483647]</text>
<polygon fill="none" stroke="#000000" points="270,-169.2 270,-191.2 507,-191.2 507,-169.2 270,-169.2"/>
<text text-anchor="start" x="290" y="-176.3" font-family="Helvetica,sans-Serif" font-size="11.00" fill="#000000">alku</text>
<polygon fill="none" stroke="#000000" points="507,-169.2 507,-191.2 616,-191.2 616,-169.2 507,-169.2"/>
<text text-anchor="start" x="510" y="-176.9" font-family="Helvetica,sans-Serif" font-size="11.00" fill="#000000">date[13]</text>
<polygon fill="none" stroke="#000000" points="270,-147.2 270,-169.2 507,-169.2 507,-147.2 270,-147.2"/>
<text text-anchor="start" x="290" y="-154.3" font-family="Helvetica,sans-Serif" font-size="11.00" fill="#000000">loppu</text>
<polygon fill="none" stroke="#000000" points="507,-147.2 507,-169.2 616,-169.2 616,-147.2 507,-147.2"/>
<text text-anchor="start" x="510" y="-154.9" font-family="Helvetica,sans-Serif" font-size="11.00" fill="#000000">date[13]</text>
<polygon fill="none" stroke="#000000" points="270,-125.2 270,-147.2 507,-147.2 507,-125.2 270,-125.2"/>
<text text-anchor="start" x="290" y="-132.3" font-family="Helvetica,sans-Serif" font-size="11.00" fill="#000000">luotu</text>
<polygon fill="none" stroke="#000000" points="507,-125.2 507,-147.2 616,-147.2 616,-125.2 507,-125.2"/>
<text text-anchor="start" x="510" y="-132.9" font-family="Helvetica,sans-Serif" font-size="11.00" fill="#000000">timestamp[29,6]</text>
<polygon fill="none" stroke="#000000" points="270,-103.2 270,-125.2 507,-125.2 507,-103.2 270,-103.2"/>
<text text-anchor="start" x="290" y="-110.3" font-family="Helvetica,sans-Serif" font-size="11.00" fill="#000000">tekijä_oid</text>
<polygon fill="none" stroke="#000000" points="507,-103.2 507,-125.2 616,-125.2 616,-103.2 507,-103.2"/>
<text text-anchor="start" x="510" y="-110.9" font-family="Helvetica,sans-Serif" font-size="11.00" fill="#000000">text[2147483647]</text>
<polygon fill="none" stroke="#000000" points="270,-81.2 270,-103.2 507,-103.2 507,-81.2 270,-81.2"/>
<text text-anchor="start" x="290" y="-88.3" font-family="Helvetica,sans-Serif" font-size="11.00" fill="#000000">tekijä_organisaatio_oid</text>
<polygon fill="none" stroke="#000000" points="507,-81.2 507,-103.2 616,-103.2 616,-81.2 507,-81.2"/>
<text text-anchor="start" x="510" y="-88.9" font-family="Helvetica,sans-Serif" font-size="11.00" fill="#000000">text[2147483647]</text>
<polygon fill="none" stroke="#000000" points="270,-59.2 270,-81.2 507,-81.2 507,-59.2 270,-59.2"/>
<text text-anchor="start" x="290" y="-66.3" font-family="Helvetica,sans-Serif" font-size="11.00" fill="#000000">peruttu</text>
<polygon fill="none" stroke="#000000" points="507,-59.2 507,-81.2 616,-81.2 616,-59.2 507,-59.2"/>
<text text-anchor="start" x="510" y="-66.9" font-family="Helvetica,sans-Serif" font-size="11.00" fill="#000000">bool[1]</text>
<polygon fill="#ffffff" stroke="transparent" points="270,-40.2 270,-59.2 380,-59.2 380,-40.2 270,-40.2"/>
<polygon fill="none" stroke="#000000" points="270,-40.2 270,-59.2 380,-59.2 380,-40.2 270,-40.2"/>
<text text-anchor="start" x="273" y="-46.3" font-family="Helvetica,sans-Serif" font-size="11.00" fill="#000000">&lt; 1</text>
<polygon fill="#ffffff" stroke="transparent" points="380,-40.2 380,-59.2 507,-59.2 507,-40.2 380,-40.2"/>
<polygon fill="none" stroke="#000000" points="380,-40.2 380,-59.2 507,-59.2 507,-40.2 380,-40.2"/>
<text text-anchor="start" x="471.6105" y="-46.3" font-family="Helvetica,sans-Serif" font-size="11.00" fill="#000000">0 rows</text>
<polygon fill="#ffffff" stroke="transparent" points="507,-40.2 507,-59.2 616,-59.2 616,-40.2 507,-40.2"/>
<polygon fill="none" stroke="#000000" points="507,-40.2 507,-59.2 616,-59.2 616,-40.2 507,-40.2"/>
<text text-anchor="start" x="597.4053" y="-46.3" font-family="Helvetica,sans-Serif" font-size="11.00" fill="#000000">0 &gt;</text>
<polygon fill="none" stroke="#000000" stroke-width="2" points="269,-39.2 269,-325.2 617,-325.2 617,-39.2 269,-39.2"/>
</a>
</g>
</g>
<!-- oppivelvollisuuden_keskeytys -->
<g id="node2" class="node">
<title>oppivelvollisuuden_keskeytys</title>
<g id="a_node2"><a xlink:href="../../tables/oppivelvollisuuden_keskeytys.html" xlink:title="oppivelvollisuuden_keskeytys" target="_top">
<polygon fill="#ffffff" stroke="transparent" points="8,-219.7 8,-302.7 219,-302.7 219,-219.7 8,-219.7"/>
<polygon fill="#f5f5f5" stroke="transparent" points="8.5,-279.2 8.5,-302.2 219.5,-302.2 219.5,-279.2 8.5,-279.2"/>
<polygon fill="none" stroke="#000000" points="8.5,-279.2 8.5,-302.2 219.5,-302.2 219.5,-279.2 8.5,-279.2"/>
<text text-anchor="start" x="13.5" y="-287.8" font-family="Helvetica,sans-Serif" font-weight="bold" font-size="11.00" fill="#000000">oppivelvollisuuden_keskeytys</text>
<text text-anchor="start" x="185.0219" y="-287.3" font-family="Helvetica,sans-Serif" font-size="11.00" fill="#000000">[table]</text>
<polygon fill="none" stroke="#000000" points="8.5,-257.2 8.5,-279.2 219.5,-279.2 219.5,-257.2 8.5,-257.2"/>
<image xlink:href="../../images/primaryKeys.png" width="11px" height="12px" preserveAspectRatio="xMinYMin meet" x="13.5" y="-274.2"/>
<text text-anchor="start" x="37.5" y="-264.3" font-family="Helvetica,sans-Serif" font-size="11.00" fill="#000000">uuid</text>
<polygon fill="none" stroke="#000000" points="8.5,-238.2 8.5,-257.2 219.5,-257.2 219.5,-238.2 8.5,-238.2"/>
<text text-anchor="start" x="11.5" y="-244.3" font-family="Helvetica,sans-Serif" font-size="11.00" fill="#000000">...</text>
<polygon fill="#ffffff" stroke="transparent" points="8.5,-219.2 8.5,-238.2 90.5,-238.2 90.5,-219.2 8.5,-219.2"/>
<polygon fill="none" stroke="#000000" points="8.5,-219.2 8.5,-238.2 90.5,-238.2 90.5,-219.2 8.5,-219.2"/>
<text text-anchor="start" x="11.5" y="-225.3" font-family="Helvetica,sans-Serif" font-size="11.00" fill="#000000"> &#160;</text>
<polygon fill="#ffffff" stroke="transparent" points="90.5,-219.2 90.5,-238.2 163.5,-238.2 163.5,-219.2 90.5,-219.2"/>
<polygon fill="none" stroke="#000000" points="90.5,-219.2 90.5,-238.2 163.5,-238.2 163.5,-219.2 90.5,-219.2"/>
<text text-anchor="start" x="128.1105" y="-225.3" font-family="Helvetica,sans-Serif" font-size="11.00" fill="#000000">0 rows</text>
<polygon fill="#ffffff" stroke="transparent" points="163.5,-219.2 163.5,-238.2 219.5,-238.2 219.5,-219.2 163.5,-219.2"/>
<polygon fill="none" stroke="#000000" points="163.5,-219.2 163.5,-238.2 219.5,-238.2 219.5,-219.2 163.5,-219.2"/>
<text text-anchor="start" x="200.9053" y="-225.3" font-family="Helvetica,sans-Serif" font-size="11.00" fill="#000000">1 &gt;</text>
</a>
</g>
</g>
<!-- oppivelvollisuuden_keskeytyshistoria&#45;&gt;oppivelvollisuuden_keskeytys -->
<g id="edge1" class="edge">
<title>oppivelvollisuuden_keskeytyshistoria:w&#45;&gt;oppivelvollisuuden_keskeytys:e</title>
<path fill="none" stroke="#000000" d="M255.4203,-268.2C243.5435,-268.2 236.158,-268.2 219.5,-268.2"/>
<polygon fill="#000000" stroke="#000000" points="262,-268.2001 270,-271.8 266,-268.2 270,-268.2 270,-268.2 270,-268.2 266,-268.2 270,-264.6 262,-268.2001 262,-268.2001"/>
<ellipse fill="none" stroke="#000000" cx="258.8" cy="-268.2001" rx="3.2" ry="3.2"/>
</g>
</g>
</svg>
