<?xml version="1.0" encoding="UTF-8" standalone="no"?>
<!DOCTYPE svg PUBLIC "-//W3C//DTD SVG 1.1//EN"
 "http://www.w3.org/Graphics/SVG/1.1/DTD/svg11.dtd">
<!-- Generated by graphviz version 2.40.1 (20161225.0304)
 -->
<!-- Title: oneDegreeRelationshipsDiagram Pages: 1 -->
<svg width="700pt" height="293pt"
 viewBox="0.00 0.00 700.00 292.70" xmlns="http://www.w3.org/2000/svg" xmlns:xlink="http://www.w3.org/1999/xlink">
<g id="graph0" class="graph" transform="scale(1 1) rotate(0) translate(4 288.7)">
<title>oneDegreeRelationshipsDiagram</title>
<polygon fill="#ffffff" stroke="transparent" points="-4,4 -4,-288.7 696,-288.7 696,4 -4,4"/>
<text text-anchor="middle" x="72.4936" y="-7.3" font-family="Helvetica,sans-Serif" font-size="11.00" fill="#000000">Generated by SchemaSpy</text>
<!-- oppivelvollisuuden_keskeytyshistoria -->
<g id="node1" class="node">
<title>oppivelvollisuuden_keskeytyshistoria</title>
<g id="a_node1"><a xlink:href="../../tables/oppivelvollisuuden_keskeytyshistoria.html" xlink:title="oppivelvollisuuden_keskeytyshistoria" target="_top">
<polygon fill="#ffffff" stroke="transparent" points="392,-175.7 392,-280.7 684,-280.7 684,-175.7 392,-175.7"/>
<polygon fill="#f5f5f5" stroke="transparent" points="392,-257.2 392,-280.2 684,-280.2 684,-257.2 392,-257.2"/>
<polygon fill="none" stroke="#000000" points="392,-257.2 392,-280.2 684,-280.2 684,-257.2 392,-257.2"/>
<text text-anchor="start" x="397" y="-265.8" font-family="Helvetica,sans-Serif" font-weight="bold" font-size="11.00" fill="#000000">oppivelvollisuuden_keskeytyshistoria</text>
<text text-anchor="start" x="649.5219" y="-265.3" font-family="Helvetica,sans-Serif" font-size="11.00" fill="#000000">[table]</text>
<polygon fill="none" stroke="#000000" points="392,-235.2 392,-257.2 684,-257.2 684,-235.2 392,-235.2"/>
<image xlink:href="../../images/primaryKeys.png" width="11px" height="12px" preserveAspectRatio="xMinYMin meet" x="397" y="-252.2"/>
<text text-anchor="start" x="421" y="-242.3" font-family="Helvetica,sans-Serif" font-size="11.00" fill="#000000">id</text>
<polygon fill="none" stroke="#000000" points="392,-213.2 392,-235.2 684,-235.2 684,-213.2 392,-213.2"/>
<image xlink:href="../../images/foreignKeys.png" width="11px" height="12px" preserveAspectRatio="xMinYMin meet" x="397" y="-230.2"/>
<text text-anchor="start" x="421" y="-220.3" font-family="Helvetica,sans-Serif" font-size="11.00" fill="#000000">ov_keskeytys_uuid</text>
<polygon fill="none" stroke="#000000" points="392,-194.2 392,-213.2 684,-213.2 684,-194.2 392,-194.2"/>
<text text-anchor="start" x="395" y="-200.3" font-family="Helvetica,sans-Serif" font-size="11.00" fill="#000000">...</text>
<polygon fill="#ffffff" stroke="transparent" points="392,-175.2 392,-194.2 536,-194.2 536,-175.2 392,-175.2"/>
<polygon fill="none" stroke="#000000" points="392,-175.2 392,-194.2 536,-194.2 536,-175.2 392,-175.2"/>
<text text-anchor="start" x="395" y="-181.3" font-family="Helvetica,sans-Serif" font-size="11.00" fill="#000000">&lt; 1</text>
<polygon fill="#ffffff" stroke="transparent" points="536,-175.2 536,-194.2 610,-194.2 610,-175.2 536,-175.2"/>
<polygon fill="none" stroke="#000000" points="536,-175.2 536,-194.2 610,-194.2 610,-175.2 536,-175.2"/>
<text text-anchor="start" x="600.8862" y="-181.3" font-family="Helvetica,sans-Serif" font-size="11.00" fill="#000000"> &#160;</text>
<polygon fill="#ffffff" stroke="transparent" points="610,-175.2 610,-194.2 684,-194.2 684,-175.2 610,-175.2"/>
<polygon fill="none" stroke="#000000" points="610,-175.2 610,-194.2 684,-194.2 684,-175.2 610,-175.2"/>
<text text-anchor="start" x="674.8862" y="-181.3" font-family="Helvetica,sans-Serif" font-size="11.00" fill="#000000"> &#160;</text>
</a>
</g>
</g>
<!-- oppivelvollisuuden_keskeytys -->
<g id="node2" class="node">
<title>oppivelvollisuuden_keskeytys</title>
<g id="a_node2"><a xlink:href="../../tables/oppivelvollisuuden_keskeytys.html" xlink:title="oppivelvollisuuden_keskeytys" target="_top">
<polygon fill="#ffffff" stroke="transparent" points="8,-38.2 8,-260.2 343,-260.2 343,-38.2 8,-38.2"/>
<polygon fill="#f5f5f5" stroke="transparent" points="10.5,-235.2 10.5,-258.2 341.5,-258.2 341.5,-235.2 10.5,-235.2"/>
<polygon fill="none" stroke="#000000" points="10.5,-235.2 10.5,-258.2 341.5,-258.2 341.5,-235.2 10.5,-235.2"/>
<text text-anchor="start" x="15.5" y="-243.8" font-family="Helvetica,sans-Serif" font-weight="bold" font-size="11.00" fill="#000000">oppivelvollisuuden_keskeytys</text>
<text text-anchor="start" x="306.5437" y="-243.3" font-family="Helvetica,sans-Serif" font-size="11.00" fill="#000000">[table]</text>
<polygon fill="none" stroke="#000000" points="10.5,-213.2 10.5,-235.2 232.5,-235.2 232.5,-213.2 10.5,-213.2"/>
<image xlink:href="../../images/primaryKeys.png" width="11px" height="12px" preserveAspectRatio="xMinYMin meet" x="15.5" y="-230.2"/>
<text text-anchor="start" x="30.5" y="-220.3" font-family="Helvetica,sans-Serif" font-size="11.00" fill="#000000">uuid</text>
<polygon fill="none" stroke="#000000" points="232.5,-213.2 232.5,-235.2 341.5,-235.2 341.5,-213.2 232.5,-213.2"/>
<text text-anchor="start" x="235.5" y="-220.9" font-family="Helvetica,sans-Serif" font-size="11.00" fill="#000000">uuid[2147483647]</text>
<polygon fill="none" stroke="#000000" points="10.5,-191.2 10.5,-213.2 232.5,-213.2 232.5,-191.2 10.5,-191.2"/>
<text text-anchor="start" x="30.5" y="-198.3" font-family="Helvetica,sans-Serif" font-size="11.00" fill="#000000">oppija_oid</text>
<polygon fill="none" stroke="#000000" points="232.5,-191.2 232.5,-213.2 341.5,-213.2 341.5,-191.2 232.5,-191.2"/>
<text text-anchor="start" x="235.0344" y="-198.9" font-family="Helvetica,sans-Serif" font-size="11.00" fill="#000000">varchar[2147483647]</text>
<polygon fill="none" stroke="#000000" points="10.5,-169.2 10.5,-191.2 232.5,-191.2 232.5,-169.2 10.5,-169.2"/>
<text text-anchor="start" x="30.5" y="-176.3" font-family="Helvetica,sans-Serif" font-size="11.00" fill="#000000">alku</text>
<polygon fill="none" stroke="#000000" points="232.5,-169.2 232.5,-191.2 341.5,-191.2 341.5,-169.2 232.5,-169.2"/>
<text text-anchor="start" x="235.5" y="-176.9" font-family="Helvetica,sans-Serif" font-size="11.00" fill="#000000">date[13]</text>
<polygon fill="none" stroke="#000000" points="10.5,-147.2 10.5,-169.2 232.5,-169.2 232.5,-147.2 10.5,-147.2"/>
<text text-anchor="start" x="30.5" y="-154.3" font-family="Helvetica,sans-Serif" font-size="11.00" fill="#000000">loppu</text>
<polygon fill="none" stroke="#000000" points="232.5,-147.2 232.5,-169.2 341.5,-169.2 341.5,-147.2 232.5,-147.2"/>
<text text-anchor="start" x="235.5" y="-154.9" font-family="Helvetica,sans-Serif" font-size="11.00" fill="#000000">date[13]</text>
<polygon fill="none" stroke="#000000" points="10.5,-125.2 10.5,-147.2 232.5,-147.2 232.5,-125.2 10.5,-125.2"/>
<text text-anchor="start" x="30.5" y="-132.3" font-family="Helvetica,sans-Serif" font-size="11.00" fill="#000000">luotu</text>
<polygon fill="none" stroke="#000000" points="232.5,-125.2 232.5,-147.2 341.5,-147.2 341.5,-125.2 232.5,-125.2"/>
<text text-anchor="start" x="235.5" y="-132.9" font-family="Helvetica,sans-Serif" font-size="11.00" fill="#000000">timestamp[29,6]</text>
<polygon fill="none" stroke="#000000" points="10.5,-103.2 10.5,-125.2 232.5,-125.2 232.5,-103.2 10.5,-103.2"/>
<text text-anchor="start" x="30.5" y="-110.3" font-family="Helvetica,sans-Serif" font-size="11.00" fill="#000000">tekijä_oid</text>
<polygon fill="none" stroke="#000000" points="232.5,-103.2 232.5,-125.2 341.5,-125.2 341.5,-103.2 232.5,-103.2"/>
<text text-anchor="start" x="235.5" y="-110.9" font-family="Helvetica,sans-Serif" font-size="11.00" fill="#000000">text[2147483647]</text>
<polygon fill="none" stroke="#000000" points="10.5,-81.2 10.5,-103.2 232.5,-103.2 232.5,-81.2 10.5,-81.2"/>
<text text-anchor="start" x="30.5" y="-88.3" font-family="Helvetica,sans-Serif" font-size="11.00" fill="#000000">tekijä_organisaatio_oid</text>
<polygon fill="none" stroke="#000000" points="232.5,-81.2 232.5,-103.2 341.5,-103.2 341.5,-81.2 232.5,-81.2"/>
<text text-anchor="start" x="235.5" y="-88.9" font-family="Helvetica,sans-Serif" font-size="11.00" fill="#000000">text[2147483647]</text>
<polygon fill="none" stroke="#000000" points="10.5,-59.2 10.5,-81.2 232.5,-81.2 232.5,-59.2 10.5,-59.2"/>
<text text-anchor="start" x="30.5" y="-66.3" font-family="Helvetica,sans-Serif" font-size="11.00" fill="#000000">peruttu</text>
<polygon fill="none" stroke="#000000" points="232.5,-59.2 232.5,-81.2 341.5,-81.2 341.5,-59.2 232.5,-59.2"/>
<text text-anchor="start" x="235.5" y="-66.9" font-family="Helvetica,sans-Serif" font-size="11.00" fill="#000000">bool[1]</text>
<polygon fill="#ffffff" stroke="transparent" points="10.5,-40.2 10.5,-59.2 125.5,-59.2 125.5,-40.2 10.5,-40.2"/>
<polygon fill="none" stroke="#000000" points="10.5,-40.2 10.5,-59.2 125.5,-59.2 125.5,-40.2 10.5,-40.2"/>
<text text-anchor="start" x="13.5" y="-46.3" font-family="Helvetica,sans-Serif" font-size="11.00" fill="#000000">&lt; 0</text>
<polygon fill="#ffffff" stroke="transparent" points="125.5,-40.2 125.5,-59.2 232.5,-59.2 232.5,-40.2 125.5,-40.2"/>
<polygon fill="none" stroke="#000000" points="125.5,-40.2 125.5,-59.2 232.5,-59.2 232.5,-40.2 125.5,-40.2"/>
<text text-anchor="start" x="223.3862" y="-46.3" font-family="Helvetica,sans-Serif" font-size="11.00" fill="#000000"> &#160;</text>
<polygon fill="#ffffff" stroke="transparent" points="232.5,-40.2 232.5,-59.2 341.5,-59.2 341.5,-40.2 232.5,-40.2"/>
<polygon fill="none" stroke="#000000" points="232.5,-40.2 232.5,-59.2 341.5,-59.2 341.5,-40.2 232.5,-40.2"/>
<text text-anchor="start" x="322.9053" y="-46.3" font-family="Helvetica,sans-Serif" font-size="11.00" fill="#000000">1 &gt;</text>
<polygon fill="none" stroke="#000000" stroke-width="2" points="9,-39.2 9,-259.2 342,-259.2 342,-39.2 9,-39.2"/>
</a>
</g>
</g>
<!-- oppivelvollisuuden_keskeytyshistoria&#45;&gt;oppivelvollisuuden_keskeytys -->
<g id="edge1" class="edge">
<title>oppivelvollisuuden_keskeytyshistoria:w&#45;&gt;oppivelvollisuuden_keskeytys:e</title>
<path fill="none" stroke="#000000" d="M377.4203,-224.2C365.5435,-224.2 358.158,-224.2 341.5,-224.2"/>
<polygon fill="#000000" stroke="#000000" points="384,-224.2001 392,-227.8 388,-224.2 392,-224.2 392,-224.2 392,-224.2 388,-224.2 392,-220.6 384,-224.2001 384,-224.2001"/>
<ellipse fill="none" stroke="#000000" cx="380.8" cy="-224.2001" rx="3.2" ry="3.2"/>
</g>
</g>
</svg>
