<?xml version="1.0" encoding="UTF-8" standalone="no"?>
<!DOCTYPE svg PUBLIC "-//W3C//DTD SVG 1.1//EN"
 "http://www.w3.org/Graphics/SVG/1.1/DTD/svg11.dtd">
<!-- Generated by graphviz version 2.40.1 (20161225.0304)
 -->
<!-- Title: oneDegreeRelationshipsDiagram Pages: 1 -->
<svg width="634pt" height="293pt"
 viewBox="0.00 0.00 634.00 292.70" xmlns="http://www.w3.org/2000/svg" xmlns:xlink="http://www.w3.org/1999/xlink">
<g id="graph0" class="graph" transform="scale(1 1) rotate(0) translate(4 288.7)">
<title>oneDegreeRelationshipsDiagram</title>
<polygon fill="#ffffff" stroke="transparent" points="-4,4 -4,-288.7 630,-288.7 630,4 -4,4"/>
<text text-anchor="middle" x="72.4936" y="-7.3" font-family="Helvetica,sans-Serif" font-size="11.00" fill="#000000">Generated by SchemaSpy</text>
<!-- oppivelvollisuuden_keskeytyshistoria -->
<g id="node1" class="node">
<title>oppivelvollisuuden_keskeytyshistoria</title>
<g id="a_node1"><a xlink:href="../../tables/oppivelvollisuuden_keskeytyshistoria.html" xlink:title="oppivelvollisuuden_keskeytyshistoria" target="_top">
<polygon fill="#ffffff" stroke="transparent" points="363,-175.7 363,-280.7 618,-280.7 618,-175.7 363,-175.7"/>
<polygon fill="#f5f5f5" stroke="transparent" points="363.5,-257.2 363.5,-280.2 618.5,-280.2 618.5,-257.2 363.5,-257.2"/>
<polygon fill="none" stroke="#000000" points="363.5,-257.2 363.5,-280.2 618.5,-280.2 618.5,-257.2 363.5,-257.2"/>
<text text-anchor="start" x="368.5" y="-265.8" font-family="Helvetica,sans-Serif" font-weight="bold" font-size="11.00" fill="#000000">oppivelvollisuuden_keskeytyshistoria</text>
<text text-anchor="start" x="584.0219" y="-265.3" font-family="Helvetica,sans-Serif" font-size="11.00" fill="#000000">[table]</text>
<polygon fill="none" stroke="#000000" points="363.5,-235.2 363.5,-257.2 618.5,-257.2 618.5,-235.2 363.5,-235.2"/>
<image xlink:href="../../images/primaryKeys.png" width="11px" height="12px" preserveAspectRatio="xMinYMin meet" x="368.5" y="-252.2"/>
<text text-anchor="start" x="392.5" y="-242.3" font-family="Helvetica,sans-Serif" font-size="11.00" fill="#000000">id</text>
<polygon fill="none" stroke="#000000" points="363.5,-213.2 363.5,-235.2 618.5,-235.2 618.5,-213.2 363.5,-213.2"/>
<image xlink:href="../../images/foreignKeys.png" width="11px" height="12px" preserveAspectRatio="xMinYMin meet" x="368.5" y="-230.2"/>
<text text-anchor="start" x="392.5" y="-220.3" font-family="Helvetica,sans-Serif" font-size="11.00" fill="#000000">ov_keskeytys_uuid</text>
<polygon fill="none" stroke="#000000" points="363.5,-194.2 363.5,-213.2 618.5,-213.2 618.5,-194.2 363.5,-194.2"/>
<text text-anchor="start" x="366.5" y="-200.3" font-family="Helvetica,sans-Serif" font-size="11.00" fill="#000000">...</text>
<polygon fill="#ffffff" stroke="transparent" points="363.5,-175.2 363.5,-194.2 489.5,-194.2 489.5,-175.2 363.5,-175.2"/>
<polygon fill="none" stroke="#000000" points="363.5,-175.2 363.5,-194.2 489.5,-194.2 489.5,-175.2 363.5,-175.2"/>
<text text-anchor="start" x="366.5" y="-181.3" font-family="Helvetica,sans-Serif" font-size="11.00" fill="#000000">&lt; 1</text>
<polygon fill="#ffffff" stroke="transparent" points="489.5,-175.2 489.5,-194.2 553.5,-194.2 553.5,-175.2 489.5,-175.2"/>
<polygon fill="none" stroke="#000000" points="489.5,-175.2 489.5,-194.2 553.5,-194.2 553.5,-175.2 489.5,-175.2"/>
<text text-anchor="start" x="544.3862" y="-181.3" font-family="Helvetica,sans-Serif" font-size="11.00" fill="#000000"> &#160;</text>
<polygon fill="#ffffff" stroke="transparent" points="553.5,-175.2 553.5,-194.2 618.5,-194.2 618.5,-175.2 553.5,-175.2"/>
<polygon fill="none" stroke="#000000" points="553.5,-175.2 553.5,-194.2 618.5,-194.2 618.5,-175.2 553.5,-175.2"/>
<text text-anchor="start" x="609.3862" y="-181.3" font-family="Helvetica,sans-Serif" font-size="11.00" fill="#000000"> &#160;</text>
</a>
</g>
</g>
<!-- oppivelvollisuuden_keskeytys -->
<g id="node2" class="node">
<title>oppivelvollisuuden_keskeytys</title>
<g id="a_node2"><a xlink:href="../../tables/oppivelvollisuuden_keskeytys.html" xlink:title="oppivelvollisuuden_keskeytys" target="_top">
<polygon fill="#ffffff" stroke="transparent" points="8,-38.2 8,-260.2 314,-260.2 314,-38.2 8,-38.2"/>
<polygon fill="#f5f5f5" stroke="transparent" points="10,-235.2 10,-258.2 312,-258.2 312,-235.2 10,-235.2"/>
<polygon fill="none" stroke="#000000" points="10,-235.2 10,-258.2 312,-258.2 312,-235.2 10,-235.2"/>
<text text-anchor="start" x="15" y="-243.8" font-family="Helvetica,sans-Serif" font-weight="bold" font-size="11.00" fill="#000000">oppivelvollisuuden_keskeytys</text>
<text text-anchor="start" x="277.0437" y="-243.3" font-family="Helvetica,sans-Serif" font-size="11.00" fill="#000000">[table]</text>
<polygon fill="none" stroke="#000000" points="10,-213.2 10,-235.2 203,-235.2 203,-213.2 10,-213.2"/>
<image xlink:href="../../images/primaryKeys.png" width="11px" height="12px" preserveAspectRatio="xMinYMin meet" x="15" y="-230.2"/>
<text text-anchor="start" x="30" y="-220.3" font-family="Helvetica,sans-Serif" font-size="11.00" fill="#000000">uuid</text>
<polygon fill="none" stroke="#000000" points="203,-213.2 203,-235.2 312,-235.2 312,-213.2 203,-213.2"/>
<text text-anchor="start" x="206" y="-220.9" font-family="Helvetica,sans-Serif" font-size="11.00" fill="#000000">uuid[2147483647]</text>
<polygon fill="none" stroke="#000000" points="10,-191.2 10,-213.2 203,-213.2 203,-191.2 10,-191.2"/>
<text text-anchor="start" x="30" y="-198.3" font-family="Helvetica,sans-Serif" font-size="11.00" fill="#000000">oppija_oid</text>
<polygon fill="none" stroke="#000000" points="203,-191.2 203,-213.2 312,-213.2 312,-191.2 203,-191.2"/>
<text text-anchor="start" x="205.5344" y="-198.9" font-family="Helvetica,sans-Serif" font-size="11.00" fill="#000000">varchar[2147483647]</text>
<polygon fill="none" stroke="#000000" points="10,-169.2 10,-191.2 203,-191.2 203,-169.2 10,-169.2"/>
<text text-anchor="start" x="30" y="-176.3" font-family="Helvetica,sans-Serif" font-size="11.00" fill="#000000">alku</text>
<polygon fill="none" stroke="#000000" points="203,-169.2 203,-191.2 312,-191.2 312,-169.2 203,-169.2"/>
<text text-anchor="start" x="206" y="-176.9" font-family="Helvetica,sans-Serif" font-size="11.00" fill="#000000">date[13]</text>
<polygon fill="none" stroke="#000000" points="10,-147.2 10,-169.2 203,-169.2 203,-147.2 10,-147.2"/>
<text text-anchor="start" x="30" y="-154.3" font-family="Helvetica,sans-Serif" font-size="11.00" fill="#000000">loppu</text>
<polygon fill="none" stroke="#000000" points="203,-147.2 203,-169.2 312,-169.2 312,-147.2 203,-147.2"/>
<text text-anchor="start" x="206" y="-154.9" font-family="Helvetica,sans-Serif" font-size="11.00" fill="#000000">date[13]</text>
<polygon fill="none" stroke="#000000" points="10,-125.2 10,-147.2 203,-147.2 203,-125.2 10,-125.2"/>
<text text-anchor="start" x="30" y="-132.3" font-family="Helvetica,sans-Serif" font-size="11.00" fill="#000000">luotu</text>
<polygon fill="none" stroke="#000000" points="203,-125.2 203,-147.2 312,-147.2 312,-125.2 203,-125.2"/>
<text text-anchor="start" x="206" y="-132.9" font-family="Helvetica,sans-Serif" font-size="11.00" fill="#000000">timestamp[29,6]</text>
<polygon fill="none" stroke="#000000" points="10,-103.2 10,-125.2 203,-125.2 203,-103.2 10,-103.2"/>
<text text-anchor="start" x="30" y="-110.3" font-family="Helvetica,sans-Serif" font-size="11.00" fill="#000000">tekijä_oid</text>
<polygon fill="none" stroke="#000000" points="203,-103.2 203,-125.2 312,-125.2 312,-103.2 203,-103.2"/>
<text text-anchor="start" x="206" y="-110.9" font-family="Helvetica,sans-Serif" font-size="11.00" fill="#000000">text[2147483647]</text>
<polygon fill="none" stroke="#000000" points="10,-81.2 10,-103.2 203,-103.2 203,-81.2 10,-81.2"/>
<text text-anchor="start" x="30" y="-88.3" font-family="Helvetica,sans-Serif" font-size="11.00" fill="#000000">tekijä_organisaatio_oid</text>
<polygon fill="none" stroke="#000000" points="203,-81.2 203,-103.2 312,-103.2 312,-81.2 203,-81.2"/>
<text text-anchor="start" x="206" y="-88.9" font-family="Helvetica,sans-Serif" font-size="11.00" fill="#000000">text[2147483647]</text>
<polygon fill="none" stroke="#000000" points="10,-59.2 10,-81.2 203,-81.2 203,-59.2 10,-59.2"/>
<text text-anchor="start" x="30" y="-66.3" font-family="Helvetica,sans-Serif" font-size="11.00" fill="#000000">peruttu</text>
<polygon fill="none" stroke="#000000" points="203,-59.2 203,-81.2 312,-81.2 312,-59.2 203,-59.2"/>
<text text-anchor="start" x="206" y="-66.9" font-family="Helvetica,sans-Serif" font-size="11.00" fill="#000000">bool[1]</text>
<polygon fill="#ffffff" stroke="transparent" points="10,-40.2 10,-59.2 98,-59.2 98,-40.2 10,-40.2"/>
<polygon fill="none" stroke="#000000" points="10,-40.2 10,-59.2 98,-59.2 98,-40.2 10,-40.2"/>
<text text-anchor="start" x="13" y="-46.3" font-family="Helvetica,sans-Serif" font-size="11.00" fill="#000000">&lt; 0</text>
<polygon fill="#ffffff" stroke="transparent" points="98,-40.2 98,-59.2 203,-59.2 203,-40.2 98,-40.2"/>
<polygon fill="none" stroke="#000000" points="98,-40.2 98,-59.2 203,-59.2 203,-40.2 98,-40.2"/>
<text text-anchor="start" x="167.6105" y="-46.3" font-family="Helvetica,sans-Serif" font-size="11.00" fill="#000000">8 rows</text>
<polygon fill="#ffffff" stroke="transparent" points="203,-40.2 203,-59.2 312,-59.2 312,-40.2 203,-40.2"/>
<polygon fill="none" stroke="#000000" points="203,-40.2 203,-59.2 312,-59.2 312,-40.2 203,-40.2"/>
<text text-anchor="start" x="293.4053" y="-46.3" font-family="Helvetica,sans-Serif" font-size="11.00" fill="#000000">1 &gt;</text>
<polygon fill="none" stroke="#000000" stroke-width="2" points="9,-39.2 9,-259.2 313,-259.2 313,-39.2 9,-39.2"/>
</a>
</g>
</g>
<!-- oppivelvollisuuden_keskeytyshistoria&#45;&gt;oppivelvollisuuden_keskeytys -->
<g id="edge1" class="edge">
<title>oppivelvollisuuden_keskeytyshistoria:w&#45;&gt;oppivelvollisuuden_keskeytys:e</title>
<path fill="none" stroke="#000000" d="M349.0156,-224.2C336.6771,-224.2 329.1667,-224.2 312,-224.2"/>
<polygon fill="#000000" stroke="#000000" points="355.5,-224.2001 363.5,-227.8 359.5,-224.2 363.5,-224.2 363.5,-224.2 363.5,-224.2 359.5,-224.2 363.5,-220.6 355.5,-224.2001 355.5,-224.2001"/>
<ellipse fill="none" stroke="#000000" cx="352.3" cy="-224.2001" rx="3.2" ry="3.2"/>
</g>
</g>
</svg>
