<?xml version="1.0" encoding="UTF-8" standalone="no"?>
<!DOCTYPE svg PUBLIC "-//W3C//DTD SVG 1.1//EN"
 "http://www.w3.org/Graphics/SVG/1.1/DTD/svg11.dtd">
<!-- Generated by graphviz version 2.40.1 (20161225.0304)
 -->
<!-- Title: oneDegreeRelationshipsDiagram Pages: 1 -->
<svg width="359pt" height="228pt"
 viewBox="0.00 0.00 359.00 228.20" xmlns="http://www.w3.org/2000/svg" xmlns:xlink="http://www.w3.org/1999/xlink">
<g id="graph0" class="graph" transform="scale(1 1) rotate(0) translate(4 224.2)">
<title>oneDegreeRelationshipsDiagram</title>
<polygon fill="#ffffff" stroke="transparent" points="-4,4 -4,-224.2 355,-224.2 355,4 -4,4"/>
<text text-anchor="middle" x="72.4936" y="-7.3" font-family="Helvetica,sans-Serif" font-size="11.00" fill="#000000">Generated by SchemaSpy</text>
<!-- oppivelvollisuudesta_vapautetut -->
<g id="node1" class="node">
<title>oppivelvollisuudesta_vapautetut</title>
<g id="a_node1"><a xlink:href="../../tables/oppivelvollisuudesta_vapautetut.html" xlink:title="oppivelvollisuudesta_vapautetut" target="_top">
<polygon fill="#ffffff" stroke="transparent" points="8,-38.2 8,-216.2 343,-216.2 343,-38.2 8,-38.2"/>
<polygon fill="#f5f5f5" stroke="transparent" points="10.5,-191.2 10.5,-214.2 341.5,-214.2 341.5,-191.2 10.5,-191.2"/>
<polygon fill="none" stroke="#000000" points="10.5,-191.2 10.5,-214.2 341.5,-214.2 341.5,-191.2 10.5,-191.2"/>
<text text-anchor="start" x="15.5" y="-199.8" font-family="Helvetica,sans-Serif" font-weight="bold" font-size="11.00" fill="#000000">oppivelvollisuudesta_vapautetut</text>
<text text-anchor="start" x="306.5437" y="-199.3" font-family="Helvetica,sans-Serif" font-size="11.00" fill="#000000">[table]</text>
<polygon fill="#ffffff" stroke="transparent" points="10.5,-169.2 10.5,-191.2 251.5,-191.2 251.5,-169.2 10.5,-169.2"/>
<polygon fill="none" stroke="#000000" points="10.5,-169.2 10.5,-191.2 251.5,-191.2 251.5,-169.2 10.5,-169.2"/>
<text text-anchor="start" x="30.5" y="-176.3" font-family="Helvetica,sans-Serif" font-size="11.00" fill="#000000">oppija_oid</text>
<polygon fill="none" stroke="#000000" points="251.5,-169.2 251.5,-191.2 341.5,-191.2 341.5,-169.2 251.5,-169.2"/>
<text text-anchor="start" x="254.0043" y="-176.9" font-family="Helvetica,sans-Serif" font-size="11.00" fill="#000000">text[2147483647]</text>
<polygon fill="none" stroke="#000000" points="10.5,-147.2 10.5,-169.2 251.5,-169.2 251.5,-147.2 10.5,-147.2"/>
<text text-anchor="start" x="30.5" y="-154.3" font-family="Helvetica,sans-Serif" font-size="11.00" fill="#000000">virkailija_oid</text>
<polygon fill="none" stroke="#000000" points="251.5,-147.2 251.5,-169.2 341.5,-169.2 341.5,-147.2 251.5,-147.2"/>
<text text-anchor="start" x="254.0043" y="-154.9" font-family="Helvetica,sans-Serif" font-size="11.00" fill="#000000">text[2147483647]</text>
<polygon fill="none" stroke="#000000" points="10.5,-125.2 10.5,-147.2 251.5,-147.2 251.5,-125.2 10.5,-125.2"/>
<text text-anchor="start" x="30.5" y="-132.3" font-family="Helvetica,sans-Serif" font-size="11.00" fill="#000000">kunta_koodiarvo</text>
<polygon fill="none" stroke="#000000" points="251.5,-125.2 251.5,-147.2 341.5,-147.2 341.5,-125.2 251.5,-125.2"/>
<text text-anchor="start" x="254.0043" y="-132.9" font-family="Helvetica,sans-Serif" font-size="11.00" fill="#000000">text[2147483647]</text>
<polygon fill="none" stroke="#000000" points="10.5,-103.2 10.5,-125.2 251.5,-125.2 251.5,-103.2 10.5,-103.2"/>
<text text-anchor="start" x="30.5" y="-110.3" font-family="Helvetica,sans-Serif" font-size="11.00" fill="#000000">vapautettu</text>
<polygon fill="none" stroke="#000000" points="251.5,-103.2 251.5,-125.2 341.5,-125.2 341.5,-103.2 251.5,-103.2"/>
<text text-anchor="start" x="254.5" y="-110.9" font-family="Helvetica,sans-Serif" font-size="11.00" fill="#000000">date[13]</text>
<polygon fill="none" stroke="#000000" points="10.5,-81.2 10.5,-103.2 251.5,-103.2 251.5,-81.2 10.5,-81.2"/>
<text text-anchor="start" x="30.5" y="-88.3" font-family="Helvetica,sans-Serif" font-size="11.00" fill="#000000">aikaleima</text>
<polygon fill="none" stroke="#000000" points="251.5,-81.2 251.5,-103.2 341.5,-103.2 341.5,-81.2 251.5,-81.2"/>
<text text-anchor="start" x="254.5" y="-88.9" font-family="Helvetica,sans-Serif" font-size="11.00" fill="#000000">timestamp[29,6]</text>
<polygon fill="#ffffff" stroke="transparent" points="10.5,-59.2 10.5,-81.2 251.5,-81.2 251.5,-59.2 10.5,-59.2"/>
<polygon fill="none" stroke="#000000" points="10.5,-59.2 10.5,-81.2 251.5,-81.2 251.5,-59.2 10.5,-59.2"/>
<text text-anchor="start" x="30.5" y="-66.3" font-family="Helvetica,sans-Serif" font-size="11.00" fill="#000000">mitatoity</text>
<polygon fill="none" stroke="#000000" points="251.5,-59.2 251.5,-81.2 341.5,-81.2 341.5,-59.2 251.5,-59.2"/>
<text text-anchor="start" x="254.5" y="-66.9" font-family="Helvetica,sans-Serif" font-size="11.00" fill="#000000">timestamp[29,6]</text>
<polygon fill="#ffffff" stroke="transparent" points="10.5,-40.2 10.5,-59.2 135.5,-59.2 135.5,-40.2 10.5,-40.2"/>
<polygon fill="none" stroke="#000000" points="10.5,-40.2 10.5,-59.2 135.5,-59.2 135.5,-40.2 10.5,-40.2"/>
<text text-anchor="start" x="13.5" y="-46.3" font-family="Helvetica,sans-Serif" font-size="11.00" fill="#000000">&lt; 0</text>
<polygon fill="#ffffff" stroke="transparent" points="135.5,-40.2 135.5,-59.2 251.5,-59.2 251.5,-40.2 135.5,-40.2"/>
<polygon fill="none" stroke="#000000" points="135.5,-40.2 135.5,-59.2 251.5,-59.2 251.5,-40.2 135.5,-40.2"/>
<text text-anchor="start" x="242.3862" y="-46.3" font-family="Helvetica,sans-Serif" font-size="11.00" fill="#000000"> &#160;</text>
<polygon fill="#ffffff" stroke="transparent" points="251.5,-40.2 251.5,-59.2 341.5,-59.2 341.5,-40.2 251.5,-40.2"/>
<polygon fill="none" stroke="#000000" points="251.5,-40.2 251.5,-59.2 341.5,-59.2 341.5,-40.2 251.5,-40.2"/>
<text text-anchor="start" x="322.9053" y="-46.3" font-family="Helvetica,sans-Serif" font-size="11.00" fill="#000000">0 &gt;</text>
<polygon fill="none" stroke="#000000" stroke-width="2" points="9,-39.2 9,-215.2 342,-215.2 342,-39.2 9,-39.2"/>
</a>
</g>
</g>
</g>
</svg>
