<?xml version="1.0" encoding="UTF-8" standalone="no"?>
<!DOCTYPE svg PUBLIC "-//W3C//DTD SVG 1.1//EN"
 "http://www.w3.org/Graphics/SVG/1.1/DTD/svg11.dtd">
<!-- Generated by graphviz version 2.40.1 (20161225.0304)
 -->
<!-- Title: oneDegreeRelationshipsDiagram Pages: 1 -->
<svg width="648pt" height="338pt"
 viewBox="0.00 0.00 648.00 338.20" xmlns="http://www.w3.org/2000/svg" xmlns:xlink="http://www.w3.org/1999/xlink">
<g id="graph0" class="graph" transform="scale(1 1) rotate(0) translate(4 334.2)">
<title>oneDegreeRelationshipsDiagram</title>
<polygon fill="#ffffff" stroke="transparent" points="-4,4 -4,-334.2 644,-334.2 644,4 -4,4"/>
<text text-anchor="middle" x="72.4936" y="-7.3" font-family="Helvetica,sans-Serif" font-size="11.00" fill="#000000">Generated by SchemaSpy</text>
<!-- oppivelvollisuuden_keskeytyshistoria -->
<g id="node1" class="node">
<title>oppivelvollisuuden_keskeytyshistoria</title>
<g id="a_node1"><a xlink:href="../../tables/oppivelvollisuuden_keskeytyshistoria.html" xlink:title="oppivelvollisuuden_keskeytyshistoria" target="_top">
<polygon fill="#ffffff" stroke="transparent" points="274,-38.2 274,-326.2 632,-326.2 632,-38.2 274,-38.2"/>
<polygon fill="#f5f5f5" stroke="transparent" points="276,-301.2 276,-324.2 630,-324.2 630,-301.2 276,-301.2"/>
<polygon fill="none" stroke="#000000" points="276,-301.2 276,-324.2 630,-324.2 630,-301.2 276,-301.2"/>
<text text-anchor="start" x="281" y="-309.8" font-family="Helvetica,sans-Serif" font-weight="bold" font-size="11.00" fill="#000000">oppivelvollisuuden_keskeytyshistoria</text>
<text text-anchor="start" x="595.0437" y="-309.3" font-family="Helvetica,sans-Serif" font-size="11.00" fill="#000000">[table]</text>
<polygon fill="none" stroke="#000000" points="276,-279.2 276,-301.2 521,-301.2 521,-279.2 276,-279.2"/>
<image xlink:href="../../images/primaryKeys.png" width="11px" height="12px" preserveAspectRatio="xMinYMin meet" x="281" y="-296.2"/>
<text text-anchor="start" x="296" y="-286.3" font-family="Helvetica,sans-Serif" font-size="11.00" fill="#000000">id</text>
<polygon fill="none" stroke="#000000" points="521,-279.2 521,-301.2 630,-301.2 630,-279.2 521,-279.2"/>
<text text-anchor="start" x="524" y="-286.9" font-family="Helvetica,sans-Serif" font-size="11.00" fill="#000000">serial[10]</text>
<polygon fill="none" stroke="#000000" points="276,-257.2 276,-279.2 521,-279.2 521,-257.2 276,-257.2"/>
<image xlink:href="../../images/foreignKeys.png" width="11px" height="12px" preserveAspectRatio="xMinYMin meet" x="281" y="-274.2"/>
<text text-anchor="start" x="296" y="-264.3" font-family="Helvetica,sans-Serif" font-size="11.00" fill="#000000">ov_keskeytys_uuid</text>
<polygon fill="none" stroke="#000000" points="521,-257.2 521,-279.2 630,-279.2 630,-257.2 521,-257.2"/>
<text text-anchor="start" x="524" y="-264.9" font-family="Helvetica,sans-Serif" font-size="11.00" fill="#000000">uuid[2147483647]</text>
<polygon fill="none" stroke="#000000" points="276,-235.2 276,-257.2 521,-257.2 521,-235.2 276,-235.2"/>
<text text-anchor="start" x="296" y="-242.3" font-family="Helvetica,sans-Serif" font-size="11.00" fill="#000000">muutos_tehty</text>
<polygon fill="none" stroke="#000000" points="521,-235.2 521,-257.2 630,-257.2 630,-235.2 521,-235.2"/>
<text text-anchor="start" x="524" y="-242.9" font-family="Helvetica,sans-Serif" font-size="11.00" fill="#000000">timestamp[29,6]</text>
<polygon fill="none" stroke="#000000" points="276,-213.2 276,-235.2 521,-235.2 521,-213.2 276,-213.2"/>
<text text-anchor="start" x="296" y="-220.3" font-family="Helvetica,sans-Serif" font-size="11.00" fill="#000000">muutoksen_tekija</text>
<polygon fill="none" stroke="#000000" points="521,-213.2 521,-235.2 630,-235.2 630,-213.2 521,-213.2"/>
<text text-anchor="start" x="524" y="-220.9" font-family="Helvetica,sans-Serif" font-size="11.00" fill="#000000">text[2147483647]</text>
<polygon fill="none" stroke="#000000" points="276,-191.2 276,-213.2 521,-213.2 521,-191.2 276,-191.2"/>
<text text-anchor="start" x="296" y="-198.3" font-family="Helvetica,sans-Serif" font-size="11.00" fill="#000000">oppija_oid</text>
<polygon fill="none" stroke="#000000" points="521,-191.2 521,-213.2 630,-213.2 630,-191.2 521,-191.2"/>
<text text-anchor="start" x="523.5344" y="-198.9" font-family="Helvetica,sans-Serif" font-size="11.00" fill="#000000">varchar[2147483647]</text>
<polygon fill="none" stroke="#000000" points="276,-169.2 276,-191.2 521,-191.2 521,-169.2 276,-169.2"/>
<text text-anchor="start" x="296" y="-176.3" font-family="Helvetica,sans-Serif" font-size="11.00" fill="#000000">alku</text>
<polygon fill="none" stroke="#000000" points="521,-169.2 521,-191.2 630,-191.2 630,-169.2 521,-169.2"/>
<text text-anchor="start" x="524" y="-176.9" font-family="Helvetica,sans-Serif" font-size="11.00" fill="#000000">date[13]</text>
<polygon fill="none" stroke="#000000" points="276,-147.2 276,-169.2 521,-169.2 521,-147.2 276,-147.2"/>
<text text-anchor="start" x="296" y="-154.3" font-family="Helvetica,sans-Serif" font-size="11.00" fill="#000000">loppu</text>
<polygon fill="none" stroke="#000000" points="521,-147.2 521,-169.2 630,-169.2 630,-147.2 521,-147.2"/>
<text text-anchor="start" x="524" y="-154.9" font-family="Helvetica,sans-Serif" font-size="11.00" fill="#000000">date[13]</text>
<polygon fill="none" stroke="#000000" points="276,-125.2 276,-147.2 521,-147.2 521,-125.2 276,-125.2"/>
<text text-anchor="start" x="296" y="-132.3" font-family="Helvetica,sans-Serif" font-size="11.00" fill="#000000">luotu</text>
<polygon fill="none" stroke="#000000" points="521,-125.2 521,-147.2 630,-147.2 630,-125.2 521,-125.2"/>
<text text-anchor="start" x="524" y="-132.9" font-family="Helvetica,sans-Serif" font-size="11.00" fill="#000000">timestamp[29,6]</text>
<polygon fill="none" stroke="#000000" points="276,-103.2 276,-125.2 521,-125.2 521,-103.2 276,-103.2"/>
<text text-anchor="start" x="296" y="-110.3" font-family="Helvetica,sans-Serif" font-size="11.00" fill="#000000">tekijä_oid</text>
<polygon fill="none" stroke="#000000" points="521,-103.2 521,-125.2 630,-125.2 630,-103.2 521,-103.2"/>
<text text-anchor="start" x="524" y="-110.9" font-family="Helvetica,sans-Serif" font-size="11.00" fill="#000000">text[2147483647]</text>
<polygon fill="none" stroke="#000000" points="276,-81.2 276,-103.2 521,-103.2 521,-81.2 276,-81.2"/>
<text text-anchor="start" x="296" y="-88.3" font-family="Helvetica,sans-Serif" font-size="11.00" fill="#000000">tekijä_organisaatio_oid</text>
<polygon fill="none" stroke="#000000" points="521,-81.2 521,-103.2 630,-103.2 630,-81.2 521,-81.2"/>
<text text-anchor="start" x="524" y="-88.9" font-family="Helvetica,sans-Serif" font-size="11.00" fill="#000000">text[2147483647]</text>
<polygon fill="none" stroke="#000000" points="276,-59.2 276,-81.2 521,-81.2 521,-59.2 276,-59.2"/>
<text text-anchor="start" x="296" y="-66.3" font-family="Helvetica,sans-Serif" font-size="11.00" fill="#000000">peruttu</text>
<polygon fill="none" stroke="#000000" points="521,-59.2 521,-81.2 630,-81.2 630,-59.2 521,-59.2"/>
<text text-anchor="start" x="524" y="-66.9" font-family="Helvetica,sans-Serif" font-size="11.00" fill="#000000">bool[1]</text>
<polygon fill="#ffffff" stroke="transparent" points="276,-40.2 276,-59.2 403,-59.2 403,-40.2 276,-40.2"/>
<polygon fill="none" stroke="#000000" points="276,-40.2 276,-59.2 403,-59.2 403,-40.2 276,-40.2"/>
<text text-anchor="start" x="279" y="-46.3" font-family="Helvetica,sans-Serif" font-size="11.00" fill="#000000">&lt; 1</text>
<polygon fill="#ffffff" stroke="transparent" points="403,-40.2 403,-59.2 521,-59.2 521,-40.2 403,-40.2"/>
<polygon fill="none" stroke="#000000" points="403,-40.2 403,-59.2 521,-59.2 521,-40.2 403,-40.2"/>
<text text-anchor="start" x="511.8862" y="-46.3" font-family="Helvetica,sans-Serif" font-size="11.00" fill="#000000"> &#160;</text>
<polygon fill="#ffffff" stroke="transparent" points="521,-40.2 521,-59.2 630,-59.2 630,-40.2 521,-40.2"/>
<polygon fill="none" stroke="#000000" points="521,-40.2 521,-59.2 630,-59.2 630,-40.2 521,-40.2"/>
<text text-anchor="start" x="611.4053" y="-46.3" font-family="Helvetica,sans-Serif" font-size="11.00" fill="#000000">0 &gt;</text>
<polygon fill="none" stroke="#000000" stroke-width="2" points="275,-39.2 275,-325.2 631,-325.2 631,-39.2 275,-39.2"/>
</a>
</g>
</g>
<!-- oppivelvollisuuden_keskeytys -->
<g id="node2" class="node">
<title>oppivelvollisuuden_keskeytys</title>
<g id="a_node2"><a xlink:href="../../tables/oppivelvollisuuden_keskeytys.html" xlink:title="oppivelvollisuuden_keskeytys" target="_top">
<polygon fill="#ffffff" stroke="transparent" points="8,-219.7 8,-302.7 225,-302.7 225,-219.7 8,-219.7"/>
<polygon fill="#f5f5f5" stroke="transparent" points="8.5,-279.2 8.5,-302.2 225.5,-302.2 225.5,-279.2 8.5,-279.2"/>
<polygon fill="none" stroke="#000000" points="8.5,-279.2 8.5,-302.2 225.5,-302.2 225.5,-279.2 8.5,-279.2"/>
<text text-anchor="start" x="13.5" y="-287.8" font-family="Helvetica,sans-Serif" font-weight="bold" font-size="11.00" fill="#000000">oppivelvollisuuden_keskeytys</text>
<text text-anchor="start" x="191.0219" y="-287.3" font-family="Helvetica,sans-Serif" font-size="11.00" fill="#000000">[table]</text>
<polygon fill="none" stroke="#000000" points="8.5,-257.2 8.5,-279.2 225.5,-279.2 225.5,-257.2 8.5,-257.2"/>
<image xlink:href="../../images/primaryKeys.png" width="11px" height="12px" preserveAspectRatio="xMinYMin meet" x="13.5" y="-274.2"/>
<text text-anchor="start" x="37.5" y="-264.3" font-family="Helvetica,sans-Serif" font-size="11.00" fill="#000000">uuid</text>
<polygon fill="none" stroke="#000000" points="8.5,-238.2 8.5,-257.2 225.5,-257.2 225.5,-238.2 8.5,-238.2"/>
<text text-anchor="start" x="11.5" y="-244.3" font-family="Helvetica,sans-Serif" font-size="11.00" fill="#000000">...</text>
<polygon fill="#ffffff" stroke="transparent" points="8.5,-219.2 8.5,-238.2 93.5,-238.2 93.5,-219.2 8.5,-219.2"/>
<polygon fill="none" stroke="#000000" points="8.5,-219.2 8.5,-238.2 93.5,-238.2 93.5,-219.2 8.5,-219.2"/>
<text text-anchor="start" x="11.5" y="-225.3" font-family="Helvetica,sans-Serif" font-size="11.00" fill="#000000"> &#160;</text>
<polygon fill="#ffffff" stroke="transparent" points="93.5,-219.2 93.5,-238.2 167.5,-238.2 167.5,-219.2 93.5,-219.2"/>
<polygon fill="none" stroke="#000000" points="93.5,-219.2 93.5,-238.2 167.5,-238.2 167.5,-219.2 93.5,-219.2"/>
<text text-anchor="start" x="132.1105" y="-225.3" font-family="Helvetica,sans-Serif" font-size="11.00" fill="#000000">8 rows</text>
<polygon fill="#ffffff" stroke="transparent" points="167.5,-219.2 167.5,-238.2 225.5,-238.2 225.5,-219.2 167.5,-219.2"/>
<polygon fill="none" stroke="#000000" points="167.5,-219.2 167.5,-238.2 225.5,-238.2 225.5,-219.2 167.5,-219.2"/>
<text text-anchor="start" x="206.9053" y="-225.3" font-family="Helvetica,sans-Serif" font-size="11.00" fill="#000000">1 &gt;</text>
</a>
</g>
</g>
<!-- oppivelvollisuuden_keskeytyshistoria&#45;&gt;oppivelvollisuuden_keskeytys -->
<g id="edge1" class="edge">
<title>oppivelvollisuuden_keskeytyshistoria:w&#45;&gt;oppivelvollisuuden_keskeytys:e</title>
<path fill="none" stroke="#000000" d="M261.4203,-268.2C249.5435,-268.2 242.158,-268.2 225.5,-268.2"/>
<polygon fill="#000000" stroke="#000000" points="268,-268.2001 276,-271.8 272,-268.2 276,-268.2 276,-268.2 276,-268.2 272,-268.2 276,-264.6 268,-268.2001 268,-268.2001"/>
<ellipse fill="none" stroke="#000000" cx="264.8" cy="-268.2001" rx="3.2" ry="3.2"/>
</g>
</g>
</svg>
