<?xml version="1.0" encoding="UTF-8" standalone="no"?>
<!DOCTYPE svg PUBLIC "-//W3C//DTD SVG 1.1//EN"
 "http://www.w3.org/Graphics/SVG/1.1/DTD/svg11.dtd">
<!-- Generated by graphviz version 2.40.1 (20161225.0304)
 -->
<!-- Title: oneDegreeRelationshipsDiagram Pages: 1 -->
<svg width="648pt" height="293pt"
 viewBox="0.00 0.00 648.00 292.70" xmlns="http://www.w3.org/2000/svg" xmlns:xlink="http://www.w3.org/1999/xlink">
<g id="graph0" class="graph" transform="scale(1 1) rotate(0) translate(4 288.7)">
<title>oneDegreeRelationshipsDiagram</title>
<polygon fill="#ffffff" stroke="transparent" points="-4,4 -4,-288.7 644,-288.7 644,4 -4,4"/>
<text text-anchor="middle" x="72.4936" y="-7.3" font-family="Helvetica,sans-Serif" font-size="11.00" fill="#000000">Generated by SchemaSpy</text>
<!-- oppivelvollisuuden_keskeytyshistoria -->
<g id="node1" class="node">
<title>oppivelvollisuuden_keskeytyshistoria</title>
<g id="a_node1"><a xlink:href="../../tables/oppivelvollisuuden_keskeytyshistoria.html" xlink:title="oppivelvollisuuden_keskeytyshistoria" target="_top">
<polygon fill="#ffffff" stroke="transparent" points="369,-175.7 369,-280.7 632,-280.7 632,-175.7 369,-175.7"/>
<polygon fill="#f5f5f5" stroke="transparent" points="369.5,-257.2 369.5,-280.2 632.5,-280.2 632.5,-257.2 369.5,-257.2"/>
<polygon fill="none" stroke="#000000" points="369.5,-257.2 369.5,-280.2 632.5,-280.2 632.5,-257.2 369.5,-257.2"/>
<text text-anchor="start" x="374.5" y="-265.8" font-family="Helvetica,sans-Serif" font-weight="bold" font-size="11.00" fill="#000000">oppivelvollisuuden_keskeytyshistoria</text>
<text text-anchor="start" x="598.0219" y="-265.3" font-family="Helvetica,sans-Serif" font-size="11.00" fill="#000000">[table]</text>
<polygon fill="none" stroke="#000000" points="369.5,-235.2 369.5,-257.2 632.5,-257.2 632.5,-235.2 369.5,-235.2"/>
<image xlink:href="../../images/primaryKeys.png" width="11px" height="12px" preserveAspectRatio="xMinYMin meet" x="374.5" y="-252.2"/>
<text text-anchor="start" x="398.5" y="-242.3" font-family="Helvetica,sans-Serif" font-size="11.00" fill="#000000">id</text>
<polygon fill="none" stroke="#000000" points="369.5,-213.2 369.5,-235.2 632.5,-235.2 632.5,-213.2 369.5,-213.2"/>
<image xlink:href="../../images/foreignKeys.png" width="11px" height="12px" preserveAspectRatio="xMinYMin meet" x="374.5" y="-230.2"/>
<text text-anchor="start" x="398.5" y="-220.3" font-family="Helvetica,sans-Serif" font-size="11.00" fill="#000000">ov_keskeytys_uuid</text>
<polygon fill="none" stroke="#000000" points="369.5,-194.2 369.5,-213.2 632.5,-213.2 632.5,-194.2 369.5,-194.2"/>
<text text-anchor="start" x="372.5" y="-200.3" font-family="Helvetica,sans-Serif" font-size="11.00" fill="#000000">...</text>
<polygon fill="#ffffff" stroke="transparent" points="369.5,-175.2 369.5,-194.2 499.5,-194.2 499.5,-175.2 369.5,-175.2"/>
<polygon fill="none" stroke="#000000" points="369.5,-175.2 369.5,-194.2 499.5,-194.2 499.5,-175.2 369.5,-175.2"/>
<text text-anchor="start" x="372.5" y="-181.3" font-family="Helvetica,sans-Serif" font-size="11.00" fill="#000000">&lt; 1</text>
<polygon fill="#ffffff" stroke="transparent" points="499.5,-175.2 499.5,-194.2 565.5,-194.2 565.5,-175.2 499.5,-175.2"/>
<polygon fill="none" stroke="#000000" points="499.5,-175.2 499.5,-194.2 565.5,-194.2 565.5,-175.2 499.5,-175.2"/>
<text text-anchor="start" x="556.3862" y="-181.3" font-family="Helvetica,sans-Serif" font-size="11.00" fill="#000000"> &#160;</text>
<polygon fill="#ffffff" stroke="transparent" points="565.5,-175.2 565.5,-194.2 632.5,-194.2 632.5,-175.2 565.5,-175.2"/>
<polygon fill="none" stroke="#000000" points="565.5,-175.2 565.5,-194.2 632.5,-194.2 632.5,-175.2 565.5,-175.2"/>
<text text-anchor="start" x="623.3862" y="-181.3" font-family="Helvetica,sans-Serif" font-size="11.00" fill="#000000"> &#160;</text>
</a>
</g>
</g>
<!-- oppivelvollisuuden_keskeytys -->
<g id="node2" class="node">
<title>oppivelvollisuuden_keskeytys</title>
<g id="a_node2"><a xlink:href="../../tables/oppivelvollisuuden_keskeytys.html" xlink:title="oppivelvollisuuden_keskeytys" target="_top">
<polygon fill="#ffffff" stroke="transparent" points="8,-38.2 8,-260.2 320,-260.2 320,-38.2 8,-38.2"/>
<polygon fill="#f5f5f5" stroke="transparent" points="10,-235.2 10,-258.2 318,-258.2 318,-235.2 10,-235.2"/>
<polygon fill="none" stroke="#000000" points="10,-235.2 10,-258.2 318,-258.2 318,-235.2 10,-235.2"/>
<text text-anchor="start" x="15" y="-243.8" font-family="Helvetica,sans-Serif" font-weight="bold" font-size="11.00" fill="#000000">oppivelvollisuuden_keskeytys</text>
<text text-anchor="start" x="283.0437" y="-243.3" font-family="Helvetica,sans-Serif" font-size="11.00" fill="#000000">[table]</text>
<polygon fill="none" stroke="#000000" points="10,-213.2 10,-235.2 209,-235.2 209,-213.2 10,-213.2"/>
<image xlink:href="../../images/primaryKeys.png" width="11px" height="12px" preserveAspectRatio="xMinYMin meet" x="15" y="-230.2"/>
<text text-anchor="start" x="30" y="-220.3" font-family="Helvetica,sans-Serif" font-size="11.00" fill="#000000">uuid</text>
<polygon fill="none" stroke="#000000" points="209,-213.2 209,-235.2 318,-235.2 318,-213.2 209,-213.2"/>
<text text-anchor="start" x="212" y="-220.9" font-family="Helvetica,sans-Serif" font-size="11.00" fill="#000000">uuid[2147483647]</text>
<polygon fill="none" stroke="#000000" points="10,-191.2 10,-213.2 209,-213.2 209,-191.2 10,-191.2"/>
<text text-anchor="start" x="30" y="-198.3" font-family="Helvetica,sans-Serif" font-size="11.00" fill="#000000">oppija_oid</text>
<polygon fill="none" stroke="#000000" points="209,-191.2 209,-213.2 318,-213.2 318,-191.2 209,-191.2"/>
<text text-anchor="start" x="211.5344" y="-198.9" font-family="Helvetica,sans-Serif" font-size="11.00" fill="#000000">varchar[2147483647]</text>
<polygon fill="none" stroke="#000000" points="10,-169.2 10,-191.2 209,-191.2 209,-169.2 10,-169.2"/>
<text text-anchor="start" x="30" y="-176.3" font-family="Helvetica,sans-Serif" font-size="11.00" fill="#000000">alku</text>
<polygon fill="none" stroke="#000000" points="209,-169.2 209,-191.2 318,-191.2 318,-169.2 209,-169.2"/>
<text text-anchor="start" x="212" y="-176.9" font-family="Helvetica,sans-Serif" font-size="11.00" fill="#000000">date[13]</text>
<polygon fill="none" stroke="#000000" points="10,-147.2 10,-169.2 209,-169.2 209,-147.2 10,-147.2"/>
<text text-anchor="start" x="30" y="-154.3" font-family="Helvetica,sans-Serif" font-size="11.00" fill="#000000">loppu</text>
<polygon fill="none" stroke="#000000" points="209,-147.2 209,-169.2 318,-169.2 318,-147.2 209,-147.2"/>
<text text-anchor="start" x="212" y="-154.9" font-family="Helvetica,sans-Serif" font-size="11.00" fill="#000000">date[13]</text>
<polygon fill="none" stroke="#000000" points="10,-125.2 10,-147.2 209,-147.2 209,-125.2 10,-125.2"/>
<text text-anchor="start" x="30" y="-132.3" font-family="Helvetica,sans-Serif" font-size="11.00" fill="#000000">luotu</text>
<polygon fill="none" stroke="#000000" points="209,-125.2 209,-147.2 318,-147.2 318,-125.2 209,-125.2"/>
<text text-anchor="start" x="212" y="-132.9" font-family="Helvetica,sans-Serif" font-size="11.00" fill="#000000">timestamp[29,6]</text>
<polygon fill="none" stroke="#000000" points="10,-103.2 10,-125.2 209,-125.2 209,-103.2 10,-103.2"/>
<text text-anchor="start" x="30" y="-110.3" font-family="Helvetica,sans-Serif" font-size="11.00" fill="#000000">tekijä_oid</text>
<polygon fill="none" stroke="#000000" points="209,-103.2 209,-125.2 318,-125.2 318,-103.2 209,-103.2"/>
<text text-anchor="start" x="212" y="-110.9" font-family="Helvetica,sans-Serif" font-size="11.00" fill="#000000">text[2147483647]</text>
<polygon fill="none" stroke="#000000" points="10,-81.2 10,-103.2 209,-103.2 209,-81.2 10,-81.2"/>
<text text-anchor="start" x="30" y="-88.3" font-family="Helvetica,sans-Serif" font-size="11.00" fill="#000000">tekijä_organisaatio_oid</text>
<polygon fill="none" stroke="#000000" points="209,-81.2 209,-103.2 318,-103.2 318,-81.2 209,-81.2"/>
<text text-anchor="start" x="212" y="-88.9" font-family="Helvetica,sans-Serif" font-size="11.00" fill="#000000">text[2147483647]</text>
<polygon fill="none" stroke="#000000" points="10,-59.2 10,-81.2 209,-81.2 209,-59.2 10,-59.2"/>
<text text-anchor="start" x="30" y="-66.3" font-family="Helvetica,sans-Serif" font-size="11.00" fill="#000000">peruttu</text>
<polygon fill="none" stroke="#000000" points="209,-59.2 209,-81.2 318,-81.2 318,-59.2 209,-59.2"/>
<text text-anchor="start" x="212" y="-66.9" font-family="Helvetica,sans-Serif" font-size="11.00" fill="#000000">bool[1]</text>
<polygon fill="#ffffff" stroke="transparent" points="10,-40.2 10,-59.2 101,-59.2 101,-40.2 10,-40.2"/>
<polygon fill="none" stroke="#000000" points="10,-40.2 10,-59.2 101,-59.2 101,-40.2 10,-40.2"/>
<text text-anchor="start" x="13" y="-46.3" font-family="Helvetica,sans-Serif" font-size="11.00" fill="#000000">&lt; 0</text>
<polygon fill="#ffffff" stroke="transparent" points="101,-40.2 101,-59.2 209,-59.2 209,-40.2 101,-40.2"/>
<polygon fill="none" stroke="#000000" points="101,-40.2 101,-59.2 209,-59.2 209,-40.2 101,-40.2"/>
<text text-anchor="start" x="173.6105" y="-46.3" font-family="Helvetica,sans-Serif" font-size="11.00" fill="#000000">8 rows</text>
<polygon fill="#ffffff" stroke="transparent" points="209,-40.2 209,-59.2 318,-59.2 318,-40.2 209,-40.2"/>
<polygon fill="none" stroke="#000000" points="209,-40.2 209,-59.2 318,-59.2 318,-40.2 209,-40.2"/>
<text text-anchor="start" x="299.4053" y="-46.3" font-family="Helvetica,sans-Serif" font-size="11.00" fill="#000000">1 &gt;</text>
<polygon fill="none" stroke="#000000" stroke-width="2" points="9,-39.2 9,-259.2 319,-259.2 319,-39.2 9,-39.2"/>
</a>
</g>
</g>
<!-- oppivelvollisuuden_keskeytyshistoria&#45;&gt;oppivelvollisuuden_keskeytys -->
<g id="edge1" class="edge">
<title>oppivelvollisuuden_keskeytyshistoria:w&#45;&gt;oppivelvollisuuden_keskeytys:e</title>
<path fill="none" stroke="#000000" d="M355.0156,-224.2C342.6771,-224.2 335.1667,-224.2 318,-224.2"/>
<polygon fill="#000000" stroke="#000000" points="361.5,-224.2001 369.5,-227.8 365.5,-224.2 369.5,-224.2 369.5,-224.2 369.5,-224.2 365.5,-224.2 369.5,-220.6 361.5,-224.2001 361.5,-224.2001"/>
<ellipse fill="none" stroke="#000000" cx="358.3" cy="-224.2001" rx="3.2" ry="3.2"/>
</g>
</g>
</svg>
