<?xml version="1.0" encoding="UTF-8" standalone="no"?>
<!DOCTYPE svg PUBLIC "-//W3C//DTD SVG 1.1//EN"
 "http://www.w3.org/Graphics/SVG/1.1/DTD/svg11.dtd">
<!-- Generated by graphviz version 2.40.1 (20161225.0304)
 -->
<!-- Title: oneDegreeRelationshipsDiagram Pages: 1 -->
<svg width="700pt" height="338pt"
 viewBox="0.00 0.00 700.00 338.20" xmlns="http://www.w3.org/2000/svg" xmlns:xlink="http://www.w3.org/1999/xlink">
<g id="graph0" class="graph" transform="scale(1 1) rotate(0) translate(4 334.2)">
<title>oneDegreeRelationshipsDiagram</title>
<polygon fill="#ffffff" stroke="transparent" points="-4,4 -4,-334.2 696,-334.2 696,4 -4,4"/>
<text text-anchor="middle" x="72.4936" y="-7.3" font-family="Helvetica,sans-Serif" font-size="11.00" fill="#000000">Generated by SchemaSpy</text>
<!-- oppivelvollisuuden_keskeytyshistoria -->
<g id="node1" class="node">
<title>oppivelvollisuuden_keskeytyshistoria</title>
<g id="a_node1"><a xlink:href="../../tables/oppivelvollisuuden_keskeytyshistoria.html" xlink:title="oppivelvollisuuden_keskeytyshistoria" target="_top">
<polygon fill="#ffffff" stroke="transparent" points="297,-38.2 297,-326.2 684,-326.2 684,-38.2 297,-38.2"/>
<polygon fill="#f5f5f5" stroke="transparent" points="299.5,-301.2 299.5,-324.2 682.5,-324.2 682.5,-301.2 299.5,-301.2"/>
<polygon fill="none" stroke="#000000" points="299.5,-301.2 299.5,-324.2 682.5,-324.2 682.5,-301.2 299.5,-301.2"/>
<text text-anchor="start" x="304.5" y="-309.8" font-family="Helvetica,sans-Serif" font-weight="bold" font-size="11.00" fill="#000000">oppivelvollisuuden_keskeytyshistoria</text>
<text text-anchor="start" x="647.5437" y="-309.3" font-family="Helvetica,sans-Serif" font-size="11.00" fill="#000000">[table]</text>
<polygon fill="none" stroke="#000000" points="299.5,-279.2 299.5,-301.2 573.5,-301.2 573.5,-279.2 299.5,-279.2"/>
<image xlink:href="../../images/primaryKeys.png" width="11px" height="12px" preserveAspectRatio="xMinYMin meet" x="304.5" y="-296.2"/>
<text text-anchor="start" x="319.5" y="-286.3" font-family="Helvetica,sans-Serif" font-size="11.00" fill="#000000">id</text>
<polygon fill="none" stroke="#000000" points="573.5,-279.2 573.5,-301.2 682.5,-301.2 682.5,-279.2 573.5,-279.2"/>
<text text-anchor="start" x="576.5" y="-286.9" font-family="Helvetica,sans-Serif" font-size="11.00" fill="#000000">serial[10]</text>
<polygon fill="none" stroke="#000000" points="299.5,-257.2 299.5,-279.2 573.5,-279.2 573.5,-257.2 299.5,-257.2"/>
<image xlink:href="../../images/foreignKeys.png" width="11px" height="12px" preserveAspectRatio="xMinYMin meet" x="304.5" y="-274.2"/>
<text text-anchor="start" x="319.5" y="-264.3" font-family="Helvetica,sans-Serif" font-size="11.00" fill="#000000">ov_keskeytys_uuid</text>
<polygon fill="none" stroke="#000000" points="573.5,-257.2 573.5,-279.2 682.5,-279.2 682.5,-257.2 573.5,-257.2"/>
<text text-anchor="start" x="576.5" y="-264.9" font-family="Helvetica,sans-Serif" font-size="11.00" fill="#000000">uuid[2147483647]</text>
<polygon fill="none" stroke="#000000" points="299.5,-235.2 299.5,-257.2 573.5,-257.2 573.5,-235.2 299.5,-235.2"/>
<text text-anchor="start" x="319.5" y="-242.3" font-family="Helvetica,sans-Serif" font-size="11.00" fill="#000000">muutos_tehty</text>
<polygon fill="none" stroke="#000000" points="573.5,-235.2 573.5,-257.2 682.5,-257.2 682.5,-235.2 573.5,-235.2"/>
<text text-anchor="start" x="576.5" y="-242.9" font-family="Helvetica,sans-Serif" font-size="11.00" fill="#000000">timestamp[29,6]</text>
<polygon fill="none" stroke="#000000" points="299.5,-213.2 299.5,-235.2 573.5,-235.2 573.5,-213.2 299.5,-213.2"/>
<text text-anchor="start" x="319.5" y="-220.3" font-family="Helvetica,sans-Serif" font-size="11.00" fill="#000000">muutoksen_tekija</text>
<polygon fill="none" stroke="#000000" points="573.5,-213.2 573.5,-235.2 682.5,-235.2 682.5,-213.2 573.5,-213.2"/>
<text text-anchor="start" x="576.5" y="-220.9" font-family="Helvetica,sans-Serif" font-size="11.00" fill="#000000">text[2147483647]</text>
<polygon fill="none" stroke="#000000" points="299.5,-191.2 299.5,-213.2 573.5,-213.2 573.5,-191.2 299.5,-191.2"/>
<text text-anchor="start" x="319.5" y="-198.3" font-family="Helvetica,sans-Serif" font-size="11.00" fill="#000000">oppija_oid</text>
<polygon fill="none" stroke="#000000" points="573.5,-191.2 573.5,-213.2 682.5,-213.2 682.5,-191.2 573.5,-191.2"/>
<text text-anchor="start" x="576.0344" y="-198.9" font-family="Helvetica,sans-Serif" font-size="11.00" fill="#000000">varchar[2147483647]</text>
<polygon fill="none" stroke="#000000" points="299.5,-169.2 299.5,-191.2 573.5,-191.2 573.5,-169.2 299.5,-169.2"/>
<text text-anchor="start" x="319.5" y="-176.3" font-family="Helvetica,sans-Serif" font-size="11.00" fill="#000000">alku</text>
<polygon fill="none" stroke="#000000" points="573.5,-169.2 573.5,-191.2 682.5,-191.2 682.5,-169.2 573.5,-169.2"/>
<text text-anchor="start" x="576.5" y="-176.9" font-family="Helvetica,sans-Serif" font-size="11.00" fill="#000000">date[13]</text>
<polygon fill="none" stroke="#000000" points="299.5,-147.2 299.5,-169.2 573.5,-169.2 573.5,-147.2 299.5,-147.2"/>
<text text-anchor="start" x="319.5" y="-154.3" font-family="Helvetica,sans-Serif" font-size="11.00" fill="#000000">loppu</text>
<polygon fill="none" stroke="#000000" points="573.5,-147.2 573.5,-169.2 682.5,-169.2 682.5,-147.2 573.5,-147.2"/>
<text text-anchor="start" x="576.5" y="-154.9" font-family="Helvetica,sans-Serif" font-size="11.00" fill="#000000">date[13]</text>
<polygon fill="none" stroke="#000000" points="299.5,-125.2 299.5,-147.2 573.5,-147.2 573.5,-125.2 299.5,-125.2"/>
<text text-anchor="start" x="319.5" y="-132.3" font-family="Helvetica,sans-Serif" font-size="11.00" fill="#000000">luotu</text>
<polygon fill="none" stroke="#000000" points="573.5,-125.2 573.5,-147.2 682.5,-147.2 682.5,-125.2 573.5,-125.2"/>
<text text-anchor="start" x="576.5" y="-132.9" font-family="Helvetica,sans-Serif" font-size="11.00" fill="#000000">timestamp[29,6]</text>
<polygon fill="none" stroke="#000000" points="299.5,-103.2 299.5,-125.2 573.5,-125.2 573.5,-103.2 299.5,-103.2"/>
<text text-anchor="start" x="319.5" y="-110.3" font-family="Helvetica,sans-Serif" font-size="11.00" fill="#000000">tekijä_oid</text>
<polygon fill="none" stroke="#000000" points="573.5,-103.2 573.5,-125.2 682.5,-125.2 682.5,-103.2 573.5,-103.2"/>
<text text-anchor="start" x="576.5" y="-110.9" font-family="Helvetica,sans-Serif" font-size="11.00" fill="#000000">text[2147483647]</text>
<polygon fill="none" stroke="#000000" points="299.5,-81.2 299.5,-103.2 573.5,-103.2 573.5,-81.2 299.5,-81.2"/>
<text text-anchor="start" x="319.5" y="-88.3" font-family="Helvetica,sans-Serif" font-size="11.00" fill="#000000">tekijä_organisaatio_oid</text>
<polygon fill="none" stroke="#000000" points="573.5,-81.2 573.5,-103.2 682.5,-103.2 682.5,-81.2 573.5,-81.2"/>
<text text-anchor="start" x="576.5" y="-88.9" font-family="Helvetica,sans-Serif" font-size="11.00" fill="#000000">text[2147483647]</text>
<polygon fill="none" stroke="#000000" points="299.5,-59.2 299.5,-81.2 573.5,-81.2 573.5,-59.2 299.5,-59.2"/>
<text text-anchor="start" x="319.5" y="-66.3" font-family="Helvetica,sans-Serif" font-size="11.00" fill="#000000">peruttu</text>
<polygon fill="none" stroke="#000000" points="573.5,-59.2 573.5,-81.2 682.5,-81.2 682.5,-59.2 573.5,-59.2"/>
<text text-anchor="start" x="576.5" y="-66.9" font-family="Helvetica,sans-Serif" font-size="11.00" fill="#000000">bool[1]</text>
<polygon fill="#ffffff" stroke="transparent" points="299.5,-40.2 299.5,-59.2 440.5,-59.2 440.5,-40.2 299.5,-40.2"/>
<polygon fill="none" stroke="#000000" points="299.5,-40.2 299.5,-59.2 440.5,-59.2 440.5,-40.2 299.5,-40.2"/>
<text text-anchor="start" x="302.5" y="-46.3" font-family="Helvetica,sans-Serif" font-size="11.00" fill="#000000">&lt; 1</text>
<polygon fill="#ffffff" stroke="transparent" points="440.5,-40.2 440.5,-59.2 573.5,-59.2 573.5,-40.2 440.5,-40.2"/>
<polygon fill="none" stroke="#000000" points="440.5,-40.2 440.5,-59.2 573.5,-59.2 573.5,-40.2 440.5,-40.2"/>
<text text-anchor="start" x="564.3862" y="-46.3" font-family="Helvetica,sans-Serif" font-size="11.00" fill="#000000"> &#160;</text>
<polygon fill="#ffffff" stroke="transparent" points="573.5,-40.2 573.5,-59.2 682.5,-59.2 682.5,-40.2 573.5,-40.2"/>
<polygon fill="none" stroke="#000000" points="573.5,-40.2 573.5,-59.2 682.5,-59.2 682.5,-40.2 573.5,-40.2"/>
<text text-anchor="start" x="663.9053" y="-46.3" font-family="Helvetica,sans-Serif" font-size="11.00" fill="#000000">0 &gt;</text>
<polygon fill="none" stroke="#000000" stroke-width="2" points="298,-39.2 298,-325.2 683,-325.2 683,-39.2 298,-39.2"/>
</a>
</g>
</g>
<!-- oppivelvollisuuden_keskeytys -->
<g id="node2" class="node">
<title>oppivelvollisuuden_keskeytys</title>
<g id="a_node2"><a xlink:href="../../tables/oppivelvollisuuden_keskeytys.html" xlink:title="oppivelvollisuuden_keskeytys" target="_top">
<polygon fill="#ffffff" stroke="transparent" points="8,-219.7 8,-302.7 248,-302.7 248,-219.7 8,-219.7"/>
<polygon fill="#f5f5f5" stroke="transparent" points="8,-279.2 8,-302.2 248,-302.2 248,-279.2 8,-279.2"/>
<polygon fill="none" stroke="#000000" points="8,-279.2 8,-302.2 248,-302.2 248,-279.2 8,-279.2"/>
<text text-anchor="start" x="13" y="-287.8" font-family="Helvetica,sans-Serif" font-weight="bold" font-size="11.00" fill="#000000">oppivelvollisuuden_keskeytys</text>
<text text-anchor="start" x="213.5219" y="-287.3" font-family="Helvetica,sans-Serif" font-size="11.00" fill="#000000">[table]</text>
<polygon fill="none" stroke="#000000" points="8,-257.2 8,-279.2 248,-279.2 248,-257.2 8,-257.2"/>
<image xlink:href="../../images/primaryKeys.png" width="11px" height="12px" preserveAspectRatio="xMinYMin meet" x="13" y="-274.2"/>
<text text-anchor="start" x="37" y="-264.3" font-family="Helvetica,sans-Serif" font-size="11.00" fill="#000000">uuid</text>
<polygon fill="none" stroke="#000000" points="8,-238.2 8,-257.2 248,-257.2 248,-238.2 8,-238.2"/>
<text text-anchor="start" x="11" y="-244.3" font-family="Helvetica,sans-Serif" font-size="11.00" fill="#000000">...</text>
<polygon fill="#ffffff" stroke="transparent" points="8,-219.2 8,-238.2 117,-238.2 117,-219.2 8,-219.2"/>
<polygon fill="none" stroke="#000000" points="8,-219.2 8,-238.2 117,-238.2 117,-219.2 8,-219.2"/>
<text text-anchor="start" x="11" y="-225.3" font-family="Helvetica,sans-Serif" font-size="11.00" fill="#000000"> &#160;</text>
<polygon fill="#ffffff" stroke="transparent" points="117,-219.2 117,-238.2 178,-238.2 178,-219.2 117,-219.2"/>
<polygon fill="none" stroke="#000000" points="117,-219.2 117,-238.2 178,-238.2 178,-219.2 117,-219.2"/>
<text text-anchor="start" x="168.8862" y="-225.3" font-family="Helvetica,sans-Serif" font-size="11.00" fill="#000000"> &#160;</text>
<polygon fill="#ffffff" stroke="transparent" points="178,-219.2 178,-238.2 248,-238.2 248,-219.2 178,-219.2"/>
<polygon fill="none" stroke="#000000" points="178,-219.2 178,-238.2 248,-238.2 248,-219.2 178,-219.2"/>
<text text-anchor="start" x="229.4053" y="-225.3" font-family="Helvetica,sans-Serif" font-size="11.00" fill="#000000">1 &gt;</text>
</a>
</g>
</g>
<!-- oppivelvollisuuden_keskeytyshistoria&#45;&gt;oppivelvollisuuden_keskeytys -->
<g id="edge1" class="edge">
<title>oppivelvollisuuden_keskeytyshistoria:w&#45;&gt;oppivelvollisuuden_keskeytys:e</title>
<path fill="none" stroke="#000000" d="M285.0156,-268.2C272.6771,-268.2 265.1667,-268.2 248,-268.2"/>
<polygon fill="#000000" stroke="#000000" points="291.5,-268.2001 299.5,-271.8 295.5,-268.2 299.5,-268.2 299.5,-268.2 299.5,-268.2 295.5,-268.2 299.5,-264.6 291.5,-268.2001 291.5,-268.2001"/>
<ellipse fill="none" stroke="#000000" cx="288.3" cy="-268.2001" rx="3.2" ry="3.2"/>
</g>
</g>
</svg>
